<?xml version="1.0" encoding="utf-8" standalone="no"?>
<!DOCTYPE svg PUBLIC "-//W3C//DTD SVG 1.1//EN"
  "http://www.w3.org/Graphics/SVG/1.1/DTD/svg11.dtd">
<!-- Created with matplotlib (http://matplotlib.org/) -->
<svg height="353pt" version="1.1" viewBox="0 0 441 353" width="441pt" xmlns="http://www.w3.org/2000/svg" xmlns:xlink="http://www.w3.org/1999/xlink">
 <defs>
  <style type="text/css">
*{stroke-linecap:butt;stroke-linejoin:round;}
  </style>
 </defs>
 <g id="figure_1">
  <g id="patch_1">
   <path d="M -0 353.22225 
L 441.802544 353.22225 
L 441.802544 0 
L -0 0 
z
" style="fill:#ffffff;"/>
  </g>
  <g id="axes_1">
   <g id="patch_2">
    <path d="M 73.113325 298.245375 
L 430.233325 298.245375 
L 430.233325 32.133375 
L 73.113325 32.133375 
z
" style="fill:#ffffff;"/>
   </g>
   <g id="matplotlib.axis_1">
    <g id="xtick_1">
     <g id="line2d_1">
      <path clip-path="url(#p4e054eb400)" d="M 73.113325 298.245375 
L 73.113325 32.133375 
" style="fill:none;stroke:#b0b0b0;stroke-linecap:square;stroke-width:0.8;"/>
     </g>
     <g id="line2d_2">
      <defs>
       <path d="M 0 0 
L 0 3.5 
" id="maa09efd70c" style="stroke:#000000;stroke-width:0.8;"/>
      </defs>
      <g>
       <use style="stroke:#000000;stroke-width:0.8;" x="73.113325" xlink:href="#maa09efd70c" y="298.245375"/>
      </g>
     </g>
     <g id="text_1">
      <!-- 0 -->
      <defs>
       <path d="M 31.78125 66.40625 
Q 24.171875 66.40625 20.328125 58.90625 
Q 16.5 51.421875 16.5 36.375 
Q 16.5 21.390625 20.328125 13.890625 
Q 24.171875 6.390625 31.78125 6.390625 
Q 39.453125 6.390625 43.28125 13.890625 
Q 47.125 21.390625 47.125 36.375 
Q 47.125 51.421875 43.28125 58.90625 
Q 39.453125 66.40625 31.78125 66.40625 
z
M 31.78125 74.21875 
Q 44.046875 74.21875 50.515625 64.515625 
Q 56.984375 54.828125 56.984375 36.375 
Q 56.984375 17.96875 50.515625 8.265625 
Q 44.046875 -1.421875 31.78125 -1.421875 
Q 19.53125 -1.421875 13.0625 8.265625 
Q 6.59375 17.96875 6.59375 36.375 
Q 6.59375 54.828125 13.0625 64.515625 
Q 19.53125 74.21875 31.78125 74.21875 
z
" id="DejaVuSans-30"/>
      </defs>
      <g transform="translate(66.750825 320.44225)scale(0.2 -0.2)">
       <use xlink:href="#DejaVuSans-30"/>
      </g>
     </g>
    </g>
    <g id="xtick_2">
     <g id="line2d_3">
      <path clip-path="url(#p4e054eb400)" d="M 155.39904 298.245375 
L 155.39904 32.133375 
" style="fill:none;stroke:#b0b0b0;stroke-linecap:square;stroke-width:0.8;"/>
     </g>
     <g id="line2d_4">
      <g>
       <use style="stroke:#000000;stroke-width:0.8;" x="155.39904" xlink:href="#maa09efd70c" y="298.245375"/>
      </g>
     </g>
     <g id="text_2">
      <!-- 2 -->
      <defs>
       <path d="M 19.1875 8.296875 
L 53.609375 8.296875 
L 53.609375 0 
L 7.328125 0 
L 7.328125 8.296875 
Q 12.9375 14.109375 22.625 23.890625 
Q 32.328125 33.6875 34.8125 36.53125 
Q 39.546875 41.84375 41.421875 45.53125 
Q 43.3125 49.21875 43.3125 52.78125 
Q 43.3125 58.59375 39.234375 62.25 
Q 35.15625 65.921875 28.609375 65.921875 
Q 23.96875 65.921875 18.8125 64.3125 
Q 13.671875 62.703125 7.8125 59.421875 
L 7.8125 69.390625 
Q 13.765625 71.78125 18.9375 73 
Q 24.125 74.21875 28.421875 74.21875 
Q 39.75 74.21875 46.484375 68.546875 
Q 53.21875 62.890625 53.21875 53.421875 
Q 53.21875 48.921875 51.53125 44.890625 
Q 49.859375 40.875 45.40625 35.40625 
Q 44.1875 33.984375 37.640625 27.21875 
Q 31.109375 20.453125 19.1875 8.296875 
z
" id="DejaVuSans-32"/>
      </defs>
      <g transform="translate(149.03654 320.44225)scale(0.2 -0.2)">
       <use xlink:href="#DejaVuSans-32"/>
      </g>
     </g>
    </g>
    <g id="xtick_3">
     <g id="line2d_5">
      <path clip-path="url(#p4e054eb400)" d="M 237.684754 298.245375 
L 237.684754 32.133375 
" style="fill:none;stroke:#b0b0b0;stroke-linecap:square;stroke-width:0.8;"/>
     </g>
     <g id="line2d_6">
      <g>
       <use style="stroke:#000000;stroke-width:0.8;" x="237.684754" xlink:href="#maa09efd70c" y="298.245375"/>
      </g>
     </g>
     <g id="text_3">
      <!-- 4 -->
      <defs>
       <path d="M 37.796875 64.3125 
L 12.890625 25.390625 
L 37.796875 25.390625 
z
M 35.203125 72.90625 
L 47.609375 72.90625 
L 47.609375 25.390625 
L 58.015625 25.390625 
L 58.015625 17.1875 
L 47.609375 17.1875 
L 47.609375 0 
L 37.796875 0 
L 37.796875 17.1875 
L 4.890625 17.1875 
L 4.890625 26.703125 
z
" id="DejaVuSans-34"/>
      </defs>
      <g transform="translate(231.322254 320.44225)scale(0.2 -0.2)">
       <use xlink:href="#DejaVuSans-34"/>
      </g>
     </g>
    </g>
    <g id="xtick_4">
     <g id="line2d_7">
      <path clip-path="url(#p4e054eb400)" d="M 319.970468 298.245375 
L 319.970468 32.133375 
" style="fill:none;stroke:#b0b0b0;stroke-linecap:square;stroke-width:0.8;"/>
     </g>
     <g id="line2d_8">
      <g>
       <use style="stroke:#000000;stroke-width:0.8;" x="319.970468" xlink:href="#maa09efd70c" y="298.245375"/>
      </g>
     </g>
     <g id="text_4">
      <!-- 6 -->
      <defs>
       <path d="M 33.015625 40.375 
Q 26.375 40.375 22.484375 35.828125 
Q 18.609375 31.296875 18.609375 23.390625 
Q 18.609375 15.53125 22.484375 10.953125 
Q 26.375 6.390625 33.015625 6.390625 
Q 39.65625 6.390625 43.53125 10.953125 
Q 47.40625 15.53125 47.40625 23.390625 
Q 47.40625 31.296875 43.53125 35.828125 
Q 39.65625 40.375 33.015625 40.375 
z
M 52.59375 71.296875 
L 52.59375 62.3125 
Q 48.875 64.0625 45.09375 64.984375 
Q 41.3125 65.921875 37.59375 65.921875 
Q 27.828125 65.921875 22.671875 59.328125 
Q 17.53125 52.734375 16.796875 39.40625 
Q 19.671875 43.65625 24.015625 45.921875 
Q 28.375 48.1875 33.59375 48.1875 
Q 44.578125 48.1875 50.953125 41.515625 
Q 57.328125 34.859375 57.328125 23.390625 
Q 57.328125 12.15625 50.6875 5.359375 
Q 44.046875 -1.421875 33.015625 -1.421875 
Q 20.359375 -1.421875 13.671875 8.265625 
Q 6.984375 17.96875 6.984375 36.375 
Q 6.984375 53.65625 15.1875 63.9375 
Q 23.390625 74.21875 37.203125 74.21875 
Q 40.921875 74.21875 44.703125 73.484375 
Q 48.484375 72.75 52.59375 71.296875 
z
" id="DejaVuSans-36"/>
      </defs>
      <g transform="translate(313.607968 320.44225)scale(0.2 -0.2)">
       <use xlink:href="#DejaVuSans-36"/>
      </g>
     </g>
    </g>
    <g id="xtick_5">
     <g id="line2d_9">
      <path clip-path="url(#p4e054eb400)" d="M 402.256183 298.245375 
L 402.256183 32.133375 
" style="fill:none;stroke:#b0b0b0;stroke-linecap:square;stroke-width:0.8;"/>
     </g>
     <g id="line2d_10">
      <g>
       <use style="stroke:#000000;stroke-width:0.8;" x="402.256183" xlink:href="#maa09efd70c" y="298.245375"/>
      </g>
     </g>
     <g id="text_5">
      <!-- 8 -->
      <defs>
       <path d="M 31.78125 34.625 
Q 24.75 34.625 20.71875 30.859375 
Q 16.703125 27.09375 16.703125 20.515625 
Q 16.703125 13.921875 20.71875 10.15625 
Q 24.75 6.390625 31.78125 6.390625 
Q 38.8125 6.390625 42.859375 10.171875 
Q 46.921875 13.96875 46.921875 20.515625 
Q 46.921875 27.09375 42.890625 30.859375 
Q 38.875 34.625 31.78125 34.625 
z
M 21.921875 38.8125 
Q 15.578125 40.375 12.03125 44.71875 
Q 8.5 49.078125 8.5 55.328125 
Q 8.5 64.0625 14.71875 69.140625 
Q 20.953125 74.21875 31.78125 74.21875 
Q 42.671875 74.21875 48.875 69.140625 
Q 55.078125 64.0625 55.078125 55.328125 
Q 55.078125 49.078125 51.53125 44.71875 
Q 48 40.375 41.703125 38.8125 
Q 48.828125 37.15625 52.796875 32.3125 
Q 56.78125 27.484375 56.78125 20.515625 
Q 56.78125 9.90625 50.3125 4.234375 
Q 43.84375 -1.421875 31.78125 -1.421875 
Q 19.734375 -1.421875 13.25 4.234375 
Q 6.78125 9.90625 6.78125 20.515625 
Q 6.78125 27.484375 10.78125 32.3125 
Q 14.796875 37.15625 21.921875 38.8125 
z
M 18.3125 54.390625 
Q 18.3125 48.734375 21.84375 45.5625 
Q 25.390625 42.390625 31.78125 42.390625 
Q 38.140625 42.390625 41.71875 45.5625 
Q 45.3125 48.734375 45.3125 54.390625 
Q 45.3125 60.0625 41.71875 63.234375 
Q 38.140625 66.40625 31.78125 66.40625 
Q 25.390625 66.40625 21.84375 63.234375 
Q 18.3125 60.0625 18.3125 54.390625 
z
" id="DejaVuSans-38"/>
      </defs>
      <g transform="translate(395.893683 320.44225)scale(0.2 -0.2)">
       <use xlink:href="#DejaVuSans-38"/>
      </g>
     </g>
    </g>
    <g id="text_6">
     <!-- log10 of (# f-evals / dimension) -->
     <defs>
      <path d="M 9.421875 75.984375 
L 18.40625 75.984375 
L 18.40625 0 
L 9.421875 0 
z
" id="DejaVuSans-6c"/>
      <path d="M 30.609375 48.390625 
Q 23.390625 48.390625 19.1875 42.75 
Q 14.984375 37.109375 14.984375 27.296875 
Q 14.984375 17.484375 19.15625 11.84375 
Q 23.34375 6.203125 30.609375 6.203125 
Q 37.796875 6.203125 41.984375 11.859375 
Q 46.1875 17.53125 46.1875 27.296875 
Q 46.1875 37.015625 41.984375 42.703125 
Q 37.796875 48.390625 30.609375 48.390625 
z
M 30.609375 56 
Q 42.328125 56 49.015625 48.375 
Q 55.71875 40.765625 55.71875 27.296875 
Q 55.71875 13.875 49.015625 6.21875 
Q 42.328125 -1.421875 30.609375 -1.421875 
Q 18.84375 -1.421875 12.171875 6.21875 
Q 5.515625 13.875 5.515625 27.296875 
Q 5.515625 40.765625 12.171875 48.375 
Q 18.84375 56 30.609375 56 
z
" id="DejaVuSans-6f"/>
      <path d="M 45.40625 27.984375 
Q 45.40625 37.75 41.375 43.109375 
Q 37.359375 48.484375 30.078125 48.484375 
Q 22.859375 48.484375 18.828125 43.109375 
Q 14.796875 37.75 14.796875 27.984375 
Q 14.796875 18.265625 18.828125 12.890625 
Q 22.859375 7.515625 30.078125 7.515625 
Q 37.359375 7.515625 41.375 12.890625 
Q 45.40625 18.265625 45.40625 27.984375 
z
M 54.390625 6.78125 
Q 54.390625 -7.171875 48.1875 -13.984375 
Q 42 -20.796875 29.203125 -20.796875 
Q 24.46875 -20.796875 20.265625 -20.09375 
Q 16.0625 -19.390625 12.109375 -17.921875 
L 12.109375 -9.1875 
Q 16.0625 -11.328125 19.921875 -12.34375 
Q 23.78125 -13.375 27.78125 -13.375 
Q 36.625 -13.375 41.015625 -8.765625 
Q 45.40625 -4.15625 45.40625 5.171875 
L 45.40625 9.625 
Q 42.625 4.78125 38.28125 2.390625 
Q 33.9375 0 27.875 0 
Q 17.828125 0 11.671875 7.65625 
Q 5.515625 15.328125 5.515625 27.984375 
Q 5.515625 40.671875 11.671875 48.328125 
Q 17.828125 56 27.875 56 
Q 33.9375 56 38.28125 53.609375 
Q 42.625 51.21875 45.40625 46.390625 
L 45.40625 54.6875 
L 54.390625 54.6875 
z
" id="DejaVuSans-67"/>
      <path d="M 12.40625 8.296875 
L 28.515625 8.296875 
L 28.515625 63.921875 
L 10.984375 60.40625 
L 10.984375 69.390625 
L 28.421875 72.90625 
L 38.28125 72.90625 
L 38.28125 8.296875 
L 54.390625 8.296875 
L 54.390625 0 
L 12.40625 0 
z
" id="DejaVuSans-31"/>
      <path id="DejaVuSans-20"/>
      <path d="M 37.109375 75.984375 
L 37.109375 68.5 
L 28.515625 68.5 
Q 23.6875 68.5 21.796875 66.546875 
Q 19.921875 64.59375 19.921875 59.515625 
L 19.921875 54.6875 
L 34.71875 54.6875 
L 34.71875 47.703125 
L 19.921875 47.703125 
L 19.921875 0 
L 10.890625 0 
L 10.890625 47.703125 
L 2.296875 47.703125 
L 2.296875 54.6875 
L 10.890625 54.6875 
L 10.890625 58.5 
Q 10.890625 67.625 15.140625 71.796875 
Q 19.390625 75.984375 28.609375 75.984375 
z
" id="DejaVuSans-66"/>
      <path d="M 31 75.875 
Q 24.46875 64.65625 21.28125 53.65625 
Q 18.109375 42.671875 18.109375 31.390625 
Q 18.109375 20.125 21.3125 9.0625 
Q 24.515625 -2 31 -13.1875 
L 23.1875 -13.1875 
Q 15.875 -1.703125 12.234375 9.375 
Q 8.59375 20.453125 8.59375 31.390625 
Q 8.59375 42.28125 12.203125 53.3125 
Q 15.828125 64.359375 23.1875 75.875 
z
" id="DejaVuSans-28"/>
      <path d="M 51.125 44 
L 36.921875 44 
L 32.8125 27.6875 
L 47.125 27.6875 
z
M 43.796875 71.78125 
L 38.71875 51.515625 
L 52.984375 51.515625 
L 58.109375 71.78125 
L 65.921875 71.78125 
L 60.890625 51.515625 
L 76.125 51.515625 
L 76.125 44 
L 58.984375 44 
L 54.984375 27.6875 
L 70.515625 27.6875 
L 70.515625 20.21875 
L 53.078125 20.21875 
L 48 0 
L 40.1875 0 
L 45.21875 20.21875 
L 30.90625 20.21875 
L 25.875 0 
L 18.015625 0 
L 23.09375 20.21875 
L 7.71875 20.21875 
L 7.71875 27.6875 
L 24.90625 27.6875 
L 29 44 
L 13.28125 44 
L 13.28125 51.515625 
L 30.90625 51.515625 
L 35.890625 71.78125 
z
" id="DejaVuSans-23"/>
      <path d="M 4.890625 31.390625 
L 31.203125 31.390625 
L 31.203125 23.390625 
L 4.890625 23.390625 
z
" id="DejaVuSans-2d"/>
      <path d="M 56.203125 29.59375 
L 56.203125 25.203125 
L 14.890625 25.203125 
Q 15.484375 15.921875 20.484375 11.0625 
Q 25.484375 6.203125 34.421875 6.203125 
Q 39.59375 6.203125 44.453125 7.46875 
Q 49.3125 8.734375 54.109375 11.28125 
L 54.109375 2.78125 
Q 49.265625 0.734375 44.1875 -0.34375 
Q 39.109375 -1.421875 33.890625 -1.421875 
Q 20.796875 -1.421875 13.15625 6.1875 
Q 5.515625 13.8125 5.515625 26.8125 
Q 5.515625 40.234375 12.765625 48.109375 
Q 20.015625 56 32.328125 56 
Q 43.359375 56 49.78125 48.890625 
Q 56.203125 41.796875 56.203125 29.59375 
z
M 47.21875 32.234375 
Q 47.125 39.59375 43.09375 43.984375 
Q 39.0625 48.390625 32.421875 48.390625 
Q 24.90625 48.390625 20.390625 44.140625 
Q 15.875 39.890625 15.1875 32.171875 
z
" id="DejaVuSans-65"/>
      <path d="M 2.984375 54.6875 
L 12.5 54.6875 
L 29.59375 8.796875 
L 46.6875 54.6875 
L 56.203125 54.6875 
L 35.6875 0 
L 23.484375 0 
z
" id="DejaVuSans-76"/>
      <path d="M 34.28125 27.484375 
Q 23.390625 27.484375 19.1875 25 
Q 14.984375 22.515625 14.984375 16.5 
Q 14.984375 11.71875 18.140625 8.90625 
Q 21.296875 6.109375 26.703125 6.109375 
Q 34.1875 6.109375 38.703125 11.40625 
Q 43.21875 16.703125 43.21875 25.484375 
L 43.21875 27.484375 
z
M 52.203125 31.203125 
L 52.203125 0 
L 43.21875 0 
L 43.21875 8.296875 
Q 40.140625 3.328125 35.546875 0.953125 
Q 30.953125 -1.421875 24.3125 -1.421875 
Q 15.921875 -1.421875 10.953125 3.296875 
Q 6 8.015625 6 15.921875 
Q 6 25.140625 12.171875 29.828125 
Q 18.359375 34.515625 30.609375 34.515625 
L 43.21875 34.515625 
L 43.21875 35.40625 
Q 43.21875 41.609375 39.140625 45 
Q 35.0625 48.390625 27.6875 48.390625 
Q 23 48.390625 18.546875 47.265625 
Q 14.109375 46.140625 10.015625 43.890625 
L 10.015625 52.203125 
Q 14.9375 54.109375 19.578125 55.046875 
Q 24.21875 56 28.609375 56 
Q 40.484375 56 46.34375 49.84375 
Q 52.203125 43.703125 52.203125 31.203125 
z
" id="DejaVuSans-61"/>
      <path d="M 44.28125 53.078125 
L 44.28125 44.578125 
Q 40.484375 46.53125 36.375 47.5 
Q 32.28125 48.484375 27.875 48.484375 
Q 21.1875 48.484375 17.84375 46.4375 
Q 14.5 44.390625 14.5 40.28125 
Q 14.5 37.15625 16.890625 35.375 
Q 19.28125 33.59375 26.515625 31.984375 
L 29.59375 31.296875 
Q 39.15625 29.25 43.1875 25.515625 
Q 47.21875 21.78125 47.21875 15.09375 
Q 47.21875 7.46875 41.1875 3.015625 
Q 35.15625 -1.421875 24.609375 -1.421875 
Q 20.21875 -1.421875 15.453125 -0.5625 
Q 10.6875 0.296875 5.421875 2 
L 5.421875 11.28125 
Q 10.40625 8.6875 15.234375 7.390625 
Q 20.0625 6.109375 24.8125 6.109375 
Q 31.15625 6.109375 34.5625 8.28125 
Q 37.984375 10.453125 37.984375 14.40625 
Q 37.984375 18.0625 35.515625 20.015625 
Q 33.0625 21.96875 24.703125 23.78125 
L 21.578125 24.515625 
Q 13.234375 26.265625 9.515625 29.90625 
Q 5.8125 33.546875 5.8125 39.890625 
Q 5.8125 47.609375 11.28125 51.796875 
Q 16.75 56 26.8125 56 
Q 31.78125 56 36.171875 55.265625 
Q 40.578125 54.546875 44.28125 53.078125 
z
" id="DejaVuSans-73"/>
      <path d="M 25.390625 72.90625 
L 33.6875 72.90625 
L 8.296875 -9.28125 
L 0 -9.28125 
z
" id="DejaVuSans-2f"/>
      <path d="M 45.40625 46.390625 
L 45.40625 75.984375 
L 54.390625 75.984375 
L 54.390625 0 
L 45.40625 0 
L 45.40625 8.203125 
Q 42.578125 3.328125 38.25 0.953125 
Q 33.9375 -1.421875 27.875 -1.421875 
Q 17.96875 -1.421875 11.734375 6.484375 
Q 5.515625 14.40625 5.515625 27.296875 
Q 5.515625 40.1875 11.734375 48.09375 
Q 17.96875 56 27.875 56 
Q 33.9375 56 38.25 53.625 
Q 42.578125 51.265625 45.40625 46.390625 
z
M 14.796875 27.296875 
Q 14.796875 17.390625 18.875 11.75 
Q 22.953125 6.109375 30.078125 6.109375 
Q 37.203125 6.109375 41.296875 11.75 
Q 45.40625 17.390625 45.40625 27.296875 
Q 45.40625 37.203125 41.296875 42.84375 
Q 37.203125 48.484375 30.078125 48.484375 
Q 22.953125 48.484375 18.875 42.84375 
Q 14.796875 37.203125 14.796875 27.296875 
z
" id="DejaVuSans-64"/>
      <path d="M 9.421875 54.6875 
L 18.40625 54.6875 
L 18.40625 0 
L 9.421875 0 
z
M 9.421875 75.984375 
L 18.40625 75.984375 
L 18.40625 64.59375 
L 9.421875 64.59375 
z
" id="DejaVuSans-69"/>
      <path d="M 52 44.1875 
Q 55.375 50.25 60.0625 53.125 
Q 64.75 56 71.09375 56 
Q 79.640625 56 84.28125 50.015625 
Q 88.921875 44.046875 88.921875 33.015625 
L 88.921875 0 
L 79.890625 0 
L 79.890625 32.71875 
Q 79.890625 40.578125 77.09375 44.375 
Q 74.3125 48.1875 68.609375 48.1875 
Q 61.625 48.1875 57.5625 43.546875 
Q 53.515625 38.921875 53.515625 30.90625 
L 53.515625 0 
L 44.484375 0 
L 44.484375 32.71875 
Q 44.484375 40.625 41.703125 44.40625 
Q 38.921875 48.1875 33.109375 48.1875 
Q 26.21875 48.1875 22.15625 43.53125 
Q 18.109375 38.875 18.109375 30.90625 
L 18.109375 0 
L 9.078125 0 
L 9.078125 54.6875 
L 18.109375 54.6875 
L 18.109375 46.1875 
Q 21.1875 51.21875 25.484375 53.609375 
Q 29.78125 56 35.6875 56 
Q 41.65625 56 45.828125 52.96875 
Q 50 49.953125 52 44.1875 
z
" id="DejaVuSans-6d"/>
      <path d="M 54.890625 33.015625 
L 54.890625 0 
L 45.90625 0 
L 45.90625 32.71875 
Q 45.90625 40.484375 42.875 44.328125 
Q 39.84375 48.1875 33.796875 48.1875 
Q 26.515625 48.1875 22.3125 43.546875 
Q 18.109375 38.921875 18.109375 30.90625 
L 18.109375 0 
L 9.078125 0 
L 9.078125 54.6875 
L 18.109375 54.6875 
L 18.109375 46.1875 
Q 21.34375 51.125 25.703125 53.5625 
Q 30.078125 56 35.796875 56 
Q 45.21875 56 50.046875 50.171875 
Q 54.890625 44.34375 54.890625 33.015625 
z
" id="DejaVuSans-6e"/>
      <path d="M 8.015625 75.875 
L 15.828125 75.875 
Q 23.140625 64.359375 26.78125 53.3125 
Q 30.421875 42.28125 30.421875 31.390625 
Q 30.421875 20.453125 26.78125 9.375 
Q 23.140625 -1.703125 15.828125 -13.1875 
L 8.015625 -13.1875 
Q 14.5 -2 17.703125 9.0625 
Q 20.90625 20.125 20.90625 31.390625 
Q 20.90625 42.671875 17.703125 53.65625 
Q 14.5 64.65625 8.015625 75.875 
z
" id="DejaVuSans-29"/>
     </defs>
     <g transform="translate(109.328482 342.278812)scale(0.18 -0.18)">
      <use xlink:href="#DejaVuSans-6c"/>
      <use x="27.783203" xlink:href="#DejaVuSans-6f"/>
      <use x="88.964844" xlink:href="#DejaVuSans-67"/>
      <use x="152.441406" xlink:href="#DejaVuSans-31"/>
      <use x="216.064453" xlink:href="#DejaVuSans-30"/>
      <use x="279.6875" xlink:href="#DejaVuSans-20"/>
      <use x="311.474609" xlink:href="#DejaVuSans-6f"/>
      <use x="372.65625" xlink:href="#DejaVuSans-66"/>
      <use x="407.861328" xlink:href="#DejaVuSans-20"/>
      <use x="439.648438" xlink:href="#DejaVuSans-28"/>
      <use x="478.662109" xlink:href="#DejaVuSans-23"/>
      <use x="562.451172" xlink:href="#DejaVuSans-20"/>
      <use x="594.238281" xlink:href="#DejaVuSans-66"/>
      <use x="629.365234" xlink:href="#DejaVuSans-2d"/>
      <use x="665.449219" xlink:href="#DejaVuSans-65"/>
      <use x="726.972656" xlink:href="#DejaVuSans-76"/>
      <use x="786.152344" xlink:href="#DejaVuSans-61"/>
      <use x="847.431641" xlink:href="#DejaVuSans-6c"/>
      <use x="875.214844" xlink:href="#DejaVuSans-73"/>
      <use x="927.314453" xlink:href="#DejaVuSans-20"/>
      <use x="959.101562" xlink:href="#DejaVuSans-2f"/>
      <use x="992.792969" xlink:href="#DejaVuSans-20"/>
      <use x="1024.580078" xlink:href="#DejaVuSans-64"/>
      <use x="1088.056641" xlink:href="#DejaVuSans-69"/>
      <use x="1115.839844" xlink:href="#DejaVuSans-6d"/>
      <use x="1213.251953" xlink:href="#DejaVuSans-65"/>
      <use x="1274.775391" xlink:href="#DejaVuSans-6e"/>
      <use x="1338.154297" xlink:href="#DejaVuSans-73"/>
      <use x="1390.253906" xlink:href="#DejaVuSans-69"/>
      <use x="1418.037109" xlink:href="#DejaVuSans-6f"/>
      <use x="1479.21875" xlink:href="#DejaVuSans-6e"/>
      <use x="1542.597656" xlink:href="#DejaVuSans-29"/>
     </g>
    </g>
   </g>
   <g id="matplotlib.axis_2">
    <g id="ytick_1">
     <g id="line2d_11">
      <path clip-path="url(#p4e054eb400)" d="M 73.113325 298.245375 
L 430.233325 298.245375 
" style="fill:none;stroke:#b0b0b0;stroke-linecap:square;stroke-width:0.8;"/>
     </g>
     <g id="line2d_12">
      <defs>
       <path d="M 0 0 
L -3.5 0 
" id="m4865f43568" style="stroke:#000000;stroke-width:0.8;"/>
      </defs>
      <g>
       <use style="stroke:#000000;stroke-width:0.8;" x="73.113325" xlink:href="#m4865f43568" y="298.245375"/>
      </g>
     </g>
     <g id="text_7">
      <!-- 0.0 -->
      <defs>
       <path d="M 10.6875 12.40625 
L 21 12.40625 
L 21 0 
L 10.6875 0 
z
" id="DejaVuSans-2e"/>
      </defs>
      <g transform="translate(34.307075 305.843812)scale(0.2 -0.2)">
       <use xlink:href="#DejaVuSans-30"/>
       <use x="63.623047" xlink:href="#DejaVuSans-2e"/>
       <use x="95.410156" xlink:href="#DejaVuSans-30"/>
      </g>
     </g>
    </g>
    <g id="ytick_2">
     <g id="line2d_13">
      <path clip-path="url(#p4e054eb400)" d="M 73.113325 245.549929 
L 430.233325 245.549929 
" style="fill:none;stroke:#b0b0b0;stroke-linecap:square;stroke-width:0.8;"/>
     </g>
     <g id="line2d_14">
      <g>
       <use style="stroke:#000000;stroke-width:0.8;" x="73.113325" xlink:href="#m4865f43568" y="245.549929"/>
      </g>
     </g>
     <g id="text_8">
      <!-- 0.2 -->
      <g transform="translate(34.307075 253.148367)scale(0.2 -0.2)">
       <use xlink:href="#DejaVuSans-30"/>
       <use x="63.623047" xlink:href="#DejaVuSans-2e"/>
       <use x="95.410156" xlink:href="#DejaVuSans-32"/>
      </g>
     </g>
    </g>
    <g id="ytick_3">
     <g id="line2d_15">
      <path clip-path="url(#p4e054eb400)" d="M 73.113325 192.854484 
L 430.233325 192.854484 
" style="fill:none;stroke:#b0b0b0;stroke-linecap:square;stroke-width:0.8;"/>
     </g>
     <g id="line2d_16">
      <g>
       <use style="stroke:#000000;stroke-width:0.8;" x="73.113325" xlink:href="#m4865f43568" y="192.854484"/>
      </g>
     </g>
     <g id="text_9">
      <!-- 0.4 -->
      <g transform="translate(34.307075 200.452921)scale(0.2 -0.2)">
       <use xlink:href="#DejaVuSans-30"/>
       <use x="63.623047" xlink:href="#DejaVuSans-2e"/>
       <use x="95.410156" xlink:href="#DejaVuSans-34"/>
      </g>
     </g>
    </g>
    <g id="ytick_4">
     <g id="line2d_17">
      <path clip-path="url(#p4e054eb400)" d="M 73.113325 140.159038 
L 430.233325 140.159038 
" style="fill:none;stroke:#b0b0b0;stroke-linecap:square;stroke-width:0.8;"/>
     </g>
     <g id="line2d_18">
      <g>
       <use style="stroke:#000000;stroke-width:0.8;" x="73.113325" xlink:href="#m4865f43568" y="140.159038"/>
      </g>
     </g>
     <g id="text_10">
      <!-- 0.6 -->
      <g transform="translate(34.307075 147.757476)scale(0.2 -0.2)">
       <use xlink:href="#DejaVuSans-30"/>
       <use x="63.623047" xlink:href="#DejaVuSans-2e"/>
       <use x="95.410156" xlink:href="#DejaVuSans-36"/>
      </g>
     </g>
    </g>
    <g id="ytick_5">
     <g id="line2d_19">
      <path clip-path="url(#p4e054eb400)" d="M 73.113325 87.463593 
L 430.233325 87.463593 
" style="fill:none;stroke:#b0b0b0;stroke-linecap:square;stroke-width:0.8;"/>
     </g>
     <g id="line2d_20">
      <g>
       <use style="stroke:#000000;stroke-width:0.8;" x="73.113325" xlink:href="#m4865f43568" y="87.463593"/>
      </g>
     </g>
     <g id="text_11">
      <!-- 0.8 -->
      <g transform="translate(34.307075 95.06203)scale(0.2 -0.2)">
       <use xlink:href="#DejaVuSans-30"/>
       <use x="63.623047" xlink:href="#DejaVuSans-2e"/>
       <use x="95.410156" xlink:href="#DejaVuSans-38"/>
      </g>
     </g>
    </g>
    <g id="ytick_6">
     <g id="line2d_21">
      <path clip-path="url(#p4e054eb400)" d="M 73.113325 34.768147 
L 430.233325 34.768147 
" style="fill:none;stroke:#b0b0b0;stroke-linecap:square;stroke-width:0.8;"/>
     </g>
     <g id="line2d_22">
      <g>
       <use style="stroke:#000000;stroke-width:0.8;" x="73.113325" xlink:href="#m4865f43568" y="34.768147"/>
      </g>
     </g>
     <g id="text_12">
      <!-- 1.0 -->
      <g transform="translate(34.307075 42.366585)scale(0.2 -0.2)">
       <use xlink:href="#DejaVuSans-31"/>
       <use x="63.623047" xlink:href="#DejaVuSans-2e"/>
       <use x="95.410156" xlink:href="#DejaVuSans-30"/>
      </g>
     </g>
    </g>
    <g id="text_13">
     <!-- Proportion of function+target pairs -->
     <defs>
      <path d="M 19.671875 64.796875 
L 19.671875 37.40625 
L 32.078125 37.40625 
Q 38.96875 37.40625 42.71875 40.96875 
Q 46.484375 44.53125 46.484375 51.125 
Q 46.484375 57.671875 42.71875 61.234375 
Q 38.96875 64.796875 32.078125 64.796875 
z
M 9.8125 72.90625 
L 32.078125 72.90625 
Q 44.34375 72.90625 50.609375 67.359375 
Q 56.890625 61.8125 56.890625 51.125 
Q 56.890625 40.328125 50.609375 34.8125 
Q 44.34375 29.296875 32.078125 29.296875 
L 19.671875 29.296875 
L 19.671875 0 
L 9.8125 0 
z
" id="DejaVuSans-50"/>
      <path d="M 41.109375 46.296875 
Q 39.59375 47.171875 37.8125 47.578125 
Q 36.03125 48 33.890625 48 
Q 26.265625 48 22.1875 43.046875 
Q 18.109375 38.09375 18.109375 28.8125 
L 18.109375 0 
L 9.078125 0 
L 9.078125 54.6875 
L 18.109375 54.6875 
L 18.109375 46.1875 
Q 20.953125 51.171875 25.484375 53.578125 
Q 30.03125 56 36.53125 56 
Q 37.453125 56 38.578125 55.875 
Q 39.703125 55.765625 41.0625 55.515625 
z
" id="DejaVuSans-72"/>
      <path d="M 18.109375 8.203125 
L 18.109375 -20.796875 
L 9.078125 -20.796875 
L 9.078125 54.6875 
L 18.109375 54.6875 
L 18.109375 46.390625 
Q 20.953125 51.265625 25.265625 53.625 
Q 29.59375 56 35.59375 56 
Q 45.5625 56 51.78125 48.09375 
Q 58.015625 40.1875 58.015625 27.296875 
Q 58.015625 14.40625 51.78125 6.484375 
Q 45.5625 -1.421875 35.59375 -1.421875 
Q 29.59375 -1.421875 25.265625 0.953125 
Q 20.953125 3.328125 18.109375 8.203125 
z
M 48.6875 27.296875 
Q 48.6875 37.203125 44.609375 42.84375 
Q 40.53125 48.484375 33.40625 48.484375 
Q 26.265625 48.484375 22.1875 42.84375 
Q 18.109375 37.203125 18.109375 27.296875 
Q 18.109375 17.390625 22.1875 11.75 
Q 26.265625 6.109375 33.40625 6.109375 
Q 40.53125 6.109375 44.609375 11.75 
Q 48.6875 17.390625 48.6875 27.296875 
z
" id="DejaVuSans-70"/>
      <path d="M 18.3125 70.21875 
L 18.3125 54.6875 
L 36.8125 54.6875 
L 36.8125 47.703125 
L 18.3125 47.703125 
L 18.3125 18.015625 
Q 18.3125 11.328125 20.140625 9.421875 
Q 21.96875 7.515625 27.59375 7.515625 
L 36.8125 7.515625 
L 36.8125 0 
L 27.59375 0 
Q 17.1875 0 13.234375 3.875 
Q 9.28125 7.765625 9.28125 18.015625 
L 9.28125 47.703125 
L 2.6875 47.703125 
L 2.6875 54.6875 
L 9.28125 54.6875 
L 9.28125 70.21875 
z
" id="DejaVuSans-74"/>
      <path d="M 8.5 21.578125 
L 8.5 54.6875 
L 17.484375 54.6875 
L 17.484375 21.921875 
Q 17.484375 14.15625 20.5 10.265625 
Q 23.53125 6.390625 29.59375 6.390625 
Q 36.859375 6.390625 41.078125 11.03125 
Q 45.3125 15.671875 45.3125 23.6875 
L 45.3125 54.6875 
L 54.296875 54.6875 
L 54.296875 0 
L 45.3125 0 
L 45.3125 8.40625 
Q 42.046875 3.421875 37.71875 1 
Q 33.40625 -1.421875 27.6875 -1.421875 
Q 18.265625 -1.421875 13.375 4.4375 
Q 8.5 10.296875 8.5 21.578125 
z
M 31.109375 56 
z
" id="DejaVuSans-75"/>
      <path d="M 48.78125 52.59375 
L 48.78125 44.1875 
Q 44.96875 46.296875 41.140625 47.34375 
Q 37.3125 48.390625 33.40625 48.390625 
Q 24.65625 48.390625 19.8125 42.84375 
Q 14.984375 37.3125 14.984375 27.296875 
Q 14.984375 17.28125 19.8125 11.734375 
Q 24.65625 6.203125 33.40625 6.203125 
Q 37.3125 6.203125 41.140625 7.25 
Q 44.96875 8.296875 48.78125 10.40625 
L 48.78125 2.09375 
Q 45.015625 0.34375 40.984375 -0.53125 
Q 36.96875 -1.421875 32.421875 -1.421875 
Q 20.0625 -1.421875 12.78125 6.34375 
Q 5.515625 14.109375 5.515625 27.296875 
Q 5.515625 40.671875 12.859375 48.328125 
Q 20.21875 56 33.015625 56 
Q 37.15625 56 41.109375 55.140625 
Q 45.0625 54.296875 48.78125 52.59375 
z
" id="DejaVuSans-63"/>
      <path d="M 46 62.703125 
L 46 35.5 
L 73.1875 35.5 
L 73.1875 27.203125 
L 46 27.203125 
L 46 0 
L 37.796875 0 
L 37.796875 27.203125 
L 10.59375 27.203125 
L 10.59375 35.5 
L 37.796875 35.5 
L 37.796875 62.703125 
z
" id="DejaVuSans-2b"/>
     </defs>
     <g transform="translate(26.563638 323.17875)rotate(-90)scale(0.18 -0.18)">
      <use xlink:href="#DejaVuSans-50"/>
      <use x="60.287109" xlink:href="#DejaVuSans-72"/>
      <use x="101.369141" xlink:href="#DejaVuSans-6f"/>
      <use x="162.550781" xlink:href="#DejaVuSans-70"/>
      <use x="226.027344" xlink:href="#DejaVuSans-6f"/>
      <use x="287.208984" xlink:href="#DejaVuSans-72"/>
      <use x="328.322266" xlink:href="#DejaVuSans-74"/>
      <use x="367.53125" xlink:href="#DejaVuSans-69"/>
      <use x="395.314453" xlink:href="#DejaVuSans-6f"/>
      <use x="456.496094" xlink:href="#DejaVuSans-6e"/>
      <use x="519.875" xlink:href="#DejaVuSans-20"/>
      <use x="551.662109" xlink:href="#DejaVuSans-6f"/>
      <use x="612.84375" xlink:href="#DejaVuSans-66"/>
      <use x="648.048828" xlink:href="#DejaVuSans-20"/>
      <use x="679.835938" xlink:href="#DejaVuSans-66"/>
      <use x="715.041016" xlink:href="#DejaVuSans-75"/>
      <use x="778.419922" xlink:href="#DejaVuSans-6e"/>
      <use x="841.798828" xlink:href="#DejaVuSans-63"/>
      <use x="896.779297" xlink:href="#DejaVuSans-74"/>
      <use x="935.988281" xlink:href="#DejaVuSans-69"/>
      <use x="963.771484" xlink:href="#DejaVuSans-6f"/>
      <use x="1024.953125" xlink:href="#DejaVuSans-6e"/>
      <use x="1088.332031" xlink:href="#DejaVuSans-2b"/>
      <use x="1172.121094" xlink:href="#DejaVuSans-74"/>
      <use x="1211.330078" xlink:href="#DejaVuSans-61"/>
      <use x="1272.609375" xlink:href="#DejaVuSans-72"/>
      <use x="1313.707031" xlink:href="#DejaVuSans-67"/>
      <use x="1377.183594" xlink:href="#DejaVuSans-65"/>
      <use x="1438.707031" xlink:href="#DejaVuSans-74"/>
      <use x="1477.916016" xlink:href="#DejaVuSans-20"/>
      <use x="1509.703125" xlink:href="#DejaVuSans-70"/>
      <use x="1573.179688" xlink:href="#DejaVuSans-61"/>
      <use x="1634.458984" xlink:href="#DejaVuSans-69"/>
      <use x="1662.242188" xlink:href="#DejaVuSans-72"/>
      <use x="1703.355469" xlink:href="#DejaVuSans-73"/>
     </g>
    </g>
   </g>
   <g id="line2d_23">
    <defs>
     <path d="M 0 1.5 
C 0.397805 1.5 0.77937 1.341951 1.06066 1.06066 
C 1.341951 0.77937 1.5 0.397805 1.5 0 
C 1.5 -0.397805 1.341951 -0.77937 1.06066 -1.06066 
C 0.77937 -1.341951 0.397805 -1.5 0 -1.5 
C -0.397805 -1.5 -0.77937 -1.341951 -1.06066 -1.06066 
C -1.341951 -0.77937 -1.5 -0.397805 -1.5 0 
C -1.5 0.397805 -1.341951 0.77937 -1.06066 1.06066 
C -0.77937 1.341951 -0.397805 1.5 0 1.5 
z
" id="m99279ffdb0" style="stroke:#00bfbf;"/>
    </defs>
    <g>
     <use style="fill:#00bfbf;stroke:#00bfbf;" x="269.941635" xlink:href="#m99279ffdb0" y="34.768147"/>
     <use style="fill:#00bfbf;stroke:#00bfbf;" x="269.941635" xlink:href="#m99279ffdb0" y="34.768147"/>
    </g>
   </g>
   <g id="line2d_24">
    <path d="M 60.728091 298.245375 
L 60.728091 282.746715 
L 73.113325 282.746715 
L 73.113325 279.646982 
L 80.358223 279.646982 
L 80.358223 278.097116 
L 85.498559 278.097116 
L 85.498559 271.38103 
L 95.497839 271.38103 
L 95.497839 268.79792 
L 97.883794 268.79792 
L 97.883794 267.764676 
L 99.988354 267.764676 
L 99.988354 266.21481 
L 101.870948 266.21481 
L 101.870948 263.6317 
L 107.883073 263.6317 
L 107.883073 263.115078 
L 109.115846 263.115078 
L 109.115846 262.598456 
L 122.086972 262.598456 
L 122.086972 262.081834 
L 123.204093 262.081834 
L 123.204093 261.04859 
L 125.724902 261.04859 
L 125.724902 260.015346 
L 126.189035 260.015346 
L 126.189035 258.46548 
L 130.628571 258.46548 
L 130.628571 257.432236 
L 132.9698 257.432236 
L 132.9698 256.915614 
L 133.586003 256.915614 
L 133.586003 256.398992 
L 140.931566 256.398992 
L 140.931566 255.365748 
L 142.284393 255.365748 
L 142.284393 254.332504 
L 142.834225 254.332504 
L 142.834225 253.29926 
L 147.284587 253.29926 
L 147.284587 252.266016 
L 147.974562 252.266016 
L 147.974562 250.71615 
L 149.652946 250.71615 
L 149.652946 250.199528 
L 151.633852 250.199528 
L 151.633852 249.682906 
L 154.102338 249.682906 
L 154.102338 248.649662 
L 154.388234 248.649662 
L 154.388234 248.13304 
L 156.09984 248.13304 
L 156.09984 247.616418 
L 156.691274 247.616418 
L 156.691274 246.066551 
L 158.582176 246.066551 
L 158.582176 245.033307 
L 159.097993 245.033307 
L 159.097993 244.000063 
L 160.223916 244.000063 
L 160.223916 242.966819 
L 161.347236 242.966819 
L 161.347236 242.450197 
L 161.914525 242.450197 
L 161.914525 241.933575 
L 162.343626 241.933575 
L 162.343626 240.383709 
L 164.129044 240.383709 
L 164.129044 239.350465 
L 166.197027 239.350465 
L 166.197027 238.317221 
L 168.269012 238.317221 
L 168.269012 237.800599 
L 168.527975 237.800599 
L 168.527975 237.283977 
L 169.849084 237.283977 
L 169.849084 236.767355 
L 170.125502 236.767355 
L 170.125502 236.250733 
L 170.589635 236.250733 
L 170.589635 235.734111 
L 170.892492 235.734111 
L 170.892492 234.184245 
L 171.042016 234.184245 
L 171.042016 233.667623 
L 171.627909 233.667623 
L 171.627909 233.151001 
L 172.403373 233.151001 
L 172.506558 231.084513 
L 172.540821 231.084513 
L 172.540821 230.567891 
L 173.344017 230.567891 
L 173.344017 230.051269 
L 174.081282 230.051269 
L 174.081282 229.534647 
L 174.969511 229.534647 
L 174.969511 228.501403 
L 175.147897 228.501403 
L 175.147897 227.984781 
L 175.67261 227.984781 
L 175.67261 227.468159 
L 176.947466 227.468159 
L 176.947466 226.434915 
L 177.809061 226.434915 
L 177.809061 225.918293 
L 178.336479 225.918293 
L 178.336479 224.368427 
L 178.992486 224.368427 
L 178.992486 223.335183 
L 179.135052 223.335183 
L 179.135052 222.818561 
L 179.556048 222.818561 
L 179.556048 221.785317 
L 180.012474 221.785317 
L 180.012474 221.268695 
L 180.479495 221.268695 
L 180.523343 219.202207 
L 181.399302 219.202207 
L 181.440953 217.135719 
L 181.750276 217.135719 
L 181.750276 216.102475 
L 181.913084 216.102475 
L 181.973757 214.552609 
L 182.313732 214.552609 
L 182.313732 214.035987 
L 182.955769 214.035987 
L 182.955769 213.002743 
L 183.164755 213.002743 
L 183.164755 212.48612 
L 183.389986 212.48612 
L 183.389986 211.452876 
L 185.147176 211.452876 
L 185.147176 210.936254 
L 185.745606 210.936254 
L 185.745606 209.386388 
L 186.069607 209.386388 
L 186.085653 207.836522 
L 186.277099 207.836522 
L 186.277099 207.3199 
L 186.529211 207.3199 
L 186.560476 204.73679 
L 187.3846 204.73679 
L 187.3846 204.220168 
L 189.144471 204.220168 
L 189.144471 203.703546 
L 189.585022 203.703546 
L 189.585022 203.186924 
L 189.703311 203.186924 
L 189.703311 202.670302 
L 189.898735 202.670302 
L 189.898735 202.15368 
L 190.130458 202.15368 
L 190.143243 200.603814 
L 190.2706 200.603814 
L 190.2706 200.087192 
L 190.384451 200.087192 
L 190.384451 199.57057 
L 190.943069 199.57057 
L 190.943069 199.053948 
L 191.413468 199.053948 
L 191.413468 198.020704 
L 191.685187 198.020704 
L 191.685187 197.504082 
L 191.8834 197.504082 
L 191.8834 196.98746 
L 192.044999 196.98746 
L 192.067966 195.954216 
L 192.329983 195.954216 
L 192.329983 195.437594 
L 192.721475 195.437594 
L 192.721475 194.40435 
L 193.564263 194.40435 
L 193.574814 192.854484 
L 193.732336 192.854484 
L 193.732336 192.337862 
L 194.053546 192.337862 
L 194.053546 191.82124 
L 194.856743 191.82124 
L 194.856743 191.304618 
L 195.216352 191.304618 
L 195.216352 190.787996 
L 195.691091 190.787996 
L 195.793862 189.23813 
L 196.12613 189.23813 
L 196.12613 188.721508 
L 197.742478 188.721508 
L 197.742478 188.204886 
L 197.900493 188.204886 
L 197.900493 187.688264 
L 212.303599 187.688264 
L 212.303599 187.171642 
L 212.58609 187.171642 
L 212.673234 185.621776 
L 212.72026 185.621776 
L 212.72026 185.105154 
L 212.971372 185.105154 
L 213.056662 184.07191 
L 213.254102 184.07191 
L 213.254102 183.555288 
L 213.487493 183.555288 
L 213.501331 182.005422 
L 213.67683 182.005422 
L 213.67683 181.4888 
L 213.850623 181.4888 
L 213.850623 180.455556 
L 214.029457 180.455556 
L 214.029457 179.938934 
L 214.332399 179.938934 
L 214.365378 178.90569 
L 214.516303 178.90569 
L 214.620547 177.872445 
L 214.714497 177.872445 
L 214.714497 177.355823 
L 214.856103 177.355823 
L 214.920101 174.772713 
L 214.993416 174.772713 
L 214.993416 173.739469 
L 215.123367 173.739469 
L 215.211573 171.156359 
L 215.302473 171.156359 
L 215.402243 169.606493 
L 215.439514 169.606493 
L 215.439514 168.573249 
L 215.550861 168.573249 
L 215.649258 167.540005 
L 215.747115 167.540005 
L 215.853537 165.990139 
L 215.941237 165.990139 
L 216.007482 161.340541 
L 216.16905 161.340541 
L 216.16905 160.307297 
L 216.355718 160.307297 
L 216.355718 159.790675 
L 216.482016 159.790675 
L 216.534621 158.240809 
L 216.656767 158.240809 
L 216.752156 156.690943 
L 216.809721 156.690943 
L 216.826954 155.141077 
L 216.938568 155.141077 
L 217.049488 153.591211 
L 217.114582 153.591211 
L 217.187881 151.524723 
L 217.272085 151.524723 
L 217.369825 149.458235 
L 217.511295 149.458235 
L 217.588491 146.875125 
L 217.629709 146.875125 
L 217.629709 146.358503 
L 217.809948 146.358503 
L 217.809948 144.808637 
L 218.165063 144.808637 
L 218.194339 143.25877 
L 218.40583 143.25877 
L 218.481881 142.225526 
L 218.780317 142.225526 
L 218.821447 140.67566 
L 225.114524 140.67566 
L 225.114524 140.159038 
L 225.473775 140.159038 
L 225.517957 139.125794 
L 225.653355 139.125794 
L 225.653355 138.09255 
L 225.869266 138.09255 
L 225.957316 136.542684 
L 226.273121 136.542684 
L 226.333931 134.992818 
L 226.441531 134.992818 
L 226.533484 133.442952 
L 226.555149 133.442952 
L 226.585104 130.34322 
L 226.674669 130.34322 
L 226.674669 129.826598 
L 226.867199 129.826598 
L 226.947219 126.726866 
L 227.106192 126.726866 
L 227.206041 124.660378 
L 227.255757 124.660378 
L 227.351591 121.560646 
L 227.432647 121.560646 
L 227.476993 118.977536 
L 227.604662 118.977536 
L 227.604662 118.460914 
L 227.732985 118.460914 
L 227.810781 117.42767 
L 227.883601 117.42767 
L 227.883601 116.911048 
L 227.99612 116.911048 
L 227.99612 115.877804 
L 228.167386 115.877804 
L 228.167386 115.361182 
L 232.218648 115.361182 
L 232.313022 114.327938 
L 232.514612 114.327938 
L 232.545609 113.294694 
L 232.666692 113.294694 
L 232.752849 111.744828 
L 232.853819 111.744828 
L 232.954222 110.711584 
L 233.011177 110.711584 
L 233.085295 109.161717 
L 233.125698 109.161717 
L 233.184408 103.995497 
L 233.379865 103.995497 
L 233.47284 101.929009 
L 233.546197 101.929009 
L 233.650634 98.829277 
L 233.678604 98.829277 
L 233.678604 98.312655 
L 233.804487 98.312655 
L 233.804487 97.796033 
L 234.091899 97.796033 
L 234.171465 96.762789 
L 234.313367 96.762789 
L 234.313367 96.246167 
L 237.396552 96.246167 
L 237.437363 95.212923 
L 237.57003 95.212923 
L 237.57003 94.696301 
L 237.700828 94.696301 
L 237.808508 93.663057 
L 237.830675 93.663057 
L 237.830675 93.146435 
L 237.973656 93.146435 
L 238.028076 89.013459 
L 238.132936 89.013459 
L 238.213781 85.913727 
L 238.274392 85.913727 
L 238.338244 84.363861 
L 238.392425 84.363861 
L 238.469543 83.330617 
L 238.60837 83.330617 
L 238.60837 82.813995 
L 238.848542 82.813995 
L 238.848542 82.297373 
L 241.123239 82.297373 
L 241.123239 81.780751 
L 241.297062 81.780751 
L 241.403308 77.647775 
L 241.526227 77.647775 
L 241.636853 74.03142 
L 241.645444 74.03142 
L 241.645444 73.514798 
L 241.762449 73.514798 
L 241.762449 72.998176 
L 241.899169 72.998176 
L 242.006114 71.44831 
L 242.067738 71.44831 
L 242.145166 69.898444 
L 244.722977 69.898444 
L 244.780727 67.315334 
L 244.869394 67.315334 
L 244.881939 65.765468 
L 245.0395 65.765468 
L 245.0395 65.248846 
L 245.172195 65.248846 
L 245.178658 63.69898 
L 245.349349 63.69898 
L 245.419026 62.665736 
L 245.494782 62.665736 
L 245.494782 62.149114 
L 247.273492 62.149114 
L 247.276626 61.11587 
L 247.409316 61.11587 
L 247.512187 58.016138 
L 247.547203 58.016138 
L 247.55646 56.982894 
L 247.669222 56.982894 
L 247.759431 53.36654 
L 247.822864 53.36654 
L 247.919357 52.333296 
L 248.060878 52.333296 
L 248.060878 51.816674 
L 249.620355 51.816674 
L 249.620355 51.300052 
L 249.746342 51.300052 
L 249.746342 50.78343 
L 249.963805 50.78343 
L 250.051217 49.233564 
L 250.103014 49.233564 
L 250.103014 48.716942 
L 251.633575 48.716942 
L 251.736009 47.683698 
L 251.840691 47.683698 
L 251.840691 46.650454 
L 251.980122 46.650454 
L 251.980122 46.133832 
L 252.18606 46.133832 
L 252.268012 45.100588 
L 253.657829 45.100588 
L 253.745683 44.067344 
L 253.84396 44.067344 
L 253.84396 43.550722 
L 253.980144 43.550722 
L 254.07036 42.517478 
L 254.110311 42.517478 
L 254.11138 40.967611 
L 255.277093 40.967611 
L 255.277093 40.450989 
L 255.411433 40.450989 
L 255.411433 39.934367 
L 255.589434 39.934367 
L 255.589434 39.417745 
L 257.171066 39.417745 
L 257.171066 38.901123 
L 258.303709 38.901123 
L 258.303709 38.384501 
L 258.497916 38.384501 
L 258.557185 37.351257 
L 260.853568 37.351257 
L 260.853568 36.834635 
L 262.032825 36.834635 
L 262.032825 36.318013 
L 263.003104 36.318013 
L 263.003104 35.801391 
L 263.21477 35.801391 
L 263.21477 35.284769 
L 269.941635 35.284769 
L 269.941635 34.768147 
L 361.113325 34.768147 
L 361.113325 34.768147 
" style="fill:none;stroke:#00bfbf;stroke-linecap:square;stroke-width:1.5;"/>
   </g>
   <g id="line2d_25">
    <defs>
     <path d="M -6 0 
L 6 0 
M 0 6 
L 0 -6 
" id="m6a9e1a4a4b" style="stroke:#00bfbf;stroke-width:1.5;"/>
    </defs>
    <g>
     <use style="fill:none;stroke:#00bfbf;stroke-width:1.5;" x="182.313732" xlink:href="#m6a9e1a4a4b" y="214.035987"/>
     <use style="fill:none;stroke:#00bfbf;stroke-width:1.5;" x="217.162542" xlink:href="#m6a9e1a4a4b" y="152.557967"/>
     <use style="fill:none;stroke:#00bfbf;stroke-width:1.5;" x="244.881939" xlink:href="#m6a9e1a4a4b" y="66.28209"/>
     <use style="fill:none;stroke:#00bfbf;stroke-width:1.5;" x="269.941635" xlink:href="#m6a9e1a4a4b" y="34.768147"/>
     <use style="fill:none;stroke:#00bfbf;stroke-width:1.5;" x="269.941635" xlink:href="#m6a9e1a4a4b" y="34.768147"/>
     <use style="fill:none;stroke:#00bfbf;stroke-width:1.5;" x="361.113325" xlink:href="#m6a9e1a4a4b" y="34.768147"/>
    </g>
   </g>
   <g id="line2d_26"/>
   <g id="line2d_27">
    <path clip-path="url(#p4e054eb400)" d="M 212.188596 187.688264 
" style="fill:none;stroke:#00bfbf;stroke-linecap:square;stroke-width:1.5;"/>
    <defs>
     <path d="M -12 12 
L 12 -12 
M -12 -12 
L 12 12 
" id="me8cd5c70fe" style="stroke:#00bfbf;stroke-width:3;"/>
    </defs>
    <g clip-path="url(#p4e054eb400)">
     <use style="fill:#00bfbf;stroke:#00bfbf;stroke-width:3;" x="212.188596" xlink:href="#me8cd5c70fe" y="187.688264"/>
    </g>
   </g>
   <g id="line2d_28">
    <defs>
     <path d="M 0 1.5 
C 0.397805 1.5 0.77937 1.341951 1.06066 1.06066 
C 1.341951 0.77937 1.5 0.397805 1.5 0 
C 1.5 -0.397805 1.341951 -0.77937 1.06066 -1.06066 
C 0.77937 -1.341951 0.397805 -1.5 0 -1.5 
C -0.397805 -1.5 -0.77937 -1.341951 -1.06066 -1.06066 
C -1.341951 -0.77937 -1.5 -0.397805 -1.5 0 
C -1.5 0.397805 -1.341951 0.77937 -1.06066 1.06066 
C -0.77937 1.341951 -0.397805 1.5 0 1.5 
z
" id="m212eca4589" style="stroke:#008000;"/>
    </defs>
    <g>
     <use style="fill:#008000;stroke:#008000;" x="283.95016" xlink:href="#m212eca4589" y="34.768147"/>
     <use style="fill:#008000;stroke:#008000;" x="283.95016" xlink:href="#m212eca4589" y="34.768147"/>
    </g>
   </g>
   <g id="line2d_29">
    <path d="M 53.483194 298.245375 
L 53.483194 277.063872 
L 65.868428 277.063872 
L 65.868428 272.930896 
L 78.253662 272.930896 
L 78.253662 270.864408 
L 82.240817 270.864408 
L 82.240817 268.281298 
L 90.638896 268.281298 
L 90.638896 267.248054 
L 94.626051 267.248054 
L 94.626051 265.698188 
L 103.02413 265.698188 
L 103.02413 263.6317 
L 106.09477 263.6317 
L 106.09477 263.115078 
L 107.883073 263.115078 
L 107.883073 262.598456 
L 110.269028 262.598456 
L 110.269028 262.081834 
L 115.959196 262.081834 
L 115.959196 261.565212 
L 118.003493 261.565212 
L 118.003493 261.04859 
L 118.480005 261.04859 
L 118.480005 260.531968 
L 120.268307 260.531968 
L 120.268307 260.015346 
L 122.654262 260.015346 
L 122.654262 259.498724 
L 126.641417 259.498724 
L 126.641417 258.46548 
L 131.556994 258.46548 
L 131.556994 257.948858 
L 144.716819 257.948858 
L 144.716819 257.432236 
L 147.42473 257.432236 
L 147.42473 256.915614 
L 148.154142 256.915614 
L 148.154142 256.398992 
L 148.507978 256.398992 
L 148.507978 255.88237 
L 148.768831 255.88237 
L 148.768831 255.365748 
L 149.93819 255.365748 
L 149.93819 254.849126 
L 151.780313 254.849126 
L 151.780313 254.332504 
L 153.909167 254.332504 
L 153.909167 253.815882 
L 155.219459 253.815882 
L 155.219459 253.29926 
L 162.03818 253.29926 
L 162.03818 252.782638 
L 167.116796 252.782638 
L 167.116796 251.749394 
L 170.71645 251.749394 
L 170.792109 249.682906 
L 171.165672 249.682906 
L 171.165672 249.166284 
L 172.031591 249.166284 
L 172.031591 248.649662 
L 175.108409 248.649662 
L 175.108409 247.099796 
L 175.59584 247.099796 
L 175.59584 246.066551 
L 176.659844 246.066551 
L 176.659844 245.033307 
L 176.85808 245.033307 
L 176.85808 242.450197 
L 179.854047 242.450197 
L 179.854047 240.900331 
L 180.094902 240.900331 
L 180.094902 240.383709 
L 180.726557 240.383709 
L 180.726557 239.867087 
L 181.210663 239.867087 
L 181.210663 239.350465 
L 181.886053 239.350465 
L 181.886053 238.317221 
L 182.640876 238.317221 
L 182.744309 237.283977 
L 184.522173 237.283977 
L 184.615297 235.217489 
L 185.130264 235.217489 
L 185.130264 234.184245 
L 185.454436 234.184245 
L 185.454436 233.667623 
L 186.287675 233.667623 
L 186.393092 232.117757 
L 188.029094 232.117757 
L 188.029094 230.051269 
L 188.511662 230.051269 
L 188.511662 229.534647 
L 188.73432 229.534647 
L 188.844618 227.984781 
L 188.981539 227.984781 
L 188.981539 227.468159 
L 189.571831 227.468159 
L 189.571831 226.951537 
L 190.117663 226.951537 
L 190.117663 226.434915 
L 190.380247 226.434915 
L 190.380247 225.918293 
L 191.153666 225.918293 
L 191.153666 225.401671 
L 191.345884 225.401671 
L 191.361809 224.368427 
L 191.794282 224.368427 
L 191.794282 223.335183 
L 191.918151 223.335183 
L 191.918151 222.818561 
L 192.125254 222.818561 
L 192.125254 222.301939 
L 192.725163 222.301939 
L 192.725163 221.785317 
L 192.842765 221.785317 
L 192.842765 221.268695 
L 193.024983 221.268695 
L 193.024983 219.718829 
L 194.149134 219.718829 
L 194.149134 218.685585 
L 195.097285 218.685585 
L 195.097285 218.168963 
L 195.966921 218.168963 
L 195.966921 217.652341 
L 196.150499 217.652341 
L 196.150499 216.619097 
L 196.901571 216.619097 
L 196.901571 216.102475 
L 198.556228 216.102475 
L 198.556228 215.069231 
L 198.914445 215.069231 
L 198.914445 214.552609 
L 199.199016 214.552609 
L 199.250273 213.002743 
L 199.534625 213.002743 
L 199.534625 212.48612 
L 199.685116 212.48612 
L 199.685116 211.969498 
L 200.163205 211.969498 
L 200.163205 211.452876 
L 200.303689 211.452876 
L 200.303689 210.936254 
L 210.365588 210.936254 
L 210.365588 210.419632 
L 210.496992 210.419632 
L 210.496992 209.90301 
L 210.713874 209.90301 
L 210.713874 209.386388 
L 211.013152 209.386388 
L 211.013152 208.353144 
L 213.982392 208.353144 
L 213.982392 206.803278 
L 214.443187 206.803278 
L 214.504319 205.253412 
L 214.856103 205.253412 
L 214.95414 203.186924 
L 215.093867 203.186924 
L 215.093867 202.15368 
L 215.316017 202.15368 
L 215.316017 201.637058 
L 215.444684 201.637058 
L 215.444684 201.120436 
L 215.798885 201.120436 
L 215.839384 200.087192 
L 215.930172 200.087192 
L 215.954305 199.053948 
L 216.223573 199.053948 
L 216.223573 198.537326 
L 216.353753 198.537326 
L 216.445882 196.98746 
L 216.504441 196.98746 
L 216.504441 196.470838 
L 216.626792 196.470838 
L 216.626792 195.954216 
L 216.807805 195.954216 
L 216.807805 194.920972 
L 216.930007 194.920972 
L 217.036252 193.371106 
L 217.124937 193.371106 
L 217.220674 190.271374 
L 217.263683 190.271374 
L 217.263683 189.754752 
L 217.423586 189.754752 
L 217.423586 188.721508 
L 218.243028 188.721508 
L 218.295991 187.688264 
L 218.516739 187.688264 
L 218.516739 186.65502 
L 218.968903 186.65502 
L 219.018068 184.588532 
L 219.141233 184.588532 
L 219.233471 183.555288 
L 219.343532 183.555288 
L 219.393336 182.522044 
L 223.684913 182.522044 
L 223.684913 182.005422 
L 223.995131 182.005422 
L 223.995131 181.4888 
L 224.624621 181.4888 
L 224.624621 180.455556 
L 225.450166 180.455556 
L 225.450166 179.938934 
L 225.74073 179.938934 
L 225.7686 178.389067 
L 225.956742 178.389067 
L 225.978544 176.839201 
L 226.084879 176.839201 
L 226.084879 176.322579 
L 226.206443 176.322579 
L 226.206443 175.805957 
L 226.469445 175.805957 
L 226.566249 174.772713 
L 226.746218 174.772713 
L 226.802157 173.222847 
L 226.876471 173.222847 
L 226.876471 171.672981 
L 226.998201 171.672981 
L 227.100808 170.123115 
L 227.15887 170.123115 
L 227.265897 167.023383 
L 227.35106 167.023383 
L 227.394549 164.956895 
L 227.563256 164.956895 
L 227.651194 162.890407 
L 227.712702 162.890407 
L 227.712702 162.373785 
L 227.886693 162.373785 
L 227.886693 161.857163 
L 228.157745 161.857163 
L 228.157745 160.823919 
L 228.283179 160.823919 
L 228.312387 159.790675 
L 228.506564 159.790675 
L 228.536404 158.757431 
L 228.632547 158.757431 
L 228.66119 157.724187 
L 232.549975 157.724187 
L 232.549975 157.207565 
L 232.752065 157.207565 
L 232.839765 153.591211 
L 232.922372 153.591211 
L 232.92315 152.041345 
L 233.047116 152.041345 
L 233.047116 151.524723 
L 233.170995 151.524723 
L 233.266585 149.974857 
L 233.352561 149.974857 
L 233.385927 147.908369 
L 233.542067 147.908369 
L 233.604293 146.875125 
L 233.657351 146.875125 
L 233.728841 144.292014 
L 233.865807 144.292014 
L 233.970964 140.67566 
L 234.093719 140.67566 
L 234.171465 139.642416 
L 234.285653 139.642416 
L 234.295736 138.09255 
L 234.399115 138.09255 
L 234.494069 135.50944 
L 234.555201 135.50944 
L 234.555201 134.992818 
L 236.600687 134.992818 
L 236.600687 134.476196 
L 237.663299 134.476196 
L 237.767352 131.893086 
L 237.887887 131.893086 
L 237.982445 130.34322 
L 238.055515 130.34322 
L 238.055515 129.309976 
L 238.175288 129.309976 
L 238.266611 127.243488 
L 238.314398 127.243488 
L 238.410163 124.660378 
L 238.515654 124.660378 
L 238.563348 123.110512 
L 238.691601 123.110512 
L 238.691601 122.59389 
L 239.03286 122.59389 
L 239.118814 121.044024 
L 241.515896 121.044024 
L 241.616551 119.494158 
L 241.645683 119.494158 
L 241.663807 118.460914 
L 241.764582 118.460914 
L 241.764582 117.944292 
L 241.902462 117.944292 
L 241.902462 117.42767 
L 242.058881 117.42767 
L 242.127756 113.811316 
L 242.201919 113.811316 
L 242.267943 112.26145 
L 242.345198 112.26145 
L 242.402922 110.711584 
L 242.535981 110.711584 
L 242.593997 109.678339 
L 242.694175 109.678339 
L 242.694175 109.161717 
L 244.600647 109.161717 
L 244.680146 107.611851 
L 244.788533 107.611851 
L 244.892288 106.578607 
L 245.004145 106.578607 
L 245.097614 105.545363 
L 245.126306 105.545363 
L 245.177679 103.995497 
L 245.256216 103.995497 
L 245.256216 103.478875 
L 245.54012 103.478875 
L 245.612498 100.895765 
L 247.370219 100.895765 
L 247.473486 98.829277 
L 247.509953 98.829277 
L 247.549775 97.796033 
L 247.640416 97.796033 
L 247.744852 95.729545 
L 247.75977 95.729545 
L 247.809858 93.146435 
L 247.96833 93.146435 
L 248.056878 91.596569 
L 248.214176 91.596569 
L 248.223755 90.563325 
L 249.705053 90.563325 
L 249.733298 89.530081 
L 249.836481 89.530081 
L 249.934272 86.946971 
L 250.026157 86.946971 
L 250.026157 86.430349 
L 250.262518 86.430349 
L 250.345406 85.397105 
L 251.712798 85.397105 
L 251.794917 83.847239 
L 251.886885 83.847239 
L 251.943824 81.780751 
L 252.075005 81.780751 
L 252.156804 79.714263 
L 252.231108 79.714263 
L 252.341331 77.647775 
L 252.392136 77.647775 
L 252.399718 76.614531 
L 253.708067 76.614531 
L 253.777413 75.064664 
L 253.878284 75.064664 
L 253.969733 72.481554 
L 253.989832 72.481554 
L 254.044035 70.931688 
L 254.182494 70.931688 
L 254.196446 68.8652 
L 254.893955 68.8652 
L 254.893955 68.348578 
L 255.29522 68.348578 
L 255.29522 67.831956 
L 255.532162 67.831956 
L 255.580576 64.732224 
L 255.683321 64.732224 
L 255.683321 64.215602 
L 257.122466 64.215602 
L 257.18477 62.149114 
L 257.282694 62.149114 
L 257.282694 61.632492 
L 258.207461 61.632492 
L 258.207461 61.11587 
L 258.327174 61.11587 
L 258.386544 60.082626 
L 258.441245 60.082626 
L 258.480161 59.049382 
L 258.569774 59.049382 
L 258.677346 56.982894 
L 259.769475 56.982894 
L 259.855104 55.433028 
L 260.955151 55.433028 
L 261.049314 53.883162 
L 261.074426 53.883162 
L 261.172765 51.816674 
L 261.940882 51.816674 
L 261.990008 50.78343 
L 262.088007 50.78343 
L 262.104567 49.750186 
L 262.980057 49.750186 
L 263.075952 48.20032 
L 263.096075 48.20032 
L 263.096075 47.683698 
L 264.270505 47.683698 
L 264.289865 46.650454 
L 264.952246 46.650454 
L 265.051798 45.100588 
L 265.916908 45.100588 
L 265.916908 44.583966 
L 266.785816 44.583966 
L 266.785816 44.067344 
L 266.961398 44.067344 
L 266.961398 43.550722 
L 267.653091 43.550722 
L 267.653091 43.0341 
L 268.423474 43.0341 
L 268.502517 40.967611 
L 269.203803 40.967611 
L 269.221961 39.934367 
L 269.339237 39.934367 
L 269.339237 38.901123 
L 269.921498 38.901123 
L 269.975146 37.867879 
L 273.722975 37.867879 
L 273.801661 36.834635 
L 274.844625 36.834635 
L 274.844625 36.318013 
L 277.294181 36.318013 
L 277.294181 35.801391 
L 281.786455 35.801391 
L 281.786455 35.284769 
L 283.95016 35.284769 
L 283.95016 34.768147 
L 361.113325 34.768147 
L 361.113325 34.768147 
" style="fill:none;stroke:#008000;stroke-linecap:square;stroke-width:1.5;"/>
   </g>
   <g id="line2d_30">
    <defs>
     <path d="M -0 6 
L 6 -6 
L -6 -6 
z
" id="md60894bd5e" style="stroke:#008000;stroke-linejoin:miter;stroke-width:1.5;"/>
    </defs>
    <g>
     <use style="fill:none;stroke:#008000;stroke-linejoin:miter;stroke-width:1.5;" x="172.031591" xlink:href="#md60894bd5e" y="248.649662"/>
     <use style="fill:none;stroke:#008000;stroke-linejoin:miter;stroke-width:1.5;" x="233.865807" xlink:href="#md60894bd5e" y="141.192282"/>
     <use style="fill:none;stroke:#008000;stroke-linejoin:miter;stroke-width:1.5;" x="255.29522" xlink:href="#md60894bd5e" y="67.831956"/>
     <use style="fill:none;stroke:#008000;stroke-linejoin:miter;stroke-width:1.5;" x="283.95016" xlink:href="#md60894bd5e" y="34.768147"/>
     <use style="fill:none;stroke:#008000;stroke-linejoin:miter;stroke-width:1.5;" x="283.95016" xlink:href="#md60894bd5e" y="34.768147"/>
     <use style="fill:none;stroke:#008000;stroke-linejoin:miter;stroke-width:1.5;" x="361.113325" xlink:href="#md60894bd5e" y="34.768147"/>
    </g>
   </g>
   <g id="line2d_31"/>
   <g id="line2d_32">
    <path clip-path="url(#p4e054eb400)" d="M 212.187355 208.353144 
" style="fill:none;stroke:#008000;stroke-linecap:square;stroke-width:1.5;"/>
    <defs>
     <path d="M -12 12 
L 12 -12 
M -12 -12 
L 12 12 
" id="md2b5919eb3" style="stroke:#008000;stroke-width:3;"/>
    </defs>
    <g clip-path="url(#p4e054eb400)">
     <use style="fill:#008000;stroke:#008000;stroke-width:3;" x="212.187355" xlink:href="#md2b5919eb3" y="208.353144"/>
    </g>
   </g>
   <g id="line2d_33">
    <defs>
     <path d="M 0 1.5 
C 0.397805 1.5 0.77937 1.341951 1.06066 1.06066 
C 1.341951 0.77937 1.5 0.397805 1.5 0 
C 1.5 -0.397805 1.341951 -0.77937 1.06066 -1.06066 
C 0.77937 -1.341951 0.397805 -1.5 0 -1.5 
C -0.397805 -1.5 -0.77937 -1.341951 -1.06066 -1.06066 
C -1.341951 -0.77937 -1.5 -0.397805 -1.5 0 
C -1.5 0.397805 -1.341951 0.77937 -1.06066 1.06066 
C -0.77937 1.341951 -0.397805 1.5 0 1.5 
z
" id="m42c9d67bdb" style="stroke:#0000ff;"/>
    </defs>
    <g>
     <use style="fill:#0000ff;stroke:#0000ff;" x="281.401175" xlink:href="#m42c9d67bdb" y="225.918293"/>
     <use style="fill:#0000ff;stroke:#0000ff;" x="281.401175" xlink:href="#m42c9d67bdb" y="225.918293"/>
    </g>
   </g>
   <g id="line2d_34">
    <path d="M 44.355702 298.245375 
L 44.355702 275.514006 
L 56.740936 275.514006 
L 56.740936 273.447518 
L 63.985834 273.447518 
L 63.985834 272.930896 
L 69.126171 272.930896 
L 69.126171 270.347786 
L 73.113325 270.347786 
L 73.113325 269.831164 
L 76.371068 269.831164 
L 76.371068 269.314542 
L 87.201573 269.314542 
L 87.201573 267.764676 
L 90.186515 267.764676 
L 90.186515 267.248054 
L 93.896639 267.248054 
L 93.896639 266.21481 
L 97.883794 266.21481 
L 97.883794 265.698188 
L 101.141536 265.698188 
L 101.141536 265.181566 
L 101.870948 265.181566 
L 101.870948 263.115078 
L 103.246097 263.115078 
L 103.246097 262.598456 
L 103.895918 262.598456 
L 103.895918 260.531968 
L 106.831704 260.531968 
L 106.831704 260.015346 
L 113.150586 260.015346 
L 113.150586 258.46548 
L 122.876229 258.46548 
L 122.876229 256.915614 
L 135.697292 256.915614 
L 135.697292 256.398992 
L 142.870286 256.398992 
L 142.870286 255.88237 
L 146.972348 255.88237 
L 146.972348 255.365748 
L 147.312704 255.365748 
L 147.312704 254.849126 
L 151.141833 254.849126 
L 151.141833 254.332504 
L 153.195933 254.332504 
L 153.195933 253.29926 
L 156.574543 253.29926 
L 156.574543 252.266016 
L 157.392074 252.266016 
L 157.392074 251.232772 
L 157.834064 251.232772 
L 157.834064 250.199528 
L 160.251175 250.199528 
L 160.251175 249.682906 
L 161.563667 249.682906 
L 161.563667 249.166284 
L 165.151575 249.166284 
L 165.151575 248.649662 
L 168.859111 248.649662 
L 168.859111 248.13304 
L 170.451657 248.13304 
L 170.451657 247.616418 
L 170.96741 247.616418 
L 170.96741 247.099796 
L 171.913805 247.099796 
L 171.913805 246.066551 
L 175.42966 246.066551 
L 175.42966 245.549929 
L 176.40432 245.549929 
L 176.40432 245.033307 
L 188.954238 245.033307 
L 188.954238 244.000063 
L 189.279122 244.000063 
L 189.316643 242.966819 
L 189.61401 242.966819 
L 189.61401 242.450197 
L 189.968568 242.450197 
L 189.968568 241.933575 
L 202.343474 241.933575 
L 202.343474 240.900331 
L 213.970269 240.900331 
L 213.970269 239.867087 
L 214.173912 239.867087 
L 214.173912 238.833843 
L 216.714061 238.833843 
L 216.714061 238.317221 
L 217.050622 238.317221 
L 217.050622 237.283977 
L 220.879216 237.283977 
L 220.879216 236.250733 
L 225.485803 236.250733 
L 225.592993 235.217489 
L 229.096984 235.217489 
L 229.096984 234.184245 
L 232.431132 234.184245 
L 232.431132 233.667623 
L 233.468768 233.667623 
L 233.468768 233.151001 
L 237.41978 233.151001 
L 237.41978 232.634379 
L 238.210138 232.634379 
L 238.210138 232.117757 
L 241.138267 232.117757 
L 241.138267 231.601135 
L 244.363776 231.601135 
L 244.363776 231.084513 
L 249.575039 231.084513 
L 249.575039 230.567891 
L 253.515841 230.567891 
L 253.538223 229.534647 
L 255.201969 229.534647 
L 255.201969 229.018025 
L 256.761301 229.018025 
L 256.761301 228.501403 
L 263.948275 228.501403 
L 263.948275 227.984781 
L 270.483084 227.984781 
L 270.483084 227.468159 
L 274.17811 227.468159 
L 274.17811 226.951537 
L 276.763391 226.951537 
L 276.763391 226.434915 
L 281.401175 226.434915 
L 281.401175 225.918293 
L 361.113325 225.918293 
L 361.113325 225.918293 
" style="fill:none;stroke:#0000ff;stroke-linecap:square;stroke-width:1.5;"/>
   </g>
   <g id="line2d_35">
    <defs>
     <path d="M 0 -6 
L -1.347084 -1.854102 
L -5.706339 -1.854102 
L -2.179628 0.708204 
L -3.526712 4.854102 
L -0 2.291796 
L 3.526712 4.854102 
L 2.179628 0.708204 
L 5.706339 -1.854102 
L 1.347084 -1.854102 
z
" id="m7e2369de05" style="stroke:#0000ff;stroke-linejoin:bevel;stroke-width:1.5;"/>
    </defs>
    <g>
     <use style="fill:none;stroke:#0000ff;stroke-linejoin:bevel;stroke-width:1.5;" x="73.113325" xlink:href="#m7e2369de05" y="270.347786"/>
     <use style="fill:none;stroke:#0000ff;stroke-linejoin:bevel;stroke-width:1.5;" x="153.195933" xlink:href="#m7e2369de05" y="254.332504"/>
     <use style="fill:none;stroke:#0000ff;stroke-linejoin:bevel;stroke-width:1.5;" x="220.879216" xlink:href="#m7e2369de05" y="236.250733"/>
     <use style="fill:none;stroke:#0000ff;stroke-linejoin:bevel;stroke-width:1.5;" x="281.401175" xlink:href="#m7e2369de05" y="225.918293"/>
     <use style="fill:none;stroke:#0000ff;stroke-linejoin:bevel;stroke-width:1.5;" x="281.401175" xlink:href="#m7e2369de05" y="225.918293"/>
     <use style="fill:none;stroke:#0000ff;stroke-linejoin:bevel;stroke-width:1.5;" x="361.113325" xlink:href="#m7e2369de05" y="225.918293"/>
    </g>
   </g>
   <g id="line2d_36"/>
   <g id="line2d_37">
    <path clip-path="url(#p4e054eb400)" d="M 212.186363 240.900331 
" style="fill:none;stroke:#0000ff;stroke-linecap:square;stroke-width:1.5;"/>
    <defs>
     <path d="M -12 12 
L 12 -12 
M -12 -12 
L 12 12 
" id="ma66b5082da" style="stroke:#0000ff;stroke-width:3;"/>
    </defs>
    <g clip-path="url(#p4e054eb400)">
     <use style="fill:#0000ff;stroke:#0000ff;stroke-width:3;" x="212.186363" xlink:href="#ma66b5082da" y="240.900331"/>
    </g>
   </g>
   <g id="line2d_38">
    <defs>
     <path d="M 0 1.5 
C 0.397805 1.5 0.77937 1.341951 1.06066 1.06066 
C 1.341951 0.77937 1.5 0.397805 1.5 0 
C 1.5 -0.397805 1.341951 -0.77937 1.06066 -1.06066 
C 0.77937 -1.341951 0.397805 -1.5 0 -1.5 
C -0.397805 -1.5 -0.77937 -1.341951 -1.06066 -1.06066 
C -1.341951 -0.77937 -1.5 -0.397805 -1.5 0 
C -1.5 0.397805 -1.341951 0.77937 -1.06066 1.06066 
C -0.77937 1.341951 -0.397805 1.5 0 1.5 
z
" id="mbbbc569321" style="stroke:#000000;"/>
    </defs>
    <g>
     <use style="stroke:#000000;" x="261.934031" xlink:href="#mbbbc569321" y="220.752073"/>
     <use style="stroke:#000000;" x="261.934031" xlink:href="#mbbbc569321" y="220.752073"/>
    </g>
   </g>
   <g id="line2d_39">
    <path d="M 31.970468 298.245375 
L 31.970468 273.96414 
L 44.355702 273.96414 
L 44.355702 271.897652 
L 51.6006 271.897652 
L 51.6006 270.864408 
L 56.740936 270.864408 
L 56.740936 269.314542 
L 63.985834 269.314542 
L 63.985834 268.79792 
L 69.126171 268.79792 
L 69.126171 268.281298 
L 71.230731 268.281298 
L 71.230731 267.764676 
L 74.816339 267.764676 
L 74.816339 265.181566 
L 76.371068 265.181566 
L 76.371068 264.664944 
L 77.80128 264.664944 
L 77.80128 263.6317 
L 80.358223 263.6317 
L 80.358223 263.115078 
L 81.511405 263.115078 
L 81.511405 262.081834 
L 82.594652 262.081834 
L 82.594652 261.565212 
L 97.431412 261.565212 
L 97.431412 261.04859 
L 97.883794 261.04859 
L 97.883794 260.531968 
L 99.586807 260.531968 
L 99.586807 260.015346 
L 113.339668 260.015346 
L 113.339668 259.498724 
L 119.351793 259.498724 
L 119.351793 257.948858 
L 123.312058 257.948858 
L 123.312058 257.432236 
L 125.440523 257.432236 
L 125.440523 256.398992 
L 130.912198 256.398992 
L 130.912198 255.88237 
L 147.00096 255.88237 
L 147.00096 255.365748 
L 155.9272 255.365748 
L 155.9272 254.332504 
L 161.449412 254.332504 
L 161.551008 253.29926 
L 163.310343 253.29926 
L 163.310343 252.782638 
L 164.508654 252.782638 
L 164.508654 252.266016 
L 166.400904 252.266016 
L 166.400904 251.232772 
L 167.935511 251.232772 
L 167.935511 250.71615 
L 168.587863 250.71615 
L 168.587863 250.199528 
L 168.732476 250.199528 
L 168.732476 249.682906 
L 168.959777 249.682906 
L 168.959777 249.166284 
L 169.657037 249.166284 
L 169.657037 248.649662 
L 170.907501 248.649662 
L 170.907501 247.099796 
L 171.620702 247.099796 
L 171.620702 246.066551 
L 172.940238 246.066551 
L 172.940238 245.549929 
L 173.694002 245.549929 
L 173.694002 245.033307 
L 175.05298 245.033307 
L 175.05298 244.516685 
L 175.25996 244.516685 
L 175.25996 244.000063 
L 176.338019 244.000063 
L 176.338019 243.483441 
L 177.0754 243.483441 
L 177.0754 242.966819 
L 178.596901 242.966819 
L 178.596901 242.450197 
L 179.299953 242.450197 
L 179.299953 241.933575 
L 180.061976 241.933575 
L 180.061976 240.900331 
L 181.290554 240.900331 
L 181.290554 240.383709 
L 182.214409 240.383709 
L 182.214409 239.867087 
L 184.667467 239.867087 
L 184.667467 239.350465 
L 185.224769 239.350465 
L 185.224769 238.833843 
L 186.197579 238.833843 
L 186.197579 238.317221 
L 190.547631 238.317221 
L 190.592557 236.250733 
L 190.884308 236.250733 
L 190.884308 235.734111 
L 191.494234 235.734111 
L 191.494234 234.700867 
L 197.559437 234.700867 
L 197.559437 234.184245 
L 213.513085 234.184245 
L 213.513085 233.667623 
L 213.950721 233.667623 
L 213.950721 233.151001 
L 214.200535 233.151001 
L 214.292743 232.117757 
L 214.315886 232.117757 
L 214.315886 231.601135 
L 214.924572 231.601135 
L 214.999777 230.567891 
L 216.855066 230.567891 
L 216.922584 229.534647 
L 225.348768 229.534647 
L 225.348768 229.018025 
L 225.606697 229.018025 
L 225.606697 228.501403 
L 227.177432 228.501403 
L 227.177432 227.468159 
L 232.89545 227.468159 
L 232.89545 226.951537 
L 237.411618 226.951537 
L 237.481514 225.918293 
L 241.30859 225.918293 
L 241.30859 225.401671 
L 244.494122 225.401671 
L 244.574136 224.368427 
L 247.21709 224.368427 
L 247.21709 223.851805 
L 247.426105 223.851805 
L 247.426105 223.335183 
L 253.540504 223.335183 
L 253.540504 222.818561 
L 255.224346 222.818561 
L 255.224346 222.301939 
L 258.189623 222.301939 
L 258.189623 221.785317 
L 261.867401 221.785317 
L 261.934031 220.752073 
L 361.113325 220.752073 
L 361.113325 220.752073 
" style="fill:none;stroke:#000000;stroke-linecap:square;stroke-width:1.5;"/>
   </g>
   <g id="line2d_40">
    <defs>
     <path d="M 0 6 
C 1.591219 6 3.117479 5.367802 4.242641 4.242641 
C 5.367802 3.117479 6 1.591219 6 0 
C 6 -1.591219 5.367802 -3.117479 4.242641 -4.242641 
C 3.117479 -5.367802 1.591219 -6 0 -6 
C -1.591219 -6 -3.117479 -5.367802 -4.242641 -4.242641 
C -5.367802 -3.117479 -6 -1.591219 -6 0 
C -6 1.591219 -5.367802 3.117479 -4.242641 4.242641 
C -3.117479 5.367802 -1.591219 6 0 6 
z
" id="m280bc31fef" style="stroke:#000000;stroke-width:1.5;"/>
    </defs>
    <g>
     <use style="fill:none;stroke:#000000;stroke-width:1.5;" x="71.230731" xlink:href="#m280bc31fef" y="267.764676"/>
     <use style="fill:none;stroke:#000000;stroke-width:1.5;" x="130.912198" xlink:href="#m280bc31fef" y="255.88237"/>
     <use style="fill:none;stroke:#000000;stroke-width:1.5;" x="197.559437" xlink:href="#m280bc31fef" y="234.184245"/>
     <use style="fill:none;stroke:#000000;stroke-width:1.5;" x="261.934031" xlink:href="#m280bc31fef" y="221.268695"/>
     <use style="fill:none;stroke:#000000;stroke-width:1.5;" x="261.934031" xlink:href="#m280bc31fef" y="220.752073"/>
     <use style="fill:none;stroke:#000000;stroke-width:1.5;" x="361.113325" xlink:href="#m280bc31fef" y="220.752073"/>
    </g>
   </g>
   <g id="line2d_41"/>
   <g id="line2d_42">
    <path clip-path="url(#p4e054eb400)" d="M 212.185618 234.184245 
" style="fill:none;stroke:#000000;stroke-linecap:square;stroke-width:1.5;"/>
    <defs>
     <path d="M -12 12 
L 12 -12 
M -12 -12 
L 12 12 
" id="m44a431a2c8" style="stroke:#000000;stroke-width:3;"/>
    </defs>
    <g clip-path="url(#p4e054eb400)">
     <use style="stroke:#000000;stroke-width:3;" x="212.185618" xlink:href="#m44a431a2c8" y="234.184245"/>
    </g>
   </g>
   <g id="line2d_43">
    <defs>
     <path d="M 0 1.5 
C 0.397805 1.5 0.77937 1.341951 1.06066 1.06066 
C 1.341951 0.77937 1.5 0.397805 1.5 0 
C 1.5 -0.397805 1.341951 -0.77937 1.06066 -1.06066 
C 0.77937 -1.341951 0.397805 -1.5 0 -1.5 
C -0.397805 -1.5 -0.77937 -1.341951 -1.06066 -1.06066 
C -1.341951 -0.77937 -1.5 -0.397805 -1.5 0 
C -1.5 0.397805 -1.341951 0.77937 -1.06066 1.06066 
C -0.77937 1.341951 -0.397805 1.5 0 1.5 
z
" id="m0320fff80e" style="stroke:#ff0000;"/>
    </defs>
    <g>
     <use style="fill:#ff0000;stroke:#ff0000;" x="278.575554" xlink:href="#m0320fff80e" y="220.752073"/>
     <use style="fill:#ff0000;stroke:#ff0000;" x="278.575554" xlink:href="#m0320fff80e" y="220.752073"/>
    </g>
   </g>
   <g id="line2d_44">
    <path d="M 19.585234 298.245375 
L 19.585234 273.96414 
L 31.970468 273.96414 
L 31.970468 272.930896 
L 39.215366 272.930896 
L 39.215366 271.38103 
L 44.355702 271.38103 
L 44.355702 270.864408 
L 54.354982 270.864408 
L 54.354982 270.347786 
L 56.740936 270.347786 
L 56.740936 269.831164 
L 58.845497 269.831164 
L 58.845497 269.314542 
L 63.985834 269.314542 
L 63.985834 268.79792 
L 65.416046 268.79792 
L 65.416046 267.764676 
L 69.126171 267.764676 
L 69.126171 266.21481 
L 70.209418 266.21481 
L 70.209418 265.698188 
L 74.816339 265.698188 
L 74.816339 264.664944 
L 79.752466 264.664944 
L 79.752466 263.6317 
L 109.93082 263.6317 
L 109.93082 263.115078 
L 113.895198 263.115078 
L 113.895198 262.598456 
L 115.297338 262.598456 
L 115.297338 262.081834 
L 126.234792 262.081834 
L 126.234792 261.04859 
L 131.635982 261.04859 
L 131.635982 260.531968 
L 132.525454 260.531968 
L 132.525454 260.015346 
L 145.086573 260.015346 
L 145.086573 259.498724 
L 147.494391 259.498724 
L 147.494391 258.982102 
L 155.638645 258.982102 
L 155.638645 258.46548 
L 157.708893 258.46548 
L 157.708893 257.432236 
L 159.457524 257.432236 
L 159.457524 255.88237 
L 163.003611 255.88237 
L 163.003611 255.365748 
L 164.869853 255.365748 
L 164.869853 254.332504 
L 165.1981 254.332504 
L 165.259945 253.29926 
L 166.153035 253.29926 
L 166.153035 252.782638 
L 166.516369 252.782638 
L 166.516369 252.266016 
L 175.609299 252.266016 
L 175.609299 251.749394 
L 177.796312 251.749394 
L 177.796312 250.71615 
L 182.923252 250.71615 
L 182.923252 250.199528 
L 184.764444 250.199528 
L 184.764444 249.166284 
L 188.213724 249.166284 
L 188.213724 248.649662 
L 190.633641 248.649662 
L 190.633641 247.616418 
L 191.255639 247.616418 
L 191.255639 247.099796 
L 191.957455 247.099796 
L 191.994368 245.549929 
L 194.020655 245.549929 
L 194.020655 245.033307 
L 195.454349 245.033307 
L 195.454349 244.000063 
L 196.949082 244.000063 
L 196.949082 243.483441 
L 207.469276 243.483441 
L 207.469276 242.450197 
L 208.067891 242.450197 
L 208.067891 241.933575 
L 213.164819 241.933575 
L 213.164819 241.416953 
L 213.357239 241.416953 
L 213.443834 239.867087 
L 213.503751 239.867087 
L 213.545885 237.283977 
L 213.646671 237.283977 
L 213.646671 236.767355 
L 215.359909 236.767355 
L 215.359909 236.250733 
L 225.021847 236.250733 
L 225.066978 235.217489 
L 225.250852 235.217489 
L 225.33736 232.634379 
L 228.022682 232.634379 
L 228.022682 232.117757 
L 232.214645 232.117757 
L 232.315918 231.084513 
L 233.704968 231.084513 
L 233.704968 230.567891 
L 237.334797 230.567891 
L 237.343268 229.018025 
L 237.523393 229.018025 
L 237.523393 228.501403 
L 238.289254 228.501403 
L 238.289254 227.984781 
L 241.234109 227.984781 
L 241.234109 227.468159 
L 244.434702 227.468159 
L 244.44364 225.918293 
L 247.163506 225.918293 
L 247.163506 225.401671 
L 247.281587 225.401671 
L 247.281587 224.885049 
L 251.618794 224.885049 
L 251.618794 224.368427 
L 255.164087 224.368427 
L 255.164087 223.851805 
L 256.777083 223.851805 
L 256.777083 223.335183 
L 269.032148 223.335183 
L 269.032148 222.818561 
L 271.777819 222.818561 
L 271.777819 222.301939 
L 276.256712 222.301939 
L 276.256712 221.785317 
L 276.745181 221.785317 
L 276.745181 221.268695 
L 278.575554 221.268695 
L 278.575554 220.752073 
L 361.113325 220.752073 
L 361.113325 220.752073 
" style="fill:none;stroke:#ff0000;stroke-linecap:square;stroke-width:1.5;"/>
   </g>
   <g id="line2d_45">
    <defs>
     <path d="M -6 6 
L 6 6 
L 6 -6 
L -6 -6 
z
" id="md9e9c6bd54" style="stroke:#ff0000;stroke-linejoin:miter;stroke-width:1.5;"/>
    </defs>
    <g>
     <use style="fill:none;stroke:#ff0000;stroke-linejoin:miter;stroke-width:1.5;" x="74.816339" xlink:href="#md9e9c6bd54" y="264.664944"/>
     <use style="fill:none;stroke:#ff0000;stroke-linejoin:miter;stroke-width:1.5;" x="163.003611" xlink:href="#md9e9c6bd54" y="255.88237"/>
     <use style="fill:none;stroke:#ff0000;stroke-linejoin:miter;stroke-width:1.5;" x="241.234109" xlink:href="#md9e9c6bd54" y="227.984781"/>
     <use style="fill:none;stroke:#ff0000;stroke-linejoin:miter;stroke-width:1.5;" x="278.575554" xlink:href="#md9e9c6bd54" y="221.268695"/>
     <use style="fill:none;stroke:#ff0000;stroke-linejoin:miter;stroke-width:1.5;" x="278.575554" xlink:href="#md9e9c6bd54" y="220.752073"/>
     <use style="fill:none;stroke:#ff0000;stroke-linejoin:miter;stroke-width:1.5;" x="361.113325" xlink:href="#md9e9c6bd54" y="220.752073"/>
    </g>
   </g>
   <g id="line2d_46"/>
   <g id="line2d_47">
    <path clip-path="url(#p4e054eb400)" d="M 212.185246 241.933575 
" style="fill:none;stroke:#ff0000;stroke-linecap:square;stroke-width:1.5;"/>
    <defs>
     <path d="M -12 12 
L 12 -12 
M -12 -12 
L 12 12 
" id="mfdec774db4" style="stroke:#ff0000;stroke-width:3;"/>
    </defs>
    <g clip-path="url(#p4e054eb400)">
     <use style="fill:#ff0000;stroke:#ff0000;stroke-width:3;" x="212.185246" xlink:href="#mfdec774db4" y="241.933575"/>
    </g>
   </g>
   <g id="line2d_48">
    <defs>
     <path d="M 0 1.5 
C 0.397805 1.5 0.77937 1.341951 1.06066 1.06066 
C 1.341951 0.77937 1.5 0.397805 1.5 0 
C 1.5 -0.397805 1.341951 -0.77937 1.06066 -1.06066 
C 0.77937 -1.341951 0.397805 -1.5 0 -1.5 
C -0.397805 -1.5 -0.77937 -1.341951 -1.06066 -1.06066 
C -1.341951 -0.77937 -1.5 -0.397805 -1.5 0 
C -1.5 0.397805 -1.341951 0.77937 -1.06066 1.06066 
C -0.77937 1.341951 -0.397805 1.5 0 1.5 
z
" id="m9fae1b8793" style="stroke:#bf00bf;"/>
    </defs>
    <g>
     <use style="fill:#bf00bf;stroke:#bf00bf;" x="264.018942" xlink:href="#m9fae1b8793" y="225.918293"/>
     <use style="fill:#bf00bf;stroke:#bf00bf;" x="264.018942" xlink:href="#m9fae1b8793" y="225.918293"/>
    </g>
   </g>
   <g id="line2d_49">
    <path d="M 7.2 298.245375 
L 7.2 272.930896 
L 19.585234 272.930896 
L 19.585234 271.897652 
L 26.830132 271.897652 
L 26.830132 270.864408 
L 44.355702 270.864408 
L 44.355702 270.347786 
L 46.460263 270.347786 
L 46.460263 269.831164 
L 48.342857 269.831164 
L 48.342857 269.314542 
L 53.030812 269.314542 
L 53.030812 268.79792 
L 59.811577 268.79792 
L 59.811577 267.764676 
L 67.972989 267.764676 
L 67.972989 266.731432 
L 73.113325 266.731432 
L 73.113325 266.21481 
L 75.610608 266.21481 
L 75.610608 265.698188 
L 93.184667 265.698188 
L 93.184667 264.664944 
L 95.369752 264.664944 
L 95.369752 264.148322 
L 98.861624 264.148322 
L 98.861624 263.6317 
L 99.382598 263.6317 
L 99.382598 263.115078 
L 102.996189 263.115078 
L 102.996189 262.598456 
L 112.959481 262.598456 
L 112.959481 262.081834 
L 123.013571 262.081834 
L 123.013571 261.565212 
L 155.237499 261.565212 
L 155.237499 261.04859 
L 155.953202 261.04859 
L 155.953202 260.531968 
L 158.889776 260.531968 
L 158.889776 260.015346 
L 161.718016 260.015346 
L 161.718016 259.498724 
L 163.373349 259.498724 
L 163.373349 258.982102 
L 171.377595 258.982102 
L 171.377595 257.948858 
L 171.817825 257.948858 
L 171.817825 257.432236 
L 172.689104 257.432236 
L 172.689104 256.915614 
L 173.344017 256.915614 
L 173.344017 256.398992 
L 173.459817 256.398992 
L 173.459817 255.365748 
L 174.908153 255.365748 
L 174.908153 254.849126 
L 175.629468 254.849126 
L 175.629468 254.332504 
L 176.197702 254.332504 
L 176.197702 253.29926 
L 176.70238 253.29926 
L 176.70238 252.782638 
L 176.858976 252.782638 
L 176.858976 252.266016 
L 176.98354 252.266016 
L 176.98354 250.71615 
L 178.456106 250.71615 
L 178.456106 249.166284 
L 179.39467 249.166284 
L 179.477282 248.13304 
L 179.948141 248.13304 
L 179.948141 247.616418 
L 180.131498 247.616418 
L 180.131498 247.099796 
L 181.499101 247.099796 
L 181.499101 246.583173 
L 182.584056 246.583173 
L 182.584056 246.066551 
L 184.485957 246.066551 
L 184.485957 245.549929 
L 185.441415 245.549929 
L 185.441415 245.033307 
L 194.526287 245.033307 
L 194.526287 244.516685 
L 195.315664 244.516685 
L 195.315664 244.000063 
L 197.873978 244.000063 
L 197.873978 243.483441 
L 213.068003 243.483441 
L 213.068003 242.966819 
L 213.215139 242.966819 
L 213.312037 241.416953 
L 213.490261 241.416953 
L 213.490261 240.900331 
L 213.959992 240.900331 
L 213.959992 240.383709 
L 214.110021 240.383709 
L 214.110021 239.867087 
L 215.06659 239.867087 
L 215.135521 238.317221 
L 215.623635 238.317221 
L 215.623635 237.283977 
L 217.981526 237.283977 
L 217.981526 236.767355 
L 225.092755 236.767355 
L 225.092755 235.734111 
L 225.23481 235.734111 
L 225.23481 235.217489 
L 225.514073 235.217489 
L 225.514073 234.700867 
L 225.679613 234.700867 
L 225.724424 233.151001 
L 225.942068 233.151001 
L 225.942068 232.634379 
L 232.449884 232.634379 
L 232.449884 232.117757 
L 233.10112 232.117757 
L 233.10112 231.601135 
L 237.518795 231.601135 
L 237.518795 231.084513 
L 241.413317 231.084513 
L 241.413317 230.567891 
L 244.393261 230.567891 
L 244.393261 230.051269 
L 247.120222 230.051269 
L 247.120222 229.534647 
L 258.119728 229.534647 
L 258.191084 228.501403 
L 260.708676 228.501403 
L 260.708676 227.984781 
L 261.810425 227.984781 
L 261.874405 226.951537 
L 261.93779 226.951537 
L 261.93779 226.434915 
L 264.018942 226.434915 
L 264.018942 225.918293 
L 361.113325 225.918293 
L 361.113325 225.918293 
" style="fill:none;stroke:#bf00bf;stroke-linecap:square;stroke-width:1.5;"/>
   </g>
   <g id="line2d_50">
    <defs>
     <path d="M -0 8.485281 
L 8.485281 0 
L 0 -8.485281 
L -8.485281 -0 
z
" id="mb2fbb34eb1" style="stroke:#bf00bf;stroke-linejoin:miter;stroke-width:1.5;"/>
    </defs>
    <g>
     <use style="fill:none;stroke:#bf00bf;stroke-linejoin:miter;stroke-width:1.5;" x="67.972989" xlink:href="#mb2fbb34eb1" y="267.764676"/>
     <use style="fill:none;stroke:#bf00bf;stroke-linejoin:miter;stroke-width:1.5;" x="163.373349" xlink:href="#mb2fbb34eb1" y="258.982102"/>
     <use style="fill:none;stroke:#bf00bf;stroke-linejoin:miter;stroke-width:1.5;" x="233.10112" xlink:href="#mb2fbb34eb1" y="232.117757"/>
     <use style="fill:none;stroke:#bf00bf;stroke-linejoin:miter;stroke-width:1.5;" x="264.018942" xlink:href="#mb2fbb34eb1" y="225.918293"/>
     <use style="fill:none;stroke:#bf00bf;stroke-linejoin:miter;stroke-width:1.5;" x="264.018942" xlink:href="#mb2fbb34eb1" y="225.918293"/>
     <use style="fill:none;stroke:#bf00bf;stroke-linejoin:miter;stroke-width:1.5;" x="361.113325" xlink:href="#mb2fbb34eb1" y="225.918293"/>
    </g>
   </g>
   <g id="line2d_51"/>
   <g id="line2d_52">
    <path clip-path="url(#p4e054eb400)" d="M 212.18506 243.483441 
" style="fill:none;stroke:#bf00bf;stroke-linecap:square;stroke-width:1.5;"/>
    <defs>
     <path d="M -12 12 
L 12 -12 
M -12 -12 
L 12 12 
" id="mfffd71f3da" style="stroke:#bf00bf;stroke-width:3;"/>
    </defs>
    <g clip-path="url(#p4e054eb400)">
     <use style="fill:#bf00bf;stroke:#bf00bf;stroke-width:3;" x="212.18506" xlink:href="#mfffd71f3da" y="243.483441"/>
    </g>
   </g>
   <g id="line2d_53">
    <path d="M 361.113325 225.918293 
L 392.793325 292.97583 
" style="fill:none;stroke:#0000ff;stroke-linecap:square;stroke-width:1.5;"/>
    <g>
     <use style="fill:none;stroke:#0000ff;stroke-linejoin:bevel;stroke-width:1.5;" x="361.113325" xlink:href="#m7e2369de05" y="225.918293"/>
     <use style="fill:none;stroke:#0000ff;stroke-linejoin:bevel;stroke-width:1.5;" x="392.793325" xlink:href="#m7e2369de05" y="292.97583"/>
    </g>
   </g>
   <g id="line2d_54">
    <path d="M 361.113325 225.918293 
L 392.793325 242.388203 
" style="fill:none;stroke:#bf00bf;stroke-linecap:square;stroke-width:1.5;"/>
    <g>
     <use style="fill:none;stroke:#bf00bf;stroke-linejoin:miter;stroke-width:1.5;" x="361.113325" xlink:href="#mb2fbb34eb1" y="225.918293"/>
     <use style="fill:none;stroke:#bf00bf;stroke-linejoin:miter;stroke-width:1.5;" x="392.793325" xlink:href="#mb2fbb34eb1" y="242.388203"/>
    </g>
   </g>
   <g id="line2d_55">
    <path d="M 361.113325 220.752073 
L 392.793325 191.800575 
" style="fill:none;stroke:#ff0000;stroke-linecap:square;stroke-width:1.5;"/>
    <g>
     <use style="fill:none;stroke:#ff0000;stroke-linejoin:miter;stroke-width:1.5;" x="361.113325" xlink:href="#md9e9c6bd54" y="220.752073"/>
     <use style="fill:none;stroke:#ff0000;stroke-linejoin:miter;stroke-width:1.5;" x="392.793325" xlink:href="#md9e9c6bd54" y="191.800575"/>
    </g>
   </g>
   <g id="line2d_56">
    <path d="M 361.113325 220.752073 
L 392.793325 141.212947 
" style="fill:none;stroke:#000000;stroke-linecap:square;stroke-width:1.5;"/>
    <g>
     <use style="fill:none;stroke:#000000;stroke-width:1.5;" x="361.113325" xlink:href="#m280bc31fef" y="220.752073"/>
     <use style="fill:none;stroke:#000000;stroke-width:1.5;" x="392.793325" xlink:href="#m280bc31fef" y="141.212947"/>
    </g>
   </g>
   <g id="line2d_57">
    <path d="M 361.113325 34.768147 
L 392.793325 90.62532 
" style="fill:none;stroke:#008000;stroke-linecap:square;stroke-width:1.5;"/>
    <g>
     <use style="fill:none;stroke:#008000;stroke-linejoin:miter;stroke-width:1.5;" x="361.113325" xlink:href="#md60894bd5e" y="34.768147"/>
     <use style="fill:none;stroke:#008000;stroke-linejoin:miter;stroke-width:1.5;" x="392.793325" xlink:href="#md60894bd5e" y="90.62532"/>
    </g>
   </g>
   <g id="line2d_58">
    <path d="M 361.113325 34.768147 
L 392.793325 40.037692 
" style="fill:none;stroke:#00bfbf;stroke-linecap:square;stroke-width:1.5;"/>
    <g>
     <use style="fill:none;stroke:#00bfbf;stroke-width:1.5;" x="361.113325" xlink:href="#m6a9e1a4a4b" y="34.768147"/>
     <use style="fill:none;stroke:#00bfbf;stroke-width:1.5;" x="392.793325" xlink:href="#m6a9e1a4a4b" y="40.037692"/>
    </g>
   </g>
   <g id="line2d_59">
    <path d="M 361.113325 298.245375 
L 361.113325 34.768147 
" style="fill:none;stroke:#000000;stroke-linecap:square;stroke-width:1.5;"/>
   </g>
   <g id="patch_3">
    <path d="M 73.113325 298.245375 
L 73.113325 32.133375 
" style="fill:none;stroke:#000000;stroke-linecap:square;stroke-linejoin:miter;stroke-width:0.8;"/>
   </g>
   <g id="patch_4">
    <path d="M 430.233325 298.245375 
L 430.233325 32.133375 
" style="fill:none;stroke:#000000;stroke-linecap:square;stroke-linejoin:miter;stroke-width:0.8;"/>
   </g>
   <g id="patch_5">
    <path d="M 73.113325 298.245375 
L 430.233325 298.245375 
" style="fill:none;stroke:#000000;stroke-linecap:square;stroke-linejoin:miter;stroke-width:0.8;"/>
   </g>
   <g id="patch_6">
    <path d="M 73.113325 32.133375 
L 430.233325 32.133375 
" style="fill:none;stroke:#000000;stroke-linecap:square;stroke-linejoin:miter;stroke-width:0.8;"/>
   </g>
   <g id="text_14">
    <!-- 5-D -->
    <defs>
     <path d="M 10.796875 72.90625 
L 49.515625 72.90625 
L 49.515625 64.59375 
L 19.828125 64.59375 
L 19.828125 46.734375 
Q 21.96875 47.46875 24.109375 47.828125 
Q 26.265625 48.1875 28.421875 48.1875 
Q 40.625 48.1875 47.75 41.5 
Q 54.890625 34.8125 54.890625 23.390625 
Q 54.890625 11.625 47.5625 5.09375 
Q 40.234375 -1.421875 26.90625 -1.421875 
Q 22.3125 -1.421875 17.546875 -0.640625 
Q 12.796875 0.140625 7.71875 1.703125 
L 7.71875 11.625 
Q 12.109375 9.234375 16.796875 8.0625 
Q 21.484375 6.890625 26.703125 6.890625 
Q 35.15625 6.890625 40.078125 11.328125 
Q 45.015625 15.765625 45.015625 23.390625 
Q 45.015625 31 40.078125 35.4375 
Q 35.15625 39.890625 26.703125 39.890625 
Q 22.75 39.890625 18.8125 39.015625 
Q 14.890625 38.140625 10.796875 36.28125 
z
" id="DejaVuSans-35"/>
     <path d="M 19.671875 64.796875 
L 19.671875 8.109375 
L 31.59375 8.109375 
Q 46.6875 8.109375 53.6875 14.9375 
Q 60.6875 21.78125 60.6875 36.53125 
Q 60.6875 51.171875 53.6875 57.984375 
Q 46.6875 64.796875 31.59375 64.796875 
z
M 9.8125 72.90625 
L 30.078125 72.90625 
Q 51.265625 72.90625 61.171875 64.09375 
Q 71.09375 55.28125 71.09375 36.53125 
Q 71.09375 17.671875 61.125 8.828125 
Q 51.171875 0 30.078125 0 
L 9.8125 0 
z
" id="DejaVuSans-44"/>
    </defs>
    <g transform="translate(398.553325 297.114893)scale(0.15 -0.15)">
     <use xlink:href="#DejaVuSans-35"/>
     <use x="63.623047" xlink:href="#DejaVuSans-2d"/>
     <use x="99.707031" xlink:href="#DejaVuSans-44"/>
    </g>
   </g>
   <g id="text_15">
    <!-- 40-D -->
    <g transform="translate(398.553325 246.527265)scale(0.15 -0.15)">
     <use xlink:href="#DejaVuSans-34"/>
     <use x="63.623047" xlink:href="#DejaVuSans-30"/>
     <use x="127.246094" xlink:href="#DejaVuSans-2d"/>
     <use x="163.330078" xlink:href="#DejaVuSans-44"/>
    </g>
   </g>
   <g id="text_16">
    <!-- 20-D -->
    <g transform="translate(398.553325 195.939637)scale(0.15 -0.15)">
     <use xlink:href="#DejaVuSans-32"/>
     <use x="63.623047" xlink:href="#DejaVuSans-30"/>
     <use x="127.246094" xlink:href="#DejaVuSans-2d"/>
     <use x="163.330078" xlink:href="#DejaVuSans-44"/>
    </g>
   </g>
   <g id="text_17">
    <!-- 10-D -->
    <g transform="translate(398.553325 145.35201)scale(0.15 -0.15)">
     <use xlink:href="#DejaVuSans-31"/>
     <use x="63.623047" xlink:href="#DejaVuSans-30"/>
     <use x="127.246094" xlink:href="#DejaVuSans-2d"/>
     <use x="163.330078" xlink:href="#DejaVuSans-44"/>
    </g>
   </g>
   <g id="text_18">
    <!-- 3-D -->
    <defs>
     <path d="M 40.578125 39.3125 
Q 47.65625 37.796875 51.625 33 
Q 55.609375 28.21875 55.609375 21.1875 
Q 55.609375 10.40625 48.1875 4.484375 
Q 40.765625 -1.421875 27.09375 -1.421875 
Q 22.515625 -1.421875 17.65625 -0.515625 
Q 12.796875 0.390625 7.625 2.203125 
L 7.625 11.71875 
Q 11.71875 9.328125 16.59375 8.109375 
Q 21.484375 6.890625 26.8125 6.890625 
Q 36.078125 6.890625 40.9375 10.546875 
Q 45.796875 14.203125 45.796875 21.1875 
Q 45.796875 27.640625 41.28125 31.265625 
Q 36.765625 34.90625 28.71875 34.90625 
L 20.21875 34.90625 
L 20.21875 43.015625 
L 29.109375 43.015625 
Q 36.375 43.015625 40.234375 45.921875 
Q 44.09375 48.828125 44.09375 54.296875 
Q 44.09375 59.90625 40.109375 62.90625 
Q 36.140625 65.921875 28.71875 65.921875 
Q 24.65625 65.921875 20.015625 65.03125 
Q 15.375 64.15625 9.8125 62.3125 
L 9.8125 71.09375 
Q 15.4375 72.65625 20.34375 73.4375 
Q 25.25 74.21875 29.59375 74.21875 
Q 40.828125 74.21875 47.359375 69.109375 
Q 53.90625 64.015625 53.90625 55.328125 
Q 53.90625 49.265625 50.4375 45.09375 
Q 46.96875 40.921875 40.578125 39.3125 
z
" id="DejaVuSans-33"/>
    </defs>
    <g transform="translate(398.553325 94.764382)scale(0.15 -0.15)">
     <use xlink:href="#DejaVuSans-33"/>
     <use x="63.623047" xlink:href="#DejaVuSans-2d"/>
     <use x="99.707031" xlink:href="#DejaVuSans-44"/>
    </g>
   </g>
   <g id="text_19">
    <!-- 2-D -->
    <g transform="translate(398.553325 44.176754)scale(0.15 -0.15)">
     <use xlink:href="#DejaVuSans-32"/>
     <use x="63.623047" xlink:href="#DejaVuSans-2d"/>
     <use x="99.707031" xlink:href="#DejaVuSans-44"/>
    </g>
   </g>
   <g id="text_20">
    <!-- bbob - f23 -->
    <defs>
     <path d="M 48.6875 27.296875 
Q 48.6875 37.203125 44.609375 42.84375 
Q 40.53125 48.484375 33.40625 48.484375 
Q 26.265625 48.484375 22.1875 42.84375 
Q 18.109375 37.203125 18.109375 27.296875 
Q 18.109375 17.390625 22.1875 11.75 
Q 26.265625 6.109375 33.40625 6.109375 
Q 40.53125 6.109375 44.609375 11.75 
Q 48.6875 17.390625 48.6875 27.296875 
z
M 18.109375 46.390625 
Q 20.953125 51.265625 25.265625 53.625 
Q 29.59375 56 35.59375 56 
Q 45.5625 56 51.78125 48.09375 
Q 58.015625 40.1875 58.015625 27.296875 
Q 58.015625 14.40625 51.78125 6.484375 
Q 45.5625 -1.421875 35.59375 -1.421875 
Q 29.59375 -1.421875 25.265625 0.953125 
Q 20.953125 3.328125 18.109375 8.203125 
L 18.109375 0 
L 9.078125 0 
L 9.078125 75.984375 
L 18.109375 75.984375 
z
" id="DejaVuSans-62"/>
    </defs>
    <g transform="translate(76.684525 50.114612)scale(0.1666 -0.1666)">
     <use xlink:href="#DejaVuSans-62"/>
     <use x="63.476562" xlink:href="#DejaVuSans-62"/>
     <use x="126.953125" xlink:href="#DejaVuSans-6f"/>
     <use x="188.134766" xlink:href="#DejaVuSans-62"/>
     <use x="251.611328" xlink:href="#DejaVuSans-20"/>
     <use x="283.398438" xlink:href="#DejaVuSans-2d"/>
     <use x="319.482422" xlink:href="#DejaVuSans-20"/>
     <use x="351.269531" xlink:href="#DejaVuSans-66"/>
     <use x="386.474609" xlink:href="#DejaVuSans-32"/>
     <use x="450.097656" xlink:href="#DejaVuSans-33"/>
    </g>
    <!-- 51 targets in 100..1e-08 -->
    <g transform="translate(76.684525 68.770168)scale(0.1666 -0.1666)">
     <use xlink:href="#DejaVuSans-35"/>
     <use x="63.623047" xlink:href="#DejaVuSans-31"/>
     <use x="127.246094" xlink:href="#DejaVuSans-20"/>
     <use x="159.033203" xlink:href="#DejaVuSans-74"/>
     <use x="198.242188" xlink:href="#DejaVuSans-61"/>
     <use x="259.521484" xlink:href="#DejaVuSans-72"/>
     <use x="300.619141" xlink:href="#DejaVuSans-67"/>
     <use x="364.095703" xlink:href="#DejaVuSans-65"/>
     <use x="425.619141" xlink:href="#DejaVuSans-74"/>
     <use x="464.828125" xlink:href="#DejaVuSans-73"/>
     <use x="516.927734" xlink:href="#DejaVuSans-20"/>
     <use x="548.714844" xlink:href="#DejaVuSans-69"/>
     <use x="576.498047" xlink:href="#DejaVuSans-6e"/>
     <use x="639.876953" xlink:href="#DejaVuSans-20"/>
     <use x="671.664062" xlink:href="#DejaVuSans-31"/>
     <use x="735.287109" xlink:href="#DejaVuSans-30"/>
     <use x="798.910156" xlink:href="#DejaVuSans-30"/>
     <use x="862.533203" xlink:href="#DejaVuSans-2e"/>
     <use x="894.320312" xlink:href="#DejaVuSans-2e"/>
     <use x="926.107422" xlink:href="#DejaVuSans-31"/>
     <use x="989.730469" xlink:href="#DejaVuSans-65"/>
     <use x="1051.253906" xlink:href="#DejaVuSans-2d"/>
     <use x="1087.337891" xlink:href="#DejaVuSans-30"/>
     <use x="1150.960938" xlink:href="#DejaVuSans-38"/>
    </g>
    <!-- 15 instances -->
    <g transform="translate(76.684525 87.425723)scale(0.1666 -0.1666)">
     <use xlink:href="#DejaVuSans-31"/>
     <use x="63.623047" xlink:href="#DejaVuSans-35"/>
     <use x="127.246094" xlink:href="#DejaVuSans-20"/>
     <use x="159.033203" xlink:href="#DejaVuSans-69"/>
     <use x="186.816406" xlink:href="#DejaVuSans-6e"/>
     <use x="250.195312" xlink:href="#DejaVuSans-73"/>
     <use x="302.294922" xlink:href="#DejaVuSans-74"/>
     <use x="341.503906" xlink:href="#DejaVuSans-61"/>
     <use x="402.783203" xlink:href="#DejaVuSans-6e"/>
     <use x="466.162109" xlink:href="#DejaVuSans-63"/>
     <use x="521.142578" xlink:href="#DejaVuSans-65"/>
     <use x="582.666016" xlink:href="#DejaVuSans-73"/>
    </g>
   </g>
   <g id="text_21">
    <!-- v2.1 -->
    <g style="fill:#808080;" transform="translate(240.762388 293.504568)scale(0.1 -0.1)">
     <use xlink:href="#DejaVuSans-76"/>
     <use x="59.179688" xlink:href="#DejaVuSans-32"/>
     <use x="122.802734" xlink:href="#DejaVuSans-2e"/>
     <use x="154.589844" xlink:href="#DejaVuSans-31"/>
    </g>
   </g>
   <g id="text_22">
    <!-- 23 Katsuuras -->
    <defs>
     <path d="M 9.8125 72.90625 
L 19.671875 72.90625 
L 19.671875 42.09375 
L 52.390625 72.90625 
L 65.09375 72.90625 
L 28.90625 38.921875 
L 67.671875 0 
L 54.6875 0 
L 19.671875 35.109375 
L 19.671875 0 
L 9.8125 0 
z
" id="DejaVuSans-4b"/>
    </defs>
    <g transform="translate(172.664575 26.133375)scale(0.24 -0.24)">
     <use xlink:href="#DejaVuSans-32"/>
     <use x="63.623047" xlink:href="#DejaVuSans-33"/>
     <use x="127.246094" xlink:href="#DejaVuSans-20"/>
     <use x="159.033203" xlink:href="#DejaVuSans-4b"/>
     <use x="224.59375" xlink:href="#DejaVuSans-61"/>
     <use x="285.873047" xlink:href="#DejaVuSans-74"/>
     <use x="325.082031" xlink:href="#DejaVuSans-73"/>
     <use x="377.181641" xlink:href="#DejaVuSans-75"/>
     <use x="440.560547" xlink:href="#DejaVuSans-75"/>
     <use x="503.939453" xlink:href="#DejaVuSans-72"/>
     <use x="545.052734" xlink:href="#DejaVuSans-61"/>
     <use x="606.332031" xlink:href="#DejaVuSans-73"/>
    </g>
   </g>
  </g>
 </g>
 <defs>
  <clipPath id="p4e054eb400">
   <rect height="266.112" width="357.12" x="73.113325" y="32.133375"/>
  </clipPath>
 </defs>
</svg>
