<?xml version="1.0" encoding="utf-8" standalone="no"?>
<!DOCTYPE svg PUBLIC "-//W3C//DTD SVG 1.1//EN"
  "http://www.w3.org/Graphics/SVG/1.1/DTD/svg11.dtd">
<!-- Created with matplotlib (http://matplotlib.org/) -->
<svg height="353pt" version="1.1" viewBox="0 0 438 353" width="438pt" xmlns="http://www.w3.org/2000/svg" xmlns:xlink="http://www.w3.org/1999/xlink">
 <defs>
  <style type="text/css">
*{stroke-linecap:butt;stroke-linejoin:round;}
  </style>
 </defs>
 <g id="figure_1">
  <g id="patch_1">
   <path d="M 0 353.22225 
L 438.62 353.22225 
L 438.62 0 
L 0 0 
z
" style="fill:#ffffff;"/>
  </g>
  <g id="axes_1">
   <g id="patch_2">
    <path d="M 70.8 298.245375 
L 427.92 298.245375 
L 427.92 32.133375 
L 70.8 32.133375 
z
" style="fill:#ffffff;"/>
   </g>
   <g id="matplotlib.axis_1">
    <g id="xtick_1">
     <g id="line2d_1">
      <path clip-path="url(#p272c065e3d)" d="M 70.8 298.245375 
L 70.8 32.133375 
" style="fill:none;stroke:#b0b0b0;stroke-linecap:square;stroke-width:0.8;"/>
     </g>
     <g id="line2d_2">
      <defs>
       <path d="M 0 0 
L 0 3.5 
" id="m31a4319369" style="stroke:#000000;stroke-width:0.8;"/>
      </defs>
      <g>
       <use style="stroke:#000000;stroke-width:0.8;" x="70.8" xlink:href="#m31a4319369" y="298.245375"/>
      </g>
     </g>
     <g id="text_1">
      <!-- 0 -->
      <defs>
       <path d="M 31.78125 66.40625 
Q 24.171875 66.40625 20.328125 58.90625 
Q 16.5 51.421875 16.5 36.375 
Q 16.5 21.390625 20.328125 13.890625 
Q 24.171875 6.390625 31.78125 6.390625 
Q 39.453125 6.390625 43.28125 13.890625 
Q 47.125 21.390625 47.125 36.375 
Q 47.125 51.421875 43.28125 58.90625 
Q 39.453125 66.40625 31.78125 66.40625 
z
M 31.78125 74.21875 
Q 44.046875 74.21875 50.515625 64.515625 
Q 56.984375 54.828125 56.984375 36.375 
Q 56.984375 17.96875 50.515625 8.265625 
Q 44.046875 -1.421875 31.78125 -1.421875 
Q 19.53125 -1.421875 13.0625 8.265625 
Q 6.59375 17.96875 6.59375 36.375 
Q 6.59375 54.828125 13.0625 64.515625 
Q 19.53125 74.21875 31.78125 74.21875 
z
" id="DejaVuSans-30"/>
      </defs>
      <g transform="translate(64.4375 320.44225)scale(0.2 -0.2)">
       <use xlink:href="#DejaVuSans-30"/>
      </g>
     </g>
    </g>
    <g id="xtick_2">
     <g id="line2d_3">
      <path clip-path="url(#p272c065e3d)" d="M 153.085714 298.245375 
L 153.085714 32.133375 
" style="fill:none;stroke:#b0b0b0;stroke-linecap:square;stroke-width:0.8;"/>
     </g>
     <g id="line2d_4">
      <g>
       <use style="stroke:#000000;stroke-width:0.8;" x="153.085714" xlink:href="#m31a4319369" y="298.245375"/>
      </g>
     </g>
     <g id="text_2">
      <!-- 2 -->
      <defs>
       <path d="M 19.1875 8.296875 
L 53.609375 8.296875 
L 53.609375 0 
L 7.328125 0 
L 7.328125 8.296875 
Q 12.9375 14.109375 22.625 23.890625 
Q 32.328125 33.6875 34.8125 36.53125 
Q 39.546875 41.84375 41.421875 45.53125 
Q 43.3125 49.21875 43.3125 52.78125 
Q 43.3125 58.59375 39.234375 62.25 
Q 35.15625 65.921875 28.609375 65.921875 
Q 23.96875 65.921875 18.8125 64.3125 
Q 13.671875 62.703125 7.8125 59.421875 
L 7.8125 69.390625 
Q 13.765625 71.78125 18.9375 73 
Q 24.125 74.21875 28.421875 74.21875 
Q 39.75 74.21875 46.484375 68.546875 
Q 53.21875 62.890625 53.21875 53.421875 
Q 53.21875 48.921875 51.53125 44.890625 
Q 49.859375 40.875 45.40625 35.40625 
Q 44.1875 33.984375 37.640625 27.21875 
Q 31.109375 20.453125 19.1875 8.296875 
z
" id="DejaVuSans-32"/>
      </defs>
      <g transform="translate(146.723214 320.44225)scale(0.2 -0.2)">
       <use xlink:href="#DejaVuSans-32"/>
      </g>
     </g>
    </g>
    <g id="xtick_3">
     <g id="line2d_5">
      <path clip-path="url(#p272c065e3d)" d="M 235.371429 298.245375 
L 235.371429 32.133375 
" style="fill:none;stroke:#b0b0b0;stroke-linecap:square;stroke-width:0.8;"/>
     </g>
     <g id="line2d_6">
      <g>
       <use style="stroke:#000000;stroke-width:0.8;" x="235.371429" xlink:href="#m31a4319369" y="298.245375"/>
      </g>
     </g>
     <g id="text_3">
      <!-- 4 -->
      <defs>
       <path d="M 37.796875 64.3125 
L 12.890625 25.390625 
L 37.796875 25.390625 
z
M 35.203125 72.90625 
L 47.609375 72.90625 
L 47.609375 25.390625 
L 58.015625 25.390625 
L 58.015625 17.1875 
L 47.609375 17.1875 
L 47.609375 0 
L 37.796875 0 
L 37.796875 17.1875 
L 4.890625 17.1875 
L 4.890625 26.703125 
z
" id="DejaVuSans-34"/>
      </defs>
      <g transform="translate(229.008929 320.44225)scale(0.2 -0.2)">
       <use xlink:href="#DejaVuSans-34"/>
      </g>
     </g>
    </g>
    <g id="xtick_4">
     <g id="line2d_7">
      <path clip-path="url(#p272c065e3d)" d="M 317.657143 298.245375 
L 317.657143 32.133375 
" style="fill:none;stroke:#b0b0b0;stroke-linecap:square;stroke-width:0.8;"/>
     </g>
     <g id="line2d_8">
      <g>
       <use style="stroke:#000000;stroke-width:0.8;" x="317.657143" xlink:href="#m31a4319369" y="298.245375"/>
      </g>
     </g>
     <g id="text_4">
      <!-- 6 -->
      <defs>
       <path d="M 33.015625 40.375 
Q 26.375 40.375 22.484375 35.828125 
Q 18.609375 31.296875 18.609375 23.390625 
Q 18.609375 15.53125 22.484375 10.953125 
Q 26.375 6.390625 33.015625 6.390625 
Q 39.65625 6.390625 43.53125 10.953125 
Q 47.40625 15.53125 47.40625 23.390625 
Q 47.40625 31.296875 43.53125 35.828125 
Q 39.65625 40.375 33.015625 40.375 
z
M 52.59375 71.296875 
L 52.59375 62.3125 
Q 48.875 64.0625 45.09375 64.984375 
Q 41.3125 65.921875 37.59375 65.921875 
Q 27.828125 65.921875 22.671875 59.328125 
Q 17.53125 52.734375 16.796875 39.40625 
Q 19.671875 43.65625 24.015625 45.921875 
Q 28.375 48.1875 33.59375 48.1875 
Q 44.578125 48.1875 50.953125 41.515625 
Q 57.328125 34.859375 57.328125 23.390625 
Q 57.328125 12.15625 50.6875 5.359375 
Q 44.046875 -1.421875 33.015625 -1.421875 
Q 20.359375 -1.421875 13.671875 8.265625 
Q 6.984375 17.96875 6.984375 36.375 
Q 6.984375 53.65625 15.1875 63.9375 
Q 23.390625 74.21875 37.203125 74.21875 
Q 40.921875 74.21875 44.703125 73.484375 
Q 48.484375 72.75 52.59375 71.296875 
z
" id="DejaVuSans-36"/>
      </defs>
      <g transform="translate(311.294643 320.44225)scale(0.2 -0.2)">
       <use xlink:href="#DejaVuSans-36"/>
      </g>
     </g>
    </g>
    <g id="xtick_5">
     <g id="line2d_9">
      <path clip-path="url(#p272c065e3d)" d="M 399.942857 298.245375 
L 399.942857 32.133375 
" style="fill:none;stroke:#b0b0b0;stroke-linecap:square;stroke-width:0.8;"/>
     </g>
     <g id="line2d_10">
      <g>
       <use style="stroke:#000000;stroke-width:0.8;" x="399.942857" xlink:href="#m31a4319369" y="298.245375"/>
      </g>
     </g>
     <g id="text_5">
      <!-- 8 -->
      <defs>
       <path d="M 31.78125 34.625 
Q 24.75 34.625 20.71875 30.859375 
Q 16.703125 27.09375 16.703125 20.515625 
Q 16.703125 13.921875 20.71875 10.15625 
Q 24.75 6.390625 31.78125 6.390625 
Q 38.8125 6.390625 42.859375 10.171875 
Q 46.921875 13.96875 46.921875 20.515625 
Q 46.921875 27.09375 42.890625 30.859375 
Q 38.875 34.625 31.78125 34.625 
z
M 21.921875 38.8125 
Q 15.578125 40.375 12.03125 44.71875 
Q 8.5 49.078125 8.5 55.328125 
Q 8.5 64.0625 14.71875 69.140625 
Q 20.953125 74.21875 31.78125 74.21875 
Q 42.671875 74.21875 48.875 69.140625 
Q 55.078125 64.0625 55.078125 55.328125 
Q 55.078125 49.078125 51.53125 44.71875 
Q 48 40.375 41.703125 38.8125 
Q 48.828125 37.15625 52.796875 32.3125 
Q 56.78125 27.484375 56.78125 20.515625 
Q 56.78125 9.90625 50.3125 4.234375 
Q 43.84375 -1.421875 31.78125 -1.421875 
Q 19.734375 -1.421875 13.25 4.234375 
Q 6.78125 9.90625 6.78125 20.515625 
Q 6.78125 27.484375 10.78125 32.3125 
Q 14.796875 37.15625 21.921875 38.8125 
z
M 18.3125 54.390625 
Q 18.3125 48.734375 21.84375 45.5625 
Q 25.390625 42.390625 31.78125 42.390625 
Q 38.140625 42.390625 41.71875 45.5625 
Q 45.3125 48.734375 45.3125 54.390625 
Q 45.3125 60.0625 41.71875 63.234375 
Q 38.140625 66.40625 31.78125 66.40625 
Q 25.390625 66.40625 21.84375 63.234375 
Q 18.3125 60.0625 18.3125 54.390625 
z
" id="DejaVuSans-38"/>
      </defs>
      <g transform="translate(393.580357 320.44225)scale(0.2 -0.2)">
       <use xlink:href="#DejaVuSans-38"/>
      </g>
     </g>
    </g>
    <g id="text_6">
     <!-- log10 of (# f-evals / dimension) -->
     <defs>
      <path d="M 9.421875 75.984375 
L 18.40625 75.984375 
L 18.40625 0 
L 9.421875 0 
z
" id="DejaVuSans-6c"/>
      <path d="M 30.609375 48.390625 
Q 23.390625 48.390625 19.1875 42.75 
Q 14.984375 37.109375 14.984375 27.296875 
Q 14.984375 17.484375 19.15625 11.84375 
Q 23.34375 6.203125 30.609375 6.203125 
Q 37.796875 6.203125 41.984375 11.859375 
Q 46.1875 17.53125 46.1875 27.296875 
Q 46.1875 37.015625 41.984375 42.703125 
Q 37.796875 48.390625 30.609375 48.390625 
z
M 30.609375 56 
Q 42.328125 56 49.015625 48.375 
Q 55.71875 40.765625 55.71875 27.296875 
Q 55.71875 13.875 49.015625 6.21875 
Q 42.328125 -1.421875 30.609375 -1.421875 
Q 18.84375 -1.421875 12.171875 6.21875 
Q 5.515625 13.875 5.515625 27.296875 
Q 5.515625 40.765625 12.171875 48.375 
Q 18.84375 56 30.609375 56 
z
" id="DejaVuSans-6f"/>
      <path d="M 45.40625 27.984375 
Q 45.40625 37.75 41.375 43.109375 
Q 37.359375 48.484375 30.078125 48.484375 
Q 22.859375 48.484375 18.828125 43.109375 
Q 14.796875 37.75 14.796875 27.984375 
Q 14.796875 18.265625 18.828125 12.890625 
Q 22.859375 7.515625 30.078125 7.515625 
Q 37.359375 7.515625 41.375 12.890625 
Q 45.40625 18.265625 45.40625 27.984375 
z
M 54.390625 6.78125 
Q 54.390625 -7.171875 48.1875 -13.984375 
Q 42 -20.796875 29.203125 -20.796875 
Q 24.46875 -20.796875 20.265625 -20.09375 
Q 16.0625 -19.390625 12.109375 -17.921875 
L 12.109375 -9.1875 
Q 16.0625 -11.328125 19.921875 -12.34375 
Q 23.78125 -13.375 27.78125 -13.375 
Q 36.625 -13.375 41.015625 -8.765625 
Q 45.40625 -4.15625 45.40625 5.171875 
L 45.40625 9.625 
Q 42.625 4.78125 38.28125 2.390625 
Q 33.9375 0 27.875 0 
Q 17.828125 0 11.671875 7.65625 
Q 5.515625 15.328125 5.515625 27.984375 
Q 5.515625 40.671875 11.671875 48.328125 
Q 17.828125 56 27.875 56 
Q 33.9375 56 38.28125 53.609375 
Q 42.625 51.21875 45.40625 46.390625 
L 45.40625 54.6875 
L 54.390625 54.6875 
z
" id="DejaVuSans-67"/>
      <path d="M 12.40625 8.296875 
L 28.515625 8.296875 
L 28.515625 63.921875 
L 10.984375 60.40625 
L 10.984375 69.390625 
L 28.421875 72.90625 
L 38.28125 72.90625 
L 38.28125 8.296875 
L 54.390625 8.296875 
L 54.390625 0 
L 12.40625 0 
z
" id="DejaVuSans-31"/>
      <path id="DejaVuSans-20"/>
      <path d="M 37.109375 75.984375 
L 37.109375 68.5 
L 28.515625 68.5 
Q 23.6875 68.5 21.796875 66.546875 
Q 19.921875 64.59375 19.921875 59.515625 
L 19.921875 54.6875 
L 34.71875 54.6875 
L 34.71875 47.703125 
L 19.921875 47.703125 
L 19.921875 0 
L 10.890625 0 
L 10.890625 47.703125 
L 2.296875 47.703125 
L 2.296875 54.6875 
L 10.890625 54.6875 
L 10.890625 58.5 
Q 10.890625 67.625 15.140625 71.796875 
Q 19.390625 75.984375 28.609375 75.984375 
z
" id="DejaVuSans-66"/>
      <path d="M 31 75.875 
Q 24.46875 64.65625 21.28125 53.65625 
Q 18.109375 42.671875 18.109375 31.390625 
Q 18.109375 20.125 21.3125 9.0625 
Q 24.515625 -2 31 -13.1875 
L 23.1875 -13.1875 
Q 15.875 -1.703125 12.234375 9.375 
Q 8.59375 20.453125 8.59375 31.390625 
Q 8.59375 42.28125 12.203125 53.3125 
Q 15.828125 64.359375 23.1875 75.875 
z
" id="DejaVuSans-28"/>
      <path d="M 51.125 44 
L 36.921875 44 
L 32.8125 27.6875 
L 47.125 27.6875 
z
M 43.796875 71.78125 
L 38.71875 51.515625 
L 52.984375 51.515625 
L 58.109375 71.78125 
L 65.921875 71.78125 
L 60.890625 51.515625 
L 76.125 51.515625 
L 76.125 44 
L 58.984375 44 
L 54.984375 27.6875 
L 70.515625 27.6875 
L 70.515625 20.21875 
L 53.078125 20.21875 
L 48 0 
L 40.1875 0 
L 45.21875 20.21875 
L 30.90625 20.21875 
L 25.875 0 
L 18.015625 0 
L 23.09375 20.21875 
L 7.71875 20.21875 
L 7.71875 27.6875 
L 24.90625 27.6875 
L 29 44 
L 13.28125 44 
L 13.28125 51.515625 
L 30.90625 51.515625 
L 35.890625 71.78125 
z
" id="DejaVuSans-23"/>
      <path d="M 4.890625 31.390625 
L 31.203125 31.390625 
L 31.203125 23.390625 
L 4.890625 23.390625 
z
" id="DejaVuSans-2d"/>
      <path d="M 56.203125 29.59375 
L 56.203125 25.203125 
L 14.890625 25.203125 
Q 15.484375 15.921875 20.484375 11.0625 
Q 25.484375 6.203125 34.421875 6.203125 
Q 39.59375 6.203125 44.453125 7.46875 
Q 49.3125 8.734375 54.109375 11.28125 
L 54.109375 2.78125 
Q 49.265625 0.734375 44.1875 -0.34375 
Q 39.109375 -1.421875 33.890625 -1.421875 
Q 20.796875 -1.421875 13.15625 6.1875 
Q 5.515625 13.8125 5.515625 26.8125 
Q 5.515625 40.234375 12.765625 48.109375 
Q 20.015625 56 32.328125 56 
Q 43.359375 56 49.78125 48.890625 
Q 56.203125 41.796875 56.203125 29.59375 
z
M 47.21875 32.234375 
Q 47.125 39.59375 43.09375 43.984375 
Q 39.0625 48.390625 32.421875 48.390625 
Q 24.90625 48.390625 20.390625 44.140625 
Q 15.875 39.890625 15.1875 32.171875 
z
" id="DejaVuSans-65"/>
      <path d="M 2.984375 54.6875 
L 12.5 54.6875 
L 29.59375 8.796875 
L 46.6875 54.6875 
L 56.203125 54.6875 
L 35.6875 0 
L 23.484375 0 
z
" id="DejaVuSans-76"/>
      <path d="M 34.28125 27.484375 
Q 23.390625 27.484375 19.1875 25 
Q 14.984375 22.515625 14.984375 16.5 
Q 14.984375 11.71875 18.140625 8.90625 
Q 21.296875 6.109375 26.703125 6.109375 
Q 34.1875 6.109375 38.703125 11.40625 
Q 43.21875 16.703125 43.21875 25.484375 
L 43.21875 27.484375 
z
M 52.203125 31.203125 
L 52.203125 0 
L 43.21875 0 
L 43.21875 8.296875 
Q 40.140625 3.328125 35.546875 0.953125 
Q 30.953125 -1.421875 24.3125 -1.421875 
Q 15.921875 -1.421875 10.953125 3.296875 
Q 6 8.015625 6 15.921875 
Q 6 25.140625 12.171875 29.828125 
Q 18.359375 34.515625 30.609375 34.515625 
L 43.21875 34.515625 
L 43.21875 35.40625 
Q 43.21875 41.609375 39.140625 45 
Q 35.0625 48.390625 27.6875 48.390625 
Q 23 48.390625 18.546875 47.265625 
Q 14.109375 46.140625 10.015625 43.890625 
L 10.015625 52.203125 
Q 14.9375 54.109375 19.578125 55.046875 
Q 24.21875 56 28.609375 56 
Q 40.484375 56 46.34375 49.84375 
Q 52.203125 43.703125 52.203125 31.203125 
z
" id="DejaVuSans-61"/>
      <path d="M 44.28125 53.078125 
L 44.28125 44.578125 
Q 40.484375 46.53125 36.375 47.5 
Q 32.28125 48.484375 27.875 48.484375 
Q 21.1875 48.484375 17.84375 46.4375 
Q 14.5 44.390625 14.5 40.28125 
Q 14.5 37.15625 16.890625 35.375 
Q 19.28125 33.59375 26.515625 31.984375 
L 29.59375 31.296875 
Q 39.15625 29.25 43.1875 25.515625 
Q 47.21875 21.78125 47.21875 15.09375 
Q 47.21875 7.46875 41.1875 3.015625 
Q 35.15625 -1.421875 24.609375 -1.421875 
Q 20.21875 -1.421875 15.453125 -0.5625 
Q 10.6875 0.296875 5.421875 2 
L 5.421875 11.28125 
Q 10.40625 8.6875 15.234375 7.390625 
Q 20.0625 6.109375 24.8125 6.109375 
Q 31.15625 6.109375 34.5625 8.28125 
Q 37.984375 10.453125 37.984375 14.40625 
Q 37.984375 18.0625 35.515625 20.015625 
Q 33.0625 21.96875 24.703125 23.78125 
L 21.578125 24.515625 
Q 13.234375 26.265625 9.515625 29.90625 
Q 5.8125 33.546875 5.8125 39.890625 
Q 5.8125 47.609375 11.28125 51.796875 
Q 16.75 56 26.8125 56 
Q 31.78125 56 36.171875 55.265625 
Q 40.578125 54.546875 44.28125 53.078125 
z
" id="DejaVuSans-73"/>
      <path d="M 25.390625 72.90625 
L 33.6875 72.90625 
L 8.296875 -9.28125 
L 0 -9.28125 
z
" id="DejaVuSans-2f"/>
      <path d="M 45.40625 46.390625 
L 45.40625 75.984375 
L 54.390625 75.984375 
L 54.390625 0 
L 45.40625 0 
L 45.40625 8.203125 
Q 42.578125 3.328125 38.25 0.953125 
Q 33.9375 -1.421875 27.875 -1.421875 
Q 17.96875 -1.421875 11.734375 6.484375 
Q 5.515625 14.40625 5.515625 27.296875 
Q 5.515625 40.1875 11.734375 48.09375 
Q 17.96875 56 27.875 56 
Q 33.9375 56 38.25 53.625 
Q 42.578125 51.265625 45.40625 46.390625 
z
M 14.796875 27.296875 
Q 14.796875 17.390625 18.875 11.75 
Q 22.953125 6.109375 30.078125 6.109375 
Q 37.203125 6.109375 41.296875 11.75 
Q 45.40625 17.390625 45.40625 27.296875 
Q 45.40625 37.203125 41.296875 42.84375 
Q 37.203125 48.484375 30.078125 48.484375 
Q 22.953125 48.484375 18.875 42.84375 
Q 14.796875 37.203125 14.796875 27.296875 
z
" id="DejaVuSans-64"/>
      <path d="M 9.421875 54.6875 
L 18.40625 54.6875 
L 18.40625 0 
L 9.421875 0 
z
M 9.421875 75.984375 
L 18.40625 75.984375 
L 18.40625 64.59375 
L 9.421875 64.59375 
z
" id="DejaVuSans-69"/>
      <path d="M 52 44.1875 
Q 55.375 50.25 60.0625 53.125 
Q 64.75 56 71.09375 56 
Q 79.640625 56 84.28125 50.015625 
Q 88.921875 44.046875 88.921875 33.015625 
L 88.921875 0 
L 79.890625 0 
L 79.890625 32.71875 
Q 79.890625 40.578125 77.09375 44.375 
Q 74.3125 48.1875 68.609375 48.1875 
Q 61.625 48.1875 57.5625 43.546875 
Q 53.515625 38.921875 53.515625 30.90625 
L 53.515625 0 
L 44.484375 0 
L 44.484375 32.71875 
Q 44.484375 40.625 41.703125 44.40625 
Q 38.921875 48.1875 33.109375 48.1875 
Q 26.21875 48.1875 22.15625 43.53125 
Q 18.109375 38.875 18.109375 30.90625 
L 18.109375 0 
L 9.078125 0 
L 9.078125 54.6875 
L 18.109375 54.6875 
L 18.109375 46.1875 
Q 21.1875 51.21875 25.484375 53.609375 
Q 29.78125 56 35.6875 56 
Q 41.65625 56 45.828125 52.96875 
Q 50 49.953125 52 44.1875 
z
" id="DejaVuSans-6d"/>
      <path d="M 54.890625 33.015625 
L 54.890625 0 
L 45.90625 0 
L 45.90625 32.71875 
Q 45.90625 40.484375 42.875 44.328125 
Q 39.84375 48.1875 33.796875 48.1875 
Q 26.515625 48.1875 22.3125 43.546875 
Q 18.109375 38.921875 18.109375 30.90625 
L 18.109375 0 
L 9.078125 0 
L 9.078125 54.6875 
L 18.109375 54.6875 
L 18.109375 46.1875 
Q 21.34375 51.125 25.703125 53.5625 
Q 30.078125 56 35.796875 56 
Q 45.21875 56 50.046875 50.171875 
Q 54.890625 44.34375 54.890625 33.015625 
z
" id="DejaVuSans-6e"/>
      <path d="M 8.015625 75.875 
L 15.828125 75.875 
Q 23.140625 64.359375 26.78125 53.3125 
Q 30.421875 42.28125 30.421875 31.390625 
Q 30.421875 20.453125 26.78125 9.375 
Q 23.140625 -1.703125 15.828125 -13.1875 
L 8.015625 -13.1875 
Q 14.5 -2 17.703125 9.0625 
Q 20.90625 20.125 20.90625 31.390625 
Q 20.90625 42.671875 17.703125 53.65625 
Q 14.5 64.65625 8.015625 75.875 
z
" id="DejaVuSans-29"/>
     </defs>
     <g transform="translate(107.015156 342.278812)scale(0.18 -0.18)">
      <use xlink:href="#DejaVuSans-6c"/>
      <use x="27.783203" xlink:href="#DejaVuSans-6f"/>
      <use x="88.964844" xlink:href="#DejaVuSans-67"/>
      <use x="152.441406" xlink:href="#DejaVuSans-31"/>
      <use x="216.064453" xlink:href="#DejaVuSans-30"/>
      <use x="279.6875" xlink:href="#DejaVuSans-20"/>
      <use x="311.474609" xlink:href="#DejaVuSans-6f"/>
      <use x="372.65625" xlink:href="#DejaVuSans-66"/>
      <use x="407.861328" xlink:href="#DejaVuSans-20"/>
      <use x="439.648438" xlink:href="#DejaVuSans-28"/>
      <use x="478.662109" xlink:href="#DejaVuSans-23"/>
      <use x="562.451172" xlink:href="#DejaVuSans-20"/>
      <use x="594.238281" xlink:href="#DejaVuSans-66"/>
      <use x="629.365234" xlink:href="#DejaVuSans-2d"/>
      <use x="665.449219" xlink:href="#DejaVuSans-65"/>
      <use x="726.972656" xlink:href="#DejaVuSans-76"/>
      <use x="786.152344" xlink:href="#DejaVuSans-61"/>
      <use x="847.431641" xlink:href="#DejaVuSans-6c"/>
      <use x="875.214844" xlink:href="#DejaVuSans-73"/>
      <use x="927.314453" xlink:href="#DejaVuSans-20"/>
      <use x="959.101562" xlink:href="#DejaVuSans-2f"/>
      <use x="992.792969" xlink:href="#DejaVuSans-20"/>
      <use x="1024.580078" xlink:href="#DejaVuSans-64"/>
      <use x="1088.056641" xlink:href="#DejaVuSans-69"/>
      <use x="1115.839844" xlink:href="#DejaVuSans-6d"/>
      <use x="1213.251953" xlink:href="#DejaVuSans-65"/>
      <use x="1274.775391" xlink:href="#DejaVuSans-6e"/>
      <use x="1338.154297" xlink:href="#DejaVuSans-73"/>
      <use x="1390.253906" xlink:href="#DejaVuSans-69"/>
      <use x="1418.037109" xlink:href="#DejaVuSans-6f"/>
      <use x="1479.21875" xlink:href="#DejaVuSans-6e"/>
      <use x="1542.597656" xlink:href="#DejaVuSans-29"/>
     </g>
    </g>
   </g>
   <g id="matplotlib.axis_2">
    <g id="ytick_1">
     <g id="line2d_11">
      <path clip-path="url(#p272c065e3d)" d="M 70.8 298.245375 
L 427.92 298.245375 
" style="fill:none;stroke:#b0b0b0;stroke-linecap:square;stroke-width:0.8;"/>
     </g>
     <g id="line2d_12">
      <defs>
       <path d="M 0 0 
L -3.5 0 
" id="mde54d40d21" style="stroke:#000000;stroke-width:0.8;"/>
      </defs>
      <g>
       <use style="stroke:#000000;stroke-width:0.8;" x="70.8" xlink:href="#mde54d40d21" y="298.245375"/>
      </g>
     </g>
     <g id="text_7">
      <!-- 0.0 -->
      <defs>
       <path d="M 10.6875 12.40625 
L 21 12.40625 
L 21 0 
L 10.6875 0 
z
" id="DejaVuSans-2e"/>
      </defs>
      <g transform="translate(31.99375 305.843812)scale(0.2 -0.2)">
       <use xlink:href="#DejaVuSans-30"/>
       <use x="63.623047" xlink:href="#DejaVuSans-2e"/>
       <use x="95.410156" xlink:href="#DejaVuSans-30"/>
      </g>
     </g>
    </g>
    <g id="ytick_2">
     <g id="line2d_13">
      <path clip-path="url(#p272c065e3d)" d="M 70.8 245.549929 
L 427.92 245.549929 
" style="fill:none;stroke:#b0b0b0;stroke-linecap:square;stroke-width:0.8;"/>
     </g>
     <g id="line2d_14">
      <g>
       <use style="stroke:#000000;stroke-width:0.8;" x="70.8" xlink:href="#mde54d40d21" y="245.549929"/>
      </g>
     </g>
     <g id="text_8">
      <!-- 0.2 -->
      <g transform="translate(31.99375 253.148367)scale(0.2 -0.2)">
       <use xlink:href="#DejaVuSans-30"/>
       <use x="63.623047" xlink:href="#DejaVuSans-2e"/>
       <use x="95.410156" xlink:href="#DejaVuSans-32"/>
      </g>
     </g>
    </g>
    <g id="ytick_3">
     <g id="line2d_15">
      <path clip-path="url(#p272c065e3d)" d="M 70.8 192.854484 
L 427.92 192.854484 
" style="fill:none;stroke:#b0b0b0;stroke-linecap:square;stroke-width:0.8;"/>
     </g>
     <g id="line2d_16">
      <g>
       <use style="stroke:#000000;stroke-width:0.8;" x="70.8" xlink:href="#mde54d40d21" y="192.854484"/>
      </g>
     </g>
     <g id="text_9">
      <!-- 0.4 -->
      <g transform="translate(31.99375 200.452921)scale(0.2 -0.2)">
       <use xlink:href="#DejaVuSans-30"/>
       <use x="63.623047" xlink:href="#DejaVuSans-2e"/>
       <use x="95.410156" xlink:href="#DejaVuSans-34"/>
      </g>
     </g>
    </g>
    <g id="ytick_4">
     <g id="line2d_17">
      <path clip-path="url(#p272c065e3d)" d="M 70.8 140.159038 
L 427.92 140.159038 
" style="fill:none;stroke:#b0b0b0;stroke-linecap:square;stroke-width:0.8;"/>
     </g>
     <g id="line2d_18">
      <g>
       <use style="stroke:#000000;stroke-width:0.8;" x="70.8" xlink:href="#mde54d40d21" y="140.159038"/>
      </g>
     </g>
     <g id="text_10">
      <!-- 0.6 -->
      <g transform="translate(31.99375 147.757476)scale(0.2 -0.2)">
       <use xlink:href="#DejaVuSans-30"/>
       <use x="63.623047" xlink:href="#DejaVuSans-2e"/>
       <use x="95.410156" xlink:href="#DejaVuSans-36"/>
      </g>
     </g>
    </g>
    <g id="ytick_5">
     <g id="line2d_19">
      <path clip-path="url(#p272c065e3d)" d="M 70.8 87.463593 
L 427.92 87.463593 
" style="fill:none;stroke:#b0b0b0;stroke-linecap:square;stroke-width:0.8;"/>
     </g>
     <g id="line2d_20">
      <g>
       <use style="stroke:#000000;stroke-width:0.8;" x="70.8" xlink:href="#mde54d40d21" y="87.463593"/>
      </g>
     </g>
     <g id="text_11">
      <!-- 0.8 -->
      <g transform="translate(31.99375 95.06203)scale(0.2 -0.2)">
       <use xlink:href="#DejaVuSans-30"/>
       <use x="63.623047" xlink:href="#DejaVuSans-2e"/>
       <use x="95.410156" xlink:href="#DejaVuSans-38"/>
      </g>
     </g>
    </g>
    <g id="ytick_6">
     <g id="line2d_21">
      <path clip-path="url(#p272c065e3d)" d="M 70.8 34.768147 
L 427.92 34.768147 
" style="fill:none;stroke:#b0b0b0;stroke-linecap:square;stroke-width:0.8;"/>
     </g>
     <g id="line2d_22">
      <g>
       <use style="stroke:#000000;stroke-width:0.8;" x="70.8" xlink:href="#mde54d40d21" y="34.768147"/>
      </g>
     </g>
     <g id="text_12">
      <!-- 1.0 -->
      <g transform="translate(31.99375 42.366585)scale(0.2 -0.2)">
       <use xlink:href="#DejaVuSans-31"/>
       <use x="63.623047" xlink:href="#DejaVuSans-2e"/>
       <use x="95.410156" xlink:href="#DejaVuSans-30"/>
      </g>
     </g>
    </g>
    <g id="text_13">
     <!-- Proportion of function+target pairs -->
     <defs>
      <path d="M 19.671875 64.796875 
L 19.671875 37.40625 
L 32.078125 37.40625 
Q 38.96875 37.40625 42.71875 40.96875 
Q 46.484375 44.53125 46.484375 51.125 
Q 46.484375 57.671875 42.71875 61.234375 
Q 38.96875 64.796875 32.078125 64.796875 
z
M 9.8125 72.90625 
L 32.078125 72.90625 
Q 44.34375 72.90625 50.609375 67.359375 
Q 56.890625 61.8125 56.890625 51.125 
Q 56.890625 40.328125 50.609375 34.8125 
Q 44.34375 29.296875 32.078125 29.296875 
L 19.671875 29.296875 
L 19.671875 0 
L 9.8125 0 
z
" id="DejaVuSans-50"/>
      <path d="M 41.109375 46.296875 
Q 39.59375 47.171875 37.8125 47.578125 
Q 36.03125 48 33.890625 48 
Q 26.265625 48 22.1875 43.046875 
Q 18.109375 38.09375 18.109375 28.8125 
L 18.109375 0 
L 9.078125 0 
L 9.078125 54.6875 
L 18.109375 54.6875 
L 18.109375 46.1875 
Q 20.953125 51.171875 25.484375 53.578125 
Q 30.03125 56 36.53125 56 
Q 37.453125 56 38.578125 55.875 
Q 39.703125 55.765625 41.0625 55.515625 
z
" id="DejaVuSans-72"/>
      <path d="M 18.109375 8.203125 
L 18.109375 -20.796875 
L 9.078125 -20.796875 
L 9.078125 54.6875 
L 18.109375 54.6875 
L 18.109375 46.390625 
Q 20.953125 51.265625 25.265625 53.625 
Q 29.59375 56 35.59375 56 
Q 45.5625 56 51.78125 48.09375 
Q 58.015625 40.1875 58.015625 27.296875 
Q 58.015625 14.40625 51.78125 6.484375 
Q 45.5625 -1.421875 35.59375 -1.421875 
Q 29.59375 -1.421875 25.265625 0.953125 
Q 20.953125 3.328125 18.109375 8.203125 
z
M 48.6875 27.296875 
Q 48.6875 37.203125 44.609375 42.84375 
Q 40.53125 48.484375 33.40625 48.484375 
Q 26.265625 48.484375 22.1875 42.84375 
Q 18.109375 37.203125 18.109375 27.296875 
Q 18.109375 17.390625 22.1875 11.75 
Q 26.265625 6.109375 33.40625 6.109375 
Q 40.53125 6.109375 44.609375 11.75 
Q 48.6875 17.390625 48.6875 27.296875 
z
" id="DejaVuSans-70"/>
      <path d="M 18.3125 70.21875 
L 18.3125 54.6875 
L 36.8125 54.6875 
L 36.8125 47.703125 
L 18.3125 47.703125 
L 18.3125 18.015625 
Q 18.3125 11.328125 20.140625 9.421875 
Q 21.96875 7.515625 27.59375 7.515625 
L 36.8125 7.515625 
L 36.8125 0 
L 27.59375 0 
Q 17.1875 0 13.234375 3.875 
Q 9.28125 7.765625 9.28125 18.015625 
L 9.28125 47.703125 
L 2.6875 47.703125 
L 2.6875 54.6875 
L 9.28125 54.6875 
L 9.28125 70.21875 
z
" id="DejaVuSans-74"/>
      <path d="M 8.5 21.578125 
L 8.5 54.6875 
L 17.484375 54.6875 
L 17.484375 21.921875 
Q 17.484375 14.15625 20.5 10.265625 
Q 23.53125 6.390625 29.59375 6.390625 
Q 36.859375 6.390625 41.078125 11.03125 
Q 45.3125 15.671875 45.3125 23.6875 
L 45.3125 54.6875 
L 54.296875 54.6875 
L 54.296875 0 
L 45.3125 0 
L 45.3125 8.40625 
Q 42.046875 3.421875 37.71875 1 
Q 33.40625 -1.421875 27.6875 -1.421875 
Q 18.265625 -1.421875 13.375 4.4375 
Q 8.5 10.296875 8.5 21.578125 
z
M 31.109375 56 
z
" id="DejaVuSans-75"/>
      <path d="M 48.78125 52.59375 
L 48.78125 44.1875 
Q 44.96875 46.296875 41.140625 47.34375 
Q 37.3125 48.390625 33.40625 48.390625 
Q 24.65625 48.390625 19.8125 42.84375 
Q 14.984375 37.3125 14.984375 27.296875 
Q 14.984375 17.28125 19.8125 11.734375 
Q 24.65625 6.203125 33.40625 6.203125 
Q 37.3125 6.203125 41.140625 7.25 
Q 44.96875 8.296875 48.78125 10.40625 
L 48.78125 2.09375 
Q 45.015625 0.34375 40.984375 -0.53125 
Q 36.96875 -1.421875 32.421875 -1.421875 
Q 20.0625 -1.421875 12.78125 6.34375 
Q 5.515625 14.109375 5.515625 27.296875 
Q 5.515625 40.671875 12.859375 48.328125 
Q 20.21875 56 33.015625 56 
Q 37.15625 56 41.109375 55.140625 
Q 45.0625 54.296875 48.78125 52.59375 
z
" id="DejaVuSans-63"/>
      <path d="M 46 62.703125 
L 46 35.5 
L 73.1875 35.5 
L 73.1875 27.203125 
L 46 27.203125 
L 46 0 
L 37.796875 0 
L 37.796875 27.203125 
L 10.59375 27.203125 
L 10.59375 35.5 
L 37.796875 35.5 
L 37.796875 62.703125 
z
" id="DejaVuSans-2b"/>
     </defs>
     <g transform="translate(24.250312 323.17875)rotate(-90)scale(0.18 -0.18)">
      <use xlink:href="#DejaVuSans-50"/>
      <use x="60.287109" xlink:href="#DejaVuSans-72"/>
      <use x="101.369141" xlink:href="#DejaVuSans-6f"/>
      <use x="162.550781" xlink:href="#DejaVuSans-70"/>
      <use x="226.027344" xlink:href="#DejaVuSans-6f"/>
      <use x="287.208984" xlink:href="#DejaVuSans-72"/>
      <use x="328.322266" xlink:href="#DejaVuSans-74"/>
      <use x="367.53125" xlink:href="#DejaVuSans-69"/>
      <use x="395.314453" xlink:href="#DejaVuSans-6f"/>
      <use x="456.496094" xlink:href="#DejaVuSans-6e"/>
      <use x="519.875" xlink:href="#DejaVuSans-20"/>
      <use x="551.662109" xlink:href="#DejaVuSans-6f"/>
      <use x="612.84375" xlink:href="#DejaVuSans-66"/>
      <use x="648.048828" xlink:href="#DejaVuSans-20"/>
      <use x="679.835938" xlink:href="#DejaVuSans-66"/>
      <use x="715.041016" xlink:href="#DejaVuSans-75"/>
      <use x="778.419922" xlink:href="#DejaVuSans-6e"/>
      <use x="841.798828" xlink:href="#DejaVuSans-63"/>
      <use x="896.779297" xlink:href="#DejaVuSans-74"/>
      <use x="935.988281" xlink:href="#DejaVuSans-69"/>
      <use x="963.771484" xlink:href="#DejaVuSans-6f"/>
      <use x="1024.953125" xlink:href="#DejaVuSans-6e"/>
      <use x="1088.332031" xlink:href="#DejaVuSans-2b"/>
      <use x="1172.121094" xlink:href="#DejaVuSans-74"/>
      <use x="1211.330078" xlink:href="#DejaVuSans-61"/>
      <use x="1272.609375" xlink:href="#DejaVuSans-72"/>
      <use x="1313.707031" xlink:href="#DejaVuSans-67"/>
      <use x="1377.183594" xlink:href="#DejaVuSans-65"/>
      <use x="1438.707031" xlink:href="#DejaVuSans-74"/>
      <use x="1477.916016" xlink:href="#DejaVuSans-20"/>
      <use x="1509.703125" xlink:href="#DejaVuSans-70"/>
      <use x="1573.179688" xlink:href="#DejaVuSans-61"/>
      <use x="1634.458984" xlink:href="#DejaVuSans-69"/>
      <use x="1662.242188" xlink:href="#DejaVuSans-72"/>
      <use x="1703.355469" xlink:href="#DejaVuSans-73"/>
     </g>
    </g>
   </g>
   <g id="line2d_23">
    <defs>
     <path d="M 0 1.5 
C 0.397805 1.5 0.77937 1.341951 1.06066 1.06066 
C 1.341951 0.77937 1.5 0.397805 1.5 0 
C 1.5 -0.397805 1.341951 -0.77937 1.06066 -1.06066 
C 0.77937 -1.341951 0.397805 -1.5 0 -1.5 
C -0.397805 -1.5 -0.77937 -1.341951 -1.06066 -1.06066 
C -1.341951 -0.77937 -1.5 -0.397805 -1.5 0 
C -1.5 0.397805 -1.341951 0.77937 -1.06066 1.06066 
C -0.77937 1.341951 -0.397805 1.5 0 1.5 
z
" id="m1ed9d18892" style="stroke:#000080;"/>
    </defs>
    <g>
     <use style="fill:#000080;stroke:#000080;" x="286.063069" xlink:href="#m1ed9d18892" y="194.920972"/>
     <use style="fill:#000080;stroke:#000080;" x="286.063069" xlink:href="#m1ed9d18892" y="194.920972"/>
    </g>
   </g>
   <g id="line2d_24">
    <path d="M 141.40128 298.245375 
L 141.40128 297.212131 
L 143.657911 297.212131 
L 143.657911 296.695509 
L 145.018098 296.695509 
L 145.018098 296.178887 
L 145.570765 296.178887 
L 145.570765 295.145643 
L 145.751252 295.145643 
L 145.751252 294.629021 
L 147.945378 294.629021 
L 147.945378 294.112399 
L 148.646178 294.112399 
L 148.646178 292.562533 
L 149.827972 292.562533 
L 149.827972 291.529289 
L 150.390793 291.529289 
L 150.390793 291.012667 
L 150.528772 291.012667 
L 150.528772 289.462801 
L 151.724854 289.462801 
L 151.724854 286.363069 
L 152.294152 286.363069 
L 152.294152 285.846447 
L 152.785403 285.846447 
L 152.785403 285.329825 
L 153.263508 285.329825 
L 153.263508 282.230093 
L 153.43955 282.230093 
L 153.43955 281.196849 
L 154.238896 281.196849 
L 154.238896 280.680226 
L 155.057426 280.680226 
L 155.057426 280.163604 
L 155.322144 280.163604 
L 155.322144 279.13036 
L 155.479112 279.13036 
L 155.479112 278.097116 
L 155.686281 278.097116 
L 155.686281 277.580494 
L 155.992599 277.580494 
L 156.043145 276.54725 
L 156.393022 276.54725 
L 156.393022 276.030628 
L 158.181325 276.030628 
L 158.181325 275.514006 
L 160.211092 275.514006 
L 160.211092 273.96414 
L 160.878037 273.96414 
L 160.878037 272.414274 
L 161.031412 272.414274 
L 161.031412 270.864408 
L 161.997491 270.864408 
L 161.997491 269.831164 
L 162.426347 269.831164 
L 162.426347 269.314542 
L 163.687347 269.314542 
L 163.687347 268.79792 
L 164.045699 268.79792 
L 164.110088 265.181566 
L 166.846097 265.181566 
L 166.846097 264.148322 
L 167.119734 264.148322 
L 167.119734 263.6317 
L 210.550859 263.6317 
L 210.617629 261.04859 
L 210.67229 261.04859 
L 210.748063 258.982102 
L 210.858775 258.982102 
L 210.950124 257.948858 
L 211.045657 257.948858 
L 211.045657 257.432236 
L 211.173014 257.432236 
L 211.202984 254.849126 
L 211.413658 254.849126 
L 211.436408 253.29926 
L 222.631287 253.29926 
L 222.701624 249.166284 
L 222.805411 249.166284 
L 222.805411 248.649662 
L 222.936094 248.649662 
L 222.936094 246.583173 
L 229.77423 246.583173 
L 229.77423 246.066551 
L 229.903301 246.066551 
L 229.958218 243.483441 
L 230.032249 243.483441 
L 230.040278 242.450197 
L 234.867047 242.450197 
L 234.867047 241.933575 
L 234.986117 241.933575 
L 235.048086 239.867087 
L 238.809913 239.867087 
L 238.905469 237.283977 
L 238.950375 237.283977 
L 238.969864 235.734111 
L 242.030685 235.734111 
L 242.117866 231.601135 
L 242.159464 231.601135 
L 242.159464 230.567891 
L 244.839788 230.567891 
L 244.886008 226.951537 
L 247.131487 226.951537 
L 247.232665 223.851805 
L 249.243962 223.851805 
L 249.322978 219.718829 
L 251.154319 219.718829 
L 251.186793 217.652341 
L 252.844882 217.652341 
L 252.867716 216.102475 
L 254.410174 216.102475 
L 254.410174 215.069231 
L 255.810653 215.069231 
L 255.835682 213.519365 
L 258.353523 213.519365 
L 258.370302 212.48612 
L 259.500985 212.48612 
L 259.516721 211.452876 
L 260.593999 211.452876 
L 260.593999 210.419632 
L 261.596009 210.419632 
L 261.596009 209.90301 
L 262.571333 209.90301 
L 262.571333 208.869766 
L 263.470969 208.869766 
L 263.470969 208.353144 
L 264.355018 208.353144 
L 264.355018 207.3199 
L 265.959287 207.3199 
L 265.959287 206.803278 
L 266.717256 206.803278 
L 266.727765 204.220168 
L 268.151812 204.220168 
L 268.151812 203.703546 
L 268.827541 203.703546 
L 268.827541 203.186924 
L 269.46345 203.186924 
L 269.46345 202.670302 
L 270.088772 202.670302 
L 270.100033 201.637058 
L 270.70136 201.637058 
L 270.70136 201.120436 
L 271.850377 201.120436 
L 271.850377 200.603814 
L 272.39179 200.603814 
L 272.39179 200.087192 
L 272.923979 200.087192 
L 272.923979 199.57057 
L 273.440775 199.57057 
L 273.45011 198.020704 
L 274.913755 198.020704 
L 274.913755 197.504082 
L 280.845978 197.504082 
L 280.846445 196.470838 
L 281.175189 196.470838 
L 281.175189 195.954216 
L 282.454624 195.954216 
L 282.454624 195.437594 
L 286.063069 195.437594 
L 286.063069 194.920972 
L 358.8 194.920972 
L 358.8 194.920972 
" style="fill:none;stroke:#000080;stroke-linecap:square;stroke-width:1.5;"/>
   </g>
   <g id="line2d_25">
    <defs>
     <path d="M 0 6 
C 1.591219 6 3.117479 5.367802 4.242641 4.242641 
C 5.367802 3.117479 6 1.591219 6 0 
C 6 -1.591219 5.367802 -3.117479 4.242641 -4.242641 
C 3.117479 -5.367802 1.591219 -6 0 -6 
C -1.591219 -6 -3.117479 -5.367802 -4.242641 -4.242641 
C -5.367802 -3.117479 -6 -1.591219 -6 0 
C -6 1.591219 -5.367802 3.117479 -4.242641 4.242641 
C -3.117479 5.367802 -1.591219 6 0 6 
z
" id="m92545f5c34" style="stroke:#000080;stroke-width:1.5;"/>
    </defs>
    <g>
     <use style="fill:none;stroke:#000080;stroke-width:1.5;" x="210.572348" xlink:href="#m92545f5c34" y="262.598456"/>
     <use style="fill:none;stroke:#000080;stroke-width:1.5;" x="249.286931" xlink:href="#m92545f5c34" y="221.268695"/>
     <use style="fill:none;stroke:#000080;stroke-width:1.5;" x="286.063069" xlink:href="#m92545f5c34" y="194.920972"/>
     <use style="fill:none;stroke:#000080;stroke-width:1.5;" x="286.063069" xlink:href="#m92545f5c34" y="194.920972"/>
     <use style="fill:none;stroke:#000080;stroke-width:1.5;" x="358.8" xlink:href="#m92545f5c34" y="194.920972"/>
    </g>
   </g>
   <g id="line2d_26"/>
   <g id="line2d_27">
    <path clip-path="url(#p272c065e3d)" d="M 209.87403 263.6317 
" style="fill:none;stroke:#000080;stroke-linecap:square;stroke-width:1.5;"/>
    <defs>
     <path d="M -12 12 
L 12 -12 
M -12 -12 
L 12 12 
" id="mf7886b846a" style="stroke:#000080;stroke-width:3;"/>
    </defs>
    <g clip-path="url(#p272c065e3d)">
     <use style="fill:#000080;stroke:#000080;stroke-width:3;" x="209.87403" xlink:href="#mf7886b846a" y="263.6317"/>
    </g>
   </g>
   <g id="line2d_28">
    <defs>
     <path d="M 0 1.5 
C 0.397805 1.5 0.77937 1.341951 1.06066 1.06066 
C 1.341951 0.77937 1.5 0.397805 1.5 0 
C 1.5 -0.397805 1.341951 -0.77937 1.06066 -1.06066 
C 0.77937 -1.341951 0.397805 -1.5 0 -1.5 
C -0.397805 -1.5 -0.77937 -1.341951 -1.06066 -1.06066 
C -1.341951 -0.77937 -1.5 -0.397805 -1.5 0 
C -1.5 0.397805 -1.341951 0.77937 -1.06066 1.06066 
C -0.77937 1.341951 -0.397805 1.5 0 1.5 
z
" id="m884019ac89" style="stroke:#ff00ff;"/>
    </defs>
    <g>
     <use style="fill:#ff00ff;stroke:#ff00ff;" x="285.027429" xlink:href="#m884019ac89" y="194.920972"/>
     <use style="fill:#ff00ff;stroke:#ff00ff;" x="285.027429" xlink:href="#m884019ac89" y="194.920972"/>
    </g>
   </g>
   <g id="line2d_29">
    <path d="M 110.060263 298.245375 
L 110.060263 297.212131 
L 119.964752 297.212131 
L 119.964752 294.629021 
L 124.328091 294.629021 
L 124.328091 294.112399 
L 124.623439 294.112399 
L 124.623439 293.595777 
L 127.335926 293.595777 
L 127.335926 292.562533 
L 127.832295 292.562533 
L 127.832295 291.529289 
L 128.315246 291.529289 
L 128.315246 290.496045 
L 130.126224 290.496045 
L 130.126224 289.462801 
L 131.572989 289.462801 
L 131.572989 288.946179 
L 133.094598 288.946179 
L 133.094598 288.429557 
L 133.809418 288.429557 
L 133.809418 287.396313 
L 133.983743 287.396313 
L 133.983743 284.813203 
L 136.107569 284.813203 
L 136.107569 284.296581 
L 137.299218 284.296581 
L 137.299218 283.263337 
L 139.971068 283.263337 
L 139.971068 282.746715 
L 140.819206 282.746715 
L 140.819206 282.230093 
L 141.054316 282.230093 
L 141.054316 281.713471 
L 141.170721 281.713471 
L 141.170721 280.163604 
L 141.515454 280.163604 
L 141.515454 278.613738 
L 141.853662 278.613738 
L 141.853662 278.097116 
L 143.249479 278.097116 
L 143.249479 277.580494 
L 143.454862 277.580494 
L 143.454862 276.54725 
L 143.958223 276.54725 
L 143.958223 276.030628 
L 145.479832 276.030628 
L 145.479832 275.514006 
L 146.881972 275.514006 
L 146.881972 274.997384 
L 147.215966 274.997384 
L 147.215966 273.96414 
L 148.415618 273.96414 
L 148.415618 272.930896 
L 148.8738 272.930896 
L 148.8738 272.414274 
L 149.393907 272.414274 
L 149.466987 271.38103 
L 149.612257 271.38103 
L 149.612257 269.831164 
L 149.756356 269.831164 
L 149.756356 269.314542 
L 150.111598 269.314542 
L 150.111598 267.248054 
L 151.20312 267.248054 
L 151.20312 266.731432 
L 151.660465 266.731432 
L 151.660465 266.21481 
L 152.231785 266.21481 
L 152.231785 265.698188 
L 152.356302 265.698188 
L 152.356302 265.181566 
L 153.729153 265.181566 
L 153.729153 262.598456 
L 154.294647 262.598456 
L 154.294647 260.015346 
L 155.163784 260.015346 
L 155.163784 259.498724 
L 156.44245 259.498724 
L 156.44245 258.46548 
L 157.496639 258.46548 
L 157.496639 256.915614 
L 158.091535 256.915614 
L 158.091535 256.398992 
L 158.226051 256.398992 
L 158.226051 255.88237 
L 158.797528 255.88237 
L 158.797528 255.365748 
L 158.926851 255.365748 
L 158.926851 254.332504 
L 159.055245 254.332504 
L 159.055245 253.815882 
L 160.050479 253.815882 
L 160.050479 252.266016 
L 160.645477 252.266016 
L 160.645477 251.749394 
L 160.993191 251.749394 
L 160.993191 250.71615 
L 161.483794 250.71615 
L 161.483794 250.199528 
L 161.668957 250.199528 
L 161.668957 248.649662 
L 163.522053 248.649662 
L 163.522053 247.616418 
L 165.049085 247.616418 
L 165.049085 247.099796 
L 167.654747 247.099796 
L 167.654747 245.549929 
L 169.765164 245.549929 
L 169.765164 244.516685 
L 210.049342 244.516685 
L 210.049342 243.483441 
L 210.259414 243.483441 
L 210.259414 242.966819 
L 210.392479 242.966819 
L 210.493429 239.350465 
L 210.60096 239.350465 
L 210.60096 238.833843 
L 210.750426 238.833843 
L 210.839979 237.283977 
L 210.870512 237.283977 
L 210.964136 235.217489 
L 211.001449 235.217489 
L 211.066559 233.151001 
L 211.161473 233.151001 
L 211.271956 231.601135 
L 211.381759 231.601135 
L 211.481822 229.534647 
L 211.673554 229.534647 
L 211.673554 229.018025 
L 222.328607 229.018025 
L 222.328607 228.501403 
L 222.548468 228.501403 
L 222.613051 225.918293 
L 222.672553 225.918293 
L 222.771686 223.335183 
L 222.800597 223.335183 
L 222.851078 221.268695 
L 222.914579 221.268695 
L 222.971894 219.718829 
L 223.081238 219.718829 
L 223.181671 217.652341 
L 229.708935 217.652341 
L 229.782375 216.619097 
L 229.870108 216.619097 
L 229.910579 215.069231 
L 229.982392 215.069231 
L 229.982392 214.035987 
L 230.097976 214.035987 
L 230.097976 213.519365 
L 234.902546 213.519365 
L 235.004366 211.452876 
L 235.033524 211.452876 
L 235.111653 210.419632 
L 238.850158 210.419632 
L 238.943548 208.353144 
L 242.060612 208.353144 
L 242.130111 206.803278 
L 242.202185 206.803278 
L 242.202185 205.770034 
L 244.834528 205.770034 
L 244.834528 205.253412 
L 247.210572 205.253412 
L 247.264836 204.220168 
L 249.29513 204.220168 
L 249.29513 203.703546 
L 251.129433 203.703546 
L 251.161705 202.15368 
L 258.3392 202.15368 
L 258.366356 201.120436 
L 259.483536 201.120436 
L 259.483536 200.603814 
L 260.583543 200.603814 
L 260.583543 200.087192 
L 261.6244 200.087192 
L 261.6244 199.57057 
L 263.480607 199.57057 
L 263.480607 199.053948 
L 265.967672 199.053948 
L 265.98153 197.504082 
L 269.470342 197.504082 
L 269.470342 196.98746 
L 270.09918 196.98746 
L 270.09918 195.954216 
L 276.266894 195.954216 
L 276.266894 195.437594 
L 285.027429 195.437594 
L 285.027429 194.920972 
L 358.8 194.920972 
L 358.8 194.920972 
" style="fill:none;stroke:#ff00ff;stroke-linecap:square;stroke-width:1.5;"/>
   </g>
   <g id="line2d_30">
    <defs>
     <path d="M -0 8.485281 
L 5.091169 0 
L 0 -8.485281 
L -5.091169 -0 
z
" id="m88ba08215f" style="stroke:#ff00ff;stroke-linejoin:miter;stroke-width:1.5;"/>
    </defs>
    <g>
     <use style="fill:none;stroke:#ff00ff;stroke-linejoin:miter;stroke-width:1.5;" x="160.645477" xlink:href="#m88ba08215f" y="251.749394"/>
     <use style="fill:none;stroke:#ff00ff;stroke-linejoin:miter;stroke-width:1.5;" x="211.481822" xlink:href="#m88ba08215f" y="229.534647"/>
     <use style="fill:none;stroke:#ff00ff;stroke-linejoin:miter;stroke-width:1.5;" x="270.09918" xlink:href="#m88ba08215f" y="196.98746"/>
     <use style="fill:none;stroke:#ff00ff;stroke-linejoin:miter;stroke-width:1.5;" x="285.027429" xlink:href="#m88ba08215f" y="194.920972"/>
     <use style="fill:none;stroke:#ff00ff;stroke-linejoin:miter;stroke-width:1.5;" x="358.8" xlink:href="#m88ba08215f" y="194.920972"/>
    </g>
   </g>
   <g id="line2d_31"/>
   <g id="line2d_32">
    <path clip-path="url(#p272c065e3d)" d="M 209.87403 244.516685 
" style="fill:none;stroke:#ff00ff;stroke-linecap:square;stroke-width:1.5;"/>
    <defs>
     <path d="M -12 12 
L 12 -12 
M -12 -12 
L 12 12 
" id="m3f778b2252" style="stroke:#ff00ff;stroke-width:3;"/>
    </defs>
    <g clip-path="url(#p272c065e3d)">
     <use style="fill:#ff00ff;stroke:#ff00ff;stroke-width:3;" x="209.87403" xlink:href="#m3f778b2252" y="244.516685"/>
    </g>
   </g>
   <g id="line2d_33">
    <defs>
     <path d="M 0 1.5 
C 0.397805 1.5 0.77937 1.341951 1.06066 1.06066 
C 1.341951 0.77937 1.5 0.397805 1.5 0 
C 1.5 -0.397805 1.341951 -0.77937 1.06066 -1.06066 
C 0.77937 -1.341951 0.397805 -1.5 0 -1.5 
C -0.397805 -1.5 -0.77937 -1.341951 -1.06066 -1.06066 
C -1.341951 -0.77937 -1.5 -0.397805 -1.5 0 
C -1.5 0.397805 -1.341951 0.77937 -1.06066 1.06066 
C -0.77937 1.341951 -0.397805 1.5 0 1.5 
z
" id="m80ae309162" style="stroke:#ffa500;"/>
    </defs>
    <g>
     <use style="fill:#ffa500;stroke:#ffa500;" x="279.302891" xlink:href="#m80ae309162" y="215.585853"/>
     <use style="fill:#ffa500;stroke:#ffa500;" x="279.302891" xlink:href="#m80ae309162" y="215.585853"/>
    </g>
   </g>
   <g id="line2d_34">
    <path d="M 113.096039 298.245375 
L 113.096039 297.212131 
L 146.01861 297.212131 
L 146.01861 294.629021 
L 149.53977 294.629021 
L 149.53977 294.112399 
L 151.136819 294.112399 
L 151.136819 293.595777 
L 153.145176 293.595777 
L 153.145176 293.079155 
L 159.393187 293.079155 
L 159.393187 292.562533 
L 160.954889 292.562533 
L 160.954889 292.045911 
L 162.033625 292.045911 
L 162.033625 291.529289 
L 163.050927 291.529289 
L 163.050927 290.496045 
L 164.397005 290.496045 
L 164.397005 289.979423 
L 165.170637 289.979423 
L 165.170637 289.462801 
L 167.010781 289.462801 
L 167.010781 288.946179 
L 168.403124 288.946179 
L 168.403124 287.912935 
L 172.814838 287.912935 
L 172.814838 286.879691 
L 173.62541 286.879691 
L 173.62541 286.363069 
L 175.538168 286.363069 
L 175.538168 285.329825 
L 176.430933 285.329825 
L 176.430933 284.813203 
L 176.703001 284.813203 
L 176.703001 284.296581 
L 177.296577 284.296581 
L 177.296577 283.263337 
L 177.736663 283.263337 
L 177.736663 282.230093 
L 178.063437 282.230093 
L 178.063437 281.713471 
L 179.504968 281.713471 
L 179.504968 281.196849 
L 180.013608 281.196849 
L 180.013608 280.680226 
L 181.113925 280.680226 
L 181.113925 280.163604 
L 181.735806 280.163604 
L 181.735806 279.13036 
L 182.021131 279.13036 
L 182.021131 278.613738 
L 182.567031 278.613738 
L 182.567031 278.097116 
L 183.295528 278.097116 
L 183.295528 276.54725 
L 184.058733 276.54725 
L 184.058733 276.030628 
L 184.658877 276.030628 
L 184.658877 275.514006 
L 185.513213 275.514006 
L 185.513213 274.997384 
L 186.300733 274.997384 
L 186.300733 273.447518 
L 186.704549 273.447518 
L 186.704549 272.930896 
L 187.846952 272.930896 
L 187.872471 271.897652 
L 189.143738 271.897652 
L 189.143738 270.864408 
L 190.492772 270.864408 
L 190.492772 270.347786 
L 190.733399 270.347786 
L 190.834512 268.79792 
L 192.159711 268.79792 
L 192.20646 267.764676 
L 194.006828 267.764676 
L 194.006828 267.248054 
L 194.288033 267.248054 
L 194.288033 266.731432 
L 194.762513 266.731432 
L 194.802932 264.664944 
L 195.106031 264.664944 
L 195.207812 263.6317 
L 195.398497 263.6317 
L 195.398497 263.115078 
L 195.669776 263.115078 
L 195.691741 261.565212 
L 195.812065 261.565212 
L 195.812065 261.04859 
L 196.53319 261.04859 
L 196.53319 260.531968 
L 198.320246 260.531968 
L 198.320246 260.015346 
L 201.469498 260.015346 
L 201.469498 259.498724 
L 202.608028 259.498724 
L 202.608028 258.982102 
L 203.438068 258.982102 
L 203.438068 257.948858 
L 212.431303 257.948858 
L 212.431303 257.432236 
L 213.513918 257.432236 
L 213.513918 256.915614 
L 213.657049 256.915614 
L 213.657049 256.398992 
L 213.902327 256.398992 
L 213.902327 255.88237 
L 215.076911 255.88237 
L 215.076911 255.365748 
L 216.988596 255.365748 
L 216.988596 254.849126 
L 218.546658 254.849126 
L 218.546658 254.332504 
L 220.815399 254.332504 
L 220.815399 253.815882 
L 224.314958 253.815882 
L 224.314958 253.29926 
L 224.432893 253.29926 
L 224.432893 252.782638 
L 225.79461 252.782638 
L 225.79461 252.266016 
L 226.168334 252.266016 
L 226.168334 251.749394 
L 227.394327 251.749394 
L 227.394327 251.232772 
L 227.523239 251.232772 
L 227.523239 250.71615 
L 228.095234 250.71615 
L 228.095234 249.682906 
L 229.725281 249.682906 
L 229.725281 249.166284 
L 230.355339 249.166284 
L 230.355339 248.649662 
L 230.801607 248.649662 
L 230.900557 247.616418 
L 232.202804 247.616418 
L 232.290772 246.066551 
L 233.293204 246.066551 
L 233.293204 245.549929 
L 233.598354 245.549929 
L 233.598354 245.033307 
L 233.937146 245.033307 
L 233.937146 244.516685 
L 236.705721 244.516685 
L 236.705721 244.000063 
L 237.469635 244.000063 
L 237.469635 242.450197 
L 237.755968 242.450197 
L 237.755968 241.416953 
L 238.068029 241.416953 
L 238.068029 240.900331 
L 240.130714 240.900331 
L 240.130714 240.383709 
L 240.926372 240.383709 
L 240.965174 239.350465 
L 243.884165 239.350465 
L 243.884165 238.833843 
L 244.022698 238.833843 
L 244.022698 238.317221 
L 244.243012 238.317221 
L 244.243012 237.283977 
L 246.514315 237.283977 
L 246.514315 236.767355 
L 248.523487 236.767355 
L 248.546296 235.734111 
L 250.409675 235.734111 
L 250.46811 234.700867 
L 250.584409 234.700867 
L 250.584409 233.667623 
L 252.099755 233.667623 
L 252.099755 233.151001 
L 252.465909 233.151001 
L 252.465909 232.634379 
L 253.135283 232.634379 
L 253.135283 232.117757 
L 253.818494 232.117757 
L 253.914962 230.567891 
L 253.932676 230.567891 
L 253.932676 229.534647 
L 256.653242 229.534647 
L 256.653242 229.018025 
L 257.88278 229.018025 
L 257.88278 228.501403 
L 259.059887 228.501403 
L 259.059887 227.468159 
L 260.189333 227.468159 
L 260.189333 226.951537 
L 261.227947 226.951537 
L 261.292286 225.918293 
L 262.198878 225.918293 
L 262.198878 225.401671 
L 263.118624 225.401671 
L 263.139914 224.368427 
L 264.004015 224.368427 
L 264.069272 223.335183 
L 264.857778 223.335183 
L 264.919426 222.301939 
L 267.179819 222.301939 
L 267.179819 221.785317 
L 268.570568 221.785317 
L 268.570568 221.268695 
L 269.893311 221.268695 
L 269.945345 220.235451 
L 270.511021 220.235451 
L 270.511021 219.718829 
L 271.101317 219.718829 
L 271.101317 219.202207 
L 271.630511 219.202207 
L 271.630511 218.685585 
L 272.801669 218.685585 
L 272.801669 218.168963 
L 273.25204 218.168963 
L 273.25204 217.652341 
L 274.319195 217.652341 
L 274.319195 217.135719 
L 275.225076 217.135719 
L 275.225076 216.619097 
L 275.717867 216.619097 
L 275.717867 216.102475 
L 279.302891 216.102475 
L 279.302891 215.585853 
L 358.8 215.585853 
L 358.8 215.585853 
" style="fill:none;stroke:#ffa500;stroke-linecap:square;stroke-width:1.5;"/>
   </g>
   <g id="line2d_35">
    <defs>
     <path d="M 0 -6 
L -1.347084 -1.854102 
L -5.706339 -1.854102 
L -2.179628 0.708204 
L -3.526712 4.854102 
L -0 2.291796 
L 3.526712 4.854102 
L 2.179628 0.708204 
L 5.706339 -1.854102 
L 1.347084 -1.854102 
z
" id="mfda0dc34f4" style="stroke:#ffa500;stroke-linejoin:bevel;stroke-width:1.5;"/>
    </defs>
    <g>
     <use style="fill:none;stroke:#ffa500;stroke-linejoin:bevel;stroke-width:1.5;" x="189.143738" xlink:href="#mfda0dc34f4" y="271.897652"/>
     <use style="fill:none;stroke:#ffa500;stroke-linejoin:bevel;stroke-width:1.5;" x="252.465909" xlink:href="#mfda0dc34f4" y="233.151001"/>
     <use style="fill:none;stroke:#ffa500;stroke-linejoin:bevel;stroke-width:1.5;" x="279.302891" xlink:href="#mfda0dc34f4" y="215.585853"/>
     <use style="fill:none;stroke:#ffa500;stroke-linejoin:bevel;stroke-width:1.5;" x="279.302891" xlink:href="#mfda0dc34f4" y="215.585853"/>
     <use style="fill:none;stroke:#ffa500;stroke-linejoin:bevel;stroke-width:1.5;" x="358.8" xlink:href="#mfda0dc34f4" y="215.585853"/>
    </g>
   </g>
   <g id="line2d_36"/>
   <g id="line2d_37">
    <path clip-path="url(#p272c065e3d)" d="M 209.87403 257.948858 
" style="fill:none;stroke:#ffa500;stroke-linecap:square;stroke-width:1.5;"/>
    <defs>
     <path d="M -12 12 
L 12 -12 
M -12 -12 
L 12 12 
" id="ma137b9ef02" style="stroke:#ffa500;stroke-width:3;"/>
    </defs>
    <g clip-path="url(#p272c065e3d)">
     <use style="fill:#ffa500;stroke:#ffa500;stroke-width:3;" x="209.87403" xlink:href="#ma137b9ef02" y="257.948858"/>
    </g>
   </g>
   <g id="line2d_38">
    <defs>
     <path d="M 0 1.5 
C 0.397805 1.5 0.77937 1.341951 1.06066 1.06066 
C 1.341951 0.77937 1.5 0.397805 1.5 0 
C 1.5 -0.397805 1.341951 -0.77937 1.06066 -1.06066 
C 0.77937 -1.341951 0.397805 -1.5 0 -1.5 
C -0.397805 -1.5 -0.77937 -1.341951 -1.06066 -1.06066 
C -1.341951 -0.77937 -1.5 -0.397805 -1.5 0 
C -1.5 0.397805 -1.341951 0.77937 -1.06066 1.06066 
C -0.77937 1.341951 -0.397805 1.5 0 1.5 
z
" id="m5af0835e04" style="stroke:#6495ed;"/>
    </defs>
    <g>
     <use style="fill:#6495ed;stroke:#6495ed;" x="279.788202" xlink:href="#m5af0835e04" y="225.918293"/>
     <use style="fill:#6495ed;stroke:#6495ed;" x="279.788202" xlink:href="#m5af0835e04" y="225.918293"/>
    </g>
   </g>
   <g id="line2d_39">
    <path d="M 105.569748 298.245375 
L 105.569748 295.662265 
L 116.166679 295.662265 
L 116.166679 295.145643 
L 117.954982 295.145643 
L 117.954982 294.112399 
L 119.580476 294.112399 
L 119.580476 292.045911 
L 125.758304 292.045911 
L 125.758304 291.012667 
L 126.564521 291.012667 
L 126.564521 290.496045 
L 129.468428 290.496045 
L 129.468428 289.462801 
L 130.340216 289.462801 
L 130.340216 288.946179 
L 130.551676 288.946179 
L 130.551676 288.429557 
L 132.539068 288.429557 
L 132.539068 287.912935 
L 135.796811 287.912935 
L 135.796811 287.396313 
L 136.107569 287.396313 
L 136.107569 286.363069 
L 138.416339 286.363069 
L 138.416339 285.329825 
L 138.551193 285.329825 
L 138.551193 283.779959 
L 138.685037 283.779959 
L 138.685037 281.196849 
L 138.817886 281.196849 
L 138.817886 279.13036 
L 140.339496 279.13036 
L 140.339496 278.613738 
L 142.403494 278.613738 
L 142.403494 277.580494 
L 143.145896 277.580494 
L 143.145896 277.063872 
L 143.454862 277.063872 
L 143.454862 274.480762 
L 144.639923 274.480762 
L 144.639923 273.447518 
L 151.595842 273.447518 
L 151.595842 269.314542 
L 155.7377 269.314542 
L 155.7377 268.79792 
L 157.215245 268.79792 
L 157.215245 267.764676 
L 157.450047 267.764676 
L 157.450047 266.731432 
L 163.883702 266.731432 
L 163.883702 265.698188 
L 166.983439 265.698188 
L 166.983439 265.181566 
L 169.600479 265.181566 
L 169.600479 264.664944 
L 210.034593 264.664944 
L 210.034593 264.148322 
L 210.332117 264.148322 
L 210.332117 263.115078 
L 210.546081 263.115078 
L 210.631905 259.498724 
L 210.788187 259.498724 
L 210.788187 258.982102 
L 215.106558 258.982102 
L 215.106558 258.46548 
L 219.727022 258.46548 
L 219.727022 257.432236 
L 222.598449 257.432236 
L 222.656786 256.398992 
L 222.722188 256.398992 
L 222.722188 255.88237 
L 222.92773 255.88237 
L 222.97547 254.849126 
L 227.856479 254.849126 
L 227.856479 254.332504 
L 229.658166 254.332504 
L 229.730999 252.782638 
L 229.81817 252.782638 
L 229.81817 251.749394 
L 231.423689 251.749394 
L 231.423689 251.232772 
L 233.423198 251.232772 
L 233.423198 250.71615 
L 234.814895 250.71615 
L 234.814895 248.649662 
L 237.661382 248.649662 
L 237.661382 248.13304 
L 238.921589 248.13304 
L 238.952812 247.099796 
L 242.003174 247.099796 
L 242.003174 246.583173 
L 243.956145 246.583173 
L 243.956145 246.066551 
L 244.741346 246.066551 
L 244.837333 244.000063 
L 245.4918 244.000063 
L 245.4918 243.483441 
L 247.199208 243.483441 
L 247.211493 242.450197 
L 249.210226 242.450197 
L 249.210226 241.416953 
L 251.085241 241.416953 
L 251.085241 240.900331 
L 252.782051 240.900331 
L 252.782051 240.383709 
L 254.331609 240.383709 
L 254.331609 239.867087 
L 255.757445 239.867087 
L 255.757445 239.350465 
L 257.077863 239.350465 
L 257.133101 237.283977 
L 259.506078 237.283977 
L 259.506078 236.767355 
L 260.538454 236.767355 
L 260.538454 235.734111 
L 261.595048 235.734111 
L 261.600538 234.700867 
L 262.557161 234.700867 
L 262.557161 234.184245 
L 263.470104 234.184245 
L 263.470104 233.667623 
L 265.929155 233.667623 
L 265.929155 232.634379 
L 266.688376 232.634379 
L 266.688376 231.601135 
L 268.814807 231.601135 
L 268.818473 230.567891 
L 269.438688 230.567891 
L 269.438688 230.051269 
L 274.888854 230.051269 
L 274.90926 229.018025 
L 275.804468 229.018025 
L 275.804468 228.501403 
L 276.264177 228.501403 
L 276.264177 227.984781 
L 277.095509 227.984781 
L 277.111241 226.951537 
L 277.924364 226.951537 
L 277.924364 226.434915 
L 279.788202 226.434915 
L 279.788202 225.918293 
L 358.8 225.918293 
L 358.8 225.918293 
" style="fill:none;stroke:#6495ed;stroke-linecap:square;stroke-width:1.5;"/>
   </g>
   <g id="line2d_40">
    <defs>
     <path d="M -0 6 
L 6 -6 
L -6 -6 
z
" id="m80fafd1500" style="stroke:#6495ed;stroke-linejoin:miter;stroke-width:1.5;"/>
    </defs>
    <g>
     <use style="fill:none;stroke:#6495ed;stroke-linejoin:miter;stroke-width:1.5;" x="130.551676" xlink:href="#m80fafd1500" y="288.429557"/>
     <use style="fill:none;stroke:#6495ed;stroke-linejoin:miter;stroke-width:1.5;" x="210.546081" xlink:href="#m80fafd1500" y="260.531968"/>
     <use style="fill:none;stroke:#6495ed;stroke-linejoin:miter;stroke-width:1.5;" x="268.814807" xlink:href="#m80fafd1500" y="231.601135"/>
     <use style="fill:none;stroke:#6495ed;stroke-linejoin:miter;stroke-width:1.5;" x="279.788202" xlink:href="#m80fafd1500" y="225.918293"/>
     <use style="fill:none;stroke:#6495ed;stroke-linejoin:miter;stroke-width:1.5;" x="358.8" xlink:href="#m80fafd1500" y="225.918293"/>
    </g>
   </g>
   <g id="line2d_41"/>
   <g id="line2d_42">
    <path clip-path="url(#p272c065e3d)" d="M 209.87403 264.664944 
" style="fill:none;stroke:#6495ed;stroke-linecap:square;stroke-width:1.5;"/>
    <defs>
     <path d="M -12 12 
L 12 -12 
M -12 -12 
L 12 12 
" id="m8ac15dd7b3" style="stroke:#6495ed;stroke-width:3;"/>
    </defs>
    <g clip-path="url(#p272c065e3d)">
     <use style="fill:#6495ed;stroke:#6495ed;stroke-width:3;" x="209.87403" xlink:href="#m8ac15dd7b3" y="264.664944"/>
    </g>
   </g>
   <g id="line2d_43">
    <defs>
     <path d="M 0 1.5 
C 0.397805 1.5 0.77937 1.341951 1.06066 1.06066 
C 1.341951 0.77937 1.5 0.397805 1.5 0 
C 1.5 -0.397805 1.341951 -0.77937 1.06066 -1.06066 
C 0.77937 -1.341951 0.397805 -1.5 0 -1.5 
C -0.397805 -1.5 -0.77937 -1.341951 -1.06066 -1.06066 
C -1.341951 -0.77937 -1.5 -0.397805 -1.5 0 
C -1.5 0.397805 -1.341951 0.77937 -1.06066 1.06066 
C -0.77937 1.341951 -0.397805 1.5 0 1.5 
z
" id="m3e6d2bcc3f" style="stroke:#ff0000;"/>
    </defs>
    <g>
     <use style="fill:#ff0000;stroke:#ff0000;" x="276.930783" xlink:href="#m3e6d2bcc3f" y="122.59389"/>
     <use style="fill:#ff0000;stroke:#ff0000;" x="276.930783" xlink:href="#m3e6d2bcc3f" y="122.59389"/>
    </g>
   </g>
   <g id="line2d_44">
    <path d="M 51.169868 298.245375 
L 51.169868 269.314542 
L 63.555102 269.314542 
L 63.555102 268.79792 
L 70.8 268.79792 
L 70.8 268.281298 
L 79.927491 268.281298 
L 79.927491 267.764676 
L 88.325571 267.764676 
L 88.325571 267.248054 
L 92.312726 267.248054 
L 92.312726 264.664944 
L 94.015739 264.664944 
L 94.015739 264.148322 
L 98.32485 264.148322 
L 98.32485 263.115078 
L 102.815366 263.115078 
L 102.815366 262.598456 
L 103.781445 262.598456 
L 103.781445 262.081834 
L 105.569748 262.081834 
L 105.569748 261.565212 
L 107.195242 261.565212 
L 107.195242 260.015346 
L 107.955702 260.015346 
L 107.955702 259.498724 
L 110.710085 259.498724 
L 110.710085 258.982102 
L 111.3371 258.982102 
L 111.3371 258.46548 
L 111.942857 258.46548 
L 111.942857 257.948858 
L 112.528749 257.948858 
L 112.528749 257.432236 
L 113.64587 257.432236 
L 113.64587 255.88237 
L 114.179287 255.88237 
L 114.179287 254.332504 
L 114.697239 254.332504 
L 114.697239 253.815882 
L 115.2006 253.815882 
L 115.2006 251.749394 
L 115.690168 251.749394 
L 115.690168 251.232772 
L 116.166679 251.232772 
L 116.166679 250.71615 
L 117.524404 250.71615 
L 117.524404 249.682906 
L 117.954982 249.682906 
L 117.954982 246.583173 
L 118.375428 246.583173 
L 118.375428 245.549929 
L 118.786207 245.549929 
L 118.786207 244.516685 
L 119.187755 244.516685 
L 119.187755 244.000063 
L 120.709364 244.000063 
L 120.709364 243.483441 
L 121.070349 243.483441 
L 121.070349 240.383709 
L 121.424184 240.383709 
L 121.424184 239.867087 
L 121.771149 239.867087 
L 121.771149 238.833843 
L 123.722334 238.833843 
L 123.722334 237.800599 
L 124.328091 237.800599 
L 124.328091 237.283977 
L 125.481273 237.283977 
L 125.481273 236.767355 
L 125.758304 236.767355 
L 125.758304 235.217489 
L 126.031105 235.217489 
L 126.031105 234.700867 
L 126.825374 234.700867 
L 126.825374 233.667623 
L 127.082473 233.667623 
L 127.082473 231.601135 
L 127.335926 231.601135 
L 127.335926 231.084513 
L 127.585834 231.084513 
L 127.585834 230.567891 
L 127.832295 230.567891 
L 127.832295 230.051269 
L 128.075402 230.051269 
L 128.075402 229.534647 
L 130.760662 229.534647 
L 130.760662 227.984781 
L 131.572989 227.984781 
L 131.572989 226.951537 
L 132.539068 226.951537 
L 132.539068 226.434915 
L 132.911334 226.434915 
L 132.911334 225.401671 
L 133.094598 225.401671 
L 133.094598 222.818561 
L 133.809418 222.818561 
L 133.809418 222.301939 
L 134.995416 222.301939 
L 134.995416 221.268695 
L 136.563801 221.268695 
L 136.563801 220.235451 
L 136.713325 220.235451 
L 136.713325 219.718829 
L 137.008673 219.718829 
L 137.008673 219.202207 
L 138.685037 219.202207 
L 138.685037 217.652341 
L 138.817886 217.652341 
L 138.817886 215.585853 
L 139.72116 215.585853 
L 139.72116 215.069231 
L 140.094723 215.069231 
L 140.094723 213.002743 
L 140.339496 213.002743 
L 140.339496 210.936254 
L 140.460636 210.936254 
L 140.460636 210.419632 
L 140.819206 210.419632 
L 140.819206 209.90301 
L 141.170721 209.90301 
L 141.170721 208.869766 
L 141.628903 208.869766 
L 141.628903 207.3199 
L 141.741636 207.3199 
L 141.741636 206.286656 
L 141.853662 206.286656 
L 141.853662 205.770034 
L 142.185587 205.770034 
L 142.185587 203.703546 
L 142.403494 203.703546 
L 142.403494 202.15368 
L 142.618775 202.15368 
L 142.618775 201.637058 
L 142.93691 201.637058 
L 142.93691 201.120436 
L 143.145896 201.120436 
L 143.145896 200.603814 
L 143.758577 200.603814 
L 143.758577 200.087192 
L 145.018098 200.087192 
L 145.018098 199.57057 
L 145.204226 199.57057 
L 145.204226 199.053948 
L 145.661236 199.053948 
L 145.661236 198.537326 
L 146.194652 198.537326 
L 146.194652 198.020704 
L 147.049749 198.020704 
L 147.049749 197.504082 
L 147.298497 197.504082 
L 147.298497 194.40435 
L 147.705534 194.40435 
L 147.78584 193.371106 
L 148.492803 193.371106 
L 148.492803 192.337862 
L 148.646178 192.337862 
L 148.722375 189.23813 
L 148.949035 189.23813 
L 148.949035 188.204886 
L 149.53977 188.204886 
L 149.612257 187.171642 
L 151.070271 187.171642 
L 151.070271 185.621776 
L 151.465892 185.621776 
L 151.530985 181.4888 
L 152.043367 181.4888 
L 152.043367 180.455556 
L 152.906134 180.455556 
L 152.906134 179.938934 
L 153.20444 179.938934 
L 153.20444 179.422312 
L 153.555955 179.422312 
L 153.613874 178.389067 
L 154.070592 178.389067 
L 154.070592 177.872445 
L 154.294647 177.872445 
L 154.405629 173.739469 
L 154.680107 173.739469 
L 154.680107 172.706225 
L 155.941909 172.706225 
L 155.941909 172.189603 
L 156.687558 172.189603 
L 156.687558 171.672981 
L 156.833025 171.672981 
L 156.833025 171.156359 
L 157.025157 171.156359 
L 157.025157 170.639737 
L 157.496639 170.639737 
L 157.496639 168.573249 
L 158.623627 168.573249 
L 158.667261 167.023383 
L 158.797528 167.023383 
L 158.797528 165.473517 
L 159.097839 165.473517 
L 159.140332 163.923651 
L 159.393187 163.923651 
L 159.393187 162.890407 
L 159.806819 162.890407 
L 159.806819 162.373785 
L 160.251021 162.373785 
L 160.251021 160.823919 
L 160.723333 160.823919 
L 160.723333 159.790675 
L 161.259034 159.790675 
L 161.259034 159.274053 
L 162.284536 159.274053 
L 162.284536 158.757431 
L 164.110088 158.757431 
L 164.110088 158.240809 
L 164.865192 158.240809 
L 164.865192 157.724187 
L 172.715846 157.724187 
L 172.715846 157.207565 
L 172.972095 157.207565 
L 172.972095 156.174321 
L 173.282515 156.174321 
L 173.282515 155.657699 
L 175.588954 155.657699 
L 175.588954 154.624455 
L 176.687111 154.624455 
L 176.687111 154.107833 
L 179.450575 154.107833 
L 179.450575 153.591211 
L 180.223515 153.591211 
L 180.223515 153.074589 
L 181.890922 153.074589 
L 181.890922 151.524723 
L 182.138685 151.524723 
L 182.138685 151.008101 
L 186.758915 151.008101 
L 186.758915 150.491479 
L 188.284217 150.491479 
L 188.284217 149.974857 
L 194.547337 149.974857 
L 194.547337 149.458235 
L 195.398497 149.458235 
L 195.398497 148.941613 
L 198.875245 148.941613 
L 198.875245 148.424991 
L 199.207367 148.424991 
L 199.207367 146.875125 
L 201.465526 146.875125 
L 201.465526 146.358503 
L 202.01319 146.358503 
L 202.01319 145.841881 
L 202.954921 145.841881 
L 202.954921 145.325259 
L 204.012137 145.325259 
L 204.012137 143.775392 
L 206.389046 143.775392 
L 206.389046 143.25877 
L 206.917938 143.25877 
L 206.917938 142.225526 
L 207.115925 142.225526 
L 207.115925 141.708904 
L 208.360083 141.708904 
L 208.360083 141.192282 
L 209.085174 141.192282 
L 209.085174 139.642416 
L 209.661861 139.642416 
L 209.661861 138.609172 
L 211.0828 138.609172 
L 211.0828 138.09255 
L 211.209893 138.09255 
L 211.209893 137.575928 
L 211.347518 137.575928 
L 211.347518 137.059306 
L 212.129862 137.059306 
L 212.129862 136.542684 
L 212.321292 136.542684 
L 212.321292 136.026062 
L 212.986021 136.026062 
L 212.986021 134.992818 
L 214.544225 134.992818 
L 214.544225 134.476196 
L 216.191221 134.476196 
L 216.191221 133.959574 
L 218.750138 133.959574 
L 218.750138 133.442952 
L 222.219518 133.442952 
L 222.219518 132.92633 
L 222.873869 132.92633 
L 222.873869 132.409708 
L 225.695595 132.409708 
L 225.695595 131.893086 
L 229.697483 131.893086 
L 229.697483 131.376464 
L 238.993709 131.376464 
L 238.993709 130.859842 
L 240.794513 130.859842 
L 240.794513 129.309976 
L 241.353748 129.309976 
L 241.353748 128.793354 
L 243.109757 128.793354 
L 243.109757 128.276732 
L 244.435196 128.276732 
L 244.435196 127.76011 
L 245.390437 127.76011 
L 245.390437 127.243488 
L 246.393874 127.243488 
L 246.393874 126.726866 
L 249.717704 126.726866 
L 249.717704 126.210244 
L 250.697429 126.210244 
L 250.697429 125.693622 
L 252.131022 125.693622 
L 252.131022 124.660378 
L 260.119399 124.660378 
L 260.119399 124.143756 
L 265.620186 124.143756 
L 265.620186 123.627134 
L 271.599955 123.627134 
L 271.599955 123.110512 
L 276.930783 123.110512 
L 276.930783 122.59389 
L 358.8 122.59389 
L 358.8 122.59389 
" style="fill:none;stroke:#ff0000;stroke-linecap:square;stroke-width:1.5;"/>
   </g>
   <g id="line2d_45">
    <defs>
     <path d="M 0 -6 
L -5.196152 -3 
L -5.196152 3 
L -0 6 
L 5.196152 3 
L 5.196152 -3 
z
" id="ma1f2ecb5c8" style="stroke:#ff0000;stroke-linejoin:miter;stroke-width:1.5;"/>
    </defs>
    <g>
     <use style="fill:none;stroke:#ff0000;stroke-linejoin:miter;stroke-width:1.5;" x="125.758304" xlink:href="#ma1f2ecb5c8" y="235.217489"/>
     <use style="fill:none;stroke:#ff0000;stroke-linejoin:miter;stroke-width:1.5;" x="160.251021" xlink:href="#ma1f2ecb5c8" y="160.823919"/>
     <use style="fill:none;stroke:#ff0000;stroke-linejoin:miter;stroke-width:1.5;" x="229.697483" xlink:href="#ma1f2ecb5c8" y="131.893086"/>
     <use style="fill:none;stroke:#ff0000;stroke-linejoin:miter;stroke-width:1.5;" x="276.930783" xlink:href="#ma1f2ecb5c8" y="122.59389"/>
     <use style="fill:none;stroke:#ff0000;stroke-linejoin:miter;stroke-width:1.5;" x="276.930783" xlink:href="#ma1f2ecb5c8" y="122.59389"/>
     <use style="fill:none;stroke:#ff0000;stroke-linejoin:miter;stroke-width:1.5;" x="358.8" xlink:href="#ma1f2ecb5c8" y="122.59389"/>
    </g>
   </g>
   <g id="line2d_46"/>
   <g id="line2d_47">
    <path clip-path="url(#p272c065e3d)" d="M 209.87403 138.609172 
" style="fill:none;stroke:#ff0000;stroke-linecap:square;stroke-width:1.5;"/>
    <defs>
     <path d="M -12 12 
L 12 -12 
M -12 -12 
L 12 12 
" id="m34feda3897" style="stroke:#ff0000;stroke-width:3;"/>
    </defs>
    <g clip-path="url(#p272c065e3d)">
     <use style="fill:#ff0000;stroke:#ff0000;stroke-width:3;" x="209.87403" xlink:href="#m34feda3897" y="138.609172"/>
    </g>
   </g>
   <g id="line2d_48">
    <path d="M 358.8 225.918293 
L 390.48 292.97583 
" style="fill:none;stroke:#6495ed;stroke-linecap:square;stroke-width:1.5;"/>
    <g>
     <use style="fill:none;stroke:#6495ed;stroke-linejoin:miter;stroke-width:1.5;" x="358.8" xlink:href="#m80fafd1500" y="225.918293"/>
     <use style="fill:none;stroke:#6495ed;stroke-linejoin:miter;stroke-width:1.5;" x="390.48" xlink:href="#m80fafd1500" y="292.97583"/>
    </g>
   </g>
   <g id="line2d_49">
    <path d="M 358.8 215.585853 
L 390.48 229.741296 
" style="fill:none;stroke:#ffa500;stroke-linecap:square;stroke-width:1.5;"/>
    <g>
     <use style="fill:none;stroke:#ffa500;stroke-linejoin:bevel;stroke-width:1.5;" x="358.8" xlink:href="#mfda0dc34f4" y="215.585853"/>
     <use style="fill:none;stroke:#ffa500;stroke-linejoin:bevel;stroke-width:1.5;" x="390.48" xlink:href="#mfda0dc34f4" y="229.741296"/>
    </g>
   </g>
   <g id="line2d_50">
    <path d="M 358.8 194.920972 
L 390.48 166.506761 
" style="fill:none;stroke:#000080;stroke-linecap:square;stroke-width:1.5;"/>
    <g>
     <use style="fill:none;stroke:#000080;stroke-width:1.5;" x="358.8" xlink:href="#m92545f5c34" y="194.920972"/>
     <use style="fill:none;stroke:#000080;stroke-width:1.5;" x="390.48" xlink:href="#m92545f5c34" y="166.506761"/>
    </g>
   </g>
   <g id="line2d_51">
    <path d="M 358.8 194.920972 
L 390.48 103.272226 
" style="fill:none;stroke:#ff00ff;stroke-linecap:square;stroke-width:1.5;"/>
    <g>
     <use style="fill:none;stroke:#ff00ff;stroke-linejoin:miter;stroke-width:1.5;" x="358.8" xlink:href="#m88ba08215f" y="194.920972"/>
     <use style="fill:none;stroke:#ff00ff;stroke-linejoin:miter;stroke-width:1.5;" x="390.48" xlink:href="#m88ba08215f" y="103.272226"/>
    </g>
   </g>
   <g id="line2d_52">
    <path d="M 358.8 122.59389 
L 390.48 40.037692 
" style="fill:none;stroke:#ff0000;stroke-linecap:square;stroke-width:1.5;"/>
    <g>
     <use style="fill:none;stroke:#ff0000;stroke-linejoin:miter;stroke-width:1.5;" x="358.8" xlink:href="#ma1f2ecb5c8" y="122.59389"/>
     <use style="fill:none;stroke:#ff0000;stroke-linejoin:miter;stroke-width:1.5;" x="390.48" xlink:href="#ma1f2ecb5c8" y="40.037692"/>
    </g>
   </g>
   <g id="line2d_53">
    <path d="M 358.8 298.245375 
L 358.8 34.768147 
" style="fill:none;stroke:#000000;stroke-linecap:square;stroke-width:1.5;"/>
   </g>
   <g id="patch_3">
    <path d="M 70.8 298.245375 
L 70.8 32.133375 
" style="fill:none;stroke:#000000;stroke-linecap:square;stroke-linejoin:miter;stroke-width:0.8;"/>
   </g>
   <g id="patch_4">
    <path d="M 427.92 298.245375 
L 427.92 32.133375 
" style="fill:none;stroke:#000000;stroke-linecap:square;stroke-linejoin:miter;stroke-width:0.8;"/>
   </g>
   <g id="patch_5">
    <path d="M 70.8 298.245375 
L 427.92 298.245375 
" style="fill:none;stroke:#000000;stroke-linecap:square;stroke-linejoin:miter;stroke-width:0.8;"/>
   </g>
   <g id="patch_6">
    <path d="M 70.8 32.133375 
L 427.92 32.133375 
" style="fill:none;stroke:#000000;stroke-linecap:square;stroke-linejoin:miter;stroke-width:0.8;"/>
   </g>
   <g id="text_14">
    <!-- f11 -->
    <g transform="translate(396.24 297.114893)scale(0.15 -0.15)">
     <use xlink:href="#DejaVuSans-66"/>
     <use x="35.205078" xlink:href="#DejaVuSans-31"/>
     <use x="98.828125" xlink:href="#DejaVuSans-31"/>
    </g>
   </g>
   <g id="text_15">
    <!-- f10 -->
    <g transform="translate(396.24 233.880358)scale(0.15 -0.15)">
     <use xlink:href="#DejaVuSans-66"/>
     <use x="35.205078" xlink:href="#DejaVuSans-31"/>
     <use x="98.828125" xlink:href="#DejaVuSans-30"/>
    </g>
   </g>
   <g id="text_16">
    <!-- f12 -->
    <g transform="translate(396.24 170.645824)scale(0.15 -0.15)">
     <use xlink:href="#DejaVuSans-66"/>
     <use x="35.205078" xlink:href="#DejaVuSans-31"/>
     <use x="98.828125" xlink:href="#DejaVuSans-32"/>
    </g>
   </g>
   <g id="text_17">
    <!-- f13 -->
    <defs>
     <path d="M 40.578125 39.3125 
Q 47.65625 37.796875 51.625 33 
Q 55.609375 28.21875 55.609375 21.1875 
Q 55.609375 10.40625 48.1875 4.484375 
Q 40.765625 -1.421875 27.09375 -1.421875 
Q 22.515625 -1.421875 17.65625 -0.515625 
Q 12.796875 0.390625 7.625 2.203125 
L 7.625 11.71875 
Q 11.71875 9.328125 16.59375 8.109375 
Q 21.484375 6.890625 26.8125 6.890625 
Q 36.078125 6.890625 40.9375 10.546875 
Q 45.796875 14.203125 45.796875 21.1875 
Q 45.796875 27.640625 41.28125 31.265625 
Q 36.765625 34.90625 28.71875 34.90625 
L 20.21875 34.90625 
L 20.21875 43.015625 
L 29.109375 43.015625 
Q 36.375 43.015625 40.234375 45.921875 
Q 44.09375 48.828125 44.09375 54.296875 
Q 44.09375 59.90625 40.109375 62.90625 
Q 36.140625 65.921875 28.71875 65.921875 
Q 24.65625 65.921875 20.015625 65.03125 
Q 15.375 64.15625 9.8125 62.3125 
L 9.8125 71.09375 
Q 15.4375 72.65625 20.34375 73.4375 
Q 25.25 74.21875 29.59375 74.21875 
Q 40.828125 74.21875 47.359375 69.109375 
Q 53.90625 64.015625 53.90625 55.328125 
Q 53.90625 49.265625 50.4375 45.09375 
Q 46.96875 40.921875 40.578125 39.3125 
z
" id="DejaVuSans-33"/>
    </defs>
    <g transform="translate(396.24 107.411289)scale(0.15 -0.15)">
     <use xlink:href="#DejaVuSans-66"/>
     <use x="35.205078" xlink:href="#DejaVuSans-31"/>
     <use x="98.828125" xlink:href="#DejaVuSans-33"/>
    </g>
   </g>
   <g id="text_18">
    <!-- f14 -->
    <g transform="translate(396.24 44.176754)scale(0.15 -0.15)">
     <use xlink:href="#DejaVuSans-66"/>
     <use x="35.205078" xlink:href="#DejaVuSans-31"/>
     <use x="98.828125" xlink:href="#DejaVuSans-34"/>
    </g>
   </g>
   <g id="text_19">
    <!-- bbob -->
    <defs>
     <path d="M 48.6875 27.296875 
Q 48.6875 37.203125 44.609375 42.84375 
Q 40.53125 48.484375 33.40625 48.484375 
Q 26.265625 48.484375 22.1875 42.84375 
Q 18.109375 37.203125 18.109375 27.296875 
Q 18.109375 17.390625 22.1875 11.75 
Q 26.265625 6.109375 33.40625 6.109375 
Q 40.53125 6.109375 44.609375 11.75 
Q 48.6875 17.390625 48.6875 27.296875 
z
M 18.109375 46.390625 
Q 20.953125 51.265625 25.265625 53.625 
Q 29.59375 56 35.59375 56 
Q 45.5625 56 51.78125 48.09375 
Q 58.015625 40.1875 58.015625 27.296875 
Q 58.015625 14.40625 51.78125 6.484375 
Q 45.5625 -1.421875 35.59375 -1.421875 
Q 29.59375 -1.421875 25.265625 0.953125 
Q 20.953125 3.328125 18.109375 8.203125 
L 18.109375 0 
L 9.078125 0 
L 9.078125 75.984375 
L 18.109375 75.984375 
z
" id="DejaVuSans-62"/>
    </defs>
    <g transform="translate(74.3712 50.114612)scale(0.1666 -0.1666)">
     <use xlink:href="#DejaVuSans-62"/>
     <use x="63.476562" xlink:href="#DejaVuSans-62"/>
     <use x="126.953125" xlink:href="#DejaVuSans-6f"/>
     <use x="188.134766" xlink:href="#DejaVuSans-62"/>
    </g>
    <!-- Ill-conditioned functions, 3-D -->
    <defs>
     <path d="M 9.8125 72.90625 
L 19.671875 72.90625 
L 19.671875 0 
L 9.8125 0 
z
" id="DejaVuSans-49"/>
     <path d="M 11.71875 12.40625 
L 22.015625 12.40625 
L 22.015625 4 
L 14.015625 -11.625 
L 7.71875 -11.625 
L 11.71875 4 
z
" id="DejaVuSans-2c"/>
     <path d="M 19.671875 64.796875 
L 19.671875 8.109375 
L 31.59375 8.109375 
Q 46.6875 8.109375 53.6875 14.9375 
Q 60.6875 21.78125 60.6875 36.53125 
Q 60.6875 51.171875 53.6875 57.984375 
Q 46.6875 64.796875 31.59375 64.796875 
z
M 9.8125 72.90625 
L 30.078125 72.90625 
Q 51.265625 72.90625 61.171875 64.09375 
Q 71.09375 55.28125 71.09375 36.53125 
Q 71.09375 17.671875 61.125 8.828125 
Q 51.171875 0 30.078125 0 
L 9.8125 0 
z
" id="DejaVuSans-44"/>
    </defs>
    <g transform="translate(74.3712 68.770168)scale(0.1666 -0.1666)">
     <use xlink:href="#DejaVuSans-49"/>
     <use x="29.492188" xlink:href="#DejaVuSans-6c"/>
     <use x="57.275391" xlink:href="#DejaVuSans-6c"/>
     <use x="85.058594" xlink:href="#DejaVuSans-2d"/>
     <use x="121.142578" xlink:href="#DejaVuSans-63"/>
     <use x="176.123047" xlink:href="#DejaVuSans-6f"/>
     <use x="237.304688" xlink:href="#DejaVuSans-6e"/>
     <use x="300.683594" xlink:href="#DejaVuSans-64"/>
     <use x="364.160156" xlink:href="#DejaVuSans-69"/>
     <use x="391.943359" xlink:href="#DejaVuSans-74"/>
     <use x="431.152344" xlink:href="#DejaVuSans-69"/>
     <use x="458.935547" xlink:href="#DejaVuSans-6f"/>
     <use x="520.117188" xlink:href="#DejaVuSans-6e"/>
     <use x="583.496094" xlink:href="#DejaVuSans-65"/>
     <use x="645.019531" xlink:href="#DejaVuSans-64"/>
     <use x="708.496094" xlink:href="#DejaVuSans-20"/>
     <use x="740.283203" xlink:href="#DejaVuSans-66"/>
     <use x="775.488281" xlink:href="#DejaVuSans-75"/>
     <use x="838.867188" xlink:href="#DejaVuSans-6e"/>
     <use x="902.246094" xlink:href="#DejaVuSans-63"/>
     <use x="957.226562" xlink:href="#DejaVuSans-74"/>
     <use x="996.435547" xlink:href="#DejaVuSans-69"/>
     <use x="1024.21875" xlink:href="#DejaVuSans-6f"/>
     <use x="1085.400391" xlink:href="#DejaVuSans-6e"/>
     <use x="1148.779297" xlink:href="#DejaVuSans-73"/>
     <use x="1200.878906" xlink:href="#DejaVuSans-2c"/>
     <use x="1232.666016" xlink:href="#DejaVuSans-20"/>
     <use x="1264.453125" xlink:href="#DejaVuSans-33"/>
     <use x="1328.076172" xlink:href="#DejaVuSans-2d"/>
     <use x="1364.160156" xlink:href="#DejaVuSans-44"/>
    </g>
    <!-- 51 targets in 100..1e-08 -->
    <defs>
     <path d="M 10.796875 72.90625 
L 49.515625 72.90625 
L 49.515625 64.59375 
L 19.828125 64.59375 
L 19.828125 46.734375 
Q 21.96875 47.46875 24.109375 47.828125 
Q 26.265625 48.1875 28.421875 48.1875 
Q 40.625 48.1875 47.75 41.5 
Q 54.890625 34.8125 54.890625 23.390625 
Q 54.890625 11.625 47.5625 5.09375 
Q 40.234375 -1.421875 26.90625 -1.421875 
Q 22.3125 -1.421875 17.546875 -0.640625 
Q 12.796875 0.140625 7.71875 1.703125 
L 7.71875 11.625 
Q 12.109375 9.234375 16.796875 8.0625 
Q 21.484375 6.890625 26.703125 6.890625 
Q 35.15625 6.890625 40.078125 11.328125 
Q 45.015625 15.765625 45.015625 23.390625 
Q 45.015625 31 40.078125 35.4375 
Q 35.15625 39.890625 26.703125 39.890625 
Q 22.75 39.890625 18.8125 39.015625 
Q 14.890625 38.140625 10.796875 36.28125 
z
" id="DejaVuSans-35"/>
    </defs>
    <g transform="translate(74.3712 87.425723)scale(0.1666 -0.1666)">
     <use xlink:href="#DejaVuSans-35"/>
     <use x="63.623047" xlink:href="#DejaVuSans-31"/>
     <use x="127.246094" xlink:href="#DejaVuSans-20"/>
     <use x="159.033203" xlink:href="#DejaVuSans-74"/>
     <use x="198.242188" xlink:href="#DejaVuSans-61"/>
     <use x="259.521484" xlink:href="#DejaVuSans-72"/>
     <use x="300.619141" xlink:href="#DejaVuSans-67"/>
     <use x="364.095703" xlink:href="#DejaVuSans-65"/>
     <use x="425.619141" xlink:href="#DejaVuSans-74"/>
     <use x="464.828125" xlink:href="#DejaVuSans-73"/>
     <use x="516.927734" xlink:href="#DejaVuSans-20"/>
     <use x="548.714844" xlink:href="#DejaVuSans-69"/>
     <use x="576.498047" xlink:href="#DejaVuSans-6e"/>
     <use x="639.876953" xlink:href="#DejaVuSans-20"/>
     <use x="671.664062" xlink:href="#DejaVuSans-31"/>
     <use x="735.287109" xlink:href="#DejaVuSans-30"/>
     <use x="798.910156" xlink:href="#DejaVuSans-30"/>
     <use x="862.533203" xlink:href="#DejaVuSans-2e"/>
     <use x="894.320312" xlink:href="#DejaVuSans-2e"/>
     <use x="926.107422" xlink:href="#DejaVuSans-31"/>
     <use x="989.730469" xlink:href="#DejaVuSans-65"/>
     <use x="1051.253906" xlink:href="#DejaVuSans-2d"/>
     <use x="1087.337891" xlink:href="#DejaVuSans-30"/>
     <use x="1150.960938" xlink:href="#DejaVuSans-38"/>
    </g>
    <!-- 15 instances -->
    <g transform="translate(74.3712 106.081279)scale(0.1666 -0.1666)">
     <use xlink:href="#DejaVuSans-31"/>
     <use x="63.623047" xlink:href="#DejaVuSans-35"/>
     <use x="127.246094" xlink:href="#DejaVuSans-20"/>
     <use x="159.033203" xlink:href="#DejaVuSans-69"/>
     <use x="186.816406" xlink:href="#DejaVuSans-6e"/>
     <use x="250.195312" xlink:href="#DejaVuSans-73"/>
     <use x="302.294922" xlink:href="#DejaVuSans-74"/>
     <use x="341.503906" xlink:href="#DejaVuSans-61"/>
     <use x="402.783203" xlink:href="#DejaVuSans-6e"/>
     <use x="466.162109" xlink:href="#DejaVuSans-63"/>
     <use x="521.142578" xlink:href="#DejaVuSans-65"/>
     <use x="582.666016" xlink:href="#DejaVuSans-73"/>
    </g>
   </g>
   <g id="text_20">
    <!-- v2.1 -->
    <g style="fill:#808080;" transform="translate(238.449063 293.504568)scale(0.1 -0.1)">
     <use xlink:href="#DejaVuSans-76"/>
     <use x="59.179688" xlink:href="#DejaVuSans-32"/>
     <use x="122.802734" xlink:href="#DejaVuSans-2e"/>
     <use x="154.589844" xlink:href="#DejaVuSans-31"/>
    </g>
   </g>
  </g>
 </g>
 <defs>
  <clipPath id="p272c065e3d">
   <rect height="266.112" width="357.12" x="70.8" y="32.133375"/>
  </clipPath>
 </defs>
</svg>
