<?xml version="1.0" encoding="utf-8" standalone="no"?>
<!DOCTYPE svg PUBLIC "-//W3C//DTD SVG 1.1//EN"
  "http://www.w3.org/Graphics/SVG/1.1/DTD/svg11.dtd">
<!-- Created with matplotlib (http://matplotlib.org/) -->
<svg height="353pt" version="1.1" viewBox="0 0 448 353" width="448pt" xmlns="http://www.w3.org/2000/svg" xmlns:xlink="http://www.w3.org/1999/xlink">
 <defs>
  <style type="text/css">
*{stroke-linecap:butt;stroke-linejoin:round;}
  </style>
 </defs>
 <g id="figure_1">
  <g id="patch_1">
   <path d="M 0 353.22225 
L 448.19395 353.22225 
L 448.19395 0 
L 0 0 
z
" style="fill:#ffffff;"/>
  </g>
  <g id="axes_1">
   <g id="patch_2">
    <path d="M 79.113325 298.245375 
L 436.233325 298.245375 
L 436.233325 32.133375 
L 79.113325 32.133375 
z
" style="fill:#ffffff;"/>
   </g>
   <g id="matplotlib.axis_1">
    <g id="xtick_1">
     <g id="line2d_1">
      <path clip-path="url(#pfedc3ce5c1)" d="M 79.113325 298.245375 
L 79.113325 32.133375 
" style="fill:none;stroke:#b0b0b0;stroke-linecap:square;stroke-width:0.8;"/>
     </g>
     <g id="line2d_2">
      <defs>
       <path d="M 0 0 
L 0 3.5 
" id="mda4d1160f3" style="stroke:#000000;stroke-width:0.8;"/>
      </defs>
      <g>
       <use style="stroke:#000000;stroke-width:0.8;" x="79.113325" xlink:href="#mda4d1160f3" y="298.245375"/>
      </g>
     </g>
     <g id="text_1">
      <!-- 0 -->
      <defs>
       <path d="M 31.78125 66.40625 
Q 24.171875 66.40625 20.328125 58.90625 
Q 16.5 51.421875 16.5 36.375 
Q 16.5 21.390625 20.328125 13.890625 
Q 24.171875 6.390625 31.78125 6.390625 
Q 39.453125 6.390625 43.28125 13.890625 
Q 47.125 21.390625 47.125 36.375 
Q 47.125 51.421875 43.28125 58.90625 
Q 39.453125 66.40625 31.78125 66.40625 
z
M 31.78125 74.21875 
Q 44.046875 74.21875 50.515625 64.515625 
Q 56.984375 54.828125 56.984375 36.375 
Q 56.984375 17.96875 50.515625 8.265625 
Q 44.046875 -1.421875 31.78125 -1.421875 
Q 19.53125 -1.421875 13.0625 8.265625 
Q 6.59375 17.96875 6.59375 36.375 
Q 6.59375 54.828125 13.0625 64.515625 
Q 19.53125 74.21875 31.78125 74.21875 
z
" id="DejaVuSans-30"/>
      </defs>
      <g transform="translate(72.750825 320.44225)scale(0.2 -0.2)">
       <use xlink:href="#DejaVuSans-30"/>
      </g>
     </g>
    </g>
    <g id="xtick_2">
     <g id="line2d_3">
      <path clip-path="url(#pfedc3ce5c1)" d="M 161.39904 298.245375 
L 161.39904 32.133375 
" style="fill:none;stroke:#b0b0b0;stroke-linecap:square;stroke-width:0.8;"/>
     </g>
     <g id="line2d_4">
      <g>
       <use style="stroke:#000000;stroke-width:0.8;" x="161.39904" xlink:href="#mda4d1160f3" y="298.245375"/>
      </g>
     </g>
     <g id="text_2">
      <!-- 2 -->
      <defs>
       <path d="M 19.1875 8.296875 
L 53.609375 8.296875 
L 53.609375 0 
L 7.328125 0 
L 7.328125 8.296875 
Q 12.9375 14.109375 22.625 23.890625 
Q 32.328125 33.6875 34.8125 36.53125 
Q 39.546875 41.84375 41.421875 45.53125 
Q 43.3125 49.21875 43.3125 52.78125 
Q 43.3125 58.59375 39.234375 62.25 
Q 35.15625 65.921875 28.609375 65.921875 
Q 23.96875 65.921875 18.8125 64.3125 
Q 13.671875 62.703125 7.8125 59.421875 
L 7.8125 69.390625 
Q 13.765625 71.78125 18.9375 73 
Q 24.125 74.21875 28.421875 74.21875 
Q 39.75 74.21875 46.484375 68.546875 
Q 53.21875 62.890625 53.21875 53.421875 
Q 53.21875 48.921875 51.53125 44.890625 
Q 49.859375 40.875 45.40625 35.40625 
Q 44.1875 33.984375 37.640625 27.21875 
Q 31.109375 20.453125 19.1875 8.296875 
z
" id="DejaVuSans-32"/>
      </defs>
      <g transform="translate(155.03654 320.44225)scale(0.2 -0.2)">
       <use xlink:href="#DejaVuSans-32"/>
      </g>
     </g>
    </g>
    <g id="xtick_3">
     <g id="line2d_5">
      <path clip-path="url(#pfedc3ce5c1)" d="M 243.684754 298.245375 
L 243.684754 32.133375 
" style="fill:none;stroke:#b0b0b0;stroke-linecap:square;stroke-width:0.8;"/>
     </g>
     <g id="line2d_6">
      <g>
       <use style="stroke:#000000;stroke-width:0.8;" x="243.684754" xlink:href="#mda4d1160f3" y="298.245375"/>
      </g>
     </g>
     <g id="text_3">
      <!-- 4 -->
      <defs>
       <path d="M 37.796875 64.3125 
L 12.890625 25.390625 
L 37.796875 25.390625 
z
M 35.203125 72.90625 
L 47.609375 72.90625 
L 47.609375 25.390625 
L 58.015625 25.390625 
L 58.015625 17.1875 
L 47.609375 17.1875 
L 47.609375 0 
L 37.796875 0 
L 37.796875 17.1875 
L 4.890625 17.1875 
L 4.890625 26.703125 
z
" id="DejaVuSans-34"/>
      </defs>
      <g transform="translate(237.322254 320.44225)scale(0.2 -0.2)">
       <use xlink:href="#DejaVuSans-34"/>
      </g>
     </g>
    </g>
    <g id="xtick_4">
     <g id="line2d_7">
      <path clip-path="url(#pfedc3ce5c1)" d="M 325.970468 298.245375 
L 325.970468 32.133375 
" style="fill:none;stroke:#b0b0b0;stroke-linecap:square;stroke-width:0.8;"/>
     </g>
     <g id="line2d_8">
      <g>
       <use style="stroke:#000000;stroke-width:0.8;" x="325.970468" xlink:href="#mda4d1160f3" y="298.245375"/>
      </g>
     </g>
     <g id="text_4">
      <!-- 6 -->
      <defs>
       <path d="M 33.015625 40.375 
Q 26.375 40.375 22.484375 35.828125 
Q 18.609375 31.296875 18.609375 23.390625 
Q 18.609375 15.53125 22.484375 10.953125 
Q 26.375 6.390625 33.015625 6.390625 
Q 39.65625 6.390625 43.53125 10.953125 
Q 47.40625 15.53125 47.40625 23.390625 
Q 47.40625 31.296875 43.53125 35.828125 
Q 39.65625 40.375 33.015625 40.375 
z
M 52.59375 71.296875 
L 52.59375 62.3125 
Q 48.875 64.0625 45.09375 64.984375 
Q 41.3125 65.921875 37.59375 65.921875 
Q 27.828125 65.921875 22.671875 59.328125 
Q 17.53125 52.734375 16.796875 39.40625 
Q 19.671875 43.65625 24.015625 45.921875 
Q 28.375 48.1875 33.59375 48.1875 
Q 44.578125 48.1875 50.953125 41.515625 
Q 57.328125 34.859375 57.328125 23.390625 
Q 57.328125 12.15625 50.6875 5.359375 
Q 44.046875 -1.421875 33.015625 -1.421875 
Q 20.359375 -1.421875 13.671875 8.265625 
Q 6.984375 17.96875 6.984375 36.375 
Q 6.984375 53.65625 15.1875 63.9375 
Q 23.390625 74.21875 37.203125 74.21875 
Q 40.921875 74.21875 44.703125 73.484375 
Q 48.484375 72.75 52.59375 71.296875 
z
" id="DejaVuSans-36"/>
      </defs>
      <g transform="translate(319.607968 320.44225)scale(0.2 -0.2)">
       <use xlink:href="#DejaVuSans-36"/>
      </g>
     </g>
    </g>
    <g id="xtick_5">
     <g id="line2d_9">
      <path clip-path="url(#pfedc3ce5c1)" d="M 408.256183 298.245375 
L 408.256183 32.133375 
" style="fill:none;stroke:#b0b0b0;stroke-linecap:square;stroke-width:0.8;"/>
     </g>
     <g id="line2d_10">
      <g>
       <use style="stroke:#000000;stroke-width:0.8;" x="408.256183" xlink:href="#mda4d1160f3" y="298.245375"/>
      </g>
     </g>
     <g id="text_5">
      <!-- 8 -->
      <defs>
       <path d="M 31.78125 34.625 
Q 24.75 34.625 20.71875 30.859375 
Q 16.703125 27.09375 16.703125 20.515625 
Q 16.703125 13.921875 20.71875 10.15625 
Q 24.75 6.390625 31.78125 6.390625 
Q 38.8125 6.390625 42.859375 10.171875 
Q 46.921875 13.96875 46.921875 20.515625 
Q 46.921875 27.09375 42.890625 30.859375 
Q 38.875 34.625 31.78125 34.625 
z
M 21.921875 38.8125 
Q 15.578125 40.375 12.03125 44.71875 
Q 8.5 49.078125 8.5 55.328125 
Q 8.5 64.0625 14.71875 69.140625 
Q 20.953125 74.21875 31.78125 74.21875 
Q 42.671875 74.21875 48.875 69.140625 
Q 55.078125 64.0625 55.078125 55.328125 
Q 55.078125 49.078125 51.53125 44.71875 
Q 48 40.375 41.703125 38.8125 
Q 48.828125 37.15625 52.796875 32.3125 
Q 56.78125 27.484375 56.78125 20.515625 
Q 56.78125 9.90625 50.3125 4.234375 
Q 43.84375 -1.421875 31.78125 -1.421875 
Q 19.734375 -1.421875 13.25 4.234375 
Q 6.78125 9.90625 6.78125 20.515625 
Q 6.78125 27.484375 10.78125 32.3125 
Q 14.796875 37.15625 21.921875 38.8125 
z
M 18.3125 54.390625 
Q 18.3125 48.734375 21.84375 45.5625 
Q 25.390625 42.390625 31.78125 42.390625 
Q 38.140625 42.390625 41.71875 45.5625 
Q 45.3125 48.734375 45.3125 54.390625 
Q 45.3125 60.0625 41.71875 63.234375 
Q 38.140625 66.40625 31.78125 66.40625 
Q 25.390625 66.40625 21.84375 63.234375 
Q 18.3125 60.0625 18.3125 54.390625 
z
" id="DejaVuSans-38"/>
      </defs>
      <g transform="translate(401.893683 320.44225)scale(0.2 -0.2)">
       <use xlink:href="#DejaVuSans-38"/>
      </g>
     </g>
    </g>
    <g id="text_6">
     <!-- log10 of (# f-evals / dimension) -->
     <defs>
      <path d="M 9.421875 75.984375 
L 18.40625 75.984375 
L 18.40625 0 
L 9.421875 0 
z
" id="DejaVuSans-6c"/>
      <path d="M 30.609375 48.390625 
Q 23.390625 48.390625 19.1875 42.75 
Q 14.984375 37.109375 14.984375 27.296875 
Q 14.984375 17.484375 19.15625 11.84375 
Q 23.34375 6.203125 30.609375 6.203125 
Q 37.796875 6.203125 41.984375 11.859375 
Q 46.1875 17.53125 46.1875 27.296875 
Q 46.1875 37.015625 41.984375 42.703125 
Q 37.796875 48.390625 30.609375 48.390625 
z
M 30.609375 56 
Q 42.328125 56 49.015625 48.375 
Q 55.71875 40.765625 55.71875 27.296875 
Q 55.71875 13.875 49.015625 6.21875 
Q 42.328125 -1.421875 30.609375 -1.421875 
Q 18.84375 -1.421875 12.171875 6.21875 
Q 5.515625 13.875 5.515625 27.296875 
Q 5.515625 40.765625 12.171875 48.375 
Q 18.84375 56 30.609375 56 
z
" id="DejaVuSans-6f"/>
      <path d="M 45.40625 27.984375 
Q 45.40625 37.75 41.375 43.109375 
Q 37.359375 48.484375 30.078125 48.484375 
Q 22.859375 48.484375 18.828125 43.109375 
Q 14.796875 37.75 14.796875 27.984375 
Q 14.796875 18.265625 18.828125 12.890625 
Q 22.859375 7.515625 30.078125 7.515625 
Q 37.359375 7.515625 41.375 12.890625 
Q 45.40625 18.265625 45.40625 27.984375 
z
M 54.390625 6.78125 
Q 54.390625 -7.171875 48.1875 -13.984375 
Q 42 -20.796875 29.203125 -20.796875 
Q 24.46875 -20.796875 20.265625 -20.09375 
Q 16.0625 -19.390625 12.109375 -17.921875 
L 12.109375 -9.1875 
Q 16.0625 -11.328125 19.921875 -12.34375 
Q 23.78125 -13.375 27.78125 -13.375 
Q 36.625 -13.375 41.015625 -8.765625 
Q 45.40625 -4.15625 45.40625 5.171875 
L 45.40625 9.625 
Q 42.625 4.78125 38.28125 2.390625 
Q 33.9375 0 27.875 0 
Q 17.828125 0 11.671875 7.65625 
Q 5.515625 15.328125 5.515625 27.984375 
Q 5.515625 40.671875 11.671875 48.328125 
Q 17.828125 56 27.875 56 
Q 33.9375 56 38.28125 53.609375 
Q 42.625 51.21875 45.40625 46.390625 
L 45.40625 54.6875 
L 54.390625 54.6875 
z
" id="DejaVuSans-67"/>
      <path d="M 12.40625 8.296875 
L 28.515625 8.296875 
L 28.515625 63.921875 
L 10.984375 60.40625 
L 10.984375 69.390625 
L 28.421875 72.90625 
L 38.28125 72.90625 
L 38.28125 8.296875 
L 54.390625 8.296875 
L 54.390625 0 
L 12.40625 0 
z
" id="DejaVuSans-31"/>
      <path id="DejaVuSans-20"/>
      <path d="M 37.109375 75.984375 
L 37.109375 68.5 
L 28.515625 68.5 
Q 23.6875 68.5 21.796875 66.546875 
Q 19.921875 64.59375 19.921875 59.515625 
L 19.921875 54.6875 
L 34.71875 54.6875 
L 34.71875 47.703125 
L 19.921875 47.703125 
L 19.921875 0 
L 10.890625 0 
L 10.890625 47.703125 
L 2.296875 47.703125 
L 2.296875 54.6875 
L 10.890625 54.6875 
L 10.890625 58.5 
Q 10.890625 67.625 15.140625 71.796875 
Q 19.390625 75.984375 28.609375 75.984375 
z
" id="DejaVuSans-66"/>
      <path d="M 31 75.875 
Q 24.46875 64.65625 21.28125 53.65625 
Q 18.109375 42.671875 18.109375 31.390625 
Q 18.109375 20.125 21.3125 9.0625 
Q 24.515625 -2 31 -13.1875 
L 23.1875 -13.1875 
Q 15.875 -1.703125 12.234375 9.375 
Q 8.59375 20.453125 8.59375 31.390625 
Q 8.59375 42.28125 12.203125 53.3125 
Q 15.828125 64.359375 23.1875 75.875 
z
" id="DejaVuSans-28"/>
      <path d="M 51.125 44 
L 36.921875 44 
L 32.8125 27.6875 
L 47.125 27.6875 
z
M 43.796875 71.78125 
L 38.71875 51.515625 
L 52.984375 51.515625 
L 58.109375 71.78125 
L 65.921875 71.78125 
L 60.890625 51.515625 
L 76.125 51.515625 
L 76.125 44 
L 58.984375 44 
L 54.984375 27.6875 
L 70.515625 27.6875 
L 70.515625 20.21875 
L 53.078125 20.21875 
L 48 0 
L 40.1875 0 
L 45.21875 20.21875 
L 30.90625 20.21875 
L 25.875 0 
L 18.015625 0 
L 23.09375 20.21875 
L 7.71875 20.21875 
L 7.71875 27.6875 
L 24.90625 27.6875 
L 29 44 
L 13.28125 44 
L 13.28125 51.515625 
L 30.90625 51.515625 
L 35.890625 71.78125 
z
" id="DejaVuSans-23"/>
      <path d="M 4.890625 31.390625 
L 31.203125 31.390625 
L 31.203125 23.390625 
L 4.890625 23.390625 
z
" id="DejaVuSans-2d"/>
      <path d="M 56.203125 29.59375 
L 56.203125 25.203125 
L 14.890625 25.203125 
Q 15.484375 15.921875 20.484375 11.0625 
Q 25.484375 6.203125 34.421875 6.203125 
Q 39.59375 6.203125 44.453125 7.46875 
Q 49.3125 8.734375 54.109375 11.28125 
L 54.109375 2.78125 
Q 49.265625 0.734375 44.1875 -0.34375 
Q 39.109375 -1.421875 33.890625 -1.421875 
Q 20.796875 -1.421875 13.15625 6.1875 
Q 5.515625 13.8125 5.515625 26.8125 
Q 5.515625 40.234375 12.765625 48.109375 
Q 20.015625 56 32.328125 56 
Q 43.359375 56 49.78125 48.890625 
Q 56.203125 41.796875 56.203125 29.59375 
z
M 47.21875 32.234375 
Q 47.125 39.59375 43.09375 43.984375 
Q 39.0625 48.390625 32.421875 48.390625 
Q 24.90625 48.390625 20.390625 44.140625 
Q 15.875 39.890625 15.1875 32.171875 
z
" id="DejaVuSans-65"/>
      <path d="M 2.984375 54.6875 
L 12.5 54.6875 
L 29.59375 8.796875 
L 46.6875 54.6875 
L 56.203125 54.6875 
L 35.6875 0 
L 23.484375 0 
z
" id="DejaVuSans-76"/>
      <path d="M 34.28125 27.484375 
Q 23.390625 27.484375 19.1875 25 
Q 14.984375 22.515625 14.984375 16.5 
Q 14.984375 11.71875 18.140625 8.90625 
Q 21.296875 6.109375 26.703125 6.109375 
Q 34.1875 6.109375 38.703125 11.40625 
Q 43.21875 16.703125 43.21875 25.484375 
L 43.21875 27.484375 
z
M 52.203125 31.203125 
L 52.203125 0 
L 43.21875 0 
L 43.21875 8.296875 
Q 40.140625 3.328125 35.546875 0.953125 
Q 30.953125 -1.421875 24.3125 -1.421875 
Q 15.921875 -1.421875 10.953125 3.296875 
Q 6 8.015625 6 15.921875 
Q 6 25.140625 12.171875 29.828125 
Q 18.359375 34.515625 30.609375 34.515625 
L 43.21875 34.515625 
L 43.21875 35.40625 
Q 43.21875 41.609375 39.140625 45 
Q 35.0625 48.390625 27.6875 48.390625 
Q 23 48.390625 18.546875 47.265625 
Q 14.109375 46.140625 10.015625 43.890625 
L 10.015625 52.203125 
Q 14.9375 54.109375 19.578125 55.046875 
Q 24.21875 56 28.609375 56 
Q 40.484375 56 46.34375 49.84375 
Q 52.203125 43.703125 52.203125 31.203125 
z
" id="DejaVuSans-61"/>
      <path d="M 44.28125 53.078125 
L 44.28125 44.578125 
Q 40.484375 46.53125 36.375 47.5 
Q 32.28125 48.484375 27.875 48.484375 
Q 21.1875 48.484375 17.84375 46.4375 
Q 14.5 44.390625 14.5 40.28125 
Q 14.5 37.15625 16.890625 35.375 
Q 19.28125 33.59375 26.515625 31.984375 
L 29.59375 31.296875 
Q 39.15625 29.25 43.1875 25.515625 
Q 47.21875 21.78125 47.21875 15.09375 
Q 47.21875 7.46875 41.1875 3.015625 
Q 35.15625 -1.421875 24.609375 -1.421875 
Q 20.21875 -1.421875 15.453125 -0.5625 
Q 10.6875 0.296875 5.421875 2 
L 5.421875 11.28125 
Q 10.40625 8.6875 15.234375 7.390625 
Q 20.0625 6.109375 24.8125 6.109375 
Q 31.15625 6.109375 34.5625 8.28125 
Q 37.984375 10.453125 37.984375 14.40625 
Q 37.984375 18.0625 35.515625 20.015625 
Q 33.0625 21.96875 24.703125 23.78125 
L 21.578125 24.515625 
Q 13.234375 26.265625 9.515625 29.90625 
Q 5.8125 33.546875 5.8125 39.890625 
Q 5.8125 47.609375 11.28125 51.796875 
Q 16.75 56 26.8125 56 
Q 31.78125 56 36.171875 55.265625 
Q 40.578125 54.546875 44.28125 53.078125 
z
" id="DejaVuSans-73"/>
      <path d="M 25.390625 72.90625 
L 33.6875 72.90625 
L 8.296875 -9.28125 
L 0 -9.28125 
z
" id="DejaVuSans-2f"/>
      <path d="M 45.40625 46.390625 
L 45.40625 75.984375 
L 54.390625 75.984375 
L 54.390625 0 
L 45.40625 0 
L 45.40625 8.203125 
Q 42.578125 3.328125 38.25 0.953125 
Q 33.9375 -1.421875 27.875 -1.421875 
Q 17.96875 -1.421875 11.734375 6.484375 
Q 5.515625 14.40625 5.515625 27.296875 
Q 5.515625 40.1875 11.734375 48.09375 
Q 17.96875 56 27.875 56 
Q 33.9375 56 38.25 53.625 
Q 42.578125 51.265625 45.40625 46.390625 
z
M 14.796875 27.296875 
Q 14.796875 17.390625 18.875 11.75 
Q 22.953125 6.109375 30.078125 6.109375 
Q 37.203125 6.109375 41.296875 11.75 
Q 45.40625 17.390625 45.40625 27.296875 
Q 45.40625 37.203125 41.296875 42.84375 
Q 37.203125 48.484375 30.078125 48.484375 
Q 22.953125 48.484375 18.875 42.84375 
Q 14.796875 37.203125 14.796875 27.296875 
z
" id="DejaVuSans-64"/>
      <path d="M 9.421875 54.6875 
L 18.40625 54.6875 
L 18.40625 0 
L 9.421875 0 
z
M 9.421875 75.984375 
L 18.40625 75.984375 
L 18.40625 64.59375 
L 9.421875 64.59375 
z
" id="DejaVuSans-69"/>
      <path d="M 52 44.1875 
Q 55.375 50.25 60.0625 53.125 
Q 64.75 56 71.09375 56 
Q 79.640625 56 84.28125 50.015625 
Q 88.921875 44.046875 88.921875 33.015625 
L 88.921875 0 
L 79.890625 0 
L 79.890625 32.71875 
Q 79.890625 40.578125 77.09375 44.375 
Q 74.3125 48.1875 68.609375 48.1875 
Q 61.625 48.1875 57.5625 43.546875 
Q 53.515625 38.921875 53.515625 30.90625 
L 53.515625 0 
L 44.484375 0 
L 44.484375 32.71875 
Q 44.484375 40.625 41.703125 44.40625 
Q 38.921875 48.1875 33.109375 48.1875 
Q 26.21875 48.1875 22.15625 43.53125 
Q 18.109375 38.875 18.109375 30.90625 
L 18.109375 0 
L 9.078125 0 
L 9.078125 54.6875 
L 18.109375 54.6875 
L 18.109375 46.1875 
Q 21.1875 51.21875 25.484375 53.609375 
Q 29.78125 56 35.6875 56 
Q 41.65625 56 45.828125 52.96875 
Q 50 49.953125 52 44.1875 
z
" id="DejaVuSans-6d"/>
      <path d="M 54.890625 33.015625 
L 54.890625 0 
L 45.90625 0 
L 45.90625 32.71875 
Q 45.90625 40.484375 42.875 44.328125 
Q 39.84375 48.1875 33.796875 48.1875 
Q 26.515625 48.1875 22.3125 43.546875 
Q 18.109375 38.921875 18.109375 30.90625 
L 18.109375 0 
L 9.078125 0 
L 9.078125 54.6875 
L 18.109375 54.6875 
L 18.109375 46.1875 
Q 21.34375 51.125 25.703125 53.5625 
Q 30.078125 56 35.796875 56 
Q 45.21875 56 50.046875 50.171875 
Q 54.890625 44.34375 54.890625 33.015625 
z
" id="DejaVuSans-6e"/>
      <path d="M 8.015625 75.875 
L 15.828125 75.875 
Q 23.140625 64.359375 26.78125 53.3125 
Q 30.421875 42.28125 30.421875 31.390625 
Q 30.421875 20.453125 26.78125 9.375 
Q 23.140625 -1.703125 15.828125 -13.1875 
L 8.015625 -13.1875 
Q 14.5 -2 17.703125 9.0625 
Q 20.90625 20.125 20.90625 31.390625 
Q 20.90625 42.671875 17.703125 53.65625 
Q 14.5 64.65625 8.015625 75.875 
z
" id="DejaVuSans-29"/>
     </defs>
     <g transform="translate(115.328482 342.278812)scale(0.18 -0.18)">
      <use xlink:href="#DejaVuSans-6c"/>
      <use x="27.783203" xlink:href="#DejaVuSans-6f"/>
      <use x="88.964844" xlink:href="#DejaVuSans-67"/>
      <use x="152.441406" xlink:href="#DejaVuSans-31"/>
      <use x="216.064453" xlink:href="#DejaVuSans-30"/>
      <use x="279.6875" xlink:href="#DejaVuSans-20"/>
      <use x="311.474609" xlink:href="#DejaVuSans-6f"/>
      <use x="372.65625" xlink:href="#DejaVuSans-66"/>
      <use x="407.861328" xlink:href="#DejaVuSans-20"/>
      <use x="439.648438" xlink:href="#DejaVuSans-28"/>
      <use x="478.662109" xlink:href="#DejaVuSans-23"/>
      <use x="562.451172" xlink:href="#DejaVuSans-20"/>
      <use x="594.238281" xlink:href="#DejaVuSans-66"/>
      <use x="629.365234" xlink:href="#DejaVuSans-2d"/>
      <use x="665.449219" xlink:href="#DejaVuSans-65"/>
      <use x="726.972656" xlink:href="#DejaVuSans-76"/>
      <use x="786.152344" xlink:href="#DejaVuSans-61"/>
      <use x="847.431641" xlink:href="#DejaVuSans-6c"/>
      <use x="875.214844" xlink:href="#DejaVuSans-73"/>
      <use x="927.314453" xlink:href="#DejaVuSans-20"/>
      <use x="959.101562" xlink:href="#DejaVuSans-2f"/>
      <use x="992.792969" xlink:href="#DejaVuSans-20"/>
      <use x="1024.580078" xlink:href="#DejaVuSans-64"/>
      <use x="1088.056641" xlink:href="#DejaVuSans-69"/>
      <use x="1115.839844" xlink:href="#DejaVuSans-6d"/>
      <use x="1213.251953" xlink:href="#DejaVuSans-65"/>
      <use x="1274.775391" xlink:href="#DejaVuSans-6e"/>
      <use x="1338.154297" xlink:href="#DejaVuSans-73"/>
      <use x="1390.253906" xlink:href="#DejaVuSans-69"/>
      <use x="1418.037109" xlink:href="#DejaVuSans-6f"/>
      <use x="1479.21875" xlink:href="#DejaVuSans-6e"/>
      <use x="1542.597656" xlink:href="#DejaVuSans-29"/>
     </g>
    </g>
   </g>
   <g id="matplotlib.axis_2">
    <g id="ytick_1">
     <g id="line2d_11">
      <path clip-path="url(#pfedc3ce5c1)" d="M 79.113325 298.245375 
L 436.233325 298.245375 
" style="fill:none;stroke:#b0b0b0;stroke-linecap:square;stroke-width:0.8;"/>
     </g>
     <g id="line2d_12">
      <defs>
       <path d="M 0 0 
L -3.5 0 
" id="m6dcbf8403f" style="stroke:#000000;stroke-width:0.8;"/>
      </defs>
      <g>
       <use style="stroke:#000000;stroke-width:0.8;" x="79.113325" xlink:href="#m6dcbf8403f" y="298.245375"/>
      </g>
     </g>
     <g id="text_7">
      <!-- 0.0 -->
      <defs>
       <path d="M 10.6875 12.40625 
L 21 12.40625 
L 21 0 
L 10.6875 0 
z
" id="DejaVuSans-2e"/>
      </defs>
      <g transform="translate(40.307075 305.843812)scale(0.2 -0.2)">
       <use xlink:href="#DejaVuSans-30"/>
       <use x="63.623047" xlink:href="#DejaVuSans-2e"/>
       <use x="95.410156" xlink:href="#DejaVuSans-30"/>
      </g>
     </g>
    </g>
    <g id="ytick_2">
     <g id="line2d_13">
      <path clip-path="url(#pfedc3ce5c1)" d="M 79.113325 245.549929 
L 436.233325 245.549929 
" style="fill:none;stroke:#b0b0b0;stroke-linecap:square;stroke-width:0.8;"/>
     </g>
     <g id="line2d_14">
      <g>
       <use style="stroke:#000000;stroke-width:0.8;" x="79.113325" xlink:href="#m6dcbf8403f" y="245.549929"/>
      </g>
     </g>
     <g id="text_8">
      <!-- 0.2 -->
      <g transform="translate(40.307075 253.148367)scale(0.2 -0.2)">
       <use xlink:href="#DejaVuSans-30"/>
       <use x="63.623047" xlink:href="#DejaVuSans-2e"/>
       <use x="95.410156" xlink:href="#DejaVuSans-32"/>
      </g>
     </g>
    </g>
    <g id="ytick_3">
     <g id="line2d_15">
      <path clip-path="url(#pfedc3ce5c1)" d="M 79.113325 192.854484 
L 436.233325 192.854484 
" style="fill:none;stroke:#b0b0b0;stroke-linecap:square;stroke-width:0.8;"/>
     </g>
     <g id="line2d_16">
      <g>
       <use style="stroke:#000000;stroke-width:0.8;" x="79.113325" xlink:href="#m6dcbf8403f" y="192.854484"/>
      </g>
     </g>
     <g id="text_9">
      <!-- 0.4 -->
      <g transform="translate(40.307075 200.452921)scale(0.2 -0.2)">
       <use xlink:href="#DejaVuSans-30"/>
       <use x="63.623047" xlink:href="#DejaVuSans-2e"/>
       <use x="95.410156" xlink:href="#DejaVuSans-34"/>
      </g>
     </g>
    </g>
    <g id="ytick_4">
     <g id="line2d_17">
      <path clip-path="url(#pfedc3ce5c1)" d="M 79.113325 140.159038 
L 436.233325 140.159038 
" style="fill:none;stroke:#b0b0b0;stroke-linecap:square;stroke-width:0.8;"/>
     </g>
     <g id="line2d_18">
      <g>
       <use style="stroke:#000000;stroke-width:0.8;" x="79.113325" xlink:href="#m6dcbf8403f" y="140.159038"/>
      </g>
     </g>
     <g id="text_10">
      <!-- 0.6 -->
      <g transform="translate(40.307075 147.757476)scale(0.2 -0.2)">
       <use xlink:href="#DejaVuSans-30"/>
       <use x="63.623047" xlink:href="#DejaVuSans-2e"/>
       <use x="95.410156" xlink:href="#DejaVuSans-36"/>
      </g>
     </g>
    </g>
    <g id="ytick_5">
     <g id="line2d_19">
      <path clip-path="url(#pfedc3ce5c1)" d="M 79.113325 87.463593 
L 436.233325 87.463593 
" style="fill:none;stroke:#b0b0b0;stroke-linecap:square;stroke-width:0.8;"/>
     </g>
     <g id="line2d_20">
      <g>
       <use style="stroke:#000000;stroke-width:0.8;" x="79.113325" xlink:href="#m6dcbf8403f" y="87.463593"/>
      </g>
     </g>
     <g id="text_11">
      <!-- 0.8 -->
      <g transform="translate(40.307075 95.06203)scale(0.2 -0.2)">
       <use xlink:href="#DejaVuSans-30"/>
       <use x="63.623047" xlink:href="#DejaVuSans-2e"/>
       <use x="95.410156" xlink:href="#DejaVuSans-38"/>
      </g>
     </g>
    </g>
    <g id="ytick_6">
     <g id="line2d_21">
      <path clip-path="url(#pfedc3ce5c1)" d="M 79.113325 34.768147 
L 436.233325 34.768147 
" style="fill:none;stroke:#b0b0b0;stroke-linecap:square;stroke-width:0.8;"/>
     </g>
     <g id="line2d_22">
      <g>
       <use style="stroke:#000000;stroke-width:0.8;" x="79.113325" xlink:href="#m6dcbf8403f" y="34.768147"/>
      </g>
     </g>
     <g id="text_12">
      <!-- 1.0 -->
      <g transform="translate(40.307075 42.366585)scale(0.2 -0.2)">
       <use xlink:href="#DejaVuSans-31"/>
       <use x="63.623047" xlink:href="#DejaVuSans-2e"/>
       <use x="95.410156" xlink:href="#DejaVuSans-30"/>
      </g>
     </g>
    </g>
    <g id="text_13">
     <!-- Proportion of function+target pairs -->
     <defs>
      <path d="M 19.671875 64.796875 
L 19.671875 37.40625 
L 32.078125 37.40625 
Q 38.96875 37.40625 42.71875 40.96875 
Q 46.484375 44.53125 46.484375 51.125 
Q 46.484375 57.671875 42.71875 61.234375 
Q 38.96875 64.796875 32.078125 64.796875 
z
M 9.8125 72.90625 
L 32.078125 72.90625 
Q 44.34375 72.90625 50.609375 67.359375 
Q 56.890625 61.8125 56.890625 51.125 
Q 56.890625 40.328125 50.609375 34.8125 
Q 44.34375 29.296875 32.078125 29.296875 
L 19.671875 29.296875 
L 19.671875 0 
L 9.8125 0 
z
" id="DejaVuSans-50"/>
      <path d="M 41.109375 46.296875 
Q 39.59375 47.171875 37.8125 47.578125 
Q 36.03125 48 33.890625 48 
Q 26.265625 48 22.1875 43.046875 
Q 18.109375 38.09375 18.109375 28.8125 
L 18.109375 0 
L 9.078125 0 
L 9.078125 54.6875 
L 18.109375 54.6875 
L 18.109375 46.1875 
Q 20.953125 51.171875 25.484375 53.578125 
Q 30.03125 56 36.53125 56 
Q 37.453125 56 38.578125 55.875 
Q 39.703125 55.765625 41.0625 55.515625 
z
" id="DejaVuSans-72"/>
      <path d="M 18.109375 8.203125 
L 18.109375 -20.796875 
L 9.078125 -20.796875 
L 9.078125 54.6875 
L 18.109375 54.6875 
L 18.109375 46.390625 
Q 20.953125 51.265625 25.265625 53.625 
Q 29.59375 56 35.59375 56 
Q 45.5625 56 51.78125 48.09375 
Q 58.015625 40.1875 58.015625 27.296875 
Q 58.015625 14.40625 51.78125 6.484375 
Q 45.5625 -1.421875 35.59375 -1.421875 
Q 29.59375 -1.421875 25.265625 0.953125 
Q 20.953125 3.328125 18.109375 8.203125 
z
M 48.6875 27.296875 
Q 48.6875 37.203125 44.609375 42.84375 
Q 40.53125 48.484375 33.40625 48.484375 
Q 26.265625 48.484375 22.1875 42.84375 
Q 18.109375 37.203125 18.109375 27.296875 
Q 18.109375 17.390625 22.1875 11.75 
Q 26.265625 6.109375 33.40625 6.109375 
Q 40.53125 6.109375 44.609375 11.75 
Q 48.6875 17.390625 48.6875 27.296875 
z
" id="DejaVuSans-70"/>
      <path d="M 18.3125 70.21875 
L 18.3125 54.6875 
L 36.8125 54.6875 
L 36.8125 47.703125 
L 18.3125 47.703125 
L 18.3125 18.015625 
Q 18.3125 11.328125 20.140625 9.421875 
Q 21.96875 7.515625 27.59375 7.515625 
L 36.8125 7.515625 
L 36.8125 0 
L 27.59375 0 
Q 17.1875 0 13.234375 3.875 
Q 9.28125 7.765625 9.28125 18.015625 
L 9.28125 47.703125 
L 2.6875 47.703125 
L 2.6875 54.6875 
L 9.28125 54.6875 
L 9.28125 70.21875 
z
" id="DejaVuSans-74"/>
      <path d="M 8.5 21.578125 
L 8.5 54.6875 
L 17.484375 54.6875 
L 17.484375 21.921875 
Q 17.484375 14.15625 20.5 10.265625 
Q 23.53125 6.390625 29.59375 6.390625 
Q 36.859375 6.390625 41.078125 11.03125 
Q 45.3125 15.671875 45.3125 23.6875 
L 45.3125 54.6875 
L 54.296875 54.6875 
L 54.296875 0 
L 45.3125 0 
L 45.3125 8.40625 
Q 42.046875 3.421875 37.71875 1 
Q 33.40625 -1.421875 27.6875 -1.421875 
Q 18.265625 -1.421875 13.375 4.4375 
Q 8.5 10.296875 8.5 21.578125 
z
M 31.109375 56 
z
" id="DejaVuSans-75"/>
      <path d="M 48.78125 52.59375 
L 48.78125 44.1875 
Q 44.96875 46.296875 41.140625 47.34375 
Q 37.3125 48.390625 33.40625 48.390625 
Q 24.65625 48.390625 19.8125 42.84375 
Q 14.984375 37.3125 14.984375 27.296875 
Q 14.984375 17.28125 19.8125 11.734375 
Q 24.65625 6.203125 33.40625 6.203125 
Q 37.3125 6.203125 41.140625 7.25 
Q 44.96875 8.296875 48.78125 10.40625 
L 48.78125 2.09375 
Q 45.015625 0.34375 40.984375 -0.53125 
Q 36.96875 -1.421875 32.421875 -1.421875 
Q 20.0625 -1.421875 12.78125 6.34375 
Q 5.515625 14.109375 5.515625 27.296875 
Q 5.515625 40.671875 12.859375 48.328125 
Q 20.21875 56 33.015625 56 
Q 37.15625 56 41.109375 55.140625 
Q 45.0625 54.296875 48.78125 52.59375 
z
" id="DejaVuSans-63"/>
      <path d="M 46 62.703125 
L 46 35.5 
L 73.1875 35.5 
L 73.1875 27.203125 
L 46 27.203125 
L 46 0 
L 37.796875 0 
L 37.796875 27.203125 
L 10.59375 27.203125 
L 10.59375 35.5 
L 37.796875 35.5 
L 37.796875 62.703125 
z
" id="DejaVuSans-2b"/>
     </defs>
     <g transform="translate(32.563638 323.17875)rotate(-90)scale(0.18 -0.18)">
      <use xlink:href="#DejaVuSans-50"/>
      <use x="60.287109" xlink:href="#DejaVuSans-72"/>
      <use x="101.369141" xlink:href="#DejaVuSans-6f"/>
      <use x="162.550781" xlink:href="#DejaVuSans-70"/>
      <use x="226.027344" xlink:href="#DejaVuSans-6f"/>
      <use x="287.208984" xlink:href="#DejaVuSans-72"/>
      <use x="328.322266" xlink:href="#DejaVuSans-74"/>
      <use x="367.53125" xlink:href="#DejaVuSans-69"/>
      <use x="395.314453" xlink:href="#DejaVuSans-6f"/>
      <use x="456.496094" xlink:href="#DejaVuSans-6e"/>
      <use x="519.875" xlink:href="#DejaVuSans-20"/>
      <use x="551.662109" xlink:href="#DejaVuSans-6f"/>
      <use x="612.84375" xlink:href="#DejaVuSans-66"/>
      <use x="648.048828" xlink:href="#DejaVuSans-20"/>
      <use x="679.835938" xlink:href="#DejaVuSans-66"/>
      <use x="715.041016" xlink:href="#DejaVuSans-75"/>
      <use x="778.419922" xlink:href="#DejaVuSans-6e"/>
      <use x="841.798828" xlink:href="#DejaVuSans-63"/>
      <use x="896.779297" xlink:href="#DejaVuSans-74"/>
      <use x="935.988281" xlink:href="#DejaVuSans-69"/>
      <use x="963.771484" xlink:href="#DejaVuSans-6f"/>
      <use x="1024.953125" xlink:href="#DejaVuSans-6e"/>
      <use x="1088.332031" xlink:href="#DejaVuSans-2b"/>
      <use x="1172.121094" xlink:href="#DejaVuSans-74"/>
      <use x="1211.330078" xlink:href="#DejaVuSans-61"/>
      <use x="1272.609375" xlink:href="#DejaVuSans-72"/>
      <use x="1313.707031" xlink:href="#DejaVuSans-67"/>
      <use x="1377.183594" xlink:href="#DejaVuSans-65"/>
      <use x="1438.707031" xlink:href="#DejaVuSans-74"/>
      <use x="1477.916016" xlink:href="#DejaVuSans-20"/>
      <use x="1509.703125" xlink:href="#DejaVuSans-70"/>
      <use x="1573.179688" xlink:href="#DejaVuSans-61"/>
      <use x="1634.458984" xlink:href="#DejaVuSans-69"/>
      <use x="1662.242188" xlink:href="#DejaVuSans-72"/>
      <use x="1703.355469" xlink:href="#DejaVuSans-73"/>
     </g>
    </g>
   </g>
   <g id="line2d_23">
    <defs>
     <path d="M 0 1.5 
C 0.397805 1.5 0.77937 1.341951 1.06066 1.06066 
C 1.341951 0.77937 1.5 0.397805 1.5 0 
C 1.5 -0.397805 1.341951 -0.77937 1.06066 -1.06066 
C 0.77937 -1.341951 0.397805 -1.5 0 -1.5 
C -0.397805 -1.5 -0.77937 -1.341951 -1.06066 -1.06066 
C -1.341951 -0.77937 -1.5 -0.397805 -1.5 0 
C -1.5 0.397805 -1.341951 0.77937 -1.06066 1.06066 
C -0.77937 1.341951 -0.397805 1.5 0 1.5 
z
" id="mc65c76396a" style="stroke:#00bfbf;"/>
    </defs>
    <g>
     <use style="fill:#00bfbf;stroke:#00bfbf;" x="309.259621" xlink:href="#mc65c76396a" y="34.768147"/>
     <use style="fill:#00bfbf;stroke:#00bfbf;" x="309.259621" xlink:href="#mc65c76396a" y="34.768147"/>
    </g>
   </g>
   <g id="line2d_24">
    <path d="M 66.728091 298.245375 
L 66.728091 225.918293 
L 79.113325 225.918293 
L 79.113325 223.851805 
L 86.358223 223.851805 
L 86.358223 220.752073 
L 105.988354 220.752073 
L 105.988354 217.652341 
L 109.573962 217.652341 
L 109.573962 216.619097 
L 112.558903 216.619097 
L 112.558903 216.102475 
L 115.115846 216.102475 
L 115.115846 214.035987 
L 119.339668 214.035987 
L 119.339668 212.48612 
L 120.256183 212.48612 
L 120.256183 210.419632 
L 123.513925 210.419632 
L 123.513925 208.353144 
L 128.086972 208.353144 
L 128.086972 207.836522 
L 130.255462 207.836522 
L 130.255462 206.803278 
L 133.933651 206.803278 
L 133.933651 205.770034 
L 135.522975 205.770034 
L 135.522975 205.253412 
L 136.628571 205.253412 
L 136.628571 204.73679 
L 141.039496 204.73679 
L 141.039496 202.670302 
L 141.316526 202.670302 
L 141.316526 200.603814 
L 148.834225 200.603814 
L 148.834225 200.087192 
L 151.665791 200.087192 
L 151.665791 199.57057 
L 154.768831 199.57057 
L 154.768831 198.537326 
L 155.02593 198.537326 
L 155.02593 198.020704 
L 157.853095 198.020704 
L 157.853095 196.98746 
L 162.013728 196.98746 
L 162.013728 196.470838 
L 163.102053 196.470838 
L 163.102053 194.920972 
L 164.204401 194.920972 
L 164.204401 194.40435 
L 166.42735 194.40435 
L 166.42735 193.887728 
L 167.089208 193.887728 
L 167.154065 192.337862 
L 170.07415 192.337862 
L 170.07415 189.23813 
L 170.985165 189.23813 
L 170.985165 187.171642 
L 172.961555 187.171642 
L 172.961555 186.65502 
L 174.485074 186.65502 
L 174.485074 186.138398 
L 174.825429 186.138398 
L 174.825429 185.621776 
L 175.241954 185.621776 
L 175.241954 184.588532 
L 175.608702 184.588532 
L 175.608702 183.555288 
L 176.00756 183.555288 
L 176.046961 182.005422 
L 176.96741 182.005422 
L 176.96741 181.4888 
L 178.230063 181.4888 
L 178.230063 180.972178 
L 185.671252 180.972178 
L 185.671252 180.455556 
L 185.944749 180.455556 
L 185.944749 179.422312 
L 191.64725 179.422312 
L 191.64725 175.289335 
L 193.811982 175.289335 
L 193.811982 174.772713 
L 198.239282 174.772713 
L 198.239282 174.256091 
L 198.465177 174.256091 
L 198.465177 173.739469 
L 201.578299 173.739469 
L 201.578299 173.222847 
L 201.988435 173.222847 
L 201.988435 172.706225 
L 202.834315 172.706225 
L 202.834315 172.189603 
L 203.216907 172.189603 
L 203.216907 171.672981 
L 203.379618 171.672981 
L 203.379618 171.156359 
L 203.941845 171.156359 
L 203.941845 170.639737 
L 204.48692 170.639737 
L 204.48692 170.123115 
L 204.875286 170.123115 
L 204.875286 164.956895 
L 205.354892 164.956895 
L 205.354892 163.923651 
L 205.725033 163.923651 
L 205.784743 162.890407 
L 205.99217 162.890407 
L 205.99217 161.857163 
L 206.131564 161.857163 
L 206.131564 160.823919 
L 206.756312 160.823919 
L 206.756312 159.790675 
L 207.084946 159.790675 
L 207.084946 158.757431 
L 207.784681 158.757431 
L 207.784681 158.240809 
L 207.950465 158.240809 
L 207.950465 156.690943 
L 210.152305 156.690943 
L 210.175631 154.107833 
L 210.297598 154.107833 
L 210.297598 153.591211 
L 211.134348 153.591211 
L 211.134348 153.074589 
L 211.683677 153.074589 
L 211.683677 152.557967 
L 212.794629 152.557967 
L 212.905019 151.524723 
L 212.940001 151.524723 
L 212.940001 151.008101 
L 213.202663 151.008101 
L 213.202663 149.974857 
L 213.446967 149.974857 
L 213.451819 148.941613 
L 214.47933 148.941613 
L 214.552467 147.908369 
L 215.597839 147.908369 
L 215.597839 147.391747 
L 215.879569 147.391747 
L 215.964072 146.358503 
L 216.256724 146.358503 
L 216.256724 145.841881 
L 217.598361 145.841881 
L 217.598361 144.808637 
L 217.743942 144.808637 
L 217.743942 144.292014 
L 217.876989 144.292014 
L 217.937482 142.742148 
L 218.229488 142.742148 
L 218.229488 142.225526 
L 218.362667 142.225526 
L 218.428886 138.609172 
L 218.989175 138.609172 
L 218.989175 138.09255 
L 219.148602 138.09255 
L 219.148602 137.575928 
L 219.264617 137.575928 
L 219.358982 136.026062 
L 219.765642 136.026062 
L 219.803083 132.92633 
L 220.872124 132.92633 
L 220.872124 132.409708 
L 221.621638 132.409708 
L 221.621638 131.893086 
L 221.835338 131.893086 
L 221.835338 130.34322 
L 223.24967 130.34322 
L 223.305656 129.309976 
L 223.618727 129.309976 
L 223.618727 128.793354 
L 224.492346 128.793354 
L 224.492346 128.276732 
L 224.875286 128.276732 
L 224.875286 127.76011 
L 225.12946 127.76011 
L 225.227616 125.177 
L 225.285251 125.177 
L 225.302755 123.627134 
L 225.407422 123.627134 
L 225.496651 122.077268 
L 225.756823 122.077268 
L 225.829774 121.044024 
L 225.870982 121.044024 
L 225.870982 120.527402 
L 226.118636 120.527402 
L 226.178232 119.494158 
L 227.003723 119.494158 
L 227.003723 118.977536 
L 227.238507 118.977536 
L 227.238507 118.460914 
L 227.392591 118.460914 
L 227.392591 117.944292 
L 227.61357 117.944292 
L 227.615766 116.394426 
L 228.359841 116.394426 
L 228.359841 115.361182 
L 228.946209 115.361182 
L 228.946209 114.84456 
L 229.63399 114.84456 
L 229.63399 114.327938 
L 230.089068 114.327938 
L 230.089068 113.811316 
L 230.352886 113.811316 
L 230.418706 112.26145 
L 230.59057 112.26145 
L 230.694379 109.161717 
L 230.806775 109.161717 
L 230.806775 108.645095 
L 231.168604 108.645095 
L 231.168604 108.128473 
L 231.503831 108.128473 
L 231.503831 107.095229 
L 232.490074 107.095229 
L 232.490074 106.578607 
L 233.186759 106.578607 
L 233.186759 106.061985 
L 233.792141 106.061985 
L 233.792141 105.545363 
L 234.379186 105.545363 
L 234.482656 102.962253 
L 234.582558 102.962253 
L 234.598906 99.862521 
L 234.975215 99.862521 
L 234.975215 99.345899 
L 235.525223 99.345899 
L 235.525223 98.312655 
L 235.76202 98.312655 
L 235.76202 97.796033 
L 236.306241 97.796033 
L 236.306241 97.279411 
L 236.677699 97.279411 
L 236.677699 96.246167 
L 236.996184 96.246167 
L 236.996184 95.729545 
L 237.197692 95.729545 
L 237.197692 94.696301 
L 237.497019 94.696301 
L 237.497019 93.663057 
L 237.897949 93.663057 
L 237.897949 93.146435 
L 239.118778 93.146435 
L 239.137225 92.113191 
L 239.692014 92.113191 
L 239.692014 91.596569 
L 240.443442 91.596569 
L 240.517196 89.530081 
L 240.561941 89.530081 
L 240.600205 86.430349 
L 240.712397 86.430349 
L 240.744022 85.397105 
L 240.896092 85.397105 
L 240.974244 84.363861 
L 241.267119 84.363861 
L 241.267119 83.847239 
L 241.83687 83.847239 
L 241.83687 83.330617 
L 242.110196 83.330617 
L 242.110196 82.813995 
L 242.409174 82.813995 
L 242.428354 81.780751 
L 242.896616 81.780751 
L 242.896616 81.264129 
L 243.956946 81.264129 
L 243.956946 80.747507 
L 244.478945 80.747507 
L 244.495175 79.714263 
L 244.962854 79.714263 
L 245.054939 78.681019 
L 245.084702 78.681019 
L 245.084702 78.164397 
L 245.605723 78.164397 
L 245.605723 77.647775 
L 245.820259 77.647775 
L 245.820259 76.614531 
L 246.007164 76.614531 
L 246.012654 75.064664 
L 246.270381 75.064664 
L 246.332888 74.03142 
L 246.507669 74.03142 
L 246.507669 73.514798 
L 246.829721 73.514798 
L 246.896278 71.964932 
L 247.149751 71.964932 
L 247.149751 71.44831 
L 248.642126 71.44831 
L 248.666479 69.381822 
L 249.429418 69.381822 
L 249.496659 68.348578 
L 250.949296 68.348578 
L 250.949296 67.831956 
L 251.56447 67.831956 
L 251.648769 65.248846 
L 254.130722 65.248846 
L 254.203766 62.149114 
L 255.080913 62.149114 
L 255.080913 61.632492 
L 255.305643 61.632492 
L 255.305643 61.11587 
L 256.374267 61.11587 
L 256.438708 58.53276 
L 256.832105 58.53276 
L 256.832105 58.016138 
L 257.421131 58.016138 
L 257.421131 57.499516 
L 258.215797 57.499516 
L 258.215797 56.982894 
L 258.367276 56.982894 
L 258.424926 53.883162 
L 260.160123 53.883162 
L 260.212277 51.300052 
L 261.836986 51.300052 
L 261.836986 50.78343 
L 263.282396 50.78343 
L 263.315481 48.716942 
L 263.762487 48.716942 
L 263.762487 48.20032 
L 264.700785 48.20032 
L 264.700785 47.683698 
L 267.159721 47.683698 
L 267.168365 46.133832 
L 268.285115 46.133832 
L 268.285115 45.61721 
L 269.336155 45.61721 
L 269.336155 45.100588 
L 270.313096 45.100588 
L 270.32879 43.550722 
L 271.254283 43.550722 
L 271.254283 42.517478 
L 273.812562 42.517478 
L 273.812562 42.000855 
L 274.596582 42.000855 
L 274.596582 40.967611 
L 279.827169 40.967611 
L 279.832132 39.934367 
L 280.390594 39.934367 
L 280.390594 39.417745 
L 281.968319 39.417745 
L 281.968319 38.901123 
L 282.943528 38.901123 
L 282.943528 38.384501 
L 283.413904 38.384501 
L 283.413904 37.351257 
L 287.171739 37.351257 
L 287.174559 36.318013 
L 290.587297 36.318013 
L 290.587297 35.801391 
L 292.910969 35.801391 
L 292.910969 35.284769 
L 309.259621 35.284769 
L 309.259621 34.768147 
L 367.113325 34.768147 
L 367.113325 34.768147 
" style="fill:none;stroke:#00bfbf;stroke-linecap:square;stroke-width:1.5;"/>
   </g>
   <g id="line2d_25">
    <defs>
     <path d="M -6 0 
L 6 0 
M 0 6 
L 0 -6 
" id="m665b392313" style="stroke:#00bfbf;stroke-width:1.5;"/>
    </defs>
    <g>
     <use style="fill:none;stroke:#00bfbf;stroke-width:1.5;" x="148.834225" xlink:href="#m665b392313" y="200.087192"/>
     <use style="fill:none;stroke:#00bfbf;stroke-width:1.5;" x="210.152305" xlink:href="#m665b392313" y="154.624455"/>
     <use style="fill:none;stroke:#00bfbf;stroke-width:1.5;" x="249.496659" xlink:href="#m665b392313" y="68.8652"/>
     <use style="fill:none;stroke:#00bfbf;stroke-width:1.5;" x="309.259621" xlink:href="#m665b392313" y="34.768147"/>
     <use style="fill:none;stroke:#00bfbf;stroke-width:1.5;" x="309.259621" xlink:href="#m665b392313" y="34.768147"/>
     <use style="fill:none;stroke:#00bfbf;stroke-width:1.5;" x="367.113325" xlink:href="#m665b392313" y="34.768147"/>
    </g>
   </g>
   <g id="line2d_26"/>
   <g id="line2d_27">
    <path clip-path="url(#pfedc3ce5c1)" d="M 218.188596 142.742148 
" style="fill:none;stroke:#00bfbf;stroke-linecap:square;stroke-width:1.5;"/>
    <defs>
     <path d="M -12 12 
L 12 -12 
M -12 -12 
L 12 12 
" id="mb8b487cea4" style="stroke:#00bfbf;stroke-width:3;"/>
    </defs>
    <g clip-path="url(#pfedc3ce5c1)">
     <use style="fill:#00bfbf;stroke:#00bfbf;stroke-width:3;" x="218.188596" xlink:href="#mb8b487cea4" y="142.742148"/>
    </g>
   </g>
   <g id="line2d_28">
    <defs>
     <path d="M 0 1.5 
C 0.397805 1.5 0.77937 1.341951 1.06066 1.06066 
C 1.341951 0.77937 1.5 0.397805 1.5 0 
C 1.5 -0.397805 1.341951 -0.77937 1.06066 -1.06066 
C 0.77937 -1.341951 0.397805 -1.5 0 -1.5 
C -0.397805 -1.5 -0.77937 -1.341951 -1.06066 -1.06066 
C -1.341951 -0.77937 -1.5 -0.397805 -1.5 0 
C -1.5 0.397805 -1.341951 0.77937 -1.06066 1.06066 
C -0.77937 1.341951 -0.397805 1.5 0 1.5 
z
" id="m6f65a974fd" style="stroke:#008000;"/>
    </defs>
    <g>
     <use style="fill:#008000;stroke:#008000;" x="280.730977" xlink:href="#m6f65a974fd" y="34.768147"/>
     <use style="fill:#008000;stroke:#008000;" x="280.730977" xlink:href="#m6f65a974fd" y="34.768147"/>
    </g>
   </g>
   <g id="line2d_29">
    <path d="M 59.483194 298.245375 
L 59.483194 225.918293 
L 102.329064 225.918293 
L 102.329064 224.885049 
L 123.010565 224.885049 
L 123.010565 224.368427 
L 132.03566 224.368427 
L 132.03566 223.851805 
L 153.517552 223.851805 
L 153.517552 223.335183 
L 154.854942 223.335183 
L 154.854942 222.818561 
L 155.02593 222.818561 
L 155.02593 222.301939 
L 157.187126 222.301939 
L 157.187126 221.785317 
L 159.909167 221.785317 
L 159.909167 220.752073 
L 170.383011 220.752073 
L 170.383011 220.235451 
L 171.668542 220.235451 
L 171.668542 219.718829 
L 173.392876 219.718829 
L 173.392876 218.168963 
L 173.754469 218.168963 
L 173.754469 217.652341 
L 174.769152 217.652341 
L 174.797313 216.102475 
L 174.88153 216.102475 
L 174.88153 215.069231 
L 175.104189 215.069231 
L 175.104189 214.035987 
L 175.648991 214.035987 
L 175.648991 213.002743 
L 175.862344 213.002743 
L 175.862344 211.452876 
L 176.073179 211.452876 
L 176.177672 209.386388 
L 176.281556 209.386388 
L 176.281556 207.836522 
L 176.513112 207.836522 
L 176.513112 207.3199 
L 176.665832 207.3199 
L 176.665832 206.803278 
L 177.116312 206.803278 
L 177.116312 205.253412 
L 177.961012 205.253412 
L 177.961012 204.220168 
L 178.654558 204.220168 
L 178.654558 203.186924 
L 179.668311 203.186924 
L 179.668311 202.670302 
L 180.070811 202.670302 
L 180.070811 202.15368 
L 180.25835 202.15368 
L 180.341073 198.537326 
L 180.789327 198.537326 
L 180.809438 196.470838 
L 181.049014 196.470838 
L 181.049014 195.954216 
L 181.265839 195.954216 
L 181.265839 194.920972 
L 181.863103 194.920972 
L 181.863103 194.40435 
L 182.182353 194.40435 
L 182.182353 193.887728 
L 183.300602 193.887728 
L 183.300602 193.371106 
L 184.467983 193.371106 
L 184.467983 192.854484 
L 185.393503 192.854484 
L 185.409048 191.82124 
L 185.548341 191.82124 
L 185.548341 191.304618 
L 187.392351 191.304618 
L 187.392351 190.787996 
L 187.627189 190.787996 
L 187.627189 190.271374 
L 187.886053 190.271374 
L 187.886053 189.23813 
L 190.381571 189.23813 
L 190.405081 186.65502 
L 190.53384 186.65502 
L 190.53384 186.138398 
L 191.051126 186.138398 
L 191.051126 185.105154 
L 191.209053 185.105154 
L 191.209053 184.588532 
L 191.761947 184.588532 
L 191.761947 184.07191 
L 192.456045 184.07191 
L 192.456045 183.555288 
L 193.234825 183.555288 
L 193.304876 182.522044 
L 194.276737 182.522044 
L 194.32397 180.972178 
L 194.483633 180.972178 
L 194.483633 180.455556 
L 195.243314 180.455556 
L 195.243314 179.422312 
L 196.346581 179.422312 
L 196.447389 178.389067 
L 196.622445 178.389067 
L 196.622445 177.872445 
L 197.25804 177.872445 
L 197.361809 175.805957 
L 199.190997 175.805957 
L 199.190997 175.289335 
L 199.812314 175.289335 
L 199.812314 174.772713 
L 199.978081 174.772713 
L 199.978081 174.256091 
L 200.162748 174.256091 
L 200.162748 173.739469 
L 200.426165 173.739469 
L 200.426165 172.189603 
L 201.474277 172.189603 
L 201.474277 171.672981 
L 202.283934 171.672981 
L 202.283934 171.156359 
L 203.098946 171.156359 
L 203.098946 170.639737 
L 203.8784 170.639737 
L 203.8784 169.606493 
L 204.577499 169.606493 
L 204.577499 168.573249 
L 204.694043 168.573249 
L 204.694043 168.056627 
L 204.966524 168.056627 
L 204.966524 167.540005 
L 205.188747 167.540005 
L 205.188747 167.023383 
L 206.34225 167.023383 
L 206.34225 166.506761 
L 206.557618 166.506761 
L 206.557618 165.473517 
L 207.325807 165.473517 
L 207.325807 164.956895 
L 207.606132 164.956895 
L 207.606132 164.440273 
L 207.983438 164.440273 
L 207.983438 163.407029 
L 208.309865 163.407029 
L 208.417362 162.373785 
L 210.544773 162.373785 
L 210.544773 161.857163 
L 211.006856 161.857163 
L 211.006856 161.340541 
L 212.27026 161.340541 
L 212.27026 160.823919 
L 212.767765 160.823919 
L 212.767765 159.790675 
L 213.378898 159.790675 
L 213.450202 158.240809 
L 214.256562 158.240809 
L 214.256562 157.207565 
L 214.714431 157.207565 
L 214.714431 156.174321 
L 214.971745 156.174321 
L 214.971745 155.657699 
L 215.610742 155.657699 
L 215.610742 155.141077 
L 216.027188 155.141077 
L 216.027188 154.624455 
L 216.235979 154.624455 
L 216.235979 154.107833 
L 217.304894 154.107833 
L 217.304894 153.591211 
L 217.504511 153.591211 
L 217.504511 153.074589 
L 218.214629 153.074589 
L 218.214629 152.557967 
L 218.355294 152.557967 
L 218.355294 152.041345 
L 218.765962 152.041345 
L 218.765962 151.524723 
L 219.463251 151.524723 
L 219.463251 151.008101 
L 219.615086 151.008101 
L 219.72243 148.424991 
L 219.733811 148.424991 
L 219.822341 142.742148 
L 219.896909 142.742148 
L 219.935202 140.67566 
L 220.089789 140.67566 
L 220.18989 136.542684 
L 220.207628 136.542684 
L 220.318089 132.409708 
L 220.386233 132.409708 
L 220.469412 130.859842 
L 221.272225 130.859842 
L 221.272225 130.34322 
L 221.633919 130.34322 
L 221.715574 129.309976 
L 221.96435 129.309976 
L 221.96435 128.793354 
L 222.138246 128.793354 
L 222.225553 127.76011 
L 222.359648 127.76011 
L 222.359648 127.243488 
L 222.863281 127.243488 
L 222.863281 126.726866 
L 223.019219 126.726866 
L 223.036252 125.693622 
L 223.766421 125.693622 
L 223.766421 125.177 
L 224.059982 125.177 
L 224.102801 123.627134 
L 224.332972 123.627134 
L 224.332972 123.110512 
L 224.803464 123.110512 
L 224.868458 122.077268 
L 225.869367 122.077268 
L 225.869367 121.560646 
L 226.054048 121.560646 
L 226.054048 121.044024 
L 226.347196 121.044024 
L 226.347196 120.527402 
L 226.469366 120.527402 
L 226.469366 119.494158 
L 226.798791 119.494158 
L 226.798791 118.977536 
L 227.807244 118.977536 
L 227.807244 117.944292 
L 228.171386 117.944292 
L 228.171386 117.42767 
L 228.360543 117.42767 
L 228.360543 116.394426 
L 228.564385 116.394426 
L 228.564385 115.361182 
L 228.920371 115.361182 
L 228.920371 114.84456 
L 229.330686 114.84456 
L 229.330686 114.327938 
L 230.136806 114.327938 
L 230.136806 112.778072 
L 231.074158 112.778072 
L 231.177602 111.744828 
L 231.347105 111.744828 
L 231.447804 107.611851 
L 231.520899 107.611851 
L 231.615945 102.445631 
L 231.669698 102.445631 
L 231.673198 101.412387 
L 232.119046 101.412387 
L 232.119046 100.379143 
L 233.040395 100.379143 
L 233.040395 99.862521 
L 233.247748 99.862521 
L 233.247748 99.345899 
L 233.418899 99.345899 
L 233.418899 98.829277 
L 233.909353 98.829277 
L 233.909353 98.312655 
L 234.050839 98.312655 
L 234.050839 97.796033 
L 234.185132 97.796033 
L 234.266034 94.696301 
L 234.395721 94.696301 
L 234.475677 92.629813 
L 234.669084 92.629813 
L 234.713421 91.596569 
L 234.875053 91.596569 
L 234.875053 91.079947 
L 235.103725 91.079947 
L 235.103725 90.563325 
L 235.677842 90.563325 
L 235.677842 90.046703 
L 236.999215 90.046703 
L 236.999215 89.530081 
L 237.592759 89.530081 
L 237.592759 89.013459 
L 238.223096 89.013459 
L 238.223096 88.496837 
L 238.372857 88.496837 
L 238.4057 84.880483 
L 238.494316 84.880483 
L 238.550769 82.813995 
L 238.64341 82.813995 
L 238.659198 81.780751 
L 239.267348 81.780751 
L 239.267348 81.264129 
L 239.515762 81.264129 
L 239.515762 80.747507 
L 239.713227 80.747507 
L 239.713227 80.230885 
L 239.996608 80.230885 
L 240.014171 78.164397 
L 240.20985 78.164397 
L 240.317322 77.131153 
L 240.332418 77.131153 
L 240.404841 76.097908 
L 240.485523 76.097908 
L 240.485523 75.581286 
L 240.962109 75.581286 
L 240.962109 75.064664 
L 241.170369 75.064664 
L 241.170369 74.548042 
L 241.886009 74.548042 
L 241.886009 74.03142 
L 243.354132 74.03142 
L 243.452756 68.348578 
L 243.467834 68.348578 
L 243.556238 66.798712 
L 243.580817 66.798712 
L 243.662703 65.765468 
L 244.293687 65.765468 
L 244.34542 64.732224 
L 244.738828 64.732224 
L 244.738828 64.215602 
L 244.855237 64.215602 
L 244.858584 63.182358 
L 246.151453 63.182358 
L 246.187733 61.632492 
L 246.5125 61.632492 
L 246.5125 61.11587 
L 246.646223 61.11587 
L 246.646223 60.599248 
L 247.239797 60.599248 
L 247.331819 56.982894 
L 247.354145 56.982894 
L 247.425302 55.433028 
L 248.106377 55.433028 
L 248.179239 54.399784 
L 248.354832 54.399784 
L 248.354832 53.883162 
L 248.478686 53.883162 
L 248.478686 53.36654 
L 248.768269 53.36654 
L 248.768269 52.849918 
L 248.89731 52.849918 
L 248.89731 52.333296 
L 249.031168 52.333296 
L 249.036024 51.300052 
L 249.437621 51.300052 
L 249.437621 50.78343 
L 249.705385 50.78343 
L 249.705385 50.266808 
L 250.09071 50.266808 
L 250.09071 49.750186 
L 250.499248 49.750186 
L 250.571503 48.716942 
L 250.675717 48.716942 
L 250.675717 48.20032 
L 251.334799 48.20032 
L 251.334799 47.167076 
L 251.615555 47.167076 
L 251.615555 46.650454 
L 252.209692 46.650454 
L 252.276468 45.61721 
L 253.194437 45.61721 
L 253.194437 45.100588 
L 253.824384 45.100588 
L 253.824384 44.583966 
L 254.315978 44.583966 
L 254.315978 44.067344 
L 255.824106 44.067344 
L 255.824106 43.550722 
L 256.34042 43.550722 
L 256.34042 43.0341 
L 256.519622 43.0341 
L 256.588026 42.000855 
L 257.220098 42.000855 
L 257.220098 41.484233 
L 257.663563 41.484233 
L 257.663563 40.967611 
L 258.554836 40.967611 
L 258.664375 39.934367 
L 258.937855 39.934367 
L 258.937855 39.417745 
L 259.535967 39.417745 
L 259.535967 38.901123 
L 261.195577 38.901123 
L 261.253157 37.351257 
L 264.490389 37.351257 
L 264.490389 36.834635 
L 266.024115 36.834635 
L 266.024115 36.318013 
L 273.044631 36.318013 
L 273.044631 35.801391 
L 273.528764 35.801391 
L 273.528764 35.284769 
L 280.730977 35.284769 
L 280.730977 34.768147 
L 367.113325 34.768147 
L 367.113325 34.768147 
" style="fill:none;stroke:#008000;stroke-linecap:square;stroke-width:1.5;"/>
   </g>
   <g id="line2d_30">
    <defs>
     <path d="M -0 6 
L 6 -6 
L -6 -6 
z
" id="mb8b77dad98" style="stroke:#008000;stroke-linejoin:miter;stroke-width:1.5;"/>
    </defs>
    <g>
     <use style="fill:none;stroke:#008000;stroke-linejoin:miter;stroke-width:1.5;" x="132.03566" xlink:href="#mb8b77dad98" y="224.368427"/>
     <use style="fill:none;stroke:#008000;stroke-linejoin:miter;stroke-width:1.5;" x="210.544773" xlink:href="#mb8b77dad98" y="162.373785"/>
     <use style="fill:none;stroke:#008000;stroke-linejoin:miter;stroke-width:1.5;" x="246.187733" xlink:href="#mb8b77dad98" y="61.632492"/>
     <use style="fill:none;stroke:#008000;stroke-linejoin:miter;stroke-width:1.5;" x="280.730977" xlink:href="#mb8b77dad98" y="34.768147"/>
     <use style="fill:none;stroke:#008000;stroke-linejoin:miter;stroke-width:1.5;" x="280.730977" xlink:href="#mb8b77dad98" y="34.768147"/>
     <use style="fill:none;stroke:#008000;stroke-linejoin:miter;stroke-width:1.5;" x="367.113325" xlink:href="#mb8b77dad98" y="34.768147"/>
    </g>
   </g>
   <g id="line2d_31"/>
   <g id="line2d_32">
    <path clip-path="url(#pfedc3ce5c1)" d="M 218.187355 153.074589 
" style="fill:none;stroke:#008000;stroke-linecap:square;stroke-width:1.5;"/>
    <defs>
     <path d="M -12 12 
L 12 -12 
M -12 -12 
L 12 12 
" id="m680c46ac40" style="stroke:#008000;stroke-width:3;"/>
    </defs>
    <g clip-path="url(#pfedc3ce5c1)">
     <use style="fill:#008000;stroke:#008000;stroke-width:3;" x="218.187355" xlink:href="#m680c46ac40" y="153.074589"/>
    </g>
   </g>
   <g id="line2d_33">
    <defs>
     <path d="M 0 1.5 
C 0.397805 1.5 0.77937 1.341951 1.06066 1.06066 
C 1.341951 0.77937 1.5 0.397805 1.5 0 
C 1.5 -0.397805 1.341951 -0.77937 1.06066 -1.06066 
C 0.77937 -1.341951 0.397805 -1.5 0 -1.5 
C -0.397805 -1.5 -0.77937 -1.341951 -1.06066 -1.06066 
C -1.341951 -0.77937 -1.5 -0.397805 -1.5 0 
C -1.5 0.397805 -1.341951 0.77937 -1.06066 1.06066 
C -0.77937 1.341951 -0.397805 1.5 0 1.5 
z
" id="m3f8bb4f639" style="stroke:#0000ff;"/>
    </defs>
    <g>
     <use style="fill:#0000ff;stroke:#0000ff;" x="277.106235" xlink:href="#m3f8bb4f639" y="205.253412"/>
     <use style="fill:#0000ff;stroke:#0000ff;" x="277.106235" xlink:href="#m3f8bb4f639" y="205.253412"/>
    </g>
   </g>
   <g id="line2d_34">
    <path d="M 50.355702 298.245375 
L 50.355702 225.918293 
L 157.232304 225.918293 
L 157.232304 224.885049 
L 174.519403 224.885049 
L 174.519403 223.851805 
L 183.875211 223.851805 
L 183.875211 223.335183 
L 195.327349 223.335183 
L 195.327349 222.301939 
L 198.670509 222.301939 
L 198.670509 221.785317 
L 218.766442 221.785317 
L 218.766442 221.268695 
L 219.192284 221.268695 
L 219.192284 220.752073 
L 219.228838 220.752073 
L 219.228838 220.235451 
L 220.630289 220.235451 
L 220.630289 219.718829 
L 222.572517 219.718829 
L 222.572517 219.202207 
L 228.969838 219.202207 
L 228.969838 218.685585 
L 230.9655 218.685585 
L 230.9655 218.168963 
L 231.183358 218.168963 
L 231.183358 217.135719 
L 231.33094 217.135719 
L 231.33094 216.619097 
L 236.642224 216.619097 
L 236.642224 216.102475 
L 236.764764 216.102475 
L 236.764764 215.585853 
L 238.080059 215.585853 
L 238.080059 215.069231 
L 238.668822 215.069231 
L 238.668822 214.552609 
L 239.055453 214.552609 
L 239.055453 214.035987 
L 242.083442 214.035987 
L 242.083442 213.519365 
L 242.173894 213.519365 
L 242.173894 213.002743 
L 244.032633 213.002743 
L 244.032633 212.48612 
L 246.320405 212.48612 
L 246.320405 211.452876 
L 250.373364 211.452876 
L 250.373364 210.419632 
L 250.831944 210.419632 
L 250.831944 209.90301 
L 254.910706 209.90301 
L 254.910706 208.869766 
L 255.470946 208.869766 
L 255.470946 208.353144 
L 256.401036 208.353144 
L 256.401036 207.836522 
L 257.584394 207.836522 
L 257.584394 207.3199 
L 259.453259 207.3199 
L 259.453259 206.803278 
L 264.096596 206.803278 
L 264.096596 206.286656 
L 264.112666 206.286656 
L 264.112666 205.770034 
L 277.106235 205.770034 
L 277.106235 205.253412 
L 367.113325 205.253412 
" style="fill:none;stroke:#0000ff;stroke-linecap:square;stroke-width:1.5;"/>
   </g>
   <g id="line2d_35">
    <defs>
     <path d="M 0 -6 
L -1.347084 -1.854102 
L -5.706339 -1.854102 
L -2.179628 0.708204 
L -3.526712 4.854102 
L -0 2.291796 
L 3.526712 4.854102 
L 2.179628 0.708204 
L 5.706339 -1.854102 
L 1.347084 -1.854102 
z
" id="m47ac7b789a" style="stroke:#0000ff;stroke-linejoin:bevel;stroke-width:1.5;"/>
    </defs>
    <g>
     <use style="fill:none;stroke:#0000ff;stroke-linejoin:bevel;stroke-width:1.5;" x="50.355702" xlink:href="#m47ac7b789a" y="298.245375"/>
     <use style="fill:none;stroke:#0000ff;stroke-linejoin:bevel;stroke-width:1.5;" x="50.355702" xlink:href="#m47ac7b789a" y="225.918293"/>
     <use style="fill:none;stroke:#0000ff;stroke-linejoin:bevel;stroke-width:1.5;" x="198.670509" xlink:href="#m47ac7b789a" y="222.301939"/>
     <use style="fill:none;stroke:#0000ff;stroke-linejoin:bevel;stroke-width:1.5;" x="277.106235" xlink:href="#m47ac7b789a" y="205.770034"/>
     <use style="fill:none;stroke:#0000ff;stroke-linejoin:bevel;stroke-width:1.5;" x="277.106235" xlink:href="#m47ac7b789a" y="205.253412"/>
     <use style="fill:none;stroke:#0000ff;stroke-linejoin:bevel;stroke-width:1.5;" x="367.113325" xlink:href="#m47ac7b789a" y="205.253412"/>
    </g>
   </g>
   <g id="line2d_36"/>
   <g id="line2d_37">
    <path clip-path="url(#pfedc3ce5c1)" d="M 218.186363 221.785317 
" style="fill:none;stroke:#0000ff;stroke-linecap:square;stroke-width:1.5;"/>
    <defs>
     <path d="M -12 12 
L 12 -12 
M -12 -12 
L 12 12 
" id="mc9ee39dcf6" style="stroke:#0000ff;stroke-width:3;"/>
    </defs>
    <g clip-path="url(#pfedc3ce5c1)">
     <use style="fill:#0000ff;stroke:#0000ff;stroke-width:3;" x="218.186363" xlink:href="#mc9ee39dcf6" y="221.785317"/>
    </g>
   </g>
   <g id="line2d_38">
    <defs>
     <path d="M 0 1.5 
C 0.397805 1.5 0.77937 1.341951 1.06066 1.06066 
C 1.341951 0.77937 1.5 0.397805 1.5 0 
C 1.5 -0.397805 1.341951 -0.77937 1.06066 -1.06066 
C 0.77937 -1.341951 0.397805 -1.5 0 -1.5 
C -0.397805 -1.5 -0.77937 -1.341951 -1.06066 -1.06066 
C -1.341951 -0.77937 -1.5 -0.397805 -1.5 0 
C -1.5 0.397805 -1.341951 0.77937 -1.06066 1.06066 
C -0.77937 1.341951 -0.397805 1.5 0 1.5 
z
" id="m26a9eea4ee" style="stroke:#000000;"/>
    </defs>
    <g>
     <use style="stroke:#000000;" x="37.970468" xlink:href="#m26a9eea4ee" y="225.918293"/>
     <use style="stroke:#000000;" x="37.970468" xlink:href="#m26a9eea4ee" y="225.918293"/>
    </g>
   </g>
   <g id="line2d_39">
    <path d="M 37.970468 298.245375 
L 37.970468 225.918293 
L 367.113325 225.918293 
" style="fill:none;stroke:#000000;stroke-linecap:square;stroke-width:1.5;"/>
   </g>
   <g id="line2d_40">
    <defs>
     <path d="M 0 6 
C 1.591219 6 3.117479 5.367802 4.242641 4.242641 
C 5.367802 3.117479 6 1.591219 6 0 
C 6 -1.591219 5.367802 -3.117479 4.242641 -4.242641 
C 3.117479 -5.367802 1.591219 -6 0 -6 
C -1.591219 -6 -3.117479 -5.367802 -4.242641 -4.242641 
C -5.367802 -3.117479 -6 -1.591219 -6 0 
C -6 1.591219 -5.367802 3.117479 -4.242641 4.242641 
C -3.117479 5.367802 -1.591219 6 0 6 
z
" id="ma0eb996bf7" style="stroke:#000000;stroke-width:1.5;"/>
    </defs>
    <g>
     <use style="fill:none;stroke:#000000;stroke-width:1.5;" x="37.970468" xlink:href="#ma0eb996bf7" y="298.245375"/>
     <use style="fill:none;stroke:#000000;stroke-width:1.5;" x="37.970468" xlink:href="#ma0eb996bf7" y="298.245375"/>
     <use style="fill:none;stroke:#000000;stroke-width:1.5;" x="37.970468" xlink:href="#ma0eb996bf7" y="225.918293"/>
     <use style="fill:none;stroke:#000000;stroke-width:1.5;" x="37.970468" xlink:href="#ma0eb996bf7" y="225.918293"/>
     <use style="fill:none;stroke:#000000;stroke-width:1.5;" x="37.970468" xlink:href="#ma0eb996bf7" y="225.918293"/>
     <use style="fill:none;stroke:#000000;stroke-width:1.5;" x="367.113325" xlink:href="#ma0eb996bf7" y="225.918293"/>
    </g>
   </g>
   <g id="line2d_41"/>
   <g id="line2d_42">
    <path clip-path="url(#pfedc3ce5c1)" d="M 218.185618 225.918293 
" style="fill:none;stroke:#000000;stroke-linecap:square;stroke-width:1.5;"/>
    <defs>
     <path d="M -12 12 
L 12 -12 
M -12 -12 
L 12 12 
" id="m2734cdf340" style="stroke:#000000;stroke-width:3;"/>
    </defs>
    <g clip-path="url(#pfedc3ce5c1)">
     <use style="stroke:#000000;stroke-width:3;" x="218.185618" xlink:href="#m2734cdf340" y="225.918293"/>
    </g>
   </g>
   <g id="line2d_43">
    <defs>
     <path d="M 0 1.5 
C 0.397805 1.5 0.77937 1.341951 1.06066 1.06066 
C 1.341951 0.77937 1.5 0.397805 1.5 0 
C 1.5 -0.397805 1.341951 -0.77937 1.06066 -1.06066 
C 0.77937 -1.341951 0.397805 -1.5 0 -1.5 
C -0.397805 -1.5 -0.77937 -1.341951 -1.06066 -1.06066 
C -1.341951 -0.77937 -1.5 -0.397805 -1.5 0 
C -1.5 0.397805 -1.341951 0.77937 -1.06066 1.06066 
C -0.77937 1.341951 -0.397805 1.5 0 1.5 
z
" id="mb1d705c31b" style="stroke:#ff0000;"/>
    </defs>
    <g>
     <use style="fill:#ff0000;stroke:#ff0000;" x="25.585234" xlink:href="#mb1d705c31b" y="225.918293"/>
     <use style="fill:#ff0000;stroke:#ff0000;" x="25.585234" xlink:href="#mb1d705c31b" y="225.918293"/>
    </g>
   </g>
   <g id="line2d_44">
    <path d="M 25.585234 298.245375 
L 25.585234 225.918293 
L 367.113325 225.918293 
" style="fill:none;stroke:#ff0000;stroke-linecap:square;stroke-width:1.5;"/>
   </g>
   <g id="line2d_45">
    <defs>
     <path d="M -6 6 
L 6 6 
L 6 -6 
L -6 -6 
z
" id="m78d959021b" style="stroke:#ff0000;stroke-linejoin:miter;stroke-width:1.5;"/>
    </defs>
    <g>
     <use style="fill:none;stroke:#ff0000;stroke-linejoin:miter;stroke-width:1.5;" x="25.585234" xlink:href="#m78d959021b" y="298.245375"/>
     <use style="fill:none;stroke:#ff0000;stroke-linejoin:miter;stroke-width:1.5;" x="25.585234" xlink:href="#m78d959021b" y="298.245375"/>
     <use style="fill:none;stroke:#ff0000;stroke-linejoin:miter;stroke-width:1.5;" x="25.585234" xlink:href="#m78d959021b" y="225.918293"/>
     <use style="fill:none;stroke:#ff0000;stroke-linejoin:miter;stroke-width:1.5;" x="25.585234" xlink:href="#m78d959021b" y="225.918293"/>
     <use style="fill:none;stroke:#ff0000;stroke-linejoin:miter;stroke-width:1.5;" x="25.585234" xlink:href="#m78d959021b" y="225.918293"/>
     <use style="fill:none;stroke:#ff0000;stroke-linejoin:miter;stroke-width:1.5;" x="367.113325" xlink:href="#m78d959021b" y="225.918293"/>
    </g>
   </g>
   <g id="line2d_46"/>
   <g id="line2d_47">
    <path clip-path="url(#pfedc3ce5c1)" d="M 218.185246 225.918293 
" style="fill:none;stroke:#ff0000;stroke-linecap:square;stroke-width:1.5;"/>
    <defs>
     <path d="M -12 12 
L 12 -12 
M -12 -12 
L 12 12 
" id="m7336e02339" style="stroke:#ff0000;stroke-width:3;"/>
    </defs>
    <g clip-path="url(#pfedc3ce5c1)">
     <use style="fill:#ff0000;stroke:#ff0000;stroke-width:3;" x="218.185246" xlink:href="#m7336e02339" y="225.918293"/>
    </g>
   </g>
   <g id="line2d_48">
    <defs>
     <path d="M 0 1.5 
C 0.397805 1.5 0.77937 1.341951 1.06066 1.06066 
C 1.341951 0.77937 1.5 0.397805 1.5 0 
C 1.5 -0.397805 1.341951 -0.77937 1.06066 -1.06066 
C 0.77937 -1.341951 0.397805 -1.5 0 -1.5 
C -0.397805 -1.5 -0.77937 -1.341951 -1.06066 -1.06066 
C -1.341951 -0.77937 -1.5 -0.397805 -1.5 0 
C -1.5 0.397805 -1.341951 0.77937 -1.06066 1.06066 
C -0.77937 1.341951 -0.397805 1.5 0 1.5 
z
" id="m9bc1288e0e" style="stroke:#bf00bf;"/>
    </defs>
    <g>
     <use style="fill:#bf00bf;stroke:#bf00bf;" x="13.2" xlink:href="#m9bc1288e0e" y="225.918293"/>
     <use style="fill:#bf00bf;stroke:#bf00bf;" x="13.2" xlink:href="#m9bc1288e0e" y="225.918293"/>
    </g>
   </g>
   <g id="line2d_49">
    <path d="M 13.2 298.245375 
L 13.2 225.918293 
L 367.113325 225.918293 
" style="fill:none;stroke:#bf00bf;stroke-linecap:square;stroke-width:1.5;"/>
   </g>
   <g id="line2d_50">
    <defs>
     <path d="M -0 8.485281 
L 8.485281 0 
L 0 -8.485281 
L -8.485281 -0 
z
" id="ma898b2f379" style="stroke:#bf00bf;stroke-linejoin:miter;stroke-width:1.5;"/>
    </defs>
    <g>
     <use style="fill:none;stroke:#bf00bf;stroke-linejoin:miter;stroke-width:1.5;" x="13.2" xlink:href="#ma898b2f379" y="298.245375"/>
     <use style="fill:none;stroke:#bf00bf;stroke-linejoin:miter;stroke-width:1.5;" x="13.2" xlink:href="#ma898b2f379" y="298.245375"/>
     <use style="fill:none;stroke:#bf00bf;stroke-linejoin:miter;stroke-width:1.5;" x="13.2" xlink:href="#ma898b2f379" y="225.918293"/>
     <use style="fill:none;stroke:#bf00bf;stroke-linejoin:miter;stroke-width:1.5;" x="13.2" xlink:href="#ma898b2f379" y="225.918293"/>
     <use style="fill:none;stroke:#bf00bf;stroke-linejoin:miter;stroke-width:1.5;" x="13.2" xlink:href="#ma898b2f379" y="225.918293"/>
     <use style="fill:none;stroke:#bf00bf;stroke-linejoin:miter;stroke-width:1.5;" x="367.113325" xlink:href="#ma898b2f379" y="225.918293"/>
    </g>
   </g>
   <g id="line2d_51"/>
   <g id="line2d_52">
    <path clip-path="url(#pfedc3ce5c1)" d="M 218.18506 225.918293 
" style="fill:none;stroke:#bf00bf;stroke-linecap:square;stroke-width:1.5;"/>
    <defs>
     <path d="M -12 12 
L 12 -12 
M -12 -12 
L 12 12 
" id="mfc0179e110" style="stroke:#bf00bf;stroke-width:3;"/>
    </defs>
    <g clip-path="url(#pfedc3ce5c1)">
     <use style="fill:#bf00bf;stroke:#bf00bf;stroke-width:3;" x="218.18506" xlink:href="#mfc0179e110" y="225.918293"/>
    </g>
   </g>
   <g id="line2d_53">
    <path d="M 367.113325 225.918293 
L 398.793325 292.97583 
" style="fill:none;stroke:#000000;stroke-linecap:square;stroke-width:1.5;"/>
    <g>
     <use style="fill:none;stroke:#000000;stroke-width:1.5;" x="367.113325" xlink:href="#ma0eb996bf7" y="225.918293"/>
     <use style="fill:none;stroke:#000000;stroke-width:1.5;" x="398.793325" xlink:href="#ma0eb996bf7" y="292.97583"/>
    </g>
   </g>
   <g id="line2d_54">
    <path d="M 367.113325 225.918293 
L 398.793325 242.388203 
" style="fill:none;stroke:#ff0000;stroke-linecap:square;stroke-width:1.5;"/>
    <g>
     <use style="fill:none;stroke:#ff0000;stroke-linejoin:miter;stroke-width:1.5;" x="367.113325" xlink:href="#m78d959021b" y="225.918293"/>
     <use style="fill:none;stroke:#ff0000;stroke-linejoin:miter;stroke-width:1.5;" x="398.793325" xlink:href="#m78d959021b" y="242.388203"/>
    </g>
   </g>
   <g id="line2d_55">
    <path d="M 367.113325 225.918293 
L 398.793325 191.800575 
" style="fill:none;stroke:#bf00bf;stroke-linecap:square;stroke-width:1.5;"/>
    <g>
     <use style="fill:none;stroke:#bf00bf;stroke-linejoin:miter;stroke-width:1.5;" x="367.113325" xlink:href="#ma898b2f379" y="225.918293"/>
     <use style="fill:none;stroke:#bf00bf;stroke-linejoin:miter;stroke-width:1.5;" x="398.793325" xlink:href="#ma898b2f379" y="191.800575"/>
    </g>
   </g>
   <g id="line2d_56">
    <path d="M 367.113325 205.253412 
L 398.793325 141.212947 
" style="fill:none;stroke:#0000ff;stroke-linecap:square;stroke-width:1.5;"/>
    <g>
     <use style="fill:none;stroke:#0000ff;stroke-linejoin:bevel;stroke-width:1.5;" x="367.113325" xlink:href="#m47ac7b789a" y="205.253412"/>
     <use style="fill:none;stroke:#0000ff;stroke-linejoin:bevel;stroke-width:1.5;" x="398.793325" xlink:href="#m47ac7b789a" y="141.212947"/>
    </g>
   </g>
   <g id="line2d_57">
    <path d="M 367.113325 34.768147 
L 398.793325 90.62532 
" style="fill:none;stroke:#00bfbf;stroke-linecap:square;stroke-width:1.5;"/>
    <g>
     <use style="fill:none;stroke:#00bfbf;stroke-width:1.5;" x="367.113325" xlink:href="#m665b392313" y="34.768147"/>
     <use style="fill:none;stroke:#00bfbf;stroke-width:1.5;" x="398.793325" xlink:href="#m665b392313" y="90.62532"/>
    </g>
   </g>
   <g id="line2d_58">
    <path d="M 367.113325 34.768147 
L 398.793325 40.037692 
" style="fill:none;stroke:#008000;stroke-linecap:square;stroke-width:1.5;"/>
    <g>
     <use style="fill:none;stroke:#008000;stroke-linejoin:miter;stroke-width:1.5;" x="367.113325" xlink:href="#mb8b77dad98" y="34.768147"/>
     <use style="fill:none;stroke:#008000;stroke-linejoin:miter;stroke-width:1.5;" x="398.793325" xlink:href="#mb8b77dad98" y="40.037692"/>
    </g>
   </g>
   <g id="line2d_59">
    <path d="M 367.113325 298.245375 
L 367.113325 34.768147 
" style="fill:none;stroke:#000000;stroke-linecap:square;stroke-width:1.5;"/>
   </g>
   <g id="patch_3">
    <path d="M 79.113325 298.245375 
L 79.113325 32.133375 
" style="fill:none;stroke:#000000;stroke-linecap:square;stroke-linejoin:miter;stroke-width:0.8;"/>
   </g>
   <g id="patch_4">
    <path d="M 436.233325 298.245375 
L 436.233325 32.133375 
" style="fill:none;stroke:#000000;stroke-linecap:square;stroke-linejoin:miter;stroke-width:0.8;"/>
   </g>
   <g id="patch_5">
    <path d="M 79.113325 298.245375 
L 436.233325 298.245375 
" style="fill:none;stroke:#000000;stroke-linecap:square;stroke-linejoin:miter;stroke-width:0.8;"/>
   </g>
   <g id="patch_6">
    <path d="M 79.113325 32.133375 
L 436.233325 32.133375 
" style="fill:none;stroke:#000000;stroke-linecap:square;stroke-linejoin:miter;stroke-width:0.8;"/>
   </g>
   <g id="text_14">
    <!-- 10-D -->
    <defs>
     <path d="M 19.671875 64.796875 
L 19.671875 8.109375 
L 31.59375 8.109375 
Q 46.6875 8.109375 53.6875 14.9375 
Q 60.6875 21.78125 60.6875 36.53125 
Q 60.6875 51.171875 53.6875 57.984375 
Q 46.6875 64.796875 31.59375 64.796875 
z
M 9.8125 72.90625 
L 30.078125 72.90625 
Q 51.265625 72.90625 61.171875 64.09375 
Q 71.09375 55.28125 71.09375 36.53125 
Q 71.09375 17.671875 61.125 8.828125 
Q 51.171875 0 30.078125 0 
L 9.8125 0 
z
" id="DejaVuSans-44"/>
    </defs>
    <g transform="translate(404.553325 297.114893)scale(0.15 -0.15)">
     <use xlink:href="#DejaVuSans-31"/>
     <use x="63.623047" xlink:href="#DejaVuSans-30"/>
     <use x="127.246094" xlink:href="#DejaVuSans-2d"/>
     <use x="163.330078" xlink:href="#DejaVuSans-44"/>
    </g>
   </g>
   <g id="text_15">
    <!-- 20-D -->
    <g transform="translate(404.553325 246.527265)scale(0.15 -0.15)">
     <use xlink:href="#DejaVuSans-32"/>
     <use x="63.623047" xlink:href="#DejaVuSans-30"/>
     <use x="127.246094" xlink:href="#DejaVuSans-2d"/>
     <use x="163.330078" xlink:href="#DejaVuSans-44"/>
    </g>
   </g>
   <g id="text_16">
    <!-- 40-D -->
    <g transform="translate(404.553325 195.939637)scale(0.15 -0.15)">
     <use xlink:href="#DejaVuSans-34"/>
     <use x="63.623047" xlink:href="#DejaVuSans-30"/>
     <use x="127.246094" xlink:href="#DejaVuSans-2d"/>
     <use x="163.330078" xlink:href="#DejaVuSans-44"/>
    </g>
   </g>
   <g id="text_17">
    <!-- 5-D -->
    <defs>
     <path d="M 10.796875 72.90625 
L 49.515625 72.90625 
L 49.515625 64.59375 
L 19.828125 64.59375 
L 19.828125 46.734375 
Q 21.96875 47.46875 24.109375 47.828125 
Q 26.265625 48.1875 28.421875 48.1875 
Q 40.625 48.1875 47.75 41.5 
Q 54.890625 34.8125 54.890625 23.390625 
Q 54.890625 11.625 47.5625 5.09375 
Q 40.234375 -1.421875 26.90625 -1.421875 
Q 22.3125 -1.421875 17.546875 -0.640625 
Q 12.796875 0.140625 7.71875 1.703125 
L 7.71875 11.625 
Q 12.109375 9.234375 16.796875 8.0625 
Q 21.484375 6.890625 26.703125 6.890625 
Q 35.15625 6.890625 40.078125 11.328125 
Q 45.015625 15.765625 45.015625 23.390625 
Q 45.015625 31 40.078125 35.4375 
Q 35.15625 39.890625 26.703125 39.890625 
Q 22.75 39.890625 18.8125 39.015625 
Q 14.890625 38.140625 10.796875 36.28125 
z
" id="DejaVuSans-35"/>
    </defs>
    <g transform="translate(404.553325 145.35201)scale(0.15 -0.15)">
     <use xlink:href="#DejaVuSans-35"/>
     <use x="63.623047" xlink:href="#DejaVuSans-2d"/>
     <use x="99.707031" xlink:href="#DejaVuSans-44"/>
    </g>
   </g>
   <g id="text_18">
    <!-- 2-D -->
    <g transform="translate(404.553325 94.764382)scale(0.15 -0.15)">
     <use xlink:href="#DejaVuSans-32"/>
     <use x="63.623047" xlink:href="#DejaVuSans-2d"/>
     <use x="99.707031" xlink:href="#DejaVuSans-44"/>
    </g>
   </g>
   <g id="text_19">
    <!-- 3-D -->
    <defs>
     <path d="M 40.578125 39.3125 
Q 47.65625 37.796875 51.625 33 
Q 55.609375 28.21875 55.609375 21.1875 
Q 55.609375 10.40625 48.1875 4.484375 
Q 40.765625 -1.421875 27.09375 -1.421875 
Q 22.515625 -1.421875 17.65625 -0.515625 
Q 12.796875 0.390625 7.625 2.203125 
L 7.625 11.71875 
Q 11.71875 9.328125 16.59375 8.109375 
Q 21.484375 6.890625 26.8125 6.890625 
Q 36.078125 6.890625 40.9375 10.546875 
Q 45.796875 14.203125 45.796875 21.1875 
Q 45.796875 27.640625 41.28125 31.265625 
Q 36.765625 34.90625 28.71875 34.90625 
L 20.21875 34.90625 
L 20.21875 43.015625 
L 29.109375 43.015625 
Q 36.375 43.015625 40.234375 45.921875 
Q 44.09375 48.828125 44.09375 54.296875 
Q 44.09375 59.90625 40.109375 62.90625 
Q 36.140625 65.921875 28.71875 65.921875 
Q 24.65625 65.921875 20.015625 65.03125 
Q 15.375 64.15625 9.8125 62.3125 
L 9.8125 71.09375 
Q 15.4375 72.65625 20.34375 73.4375 
Q 25.25 74.21875 29.59375 74.21875 
Q 40.828125 74.21875 47.359375 69.109375 
Q 53.90625 64.015625 53.90625 55.328125 
Q 53.90625 49.265625 50.4375 45.09375 
Q 46.96875 40.921875 40.578125 39.3125 
z
" id="DejaVuSans-33"/>
    </defs>
    <g transform="translate(404.553325 44.176754)scale(0.15 -0.15)">
     <use xlink:href="#DejaVuSans-33"/>
     <use x="63.623047" xlink:href="#DejaVuSans-2d"/>
     <use x="99.707031" xlink:href="#DejaVuSans-44"/>
    </g>
   </g>
   <g id="text_20">
    <!-- bbob - f19 -->
    <defs>
     <path d="M 48.6875 27.296875 
Q 48.6875 37.203125 44.609375 42.84375 
Q 40.53125 48.484375 33.40625 48.484375 
Q 26.265625 48.484375 22.1875 42.84375 
Q 18.109375 37.203125 18.109375 27.296875 
Q 18.109375 17.390625 22.1875 11.75 
Q 26.265625 6.109375 33.40625 6.109375 
Q 40.53125 6.109375 44.609375 11.75 
Q 48.6875 17.390625 48.6875 27.296875 
z
M 18.109375 46.390625 
Q 20.953125 51.265625 25.265625 53.625 
Q 29.59375 56 35.59375 56 
Q 45.5625 56 51.78125 48.09375 
Q 58.015625 40.1875 58.015625 27.296875 
Q 58.015625 14.40625 51.78125 6.484375 
Q 45.5625 -1.421875 35.59375 -1.421875 
Q 29.59375 -1.421875 25.265625 0.953125 
Q 20.953125 3.328125 18.109375 8.203125 
L 18.109375 0 
L 9.078125 0 
L 9.078125 75.984375 
L 18.109375 75.984375 
z
" id="DejaVuSans-62"/>
     <path d="M 10.984375 1.515625 
L 10.984375 10.5 
Q 14.703125 8.734375 18.5 7.8125 
Q 22.3125 6.890625 25.984375 6.890625 
Q 35.75 6.890625 40.890625 13.453125 
Q 46.046875 20.015625 46.78125 33.40625 
Q 43.953125 29.203125 39.59375 26.953125 
Q 35.25 24.703125 29.984375 24.703125 
Q 19.046875 24.703125 12.671875 31.3125 
Q 6.296875 37.9375 6.296875 49.421875 
Q 6.296875 60.640625 12.9375 67.421875 
Q 19.578125 74.21875 30.609375 74.21875 
Q 43.265625 74.21875 49.921875 64.515625 
Q 56.59375 54.828125 56.59375 36.375 
Q 56.59375 19.140625 48.40625 8.859375 
Q 40.234375 -1.421875 26.421875 -1.421875 
Q 22.703125 -1.421875 18.890625 -0.6875 
Q 15.09375 0.046875 10.984375 1.515625 
z
M 30.609375 32.421875 
Q 37.25 32.421875 41.125 36.953125 
Q 45.015625 41.5 45.015625 49.421875 
Q 45.015625 57.28125 41.125 61.84375 
Q 37.25 66.40625 30.609375 66.40625 
Q 23.96875 66.40625 20.09375 61.84375 
Q 16.21875 57.28125 16.21875 49.421875 
Q 16.21875 41.5 20.09375 36.953125 
Q 23.96875 32.421875 30.609375 32.421875 
z
" id="DejaVuSans-39"/>
    </defs>
    <g transform="translate(82.684525 50.114612)scale(0.1666 -0.1666)">
     <use xlink:href="#DejaVuSans-62"/>
     <use x="63.476562" xlink:href="#DejaVuSans-62"/>
     <use x="126.953125" xlink:href="#DejaVuSans-6f"/>
     <use x="188.134766" xlink:href="#DejaVuSans-62"/>
     <use x="251.611328" xlink:href="#DejaVuSans-20"/>
     <use x="283.398438" xlink:href="#DejaVuSans-2d"/>
     <use x="319.482422" xlink:href="#DejaVuSans-20"/>
     <use x="351.269531" xlink:href="#DejaVuSans-66"/>
     <use x="386.474609" xlink:href="#DejaVuSans-31"/>
     <use x="450.097656" xlink:href="#DejaVuSans-39"/>
    </g>
    <!-- 51 targets in 100..1e-08 -->
    <g transform="translate(82.684525 68.770168)scale(0.1666 -0.1666)">
     <use xlink:href="#DejaVuSans-35"/>
     <use x="63.623047" xlink:href="#DejaVuSans-31"/>
     <use x="127.246094" xlink:href="#DejaVuSans-20"/>
     <use x="159.033203" xlink:href="#DejaVuSans-74"/>
     <use x="198.242188" xlink:href="#DejaVuSans-61"/>
     <use x="259.521484" xlink:href="#DejaVuSans-72"/>
     <use x="300.619141" xlink:href="#DejaVuSans-67"/>
     <use x="364.095703" xlink:href="#DejaVuSans-65"/>
     <use x="425.619141" xlink:href="#DejaVuSans-74"/>
     <use x="464.828125" xlink:href="#DejaVuSans-73"/>
     <use x="516.927734" xlink:href="#DejaVuSans-20"/>
     <use x="548.714844" xlink:href="#DejaVuSans-69"/>
     <use x="576.498047" xlink:href="#DejaVuSans-6e"/>
     <use x="639.876953" xlink:href="#DejaVuSans-20"/>
     <use x="671.664062" xlink:href="#DejaVuSans-31"/>
     <use x="735.287109" xlink:href="#DejaVuSans-30"/>
     <use x="798.910156" xlink:href="#DejaVuSans-30"/>
     <use x="862.533203" xlink:href="#DejaVuSans-2e"/>
     <use x="894.320312" xlink:href="#DejaVuSans-2e"/>
     <use x="926.107422" xlink:href="#DejaVuSans-31"/>
     <use x="989.730469" xlink:href="#DejaVuSans-65"/>
     <use x="1051.253906" xlink:href="#DejaVuSans-2d"/>
     <use x="1087.337891" xlink:href="#DejaVuSans-30"/>
     <use x="1150.960938" xlink:href="#DejaVuSans-38"/>
    </g>
    <!-- 15 instances -->
    <g transform="translate(82.684525 87.425723)scale(0.1666 -0.1666)">
     <use xlink:href="#DejaVuSans-31"/>
     <use x="63.623047" xlink:href="#DejaVuSans-35"/>
     <use x="127.246094" xlink:href="#DejaVuSans-20"/>
     <use x="159.033203" xlink:href="#DejaVuSans-69"/>
     <use x="186.816406" xlink:href="#DejaVuSans-6e"/>
     <use x="250.195312" xlink:href="#DejaVuSans-73"/>
     <use x="302.294922" xlink:href="#DejaVuSans-74"/>
     <use x="341.503906" xlink:href="#DejaVuSans-61"/>
     <use x="402.783203" xlink:href="#DejaVuSans-6e"/>
     <use x="466.162109" xlink:href="#DejaVuSans-63"/>
     <use x="521.142578" xlink:href="#DejaVuSans-65"/>
     <use x="582.666016" xlink:href="#DejaVuSans-73"/>
    </g>
   </g>
   <g id="text_21">
    <!-- v2.1 -->
    <g style="fill:#808080;" transform="translate(246.762388 293.504568)scale(0.1 -0.1)">
     <use xlink:href="#DejaVuSans-76"/>
     <use x="59.179688" xlink:href="#DejaVuSans-32"/>
     <use x="122.802734" xlink:href="#DejaVuSans-2e"/>
     <use x="154.589844" xlink:href="#DejaVuSans-31"/>
    </g>
   </g>
   <g id="text_22">
    <!-- 19 Griewank-Rosenbrock F8F2 -->
    <defs>
     <path d="M 59.515625 10.40625 
L 59.515625 29.984375 
L 43.40625 29.984375 
L 43.40625 38.09375 
L 69.28125 38.09375 
L 69.28125 6.78125 
Q 63.578125 2.734375 56.6875 0.65625 
Q 49.8125 -1.421875 42 -1.421875 
Q 24.90625 -1.421875 15.25 8.5625 
Q 5.609375 18.5625 5.609375 36.375 
Q 5.609375 54.25 15.25 64.234375 
Q 24.90625 74.21875 42 74.21875 
Q 49.125 74.21875 55.546875 72.453125 
Q 61.96875 70.703125 67.390625 67.28125 
L 67.390625 56.78125 
Q 61.921875 61.421875 55.765625 63.765625 
Q 49.609375 66.109375 42.828125 66.109375 
Q 29.4375 66.109375 22.71875 58.640625 
Q 16.015625 51.171875 16.015625 36.375 
Q 16.015625 21.625 22.71875 14.15625 
Q 29.4375 6.6875 42.828125 6.6875 
Q 48.046875 6.6875 52.140625 7.59375 
Q 56.25 8.5 59.515625 10.40625 
z
" id="DejaVuSans-47"/>
     <path d="M 4.203125 54.6875 
L 13.1875 54.6875 
L 24.421875 12.015625 
L 35.59375 54.6875 
L 46.1875 54.6875 
L 57.421875 12.015625 
L 68.609375 54.6875 
L 77.59375 54.6875 
L 63.28125 0 
L 52.6875 0 
L 40.921875 44.828125 
L 29.109375 0 
L 18.5 0 
z
" id="DejaVuSans-77"/>
     <path d="M 9.078125 75.984375 
L 18.109375 75.984375 
L 18.109375 31.109375 
L 44.921875 54.6875 
L 56.390625 54.6875 
L 27.390625 29.109375 
L 57.625 0 
L 45.90625 0 
L 18.109375 26.703125 
L 18.109375 0 
L 9.078125 0 
z
" id="DejaVuSans-6b"/>
     <path d="M 44.390625 34.1875 
Q 47.5625 33.109375 50.5625 29.59375 
Q 53.5625 26.078125 56.59375 19.921875 
L 66.609375 0 
L 56 0 
L 46.6875 18.703125 
Q 43.0625 26.03125 39.671875 28.421875 
Q 36.28125 30.8125 30.421875 30.8125 
L 19.671875 30.8125 
L 19.671875 0 
L 9.8125 0 
L 9.8125 72.90625 
L 32.078125 72.90625 
Q 44.578125 72.90625 50.734375 67.671875 
Q 56.890625 62.453125 56.890625 51.90625 
Q 56.890625 45.015625 53.6875 40.46875 
Q 50.484375 35.9375 44.390625 34.1875 
z
M 19.671875 64.796875 
L 19.671875 38.921875 
L 32.078125 38.921875 
Q 39.203125 38.921875 42.84375 42.21875 
Q 46.484375 45.515625 46.484375 51.90625 
Q 46.484375 58.296875 42.84375 61.546875 
Q 39.203125 64.796875 32.078125 64.796875 
z
" id="DejaVuSans-52"/>
     <path d="M 9.8125 72.90625 
L 51.703125 72.90625 
L 51.703125 64.59375 
L 19.671875 64.59375 
L 19.671875 43.109375 
L 48.578125 43.109375 
L 48.578125 34.8125 
L 19.671875 34.8125 
L 19.671875 0 
L 9.8125 0 
z
" id="DejaVuSans-46"/>
    </defs>
    <g transform="translate(74.3527 26.133375)scale(0.24 -0.24)">
     <use xlink:href="#DejaVuSans-31"/>
     <use x="63.623047" xlink:href="#DejaVuSans-39"/>
     <use x="127.246094" xlink:href="#DejaVuSans-20"/>
     <use x="159.033203" xlink:href="#DejaVuSans-47"/>
     <use x="236.523438" xlink:href="#DejaVuSans-72"/>
     <use x="277.636719" xlink:href="#DejaVuSans-69"/>
     <use x="305.419922" xlink:href="#DejaVuSans-65"/>
     <use x="366.943359" xlink:href="#DejaVuSans-77"/>
     <use x="448.730469" xlink:href="#DejaVuSans-61"/>
     <use x="510.009766" xlink:href="#DejaVuSans-6e"/>
     <use x="573.388672" xlink:href="#DejaVuSans-6b"/>
     <use x="631.298828" xlink:href="#DejaVuSans-2d"/>
     <use x="667.382812" xlink:href="#DejaVuSans-52"/>
     <use x="736.802734" xlink:href="#DejaVuSans-6f"/>
     <use x="797.984375" xlink:href="#DejaVuSans-73"/>
     <use x="850.083984" xlink:href="#DejaVuSans-65"/>
     <use x="911.607422" xlink:href="#DejaVuSans-6e"/>
     <use x="974.986328" xlink:href="#DejaVuSans-62"/>
     <use x="1038.462891" xlink:href="#DejaVuSans-72"/>
     <use x="1079.544922" xlink:href="#DejaVuSans-6f"/>
     <use x="1140.726562" xlink:href="#DejaVuSans-63"/>
     <use x="1195.707031" xlink:href="#DejaVuSans-6b"/>
     <use x="1253.617188" xlink:href="#DejaVuSans-20"/>
     <use x="1285.404297" xlink:href="#DejaVuSans-46"/>
     <use x="1342.923828" xlink:href="#DejaVuSans-38"/>
     <use x="1406.546875" xlink:href="#DejaVuSans-46"/>
     <use x="1464.066406" xlink:href="#DejaVuSans-32"/>
    </g>
   </g>
  </g>
 </g>
 <defs>
  <clipPath id="pfedc3ce5c1">
   <rect height="266.112" width="357.12" x="79.113325" y="32.133375"/>
  </clipPath>
 </defs>
</svg>
