<?xml version="1.0" encoding="utf-8" standalone="no"?>
<!DOCTYPE svg PUBLIC "-//W3C//DTD SVG 1.1//EN"
  "http://www.w3.org/Graphics/SVG/1.1/DTD/svg11.dtd">
<!-- Created with matplotlib (http://matplotlib.org/) -->
<svg height="353pt" version="1.1" viewBox="0 0 439 353" width="439pt" xmlns="http://www.w3.org/2000/svg" xmlns:xlink="http://www.w3.org/1999/xlink">
 <defs>
  <style type="text/css">
*{stroke-linecap:butt;stroke-linejoin:round;}
  </style>
 </defs>
 <g id="figure_1">
  <g id="patch_1">
   <path d="M 0 353.22225 
L 439.489219 353.22225 
L 439.489219 0 
L 0 0 
z
" style="fill:#ffffff;"/>
  </g>
  <g id="axes_1">
   <g id="patch_2">
    <path d="M 70.8 298.245375 
L 427.92 298.245375 
L 427.92 32.133375 
L 70.8 32.133375 
z
" style="fill:#ffffff;"/>
   </g>
   <g id="matplotlib.axis_1">
    <g id="xtick_1">
     <g id="line2d_1">
      <path clip-path="url(#p2a1c2fd8ad)" d="M 70.8 298.245375 
L 70.8 32.133375 
" style="fill:none;stroke:#b0b0b0;stroke-linecap:square;stroke-width:0.8;"/>
     </g>
     <g id="line2d_2">
      <defs>
       <path d="M 0 0 
L 0 3.5 
" id="me017d42f2e" style="stroke:#000000;stroke-width:0.8;"/>
      </defs>
      <g>
       <use style="stroke:#000000;stroke-width:0.8;" x="70.8" xlink:href="#me017d42f2e" y="298.245375"/>
      </g>
     </g>
     <g id="text_1">
      <!-- 0 -->
      <defs>
       <path d="M 31.78125 66.40625 
Q 24.171875 66.40625 20.328125 58.90625 
Q 16.5 51.421875 16.5 36.375 
Q 16.5 21.390625 20.328125 13.890625 
Q 24.171875 6.390625 31.78125 6.390625 
Q 39.453125 6.390625 43.28125 13.890625 
Q 47.125 21.390625 47.125 36.375 
Q 47.125 51.421875 43.28125 58.90625 
Q 39.453125 66.40625 31.78125 66.40625 
z
M 31.78125 74.21875 
Q 44.046875 74.21875 50.515625 64.515625 
Q 56.984375 54.828125 56.984375 36.375 
Q 56.984375 17.96875 50.515625 8.265625 
Q 44.046875 -1.421875 31.78125 -1.421875 
Q 19.53125 -1.421875 13.0625 8.265625 
Q 6.59375 17.96875 6.59375 36.375 
Q 6.59375 54.828125 13.0625 64.515625 
Q 19.53125 74.21875 31.78125 74.21875 
z
" id="DejaVuSans-30"/>
      </defs>
      <g transform="translate(64.4375 320.44225)scale(0.2 -0.2)">
       <use xlink:href="#DejaVuSans-30"/>
      </g>
     </g>
    </g>
    <g id="xtick_2">
     <g id="line2d_3">
      <path clip-path="url(#p2a1c2fd8ad)" d="M 153.085714 298.245375 
L 153.085714 32.133375 
" style="fill:none;stroke:#b0b0b0;stroke-linecap:square;stroke-width:0.8;"/>
     </g>
     <g id="line2d_4">
      <g>
       <use style="stroke:#000000;stroke-width:0.8;" x="153.085714" xlink:href="#me017d42f2e" y="298.245375"/>
      </g>
     </g>
     <g id="text_2">
      <!-- 2 -->
      <defs>
       <path d="M 19.1875 8.296875 
L 53.609375 8.296875 
L 53.609375 0 
L 7.328125 0 
L 7.328125 8.296875 
Q 12.9375 14.109375 22.625 23.890625 
Q 32.328125 33.6875 34.8125 36.53125 
Q 39.546875 41.84375 41.421875 45.53125 
Q 43.3125 49.21875 43.3125 52.78125 
Q 43.3125 58.59375 39.234375 62.25 
Q 35.15625 65.921875 28.609375 65.921875 
Q 23.96875 65.921875 18.8125 64.3125 
Q 13.671875 62.703125 7.8125 59.421875 
L 7.8125 69.390625 
Q 13.765625 71.78125 18.9375 73 
Q 24.125 74.21875 28.421875 74.21875 
Q 39.75 74.21875 46.484375 68.546875 
Q 53.21875 62.890625 53.21875 53.421875 
Q 53.21875 48.921875 51.53125 44.890625 
Q 49.859375 40.875 45.40625 35.40625 
Q 44.1875 33.984375 37.640625 27.21875 
Q 31.109375 20.453125 19.1875 8.296875 
z
" id="DejaVuSans-32"/>
      </defs>
      <g transform="translate(146.723214 320.44225)scale(0.2 -0.2)">
       <use xlink:href="#DejaVuSans-32"/>
      </g>
     </g>
    </g>
    <g id="xtick_3">
     <g id="line2d_5">
      <path clip-path="url(#p2a1c2fd8ad)" d="M 235.371429 298.245375 
L 235.371429 32.133375 
" style="fill:none;stroke:#b0b0b0;stroke-linecap:square;stroke-width:0.8;"/>
     </g>
     <g id="line2d_6">
      <g>
       <use style="stroke:#000000;stroke-width:0.8;" x="235.371429" xlink:href="#me017d42f2e" y="298.245375"/>
      </g>
     </g>
     <g id="text_3">
      <!-- 4 -->
      <defs>
       <path d="M 37.796875 64.3125 
L 12.890625 25.390625 
L 37.796875 25.390625 
z
M 35.203125 72.90625 
L 47.609375 72.90625 
L 47.609375 25.390625 
L 58.015625 25.390625 
L 58.015625 17.1875 
L 47.609375 17.1875 
L 47.609375 0 
L 37.796875 0 
L 37.796875 17.1875 
L 4.890625 17.1875 
L 4.890625 26.703125 
z
" id="DejaVuSans-34"/>
      </defs>
      <g transform="translate(229.008929 320.44225)scale(0.2 -0.2)">
       <use xlink:href="#DejaVuSans-34"/>
      </g>
     </g>
    </g>
    <g id="xtick_4">
     <g id="line2d_7">
      <path clip-path="url(#p2a1c2fd8ad)" d="M 317.657143 298.245375 
L 317.657143 32.133375 
" style="fill:none;stroke:#b0b0b0;stroke-linecap:square;stroke-width:0.8;"/>
     </g>
     <g id="line2d_8">
      <g>
       <use style="stroke:#000000;stroke-width:0.8;" x="317.657143" xlink:href="#me017d42f2e" y="298.245375"/>
      </g>
     </g>
     <g id="text_4">
      <!-- 6 -->
      <defs>
       <path d="M 33.015625 40.375 
Q 26.375 40.375 22.484375 35.828125 
Q 18.609375 31.296875 18.609375 23.390625 
Q 18.609375 15.53125 22.484375 10.953125 
Q 26.375 6.390625 33.015625 6.390625 
Q 39.65625 6.390625 43.53125 10.953125 
Q 47.40625 15.53125 47.40625 23.390625 
Q 47.40625 31.296875 43.53125 35.828125 
Q 39.65625 40.375 33.015625 40.375 
z
M 52.59375 71.296875 
L 52.59375 62.3125 
Q 48.875 64.0625 45.09375 64.984375 
Q 41.3125 65.921875 37.59375 65.921875 
Q 27.828125 65.921875 22.671875 59.328125 
Q 17.53125 52.734375 16.796875 39.40625 
Q 19.671875 43.65625 24.015625 45.921875 
Q 28.375 48.1875 33.59375 48.1875 
Q 44.578125 48.1875 50.953125 41.515625 
Q 57.328125 34.859375 57.328125 23.390625 
Q 57.328125 12.15625 50.6875 5.359375 
Q 44.046875 -1.421875 33.015625 -1.421875 
Q 20.359375 -1.421875 13.671875 8.265625 
Q 6.984375 17.96875 6.984375 36.375 
Q 6.984375 53.65625 15.1875 63.9375 
Q 23.390625 74.21875 37.203125 74.21875 
Q 40.921875 74.21875 44.703125 73.484375 
Q 48.484375 72.75 52.59375 71.296875 
z
" id="DejaVuSans-36"/>
      </defs>
      <g transform="translate(311.294643 320.44225)scale(0.2 -0.2)">
       <use xlink:href="#DejaVuSans-36"/>
      </g>
     </g>
    </g>
    <g id="xtick_5">
     <g id="line2d_9">
      <path clip-path="url(#p2a1c2fd8ad)" d="M 399.942857 298.245375 
L 399.942857 32.133375 
" style="fill:none;stroke:#b0b0b0;stroke-linecap:square;stroke-width:0.8;"/>
     </g>
     <g id="line2d_10">
      <g>
       <use style="stroke:#000000;stroke-width:0.8;" x="399.942857" xlink:href="#me017d42f2e" y="298.245375"/>
      </g>
     </g>
     <g id="text_5">
      <!-- 8 -->
      <defs>
       <path d="M 31.78125 34.625 
Q 24.75 34.625 20.71875 30.859375 
Q 16.703125 27.09375 16.703125 20.515625 
Q 16.703125 13.921875 20.71875 10.15625 
Q 24.75 6.390625 31.78125 6.390625 
Q 38.8125 6.390625 42.859375 10.171875 
Q 46.921875 13.96875 46.921875 20.515625 
Q 46.921875 27.09375 42.890625 30.859375 
Q 38.875 34.625 31.78125 34.625 
z
M 21.921875 38.8125 
Q 15.578125 40.375 12.03125 44.71875 
Q 8.5 49.078125 8.5 55.328125 
Q 8.5 64.0625 14.71875 69.140625 
Q 20.953125 74.21875 31.78125 74.21875 
Q 42.671875 74.21875 48.875 69.140625 
Q 55.078125 64.0625 55.078125 55.328125 
Q 55.078125 49.078125 51.53125 44.71875 
Q 48 40.375 41.703125 38.8125 
Q 48.828125 37.15625 52.796875 32.3125 
Q 56.78125 27.484375 56.78125 20.515625 
Q 56.78125 9.90625 50.3125 4.234375 
Q 43.84375 -1.421875 31.78125 -1.421875 
Q 19.734375 -1.421875 13.25 4.234375 
Q 6.78125 9.90625 6.78125 20.515625 
Q 6.78125 27.484375 10.78125 32.3125 
Q 14.796875 37.15625 21.921875 38.8125 
z
M 18.3125 54.390625 
Q 18.3125 48.734375 21.84375 45.5625 
Q 25.390625 42.390625 31.78125 42.390625 
Q 38.140625 42.390625 41.71875 45.5625 
Q 45.3125 48.734375 45.3125 54.390625 
Q 45.3125 60.0625 41.71875 63.234375 
Q 38.140625 66.40625 31.78125 66.40625 
Q 25.390625 66.40625 21.84375 63.234375 
Q 18.3125 60.0625 18.3125 54.390625 
z
" id="DejaVuSans-38"/>
      </defs>
      <g transform="translate(393.580357 320.44225)scale(0.2 -0.2)">
       <use xlink:href="#DejaVuSans-38"/>
      </g>
     </g>
    </g>
    <g id="text_6">
     <!-- log10 of (# f-evals / dimension) -->
     <defs>
      <path d="M 9.421875 75.984375 
L 18.40625 75.984375 
L 18.40625 0 
L 9.421875 0 
z
" id="DejaVuSans-6c"/>
      <path d="M 30.609375 48.390625 
Q 23.390625 48.390625 19.1875 42.75 
Q 14.984375 37.109375 14.984375 27.296875 
Q 14.984375 17.484375 19.15625 11.84375 
Q 23.34375 6.203125 30.609375 6.203125 
Q 37.796875 6.203125 41.984375 11.859375 
Q 46.1875 17.53125 46.1875 27.296875 
Q 46.1875 37.015625 41.984375 42.703125 
Q 37.796875 48.390625 30.609375 48.390625 
z
M 30.609375 56 
Q 42.328125 56 49.015625 48.375 
Q 55.71875 40.765625 55.71875 27.296875 
Q 55.71875 13.875 49.015625 6.21875 
Q 42.328125 -1.421875 30.609375 -1.421875 
Q 18.84375 -1.421875 12.171875 6.21875 
Q 5.515625 13.875 5.515625 27.296875 
Q 5.515625 40.765625 12.171875 48.375 
Q 18.84375 56 30.609375 56 
z
" id="DejaVuSans-6f"/>
      <path d="M 45.40625 27.984375 
Q 45.40625 37.75 41.375 43.109375 
Q 37.359375 48.484375 30.078125 48.484375 
Q 22.859375 48.484375 18.828125 43.109375 
Q 14.796875 37.75 14.796875 27.984375 
Q 14.796875 18.265625 18.828125 12.890625 
Q 22.859375 7.515625 30.078125 7.515625 
Q 37.359375 7.515625 41.375 12.890625 
Q 45.40625 18.265625 45.40625 27.984375 
z
M 54.390625 6.78125 
Q 54.390625 -7.171875 48.1875 -13.984375 
Q 42 -20.796875 29.203125 -20.796875 
Q 24.46875 -20.796875 20.265625 -20.09375 
Q 16.0625 -19.390625 12.109375 -17.921875 
L 12.109375 -9.1875 
Q 16.0625 -11.328125 19.921875 -12.34375 
Q 23.78125 -13.375 27.78125 -13.375 
Q 36.625 -13.375 41.015625 -8.765625 
Q 45.40625 -4.15625 45.40625 5.171875 
L 45.40625 9.625 
Q 42.625 4.78125 38.28125 2.390625 
Q 33.9375 0 27.875 0 
Q 17.828125 0 11.671875 7.65625 
Q 5.515625 15.328125 5.515625 27.984375 
Q 5.515625 40.671875 11.671875 48.328125 
Q 17.828125 56 27.875 56 
Q 33.9375 56 38.28125 53.609375 
Q 42.625 51.21875 45.40625 46.390625 
L 45.40625 54.6875 
L 54.390625 54.6875 
z
" id="DejaVuSans-67"/>
      <path d="M 12.40625 8.296875 
L 28.515625 8.296875 
L 28.515625 63.921875 
L 10.984375 60.40625 
L 10.984375 69.390625 
L 28.421875 72.90625 
L 38.28125 72.90625 
L 38.28125 8.296875 
L 54.390625 8.296875 
L 54.390625 0 
L 12.40625 0 
z
" id="DejaVuSans-31"/>
      <path id="DejaVuSans-20"/>
      <path d="M 37.109375 75.984375 
L 37.109375 68.5 
L 28.515625 68.5 
Q 23.6875 68.5 21.796875 66.546875 
Q 19.921875 64.59375 19.921875 59.515625 
L 19.921875 54.6875 
L 34.71875 54.6875 
L 34.71875 47.703125 
L 19.921875 47.703125 
L 19.921875 0 
L 10.890625 0 
L 10.890625 47.703125 
L 2.296875 47.703125 
L 2.296875 54.6875 
L 10.890625 54.6875 
L 10.890625 58.5 
Q 10.890625 67.625 15.140625 71.796875 
Q 19.390625 75.984375 28.609375 75.984375 
z
" id="DejaVuSans-66"/>
      <path d="M 31 75.875 
Q 24.46875 64.65625 21.28125 53.65625 
Q 18.109375 42.671875 18.109375 31.390625 
Q 18.109375 20.125 21.3125 9.0625 
Q 24.515625 -2 31 -13.1875 
L 23.1875 -13.1875 
Q 15.875 -1.703125 12.234375 9.375 
Q 8.59375 20.453125 8.59375 31.390625 
Q 8.59375 42.28125 12.203125 53.3125 
Q 15.828125 64.359375 23.1875 75.875 
z
" id="DejaVuSans-28"/>
      <path d="M 51.125 44 
L 36.921875 44 
L 32.8125 27.6875 
L 47.125 27.6875 
z
M 43.796875 71.78125 
L 38.71875 51.515625 
L 52.984375 51.515625 
L 58.109375 71.78125 
L 65.921875 71.78125 
L 60.890625 51.515625 
L 76.125 51.515625 
L 76.125 44 
L 58.984375 44 
L 54.984375 27.6875 
L 70.515625 27.6875 
L 70.515625 20.21875 
L 53.078125 20.21875 
L 48 0 
L 40.1875 0 
L 45.21875 20.21875 
L 30.90625 20.21875 
L 25.875 0 
L 18.015625 0 
L 23.09375 20.21875 
L 7.71875 20.21875 
L 7.71875 27.6875 
L 24.90625 27.6875 
L 29 44 
L 13.28125 44 
L 13.28125 51.515625 
L 30.90625 51.515625 
L 35.890625 71.78125 
z
" id="DejaVuSans-23"/>
      <path d="M 4.890625 31.390625 
L 31.203125 31.390625 
L 31.203125 23.390625 
L 4.890625 23.390625 
z
" id="DejaVuSans-2d"/>
      <path d="M 56.203125 29.59375 
L 56.203125 25.203125 
L 14.890625 25.203125 
Q 15.484375 15.921875 20.484375 11.0625 
Q 25.484375 6.203125 34.421875 6.203125 
Q 39.59375 6.203125 44.453125 7.46875 
Q 49.3125 8.734375 54.109375 11.28125 
L 54.109375 2.78125 
Q 49.265625 0.734375 44.1875 -0.34375 
Q 39.109375 -1.421875 33.890625 -1.421875 
Q 20.796875 -1.421875 13.15625 6.1875 
Q 5.515625 13.8125 5.515625 26.8125 
Q 5.515625 40.234375 12.765625 48.109375 
Q 20.015625 56 32.328125 56 
Q 43.359375 56 49.78125 48.890625 
Q 56.203125 41.796875 56.203125 29.59375 
z
M 47.21875 32.234375 
Q 47.125 39.59375 43.09375 43.984375 
Q 39.0625 48.390625 32.421875 48.390625 
Q 24.90625 48.390625 20.390625 44.140625 
Q 15.875 39.890625 15.1875 32.171875 
z
" id="DejaVuSans-65"/>
      <path d="M 2.984375 54.6875 
L 12.5 54.6875 
L 29.59375 8.796875 
L 46.6875 54.6875 
L 56.203125 54.6875 
L 35.6875 0 
L 23.484375 0 
z
" id="DejaVuSans-76"/>
      <path d="M 34.28125 27.484375 
Q 23.390625 27.484375 19.1875 25 
Q 14.984375 22.515625 14.984375 16.5 
Q 14.984375 11.71875 18.140625 8.90625 
Q 21.296875 6.109375 26.703125 6.109375 
Q 34.1875 6.109375 38.703125 11.40625 
Q 43.21875 16.703125 43.21875 25.484375 
L 43.21875 27.484375 
z
M 52.203125 31.203125 
L 52.203125 0 
L 43.21875 0 
L 43.21875 8.296875 
Q 40.140625 3.328125 35.546875 0.953125 
Q 30.953125 -1.421875 24.3125 -1.421875 
Q 15.921875 -1.421875 10.953125 3.296875 
Q 6 8.015625 6 15.921875 
Q 6 25.140625 12.171875 29.828125 
Q 18.359375 34.515625 30.609375 34.515625 
L 43.21875 34.515625 
L 43.21875 35.40625 
Q 43.21875 41.609375 39.140625 45 
Q 35.0625 48.390625 27.6875 48.390625 
Q 23 48.390625 18.546875 47.265625 
Q 14.109375 46.140625 10.015625 43.890625 
L 10.015625 52.203125 
Q 14.9375 54.109375 19.578125 55.046875 
Q 24.21875 56 28.609375 56 
Q 40.484375 56 46.34375 49.84375 
Q 52.203125 43.703125 52.203125 31.203125 
z
" id="DejaVuSans-61"/>
      <path d="M 44.28125 53.078125 
L 44.28125 44.578125 
Q 40.484375 46.53125 36.375 47.5 
Q 32.28125 48.484375 27.875 48.484375 
Q 21.1875 48.484375 17.84375 46.4375 
Q 14.5 44.390625 14.5 40.28125 
Q 14.5 37.15625 16.890625 35.375 
Q 19.28125 33.59375 26.515625 31.984375 
L 29.59375 31.296875 
Q 39.15625 29.25 43.1875 25.515625 
Q 47.21875 21.78125 47.21875 15.09375 
Q 47.21875 7.46875 41.1875 3.015625 
Q 35.15625 -1.421875 24.609375 -1.421875 
Q 20.21875 -1.421875 15.453125 -0.5625 
Q 10.6875 0.296875 5.421875 2 
L 5.421875 11.28125 
Q 10.40625 8.6875 15.234375 7.390625 
Q 20.0625 6.109375 24.8125 6.109375 
Q 31.15625 6.109375 34.5625 8.28125 
Q 37.984375 10.453125 37.984375 14.40625 
Q 37.984375 18.0625 35.515625 20.015625 
Q 33.0625 21.96875 24.703125 23.78125 
L 21.578125 24.515625 
Q 13.234375 26.265625 9.515625 29.90625 
Q 5.8125 33.546875 5.8125 39.890625 
Q 5.8125 47.609375 11.28125 51.796875 
Q 16.75 56 26.8125 56 
Q 31.78125 56 36.171875 55.265625 
Q 40.578125 54.546875 44.28125 53.078125 
z
" id="DejaVuSans-73"/>
      <path d="M 25.390625 72.90625 
L 33.6875 72.90625 
L 8.296875 -9.28125 
L 0 -9.28125 
z
" id="DejaVuSans-2f"/>
      <path d="M 45.40625 46.390625 
L 45.40625 75.984375 
L 54.390625 75.984375 
L 54.390625 0 
L 45.40625 0 
L 45.40625 8.203125 
Q 42.578125 3.328125 38.25 0.953125 
Q 33.9375 -1.421875 27.875 -1.421875 
Q 17.96875 -1.421875 11.734375 6.484375 
Q 5.515625 14.40625 5.515625 27.296875 
Q 5.515625 40.1875 11.734375 48.09375 
Q 17.96875 56 27.875 56 
Q 33.9375 56 38.25 53.625 
Q 42.578125 51.265625 45.40625 46.390625 
z
M 14.796875 27.296875 
Q 14.796875 17.390625 18.875 11.75 
Q 22.953125 6.109375 30.078125 6.109375 
Q 37.203125 6.109375 41.296875 11.75 
Q 45.40625 17.390625 45.40625 27.296875 
Q 45.40625 37.203125 41.296875 42.84375 
Q 37.203125 48.484375 30.078125 48.484375 
Q 22.953125 48.484375 18.875 42.84375 
Q 14.796875 37.203125 14.796875 27.296875 
z
" id="DejaVuSans-64"/>
      <path d="M 9.421875 54.6875 
L 18.40625 54.6875 
L 18.40625 0 
L 9.421875 0 
z
M 9.421875 75.984375 
L 18.40625 75.984375 
L 18.40625 64.59375 
L 9.421875 64.59375 
z
" id="DejaVuSans-69"/>
      <path d="M 52 44.1875 
Q 55.375 50.25 60.0625 53.125 
Q 64.75 56 71.09375 56 
Q 79.640625 56 84.28125 50.015625 
Q 88.921875 44.046875 88.921875 33.015625 
L 88.921875 0 
L 79.890625 0 
L 79.890625 32.71875 
Q 79.890625 40.578125 77.09375 44.375 
Q 74.3125 48.1875 68.609375 48.1875 
Q 61.625 48.1875 57.5625 43.546875 
Q 53.515625 38.921875 53.515625 30.90625 
L 53.515625 0 
L 44.484375 0 
L 44.484375 32.71875 
Q 44.484375 40.625 41.703125 44.40625 
Q 38.921875 48.1875 33.109375 48.1875 
Q 26.21875 48.1875 22.15625 43.53125 
Q 18.109375 38.875 18.109375 30.90625 
L 18.109375 0 
L 9.078125 0 
L 9.078125 54.6875 
L 18.109375 54.6875 
L 18.109375 46.1875 
Q 21.1875 51.21875 25.484375 53.609375 
Q 29.78125 56 35.6875 56 
Q 41.65625 56 45.828125 52.96875 
Q 50 49.953125 52 44.1875 
z
" id="DejaVuSans-6d"/>
      <path d="M 54.890625 33.015625 
L 54.890625 0 
L 45.90625 0 
L 45.90625 32.71875 
Q 45.90625 40.484375 42.875 44.328125 
Q 39.84375 48.1875 33.796875 48.1875 
Q 26.515625 48.1875 22.3125 43.546875 
Q 18.109375 38.921875 18.109375 30.90625 
L 18.109375 0 
L 9.078125 0 
L 9.078125 54.6875 
L 18.109375 54.6875 
L 18.109375 46.1875 
Q 21.34375 51.125 25.703125 53.5625 
Q 30.078125 56 35.796875 56 
Q 45.21875 56 50.046875 50.171875 
Q 54.890625 44.34375 54.890625 33.015625 
z
" id="DejaVuSans-6e"/>
      <path d="M 8.015625 75.875 
L 15.828125 75.875 
Q 23.140625 64.359375 26.78125 53.3125 
Q 30.421875 42.28125 30.421875 31.390625 
Q 30.421875 20.453125 26.78125 9.375 
Q 23.140625 -1.703125 15.828125 -13.1875 
L 8.015625 -13.1875 
Q 14.5 -2 17.703125 9.0625 
Q 20.90625 20.125 20.90625 31.390625 
Q 20.90625 42.671875 17.703125 53.65625 
Q 14.5 64.65625 8.015625 75.875 
z
" id="DejaVuSans-29"/>
     </defs>
     <g transform="translate(107.015156 342.278812)scale(0.18 -0.18)">
      <use xlink:href="#DejaVuSans-6c"/>
      <use x="27.783203" xlink:href="#DejaVuSans-6f"/>
      <use x="88.964844" xlink:href="#DejaVuSans-67"/>
      <use x="152.441406" xlink:href="#DejaVuSans-31"/>
      <use x="216.064453" xlink:href="#DejaVuSans-30"/>
      <use x="279.6875" xlink:href="#DejaVuSans-20"/>
      <use x="311.474609" xlink:href="#DejaVuSans-6f"/>
      <use x="372.65625" xlink:href="#DejaVuSans-66"/>
      <use x="407.861328" xlink:href="#DejaVuSans-20"/>
      <use x="439.648438" xlink:href="#DejaVuSans-28"/>
      <use x="478.662109" xlink:href="#DejaVuSans-23"/>
      <use x="562.451172" xlink:href="#DejaVuSans-20"/>
      <use x="594.238281" xlink:href="#DejaVuSans-66"/>
      <use x="629.365234" xlink:href="#DejaVuSans-2d"/>
      <use x="665.449219" xlink:href="#DejaVuSans-65"/>
      <use x="726.972656" xlink:href="#DejaVuSans-76"/>
      <use x="786.152344" xlink:href="#DejaVuSans-61"/>
      <use x="847.431641" xlink:href="#DejaVuSans-6c"/>
      <use x="875.214844" xlink:href="#DejaVuSans-73"/>
      <use x="927.314453" xlink:href="#DejaVuSans-20"/>
      <use x="959.101562" xlink:href="#DejaVuSans-2f"/>
      <use x="992.792969" xlink:href="#DejaVuSans-20"/>
      <use x="1024.580078" xlink:href="#DejaVuSans-64"/>
      <use x="1088.056641" xlink:href="#DejaVuSans-69"/>
      <use x="1115.839844" xlink:href="#DejaVuSans-6d"/>
      <use x="1213.251953" xlink:href="#DejaVuSans-65"/>
      <use x="1274.775391" xlink:href="#DejaVuSans-6e"/>
      <use x="1338.154297" xlink:href="#DejaVuSans-73"/>
      <use x="1390.253906" xlink:href="#DejaVuSans-69"/>
      <use x="1418.037109" xlink:href="#DejaVuSans-6f"/>
      <use x="1479.21875" xlink:href="#DejaVuSans-6e"/>
      <use x="1542.597656" xlink:href="#DejaVuSans-29"/>
     </g>
    </g>
   </g>
   <g id="matplotlib.axis_2">
    <g id="ytick_1">
     <g id="line2d_11">
      <path clip-path="url(#p2a1c2fd8ad)" d="M 70.8 298.245375 
L 427.92 298.245375 
" style="fill:none;stroke:#b0b0b0;stroke-linecap:square;stroke-width:0.8;"/>
     </g>
     <g id="line2d_12">
      <defs>
       <path d="M 0 0 
L -3.5 0 
" id="m3e78fe72d3" style="stroke:#000000;stroke-width:0.8;"/>
      </defs>
      <g>
       <use style="stroke:#000000;stroke-width:0.8;" x="70.8" xlink:href="#m3e78fe72d3" y="298.245375"/>
      </g>
     </g>
     <g id="text_7">
      <!-- 0.0 -->
      <defs>
       <path d="M 10.6875 12.40625 
L 21 12.40625 
L 21 0 
L 10.6875 0 
z
" id="DejaVuSans-2e"/>
      </defs>
      <g transform="translate(31.99375 305.843812)scale(0.2 -0.2)">
       <use xlink:href="#DejaVuSans-30"/>
       <use x="63.623047" xlink:href="#DejaVuSans-2e"/>
       <use x="95.410156" xlink:href="#DejaVuSans-30"/>
      </g>
     </g>
    </g>
    <g id="ytick_2">
     <g id="line2d_13">
      <path clip-path="url(#p2a1c2fd8ad)" d="M 70.8 245.549929 
L 427.92 245.549929 
" style="fill:none;stroke:#b0b0b0;stroke-linecap:square;stroke-width:0.8;"/>
     </g>
     <g id="line2d_14">
      <g>
       <use style="stroke:#000000;stroke-width:0.8;" x="70.8" xlink:href="#m3e78fe72d3" y="245.549929"/>
      </g>
     </g>
     <g id="text_8">
      <!-- 0.2 -->
      <g transform="translate(31.99375 253.148367)scale(0.2 -0.2)">
       <use xlink:href="#DejaVuSans-30"/>
       <use x="63.623047" xlink:href="#DejaVuSans-2e"/>
       <use x="95.410156" xlink:href="#DejaVuSans-32"/>
      </g>
     </g>
    </g>
    <g id="ytick_3">
     <g id="line2d_15">
      <path clip-path="url(#p2a1c2fd8ad)" d="M 70.8 192.854484 
L 427.92 192.854484 
" style="fill:none;stroke:#b0b0b0;stroke-linecap:square;stroke-width:0.8;"/>
     </g>
     <g id="line2d_16">
      <g>
       <use style="stroke:#000000;stroke-width:0.8;" x="70.8" xlink:href="#m3e78fe72d3" y="192.854484"/>
      </g>
     </g>
     <g id="text_9">
      <!-- 0.4 -->
      <g transform="translate(31.99375 200.452921)scale(0.2 -0.2)">
       <use xlink:href="#DejaVuSans-30"/>
       <use x="63.623047" xlink:href="#DejaVuSans-2e"/>
       <use x="95.410156" xlink:href="#DejaVuSans-34"/>
      </g>
     </g>
    </g>
    <g id="ytick_4">
     <g id="line2d_17">
      <path clip-path="url(#p2a1c2fd8ad)" d="M 70.8 140.159038 
L 427.92 140.159038 
" style="fill:none;stroke:#b0b0b0;stroke-linecap:square;stroke-width:0.8;"/>
     </g>
     <g id="line2d_18">
      <g>
       <use style="stroke:#000000;stroke-width:0.8;" x="70.8" xlink:href="#m3e78fe72d3" y="140.159038"/>
      </g>
     </g>
     <g id="text_10">
      <!-- 0.6 -->
      <g transform="translate(31.99375 147.757476)scale(0.2 -0.2)">
       <use xlink:href="#DejaVuSans-30"/>
       <use x="63.623047" xlink:href="#DejaVuSans-2e"/>
       <use x="95.410156" xlink:href="#DejaVuSans-36"/>
      </g>
     </g>
    </g>
    <g id="ytick_5">
     <g id="line2d_19">
      <path clip-path="url(#p2a1c2fd8ad)" d="M 70.8 87.463593 
L 427.92 87.463593 
" style="fill:none;stroke:#b0b0b0;stroke-linecap:square;stroke-width:0.8;"/>
     </g>
     <g id="line2d_20">
      <g>
       <use style="stroke:#000000;stroke-width:0.8;" x="70.8" xlink:href="#m3e78fe72d3" y="87.463593"/>
      </g>
     </g>
     <g id="text_11">
      <!-- 0.8 -->
      <g transform="translate(31.99375 95.06203)scale(0.2 -0.2)">
       <use xlink:href="#DejaVuSans-30"/>
       <use x="63.623047" xlink:href="#DejaVuSans-2e"/>
       <use x="95.410156" xlink:href="#DejaVuSans-38"/>
      </g>
     </g>
    </g>
    <g id="ytick_6">
     <g id="line2d_21">
      <path clip-path="url(#p2a1c2fd8ad)" d="M 70.8 34.768147 
L 427.92 34.768147 
" style="fill:none;stroke:#b0b0b0;stroke-linecap:square;stroke-width:0.8;"/>
     </g>
     <g id="line2d_22">
      <g>
       <use style="stroke:#000000;stroke-width:0.8;" x="70.8" xlink:href="#m3e78fe72d3" y="34.768147"/>
      </g>
     </g>
     <g id="text_12">
      <!-- 1.0 -->
      <g transform="translate(31.99375 42.366585)scale(0.2 -0.2)">
       <use xlink:href="#DejaVuSans-31"/>
       <use x="63.623047" xlink:href="#DejaVuSans-2e"/>
       <use x="95.410156" xlink:href="#DejaVuSans-30"/>
      </g>
     </g>
    </g>
    <g id="text_13">
     <!-- Proportion of function+target pairs -->
     <defs>
      <path d="M 19.671875 64.796875 
L 19.671875 37.40625 
L 32.078125 37.40625 
Q 38.96875 37.40625 42.71875 40.96875 
Q 46.484375 44.53125 46.484375 51.125 
Q 46.484375 57.671875 42.71875 61.234375 
Q 38.96875 64.796875 32.078125 64.796875 
z
M 9.8125 72.90625 
L 32.078125 72.90625 
Q 44.34375 72.90625 50.609375 67.359375 
Q 56.890625 61.8125 56.890625 51.125 
Q 56.890625 40.328125 50.609375 34.8125 
Q 44.34375 29.296875 32.078125 29.296875 
L 19.671875 29.296875 
L 19.671875 0 
L 9.8125 0 
z
" id="DejaVuSans-50"/>
      <path d="M 41.109375 46.296875 
Q 39.59375 47.171875 37.8125 47.578125 
Q 36.03125 48 33.890625 48 
Q 26.265625 48 22.1875 43.046875 
Q 18.109375 38.09375 18.109375 28.8125 
L 18.109375 0 
L 9.078125 0 
L 9.078125 54.6875 
L 18.109375 54.6875 
L 18.109375 46.1875 
Q 20.953125 51.171875 25.484375 53.578125 
Q 30.03125 56 36.53125 56 
Q 37.453125 56 38.578125 55.875 
Q 39.703125 55.765625 41.0625 55.515625 
z
" id="DejaVuSans-72"/>
      <path d="M 18.109375 8.203125 
L 18.109375 -20.796875 
L 9.078125 -20.796875 
L 9.078125 54.6875 
L 18.109375 54.6875 
L 18.109375 46.390625 
Q 20.953125 51.265625 25.265625 53.625 
Q 29.59375 56 35.59375 56 
Q 45.5625 56 51.78125 48.09375 
Q 58.015625 40.1875 58.015625 27.296875 
Q 58.015625 14.40625 51.78125 6.484375 
Q 45.5625 -1.421875 35.59375 -1.421875 
Q 29.59375 -1.421875 25.265625 0.953125 
Q 20.953125 3.328125 18.109375 8.203125 
z
M 48.6875 27.296875 
Q 48.6875 37.203125 44.609375 42.84375 
Q 40.53125 48.484375 33.40625 48.484375 
Q 26.265625 48.484375 22.1875 42.84375 
Q 18.109375 37.203125 18.109375 27.296875 
Q 18.109375 17.390625 22.1875 11.75 
Q 26.265625 6.109375 33.40625 6.109375 
Q 40.53125 6.109375 44.609375 11.75 
Q 48.6875 17.390625 48.6875 27.296875 
z
" id="DejaVuSans-70"/>
      <path d="M 18.3125 70.21875 
L 18.3125 54.6875 
L 36.8125 54.6875 
L 36.8125 47.703125 
L 18.3125 47.703125 
L 18.3125 18.015625 
Q 18.3125 11.328125 20.140625 9.421875 
Q 21.96875 7.515625 27.59375 7.515625 
L 36.8125 7.515625 
L 36.8125 0 
L 27.59375 0 
Q 17.1875 0 13.234375 3.875 
Q 9.28125 7.765625 9.28125 18.015625 
L 9.28125 47.703125 
L 2.6875 47.703125 
L 2.6875 54.6875 
L 9.28125 54.6875 
L 9.28125 70.21875 
z
" id="DejaVuSans-74"/>
      <path d="M 8.5 21.578125 
L 8.5 54.6875 
L 17.484375 54.6875 
L 17.484375 21.921875 
Q 17.484375 14.15625 20.5 10.265625 
Q 23.53125 6.390625 29.59375 6.390625 
Q 36.859375 6.390625 41.078125 11.03125 
Q 45.3125 15.671875 45.3125 23.6875 
L 45.3125 54.6875 
L 54.296875 54.6875 
L 54.296875 0 
L 45.3125 0 
L 45.3125 8.40625 
Q 42.046875 3.421875 37.71875 1 
Q 33.40625 -1.421875 27.6875 -1.421875 
Q 18.265625 -1.421875 13.375 4.4375 
Q 8.5 10.296875 8.5 21.578125 
z
M 31.109375 56 
z
" id="DejaVuSans-75"/>
      <path d="M 48.78125 52.59375 
L 48.78125 44.1875 
Q 44.96875 46.296875 41.140625 47.34375 
Q 37.3125 48.390625 33.40625 48.390625 
Q 24.65625 48.390625 19.8125 42.84375 
Q 14.984375 37.3125 14.984375 27.296875 
Q 14.984375 17.28125 19.8125 11.734375 
Q 24.65625 6.203125 33.40625 6.203125 
Q 37.3125 6.203125 41.140625 7.25 
Q 44.96875 8.296875 48.78125 10.40625 
L 48.78125 2.09375 
Q 45.015625 0.34375 40.984375 -0.53125 
Q 36.96875 -1.421875 32.421875 -1.421875 
Q 20.0625 -1.421875 12.78125 6.34375 
Q 5.515625 14.109375 5.515625 27.296875 
Q 5.515625 40.671875 12.859375 48.328125 
Q 20.21875 56 33.015625 56 
Q 37.15625 56 41.109375 55.140625 
Q 45.0625 54.296875 48.78125 52.59375 
z
" id="DejaVuSans-63"/>
      <path d="M 46 62.703125 
L 46 35.5 
L 73.1875 35.5 
L 73.1875 27.203125 
L 46 27.203125 
L 46 0 
L 37.796875 0 
L 37.796875 27.203125 
L 10.59375 27.203125 
L 10.59375 35.5 
L 37.796875 35.5 
L 37.796875 62.703125 
z
" id="DejaVuSans-2b"/>
     </defs>
     <g transform="translate(24.250312 323.17875)rotate(-90)scale(0.18 -0.18)">
      <use xlink:href="#DejaVuSans-50"/>
      <use x="60.287109" xlink:href="#DejaVuSans-72"/>
      <use x="101.369141" xlink:href="#DejaVuSans-6f"/>
      <use x="162.550781" xlink:href="#DejaVuSans-70"/>
      <use x="226.027344" xlink:href="#DejaVuSans-6f"/>
      <use x="287.208984" xlink:href="#DejaVuSans-72"/>
      <use x="328.322266" xlink:href="#DejaVuSans-74"/>
      <use x="367.53125" xlink:href="#DejaVuSans-69"/>
      <use x="395.314453" xlink:href="#DejaVuSans-6f"/>
      <use x="456.496094" xlink:href="#DejaVuSans-6e"/>
      <use x="519.875" xlink:href="#DejaVuSans-20"/>
      <use x="551.662109" xlink:href="#DejaVuSans-6f"/>
      <use x="612.84375" xlink:href="#DejaVuSans-66"/>
      <use x="648.048828" xlink:href="#DejaVuSans-20"/>
      <use x="679.835938" xlink:href="#DejaVuSans-66"/>
      <use x="715.041016" xlink:href="#DejaVuSans-75"/>
      <use x="778.419922" xlink:href="#DejaVuSans-6e"/>
      <use x="841.798828" xlink:href="#DejaVuSans-63"/>
      <use x="896.779297" xlink:href="#DejaVuSans-74"/>
      <use x="935.988281" xlink:href="#DejaVuSans-69"/>
      <use x="963.771484" xlink:href="#DejaVuSans-6f"/>
      <use x="1024.953125" xlink:href="#DejaVuSans-6e"/>
      <use x="1088.332031" xlink:href="#DejaVuSans-2b"/>
      <use x="1172.121094" xlink:href="#DejaVuSans-74"/>
      <use x="1211.330078" xlink:href="#DejaVuSans-61"/>
      <use x="1272.609375" xlink:href="#DejaVuSans-72"/>
      <use x="1313.707031" xlink:href="#DejaVuSans-67"/>
      <use x="1377.183594" xlink:href="#DejaVuSans-65"/>
      <use x="1438.707031" xlink:href="#DejaVuSans-74"/>
      <use x="1477.916016" xlink:href="#DejaVuSans-20"/>
      <use x="1509.703125" xlink:href="#DejaVuSans-70"/>
      <use x="1573.179688" xlink:href="#DejaVuSans-61"/>
      <use x="1634.458984" xlink:href="#DejaVuSans-69"/>
      <use x="1662.242188" xlink:href="#DejaVuSans-72"/>
      <use x="1703.355469" xlink:href="#DejaVuSans-73"/>
     </g>
    </g>
   </g>
   <g id="line2d_23">
    <defs>
     <path d="M 0 1.5 
C 0.397805 1.5 0.77937 1.341951 1.06066 1.06066 
C 1.341951 0.77937 1.5 0.397805 1.5 0 
C 1.5 -0.397805 1.341951 -0.77937 1.06066 -1.06066 
C 0.77937 -1.341951 0.397805 -1.5 0 -1.5 
C -0.397805 -1.5 -0.77937 -1.341951 -1.06066 -1.06066 
C -1.341951 -0.77937 -1.5 -0.397805 -1.5 0 
C -1.5 0.397805 -1.341951 0.77937 -1.06066 1.06066 
C -0.77937 1.341951 -0.397805 1.5 0 1.5 
z
" id="m75f83dab45" style="stroke:#00bfbf;"/>
    </defs>
    <g>
     <use style="fill:#00bfbf;stroke:#00bfbf;" x="261.648504" xlink:href="#m75f83dab45" y="34.768147"/>
     <use style="fill:#00bfbf;stroke:#00bfbf;" x="261.648504" xlink:href="#m75f83dab45" y="34.768147"/>
    </g>
   </g>
   <g id="line2d_24">
    <path d="M 113.64587 298.245375 
L 113.64587 296.695509 
L 120.340936 296.695509 
L 120.340936 295.145643 
L 127.585834 295.145643 
L 127.585834 294.629021 
L 130.656474 294.629021 
L 130.656474 294.112399 
L 139.015326 294.112399 
L 139.015326 293.595777 
L 140.339496 293.595777 
L 140.339496 293.079155 
L 142.884279 293.079155 
L 142.884279 291.529289 
L 143.505841 291.529289 
L 143.505841 289.979423 
L 144.687635 289.979423 
L 144.687635 288.429557 
L 145.250457 288.429557 
L 145.250457 287.396313 
L 145.388435 287.396313 
L 145.388435 286.879691 
L 145.525356 286.879691 
L 145.525356 285.846447 
L 146.062784 285.846447 
L 146.062784 285.329825 
L 146.194652 285.329825 
L 146.194652 284.813203 
L 146.712605 284.813203 
L 146.712605 283.263337 
L 147.584393 283.263337 
L 147.584393 282.746715 
L 147.945378 282.746715 
L 147.945378 281.713471 
L 148.760352 281.713471 
L 148.760352 280.163604 
L 148.8738 280.163604 
L 148.8738 279.646982 
L 149.53977 279.646982 
L 149.53977 278.613738 
L 150.494377 278.613738 
L 150.494377 276.030628 
L 150.801573 276.030628 
L 150.801573 269.314542 
L 151.20312 269.314542 
L 151.20312 268.79792 
L 151.980117 268.79792 
L 151.980117 267.764676 
L 152.449124 267.764676 
L 152.449124 266.21481 
L 152.633333 266.21481 
L 152.633333 265.181566 
L 154.294647 265.181566 
L 154.294647 264.148322 
L 154.707324 264.148322 
L 154.788728 263.115078 
L 155.891075 263.115078 
L 155.891075 262.598456 
L 156.268851 262.598456 
L 156.268851 261.565212 
L 157.072869 261.565212 
L 157.072869 261.04859 
L 157.91059 261.04859 
L 157.91059 260.015346 
L 159.663134 260.015346 
L 159.724855 257.948858 
L 160.211092 257.948858 
L 160.211092 256.915614 
L 161.705761 256.915614 
L 161.705761 256.398992 
L 162.461624 256.398992 
L 162.461624 255.88237 
L 164.12615 255.88237 
L 164.12615 255.365748 
L 164.601393 255.365748 
L 164.601393 252.782638 
L 164.834358 252.782638 
L 164.834358 251.232772 
L 165.246189 251.232772 
L 165.246189 250.71615 
L 166.342737 250.71615 
L 166.342737 249.682906 
L 167.133306 249.682906 
L 167.133306 248.649662 
L 167.375863 248.649662 
L 167.375863 246.583173 
L 167.733635 246.583173 
L 167.733635 246.066551 
L 167.890374 246.066551 
L 167.890374 244.000063 
L 168.084384 244.000063 
L 168.084384 242.966819 
L 168.199786 242.966819 
L 168.199786 241.933575 
L 168.314449 241.933575 
L 168.314449 240.900331 
L 168.503932 240.900331 
L 168.503932 238.833843 
L 168.950658 238.833843 
L 168.950658 237.800599 
L 170.020925 237.800599 
L 170.020925 237.283977 
L 170.329892 237.283977 
L 170.329892 236.767355 
L 170.499259 236.767355 
L 170.600114 227.984781 
L 170.633606 227.984781 
L 170.633606 227.468159 
L 170.899308 227.468159 
L 170.899308 226.434915 
L 171.641902 226.434915 
L 171.70504 220.752073 
L 171.767956 220.752073 
L 171.767956 219.718829 
L 172.048368 219.718829 
L 172.14087 218.168963 
L 172.232894 218.168963 
L 172.232894 213.002743 
L 173.301738 213.002743 
L 173.301738 210.936254 
L 174.767386 210.936254 
L 174.820407 207.3199 
L 175.083178 207.3199 
L 175.083178 206.803278 
L 175.495736 206.803278 
L 175.495736 204.73679 
L 175.673277 204.73679 
L 175.673277 204.220168 
L 176.438994 204.220168 
L 176.438994 203.703546 
L 176.750586 203.703546 
L 176.750586 203.186924 
L 176.868996 203.186924 
L 176.916142 202.15368 
L 177.334945 202.15368 
L 177.334945 201.637058 
L 177.495198 201.637058 
L 177.495198 200.087192 
L 178.275589 200.087192 
L 178.340921 199.053948 
L 178.427659 199.053948 
L 178.427659 198.020704 
L 179.065115 198.020704 
L 179.065115 196.470838 
L 179.189922 196.470838 
L 179.189922 194.920972 
L 179.313863 194.920972 
L 179.313863 193.887728 
L 179.761098 193.887728 
L 179.761098 193.371106 
L 181.717821 193.371106 
L 181.717821 192.337862 
L 182.850748 192.337862 
L 182.850748 191.82124 
L 185.367111 191.82124 
L 185.367111 190.787996 
L 185.887579 190.787996 
L 185.887579 189.23813 
L 186.898598 189.23813 
L 186.898598 187.688264 
L 187.13934 187.688264 
L 187.13934 185.621776 
L 195.678016 185.621776 
L 195.678016 185.105154 
L 198.07941 185.105154 
L 198.07941 184.588532 
L 210.236329 184.588532 
L 210.236329 184.07191 
L 210.349039 184.07191 
L 210.453838 183.038666 
L 210.475444 183.038666 
L 210.554443 180.972178 
L 210.58666 180.972178 
L 210.67229 179.938934 
L 210.743337 179.938934 
L 210.835276 178.389067 
L 210.88107 178.389067 
L 210.951292 177.355823 
L 211.042171 177.355823 
L 211.042171 176.839201 
L 211.239802 176.839201 
L 211.288011 175.289335 
L 211.40455 175.289335 
L 211.503353 172.189603 
L 211.520334 172.189603 
L 211.598235 165.990139 
L 211.675798 165.990139 
L 211.786499 160.307297 
L 211.863251 160.307297 
L 211.926406 153.591211 
L 212.045462 153.591211 
L 212.150626 149.458235 
L 212.219306 149.458235 
L 212.313717 141.192282 
L 212.433453 141.192282 
L 212.491414 138.609172 
L 212.555596 138.609172 
L 212.606776 135.50944 
L 212.711873 135.50944 
L 212.711873 134.992818 
L 212.825824 134.992818 
L 212.913953 132.409708 
L 213.234452 132.409708 
L 213.234452 131.893086 
L 213.43379 131.893086 
L 213.43379 130.34322 
L 213.915196 130.34322 
L 214.021748 128.276732 
L 214.23588 128.276732 
L 214.288288 127.243488 
L 222.498959 127.243488 
L 222.585053 126.210244 
L 222.955793 126.210244 
L 223.059304 124.143756 
L 223.069978 124.143756 
L 223.121479 120.01078 
L 223.211691 120.01078 
L 223.315488 110.194961 
L 223.378528 110.194961 
L 223.477887 107.095229 
L 223.491788 107.095229 
L 223.588794 102.962253 
L 223.607787 102.962253 
L 223.662925 100.379143 
L 224.128205 100.379143 
L 224.128205 98.312655 
L 224.409258 98.312655 
L 224.453753 97.279411 
L 224.573503 97.279411 
L 224.602908 95.212923 
L 226.3671 95.212923 
L 226.3671 94.696301 
L 229.664725 94.696301 
L 229.722421 92.113191 
L 230.006936 92.113191 
L 230.094776 87.980215 
L 230.14033 87.980215 
L 230.2156 76.614531 
L 230.258469 76.614531 
L 230.35455 72.998176 
L 230.387644 72.998176 
L 230.463056 70.931688 
L 230.576751 70.931688 
L 230.576751 70.415066 
L 230.771969 70.415066 
L 230.771969 69.898444 
L 234.80875 69.898444 
L 234.913548 68.8652 
L 235.063241 68.8652 
L 235.17108 63.182358 
L 235.175597 63.182358 
L 235.271984 59.566004 
L 235.360704 59.566004 
L 235.455212 56.982894 
L 235.603981 56.982894 
L 235.603981 56.466272 
L 235.839639 56.466272 
L 235.855297 55.433028 
L 238.838634 55.433028 
L 238.838634 54.916406 
L 238.967672 54.916406 
L 239.06021 51.300052 
L 239.135634 51.300052 
L 239.213623 49.233564 
L 239.403554 49.233564 
L 239.403554 48.20032 
L 239.59431 48.20032 
L 239.59431 47.683698 
L 241.999475 47.683698 
L 241.999475 47.167076 
L 242.213357 47.167076 
L 242.271137 45.61721 
L 244.86799 45.61721 
L 244.943965 43.0341 
L 245.165325 43.0341 
L 245.165325 42.517478 
L 247.273558 42.517478 
L 247.354607 40.450989 
L 247.516517 40.450989 
L 247.605036 39.417745 
L 251.291069 39.417745 
L 251.310851 38.384501 
L 252.880799 38.384501 
L 252.880799 37.867879 
L 254.439496 37.867879 
L 254.439496 37.351257 
L 255.857743 37.351257 
L 255.857743 36.834635 
L 257.179824 36.834635 
L 257.215641 35.801391 
L 258.380247 35.801391 
L 258.380247 35.284769 
L 261.648504 35.284769 
L 261.648504 34.768147 
L 358.8 34.768147 
L 358.8 34.768147 
" style="fill:none;stroke:#00bfbf;stroke-linecap:square;stroke-width:1.5;"/>
   </g>
   <g id="line2d_25">
    <defs>
     <path d="M -6 0 
L 6 0 
M 0 6 
L 0 -6 
" id="m7eebd16ca3" style="stroke:#00bfbf;stroke-width:1.5;"/>
    </defs>
    <g>
     <use style="fill:none;stroke:#00bfbf;stroke-width:1.5;" x="151.980117" xlink:href="#m7eebd16ca3" y="267.764676"/>
     <use style="fill:none;stroke:#00bfbf;stroke-width:1.5;" x="198.07941" xlink:href="#m7eebd16ca3" y="185.105154"/>
     <use style="fill:none;stroke:#00bfbf;stroke-width:1.5;" x="235.855297" xlink:href="#m7eebd16ca3" y="55.433028"/>
     <use style="fill:none;stroke:#00bfbf;stroke-width:1.5;" x="261.648504" xlink:href="#m7eebd16ca3" y="34.768147"/>
     <use style="fill:none;stroke:#00bfbf;stroke-width:1.5;" x="358.8" xlink:href="#m7eebd16ca3" y="34.768147"/>
    </g>
   </g>
   <g id="line2d_26"/>
   <g id="line2d_27">
    <path clip-path="url(#p2a1c2fd8ad)" d="M 209.87527 184.588532 
" style="fill:none;stroke:#00bfbf;stroke-linecap:square;stroke-width:1.5;"/>
    <defs>
     <path d="M -12 12 
L 12 -12 
M -12 -12 
L 12 12 
" id="m3d633971ad" style="stroke:#00bfbf;stroke-width:3;"/>
    </defs>
    <g clip-path="url(#p2a1c2fd8ad)">
     <use style="fill:#00bfbf;stroke:#00bfbf;stroke-width:3;" x="209.87527" xlink:href="#m3d633971ad" y="184.588532"/>
    </g>
   </g>
   <g id="line2d_28">
    <defs>
     <path d="M 0 1.5 
C 0.397805 1.5 0.77937 1.341951 1.06066 1.06066 
C 1.341951 0.77937 1.5 0.397805 1.5 0 
C 1.5 -0.397805 1.341951 -0.77937 1.06066 -1.06066 
C 0.77937 -1.341951 0.397805 -1.5 0 -1.5 
C -0.397805 -1.5 -0.77937 -1.341951 -1.06066 -1.06066 
C -1.341951 -0.77937 -1.5 -0.397805 -1.5 0 
C -1.5 0.397805 -1.341951 0.77937 -1.06066 1.06066 
C -0.77937 1.341951 -0.397805 1.5 0 1.5 
z
" id="m6280b0a5da" style="stroke:#008000;"/>
    </defs>
    <g>
     <use style="fill:#008000;stroke:#008000;" x="289.48351" xlink:href="#m6280b0a5da" y="194.920972"/>
     <use style="fill:#008000;stroke:#008000;" x="289.48351" xlink:href="#m6280b0a5da" y="194.920972"/>
    </g>
   </g>
   <g id="line2d_29">
    <path d="M 141.40128 298.245375 
L 141.40128 297.728753 
L 143.657911 297.728753 
L 143.657911 297.212131 
L 145.751252 297.212131 
L 145.751252 296.178887 
L 146.881972 296.178887 
L 146.881972 294.629021 
L 148.646178 294.629021 
L 148.646178 293.595777 
L 149.827972 293.595777 
L 149.827972 292.562533 
L 150.390793 292.562533 
L 150.390793 289.979423 
L 150.528772 289.979423 
L 150.528772 288.946179 
L 151.724854 288.946179 
L 151.724854 285.846447 
L 152.231785 285.846447 
L 152.231785 284.813203 
L 152.785403 284.813203 
L 152.785403 283.779959 
L 153.263508 283.779959 
L 153.263508 280.680226 
L 153.43955 280.680226 
L 153.43955 277.580494 
L 154.7345 277.580494 
L 154.842792 276.030628 
L 155.057426 276.030628 
L 155.057426 274.997384 
L 155.269513 274.997384 
L 155.322144 272.414274 
L 155.479112 272.414274 
L 155.479112 271.38103 
L 155.992599 271.38103 
L 156.043145 269.831164 
L 156.393022 269.831164 
L 156.393022 268.79792 
L 158.579887 268.79792 
L 158.579887 268.281298 
L 160.211092 268.281298 
L 160.211092 267.248054 
L 160.878037 267.248054 
L 160.878037 266.731432 
L 161.031412 266.731432 
L 161.031412 266.21481 
L 161.52098 266.21481 
L 161.52098 264.664944 
L 161.997491 264.664944 
L 161.997491 264.148322 
L 162.426347 264.148322 
L 162.426347 263.6317 
L 164.045699 263.6317 
L 164.110088 261.565212 
L 166.846097 261.565212 
L 166.846097 260.015346 
L 167.119734 260.015346 
L 167.119734 258.46548 
L 210.483839 258.46548 
L 210.591428 256.398992 
L 210.70548 256.398992 
L 210.748063 254.332504 
L 210.950124 254.332504 
L 210.950124 253.815882 
L 211.202984 253.815882 
L 211.202984 251.232772 
L 211.436408 251.232772 
L 211.504486 249.166284 
L 222.69315 249.166284 
L 222.701624 248.13304 
L 222.805411 248.13304 
L 222.901418 246.066551 
L 222.936094 246.066551 
L 222.936094 244.000063 
L 223.057524 244.000063 
L 223.093083 242.450197 
L 229.77423 242.450197 
L 229.77423 241.933575 
L 229.958218 241.933575 
L 230.040278 239.350465 
L 234.895819 239.350465 
L 234.895819 238.833843 
L 235.04202 238.833843 
L 235.048086 237.283977 
L 238.759233 237.283977 
L 238.801067 235.734111 
L 238.905469 235.734111 
L 238.950375 232.117757 
L 242.057335 232.117757 
L 242.117866 230.051269 
L 244.771288 230.051269 
L 244.875514 227.468159 
L 244.886008 227.468159 
L 244.886008 226.951537 
L 247.201358 226.951537 
L 247.232665 225.401671 
L 249.286931 225.401671 
L 249.322978 223.335183 
L 251.154319 223.335183 
L 251.154319 221.785317 
L 252.865479 221.785317 
L 252.865479 221.268695 
L 255.810653 221.268695 
L 255.828101 219.718829 
L 257.127286 219.718829 
L 257.150538 216.619097 
L 258.370302 216.619097 
L 258.370302 215.585853 
L 259.500985 215.585853 
L 259.521346 212.48612 
L 260.579185 212.48612 
L 260.598354 210.419632 
L 261.596009 210.419632 
L 261.610004 209.386388 
L 262.558071 209.386388 
L 262.558071 208.869766 
L 263.482336 208.869766 
L 263.482336 208.353144 
L 264.339485 208.353144 
L 264.350313 207.3199 
L 265.179195 207.3199 
L 265.179195 206.286656 
L 266.727765 206.286656 
L 266.727765 205.770034 
L 267.444376 205.770034 
L 267.454466 204.220168 
L 268.152763 204.220168 
L 268.155616 203.186924 
L 268.815449 203.186924 
L 268.824794 202.15368 
L 269.46345 202.15368 
L 269.46345 201.637058 
L 270.088772 201.637058 
L 270.088772 201.120436 
L 270.703833 201.120436 
L 270.703833 200.603814 
L 272.39869 200.603814 
L 272.39869 199.57057 
L 274.431578 199.57057 
L 274.431578 199.053948 
L 274.913104 199.053948 
L 274.913104 198.537326 
L 275.376154 198.537326 
L 275.376789 197.504082 
L 275.821812 197.504082 
L 275.821812 196.98746 
L 279.446815 196.98746 
L 279.446815 196.470838 
L 285.288959 196.470838 
L 285.288959 195.954216 
L 287.74081 195.954216 
L 287.74081 195.437594 
L 289.48351 195.437594 
L 289.48351 194.920972 
L 358.8 194.920972 
L 358.8 194.920972 
" style="fill:none;stroke:#008000;stroke-linecap:square;stroke-width:1.5;"/>
   </g>
   <g id="line2d_30">
    <defs>
     <path d="M -0 6 
L 6 -6 
L -6 -6 
z
" id="m2ccc648f67" style="stroke:#008000;stroke-linejoin:miter;stroke-width:1.5;"/>
    </defs>
    <g>
     <use style="fill:none;stroke:#008000;stroke-linejoin:miter;stroke-width:1.5;" x="167.119734" xlink:href="#m2ccc648f67" y="258.46548"/>
     <use style="fill:none;stroke:#008000;stroke-linejoin:miter;stroke-width:1.5;" x="247.232665" xlink:href="#m2ccc648f67" y="225.918293"/>
     <use style="fill:none;stroke:#008000;stroke-linejoin:miter;stroke-width:1.5;" x="289.48351" xlink:href="#m2ccc648f67" y="195.437594"/>
     <use style="fill:none;stroke:#008000;stroke-linejoin:miter;stroke-width:1.5;" x="289.48351" xlink:href="#m2ccc648f67" y="194.920972"/>
     <use style="fill:none;stroke:#008000;stroke-linejoin:miter;stroke-width:1.5;" x="358.8" xlink:href="#m2ccc648f67" y="194.920972"/>
    </g>
   </g>
   <g id="line2d_31"/>
   <g id="line2d_32">
    <path clip-path="url(#p2a1c2fd8ad)" d="M 209.87403 258.46548 
" style="fill:none;stroke:#008000;stroke-linecap:square;stroke-width:1.5;"/>
    <defs>
     <path d="M -12 12 
L 12 -12 
M -12 -12 
L 12 12 
" id="me7e4b27e8a" style="stroke:#008000;stroke-width:3;"/>
    </defs>
    <g clip-path="url(#p2a1c2fd8ad)">
     <use style="fill:#008000;stroke:#008000;stroke-width:3;" x="209.87403" xlink:href="#me7e4b27e8a" y="258.46548"/>
    </g>
   </g>
   <g id="line2d_33">
    <defs>
     <path d="M 0 1.5 
C 0.397805 1.5 0.77937 1.341951 1.06066 1.06066 
C 1.341951 0.77937 1.5 0.397805 1.5 0 
C 1.5 -0.397805 1.341951 -0.77937 1.06066 -1.06066 
C 0.77937 -1.341951 0.397805 -1.5 0 -1.5 
C -0.397805 -1.5 -0.77937 -1.341951 -1.06066 -1.06066 
C -1.341951 -0.77937 -1.5 -0.397805 -1.5 0 
C -1.5 0.397805 -1.341951 0.77937 -1.06066 1.06066 
C -0.77937 1.341951 -0.397805 1.5 0 1.5 
z
" id="mb1bcd7010e" style="stroke:#0000ff;"/>
    </defs>
    <g>
     <use style="fill:#0000ff;stroke:#0000ff;" x="278.698591" xlink:href="#mb1bcd7010e" y="210.419632"/>
     <use style="fill:#0000ff;stroke:#0000ff;" x="278.698591" xlink:href="#mb1bcd7010e" y="210.419632"/>
    </g>
   </g>
   <g id="line2d_34">
    <path d="M 147.166263 298.245375 
L 147.166263 297.212131 
L 150.679328 297.212131 
L 150.679328 296.695509 
L 151.12353 296.695509 
L 151.12353 295.145643 
L 151.282358 295.145643 
L 151.282358 294.629021 
L 151.634644 294.629021 
L 151.634644 293.595777 
L 151.750545 293.595777 
L 151.750545 292.562533 
L 151.980117 292.562533 
L 151.980117 292.045911 
L 152.319038 292.045911 
L 152.319038 291.012667 
L 152.504586 291.012667 
L 152.504586 289.462801 
L 152.761158 289.462801 
L 152.761158 287.912935 
L 153.085714 287.912935 
L 153.085714 287.396313 
L 153.263508 287.396313 
L 153.263508 286.363069 
L 153.613874 286.363069 
L 153.683131 284.296581 
L 153.957503 284.296581 
L 154.059315 281.196849 
L 154.12687 281.196849 
L 154.12687 279.646982 
L 154.261217 279.646982 
L 154.294647 278.097116 
L 154.526919 278.097116 
L 154.559856 274.480762 
L 154.690998 274.480762 
L 154.756211 272.930896 
L 155.174385 272.930896 
L 155.174385 272.414274 
L 155.768481 272.414274 
L 155.768481 270.864408 
L 155.891075 270.864408 
L 155.982473 266.21481 
L 156.193932 266.21481 
L 156.193932 265.181566 
L 156.343457 265.181566 
L 156.343457 264.664944 
L 156.462182 264.664944 
L 156.462182 264.148322 
L 157.044257 264.148322 
L 157.072869 262.081834 
L 157.607967 262.081834 
L 157.663372 259.498724 
L 158.448018 259.498724 
L 158.448018 258.982102 
L 158.866617 258.982102 
L 158.866617 258.46548 
L 159.123347 258.46548 
L 159.225015 257.432236 
L 159.526594 257.432236 
L 159.526594 256.398992 
L 160.2829 256.398992 
L 160.2829 255.88237 
L 210.638087 255.88237 
L 210.727731 249.682906 
L 210.760346 249.682906 
L 210.836687 246.066551 
L 210.873328 246.066551 
L 210.953395 244.516685 
L 211.260479 244.516685 
L 211.260479 244.000063 
L 222.611348 244.000063 
L 222.721946 240.900331 
L 222.725573 240.900331 
L 222.78422 237.800599 
L 222.965455 237.800599 
L 222.965455 237.283977 
L 229.761842 237.283977 
L 229.854542 230.567891 
L 234.874642 230.567891 
L 234.908415 229.018025 
L 235.000596 229.018025 
L 235.000596 228.501403 
L 238.786313 228.501403 
L 238.835248 224.885049 
L 242.018208 224.885049 
L 242.042826 223.335183 
L 244.767416 223.335183 
L 244.794642 221.268695 
L 247.146716 221.268695 
L 247.208177 218.685585 
L 249.238206 218.685585 
L 249.238206 218.168963 
L 252.805863 218.168963 
L 252.849586 216.619097 
L 254.351015 216.619097 
L 254.355956 215.585853 
L 255.771066 215.585853 
L 255.775972 214.552609 
L 257.130775 214.552609 
L 257.130775 214.035987 
L 260.552837 214.035987 
L 260.552837 213.519365 
L 261.567105 213.519365 
L 261.567105 213.002743 
L 262.560386 213.002743 
L 262.560386 212.48612 
L 265.936434 212.48612 
L 265.961029 211.452876 
L 266.718884 211.452876 
L 266.718884 210.936254 
L 278.698591 210.936254 
L 278.698591 210.419632 
L 358.8 210.419632 
L 358.8 210.419632 
" style="fill:none;stroke:#0000ff;stroke-linecap:square;stroke-width:1.5;"/>
   </g>
   <g id="line2d_35">
    <defs>
     <path d="M 0 -6 
L -1.347084 -1.854102 
L -5.706339 -1.854102 
L -2.179628 0.708204 
L -3.526712 4.854102 
L -0 2.291796 
L 3.526712 4.854102 
L 2.179628 0.708204 
L 5.706339 -1.854102 
L 1.347084 -1.854102 
z
" id="ma5fd0d18af" style="stroke:#0000ff;stroke-linejoin:bevel;stroke-width:1.5;"/>
    </defs>
    <g>
     <use style="fill:none;stroke:#0000ff;stroke-linejoin:bevel;stroke-width:1.5;" x="160.2829" xlink:href="#ma5fd0d18af" y="255.88237"/>
     <use style="fill:none;stroke:#0000ff;stroke-linejoin:bevel;stroke-width:1.5;" x="242.042826" xlink:href="#ma5fd0d18af" y="223.851805"/>
     <use style="fill:none;stroke:#0000ff;stroke-linejoin:bevel;stroke-width:1.5;" x="278.698591" xlink:href="#ma5fd0d18af" y="210.419632"/>
     <use style="fill:none;stroke:#0000ff;stroke-linejoin:bevel;stroke-width:1.5;" x="278.698591" xlink:href="#ma5fd0d18af" y="210.419632"/>
     <use style="fill:none;stroke:#0000ff;stroke-linejoin:bevel;stroke-width:1.5;" x="358.8" xlink:href="#ma5fd0d18af" y="210.419632"/>
    </g>
   </g>
   <g id="line2d_36"/>
   <g id="line2d_37">
    <path clip-path="url(#p2a1c2fd8ad)" d="M 209.873037 255.88237 
" style="fill:none;stroke:#0000ff;stroke-linecap:square;stroke-width:1.5;"/>
    <defs>
     <path d="M -12 12 
L 12 -12 
M -12 -12 
L 12 12 
" id="m86a7ac55c5" style="stroke:#0000ff;stroke-width:3;"/>
    </defs>
    <g clip-path="url(#p2a1c2fd8ad)">
     <use style="fill:#0000ff;stroke:#0000ff;stroke-width:3;" x="209.873037" xlink:href="#m86a7ac55c5" y="255.88237"/>
    </g>
   </g>
   <g id="line2d_38">
    <defs>
     <path d="M 0 1.5 
C 0.397805 1.5 0.77937 1.341951 1.06066 1.06066 
C 1.341951 0.77937 1.5 0.397805 1.5 0 
C 1.5 -0.397805 1.341951 -0.77937 1.06066 -1.06066 
C 0.77937 -1.341951 0.397805 -1.5 0 -1.5 
C -0.397805 -1.5 -0.77937 -1.341951 -1.06066 -1.06066 
C -1.341951 -0.77937 -1.5 -0.397805 -1.5 0 
C -1.5 0.397805 -1.341951 0.77937 -1.06066 1.06066 
C -0.77937 1.341951 -0.397805 1.5 0 1.5 
z
" id="me890e3d6ba" style="stroke:#000000;"/>
    </defs>
    <g>
     <use style="stroke:#000000;" x="281.165698" xlink:href="#me890e3d6ba" y="210.419632"/>
     <use style="stroke:#000000;" x="281.165698" xlink:href="#me890e3d6ba" y="210.419632"/>
    </g>
   </g>
   <g id="line2d_39">
    <path d="M 147.584393 298.245375 
L 147.584393 297.212131 
L 147.873762 297.212131 
L 147.873762 295.145643 
L 148.600303 295.145643 
L 148.600303 294.112399 
L 149.16544 294.112399 
L 149.276353 293.079155 
L 149.648391 293.079155 
L 149.713248 292.045911 
L 149.927754 292.045911 
L 150.034049 290.496045 
L 150.24476 290.496045 
L 150.328354 288.946179 
L 150.576814 288.946179 
L 150.576814 287.912935 
L 150.740555 287.912935 
L 150.842136 286.363069 
L 150.862383 286.363069 
L 150.862383 285.846447 
L 151.12353 285.846447 
L 151.143461 281.713471 
L 151.321846 281.713471 
L 151.321846 281.196849 
L 151.459369 281.196849 
L 151.537481 280.163604 
L 151.8657 280.163604 
L 151.8657 279.646982 
L 151.999116 279.646982 
L 151.999116 279.13036 
L 152.244276 279.13036 
L 152.244276 278.613738 
L 152.356302 278.613738 
L 152.449124 277.580494 
L 152.486118 277.580494 
L 152.541466 274.997384 
L 152.851906 274.997384 
L 152.960198 271.897652 
L 153.139238 271.897652 
L 153.139238 271.38103 
L 153.28119 271.38103 
L 153.28119 270.864408 
L 153.561755 270.864408 
L 153.613874 269.831164 
L 153.974512 269.831164 
L 154.076228 267.764676 
L 154.093125 267.764676 
L 154.12687 266.731432 
L 154.460863 266.731432 
L 154.493922 265.181566 
L 154.576301 265.181566 
L 154.641933 264.148322 
L 154.723634 264.148322 
L 154.723634 263.6317 
L 154.885925 263.6317 
L 154.885925 262.598456 
L 155.551895 262.598456 
L 155.660516 261.04859 
L 155.753097 261.04859 
L 155.753097 259.498724 
L 156.118698 259.498724 
L 156.163876 258.46548 
L 156.521251 258.46548 
L 156.521251 257.432236 
L 156.653444 257.432236 
L 156.668072 256.398992 
L 156.784667 256.398992 
L 156.784667 255.88237 
L 157.015599 255.88237 
L 157.015599 254.332504 
L 157.342421 254.332504 
L 157.342421 253.815882 
L 157.635691 253.815882 
L 157.635691 253.29926 
L 157.992242 253.29926 
L 157.992242 252.782638 
L 158.301829 252.782638 
L 158.301829 251.749394 
L 158.619258 251.749394 
L 158.619258 249.682906 
L 159.237683 249.682906 
L 159.237683 249.166284 
L 159.526594 249.166284 
L 159.613604 247.616418 
L 210.527909 247.616418 
L 210.635948 244.000063 
L 210.643079 244.000063 
L 210.751843 238.833843 
L 210.765304 238.833843 
L 210.842329 236.250733 
L 210.909192 236.250733 
L 210.914109 235.217489 
L 222.658727 235.217489 
L 222.757816 231.601135 
L 229.770156 231.601135 
L 229.837502 226.951537 
L 234.829943 226.951537 
L 234.881255 223.335183 
L 238.801952 223.335183 
L 238.824795 221.785317 
L 244.771534 221.785317 
L 244.778713 220.235451 
L 247.154387 220.235451 
L 247.154387 219.718829 
L 249.238947 219.718829 
L 249.238947 219.202207 
L 251.107894 219.202207 
L 251.107894 218.685585 
L 254.34595 218.685585 
L 254.349409 217.135719 
L 255.769469 217.135719 
L 255.78099 215.069231 
L 257.088906 215.069231 
L 257.088906 214.552609 
L 258.321287 214.552609 
L 258.321287 214.035987 
L 259.473152 214.035987 
L 259.473152 213.519365 
L 265.145174 213.519365 
L 265.145174 213.002743 
L 266.696426 213.002743 
L 266.696426 212.48612 
L 268.127324 212.48612 
L 268.127324 211.969498 
L 271.261144 211.969498 
L 271.261144 211.452876 
L 273.428632 211.452876 
L 273.428632 210.936254 
L 281.165698 210.936254 
L 281.165698 210.419632 
L 358.8 210.419632 
L 358.8 210.419632 
" style="fill:none;stroke:#000000;stroke-linecap:square;stroke-width:1.5;"/>
   </g>
   <g id="line2d_40">
    <defs>
     <path d="M 0 6 
C 1.591219 6 3.117479 5.367802 4.242641 4.242641 
C 5.367802 3.117479 6 1.591219 6 0 
C 6 -1.591219 5.367802 -3.117479 4.242641 -4.242641 
C 3.117479 -5.367802 1.591219 -6 0 -6 
C -1.591219 -6 -3.117479 -5.367802 -4.242641 -4.242641 
C -5.367802 -3.117479 -6 -1.591219 -6 0 
C -6 1.591219 -5.367802 3.117479 -4.242641 4.242641 
C -3.117479 5.367802 -1.591219 6 0 6 
z
" id="m504cca14cb" style="stroke:#000000;stroke-width:1.5;"/>
    </defs>
    <g>
     <use style="fill:none;stroke:#000000;stroke-width:1.5;" x="159.613604" xlink:href="#m504cca14cb" y="248.13304"/>
     <use style="fill:none;stroke:#000000;stroke-width:1.5;" x="222.731374" xlink:href="#m504cca14cb" y="232.634379"/>
     <use style="fill:none;stroke:#000000;stroke-width:1.5;" x="281.165698" xlink:href="#m504cca14cb" y="210.936254"/>
     <use style="fill:none;stroke:#000000;stroke-width:1.5;" x="281.165698" xlink:href="#m504cca14cb" y="210.419632"/>
     <use style="fill:none;stroke:#000000;stroke-width:1.5;" x="358.8" xlink:href="#m504cca14cb" y="210.419632"/>
    </g>
   </g>
   <g id="line2d_41"/>
   <g id="line2d_42">
    <path clip-path="url(#p2a1c2fd8ad)" d="M 209.872293 247.616418 
" style="fill:none;stroke:#000000;stroke-linecap:square;stroke-width:1.5;"/>
    <defs>
     <path d="M -12 12 
L 12 -12 
M -12 -12 
L 12 12 
" id="m7960606a12" style="stroke:#000000;stroke-width:3;"/>
    </defs>
    <g clip-path="url(#p2a1c2fd8ad)">
     <use style="stroke:#000000;stroke-width:3;" x="209.872293" xlink:href="#m7960606a12" y="247.616418"/>
    </g>
   </g>
   <g id="line2d_43">
    <defs>
     <path d="M 0 1.5 
C 0.397805 1.5 0.77937 1.341951 1.06066 1.06066 
C 1.341951 0.77937 1.5 0.397805 1.5 0 
C 1.5 -0.397805 1.341951 -0.77937 1.06066 -1.06066 
C 0.77937 -1.341951 0.397805 -1.5 0 -1.5 
C -0.397805 -1.5 -0.77937 -1.341951 -1.06066 -1.06066 
C -1.341951 -0.77937 -1.5 -0.397805 -1.5 0 
C -1.5 0.397805 -1.341951 0.77937 -1.06066 1.06066 
C -0.77937 1.341951 -0.397805 1.5 0 1.5 
z
" id="m7ae507d4cf" style="stroke:#ff0000;"/>
    </defs>
    <g>
     <use style="fill:#ff0000;stroke:#ff0000;" x="263.441599" xlink:href="#m7ae507d4cf" y="210.419632"/>
     <use style="fill:#ff0000;stroke:#ff0000;" x="263.441599" xlink:href="#m7ae507d4cf" y="210.419632"/>
    </g>
   </g>
   <g id="line2d_44">
    <path d="M 146.455505 298.245375 
L 146.455505 297.212131 
L 146.738113 297.212131 
L 146.738113 296.695509 
L 147.041398 296.695509 
L 147.041398 296.178887 
L 147.22837 296.178887 
L 147.327294 294.112399 
L 147.560066 294.112399 
L 147.608687 293.079155 
L 147.981078 293.079155 
L 147.981078 291.529289 
L 148.146744 291.529289 
L 148.158519 288.429557 
L 148.369147 288.429557 
L 148.369147 287.912935 
L 148.623255 287.912935 
L 148.623255 287.396313 
L 148.952788 287.396313 
L 148.952788 286.879691 
L 149.07621 286.879691 
L 149.15431 285.846447 
L 149.386582 285.846447 
L 149.386582 284.813203 
L 149.528871 284.813203 
L 149.62672 283.263337 
L 149.670036 283.263337 
L 149.670036 282.230093 
L 149.874368 282.230093 
L 149.895742 279.13036 
L 150.08696 279.13036 
L 150.160774 276.54725 
L 150.234283 276.54725 
L 150.234283 276.030628 
L 150.370004 276.030628 
L 150.401179 274.997384 
L 150.750739 274.997384 
L 150.842136 271.38103 
L 150.993433 271.38103 
L 150.993433 269.831164 
L 151.262582 269.831164 
L 151.262582 269.314542 
L 151.488701 269.314542 
L 151.595842 266.21481 
L 151.634644 266.21481 
L 151.634644 265.181566 
L 152.037053 265.181566 
L 152.122116 262.081834 
L 152.187998 262.081834 
L 152.281696 261.04859 
L 152.356302 261.04859 
L 152.458379 257.948858 
L 152.486118 257.948858 
L 152.486118 256.915614 
L 152.833793 256.915614 
L 152.833793 256.398992 
L 153.014098 256.398992 
L 153.014098 255.88237 
L 153.201481 255.88237 
L 153.307681 252.782638 
L 153.760725 252.782638 
L 153.760725 251.749394 
L 153.889304 251.749394 
L 153.991505 249.682906 
L 154.050853 249.682906 
L 154.050853 249.166284 
L 154.369636 249.166284 
L 154.369636 248.13304 
L 154.942381 248.13304 
L 154.942381 247.616418 
L 155.086738 247.616418 
L 155.110684 246.066551 
L 155.324771 246.066551 
L 155.324771 245.549929 
L 155.528533 245.549929 
L 155.590764 244.000063 
L 156.201438 244.000063 
L 156.201438 243.483441 
L 158.321835 243.483441 
L 158.321835 242.966819 
L 210.490552 242.966819 
L 210.598101 239.867087 
L 210.607392 239.867087 
L 210.697899 233.667623 
L 210.739082 233.667623 
L 210.804211 232.634379 
L 222.587428 232.634379 
L 222.694906 227.468159 
L 222.749308 227.468159 
L 222.749308 226.951537 
L 229.757929 226.951537 
L 229.799224 221.785317 
L 234.835375 221.785317 
L 234.854514 220.235451 
L 238.769405 220.235451 
L 238.828035 217.135719 
L 242.015682 217.135719 
L 242.034398 214.035987 
L 244.769634 214.035987 
L 244.769634 213.519365 
L 247.13807 213.519365 
L 247.146854 212.48612 
L 249.216031 212.48612 
L 249.242729 211.452876 
L 251.096225 211.452876 
L 251.096225 210.936254 
L 263.441599 210.936254 
L 263.441599 210.419632 
L 358.8 210.419632 
L 358.8 210.419632 
" style="fill:none;stroke:#ff0000;stroke-linecap:square;stroke-width:1.5;"/>
   </g>
   <g id="line2d_45">
    <defs>
     <path d="M -6 6 
L 6 6 
L 6 -6 
L -6 -6 
z
" id="m304f453a9e" style="stroke:#ff0000;stroke-linejoin:miter;stroke-width:1.5;"/>
    </defs>
    <g>
     <use style="fill:none;stroke:#ff0000;stroke-linejoin:miter;stroke-width:1.5;" x="158.321835" xlink:href="#m304f453a9e" y="243.483441"/>
     <use style="fill:none;stroke:#ff0000;stroke-linejoin:miter;stroke-width:1.5;" x="234.854514" xlink:href="#m304f453a9e" y="220.752073"/>
     <use style="fill:none;stroke:#ff0000;stroke-linejoin:miter;stroke-width:1.5;" x="263.441599" xlink:href="#m304f453a9e" y="210.419632"/>
     <use style="fill:none;stroke:#ff0000;stroke-linejoin:miter;stroke-width:1.5;" x="263.441599" xlink:href="#m304f453a9e" y="210.419632"/>
     <use style="fill:none;stroke:#ff0000;stroke-linejoin:miter;stroke-width:1.5;" x="358.8" xlink:href="#m304f453a9e" y="210.419632"/>
    </g>
   </g>
   <g id="line2d_46"/>
   <g id="line2d_47">
    <path clip-path="url(#p2a1c2fd8ad)" d="M 209.87192 242.966819 
" style="fill:none;stroke:#ff0000;stroke-linecap:square;stroke-width:1.5;"/>
    <defs>
     <path d="M -12 12 
L 12 -12 
M -12 -12 
L 12 12 
" id="medcee19293" style="stroke:#ff0000;stroke-width:3;"/>
    </defs>
    <g clip-path="url(#p2a1c2fd8ad)">
     <use style="fill:#ff0000;stroke:#ff0000;stroke-width:3;" x="209.87192" xlink:href="#medcee19293" y="242.966819"/>
    </g>
   </g>
   <g id="line2d_48">
    <defs>
     <path d="M 0 1.5 
C 0.397805 1.5 0.77937 1.341951 1.06066 1.06066 
C 1.341951 0.77937 1.5 0.397805 1.5 0 
C 1.5 -0.397805 1.341951 -0.77937 1.06066 -1.06066 
C 0.77937 -1.341951 0.397805 -1.5 0 -1.5 
C -0.397805 -1.5 -0.77937 -1.341951 -1.06066 -1.06066 
C -1.341951 -0.77937 -1.5 -0.397805 -1.5 0 
C -1.5 0.397805 -1.341951 0.77937 -1.06066 1.06066 
C -0.77937 1.341951 -0.397805 1.5 0 1.5 
z
" id="m778c92b072" style="stroke:#bf00bf;"/>
    </defs>
    <g>
     <use style="fill:#bf00bf;stroke:#bf00bf;" x="291.805548" xlink:href="#m778c92b072" y="158.757431"/>
     <use style="fill:#bf00bf;stroke:#bf00bf;" x="291.805548" xlink:href="#m778c92b072" y="158.757431"/>
    </g>
   </g>
   <g id="line2d_49">
    <path d="M 144.608842 298.245375 
L 144.608842 297.728753 
L 145.24353 297.728753 
L 145.24353 296.695509 
L 145.896568 296.695509 
L 145.896568 296.178887 
L 146.049543 296.178887 
L 146.049543 295.662265 
L 146.20122 295.662265 
L 146.20122 294.629021 
L 146.423106 294.629021 
L 146.474917 293.595777 
L 146.789019 293.595777 
L 146.789019 293.079155 
L 146.991206 293.079155 
L 146.991206 292.562533 
L 147.529611 292.562533 
L 147.529611 291.529289 
L 147.663228 291.529289 
L 147.699496 290.496045 
L 147.813862 290.496045 
L 147.885718 288.946179 
L 148.004839 288.946179 
L 148.093662 287.396313 
L 148.123171 287.396313 
L 148.123171 286.363069 
L 148.380776 286.363069 
L 148.444602 284.813203 
L 148.525505 284.813203 
L 148.525505 284.296581 
L 148.691935 284.296581 
L 148.800141 282.746715 
L 148.817166 282.746715 
L 148.817166 282.230093 
L 149.037032 282.230093 
L 149.132031 280.163604 
L 149.265293 280.163604 
L 149.298453 277.580494 
L 149.381087 277.580494 
L 149.381087 277.063872 
L 149.501596 277.063872 
L 149.605022 274.480762 
L 149.621298 274.480762 
L 149.653805 273.447518 
L 150.171293 273.447518 
L 150.281381 269.831164 
L 150.463365 269.831164 
L 150.571672 268.79792 
L 150.663988 268.79792 
L 150.694654 267.248054 
L 150.867441 267.248054 
L 150.867441 266.731432 
L 151.01351 266.731432 
L 151.103576 264.664944 
L 151.153418 264.664944 
L 151.262582 261.565212 
L 151.513108 261.565212 
L 151.513108 261.04859 
L 151.639488 261.04859 
L 151.644331 259.498724 
L 151.851346 259.498724 
L 151.851346 258.982102 
L 151.965855 258.982102 
L 152.008608 257.432236 
L 152.472254 257.432236 
L 152.472254 256.915614 
L 152.628751 256.915614 
L 152.628751 255.88237 
L 152.770254 255.88237 
L 152.847379 254.849126 
L 153.081247 254.849126 
L 153.179277 253.815882 
L 153.219225 253.815882 
L 153.219225 253.29926 
L 153.535639 253.29926 
L 153.535639 252.782638 
L 153.72628 252.782638 
L 153.760725 251.232772 
L 154.008482 251.232772 
L 154.084678 250.199528 
L 154.311338 250.199528 
L 154.311338 248.649662 
L 154.73993 248.649662 
L 154.73993 248.13304 
L 155.026731 248.13304 
L 155.026731 247.616418 
L 155.910155 247.616418 
L 155.910155 247.099796 
L 156.054499 247.099796 
L 156.054499 246.583173 
L 156.283797 246.583173 
L 156.283797 246.066551 
L 157.770233 246.066551 
L 157.770233 245.549929 
L 158.298493 245.549929 
L 158.298493 245.033307 
L 210.403503 245.033307 
L 210.504031 241.933575 
L 210.522706 241.933575 
L 210.606499 238.317221 
L 210.642188 238.317221 
L 210.729859 233.667623 
L 210.807921 233.667623 
L 210.914109 232.117757 
L 222.552862 232.117757 
L 222.654632 226.951537 
L 222.666096 226.951537 
L 222.758359 221.785317 
L 222.785756 221.785317 
L 222.785756 220.752073 
L 229.757745 220.752073 
L 229.819409 217.652341 
L 234.815894 217.652341 
L 234.908552 212.48612 
L 238.773726 212.48612 
L 238.842754 205.770034 
L 242.011401 205.770034 
L 242.055798 200.087192 
L 244.735943 200.087192 
L 244.779187 194.40435 
L 247.126783 194.40435 
L 247.154109 191.304618 
L 249.214961 191.304618 
L 249.228624 189.754752 
L 251.094113 189.754752 
L 251.121608 187.171642 
L 252.801502 187.171642 
L 252.804769 186.138398 
L 254.341176 186.138398 
L 254.356882 184.07191 
L 255.76526 184.07191 
L 255.784924 180.455556 
L 257.085899 180.455556 
L 257.091503 177.872445 
L 258.323884 177.872445 
L 258.323884 177.355823 
L 259.472642 177.355823 
L 259.472642 176.322579 
L 260.547554 176.322579 
L 260.555641 175.289335 
L 262.529518 175.289335 
L 262.530114 174.256091 
L 263.441274 174.256091 
L 263.448143 171.672981 
L 264.312223 171.672981 
L 264.312223 171.156359 
L 265.144837 171.156359 
L 265.144837 170.639737 
L 265.94127 170.639737 
L 265.94127 170.123115 
L 268.799006 170.123115 
L 268.80184 168.573249 
L 269.442416 168.573249 
L 269.443723 167.540005 
L 270.074 167.540005 
L 270.074 167.023383 
L 270.673159 167.023383 
L 270.676733 165.990139 
L 271.259903 165.990139 
L 271.260431 164.956895 
L 271.826789 164.956895 
L 271.826789 164.440273 
L 272.377035 164.440273 
L 272.378528 163.407029 
L 272.909591 163.407029 
L 272.909591 162.890407 
L 273.424204 162.890407 
L 273.424204 162.373785 
L 274.417992 162.373785 
L 274.417992 161.857163 
L 275.80996 161.857163 
L 275.80996 161.340541 
L 276.247975 161.340541 
L 276.249697 159.790675 
L 280.143501 159.790675 
L 280.143501 159.274053 
L 291.805548 159.274053 
L 291.805548 158.757431 
L 358.8 158.757431 
L 358.8 158.757431 
" style="fill:none;stroke:#bf00bf;stroke-linecap:square;stroke-width:1.5;"/>
   </g>
   <g id="line2d_50">
    <defs>
     <path d="M -0 8.485281 
L 8.485281 0 
L 0 -8.485281 
L -8.485281 -0 
z
" id="mec98bdd9e1" style="stroke:#bf00bf;stroke-linejoin:miter;stroke-width:1.5;"/>
    </defs>
    <g>
     <use style="fill:none;stroke:#bf00bf;stroke-linejoin:miter;stroke-width:1.5;" x="158.298493" xlink:href="#mec98bdd9e1" y="245.549929"/>
     <use style="fill:none;stroke:#bf00bf;stroke-linejoin:miter;stroke-width:1.5;" x="229.765572" xlink:href="#mec98bdd9e1" y="219.718829"/>
     <use style="fill:none;stroke:#bf00bf;stroke-linejoin:miter;stroke-width:1.5;" x="276.249697" xlink:href="#mec98bdd9e1" y="159.790675"/>
     <use style="fill:none;stroke:#bf00bf;stroke-linejoin:miter;stroke-width:1.5;" x="291.805548" xlink:href="#mec98bdd9e1" y="158.757431"/>
     <use style="fill:none;stroke:#bf00bf;stroke-linejoin:miter;stroke-width:1.5;" x="358.8" xlink:href="#mec98bdd9e1" y="158.757431"/>
    </g>
   </g>
   <g id="line2d_51"/>
   <g id="line2d_52">
    <path clip-path="url(#p2a1c2fd8ad)" d="M 209.871734 245.033307 
" style="fill:none;stroke:#bf00bf;stroke-linecap:square;stroke-width:1.5;"/>
    <defs>
     <path d="M -12 12 
L 12 -12 
M -12 -12 
L 12 12 
" id="m5a88dd7968" style="stroke:#bf00bf;stroke-width:3;"/>
    </defs>
    <g clip-path="url(#p2a1c2fd8ad)">
     <use style="fill:#bf00bf;stroke:#bf00bf;stroke-width:3;" x="209.871734" xlink:href="#m5a88dd7968" y="245.033307"/>
    </g>
   </g>
   <g id="line2d_53">
    <path d="M 358.8 210.419632 
L 390.48 292.97583 
" style="fill:none;stroke:#000000;stroke-linecap:square;stroke-width:1.5;"/>
    <g>
     <use style="fill:none;stroke:#000000;stroke-width:1.5;" x="358.8" xlink:href="#m504cca14cb" y="210.419632"/>
     <use style="fill:none;stroke:#000000;stroke-width:1.5;" x="390.48" xlink:href="#m504cca14cb" y="292.97583"/>
    </g>
   </g>
   <g id="line2d_54">
    <path d="M 358.8 210.419632 
L 390.48 242.388203 
" style="fill:none;stroke:#0000ff;stroke-linecap:square;stroke-width:1.5;"/>
    <g>
     <use style="fill:none;stroke:#0000ff;stroke-linejoin:bevel;stroke-width:1.5;" x="358.8" xlink:href="#ma5fd0d18af" y="210.419632"/>
     <use style="fill:none;stroke:#0000ff;stroke-linejoin:bevel;stroke-width:1.5;" x="390.48" xlink:href="#ma5fd0d18af" y="242.388203"/>
    </g>
   </g>
   <g id="line2d_55">
    <path d="M 358.8 210.419632 
L 390.48 191.800575 
" style="fill:none;stroke:#ff0000;stroke-linecap:square;stroke-width:1.5;"/>
    <g>
     <use style="fill:none;stroke:#ff0000;stroke-linejoin:miter;stroke-width:1.5;" x="358.8" xlink:href="#m304f453a9e" y="210.419632"/>
     <use style="fill:none;stroke:#ff0000;stroke-linejoin:miter;stroke-width:1.5;" x="390.48" xlink:href="#m304f453a9e" y="191.800575"/>
    </g>
   </g>
   <g id="line2d_56">
    <path d="M 358.8 194.920972 
L 390.48 141.212947 
" style="fill:none;stroke:#008000;stroke-linecap:square;stroke-width:1.5;"/>
    <g>
     <use style="fill:none;stroke:#008000;stroke-linejoin:miter;stroke-width:1.5;" x="358.8" xlink:href="#m2ccc648f67" y="194.920972"/>
     <use style="fill:none;stroke:#008000;stroke-linejoin:miter;stroke-width:1.5;" x="390.48" xlink:href="#m2ccc648f67" y="141.212947"/>
    </g>
   </g>
   <g id="line2d_57">
    <path d="M 358.8 158.757431 
L 390.48 90.62532 
" style="fill:none;stroke:#bf00bf;stroke-linecap:square;stroke-width:1.5;"/>
    <g>
     <use style="fill:none;stroke:#bf00bf;stroke-linejoin:miter;stroke-width:1.5;" x="358.8" xlink:href="#mec98bdd9e1" y="158.757431"/>
     <use style="fill:none;stroke:#bf00bf;stroke-linejoin:miter;stroke-width:1.5;" x="390.48" xlink:href="#mec98bdd9e1" y="90.62532"/>
    </g>
   </g>
   <g id="line2d_58">
    <path d="M 358.8 34.768147 
L 390.48 40.037692 
" style="fill:none;stroke:#00bfbf;stroke-linecap:square;stroke-width:1.5;"/>
    <g>
     <use style="fill:none;stroke:#00bfbf;stroke-width:1.5;" x="358.8" xlink:href="#m7eebd16ca3" y="34.768147"/>
     <use style="fill:none;stroke:#00bfbf;stroke-width:1.5;" x="390.48" xlink:href="#m7eebd16ca3" y="40.037692"/>
    </g>
   </g>
   <g id="line2d_59">
    <path d="M 358.8 298.245375 
L 358.8 34.768147 
" style="fill:none;stroke:#000000;stroke-linecap:square;stroke-width:1.5;"/>
   </g>
   <g id="patch_3">
    <path d="M 70.8 298.245375 
L 70.8 32.133375 
" style="fill:none;stroke:#000000;stroke-linecap:square;stroke-linejoin:miter;stroke-width:0.8;"/>
   </g>
   <g id="patch_4">
    <path d="M 427.92 298.245375 
L 427.92 32.133375 
" style="fill:none;stroke:#000000;stroke-linecap:square;stroke-linejoin:miter;stroke-width:0.8;"/>
   </g>
   <g id="patch_5">
    <path d="M 70.8 298.245375 
L 427.92 298.245375 
" style="fill:none;stroke:#000000;stroke-linecap:square;stroke-linejoin:miter;stroke-width:0.8;"/>
   </g>
   <g id="patch_6">
    <path d="M 70.8 32.133375 
L 427.92 32.133375 
" style="fill:none;stroke:#000000;stroke-linecap:square;stroke-linejoin:miter;stroke-width:0.8;"/>
   </g>
   <g id="text_14">
    <!-- 10-D -->
    <defs>
     <path d="M 19.671875 64.796875 
L 19.671875 8.109375 
L 31.59375 8.109375 
Q 46.6875 8.109375 53.6875 14.9375 
Q 60.6875 21.78125 60.6875 36.53125 
Q 60.6875 51.171875 53.6875 57.984375 
Q 46.6875 64.796875 31.59375 64.796875 
z
M 9.8125 72.90625 
L 30.078125 72.90625 
Q 51.265625 72.90625 61.171875 64.09375 
Q 71.09375 55.28125 71.09375 36.53125 
Q 71.09375 17.671875 61.125 8.828125 
Q 51.171875 0 30.078125 0 
L 9.8125 0 
z
" id="DejaVuSans-44"/>
    </defs>
    <g transform="translate(396.24 297.114893)scale(0.15 -0.15)">
     <use xlink:href="#DejaVuSans-31"/>
     <use x="63.623047" xlink:href="#DejaVuSans-30"/>
     <use x="127.246094" xlink:href="#DejaVuSans-2d"/>
     <use x="163.330078" xlink:href="#DejaVuSans-44"/>
    </g>
   </g>
   <g id="text_15">
    <!-- 5-D -->
    <defs>
     <path d="M 10.796875 72.90625 
L 49.515625 72.90625 
L 49.515625 64.59375 
L 19.828125 64.59375 
L 19.828125 46.734375 
Q 21.96875 47.46875 24.109375 47.828125 
Q 26.265625 48.1875 28.421875 48.1875 
Q 40.625 48.1875 47.75 41.5 
Q 54.890625 34.8125 54.890625 23.390625 
Q 54.890625 11.625 47.5625 5.09375 
Q 40.234375 -1.421875 26.90625 -1.421875 
Q 22.3125 -1.421875 17.546875 -0.640625 
Q 12.796875 0.140625 7.71875 1.703125 
L 7.71875 11.625 
Q 12.109375 9.234375 16.796875 8.0625 
Q 21.484375 6.890625 26.703125 6.890625 
Q 35.15625 6.890625 40.078125 11.328125 
Q 45.015625 15.765625 45.015625 23.390625 
Q 45.015625 31 40.078125 35.4375 
Q 35.15625 39.890625 26.703125 39.890625 
Q 22.75 39.890625 18.8125 39.015625 
Q 14.890625 38.140625 10.796875 36.28125 
z
" id="DejaVuSans-35"/>
    </defs>
    <g transform="translate(396.24 246.527265)scale(0.15 -0.15)">
     <use xlink:href="#DejaVuSans-35"/>
     <use x="63.623047" xlink:href="#DejaVuSans-2d"/>
     <use x="99.707031" xlink:href="#DejaVuSans-44"/>
    </g>
   </g>
   <g id="text_16">
    <!-- 20-D -->
    <g transform="translate(396.24 195.939637)scale(0.15 -0.15)">
     <use xlink:href="#DejaVuSans-32"/>
     <use x="63.623047" xlink:href="#DejaVuSans-30"/>
     <use x="127.246094" xlink:href="#DejaVuSans-2d"/>
     <use x="163.330078" xlink:href="#DejaVuSans-44"/>
    </g>
   </g>
   <g id="text_17">
    <!-- 3-D -->
    <defs>
     <path d="M 40.578125 39.3125 
Q 47.65625 37.796875 51.625 33 
Q 55.609375 28.21875 55.609375 21.1875 
Q 55.609375 10.40625 48.1875 4.484375 
Q 40.765625 -1.421875 27.09375 -1.421875 
Q 22.515625 -1.421875 17.65625 -0.515625 
Q 12.796875 0.390625 7.625 2.203125 
L 7.625 11.71875 
Q 11.71875 9.328125 16.59375 8.109375 
Q 21.484375 6.890625 26.8125 6.890625 
Q 36.078125 6.890625 40.9375 10.546875 
Q 45.796875 14.203125 45.796875 21.1875 
Q 45.796875 27.640625 41.28125 31.265625 
Q 36.765625 34.90625 28.71875 34.90625 
L 20.21875 34.90625 
L 20.21875 43.015625 
L 29.109375 43.015625 
Q 36.375 43.015625 40.234375 45.921875 
Q 44.09375 48.828125 44.09375 54.296875 
Q 44.09375 59.90625 40.109375 62.90625 
Q 36.140625 65.921875 28.71875 65.921875 
Q 24.65625 65.921875 20.015625 65.03125 
Q 15.375 64.15625 9.8125 62.3125 
L 9.8125 71.09375 
Q 15.4375 72.65625 20.34375 73.4375 
Q 25.25 74.21875 29.59375 74.21875 
Q 40.828125 74.21875 47.359375 69.109375 
Q 53.90625 64.015625 53.90625 55.328125 
Q 53.90625 49.265625 50.4375 45.09375 
Q 46.96875 40.921875 40.578125 39.3125 
z
" id="DejaVuSans-33"/>
    </defs>
    <g transform="translate(396.24 145.35201)scale(0.15 -0.15)">
     <use xlink:href="#DejaVuSans-33"/>
     <use x="63.623047" xlink:href="#DejaVuSans-2d"/>
     <use x="99.707031" xlink:href="#DejaVuSans-44"/>
    </g>
   </g>
   <g id="text_18">
    <!-- 40-D -->
    <g transform="translate(396.24 94.764382)scale(0.15 -0.15)">
     <use xlink:href="#DejaVuSans-34"/>
     <use x="63.623047" xlink:href="#DejaVuSans-30"/>
     <use x="127.246094" xlink:href="#DejaVuSans-2d"/>
     <use x="163.330078" xlink:href="#DejaVuSans-44"/>
    </g>
   </g>
   <g id="text_19">
    <!-- 2-D -->
    <g transform="translate(396.24 44.176754)scale(0.15 -0.15)">
     <use xlink:href="#DejaVuSans-32"/>
     <use x="63.623047" xlink:href="#DejaVuSans-2d"/>
     <use x="99.707031" xlink:href="#DejaVuSans-44"/>
    </g>
   </g>
   <g id="text_20">
    <!-- bbob - f12 -->
    <defs>
     <path d="M 48.6875 27.296875 
Q 48.6875 37.203125 44.609375 42.84375 
Q 40.53125 48.484375 33.40625 48.484375 
Q 26.265625 48.484375 22.1875 42.84375 
Q 18.109375 37.203125 18.109375 27.296875 
Q 18.109375 17.390625 22.1875 11.75 
Q 26.265625 6.109375 33.40625 6.109375 
Q 40.53125 6.109375 44.609375 11.75 
Q 48.6875 17.390625 48.6875 27.296875 
z
M 18.109375 46.390625 
Q 20.953125 51.265625 25.265625 53.625 
Q 29.59375 56 35.59375 56 
Q 45.5625 56 51.78125 48.09375 
Q 58.015625 40.1875 58.015625 27.296875 
Q 58.015625 14.40625 51.78125 6.484375 
Q 45.5625 -1.421875 35.59375 -1.421875 
Q 29.59375 -1.421875 25.265625 0.953125 
Q 20.953125 3.328125 18.109375 8.203125 
L 18.109375 0 
L 9.078125 0 
L 9.078125 75.984375 
L 18.109375 75.984375 
z
" id="DejaVuSans-62"/>
    </defs>
    <g transform="translate(74.3712 50.114612)scale(0.1666 -0.1666)">
     <use xlink:href="#DejaVuSans-62"/>
     <use x="63.476562" xlink:href="#DejaVuSans-62"/>
     <use x="126.953125" xlink:href="#DejaVuSans-6f"/>
     <use x="188.134766" xlink:href="#DejaVuSans-62"/>
     <use x="251.611328" xlink:href="#DejaVuSans-20"/>
     <use x="283.398438" xlink:href="#DejaVuSans-2d"/>
     <use x="319.482422" xlink:href="#DejaVuSans-20"/>
     <use x="351.269531" xlink:href="#DejaVuSans-66"/>
     <use x="386.474609" xlink:href="#DejaVuSans-31"/>
     <use x="450.097656" xlink:href="#DejaVuSans-32"/>
    </g>
    <!-- 51 targets in 100..1e-08 -->
    <g transform="translate(74.3712 68.770168)scale(0.1666 -0.1666)">
     <use xlink:href="#DejaVuSans-35"/>
     <use x="63.623047" xlink:href="#DejaVuSans-31"/>
     <use x="127.246094" xlink:href="#DejaVuSans-20"/>
     <use x="159.033203" xlink:href="#DejaVuSans-74"/>
     <use x="198.242188" xlink:href="#DejaVuSans-61"/>
     <use x="259.521484" xlink:href="#DejaVuSans-72"/>
     <use x="300.619141" xlink:href="#DejaVuSans-67"/>
     <use x="364.095703" xlink:href="#DejaVuSans-65"/>
     <use x="425.619141" xlink:href="#DejaVuSans-74"/>
     <use x="464.828125" xlink:href="#DejaVuSans-73"/>
     <use x="516.927734" xlink:href="#DejaVuSans-20"/>
     <use x="548.714844" xlink:href="#DejaVuSans-69"/>
     <use x="576.498047" xlink:href="#DejaVuSans-6e"/>
     <use x="639.876953" xlink:href="#DejaVuSans-20"/>
     <use x="671.664062" xlink:href="#DejaVuSans-31"/>
     <use x="735.287109" xlink:href="#DejaVuSans-30"/>
     <use x="798.910156" xlink:href="#DejaVuSans-30"/>
     <use x="862.533203" xlink:href="#DejaVuSans-2e"/>
     <use x="894.320312" xlink:href="#DejaVuSans-2e"/>
     <use x="926.107422" xlink:href="#DejaVuSans-31"/>
     <use x="989.730469" xlink:href="#DejaVuSans-65"/>
     <use x="1051.253906" xlink:href="#DejaVuSans-2d"/>
     <use x="1087.337891" xlink:href="#DejaVuSans-30"/>
     <use x="1150.960938" xlink:href="#DejaVuSans-38"/>
    </g>
    <!-- 15 instances -->
    <g transform="translate(74.3712 87.425723)scale(0.1666 -0.1666)">
     <use xlink:href="#DejaVuSans-31"/>
     <use x="63.623047" xlink:href="#DejaVuSans-35"/>
     <use x="127.246094" xlink:href="#DejaVuSans-20"/>
     <use x="159.033203" xlink:href="#DejaVuSans-69"/>
     <use x="186.816406" xlink:href="#DejaVuSans-6e"/>
     <use x="250.195312" xlink:href="#DejaVuSans-73"/>
     <use x="302.294922" xlink:href="#DejaVuSans-74"/>
     <use x="341.503906" xlink:href="#DejaVuSans-61"/>
     <use x="402.783203" xlink:href="#DejaVuSans-6e"/>
     <use x="466.162109" xlink:href="#DejaVuSans-63"/>
     <use x="521.142578" xlink:href="#DejaVuSans-65"/>
     <use x="582.666016" xlink:href="#DejaVuSans-73"/>
    </g>
   </g>
   <g id="text_21">
    <!-- v2.1 -->
    <g style="fill:#808080;" transform="translate(238.449063 293.504568)scale(0.1 -0.1)">
     <use xlink:href="#DejaVuSans-76"/>
     <use x="59.179688" xlink:href="#DejaVuSans-32"/>
     <use x="122.802734" xlink:href="#DejaVuSans-2e"/>
     <use x="154.589844" xlink:href="#DejaVuSans-31"/>
    </g>
   </g>
   <g id="text_22">
    <!-- 12 Bent cigar -->
    <defs>
     <path d="M 19.671875 34.8125 
L 19.671875 8.109375 
L 35.5 8.109375 
Q 43.453125 8.109375 47.28125 11.40625 
Q 51.125 14.703125 51.125 21.484375 
Q 51.125 28.328125 47.28125 31.5625 
Q 43.453125 34.8125 35.5 34.8125 
z
M 19.671875 64.796875 
L 19.671875 42.828125 
L 34.28125 42.828125 
Q 41.5 42.828125 45.03125 45.53125 
Q 48.578125 48.25 48.578125 53.8125 
Q 48.578125 59.328125 45.03125 62.0625 
Q 41.5 64.796875 34.28125 64.796875 
z
M 9.8125 72.90625 
L 35.015625 72.90625 
Q 46.296875 72.90625 52.390625 68.21875 
Q 58.5 63.53125 58.5 54.890625 
Q 58.5 48.1875 55.375 44.234375 
Q 52.25 40.28125 46.1875 39.3125 
Q 53.46875 37.75 57.5 32.78125 
Q 61.53125 27.828125 61.53125 20.40625 
Q 61.53125 10.640625 54.890625 5.3125 
Q 48.25 0 35.984375 0 
L 9.8125 0 
z
" id="DejaVuSans-42"/>
    </defs>
    <g transform="translate(168.699375 26.133375)scale(0.24 -0.24)">
     <use xlink:href="#DejaVuSans-31"/>
     <use x="63.623047" xlink:href="#DejaVuSans-32"/>
     <use x="127.246094" xlink:href="#DejaVuSans-20"/>
     <use x="159.033203" xlink:href="#DejaVuSans-42"/>
     <use x="227.636719" xlink:href="#DejaVuSans-65"/>
     <use x="289.160156" xlink:href="#DejaVuSans-6e"/>
     <use x="352.539062" xlink:href="#DejaVuSans-74"/>
     <use x="391.748047" xlink:href="#DejaVuSans-20"/>
     <use x="423.535156" xlink:href="#DejaVuSans-63"/>
     <use x="478.515625" xlink:href="#DejaVuSans-69"/>
     <use x="506.298828" xlink:href="#DejaVuSans-67"/>
     <use x="569.775391" xlink:href="#DejaVuSans-61"/>
     <use x="631.054688" xlink:href="#DejaVuSans-72"/>
    </g>
   </g>
  </g>
 </g>
 <defs>
  <clipPath id="p2a1c2fd8ad">
   <rect height="266.112" width="357.12" x="70.8" y="32.133375"/>
  </clipPath>
 </defs>
</svg>
