<?xml version="1.0" encoding="utf-8" standalone="no"?>
<!DOCTYPE svg PUBLIC "-//W3C//DTD SVG 1.1//EN"
  "http://www.w3.org/Graphics/SVG/1.1/DTD/svg11.dtd">
<!-- Created with matplotlib (http://matplotlib.org/) -->
<svg height="353pt" version="1.1" viewBox="0 0 438 353" width="438pt" xmlns="http://www.w3.org/2000/svg" xmlns:xlink="http://www.w3.org/1999/xlink">
 <defs>
  <style type="text/css">
*{stroke-linecap:butt;stroke-linejoin:round;}
  </style>
 </defs>
 <g id="figure_1">
  <g id="patch_1">
   <path d="M 0 353.22225 
L 438.62 353.22225 
L 438.62 0 
L 0 0 
z
" style="fill:#ffffff;"/>
  </g>
  <g id="axes_1">
   <g id="patch_2">
    <path d="M 70.8 298.245375 
L 427.92 298.245375 
L 427.92 32.133375 
L 70.8 32.133375 
z
" style="fill:#ffffff;"/>
   </g>
   <g id="matplotlib.axis_1">
    <g id="xtick_1">
     <g id="line2d_1">
      <path clip-path="url(#pb0107f8141)" d="M 70.8 298.245375 
L 70.8 32.133375 
" style="fill:none;stroke:#b0b0b0;stroke-linecap:square;stroke-width:0.8;"/>
     </g>
     <g id="line2d_2">
      <defs>
       <path d="M 0 0 
L 0 3.5 
" id="m2f1d3312e9" style="stroke:#000000;stroke-width:0.8;"/>
      </defs>
      <g>
       <use style="stroke:#000000;stroke-width:0.8;" x="70.8" xlink:href="#m2f1d3312e9" y="298.245375"/>
      </g>
     </g>
     <g id="text_1">
      <!-- 0 -->
      <defs>
       <path d="M 31.78125 66.40625 
Q 24.171875 66.40625 20.328125 58.90625 
Q 16.5 51.421875 16.5 36.375 
Q 16.5 21.390625 20.328125 13.890625 
Q 24.171875 6.390625 31.78125 6.390625 
Q 39.453125 6.390625 43.28125 13.890625 
Q 47.125 21.390625 47.125 36.375 
Q 47.125 51.421875 43.28125 58.90625 
Q 39.453125 66.40625 31.78125 66.40625 
z
M 31.78125 74.21875 
Q 44.046875 74.21875 50.515625 64.515625 
Q 56.984375 54.828125 56.984375 36.375 
Q 56.984375 17.96875 50.515625 8.265625 
Q 44.046875 -1.421875 31.78125 -1.421875 
Q 19.53125 -1.421875 13.0625 8.265625 
Q 6.59375 17.96875 6.59375 36.375 
Q 6.59375 54.828125 13.0625 64.515625 
Q 19.53125 74.21875 31.78125 74.21875 
z
" id="DejaVuSans-30"/>
      </defs>
      <g transform="translate(64.4375 320.44225)scale(0.2 -0.2)">
       <use xlink:href="#DejaVuSans-30"/>
      </g>
     </g>
    </g>
    <g id="xtick_2">
     <g id="line2d_3">
      <path clip-path="url(#pb0107f8141)" d="M 153.085714 298.245375 
L 153.085714 32.133375 
" style="fill:none;stroke:#b0b0b0;stroke-linecap:square;stroke-width:0.8;"/>
     </g>
     <g id="line2d_4">
      <g>
       <use style="stroke:#000000;stroke-width:0.8;" x="153.085714" xlink:href="#m2f1d3312e9" y="298.245375"/>
      </g>
     </g>
     <g id="text_2">
      <!-- 2 -->
      <defs>
       <path d="M 19.1875 8.296875 
L 53.609375 8.296875 
L 53.609375 0 
L 7.328125 0 
L 7.328125 8.296875 
Q 12.9375 14.109375 22.625 23.890625 
Q 32.328125 33.6875 34.8125 36.53125 
Q 39.546875 41.84375 41.421875 45.53125 
Q 43.3125 49.21875 43.3125 52.78125 
Q 43.3125 58.59375 39.234375 62.25 
Q 35.15625 65.921875 28.609375 65.921875 
Q 23.96875 65.921875 18.8125 64.3125 
Q 13.671875 62.703125 7.8125 59.421875 
L 7.8125 69.390625 
Q 13.765625 71.78125 18.9375 73 
Q 24.125 74.21875 28.421875 74.21875 
Q 39.75 74.21875 46.484375 68.546875 
Q 53.21875 62.890625 53.21875 53.421875 
Q 53.21875 48.921875 51.53125 44.890625 
Q 49.859375 40.875 45.40625 35.40625 
Q 44.1875 33.984375 37.640625 27.21875 
Q 31.109375 20.453125 19.1875 8.296875 
z
" id="DejaVuSans-32"/>
      </defs>
      <g transform="translate(146.723214 320.44225)scale(0.2 -0.2)">
       <use xlink:href="#DejaVuSans-32"/>
      </g>
     </g>
    </g>
    <g id="xtick_3">
     <g id="line2d_5">
      <path clip-path="url(#pb0107f8141)" d="M 235.371429 298.245375 
L 235.371429 32.133375 
" style="fill:none;stroke:#b0b0b0;stroke-linecap:square;stroke-width:0.8;"/>
     </g>
     <g id="line2d_6">
      <g>
       <use style="stroke:#000000;stroke-width:0.8;" x="235.371429" xlink:href="#m2f1d3312e9" y="298.245375"/>
      </g>
     </g>
     <g id="text_3">
      <!-- 4 -->
      <defs>
       <path d="M 37.796875 64.3125 
L 12.890625 25.390625 
L 37.796875 25.390625 
z
M 35.203125 72.90625 
L 47.609375 72.90625 
L 47.609375 25.390625 
L 58.015625 25.390625 
L 58.015625 17.1875 
L 47.609375 17.1875 
L 47.609375 0 
L 37.796875 0 
L 37.796875 17.1875 
L 4.890625 17.1875 
L 4.890625 26.703125 
z
" id="DejaVuSans-34"/>
      </defs>
      <g transform="translate(229.008929 320.44225)scale(0.2 -0.2)">
       <use xlink:href="#DejaVuSans-34"/>
      </g>
     </g>
    </g>
    <g id="xtick_4">
     <g id="line2d_7">
      <path clip-path="url(#pb0107f8141)" d="M 317.657143 298.245375 
L 317.657143 32.133375 
" style="fill:none;stroke:#b0b0b0;stroke-linecap:square;stroke-width:0.8;"/>
     </g>
     <g id="line2d_8">
      <g>
       <use style="stroke:#000000;stroke-width:0.8;" x="317.657143" xlink:href="#m2f1d3312e9" y="298.245375"/>
      </g>
     </g>
     <g id="text_4">
      <!-- 6 -->
      <defs>
       <path d="M 33.015625 40.375 
Q 26.375 40.375 22.484375 35.828125 
Q 18.609375 31.296875 18.609375 23.390625 
Q 18.609375 15.53125 22.484375 10.953125 
Q 26.375 6.390625 33.015625 6.390625 
Q 39.65625 6.390625 43.53125 10.953125 
Q 47.40625 15.53125 47.40625 23.390625 
Q 47.40625 31.296875 43.53125 35.828125 
Q 39.65625 40.375 33.015625 40.375 
z
M 52.59375 71.296875 
L 52.59375 62.3125 
Q 48.875 64.0625 45.09375 64.984375 
Q 41.3125 65.921875 37.59375 65.921875 
Q 27.828125 65.921875 22.671875 59.328125 
Q 17.53125 52.734375 16.796875 39.40625 
Q 19.671875 43.65625 24.015625 45.921875 
Q 28.375 48.1875 33.59375 48.1875 
Q 44.578125 48.1875 50.953125 41.515625 
Q 57.328125 34.859375 57.328125 23.390625 
Q 57.328125 12.15625 50.6875 5.359375 
Q 44.046875 -1.421875 33.015625 -1.421875 
Q 20.359375 -1.421875 13.671875 8.265625 
Q 6.984375 17.96875 6.984375 36.375 
Q 6.984375 53.65625 15.1875 63.9375 
Q 23.390625 74.21875 37.203125 74.21875 
Q 40.921875 74.21875 44.703125 73.484375 
Q 48.484375 72.75 52.59375 71.296875 
z
" id="DejaVuSans-36"/>
      </defs>
      <g transform="translate(311.294643 320.44225)scale(0.2 -0.2)">
       <use xlink:href="#DejaVuSans-36"/>
      </g>
     </g>
    </g>
    <g id="xtick_5">
     <g id="line2d_9">
      <path clip-path="url(#pb0107f8141)" d="M 399.942857 298.245375 
L 399.942857 32.133375 
" style="fill:none;stroke:#b0b0b0;stroke-linecap:square;stroke-width:0.8;"/>
     </g>
     <g id="line2d_10">
      <g>
       <use style="stroke:#000000;stroke-width:0.8;" x="399.942857" xlink:href="#m2f1d3312e9" y="298.245375"/>
      </g>
     </g>
     <g id="text_5">
      <!-- 8 -->
      <defs>
       <path d="M 31.78125 34.625 
Q 24.75 34.625 20.71875 30.859375 
Q 16.703125 27.09375 16.703125 20.515625 
Q 16.703125 13.921875 20.71875 10.15625 
Q 24.75 6.390625 31.78125 6.390625 
Q 38.8125 6.390625 42.859375 10.171875 
Q 46.921875 13.96875 46.921875 20.515625 
Q 46.921875 27.09375 42.890625 30.859375 
Q 38.875 34.625 31.78125 34.625 
z
M 21.921875 38.8125 
Q 15.578125 40.375 12.03125 44.71875 
Q 8.5 49.078125 8.5 55.328125 
Q 8.5 64.0625 14.71875 69.140625 
Q 20.953125 74.21875 31.78125 74.21875 
Q 42.671875 74.21875 48.875 69.140625 
Q 55.078125 64.0625 55.078125 55.328125 
Q 55.078125 49.078125 51.53125 44.71875 
Q 48 40.375 41.703125 38.8125 
Q 48.828125 37.15625 52.796875 32.3125 
Q 56.78125 27.484375 56.78125 20.515625 
Q 56.78125 9.90625 50.3125 4.234375 
Q 43.84375 -1.421875 31.78125 -1.421875 
Q 19.734375 -1.421875 13.25 4.234375 
Q 6.78125 9.90625 6.78125 20.515625 
Q 6.78125 27.484375 10.78125 32.3125 
Q 14.796875 37.15625 21.921875 38.8125 
z
M 18.3125 54.390625 
Q 18.3125 48.734375 21.84375 45.5625 
Q 25.390625 42.390625 31.78125 42.390625 
Q 38.140625 42.390625 41.71875 45.5625 
Q 45.3125 48.734375 45.3125 54.390625 
Q 45.3125 60.0625 41.71875 63.234375 
Q 38.140625 66.40625 31.78125 66.40625 
Q 25.390625 66.40625 21.84375 63.234375 
Q 18.3125 60.0625 18.3125 54.390625 
z
" id="DejaVuSans-38"/>
      </defs>
      <g transform="translate(393.580357 320.44225)scale(0.2 -0.2)">
       <use xlink:href="#DejaVuSans-38"/>
      </g>
     </g>
    </g>
    <g id="text_6">
     <!-- log10 of (# f-evals / dimension) -->
     <defs>
      <path d="M 9.421875 75.984375 
L 18.40625 75.984375 
L 18.40625 0 
L 9.421875 0 
z
" id="DejaVuSans-6c"/>
      <path d="M 30.609375 48.390625 
Q 23.390625 48.390625 19.1875 42.75 
Q 14.984375 37.109375 14.984375 27.296875 
Q 14.984375 17.484375 19.15625 11.84375 
Q 23.34375 6.203125 30.609375 6.203125 
Q 37.796875 6.203125 41.984375 11.859375 
Q 46.1875 17.53125 46.1875 27.296875 
Q 46.1875 37.015625 41.984375 42.703125 
Q 37.796875 48.390625 30.609375 48.390625 
z
M 30.609375 56 
Q 42.328125 56 49.015625 48.375 
Q 55.71875 40.765625 55.71875 27.296875 
Q 55.71875 13.875 49.015625 6.21875 
Q 42.328125 -1.421875 30.609375 -1.421875 
Q 18.84375 -1.421875 12.171875 6.21875 
Q 5.515625 13.875 5.515625 27.296875 
Q 5.515625 40.765625 12.171875 48.375 
Q 18.84375 56 30.609375 56 
z
" id="DejaVuSans-6f"/>
      <path d="M 45.40625 27.984375 
Q 45.40625 37.75 41.375 43.109375 
Q 37.359375 48.484375 30.078125 48.484375 
Q 22.859375 48.484375 18.828125 43.109375 
Q 14.796875 37.75 14.796875 27.984375 
Q 14.796875 18.265625 18.828125 12.890625 
Q 22.859375 7.515625 30.078125 7.515625 
Q 37.359375 7.515625 41.375 12.890625 
Q 45.40625 18.265625 45.40625 27.984375 
z
M 54.390625 6.78125 
Q 54.390625 -7.171875 48.1875 -13.984375 
Q 42 -20.796875 29.203125 -20.796875 
Q 24.46875 -20.796875 20.265625 -20.09375 
Q 16.0625 -19.390625 12.109375 -17.921875 
L 12.109375 -9.1875 
Q 16.0625 -11.328125 19.921875 -12.34375 
Q 23.78125 -13.375 27.78125 -13.375 
Q 36.625 -13.375 41.015625 -8.765625 
Q 45.40625 -4.15625 45.40625 5.171875 
L 45.40625 9.625 
Q 42.625 4.78125 38.28125 2.390625 
Q 33.9375 0 27.875 0 
Q 17.828125 0 11.671875 7.65625 
Q 5.515625 15.328125 5.515625 27.984375 
Q 5.515625 40.671875 11.671875 48.328125 
Q 17.828125 56 27.875 56 
Q 33.9375 56 38.28125 53.609375 
Q 42.625 51.21875 45.40625 46.390625 
L 45.40625 54.6875 
L 54.390625 54.6875 
z
" id="DejaVuSans-67"/>
      <path d="M 12.40625 8.296875 
L 28.515625 8.296875 
L 28.515625 63.921875 
L 10.984375 60.40625 
L 10.984375 69.390625 
L 28.421875 72.90625 
L 38.28125 72.90625 
L 38.28125 8.296875 
L 54.390625 8.296875 
L 54.390625 0 
L 12.40625 0 
z
" id="DejaVuSans-31"/>
      <path id="DejaVuSans-20"/>
      <path d="M 37.109375 75.984375 
L 37.109375 68.5 
L 28.515625 68.5 
Q 23.6875 68.5 21.796875 66.546875 
Q 19.921875 64.59375 19.921875 59.515625 
L 19.921875 54.6875 
L 34.71875 54.6875 
L 34.71875 47.703125 
L 19.921875 47.703125 
L 19.921875 0 
L 10.890625 0 
L 10.890625 47.703125 
L 2.296875 47.703125 
L 2.296875 54.6875 
L 10.890625 54.6875 
L 10.890625 58.5 
Q 10.890625 67.625 15.140625 71.796875 
Q 19.390625 75.984375 28.609375 75.984375 
z
" id="DejaVuSans-66"/>
      <path d="M 31 75.875 
Q 24.46875 64.65625 21.28125 53.65625 
Q 18.109375 42.671875 18.109375 31.390625 
Q 18.109375 20.125 21.3125 9.0625 
Q 24.515625 -2 31 -13.1875 
L 23.1875 -13.1875 
Q 15.875 -1.703125 12.234375 9.375 
Q 8.59375 20.453125 8.59375 31.390625 
Q 8.59375 42.28125 12.203125 53.3125 
Q 15.828125 64.359375 23.1875 75.875 
z
" id="DejaVuSans-28"/>
      <path d="M 51.125 44 
L 36.921875 44 
L 32.8125 27.6875 
L 47.125 27.6875 
z
M 43.796875 71.78125 
L 38.71875 51.515625 
L 52.984375 51.515625 
L 58.109375 71.78125 
L 65.921875 71.78125 
L 60.890625 51.515625 
L 76.125 51.515625 
L 76.125 44 
L 58.984375 44 
L 54.984375 27.6875 
L 70.515625 27.6875 
L 70.515625 20.21875 
L 53.078125 20.21875 
L 48 0 
L 40.1875 0 
L 45.21875 20.21875 
L 30.90625 20.21875 
L 25.875 0 
L 18.015625 0 
L 23.09375 20.21875 
L 7.71875 20.21875 
L 7.71875 27.6875 
L 24.90625 27.6875 
L 29 44 
L 13.28125 44 
L 13.28125 51.515625 
L 30.90625 51.515625 
L 35.890625 71.78125 
z
" id="DejaVuSans-23"/>
      <path d="M 4.890625 31.390625 
L 31.203125 31.390625 
L 31.203125 23.390625 
L 4.890625 23.390625 
z
" id="DejaVuSans-2d"/>
      <path d="M 56.203125 29.59375 
L 56.203125 25.203125 
L 14.890625 25.203125 
Q 15.484375 15.921875 20.484375 11.0625 
Q 25.484375 6.203125 34.421875 6.203125 
Q 39.59375 6.203125 44.453125 7.46875 
Q 49.3125 8.734375 54.109375 11.28125 
L 54.109375 2.78125 
Q 49.265625 0.734375 44.1875 -0.34375 
Q 39.109375 -1.421875 33.890625 -1.421875 
Q 20.796875 -1.421875 13.15625 6.1875 
Q 5.515625 13.8125 5.515625 26.8125 
Q 5.515625 40.234375 12.765625 48.109375 
Q 20.015625 56 32.328125 56 
Q 43.359375 56 49.78125 48.890625 
Q 56.203125 41.796875 56.203125 29.59375 
z
M 47.21875 32.234375 
Q 47.125 39.59375 43.09375 43.984375 
Q 39.0625 48.390625 32.421875 48.390625 
Q 24.90625 48.390625 20.390625 44.140625 
Q 15.875 39.890625 15.1875 32.171875 
z
" id="DejaVuSans-65"/>
      <path d="M 2.984375 54.6875 
L 12.5 54.6875 
L 29.59375 8.796875 
L 46.6875 54.6875 
L 56.203125 54.6875 
L 35.6875 0 
L 23.484375 0 
z
" id="DejaVuSans-76"/>
      <path d="M 34.28125 27.484375 
Q 23.390625 27.484375 19.1875 25 
Q 14.984375 22.515625 14.984375 16.5 
Q 14.984375 11.71875 18.140625 8.90625 
Q 21.296875 6.109375 26.703125 6.109375 
Q 34.1875 6.109375 38.703125 11.40625 
Q 43.21875 16.703125 43.21875 25.484375 
L 43.21875 27.484375 
z
M 52.203125 31.203125 
L 52.203125 0 
L 43.21875 0 
L 43.21875 8.296875 
Q 40.140625 3.328125 35.546875 0.953125 
Q 30.953125 -1.421875 24.3125 -1.421875 
Q 15.921875 -1.421875 10.953125 3.296875 
Q 6 8.015625 6 15.921875 
Q 6 25.140625 12.171875 29.828125 
Q 18.359375 34.515625 30.609375 34.515625 
L 43.21875 34.515625 
L 43.21875 35.40625 
Q 43.21875 41.609375 39.140625 45 
Q 35.0625 48.390625 27.6875 48.390625 
Q 23 48.390625 18.546875 47.265625 
Q 14.109375 46.140625 10.015625 43.890625 
L 10.015625 52.203125 
Q 14.9375 54.109375 19.578125 55.046875 
Q 24.21875 56 28.609375 56 
Q 40.484375 56 46.34375 49.84375 
Q 52.203125 43.703125 52.203125 31.203125 
z
" id="DejaVuSans-61"/>
      <path d="M 44.28125 53.078125 
L 44.28125 44.578125 
Q 40.484375 46.53125 36.375 47.5 
Q 32.28125 48.484375 27.875 48.484375 
Q 21.1875 48.484375 17.84375 46.4375 
Q 14.5 44.390625 14.5 40.28125 
Q 14.5 37.15625 16.890625 35.375 
Q 19.28125 33.59375 26.515625 31.984375 
L 29.59375 31.296875 
Q 39.15625 29.25 43.1875 25.515625 
Q 47.21875 21.78125 47.21875 15.09375 
Q 47.21875 7.46875 41.1875 3.015625 
Q 35.15625 -1.421875 24.609375 -1.421875 
Q 20.21875 -1.421875 15.453125 -0.5625 
Q 10.6875 0.296875 5.421875 2 
L 5.421875 11.28125 
Q 10.40625 8.6875 15.234375 7.390625 
Q 20.0625 6.109375 24.8125 6.109375 
Q 31.15625 6.109375 34.5625 8.28125 
Q 37.984375 10.453125 37.984375 14.40625 
Q 37.984375 18.0625 35.515625 20.015625 
Q 33.0625 21.96875 24.703125 23.78125 
L 21.578125 24.515625 
Q 13.234375 26.265625 9.515625 29.90625 
Q 5.8125 33.546875 5.8125 39.890625 
Q 5.8125 47.609375 11.28125 51.796875 
Q 16.75 56 26.8125 56 
Q 31.78125 56 36.171875 55.265625 
Q 40.578125 54.546875 44.28125 53.078125 
z
" id="DejaVuSans-73"/>
      <path d="M 25.390625 72.90625 
L 33.6875 72.90625 
L 8.296875 -9.28125 
L 0 -9.28125 
z
" id="DejaVuSans-2f"/>
      <path d="M 45.40625 46.390625 
L 45.40625 75.984375 
L 54.390625 75.984375 
L 54.390625 0 
L 45.40625 0 
L 45.40625 8.203125 
Q 42.578125 3.328125 38.25 0.953125 
Q 33.9375 -1.421875 27.875 -1.421875 
Q 17.96875 -1.421875 11.734375 6.484375 
Q 5.515625 14.40625 5.515625 27.296875 
Q 5.515625 40.1875 11.734375 48.09375 
Q 17.96875 56 27.875 56 
Q 33.9375 56 38.25 53.625 
Q 42.578125 51.265625 45.40625 46.390625 
z
M 14.796875 27.296875 
Q 14.796875 17.390625 18.875 11.75 
Q 22.953125 6.109375 30.078125 6.109375 
Q 37.203125 6.109375 41.296875 11.75 
Q 45.40625 17.390625 45.40625 27.296875 
Q 45.40625 37.203125 41.296875 42.84375 
Q 37.203125 48.484375 30.078125 48.484375 
Q 22.953125 48.484375 18.875 42.84375 
Q 14.796875 37.203125 14.796875 27.296875 
z
" id="DejaVuSans-64"/>
      <path d="M 9.421875 54.6875 
L 18.40625 54.6875 
L 18.40625 0 
L 9.421875 0 
z
M 9.421875 75.984375 
L 18.40625 75.984375 
L 18.40625 64.59375 
L 9.421875 64.59375 
z
" id="DejaVuSans-69"/>
      <path d="M 52 44.1875 
Q 55.375 50.25 60.0625 53.125 
Q 64.75 56 71.09375 56 
Q 79.640625 56 84.28125 50.015625 
Q 88.921875 44.046875 88.921875 33.015625 
L 88.921875 0 
L 79.890625 0 
L 79.890625 32.71875 
Q 79.890625 40.578125 77.09375 44.375 
Q 74.3125 48.1875 68.609375 48.1875 
Q 61.625 48.1875 57.5625 43.546875 
Q 53.515625 38.921875 53.515625 30.90625 
L 53.515625 0 
L 44.484375 0 
L 44.484375 32.71875 
Q 44.484375 40.625 41.703125 44.40625 
Q 38.921875 48.1875 33.109375 48.1875 
Q 26.21875 48.1875 22.15625 43.53125 
Q 18.109375 38.875 18.109375 30.90625 
L 18.109375 0 
L 9.078125 0 
L 9.078125 54.6875 
L 18.109375 54.6875 
L 18.109375 46.1875 
Q 21.1875 51.21875 25.484375 53.609375 
Q 29.78125 56 35.6875 56 
Q 41.65625 56 45.828125 52.96875 
Q 50 49.953125 52 44.1875 
z
" id="DejaVuSans-6d"/>
      <path d="M 54.890625 33.015625 
L 54.890625 0 
L 45.90625 0 
L 45.90625 32.71875 
Q 45.90625 40.484375 42.875 44.328125 
Q 39.84375 48.1875 33.796875 48.1875 
Q 26.515625 48.1875 22.3125 43.546875 
Q 18.109375 38.921875 18.109375 30.90625 
L 18.109375 0 
L 9.078125 0 
L 9.078125 54.6875 
L 18.109375 54.6875 
L 18.109375 46.1875 
Q 21.34375 51.125 25.703125 53.5625 
Q 30.078125 56 35.796875 56 
Q 45.21875 56 50.046875 50.171875 
Q 54.890625 44.34375 54.890625 33.015625 
z
" id="DejaVuSans-6e"/>
      <path d="M 8.015625 75.875 
L 15.828125 75.875 
Q 23.140625 64.359375 26.78125 53.3125 
Q 30.421875 42.28125 30.421875 31.390625 
Q 30.421875 20.453125 26.78125 9.375 
Q 23.140625 -1.703125 15.828125 -13.1875 
L 8.015625 -13.1875 
Q 14.5 -2 17.703125 9.0625 
Q 20.90625 20.125 20.90625 31.390625 
Q 20.90625 42.671875 17.703125 53.65625 
Q 14.5 64.65625 8.015625 75.875 
z
" id="DejaVuSans-29"/>
     </defs>
     <g transform="translate(107.015156 342.278812)scale(0.18 -0.18)">
      <use xlink:href="#DejaVuSans-6c"/>
      <use x="27.783203" xlink:href="#DejaVuSans-6f"/>
      <use x="88.964844" xlink:href="#DejaVuSans-67"/>
      <use x="152.441406" xlink:href="#DejaVuSans-31"/>
      <use x="216.064453" xlink:href="#DejaVuSans-30"/>
      <use x="279.6875" xlink:href="#DejaVuSans-20"/>
      <use x="311.474609" xlink:href="#DejaVuSans-6f"/>
      <use x="372.65625" xlink:href="#DejaVuSans-66"/>
      <use x="407.861328" xlink:href="#DejaVuSans-20"/>
      <use x="439.648438" xlink:href="#DejaVuSans-28"/>
      <use x="478.662109" xlink:href="#DejaVuSans-23"/>
      <use x="562.451172" xlink:href="#DejaVuSans-20"/>
      <use x="594.238281" xlink:href="#DejaVuSans-66"/>
      <use x="629.365234" xlink:href="#DejaVuSans-2d"/>
      <use x="665.449219" xlink:href="#DejaVuSans-65"/>
      <use x="726.972656" xlink:href="#DejaVuSans-76"/>
      <use x="786.152344" xlink:href="#DejaVuSans-61"/>
      <use x="847.431641" xlink:href="#DejaVuSans-6c"/>
      <use x="875.214844" xlink:href="#DejaVuSans-73"/>
      <use x="927.314453" xlink:href="#DejaVuSans-20"/>
      <use x="959.101562" xlink:href="#DejaVuSans-2f"/>
      <use x="992.792969" xlink:href="#DejaVuSans-20"/>
      <use x="1024.580078" xlink:href="#DejaVuSans-64"/>
      <use x="1088.056641" xlink:href="#DejaVuSans-69"/>
      <use x="1115.839844" xlink:href="#DejaVuSans-6d"/>
      <use x="1213.251953" xlink:href="#DejaVuSans-65"/>
      <use x="1274.775391" xlink:href="#DejaVuSans-6e"/>
      <use x="1338.154297" xlink:href="#DejaVuSans-73"/>
      <use x="1390.253906" xlink:href="#DejaVuSans-69"/>
      <use x="1418.037109" xlink:href="#DejaVuSans-6f"/>
      <use x="1479.21875" xlink:href="#DejaVuSans-6e"/>
      <use x="1542.597656" xlink:href="#DejaVuSans-29"/>
     </g>
    </g>
   </g>
   <g id="matplotlib.axis_2">
    <g id="ytick_1">
     <g id="line2d_11">
      <path clip-path="url(#pb0107f8141)" d="M 70.8 298.245375 
L 427.92 298.245375 
" style="fill:none;stroke:#b0b0b0;stroke-linecap:square;stroke-width:0.8;"/>
     </g>
     <g id="line2d_12">
      <defs>
       <path d="M 0 0 
L -3.5 0 
" id="me54375d850" style="stroke:#000000;stroke-width:0.8;"/>
      </defs>
      <g>
       <use style="stroke:#000000;stroke-width:0.8;" x="70.8" xlink:href="#me54375d850" y="298.245375"/>
      </g>
     </g>
     <g id="text_7">
      <!-- 0.0 -->
      <defs>
       <path d="M 10.6875 12.40625 
L 21 12.40625 
L 21 0 
L 10.6875 0 
z
" id="DejaVuSans-2e"/>
      </defs>
      <g transform="translate(31.99375 305.843812)scale(0.2 -0.2)">
       <use xlink:href="#DejaVuSans-30"/>
       <use x="63.623047" xlink:href="#DejaVuSans-2e"/>
       <use x="95.410156" xlink:href="#DejaVuSans-30"/>
      </g>
     </g>
    </g>
    <g id="ytick_2">
     <g id="line2d_13">
      <path clip-path="url(#pb0107f8141)" d="M 70.8 245.549929 
L 427.92 245.549929 
" style="fill:none;stroke:#b0b0b0;stroke-linecap:square;stroke-width:0.8;"/>
     </g>
     <g id="line2d_14">
      <g>
       <use style="stroke:#000000;stroke-width:0.8;" x="70.8" xlink:href="#me54375d850" y="245.549929"/>
      </g>
     </g>
     <g id="text_8">
      <!-- 0.2 -->
      <g transform="translate(31.99375 253.148367)scale(0.2 -0.2)">
       <use xlink:href="#DejaVuSans-30"/>
       <use x="63.623047" xlink:href="#DejaVuSans-2e"/>
       <use x="95.410156" xlink:href="#DejaVuSans-32"/>
      </g>
     </g>
    </g>
    <g id="ytick_3">
     <g id="line2d_15">
      <path clip-path="url(#pb0107f8141)" d="M 70.8 192.854484 
L 427.92 192.854484 
" style="fill:none;stroke:#b0b0b0;stroke-linecap:square;stroke-width:0.8;"/>
     </g>
     <g id="line2d_16">
      <g>
       <use style="stroke:#000000;stroke-width:0.8;" x="70.8" xlink:href="#me54375d850" y="192.854484"/>
      </g>
     </g>
     <g id="text_9">
      <!-- 0.4 -->
      <g transform="translate(31.99375 200.452921)scale(0.2 -0.2)">
       <use xlink:href="#DejaVuSans-30"/>
       <use x="63.623047" xlink:href="#DejaVuSans-2e"/>
       <use x="95.410156" xlink:href="#DejaVuSans-34"/>
      </g>
     </g>
    </g>
    <g id="ytick_4">
     <g id="line2d_17">
      <path clip-path="url(#pb0107f8141)" d="M 70.8 140.159038 
L 427.92 140.159038 
" style="fill:none;stroke:#b0b0b0;stroke-linecap:square;stroke-width:0.8;"/>
     </g>
     <g id="line2d_18">
      <g>
       <use style="stroke:#000000;stroke-width:0.8;" x="70.8" xlink:href="#me54375d850" y="140.159038"/>
      </g>
     </g>
     <g id="text_10">
      <!-- 0.6 -->
      <g transform="translate(31.99375 147.757476)scale(0.2 -0.2)">
       <use xlink:href="#DejaVuSans-30"/>
       <use x="63.623047" xlink:href="#DejaVuSans-2e"/>
       <use x="95.410156" xlink:href="#DejaVuSans-36"/>
      </g>
     </g>
    </g>
    <g id="ytick_5">
     <g id="line2d_19">
      <path clip-path="url(#pb0107f8141)" d="M 70.8 87.463593 
L 427.92 87.463593 
" style="fill:none;stroke:#b0b0b0;stroke-linecap:square;stroke-width:0.8;"/>
     </g>
     <g id="line2d_20">
      <g>
       <use style="stroke:#000000;stroke-width:0.8;" x="70.8" xlink:href="#me54375d850" y="87.463593"/>
      </g>
     </g>
     <g id="text_11">
      <!-- 0.8 -->
      <g transform="translate(31.99375 95.06203)scale(0.2 -0.2)">
       <use xlink:href="#DejaVuSans-30"/>
       <use x="63.623047" xlink:href="#DejaVuSans-2e"/>
       <use x="95.410156" xlink:href="#DejaVuSans-38"/>
      </g>
     </g>
    </g>
    <g id="ytick_6">
     <g id="line2d_21">
      <path clip-path="url(#pb0107f8141)" d="M 70.8 34.768147 
L 427.92 34.768147 
" style="fill:none;stroke:#b0b0b0;stroke-linecap:square;stroke-width:0.8;"/>
     </g>
     <g id="line2d_22">
      <g>
       <use style="stroke:#000000;stroke-width:0.8;" x="70.8" xlink:href="#me54375d850" y="34.768147"/>
      </g>
     </g>
     <g id="text_12">
      <!-- 1.0 -->
      <g transform="translate(31.99375 42.366585)scale(0.2 -0.2)">
       <use xlink:href="#DejaVuSans-31"/>
       <use x="63.623047" xlink:href="#DejaVuSans-2e"/>
       <use x="95.410156" xlink:href="#DejaVuSans-30"/>
      </g>
     </g>
    </g>
    <g id="text_13">
     <!-- Proportion of function+target pairs -->
     <defs>
      <path d="M 19.671875 64.796875 
L 19.671875 37.40625 
L 32.078125 37.40625 
Q 38.96875 37.40625 42.71875 40.96875 
Q 46.484375 44.53125 46.484375 51.125 
Q 46.484375 57.671875 42.71875 61.234375 
Q 38.96875 64.796875 32.078125 64.796875 
z
M 9.8125 72.90625 
L 32.078125 72.90625 
Q 44.34375 72.90625 50.609375 67.359375 
Q 56.890625 61.8125 56.890625 51.125 
Q 56.890625 40.328125 50.609375 34.8125 
Q 44.34375 29.296875 32.078125 29.296875 
L 19.671875 29.296875 
L 19.671875 0 
L 9.8125 0 
z
" id="DejaVuSans-50"/>
      <path d="M 41.109375 46.296875 
Q 39.59375 47.171875 37.8125 47.578125 
Q 36.03125 48 33.890625 48 
Q 26.265625 48 22.1875 43.046875 
Q 18.109375 38.09375 18.109375 28.8125 
L 18.109375 0 
L 9.078125 0 
L 9.078125 54.6875 
L 18.109375 54.6875 
L 18.109375 46.1875 
Q 20.953125 51.171875 25.484375 53.578125 
Q 30.03125 56 36.53125 56 
Q 37.453125 56 38.578125 55.875 
Q 39.703125 55.765625 41.0625 55.515625 
z
" id="DejaVuSans-72"/>
      <path d="M 18.109375 8.203125 
L 18.109375 -20.796875 
L 9.078125 -20.796875 
L 9.078125 54.6875 
L 18.109375 54.6875 
L 18.109375 46.390625 
Q 20.953125 51.265625 25.265625 53.625 
Q 29.59375 56 35.59375 56 
Q 45.5625 56 51.78125 48.09375 
Q 58.015625 40.1875 58.015625 27.296875 
Q 58.015625 14.40625 51.78125 6.484375 
Q 45.5625 -1.421875 35.59375 -1.421875 
Q 29.59375 -1.421875 25.265625 0.953125 
Q 20.953125 3.328125 18.109375 8.203125 
z
M 48.6875 27.296875 
Q 48.6875 37.203125 44.609375 42.84375 
Q 40.53125 48.484375 33.40625 48.484375 
Q 26.265625 48.484375 22.1875 42.84375 
Q 18.109375 37.203125 18.109375 27.296875 
Q 18.109375 17.390625 22.1875 11.75 
Q 26.265625 6.109375 33.40625 6.109375 
Q 40.53125 6.109375 44.609375 11.75 
Q 48.6875 17.390625 48.6875 27.296875 
z
" id="DejaVuSans-70"/>
      <path d="M 18.3125 70.21875 
L 18.3125 54.6875 
L 36.8125 54.6875 
L 36.8125 47.703125 
L 18.3125 47.703125 
L 18.3125 18.015625 
Q 18.3125 11.328125 20.140625 9.421875 
Q 21.96875 7.515625 27.59375 7.515625 
L 36.8125 7.515625 
L 36.8125 0 
L 27.59375 0 
Q 17.1875 0 13.234375 3.875 
Q 9.28125 7.765625 9.28125 18.015625 
L 9.28125 47.703125 
L 2.6875 47.703125 
L 2.6875 54.6875 
L 9.28125 54.6875 
L 9.28125 70.21875 
z
" id="DejaVuSans-74"/>
      <path d="M 8.5 21.578125 
L 8.5 54.6875 
L 17.484375 54.6875 
L 17.484375 21.921875 
Q 17.484375 14.15625 20.5 10.265625 
Q 23.53125 6.390625 29.59375 6.390625 
Q 36.859375 6.390625 41.078125 11.03125 
Q 45.3125 15.671875 45.3125 23.6875 
L 45.3125 54.6875 
L 54.296875 54.6875 
L 54.296875 0 
L 45.3125 0 
L 45.3125 8.40625 
Q 42.046875 3.421875 37.71875 1 
Q 33.40625 -1.421875 27.6875 -1.421875 
Q 18.265625 -1.421875 13.375 4.4375 
Q 8.5 10.296875 8.5 21.578125 
z
M 31.109375 56 
z
" id="DejaVuSans-75"/>
      <path d="M 48.78125 52.59375 
L 48.78125 44.1875 
Q 44.96875 46.296875 41.140625 47.34375 
Q 37.3125 48.390625 33.40625 48.390625 
Q 24.65625 48.390625 19.8125 42.84375 
Q 14.984375 37.3125 14.984375 27.296875 
Q 14.984375 17.28125 19.8125 11.734375 
Q 24.65625 6.203125 33.40625 6.203125 
Q 37.3125 6.203125 41.140625 7.25 
Q 44.96875 8.296875 48.78125 10.40625 
L 48.78125 2.09375 
Q 45.015625 0.34375 40.984375 -0.53125 
Q 36.96875 -1.421875 32.421875 -1.421875 
Q 20.0625 -1.421875 12.78125 6.34375 
Q 5.515625 14.109375 5.515625 27.296875 
Q 5.515625 40.671875 12.859375 48.328125 
Q 20.21875 56 33.015625 56 
Q 37.15625 56 41.109375 55.140625 
Q 45.0625 54.296875 48.78125 52.59375 
z
" id="DejaVuSans-63"/>
      <path d="M 46 62.703125 
L 46 35.5 
L 73.1875 35.5 
L 73.1875 27.203125 
L 46 27.203125 
L 46 0 
L 37.796875 0 
L 37.796875 27.203125 
L 10.59375 27.203125 
L 10.59375 35.5 
L 37.796875 35.5 
L 37.796875 62.703125 
z
" id="DejaVuSans-2b"/>
     </defs>
     <g transform="translate(24.250312 323.17875)rotate(-90)scale(0.18 -0.18)">
      <use xlink:href="#DejaVuSans-50"/>
      <use x="60.287109" xlink:href="#DejaVuSans-72"/>
      <use x="101.369141" xlink:href="#DejaVuSans-6f"/>
      <use x="162.550781" xlink:href="#DejaVuSans-70"/>
      <use x="226.027344" xlink:href="#DejaVuSans-6f"/>
      <use x="287.208984" xlink:href="#DejaVuSans-72"/>
      <use x="328.322266" xlink:href="#DejaVuSans-74"/>
      <use x="367.53125" xlink:href="#DejaVuSans-69"/>
      <use x="395.314453" xlink:href="#DejaVuSans-6f"/>
      <use x="456.496094" xlink:href="#DejaVuSans-6e"/>
      <use x="519.875" xlink:href="#DejaVuSans-20"/>
      <use x="551.662109" xlink:href="#DejaVuSans-6f"/>
      <use x="612.84375" xlink:href="#DejaVuSans-66"/>
      <use x="648.048828" xlink:href="#DejaVuSans-20"/>
      <use x="679.835938" xlink:href="#DejaVuSans-66"/>
      <use x="715.041016" xlink:href="#DejaVuSans-75"/>
      <use x="778.419922" xlink:href="#DejaVuSans-6e"/>
      <use x="841.798828" xlink:href="#DejaVuSans-63"/>
      <use x="896.779297" xlink:href="#DejaVuSans-74"/>
      <use x="935.988281" xlink:href="#DejaVuSans-69"/>
      <use x="963.771484" xlink:href="#DejaVuSans-6f"/>
      <use x="1024.953125" xlink:href="#DejaVuSans-6e"/>
      <use x="1088.332031" xlink:href="#DejaVuSans-2b"/>
      <use x="1172.121094" xlink:href="#DejaVuSans-74"/>
      <use x="1211.330078" xlink:href="#DejaVuSans-61"/>
      <use x="1272.609375" xlink:href="#DejaVuSans-72"/>
      <use x="1313.707031" xlink:href="#DejaVuSans-67"/>
      <use x="1377.183594" xlink:href="#DejaVuSans-65"/>
      <use x="1438.707031" xlink:href="#DejaVuSans-74"/>
      <use x="1477.916016" xlink:href="#DejaVuSans-20"/>
      <use x="1509.703125" xlink:href="#DejaVuSans-70"/>
      <use x="1573.179688" xlink:href="#DejaVuSans-61"/>
      <use x="1634.458984" xlink:href="#DejaVuSans-69"/>
      <use x="1662.242188" xlink:href="#DejaVuSans-72"/>
      <use x="1703.355469" xlink:href="#DejaVuSans-73"/>
     </g>
    </g>
   </g>
   <g id="line2d_23">
    <defs>
     <path d="M 0 1.5 
C 0.397805 1.5 0.77937 1.341951 1.06066 1.06066 
C 1.341951 0.77937 1.5 0.397805 1.5 0 
C 1.5 -0.397805 1.341951 -0.77937 1.06066 -1.06066 
C 0.77937 -1.341951 0.397805 -1.5 0 -1.5 
C -0.397805 -1.5 -0.77937 -1.341951 -1.06066 -1.06066 
C -1.341951 -0.77937 -1.5 -0.397805 -1.5 0 
C -1.5 0.397805 -1.341951 0.77937 -1.06066 1.06066 
C -0.77937 1.341951 -0.397805 1.5 0 1.5 
z
" id="ma95b5e5cff" style="stroke:#000080;"/>
    </defs>
    <g>
     <use style="fill:#000080;stroke:#000080;" x="164.019878" xlink:href="#ma95b5e5cff" y="34.768147"/>
     <use style="fill:#000080;stroke:#000080;" x="164.019878" xlink:href="#ma95b5e5cff" y="34.768147"/>
    </g>
   </g>
   <g id="line2d_24">
    <path d="M 42.042377 298.245375 
L 42.042377 279.646982 
L 66.812845 279.646982 
L 66.812845 279.13036 
L 87.873189 279.13036 
L 87.873189 277.580494 
L 94.653954 277.580494 
L 94.653954 277.063872 
L 95.570468 277.063872 
L 95.570468 276.54725 
L 96.442257 276.54725 
L 96.442257 276.030628 
L 97.273482 276.030628 
L 97.273482 275.514006 
L 100.258423 275.514006 
L 100.258423 274.997384 
L 100.932772 274.997384 
L 100.932772 274.480762 
L 105.051795 274.480762 
L 105.051795 273.447518 
L 107.503321 273.447518 
L 107.503321 272.414274 
L 107.955702 272.414274 
L 107.955702 271.38103 
L 108.827491 271.38103 
L 108.827491 270.347786 
L 110.83726 270.347786 
L 110.83726 269.831164 
L 111.213445 269.831164 
L 111.213445 268.79792 
L 111.942857 268.79792 
L 111.942857 268.281298 
L 112.296693 268.281298 
L 112.296693 267.248054 
L 112.643657 267.248054 
L 112.643657 266.731432 
L 113.318006 266.731432 
L 113.318006 265.181566 
L 114.284085 265.181566 
L 114.284085 264.664944 
L 116.072388 264.664944 
L 116.072388 264.148322 
L 116.630812 264.148322 
L 116.630812 263.115078 
L 117.172312 263.115078 
L 117.172312 262.081834 
L 117.437029 262.081834 
L 117.437029 261.04859 
L 117.697882 261.04859 
L 117.697882 260.531968 
L 117.954982 260.531968 
L 117.954982 259.498724 
L 119.187755 259.498724 
L 119.187755 257.432236 
L 119.888555 257.432236 
L 119.888555 256.915614 
L 120.116177 256.915614 
L 120.116177 256.398992 
L 120.340936 256.398992 
L 120.340936 255.88237 
L 120.562903 255.88237 
L 120.562903 254.332504 
L 120.782147 254.332504 
L 120.782147 253.29926 
L 121.212725 253.29926 
L 121.212725 251.749394 
L 121.424184 251.749394 
L 121.424184 250.71615 
L 122.245852 250.71615 
L 122.245852 248.13304 
L 122.838219 248.13304 
L 122.838219 247.616418 
L 123.03139 247.616418 
L 123.03139 247.099796 
L 123.598679 247.099796 
L 123.598679 246.066551 
L 125.19988 246.066551 
L 125.19988 245.549929 
L 125.70324 245.549929 
L 125.70324 244.516685 
L 125.867924 244.516685 
L 125.867924 244.000063 
L 126.031105 244.000063 
L 126.031105 243.483441 
L 126.353061 243.483441 
L 126.353061 242.966819 
L 126.825374 242.966819 
L 126.825374 241.416953 
L 127.436309 241.416953 
L 127.436309 240.900331 
L 128.315246 240.900331 
L 128.315246 239.867087 
L 128.598873 239.867087 
L 128.598873 239.350465 
L 128.739016 239.350465 
L 128.739016 237.800599 
L 128.878068 237.800599 
L 128.878068 236.250733 
L 129.423702 236.250733 
L 129.423702 233.667623 
L 129.822263 233.667623 
L 129.822263 232.117757 
L 131.090037 232.117757 
L 131.090037 228.501403 
L 131.212004 228.501403 
L 131.212004 227.984781 
L 131.691714 227.984781 
L 131.691714 227.468159 
L 131.926824 227.468159 
L 131.926824 226.951537 
L 132.043229 226.951537 
L 132.043229 225.918293 
L 132.273789 225.918293 
L 132.273789 225.401671 
L 132.614144 225.401671 
L 132.614144 224.885049 
L 133.058096 224.885049 
L 133.058096 224.368427 
L 133.383967 224.368427 
L 133.383967 222.818561 
L 133.809418 222.818561 
L 133.809418 221.785317 
L 134.018404 221.785317 
L 134.121988 219.718829 
L 135.126079 219.718829 
L 135.126079 219.202207 
L 135.3203 219.202207 
L 135.3203 218.685585 
L 135.512432 218.685585 
L 135.607728 215.585853 
L 135.70252 215.585853 
L 135.70252 215.069231 
L 135.890607 215.069231 
L 135.890607 214.035987 
L 136.352341 214.035987 
L 136.352341 213.519365 
L 136.533745 213.519365 
L 136.533745 212.48612 
L 136.891119 212.48612 
L 136.891119 211.969498 
L 137.241485 211.969498 
L 137.241485 211.452876 
L 137.414126 211.452876 
L 137.414126 210.936254 
L 137.585114 210.936254 
L 137.585114 210.419632 
L 137.922258 210.419632 
L 137.922258 209.90301 
L 138.088474 209.90301 
L 138.171006 207.836522 
L 138.416339 207.836522 
L 138.416339 207.3199 
L 138.817886 207.3199 
L 138.897124 204.73679 
L 138.976012 204.73679 
L 138.976012 204.220168 
L 139.210608 204.220168 
L 139.210608 203.703546 
L 139.821543 203.703546 
L 139.821543 202.670302 
L 140.045364 202.670302 
L 140.119352 198.020704 
L 140.193035 198.020704 
L 140.193035 197.504082 
L 140.339496 197.504082 
L 140.339496 196.98746 
L 140.913621 196.98746 
L 140.913621 195.954216 
L 141.263302 195.954216 
L 141.332424 194.40435 
L 141.741636 194.40435 
L 141.808936 192.337862 
L 142.075629 192.337862 
L 142.075629 191.304618 
L 142.207498 191.304618 
L 142.273069 190.271374 
L 142.597363 190.271374 
L 142.661521 188.204886 
L 142.915876 188.204886 
L 142.978903 187.171642 
L 143.352466 187.171642 
L 143.413974 183.555288 
L 143.657911 183.555288 
L 143.657911 183.038666 
L 144.017684 183.038666 
L 144.017684 182.005422 
L 144.428464 182.005422 
L 144.428464 180.972178 
L 145.222733 180.972178 
L 145.222733 179.938934 
L 145.498056 179.938934 
L 145.498056 178.90569 
L 145.769201 178.90569 
L 145.82294 176.322579 
L 145.983193 176.322579 
L 145.983193 175.289335 
L 146.142022 175.289335 
L 146.142022 173.222847 
L 146.299451 173.222847 
L 146.299451 171.672981 
L 146.507222 171.672981 
L 146.55879 168.573249 
L 146.66148 168.573249 
L 146.712605 167.023383 
L 147.066441 167.023383 
L 147.066441 166.506761 
L 147.413405 166.506761 
L 147.462426 163.407029 
L 147.608687 163.407029 
L 147.608687 162.890407 
L 147.849826 162.890407 
L 147.897666 161.857163 
L 148.040421 161.857163 
L 148.087754 158.757431 
L 148.229005 158.757431 
L 148.322555 157.724187 
L 148.461969 157.724187 
L 148.5082 156.690943 
L 148.737575 156.690943 
L 148.737575 155.657699 
L 148.918979 155.657699 
L 148.918979 155.141077 
L 149.53977 155.141077 
L 149.583298 152.041345 
L 149.670036 152.041345 
L 149.756356 150.491479 
L 149.79936 150.491479 
L 149.885058 147.908369 
L 149.927754 147.908369 
L 150.01284 143.775392 
L 150.055232 143.775392 
L 150.055232 141.708904 
L 150.265695 141.708904 
L 150.265695 141.192282 
L 150.638393 141.192282 
L 150.679328 138.609172 
L 150.882607 138.609172 
L 150.882607 137.575928 
L 151.003475 137.575928 
L 151.043583 136.026062 
L 151.242783 136.026062 
L 151.282358 133.959574 
L 151.478929 133.959574 
L 151.478929 133.442952 
L 151.595842 133.442952 
L 151.673361 130.859842 
L 151.903921 130.859842 
L 151.903921 130.34322 
L 152.206777 130.34322 
L 152.206777 129.826598 
L 152.319038 129.826598 
L 152.319038 128.793354 
L 152.504586 128.793354 
L 152.578269 126.210244 
L 152.65165 126.210244 
L 152.65165 125.693622 
L 152.978183 125.693622 
L 152.978183 123.110512 
L 153.369341 123.110512 
L 153.474551 121.044024 
L 153.786515 121.044024 
L 153.889304 118.460914 
L 153.923436 118.460914 
L 153.923436 116.911048 
L 154.059315 116.911048 
L 154.12687 114.84456 
L 154.19417 114.84456 
L 154.227725 113.294694 
L 154.559856 113.294694 
L 154.559856 112.26145 
L 154.756211 112.26145 
L 154.756211 111.228206 
L 154.918207 111.228206 
L 154.918207 109.161717 
L 155.30111 109.161717 
L 155.364137 107.611851 
L 155.489528 107.611851 
L 155.551895 105.028741 
L 155.614045 105.028741 
L 155.706866 102.445631 
L 155.799208 102.445631 
L 155.799208 101.929009 
L 156.073405 101.929009 
L 156.163876 100.895765 
L 156.193932 100.895765 
L 156.283797 99.862521 
L 156.313652 99.862521 
L 156.402918 97.796033 
L 156.521251 97.796033 
L 156.521251 97.279411 
L 156.638804 97.279411 
L 156.638804 96.246167 
L 156.75559 96.246167 
L 156.813698 94.696301 
L 156.871617 94.696301 
L 156.871617 93.146435 
L 157.129956 93.146435 
L 157.158431 91.596569 
L 157.663372 91.596569 
L 157.663372 89.013459 
L 157.801138 89.013459 
L 157.91059 85.913727 
L 157.992242 85.913727 
L 158.100534 83.330617 
L 158.181325 83.330617 
L 158.28848 79.714263 
L 158.341818 79.714263 
L 158.421527 77.647775 
L 158.500882 77.647775 
L 158.500882 76.614531 
L 158.632363 76.614531 
L 158.658543 75.581286 
L 159.021097 75.581286 
L 159.072295 70.931688 
L 159.174253 70.931688 
L 159.275633 67.315334 
L 159.326108 67.315334 
L 159.326108 66.798712 
L 159.451675 66.798712 
L 159.451675 65.765468 
L 159.650765 65.765468 
L 159.675495 64.215602 
L 159.92094 64.215602 
L 159.969627 63.182358 
L 160.066605 63.182358 
L 160.16306 58.53276 
L 160.330612 58.53276 
L 160.425655 53.36654 
L 160.637672 53.36654 
L 160.661075 51.300052 
L 161.191052 51.300052 
L 161.281638 48.716942 
L 161.304213 48.716942 
L 161.394229 45.61721 
L 161.461444 45.61721 
L 161.506115 43.550722 
L 161.572912 43.550722 
L 161.572912 43.0341 
L 161.925004 43.0341 
L 162.033625 40.967611 
L 162.098482 40.967611 
L 162.098482 40.450989 
L 162.291653 40.450989 
L 162.376841 39.417745 
L 162.650929 39.417745 
L 162.650929 38.901123 
L 163.267842 38.901123 
L 163.267842 37.867879 
L 163.408774 37.867879 
L 163.428817 36.834635 
L 163.922715 36.834635 
L 164.019878 34.768147 
L 358.8 34.768147 
L 358.8 34.768147 
" style="fill:none;stroke:#000080;stroke-linecap:square;stroke-width:1.5;"/>
   </g>
   <g id="line2d_25">
    <defs>
     <path d="M 0 6 
C 1.591219 6 3.117479 5.367802 4.242641 4.242641 
C 5.367802 3.117479 6 1.591219 6 0 
C 6 -1.591219 5.367802 -3.117479 4.242641 -4.242641 
C 3.117479 -5.367802 1.591219 -6 0 -6 
C -1.591219 -6 -3.117479 -5.367802 -4.242641 -4.242641 
C -5.367802 -3.117479 -6 -1.591219 -6 0 
C -6 1.591219 -5.367802 3.117479 -4.242641 4.242641 
C -3.117479 5.367802 -1.591219 6 0 6 
z
" id="ma73d9b2cab" style="stroke:#000080;stroke-width:1.5;"/>
    </defs>
    <g>
     <use style="fill:none;stroke:#000080;stroke-width:1.5;" x="121.424184" xlink:href="#ma73d9b2cab" y="250.71615"/>
     <use style="fill:none;stroke:#000080;stroke-width:1.5;" x="146.142022" xlink:href="#ma73d9b2cab" y="173.222847"/>
     <use style="fill:none;stroke:#000080;stroke-width:1.5;" x="160.066605" xlink:href="#ma73d9b2cab" y="63.182358"/>
     <use style="fill:none;stroke:#000080;stroke-width:1.5;" x="164.019878" xlink:href="#ma73d9b2cab" y="34.768147"/>
     <use style="fill:none;stroke:#000080;stroke-width:1.5;" x="164.019878" xlink:href="#ma73d9b2cab" y="34.768147"/>
     <use style="fill:none;stroke:#000080;stroke-width:1.5;" x="358.8" xlink:href="#ma73d9b2cab" y="34.768147"/>
    </g>
   </g>
   <g id="line2d_26"/>
   <g id="line2d_27">
    <defs>
     <path d="M 0 1.5 
C 0.397805 1.5 0.77937 1.341951 1.06066 1.06066 
C 1.341951 0.77937 1.5 0.397805 1.5 0 
C 1.5 -0.397805 1.341951 -0.77937 1.06066 -1.06066 
C 0.77937 -1.341951 0.397805 -1.5 0 -1.5 
C -0.397805 -1.5 -0.77937 -1.341951 -1.06066 -1.06066 
C -1.341951 -0.77937 -1.5 -0.397805 -1.5 0 
C -1.5 0.397805 -1.341951 0.77937 -1.06066 1.06066 
C -0.77937 1.341951 -0.397805 1.5 0 1.5 
z
" id="m6e9d52a41a" style="stroke:#ff00ff;"/>
    </defs>
    <g>
     <use style="fill:#ff00ff;stroke:#ff00ff;" x="180.158183" xlink:href="#m6e9d52a41a" y="34.768147"/>
     <use style="fill:#ff00ff;stroke:#ff00ff;" x="180.158183" xlink:href="#m6e9d52a41a" y="34.768147"/>
    </g>
   </g>
   <g id="line2d_28">
    <path d="M 150.097524 298.245375 
L 150.097524 297.728753 
L 153.121415 297.728753 
L 153.121415 297.212131 
L 153.544349 297.212131 
L 153.544349 296.695509 
L 153.923436 296.695509 
L 153.923436 294.112399 
L 154.853585 294.112399 
L 154.853585 293.079155 
L 155.582997 293.079155 
L 155.582997 291.529289 
L 156.432575 291.529289 
L 156.432575 290.496045 
L 156.784667 290.496045 
L 156.784667 289.979423 
L 157.215245 289.979423 
L 157.215245 289.462801 
L 157.356496 289.462801 
L 157.356496 287.396313 
L 157.496639 287.396313 
L 157.496639 286.363069 
L 157.746159 286.363069 
L 157.746159 285.846447 
L 158.019377 285.846447 
L 158.127505 283.779959 
L 158.181325 283.779959 
L 158.181325 282.746715 
L 158.315169 282.746715 
L 158.315169 282.230093 
L 158.606144 282.230093 
L 158.684685 280.680226 
L 158.788873 280.680226 
L 158.84074 278.097116 
L 159.551497 278.097116 
L 159.650765 274.997384 
L 159.823167 274.997384 
L 159.87212 273.96414 
L 160.018182 273.96414 
L 160.018182 272.930896 
L 160.567279 272.930896 
L 160.614239 271.897652 
L 161.054305 271.897652 
L 161.100004 270.347786 
L 161.705761 270.347786 
L 161.705761 269.314542 
L 162.163105 269.314542 
L 162.163105 268.79792 
L 162.312988 268.79792 
L 162.312988 268.281298 
L 162.461624 268.281298 
L 162.461624 267.764676 
L 162.817533 267.764676 
L 162.900256 264.148322 
L 163.105403 264.148322 
L 163.105403 263.6317 
L 163.368621 263.6317 
L 163.448837 261.565212 
L 164.058595 261.565212 
L 164.077923 260.015346 
L 164.19345 260.015346 
L 164.19345 259.498724 
L 164.441225 259.498724 
L 164.441225 257.948858 
L 164.88982 257.948858 
L 164.88982 256.915614 
L 165.073461 256.915614 
L 165.073461 256.398992 
L 165.23714 256.398992 
L 165.23714 255.88237 
L 165.87726 255.88237 
L 165.87726 254.332504 
L 166.016448 254.332504 
L 166.120132 251.749394 
L 166.206077 251.749394 
L 166.291612 250.71615 
L 166.512104 250.71615 
L 166.612959 247.616418 
L 166.646451 247.616418 
L 166.646451 247.099796 
L 166.912153 247.099796 
L 166.912153 245.549929 
L 167.271159 245.549929 
L 167.351755 243.483441 
L 167.575509 243.483441 
L 167.607247 241.416953 
L 167.859136 241.416953 
L 167.968231 237.283977 
L 168.153715 237.283977 
L 168.261031 235.217489 
L 168.42838 235.217489 
L 168.503932 232.117757 
L 168.579166 232.117757 
L 168.654085 229.534647 
L 168.773306 229.534647 
L 168.876975 226.434915 
L 168.891736 226.434915 
L 168.994723 224.885049 
L 169.009387 224.885049 
L 169.053307 222.301939 
L 169.184423 222.301939 
L 169.184423 221.268695 
L 169.458103 221.268695 
L 169.472392 220.235451 
L 169.586293 220.235451 
L 169.657114 215.069231 
L 169.713569 215.069231 
L 169.713569 214.552609 
L 169.993201 214.552609 
L 170.020925 212.48612 
L 170.158903 212.48612 
L 170.268524 210.419632 
L 170.28218 210.419632 
L 170.363894 208.869766 
L 170.418163 208.869766 
L 170.418163 207.836522 
L 170.539669 207.836522 
L 170.646986 203.703546 
L 170.713732 203.703546 
L 170.793501 198.020704 
L 170.91249 198.020704 
L 171.017597 191.304618 
L 171.161117 191.304618 
L 171.213021 189.23813 
L 171.31638 189.23813 
L 171.367836 188.204886 
L 171.534052 188.204886 
L 171.635576 184.588532 
L 171.660867 184.588532 
L 171.749105 182.005422 
L 171.774236 182.005422 
L 171.874408 177.872445 
L 171.911828 177.872445 
L 171.936731 175.805957 
L 172.085426 175.805957 
L 172.085426 175.289335 
L 172.208401 175.289335 
L 172.281781 172.706225 
L 172.342702 172.706225 
L 172.439746 168.056627 
L 172.476002 168.056627 
L 172.548294 165.473517 
L 172.596326 165.473517 
L 172.656186 163.923651 
L 172.858222 163.923651 
L 172.964265 158.757431 
L 173.022906 158.757431 
L 173.116335 154.624455 
L 173.186087 154.624455 
L 173.290207 149.974857 
L 173.301738 149.974857 
L 173.324779 147.908369 
L 173.508043 147.908369 
L 173.610309 144.292014 
L 173.621636 144.292014 
L 173.655574 139.642416 
L 173.734512 139.642416 
L 173.813102 137.059306 
L 173.857857 137.059306 
L 173.958146 131.893086 
L 174.046821 131.893086 
L 174.113041 130.34322 
L 174.179015 130.34322 
L 174.255679 126.726866 
L 174.342894 126.726866 
L 174.397188 123.110512 
L 174.494503 123.110512 
L 174.505283 119.494158 
L 174.644837 119.494158 
L 174.730177 113.294694 
L 174.804517 113.294694 
L 174.804517 111.744828 
L 174.98378 111.744828 
L 175.07796 107.095229 
L 175.140473 107.095229 
L 175.223484 100.379143 
L 175.275171 100.379143 
L 175.35756 96.246167 
L 175.490637 96.246167 
L 175.500833 95.212923 
L 175.642966 95.212923 
L 175.733745 94.179679 
L 175.874045 94.179679 
L 175.983513 88.496837 
L 176.013251 88.496837 
L 176.013251 86.946971 
L 176.190653 86.946971 
L 176.23962 84.363861 
L 176.327424 84.363861 
L 176.414799 82.813995 
L 176.463157 82.813995 
L 176.549872 79.197641 
L 176.588277 79.197641 
L 176.645731 75.581286 
L 176.712528 75.581286 
L 176.769584 74.03142 
L 176.83592 74.03142 
L 176.845377 71.44831 
L 176.996005 71.44831 
L 177.09883 67.315334 
L 177.108148 67.315334 
L 177.182521 66.28209 
L 177.275054 66.28209 
L 177.311934 64.215602 
L 177.394635 64.215602 
L 177.504312 60.599248 
L 177.531627 60.599248 
L 177.595198 58.53276 
L 177.667575 58.53276 
L 177.775595 55.94965 
L 177.882965 55.94965 
L 177.989693 54.399784 
L 178.025128 54.399784 
L 178.122214 51.300052 
L 178.201257 51.300052 
L 178.297393 47.167076 
L 178.419004 47.167076 
L 178.427659 45.61721 
L 178.574155 45.61721 
L 178.617015 43.550722 
L 178.846696 43.550722 
L 178.947837 41.484233 
L 179.006572 41.484233 
L 179.106814 39.934367 
L 179.148416 39.934367 
L 179.148416 39.417745 
L 179.494102 39.417745 
L 179.494102 38.901123 
L 179.640231 38.901123 
L 179.640231 37.867879 
L 179.793191 37.867879 
L 179.793191 36.834635 
L 180.016247 36.834635 
L 180.016247 35.801391 
L 180.150327 35.801391 
L 180.158183 34.768147 
L 358.8 34.768147 
L 358.8 34.768147 
" style="fill:none;stroke:#ff00ff;stroke-linecap:square;stroke-width:1.5;"/>
   </g>
   <g id="line2d_29">
    <defs>
     <path d="M -0 8.485281 
L 5.091169 0 
L 0 -8.485281 
L -5.091169 -0 
z
" id="m48d860f600" style="stroke:#ff00ff;stroke-linejoin:miter;stroke-width:1.5;"/>
    </defs>
    <g>
     <use style="fill:none;stroke:#ff00ff;stroke-linejoin:miter;stroke-width:1.5;" x="170.965121" xlink:href="#m48d860f600" y="195.437594"/>
     <use style="fill:none;stroke:#ff00ff;stroke-linejoin:miter;stroke-width:1.5;" x="176.395419" xlink:href="#m48d860f600" y="83.330617"/>
     <use style="fill:none;stroke:#ff00ff;stroke-linejoin:miter;stroke-width:1.5;" x="180.158183" xlink:href="#m48d860f600" y="34.768147"/>
     <use style="fill:none;stroke:#ff00ff;stroke-linejoin:miter;stroke-width:1.5;" x="180.158183" xlink:href="#m48d860f600" y="34.768147"/>
     <use style="fill:none;stroke:#ff00ff;stroke-linejoin:miter;stroke-width:1.5;" x="358.8" xlink:href="#m48d860f600" y="34.768147"/>
    </g>
   </g>
   <g id="line2d_30"/>
   <g id="line2d_31">
    <defs>
     <path d="M 0 1.5 
C 0.397805 1.5 0.77937 1.341951 1.06066 1.06066 
C 1.341951 0.77937 1.5 0.397805 1.5 0 
C 1.5 -0.397805 1.341951 -0.77937 1.06066 -1.06066 
C 0.77937 -1.341951 0.397805 -1.5 0 -1.5 
C -0.397805 -1.5 -0.77937 -1.341951 -1.06066 -1.06066 
C -1.341951 -0.77937 -1.5 -0.397805 -1.5 0 
C -1.5 0.397805 -1.341951 0.77937 -1.06066 1.06066 
C -0.77937 1.341951 -0.397805 1.5 0 1.5 
z
" id="m52f0acd7cd" style="stroke:#ffa500;"/>
    </defs>
    <g>
     <use style="fill:#ffa500;stroke:#ffa500;" x="290.478178" xlink:href="#m52f0acd7cd" y="251.749394"/>
     <use style="fill:#ffa500;stroke:#ffa500;" x="290.478178" xlink:href="#m52f0acd7cd" y="251.749394"/>
    </g>
   </g>
   <g id="line2d_32">
    <path d="M 42.042377 298.245375 
L 42.042377 297.728753 
L 70.8 297.728753 
L 70.8 297.212131 
L 93.687874 297.212131 
L 93.687874 296.695509 
L 101.582593 296.695509 
L 101.582593 296.178887 
L 108.827491 296.178887 
L 108.827491 295.662265 
L 110.060263 295.662265 
L 110.060263 294.629021 
L 116.630812 294.629021 
L 116.630812 294.112399 
L 118.947911 294.112399 
L 118.947911 293.595777 
L 119.657995 293.595777 
L 119.657995 293.079155 
L 119.888555 293.079155 
L 119.888555 292.562533 
L 120.998733 292.562533 
L 120.998733 292.045911 
L 121.424184 292.045911 
L 121.424184 290.496045 
L 121.839741 290.496045 
L 121.839741 289.979423 
L 124.148511 289.979423 
L 124.148511 288.946179 
L 132.501411 288.946179 
L 132.501411 288.429557 
L 133.809418 288.429557 
L 133.809418 287.912935 
L 134.327371 287.912935 
L 134.327371 287.396313 
L 137.754481 287.396313 
L 137.754481 286.363069 
L 138.253158 286.363069 
L 138.253158 285.846447 
L 138.416339 285.846447 
L 138.416339 285.329825 
L 138.817886 285.329825 
L 138.817886 284.296581 
L 142.72545 284.296581 
L 142.72545 282.746715 
L 147.560066 282.746715 
L 147.560066 282.230093 
L 151.673361 282.230093 
L 151.673361 281.713471 
L 164.039247 281.713471 
L 164.039247 281.196849 
L 167.059892 281.196849 
L 167.059892 280.163604 
L 209.954739 280.163604 
L 209.954739 279.646982 
L 210.12584 279.646982 
L 210.204935 277.063872 
L 210.285136 277.063872 
L 210.37222 275.514006 
L 210.41127 275.514006 
L 210.503492 271.897652 
L 211.196994 271.897652 
L 211.196994 270.347786 
L 222.316244 270.347786 
L 222.375508 269.314542 
L 222.465509 269.314542 
L 222.509606 267.764676 
L 229.641594 267.764676 
L 229.715802 265.181566 
L 229.820933 265.181566 
L 229.820933 264.148322 
L 229.955476 264.148322 
L 229.955476 263.6317 
L 234.725207 263.6317 
L 234.747425 262.598456 
L 235.045781 262.598456 
L 235.045781 262.081834 
L 238.695458 262.081834 
L 238.695458 261.565212 
L 241.957749 261.565212 
L 241.995036 260.015346 
L 244.699697 260.015346 
L 244.734224 258.982102 
L 252.756766 258.982102 
L 252.756766 258.46548 
L 254.319114 258.46548 
L 254.319114 257.432236 
L 255.753144 257.432236 
L 255.753144 256.915614 
L 259.44001 256.915614 
L 259.44001 256.398992 
L 261.548865 256.398992 
L 261.548865 255.88237 
L 266.676233 255.88237 
L 266.676233 255.365748 
L 274.886727 255.365748 
L 274.886727 254.849126 
L 275.350428 254.849126 
L 275.350428 254.332504 
L 276.671156 254.332504 
L 276.671156 253.815882 
L 277.905178 253.815882 
L 277.905178 253.29926 
L 281.156385 253.29926 
L 281.156385 252.782638 
L 283.335563 252.782638 
L 283.335563 252.266016 
L 290.478178 252.266016 
L 290.478178 251.749394 
L 358.8 251.749394 
L 358.8 251.749394 
" style="fill:none;stroke:#ffa500;stroke-linecap:square;stroke-width:1.5;"/>
   </g>
   <g id="line2d_33">
    <defs>
     <path d="M 0 -6 
L -1.347084 -1.854102 
L -5.706339 -1.854102 
L -2.179628 0.708204 
L -3.526712 4.854102 
L -0 2.291796 
L 3.526712 4.854102 
L 2.179628 0.708204 
L 5.706339 -1.854102 
L 1.347084 -1.854102 
z
" id="me83d98e8e4" style="stroke:#ffa500;stroke-linejoin:bevel;stroke-width:1.5;"/>
    </defs>
    <g>
     <use style="fill:none;stroke:#ffa500;stroke-linejoin:bevel;stroke-width:1.5;" x="93.687874" xlink:href="#me83d98e8e4" y="296.695509"/>
     <use style="fill:none;stroke:#ffa500;stroke-linejoin:bevel;stroke-width:1.5;" x="147.560066" xlink:href="#me83d98e8e4" y="282.230093"/>
     <use style="fill:none;stroke:#ffa500;stroke-linejoin:bevel;stroke-width:1.5;" x="211.196994" xlink:href="#me83d98e8e4" y="270.347786"/>
     <use style="fill:none;stroke:#ffa500;stroke-linejoin:bevel;stroke-width:1.5;" x="283.335563" xlink:href="#me83d98e8e4" y="252.782638"/>
     <use style="fill:none;stroke:#ffa500;stroke-linejoin:bevel;stroke-width:1.5;" x="290.478178" xlink:href="#me83d98e8e4" y="251.749394"/>
     <use style="fill:none;stroke:#ffa500;stroke-linejoin:bevel;stroke-width:1.5;" x="358.8" xlink:href="#me83d98e8e4" y="251.749394"/>
    </g>
   </g>
   <g id="line2d_34"/>
   <g id="line2d_35">
    <path clip-path="url(#pb0107f8141)" d="M 209.873037 280.163604 
" style="fill:none;stroke:#ffa500;stroke-linecap:square;stroke-width:1.5;"/>
    <defs>
     <path d="M -12 12 
L 12 -12 
M -12 -12 
L 12 12 
" id="m4f35714424" style="stroke:#ffa500;stroke-width:3;"/>
    </defs>
    <g clip-path="url(#pb0107f8141)">
     <use style="fill:#ffa500;stroke:#ffa500;stroke-width:3;" x="209.873037" xlink:href="#m4f35714424" y="280.163604"/>
    </g>
   </g>
   <g id="line2d_36">
    <defs>
     <path d="M 0 1.5 
C 0.397805 1.5 0.77937 1.341951 1.06066 1.06066 
C 1.341951 0.77937 1.5 0.397805 1.5 0 
C 1.5 -0.397805 1.341951 -0.77937 1.06066 -1.06066 
C 0.77937 -1.341951 0.397805 -1.5 0 -1.5 
C -0.397805 -1.5 -0.77937 -1.341951 -1.06066 -1.06066 
C -1.341951 -0.77937 -1.5 -0.397805 -1.5 0 
C -1.5 0.397805 -1.341951 0.77937 -1.06066 1.06066 
C -0.77937 1.341951 -0.397805 1.5 0 1.5 
z
" id="mdab36a9ba1" style="stroke:#6495ed;"/>
    </defs>
    <g>
     <use style="fill:#6495ed;stroke:#6495ed;" x="244.757486" xlink:href="#mdab36a9ba1" y="267.248054"/>
     <use style="fill:#6495ed;stroke:#6495ed;" x="244.757486" xlink:href="#mdab36a9ba1" y="267.248054"/>
    </g>
   </g>
   <g id="line2d_37">
    <path d="M 42.042377 298.245375 
L 42.042377 297.728753 
L 91.583313 297.728753 
L 91.583313 296.695509 
L 94.653954 296.695509 
L 94.653954 296.178887 
L 96.442257 296.178887 
L 96.442257 295.662265 
L 112.643657 295.662265 
L 112.643657 295.145643 
L 116.353782 295.145643 
L 116.353782 294.629021 
L 118.208435 294.629021 
L 118.208435 294.112399 
L 120.782147 294.112399 
L 120.782147 293.079155 
L 121.839741 293.079155 
L 121.839741 291.529289 
L 124.505885 291.529289 
L 124.505885 291.012667 
L 125.70324 291.012667 
L 125.70324 290.496045 
L 125.867924 290.496045 
L 125.867924 289.979423 
L 127.133452 289.979423 
L 127.133452 289.462801 
L 129.152967 289.462801 
L 129.152967 288.946179 
L 131.926824 288.946179 
L 131.926824 287.912935 
L 133.597959 287.912935 
L 133.597959 287.396313 
L 134.731187 287.396313 
L 134.731187 286.363069 
L 136.802443 286.363069 
L 136.802443 285.846447 
L 137.669998 285.846447 
L 137.669998 285.329825 
L 146.142022 285.329825 
L 146.142022 284.296581 
L 146.194652 284.296581 
L 146.194652 283.263337 
L 147.116421 283.263337 
L 147.116421 282.230093 
L 149.320526 282.230093 
L 149.320526 281.713471 
L 150.963276 281.713471 
L 150.963276 281.196849 
L 151.980117 281.196849 
L 151.980117 280.680226 
L 153.369341 280.680226 
L 153.369341 280.163604 
L 154.261217 280.163604 
L 154.261217 279.646982 
L 154.493922 279.646982 
L 154.493922 278.613738 
L 160.567279 278.613738 
L 160.567279 278.097116 
L 210.022785 278.097116 
L 210.022785 277.580494 
L 210.046393 277.580494 
L 210.046393 277.063872 
L 210.078803 277.063872 
L 210.078803 276.54725 
L 210.136113 276.54725 
L 210.136113 275.514006 
L 210.13758 275.514006 
L 210.13758 274.997384 
L 210.184462 274.997384 
L 210.184462 274.480762 
L 210.203473 274.480762 
L 210.203473 273.96414 
L 210.559458 273.96414 
L 210.559458 273.447518 
L 210.970205 273.447518 
L 210.970205 272.930896 
L 222.382902 272.930896 
L 222.382902 272.414274 
L 222.390293 272.414274 
L 222.390293 271.38103 
L 222.544805 271.38103 
L 222.544805 270.864408 
L 222.656543 270.864408 
L 222.656543 270.347786 
L 222.743694 270.347786 
L 222.743694 269.831164 
L 229.876427 269.831164 
L 229.876427 269.314542 
L 238.762387 269.314542 
L 238.762387 268.79792 
L 238.85555 268.79792 
L 238.85555 268.281298 
L 242.076007 268.281298 
L 242.076007 267.764676 
L 244.757486 267.764676 
L 244.757486 267.248054 
L 358.8 267.248054 
" style="fill:none;stroke:#6495ed;stroke-linecap:square;stroke-width:1.5;"/>
   </g>
   <g id="line2d_38">
    <defs>
     <path d="M -0 6 
L 6 -6 
L -6 -6 
z
" id="m8fc909e959" style="stroke:#6495ed;stroke-linejoin:miter;stroke-width:1.5;"/>
    </defs>
    <g>
     <use style="fill:none;stroke:#6495ed;stroke-linejoin:miter;stroke-width:1.5;" x="124.505885" xlink:href="#m8fc909e959" y="291.529289"/>
     <use style="fill:none;stroke:#6495ed;stroke-linejoin:miter;stroke-width:1.5;" x="160.567279" xlink:href="#m8fc909e959" y="278.613738"/>
     <use style="fill:none;stroke:#6495ed;stroke-linejoin:miter;stroke-width:1.5;" x="238.762387" xlink:href="#m8fc909e959" y="269.314542"/>
     <use style="fill:none;stroke:#6495ed;stroke-linejoin:miter;stroke-width:1.5;" x="244.757486" xlink:href="#m8fc909e959" y="267.248054"/>
     <use style="fill:none;stroke:#6495ed;stroke-linejoin:miter;stroke-width:1.5;" x="244.757486" xlink:href="#m8fc909e959" y="267.248054"/>
     <use style="fill:none;stroke:#6495ed;stroke-linejoin:miter;stroke-width:1.5;" x="358.8" xlink:href="#m8fc909e959" y="267.248054"/>
    </g>
   </g>
   <g id="line2d_39"/>
   <g id="line2d_40">
    <path clip-path="url(#pb0107f8141)" d="M 209.873037 278.097116 
" style="fill:none;stroke:#6495ed;stroke-linecap:square;stroke-width:1.5;"/>
    <defs>
     <path d="M -12 12 
L 12 -12 
M -12 -12 
L 12 12 
" id="m240e784bdf" style="stroke:#6495ed;stroke-width:3;"/>
    </defs>
    <g clip-path="url(#pb0107f8141)">
     <use style="fill:#6495ed;stroke:#6495ed;stroke-width:3;" x="209.873037" xlink:href="#m240e784bdf" y="278.097116"/>
    </g>
   </g>
   <g id="line2d_41">
    <defs>
     <path d="M 0 1.5 
C 0.397805 1.5 0.77937 1.341951 1.06066 1.06066 
C 1.341951 0.77937 1.5 0.397805 1.5 0 
C 1.5 -0.397805 1.341951 -0.77937 1.06066 -1.06066 
C 0.77937 -1.341951 0.397805 -1.5 0 -1.5 
C -0.397805 -1.5 -0.77937 -1.341951 -1.06066 -1.06066 
C -1.341951 -0.77937 -1.5 -0.397805 -1.5 0 
C -1.5 0.397805 -1.341951 0.77937 -1.06066 1.06066 
C -0.77937 1.341951 -0.397805 1.5 0 1.5 
z
" id="mc45a57a966" style="stroke:#ff0000;"/>
    </defs>
    <g>
     <use style="fill:#ff0000;stroke:#ff0000;" x="138.416339" xlink:href="#mc45a57a966" y="34.768147"/>
     <use style="fill:#ff0000;stroke:#ff0000;" x="138.416339" xlink:href="#mc45a57a966" y="34.768147"/>
    </g>
   </g>
   <g id="line2d_42">
    <path d="M 93.687874 298.245375 
L 93.687874 296.178887 
L 94.653954 296.178887 
L 94.653954 295.662265 
L 96.442257 295.662265 
L 96.442257 295.145643 
L 100.258423 295.145643 
L 100.258423 294.629021 
L 102.815366 294.629021 
L 102.815366 293.079155 
L 108.827491 293.079155 
L 108.827491 292.562533 
L 111.942857 292.562533 
L 111.942857 292.045911 
L 112.296693 292.045911 
L 112.296693 291.529289 
L 112.984013 291.529289 
L 112.984013 291.012667 
L 113.967827 291.012667 
L 113.967827 289.979423 
L 114.594843 289.979423 
L 114.594843 288.946179 
L 114.900288 288.946179 
L 114.900288 287.912935 
L 115.2006 287.912935 
L 115.2006 287.396313 
L 116.903613 287.396313 
L 116.903613 285.329825 
L 119.187755 285.329825 
L 119.187755 284.813203 
L 119.657995 284.813203 
L 119.657995 283.779959 
L 120.562903 283.779959 
L 120.562903 283.263337 
L 121.212725 283.263337 
L 121.212725 282.230093 
L 122.445497 282.230093 
L 122.445497 281.713471 
L 122.642937 281.713471 
L 122.642937 281.196849 
L 123.222494 281.196849 
L 123.222494 280.163604 
L 124.148511 280.163604 
L 124.148511 279.646982 
L 124.505885 279.646982 
L 124.505885 279.13036 
L 124.856251 279.13036 
L 124.856251 278.613738 
L 125.028891 278.613738 
L 125.028891 277.063872 
L 125.537024 277.063872 
L 125.537024 274.480762 
L 125.867924 274.480762 
L 125.867924 273.96414 
L 126.031105 273.96414 
L 126.031105 273.447518 
L 126.51189 273.447518 
L 126.51189 272.414274 
L 126.669319 272.414274 
L 126.669319 271.897652 
L 126.825374 271.897652 
L 126.825374 253.815882 
L 127.285522 253.815882 
L 127.285522 237.800599 
L 128.171726 237.800599 
L 128.171726 236.767355 
L 128.739016 236.767355 
L 128.739016 236.250733 
L 129.016046 236.250733 
L 129.016046 234.184245 
L 129.288847 234.184245 
L 129.288847 220.235451 
L 129.423702 220.235451 
L 129.423702 218.168963 
L 129.557546 218.168963 
L 129.557546 217.135719 
L 129.690395 217.135719 
L 129.690395 203.186924 
L 129.953166 203.186924 
L 129.953166 201.637058 
L 130.593669 201.637058 
L 130.593669 200.087192 
L 130.71906 200.087192 
L 130.71906 199.053948 
L 131.090037 199.053948 
L 131.090037 197.504082 
L 131.212004 197.504082 
L 131.212004 195.954216 
L 131.453469 195.954216 
L 131.453469 193.371106 
L 131.572989 193.371106 
L 131.572989 181.4888 
L 131.691714 181.4888 
L 131.691714 168.573249 
L 132.158881 168.573249 
L 132.158881 153.074589 
L 132.273789 153.074589 
L 132.273789 142.742148 
L 132.501411 142.742148 
L 132.501411 142.225526 
L 132.726171 142.225526 
L 132.726171 128.276732 
L 132.948138 128.276732 
L 132.948138 127.76011 
L 133.597959 127.76011 
L 133.597959 112.26145 
L 134.018404 112.26145 
L 134.018404 96.246167 
L 134.53042 96.246167 
L 134.53042 83.847239 
L 135.028171 83.847239 
L 135.028171 82.813995 
L 135.607728 82.813995 
L 135.70252 81.780751 
L 135.890607 81.780751 
L 135.890607 79.197641 
L 136.260944 79.197641 
L 136.260944 67.315334 
L 136.443273 67.315334 
L 136.533745 54.399784 
L 136.891119 54.399784 
L 136.979357 52.333296 
L 138.416339 52.333296 
L 138.416339 34.768147 
L 358.8 34.768147 
L 358.8 34.768147 
" style="fill:none;stroke:#ff0000;stroke-linecap:square;stroke-width:1.5;"/>
   </g>
   <g id="line2d_43">
    <defs>
     <path d="M 0 -6 
L -5.196152 -3 
L -5.196152 3 
L -0 6 
L 5.196152 3 
L 5.196152 -3 
z
" id="m682d6c2e15" style="stroke:#ff0000;stroke-linejoin:miter;stroke-width:1.5;"/>
    </defs>
    <g>
     <use style="fill:none;stroke:#ff0000;stroke-linejoin:miter;stroke-width:1.5;" x="126.825374" xlink:href="#m682d6c2e15" y="271.897652"/>
     <use style="fill:none;stroke:#ff0000;stroke-linejoin:miter;stroke-width:1.5;" x="133.597959" xlink:href="#m682d6c2e15" y="112.26145"/>
     <use style="fill:none;stroke:#ff0000;stroke-linejoin:miter;stroke-width:1.5;" x="138.416339" xlink:href="#m682d6c2e15" y="52.333296"/>
     <use style="fill:none;stroke:#ff0000;stroke-linejoin:miter;stroke-width:1.5;" x="138.416339" xlink:href="#m682d6c2e15" y="34.768147"/>
     <use style="fill:none;stroke:#ff0000;stroke-linejoin:miter;stroke-width:1.5;" x="358.8" xlink:href="#m682d6c2e15" y="34.768147"/>
    </g>
   </g>
   <g id="line2d_44"/>
   <g id="line2d_45">
    <path d="M 358.8 267.248054 
L 390.48 292.97583 
" style="fill:none;stroke:#6495ed;stroke-linecap:square;stroke-width:1.5;"/>
    <g>
     <use style="fill:none;stroke:#6495ed;stroke-linejoin:miter;stroke-width:1.5;" x="358.8" xlink:href="#m8fc909e959" y="267.248054"/>
     <use style="fill:none;stroke:#6495ed;stroke-linejoin:miter;stroke-width:1.5;" x="390.48" xlink:href="#m8fc909e959" y="292.97583"/>
    </g>
   </g>
   <g id="line2d_46">
    <path d="M 358.8 251.749394 
L 390.48 229.741296 
" style="fill:none;stroke:#ffa500;stroke-linecap:square;stroke-width:1.5;"/>
    <g>
     <use style="fill:none;stroke:#ffa500;stroke-linejoin:bevel;stroke-width:1.5;" x="358.8" xlink:href="#me83d98e8e4" y="251.749394"/>
     <use style="fill:none;stroke:#ffa500;stroke-linejoin:bevel;stroke-width:1.5;" x="390.48" xlink:href="#me83d98e8e4" y="229.741296"/>
    </g>
   </g>
   <g id="line2d_47">
    <path d="M 358.8 34.768147 
L 390.48 166.506761 
" style="fill:none;stroke:#ff00ff;stroke-linecap:square;stroke-width:1.5;"/>
    <g>
     <use style="fill:none;stroke:#ff00ff;stroke-linejoin:miter;stroke-width:1.5;" x="358.8" xlink:href="#m48d860f600" y="34.768147"/>
     <use style="fill:none;stroke:#ff00ff;stroke-linejoin:miter;stroke-width:1.5;" x="390.48" xlink:href="#m48d860f600" y="166.506761"/>
    </g>
   </g>
   <g id="line2d_48">
    <path d="M 358.8 34.768147 
L 390.48 103.272226 
" style="fill:none;stroke:#000080;stroke-linecap:square;stroke-width:1.5;"/>
    <g>
     <use style="fill:none;stroke:#000080;stroke-width:1.5;" x="358.8" xlink:href="#ma73d9b2cab" y="34.768147"/>
     <use style="fill:none;stroke:#000080;stroke-width:1.5;" x="390.48" xlink:href="#ma73d9b2cab" y="103.272226"/>
    </g>
   </g>
   <g id="line2d_49">
    <path d="M 358.8 34.768147 
L 390.48 40.037692 
" style="fill:none;stroke:#ff0000;stroke-linecap:square;stroke-width:1.5;"/>
    <g>
     <use style="fill:none;stroke:#ff0000;stroke-linejoin:miter;stroke-width:1.5;" x="358.8" xlink:href="#m682d6c2e15" y="34.768147"/>
     <use style="fill:none;stroke:#ff0000;stroke-linejoin:miter;stroke-width:1.5;" x="390.48" xlink:href="#m682d6c2e15" y="40.037692"/>
    </g>
   </g>
   <g id="line2d_50">
    <path d="M 358.8 298.245375 
L 358.8 34.768147 
" style="fill:none;stroke:#000000;stroke-linecap:square;stroke-width:1.5;"/>
   </g>
   <g id="patch_3">
    <path d="M 70.8 298.245375 
L 70.8 32.133375 
" style="fill:none;stroke:#000000;stroke-linecap:square;stroke-linejoin:miter;stroke-width:0.8;"/>
   </g>
   <g id="patch_4">
    <path d="M 427.92 298.245375 
L 427.92 32.133375 
" style="fill:none;stroke:#000000;stroke-linecap:square;stroke-linejoin:miter;stroke-width:0.8;"/>
   </g>
   <g id="patch_5">
    <path d="M 70.8 298.245375 
L 427.92 298.245375 
" style="fill:none;stroke:#000000;stroke-linecap:square;stroke-linejoin:miter;stroke-width:0.8;"/>
   </g>
   <g id="patch_6">
    <path d="M 70.8 32.133375 
L 427.92 32.133375 
" style="fill:none;stroke:#000000;stroke-linecap:square;stroke-linejoin:miter;stroke-width:0.8;"/>
   </g>
   <g id="text_14">
    <!-- f4 -->
    <g transform="translate(396.24 297.114893)scale(0.15 -0.15)">
     <use xlink:href="#DejaVuSans-66"/>
     <use x="35.205078" xlink:href="#DejaVuSans-34"/>
    </g>
   </g>
   <g id="text_15">
    <!-- f3 -->
    <defs>
     <path d="M 40.578125 39.3125 
Q 47.65625 37.796875 51.625 33 
Q 55.609375 28.21875 55.609375 21.1875 
Q 55.609375 10.40625 48.1875 4.484375 
Q 40.765625 -1.421875 27.09375 -1.421875 
Q 22.515625 -1.421875 17.65625 -0.515625 
Q 12.796875 0.390625 7.625 2.203125 
L 7.625 11.71875 
Q 11.71875 9.328125 16.59375 8.109375 
Q 21.484375 6.890625 26.8125 6.890625 
Q 36.078125 6.890625 40.9375 10.546875 
Q 45.796875 14.203125 45.796875 21.1875 
Q 45.796875 27.640625 41.28125 31.265625 
Q 36.765625 34.90625 28.71875 34.90625 
L 20.21875 34.90625 
L 20.21875 43.015625 
L 29.109375 43.015625 
Q 36.375 43.015625 40.234375 45.921875 
Q 44.09375 48.828125 44.09375 54.296875 
Q 44.09375 59.90625 40.109375 62.90625 
Q 36.140625 65.921875 28.71875 65.921875 
Q 24.65625 65.921875 20.015625 65.03125 
Q 15.375 64.15625 9.8125 62.3125 
L 9.8125 71.09375 
Q 15.4375 72.65625 20.34375 73.4375 
Q 25.25 74.21875 29.59375 74.21875 
Q 40.828125 74.21875 47.359375 69.109375 
Q 53.90625 64.015625 53.90625 55.328125 
Q 53.90625 49.265625 50.4375 45.09375 
Q 46.96875 40.921875 40.578125 39.3125 
z
" id="DejaVuSans-33"/>
    </defs>
    <g transform="translate(396.24 233.880358)scale(0.15 -0.15)">
     <use xlink:href="#DejaVuSans-66"/>
     <use x="35.205078" xlink:href="#DejaVuSans-33"/>
    </g>
   </g>
   <g id="text_16">
    <!-- f2 -->
    <g transform="translate(396.24 170.645824)scale(0.15 -0.15)">
     <use xlink:href="#DejaVuSans-66"/>
     <use x="35.205078" xlink:href="#DejaVuSans-32"/>
    </g>
   </g>
   <g id="text_17">
    <!-- f1 -->
    <g transform="translate(396.24 107.411289)scale(0.15 -0.15)">
     <use xlink:href="#DejaVuSans-66"/>
     <use x="35.205078" xlink:href="#DejaVuSans-31"/>
    </g>
   </g>
   <g id="text_18">
    <!-- f5 -->
    <defs>
     <path d="M 10.796875 72.90625 
L 49.515625 72.90625 
L 49.515625 64.59375 
L 19.828125 64.59375 
L 19.828125 46.734375 
Q 21.96875 47.46875 24.109375 47.828125 
Q 26.265625 48.1875 28.421875 48.1875 
Q 40.625 48.1875 47.75 41.5 
Q 54.890625 34.8125 54.890625 23.390625 
Q 54.890625 11.625 47.5625 5.09375 
Q 40.234375 -1.421875 26.90625 -1.421875 
Q 22.3125 -1.421875 17.546875 -0.640625 
Q 12.796875 0.140625 7.71875 1.703125 
L 7.71875 11.625 
Q 12.109375 9.234375 16.796875 8.0625 
Q 21.484375 6.890625 26.703125 6.890625 
Q 35.15625 6.890625 40.078125 11.328125 
Q 45.015625 15.765625 45.015625 23.390625 
Q 45.015625 31 40.078125 35.4375 
Q 35.15625 39.890625 26.703125 39.890625 
Q 22.75 39.890625 18.8125 39.015625 
Q 14.890625 38.140625 10.796875 36.28125 
z
" id="DejaVuSans-35"/>
    </defs>
    <g transform="translate(396.24 44.176754)scale(0.15 -0.15)">
     <use xlink:href="#DejaVuSans-66"/>
     <use x="35.205078" xlink:href="#DejaVuSans-35"/>
    </g>
   </g>
   <g id="text_19">
    <!-- bbob -->
    <defs>
     <path d="M 48.6875 27.296875 
Q 48.6875 37.203125 44.609375 42.84375 
Q 40.53125 48.484375 33.40625 48.484375 
Q 26.265625 48.484375 22.1875 42.84375 
Q 18.109375 37.203125 18.109375 27.296875 
Q 18.109375 17.390625 22.1875 11.75 
Q 26.265625 6.109375 33.40625 6.109375 
Q 40.53125 6.109375 44.609375 11.75 
Q 48.6875 17.390625 48.6875 27.296875 
z
M 18.109375 46.390625 
Q 20.953125 51.265625 25.265625 53.625 
Q 29.59375 56 35.59375 56 
Q 45.5625 56 51.78125 48.09375 
Q 58.015625 40.1875 58.015625 27.296875 
Q 58.015625 14.40625 51.78125 6.484375 
Q 45.5625 -1.421875 35.59375 -1.421875 
Q 29.59375 -1.421875 25.265625 0.953125 
Q 20.953125 3.328125 18.109375 8.203125 
L 18.109375 0 
L 9.078125 0 
L 9.078125 75.984375 
L 18.109375 75.984375 
z
" id="DejaVuSans-62"/>
    </defs>
    <g transform="translate(74.3712 50.114612)scale(0.1666 -0.1666)">
     <use xlink:href="#DejaVuSans-62"/>
     <use x="63.476562" xlink:href="#DejaVuSans-62"/>
     <use x="126.953125" xlink:href="#DejaVuSans-6f"/>
     <use x="188.134766" xlink:href="#DejaVuSans-62"/>
    </g>
    <!-- Separable functions, 5-D -->
    <defs>
     <path d="M 53.515625 70.515625 
L 53.515625 60.890625 
Q 47.90625 63.578125 42.921875 64.890625 
Q 37.9375 66.21875 33.296875 66.21875 
Q 25.25 66.21875 20.875 63.09375 
Q 16.5 59.96875 16.5 54.203125 
Q 16.5 49.359375 19.40625 46.890625 
Q 22.3125 44.4375 30.421875 42.921875 
L 36.375 41.703125 
Q 47.40625 39.59375 52.65625 34.296875 
Q 57.90625 29 57.90625 20.125 
Q 57.90625 9.515625 50.796875 4.046875 
Q 43.703125 -1.421875 29.984375 -1.421875 
Q 24.8125 -1.421875 18.96875 -0.25 
Q 13.140625 0.921875 6.890625 3.21875 
L 6.890625 13.375 
Q 12.890625 10.015625 18.65625 8.296875 
Q 24.421875 6.59375 29.984375 6.59375 
Q 38.421875 6.59375 43.015625 9.90625 
Q 47.609375 13.234375 47.609375 19.390625 
Q 47.609375 24.75 44.3125 27.78125 
Q 41.015625 30.8125 33.5 32.328125 
L 27.484375 33.5 
Q 16.453125 35.6875 11.515625 40.375 
Q 6.59375 45.0625 6.59375 53.421875 
Q 6.59375 63.09375 13.40625 68.65625 
Q 20.21875 74.21875 32.171875 74.21875 
Q 37.3125 74.21875 42.625 73.28125 
Q 47.953125 72.359375 53.515625 70.515625 
z
" id="DejaVuSans-53"/>
     <path d="M 11.71875 12.40625 
L 22.015625 12.40625 
L 22.015625 4 
L 14.015625 -11.625 
L 7.71875 -11.625 
L 11.71875 4 
z
" id="DejaVuSans-2c"/>
     <path d="M 19.671875 64.796875 
L 19.671875 8.109375 
L 31.59375 8.109375 
Q 46.6875 8.109375 53.6875 14.9375 
Q 60.6875 21.78125 60.6875 36.53125 
Q 60.6875 51.171875 53.6875 57.984375 
Q 46.6875 64.796875 31.59375 64.796875 
z
M 9.8125 72.90625 
L 30.078125 72.90625 
Q 51.265625 72.90625 61.171875 64.09375 
Q 71.09375 55.28125 71.09375 36.53125 
Q 71.09375 17.671875 61.125 8.828125 
Q 51.171875 0 30.078125 0 
L 9.8125 0 
z
" id="DejaVuSans-44"/>
    </defs>
    <g transform="translate(74.3712 68.770168)scale(0.1666 -0.1666)">
     <use xlink:href="#DejaVuSans-53"/>
     <use x="63.476562" xlink:href="#DejaVuSans-65"/>
     <use x="125" xlink:href="#DejaVuSans-70"/>
     <use x="188.476562" xlink:href="#DejaVuSans-61"/>
     <use x="249.755859" xlink:href="#DejaVuSans-72"/>
     <use x="290.869141" xlink:href="#DejaVuSans-61"/>
     <use x="352.148438" xlink:href="#DejaVuSans-62"/>
     <use x="415.625" xlink:href="#DejaVuSans-6c"/>
     <use x="443.408203" xlink:href="#DejaVuSans-65"/>
     <use x="504.931641" xlink:href="#DejaVuSans-20"/>
     <use x="536.71875" xlink:href="#DejaVuSans-66"/>
     <use x="571.923828" xlink:href="#DejaVuSans-75"/>
     <use x="635.302734" xlink:href="#DejaVuSans-6e"/>
     <use x="698.681641" xlink:href="#DejaVuSans-63"/>
     <use x="753.662109" xlink:href="#DejaVuSans-74"/>
     <use x="792.871094" xlink:href="#DejaVuSans-69"/>
     <use x="820.654297" xlink:href="#DejaVuSans-6f"/>
     <use x="881.835938" xlink:href="#DejaVuSans-6e"/>
     <use x="945.214844" xlink:href="#DejaVuSans-73"/>
     <use x="997.314453" xlink:href="#DejaVuSans-2c"/>
     <use x="1029.101562" xlink:href="#DejaVuSans-20"/>
     <use x="1060.888672" xlink:href="#DejaVuSans-35"/>
     <use x="1124.511719" xlink:href="#DejaVuSans-2d"/>
     <use x="1160.595703" xlink:href="#DejaVuSans-44"/>
    </g>
    <!-- 51 targets in 100..1e-08 -->
    <g transform="translate(74.3712 87.425723)scale(0.1666 -0.1666)">
     <use xlink:href="#DejaVuSans-35"/>
     <use x="63.623047" xlink:href="#DejaVuSans-31"/>
     <use x="127.246094" xlink:href="#DejaVuSans-20"/>
     <use x="159.033203" xlink:href="#DejaVuSans-74"/>
     <use x="198.242188" xlink:href="#DejaVuSans-61"/>
     <use x="259.521484" xlink:href="#DejaVuSans-72"/>
     <use x="300.619141" xlink:href="#DejaVuSans-67"/>
     <use x="364.095703" xlink:href="#DejaVuSans-65"/>
     <use x="425.619141" xlink:href="#DejaVuSans-74"/>
     <use x="464.828125" xlink:href="#DejaVuSans-73"/>
     <use x="516.927734" xlink:href="#DejaVuSans-20"/>
     <use x="548.714844" xlink:href="#DejaVuSans-69"/>
     <use x="576.498047" xlink:href="#DejaVuSans-6e"/>
     <use x="639.876953" xlink:href="#DejaVuSans-20"/>
     <use x="671.664062" xlink:href="#DejaVuSans-31"/>
     <use x="735.287109" xlink:href="#DejaVuSans-30"/>
     <use x="798.910156" xlink:href="#DejaVuSans-30"/>
     <use x="862.533203" xlink:href="#DejaVuSans-2e"/>
     <use x="894.320312" xlink:href="#DejaVuSans-2e"/>
     <use x="926.107422" xlink:href="#DejaVuSans-31"/>
     <use x="989.730469" xlink:href="#DejaVuSans-65"/>
     <use x="1051.253906" xlink:href="#DejaVuSans-2d"/>
     <use x="1087.337891" xlink:href="#DejaVuSans-30"/>
     <use x="1150.960938" xlink:href="#DejaVuSans-38"/>
    </g>
    <!-- 15 instances -->
    <g transform="translate(74.3712 106.081279)scale(0.1666 -0.1666)">
     <use xlink:href="#DejaVuSans-31"/>
     <use x="63.623047" xlink:href="#DejaVuSans-35"/>
     <use x="127.246094" xlink:href="#DejaVuSans-20"/>
     <use x="159.033203" xlink:href="#DejaVuSans-69"/>
     <use x="186.816406" xlink:href="#DejaVuSans-6e"/>
     <use x="250.195312" xlink:href="#DejaVuSans-73"/>
     <use x="302.294922" xlink:href="#DejaVuSans-74"/>
     <use x="341.503906" xlink:href="#DejaVuSans-61"/>
     <use x="402.783203" xlink:href="#DejaVuSans-6e"/>
     <use x="466.162109" xlink:href="#DejaVuSans-63"/>
     <use x="521.142578" xlink:href="#DejaVuSans-65"/>
     <use x="582.666016" xlink:href="#DejaVuSans-73"/>
    </g>
   </g>
   <g id="text_20">
    <!-- v2.1 -->
    <g style="fill:#808080;" transform="translate(238.449063 293.504568)scale(0.1 -0.1)">
     <use xlink:href="#DejaVuSans-76"/>
     <use x="59.179688" xlink:href="#DejaVuSans-32"/>
     <use x="122.802734" xlink:href="#DejaVuSans-2e"/>
     <use x="154.589844" xlink:href="#DejaVuSans-31"/>
    </g>
   </g>
  </g>
 </g>
 <defs>
  <clipPath id="pb0107f8141">
   <rect height="266.112" width="357.12" x="70.8" y="32.133375"/>
  </clipPath>
 </defs>
</svg>
