<?xml version="1.0" encoding="utf-8" standalone="no"?>
<!DOCTYPE svg PUBLIC "-//W3C//DTD SVG 1.1//EN"
  "http://www.w3.org/Graphics/SVG/1.1/DTD/svg11.dtd">
<!-- Created with matplotlib (http://matplotlib.org/) -->
<svg height="353pt" version="1.1" viewBox="0 0 439 353" width="439pt" xmlns="http://www.w3.org/2000/svg" xmlns:xlink="http://www.w3.org/1999/xlink">
 <defs>
  <style type="text/css">
*{stroke-linecap:butt;stroke-linejoin:round;}
  </style>
 </defs>
 <g id="figure_1">
  <g id="patch_1">
   <path d="M 0 353.22225 
L 439.489219 353.22225 
L 439.489219 0 
L 0 0 
z
" style="fill:#ffffff;"/>
  </g>
  <g id="axes_1">
   <g id="patch_2">
    <path d="M 70.8 298.245375 
L 427.92 298.245375 
L 427.92 32.133375 
L 70.8 32.133375 
z
" style="fill:#ffffff;"/>
   </g>
   <g id="matplotlib.axis_1">
    <g id="xtick_1">
     <g id="line2d_1">
      <path clip-path="url(#p3e42ee6f86)" d="M 70.8 298.245375 
L 70.8 32.133375 
" style="fill:none;stroke:#b0b0b0;stroke-linecap:square;stroke-width:0.8;"/>
     </g>
     <g id="line2d_2">
      <defs>
       <path d="M 0 0 
L 0 3.5 
" id="ma2bbf5c76c" style="stroke:#000000;stroke-width:0.8;"/>
      </defs>
      <g>
       <use style="stroke:#000000;stroke-width:0.8;" x="70.8" xlink:href="#ma2bbf5c76c" y="298.245375"/>
      </g>
     </g>
     <g id="text_1">
      <!-- 0 -->
      <defs>
       <path d="M 31.78125 66.40625 
Q 24.171875 66.40625 20.328125 58.90625 
Q 16.5 51.421875 16.5 36.375 
Q 16.5 21.390625 20.328125 13.890625 
Q 24.171875 6.390625 31.78125 6.390625 
Q 39.453125 6.390625 43.28125 13.890625 
Q 47.125 21.390625 47.125 36.375 
Q 47.125 51.421875 43.28125 58.90625 
Q 39.453125 66.40625 31.78125 66.40625 
z
M 31.78125 74.21875 
Q 44.046875 74.21875 50.515625 64.515625 
Q 56.984375 54.828125 56.984375 36.375 
Q 56.984375 17.96875 50.515625 8.265625 
Q 44.046875 -1.421875 31.78125 -1.421875 
Q 19.53125 -1.421875 13.0625 8.265625 
Q 6.59375 17.96875 6.59375 36.375 
Q 6.59375 54.828125 13.0625 64.515625 
Q 19.53125 74.21875 31.78125 74.21875 
z
" id="DejaVuSans-30"/>
      </defs>
      <g transform="translate(64.4375 320.44225)scale(0.2 -0.2)">
       <use xlink:href="#DejaVuSans-30"/>
      </g>
     </g>
    </g>
    <g id="xtick_2">
     <g id="line2d_3">
      <path clip-path="url(#p3e42ee6f86)" d="M 153.085714 298.245375 
L 153.085714 32.133375 
" style="fill:none;stroke:#b0b0b0;stroke-linecap:square;stroke-width:0.8;"/>
     </g>
     <g id="line2d_4">
      <g>
       <use style="stroke:#000000;stroke-width:0.8;" x="153.085714" xlink:href="#ma2bbf5c76c" y="298.245375"/>
      </g>
     </g>
     <g id="text_2">
      <!-- 2 -->
      <defs>
       <path d="M 19.1875 8.296875 
L 53.609375 8.296875 
L 53.609375 0 
L 7.328125 0 
L 7.328125 8.296875 
Q 12.9375 14.109375 22.625 23.890625 
Q 32.328125 33.6875 34.8125 36.53125 
Q 39.546875 41.84375 41.421875 45.53125 
Q 43.3125 49.21875 43.3125 52.78125 
Q 43.3125 58.59375 39.234375 62.25 
Q 35.15625 65.921875 28.609375 65.921875 
Q 23.96875 65.921875 18.8125 64.3125 
Q 13.671875 62.703125 7.8125 59.421875 
L 7.8125 69.390625 
Q 13.765625 71.78125 18.9375 73 
Q 24.125 74.21875 28.421875 74.21875 
Q 39.75 74.21875 46.484375 68.546875 
Q 53.21875 62.890625 53.21875 53.421875 
Q 53.21875 48.921875 51.53125 44.890625 
Q 49.859375 40.875 45.40625 35.40625 
Q 44.1875 33.984375 37.640625 27.21875 
Q 31.109375 20.453125 19.1875 8.296875 
z
" id="DejaVuSans-32"/>
      </defs>
      <g transform="translate(146.723214 320.44225)scale(0.2 -0.2)">
       <use xlink:href="#DejaVuSans-32"/>
      </g>
     </g>
    </g>
    <g id="xtick_3">
     <g id="line2d_5">
      <path clip-path="url(#p3e42ee6f86)" d="M 235.371429 298.245375 
L 235.371429 32.133375 
" style="fill:none;stroke:#b0b0b0;stroke-linecap:square;stroke-width:0.8;"/>
     </g>
     <g id="line2d_6">
      <g>
       <use style="stroke:#000000;stroke-width:0.8;" x="235.371429" xlink:href="#ma2bbf5c76c" y="298.245375"/>
      </g>
     </g>
     <g id="text_3">
      <!-- 4 -->
      <defs>
       <path d="M 37.796875 64.3125 
L 12.890625 25.390625 
L 37.796875 25.390625 
z
M 35.203125 72.90625 
L 47.609375 72.90625 
L 47.609375 25.390625 
L 58.015625 25.390625 
L 58.015625 17.1875 
L 47.609375 17.1875 
L 47.609375 0 
L 37.796875 0 
L 37.796875 17.1875 
L 4.890625 17.1875 
L 4.890625 26.703125 
z
" id="DejaVuSans-34"/>
      </defs>
      <g transform="translate(229.008929 320.44225)scale(0.2 -0.2)">
       <use xlink:href="#DejaVuSans-34"/>
      </g>
     </g>
    </g>
    <g id="xtick_4">
     <g id="line2d_7">
      <path clip-path="url(#p3e42ee6f86)" d="M 317.657143 298.245375 
L 317.657143 32.133375 
" style="fill:none;stroke:#b0b0b0;stroke-linecap:square;stroke-width:0.8;"/>
     </g>
     <g id="line2d_8">
      <g>
       <use style="stroke:#000000;stroke-width:0.8;" x="317.657143" xlink:href="#ma2bbf5c76c" y="298.245375"/>
      </g>
     </g>
     <g id="text_4">
      <!-- 6 -->
      <defs>
       <path d="M 33.015625 40.375 
Q 26.375 40.375 22.484375 35.828125 
Q 18.609375 31.296875 18.609375 23.390625 
Q 18.609375 15.53125 22.484375 10.953125 
Q 26.375 6.390625 33.015625 6.390625 
Q 39.65625 6.390625 43.53125 10.953125 
Q 47.40625 15.53125 47.40625 23.390625 
Q 47.40625 31.296875 43.53125 35.828125 
Q 39.65625 40.375 33.015625 40.375 
z
M 52.59375 71.296875 
L 52.59375 62.3125 
Q 48.875 64.0625 45.09375 64.984375 
Q 41.3125 65.921875 37.59375 65.921875 
Q 27.828125 65.921875 22.671875 59.328125 
Q 17.53125 52.734375 16.796875 39.40625 
Q 19.671875 43.65625 24.015625 45.921875 
Q 28.375 48.1875 33.59375 48.1875 
Q 44.578125 48.1875 50.953125 41.515625 
Q 57.328125 34.859375 57.328125 23.390625 
Q 57.328125 12.15625 50.6875 5.359375 
Q 44.046875 -1.421875 33.015625 -1.421875 
Q 20.359375 -1.421875 13.671875 8.265625 
Q 6.984375 17.96875 6.984375 36.375 
Q 6.984375 53.65625 15.1875 63.9375 
Q 23.390625 74.21875 37.203125 74.21875 
Q 40.921875 74.21875 44.703125 73.484375 
Q 48.484375 72.75 52.59375 71.296875 
z
" id="DejaVuSans-36"/>
      </defs>
      <g transform="translate(311.294643 320.44225)scale(0.2 -0.2)">
       <use xlink:href="#DejaVuSans-36"/>
      </g>
     </g>
    </g>
    <g id="xtick_5">
     <g id="line2d_9">
      <path clip-path="url(#p3e42ee6f86)" d="M 399.942857 298.245375 
L 399.942857 32.133375 
" style="fill:none;stroke:#b0b0b0;stroke-linecap:square;stroke-width:0.8;"/>
     </g>
     <g id="line2d_10">
      <g>
       <use style="stroke:#000000;stroke-width:0.8;" x="399.942857" xlink:href="#ma2bbf5c76c" y="298.245375"/>
      </g>
     </g>
     <g id="text_5">
      <!-- 8 -->
      <defs>
       <path d="M 31.78125 34.625 
Q 24.75 34.625 20.71875 30.859375 
Q 16.703125 27.09375 16.703125 20.515625 
Q 16.703125 13.921875 20.71875 10.15625 
Q 24.75 6.390625 31.78125 6.390625 
Q 38.8125 6.390625 42.859375 10.171875 
Q 46.921875 13.96875 46.921875 20.515625 
Q 46.921875 27.09375 42.890625 30.859375 
Q 38.875 34.625 31.78125 34.625 
z
M 21.921875 38.8125 
Q 15.578125 40.375 12.03125 44.71875 
Q 8.5 49.078125 8.5 55.328125 
Q 8.5 64.0625 14.71875 69.140625 
Q 20.953125 74.21875 31.78125 74.21875 
Q 42.671875 74.21875 48.875 69.140625 
Q 55.078125 64.0625 55.078125 55.328125 
Q 55.078125 49.078125 51.53125 44.71875 
Q 48 40.375 41.703125 38.8125 
Q 48.828125 37.15625 52.796875 32.3125 
Q 56.78125 27.484375 56.78125 20.515625 
Q 56.78125 9.90625 50.3125 4.234375 
Q 43.84375 -1.421875 31.78125 -1.421875 
Q 19.734375 -1.421875 13.25 4.234375 
Q 6.78125 9.90625 6.78125 20.515625 
Q 6.78125 27.484375 10.78125 32.3125 
Q 14.796875 37.15625 21.921875 38.8125 
z
M 18.3125 54.390625 
Q 18.3125 48.734375 21.84375 45.5625 
Q 25.390625 42.390625 31.78125 42.390625 
Q 38.140625 42.390625 41.71875 45.5625 
Q 45.3125 48.734375 45.3125 54.390625 
Q 45.3125 60.0625 41.71875 63.234375 
Q 38.140625 66.40625 31.78125 66.40625 
Q 25.390625 66.40625 21.84375 63.234375 
Q 18.3125 60.0625 18.3125 54.390625 
z
" id="DejaVuSans-38"/>
      </defs>
      <g transform="translate(393.580357 320.44225)scale(0.2 -0.2)">
       <use xlink:href="#DejaVuSans-38"/>
      </g>
     </g>
    </g>
    <g id="text_6">
     <!-- log10 of (# f-evals / dimension) -->
     <defs>
      <path d="M 9.421875 75.984375 
L 18.40625 75.984375 
L 18.40625 0 
L 9.421875 0 
z
" id="DejaVuSans-6c"/>
      <path d="M 30.609375 48.390625 
Q 23.390625 48.390625 19.1875 42.75 
Q 14.984375 37.109375 14.984375 27.296875 
Q 14.984375 17.484375 19.15625 11.84375 
Q 23.34375 6.203125 30.609375 6.203125 
Q 37.796875 6.203125 41.984375 11.859375 
Q 46.1875 17.53125 46.1875 27.296875 
Q 46.1875 37.015625 41.984375 42.703125 
Q 37.796875 48.390625 30.609375 48.390625 
z
M 30.609375 56 
Q 42.328125 56 49.015625 48.375 
Q 55.71875 40.765625 55.71875 27.296875 
Q 55.71875 13.875 49.015625 6.21875 
Q 42.328125 -1.421875 30.609375 -1.421875 
Q 18.84375 -1.421875 12.171875 6.21875 
Q 5.515625 13.875 5.515625 27.296875 
Q 5.515625 40.765625 12.171875 48.375 
Q 18.84375 56 30.609375 56 
z
" id="DejaVuSans-6f"/>
      <path d="M 45.40625 27.984375 
Q 45.40625 37.75 41.375 43.109375 
Q 37.359375 48.484375 30.078125 48.484375 
Q 22.859375 48.484375 18.828125 43.109375 
Q 14.796875 37.75 14.796875 27.984375 
Q 14.796875 18.265625 18.828125 12.890625 
Q 22.859375 7.515625 30.078125 7.515625 
Q 37.359375 7.515625 41.375 12.890625 
Q 45.40625 18.265625 45.40625 27.984375 
z
M 54.390625 6.78125 
Q 54.390625 -7.171875 48.1875 -13.984375 
Q 42 -20.796875 29.203125 -20.796875 
Q 24.46875 -20.796875 20.265625 -20.09375 
Q 16.0625 -19.390625 12.109375 -17.921875 
L 12.109375 -9.1875 
Q 16.0625 -11.328125 19.921875 -12.34375 
Q 23.78125 -13.375 27.78125 -13.375 
Q 36.625 -13.375 41.015625 -8.765625 
Q 45.40625 -4.15625 45.40625 5.171875 
L 45.40625 9.625 
Q 42.625 4.78125 38.28125 2.390625 
Q 33.9375 0 27.875 0 
Q 17.828125 0 11.671875 7.65625 
Q 5.515625 15.328125 5.515625 27.984375 
Q 5.515625 40.671875 11.671875 48.328125 
Q 17.828125 56 27.875 56 
Q 33.9375 56 38.28125 53.609375 
Q 42.625 51.21875 45.40625 46.390625 
L 45.40625 54.6875 
L 54.390625 54.6875 
z
" id="DejaVuSans-67"/>
      <path d="M 12.40625 8.296875 
L 28.515625 8.296875 
L 28.515625 63.921875 
L 10.984375 60.40625 
L 10.984375 69.390625 
L 28.421875 72.90625 
L 38.28125 72.90625 
L 38.28125 8.296875 
L 54.390625 8.296875 
L 54.390625 0 
L 12.40625 0 
z
" id="DejaVuSans-31"/>
      <path id="DejaVuSans-20"/>
      <path d="M 37.109375 75.984375 
L 37.109375 68.5 
L 28.515625 68.5 
Q 23.6875 68.5 21.796875 66.546875 
Q 19.921875 64.59375 19.921875 59.515625 
L 19.921875 54.6875 
L 34.71875 54.6875 
L 34.71875 47.703125 
L 19.921875 47.703125 
L 19.921875 0 
L 10.890625 0 
L 10.890625 47.703125 
L 2.296875 47.703125 
L 2.296875 54.6875 
L 10.890625 54.6875 
L 10.890625 58.5 
Q 10.890625 67.625 15.140625 71.796875 
Q 19.390625 75.984375 28.609375 75.984375 
z
" id="DejaVuSans-66"/>
      <path d="M 31 75.875 
Q 24.46875 64.65625 21.28125 53.65625 
Q 18.109375 42.671875 18.109375 31.390625 
Q 18.109375 20.125 21.3125 9.0625 
Q 24.515625 -2 31 -13.1875 
L 23.1875 -13.1875 
Q 15.875 -1.703125 12.234375 9.375 
Q 8.59375 20.453125 8.59375 31.390625 
Q 8.59375 42.28125 12.203125 53.3125 
Q 15.828125 64.359375 23.1875 75.875 
z
" id="DejaVuSans-28"/>
      <path d="M 51.125 44 
L 36.921875 44 
L 32.8125 27.6875 
L 47.125 27.6875 
z
M 43.796875 71.78125 
L 38.71875 51.515625 
L 52.984375 51.515625 
L 58.109375 71.78125 
L 65.921875 71.78125 
L 60.890625 51.515625 
L 76.125 51.515625 
L 76.125 44 
L 58.984375 44 
L 54.984375 27.6875 
L 70.515625 27.6875 
L 70.515625 20.21875 
L 53.078125 20.21875 
L 48 0 
L 40.1875 0 
L 45.21875 20.21875 
L 30.90625 20.21875 
L 25.875 0 
L 18.015625 0 
L 23.09375 20.21875 
L 7.71875 20.21875 
L 7.71875 27.6875 
L 24.90625 27.6875 
L 29 44 
L 13.28125 44 
L 13.28125 51.515625 
L 30.90625 51.515625 
L 35.890625 71.78125 
z
" id="DejaVuSans-23"/>
      <path d="M 4.890625 31.390625 
L 31.203125 31.390625 
L 31.203125 23.390625 
L 4.890625 23.390625 
z
" id="DejaVuSans-2d"/>
      <path d="M 56.203125 29.59375 
L 56.203125 25.203125 
L 14.890625 25.203125 
Q 15.484375 15.921875 20.484375 11.0625 
Q 25.484375 6.203125 34.421875 6.203125 
Q 39.59375 6.203125 44.453125 7.46875 
Q 49.3125 8.734375 54.109375 11.28125 
L 54.109375 2.78125 
Q 49.265625 0.734375 44.1875 -0.34375 
Q 39.109375 -1.421875 33.890625 -1.421875 
Q 20.796875 -1.421875 13.15625 6.1875 
Q 5.515625 13.8125 5.515625 26.8125 
Q 5.515625 40.234375 12.765625 48.109375 
Q 20.015625 56 32.328125 56 
Q 43.359375 56 49.78125 48.890625 
Q 56.203125 41.796875 56.203125 29.59375 
z
M 47.21875 32.234375 
Q 47.125 39.59375 43.09375 43.984375 
Q 39.0625 48.390625 32.421875 48.390625 
Q 24.90625 48.390625 20.390625 44.140625 
Q 15.875 39.890625 15.1875 32.171875 
z
" id="DejaVuSans-65"/>
      <path d="M 2.984375 54.6875 
L 12.5 54.6875 
L 29.59375 8.796875 
L 46.6875 54.6875 
L 56.203125 54.6875 
L 35.6875 0 
L 23.484375 0 
z
" id="DejaVuSans-76"/>
      <path d="M 34.28125 27.484375 
Q 23.390625 27.484375 19.1875 25 
Q 14.984375 22.515625 14.984375 16.5 
Q 14.984375 11.71875 18.140625 8.90625 
Q 21.296875 6.109375 26.703125 6.109375 
Q 34.1875 6.109375 38.703125 11.40625 
Q 43.21875 16.703125 43.21875 25.484375 
L 43.21875 27.484375 
z
M 52.203125 31.203125 
L 52.203125 0 
L 43.21875 0 
L 43.21875 8.296875 
Q 40.140625 3.328125 35.546875 0.953125 
Q 30.953125 -1.421875 24.3125 -1.421875 
Q 15.921875 -1.421875 10.953125 3.296875 
Q 6 8.015625 6 15.921875 
Q 6 25.140625 12.171875 29.828125 
Q 18.359375 34.515625 30.609375 34.515625 
L 43.21875 34.515625 
L 43.21875 35.40625 
Q 43.21875 41.609375 39.140625 45 
Q 35.0625 48.390625 27.6875 48.390625 
Q 23 48.390625 18.546875 47.265625 
Q 14.109375 46.140625 10.015625 43.890625 
L 10.015625 52.203125 
Q 14.9375 54.109375 19.578125 55.046875 
Q 24.21875 56 28.609375 56 
Q 40.484375 56 46.34375 49.84375 
Q 52.203125 43.703125 52.203125 31.203125 
z
" id="DejaVuSans-61"/>
      <path d="M 44.28125 53.078125 
L 44.28125 44.578125 
Q 40.484375 46.53125 36.375 47.5 
Q 32.28125 48.484375 27.875 48.484375 
Q 21.1875 48.484375 17.84375 46.4375 
Q 14.5 44.390625 14.5 40.28125 
Q 14.5 37.15625 16.890625 35.375 
Q 19.28125 33.59375 26.515625 31.984375 
L 29.59375 31.296875 
Q 39.15625 29.25 43.1875 25.515625 
Q 47.21875 21.78125 47.21875 15.09375 
Q 47.21875 7.46875 41.1875 3.015625 
Q 35.15625 -1.421875 24.609375 -1.421875 
Q 20.21875 -1.421875 15.453125 -0.5625 
Q 10.6875 0.296875 5.421875 2 
L 5.421875 11.28125 
Q 10.40625 8.6875 15.234375 7.390625 
Q 20.0625 6.109375 24.8125 6.109375 
Q 31.15625 6.109375 34.5625 8.28125 
Q 37.984375 10.453125 37.984375 14.40625 
Q 37.984375 18.0625 35.515625 20.015625 
Q 33.0625 21.96875 24.703125 23.78125 
L 21.578125 24.515625 
Q 13.234375 26.265625 9.515625 29.90625 
Q 5.8125 33.546875 5.8125 39.890625 
Q 5.8125 47.609375 11.28125 51.796875 
Q 16.75 56 26.8125 56 
Q 31.78125 56 36.171875 55.265625 
Q 40.578125 54.546875 44.28125 53.078125 
z
" id="DejaVuSans-73"/>
      <path d="M 25.390625 72.90625 
L 33.6875 72.90625 
L 8.296875 -9.28125 
L 0 -9.28125 
z
" id="DejaVuSans-2f"/>
      <path d="M 45.40625 46.390625 
L 45.40625 75.984375 
L 54.390625 75.984375 
L 54.390625 0 
L 45.40625 0 
L 45.40625 8.203125 
Q 42.578125 3.328125 38.25 0.953125 
Q 33.9375 -1.421875 27.875 -1.421875 
Q 17.96875 -1.421875 11.734375 6.484375 
Q 5.515625 14.40625 5.515625 27.296875 
Q 5.515625 40.1875 11.734375 48.09375 
Q 17.96875 56 27.875 56 
Q 33.9375 56 38.25 53.625 
Q 42.578125 51.265625 45.40625 46.390625 
z
M 14.796875 27.296875 
Q 14.796875 17.390625 18.875 11.75 
Q 22.953125 6.109375 30.078125 6.109375 
Q 37.203125 6.109375 41.296875 11.75 
Q 45.40625 17.390625 45.40625 27.296875 
Q 45.40625 37.203125 41.296875 42.84375 
Q 37.203125 48.484375 30.078125 48.484375 
Q 22.953125 48.484375 18.875 42.84375 
Q 14.796875 37.203125 14.796875 27.296875 
z
" id="DejaVuSans-64"/>
      <path d="M 9.421875 54.6875 
L 18.40625 54.6875 
L 18.40625 0 
L 9.421875 0 
z
M 9.421875 75.984375 
L 18.40625 75.984375 
L 18.40625 64.59375 
L 9.421875 64.59375 
z
" id="DejaVuSans-69"/>
      <path d="M 52 44.1875 
Q 55.375 50.25 60.0625 53.125 
Q 64.75 56 71.09375 56 
Q 79.640625 56 84.28125 50.015625 
Q 88.921875 44.046875 88.921875 33.015625 
L 88.921875 0 
L 79.890625 0 
L 79.890625 32.71875 
Q 79.890625 40.578125 77.09375 44.375 
Q 74.3125 48.1875 68.609375 48.1875 
Q 61.625 48.1875 57.5625 43.546875 
Q 53.515625 38.921875 53.515625 30.90625 
L 53.515625 0 
L 44.484375 0 
L 44.484375 32.71875 
Q 44.484375 40.625 41.703125 44.40625 
Q 38.921875 48.1875 33.109375 48.1875 
Q 26.21875 48.1875 22.15625 43.53125 
Q 18.109375 38.875 18.109375 30.90625 
L 18.109375 0 
L 9.078125 0 
L 9.078125 54.6875 
L 18.109375 54.6875 
L 18.109375 46.1875 
Q 21.1875 51.21875 25.484375 53.609375 
Q 29.78125 56 35.6875 56 
Q 41.65625 56 45.828125 52.96875 
Q 50 49.953125 52 44.1875 
z
" id="DejaVuSans-6d"/>
      <path d="M 54.890625 33.015625 
L 54.890625 0 
L 45.90625 0 
L 45.90625 32.71875 
Q 45.90625 40.484375 42.875 44.328125 
Q 39.84375 48.1875 33.796875 48.1875 
Q 26.515625 48.1875 22.3125 43.546875 
Q 18.109375 38.921875 18.109375 30.90625 
L 18.109375 0 
L 9.078125 0 
L 9.078125 54.6875 
L 18.109375 54.6875 
L 18.109375 46.1875 
Q 21.34375 51.125 25.703125 53.5625 
Q 30.078125 56 35.796875 56 
Q 45.21875 56 50.046875 50.171875 
Q 54.890625 44.34375 54.890625 33.015625 
z
" id="DejaVuSans-6e"/>
      <path d="M 8.015625 75.875 
L 15.828125 75.875 
Q 23.140625 64.359375 26.78125 53.3125 
Q 30.421875 42.28125 30.421875 31.390625 
Q 30.421875 20.453125 26.78125 9.375 
Q 23.140625 -1.703125 15.828125 -13.1875 
L 8.015625 -13.1875 
Q 14.5 -2 17.703125 9.0625 
Q 20.90625 20.125 20.90625 31.390625 
Q 20.90625 42.671875 17.703125 53.65625 
Q 14.5 64.65625 8.015625 75.875 
z
" id="DejaVuSans-29"/>
     </defs>
     <g transform="translate(107.015156 342.278812)scale(0.18 -0.18)">
      <use xlink:href="#DejaVuSans-6c"/>
      <use x="27.783203" xlink:href="#DejaVuSans-6f"/>
      <use x="88.964844" xlink:href="#DejaVuSans-67"/>
      <use x="152.441406" xlink:href="#DejaVuSans-31"/>
      <use x="216.064453" xlink:href="#DejaVuSans-30"/>
      <use x="279.6875" xlink:href="#DejaVuSans-20"/>
      <use x="311.474609" xlink:href="#DejaVuSans-6f"/>
      <use x="372.65625" xlink:href="#DejaVuSans-66"/>
      <use x="407.861328" xlink:href="#DejaVuSans-20"/>
      <use x="439.648438" xlink:href="#DejaVuSans-28"/>
      <use x="478.662109" xlink:href="#DejaVuSans-23"/>
      <use x="562.451172" xlink:href="#DejaVuSans-20"/>
      <use x="594.238281" xlink:href="#DejaVuSans-66"/>
      <use x="629.365234" xlink:href="#DejaVuSans-2d"/>
      <use x="665.449219" xlink:href="#DejaVuSans-65"/>
      <use x="726.972656" xlink:href="#DejaVuSans-76"/>
      <use x="786.152344" xlink:href="#DejaVuSans-61"/>
      <use x="847.431641" xlink:href="#DejaVuSans-6c"/>
      <use x="875.214844" xlink:href="#DejaVuSans-73"/>
      <use x="927.314453" xlink:href="#DejaVuSans-20"/>
      <use x="959.101562" xlink:href="#DejaVuSans-2f"/>
      <use x="992.792969" xlink:href="#DejaVuSans-20"/>
      <use x="1024.580078" xlink:href="#DejaVuSans-64"/>
      <use x="1088.056641" xlink:href="#DejaVuSans-69"/>
      <use x="1115.839844" xlink:href="#DejaVuSans-6d"/>
      <use x="1213.251953" xlink:href="#DejaVuSans-65"/>
      <use x="1274.775391" xlink:href="#DejaVuSans-6e"/>
      <use x="1338.154297" xlink:href="#DejaVuSans-73"/>
      <use x="1390.253906" xlink:href="#DejaVuSans-69"/>
      <use x="1418.037109" xlink:href="#DejaVuSans-6f"/>
      <use x="1479.21875" xlink:href="#DejaVuSans-6e"/>
      <use x="1542.597656" xlink:href="#DejaVuSans-29"/>
     </g>
    </g>
   </g>
   <g id="matplotlib.axis_2">
    <g id="ytick_1">
     <g id="line2d_11">
      <path clip-path="url(#p3e42ee6f86)" d="M 70.8 298.245375 
L 427.92 298.245375 
" style="fill:none;stroke:#b0b0b0;stroke-linecap:square;stroke-width:0.8;"/>
     </g>
     <g id="line2d_12">
      <defs>
       <path d="M 0 0 
L -3.5 0 
" id="md20eb743d3" style="stroke:#000000;stroke-width:0.8;"/>
      </defs>
      <g>
       <use style="stroke:#000000;stroke-width:0.8;" x="70.8" xlink:href="#md20eb743d3" y="298.245375"/>
      </g>
     </g>
     <g id="text_7">
      <!-- 0.0 -->
      <defs>
       <path d="M 10.6875 12.40625 
L 21 12.40625 
L 21 0 
L 10.6875 0 
z
" id="DejaVuSans-2e"/>
      </defs>
      <g transform="translate(31.99375 305.843812)scale(0.2 -0.2)">
       <use xlink:href="#DejaVuSans-30"/>
       <use x="63.623047" xlink:href="#DejaVuSans-2e"/>
       <use x="95.410156" xlink:href="#DejaVuSans-30"/>
      </g>
     </g>
    </g>
    <g id="ytick_2">
     <g id="line2d_13">
      <path clip-path="url(#p3e42ee6f86)" d="M 70.8 245.549929 
L 427.92 245.549929 
" style="fill:none;stroke:#b0b0b0;stroke-linecap:square;stroke-width:0.8;"/>
     </g>
     <g id="line2d_14">
      <g>
       <use style="stroke:#000000;stroke-width:0.8;" x="70.8" xlink:href="#md20eb743d3" y="245.549929"/>
      </g>
     </g>
     <g id="text_8">
      <!-- 0.2 -->
      <g transform="translate(31.99375 253.148367)scale(0.2 -0.2)">
       <use xlink:href="#DejaVuSans-30"/>
       <use x="63.623047" xlink:href="#DejaVuSans-2e"/>
       <use x="95.410156" xlink:href="#DejaVuSans-32"/>
      </g>
     </g>
    </g>
    <g id="ytick_3">
     <g id="line2d_15">
      <path clip-path="url(#p3e42ee6f86)" d="M 70.8 192.854484 
L 427.92 192.854484 
" style="fill:none;stroke:#b0b0b0;stroke-linecap:square;stroke-width:0.8;"/>
     </g>
     <g id="line2d_16">
      <g>
       <use style="stroke:#000000;stroke-width:0.8;" x="70.8" xlink:href="#md20eb743d3" y="192.854484"/>
      </g>
     </g>
     <g id="text_9">
      <!-- 0.4 -->
      <g transform="translate(31.99375 200.452921)scale(0.2 -0.2)">
       <use xlink:href="#DejaVuSans-30"/>
       <use x="63.623047" xlink:href="#DejaVuSans-2e"/>
       <use x="95.410156" xlink:href="#DejaVuSans-34"/>
      </g>
     </g>
    </g>
    <g id="ytick_4">
     <g id="line2d_17">
      <path clip-path="url(#p3e42ee6f86)" d="M 70.8 140.159038 
L 427.92 140.159038 
" style="fill:none;stroke:#b0b0b0;stroke-linecap:square;stroke-width:0.8;"/>
     </g>
     <g id="line2d_18">
      <g>
       <use style="stroke:#000000;stroke-width:0.8;" x="70.8" xlink:href="#md20eb743d3" y="140.159038"/>
      </g>
     </g>
     <g id="text_10">
      <!-- 0.6 -->
      <g transform="translate(31.99375 147.757476)scale(0.2 -0.2)">
       <use xlink:href="#DejaVuSans-30"/>
       <use x="63.623047" xlink:href="#DejaVuSans-2e"/>
       <use x="95.410156" xlink:href="#DejaVuSans-36"/>
      </g>
     </g>
    </g>
    <g id="ytick_5">
     <g id="line2d_19">
      <path clip-path="url(#p3e42ee6f86)" d="M 70.8 87.463593 
L 427.92 87.463593 
" style="fill:none;stroke:#b0b0b0;stroke-linecap:square;stroke-width:0.8;"/>
     </g>
     <g id="line2d_20">
      <g>
       <use style="stroke:#000000;stroke-width:0.8;" x="70.8" xlink:href="#md20eb743d3" y="87.463593"/>
      </g>
     </g>
     <g id="text_11">
      <!-- 0.8 -->
      <g transform="translate(31.99375 95.06203)scale(0.2 -0.2)">
       <use xlink:href="#DejaVuSans-30"/>
       <use x="63.623047" xlink:href="#DejaVuSans-2e"/>
       <use x="95.410156" xlink:href="#DejaVuSans-38"/>
      </g>
     </g>
    </g>
    <g id="ytick_6">
     <g id="line2d_21">
      <path clip-path="url(#p3e42ee6f86)" d="M 70.8 34.768147 
L 427.92 34.768147 
" style="fill:none;stroke:#b0b0b0;stroke-linecap:square;stroke-width:0.8;"/>
     </g>
     <g id="line2d_22">
      <g>
       <use style="stroke:#000000;stroke-width:0.8;" x="70.8" xlink:href="#md20eb743d3" y="34.768147"/>
      </g>
     </g>
     <g id="text_12">
      <!-- 1.0 -->
      <g transform="translate(31.99375 42.366585)scale(0.2 -0.2)">
       <use xlink:href="#DejaVuSans-31"/>
       <use x="63.623047" xlink:href="#DejaVuSans-2e"/>
       <use x="95.410156" xlink:href="#DejaVuSans-30"/>
      </g>
     </g>
    </g>
    <g id="text_13">
     <!-- Proportion of function+target pairs -->
     <defs>
      <path d="M 19.671875 64.796875 
L 19.671875 37.40625 
L 32.078125 37.40625 
Q 38.96875 37.40625 42.71875 40.96875 
Q 46.484375 44.53125 46.484375 51.125 
Q 46.484375 57.671875 42.71875 61.234375 
Q 38.96875 64.796875 32.078125 64.796875 
z
M 9.8125 72.90625 
L 32.078125 72.90625 
Q 44.34375 72.90625 50.609375 67.359375 
Q 56.890625 61.8125 56.890625 51.125 
Q 56.890625 40.328125 50.609375 34.8125 
Q 44.34375 29.296875 32.078125 29.296875 
L 19.671875 29.296875 
L 19.671875 0 
L 9.8125 0 
z
" id="DejaVuSans-50"/>
      <path d="M 41.109375 46.296875 
Q 39.59375 47.171875 37.8125 47.578125 
Q 36.03125 48 33.890625 48 
Q 26.265625 48 22.1875 43.046875 
Q 18.109375 38.09375 18.109375 28.8125 
L 18.109375 0 
L 9.078125 0 
L 9.078125 54.6875 
L 18.109375 54.6875 
L 18.109375 46.1875 
Q 20.953125 51.171875 25.484375 53.578125 
Q 30.03125 56 36.53125 56 
Q 37.453125 56 38.578125 55.875 
Q 39.703125 55.765625 41.0625 55.515625 
z
" id="DejaVuSans-72"/>
      <path d="M 18.109375 8.203125 
L 18.109375 -20.796875 
L 9.078125 -20.796875 
L 9.078125 54.6875 
L 18.109375 54.6875 
L 18.109375 46.390625 
Q 20.953125 51.265625 25.265625 53.625 
Q 29.59375 56 35.59375 56 
Q 45.5625 56 51.78125 48.09375 
Q 58.015625 40.1875 58.015625 27.296875 
Q 58.015625 14.40625 51.78125 6.484375 
Q 45.5625 -1.421875 35.59375 -1.421875 
Q 29.59375 -1.421875 25.265625 0.953125 
Q 20.953125 3.328125 18.109375 8.203125 
z
M 48.6875 27.296875 
Q 48.6875 37.203125 44.609375 42.84375 
Q 40.53125 48.484375 33.40625 48.484375 
Q 26.265625 48.484375 22.1875 42.84375 
Q 18.109375 37.203125 18.109375 27.296875 
Q 18.109375 17.390625 22.1875 11.75 
Q 26.265625 6.109375 33.40625 6.109375 
Q 40.53125 6.109375 44.609375 11.75 
Q 48.6875 17.390625 48.6875 27.296875 
z
" id="DejaVuSans-70"/>
      <path d="M 18.3125 70.21875 
L 18.3125 54.6875 
L 36.8125 54.6875 
L 36.8125 47.703125 
L 18.3125 47.703125 
L 18.3125 18.015625 
Q 18.3125 11.328125 20.140625 9.421875 
Q 21.96875 7.515625 27.59375 7.515625 
L 36.8125 7.515625 
L 36.8125 0 
L 27.59375 0 
Q 17.1875 0 13.234375 3.875 
Q 9.28125 7.765625 9.28125 18.015625 
L 9.28125 47.703125 
L 2.6875 47.703125 
L 2.6875 54.6875 
L 9.28125 54.6875 
L 9.28125 70.21875 
z
" id="DejaVuSans-74"/>
      <path d="M 8.5 21.578125 
L 8.5 54.6875 
L 17.484375 54.6875 
L 17.484375 21.921875 
Q 17.484375 14.15625 20.5 10.265625 
Q 23.53125 6.390625 29.59375 6.390625 
Q 36.859375 6.390625 41.078125 11.03125 
Q 45.3125 15.671875 45.3125 23.6875 
L 45.3125 54.6875 
L 54.296875 54.6875 
L 54.296875 0 
L 45.3125 0 
L 45.3125 8.40625 
Q 42.046875 3.421875 37.71875 1 
Q 33.40625 -1.421875 27.6875 -1.421875 
Q 18.265625 -1.421875 13.375 4.4375 
Q 8.5 10.296875 8.5 21.578125 
z
M 31.109375 56 
z
" id="DejaVuSans-75"/>
      <path d="M 48.78125 52.59375 
L 48.78125 44.1875 
Q 44.96875 46.296875 41.140625 47.34375 
Q 37.3125 48.390625 33.40625 48.390625 
Q 24.65625 48.390625 19.8125 42.84375 
Q 14.984375 37.3125 14.984375 27.296875 
Q 14.984375 17.28125 19.8125 11.734375 
Q 24.65625 6.203125 33.40625 6.203125 
Q 37.3125 6.203125 41.140625 7.25 
Q 44.96875 8.296875 48.78125 10.40625 
L 48.78125 2.09375 
Q 45.015625 0.34375 40.984375 -0.53125 
Q 36.96875 -1.421875 32.421875 -1.421875 
Q 20.0625 -1.421875 12.78125 6.34375 
Q 5.515625 14.109375 5.515625 27.296875 
Q 5.515625 40.671875 12.859375 48.328125 
Q 20.21875 56 33.015625 56 
Q 37.15625 56 41.109375 55.140625 
Q 45.0625 54.296875 48.78125 52.59375 
z
" id="DejaVuSans-63"/>
      <path d="M 46 62.703125 
L 46 35.5 
L 73.1875 35.5 
L 73.1875 27.203125 
L 46 27.203125 
L 46 0 
L 37.796875 0 
L 37.796875 27.203125 
L 10.59375 27.203125 
L 10.59375 35.5 
L 37.796875 35.5 
L 37.796875 62.703125 
z
" id="DejaVuSans-2b"/>
     </defs>
     <g transform="translate(24.250312 323.17875)rotate(-90)scale(0.18 -0.18)">
      <use xlink:href="#DejaVuSans-50"/>
      <use x="60.287109" xlink:href="#DejaVuSans-72"/>
      <use x="101.369141" xlink:href="#DejaVuSans-6f"/>
      <use x="162.550781" xlink:href="#DejaVuSans-70"/>
      <use x="226.027344" xlink:href="#DejaVuSans-6f"/>
      <use x="287.208984" xlink:href="#DejaVuSans-72"/>
      <use x="328.322266" xlink:href="#DejaVuSans-74"/>
      <use x="367.53125" xlink:href="#DejaVuSans-69"/>
      <use x="395.314453" xlink:href="#DejaVuSans-6f"/>
      <use x="456.496094" xlink:href="#DejaVuSans-6e"/>
      <use x="519.875" xlink:href="#DejaVuSans-20"/>
      <use x="551.662109" xlink:href="#DejaVuSans-6f"/>
      <use x="612.84375" xlink:href="#DejaVuSans-66"/>
      <use x="648.048828" xlink:href="#DejaVuSans-20"/>
      <use x="679.835938" xlink:href="#DejaVuSans-66"/>
      <use x="715.041016" xlink:href="#DejaVuSans-75"/>
      <use x="778.419922" xlink:href="#DejaVuSans-6e"/>
      <use x="841.798828" xlink:href="#DejaVuSans-63"/>
      <use x="896.779297" xlink:href="#DejaVuSans-74"/>
      <use x="935.988281" xlink:href="#DejaVuSans-69"/>
      <use x="963.771484" xlink:href="#DejaVuSans-6f"/>
      <use x="1024.953125" xlink:href="#DejaVuSans-6e"/>
      <use x="1088.332031" xlink:href="#DejaVuSans-2b"/>
      <use x="1172.121094" xlink:href="#DejaVuSans-74"/>
      <use x="1211.330078" xlink:href="#DejaVuSans-61"/>
      <use x="1272.609375" xlink:href="#DejaVuSans-72"/>
      <use x="1313.707031" xlink:href="#DejaVuSans-67"/>
      <use x="1377.183594" xlink:href="#DejaVuSans-65"/>
      <use x="1438.707031" xlink:href="#DejaVuSans-74"/>
      <use x="1477.916016" xlink:href="#DejaVuSans-20"/>
      <use x="1509.703125" xlink:href="#DejaVuSans-70"/>
      <use x="1573.179688" xlink:href="#DejaVuSans-61"/>
      <use x="1634.458984" xlink:href="#DejaVuSans-69"/>
      <use x="1662.242188" xlink:href="#DejaVuSans-72"/>
      <use x="1703.355469" xlink:href="#DejaVuSans-73"/>
     </g>
    </g>
   </g>
   <g id="line2d_23">
    <defs>
     <path d="M 0 1.5 
C 0.397805 1.5 0.77937 1.341951 1.06066 1.06066 
C 1.341951 0.77937 1.5 0.397805 1.5 0 
C 1.5 -0.397805 1.341951 -0.77937 1.06066 -1.06066 
C 0.77937 -1.341951 0.397805 -1.5 0 -1.5 
C -0.397805 -1.5 -0.77937 -1.341951 -1.06066 -1.06066 
C -1.341951 -0.77937 -1.5 -0.397805 -1.5 0 
C -1.5 0.397805 -1.341951 0.77937 -1.06066 1.06066 
C -0.77937 1.341951 -0.397805 1.5 0 1.5 
z
" id="m83c37983fa" style="stroke:#00bfbf;"/>
    </defs>
    <g>
     <use style="fill:#00bfbf;stroke:#00bfbf;" x="287.267645" xlink:href="#m83c37983fa" y="200.087192"/>
     <use style="fill:#00bfbf;stroke:#00bfbf;" x="287.267645" xlink:href="#m83c37983fa" y="200.087192"/>
    </g>
   </g>
   <g id="line2d_24">
    <path d="M 58.414766 298.245375 
L 58.414766 297.212131 
L 99.557623 297.212131 
L 99.557623 296.178887 
L 115.2006 296.178887 
L 115.2006 295.145643 
L 115.930012 295.145643 
L 115.930012 294.629021 
L 121.424184 294.629021 
L 121.424184 293.595777 
L 121.942137 293.595777 
L 121.942137 292.562533 
L 122.445497 292.562533 
L 122.445497 291.012667 
L 123.411577 291.012667 
L 123.411577 290.496045 
L 124.328091 290.496045 
L 124.328091 289.462801 
L 126.031105 289.462801 
L 126.031105 287.396313 
L 126.825374 287.396313 
L 126.825374 285.846447 
L 127.209649 285.846447 
L 127.209649 284.813203 
L 127.585834 284.813203 
L 127.585834 284.296581 
L 128.315246 284.296581 
L 128.315246 283.263337 
L 129.016046 283.263337 
L 129.016046 282.746715 
L 129.356402 282.746715 
L 129.356402 281.196849 
L 130.018259 281.196849 
L 130.018259 280.680226 
L 130.656474 280.680226 
L 130.656474 280.163604 
L 133.276002 280.163604 
L 133.276002 279.646982 
L 134.070271 279.646982 
L 134.070271 279.13036 
L 134.580824 279.13036 
L 134.580824 277.580494 
L 135.796811 277.580494 
L 135.796811 277.063872 
L 136.488566 277.063872 
L 136.488566 276.030628 
L 138.212129 276.030628 
L 138.212129 274.997384 
L 139.783966 274.997384 
L 139.783966 274.480762 
L 140.339496 274.480762 
L 140.339496 273.96414 
L 140.878274 273.96414 
L 140.878274 272.930896 
L 141.572268 272.930896 
L 141.572268 272.414274 
L 142.403494 272.414274 
L 142.403494 271.38103 
L 144.25357 271.38103 
L 144.25357 270.864408 
L 145.388435 270.864408 
L 145.388435 269.831164 
L 147.339621 269.831164 
L 147.339621 268.281298 
L 148.53127 268.281298 
L 148.53127 267.764676 
L 151.595842 267.764676 
L 151.595842 267.248054 
L 151.789013 267.248054 
L 151.789013 265.698188 
L 152.541466 265.698188 
L 152.541466 265.181566 
L 152.99615 265.181566 
L 152.99615 264.148322 
L 153.351746 264.148322 
L 153.351746 262.081834 
L 153.786515 262.081834 
L 153.786515 261.04859 
L 154.042387 261.04859 
L 154.12687 259.498724 
L 156.784667 259.498724 
L 156.784667 258.46548 
L 157.144199 258.46548 
L 157.144199 256.915614 
L 157.842261 256.915614 
L 157.842261 256.398992 
L 159.097839 256.398992 
L 159.097839 255.88237 
L 161.371767 255.88237 
L 161.371767 255.365748 
L 164.694944 255.365748 
L 164.694944 254.849126 
L 165.426222 254.849126 
L 165.426222 254.332504 
L 210.064078 254.332504 
L 210.13758 252.266016 
L 210.352663 252.266016 
L 210.428598 248.13304 
L 210.471845 248.13304 
L 210.532932 246.583173 
L 210.583083 246.583173 
L 210.643792 244.000063 
L 210.785829 244.000063 
L 210.814101 241.933575 
L 211.02124 241.933575 
L 211.02124 241.416953 
L 211.246697 241.416953 
L 211.246697 240.900331 
L 222.469556 240.900331 
L 222.561281 238.833843 
L 222.617916 238.833843 
L 222.721583 234.700867 
L 222.846277 234.700867 
L 222.887649 233.667623 
L 222.987981 233.667623 
L 222.987981 233.151001 
L 229.645041 233.151001 
L 229.67333 232.117757 
L 229.761598 232.117757 
L 229.826295 229.534647 
L 229.895615 229.534647 
L 229.993662 228.501403 
L 234.771832 228.501403 
L 234.833626 224.885049 
L 234.962062 224.885049 
L 234.962062 224.368427 
L 238.73532 224.368427 
L 238.789265 221.268695 
L 238.927448 221.268695 
L 238.927448 220.752073 
L 241.991459 220.752073 
L 242.021041 219.202207 
L 242.111332 219.202207 
L 242.136434 218.168963 
L 244.756852 218.168963 
L 244.834352 216.102475 
L 247.125163 216.102475 
L 247.19675 213.519365 
L 249.215578 213.519365 
L 249.222576 212.48612 
L 251.09352 212.48612 
L 251.14533 211.452876 
L 252.792389 211.452876 
L 252.792389 210.936254 
L 254.386559 210.936254 
L 254.394263 209.90301 
L 258.303422 209.90301 
L 258.36175 207.836522 
L 259.454082 207.836522 
L 259.46522 206.803278 
L 260.577659 206.803278 
L 260.577659 206.286656 
L 261.594636 206.286656 
L 261.603077 205.253412 
L 262.52813 205.253412 
L 262.52813 204.73679 
L 264.312506 204.73679 
L 264.312506 204.220168 
L 265.173747 204.220168 
L 265.173747 203.703546 
L 268.82058 203.703546 
L 268.82058 203.186924 
L 272.391602 203.186924 
L 272.391602 202.670302 
L 276.248949 202.670302 
L 276.262274 201.637058 
L 276.679072 201.637058 
L 276.679072 201.120436 
L 285.550075 201.120436 
L 285.550075 200.603814 
L 287.267645 200.603814 
L 287.267645 200.087192 
L 358.8 200.087192 
L 358.8 200.087192 
" style="fill:none;stroke:#00bfbf;stroke-linecap:square;stroke-width:1.5;"/>
   </g>
   <g id="line2d_25">
    <defs>
     <path d="M -6 0 
L 6 0 
M 0 6 
L 0 -6 
" id="m6f49da37ed" style="stroke:#00bfbf;stroke-width:1.5;"/>
    </defs>
    <g>
     <use style="fill:none;stroke:#00bfbf;stroke-width:1.5;" x="142.403494" xlink:href="#m6f49da37ed" y="272.414274"/>
     <use style="fill:none;stroke:#00bfbf;stroke-width:1.5;" x="210.471845" xlink:href="#m6f49da37ed" y="248.13304"/>
     <use style="fill:none;stroke:#00bfbf;stroke-width:1.5;" x="264.312506" xlink:href="#m6f49da37ed" y="204.73679"/>
     <use style="fill:none;stroke:#00bfbf;stroke-width:1.5;" x="287.267645" xlink:href="#m6f49da37ed" y="200.087192"/>
     <use style="fill:none;stroke:#00bfbf;stroke-width:1.5;" x="287.267645" xlink:href="#m6f49da37ed" y="200.087192"/>
     <use style="fill:none;stroke:#00bfbf;stroke-width:1.5;" x="358.8" xlink:href="#m6f49da37ed" y="200.087192"/>
    </g>
   </g>
   <g id="line2d_26"/>
   <g id="line2d_27">
    <path clip-path="url(#p3e42ee6f86)" d="M 209.87527 254.332504 
" style="fill:none;stroke:#00bfbf;stroke-linecap:square;stroke-width:1.5;"/>
    <defs>
     <path d="M -12 12 
L 12 -12 
M -12 -12 
L 12 12 
" id="ma26bc789e7" style="stroke:#00bfbf;stroke-width:3;"/>
    </defs>
    <g clip-path="url(#p3e42ee6f86)">
     <use style="fill:#00bfbf;stroke:#00bfbf;stroke-width:3;" x="209.87527" xlink:href="#ma26bc789e7" y="254.332504"/>
    </g>
   </g>
   <g id="line2d_28">
    <defs>
     <path d="M 0 1.5 
C 0.397805 1.5 0.77937 1.341951 1.06066 1.06066 
C 1.341951 0.77937 1.5 0.397805 1.5 0 
C 1.5 -0.397805 1.341951 -0.77937 1.06066 -1.06066 
C 0.77937 -1.341951 0.397805 -1.5 0 -1.5 
C -0.397805 -1.5 -0.77937 -1.341951 -1.06066 -1.06066 
C -1.341951 -0.77937 -1.5 -0.397805 -1.5 0 
C -1.5 0.397805 -1.341951 0.77937 -1.06066 1.06066 
C -0.77937 1.341951 -0.397805 1.5 0 1.5 
z
" id="mc37f8bf977" style="stroke:#008000;"/>
    </defs>
    <g>
     <use style="fill:#008000;stroke:#008000;" x="276.69373" xlink:href="#mc37f8bf977" y="194.920972"/>
     <use style="fill:#008000;stroke:#008000;" x="276.69373" xlink:href="#mc37f8bf977" y="194.920972"/>
    </g>
   </g>
   <g id="line2d_29">
    <path d="M 118.375428 298.245375 
L 118.375428 297.212131 
L 119.964752 297.212131 
L 119.964752 296.178887 
L 121.070349 296.178887 
L 121.070349 295.662265 
L 121.424184 295.662265 
L 121.424184 295.145643 
L 123.722334 295.145643 
L 123.722334 294.629021 
L 124.328091 294.629021 
L 124.328091 293.595777 
L 124.623439 293.595777 
L 124.623439 293.079155 
L 126.825374 293.079155 
L 126.825374 292.562533 
L 127.335926 292.562533 
L 127.335926 291.529289 
L 127.832295 291.529289 
L 127.832295 289.979423 
L 128.315246 289.979423 
L 128.315246 288.946179 
L 130.126224 288.946179 
L 130.126224 288.429557 
L 131.171441 288.429557 
L 131.171441 286.879691 
L 133.809418 286.879691 
L 133.809418 285.846447 
L 133.983743 285.846447 
L 133.983743 284.296581 
L 134.496738 284.296581 
L 134.496738 283.263337 
L 134.995416 283.263337 
L 134.995416 282.230093 
L 135.3203 282.230093 
L 135.3203 281.713471 
L 136.107569 281.713471 
L 136.107569 281.196849 
L 137.299218 281.196849 
L 137.299218 280.680226 
L 140.819206 280.680226 
L 140.819206 279.646982 
L 141.515454 279.646982 
L 141.515454 278.613738 
L 142.618775 278.613738 
L 142.618775 277.580494 
L 143.657911 277.580494 
L 143.657911 276.54725 
L 143.958223 276.54725 
L 143.958223 275.514006 
L 145.296568 275.514006 
L 145.296568 274.480762 
L 145.479832 274.480762 
L 145.479832 273.96414 
L 147.215966 273.96414 
L 147.215966 272.414274 
L 147.38065 272.414274 
L 147.38065 271.897652 
L 148.722375 271.897652 
L 148.722375 271.38103 
L 148.8738 271.38103 
L 148.8738 270.347786 
L 149.023953 270.347786 
L 149.023953 267.764676 
L 149.393907 267.764676 
L 149.466987 265.181566 
L 149.612257 265.181566 
L 149.612257 263.6317 
L 150.111598 263.6317 
L 150.111598 261.565212 
L 152.231785 261.565212 
L 152.231785 261.04859 
L 152.356302 261.04859 
L 152.356302 260.531968 
L 153.729153 260.531968 
L 153.729153 258.46548 
L 154.294647 258.46548 
L 154.294647 257.432236 
L 155.163784 257.432236 
L 155.163784 256.915614 
L 156.44245 256.915614 
L 156.44245 255.88237 
L 157.496639 255.88237 
L 157.496639 254.849126 
L 158.797528 254.849126 
L 158.797528 253.815882 
L 158.926851 253.815882 
L 158.926851 252.782638 
L 159.055245 252.782638 
L 159.055245 252.266016 
L 160.050479 252.266016 
L 160.050479 251.232772 
L 160.528052 251.232772 
L 160.528052 250.71615 
L 160.645477 250.71615 
L 160.645477 250.199528 
L 160.993191 250.199528 
L 160.993191 249.682906 
L 161.483794 249.682906 
L 161.483794 249.166284 
L 163.522053 249.166284 
L 163.621413 248.13304 
L 165.049085 248.13304 
L 165.049085 247.099796 
L 166.228927 247.099796 
L 166.228927 246.583173 
L 168.975152 246.583173 
L 168.975152 245.549929 
L 169.765164 245.549929 
L 169.765164 245.033307 
L 210.127797 245.033307 
L 210.127797 244.516685 
L 210.252127 244.516685 
L 210.353871 242.966819 
L 210.447831 242.966819 
L 210.471845 239.867087 
L 210.629526 239.867087 
L 210.696004 238.317221 
L 210.832925 238.317221 
L 210.940776 234.184245 
L 211.027056 234.184245 
L 211.066559 232.634379 
L 211.161473 232.634379 
L 211.271956 230.567891 
L 211.363505 230.567891 
L 211.363505 230.051269 
L 211.481822 230.051269 
L 211.481822 229.018025 
L 211.673554 229.018025 
L 211.673554 228.501403 
L 222.525259 228.501403 
L 222.560671 226.951537 
L 222.676189 226.951537 
L 222.765657 224.885049 
L 222.800597 224.885049 
L 222.831864 222.818561 
L 222.918166 222.818561 
L 222.971894 221.785317 
L 229.847404 221.785317 
L 229.946118 218.685585 
L 229.982392 218.685585 
L 229.982392 217.135719 
L 234.881133 217.135719 
L 234.942855 215.585853 
L 235.033524 215.585853 
L 235.060211 214.035987 
L 238.798117 214.035987 
L 238.89667 211.969498 
L 238.964993 211.969498 
L 238.964993 210.936254 
L 242.130111 210.936254 
L 242.130111 210.419632 
L 244.81909 210.419632 
L 244.912217 208.353144 
L 247.195828 208.353144 
L 247.264836 206.803278 
L 249.29513 206.803278 
L 249.343427 204.73679 
L 251.173515 204.73679 
L 251.205217 203.703546 
L 254.395393 203.703546 
L 254.431709 201.637058 
L 257.132573 201.637058 
L 257.132573 201.120436 
L 258.35846 201.120436 
L 258.387558 200.087192 
L 259.483536 200.087192 
L 259.51302 198.537326 
L 261.6244 198.537326 
L 261.6244 198.020704 
L 264.348665 198.020704 
L 264.348665 197.504082 
L 267.447344 197.504082 
L 267.447344 196.98746 
L 268.826625 196.98746 
L 268.826625 196.470838 
L 270.095427 196.470838 
L 270.095427 195.954216 
L 272.929658 195.954216 
L 272.929658 195.437594 
L 276.69373 195.437594 
L 276.69373 194.920972 
L 358.8 194.920972 
L 358.8 194.920972 
" style="fill:none;stroke:#008000;stroke-linecap:square;stroke-width:1.5;"/>
   </g>
   <g id="line2d_30">
    <defs>
     <path d="M -0 6 
L 6 -6 
L -6 -6 
z
" id="maa1cdc4668" style="stroke:#008000;stroke-linejoin:miter;stroke-width:1.5;"/>
    </defs>
    <g>
     <use style="fill:none;stroke:#008000;stroke-linejoin:miter;stroke-width:1.5;" x="140.819206" xlink:href="#maa1cdc4668" y="279.646982"/>
     <use style="fill:none;stroke:#008000;stroke-linejoin:miter;stroke-width:1.5;" x="169.765164" xlink:href="#maa1cdc4668" y="245.033307"/>
     <use style="fill:none;stroke:#008000;stroke-linejoin:miter;stroke-width:1.5;" x="249.29513" xlink:href="#maa1cdc4668" y="206.803278"/>
     <use style="fill:none;stroke:#008000;stroke-linejoin:miter;stroke-width:1.5;" x="276.69373" xlink:href="#maa1cdc4668" y="194.920972"/>
     <use style="fill:none;stroke:#008000;stroke-linejoin:miter;stroke-width:1.5;" x="358.8" xlink:href="#maa1cdc4668" y="194.920972"/>
    </g>
   </g>
   <g id="line2d_31"/>
   <g id="line2d_32">
    <path clip-path="url(#p3e42ee6f86)" d="M 209.87403 245.033307 
" style="fill:none;stroke:#008000;stroke-linecap:square;stroke-width:1.5;"/>
    <defs>
     <path d="M -12 12 
L 12 -12 
M -12 -12 
L 12 12 
" id="m05c5d814a5" style="stroke:#008000;stroke-width:3;"/>
    </defs>
    <g clip-path="url(#p3e42ee6f86)">
     <use style="fill:#008000;stroke:#008000;stroke-width:3;" x="209.87403" xlink:href="#m05c5d814a5" y="245.033307"/>
    </g>
   </g>
   <g id="line2d_33">
    <defs>
     <path d="M 0 1.5 
C 0.397805 1.5 0.77937 1.341951 1.06066 1.06066 
C 1.341951 0.77937 1.5 0.397805 1.5 0 
C 1.5 -0.397805 1.341951 -0.77937 1.06066 -1.06066 
C 0.77937 -1.341951 0.397805 -1.5 0 -1.5 
C -0.397805 -1.5 -0.77937 -1.341951 -1.06066 -1.06066 
C -1.341951 -0.77937 -1.5 -0.397805 -1.5 0 
C -1.5 0.397805 -1.341951 0.77937 -1.06066 1.06066 
C -0.77937 1.341951 -0.397805 1.5 0 1.5 
z
" id="m22c4d59fd2" style="stroke:#0000ff;"/>
    </defs>
    <g>
     <use style="fill:#0000ff;stroke:#0000ff;" x="285.805922" xlink:href="#m22c4d59fd2" y="205.253412"/>
     <use style="fill:#0000ff;stroke:#0000ff;" x="285.805922" xlink:href="#m22c4d59fd2" y="205.253412"/>
    </g>
   </g>
   <g id="line2d_34">
    <path d="M 130.083117 298.245375 
L 130.083117 297.728753 
L 130.340216 297.728753 
L 130.340216 296.695509 
L 130.467392 296.695509 
L 130.467392 295.662265 
L 130.967232 295.662265 
L 130.967232 294.112399 
L 132.948138 294.112399 
L 132.948138 292.562533 
L 134.53042 292.562533 
L 134.53042 292.045911 
L 135.028171 292.045911 
L 135.028171 291.012667 
L 135.3203 291.012667 
L 135.3203 290.496045 
L 135.70252 290.496045 
L 135.70252 289.979423 
L 136.169077 289.979423 
L 136.169077 288.429557 
L 137.754481 288.429557 
L 137.754481 287.396313 
L 137.922258 287.396313 
L 137.922258 286.879691 
L 138.334935 286.879691 
L 138.334935 286.363069 
L 139.365311 286.363069 
L 139.365311 285.329825 
L 139.821543 285.329825 
L 139.896462 284.296581 
L 139.971068 284.296581 
L 139.971068 283.779959 
L 140.193035 283.779959 
L 140.193035 282.746715 
L 141.193911 282.746715 
L 141.193911 282.230093 
L 142.009328 282.230093 
L 142.009328 281.713471 
L 142.273069 281.713471 
L 142.273069 281.196849 
L 142.403494 281.196849 
L 142.403494 280.163604 
L 142.978903 280.163604 
L 142.978903 279.13036 
L 143.104294 279.13036 
L 143.104294 278.613738 
L 144.428464 278.613738 
L 144.428464 278.097116 
L 144.601662 278.097116 
L 144.601662 276.54725 
L 145.055479 276.54725 
L 145.055479 276.030628 
L 146.089235 276.030628 
L 146.089235 275.514006 
L 146.66148 275.514006 
L 146.763584 274.480762 
L 148.040421 274.480762 
L 148.040421 273.96414 
L 148.691935 273.96414 
L 148.691935 273.447518 
L 148.918979 273.447518 
L 148.918979 272.414274 
L 149.496136 272.414274 
L 149.496136 271.897652 
L 150.097524 271.897652 
L 150.097524 271.38103 
L 150.432299 271.38103 
L 150.432299 270.347786 
L 151.003475 270.347786 
L 151.043583 269.314542 
L 151.711995 269.314542 
L 151.711995 268.79792 
L 152.206777 268.79792 
L 152.281696 265.698188 
L 152.319038 265.698188 
L 152.319038 265.181566 
L 152.72473 265.181566 
L 152.72473 264.664944 
L 153.192603 264.664944 
L 153.192603 264.148322 
L 153.544349 264.148322 
L 153.544349 263.115078 
L 154.394562 263.115078 
L 154.493922 262.081834 
L 154.658303 262.081834 
L 154.756211 261.04859 
L 155.174385 261.04859 
L 155.269513 258.982102 
L 155.952059 258.982102 
L 155.952059 258.46548 
L 157.440713 258.46548 
L 157.440713 257.948858 
L 158.154435 257.948858 
L 158.154435 256.915614 
L 160.114898 256.915614 
L 160.211092 254.849126 
L 161.031412 254.849126 
L 161.031412 253.815882 
L 161.483794 253.815882 
L 161.483794 252.782638 
L 162.440466 252.782638 
L 162.440466 252.266016 
L 163.023627 252.266016 
L 163.023627 251.232772 
L 166.696572 251.232772 
L 166.696572 250.71615 
L 210.27786 250.71615 
L 210.330183 249.166284 
L 210.398263 249.166284 
L 210.483359 246.066551 
L 210.525038 246.066551 
L 210.593812 244.000063 
L 210.64094 244.000063 
L 210.696478 241.933575 
L 210.766012 241.933575 
L 210.766012 241.416953 
L 210.880366 241.416953 
L 210.949189 238.833843 
L 210.998187 238.833843 
L 211.051233 236.767355 
L 222.534546 236.767355 
L 222.627398 234.184245 
L 222.646348 234.184245 
L 222.745867 233.151001 
L 222.804448 233.151001 
L 222.875786 231.084513 
L 229.736388 231.084513 
L 229.831656 227.984781 
L 229.868649 227.984781 
L 229.917208 225.401671 
L 234.818704 225.401671 
L 234.915015 223.335183 
L 234.96517 223.335183 
L 234.995122 222.301939 
L 238.770957 222.301939 
L 238.867308 220.752073 
L 238.946767 220.752073 
L 238.946767 219.718829 
L 242.044794 219.718829 
L 242.123581 217.135719 
L 244.783461 217.135719 
L 244.844555 216.102475 
L 247.126552 216.102475 
L 247.177011 214.552609 
L 249.309605 214.552609 
L 249.309605 214.035987 
L 251.125882 214.035987 
L 251.126473 212.48612 
L 252.829285 212.48612 
L 252.84757 211.452876 
L 254.347185 211.452876 
L 254.347185 210.936254 
L 255.803441 210.936254 
L 255.826092 209.90301 
L 257.129189 209.90301 
L 257.129189 209.386388 
L 258.355235 209.386388 
L 258.355235 208.869766 
L 259.513359 208.869766 
L 259.513359 208.353144 
L 261.579722 208.353144 
L 261.597272 207.3199 
L 264.330818 207.3199 
L 264.330818 206.803278 
L 268.150309 206.803278 
L 268.150309 206.286656 
L 272.39203 206.286656 
L 272.39203 205.770034 
L 285.805922 205.770034 
L 285.805922 205.253412 
L 358.8 205.253412 
L 358.8 205.253412 
" style="fill:none;stroke:#0000ff;stroke-linecap:square;stroke-width:1.5;"/>
   </g>
   <g id="line2d_35">
    <defs>
     <path d="M 0 -6 
L -1.347084 -1.854102 
L -5.706339 -1.854102 
L -2.179628 0.708204 
L -3.526712 4.854102 
L -0 2.291796 
L 3.526712 4.854102 
L 2.179628 0.708204 
L 5.706339 -1.854102 
L 1.347084 -1.854102 
z
" id="m18a16ca5fb" style="stroke:#0000ff;stroke-linejoin:bevel;stroke-width:1.5;"/>
    </defs>
    <g>
     <use style="fill:none;stroke:#0000ff;stroke-linejoin:bevel;stroke-width:1.5;" x="152.281696" xlink:href="#m18a16ca5fb" y="268.281298"/>
     <use style="fill:none;stroke:#0000ff;stroke-linejoin:bevel;stroke-width:1.5;" x="222.844116" xlink:href="#m18a16ca5fb" y="232.117757"/>
     <use style="fill:none;stroke:#0000ff;stroke-linejoin:bevel;stroke-width:1.5;" x="285.805922" xlink:href="#m18a16ca5fb" y="205.770034"/>
     <use style="fill:none;stroke:#0000ff;stroke-linejoin:bevel;stroke-width:1.5;" x="285.805922" xlink:href="#m18a16ca5fb" y="205.253412"/>
     <use style="fill:none;stroke:#0000ff;stroke-linejoin:bevel;stroke-width:1.5;" x="358.8" xlink:href="#m18a16ca5fb" y="205.253412"/>
    </g>
   </g>
   <g id="line2d_36"/>
   <g id="line2d_37">
    <path clip-path="url(#p3e42ee6f86)" d="M 209.873037 250.71615 
" style="fill:none;stroke:#0000ff;stroke-linecap:square;stroke-width:1.5;"/>
    <defs>
     <path d="M -12 12 
L 12 -12 
M -12 -12 
L 12 12 
" id="mca003ec9aa" style="stroke:#0000ff;stroke-width:3;"/>
    </defs>
    <g clip-path="url(#p3e42ee6f86)">
     <use style="fill:#0000ff;stroke:#0000ff;stroke-width:3;" x="209.873037" xlink:href="#mca003ec9aa" y="250.71615"/>
    </g>
   </g>
   <g id="line2d_38">
    <defs>
     <path d="M 0 1.5 
C 0.397805 1.5 0.77937 1.341951 1.06066 1.06066 
C 1.341951 0.77937 1.5 0.397805 1.5 0 
C 1.5 -0.397805 1.341951 -0.77937 1.06066 -1.06066 
C 0.77937 -1.341951 0.397805 -1.5 0 -1.5 
C -0.397805 -1.5 -0.77937 -1.341951 -1.06066 -1.06066 
C -1.341951 -0.77937 -1.5 -0.397805 -1.5 0 
C -1.5 0.397805 -1.341951 0.77937 -1.06066 1.06066 
C -0.77937 1.341951 -0.397805 1.5 0 1.5 
z
" id="m2264d48ec9" style="stroke:#000000;"/>
    </defs>
    <g>
     <use style="stroke:#000000;" x="286.547401" xlink:href="#m2264d48ec9" y="194.920972"/>
     <use style="stroke:#000000;" x="286.547401" xlink:href="#m2264d48ec9" y="194.920972"/>
    </g>
   </g>
   <g id="line2d_39">
    <path d="M 132.273789 298.245375 
L 132.273789 297.728753 
L 133.491283 297.728753 
L 133.491283 297.212131 
L 134.121988 297.212131 
L 134.173556 295.145643 
L 134.276246 295.145643 
L 134.276246 294.629021 
L 134.979015 294.629021 
L 134.979015 294.112399 
L 135.368527 294.112399 
L 135.464592 292.562533 
L 135.890607 292.562533 
L 135.890607 292.045911 
L 136.979357 292.045911 
L 136.979357 291.012667 
L 138.857549 291.012667 
L 138.857549 289.462801 
L 139.171722 289.462801 
L 139.171722 287.912935 
L 140.913621 287.912935 
L 140.913621 286.879691 
L 141.12425 286.879691 
L 141.12425 285.846447 
L 141.741636 285.846447 
L 141.775317 284.296581 
L 142.009328 284.296581 
L 142.108687 283.263337 
L 142.207498 283.263337 
L 142.207498 282.746715 
L 142.72545 282.746715 
L 142.72545 282.230093 
L 143.352466 282.230093 
L 143.352466 281.713471 
L 144.106507 281.713471 
L 144.106507 280.163604 
L 144.370356 280.163604 
L 144.457447 279.13036 
L 144.659023 279.13036 
L 144.659023 278.613738 
L 144.943101 278.613738 
L 144.943101 277.580494 
L 145.222733 277.580494 
L 145.278138 276.030628 
L 145.688289 276.030628 
L 145.688289 275.514006 
L 146.142022 275.514006 
L 146.142022 274.997384 
L 146.351621 274.997384 
L 146.455505 273.447518 
L 146.533025 273.447518 
L 146.533025 272.930896 
L 146.66148 272.930896 
L 146.66148 271.897652 
L 148.275841 271.897652 
L 148.275841 271.38103 
L 148.646178 271.38103 
L 148.71477 270.347786 
L 148.851168 270.347786 
L 148.851168 269.831164 
L 149.008995 269.831164 
L 149.008995 269.314542 
L 149.187677 269.314542 
L 149.187677 268.79792 
L 149.583298 268.79792 
L 149.583298 268.281298 
L 151.321846 268.281298 
L 151.380914 267.248054 
L 151.459369 267.248054 
L 151.459369 266.731432 
L 151.808215 266.731432 
L 151.808215 266.21481 
L 152.559877 266.21481 
L 152.559877 265.181566 
L 152.779345 265.181566 
L 152.779345 264.148322 
L 153.422024 264.148322 
L 153.422024 263.115078 
L 154.19417 263.115078 
L 154.227725 262.081834 
L 154.869762 262.081834 
L 154.869762 261.565212 
L 155.062759 261.565212 
L 155.062759 261.04859 
L 156.813698 261.04859 
L 156.813698 260.531968 
L 157.201059 260.531968 
L 157.201059 259.498724 
L 159.489174 259.498724 
L 159.489174 258.46548 
L 160.018182 258.46548 
L 160.018182 257.948858 
L 160.366312 257.948858 
L 160.366312 256.915614 
L 210.338163 256.915614 
L 210.378734 255.88237 
L 210.455279 255.88237 
L 210.560175 251.749394 
L 210.575212 251.749394 
L 210.648783 249.166284 
L 210.731279 249.166284 
L 210.826104 246.583173 
L 210.851494 246.583173 
L 210.93727 244.000063 
L 211.107596 244.000063 
L 211.107596 242.966819 
L 222.49198 242.966819 
L 222.59163 239.867087 
L 222.64999 239.867087 
L 222.753834 236.250733 
L 222.782412 236.250733 
L 222.885852 234.184245 
L 229.697156 234.184245 
L 229.803617 230.051269 
L 229.842859 230.051269 
L 229.923753 228.501403 
L 234.834178 228.501403 
L 234.92033 226.951537 
L 238.783213 226.951537 
L 238.852315 224.885049 
L 241.986153 224.885049 
L 242.073183 220.752073 
L 244.77259 220.752073 
L 244.801179 219.718829 
L 247.131641 219.718829 
L 247.18716 217.652341 
L 249.228994 217.652341 
L 249.241084 214.552609 
L 251.090406 214.552609 
L 251.106042 213.519365 
L 252.788007 213.519365 
L 252.807008 211.969498 
L 254.349903 211.969498 
L 254.354351 210.936254 
L 255.756341 210.936254 
L 255.774204 209.90301 
L 258.330929 209.90301 
L 258.330929 209.386388 
L 259.470091 209.386388 
L 259.481683 207.836522 
L 260.560911 207.836522 
L 260.571555 206.803278 
L 261.568343 206.803278 
L 261.57865 205.253412 
L 262.524339 205.253412 
L 262.524339 204.73679 
L 263.455168 204.73679 
L 263.455168 204.220168 
L 264.316219 204.220168 
L 264.322831 202.670302 
L 265.151756 202.670302 
L 265.151756 202.15368 
L 265.940213 202.15368 
L 265.940213 201.637058 
L 266.700016 201.637058 
L 266.711339 200.603814 
L 271.829054 200.603814 
L 271.829054 200.087192 
L 272.387011 200.087192 
L 272.387011 199.57057 
L 275.356586 199.57057 
L 275.356586 199.053948 
L 275.812232 199.053948 
L 275.812232 198.537326 
L 277.509329 198.537326 
L 277.513554 197.504082 
L 279.792357 197.504082 
L 279.792357 196.98746 
L 280.147485 196.98746 
L 280.147485 196.470838 
L 281.816757 196.470838 
L 281.816757 195.954216 
L 284.19793 195.954216 
L 284.19793 195.437594 
L 286.547401 195.437594 
L 286.547401 194.920972 
L 358.8 194.920972 
L 358.8 194.920972 
" style="fill:none;stroke:#000000;stroke-linecap:square;stroke-width:1.5;"/>
   </g>
   <g id="line2d_40">
    <defs>
     <path d="M 0 6 
C 1.591219 6 3.117479 5.367802 4.242641 4.242641 
C 5.367802 3.117479 6 1.591219 6 0 
C 6 -1.591219 5.367802 -3.117479 4.242641 -4.242641 
C 3.117479 -5.367802 1.591219 -6 0 -6 
C -1.591219 -6 -3.117479 -5.367802 -4.242641 -4.242641 
C -5.367802 -3.117479 -6 -1.591219 -6 0 
C -6 1.591219 -5.367802 3.117479 -4.242641 4.242641 
C -3.117479 5.367802 -1.591219 6 0 6 
z
" id="m1821a898d1" style="stroke:#000000;stroke-width:1.5;"/>
    </defs>
    <g>
     <use style="fill:none;stroke:#000000;stroke-width:1.5;" x="154.19417" xlink:href="#m1821a898d1" y="263.115078"/>
     <use style="fill:none;stroke:#000000;stroke-width:1.5;" x="211.107596" xlink:href="#m1821a898d1" y="244.000063"/>
     <use style="fill:none;stroke:#000000;stroke-width:1.5;" x="271.829054" xlink:href="#m1821a898d1" y="200.087192"/>
     <use style="fill:none;stroke:#000000;stroke-width:1.5;" x="286.547401" xlink:href="#m1821a898d1" y="194.920972"/>
     <use style="fill:none;stroke:#000000;stroke-width:1.5;" x="358.8" xlink:href="#m1821a898d1" y="194.920972"/>
    </g>
   </g>
   <g id="line2d_41"/>
   <g id="line2d_42">
    <path clip-path="url(#p3e42ee6f86)" d="M 209.872293 256.915614 
" style="fill:none;stroke:#000000;stroke-linecap:square;stroke-width:1.5;"/>
    <defs>
     <path d="M -12 12 
L 12 -12 
M -12 -12 
L 12 12 
" id="mc7d085ab91" style="stroke:#000000;stroke-width:3;"/>
    </defs>
    <g clip-path="url(#p3e42ee6f86)">
     <use style="stroke:#000000;stroke-width:3;" x="209.872293" xlink:href="#mc7d085ab91" y="256.915614"/>
    </g>
   </g>
   <g id="line2d_43">
    <defs>
     <path d="M 0 1.5 
C 0.397805 1.5 0.77937 1.341951 1.06066 1.06066 
C 1.341951 0.77937 1.5 0.397805 1.5 0 
C 1.5 -0.397805 1.341951 -0.77937 1.06066 -1.06066 
C 0.77937 -1.341951 0.397805 -1.5 0 -1.5 
C -0.397805 -1.5 -0.77937 -1.341951 -1.06066 -1.06066 
C -1.341951 -0.77937 -1.5 -0.397805 -1.5 0 
C -1.5 0.397805 -1.341951 0.77937 -1.06066 1.06066 
C -0.77937 1.341951 -0.397805 1.5 0 1.5 
z
" id="ma213436789" style="stroke:#ff0000;"/>
    </defs>
    <g>
     <use style="fill:#ff0000;stroke:#ff0000;" x="288.40818" xlink:href="#ma213436789" y="179.422312"/>
     <use style="fill:#ff0000;stroke:#ff0000;" x="288.40818" xlink:href="#ma213436789" y="179.422312"/>
    </g>
   </g>
   <g id="line2d_44">
    <path d="M 131.955997 298.245375 
L 131.955997 297.728753 
L 133.330066 297.728753 
L 133.383967 296.695509 
L 134.954387 296.695509 
L 134.954387 296.178887 
L 135.70252 296.178887 
L 135.773285 295.145643 
L 136.533745 295.145643 
L 136.533745 294.112399 
L 137.132732 294.112399 
L 137.132732 293.595777 
L 137.371122 293.595777 
L 137.414126 292.562533 
L 138.778135 292.562533 
L 138.778135 292.045911 
L 139.132751 292.045911 
L 139.132751 291.529289 
L 139.896462 291.529289 
L 139.952446 290.496045 
L 140.008255 290.496045 
L 140.045364 288.429557 
L 140.878274 288.429557 
L 140.878274 287.912935 
L 141.019246 287.912935 
L 141.019246 287.396313 
L 141.263302 287.396313 
L 141.332424 286.363069 
L 141.435609 286.363069 
L 141.521144 285.329825 
L 141.623247 285.329825 
L 141.623247 283.263337 
L 142.158161 283.263337 
L 142.158161 282.230093 
L 142.789151 282.230093 
L 142.789151 281.713471 
L 142.978903 281.713471 
L 142.978903 281.196849 
L 143.597239 281.196849 
L 143.597239 280.163604 
L 143.883617 280.163604 
L 143.943327 279.13036 
L 144.297454 279.13036 
L 144.297454 278.613738 
L 144.630365 278.613738 
L 144.673335 277.063872 
L 145.2366 277.063872 
L 145.347153 274.997384 
L 146.049543 274.997384 
L 146.049543 273.96414 
L 146.839781 273.96414 
L 146.890399 272.930896 
L 147.290261 272.930896 
L 147.290261 271.897652 
L 147.450184 271.897652 
L 147.450184 271.38103 
L 147.681371 271.38103 
L 147.681371 270.864408 
L 148.123171 270.864408 
L 148.170286 269.831164 
L 148.287531 269.831164 
L 148.287531 269.314542 
L 148.623255 269.314542 
L 148.703356 266.731432 
L 148.760352 266.731432 
L 148.760352 265.181566 
L 148.896404 265.181566 
L 148.896404 264.664944 
L 149.031428 264.664944 
L 149.031428 264.148322 
L 149.331553 264.148322 
L 149.331553 263.6317 
L 149.583298 263.6317 
L 149.691655 262.598456 
L 150.832004 262.598456 
L 150.832004 262.081834 
L 151.252685 262.081834 
L 151.351404 261.04859 
L 151.478929 261.04859 
L 151.478929 260.531968 
L 151.827398 260.531968 
L 151.827398 260.015346 
L 152.19739 260.015346 
L 152.272348 257.948858 
L 152.82473 257.948858 
L 152.82473 257.432236 
L 153.130329 257.432236 
L 153.130329 256.915614 
L 153.290025 256.915614 
L 153.290025 255.88237 
L 153.492026 255.88237 
L 153.492026 254.849126 
L 153.648536 254.849126 
L 153.648536 254.332504 
L 155.142563 254.332504 
L 155.142563 253.815882 
L 155.309001 253.815882 
L 155.309001 253.29926 
L 155.883438 253.29926 
L 155.883438 251.749394 
L 156.447385 251.749394 
L 156.447385 250.199528 
L 156.748313 250.199528 
L 156.748313 249.682906 
L 157.151316 249.682906 
L 157.172651 248.649662 
L 157.538468 248.649662 
L 157.538468 248.13304 
L 158.995443 248.13304 
L 158.995443 247.616418 
L 159.250342 247.616418 
L 159.250342 247.099796 
L 159.482929 247.099796 
L 159.482929 246.583173 
L 159.853779 246.583173 
L 159.853779 246.066551 
L 160.672765 246.066551 
L 160.672765 245.033307 
L 160.951054 245.033307 
L 160.951054 244.516685 
L 161.185375 244.516685 
L 161.185375 244.000063 
L 161.897745 244.000063 
L 161.897745 242.450197 
L 162.366214 242.450197 
L 162.366214 240.383709 
L 163.146151 240.383709 
L 163.146151 239.867087 
L 165.981752 239.867087 
L 165.981752 239.350465 
L 210.140147 239.350465 
L 210.140147 238.833843 
L 210.312759 238.833843 
L 210.413798 236.250733 
L 210.428598 236.250733 
L 210.433649 235.217489 
L 210.552293 235.217489 
L 210.636661 232.117757 
L 210.695767 232.117757 
L 210.802445 227.468159 
L 210.855017 227.468159 
L 210.893378 225.401671 
L 210.975455 225.401671 
L 211.051233 223.335183 
L 211.103427 223.335183 
L 211.103427 222.818561 
L 222.452074 222.818561 
L 222.551398 221.268695 
L 222.620287 221.268695 
L 222.723578 218.168963 
L 222.767948 218.168963 
L 222.833486 216.619097 
L 222.883516 216.619097 
L 222.883516 216.102475 
L 223.007266 216.102475 
L 223.007266 215.585853 
L 229.698751 215.585853 
L 229.784574 213.519365 
L 229.817642 213.519365 
L 229.903867 209.386388 
L 234.869406 209.386388 
L 234.958314 206.286656 
L 235.021381 206.286656 
L 235.021381 205.253412 
L 238.811387 205.253412 
L 238.862312 202.670302 
L 238.933377 202.670302 
L 238.933377 202.15368 
L 242.024181 202.15368 
L 242.098522 197.504082 
L 244.760603 197.504082 
L 244.859219 193.887728 
L 247.146623 193.887728 
L 247.218124 191.82124 
L 249.252591 191.82124 
L 249.252591 191.304618 
L 251.108005 191.304618 
L 251.145034 188.204886 
L 252.794276 188.204886 
L 252.828276 186.65502 
L 254.366513 186.65502 
L 254.381133 185.105154 
L 255.780648 185.105154 
L 255.800537 183.555288 
L 260.570944 183.555288 
L 260.570944 183.038666 
L 263.476456 183.038666 
L 263.476456 182.522044 
L 264.332408 182.522044 
L 264.333945 181.4888 
L 267.448348 181.4888 
L 267.448348 180.972178 
L 274.425138 180.972178 
L 274.425138 180.455556 
L 275.365525 180.455556 
L 275.365525 179.938934 
L 288.40818 179.938934 
L 288.40818 179.422312 
L 358.8 179.422312 
L 358.8 179.422312 
" style="fill:none;stroke:#ff0000;stroke-linecap:square;stroke-width:1.5;"/>
   </g>
   <g id="line2d_45">
    <defs>
     <path d="M -6 6 
L 6 6 
L 6 -6 
L -6 -6 
z
" id="mf0851ff83c" style="stroke:#ff0000;stroke-linejoin:miter;stroke-width:1.5;"/>
    </defs>
    <g>
     <use style="fill:none;stroke:#ff0000;stroke-linejoin:miter;stroke-width:1.5;" x="210.636661" xlink:href="#mf0851ff83c" y="232.634379"/>
     <use style="fill:none;stroke:#ff0000;stroke-linejoin:miter;stroke-width:1.5;" x="251.136274" xlink:href="#mf0851ff83c" y="188.721508"/>
     <use style="fill:none;stroke:#ff0000;stroke-linejoin:miter;stroke-width:1.5;" x="288.40818" xlink:href="#mf0851ff83c" y="179.422312"/>
     <use style="fill:none;stroke:#ff0000;stroke-linejoin:miter;stroke-width:1.5;" x="288.40818" xlink:href="#mf0851ff83c" y="179.422312"/>
     <use style="fill:none;stroke:#ff0000;stroke-linejoin:miter;stroke-width:1.5;" x="358.8" xlink:href="#mf0851ff83c" y="179.422312"/>
    </g>
   </g>
   <g id="line2d_46"/>
   <g id="line2d_47">
    <path clip-path="url(#p3e42ee6f86)" d="M 209.87192 239.350465 
" style="fill:none;stroke:#ff0000;stroke-linecap:square;stroke-width:1.5;"/>
    <defs>
     <path d="M -12 12 
L 12 -12 
M -12 -12 
L 12 12 
" id="m0eb7e6333c" style="stroke:#ff0000;stroke-width:3;"/>
    </defs>
    <g clip-path="url(#p3e42ee6f86)">
     <use style="fill:#ff0000;stroke:#ff0000;stroke-width:3;" x="209.87192" xlink:href="#m0eb7e6333c" y="239.350465"/>
    </g>
   </g>
   <g id="line2d_48">
    <defs>
     <path d="M 0 1.5 
C 0.397805 1.5 0.77937 1.341951 1.06066 1.06066 
C 1.341951 0.77937 1.5 0.397805 1.5 0 
C 1.5 -0.397805 1.341951 -0.77937 1.06066 -1.06066 
C 0.77937 -1.341951 0.397805 -1.5 0 -1.5 
C -0.397805 -1.5 -0.77937 -1.341951 -1.06066 -1.06066 
C -1.341951 -0.77937 -1.5 -0.397805 -1.5 0 
C -1.5 0.397805 -1.341951 0.77937 -1.06066 1.06066 
C -0.77937 1.341951 -0.397805 1.5 0 1.5 
z
" id="mcdef6629a1" style="stroke:#bf00bf;"/>
    </defs>
    <g>
     <use style="fill:#bf00bf;stroke:#bf00bf;" x="293.544939" xlink:href="#mcdef6629a1" y="132.92633"/>
     <use style="fill:#bf00bf;stroke:#bf00bf;" x="293.544939" xlink:href="#mcdef6629a1" y="132.92633"/>
    </g>
   </g>
   <g id="line2d_49">
    <path d="M 133.783122 298.245375 
L 133.783122 297.728753 
L 135.247714 297.728753 
L 135.247714 297.212131 
L 135.512432 297.212131 
L 135.512432 296.695509 
L 137.12182 296.695509 
L 137.143637 294.629021 
L 137.338801 294.629021 
L 137.338801 294.112399 
L 137.754481 294.112399 
L 137.754481 291.012667 
L 138.150409 291.012667 
L 138.150409 289.979423 
L 138.527667 289.979423 
L 138.527667 288.946179 
L 139.083918 288.946179 
L 139.083918 288.429557 
L 139.783966 288.429557 
L 139.868404 285.846447 
L 140.183841 285.846447 
L 140.183841 285.329825 
L 140.502842 285.329825 
L 140.502842 284.813203 
L 141.106792 284.813203 
L 141.106792 284.296581 
L 142.03422 284.296581 
L 142.03422 283.779959 
L 142.427843 283.779959 
L 142.427843 283.263337 
L 142.685521 283.263337 
L 142.685521 282.746715 
L 142.820917 282.746715 
L 142.820917 281.713471 
L 143.010333 281.713471 
L 143.010333 281.196849 
L 143.665481 281.196849 
L 143.665481 280.680226 
L 143.920959 280.680226 
L 143.920959 280.163604 
L 144.508054 280.163604 
L 144.508054 278.613738 
L 144.623194 278.613738 
L 144.723336 277.063872 
L 145.222733 277.063872 
L 145.291962 275.514006 
L 145.40904 275.514006 
L 145.45018 273.96414 
L 145.956584 273.96414 
L 145.956584 273.447518 
L 146.55879 273.447518 
L 146.55879 271.897652 
L 147.0852 271.897652 
L 147.0852 271.38103 
L 147.339621 271.38103 
L 147.339621 270.864408 
L 147.675325 270.864408 
L 147.783837 269.314542 
L 148.5082 269.314542 
L 148.5082 268.79792 
L 148.817166 268.79792 
L 148.896404 267.764676 
L 149.104142 267.764676 
L 149.104142 267.248054 
L 149.534321 267.248054 
L 149.534321 266.731432 
L 149.922423 266.731432 
L 149.922423 266.21481 
L 151.178286 266.21481 
L 151.287299 264.148322 
L 151.307048 264.148322 
L 151.307048 263.6317 
L 151.552089 263.6317 
L 151.552089 263.115078 
L 152.262996 263.115078 
L 152.262996 262.598456 
L 153.112496 262.598456 
L 153.112496 262.081834 
L 153.40448 262.081834 
L 153.40448 261.565212 
L 154.572191 261.565212 
L 154.572191 261.04859 
L 155.978674 261.04859 
L 156.054499 258.982102 
L 156.70459 258.982102 
L 156.70459 258.46548 
L 158.457942 258.46548 
L 158.457942 257.948858 
L 162.949192 257.948858 
L 162.949192 257.432236 
L 164.012609 257.432236 
L 164.012609 256.398992 
L 164.762463 256.398992 
L 164.762463 255.365748 
L 210.29041 255.365748 
L 210.382352 252.782638 
L 210.403503 252.782638 
L 210.502774 249.682906 
L 210.528627 249.682906 
L 210.621675 247.616418 
L 210.663033 247.616418 
L 210.752729 243.483441 
L 210.801914 243.483441 
L 210.869808 242.450197 
L 210.940075 242.450197 
L 210.989098 240.900331 
L 211.193883 240.900331 
L 211.193883 240.383709 
L 222.488581 240.383709 
L 222.573354 237.800599 
L 222.628492 237.800599 
L 222.702895 231.601135 
L 222.776266 231.601135 
L 222.871201 230.567891 
L 222.930269 230.567891 
L 222.970464 229.018025 
L 229.681746 229.018025 
L 229.75536 224.885049 
L 229.83397 224.885049 
L 229.927752 222.301939 
L 229.980681 222.301939 
L 230.01586 219.718829 
L 234.764763 219.718829 
L 234.866557 214.552609 
L 234.937547 214.552609 
L 234.996445 211.969498 
L 235.073328 211.969498 
L 235.073328 211.452876 
L 238.73902 211.452876 
L 238.819308 208.353144 
L 238.85849 208.353144 
L 238.918183 205.253412 
L 238.975086 205.253412 
L 238.975086 204.73679 
L 241.998273 204.73679 
L 242.101312 200.603814 
L 242.12404 200.603814 
L 242.12404 199.57057 
L 244.747682 199.57057 
L 244.854831 194.920972 
L 244.863578 194.920972 
L 244.863578 194.40435 
L 247.116091 194.40435 
L 247.188336 189.754752 
L 247.244299 189.754752 
L 247.244299 188.721508 
L 249.203698 188.721508 
L 249.298155 184.588532 
L 251.095502 184.588532 
L 251.188292 182.005422 
L 252.778769 182.005422 
L 252.838413 177.355823 
L 254.351726 177.355823 
L 254.402225 174.772713 
L 255.793943 174.772713 
L 255.836312 172.706225 
L 257.098403 172.706225 
L 257.121706 170.123115 
L 258.320162 170.123115 
L 258.363477 165.473517 
L 259.469557 165.473517 
L 259.521431 162.373785 
L 260.557802 162.373785 
L 260.587704 159.790675 
L 261.575682 159.790675 
L 261.603931 158.757431 
L 262.530778 158.757431 
L 262.56221 155.657699 
L 263.443539 155.657699 
L 263.468309 153.591211 
L 264.310189 153.591211 
L 264.345953 151.008101 
L 265.139662 151.008101 
L 265.182003 149.458235 
L 266.697308 149.458235 
L 266.718127 148.424991 
L 267.44512 148.424991 
L 267.446975 147.391747 
L 268.122809 147.391747 
L 268.137443 146.358503 
L 269.443185 146.358503 
L 269.453083 145.325259 
L 270.092829 145.325259 
L 270.092829 144.808637 
L 270.684386 144.808637 
L 270.684386 144.292014 
L 271.270887 144.292014 
L 271.270887 143.25877 
L 271.833901 143.25877 
L 271.840738 142.225526 
L 272.916154 142.225526 
L 272.916154 141.708904 
L 273.942175 141.708904 
L 273.942175 141.192282 
L 274.424199 141.192282 
L 274.428035 140.159038 
L 274.904622 140.159038 
L 274.904622 139.642416 
L 275.377378 139.642416 
L 275.377378 139.125794 
L 276.261141 139.125794 
L 276.261141 138.609172 
L 277.112199 138.609172 
L 277.112199 138.09255 
L 277.914069 138.09255 
L 277.919227 137.059306 
L 278.314973 137.059306 
L 278.314973 136.542684 
L 279.079129 136.542684 
L 279.079129 136.026062 
L 279.440413 136.026062 
L 279.440413 135.50944 
L 280.492343 135.50944 
L 280.492343 134.992818 
L 281.172758 134.992818 
L 281.172758 134.476196 
L 282.439911 134.476196 
L 282.439911 133.959574 
L 283.924447 133.959574 
L 283.924447 133.442952 
L 293.544939 133.442952 
L 293.544939 132.92633 
L 358.8 132.92633 
L 358.8 132.92633 
" style="fill:none;stroke:#bf00bf;stroke-linecap:square;stroke-width:1.5;"/>
   </g>
   <g id="line2d_50">
    <defs>
     <path d="M -0 8.485281 
L 8.485281 0 
L 0 -8.485281 
L -8.485281 -0 
z
" id="m9f51cfe5e1" style="stroke:#bf00bf;stroke-linejoin:miter;stroke-width:1.5;"/>
    </defs>
    <g>
     <use style="fill:none;stroke:#bf00bf;stroke-linejoin:miter;stroke-width:1.5;" x="211.193883" xlink:href="#m9f51cfe5e1" y="240.383709"/>
     <use style="fill:none;stroke:#bf00bf;stroke-linejoin:miter;stroke-width:1.5;" x="259.493301" xlink:href="#m9f51cfe5e1" y="163.407029"/>
     <use style="fill:none;stroke:#bf00bf;stroke-linejoin:miter;stroke-width:1.5;" x="293.544939" xlink:href="#m9f51cfe5e1" y="132.92633"/>
     <use style="fill:none;stroke:#bf00bf;stroke-linejoin:miter;stroke-width:1.5;" x="293.544939" xlink:href="#m9f51cfe5e1" y="132.92633"/>
     <use style="fill:none;stroke:#bf00bf;stroke-linejoin:miter;stroke-width:1.5;" x="358.8" xlink:href="#m9f51cfe5e1" y="132.92633"/>
    </g>
   </g>
   <g id="line2d_51"/>
   <g id="line2d_52">
    <path clip-path="url(#p3e42ee6f86)" d="M 209.871734 255.365748 
" style="fill:none;stroke:#bf00bf;stroke-linecap:square;stroke-width:1.5;"/>
    <defs>
     <path d="M -12 12 
L 12 -12 
M -12 -12 
L 12 12 
" id="mb1f22d51b2" style="stroke:#bf00bf;stroke-width:3;"/>
    </defs>
    <g clip-path="url(#p3e42ee6f86)">
     <use style="fill:#bf00bf;stroke:#bf00bf;stroke-width:3;" x="209.871734" xlink:href="#mb1f22d51b2" y="255.365748"/>
    </g>
   </g>
   <g id="line2d_53">
    <path d="M 358.8 205.253412 
L 390.48 292.97583 
" style="fill:none;stroke:#0000ff;stroke-linecap:square;stroke-width:1.5;"/>
    <g>
     <use style="fill:none;stroke:#0000ff;stroke-linejoin:bevel;stroke-width:1.5;" x="358.8" xlink:href="#m18a16ca5fb" y="205.253412"/>
     <use style="fill:none;stroke:#0000ff;stroke-linejoin:bevel;stroke-width:1.5;" x="390.48" xlink:href="#m18a16ca5fb" y="292.97583"/>
    </g>
   </g>
   <g id="line2d_54">
    <path d="M 358.8 200.087192 
L 390.48 242.388203 
" style="fill:none;stroke:#00bfbf;stroke-linecap:square;stroke-width:1.5;"/>
    <g>
     <use style="fill:none;stroke:#00bfbf;stroke-width:1.5;" x="358.8" xlink:href="#m6f49da37ed" y="200.087192"/>
     <use style="fill:none;stroke:#00bfbf;stroke-width:1.5;" x="390.48" xlink:href="#m6f49da37ed" y="242.388203"/>
    </g>
   </g>
   <g id="line2d_55">
    <path d="M 358.8 194.920972 
L 390.48 191.800575 
" style="fill:none;stroke:#000000;stroke-linecap:square;stroke-width:1.5;"/>
    <g>
     <use style="fill:none;stroke:#000000;stroke-width:1.5;" x="358.8" xlink:href="#m1821a898d1" y="194.920972"/>
     <use style="fill:none;stroke:#000000;stroke-width:1.5;" x="390.48" xlink:href="#m1821a898d1" y="191.800575"/>
    </g>
   </g>
   <g id="line2d_56">
    <path d="M 358.8 194.920972 
L 390.48 141.212947 
" style="fill:none;stroke:#008000;stroke-linecap:square;stroke-width:1.5;"/>
    <g>
     <use style="fill:none;stroke:#008000;stroke-linejoin:miter;stroke-width:1.5;" x="358.8" xlink:href="#maa1cdc4668" y="194.920972"/>
     <use style="fill:none;stroke:#008000;stroke-linejoin:miter;stroke-width:1.5;" x="390.48" xlink:href="#maa1cdc4668" y="141.212947"/>
    </g>
   </g>
   <g id="line2d_57">
    <path d="M 358.8 179.422312 
L 390.48 90.62532 
" style="fill:none;stroke:#ff0000;stroke-linecap:square;stroke-width:1.5;"/>
    <g>
     <use style="fill:none;stroke:#ff0000;stroke-linejoin:miter;stroke-width:1.5;" x="358.8" xlink:href="#mf0851ff83c" y="179.422312"/>
     <use style="fill:none;stroke:#ff0000;stroke-linejoin:miter;stroke-width:1.5;" x="390.48" xlink:href="#mf0851ff83c" y="90.62532"/>
    </g>
   </g>
   <g id="line2d_58">
    <path d="M 358.8 132.92633 
L 390.48 40.037692 
" style="fill:none;stroke:#bf00bf;stroke-linecap:square;stroke-width:1.5;"/>
    <g>
     <use style="fill:none;stroke:#bf00bf;stroke-linejoin:miter;stroke-width:1.5;" x="358.8" xlink:href="#m9f51cfe5e1" y="132.92633"/>
     <use style="fill:none;stroke:#bf00bf;stroke-linejoin:miter;stroke-width:1.5;" x="390.48" xlink:href="#m9f51cfe5e1" y="40.037692"/>
    </g>
   </g>
   <g id="line2d_59">
    <path d="M 358.8 298.245375 
L 358.8 34.768147 
" style="fill:none;stroke:#000000;stroke-linecap:square;stroke-width:1.5;"/>
   </g>
   <g id="patch_3">
    <path d="M 70.8 298.245375 
L 70.8 32.133375 
" style="fill:none;stroke:#000000;stroke-linecap:square;stroke-linejoin:miter;stroke-width:0.8;"/>
   </g>
   <g id="patch_4">
    <path d="M 427.92 298.245375 
L 427.92 32.133375 
" style="fill:none;stroke:#000000;stroke-linecap:square;stroke-linejoin:miter;stroke-width:0.8;"/>
   </g>
   <g id="patch_5">
    <path d="M 70.8 298.245375 
L 427.92 298.245375 
" style="fill:none;stroke:#000000;stroke-linecap:square;stroke-linejoin:miter;stroke-width:0.8;"/>
   </g>
   <g id="patch_6">
    <path d="M 70.8 32.133375 
L 427.92 32.133375 
" style="fill:none;stroke:#000000;stroke-linecap:square;stroke-linejoin:miter;stroke-width:0.8;"/>
   </g>
   <g id="text_14">
    <!-- 5-D -->
    <defs>
     <path d="M 10.796875 72.90625 
L 49.515625 72.90625 
L 49.515625 64.59375 
L 19.828125 64.59375 
L 19.828125 46.734375 
Q 21.96875 47.46875 24.109375 47.828125 
Q 26.265625 48.1875 28.421875 48.1875 
Q 40.625 48.1875 47.75 41.5 
Q 54.890625 34.8125 54.890625 23.390625 
Q 54.890625 11.625 47.5625 5.09375 
Q 40.234375 -1.421875 26.90625 -1.421875 
Q 22.3125 -1.421875 17.546875 -0.640625 
Q 12.796875 0.140625 7.71875 1.703125 
L 7.71875 11.625 
Q 12.109375 9.234375 16.796875 8.0625 
Q 21.484375 6.890625 26.703125 6.890625 
Q 35.15625 6.890625 40.078125 11.328125 
Q 45.015625 15.765625 45.015625 23.390625 
Q 45.015625 31 40.078125 35.4375 
Q 35.15625 39.890625 26.703125 39.890625 
Q 22.75 39.890625 18.8125 39.015625 
Q 14.890625 38.140625 10.796875 36.28125 
z
" id="DejaVuSans-35"/>
     <path d="M 19.671875 64.796875 
L 19.671875 8.109375 
L 31.59375 8.109375 
Q 46.6875 8.109375 53.6875 14.9375 
Q 60.6875 21.78125 60.6875 36.53125 
Q 60.6875 51.171875 53.6875 57.984375 
Q 46.6875 64.796875 31.59375 64.796875 
z
M 9.8125 72.90625 
L 30.078125 72.90625 
Q 51.265625 72.90625 61.171875 64.09375 
Q 71.09375 55.28125 71.09375 36.53125 
Q 71.09375 17.671875 61.125 8.828125 
Q 51.171875 0 30.078125 0 
L 9.8125 0 
z
" id="DejaVuSans-44"/>
    </defs>
    <g transform="translate(396.24 297.114893)scale(0.15 -0.15)">
     <use xlink:href="#DejaVuSans-35"/>
     <use x="63.623047" xlink:href="#DejaVuSans-2d"/>
     <use x="99.707031" xlink:href="#DejaVuSans-44"/>
    </g>
   </g>
   <g id="text_15">
    <!-- 2-D -->
    <g transform="translate(396.24 246.527265)scale(0.15 -0.15)">
     <use xlink:href="#DejaVuSans-32"/>
     <use x="63.623047" xlink:href="#DejaVuSans-2d"/>
     <use x="99.707031" xlink:href="#DejaVuSans-44"/>
    </g>
   </g>
   <g id="text_16">
    <!-- 10-D -->
    <g transform="translate(396.24 195.939637)scale(0.15 -0.15)">
     <use xlink:href="#DejaVuSans-31"/>
     <use x="63.623047" xlink:href="#DejaVuSans-30"/>
     <use x="127.246094" xlink:href="#DejaVuSans-2d"/>
     <use x="163.330078" xlink:href="#DejaVuSans-44"/>
    </g>
   </g>
   <g id="text_17">
    <!-- 3-D -->
    <defs>
     <path d="M 40.578125 39.3125 
Q 47.65625 37.796875 51.625 33 
Q 55.609375 28.21875 55.609375 21.1875 
Q 55.609375 10.40625 48.1875 4.484375 
Q 40.765625 -1.421875 27.09375 -1.421875 
Q 22.515625 -1.421875 17.65625 -0.515625 
Q 12.796875 0.390625 7.625 2.203125 
L 7.625 11.71875 
Q 11.71875 9.328125 16.59375 8.109375 
Q 21.484375 6.890625 26.8125 6.890625 
Q 36.078125 6.890625 40.9375 10.546875 
Q 45.796875 14.203125 45.796875 21.1875 
Q 45.796875 27.640625 41.28125 31.265625 
Q 36.765625 34.90625 28.71875 34.90625 
L 20.21875 34.90625 
L 20.21875 43.015625 
L 29.109375 43.015625 
Q 36.375 43.015625 40.234375 45.921875 
Q 44.09375 48.828125 44.09375 54.296875 
Q 44.09375 59.90625 40.109375 62.90625 
Q 36.140625 65.921875 28.71875 65.921875 
Q 24.65625 65.921875 20.015625 65.03125 
Q 15.375 64.15625 9.8125 62.3125 
L 9.8125 71.09375 
Q 15.4375 72.65625 20.34375 73.4375 
Q 25.25 74.21875 29.59375 74.21875 
Q 40.828125 74.21875 47.359375 69.109375 
Q 53.90625 64.015625 53.90625 55.328125 
Q 53.90625 49.265625 50.4375 45.09375 
Q 46.96875 40.921875 40.578125 39.3125 
z
" id="DejaVuSans-33"/>
    </defs>
    <g transform="translate(396.24 145.35201)scale(0.15 -0.15)">
     <use xlink:href="#DejaVuSans-33"/>
     <use x="63.623047" xlink:href="#DejaVuSans-2d"/>
     <use x="99.707031" xlink:href="#DejaVuSans-44"/>
    </g>
   </g>
   <g id="text_18">
    <!-- 20-D -->
    <g transform="translate(396.24 94.764382)scale(0.15 -0.15)">
     <use xlink:href="#DejaVuSans-32"/>
     <use x="63.623047" xlink:href="#DejaVuSans-30"/>
     <use x="127.246094" xlink:href="#DejaVuSans-2d"/>
     <use x="163.330078" xlink:href="#DejaVuSans-44"/>
    </g>
   </g>
   <g id="text_19">
    <!-- 40-D -->
    <g transform="translate(396.24 44.176754)scale(0.15 -0.15)">
     <use xlink:href="#DejaVuSans-34"/>
     <use x="63.623047" xlink:href="#DejaVuSans-30"/>
     <use x="127.246094" xlink:href="#DejaVuSans-2d"/>
     <use x="163.330078" xlink:href="#DejaVuSans-44"/>
    </g>
   </g>
   <g id="text_20">
    <!-- bbob - f13 -->
    <defs>
     <path d="M 48.6875 27.296875 
Q 48.6875 37.203125 44.609375 42.84375 
Q 40.53125 48.484375 33.40625 48.484375 
Q 26.265625 48.484375 22.1875 42.84375 
Q 18.109375 37.203125 18.109375 27.296875 
Q 18.109375 17.390625 22.1875 11.75 
Q 26.265625 6.109375 33.40625 6.109375 
Q 40.53125 6.109375 44.609375 11.75 
Q 48.6875 17.390625 48.6875 27.296875 
z
M 18.109375 46.390625 
Q 20.953125 51.265625 25.265625 53.625 
Q 29.59375 56 35.59375 56 
Q 45.5625 56 51.78125 48.09375 
Q 58.015625 40.1875 58.015625 27.296875 
Q 58.015625 14.40625 51.78125 6.484375 
Q 45.5625 -1.421875 35.59375 -1.421875 
Q 29.59375 -1.421875 25.265625 0.953125 
Q 20.953125 3.328125 18.109375 8.203125 
L 18.109375 0 
L 9.078125 0 
L 9.078125 75.984375 
L 18.109375 75.984375 
z
" id="DejaVuSans-62"/>
    </defs>
    <g transform="translate(74.3712 50.114612)scale(0.1666 -0.1666)">
     <use xlink:href="#DejaVuSans-62"/>
     <use x="63.476562" xlink:href="#DejaVuSans-62"/>
     <use x="126.953125" xlink:href="#DejaVuSans-6f"/>
     <use x="188.134766" xlink:href="#DejaVuSans-62"/>
     <use x="251.611328" xlink:href="#DejaVuSans-20"/>
     <use x="283.398438" xlink:href="#DejaVuSans-2d"/>
     <use x="319.482422" xlink:href="#DejaVuSans-20"/>
     <use x="351.269531" xlink:href="#DejaVuSans-66"/>
     <use x="386.474609" xlink:href="#DejaVuSans-31"/>
     <use x="450.097656" xlink:href="#DejaVuSans-33"/>
    </g>
    <!-- 51 targets in 100..1e-08 -->
    <g transform="translate(74.3712 68.770168)scale(0.1666 -0.1666)">
     <use xlink:href="#DejaVuSans-35"/>
     <use x="63.623047" xlink:href="#DejaVuSans-31"/>
     <use x="127.246094" xlink:href="#DejaVuSans-20"/>
     <use x="159.033203" xlink:href="#DejaVuSans-74"/>
     <use x="198.242188" xlink:href="#DejaVuSans-61"/>
     <use x="259.521484" xlink:href="#DejaVuSans-72"/>
     <use x="300.619141" xlink:href="#DejaVuSans-67"/>
     <use x="364.095703" xlink:href="#DejaVuSans-65"/>
     <use x="425.619141" xlink:href="#DejaVuSans-74"/>
     <use x="464.828125" xlink:href="#DejaVuSans-73"/>
     <use x="516.927734" xlink:href="#DejaVuSans-20"/>
     <use x="548.714844" xlink:href="#DejaVuSans-69"/>
     <use x="576.498047" xlink:href="#DejaVuSans-6e"/>
     <use x="639.876953" xlink:href="#DejaVuSans-20"/>
     <use x="671.664062" xlink:href="#DejaVuSans-31"/>
     <use x="735.287109" xlink:href="#DejaVuSans-30"/>
     <use x="798.910156" xlink:href="#DejaVuSans-30"/>
     <use x="862.533203" xlink:href="#DejaVuSans-2e"/>
     <use x="894.320312" xlink:href="#DejaVuSans-2e"/>
     <use x="926.107422" xlink:href="#DejaVuSans-31"/>
     <use x="989.730469" xlink:href="#DejaVuSans-65"/>
     <use x="1051.253906" xlink:href="#DejaVuSans-2d"/>
     <use x="1087.337891" xlink:href="#DejaVuSans-30"/>
     <use x="1150.960938" xlink:href="#DejaVuSans-38"/>
    </g>
    <!-- 15 instances -->
    <g transform="translate(74.3712 87.425723)scale(0.1666 -0.1666)">
     <use xlink:href="#DejaVuSans-31"/>
     <use x="63.623047" xlink:href="#DejaVuSans-35"/>
     <use x="127.246094" xlink:href="#DejaVuSans-20"/>
     <use x="159.033203" xlink:href="#DejaVuSans-69"/>
     <use x="186.816406" xlink:href="#DejaVuSans-6e"/>
     <use x="250.195312" xlink:href="#DejaVuSans-73"/>
     <use x="302.294922" xlink:href="#DejaVuSans-74"/>
     <use x="341.503906" xlink:href="#DejaVuSans-61"/>
     <use x="402.783203" xlink:href="#DejaVuSans-6e"/>
     <use x="466.162109" xlink:href="#DejaVuSans-63"/>
     <use x="521.142578" xlink:href="#DejaVuSans-65"/>
     <use x="582.666016" xlink:href="#DejaVuSans-73"/>
    </g>
   </g>
   <g id="text_21">
    <!-- v2.1 -->
    <g style="fill:#808080;" transform="translate(238.449063 293.504568)scale(0.1 -0.1)">
     <use xlink:href="#DejaVuSans-76"/>
     <use x="59.179688" xlink:href="#DejaVuSans-32"/>
     <use x="122.802734" xlink:href="#DejaVuSans-2e"/>
     <use x="154.589844" xlink:href="#DejaVuSans-31"/>
    </g>
   </g>
   <g id="text_22">
    <!-- 13 Sharp ridge -->
    <defs>
     <path d="M 53.515625 70.515625 
L 53.515625 60.890625 
Q 47.90625 63.578125 42.921875 64.890625 
Q 37.9375 66.21875 33.296875 66.21875 
Q 25.25 66.21875 20.875 63.09375 
Q 16.5 59.96875 16.5 54.203125 
Q 16.5 49.359375 19.40625 46.890625 
Q 22.3125 44.4375 30.421875 42.921875 
L 36.375 41.703125 
Q 47.40625 39.59375 52.65625 34.296875 
Q 57.90625 29 57.90625 20.125 
Q 57.90625 9.515625 50.796875 4.046875 
Q 43.703125 -1.421875 29.984375 -1.421875 
Q 24.8125 -1.421875 18.96875 -0.25 
Q 13.140625 0.921875 6.890625 3.21875 
L 6.890625 13.375 
Q 12.890625 10.015625 18.65625 8.296875 
Q 24.421875 6.59375 29.984375 6.59375 
Q 38.421875 6.59375 43.015625 9.90625 
Q 47.609375 13.234375 47.609375 19.390625 
Q 47.609375 24.75 44.3125 27.78125 
Q 41.015625 30.8125 33.5 32.328125 
L 27.484375 33.5 
Q 16.453125 35.6875 11.515625 40.375 
Q 6.59375 45.0625 6.59375 53.421875 
Q 6.59375 63.09375 13.40625 68.65625 
Q 20.21875 74.21875 32.171875 74.21875 
Q 37.3125 74.21875 42.625 73.28125 
Q 47.953125 72.359375 53.515625 70.515625 
z
" id="DejaVuSans-53"/>
     <path d="M 54.890625 33.015625 
L 54.890625 0 
L 45.90625 0 
L 45.90625 32.71875 
Q 45.90625 40.484375 42.875 44.328125 
Q 39.84375 48.1875 33.796875 48.1875 
Q 26.515625 48.1875 22.3125 43.546875 
Q 18.109375 38.921875 18.109375 30.90625 
L 18.109375 0 
L 9.078125 0 
L 9.078125 75.984375 
L 18.109375 75.984375 
L 18.109375 46.1875 
Q 21.34375 51.125 25.703125 53.5625 
Q 30.078125 56 35.796875 56 
Q 45.21875 56 50.046875 50.171875 
Q 54.890625 44.34375 54.890625 33.015625 
z
" id="DejaVuSans-68"/>
    </defs>
    <g transform="translate(160.4475 26.133375)scale(0.24 -0.24)">
     <use xlink:href="#DejaVuSans-31"/>
     <use x="63.623047" xlink:href="#DejaVuSans-33"/>
     <use x="127.246094" xlink:href="#DejaVuSans-20"/>
     <use x="159.033203" xlink:href="#DejaVuSans-53"/>
     <use x="222.509766" xlink:href="#DejaVuSans-68"/>
     <use x="285.888672" xlink:href="#DejaVuSans-61"/>
     <use x="347.167969" xlink:href="#DejaVuSans-72"/>
     <use x="388.28125" xlink:href="#DejaVuSans-70"/>
     <use x="451.757812" xlink:href="#DejaVuSans-20"/>
     <use x="483.544922" xlink:href="#DejaVuSans-72"/>
     <use x="524.658203" xlink:href="#DejaVuSans-69"/>
     <use x="552.441406" xlink:href="#DejaVuSans-64"/>
     <use x="615.917969" xlink:href="#DejaVuSans-67"/>
     <use x="679.394531" xlink:href="#DejaVuSans-65"/>
    </g>
   </g>
  </g>
 </g>
 <defs>
  <clipPath id="p3e42ee6f86">
   <rect height="266.112" width="357.12" x="70.8" y="32.133375"/>
  </clipPath>
 </defs>
</svg>
