<?xml version="1.0" encoding="utf-8" standalone="no"?>
<!DOCTYPE svg PUBLIC "-//W3C//DTD SVG 1.1//EN"
  "http://www.w3.org/Graphics/SVG/1.1/DTD/svg11.dtd">
<!-- Created with matplotlib (http://matplotlib.org/) -->
<svg height="353pt" version="1.1" viewBox="0 0 438 353" width="438pt" xmlns="http://www.w3.org/2000/svg" xmlns:xlink="http://www.w3.org/1999/xlink">
 <defs>
  <style type="text/css">
*{stroke-linecap:butt;stroke-linejoin:round;}
  </style>
 </defs>
 <g id="figure_1">
  <g id="patch_1">
   <path d="M 0 353.22225 
L 438.62 353.22225 
L 438.62 0 
L 0 0 
z
" style="fill:#ffffff;"/>
  </g>
  <g id="axes_1">
   <g id="patch_2">
    <path d="M 70.8 298.245375 
L 427.92 298.245375 
L 427.92 32.133375 
L 70.8 32.133375 
z
" style="fill:#ffffff;"/>
   </g>
   <g id="matplotlib.axis_1">
    <g id="xtick_1">
     <g id="line2d_1">
      <path clip-path="url(#pd26c6c9029)" d="M 70.8 298.245375 
L 70.8 32.133375 
" style="fill:none;stroke:#b0b0b0;stroke-linecap:square;stroke-width:0.8;"/>
     </g>
     <g id="line2d_2">
      <defs>
       <path d="M 0 0 
L 0 3.5 
" id="mf4df047d17" style="stroke:#000000;stroke-width:0.8;"/>
      </defs>
      <g>
       <use style="stroke:#000000;stroke-width:0.8;" x="70.8" xlink:href="#mf4df047d17" y="298.245375"/>
      </g>
     </g>
     <g id="text_1">
      <!-- 0 -->
      <defs>
       <path d="M 31.78125 66.40625 
Q 24.171875 66.40625 20.328125 58.90625 
Q 16.5 51.421875 16.5 36.375 
Q 16.5 21.390625 20.328125 13.890625 
Q 24.171875 6.390625 31.78125 6.390625 
Q 39.453125 6.390625 43.28125 13.890625 
Q 47.125 21.390625 47.125 36.375 
Q 47.125 51.421875 43.28125 58.90625 
Q 39.453125 66.40625 31.78125 66.40625 
z
M 31.78125 74.21875 
Q 44.046875 74.21875 50.515625 64.515625 
Q 56.984375 54.828125 56.984375 36.375 
Q 56.984375 17.96875 50.515625 8.265625 
Q 44.046875 -1.421875 31.78125 -1.421875 
Q 19.53125 -1.421875 13.0625 8.265625 
Q 6.59375 17.96875 6.59375 36.375 
Q 6.59375 54.828125 13.0625 64.515625 
Q 19.53125 74.21875 31.78125 74.21875 
z
" id="DejaVuSans-30"/>
      </defs>
      <g transform="translate(64.4375 320.44225)scale(0.2 -0.2)">
       <use xlink:href="#DejaVuSans-30"/>
      </g>
     </g>
    </g>
    <g id="xtick_2">
     <g id="line2d_3">
      <path clip-path="url(#pd26c6c9029)" d="M 153.085714 298.245375 
L 153.085714 32.133375 
" style="fill:none;stroke:#b0b0b0;stroke-linecap:square;stroke-width:0.8;"/>
     </g>
     <g id="line2d_4">
      <g>
       <use style="stroke:#000000;stroke-width:0.8;" x="153.085714" xlink:href="#mf4df047d17" y="298.245375"/>
      </g>
     </g>
     <g id="text_2">
      <!-- 2 -->
      <defs>
       <path d="M 19.1875 8.296875 
L 53.609375 8.296875 
L 53.609375 0 
L 7.328125 0 
L 7.328125 8.296875 
Q 12.9375 14.109375 22.625 23.890625 
Q 32.328125 33.6875 34.8125 36.53125 
Q 39.546875 41.84375 41.421875 45.53125 
Q 43.3125 49.21875 43.3125 52.78125 
Q 43.3125 58.59375 39.234375 62.25 
Q 35.15625 65.921875 28.609375 65.921875 
Q 23.96875 65.921875 18.8125 64.3125 
Q 13.671875 62.703125 7.8125 59.421875 
L 7.8125 69.390625 
Q 13.765625 71.78125 18.9375 73 
Q 24.125 74.21875 28.421875 74.21875 
Q 39.75 74.21875 46.484375 68.546875 
Q 53.21875 62.890625 53.21875 53.421875 
Q 53.21875 48.921875 51.53125 44.890625 
Q 49.859375 40.875 45.40625 35.40625 
Q 44.1875 33.984375 37.640625 27.21875 
Q 31.109375 20.453125 19.1875 8.296875 
z
" id="DejaVuSans-32"/>
      </defs>
      <g transform="translate(146.723214 320.44225)scale(0.2 -0.2)">
       <use xlink:href="#DejaVuSans-32"/>
      </g>
     </g>
    </g>
    <g id="xtick_3">
     <g id="line2d_5">
      <path clip-path="url(#pd26c6c9029)" d="M 235.371429 298.245375 
L 235.371429 32.133375 
" style="fill:none;stroke:#b0b0b0;stroke-linecap:square;stroke-width:0.8;"/>
     </g>
     <g id="line2d_6">
      <g>
       <use style="stroke:#000000;stroke-width:0.8;" x="235.371429" xlink:href="#mf4df047d17" y="298.245375"/>
      </g>
     </g>
     <g id="text_3">
      <!-- 4 -->
      <defs>
       <path d="M 37.796875 64.3125 
L 12.890625 25.390625 
L 37.796875 25.390625 
z
M 35.203125 72.90625 
L 47.609375 72.90625 
L 47.609375 25.390625 
L 58.015625 25.390625 
L 58.015625 17.1875 
L 47.609375 17.1875 
L 47.609375 0 
L 37.796875 0 
L 37.796875 17.1875 
L 4.890625 17.1875 
L 4.890625 26.703125 
z
" id="DejaVuSans-34"/>
      </defs>
      <g transform="translate(229.008929 320.44225)scale(0.2 -0.2)">
       <use xlink:href="#DejaVuSans-34"/>
      </g>
     </g>
    </g>
    <g id="xtick_4">
     <g id="line2d_7">
      <path clip-path="url(#pd26c6c9029)" d="M 317.657143 298.245375 
L 317.657143 32.133375 
" style="fill:none;stroke:#b0b0b0;stroke-linecap:square;stroke-width:0.8;"/>
     </g>
     <g id="line2d_8">
      <g>
       <use style="stroke:#000000;stroke-width:0.8;" x="317.657143" xlink:href="#mf4df047d17" y="298.245375"/>
      </g>
     </g>
     <g id="text_4">
      <!-- 6 -->
      <defs>
       <path d="M 33.015625 40.375 
Q 26.375 40.375 22.484375 35.828125 
Q 18.609375 31.296875 18.609375 23.390625 
Q 18.609375 15.53125 22.484375 10.953125 
Q 26.375 6.390625 33.015625 6.390625 
Q 39.65625 6.390625 43.53125 10.953125 
Q 47.40625 15.53125 47.40625 23.390625 
Q 47.40625 31.296875 43.53125 35.828125 
Q 39.65625 40.375 33.015625 40.375 
z
M 52.59375 71.296875 
L 52.59375 62.3125 
Q 48.875 64.0625 45.09375 64.984375 
Q 41.3125 65.921875 37.59375 65.921875 
Q 27.828125 65.921875 22.671875 59.328125 
Q 17.53125 52.734375 16.796875 39.40625 
Q 19.671875 43.65625 24.015625 45.921875 
Q 28.375 48.1875 33.59375 48.1875 
Q 44.578125 48.1875 50.953125 41.515625 
Q 57.328125 34.859375 57.328125 23.390625 
Q 57.328125 12.15625 50.6875 5.359375 
Q 44.046875 -1.421875 33.015625 -1.421875 
Q 20.359375 -1.421875 13.671875 8.265625 
Q 6.984375 17.96875 6.984375 36.375 
Q 6.984375 53.65625 15.1875 63.9375 
Q 23.390625 74.21875 37.203125 74.21875 
Q 40.921875 74.21875 44.703125 73.484375 
Q 48.484375 72.75 52.59375 71.296875 
z
" id="DejaVuSans-36"/>
      </defs>
      <g transform="translate(311.294643 320.44225)scale(0.2 -0.2)">
       <use xlink:href="#DejaVuSans-36"/>
      </g>
     </g>
    </g>
    <g id="xtick_5">
     <g id="line2d_9">
      <path clip-path="url(#pd26c6c9029)" d="M 399.942857 298.245375 
L 399.942857 32.133375 
" style="fill:none;stroke:#b0b0b0;stroke-linecap:square;stroke-width:0.8;"/>
     </g>
     <g id="line2d_10">
      <g>
       <use style="stroke:#000000;stroke-width:0.8;" x="399.942857" xlink:href="#mf4df047d17" y="298.245375"/>
      </g>
     </g>
     <g id="text_5">
      <!-- 8 -->
      <defs>
       <path d="M 31.78125 34.625 
Q 24.75 34.625 20.71875 30.859375 
Q 16.703125 27.09375 16.703125 20.515625 
Q 16.703125 13.921875 20.71875 10.15625 
Q 24.75 6.390625 31.78125 6.390625 
Q 38.8125 6.390625 42.859375 10.171875 
Q 46.921875 13.96875 46.921875 20.515625 
Q 46.921875 27.09375 42.890625 30.859375 
Q 38.875 34.625 31.78125 34.625 
z
M 21.921875 38.8125 
Q 15.578125 40.375 12.03125 44.71875 
Q 8.5 49.078125 8.5 55.328125 
Q 8.5 64.0625 14.71875 69.140625 
Q 20.953125 74.21875 31.78125 74.21875 
Q 42.671875 74.21875 48.875 69.140625 
Q 55.078125 64.0625 55.078125 55.328125 
Q 55.078125 49.078125 51.53125 44.71875 
Q 48 40.375 41.703125 38.8125 
Q 48.828125 37.15625 52.796875 32.3125 
Q 56.78125 27.484375 56.78125 20.515625 
Q 56.78125 9.90625 50.3125 4.234375 
Q 43.84375 -1.421875 31.78125 -1.421875 
Q 19.734375 -1.421875 13.25 4.234375 
Q 6.78125 9.90625 6.78125 20.515625 
Q 6.78125 27.484375 10.78125 32.3125 
Q 14.796875 37.15625 21.921875 38.8125 
z
M 18.3125 54.390625 
Q 18.3125 48.734375 21.84375 45.5625 
Q 25.390625 42.390625 31.78125 42.390625 
Q 38.140625 42.390625 41.71875 45.5625 
Q 45.3125 48.734375 45.3125 54.390625 
Q 45.3125 60.0625 41.71875 63.234375 
Q 38.140625 66.40625 31.78125 66.40625 
Q 25.390625 66.40625 21.84375 63.234375 
Q 18.3125 60.0625 18.3125 54.390625 
z
" id="DejaVuSans-38"/>
      </defs>
      <g transform="translate(393.580357 320.44225)scale(0.2 -0.2)">
       <use xlink:href="#DejaVuSans-38"/>
      </g>
     </g>
    </g>
    <g id="text_6">
     <!-- log10 of (# f-evals / dimension) -->
     <defs>
      <path d="M 9.421875 75.984375 
L 18.40625 75.984375 
L 18.40625 0 
L 9.421875 0 
z
" id="DejaVuSans-6c"/>
      <path d="M 30.609375 48.390625 
Q 23.390625 48.390625 19.1875 42.75 
Q 14.984375 37.109375 14.984375 27.296875 
Q 14.984375 17.484375 19.15625 11.84375 
Q 23.34375 6.203125 30.609375 6.203125 
Q 37.796875 6.203125 41.984375 11.859375 
Q 46.1875 17.53125 46.1875 27.296875 
Q 46.1875 37.015625 41.984375 42.703125 
Q 37.796875 48.390625 30.609375 48.390625 
z
M 30.609375 56 
Q 42.328125 56 49.015625 48.375 
Q 55.71875 40.765625 55.71875 27.296875 
Q 55.71875 13.875 49.015625 6.21875 
Q 42.328125 -1.421875 30.609375 -1.421875 
Q 18.84375 -1.421875 12.171875 6.21875 
Q 5.515625 13.875 5.515625 27.296875 
Q 5.515625 40.765625 12.171875 48.375 
Q 18.84375 56 30.609375 56 
z
" id="DejaVuSans-6f"/>
      <path d="M 45.40625 27.984375 
Q 45.40625 37.75 41.375 43.109375 
Q 37.359375 48.484375 30.078125 48.484375 
Q 22.859375 48.484375 18.828125 43.109375 
Q 14.796875 37.75 14.796875 27.984375 
Q 14.796875 18.265625 18.828125 12.890625 
Q 22.859375 7.515625 30.078125 7.515625 
Q 37.359375 7.515625 41.375 12.890625 
Q 45.40625 18.265625 45.40625 27.984375 
z
M 54.390625 6.78125 
Q 54.390625 -7.171875 48.1875 -13.984375 
Q 42 -20.796875 29.203125 -20.796875 
Q 24.46875 -20.796875 20.265625 -20.09375 
Q 16.0625 -19.390625 12.109375 -17.921875 
L 12.109375 -9.1875 
Q 16.0625 -11.328125 19.921875 -12.34375 
Q 23.78125 -13.375 27.78125 -13.375 
Q 36.625 -13.375 41.015625 -8.765625 
Q 45.40625 -4.15625 45.40625 5.171875 
L 45.40625 9.625 
Q 42.625 4.78125 38.28125 2.390625 
Q 33.9375 0 27.875 0 
Q 17.828125 0 11.671875 7.65625 
Q 5.515625 15.328125 5.515625 27.984375 
Q 5.515625 40.671875 11.671875 48.328125 
Q 17.828125 56 27.875 56 
Q 33.9375 56 38.28125 53.609375 
Q 42.625 51.21875 45.40625 46.390625 
L 45.40625 54.6875 
L 54.390625 54.6875 
z
" id="DejaVuSans-67"/>
      <path d="M 12.40625 8.296875 
L 28.515625 8.296875 
L 28.515625 63.921875 
L 10.984375 60.40625 
L 10.984375 69.390625 
L 28.421875 72.90625 
L 38.28125 72.90625 
L 38.28125 8.296875 
L 54.390625 8.296875 
L 54.390625 0 
L 12.40625 0 
z
" id="DejaVuSans-31"/>
      <path id="DejaVuSans-20"/>
      <path d="M 37.109375 75.984375 
L 37.109375 68.5 
L 28.515625 68.5 
Q 23.6875 68.5 21.796875 66.546875 
Q 19.921875 64.59375 19.921875 59.515625 
L 19.921875 54.6875 
L 34.71875 54.6875 
L 34.71875 47.703125 
L 19.921875 47.703125 
L 19.921875 0 
L 10.890625 0 
L 10.890625 47.703125 
L 2.296875 47.703125 
L 2.296875 54.6875 
L 10.890625 54.6875 
L 10.890625 58.5 
Q 10.890625 67.625 15.140625 71.796875 
Q 19.390625 75.984375 28.609375 75.984375 
z
" id="DejaVuSans-66"/>
      <path d="M 31 75.875 
Q 24.46875 64.65625 21.28125 53.65625 
Q 18.109375 42.671875 18.109375 31.390625 
Q 18.109375 20.125 21.3125 9.0625 
Q 24.515625 -2 31 -13.1875 
L 23.1875 -13.1875 
Q 15.875 -1.703125 12.234375 9.375 
Q 8.59375 20.453125 8.59375 31.390625 
Q 8.59375 42.28125 12.203125 53.3125 
Q 15.828125 64.359375 23.1875 75.875 
z
" id="DejaVuSans-28"/>
      <path d="M 51.125 44 
L 36.921875 44 
L 32.8125 27.6875 
L 47.125 27.6875 
z
M 43.796875 71.78125 
L 38.71875 51.515625 
L 52.984375 51.515625 
L 58.109375 71.78125 
L 65.921875 71.78125 
L 60.890625 51.515625 
L 76.125 51.515625 
L 76.125 44 
L 58.984375 44 
L 54.984375 27.6875 
L 70.515625 27.6875 
L 70.515625 20.21875 
L 53.078125 20.21875 
L 48 0 
L 40.1875 0 
L 45.21875 20.21875 
L 30.90625 20.21875 
L 25.875 0 
L 18.015625 0 
L 23.09375 20.21875 
L 7.71875 20.21875 
L 7.71875 27.6875 
L 24.90625 27.6875 
L 29 44 
L 13.28125 44 
L 13.28125 51.515625 
L 30.90625 51.515625 
L 35.890625 71.78125 
z
" id="DejaVuSans-23"/>
      <path d="M 4.890625 31.390625 
L 31.203125 31.390625 
L 31.203125 23.390625 
L 4.890625 23.390625 
z
" id="DejaVuSans-2d"/>
      <path d="M 56.203125 29.59375 
L 56.203125 25.203125 
L 14.890625 25.203125 
Q 15.484375 15.921875 20.484375 11.0625 
Q 25.484375 6.203125 34.421875 6.203125 
Q 39.59375 6.203125 44.453125 7.46875 
Q 49.3125 8.734375 54.109375 11.28125 
L 54.109375 2.78125 
Q 49.265625 0.734375 44.1875 -0.34375 
Q 39.109375 -1.421875 33.890625 -1.421875 
Q 20.796875 -1.421875 13.15625 6.1875 
Q 5.515625 13.8125 5.515625 26.8125 
Q 5.515625 40.234375 12.765625 48.109375 
Q 20.015625 56 32.328125 56 
Q 43.359375 56 49.78125 48.890625 
Q 56.203125 41.796875 56.203125 29.59375 
z
M 47.21875 32.234375 
Q 47.125 39.59375 43.09375 43.984375 
Q 39.0625 48.390625 32.421875 48.390625 
Q 24.90625 48.390625 20.390625 44.140625 
Q 15.875 39.890625 15.1875 32.171875 
z
" id="DejaVuSans-65"/>
      <path d="M 2.984375 54.6875 
L 12.5 54.6875 
L 29.59375 8.796875 
L 46.6875 54.6875 
L 56.203125 54.6875 
L 35.6875 0 
L 23.484375 0 
z
" id="DejaVuSans-76"/>
      <path d="M 34.28125 27.484375 
Q 23.390625 27.484375 19.1875 25 
Q 14.984375 22.515625 14.984375 16.5 
Q 14.984375 11.71875 18.140625 8.90625 
Q 21.296875 6.109375 26.703125 6.109375 
Q 34.1875 6.109375 38.703125 11.40625 
Q 43.21875 16.703125 43.21875 25.484375 
L 43.21875 27.484375 
z
M 52.203125 31.203125 
L 52.203125 0 
L 43.21875 0 
L 43.21875 8.296875 
Q 40.140625 3.328125 35.546875 0.953125 
Q 30.953125 -1.421875 24.3125 -1.421875 
Q 15.921875 -1.421875 10.953125 3.296875 
Q 6 8.015625 6 15.921875 
Q 6 25.140625 12.171875 29.828125 
Q 18.359375 34.515625 30.609375 34.515625 
L 43.21875 34.515625 
L 43.21875 35.40625 
Q 43.21875 41.609375 39.140625 45 
Q 35.0625 48.390625 27.6875 48.390625 
Q 23 48.390625 18.546875 47.265625 
Q 14.109375 46.140625 10.015625 43.890625 
L 10.015625 52.203125 
Q 14.9375 54.109375 19.578125 55.046875 
Q 24.21875 56 28.609375 56 
Q 40.484375 56 46.34375 49.84375 
Q 52.203125 43.703125 52.203125 31.203125 
z
" id="DejaVuSans-61"/>
      <path d="M 44.28125 53.078125 
L 44.28125 44.578125 
Q 40.484375 46.53125 36.375 47.5 
Q 32.28125 48.484375 27.875 48.484375 
Q 21.1875 48.484375 17.84375 46.4375 
Q 14.5 44.390625 14.5 40.28125 
Q 14.5 37.15625 16.890625 35.375 
Q 19.28125 33.59375 26.515625 31.984375 
L 29.59375 31.296875 
Q 39.15625 29.25 43.1875 25.515625 
Q 47.21875 21.78125 47.21875 15.09375 
Q 47.21875 7.46875 41.1875 3.015625 
Q 35.15625 -1.421875 24.609375 -1.421875 
Q 20.21875 -1.421875 15.453125 -0.5625 
Q 10.6875 0.296875 5.421875 2 
L 5.421875 11.28125 
Q 10.40625 8.6875 15.234375 7.390625 
Q 20.0625 6.109375 24.8125 6.109375 
Q 31.15625 6.109375 34.5625 8.28125 
Q 37.984375 10.453125 37.984375 14.40625 
Q 37.984375 18.0625 35.515625 20.015625 
Q 33.0625 21.96875 24.703125 23.78125 
L 21.578125 24.515625 
Q 13.234375 26.265625 9.515625 29.90625 
Q 5.8125 33.546875 5.8125 39.890625 
Q 5.8125 47.609375 11.28125 51.796875 
Q 16.75 56 26.8125 56 
Q 31.78125 56 36.171875 55.265625 
Q 40.578125 54.546875 44.28125 53.078125 
z
" id="DejaVuSans-73"/>
      <path d="M 25.390625 72.90625 
L 33.6875 72.90625 
L 8.296875 -9.28125 
L 0 -9.28125 
z
" id="DejaVuSans-2f"/>
      <path d="M 45.40625 46.390625 
L 45.40625 75.984375 
L 54.390625 75.984375 
L 54.390625 0 
L 45.40625 0 
L 45.40625 8.203125 
Q 42.578125 3.328125 38.25 0.953125 
Q 33.9375 -1.421875 27.875 -1.421875 
Q 17.96875 -1.421875 11.734375 6.484375 
Q 5.515625 14.40625 5.515625 27.296875 
Q 5.515625 40.1875 11.734375 48.09375 
Q 17.96875 56 27.875 56 
Q 33.9375 56 38.25 53.625 
Q 42.578125 51.265625 45.40625 46.390625 
z
M 14.796875 27.296875 
Q 14.796875 17.390625 18.875 11.75 
Q 22.953125 6.109375 30.078125 6.109375 
Q 37.203125 6.109375 41.296875 11.75 
Q 45.40625 17.390625 45.40625 27.296875 
Q 45.40625 37.203125 41.296875 42.84375 
Q 37.203125 48.484375 30.078125 48.484375 
Q 22.953125 48.484375 18.875 42.84375 
Q 14.796875 37.203125 14.796875 27.296875 
z
" id="DejaVuSans-64"/>
      <path d="M 9.421875 54.6875 
L 18.40625 54.6875 
L 18.40625 0 
L 9.421875 0 
z
M 9.421875 75.984375 
L 18.40625 75.984375 
L 18.40625 64.59375 
L 9.421875 64.59375 
z
" id="DejaVuSans-69"/>
      <path d="M 52 44.1875 
Q 55.375 50.25 60.0625 53.125 
Q 64.75 56 71.09375 56 
Q 79.640625 56 84.28125 50.015625 
Q 88.921875 44.046875 88.921875 33.015625 
L 88.921875 0 
L 79.890625 0 
L 79.890625 32.71875 
Q 79.890625 40.578125 77.09375 44.375 
Q 74.3125 48.1875 68.609375 48.1875 
Q 61.625 48.1875 57.5625 43.546875 
Q 53.515625 38.921875 53.515625 30.90625 
L 53.515625 0 
L 44.484375 0 
L 44.484375 32.71875 
Q 44.484375 40.625 41.703125 44.40625 
Q 38.921875 48.1875 33.109375 48.1875 
Q 26.21875 48.1875 22.15625 43.53125 
Q 18.109375 38.875 18.109375 30.90625 
L 18.109375 0 
L 9.078125 0 
L 9.078125 54.6875 
L 18.109375 54.6875 
L 18.109375 46.1875 
Q 21.1875 51.21875 25.484375 53.609375 
Q 29.78125 56 35.6875 56 
Q 41.65625 56 45.828125 52.96875 
Q 50 49.953125 52 44.1875 
z
" id="DejaVuSans-6d"/>
      <path d="M 54.890625 33.015625 
L 54.890625 0 
L 45.90625 0 
L 45.90625 32.71875 
Q 45.90625 40.484375 42.875 44.328125 
Q 39.84375 48.1875 33.796875 48.1875 
Q 26.515625 48.1875 22.3125 43.546875 
Q 18.109375 38.921875 18.109375 30.90625 
L 18.109375 0 
L 9.078125 0 
L 9.078125 54.6875 
L 18.109375 54.6875 
L 18.109375 46.1875 
Q 21.34375 51.125 25.703125 53.5625 
Q 30.078125 56 35.796875 56 
Q 45.21875 56 50.046875 50.171875 
Q 54.890625 44.34375 54.890625 33.015625 
z
" id="DejaVuSans-6e"/>
      <path d="M 8.015625 75.875 
L 15.828125 75.875 
Q 23.140625 64.359375 26.78125 53.3125 
Q 30.421875 42.28125 30.421875 31.390625 
Q 30.421875 20.453125 26.78125 9.375 
Q 23.140625 -1.703125 15.828125 -13.1875 
L 8.015625 -13.1875 
Q 14.5 -2 17.703125 9.0625 
Q 20.90625 20.125 20.90625 31.390625 
Q 20.90625 42.671875 17.703125 53.65625 
Q 14.5 64.65625 8.015625 75.875 
z
" id="DejaVuSans-29"/>
     </defs>
     <g transform="translate(107.015156 342.278812)scale(0.18 -0.18)">
      <use xlink:href="#DejaVuSans-6c"/>
      <use x="27.783203" xlink:href="#DejaVuSans-6f"/>
      <use x="88.964844" xlink:href="#DejaVuSans-67"/>
      <use x="152.441406" xlink:href="#DejaVuSans-31"/>
      <use x="216.064453" xlink:href="#DejaVuSans-30"/>
      <use x="279.6875" xlink:href="#DejaVuSans-20"/>
      <use x="311.474609" xlink:href="#DejaVuSans-6f"/>
      <use x="372.65625" xlink:href="#DejaVuSans-66"/>
      <use x="407.861328" xlink:href="#DejaVuSans-20"/>
      <use x="439.648438" xlink:href="#DejaVuSans-28"/>
      <use x="478.662109" xlink:href="#DejaVuSans-23"/>
      <use x="562.451172" xlink:href="#DejaVuSans-20"/>
      <use x="594.238281" xlink:href="#DejaVuSans-66"/>
      <use x="629.365234" xlink:href="#DejaVuSans-2d"/>
      <use x="665.449219" xlink:href="#DejaVuSans-65"/>
      <use x="726.972656" xlink:href="#DejaVuSans-76"/>
      <use x="786.152344" xlink:href="#DejaVuSans-61"/>
      <use x="847.431641" xlink:href="#DejaVuSans-6c"/>
      <use x="875.214844" xlink:href="#DejaVuSans-73"/>
      <use x="927.314453" xlink:href="#DejaVuSans-20"/>
      <use x="959.101562" xlink:href="#DejaVuSans-2f"/>
      <use x="992.792969" xlink:href="#DejaVuSans-20"/>
      <use x="1024.580078" xlink:href="#DejaVuSans-64"/>
      <use x="1088.056641" xlink:href="#DejaVuSans-69"/>
      <use x="1115.839844" xlink:href="#DejaVuSans-6d"/>
      <use x="1213.251953" xlink:href="#DejaVuSans-65"/>
      <use x="1274.775391" xlink:href="#DejaVuSans-6e"/>
      <use x="1338.154297" xlink:href="#DejaVuSans-73"/>
      <use x="1390.253906" xlink:href="#DejaVuSans-69"/>
      <use x="1418.037109" xlink:href="#DejaVuSans-6f"/>
      <use x="1479.21875" xlink:href="#DejaVuSans-6e"/>
      <use x="1542.597656" xlink:href="#DejaVuSans-29"/>
     </g>
    </g>
   </g>
   <g id="matplotlib.axis_2">
    <g id="ytick_1">
     <g id="line2d_11">
      <path clip-path="url(#pd26c6c9029)" d="M 70.8 298.245375 
L 427.92 298.245375 
" style="fill:none;stroke:#b0b0b0;stroke-linecap:square;stroke-width:0.8;"/>
     </g>
     <g id="line2d_12">
      <defs>
       <path d="M 0 0 
L -3.5 0 
" id="m8d711166f2" style="stroke:#000000;stroke-width:0.8;"/>
      </defs>
      <g>
       <use style="stroke:#000000;stroke-width:0.8;" x="70.8" xlink:href="#m8d711166f2" y="298.245375"/>
      </g>
     </g>
     <g id="text_7">
      <!-- 0.0 -->
      <defs>
       <path d="M 10.6875 12.40625 
L 21 12.40625 
L 21 0 
L 10.6875 0 
z
" id="DejaVuSans-2e"/>
      </defs>
      <g transform="translate(31.99375 305.843812)scale(0.2 -0.2)">
       <use xlink:href="#DejaVuSans-30"/>
       <use x="63.623047" xlink:href="#DejaVuSans-2e"/>
       <use x="95.410156" xlink:href="#DejaVuSans-30"/>
      </g>
     </g>
    </g>
    <g id="ytick_2">
     <g id="line2d_13">
      <path clip-path="url(#pd26c6c9029)" d="M 70.8 245.549929 
L 427.92 245.549929 
" style="fill:none;stroke:#b0b0b0;stroke-linecap:square;stroke-width:0.8;"/>
     </g>
     <g id="line2d_14">
      <g>
       <use style="stroke:#000000;stroke-width:0.8;" x="70.8" xlink:href="#m8d711166f2" y="245.549929"/>
      </g>
     </g>
     <g id="text_8">
      <!-- 0.2 -->
      <g transform="translate(31.99375 253.148367)scale(0.2 -0.2)">
       <use xlink:href="#DejaVuSans-30"/>
       <use x="63.623047" xlink:href="#DejaVuSans-2e"/>
       <use x="95.410156" xlink:href="#DejaVuSans-32"/>
      </g>
     </g>
    </g>
    <g id="ytick_3">
     <g id="line2d_15">
      <path clip-path="url(#pd26c6c9029)" d="M 70.8 192.854484 
L 427.92 192.854484 
" style="fill:none;stroke:#b0b0b0;stroke-linecap:square;stroke-width:0.8;"/>
     </g>
     <g id="line2d_16">
      <g>
       <use style="stroke:#000000;stroke-width:0.8;" x="70.8" xlink:href="#m8d711166f2" y="192.854484"/>
      </g>
     </g>
     <g id="text_9">
      <!-- 0.4 -->
      <g transform="translate(31.99375 200.452921)scale(0.2 -0.2)">
       <use xlink:href="#DejaVuSans-30"/>
       <use x="63.623047" xlink:href="#DejaVuSans-2e"/>
       <use x="95.410156" xlink:href="#DejaVuSans-34"/>
      </g>
     </g>
    </g>
    <g id="ytick_4">
     <g id="line2d_17">
      <path clip-path="url(#pd26c6c9029)" d="M 70.8 140.159038 
L 427.92 140.159038 
" style="fill:none;stroke:#b0b0b0;stroke-linecap:square;stroke-width:0.8;"/>
     </g>
     <g id="line2d_18">
      <g>
       <use style="stroke:#000000;stroke-width:0.8;" x="70.8" xlink:href="#m8d711166f2" y="140.159038"/>
      </g>
     </g>
     <g id="text_10">
      <!-- 0.6 -->
      <g transform="translate(31.99375 147.757476)scale(0.2 -0.2)">
       <use xlink:href="#DejaVuSans-30"/>
       <use x="63.623047" xlink:href="#DejaVuSans-2e"/>
       <use x="95.410156" xlink:href="#DejaVuSans-36"/>
      </g>
     </g>
    </g>
    <g id="ytick_5">
     <g id="line2d_19">
      <path clip-path="url(#pd26c6c9029)" d="M 70.8 87.463593 
L 427.92 87.463593 
" style="fill:none;stroke:#b0b0b0;stroke-linecap:square;stroke-width:0.8;"/>
     </g>
     <g id="line2d_20">
      <g>
       <use style="stroke:#000000;stroke-width:0.8;" x="70.8" xlink:href="#m8d711166f2" y="87.463593"/>
      </g>
     </g>
     <g id="text_11">
      <!-- 0.8 -->
      <g transform="translate(31.99375 95.06203)scale(0.2 -0.2)">
       <use xlink:href="#DejaVuSans-30"/>
       <use x="63.623047" xlink:href="#DejaVuSans-2e"/>
       <use x="95.410156" xlink:href="#DejaVuSans-38"/>
      </g>
     </g>
    </g>
    <g id="ytick_6">
     <g id="line2d_21">
      <path clip-path="url(#pd26c6c9029)" d="M 70.8 34.768147 
L 427.92 34.768147 
" style="fill:none;stroke:#b0b0b0;stroke-linecap:square;stroke-width:0.8;"/>
     </g>
     <g id="line2d_22">
      <g>
       <use style="stroke:#000000;stroke-width:0.8;" x="70.8" xlink:href="#m8d711166f2" y="34.768147"/>
      </g>
     </g>
     <g id="text_12">
      <!-- 1.0 -->
      <g transform="translate(31.99375 42.366585)scale(0.2 -0.2)">
       <use xlink:href="#DejaVuSans-31"/>
       <use x="63.623047" xlink:href="#DejaVuSans-2e"/>
       <use x="95.410156" xlink:href="#DejaVuSans-30"/>
      </g>
     </g>
    </g>
    <g id="text_13">
     <!-- Proportion of function+target pairs -->
     <defs>
      <path d="M 19.671875 64.796875 
L 19.671875 37.40625 
L 32.078125 37.40625 
Q 38.96875 37.40625 42.71875 40.96875 
Q 46.484375 44.53125 46.484375 51.125 
Q 46.484375 57.671875 42.71875 61.234375 
Q 38.96875 64.796875 32.078125 64.796875 
z
M 9.8125 72.90625 
L 32.078125 72.90625 
Q 44.34375 72.90625 50.609375 67.359375 
Q 56.890625 61.8125 56.890625 51.125 
Q 56.890625 40.328125 50.609375 34.8125 
Q 44.34375 29.296875 32.078125 29.296875 
L 19.671875 29.296875 
L 19.671875 0 
L 9.8125 0 
z
" id="DejaVuSans-50"/>
      <path d="M 41.109375 46.296875 
Q 39.59375 47.171875 37.8125 47.578125 
Q 36.03125 48 33.890625 48 
Q 26.265625 48 22.1875 43.046875 
Q 18.109375 38.09375 18.109375 28.8125 
L 18.109375 0 
L 9.078125 0 
L 9.078125 54.6875 
L 18.109375 54.6875 
L 18.109375 46.1875 
Q 20.953125 51.171875 25.484375 53.578125 
Q 30.03125 56 36.53125 56 
Q 37.453125 56 38.578125 55.875 
Q 39.703125 55.765625 41.0625 55.515625 
z
" id="DejaVuSans-72"/>
      <path d="M 18.109375 8.203125 
L 18.109375 -20.796875 
L 9.078125 -20.796875 
L 9.078125 54.6875 
L 18.109375 54.6875 
L 18.109375 46.390625 
Q 20.953125 51.265625 25.265625 53.625 
Q 29.59375 56 35.59375 56 
Q 45.5625 56 51.78125 48.09375 
Q 58.015625 40.1875 58.015625 27.296875 
Q 58.015625 14.40625 51.78125 6.484375 
Q 45.5625 -1.421875 35.59375 -1.421875 
Q 29.59375 -1.421875 25.265625 0.953125 
Q 20.953125 3.328125 18.109375 8.203125 
z
M 48.6875 27.296875 
Q 48.6875 37.203125 44.609375 42.84375 
Q 40.53125 48.484375 33.40625 48.484375 
Q 26.265625 48.484375 22.1875 42.84375 
Q 18.109375 37.203125 18.109375 27.296875 
Q 18.109375 17.390625 22.1875 11.75 
Q 26.265625 6.109375 33.40625 6.109375 
Q 40.53125 6.109375 44.609375 11.75 
Q 48.6875 17.390625 48.6875 27.296875 
z
" id="DejaVuSans-70"/>
      <path d="M 18.3125 70.21875 
L 18.3125 54.6875 
L 36.8125 54.6875 
L 36.8125 47.703125 
L 18.3125 47.703125 
L 18.3125 18.015625 
Q 18.3125 11.328125 20.140625 9.421875 
Q 21.96875 7.515625 27.59375 7.515625 
L 36.8125 7.515625 
L 36.8125 0 
L 27.59375 0 
Q 17.1875 0 13.234375 3.875 
Q 9.28125 7.765625 9.28125 18.015625 
L 9.28125 47.703125 
L 2.6875 47.703125 
L 2.6875 54.6875 
L 9.28125 54.6875 
L 9.28125 70.21875 
z
" id="DejaVuSans-74"/>
      <path d="M 8.5 21.578125 
L 8.5 54.6875 
L 17.484375 54.6875 
L 17.484375 21.921875 
Q 17.484375 14.15625 20.5 10.265625 
Q 23.53125 6.390625 29.59375 6.390625 
Q 36.859375 6.390625 41.078125 11.03125 
Q 45.3125 15.671875 45.3125 23.6875 
L 45.3125 54.6875 
L 54.296875 54.6875 
L 54.296875 0 
L 45.3125 0 
L 45.3125 8.40625 
Q 42.046875 3.421875 37.71875 1 
Q 33.40625 -1.421875 27.6875 -1.421875 
Q 18.265625 -1.421875 13.375 4.4375 
Q 8.5 10.296875 8.5 21.578125 
z
M 31.109375 56 
z
" id="DejaVuSans-75"/>
      <path d="M 48.78125 52.59375 
L 48.78125 44.1875 
Q 44.96875 46.296875 41.140625 47.34375 
Q 37.3125 48.390625 33.40625 48.390625 
Q 24.65625 48.390625 19.8125 42.84375 
Q 14.984375 37.3125 14.984375 27.296875 
Q 14.984375 17.28125 19.8125 11.734375 
Q 24.65625 6.203125 33.40625 6.203125 
Q 37.3125 6.203125 41.140625 7.25 
Q 44.96875 8.296875 48.78125 10.40625 
L 48.78125 2.09375 
Q 45.015625 0.34375 40.984375 -0.53125 
Q 36.96875 -1.421875 32.421875 -1.421875 
Q 20.0625 -1.421875 12.78125 6.34375 
Q 5.515625 14.109375 5.515625 27.296875 
Q 5.515625 40.671875 12.859375 48.328125 
Q 20.21875 56 33.015625 56 
Q 37.15625 56 41.109375 55.140625 
Q 45.0625 54.296875 48.78125 52.59375 
z
" id="DejaVuSans-63"/>
      <path d="M 46 62.703125 
L 46 35.5 
L 73.1875 35.5 
L 73.1875 27.203125 
L 46 27.203125 
L 46 0 
L 37.796875 0 
L 37.796875 27.203125 
L 10.59375 27.203125 
L 10.59375 35.5 
L 37.796875 35.5 
L 37.796875 62.703125 
z
" id="DejaVuSans-2b"/>
     </defs>
     <g transform="translate(24.250312 323.17875)rotate(-90)scale(0.18 -0.18)">
      <use xlink:href="#DejaVuSans-50"/>
      <use x="60.287109" xlink:href="#DejaVuSans-72"/>
      <use x="101.369141" xlink:href="#DejaVuSans-6f"/>
      <use x="162.550781" xlink:href="#DejaVuSans-70"/>
      <use x="226.027344" xlink:href="#DejaVuSans-6f"/>
      <use x="287.208984" xlink:href="#DejaVuSans-72"/>
      <use x="328.322266" xlink:href="#DejaVuSans-74"/>
      <use x="367.53125" xlink:href="#DejaVuSans-69"/>
      <use x="395.314453" xlink:href="#DejaVuSans-6f"/>
      <use x="456.496094" xlink:href="#DejaVuSans-6e"/>
      <use x="519.875" xlink:href="#DejaVuSans-20"/>
      <use x="551.662109" xlink:href="#DejaVuSans-6f"/>
      <use x="612.84375" xlink:href="#DejaVuSans-66"/>
      <use x="648.048828" xlink:href="#DejaVuSans-20"/>
      <use x="679.835938" xlink:href="#DejaVuSans-66"/>
      <use x="715.041016" xlink:href="#DejaVuSans-75"/>
      <use x="778.419922" xlink:href="#DejaVuSans-6e"/>
      <use x="841.798828" xlink:href="#DejaVuSans-63"/>
      <use x="896.779297" xlink:href="#DejaVuSans-74"/>
      <use x="935.988281" xlink:href="#DejaVuSans-69"/>
      <use x="963.771484" xlink:href="#DejaVuSans-6f"/>
      <use x="1024.953125" xlink:href="#DejaVuSans-6e"/>
      <use x="1088.332031" xlink:href="#DejaVuSans-2b"/>
      <use x="1172.121094" xlink:href="#DejaVuSans-74"/>
      <use x="1211.330078" xlink:href="#DejaVuSans-61"/>
      <use x="1272.609375" xlink:href="#DejaVuSans-72"/>
      <use x="1313.707031" xlink:href="#DejaVuSans-67"/>
      <use x="1377.183594" xlink:href="#DejaVuSans-65"/>
      <use x="1438.707031" xlink:href="#DejaVuSans-74"/>
      <use x="1477.916016" xlink:href="#DejaVuSans-20"/>
      <use x="1509.703125" xlink:href="#DejaVuSans-70"/>
      <use x="1573.179688" xlink:href="#DejaVuSans-61"/>
      <use x="1634.458984" xlink:href="#DejaVuSans-69"/>
      <use x="1662.242188" xlink:href="#DejaVuSans-72"/>
      <use x="1703.355469" xlink:href="#DejaVuSans-73"/>
     </g>
    </g>
   </g>
   <g id="line2d_23">
    <defs>
     <path d="M 0 1.5 
C 0.397805 1.5 0.77937 1.341951 1.06066 1.06066 
C 1.341951 0.77937 1.5 0.397805 1.5 0 
C 1.5 -0.397805 1.341951 -0.77937 1.06066 -1.06066 
C 0.77937 -1.341951 0.397805 -1.5 0 -1.5 
C -0.397805 -1.5 -0.77937 -1.341951 -1.06066 -1.06066 
C -1.341951 -0.77937 -1.5 -0.397805 -1.5 0 
C -1.5 0.397805 -1.341951 0.77937 -1.06066 1.06066 
C -0.77937 1.341951 -0.397805 1.5 0 1.5 
z
" id="mab126534e9" style="stroke:#000080;"/>
    </defs>
    <g>
     <use style="fill:#000080;stroke:#000080;" x="274.810075" xlink:href="#mab126534e9" y="158.757431"/>
     <use style="fill:#000080;stroke:#000080;" x="274.810075" xlink:href="#mab126534e9" y="158.757431"/>
    </g>
   </g>
   <g id="line2d_24">
    <path d="M 51.169868 298.245375 
L 51.169868 297.728753 
L 63.555102 297.728753 
L 63.555102 297.212131 
L 92.312726 297.212131 
L 92.312726 295.145643 
L 94.015739 295.145643 
L 94.015739 293.079155 
L 108.685114 293.079155 
L 108.685114 291.529289 
L 109.385915 291.529289 
L 109.385915 290.496045 
L 110.060263 290.496045 
L 110.060263 289.462801 
L 112.528749 289.462801 
L 112.528749 288.946179 
L 113.64587 288.946179 
L 113.64587 287.396313 
L 114.179287 287.396313 
L 114.179287 286.363069 
L 114.697239 286.363069 
L 114.697239 284.813203 
L 116.166679 284.813203 
L 116.166679 279.646982 
L 119.187755 279.646982 
L 119.187755 278.613738 
L 120.709364 278.613738 
L 120.709364 277.580494 
L 122.445497 277.580494 
L 122.445497 276.030628 
L 123.411577 276.030628 
L 123.411577 274.997384 
L 125.481273 274.997384 
L 125.481273 274.480762 
L 126.031105 274.480762 
L 126.031105 272.930896 
L 126.564521 272.930896 
L 126.564521 272.414274 
L 126.825374 272.414274 
L 126.825374 270.864408 
L 127.585834 270.864408 
L 127.585834 268.79792 
L 129.016046 268.79792 
L 129.016046 267.248054 
L 129.909638 267.248054 
L 129.909638 266.21481 
L 130.551676 266.21481 
L 130.551676 265.698188 
L 131.96571 265.698188 
L 131.96571 264.664944 
L 132.158881 264.664944 
L 132.158881 262.081834 
L 132.539068 262.081834 
L 132.539068 261.565212 
L 133.276002 261.565212 
L 133.276002 260.015346 
L 134.156383 260.015346 
L 134.156383 259.498724 
L 134.830731 259.498724 
L 134.830731 258.982102 
L 135.158596 258.982102 
L 135.158596 256.398992 
L 135.480553 256.398992 
L 135.480553 255.88237 
L 135.639381 255.88237 
L 135.639381 255.365748 
L 135.952865 255.365748 
L 135.952865 254.849126 
L 136.107569 254.849126 
L 136.107569 254.332504 
L 136.713325 254.332504 
L 136.713325 252.782638 
L 136.861609 252.782638 
L 136.861609 252.266016 
L 137.299218 252.266016 
L 137.299218 248.13304 
L 138.143538 248.13304 
L 138.143538 247.616418 
L 138.416339 247.616418 
L 138.416339 247.099796 
L 139.467708 247.099796 
L 139.467708 246.066551 
L 139.971068 246.066551 
L 139.971068 244.516685 
L 140.819206 244.516685 
L 140.819206 243.483441 
L 141.515454 243.483441 
L 141.515454 242.450197 
L 142.075629 242.450197 
L 142.075629 241.416953 
L 142.93691 241.416953 
L 142.93691 240.900331 
L 143.352466 240.900331 
L 143.352466 239.867087 
L 144.057215 239.867087 
L 144.057215 239.350465 
L 144.639923 239.350465 
L 144.639923 238.317221 
L 144.924302 238.317221 
L 144.924302 236.767355 
L 146.01861 236.767355 
L 146.01861 235.734111 
L 146.627316 235.734111 
L 146.627316 235.217489 
L 148.415618 235.217489 
L 148.415618 234.700867 
L 148.949035 234.700867 
L 148.949035 234.184245 
L 149.320526 234.184245 
L 149.320526 233.151001 
L 150.390793 233.151001 
L 150.390793 232.117757 
L 150.528772 232.117757 
L 150.528772 231.084513 
L 151.530985 231.084513 
L 151.530985 230.051269 
L 152.043367 230.051269 
L 152.043367 229.018025 
L 152.479957 229.018025 
L 152.479957 228.501403 
L 153.671607 228.501403 
L 153.671607 226.951537 
L 154.7345 226.951537 
L 154.7345 226.434915 
L 155.004009 226.434915 
L 155.004009 225.918293 
L 156.833025 225.918293 
L 156.833025 225.401671 
L 160.370275 225.401671 
L 160.370275 224.885049 
L 161.742488 224.885049 
L 161.742488 224.368427 
L 163.588354 224.368427 
L 163.588354 223.851805 
L 164.523059 223.851805 
L 164.523059 223.335183 
L 165.140326 223.335183 
L 165.140326 222.301939 
L 169.74173 222.301939 
L 169.74173 221.785317 
L 170.043996 221.785317 
L 170.043996 221.268695 
L 177.766618 221.268695 
L 177.766618 220.752073 
L 178.742146 220.752073 
L 178.742146 219.718829 
L 179.313863 219.718829 
L 179.313863 218.685585 
L 180.456749 218.685585 
L 180.456749 218.168963 
L 183.405014 218.168963 
L 183.405014 217.135719 
L 184.423295 217.135719 
L 184.423295 216.619097 
L 184.638514 216.619097 
L 184.638514 216.102475 
L 185.50351 216.102475 
L 185.50351 215.585853 
L 186.640913 215.585853 
L 186.640913 215.069231 
L 187.477105 215.069231 
L 187.477105 214.552609 
L 187.598363 214.552609 
L 187.598363 213.519365 
L 188.358823 213.519365 
L 188.358823 213.002743 
L 189.519758 213.002743 
L 189.519758 212.48612 
L 190.24886 212.48612 
L 190.315712 210.936254 
L 190.769577 210.936254 
L 190.769577 210.419632 
L 190.920728 210.419632 
L 190.920728 209.386388 
L 191.78125 209.386388 
L 191.78125 208.869766 
L 194.323615 208.869766 
L 194.323615 207.836522 
L 196.248223 207.836522 
L 196.248223 207.3199 
L 196.782734 207.3199 
L 196.782734 206.286656 
L 198.50873 206.286656 
L 198.50873 205.253412 
L 198.741573 205.253412 
L 198.741573 204.73679 
L 201.842869 204.73679 
L 201.842869 203.703546 
L 202.120737 203.703546 
L 202.120737 202.15368 
L 202.356598 202.15368 
L 202.356598 201.637058 
L 202.693531 201.637058 
L 202.693531 201.120436 
L 203.692372 201.120436 
L 203.692372 200.603814 
L 203.908493 200.603814 
L 203.908493 199.57057 
L 204.289008 199.57057 
L 204.289008 198.537326 
L 204.830204 198.537326 
L 204.830204 198.020704 
L 204.98746 198.020704 
L 204.98746 197.504082 
L 206.0542 197.504082 
L 206.0542 196.470838 
L 206.325604 196.470838 
L 206.410144 195.437594 
L 206.670299 195.437594 
L 206.670299 194.920972 
L 206.891569 194.920972 
L 206.891569 194.40435 
L 207.127503 194.40435 
L 207.127503 193.887728 
L 208.183667 193.887728 
L 208.205474 191.304618 
L 208.56417 191.304618 
L 208.56417 190.787996 
L 209.105908 190.787996 
L 209.105908 190.271374 
L 213.023507 190.271374 
L 213.023507 189.754752 
L 215.032347 189.754752 
L 215.032347 189.23813 
L 216.669154 189.23813 
L 216.669154 188.721508 
L 217.210502 188.721508 
L 217.210502 188.204886 
L 217.429685 188.204886 
L 217.429685 187.688264 
L 218.282032 187.688264 
L 218.282032 187.171642 
L 218.545131 187.171642 
L 218.545131 186.65502 
L 218.893006 186.65502 
L 218.893006 186.138398 
L 219.524308 186.138398 
L 219.524308 185.105154 
L 220.473181 185.105154 
L 220.473181 184.588532 
L 220.729105 184.588532 
L 220.729105 183.555288 
L 221.402853 183.555288 
L 221.402853 183.038666 
L 222.119766 183.038666 
L 222.15599 182.005422 
L 228.397843 182.005422 
L 228.397843 181.4888 
L 228.718763 181.4888 
L 228.718763 180.972178 
L 229.36633 180.972178 
L 229.411284 179.938934 
L 231.139147 179.938934 
L 231.139147 179.422312 
L 231.672297 179.422312 
L 231.672297 178.90569 
L 233.040525 178.90569 
L 233.040525 178.389067 
L 234.944075 178.389067 
L 234.944075 177.872445 
L 235.48542 177.872445 
L 235.48542 177.355823 
L 237.587351 177.355823 
L 237.587351 176.839201 
L 238.03522 176.839201 
L 238.03522 176.322579 
L 238.59688 176.322579 
L 238.59688 175.805957 
L 239.963832 175.805957 
L 239.963832 175.289335 
L 240.213119 175.289335 
L 240.213119 174.772713 
L 240.836234 174.772713 
L 240.836234 174.256091 
L 241.023437 174.256091 
L 241.023437 173.739469 
L 241.501011 173.739469 
L 241.501011 172.189603 
L 242.725582 172.189603 
L 242.725582 171.672981 
L 243.391802 171.672981 
L 243.391802 170.639737 
L 243.744922 170.639737 
L 243.744922 170.123115 
L 245.939136 170.123115 
L 245.939136 169.606493 
L 248.561675 169.606493 
L 248.561675 169.089871 
L 249.51293 169.089871 
L 249.51293 168.573249 
L 249.696076 168.573249 
L 249.696076 168.056627 
L 250.392467 168.056627 
L 250.392467 167.540005 
L 250.784871 167.540005 
L 250.784871 167.023383 
L 251.825111 167.023383 
L 251.825111 165.990139 
L 252.153157 165.990139 
L 252.252769 164.956895 
L 252.509101 164.956895 
L 252.509101 164.440273 
L 253.030288 164.440273 
L 253.030288 163.923651 
L 258.804642 163.923651 
L 258.877987 162.890407 
L 259.09513 162.890407 
L 259.09513 162.373785 
L 263.286489 162.373785 
L 263.286489 161.857163 
L 264.971319 161.857163 
L 265.000046 160.823919 
L 266.197575 160.823919 
L 266.197575 160.307297 
L 268.001195 160.307297 
L 268.001195 159.790675 
L 271.068549 159.790675 
L 271.068549 159.274053 
L 274.810075 159.274053 
L 274.810075 158.757431 
L 358.8 158.757431 
L 358.8 158.757431 
" style="fill:none;stroke:#000080;stroke-linecap:square;stroke-width:1.5;"/>
   </g>
   <g id="line2d_25">
    <defs>
     <path d="M 0 6 
C 1.591219 6 3.117479 5.367802 4.242641 4.242641 
C 5.367802 3.117479 6 1.591219 6 0 
C 6 -1.591219 5.367802 -3.117479 4.242641 -4.242641 
C 3.117479 -5.367802 1.591219 -6 0 -6 
C -1.591219 -6 -3.117479 -5.367802 -4.242641 -4.242641 
C -5.367802 -3.117479 -6 -1.591219 -6 0 
C -6 1.591219 -5.367802 3.117479 -4.242641 4.242641 
C -3.117479 5.367802 -1.591219 6 0 6 
z
" id="m62c146dae9" style="stroke:#000080;stroke-width:1.5;"/>
    </defs>
    <g>
     <use style="fill:none;stroke:#000080;stroke-width:1.5;" x="132.539068" xlink:href="#m62c146dae9" y="262.081834"/>
     <use style="fill:none;stroke:#000080;stroke-width:1.5;" x="170.043996" xlink:href="#m62c146dae9" y="221.268695"/>
     <use style="fill:none;stroke:#000080;stroke-width:1.5;" x="229.411284" xlink:href="#m62c146dae9" y="179.938934"/>
     <use style="fill:none;stroke:#000080;stroke-width:1.5;" x="274.810075" xlink:href="#m62c146dae9" y="158.757431"/>
     <use style="fill:none;stroke:#000080;stroke-width:1.5;" x="274.810075" xlink:href="#m62c146dae9" y="158.757431"/>
     <use style="fill:none;stroke:#000080;stroke-width:1.5;" x="358.8" xlink:href="#m62c146dae9" y="158.757431"/>
    </g>
   </g>
   <g id="line2d_26"/>
   <g id="line2d_27">
    <path clip-path="url(#pd26c6c9029)" d="M 209.87403 190.271374 
" style="fill:none;stroke:#000080;stroke-linecap:square;stroke-width:1.5;"/>
    <defs>
     <path d="M -12 12 
L 12 -12 
M -12 -12 
L 12 12 
" id="m694de1b6fc" style="stroke:#000080;stroke-width:3;"/>
    </defs>
    <g clip-path="url(#pd26c6c9029)">
     <use style="fill:#000080;stroke:#000080;stroke-width:3;" x="209.87403" xlink:href="#m694de1b6fc" y="190.271374"/>
    </g>
   </g>
   <g id="line2d_28">
    <defs>
     <path d="M 0 1.5 
C 0.397805 1.5 0.77937 1.341951 1.06066 1.06066 
C 1.341951 0.77937 1.5 0.397805 1.5 0 
C 1.5 -0.397805 1.341951 -0.77937 1.06066 -1.06066 
C 0.77937 -1.341951 0.397805 -1.5 0 -1.5 
C -0.397805 -1.5 -0.77937 -1.341951 -1.06066 -1.06066 
C -1.341951 -0.77937 -1.5 -0.397805 -1.5 0 
C -1.5 0.397805 -1.341951 0.77937 -1.06066 1.06066 
C -0.77937 1.341951 -0.397805 1.5 0 1.5 
z
" id="m509418a9ca" style="stroke:#ff00ff;"/>
    </defs>
    <g>
     <use style="fill:#ff00ff;stroke:#ff00ff;" x="291.538254" xlink:href="#m509418a9ca" y="34.768147"/>
     <use style="fill:#ff00ff;stroke:#ff00ff;" x="291.538254" xlink:href="#m509418a9ca" y="34.768147"/>
    </g>
   </g>
   <g id="line2d_29">
    <path d="M 51.169868 298.245375 
L 51.169868 272.414274 
L 63.555102 272.414274 
L 63.555102 269.831164 
L 70.8 269.831164 
L 70.8 268.281298 
L 75.940337 268.281298 
L 75.940337 265.698188 
L 79.927491 265.698188 
L 79.927491 264.148322 
L 85.939616 264.148322 
L 85.939616 262.598456 
L 88.325571 262.598456 
L 88.325571 256.915614 
L 90.430132 256.915614 
L 90.430132 256.398992 
L 92.312726 256.398992 
L 92.312726 255.365748 
L 94.015739 255.365748 
L 94.015739 253.29926 
L 101.794053 253.29926 
L 101.794053 251.749394 
L 103.781445 251.749394 
L 103.781445 250.71615 
L 104.69796 250.71615 
L 104.69796 249.166284 
L 106.400973 249.166284 
L 106.400973 247.099796 
L 107.195242 247.099796 
L 107.195242 245.033307 
L 107.955702 245.033307 
L 107.955702 244.000063 
L 110.060263 244.000063 
L 110.060263 243.483441 
L 112.528749 243.483441 
L 112.528749 242.450197 
L 113.096039 242.450197 
L 113.096039 240.383709 
L 114.697239 240.383709 
L 114.697239 239.350465 
L 116.166679 239.350465 
L 116.166679 238.317221 
L 116.630812 238.317221 
L 116.630812 237.800599 
L 117.083194 237.800599 
L 117.083194 237.283977 
L 118.375428 237.283977 
L 118.375428 236.767355 
L 120.709364 236.767355 
L 120.709364 236.250733 
L 122.773362 236.250733 
L 122.773362 235.217489 
L 124.328091 235.217489 
L 124.328091 234.700867 
L 125.19988 234.700867 
L 125.19988 234.184245 
L 126.564521 234.184245 
L 126.564521 233.151001 
L 127.335926 233.151001 
L 127.335926 232.634379 
L 128.315246 232.634379 
L 128.315246 232.117757 
L 131.770429 232.117757 
L 131.770429 231.601135 
L 132.539068 231.601135 
L 132.539068 231.084513 
L 132.726171 231.084513 
L 132.726171 230.567891 
L 134.156383 230.567891 
L 134.156383 230.051269 
L 134.830731 230.051269 
L 134.830731 229.018025 
L 139.080657 229.018025 
L 139.080657 228.501403 
L 143.145896 228.501403 
L 143.145896 227.984781 
L 144.447791 227.984781 
L 144.447791 227.468159 
L 146.881972 227.468159 
L 146.881972 225.918293 
L 155.269513 225.918293 
L 155.269513 225.401671 
L 155.686281 225.401671 
L 155.686281 224.368427 
L 156.687558 224.368427 
L 156.687558 223.851805 
L 157.215245 223.851805 
L 157.215245 223.335183 
L 159.55979 223.335183 
L 159.55979 222.818561 
L 161.409188 222.818561 
L 161.409188 222.301939 
L 161.925004 222.301939 
L 161.925004 221.785317 
L 162.461624 221.785317 
L 162.461624 220.752073 
L 164.077923 220.752073 
L 164.077923 219.718829 
L 165.560066 219.718829 
L 165.648742 218.168963 
L 166.652027 218.168963 
L 166.652027 217.135719 
L 167.83828 217.135719 
L 167.83828 216.619097 
L 169.505688 216.619097 
L 169.505688 216.102475 
L 170.363894 216.102475 
L 170.409129 214.552609 
L 170.744796 214.552609 
L 170.744796 213.519365 
L 172.130615 213.519365 
L 172.130615 213.002743 
L 172.25328 213.002743 
L 172.25328 212.48612 
L 172.755509 212.48612 
L 172.755509 211.452876 
L 173.301738 211.452876 
L 173.301738 210.419632 
L 173.606532 210.419632 
L 173.681925 209.386388 
L 173.850405 209.386388 
L 173.850405 208.869766 
L 174.146058 208.869766 
L 174.146058 208.353144 
L 174.273884 208.353144 
L 174.273884 207.3199 
L 174.882067 207.3199 
L 174.882067 206.803278 
L 175.143939 206.803278 
L 175.161262 205.770034 
L 175.538168 205.770034 
L 175.622731 203.186924 
L 179.62675 203.186924 
L 179.62675 202.670302 
L 180.236552 202.670302 
L 180.236552 202.15368 
L 181.026854 202.15368 
L 181.026854 201.120436 
L 182.068245 201.120436 
L 182.068245 200.603814 
L 182.197173 200.603814 
L 182.197173 199.57057 
L 182.313578 199.57057 
L 182.417698 197.504082 
L 182.839485 197.504082 
L 182.839485 196.98746 
L 183.174313 196.98746 
L 183.174313 195.954216 
L 184.443904 195.954216 
L 184.443904 195.437594 
L 184.941542 195.437594 
L 184.961563 193.371106 
L 185.130835 193.371106 
L 185.219805 192.337862 
L 186.522127 192.337862 
L 186.522127 191.82124 
L 186.885128 191.82124 
L 186.885128 191.304618 
L 187.416166 191.304618 
L 187.494478 189.754752 
L 187.701647 189.754752 
L 187.701647 188.721508 
L 188.108915 188.721508 
L 188.108915 188.204886 
L 188.523507 188.204886 
L 188.523507 187.688264 
L 188.670436 187.688264 
L 188.670436 187.171642 
L 188.791961 187.171642 
L 188.791961 186.65502 
L 189.277819 186.65502 
L 189.277819 186.138398 
L 191.155697 186.138398 
L 191.155697 185.621776 
L 191.903774 185.621776 
L 191.903774 185.105154 
L 192.405439 185.105154 
L 192.405439 184.588532 
L 192.764576 184.588532 
L 192.764576 184.07191 
L 193.349634 184.07191 
L 193.349634 183.555288 
L 193.468111 183.555288 
L 193.468111 183.038666 
L 194.156956 183.038666 
L 194.156956 182.005422 
L 194.400467 182.005422 
L 194.400467 181.4888 
L 195.066293 181.4888 
L 195.066293 180.972178 
L 195.235982 180.972178 
L 195.235982 179.938934 
L 195.888216 179.938934 
L 195.888216 178.90569 
L 196.007229 178.90569 
L 196.007229 178.389067 
L 196.141515 178.389067 
L 196.141515 177.355823 
L 197.441588 177.355823 
L 197.441588 176.322579 
L 198.048174 176.322579 
L 198.048174 175.805957 
L 199.003365 175.805957 
L 199.003365 175.289335 
L 199.202859 175.289335 
L 199.202859 174.772713 
L 200.116893 174.772713 
L 200.116893 174.256091 
L 200.477364 174.256091 
L 200.477364 173.739469 
L 200.744057 173.739469 
L 200.744057 173.222847 
L 200.945587 173.222847 
L 200.945587 172.189603 
L 201.124636 172.189603 
L 201.201401 171.156359 
L 201.261773 171.156359 
L 201.261773 170.123115 
L 201.509169 170.123115 
L 201.509169 169.606493 
L 201.912742 169.606493 
L 201.912742 168.573249 
L 202.379259 168.573249 
L 202.379259 167.540005 
L 202.67869 167.540005 
L 202.67869 167.023383 
L 202.874335 167.023383 
L 202.874335 166.506761 
L 204.036234 166.506761 
L 204.036234 165.473517 
L 204.336431 165.473517 
L 204.336431 164.956895 
L 204.681509 164.956895 
L 204.787375 162.890407 
L 205.207897 162.890407 
L 205.207897 161.857163 
L 205.700425 161.857163 
L 205.700425 161.340541 
L 205.995722 161.340541 
L 205.995722 160.823919 
L 206.164478 160.823919 
L 206.164478 160.307297 
L 206.355843 160.307297 
L 206.461277 158.757431 
L 206.631665 158.757431 
L 206.69996 157.207565 
L 206.76209 157.207565 
L 206.803389 155.657699 
L 207.26586 155.657699 
L 207.26586 155.141077 
L 207.528086 155.141077 
L 207.618401 153.074589 
L 207.739047 153.074589 
L 207.739047 152.557967 
L 208.090689 152.557967 
L 208.183667 151.524723 
L 208.542796 151.524723 
L 208.542796 151.008101 
L 209.069607 151.008101 
L 209.069607 150.491479 
L 209.809398 150.491479 
L 209.809398 149.974857 
L 212.142979 149.974857 
L 212.142979 149.458235 
L 212.264946 149.458235 
L 212.267117 147.908369 
L 212.822669 147.908369 
L 212.891962 146.358503 
L 213.828898 146.358503 
L 213.828898 145.841881 
L 214.411903 145.841881 
L 214.411903 145.325259 
L 214.633799 145.325259 
L 214.633799 144.808637 
L 215.119513 144.808637 
L 215.119513 144.292014 
L 215.44038 144.292014 
L 215.44038 143.775392 
L 216.215598 143.775392 
L 216.215598 143.25877 
L 216.347352 143.25877 
L 216.347352 142.742148 
L 216.601169 142.742148 
L 216.601169 142.225526 
L 216.988596 142.225526 
L 217.081668 141.192282 
L 217.492975 141.192282 
L 217.492975 140.67566 
L 217.734331 140.67566 
L 217.734331 140.159038 
L 218.271179 140.159038 
L 218.271179 139.642416 
L 218.437897 139.642416 
L 218.545131 137.575928 
L 218.685095 137.575928 
L 218.685095 137.059306 
L 218.901991 137.059306 
L 218.901991 136.542684 
L 219.36455 136.542684 
L 219.36455 136.026062 
L 219.873664 136.026062 
L 219.873664 134.992818 
L 220.500582 134.992818 
L 220.515635 133.959574 
L 220.742616 133.959574 
L 220.742616 133.442952 
L 221.087711 133.442952 
L 221.124765 131.893086 
L 221.223641 131.893086 
L 221.272219 130.34322 
L 221.504089 130.34322 
L 221.504089 129.309976 
L 222.037049 129.309976 
L 222.042073 128.276732 
L 222.226977 128.276732 
L 222.226977 127.76011 
L 223.527072 127.76011 
L 223.527072 127.243488 
L 224.376778 127.243488 
L 224.376778 126.726866 
L 224.645839 126.726866 
L 224.704362 125.693622 
L 225.058962 125.693622 
L 225.073806 124.143756 
L 225.627908 124.143756 
L 225.68638 122.59389 
L 225.787483 122.59389 
L 225.787483 122.077268 
L 226.168334 122.077268 
L 226.168334 121.560646 
L 226.322187 121.560646 
L 226.322187 121.044024 
L 226.559777 121.044024 
L 226.618199 119.494158 
L 226.682242 119.494158 
L 226.682242 118.460914 
L 226.885461 118.460914 
L 226.99335 115.877804 
L 227.05322 115.877804 
L 227.05322 115.361182 
L 227.221298 115.361182 
L 227.221298 114.327938 
L 227.337459 114.327938 
L 227.337459 113.811316 
L 227.461217 113.811316 
L 227.563852 112.778072 
L 227.627356 112.778072 
L 227.627356 112.26145 
L 228.080013 112.26145 
L 228.080013 111.744828 
L 228.487372 111.744828 
L 228.487372 111.228206 
L 228.783466 111.228206 
L 228.820458 109.678339 
L 229.071344 109.678339 
L 229.071344 109.161717 
L 229.29283 109.161717 
L 229.359661 107.611851 
L 229.482643 107.611851 
L 229.482643 107.095229 
L 230.734563 107.095229 
L 230.734563 106.578607 
L 231.722775 106.578607 
L 231.722775 105.545363 
L 232.251807 105.545363 
L 232.251807 105.028741 
L 232.41981 105.028741 
L 232.502523 103.478875 
L 232.570927 103.478875 
L 232.670274 101.412387 
L 232.699348 101.412387 
L 232.699348 100.379143 
L 232.838523 100.379143 
L 232.946633 98.312655 
L 233.491482 98.312655 
L 233.587169 96.246167 
L 233.887382 96.246167 
L 233.887382 95.729545 
L 234.320872 95.729545 
L 234.320872 95.212923 
L 234.486234 95.212923 
L 234.533736 93.663057 
L 235.719424 93.663057 
L 235.719424 93.146435 
L 235.908838 93.146435 
L 235.925591 92.113191 
L 236.495551 92.113191 
L 236.578134 90.563325 
L 236.718429 90.563325 
L 236.74382 89.530081 
L 236.874614 89.530081 
L 236.874614 89.013459 
L 237.141457 89.013459 
L 237.209834 87.463593 
L 237.297211 87.463593 
L 237.297211 86.946971 
L 237.422437 86.946971 
L 237.529382 85.913727 
L 237.790854 85.913727 
L 237.790854 85.397105 
L 238.028548 85.397105 
L 238.028548 84.880483 
L 238.317752 84.880483 
L 238.373223 83.847239 
L 239.995586 83.847239 
L 240.056176 82.813995 
L 240.705916 82.813995 
L 240.784397 81.780751 
L 240.838866 81.780751 
L 240.838866 81.264129 
L 240.975623 81.264129 
L 240.975623 80.747507 
L 241.102268 80.747507 
L 241.102268 80.230885 
L 241.532681 80.230885 
L 241.532681 79.714263 
L 241.784042 79.714263 
L 241.784042 79.197641 
L 243.031951 79.197641 
L 243.084246 78.164397 
L 243.20145 78.164397 
L 243.298408 76.614531 
L 243.542487 76.614531 
L 243.634242 74.03142 
L 243.65898 74.03142 
L 243.700882 72.481554 
L 243.994048 72.481554 
L 243.994048 71.964932 
L 244.580569 71.964932 
L 244.581992 70.931688 
L 245.627516 70.931688 
L 245.724878 69.898444 
L 245.873407 69.898444 
L 245.873407 69.381822 
L 246.149552 69.381822 
L 246.247682 68.348578 
L 246.508887 68.348578 
L 246.588545 66.798712 
L 247.933277 66.798712 
L 248.022694 65.765468 
L 248.135298 65.765468 
L 248.17956 64.732224 
L 248.358399 64.732224 
L 248.440847 63.69898 
L 250.120342 63.69898 
L 250.120342 63.182358 
L 250.362121 63.182358 
L 250.362121 62.665736 
L 251.454647 62.665736 
L 251.454647 62.149114 
L 251.711865 62.149114 
L 251.780469 61.11587 
L 252.099522 61.11587 
L 252.099522 60.599248 
L 252.679702 60.599248 
L 252.679702 60.082626 
L 253.212254 60.082626 
L 253.212254 59.566004 
L 253.679223 59.566004 
L 253.70678 58.016138 
L 254.097163 58.016138 
L 254.167404 56.982894 
L 254.269253 56.982894 
L 254.269253 56.466272 
L 254.706094 56.466272 
L 254.706094 55.94965 
L 254.882041 55.94965 
L 254.882041 55.433028 
L 255.155947 55.433028 
L 255.181319 53.36654 
L 255.386123 53.36654 
L 255.479728 52.333296 
L 255.699879 52.333296 
L 255.699879 51.300052 
L 256.368987 51.300052 
L 256.368987 50.78343 
L 256.51095 50.78343 
L 256.606481 48.716942 
L 257.024403 48.716942 
L 257.024403 48.20032 
L 257.756283 48.20032 
L 257.756283 47.683698 
L 258.980295 47.683698 
L 258.99078 46.650454 
L 259.956449 46.650454 
L 259.956449 46.133832 
L 261.099275 46.133832 
L 261.099275 45.61721 
L 261.437178 45.61721 
L 261.437178 45.100588 
L 261.926753 45.100588 
L 261.926753 44.583966 
L 262.111875 44.583966 
L 262.111875 44.067344 
L 263.055234 44.067344 
L 263.055234 43.550722 
L 264.737985 43.550722 
L 264.737985 43.0341 
L 265.617666 43.0341 
L 265.631251 42.000855 
L 267.118959 42.000855 
L 267.118959 41.484233 
L 267.786312 41.484233 
L 267.786312 40.967611 
L 268.008387 40.967611 
L 268.008387 40.450989 
L 269.157092 40.450989 
L 269.157092 39.934367 
L 270.396055 39.934367 
L 270.396055 39.417745 
L 273.22564 39.417745 
L 273.22564 38.901123 
L 273.695871 38.901123 
L 273.695871 38.384501 
L 274.684952 38.384501 
L 274.684952 37.867879 
L 275.142239 37.867879 
L 275.142239 37.351257 
L 275.599464 37.351257 
L 275.599464 36.834635 
L 277.742245 36.834635 
L 277.742245 36.318013 
L 279.645462 36.318013 
L 279.645462 35.801391 
L 280.007912 35.801391 
L 280.007912 35.284769 
L 291.538254 35.284769 
L 291.538254 34.768147 
L 358.8 34.768147 
L 358.8 34.768147 
" style="fill:none;stroke:#ff00ff;stroke-linecap:square;stroke-width:1.5;"/>
   </g>
   <g id="line2d_30">
    <defs>
     <path d="M -0 8.485281 
L 5.091169 0 
L 0 -8.485281 
L -5.091169 -0 
z
" id="meab1dd55ac" style="stroke:#ff00ff;stroke-linejoin:miter;stroke-width:1.5;"/>
    </defs>
    <g>
     <use style="fill:none;stroke:#ff00ff;stroke-linejoin:miter;stroke-width:1.5;" x="94.015739" xlink:href="#meab1dd55ac" y="255.365748"/>
     <use style="fill:none;stroke:#ff00ff;stroke-linejoin:miter;stroke-width:1.5;" x="174.273884" xlink:href="#meab1dd55ac" y="208.353144"/>
     <use style="fill:none;stroke:#ff00ff;stroke-linejoin:miter;stroke-width:1.5;" x="227.221298" xlink:href="#meab1dd55ac" y="115.361182"/>
     <use style="fill:none;stroke:#ff00ff;stroke-linejoin:miter;stroke-width:1.5;" x="259.956449" xlink:href="#meab1dd55ac" y="46.133832"/>
     <use style="fill:none;stroke:#ff00ff;stroke-linejoin:miter;stroke-width:1.5;" x="291.538254" xlink:href="#meab1dd55ac" y="34.768147"/>
     <use style="fill:none;stroke:#ff00ff;stroke-linejoin:miter;stroke-width:1.5;" x="358.8" xlink:href="#meab1dd55ac" y="34.768147"/>
    </g>
   </g>
   <g id="line2d_31"/>
   <g id="line2d_32">
    <path clip-path="url(#pd26c6c9029)" d="M 209.87403 149.974857 
" style="fill:none;stroke:#ff00ff;stroke-linecap:square;stroke-width:1.5;"/>
    <defs>
     <path d="M -12 12 
L 12 -12 
M -12 -12 
L 12 12 
" id="m475b065ace" style="stroke:#ff00ff;stroke-width:3;"/>
    </defs>
    <g clip-path="url(#pd26c6c9029)">
     <use style="fill:#ff00ff;stroke:#ff00ff;stroke-width:3;" x="209.87403" xlink:href="#m475b065ace" y="149.974857"/>
    </g>
   </g>
   <g id="line2d_33">
    <defs>
     <path d="M 0 1.5 
C 0.397805 1.5 0.77937 1.341951 1.06066 1.06066 
C 1.341951 0.77937 1.5 0.397805 1.5 0 
C 1.5 -0.397805 1.341951 -0.77937 1.06066 -1.06066 
C 0.77937 -1.341951 0.397805 -1.5 0 -1.5 
C -0.397805 -1.5 -0.77937 -1.341951 -1.06066 -1.06066 
C -1.341951 -0.77937 -1.5 -0.397805 -1.5 0 
C -1.5 0.397805 -1.341951 0.77937 -1.06066 1.06066 
C -0.77937 1.341951 -0.397805 1.5 0 1.5 
z
" id="m78cb5e510c" style="stroke:#ffa500;"/>
    </defs>
    <g>
     <use style="fill:#ffa500;stroke:#ffa500;" x="186.522127" xlink:href="#m78cb5e510c" y="34.768147"/>
     <use style="fill:#ffa500;stroke:#ffa500;" x="186.522127" xlink:href="#m78cb5e510c" y="34.768147"/>
    </g>
   </g>
   <g id="line2d_34">
    <path d="M 51.169868 298.245375 
L 51.169868 296.178887 
L 75.940337 296.178887 
L 75.940337 294.629021 
L 102.815366 294.629021 
L 102.815366 294.112399 
L 104.69796 294.112399 
L 104.69796 293.595777 
L 107.195242 293.595777 
L 107.195242 293.079155 
L 109.385915 293.079155 
L 109.385915 291.529289 
L 110.060263 291.529289 
L 110.060263 290.496045 
L 113.096039 290.496045 
L 113.096039 289.979423 
L 114.697239 289.979423 
L 114.697239 287.912935 
L 116.166679 287.912935 
L 116.166679 285.329825 
L 116.630812 285.329825 
L 116.630812 284.296581 
L 117.083194 284.296581 
L 117.083194 283.779959 
L 117.524404 283.779959 
L 117.524404 283.263337 
L 118.375428 283.263337 
L 118.375428 281.713471 
L 122.111504 281.713471 
L 122.111504 281.196849 
L 122.773362 281.196849 
L 122.773362 279.646982 
L 126.564521 279.646982 
L 126.564521 278.097116 
L 127.335926 278.097116 
L 127.335926 275.514006 
L 128.315246 275.514006 
L 128.315246 273.96414 
L 129.690395 273.96414 
L 129.690395 273.447518 
L 129.909638 273.447518 
L 129.909638 270.864408 
L 131.572989 270.864408 
L 131.572989 268.79792 
L 131.96571 268.79792 
L 131.96571 267.764676 
L 133.455583 267.764676 
L 133.455583 267.248054 
L 133.633376 267.248054 
L 133.633376 266.731432 
L 137.585114 266.731432 
L 137.585114 266.21481 
L 139.210608 266.21481 
L 139.210608 265.698188 
L 139.72116 265.698188 
L 139.72116 264.664944 
L 139.846551 264.664944 
L 139.846551 263.6317 
L 140.339496 263.6317 
L 140.339496 262.598456 
L 140.460636 262.598456 
L 140.460636 262.081834 
L 140.819206 262.081834 
L 140.819206 258.982102 
L 141.286373 258.982102 
L 141.286373 258.46548 
L 141.628903 258.46548 
L 141.628903 257.948858 
L 141.853662 257.948858 
L 141.853662 256.915614 
L 142.403494 256.915614 
L 142.403494 256.398992 
L 143.454862 256.398992 
L 143.454862 255.88237 
L 144.544115 255.88237 
L 144.544115 254.849126 
L 144.73522 254.849126 
L 144.73522 254.332504 
L 144.924302 254.332504 
L 144.924302 252.782638 
L 145.111405 252.782638 
L 145.204226 250.71615 
L 145.570765 250.71615 
L 145.570765 249.166284 
L 147.624865 249.166284 
L 147.705534 247.616418 
L 148.415618 247.616418 
L 148.415618 246.583173 
L 148.798248 246.583173 
L 148.798248 246.066551 
L 149.612257 246.066551 
L 149.612257 244.516685 
L 149.827972 244.516685 
L 149.827972 244.000063 
L 150.459916 244.000063 
L 150.459916 242.966819 
L 150.936427 242.966819 
L 150.936427 240.900331 
L 151.916643 240.900331 
L 151.916643 239.867087 
L 152.106394 239.867087 
L 152.106394 238.833843 
L 152.479957 238.833843 
L 152.479957 237.800599 
L 152.66385 237.800599 
L 152.66385 237.283977 
L 153.145176 237.283977 
L 153.145176 236.767355 
L 153.381062 236.767355 
L 153.381062 235.734111 
L 153.555955 235.734111 
L 153.613874 232.117757 
L 153.729153 232.117757 
L 153.729153 231.601135 
L 153.957503 231.601135 
L 153.957503 231.084513 
L 154.460863 231.084513 
L 154.460863 227.468159 
L 154.950431 227.468159 
L 154.950431 225.918293 
L 155.37462 225.918293 
L 155.37462 225.401671 
L 155.788972 225.401671 
L 155.788972 223.851805 
L 156.043145 223.851805 
L 156.043145 223.335183 
L 156.293754 223.335183 
L 156.293754 222.818561 
L 156.44245 222.818561 
L 156.44245 222.301939 
L 156.881252 222.301939 
L 156.881252 221.785317 
L 157.072869 221.785317 
L 157.072869 220.752073 
L 157.773669 220.752073 
L 157.773669 220.235451 
L 157.91059 220.235451 
L 157.91059 219.718829 
L 158.091535 219.718829 
L 158.091535 218.685585 
L 158.359562 218.685585 
L 158.403845 216.619097 
L 158.579887 216.619097 
L 158.667261 215.069231 
L 158.969752 215.069231 
L 159.055245 211.452876 
L 159.097839 211.452876 
L 159.182724 209.90301 
L 159.724855 209.90301 
L 159.724855 208.869766 
L 159.969627 208.869766 
L 160.050479 207.836522 
L 160.090768 207.836522 
L 160.130966 205.253412 
L 160.370275 205.253412 
L 160.370275 201.637058 
L 160.684447 201.637058 
L 160.684447 198.020704 
L 160.993191 198.020704 
L 160.993191 195.437594 
L 161.742488 195.437594 
L 161.742488 193.887728 
L 162.033625 193.887728 
L 162.033625 193.371106 
L 162.496833 193.371106 
L 162.496833 192.337862 
L 162.776028 192.337862 
L 162.776028 191.82124 
L 163.016795 191.82124 
L 163.118996 190.271374 
L 163.321661 190.271374 
L 163.321661 189.23813 
L 163.81849 189.23813 
L 163.883702 184.588532 
L 163.948677 184.588532 
L 164.045699 182.522044 
L 164.20624 182.522044 
L 164.20624 180.972178 
L 164.617019 180.972178 
L 164.617019 179.938934 
L 164.803471 179.938934 
L 164.803471 178.90569 
L 165.07955 178.90569 
L 165.07955 178.389067 
L 165.200896 178.389067 
L 165.200896 177.872445 
L 165.321424 177.872445 
L 165.321424 176.839201 
L 165.560066 176.839201 
L 165.589674 175.289335 
L 165.853956 175.289335 
L 165.941189 174.256091 
L 165.970172 174.256091 
L 165.970172 173.739469 
L 166.399371 173.739469 
L 166.455826 172.189603 
L 166.735458 172.189603 
L 166.818502 169.606493 
L 166.983439 169.606493 
L 167.038082 165.990139 
L 167.119734 165.990139 
L 167.119734 162.890407 
L 167.254996 162.890407 
L 167.281926 161.340541 
L 167.495918 161.340541 
L 167.575509 159.790675 
L 167.628374 159.790675 
L 167.628374 159.274053 
L 167.786034 159.274053 
L 167.786034 158.240809 
L 167.968231 158.240809 
L 167.968231 157.207565 
L 168.097243 157.207565 
L 168.174206 155.657699 
L 168.225331 155.657699 
L 168.225331 154.624455 
L 168.377833 154.624455 
L 168.377833 154.107833 
L 168.503932 154.107833 
L 168.503932 152.557967 
L 168.827684 152.557967 
L 168.90157 151.008101 
L 168.999612 151.008101 
L 169.048432 149.458235 
L 169.121413 149.458235 
L 169.121413 148.424991 
L 169.290551 148.424991 
L 169.290551 147.908369 
L 169.553147 147.908369 
L 169.600479 144.292014 
L 169.69477 144.292014 
L 169.69477 143.25877 
L 169.835281 143.25877 
L 169.928344 141.708904 
L 170.409129 141.708904 
L 170.454251 139.642416 
L 170.6559 139.642416 
L 170.6559 138.609172 
L 171.182762 138.609172 
L 171.182762 138.09255 
L 171.354986 138.09255 
L 171.440479 134.992818 
L 171.610249 134.992818 
L 171.694533 131.376464 
L 171.841079 131.376464 
L 171.924284 128.793354 
L 171.965741 128.793354 
L 171.965741 127.76011 
L 172.171597 127.76011 
L 172.171597 127.243488 
L 172.415534 127.243488 
L 172.5162 126.210244 
L 172.636255 126.210244 
L 172.715846 124.660378 
L 172.775307 124.660378 
L 172.775307 123.627134 
L 173.030711 123.627134 
L 173.030711 123.110512 
L 173.186087 123.110512 
L 173.186087 121.560646 
L 173.340123 121.560646 
L 173.435726 117.944292 
L 173.454785 117.944292 
L 173.473824 113.811316 
L 173.813102 113.811316 
L 173.887631 111.228206 
L 174.436899 111.228206 
L 174.508875 108.645095 
L 174.59844 108.645095 
L 174.705328 102.962253 
L 174.758534 102.962253 
L 174.793916 100.895765 
L 174.899645 100.895765 
L 174.899645 100.379143 
L 175.074481 100.379143 
L 175.109244 99.345899 
L 175.195856 99.345899 
L 175.195856 98.312655 
L 175.521207 98.312655 
L 175.622731 95.729545 
L 175.639595 95.729545 
L 175.740451 93.146435 
L 175.757204 93.146435 
L 175.8574 91.079947 
L 175.907288 91.079947 
L 176.006647 87.463593 
L 176.105457 87.463593 
L 176.121873 85.913727 
L 176.398651 85.913727 
L 176.463157 84.363861 
L 176.543463 84.363861 
L 176.559481 82.813995 
L 176.766419 82.813995 
L 176.782239 80.747507 
L 176.923987 80.747507 
L 176.970988 79.197641 
L 177.173241 79.197641 
L 177.219592 77.647775 
L 177.419066 77.647775 
L 177.510386 72.998176 
L 177.691636 72.998176 
L 177.751647 70.931688 
L 177.841286 70.931688 
L 177.9453 68.8652 
L 177.974908 68.8652 
L 178.004466 66.28209 
L 178.210018 66.28209 
L 178.239191 63.69898 
L 178.36988 63.69898 
L 178.384343 61.632492 
L 178.528325 61.632492 
L 178.556983 60.599248 
L 178.784605 60.599248 
L 178.855147 59.566004 
L 178.967437 59.566004 
L 178.967437 58.53276 
L 179.286395 58.53276 
L 179.38235 56.466272 
L 179.504968 56.466272 
L 179.559196 55.433028 
L 179.841224 55.433028 
L 179.934253 54.399784 
L 180.24958 54.399784 
L 180.24958 53.36654 
L 180.392267 53.36654 
L 180.392267 52.849918 
L 180.533822 52.849918 
L 180.623323 51.300052 
L 180.686979 51.300052 
L 180.750408 47.683698 
L 180.813614 47.683698 
L 180.889166 46.133832 
L 180.976909 46.133832 
L 180.976909 44.583966 
L 181.151112 44.583966 
L 181.151112 43.550722 
L 181.335892 43.550722 
L 181.335892 43.0341 
L 181.579331 43.0341 
L 181.579331 41.484233 
L 181.735806 41.484233 
L 181.747786 38.901123 
L 181.855245 38.901123 
L 181.855245 37.867879 
L 182.138685 37.867879 
L 182.138685 36.834635 
L 183.38317 36.834635 
L 183.38317 36.318013 
L 183.9108 36.318013 
L 183.9108 35.801391 
L 184.515849 35.801391 
L 184.515849 35.284769 
L 186.522127 35.284769 
L 186.522127 34.768147 
L 358.8 34.768147 
L 358.8 34.768147 
" style="fill:none;stroke:#ffa500;stroke-linecap:square;stroke-width:1.5;"/>
   </g>
   <g id="line2d_35">
    <defs>
     <path d="M 0 -6 
L -1.347084 -1.854102 
L -5.706339 -1.854102 
L -2.179628 0.708204 
L -3.526712 4.854102 
L -0 2.291796 
L 3.526712 4.854102 
L 2.179628 0.708204 
L 5.706339 -1.854102 
L 1.347084 -1.854102 
z
" id="m5e93187866" style="stroke:#ffa500;stroke-linejoin:bevel;stroke-width:1.5;"/>
    </defs>
    <g>
     <use style="fill:none;stroke:#ffa500;stroke-linejoin:bevel;stroke-width:1.5;" x="160.684447" xlink:href="#m5e93187866" y="201.637058"/>
     <use style="fill:none;stroke:#ffa500;stroke-linejoin:bevel;stroke-width:1.5;" x="174.63414" xlink:href="#m5e93187866" y="105.028741"/>
     <use style="fill:none;stroke:#ffa500;stroke-linejoin:bevel;stroke-width:1.5;" x="186.522127" xlink:href="#m5e93187866" y="35.284769"/>
     <use style="fill:none;stroke:#ffa500;stroke-linejoin:bevel;stroke-width:1.5;" x="186.522127" xlink:href="#m5e93187866" y="34.768147"/>
     <use style="fill:none;stroke:#ffa500;stroke-linejoin:bevel;stroke-width:1.5;" x="186.522127" xlink:href="#m5e93187866" y="34.768147"/>
     <use style="fill:none;stroke:#ffa500;stroke-linejoin:bevel;stroke-width:1.5;" x="358.8" xlink:href="#m5e93187866" y="34.768147"/>
    </g>
   </g>
   <g id="line2d_36"/>
   <g id="line2d_37">
    <defs>
     <path d="M 0 1.5 
C 0.397805 1.5 0.77937 1.341951 1.06066 1.06066 
C 1.341951 0.77937 1.5 0.397805 1.5 0 
C 1.5 -0.397805 1.341951 -0.77937 1.06066 -1.06066 
C 0.77937 -1.341951 0.397805 -1.5 0 -1.5 
C -0.397805 -1.5 -0.77937 -1.341951 -1.06066 -1.06066 
C -1.341951 -0.77937 -1.5 -0.397805 -1.5 0 
C -1.5 0.397805 -1.341951 0.77937 -1.06066 1.06066 
C -0.77937 1.341951 -0.397805 1.5 0 1.5 
z
" id="m535d54c950" style="stroke:#6495ed;"/>
    </defs>
    <g>
     <use style="fill:#6495ed;stroke:#6495ed;" x="271.287816" xlink:href="#m535d54c950" y="34.768147"/>
     <use style="fill:#6495ed;stroke:#6495ed;" x="271.287816" xlink:href="#m535d54c950" y="34.768147"/>
    </g>
   </g>
   <g id="line2d_38">
    <path d="M 51.169868 298.245375 
L 51.169868 295.145643 
L 63.555102 295.145643 
L 63.555102 294.112399 
L 70.8 294.112399 
L 70.8 293.595777 
L 79.927491 293.595777 
L 79.927491 293.079155 
L 92.312726 293.079155 
L 92.312726 292.562533 
L 94.015739 292.562533 
L 94.015739 291.012667 
L 95.570468 291.012667 
L 95.570468 288.946179 
L 97.000681 288.946179 
L 97.000681 288.429557 
L 99.557623 288.429557 
L 99.557623 287.912935 
L 104.69796 287.912935 
L 104.69796 287.396313 
L 105.569748 287.396313 
L 105.569748 286.879691 
L 108.685114 286.879691 
L 108.685114 285.846447 
L 109.385915 285.846447 
L 109.385915 284.296581 
L 110.710085 284.296581 
L 110.710085 282.230093 
L 114.179287 282.230093 
L 114.179287 281.196849 
L 115.690168 281.196849 
L 115.690168 279.646982 
L 117.524404 279.646982 
L 117.524404 277.063872 
L 117.954982 277.063872 
L 117.954982 276.030628 
L 118.375428 276.030628 
L 118.375428 273.96414 
L 118.786207 273.96414 
L 118.786207 272.414274 
L 119.187755 272.414274 
L 119.187755 271.897652 
L 119.580476 271.897652 
L 119.580476 271.38103 
L 119.964752 271.38103 
L 119.964752 270.347786 
L 121.070349 270.347786 
L 121.070349 269.314542 
L 123.411577 269.314542 
L 123.411577 268.79792 
L 124.623439 268.79792 
L 124.623439 267.764676 
L 125.481273 267.764676 
L 125.481273 266.21481 
L 125.758304 266.21481 
L 125.758304 265.698188 
L 126.299803 265.698188 
L 126.299803 265.181566 
L 127.082473 265.181566 
L 127.082473 264.148322 
L 127.585834 264.148322 
L 127.585834 263.6317 
L 128.075402 263.6317 
L 128.075402 262.081834 
L 128.315246 262.081834 
L 128.315246 261.04859 
L 128.785487 261.04859 
L 128.785487 259.498724 
L 129.909638 259.498724 
L 129.909638 258.46548 
L 131.171441 258.46548 
L 131.171441 257.432236 
L 131.96571 257.432236 
L 131.96571 256.398992 
L 132.726171 256.398992 
L 132.726171 255.365748 
L 133.094598 255.365748 
L 133.094598 253.815882 
L 133.455583 253.815882 
L 133.455583 252.782638 
L 133.983743 252.782638 
L 133.983743 251.749394 
L 136.107569 251.749394 
L 136.107569 248.649662 
L 137.442737 248.649662 
L 137.442737 247.616418 
L 139.971068 247.616418 
L 139.971068 246.583173 
L 140.217529 246.583173 
L 140.217529 246.066551 
L 140.819206 246.066551 
L 140.819206 244.516685 
L 145.751252 244.516685 
L 145.751252 243.483441 
L 146.01861 243.483441 
L 146.01861 242.450197 
L 151.980117 242.450197 
L 151.980117 241.933575 
L 153.026054 241.933575 
L 153.026054 241.416953 
L 153.20444 241.416953 
L 153.20444 231.084513 
L 154.788728 231.084513 
L 154.788728 226.951537 
L 155.322144 226.951537 
L 155.322144 225.918293 
L 155.788972 225.918293 
L 155.788972 224.885049 
L 155.992599 224.885049 
L 155.992599 222.301939 
L 156.143811 222.301939 
L 156.143811 221.785317 
L 156.638804 221.785317 
L 156.638804 219.718829 
L 157.727795 219.718829 
L 157.727795 218.685585 
L 157.865067 218.685585 
L 157.865067 218.168963 
L 158.710789 218.168963 
L 158.710789 217.652341 
L 159.267206 217.652341 
L 159.267206 216.102475 
L 163.981076 216.102475 
L 163.981076 215.069231 
L 164.523059 215.069231 
L 164.523059 204.73679 
L 164.895972 204.73679 
L 164.895972 204.220168 
L 165.140326 204.220168 
L 165.140326 203.703546 
L 165.707616 203.703546 
L 165.707616 202.15368 
L 166.056841 202.15368 
L 166.056841 194.40435 
L 166.568205 194.40435 
L 166.568205 193.887728 
L 166.87365 193.887728 
L 166.901161 190.787996 
L 167.890374 190.787996 
L 167.942316 189.754752 
L 168.071515 189.754752 
L 168.122934 188.204886 
L 176.023153 188.204886 
L 176.023153 187.688264 
L 177.58613 187.688264 
L 177.58613 187.171642 
L 209.975476 187.171642 
L 209.975476 186.65502 
L 210.110664 186.65502 
L 210.159571 184.588532 
L 210.222951 184.588532 
L 210.232681 183.555288 
L 210.368359 183.555288 
L 210.378011 182.522044 
L 210.608106 182.522044 
L 210.674663 173.739469 
L 210.736245 173.739469 
L 210.821163 169.089871 
L 210.896308 169.089871 
L 210.896308 168.056627 
L 211.193768 168.056627 
L 211.278838 160.823919 
L 211.322366 160.823919 
L 211.41821 151.008101 
L 211.477286 151.008101 
L 211.522596 149.974857 
L 222.310059 149.974857 
L 222.417368 146.875125 
L 222.508138 146.875125 
L 222.592361 144.292014 
L 222.630072 144.292014 
L 222.739105 138.09255 
L 222.931315 138.09255 
L 223.033779 127.76011 
L 229.538041 127.76011 
L 229.583388 125.177 
L 229.726915 125.177 
L 229.825483 118.460914 
L 229.93724 118.460914 
L 230.033855 107.095229 
L 230.05472 107.095229 
L 230.070753 105.028741 
L 234.671152 105.028741 
L 234.737924 103.995497 
L 234.830864 103.995497 
L 234.886029 96.762789 
L 234.970287 96.762789 
L 235.066877 89.013459 
L 238.651988 89.013459 
L 238.651988 88.496837 
L 238.780901 88.496837 
L 238.81237 86.430349 
L 238.903514 86.430349 
L 238.973759 78.681019 
L 241.906343 78.681019 
L 242.013855 76.097908 
L 242.025351 76.097908 
L 242.123173 72.998176 
L 242.143978 72.998176 
L 242.174123 70.415066 
L 244.75051 70.415066 
L 244.844345 66.798712 
L 244.862213 66.798712 
L 244.888806 63.69898 
L 247.123158 63.69898 
L 247.221008 54.916406 
L 249.163219 54.916406 
L 249.250811 51.816674 
L 249.304417 51.816674 
L 249.32516 49.750186 
L 251.091667 49.750186 
L 251.15752 46.650454 
L 252.73974 46.650454 
L 252.787895 44.583966 
L 252.859213 44.583966 
L 252.859213 44.067344 
L 254.336968 44.067344 
L 254.402374 42.000855 
L 255.729257 42.000855 
L 255.822793 38.901123 
L 257.082458 38.901123 
L 257.138563 37.351257 
L 259.46174 37.351257 
L 259.46174 36.834635 
L 260.54224 36.834635 
L 260.54224 35.801391 
L 261.56111 35.801391 
L 261.56111 35.284769 
L 271.287816 35.284769 
L 271.287816 34.768147 
L 358.8 34.768147 
L 358.8 34.768147 
" style="fill:none;stroke:#6495ed;stroke-linecap:square;stroke-width:1.5;"/>
   </g>
   <g id="line2d_39">
    <defs>
     <path d="M -0 6 
L 6 -6 
L -6 -6 
z
" id="m4ebda91b43" style="stroke:#6495ed;stroke-linejoin:miter;stroke-width:1.5;"/>
    </defs>
    <g>
     <use style="fill:none;stroke:#6495ed;stroke-linejoin:miter;stroke-width:1.5;" x="132.726171" xlink:href="#m4ebda91b43" y="256.398992"/>
     <use style="fill:none;stroke:#6495ed;stroke-linejoin:miter;stroke-width:1.5;" x="177.58613" xlink:href="#m4ebda91b43" y="187.171642"/>
     <use style="fill:none;stroke:#6495ed;stroke-linejoin:miter;stroke-width:1.5;" x="230.00975" xlink:href="#m4ebda91b43" y="108.128473"/>
     <use style="fill:none;stroke:#6495ed;stroke-linejoin:miter;stroke-width:1.5;" x="271.287816" xlink:href="#m4ebda91b43" y="34.768147"/>
     <use style="fill:none;stroke:#6495ed;stroke-linejoin:miter;stroke-width:1.5;" x="271.287816" xlink:href="#m4ebda91b43" y="34.768147"/>
     <use style="fill:none;stroke:#6495ed;stroke-linejoin:miter;stroke-width:1.5;" x="358.8" xlink:href="#m4ebda91b43" y="34.768147"/>
    </g>
   </g>
   <g id="line2d_40"/>
   <g id="line2d_41">
    <path clip-path="url(#pd26c6c9029)" d="M 209.87403 187.171642 
" style="fill:none;stroke:#6495ed;stroke-linecap:square;stroke-width:1.5;"/>
    <defs>
     <path d="M -12 12 
L 12 -12 
M -12 -12 
L 12 12 
" id="mbc2ba4c8c9" style="stroke:#6495ed;stroke-width:3;"/>
    </defs>
    <g clip-path="url(#pd26c6c9029)">
     <use style="fill:#6495ed;stroke:#6495ed;stroke-width:3;" x="209.87403" xlink:href="#mbc2ba4c8c9" y="187.171642"/>
    </g>
   </g>
   <g id="line2d_42">
    <path d="M 358.8 158.757431 
L 390.48 292.97583 
" style="fill:none;stroke:#000080;stroke-linecap:square;stroke-width:1.5;"/>
    <g>
     <use style="fill:none;stroke:#000080;stroke-width:1.5;" x="358.8" xlink:href="#m62c146dae9" y="158.757431"/>
     <use style="fill:none;stroke:#000080;stroke-width:1.5;" x="390.48" xlink:href="#m62c146dae9" y="292.97583"/>
    </g>
   </g>
   <g id="line2d_43">
    <path d="M 358.8 34.768147 
L 390.48 208.663118 
" style="fill:none;stroke:#ff00ff;stroke-linecap:square;stroke-width:1.5;"/>
    <g>
     <use style="fill:none;stroke:#ff00ff;stroke-linejoin:miter;stroke-width:1.5;" x="358.8" xlink:href="#meab1dd55ac" y="34.768147"/>
     <use style="fill:none;stroke:#ff00ff;stroke-linejoin:miter;stroke-width:1.5;" x="390.48" xlink:href="#meab1dd55ac" y="208.663118"/>
    </g>
   </g>
   <g id="line2d_44">
    <path d="M 358.8 34.768147 
L 390.48 124.350405 
" style="fill:none;stroke:#6495ed;stroke-linecap:square;stroke-width:1.5;"/>
    <g>
     <use style="fill:none;stroke:#6495ed;stroke-linejoin:miter;stroke-width:1.5;" x="358.8" xlink:href="#m4ebda91b43" y="34.768147"/>
     <use style="fill:none;stroke:#6495ed;stroke-linejoin:miter;stroke-width:1.5;" x="390.48" xlink:href="#m4ebda91b43" y="124.350405"/>
    </g>
   </g>
   <g id="line2d_45">
    <path d="M 358.8 34.768147 
L 390.48 40.037692 
" style="fill:none;stroke:#ffa500;stroke-linecap:square;stroke-width:1.5;"/>
    <g>
     <use style="fill:none;stroke:#ffa500;stroke-linejoin:bevel;stroke-width:1.5;" x="358.8" xlink:href="#m5e93187866" y="34.768147"/>
     <use style="fill:none;stroke:#ffa500;stroke-linejoin:bevel;stroke-width:1.5;" x="390.48" xlink:href="#m5e93187866" y="40.037692"/>
    </g>
   </g>
   <g id="line2d_46">
    <path d="M 358.8 298.245375 
L 358.8 34.768147 
" style="fill:none;stroke:#000000;stroke-linecap:square;stroke-width:1.5;"/>
   </g>
   <g id="patch_3">
    <path d="M 70.8 298.245375 
L 70.8 32.133375 
" style="fill:none;stroke:#000000;stroke-linecap:square;stroke-linejoin:miter;stroke-width:0.8;"/>
   </g>
   <g id="patch_4">
    <path d="M 427.92 298.245375 
L 427.92 32.133375 
" style="fill:none;stroke:#000000;stroke-linecap:square;stroke-linejoin:miter;stroke-width:0.8;"/>
   </g>
   <g id="patch_5">
    <path d="M 70.8 298.245375 
L 427.92 298.245375 
" style="fill:none;stroke:#000000;stroke-linecap:square;stroke-linejoin:miter;stroke-width:0.8;"/>
   </g>
   <g id="patch_6">
    <path d="M 70.8 32.133375 
L 427.92 32.133375 
" style="fill:none;stroke:#000000;stroke-linecap:square;stroke-linejoin:miter;stroke-width:0.8;"/>
   </g>
   <g id="text_14">
    <!-- f8 -->
    <g transform="translate(396.24 297.114893)scale(0.15 -0.15)">
     <use xlink:href="#DejaVuSans-66"/>
     <use x="35.205078" xlink:href="#DejaVuSans-38"/>
    </g>
   </g>
   <g id="text_15">
    <!-- f9 -->
    <defs>
     <path d="M 10.984375 1.515625 
L 10.984375 10.5 
Q 14.703125 8.734375 18.5 7.8125 
Q 22.3125 6.890625 25.984375 6.890625 
Q 35.75 6.890625 40.890625 13.453125 
Q 46.046875 20.015625 46.78125 33.40625 
Q 43.953125 29.203125 39.59375 26.953125 
Q 35.25 24.703125 29.984375 24.703125 
Q 19.046875 24.703125 12.671875 31.3125 
Q 6.296875 37.9375 6.296875 49.421875 
Q 6.296875 60.640625 12.9375 67.421875 
Q 19.578125 74.21875 30.609375 74.21875 
Q 43.265625 74.21875 49.921875 64.515625 
Q 56.59375 54.828125 56.59375 36.375 
Q 56.59375 19.140625 48.40625 8.859375 
Q 40.234375 -1.421875 26.421875 -1.421875 
Q 22.703125 -1.421875 18.890625 -0.6875 
Q 15.09375 0.046875 10.984375 1.515625 
z
M 30.609375 32.421875 
Q 37.25 32.421875 41.125 36.953125 
Q 45.015625 41.5 45.015625 49.421875 
Q 45.015625 57.28125 41.125 61.84375 
Q 37.25 66.40625 30.609375 66.40625 
Q 23.96875 66.40625 20.09375 61.84375 
Q 16.21875 57.28125 16.21875 49.421875 
Q 16.21875 41.5 20.09375 36.953125 
Q 23.96875 32.421875 30.609375 32.421875 
z
" id="DejaVuSans-39"/>
    </defs>
    <g transform="translate(396.24 212.80218)scale(0.15 -0.15)">
     <use xlink:href="#DejaVuSans-66"/>
     <use x="35.205078" xlink:href="#DejaVuSans-39"/>
    </g>
   </g>
   <g id="text_16">
    <!-- f7 -->
    <defs>
     <path d="M 8.203125 72.90625 
L 55.078125 72.90625 
L 55.078125 68.703125 
L 28.609375 0 
L 18.3125 0 
L 43.21875 64.59375 
L 8.203125 64.59375 
z
" id="DejaVuSans-37"/>
    </defs>
    <g transform="translate(396.24 128.489467)scale(0.15 -0.15)">
     <use xlink:href="#DejaVuSans-66"/>
     <use x="35.205078" xlink:href="#DejaVuSans-37"/>
    </g>
   </g>
   <g id="text_17">
    <!-- f6 -->
    <g transform="translate(396.24 44.176754)scale(0.15 -0.15)">
     <use xlink:href="#DejaVuSans-66"/>
     <use x="35.205078" xlink:href="#DejaVuSans-36"/>
    </g>
   </g>
   <g id="text_18">
    <!-- bbob -->
    <defs>
     <path d="M 48.6875 27.296875 
Q 48.6875 37.203125 44.609375 42.84375 
Q 40.53125 48.484375 33.40625 48.484375 
Q 26.265625 48.484375 22.1875 42.84375 
Q 18.109375 37.203125 18.109375 27.296875 
Q 18.109375 17.390625 22.1875 11.75 
Q 26.265625 6.109375 33.40625 6.109375 
Q 40.53125 6.109375 44.609375 11.75 
Q 48.6875 17.390625 48.6875 27.296875 
z
M 18.109375 46.390625 
Q 20.953125 51.265625 25.265625 53.625 
Q 29.59375 56 35.59375 56 
Q 45.5625 56 51.78125 48.09375 
Q 58.015625 40.1875 58.015625 27.296875 
Q 58.015625 14.40625 51.78125 6.484375 
Q 45.5625 -1.421875 35.59375 -1.421875 
Q 29.59375 -1.421875 25.265625 0.953125 
Q 20.953125 3.328125 18.109375 8.203125 
L 18.109375 0 
L 9.078125 0 
L 9.078125 75.984375 
L 18.109375 75.984375 
z
" id="DejaVuSans-62"/>
    </defs>
    <g transform="translate(74.3712 50.114612)scale(0.1666 -0.1666)">
     <use xlink:href="#DejaVuSans-62"/>
     <use x="63.476562" xlink:href="#DejaVuSans-62"/>
     <use x="126.953125" xlink:href="#DejaVuSans-6f"/>
     <use x="188.134766" xlink:href="#DejaVuSans-62"/>
    </g>
    <!-- Misc. moderate functions, 3-D -->
    <defs>
     <path d="M 9.8125 72.90625 
L 24.515625 72.90625 
L 43.109375 23.296875 
L 61.8125 72.90625 
L 76.515625 72.90625 
L 76.515625 0 
L 66.890625 0 
L 66.890625 64.015625 
L 48.09375 14.015625 
L 38.1875 14.015625 
L 19.390625 64.015625 
L 19.390625 0 
L 9.8125 0 
z
" id="DejaVuSans-4d"/>
     <path d="M 11.71875 12.40625 
L 22.015625 12.40625 
L 22.015625 4 
L 14.015625 -11.625 
L 7.71875 -11.625 
L 11.71875 4 
z
" id="DejaVuSans-2c"/>
     <path d="M 40.578125 39.3125 
Q 47.65625 37.796875 51.625 33 
Q 55.609375 28.21875 55.609375 21.1875 
Q 55.609375 10.40625 48.1875 4.484375 
Q 40.765625 -1.421875 27.09375 -1.421875 
Q 22.515625 -1.421875 17.65625 -0.515625 
Q 12.796875 0.390625 7.625 2.203125 
L 7.625 11.71875 
Q 11.71875 9.328125 16.59375 8.109375 
Q 21.484375 6.890625 26.8125 6.890625 
Q 36.078125 6.890625 40.9375 10.546875 
Q 45.796875 14.203125 45.796875 21.1875 
Q 45.796875 27.640625 41.28125 31.265625 
Q 36.765625 34.90625 28.71875 34.90625 
L 20.21875 34.90625 
L 20.21875 43.015625 
L 29.109375 43.015625 
Q 36.375 43.015625 40.234375 45.921875 
Q 44.09375 48.828125 44.09375 54.296875 
Q 44.09375 59.90625 40.109375 62.90625 
Q 36.140625 65.921875 28.71875 65.921875 
Q 24.65625 65.921875 20.015625 65.03125 
Q 15.375 64.15625 9.8125 62.3125 
L 9.8125 71.09375 
Q 15.4375 72.65625 20.34375 73.4375 
Q 25.25 74.21875 29.59375 74.21875 
Q 40.828125 74.21875 47.359375 69.109375 
Q 53.90625 64.015625 53.90625 55.328125 
Q 53.90625 49.265625 50.4375 45.09375 
Q 46.96875 40.921875 40.578125 39.3125 
z
" id="DejaVuSans-33"/>
     <path d="M 19.671875 64.796875 
L 19.671875 8.109375 
L 31.59375 8.109375 
Q 46.6875 8.109375 53.6875 14.9375 
Q 60.6875 21.78125 60.6875 36.53125 
Q 60.6875 51.171875 53.6875 57.984375 
Q 46.6875 64.796875 31.59375 64.796875 
z
M 9.8125 72.90625 
L 30.078125 72.90625 
Q 51.265625 72.90625 61.171875 64.09375 
Q 71.09375 55.28125 71.09375 36.53125 
Q 71.09375 17.671875 61.125 8.828125 
Q 51.171875 0 30.078125 0 
L 9.8125 0 
z
" id="DejaVuSans-44"/>
    </defs>
    <g transform="translate(74.3712 68.770168)scale(0.1666 -0.1666)">
     <use xlink:href="#DejaVuSans-4d"/>
     <use x="86.279297" xlink:href="#DejaVuSans-69"/>
     <use x="114.0625" xlink:href="#DejaVuSans-73"/>
     <use x="166.162109" xlink:href="#DejaVuSans-63"/>
     <use x="221.142578" xlink:href="#DejaVuSans-2e"/>
     <use x="252.929688" xlink:href="#DejaVuSans-20"/>
     <use x="284.716797" xlink:href="#DejaVuSans-6d"/>
     <use x="382.128906" xlink:href="#DejaVuSans-6f"/>
     <use x="443.310547" xlink:href="#DejaVuSans-64"/>
     <use x="506.787109" xlink:href="#DejaVuSans-65"/>
     <use x="568.310547" xlink:href="#DejaVuSans-72"/>
     <use x="609.423828" xlink:href="#DejaVuSans-61"/>
     <use x="670.703125" xlink:href="#DejaVuSans-74"/>
     <use x="709.912109" xlink:href="#DejaVuSans-65"/>
     <use x="771.435547" xlink:href="#DejaVuSans-20"/>
     <use x="803.222656" xlink:href="#DejaVuSans-66"/>
     <use x="838.427734" xlink:href="#DejaVuSans-75"/>
     <use x="901.806641" xlink:href="#DejaVuSans-6e"/>
     <use x="965.185547" xlink:href="#DejaVuSans-63"/>
     <use x="1020.166016" xlink:href="#DejaVuSans-74"/>
     <use x="1059.375" xlink:href="#DejaVuSans-69"/>
     <use x="1087.158203" xlink:href="#DejaVuSans-6f"/>
     <use x="1148.339844" xlink:href="#DejaVuSans-6e"/>
     <use x="1211.71875" xlink:href="#DejaVuSans-73"/>
     <use x="1263.818359" xlink:href="#DejaVuSans-2c"/>
     <use x="1295.605469" xlink:href="#DejaVuSans-20"/>
     <use x="1327.392578" xlink:href="#DejaVuSans-33"/>
     <use x="1391.015625" xlink:href="#DejaVuSans-2d"/>
     <use x="1427.099609" xlink:href="#DejaVuSans-44"/>
    </g>
    <!-- 51 targets in 100..1e-08 -->
    <defs>
     <path d="M 10.796875 72.90625 
L 49.515625 72.90625 
L 49.515625 64.59375 
L 19.828125 64.59375 
L 19.828125 46.734375 
Q 21.96875 47.46875 24.109375 47.828125 
Q 26.265625 48.1875 28.421875 48.1875 
Q 40.625 48.1875 47.75 41.5 
Q 54.890625 34.8125 54.890625 23.390625 
Q 54.890625 11.625 47.5625 5.09375 
Q 40.234375 -1.421875 26.90625 -1.421875 
Q 22.3125 -1.421875 17.546875 -0.640625 
Q 12.796875 0.140625 7.71875 1.703125 
L 7.71875 11.625 
Q 12.109375 9.234375 16.796875 8.0625 
Q 21.484375 6.890625 26.703125 6.890625 
Q 35.15625 6.890625 40.078125 11.328125 
Q 45.015625 15.765625 45.015625 23.390625 
Q 45.015625 31 40.078125 35.4375 
Q 35.15625 39.890625 26.703125 39.890625 
Q 22.75 39.890625 18.8125 39.015625 
Q 14.890625 38.140625 10.796875 36.28125 
z
" id="DejaVuSans-35"/>
    </defs>
    <g transform="translate(74.3712 87.425723)scale(0.1666 -0.1666)">
     <use xlink:href="#DejaVuSans-35"/>
     <use x="63.623047" xlink:href="#DejaVuSans-31"/>
     <use x="127.246094" xlink:href="#DejaVuSans-20"/>
     <use x="159.033203" xlink:href="#DejaVuSans-74"/>
     <use x="198.242188" xlink:href="#DejaVuSans-61"/>
     <use x="259.521484" xlink:href="#DejaVuSans-72"/>
     <use x="300.619141" xlink:href="#DejaVuSans-67"/>
     <use x="364.095703" xlink:href="#DejaVuSans-65"/>
     <use x="425.619141" xlink:href="#DejaVuSans-74"/>
     <use x="464.828125" xlink:href="#DejaVuSans-73"/>
     <use x="516.927734" xlink:href="#DejaVuSans-20"/>
     <use x="548.714844" xlink:href="#DejaVuSans-69"/>
     <use x="576.498047" xlink:href="#DejaVuSans-6e"/>
     <use x="639.876953" xlink:href="#DejaVuSans-20"/>
     <use x="671.664062" xlink:href="#DejaVuSans-31"/>
     <use x="735.287109" xlink:href="#DejaVuSans-30"/>
     <use x="798.910156" xlink:href="#DejaVuSans-30"/>
     <use x="862.533203" xlink:href="#DejaVuSans-2e"/>
     <use x="894.320312" xlink:href="#DejaVuSans-2e"/>
     <use x="926.107422" xlink:href="#DejaVuSans-31"/>
     <use x="989.730469" xlink:href="#DejaVuSans-65"/>
     <use x="1051.253906" xlink:href="#DejaVuSans-2d"/>
     <use x="1087.337891" xlink:href="#DejaVuSans-30"/>
     <use x="1150.960938" xlink:href="#DejaVuSans-38"/>
    </g>
    <!-- 15 instances -->
    <g transform="translate(74.3712 106.081279)scale(0.1666 -0.1666)">
     <use xlink:href="#DejaVuSans-31"/>
     <use x="63.623047" xlink:href="#DejaVuSans-35"/>
     <use x="127.246094" xlink:href="#DejaVuSans-20"/>
     <use x="159.033203" xlink:href="#DejaVuSans-69"/>
     <use x="186.816406" xlink:href="#DejaVuSans-6e"/>
     <use x="250.195312" xlink:href="#DejaVuSans-73"/>
     <use x="302.294922" xlink:href="#DejaVuSans-74"/>
     <use x="341.503906" xlink:href="#DejaVuSans-61"/>
     <use x="402.783203" xlink:href="#DejaVuSans-6e"/>
     <use x="466.162109" xlink:href="#DejaVuSans-63"/>
     <use x="521.142578" xlink:href="#DejaVuSans-65"/>
     <use x="582.666016" xlink:href="#DejaVuSans-73"/>
    </g>
   </g>
   <g id="text_19">
    <!-- v2.1 -->
    <g style="fill:#808080;" transform="translate(238.449063 293.504568)scale(0.1 -0.1)">
     <use xlink:href="#DejaVuSans-76"/>
     <use x="59.179688" xlink:href="#DejaVuSans-32"/>
     <use x="122.802734" xlink:href="#DejaVuSans-2e"/>
     <use x="154.589844" xlink:href="#DejaVuSans-31"/>
    </g>
   </g>
  </g>
 </g>
 <defs>
  <clipPath id="pd26c6c9029">
   <rect height="266.112" width="357.12" x="70.8" y="32.133375"/>
  </clipPath>
 </defs>
</svg>
