<?xml version="1.0" encoding="utf-8" standalone="no"?>
<!DOCTYPE svg PUBLIC "-//W3C//DTD SVG 1.1//EN"
  "http://www.w3.org/Graphics/SVG/1.1/DTD/svg11.dtd">
<!-- Created with matplotlib (http://matplotlib.org/) -->
<svg height="353pt" version="1.1" viewBox="0 0 438 353" width="438pt" xmlns="http://www.w3.org/2000/svg" xmlns:xlink="http://www.w3.org/1999/xlink">
 <defs>
  <style type="text/css">
*{stroke-linecap:butt;stroke-linejoin:round;}
  </style>
 </defs>
 <g id="figure_1">
  <g id="patch_1">
   <path d="M 0 353.22225 
L 438.62 353.22225 
L 438.62 0 
L 0 0 
z
" style="fill:#ffffff;"/>
  </g>
  <g id="axes_1">
   <g id="patch_2">
    <path d="M 70.8 298.245375 
L 427.92 298.245375 
L 427.92 32.133375 
L 70.8 32.133375 
z
" style="fill:#ffffff;"/>
   </g>
   <g id="matplotlib.axis_1">
    <g id="xtick_1">
     <g id="line2d_1">
      <path clip-path="url(#p7da6ddf3dc)" d="M 70.8 298.245375 
L 70.8 32.133375 
" style="fill:none;stroke:#b0b0b0;stroke-linecap:square;stroke-width:0.8;"/>
     </g>
     <g id="line2d_2">
      <defs>
       <path d="M 0 0 
L 0 3.5 
" id="ma8ff999ccb" style="stroke:#000000;stroke-width:0.8;"/>
      </defs>
      <g>
       <use style="stroke:#000000;stroke-width:0.8;" x="70.8" xlink:href="#ma8ff999ccb" y="298.245375"/>
      </g>
     </g>
     <g id="text_1">
      <!-- 0 -->
      <defs>
       <path d="M 31.78125 66.40625 
Q 24.171875 66.40625 20.328125 58.90625 
Q 16.5 51.421875 16.5 36.375 
Q 16.5 21.390625 20.328125 13.890625 
Q 24.171875 6.390625 31.78125 6.390625 
Q 39.453125 6.390625 43.28125 13.890625 
Q 47.125 21.390625 47.125 36.375 
Q 47.125 51.421875 43.28125 58.90625 
Q 39.453125 66.40625 31.78125 66.40625 
z
M 31.78125 74.21875 
Q 44.046875 74.21875 50.515625 64.515625 
Q 56.984375 54.828125 56.984375 36.375 
Q 56.984375 17.96875 50.515625 8.265625 
Q 44.046875 -1.421875 31.78125 -1.421875 
Q 19.53125 -1.421875 13.0625 8.265625 
Q 6.59375 17.96875 6.59375 36.375 
Q 6.59375 54.828125 13.0625 64.515625 
Q 19.53125 74.21875 31.78125 74.21875 
z
" id="DejaVuSans-30"/>
      </defs>
      <g transform="translate(64.4375 320.44225)scale(0.2 -0.2)">
       <use xlink:href="#DejaVuSans-30"/>
      </g>
     </g>
    </g>
    <g id="xtick_2">
     <g id="line2d_3">
      <path clip-path="url(#p7da6ddf3dc)" d="M 153.085714 298.245375 
L 153.085714 32.133375 
" style="fill:none;stroke:#b0b0b0;stroke-linecap:square;stroke-width:0.8;"/>
     </g>
     <g id="line2d_4">
      <g>
       <use style="stroke:#000000;stroke-width:0.8;" x="153.085714" xlink:href="#ma8ff999ccb" y="298.245375"/>
      </g>
     </g>
     <g id="text_2">
      <!-- 2 -->
      <defs>
       <path d="M 19.1875 8.296875 
L 53.609375 8.296875 
L 53.609375 0 
L 7.328125 0 
L 7.328125 8.296875 
Q 12.9375 14.109375 22.625 23.890625 
Q 32.328125 33.6875 34.8125 36.53125 
Q 39.546875 41.84375 41.421875 45.53125 
Q 43.3125 49.21875 43.3125 52.78125 
Q 43.3125 58.59375 39.234375 62.25 
Q 35.15625 65.921875 28.609375 65.921875 
Q 23.96875 65.921875 18.8125 64.3125 
Q 13.671875 62.703125 7.8125 59.421875 
L 7.8125 69.390625 
Q 13.765625 71.78125 18.9375 73 
Q 24.125 74.21875 28.421875 74.21875 
Q 39.75 74.21875 46.484375 68.546875 
Q 53.21875 62.890625 53.21875 53.421875 
Q 53.21875 48.921875 51.53125 44.890625 
Q 49.859375 40.875 45.40625 35.40625 
Q 44.1875 33.984375 37.640625 27.21875 
Q 31.109375 20.453125 19.1875 8.296875 
z
" id="DejaVuSans-32"/>
      </defs>
      <g transform="translate(146.723214 320.44225)scale(0.2 -0.2)">
       <use xlink:href="#DejaVuSans-32"/>
      </g>
     </g>
    </g>
    <g id="xtick_3">
     <g id="line2d_5">
      <path clip-path="url(#p7da6ddf3dc)" d="M 235.371429 298.245375 
L 235.371429 32.133375 
" style="fill:none;stroke:#b0b0b0;stroke-linecap:square;stroke-width:0.8;"/>
     </g>
     <g id="line2d_6">
      <g>
       <use style="stroke:#000000;stroke-width:0.8;" x="235.371429" xlink:href="#ma8ff999ccb" y="298.245375"/>
      </g>
     </g>
     <g id="text_3">
      <!-- 4 -->
      <defs>
       <path d="M 37.796875 64.3125 
L 12.890625 25.390625 
L 37.796875 25.390625 
z
M 35.203125 72.90625 
L 47.609375 72.90625 
L 47.609375 25.390625 
L 58.015625 25.390625 
L 58.015625 17.1875 
L 47.609375 17.1875 
L 47.609375 0 
L 37.796875 0 
L 37.796875 17.1875 
L 4.890625 17.1875 
L 4.890625 26.703125 
z
" id="DejaVuSans-34"/>
      </defs>
      <g transform="translate(229.008929 320.44225)scale(0.2 -0.2)">
       <use xlink:href="#DejaVuSans-34"/>
      </g>
     </g>
    </g>
    <g id="xtick_4">
     <g id="line2d_7">
      <path clip-path="url(#p7da6ddf3dc)" d="M 317.657143 298.245375 
L 317.657143 32.133375 
" style="fill:none;stroke:#b0b0b0;stroke-linecap:square;stroke-width:0.8;"/>
     </g>
     <g id="line2d_8">
      <g>
       <use style="stroke:#000000;stroke-width:0.8;" x="317.657143" xlink:href="#ma8ff999ccb" y="298.245375"/>
      </g>
     </g>
     <g id="text_4">
      <!-- 6 -->
      <defs>
       <path d="M 33.015625 40.375 
Q 26.375 40.375 22.484375 35.828125 
Q 18.609375 31.296875 18.609375 23.390625 
Q 18.609375 15.53125 22.484375 10.953125 
Q 26.375 6.390625 33.015625 6.390625 
Q 39.65625 6.390625 43.53125 10.953125 
Q 47.40625 15.53125 47.40625 23.390625 
Q 47.40625 31.296875 43.53125 35.828125 
Q 39.65625 40.375 33.015625 40.375 
z
M 52.59375 71.296875 
L 52.59375 62.3125 
Q 48.875 64.0625 45.09375 64.984375 
Q 41.3125 65.921875 37.59375 65.921875 
Q 27.828125 65.921875 22.671875 59.328125 
Q 17.53125 52.734375 16.796875 39.40625 
Q 19.671875 43.65625 24.015625 45.921875 
Q 28.375 48.1875 33.59375 48.1875 
Q 44.578125 48.1875 50.953125 41.515625 
Q 57.328125 34.859375 57.328125 23.390625 
Q 57.328125 12.15625 50.6875 5.359375 
Q 44.046875 -1.421875 33.015625 -1.421875 
Q 20.359375 -1.421875 13.671875 8.265625 
Q 6.984375 17.96875 6.984375 36.375 
Q 6.984375 53.65625 15.1875 63.9375 
Q 23.390625 74.21875 37.203125 74.21875 
Q 40.921875 74.21875 44.703125 73.484375 
Q 48.484375 72.75 52.59375 71.296875 
z
" id="DejaVuSans-36"/>
      </defs>
      <g transform="translate(311.294643 320.44225)scale(0.2 -0.2)">
       <use xlink:href="#DejaVuSans-36"/>
      </g>
     </g>
    </g>
    <g id="xtick_5">
     <g id="line2d_9">
      <path clip-path="url(#p7da6ddf3dc)" d="M 399.942857 298.245375 
L 399.942857 32.133375 
" style="fill:none;stroke:#b0b0b0;stroke-linecap:square;stroke-width:0.8;"/>
     </g>
     <g id="line2d_10">
      <g>
       <use style="stroke:#000000;stroke-width:0.8;" x="399.942857" xlink:href="#ma8ff999ccb" y="298.245375"/>
      </g>
     </g>
     <g id="text_5">
      <!-- 8 -->
      <defs>
       <path d="M 31.78125 34.625 
Q 24.75 34.625 20.71875 30.859375 
Q 16.703125 27.09375 16.703125 20.515625 
Q 16.703125 13.921875 20.71875 10.15625 
Q 24.75 6.390625 31.78125 6.390625 
Q 38.8125 6.390625 42.859375 10.171875 
Q 46.921875 13.96875 46.921875 20.515625 
Q 46.921875 27.09375 42.890625 30.859375 
Q 38.875 34.625 31.78125 34.625 
z
M 21.921875 38.8125 
Q 15.578125 40.375 12.03125 44.71875 
Q 8.5 49.078125 8.5 55.328125 
Q 8.5 64.0625 14.71875 69.140625 
Q 20.953125 74.21875 31.78125 74.21875 
Q 42.671875 74.21875 48.875 69.140625 
Q 55.078125 64.0625 55.078125 55.328125 
Q 55.078125 49.078125 51.53125 44.71875 
Q 48 40.375 41.703125 38.8125 
Q 48.828125 37.15625 52.796875 32.3125 
Q 56.78125 27.484375 56.78125 20.515625 
Q 56.78125 9.90625 50.3125 4.234375 
Q 43.84375 -1.421875 31.78125 -1.421875 
Q 19.734375 -1.421875 13.25 4.234375 
Q 6.78125 9.90625 6.78125 20.515625 
Q 6.78125 27.484375 10.78125 32.3125 
Q 14.796875 37.15625 21.921875 38.8125 
z
M 18.3125 54.390625 
Q 18.3125 48.734375 21.84375 45.5625 
Q 25.390625 42.390625 31.78125 42.390625 
Q 38.140625 42.390625 41.71875 45.5625 
Q 45.3125 48.734375 45.3125 54.390625 
Q 45.3125 60.0625 41.71875 63.234375 
Q 38.140625 66.40625 31.78125 66.40625 
Q 25.390625 66.40625 21.84375 63.234375 
Q 18.3125 60.0625 18.3125 54.390625 
z
" id="DejaVuSans-38"/>
      </defs>
      <g transform="translate(393.580357 320.44225)scale(0.2 -0.2)">
       <use xlink:href="#DejaVuSans-38"/>
      </g>
     </g>
    </g>
    <g id="text_6">
     <!-- log10 of (# f-evals / dimension) -->
     <defs>
      <path d="M 9.421875 75.984375 
L 18.40625 75.984375 
L 18.40625 0 
L 9.421875 0 
z
" id="DejaVuSans-6c"/>
      <path d="M 30.609375 48.390625 
Q 23.390625 48.390625 19.1875 42.75 
Q 14.984375 37.109375 14.984375 27.296875 
Q 14.984375 17.484375 19.15625 11.84375 
Q 23.34375 6.203125 30.609375 6.203125 
Q 37.796875 6.203125 41.984375 11.859375 
Q 46.1875 17.53125 46.1875 27.296875 
Q 46.1875 37.015625 41.984375 42.703125 
Q 37.796875 48.390625 30.609375 48.390625 
z
M 30.609375 56 
Q 42.328125 56 49.015625 48.375 
Q 55.71875 40.765625 55.71875 27.296875 
Q 55.71875 13.875 49.015625 6.21875 
Q 42.328125 -1.421875 30.609375 -1.421875 
Q 18.84375 -1.421875 12.171875 6.21875 
Q 5.515625 13.875 5.515625 27.296875 
Q 5.515625 40.765625 12.171875 48.375 
Q 18.84375 56 30.609375 56 
z
" id="DejaVuSans-6f"/>
      <path d="M 45.40625 27.984375 
Q 45.40625 37.75 41.375 43.109375 
Q 37.359375 48.484375 30.078125 48.484375 
Q 22.859375 48.484375 18.828125 43.109375 
Q 14.796875 37.75 14.796875 27.984375 
Q 14.796875 18.265625 18.828125 12.890625 
Q 22.859375 7.515625 30.078125 7.515625 
Q 37.359375 7.515625 41.375 12.890625 
Q 45.40625 18.265625 45.40625 27.984375 
z
M 54.390625 6.78125 
Q 54.390625 -7.171875 48.1875 -13.984375 
Q 42 -20.796875 29.203125 -20.796875 
Q 24.46875 -20.796875 20.265625 -20.09375 
Q 16.0625 -19.390625 12.109375 -17.921875 
L 12.109375 -9.1875 
Q 16.0625 -11.328125 19.921875 -12.34375 
Q 23.78125 -13.375 27.78125 -13.375 
Q 36.625 -13.375 41.015625 -8.765625 
Q 45.40625 -4.15625 45.40625 5.171875 
L 45.40625 9.625 
Q 42.625 4.78125 38.28125 2.390625 
Q 33.9375 0 27.875 0 
Q 17.828125 0 11.671875 7.65625 
Q 5.515625 15.328125 5.515625 27.984375 
Q 5.515625 40.671875 11.671875 48.328125 
Q 17.828125 56 27.875 56 
Q 33.9375 56 38.28125 53.609375 
Q 42.625 51.21875 45.40625 46.390625 
L 45.40625 54.6875 
L 54.390625 54.6875 
z
" id="DejaVuSans-67"/>
      <path d="M 12.40625 8.296875 
L 28.515625 8.296875 
L 28.515625 63.921875 
L 10.984375 60.40625 
L 10.984375 69.390625 
L 28.421875 72.90625 
L 38.28125 72.90625 
L 38.28125 8.296875 
L 54.390625 8.296875 
L 54.390625 0 
L 12.40625 0 
z
" id="DejaVuSans-31"/>
      <path id="DejaVuSans-20"/>
      <path d="M 37.109375 75.984375 
L 37.109375 68.5 
L 28.515625 68.5 
Q 23.6875 68.5 21.796875 66.546875 
Q 19.921875 64.59375 19.921875 59.515625 
L 19.921875 54.6875 
L 34.71875 54.6875 
L 34.71875 47.703125 
L 19.921875 47.703125 
L 19.921875 0 
L 10.890625 0 
L 10.890625 47.703125 
L 2.296875 47.703125 
L 2.296875 54.6875 
L 10.890625 54.6875 
L 10.890625 58.5 
Q 10.890625 67.625 15.140625 71.796875 
Q 19.390625 75.984375 28.609375 75.984375 
z
" id="DejaVuSans-66"/>
      <path d="M 31 75.875 
Q 24.46875 64.65625 21.28125 53.65625 
Q 18.109375 42.671875 18.109375 31.390625 
Q 18.109375 20.125 21.3125 9.0625 
Q 24.515625 -2 31 -13.1875 
L 23.1875 -13.1875 
Q 15.875 -1.703125 12.234375 9.375 
Q 8.59375 20.453125 8.59375 31.390625 
Q 8.59375 42.28125 12.203125 53.3125 
Q 15.828125 64.359375 23.1875 75.875 
z
" id="DejaVuSans-28"/>
      <path d="M 51.125 44 
L 36.921875 44 
L 32.8125 27.6875 
L 47.125 27.6875 
z
M 43.796875 71.78125 
L 38.71875 51.515625 
L 52.984375 51.515625 
L 58.109375 71.78125 
L 65.921875 71.78125 
L 60.890625 51.515625 
L 76.125 51.515625 
L 76.125 44 
L 58.984375 44 
L 54.984375 27.6875 
L 70.515625 27.6875 
L 70.515625 20.21875 
L 53.078125 20.21875 
L 48 0 
L 40.1875 0 
L 45.21875 20.21875 
L 30.90625 20.21875 
L 25.875 0 
L 18.015625 0 
L 23.09375 20.21875 
L 7.71875 20.21875 
L 7.71875 27.6875 
L 24.90625 27.6875 
L 29 44 
L 13.28125 44 
L 13.28125 51.515625 
L 30.90625 51.515625 
L 35.890625 71.78125 
z
" id="DejaVuSans-23"/>
      <path d="M 4.890625 31.390625 
L 31.203125 31.390625 
L 31.203125 23.390625 
L 4.890625 23.390625 
z
" id="DejaVuSans-2d"/>
      <path d="M 56.203125 29.59375 
L 56.203125 25.203125 
L 14.890625 25.203125 
Q 15.484375 15.921875 20.484375 11.0625 
Q 25.484375 6.203125 34.421875 6.203125 
Q 39.59375 6.203125 44.453125 7.46875 
Q 49.3125 8.734375 54.109375 11.28125 
L 54.109375 2.78125 
Q 49.265625 0.734375 44.1875 -0.34375 
Q 39.109375 -1.421875 33.890625 -1.421875 
Q 20.796875 -1.421875 13.15625 6.1875 
Q 5.515625 13.8125 5.515625 26.8125 
Q 5.515625 40.234375 12.765625 48.109375 
Q 20.015625 56 32.328125 56 
Q 43.359375 56 49.78125 48.890625 
Q 56.203125 41.796875 56.203125 29.59375 
z
M 47.21875 32.234375 
Q 47.125 39.59375 43.09375 43.984375 
Q 39.0625 48.390625 32.421875 48.390625 
Q 24.90625 48.390625 20.390625 44.140625 
Q 15.875 39.890625 15.1875 32.171875 
z
" id="DejaVuSans-65"/>
      <path d="M 2.984375 54.6875 
L 12.5 54.6875 
L 29.59375 8.796875 
L 46.6875 54.6875 
L 56.203125 54.6875 
L 35.6875 0 
L 23.484375 0 
z
" id="DejaVuSans-76"/>
      <path d="M 34.28125 27.484375 
Q 23.390625 27.484375 19.1875 25 
Q 14.984375 22.515625 14.984375 16.5 
Q 14.984375 11.71875 18.140625 8.90625 
Q 21.296875 6.109375 26.703125 6.109375 
Q 34.1875 6.109375 38.703125 11.40625 
Q 43.21875 16.703125 43.21875 25.484375 
L 43.21875 27.484375 
z
M 52.203125 31.203125 
L 52.203125 0 
L 43.21875 0 
L 43.21875 8.296875 
Q 40.140625 3.328125 35.546875 0.953125 
Q 30.953125 -1.421875 24.3125 -1.421875 
Q 15.921875 -1.421875 10.953125 3.296875 
Q 6 8.015625 6 15.921875 
Q 6 25.140625 12.171875 29.828125 
Q 18.359375 34.515625 30.609375 34.515625 
L 43.21875 34.515625 
L 43.21875 35.40625 
Q 43.21875 41.609375 39.140625 45 
Q 35.0625 48.390625 27.6875 48.390625 
Q 23 48.390625 18.546875 47.265625 
Q 14.109375 46.140625 10.015625 43.890625 
L 10.015625 52.203125 
Q 14.9375 54.109375 19.578125 55.046875 
Q 24.21875 56 28.609375 56 
Q 40.484375 56 46.34375 49.84375 
Q 52.203125 43.703125 52.203125 31.203125 
z
" id="DejaVuSans-61"/>
      <path d="M 44.28125 53.078125 
L 44.28125 44.578125 
Q 40.484375 46.53125 36.375 47.5 
Q 32.28125 48.484375 27.875 48.484375 
Q 21.1875 48.484375 17.84375 46.4375 
Q 14.5 44.390625 14.5 40.28125 
Q 14.5 37.15625 16.890625 35.375 
Q 19.28125 33.59375 26.515625 31.984375 
L 29.59375 31.296875 
Q 39.15625 29.25 43.1875 25.515625 
Q 47.21875 21.78125 47.21875 15.09375 
Q 47.21875 7.46875 41.1875 3.015625 
Q 35.15625 -1.421875 24.609375 -1.421875 
Q 20.21875 -1.421875 15.453125 -0.5625 
Q 10.6875 0.296875 5.421875 2 
L 5.421875 11.28125 
Q 10.40625 8.6875 15.234375 7.390625 
Q 20.0625 6.109375 24.8125 6.109375 
Q 31.15625 6.109375 34.5625 8.28125 
Q 37.984375 10.453125 37.984375 14.40625 
Q 37.984375 18.0625 35.515625 20.015625 
Q 33.0625 21.96875 24.703125 23.78125 
L 21.578125 24.515625 
Q 13.234375 26.265625 9.515625 29.90625 
Q 5.8125 33.546875 5.8125 39.890625 
Q 5.8125 47.609375 11.28125 51.796875 
Q 16.75 56 26.8125 56 
Q 31.78125 56 36.171875 55.265625 
Q 40.578125 54.546875 44.28125 53.078125 
z
" id="DejaVuSans-73"/>
      <path d="M 25.390625 72.90625 
L 33.6875 72.90625 
L 8.296875 -9.28125 
L 0 -9.28125 
z
" id="DejaVuSans-2f"/>
      <path d="M 45.40625 46.390625 
L 45.40625 75.984375 
L 54.390625 75.984375 
L 54.390625 0 
L 45.40625 0 
L 45.40625 8.203125 
Q 42.578125 3.328125 38.25 0.953125 
Q 33.9375 -1.421875 27.875 -1.421875 
Q 17.96875 -1.421875 11.734375 6.484375 
Q 5.515625 14.40625 5.515625 27.296875 
Q 5.515625 40.1875 11.734375 48.09375 
Q 17.96875 56 27.875 56 
Q 33.9375 56 38.25 53.625 
Q 42.578125 51.265625 45.40625 46.390625 
z
M 14.796875 27.296875 
Q 14.796875 17.390625 18.875 11.75 
Q 22.953125 6.109375 30.078125 6.109375 
Q 37.203125 6.109375 41.296875 11.75 
Q 45.40625 17.390625 45.40625 27.296875 
Q 45.40625 37.203125 41.296875 42.84375 
Q 37.203125 48.484375 30.078125 48.484375 
Q 22.953125 48.484375 18.875 42.84375 
Q 14.796875 37.203125 14.796875 27.296875 
z
" id="DejaVuSans-64"/>
      <path d="M 9.421875 54.6875 
L 18.40625 54.6875 
L 18.40625 0 
L 9.421875 0 
z
M 9.421875 75.984375 
L 18.40625 75.984375 
L 18.40625 64.59375 
L 9.421875 64.59375 
z
" id="DejaVuSans-69"/>
      <path d="M 52 44.1875 
Q 55.375 50.25 60.0625 53.125 
Q 64.75 56 71.09375 56 
Q 79.640625 56 84.28125 50.015625 
Q 88.921875 44.046875 88.921875 33.015625 
L 88.921875 0 
L 79.890625 0 
L 79.890625 32.71875 
Q 79.890625 40.578125 77.09375 44.375 
Q 74.3125 48.1875 68.609375 48.1875 
Q 61.625 48.1875 57.5625 43.546875 
Q 53.515625 38.921875 53.515625 30.90625 
L 53.515625 0 
L 44.484375 0 
L 44.484375 32.71875 
Q 44.484375 40.625 41.703125 44.40625 
Q 38.921875 48.1875 33.109375 48.1875 
Q 26.21875 48.1875 22.15625 43.53125 
Q 18.109375 38.875 18.109375 30.90625 
L 18.109375 0 
L 9.078125 0 
L 9.078125 54.6875 
L 18.109375 54.6875 
L 18.109375 46.1875 
Q 21.1875 51.21875 25.484375 53.609375 
Q 29.78125 56 35.6875 56 
Q 41.65625 56 45.828125 52.96875 
Q 50 49.953125 52 44.1875 
z
" id="DejaVuSans-6d"/>
      <path d="M 54.890625 33.015625 
L 54.890625 0 
L 45.90625 0 
L 45.90625 32.71875 
Q 45.90625 40.484375 42.875 44.328125 
Q 39.84375 48.1875 33.796875 48.1875 
Q 26.515625 48.1875 22.3125 43.546875 
Q 18.109375 38.921875 18.109375 30.90625 
L 18.109375 0 
L 9.078125 0 
L 9.078125 54.6875 
L 18.109375 54.6875 
L 18.109375 46.1875 
Q 21.34375 51.125 25.703125 53.5625 
Q 30.078125 56 35.796875 56 
Q 45.21875 56 50.046875 50.171875 
Q 54.890625 44.34375 54.890625 33.015625 
z
" id="DejaVuSans-6e"/>
      <path d="M 8.015625 75.875 
L 15.828125 75.875 
Q 23.140625 64.359375 26.78125 53.3125 
Q 30.421875 42.28125 30.421875 31.390625 
Q 30.421875 20.453125 26.78125 9.375 
Q 23.140625 -1.703125 15.828125 -13.1875 
L 8.015625 -13.1875 
Q 14.5 -2 17.703125 9.0625 
Q 20.90625 20.125 20.90625 31.390625 
Q 20.90625 42.671875 17.703125 53.65625 
Q 14.5 64.65625 8.015625 75.875 
z
" id="DejaVuSans-29"/>
     </defs>
     <g transform="translate(107.015156 342.278812)scale(0.18 -0.18)">
      <use xlink:href="#DejaVuSans-6c"/>
      <use x="27.783203" xlink:href="#DejaVuSans-6f"/>
      <use x="88.964844" xlink:href="#DejaVuSans-67"/>
      <use x="152.441406" xlink:href="#DejaVuSans-31"/>
      <use x="216.064453" xlink:href="#DejaVuSans-30"/>
      <use x="279.6875" xlink:href="#DejaVuSans-20"/>
      <use x="311.474609" xlink:href="#DejaVuSans-6f"/>
      <use x="372.65625" xlink:href="#DejaVuSans-66"/>
      <use x="407.861328" xlink:href="#DejaVuSans-20"/>
      <use x="439.648438" xlink:href="#DejaVuSans-28"/>
      <use x="478.662109" xlink:href="#DejaVuSans-23"/>
      <use x="562.451172" xlink:href="#DejaVuSans-20"/>
      <use x="594.238281" xlink:href="#DejaVuSans-66"/>
      <use x="629.365234" xlink:href="#DejaVuSans-2d"/>
      <use x="665.449219" xlink:href="#DejaVuSans-65"/>
      <use x="726.972656" xlink:href="#DejaVuSans-76"/>
      <use x="786.152344" xlink:href="#DejaVuSans-61"/>
      <use x="847.431641" xlink:href="#DejaVuSans-6c"/>
      <use x="875.214844" xlink:href="#DejaVuSans-73"/>
      <use x="927.314453" xlink:href="#DejaVuSans-20"/>
      <use x="959.101562" xlink:href="#DejaVuSans-2f"/>
      <use x="992.792969" xlink:href="#DejaVuSans-20"/>
      <use x="1024.580078" xlink:href="#DejaVuSans-64"/>
      <use x="1088.056641" xlink:href="#DejaVuSans-69"/>
      <use x="1115.839844" xlink:href="#DejaVuSans-6d"/>
      <use x="1213.251953" xlink:href="#DejaVuSans-65"/>
      <use x="1274.775391" xlink:href="#DejaVuSans-6e"/>
      <use x="1338.154297" xlink:href="#DejaVuSans-73"/>
      <use x="1390.253906" xlink:href="#DejaVuSans-69"/>
      <use x="1418.037109" xlink:href="#DejaVuSans-6f"/>
      <use x="1479.21875" xlink:href="#DejaVuSans-6e"/>
      <use x="1542.597656" xlink:href="#DejaVuSans-29"/>
     </g>
    </g>
   </g>
   <g id="matplotlib.axis_2">
    <g id="ytick_1">
     <g id="line2d_11">
      <path clip-path="url(#p7da6ddf3dc)" d="M 70.8 298.245375 
L 427.92 298.245375 
" style="fill:none;stroke:#b0b0b0;stroke-linecap:square;stroke-width:0.8;"/>
     </g>
     <g id="line2d_12">
      <defs>
       <path d="M 0 0 
L -3.5 0 
" id="m3de11e9ee2" style="stroke:#000000;stroke-width:0.8;"/>
      </defs>
      <g>
       <use style="stroke:#000000;stroke-width:0.8;" x="70.8" xlink:href="#m3de11e9ee2" y="298.245375"/>
      </g>
     </g>
     <g id="text_7">
      <!-- 0.0 -->
      <defs>
       <path d="M 10.6875 12.40625 
L 21 12.40625 
L 21 0 
L 10.6875 0 
z
" id="DejaVuSans-2e"/>
      </defs>
      <g transform="translate(31.99375 305.843812)scale(0.2 -0.2)">
       <use xlink:href="#DejaVuSans-30"/>
       <use x="63.623047" xlink:href="#DejaVuSans-2e"/>
       <use x="95.410156" xlink:href="#DejaVuSans-30"/>
      </g>
     </g>
    </g>
    <g id="ytick_2">
     <g id="line2d_13">
      <path clip-path="url(#p7da6ddf3dc)" d="M 70.8 245.549929 
L 427.92 245.549929 
" style="fill:none;stroke:#b0b0b0;stroke-linecap:square;stroke-width:0.8;"/>
     </g>
     <g id="line2d_14">
      <g>
       <use style="stroke:#000000;stroke-width:0.8;" x="70.8" xlink:href="#m3de11e9ee2" y="245.549929"/>
      </g>
     </g>
     <g id="text_8">
      <!-- 0.2 -->
      <g transform="translate(31.99375 253.148367)scale(0.2 -0.2)">
       <use xlink:href="#DejaVuSans-30"/>
       <use x="63.623047" xlink:href="#DejaVuSans-2e"/>
       <use x="95.410156" xlink:href="#DejaVuSans-32"/>
      </g>
     </g>
    </g>
    <g id="ytick_3">
     <g id="line2d_15">
      <path clip-path="url(#p7da6ddf3dc)" d="M 70.8 192.854484 
L 427.92 192.854484 
" style="fill:none;stroke:#b0b0b0;stroke-linecap:square;stroke-width:0.8;"/>
     </g>
     <g id="line2d_16">
      <g>
       <use style="stroke:#000000;stroke-width:0.8;" x="70.8" xlink:href="#m3de11e9ee2" y="192.854484"/>
      </g>
     </g>
     <g id="text_9">
      <!-- 0.4 -->
      <g transform="translate(31.99375 200.452921)scale(0.2 -0.2)">
       <use xlink:href="#DejaVuSans-30"/>
       <use x="63.623047" xlink:href="#DejaVuSans-2e"/>
       <use x="95.410156" xlink:href="#DejaVuSans-34"/>
      </g>
     </g>
    </g>
    <g id="ytick_4">
     <g id="line2d_17">
      <path clip-path="url(#p7da6ddf3dc)" d="M 70.8 140.159038 
L 427.92 140.159038 
" style="fill:none;stroke:#b0b0b0;stroke-linecap:square;stroke-width:0.8;"/>
     </g>
     <g id="line2d_18">
      <g>
       <use style="stroke:#000000;stroke-width:0.8;" x="70.8" xlink:href="#m3de11e9ee2" y="140.159038"/>
      </g>
     </g>
     <g id="text_10">
      <!-- 0.6 -->
      <g transform="translate(31.99375 147.757476)scale(0.2 -0.2)">
       <use xlink:href="#DejaVuSans-30"/>
       <use x="63.623047" xlink:href="#DejaVuSans-2e"/>
       <use x="95.410156" xlink:href="#DejaVuSans-36"/>
      </g>
     </g>
    </g>
    <g id="ytick_5">
     <g id="line2d_19">
      <path clip-path="url(#p7da6ddf3dc)" d="M 70.8 87.463593 
L 427.92 87.463593 
" style="fill:none;stroke:#b0b0b0;stroke-linecap:square;stroke-width:0.8;"/>
     </g>
     <g id="line2d_20">
      <g>
       <use style="stroke:#000000;stroke-width:0.8;" x="70.8" xlink:href="#m3de11e9ee2" y="87.463593"/>
      </g>
     </g>
     <g id="text_11">
      <!-- 0.8 -->
      <g transform="translate(31.99375 95.06203)scale(0.2 -0.2)">
       <use xlink:href="#DejaVuSans-30"/>
       <use x="63.623047" xlink:href="#DejaVuSans-2e"/>
       <use x="95.410156" xlink:href="#DejaVuSans-38"/>
      </g>
     </g>
    </g>
    <g id="ytick_6">
     <g id="line2d_21">
      <path clip-path="url(#p7da6ddf3dc)" d="M 70.8 34.768147 
L 427.92 34.768147 
" style="fill:none;stroke:#b0b0b0;stroke-linecap:square;stroke-width:0.8;"/>
     </g>
     <g id="line2d_22">
      <g>
       <use style="stroke:#000000;stroke-width:0.8;" x="70.8" xlink:href="#m3de11e9ee2" y="34.768147"/>
      </g>
     </g>
     <g id="text_12">
      <!-- 1.0 -->
      <g transform="translate(31.99375 42.366585)scale(0.2 -0.2)">
       <use xlink:href="#DejaVuSans-31"/>
       <use x="63.623047" xlink:href="#DejaVuSans-2e"/>
       <use x="95.410156" xlink:href="#DejaVuSans-30"/>
      </g>
     </g>
    </g>
    <g id="text_13">
     <!-- Proportion of function+target pairs -->
     <defs>
      <path d="M 19.671875 64.796875 
L 19.671875 37.40625 
L 32.078125 37.40625 
Q 38.96875 37.40625 42.71875 40.96875 
Q 46.484375 44.53125 46.484375 51.125 
Q 46.484375 57.671875 42.71875 61.234375 
Q 38.96875 64.796875 32.078125 64.796875 
z
M 9.8125 72.90625 
L 32.078125 72.90625 
Q 44.34375 72.90625 50.609375 67.359375 
Q 56.890625 61.8125 56.890625 51.125 
Q 56.890625 40.328125 50.609375 34.8125 
Q 44.34375 29.296875 32.078125 29.296875 
L 19.671875 29.296875 
L 19.671875 0 
L 9.8125 0 
z
" id="DejaVuSans-50"/>
      <path d="M 41.109375 46.296875 
Q 39.59375 47.171875 37.8125 47.578125 
Q 36.03125 48 33.890625 48 
Q 26.265625 48 22.1875 43.046875 
Q 18.109375 38.09375 18.109375 28.8125 
L 18.109375 0 
L 9.078125 0 
L 9.078125 54.6875 
L 18.109375 54.6875 
L 18.109375 46.1875 
Q 20.953125 51.171875 25.484375 53.578125 
Q 30.03125 56 36.53125 56 
Q 37.453125 56 38.578125 55.875 
Q 39.703125 55.765625 41.0625 55.515625 
z
" id="DejaVuSans-72"/>
      <path d="M 18.109375 8.203125 
L 18.109375 -20.796875 
L 9.078125 -20.796875 
L 9.078125 54.6875 
L 18.109375 54.6875 
L 18.109375 46.390625 
Q 20.953125 51.265625 25.265625 53.625 
Q 29.59375 56 35.59375 56 
Q 45.5625 56 51.78125 48.09375 
Q 58.015625 40.1875 58.015625 27.296875 
Q 58.015625 14.40625 51.78125 6.484375 
Q 45.5625 -1.421875 35.59375 -1.421875 
Q 29.59375 -1.421875 25.265625 0.953125 
Q 20.953125 3.328125 18.109375 8.203125 
z
M 48.6875 27.296875 
Q 48.6875 37.203125 44.609375 42.84375 
Q 40.53125 48.484375 33.40625 48.484375 
Q 26.265625 48.484375 22.1875 42.84375 
Q 18.109375 37.203125 18.109375 27.296875 
Q 18.109375 17.390625 22.1875 11.75 
Q 26.265625 6.109375 33.40625 6.109375 
Q 40.53125 6.109375 44.609375 11.75 
Q 48.6875 17.390625 48.6875 27.296875 
z
" id="DejaVuSans-70"/>
      <path d="M 18.3125 70.21875 
L 18.3125 54.6875 
L 36.8125 54.6875 
L 36.8125 47.703125 
L 18.3125 47.703125 
L 18.3125 18.015625 
Q 18.3125 11.328125 20.140625 9.421875 
Q 21.96875 7.515625 27.59375 7.515625 
L 36.8125 7.515625 
L 36.8125 0 
L 27.59375 0 
Q 17.1875 0 13.234375 3.875 
Q 9.28125 7.765625 9.28125 18.015625 
L 9.28125 47.703125 
L 2.6875 47.703125 
L 2.6875 54.6875 
L 9.28125 54.6875 
L 9.28125 70.21875 
z
" id="DejaVuSans-74"/>
      <path d="M 8.5 21.578125 
L 8.5 54.6875 
L 17.484375 54.6875 
L 17.484375 21.921875 
Q 17.484375 14.15625 20.5 10.265625 
Q 23.53125 6.390625 29.59375 6.390625 
Q 36.859375 6.390625 41.078125 11.03125 
Q 45.3125 15.671875 45.3125 23.6875 
L 45.3125 54.6875 
L 54.296875 54.6875 
L 54.296875 0 
L 45.3125 0 
L 45.3125 8.40625 
Q 42.046875 3.421875 37.71875 1 
Q 33.40625 -1.421875 27.6875 -1.421875 
Q 18.265625 -1.421875 13.375 4.4375 
Q 8.5 10.296875 8.5 21.578125 
z
M 31.109375 56 
z
" id="DejaVuSans-75"/>
      <path d="M 48.78125 52.59375 
L 48.78125 44.1875 
Q 44.96875 46.296875 41.140625 47.34375 
Q 37.3125 48.390625 33.40625 48.390625 
Q 24.65625 48.390625 19.8125 42.84375 
Q 14.984375 37.3125 14.984375 27.296875 
Q 14.984375 17.28125 19.8125 11.734375 
Q 24.65625 6.203125 33.40625 6.203125 
Q 37.3125 6.203125 41.140625 7.25 
Q 44.96875 8.296875 48.78125 10.40625 
L 48.78125 2.09375 
Q 45.015625 0.34375 40.984375 -0.53125 
Q 36.96875 -1.421875 32.421875 -1.421875 
Q 20.0625 -1.421875 12.78125 6.34375 
Q 5.515625 14.109375 5.515625 27.296875 
Q 5.515625 40.671875 12.859375 48.328125 
Q 20.21875 56 33.015625 56 
Q 37.15625 56 41.109375 55.140625 
Q 45.0625 54.296875 48.78125 52.59375 
z
" id="DejaVuSans-63"/>
      <path d="M 46 62.703125 
L 46 35.5 
L 73.1875 35.5 
L 73.1875 27.203125 
L 46 27.203125 
L 46 0 
L 37.796875 0 
L 37.796875 27.203125 
L 10.59375 27.203125 
L 10.59375 35.5 
L 37.796875 35.5 
L 37.796875 62.703125 
z
" id="DejaVuSans-2b"/>
     </defs>
     <g transform="translate(24.250312 323.17875)rotate(-90)scale(0.18 -0.18)">
      <use xlink:href="#DejaVuSans-50"/>
      <use x="60.287109" xlink:href="#DejaVuSans-72"/>
      <use x="101.369141" xlink:href="#DejaVuSans-6f"/>
      <use x="162.550781" xlink:href="#DejaVuSans-70"/>
      <use x="226.027344" xlink:href="#DejaVuSans-6f"/>
      <use x="287.208984" xlink:href="#DejaVuSans-72"/>
      <use x="328.322266" xlink:href="#DejaVuSans-74"/>
      <use x="367.53125" xlink:href="#DejaVuSans-69"/>
      <use x="395.314453" xlink:href="#DejaVuSans-6f"/>
      <use x="456.496094" xlink:href="#DejaVuSans-6e"/>
      <use x="519.875" xlink:href="#DejaVuSans-20"/>
      <use x="551.662109" xlink:href="#DejaVuSans-6f"/>
      <use x="612.84375" xlink:href="#DejaVuSans-66"/>
      <use x="648.048828" xlink:href="#DejaVuSans-20"/>
      <use x="679.835938" xlink:href="#DejaVuSans-66"/>
      <use x="715.041016" xlink:href="#DejaVuSans-75"/>
      <use x="778.419922" xlink:href="#DejaVuSans-6e"/>
      <use x="841.798828" xlink:href="#DejaVuSans-63"/>
      <use x="896.779297" xlink:href="#DejaVuSans-74"/>
      <use x="935.988281" xlink:href="#DejaVuSans-69"/>
      <use x="963.771484" xlink:href="#DejaVuSans-6f"/>
      <use x="1024.953125" xlink:href="#DejaVuSans-6e"/>
      <use x="1088.332031" xlink:href="#DejaVuSans-2b"/>
      <use x="1172.121094" xlink:href="#DejaVuSans-74"/>
      <use x="1211.330078" xlink:href="#DejaVuSans-61"/>
      <use x="1272.609375" xlink:href="#DejaVuSans-72"/>
      <use x="1313.707031" xlink:href="#DejaVuSans-67"/>
      <use x="1377.183594" xlink:href="#DejaVuSans-65"/>
      <use x="1438.707031" xlink:href="#DejaVuSans-74"/>
      <use x="1477.916016" xlink:href="#DejaVuSans-20"/>
      <use x="1509.703125" xlink:href="#DejaVuSans-70"/>
      <use x="1573.179688" xlink:href="#DejaVuSans-61"/>
      <use x="1634.458984" xlink:href="#DejaVuSans-69"/>
      <use x="1662.242188" xlink:href="#DejaVuSans-72"/>
      <use x="1703.355469" xlink:href="#DejaVuSans-73"/>
     </g>
    </g>
   </g>
   <g id="line2d_23">
    <defs>
     <path d="M 0 1.5 
C 0.397805 1.5 0.77937 1.341951 1.06066 1.06066 
C 1.341951 0.77937 1.5 0.397805 1.5 0 
C 1.5 -0.397805 1.341951 -0.77937 1.06066 -1.06066 
C 0.77937 -1.341951 0.397805 -1.5 0 -1.5 
C -0.397805 -1.5 -0.77937 -1.341951 -1.06066 -1.06066 
C -1.341951 -0.77937 -1.5 -0.397805 -1.5 0 
C -1.5 0.397805 -1.341951 0.77937 -1.06066 1.06066 
C -0.77937 1.341951 -0.397805 1.5 0 1.5 
z
" id="md3904e0961" style="stroke:#000080;"/>
    </defs>
    <g>
     <use style="fill:#000080;stroke:#000080;" x="161.661587" xlink:href="#md3904e0961" y="34.768147"/>
     <use style="fill:#000080;stroke:#000080;" x="161.661587" xlink:href="#md3904e0961" y="34.768147"/>
    </g>
   </g>
   <g id="line2d_24">
    <path d="M 29.657143 298.245375 
L 29.657143 286.879691 
L 58.414766 286.879691 
L 58.414766 286.363069 
L 82.26872 286.363069 
L 82.26872 285.846447 
L 84.057022 285.846447 
L 84.057022 285.329825 
L 91.583313 285.329825 
L 91.583313 284.296581 
L 97.273482 284.296581 
L 97.273482 283.779959 
L 98.452026 283.779959 
L 98.452026 283.263337 
L 99.557623 283.263337 
L 99.557623 282.230093 
L 100.258423 282.230093 
L 100.258423 281.713471 
L 100.598779 281.713471 
L 100.598779 280.680226 
L 105.051795 280.680226 
L 105.051795 279.13036 
L 106.562676 279.13036 
L 106.562676 278.097116 
L 107.039188 278.097116 
L 107.039188 277.580494 
L 107.272761 277.580494 
L 107.272761 276.030628 
L 108.396913 276.030628 
L 108.396913 273.96414 
L 108.613499 273.96414 
L 108.613499 272.930896 
L 109.03895 272.930896 
L 109.03895 271.897652 
L 109.247936 271.897652 
L 109.247936 271.38103 
L 109.454506 271.38103 
L 109.454506 270.864408 
L 110.257703 270.864408 
L 110.257703 269.831164 
L 110.452985 269.831164 
L 110.452985 269.314542 
L 110.646156 269.314542 
L 110.646156 268.79792 
L 111.942857 268.79792 
L 111.942857 268.281298 
L 112.471017 268.281298 
L 112.471017 267.764676 
L 113.15179 267.764676 
L 113.15179 267.248054 
L 113.807574 267.248054 
L 113.807574 266.731432 
L 114.900288 266.731432 
L 114.900288 263.6317 
L 115.348884 263.6317 
L 115.348884 263.115078 
L 115.495947 263.115078 
L 115.495947 262.081834 
L 116.492834 262.081834 
L 116.492834 261.04859 
L 116.903613 261.04859 
L 116.903613 260.015346 
L 117.305161 260.015346 
L 117.305161 259.498724 
L 118.208435 259.498724 
L 118.208435 258.982102 
L 118.704803 258.982102 
L 118.704803 258.46548 
L 118.82677 258.46548 
L 118.82677 256.915614 
L 119.187755 256.915614 
L 119.187755 255.88237 
L 120.002729 255.88237 
L 120.002729 254.849126 
L 120.22891 254.849126 
L 120.22891 254.332504 
L 120.672861 254.332504 
L 120.672861 252.782638 
L 120.890768 252.782638 
L 120.890768 251.749394 
L 121.106049 251.749394 
L 121.106049 251.232772 
L 122.04395 251.232772 
L 122.04395 250.71615 
L 122.935065 250.71615 
L 122.935065 249.166284 
L 123.967107 249.166284 
L 123.967107 248.649662 
L 124.417209 248.649662 
L 124.417209 247.099796 
L 125.19988 247.099796 
L 125.19988 246.583173 
L 125.369247 246.583173 
L 125.369247 246.066551 
L 125.785772 246.066551 
L 125.785772 244.516685 
L 126.432652 244.516685 
L 126.432652 244.000063 
L 126.669319 244.000063 
L 126.669319 242.966819 
L 127.133452 242.966819 
L 127.209649 241.933575 
L 127.585834 241.933575 
L 127.585834 240.900331 
L 127.881181 240.900331 
L 127.881181 240.383709 
L 128.386576 240.383709 
L 128.386576 239.867087 
L 128.528387 239.867087 
L 128.528387 238.317221 
L 128.739016 238.317221 
L 128.808677 236.250733 
L 128.878068 236.250733 
L 128.878068 235.734111 
L 129.016046 235.734111 
L 129.016046 234.700867 
L 129.152967 234.700867 
L 129.152967 234.184245 
L 129.356402 234.184245 
L 129.423702 232.634379 
L 129.490749 232.634379 
L 129.490749 232.117757 
L 129.822263 232.117757 
L 129.822263 231.601135 
L 130.967232 231.601135 
L 130.967232 229.018025 
L 131.513329 229.018025 
L 131.572989 227.984781 
L 131.809656 227.984781 
L 131.809656 227.468159 
L 132.043229 227.468159 
L 132.101149 225.401671 
L 132.330967 225.401671 
L 132.387963 224.368427 
L 132.781921 224.368427 
L 132.781921 223.851805 
L 133.112822 223.851805 
L 133.112822 223.335183 
L 133.330066 223.335183 
L 133.330066 222.818561 
L 134.070271 222.818561 
L 134.070271 222.301939 
L 134.631086 222.301939 
L 134.631086 219.202207 
L 135.174832 219.202207 
L 135.174832 218.168963 
L 135.464592 218.168963 
L 135.464592 217.652341 
L 135.70252 217.652341 
L 135.796811 213.519365 
L 136.397865 213.519365 
L 136.397865 213.002743 
L 137.154536 213.002743 
L 137.241485 211.452876 
L 137.457026 211.452876 
L 137.54252 209.90301 
L 137.796573 209.90301 
L 137.796573 208.869766 
L 137.922258 208.869766 
L 137.963957 206.803278 
L 138.294093 206.803278 
L 138.375683 204.73679 
L 138.416339 204.73679 
L 138.416339 203.186924 
L 138.857549 203.186924 
L 138.857549 202.670302 
L 139.210608 202.670302 
L 139.210608 201.637058 
L 139.442163 201.637058 
L 139.480466 200.087192 
L 139.746309 200.087192 
L 139.746309 199.57057 
L 139.933804 199.57057 
L 139.933804 199.053948 
L 140.229763 199.053948 
L 140.229763 198.537326 
L 140.375924 198.537326 
L 140.448559 196.98746 
L 140.70048 196.98746 
L 140.807369 195.437594 
L 140.913621 195.437594 
L 140.984107 193.371106 
L 141.263302 193.371106 
L 141.263302 192.854484 
L 141.435609 192.854484 
L 141.504069 191.82124 
L 141.775317 191.82124 
L 141.775317 191.304618 
L 142.009328 191.304618 
L 142.075629 188.721508 
L 142.141685 188.721508 
L 142.141685 187.688264 
L 142.273069 187.688264 
L 142.3384 186.138398 
L 142.435951 186.138398 
L 142.468351 185.105154 
L 142.565197 185.105154 
L 142.565197 184.588532 
L 143.041708 184.588532 
L 143.135504 182.522044 
L 143.259805 182.522044 
L 143.259805 182.005422 
L 143.383247 182.005422 
L 143.444649 180.455556 
L 143.566825 180.455556 
L 143.657911 177.355823 
L 144.136017 177.355823 
L 144.136017 176.322579 
L 144.370356 176.322579 
L 144.428464 175.289335 
L 144.486383 175.289335 
L 144.544115 174.256091 
L 144.687635 174.256091 
L 144.716201 173.222847 
L 145.111405 173.222847 
L 145.139302 171.672981 
L 145.250457 171.672981 
L 145.250457 171.156359 
L 145.661236 171.156359 
L 145.661236 170.639737 
L 145.929935 170.639737 
L 146.036293 169.089871 
L 146.168356 169.089871 
L 146.168356 168.573249 
L 146.325555 168.573249 
L 146.351621 165.473517 
L 146.533025 165.473517 
L 146.533025 164.956895 
L 146.839781 164.956895 
L 146.915654 161.340541 
L 147.091449 161.340541 
L 147.166263 157.724187 
L 147.26553 157.724187 
L 147.36425 156.174321 
L 147.388844 156.174321 
L 147.388844 155.657699 
L 147.657176 155.657699 
L 147.753761 154.107833 
L 147.849826 154.107833 
L 147.849826 153.074589 
L 147.969186 153.074589 
L 147.992963 151.524723 
L 148.158519 151.524723 
L 148.252438 149.974857 
L 148.345866 149.974857 
L 148.345866 149.458235 
L 148.461969 149.458235 
L 148.53127 148.424991 
L 148.600303 148.424991 
L 148.691935 146.358503 
L 148.783099 146.358503 
L 148.783099 145.841881 
L 148.918979 145.841881 
L 148.918979 145.325259 
L 149.07621 145.325259 
L 149.07621 143.775392 
L 149.187677 143.775392 
L 149.254225 141.192282 
L 149.320526 141.192282 
L 149.320526 140.159038 
L 149.496136 140.159038 
L 149.517966 139.125794 
L 149.670036 139.125794 
L 149.734815 137.575928 
L 149.79936 137.575928 
L 149.906419 136.542684 
L 149.949064 136.542684 
L 149.949064 136.026062 
L 150.07639 136.026062 
L 150.181807 134.476196 
L 150.265695 134.476196 
L 150.265695 133.442952 
L 150.473708 133.442952 
L 150.535643 130.859842 
L 150.69976 130.859842 
L 150.760917 128.276732 
L 150.842136 128.276732 
L 150.922987 125.693622 
L 151.003475 125.693622 
L 151.003475 125.177 
L 151.143461 125.177 
L 151.242783 123.110512 
L 151.302113 123.110512 
L 151.361246 122.077268 
L 151.498468 122.077268 
L 151.57641 118.460914 
L 151.654013 118.460914 
L 151.750545 116.911048 
L 151.923 116.911048 
L 151.923 116.394426 
L 152.074909 116.394426 
L 152.1692 115.361182 
L 152.225536 115.361182 
L 152.225536 114.327938 
L 152.374905 114.327938 
L 152.412053 112.778072 
L 152.486118 112.778072 
L 152.596643 108.645095 
L 152.779345 108.645095 
L 152.779345 106.578607 
L 152.942195 106.578607 
L 153.049942 102.962253 
L 153.103573 102.962253 
L 153.174832 101.412387 
L 153.334133 101.412387 
L 153.386919 99.345899 
L 153.665842 99.345899 
L 153.665842 98.829277 
L 153.872213 98.829277 
L 153.974512 97.279411 
L 154.008482 97.279411 
L 154.093125 91.596569 
L 154.12687 91.596569 
L 154.177369 89.530081 
L 154.377948 89.530081 
L 154.427743 87.980215 
L 154.526919 87.980215 
L 154.526919 87.463593 
L 154.658303 87.463593 
L 154.707324 85.913727 
L 154.837393 85.913727 
L 154.853585 83.330617 
L 154.966521 83.330617 
L 155.030737 81.780751 
L 155.078748 81.780751 
L 155.142563 80.230885 
L 155.269513 80.230885 
L 155.348401 79.197641 
L 155.395567 79.197641 
L 155.50514 77.647775 
L 155.645039 77.647775 
L 155.753097 74.03142 
L 155.783851 74.03142 
L 155.783851 73.514798 
L 156.027997 73.514798 
L 156.043145 71.964932 
L 156.268851 71.964932 
L 156.298731 70.931688 
L 156.402918 70.931688 
L 156.402918 70.415066 
L 156.580124 70.415066 
L 156.682689 68.8652 
L 156.711885 68.8652 
L 156.784667 67.315334 
L 156.857155 67.315334 
L 156.958146 64.732224 
L 156.972526 64.732224 
L 156.972526 64.215602 
L 157.115701 64.215602 
L 157.215245 61.632492 
L 157.28601 61.632492 
L 157.28601 61.11587 
L 157.496639 61.11587 
L 157.5663 59.049382 
L 157.607967 59.049382 
L 157.663372 57.499516 
L 157.759919 57.499516 
L 157.855948 52.849918 
L 157.896945 52.849918 
L 157.992242 50.266808 
L 158.087034 50.266808 
L 158.114025 49.233564 
L 158.261751 49.233564 
L 158.355127 47.167076 
L 158.461249 47.167076 
L 158.527256 46.133832 
L 158.723827 46.133832 
L 158.827787 43.550722 
L 158.944024 43.550722 
L 158.944024 41.484233 
L 159.148818 41.484233 
L 159.148818 40.967611 
L 159.300888 40.967611 
L 159.300888 40.450989 
L 159.426632 40.450989 
L 159.426632 39.934367 
L 159.563936 39.934367 
L 159.588787 38.901123 
L 159.823167 38.901123 
L 159.859895 37.351257 
L 160.078691 37.351257 
L 160.078691 36.834635 
L 160.484802 36.834635 
L 160.508405 35.801391 
L 161.661587 35.801391 
L 161.661587 34.768147 
L 358.8 34.768147 
L 358.8 34.768147 
" style="fill:none;stroke:#000080;stroke-linecap:square;stroke-width:1.5;"/>
   </g>
   <g id="line2d_25">
    <defs>
     <path d="M 0 6 
C 1.591219 6 3.117479 5.367802 4.242641 4.242641 
C 5.367802 3.117479 6 1.591219 6 0 
C 6 -1.591219 5.367802 -3.117479 4.242641 -4.242641 
C 3.117479 -5.367802 1.591219 -6 0 -6 
C -1.591219 -6 -3.117479 -5.367802 -4.242641 -4.242641 
C -5.367802 -3.117479 -6 -1.591219 -6 0 
C -6 1.591219 -5.367802 3.117479 -4.242641 4.242641 
C -3.117479 5.367802 -1.591219 6 0 6 
z
" id="m93b9a22a88" style="stroke:#000080;stroke-width:1.5;"/>
    </defs>
    <g>
     <use style="fill:none;stroke:#000080;stroke-width:1.5;" x="119.187755" xlink:href="#m93b9a22a88" y="255.88237"/>
     <use style="fill:none;stroke:#000080;stroke-width:1.5;" x="146.533025" xlink:href="#m93b9a22a88" y="164.956895"/>
     <use style="fill:none;stroke:#000080;stroke-width:1.5;" x="157.855948" xlink:href="#m93b9a22a88" y="53.883162"/>
     <use style="fill:none;stroke:#000080;stroke-width:1.5;" x="161.661587" xlink:href="#m93b9a22a88" y="34.768147"/>
     <use style="fill:none;stroke:#000080;stroke-width:1.5;" x="161.661587" xlink:href="#m93b9a22a88" y="34.768147"/>
     <use style="fill:none;stroke:#000080;stroke-width:1.5;" x="358.8" xlink:href="#m93b9a22a88" y="34.768147"/>
    </g>
   </g>
   <g id="line2d_26"/>
   <g id="line2d_27">
    <defs>
     <path d="M 0 1.5 
C 0.397805 1.5 0.77937 1.341951 1.06066 1.06066 
C 1.341951 0.77937 1.5 0.397805 1.5 0 
C 1.5 -0.397805 1.341951 -0.77937 1.06066 -1.06066 
C 0.77937 -1.341951 0.397805 -1.5 0 -1.5 
C -0.397805 -1.5 -0.77937 -1.341951 -1.06066 -1.06066 
C -1.341951 -0.77937 -1.5 -0.397805 -1.5 0 
C -1.5 0.397805 -1.341951 0.77937 -1.06066 1.06066 
C -0.77937 1.341951 -0.397805 1.5 0 1.5 
z
" id="mb16831e272" style="stroke:#ff00ff;"/>
    </defs>
    <g>
     <use style="fill:#ff00ff;stroke:#ff00ff;" x="179.837226" xlink:href="#mb16831e272" y="34.768147"/>
     <use style="fill:#ff00ff;stroke:#ff00ff;" x="179.837226" xlink:href="#mb16831e272" y="34.768147"/>
    </g>
   </g>
   <g id="line2d_28">
    <path d="M 156.298731 298.245375 
L 156.298731 296.695509 
L 159.896547 296.695509 
L 159.896547 296.178887 
L 160.04241 296.178887 
L 160.04241 295.662265 
L 160.211092 295.662265 
L 160.211092 295.145643 
L 161.461444 295.145643 
L 161.461444 293.595777 
L 162.744835 293.595777 
L 162.744835 292.562533 
L 163.196956 292.562533 
L 163.277945 291.529289 
L 163.34851 291.529289 
L 163.34851 290.496045 
L 163.48881 290.496045 
L 163.598278 288.946179 
L 163.766148 288.946179 
L 163.795609 287.912935 
L 164.164638 287.912935 
L 164.164638 287.396313 
L 164.279607 287.396313 
L 164.279607 286.879691 
L 164.469594 286.879691 
L 164.545027 285.329825 
L 164.90827 285.329825 
L 164.991056 284.296581 
L 165.046035 284.296581 
L 165.155488 282.746715 
L 165.209964 282.746715 
L 165.209964 282.230093 
L 165.542278 282.230093 
L 165.648742 280.163604 
L 165.728176 280.163604 
L 165.824784 278.613738 
L 165.842293 278.613738 
L 165.94699 277.063872 
L 165.990433 277.063872 
L 166.059722 274.997384 
L 166.171749 274.997384 
L 166.214649 273.447518 
L 166.300143 273.447518 
L 166.385229 272.414274 
L 166.52053 272.414274 
L 166.52053 270.864408 
L 166.654815 270.864408 
L 166.654815 269.831164 
L 166.846097 269.831164 
L 166.846097 269.314542 
L 167.108868 269.314542 
L 167.108868 268.79792 
L 167.423982 268.79792 
L 167.479958 267.764676 
L 167.567566 267.764676 
L 167.670553 264.664944 
L 167.968231 264.664944 
L 167.968231 263.6317 
L 168.161402 263.6317 
L 168.184442 262.598456 
L 168.435949 262.598456 
L 168.458639 260.015346 
L 168.631642 260.015346 
L 168.6765 257.432236 
L 168.743575 257.432236 
L 168.847417 255.365748 
L 169.038679 255.365748 
L 169.140824 252.266016 
L 169.278523 252.266016 
L 169.307377 250.199528 
L 169.408002 250.199528 
L 169.450955 248.649662 
L 169.593387 248.649662 
L 169.650044 246.583173 
L 169.713569 246.583173 
L 169.727655 245.033307 
L 169.832948 245.033307 
L 169.9028 244.000063 
L 170.05552 244.000063 
L 170.165774 241.933575 
L 170.220648 241.933575 
L 170.302643 239.867087 
L 170.336697 239.867087 
L 170.336697 239.350465 
L 170.492515 239.350465 
L 170.546395 237.283977 
L 170.640297 237.283977 
L 170.713732 236.250733 
L 170.879517 236.250733 
L 170.965121 235.217489 
L 171.004492 235.217489 
L 171.076449 233.667623 
L 171.161117 233.667623 
L 171.232446 232.117757 
L 171.342127 232.117757 
L 171.342127 231.084513 
L 171.470306 231.084513 
L 171.57854 229.018025 
L 171.603912 229.018025 
L 171.660867 225.918293 
L 171.723938 225.918293 
L 171.755391 222.301939 
L 171.998838 222.301939 
L 172.091595 216.619097 
L 172.110089 216.619097 
L 172.165456 213.519365 
L 172.281781 213.519365 
L 172.354862 210.936254 
L 172.397354 210.936254 
L 172.427644 208.869766 
L 172.58433 208.869766 
L 172.674105 206.803278 
L 172.721801 206.803278 
L 172.763431 205.253412 
L 172.852312 205.253412 
L 172.928987 199.053948 
L 173.022906 199.053948 
L 173.022906 198.020704 
L 173.151245 198.020704 
L 173.238223 193.887728 
L 173.330535 193.887728 
L 173.393724 189.754752 
L 173.445258 189.754752 
L 173.553567 184.07191 
L 173.638613 184.07191 
L 173.70636 183.038666 
L 173.751382 183.038666 
L 173.857857 178.389067 
L 173.880192 178.389067 
L 173.952589 174.772713 
L 174.002539 174.772713 
L 174.079962 172.189603 
L 174.151555 172.189603 
L 174.228337 168.573249 
L 174.29934 168.573249 
L 174.386342 162.890407 
L 174.429685 162.890407 
L 174.526824 159.274053 
L 174.548339 159.274053 
L 174.644837 153.591211 
L 174.687558 153.591211 
L 174.793916 147.908369 
L 174.799217 147.908369 
L 174.878549 141.708904 
L 174.925979 141.708904 
L 174.994269 136.542684 
L 175.119659 136.542684 
L 175.228659 131.893086 
L 175.254514 131.893086 
L 175.35756 128.793354 
L 175.372966 128.793354 
L 175.42934 126.210244 
L 175.516116 126.210244 
L 175.607539 122.59389 
L 175.632851 122.59389 
L 175.738774 118.460914 
L 175.748829 118.460914 
L 175.834071 114.84456 
L 175.874045 114.84456 
L 175.973589 111.228206 
L 175.988472 111.228206 
L 176.097244 107.611851 
L 176.141551 107.611851 
L 176.210256 102.445631 
L 176.268936 102.445631 
L 176.36631 97.796033 
L 176.400266 97.796033 
L 176.467985 96.246167 
L 176.511384 96.246167 
L 176.597866 92.113191 
L 176.645731 92.113191 
L 176.726809 89.013459 
L 176.816992 89.013459 
L 176.916142 84.363861 
L 176.963163 84.363861 
L 176.991317 82.297373 
L 177.075512 82.297373 
L 177.159313 78.164397 
L 177.210331 78.164397 
L 177.321142 70.931688 
L 177.357926 70.931688 
L 177.467828 66.798712 
L 177.540722 66.798712 
L 177.631423 65.765468 
L 177.672089 65.765468 
L 177.775595 63.69898 
L 177.824886 63.69898 
L 177.905252 60.599248 
L 177.936409 60.599248 
L 178.04282 53.883162 
L 178.069324 53.883162 
L 178.157387 51.816674 
L 178.201257 51.816674 
L 178.310462 49.750186 
L 178.323522 49.750186 
L 178.431985 47.683698 
L 178.552687 47.683698 
L 178.561277 46.650454 
L 178.681112 46.650454 
L 178.74498 44.583966 
L 178.812855 44.583966 
L 178.901552 41.484233 
L 179.131787 41.484233 
L 179.239602 38.384501 
L 179.32621 38.384501 
L 179.42468 37.351257 
L 179.52261 37.351257 
L 179.52261 36.834635 
L 179.837226 36.834635 
L 179.837226 34.768147 
L 358.8 34.768147 
L 358.8 34.768147 
" style="fill:none;stroke:#ff00ff;stroke-linecap:square;stroke-width:1.5;"/>
   </g>
   <g id="line2d_29">
    <defs>
     <path d="M -0 8.485281 
L 5.091169 0 
L 0 -8.485281 
L -5.091169 -0 
z
" id="m5494e7cf55" style="stroke:#ff00ff;stroke-linejoin:miter;stroke-width:1.5;"/>
    </defs>
    <g>
     <use style="fill:none;stroke:#ff00ff;stroke-linejoin:miter;stroke-width:1.5;" x="173.857857" xlink:href="#m5494e7cf55" y="178.389067"/>
     <use style="fill:none;stroke:#ff00ff;stroke-linejoin:miter;stroke-width:1.5;" x="179.837226" xlink:href="#m5494e7cf55" y="36.834635"/>
     <use style="fill:none;stroke:#ff00ff;stroke-linejoin:miter;stroke-width:1.5;" x="179.837226" xlink:href="#m5494e7cf55" y="34.768147"/>
     <use style="fill:none;stroke:#ff00ff;stroke-linejoin:miter;stroke-width:1.5;" x="179.837226" xlink:href="#m5494e7cf55" y="34.768147"/>
     <use style="fill:none;stroke:#ff00ff;stroke-linejoin:miter;stroke-width:1.5;" x="358.8" xlink:href="#m5494e7cf55" y="34.768147"/>
    </g>
   </g>
   <g id="line2d_30"/>
   <g id="line2d_31">
    <defs>
     <path d="M 0 1.5 
C 0.397805 1.5 0.77937 1.341951 1.06066 1.06066 
C 1.341951 0.77937 1.5 0.397805 1.5 0 
C 1.5 -0.397805 1.341951 -0.77937 1.06066 -1.06066 
C 0.77937 -1.341951 0.397805 -1.5 0 -1.5 
C -0.397805 -1.5 -0.77937 -1.341951 -1.06066 -1.06066 
C -1.341951 -0.77937 -1.5 -0.397805 -1.5 0 
C -1.5 0.397805 -1.341951 0.77937 -1.06066 1.06066 
C -0.77937 1.341951 -0.397805 1.5 0 1.5 
z
" id="m3c1e053681" style="stroke:#ffa500;"/>
    </defs>
    <g>
     <use style="fill:#ffa500;stroke:#ffa500;" x="277.504275" xlink:href="#m3c1e053681" y="267.248054"/>
     <use style="fill:#ffa500;stroke:#ffa500;" x="277.504275" xlink:href="#m3c1e053681" y="267.248054"/>
    </g>
   </g>
   <g id="line2d_32">
    <path d="M 113.318006 298.245375 
L 113.318006 297.728753 
L 113.807574 297.728753 
L 113.807574 297.212131 
L 119.30648 297.212131 
L 119.30648 296.695509 
L 120.452265 296.695509 
L 120.452265 296.178887 
L 127.436309 296.178887 
L 127.436309 295.662265 
L 128.739016 295.662265 
L 128.739016 295.145643 
L 131.691714 295.145643 
L 131.691714 294.629021 
L 132.948138 294.629021 
L 132.948138 294.112399 
L 139.288127 294.112399 
L 139.288127 293.595777 
L 142.009328 293.595777 
L 142.009328 293.079155 
L 143.413974 293.079155 
L 143.413974 292.562533 
L 144.370356 292.562533 
L 144.370356 292.045911 
L 146.429591 292.045911 
L 146.429591 291.529289 
L 147.339621 291.529289 
L 147.339621 291.012667 
L 147.825858 291.012667 
L 147.825858 289.979423 
L 148.087754 289.979423 
L 148.087754 288.946179 
L 148.415618 288.946179 
L 148.415618 288.429557 
L 149.143174 288.429557 
L 149.143174 287.396313 
L 149.605022 287.396313 
L 149.605022 286.879691 
L 150.453016 286.879691 
L 150.453016 286.363069 
L 150.473708 286.363069 
L 150.473708 285.846447 
L 150.902809 285.846447 
L 150.902809 285.329825 
L 154.493922 285.329825 
L 154.493922 284.813203 
L 156.417753 284.813203 
L 156.417753 284.296581 
L 159.588787 284.296581 
L 159.588787 283.779959 
L 210.212971 283.779959 
L 210.212971 283.263337 
L 210.321473 283.263337 
L 210.321473 282.746715 
L 210.418492 282.746715 
L 210.418492 282.230093 
L 210.436534 282.230093 
L 210.436534 281.713471 
L 210.504211 281.713471 
L 210.504211 281.196849 
L 210.509241 281.196849 
L 210.509241 280.680226 
L 210.519295 280.680226 
L 210.519295 280.163604 
L 210.547992 280.163604 
L 210.547992 279.646982 
L 210.74759 279.646982 
L 210.74759 279.13036 
L 210.912704 279.13036 
L 210.912704 278.097116 
L 222.388446 278.097116 
L 222.388446 277.580494 
L 222.541875 277.580494 
L 222.541875 277.063872 
L 222.700535 277.063872 
L 222.700535 276.54725 
L 229.7055 276.54725 
L 229.7055 276.030628 
L 229.717273 276.030628 
L 229.717273 274.997384 
L 229.79898 274.997384 
L 229.79898 274.480762 
L 234.795284 274.480762 
L 234.795284 273.96414 
L 234.814096 273.96414 
L 234.814096 273.447518 
L 238.842901 273.447518 
L 238.842901 272.930896 
L 242.002064 272.930896 
L 242.002064 272.414274 
L 257.076396 272.414274 
L 257.076396 271.897652 
L 258.305898 271.897652 
L 258.305898 271.38103 
L 259.46921 271.38103 
L 259.46921 270.864408 
L 262.520077 270.864408 
L 262.520077 270.347786 
L 266.683638 270.347786 
L 266.683638 269.831164 
L 266.686797 269.831164 
L 266.686797 268.79792 
L 268.122809 268.79792 
L 268.122809 268.281298 
L 274.411194 268.281298 
L 274.411194 267.764676 
L 277.504275 267.764676 
L 277.504275 267.248054 
L 358.8 267.248054 
" style="fill:none;stroke:#ffa500;stroke-linecap:square;stroke-width:1.5;"/>
   </g>
   <g id="line2d_33">
    <defs>
     <path d="M 0 -6 
L -1.347084 -1.854102 
L -5.706339 -1.854102 
L -2.179628 0.708204 
L -3.526712 4.854102 
L -0 2.291796 
L 3.526712 4.854102 
L 2.179628 0.708204 
L 5.706339 -1.854102 
L 1.347084 -1.854102 
z
" id="m3af4c114a2" style="stroke:#ffa500;stroke-linejoin:bevel;stroke-width:1.5;"/>
    </defs>
    <g>
     <use style="fill:none;stroke:#ffa500;stroke-linejoin:bevel;stroke-width:1.5;" x="154.493922" xlink:href="#m3af4c114a2" y="285.329825"/>
     <use style="fill:none;stroke:#ffa500;stroke-linejoin:bevel;stroke-width:1.5;" x="242.002064" xlink:href="#m3af4c114a2" y="272.930896"/>
     <use style="fill:none;stroke:#ffa500;stroke-linejoin:bevel;stroke-width:1.5;" x="277.504275" xlink:href="#m3af4c114a2" y="267.764676"/>
     <use style="fill:none;stroke:#ffa500;stroke-linejoin:bevel;stroke-width:1.5;" x="277.504275" xlink:href="#m3af4c114a2" y="267.248054"/>
     <use style="fill:none;stroke:#ffa500;stroke-linejoin:bevel;stroke-width:1.5;" x="358.8" xlink:href="#m3af4c114a2" y="267.248054"/>
    </g>
   </g>
   <g id="line2d_34"/>
   <g id="line2d_35">
    <path clip-path="url(#p7da6ddf3dc)" d="M 209.872293 283.779959 
" style="fill:none;stroke:#ffa500;stroke-linecap:square;stroke-width:1.5;"/>
    <defs>
     <path d="M -12 12 
L 12 -12 
M -12 -12 
L 12 12 
" id="md619fe0c2d" style="stroke:#ffa500;stroke-width:3;"/>
    </defs>
    <g clip-path="url(#p7da6ddf3dc)">
     <use style="fill:#ffa500;stroke:#ffa500;stroke-width:3;" x="209.872293" xlink:href="#md619fe0c2d" y="283.779959"/>
    </g>
   </g>
   <g id="line2d_36">
    <defs>
     <path d="M 0 1.5 
C 0.397805 1.5 0.77937 1.341951 1.06066 1.06066 
C 1.341951 0.77937 1.5 0.397805 1.5 0 
C 1.5 -0.397805 1.341951 -0.77937 1.06066 -1.06066 
C 0.77937 -1.341951 0.397805 -1.5 0 -1.5 
C -0.397805 -1.5 -0.77937 -1.341951 -1.06066 -1.06066 
C -1.341951 -0.77937 -1.5 -0.397805 -1.5 0 
C -1.5 0.397805 -1.341951 0.77937 -1.06066 1.06066 
C -0.77937 1.341951 -0.397805 1.5 0 1.5 
z
" id="m0d9bc69114" style="stroke:#6495ed;"/>
    </defs>
    <g>
     <use style="fill:#6495ed;stroke:#6495ed;" x="274.410611" xlink:href="#m0d9bc69114" y="277.580494"/>
     <use style="fill:#6495ed;stroke:#6495ed;" x="274.410611" xlink:href="#m0d9bc69114" y="277.580494"/>
    </g>
   </g>
   <g id="line2d_37">
    <path d="M 114.44014 298.245375 
L 114.44014 296.695509 
L 129.152967 296.695509 
L 129.152967 296.178887 
L 131.02874 296.178887 
L 131.02874 295.662265 
L 135.271942 295.662265 
L 135.271942 295.145643 
L 137.796573 295.145643 
L 137.796573 294.629021 
L 143.597239 294.629021 
L 143.597239 294.112399 
L 146.481383 294.112399 
L 146.481383 293.595777 
L 148.087754 293.595777 
L 148.087754 292.562533 
L 148.8738 292.562533 
L 148.8738 292.045911 
L 209.957703 292.045911 
L 209.957703 291.529289 
L 210.012447 291.529289 
L 210.012447 291.012667 
L 210.232681 291.012667 
L 210.232681 289.979423 
L 210.527192 289.979423 
L 210.527192 289.462801 
L 210.666594 289.462801 
L 210.666594 288.946179 
L 210.830338 288.946179 
L 210.830338 287.396313 
L 222.512909 287.396313 
L 222.512909 286.879691 
L 222.74297 286.879691 
L 222.74297 286.363069 
L 229.647749 286.363069 
L 229.647749 285.846447 
L 229.723402 285.846447 
L 229.723402 285.329825 
L 229.827514 285.329825 
L 229.827514 284.813203 
L 234.75279 284.813203 
L 234.75279 284.296581 
L 234.764624 284.296581 
L 234.764624 283.779959 
L 238.671261 283.779959 
L 238.671261 283.263337 
L 244.73708 283.263337 
L 244.73708 282.746715 
L 247.089031 282.746715 
L 247.089031 282.230093 
L 247.111182 282.230093 
L 247.111182 281.713471 
L 249.206519 281.713471 
L 249.206519 280.680226 
L 251.063995 280.680226 
L 251.063995 280.163604 
L 255.754343 280.163604 
L 255.754343 279.646982 
L 257.062178 279.646982 
L 257.062178 279.13036 
L 260.535672 279.13036 
L 260.535672 278.613738 
L 261.55481 278.613738 
L 261.55481 278.097116 
L 274.410611 278.097116 
L 274.410611 277.580494 
L 358.8 277.580494 
" style="fill:none;stroke:#6495ed;stroke-linecap:square;stroke-width:1.5;"/>
   </g>
   <g id="line2d_38">
    <defs>
     <path d="M -0 6 
L 6 -6 
L -6 -6 
z
" id="m698a70669b" style="stroke:#6495ed;stroke-linejoin:miter;stroke-width:1.5;"/>
    </defs>
    <g>
     <use style="fill:none;stroke:#6495ed;stroke-linejoin:miter;stroke-width:1.5;" x="148.8738" xlink:href="#m698a70669b" y="292.045911"/>
     <use style="fill:none;stroke:#6495ed;stroke-linejoin:miter;stroke-width:1.5;" x="261.55481" xlink:href="#m698a70669b" y="278.097116"/>
     <use style="fill:none;stroke:#6495ed;stroke-linejoin:miter;stroke-width:1.5;" x="274.410611" xlink:href="#m698a70669b" y="277.580494"/>
     <use style="fill:none;stroke:#6495ed;stroke-linejoin:miter;stroke-width:1.5;" x="274.410611" xlink:href="#m698a70669b" y="277.580494"/>
     <use style="fill:none;stroke:#6495ed;stroke-linejoin:miter;stroke-width:1.5;" x="358.8" xlink:href="#m698a70669b" y="277.580494"/>
    </g>
   </g>
   <g id="line2d_39"/>
   <g id="line2d_40">
    <path clip-path="url(#p7da6ddf3dc)" d="M 209.872293 292.045911 
" style="fill:none;stroke:#6495ed;stroke-linecap:square;stroke-width:1.5;"/>
    <defs>
     <path d="M -12 12 
L 12 -12 
M -12 -12 
L 12 12 
" id="maf32ebd3b6" style="stroke:#6495ed;stroke-width:3;"/>
    </defs>
    <g clip-path="url(#p7da6ddf3dc)">
     <use style="fill:#6495ed;stroke:#6495ed;stroke-width:3;" x="209.872293" xlink:href="#maf32ebd3b6" y="292.045911"/>
    </g>
   </g>
   <g id="line2d_41">
    <defs>
     <path d="M 0 1.5 
C 0.397805 1.5 0.77937 1.341951 1.06066 1.06066 
C 1.341951 0.77937 1.5 0.397805 1.5 0 
C 1.5 -0.397805 1.341951 -0.77937 1.06066 -1.06066 
C 0.77937 -1.341951 0.397805 -1.5 0 -1.5 
C -0.397805 -1.5 -0.77937 -1.341951 -1.06066 -1.06066 
C -1.341951 -0.77937 -1.5 -0.397805 -1.5 0 
C -1.5 0.397805 -1.341951 0.77937 -1.06066 1.06066 
C -0.77937 1.341951 -0.397805 1.5 0 1.5 
z
" id="m66b394bb59" style="stroke:#ff0000;"/>
    </defs>
    <g>
     <use style="fill:#ff0000;stroke:#ff0000;" x="131.272677" xlink:href="#m66b394bb59" y="34.768147"/>
     <use style="fill:#ff0000;stroke:#ff0000;" x="131.272677" xlink:href="#m66b394bb59" y="34.768147"/>
    </g>
   </g>
   <g id="line2d_42">
    <path d="M 108.613499 298.245375 
L 108.613499 297.728753 
L 110.257703 297.728753 
L 110.257703 297.212131 
L 110.646156 297.212131 
L 110.646156 296.178887 
L 111.763277 296.178887 
L 111.763277 295.662265 
L 111.942857 295.662265 
L 111.942857 295.145643 
L 113.64587 295.145643 
L 113.64587 294.629021 
L 114.284085 294.629021 
L 114.284085 294.112399 
L 114.44014 294.112399 
L 114.44014 292.562533 
L 114.748218 292.562533 
L 114.748218 292.045911 
L 115.64181 292.045911 
L 115.64181 291.012667 
L 115.786492 291.012667 
L 115.786492 289.462801 
L 117.826895 289.462801 
L 117.826895 288.429557 
L 117.954982 288.429557 
L 117.954982 287.396313 
L 118.208435 287.396313 
L 118.208435 286.879691 
L 119.187755 286.879691 
L 119.187755 286.363069 
L 119.30648 286.363069 
L 119.30648 285.846447 
L 119.773647 285.846447 
L 119.773647 284.813203 
L 120.22891 284.813203 
L 120.22891 283.779959 
L 120.672861 283.779959 
L 120.672861 282.746715 
L 121.106049 282.746715 
L 121.212725 281.713471 
L 121.318767 281.713471 
L 121.318767 280.680226 
L 121.839741 280.680226 
L 121.942137 278.097116 
L 122.04395 278.097116 
L 122.04395 276.54725 
L 122.838219 276.54725 
L 122.935065 274.480762 
L 123.127198 274.480762 
L 123.222494 271.897652 
L 123.783843 271.897652 
L 123.783843 271.38103 
L 123.967107 271.38103 
L 124.058039 268.79792 
L 124.769302 268.79792 
L 124.856251 254.849126 
L 125.11459 254.849126 
L 125.11459 254.332504 
L 125.369247 254.332504 
L 125.453332 252.782638 
L 125.867924 252.782638 
L 125.867924 252.266016 
L 126.273114 252.266016 
L 126.273114 234.700867 
L 126.432652 234.700867 
L 126.432652 234.184245 
L 126.747517 234.184245 
L 126.747517 233.667623 
L 127.209649 233.667623 
L 127.285522 197.504082 
L 127.436309 197.504082 
L 127.511228 192.854484 
L 127.585834 192.854484 
L 127.66013 191.82124 
L 127.734118 191.82124 
L 127.734118 166.506761 
L 127.954262 166.506761 
L 128.027044 163.923651 
L 128.315246 163.923651 
L 128.386576 146.875125 
L 128.457622 146.875125 
L 128.457622 146.358503 
L 128.598873 146.358503 
L 128.598873 145.841881 
L 128.94719 145.841881 
L 128.94719 145.325259 
L 129.084638 145.325259 
L 129.084638 133.959574 
L 129.221037 133.959574 
L 129.221037 130.34322 
L 129.557546 130.34322 
L 129.624094 105.028741 
L 129.822263 105.028741 
L 129.887835 101.929009 
L 129.953166 101.929009 
L 129.953166 101.412387 
L 130.083117 101.412387 
L 130.083117 88.496837 
L 130.276287 88.496837 
L 130.276287 75.064664 
L 130.530642 75.064664 
L 130.593669 55.94965 
L 131.151125 55.94965 
L 131.212004 46.650454 
L 131.272677 46.650454 
L 131.272677 34.768147 
L 358.8 34.768147 
L 358.8 34.768147 
" style="fill:none;stroke:#ff0000;stroke-linecap:square;stroke-width:1.5;"/>
   </g>
   <g id="line2d_43">
    <defs>
     <path d="M 0 -6 
L -5.196152 -3 
L -5.196152 3 
L -0 6 
L 5.196152 3 
L 5.196152 -3 
z
" id="ma971db97bb" style="stroke:#ff0000;stroke-linejoin:miter;stroke-width:1.5;"/>
    </defs>
    <g>
     <use style="fill:none;stroke:#ff0000;stroke-linejoin:miter;stroke-width:1.5;" x="128.386576" xlink:href="#ma971db97bb" y="146.875125"/>
     <use style="fill:none;stroke:#ff0000;stroke-linejoin:miter;stroke-width:1.5;" x="131.272677" xlink:href="#ma971db97bb" y="46.650454"/>
     <use style="fill:none;stroke:#ff0000;stroke-linejoin:miter;stroke-width:1.5;" x="131.272677" xlink:href="#ma971db97bb" y="34.768147"/>
     <use style="fill:none;stroke:#ff0000;stroke-linejoin:miter;stroke-width:1.5;" x="131.272677" xlink:href="#ma971db97bb" y="34.768147"/>
     <use style="fill:none;stroke:#ff0000;stroke-linejoin:miter;stroke-width:1.5;" x="358.8" xlink:href="#ma971db97bb" y="34.768147"/>
    </g>
   </g>
   <g id="line2d_44"/>
   <g id="line2d_45">
    <path d="M 358.8 277.580494 
L 390.48 292.97583 
" style="fill:none;stroke:#6495ed;stroke-linecap:square;stroke-width:1.5;"/>
    <g>
     <use style="fill:none;stroke:#6495ed;stroke-linejoin:miter;stroke-width:1.5;" x="358.8" xlink:href="#m698a70669b" y="277.580494"/>
     <use style="fill:none;stroke:#6495ed;stroke-linejoin:miter;stroke-width:1.5;" x="390.48" xlink:href="#m698a70669b" y="292.97583"/>
    </g>
   </g>
   <g id="line2d_46">
    <path d="M 358.8 267.248054 
L 390.48 229.741296 
" style="fill:none;stroke:#ffa500;stroke-linecap:square;stroke-width:1.5;"/>
    <g>
     <use style="fill:none;stroke:#ffa500;stroke-linejoin:bevel;stroke-width:1.5;" x="358.8" xlink:href="#m3af4c114a2" y="267.248054"/>
     <use style="fill:none;stroke:#ffa500;stroke-linejoin:bevel;stroke-width:1.5;" x="390.48" xlink:href="#m3af4c114a2" y="229.741296"/>
    </g>
   </g>
   <g id="line2d_47">
    <path d="M 358.8 34.768147 
L 390.48 166.506761 
" style="fill:none;stroke:#ff00ff;stroke-linecap:square;stroke-width:1.5;"/>
    <g>
     <use style="fill:none;stroke:#ff00ff;stroke-linejoin:miter;stroke-width:1.5;" x="358.8" xlink:href="#m5494e7cf55" y="34.768147"/>
     <use style="fill:none;stroke:#ff00ff;stroke-linejoin:miter;stroke-width:1.5;" x="390.48" xlink:href="#m5494e7cf55" y="166.506761"/>
    </g>
   </g>
   <g id="line2d_48">
    <path d="M 358.8 34.768147 
L 390.48 103.272226 
" style="fill:none;stroke:#000080;stroke-linecap:square;stroke-width:1.5;"/>
    <g>
     <use style="fill:none;stroke:#000080;stroke-width:1.5;" x="358.8" xlink:href="#m93b9a22a88" y="34.768147"/>
     <use style="fill:none;stroke:#000080;stroke-width:1.5;" x="390.48" xlink:href="#m93b9a22a88" y="103.272226"/>
    </g>
   </g>
   <g id="line2d_49">
    <path d="M 358.8 34.768147 
L 390.48 40.037692 
" style="fill:none;stroke:#ff0000;stroke-linecap:square;stroke-width:1.5;"/>
    <g>
     <use style="fill:none;stroke:#ff0000;stroke-linejoin:miter;stroke-width:1.5;" x="358.8" xlink:href="#ma971db97bb" y="34.768147"/>
     <use style="fill:none;stroke:#ff0000;stroke-linejoin:miter;stroke-width:1.5;" x="390.48" xlink:href="#ma971db97bb" y="40.037692"/>
    </g>
   </g>
   <g id="line2d_50">
    <path d="M 358.8 298.245375 
L 358.8 34.768147 
" style="fill:none;stroke:#000000;stroke-linecap:square;stroke-width:1.5;"/>
   </g>
   <g id="patch_3">
    <path d="M 70.8 298.245375 
L 70.8 32.133375 
" style="fill:none;stroke:#000000;stroke-linecap:square;stroke-linejoin:miter;stroke-width:0.8;"/>
   </g>
   <g id="patch_4">
    <path d="M 427.92 298.245375 
L 427.92 32.133375 
" style="fill:none;stroke:#000000;stroke-linecap:square;stroke-linejoin:miter;stroke-width:0.8;"/>
   </g>
   <g id="patch_5">
    <path d="M 70.8 298.245375 
L 427.92 298.245375 
" style="fill:none;stroke:#000000;stroke-linecap:square;stroke-linejoin:miter;stroke-width:0.8;"/>
   </g>
   <g id="patch_6">
    <path d="M 70.8 32.133375 
L 427.92 32.133375 
" style="fill:none;stroke:#000000;stroke-linecap:square;stroke-linejoin:miter;stroke-width:0.8;"/>
   </g>
   <g id="text_14">
    <!-- f4 -->
    <g transform="translate(396.24 297.114893)scale(0.15 -0.15)">
     <use xlink:href="#DejaVuSans-66"/>
     <use x="35.205078" xlink:href="#DejaVuSans-34"/>
    </g>
   </g>
   <g id="text_15">
    <!-- f3 -->
    <defs>
     <path d="M 40.578125 39.3125 
Q 47.65625 37.796875 51.625 33 
Q 55.609375 28.21875 55.609375 21.1875 
Q 55.609375 10.40625 48.1875 4.484375 
Q 40.765625 -1.421875 27.09375 -1.421875 
Q 22.515625 -1.421875 17.65625 -0.515625 
Q 12.796875 0.390625 7.625 2.203125 
L 7.625 11.71875 
Q 11.71875 9.328125 16.59375 8.109375 
Q 21.484375 6.890625 26.8125 6.890625 
Q 36.078125 6.890625 40.9375 10.546875 
Q 45.796875 14.203125 45.796875 21.1875 
Q 45.796875 27.640625 41.28125 31.265625 
Q 36.765625 34.90625 28.71875 34.90625 
L 20.21875 34.90625 
L 20.21875 43.015625 
L 29.109375 43.015625 
Q 36.375 43.015625 40.234375 45.921875 
Q 44.09375 48.828125 44.09375 54.296875 
Q 44.09375 59.90625 40.109375 62.90625 
Q 36.140625 65.921875 28.71875 65.921875 
Q 24.65625 65.921875 20.015625 65.03125 
Q 15.375 64.15625 9.8125 62.3125 
L 9.8125 71.09375 
Q 15.4375 72.65625 20.34375 73.4375 
Q 25.25 74.21875 29.59375 74.21875 
Q 40.828125 74.21875 47.359375 69.109375 
Q 53.90625 64.015625 53.90625 55.328125 
Q 53.90625 49.265625 50.4375 45.09375 
Q 46.96875 40.921875 40.578125 39.3125 
z
" id="DejaVuSans-33"/>
    </defs>
    <g transform="translate(396.24 233.880358)scale(0.15 -0.15)">
     <use xlink:href="#DejaVuSans-66"/>
     <use x="35.205078" xlink:href="#DejaVuSans-33"/>
    </g>
   </g>
   <g id="text_16">
    <!-- f2 -->
    <g transform="translate(396.24 170.645824)scale(0.15 -0.15)">
     <use xlink:href="#DejaVuSans-66"/>
     <use x="35.205078" xlink:href="#DejaVuSans-32"/>
    </g>
   </g>
   <g id="text_17">
    <!-- f1 -->
    <g transform="translate(396.24 107.411289)scale(0.15 -0.15)">
     <use xlink:href="#DejaVuSans-66"/>
     <use x="35.205078" xlink:href="#DejaVuSans-31"/>
    </g>
   </g>
   <g id="text_18">
    <!-- f5 -->
    <defs>
     <path d="M 10.796875 72.90625 
L 49.515625 72.90625 
L 49.515625 64.59375 
L 19.828125 64.59375 
L 19.828125 46.734375 
Q 21.96875 47.46875 24.109375 47.828125 
Q 26.265625 48.1875 28.421875 48.1875 
Q 40.625 48.1875 47.75 41.5 
Q 54.890625 34.8125 54.890625 23.390625 
Q 54.890625 11.625 47.5625 5.09375 
Q 40.234375 -1.421875 26.90625 -1.421875 
Q 22.3125 -1.421875 17.546875 -0.640625 
Q 12.796875 0.140625 7.71875 1.703125 
L 7.71875 11.625 
Q 12.109375 9.234375 16.796875 8.0625 
Q 21.484375 6.890625 26.703125 6.890625 
Q 35.15625 6.890625 40.078125 11.328125 
Q 45.015625 15.765625 45.015625 23.390625 
Q 45.015625 31 40.078125 35.4375 
Q 35.15625 39.890625 26.703125 39.890625 
Q 22.75 39.890625 18.8125 39.015625 
Q 14.890625 38.140625 10.796875 36.28125 
z
" id="DejaVuSans-35"/>
    </defs>
    <g transform="translate(396.24 44.176754)scale(0.15 -0.15)">
     <use xlink:href="#DejaVuSans-66"/>
     <use x="35.205078" xlink:href="#DejaVuSans-35"/>
    </g>
   </g>
   <g id="text_19">
    <!-- bbob -->
    <defs>
     <path d="M 48.6875 27.296875 
Q 48.6875 37.203125 44.609375 42.84375 
Q 40.53125 48.484375 33.40625 48.484375 
Q 26.265625 48.484375 22.1875 42.84375 
Q 18.109375 37.203125 18.109375 27.296875 
Q 18.109375 17.390625 22.1875 11.75 
Q 26.265625 6.109375 33.40625 6.109375 
Q 40.53125 6.109375 44.609375 11.75 
Q 48.6875 17.390625 48.6875 27.296875 
z
M 18.109375 46.390625 
Q 20.953125 51.265625 25.265625 53.625 
Q 29.59375 56 35.59375 56 
Q 45.5625 56 51.78125 48.09375 
Q 58.015625 40.1875 58.015625 27.296875 
Q 58.015625 14.40625 51.78125 6.484375 
Q 45.5625 -1.421875 35.59375 -1.421875 
Q 29.59375 -1.421875 25.265625 0.953125 
Q 20.953125 3.328125 18.109375 8.203125 
L 18.109375 0 
L 9.078125 0 
L 9.078125 75.984375 
L 18.109375 75.984375 
z
" id="DejaVuSans-62"/>
    </defs>
    <g transform="translate(74.3712 50.114612)scale(0.1666 -0.1666)">
     <use xlink:href="#DejaVuSans-62"/>
     <use x="63.476562" xlink:href="#DejaVuSans-62"/>
     <use x="126.953125" xlink:href="#DejaVuSans-6f"/>
     <use x="188.134766" xlink:href="#DejaVuSans-62"/>
    </g>
    <!-- Separable functions, 10-D -->
    <defs>
     <path d="M 53.515625 70.515625 
L 53.515625 60.890625 
Q 47.90625 63.578125 42.921875 64.890625 
Q 37.9375 66.21875 33.296875 66.21875 
Q 25.25 66.21875 20.875 63.09375 
Q 16.5 59.96875 16.5 54.203125 
Q 16.5 49.359375 19.40625 46.890625 
Q 22.3125 44.4375 30.421875 42.921875 
L 36.375 41.703125 
Q 47.40625 39.59375 52.65625 34.296875 
Q 57.90625 29 57.90625 20.125 
Q 57.90625 9.515625 50.796875 4.046875 
Q 43.703125 -1.421875 29.984375 -1.421875 
Q 24.8125 -1.421875 18.96875 -0.25 
Q 13.140625 0.921875 6.890625 3.21875 
L 6.890625 13.375 
Q 12.890625 10.015625 18.65625 8.296875 
Q 24.421875 6.59375 29.984375 6.59375 
Q 38.421875 6.59375 43.015625 9.90625 
Q 47.609375 13.234375 47.609375 19.390625 
Q 47.609375 24.75 44.3125 27.78125 
Q 41.015625 30.8125 33.5 32.328125 
L 27.484375 33.5 
Q 16.453125 35.6875 11.515625 40.375 
Q 6.59375 45.0625 6.59375 53.421875 
Q 6.59375 63.09375 13.40625 68.65625 
Q 20.21875 74.21875 32.171875 74.21875 
Q 37.3125 74.21875 42.625 73.28125 
Q 47.953125 72.359375 53.515625 70.515625 
z
" id="DejaVuSans-53"/>
     <path d="M 11.71875 12.40625 
L 22.015625 12.40625 
L 22.015625 4 
L 14.015625 -11.625 
L 7.71875 -11.625 
L 11.71875 4 
z
" id="DejaVuSans-2c"/>
     <path d="M 19.671875 64.796875 
L 19.671875 8.109375 
L 31.59375 8.109375 
Q 46.6875 8.109375 53.6875 14.9375 
Q 60.6875 21.78125 60.6875 36.53125 
Q 60.6875 51.171875 53.6875 57.984375 
Q 46.6875 64.796875 31.59375 64.796875 
z
M 9.8125 72.90625 
L 30.078125 72.90625 
Q 51.265625 72.90625 61.171875 64.09375 
Q 71.09375 55.28125 71.09375 36.53125 
Q 71.09375 17.671875 61.125 8.828125 
Q 51.171875 0 30.078125 0 
L 9.8125 0 
z
" id="DejaVuSans-44"/>
    </defs>
    <g transform="translate(74.3712 68.770168)scale(0.1666 -0.1666)">
     <use xlink:href="#DejaVuSans-53"/>
     <use x="63.476562" xlink:href="#DejaVuSans-65"/>
     <use x="125" xlink:href="#DejaVuSans-70"/>
     <use x="188.476562" xlink:href="#DejaVuSans-61"/>
     <use x="249.755859" xlink:href="#DejaVuSans-72"/>
     <use x="290.869141" xlink:href="#DejaVuSans-61"/>
     <use x="352.148438" xlink:href="#DejaVuSans-62"/>
     <use x="415.625" xlink:href="#DejaVuSans-6c"/>
     <use x="443.408203" xlink:href="#DejaVuSans-65"/>
     <use x="504.931641" xlink:href="#DejaVuSans-20"/>
     <use x="536.71875" xlink:href="#DejaVuSans-66"/>
     <use x="571.923828" xlink:href="#DejaVuSans-75"/>
     <use x="635.302734" xlink:href="#DejaVuSans-6e"/>
     <use x="698.681641" xlink:href="#DejaVuSans-63"/>
     <use x="753.662109" xlink:href="#DejaVuSans-74"/>
     <use x="792.871094" xlink:href="#DejaVuSans-69"/>
     <use x="820.654297" xlink:href="#DejaVuSans-6f"/>
     <use x="881.835938" xlink:href="#DejaVuSans-6e"/>
     <use x="945.214844" xlink:href="#DejaVuSans-73"/>
     <use x="997.314453" xlink:href="#DejaVuSans-2c"/>
     <use x="1029.101562" xlink:href="#DejaVuSans-20"/>
     <use x="1060.888672" xlink:href="#DejaVuSans-31"/>
     <use x="1124.511719" xlink:href="#DejaVuSans-30"/>
     <use x="1188.134766" xlink:href="#DejaVuSans-2d"/>
     <use x="1224.21875" xlink:href="#DejaVuSans-44"/>
    </g>
    <!-- 51 targets in 100..1e-08 -->
    <g transform="translate(74.3712 87.425723)scale(0.1666 -0.1666)">
     <use xlink:href="#DejaVuSans-35"/>
     <use x="63.623047" xlink:href="#DejaVuSans-31"/>
     <use x="127.246094" xlink:href="#DejaVuSans-20"/>
     <use x="159.033203" xlink:href="#DejaVuSans-74"/>
     <use x="198.242188" xlink:href="#DejaVuSans-61"/>
     <use x="259.521484" xlink:href="#DejaVuSans-72"/>
     <use x="300.619141" xlink:href="#DejaVuSans-67"/>
     <use x="364.095703" xlink:href="#DejaVuSans-65"/>
     <use x="425.619141" xlink:href="#DejaVuSans-74"/>
     <use x="464.828125" xlink:href="#DejaVuSans-73"/>
     <use x="516.927734" xlink:href="#DejaVuSans-20"/>
     <use x="548.714844" xlink:href="#DejaVuSans-69"/>
     <use x="576.498047" xlink:href="#DejaVuSans-6e"/>
     <use x="639.876953" xlink:href="#DejaVuSans-20"/>
     <use x="671.664062" xlink:href="#DejaVuSans-31"/>
     <use x="735.287109" xlink:href="#DejaVuSans-30"/>
     <use x="798.910156" xlink:href="#DejaVuSans-30"/>
     <use x="862.533203" xlink:href="#DejaVuSans-2e"/>
     <use x="894.320312" xlink:href="#DejaVuSans-2e"/>
     <use x="926.107422" xlink:href="#DejaVuSans-31"/>
     <use x="989.730469" xlink:href="#DejaVuSans-65"/>
     <use x="1051.253906" xlink:href="#DejaVuSans-2d"/>
     <use x="1087.337891" xlink:href="#DejaVuSans-30"/>
     <use x="1150.960938" xlink:href="#DejaVuSans-38"/>
    </g>
    <!-- 15 instances -->
    <g transform="translate(74.3712 106.081279)scale(0.1666 -0.1666)">
     <use xlink:href="#DejaVuSans-31"/>
     <use x="63.623047" xlink:href="#DejaVuSans-35"/>
     <use x="127.246094" xlink:href="#DejaVuSans-20"/>
     <use x="159.033203" xlink:href="#DejaVuSans-69"/>
     <use x="186.816406" xlink:href="#DejaVuSans-6e"/>
     <use x="250.195312" xlink:href="#DejaVuSans-73"/>
     <use x="302.294922" xlink:href="#DejaVuSans-74"/>
     <use x="341.503906" xlink:href="#DejaVuSans-61"/>
     <use x="402.783203" xlink:href="#DejaVuSans-6e"/>
     <use x="466.162109" xlink:href="#DejaVuSans-63"/>
     <use x="521.142578" xlink:href="#DejaVuSans-65"/>
     <use x="582.666016" xlink:href="#DejaVuSans-73"/>
    </g>
   </g>
   <g id="text_20">
    <!-- v2.1 -->
    <g style="fill:#808080;" transform="translate(238.449063 293.504568)scale(0.1 -0.1)">
     <use xlink:href="#DejaVuSans-76"/>
     <use x="59.179688" xlink:href="#DejaVuSans-32"/>
     <use x="122.802734" xlink:href="#DejaVuSans-2e"/>
     <use x="154.589844" xlink:href="#DejaVuSans-31"/>
    </g>
   </g>
  </g>
 </g>
 <defs>
  <clipPath id="p7da6ddf3dc">
   <rect height="266.112" width="357.12" x="70.8" y="32.133375"/>
  </clipPath>
 </defs>
</svg>
