<?xml version="1.0" encoding="utf-8" standalone="no"?>
<!DOCTYPE svg PUBLIC "-//W3C//DTD SVG 1.1//EN"
  "http://www.w3.org/Graphics/SVG/1.1/DTD/svg11.dtd">
<!-- Created with matplotlib (http://matplotlib.org/) -->
<svg height="353pt" version="1.1" viewBox="0 0 440 353" width="440pt" xmlns="http://www.w3.org/2000/svg" xmlns:xlink="http://www.w3.org/1999/xlink">
 <defs>
  <style type="text/css">
*{stroke-linecap:butt;stroke-linejoin:round;}
  </style>
 </defs>
 <g id="figure_1">
  <g id="patch_1">
   <path d="M -0 353.22225 
L 440.933325 353.22225 
L 440.933325 0 
L -0 0 
z
" style="fill:#ffffff;"/>
  </g>
  <g id="axes_1">
   <g id="patch_2">
    <path d="M 73.113325 298.245375 
L 430.233325 298.245375 
L 430.233325 32.133375 
L 73.113325 32.133375 
z
" style="fill:#ffffff;"/>
   </g>
   <g id="matplotlib.axis_1">
    <g id="xtick_1">
     <g id="line2d_1">
      <path clip-path="url(#p0e35eeec3d)" d="M 73.113325 298.245375 
L 73.113325 32.133375 
" style="fill:none;stroke:#b0b0b0;stroke-linecap:square;stroke-width:0.8;"/>
     </g>
     <g id="line2d_2">
      <defs>
       <path d="M 0 0 
L 0 3.5 
" id="mfa6c9f76ce" style="stroke:#000000;stroke-width:0.8;"/>
      </defs>
      <g>
       <use style="stroke:#000000;stroke-width:0.8;" x="73.113325" xlink:href="#mfa6c9f76ce" y="298.245375"/>
      </g>
     </g>
     <g id="text_1">
      <!-- 0 -->
      <defs>
       <path d="M 31.78125 66.40625 
Q 24.171875 66.40625 20.328125 58.90625 
Q 16.5 51.421875 16.5 36.375 
Q 16.5 21.390625 20.328125 13.890625 
Q 24.171875 6.390625 31.78125 6.390625 
Q 39.453125 6.390625 43.28125 13.890625 
Q 47.125 21.390625 47.125 36.375 
Q 47.125 51.421875 43.28125 58.90625 
Q 39.453125 66.40625 31.78125 66.40625 
z
M 31.78125 74.21875 
Q 44.046875 74.21875 50.515625 64.515625 
Q 56.984375 54.828125 56.984375 36.375 
Q 56.984375 17.96875 50.515625 8.265625 
Q 44.046875 -1.421875 31.78125 -1.421875 
Q 19.53125 -1.421875 13.0625 8.265625 
Q 6.59375 17.96875 6.59375 36.375 
Q 6.59375 54.828125 13.0625 64.515625 
Q 19.53125 74.21875 31.78125 74.21875 
z
" id="DejaVuSans-30"/>
      </defs>
      <g transform="translate(66.750825 320.44225)scale(0.2 -0.2)">
       <use xlink:href="#DejaVuSans-30"/>
      </g>
     </g>
    </g>
    <g id="xtick_2">
     <g id="line2d_3">
      <path clip-path="url(#p0e35eeec3d)" d="M 155.39904 298.245375 
L 155.39904 32.133375 
" style="fill:none;stroke:#b0b0b0;stroke-linecap:square;stroke-width:0.8;"/>
     </g>
     <g id="line2d_4">
      <g>
       <use style="stroke:#000000;stroke-width:0.8;" x="155.39904" xlink:href="#mfa6c9f76ce" y="298.245375"/>
      </g>
     </g>
     <g id="text_2">
      <!-- 2 -->
      <defs>
       <path d="M 19.1875 8.296875 
L 53.609375 8.296875 
L 53.609375 0 
L 7.328125 0 
L 7.328125 8.296875 
Q 12.9375 14.109375 22.625 23.890625 
Q 32.328125 33.6875 34.8125 36.53125 
Q 39.546875 41.84375 41.421875 45.53125 
Q 43.3125 49.21875 43.3125 52.78125 
Q 43.3125 58.59375 39.234375 62.25 
Q 35.15625 65.921875 28.609375 65.921875 
Q 23.96875 65.921875 18.8125 64.3125 
Q 13.671875 62.703125 7.8125 59.421875 
L 7.8125 69.390625 
Q 13.765625 71.78125 18.9375 73 
Q 24.125 74.21875 28.421875 74.21875 
Q 39.75 74.21875 46.484375 68.546875 
Q 53.21875 62.890625 53.21875 53.421875 
Q 53.21875 48.921875 51.53125 44.890625 
Q 49.859375 40.875 45.40625 35.40625 
Q 44.1875 33.984375 37.640625 27.21875 
Q 31.109375 20.453125 19.1875 8.296875 
z
" id="DejaVuSans-32"/>
      </defs>
      <g transform="translate(149.03654 320.44225)scale(0.2 -0.2)">
       <use xlink:href="#DejaVuSans-32"/>
      </g>
     </g>
    </g>
    <g id="xtick_3">
     <g id="line2d_5">
      <path clip-path="url(#p0e35eeec3d)" d="M 237.684754 298.245375 
L 237.684754 32.133375 
" style="fill:none;stroke:#b0b0b0;stroke-linecap:square;stroke-width:0.8;"/>
     </g>
     <g id="line2d_6">
      <g>
       <use style="stroke:#000000;stroke-width:0.8;" x="237.684754" xlink:href="#mfa6c9f76ce" y="298.245375"/>
      </g>
     </g>
     <g id="text_3">
      <!-- 4 -->
      <defs>
       <path d="M 37.796875 64.3125 
L 12.890625 25.390625 
L 37.796875 25.390625 
z
M 35.203125 72.90625 
L 47.609375 72.90625 
L 47.609375 25.390625 
L 58.015625 25.390625 
L 58.015625 17.1875 
L 47.609375 17.1875 
L 47.609375 0 
L 37.796875 0 
L 37.796875 17.1875 
L 4.890625 17.1875 
L 4.890625 26.703125 
z
" id="DejaVuSans-34"/>
      </defs>
      <g transform="translate(231.322254 320.44225)scale(0.2 -0.2)">
       <use xlink:href="#DejaVuSans-34"/>
      </g>
     </g>
    </g>
    <g id="xtick_4">
     <g id="line2d_7">
      <path clip-path="url(#p0e35eeec3d)" d="M 319.970468 298.245375 
L 319.970468 32.133375 
" style="fill:none;stroke:#b0b0b0;stroke-linecap:square;stroke-width:0.8;"/>
     </g>
     <g id="line2d_8">
      <g>
       <use style="stroke:#000000;stroke-width:0.8;" x="319.970468" xlink:href="#mfa6c9f76ce" y="298.245375"/>
      </g>
     </g>
     <g id="text_4">
      <!-- 6 -->
      <defs>
       <path d="M 33.015625 40.375 
Q 26.375 40.375 22.484375 35.828125 
Q 18.609375 31.296875 18.609375 23.390625 
Q 18.609375 15.53125 22.484375 10.953125 
Q 26.375 6.390625 33.015625 6.390625 
Q 39.65625 6.390625 43.53125 10.953125 
Q 47.40625 15.53125 47.40625 23.390625 
Q 47.40625 31.296875 43.53125 35.828125 
Q 39.65625 40.375 33.015625 40.375 
z
M 52.59375 71.296875 
L 52.59375 62.3125 
Q 48.875 64.0625 45.09375 64.984375 
Q 41.3125 65.921875 37.59375 65.921875 
Q 27.828125 65.921875 22.671875 59.328125 
Q 17.53125 52.734375 16.796875 39.40625 
Q 19.671875 43.65625 24.015625 45.921875 
Q 28.375 48.1875 33.59375 48.1875 
Q 44.578125 48.1875 50.953125 41.515625 
Q 57.328125 34.859375 57.328125 23.390625 
Q 57.328125 12.15625 50.6875 5.359375 
Q 44.046875 -1.421875 33.015625 -1.421875 
Q 20.359375 -1.421875 13.671875 8.265625 
Q 6.984375 17.96875 6.984375 36.375 
Q 6.984375 53.65625 15.1875 63.9375 
Q 23.390625 74.21875 37.203125 74.21875 
Q 40.921875 74.21875 44.703125 73.484375 
Q 48.484375 72.75 52.59375 71.296875 
z
" id="DejaVuSans-36"/>
      </defs>
      <g transform="translate(313.607968 320.44225)scale(0.2 -0.2)">
       <use xlink:href="#DejaVuSans-36"/>
      </g>
     </g>
    </g>
    <g id="xtick_5">
     <g id="line2d_9">
      <path clip-path="url(#p0e35eeec3d)" d="M 402.256183 298.245375 
L 402.256183 32.133375 
" style="fill:none;stroke:#b0b0b0;stroke-linecap:square;stroke-width:0.8;"/>
     </g>
     <g id="line2d_10">
      <g>
       <use style="stroke:#000000;stroke-width:0.8;" x="402.256183" xlink:href="#mfa6c9f76ce" y="298.245375"/>
      </g>
     </g>
     <g id="text_5">
      <!-- 8 -->
      <defs>
       <path d="M 31.78125 34.625 
Q 24.75 34.625 20.71875 30.859375 
Q 16.703125 27.09375 16.703125 20.515625 
Q 16.703125 13.921875 20.71875 10.15625 
Q 24.75 6.390625 31.78125 6.390625 
Q 38.8125 6.390625 42.859375 10.171875 
Q 46.921875 13.96875 46.921875 20.515625 
Q 46.921875 27.09375 42.890625 30.859375 
Q 38.875 34.625 31.78125 34.625 
z
M 21.921875 38.8125 
Q 15.578125 40.375 12.03125 44.71875 
Q 8.5 49.078125 8.5 55.328125 
Q 8.5 64.0625 14.71875 69.140625 
Q 20.953125 74.21875 31.78125 74.21875 
Q 42.671875 74.21875 48.875 69.140625 
Q 55.078125 64.0625 55.078125 55.328125 
Q 55.078125 49.078125 51.53125 44.71875 
Q 48 40.375 41.703125 38.8125 
Q 48.828125 37.15625 52.796875 32.3125 
Q 56.78125 27.484375 56.78125 20.515625 
Q 56.78125 9.90625 50.3125 4.234375 
Q 43.84375 -1.421875 31.78125 -1.421875 
Q 19.734375 -1.421875 13.25 4.234375 
Q 6.78125 9.90625 6.78125 20.515625 
Q 6.78125 27.484375 10.78125 32.3125 
Q 14.796875 37.15625 21.921875 38.8125 
z
M 18.3125 54.390625 
Q 18.3125 48.734375 21.84375 45.5625 
Q 25.390625 42.390625 31.78125 42.390625 
Q 38.140625 42.390625 41.71875 45.5625 
Q 45.3125 48.734375 45.3125 54.390625 
Q 45.3125 60.0625 41.71875 63.234375 
Q 38.140625 66.40625 31.78125 66.40625 
Q 25.390625 66.40625 21.84375 63.234375 
Q 18.3125 60.0625 18.3125 54.390625 
z
" id="DejaVuSans-38"/>
      </defs>
      <g transform="translate(395.893683 320.44225)scale(0.2 -0.2)">
       <use xlink:href="#DejaVuSans-38"/>
      </g>
     </g>
    </g>
    <g id="text_6">
     <!-- log10 of (# f-evals / dimension) -->
     <defs>
      <path d="M 9.421875 75.984375 
L 18.40625 75.984375 
L 18.40625 0 
L 9.421875 0 
z
" id="DejaVuSans-6c"/>
      <path d="M 30.609375 48.390625 
Q 23.390625 48.390625 19.1875 42.75 
Q 14.984375 37.109375 14.984375 27.296875 
Q 14.984375 17.484375 19.15625 11.84375 
Q 23.34375 6.203125 30.609375 6.203125 
Q 37.796875 6.203125 41.984375 11.859375 
Q 46.1875 17.53125 46.1875 27.296875 
Q 46.1875 37.015625 41.984375 42.703125 
Q 37.796875 48.390625 30.609375 48.390625 
z
M 30.609375 56 
Q 42.328125 56 49.015625 48.375 
Q 55.71875 40.765625 55.71875 27.296875 
Q 55.71875 13.875 49.015625 6.21875 
Q 42.328125 -1.421875 30.609375 -1.421875 
Q 18.84375 -1.421875 12.171875 6.21875 
Q 5.515625 13.875 5.515625 27.296875 
Q 5.515625 40.765625 12.171875 48.375 
Q 18.84375 56 30.609375 56 
z
" id="DejaVuSans-6f"/>
      <path d="M 45.40625 27.984375 
Q 45.40625 37.75 41.375 43.109375 
Q 37.359375 48.484375 30.078125 48.484375 
Q 22.859375 48.484375 18.828125 43.109375 
Q 14.796875 37.75 14.796875 27.984375 
Q 14.796875 18.265625 18.828125 12.890625 
Q 22.859375 7.515625 30.078125 7.515625 
Q 37.359375 7.515625 41.375 12.890625 
Q 45.40625 18.265625 45.40625 27.984375 
z
M 54.390625 6.78125 
Q 54.390625 -7.171875 48.1875 -13.984375 
Q 42 -20.796875 29.203125 -20.796875 
Q 24.46875 -20.796875 20.265625 -20.09375 
Q 16.0625 -19.390625 12.109375 -17.921875 
L 12.109375 -9.1875 
Q 16.0625 -11.328125 19.921875 -12.34375 
Q 23.78125 -13.375 27.78125 -13.375 
Q 36.625 -13.375 41.015625 -8.765625 
Q 45.40625 -4.15625 45.40625 5.171875 
L 45.40625 9.625 
Q 42.625 4.78125 38.28125 2.390625 
Q 33.9375 0 27.875 0 
Q 17.828125 0 11.671875 7.65625 
Q 5.515625 15.328125 5.515625 27.984375 
Q 5.515625 40.671875 11.671875 48.328125 
Q 17.828125 56 27.875 56 
Q 33.9375 56 38.28125 53.609375 
Q 42.625 51.21875 45.40625 46.390625 
L 45.40625 54.6875 
L 54.390625 54.6875 
z
" id="DejaVuSans-67"/>
      <path d="M 12.40625 8.296875 
L 28.515625 8.296875 
L 28.515625 63.921875 
L 10.984375 60.40625 
L 10.984375 69.390625 
L 28.421875 72.90625 
L 38.28125 72.90625 
L 38.28125 8.296875 
L 54.390625 8.296875 
L 54.390625 0 
L 12.40625 0 
z
" id="DejaVuSans-31"/>
      <path id="DejaVuSans-20"/>
      <path d="M 37.109375 75.984375 
L 37.109375 68.5 
L 28.515625 68.5 
Q 23.6875 68.5 21.796875 66.546875 
Q 19.921875 64.59375 19.921875 59.515625 
L 19.921875 54.6875 
L 34.71875 54.6875 
L 34.71875 47.703125 
L 19.921875 47.703125 
L 19.921875 0 
L 10.890625 0 
L 10.890625 47.703125 
L 2.296875 47.703125 
L 2.296875 54.6875 
L 10.890625 54.6875 
L 10.890625 58.5 
Q 10.890625 67.625 15.140625 71.796875 
Q 19.390625 75.984375 28.609375 75.984375 
z
" id="DejaVuSans-66"/>
      <path d="M 31 75.875 
Q 24.46875 64.65625 21.28125 53.65625 
Q 18.109375 42.671875 18.109375 31.390625 
Q 18.109375 20.125 21.3125 9.0625 
Q 24.515625 -2 31 -13.1875 
L 23.1875 -13.1875 
Q 15.875 -1.703125 12.234375 9.375 
Q 8.59375 20.453125 8.59375 31.390625 
Q 8.59375 42.28125 12.203125 53.3125 
Q 15.828125 64.359375 23.1875 75.875 
z
" id="DejaVuSans-28"/>
      <path d="M 51.125 44 
L 36.921875 44 
L 32.8125 27.6875 
L 47.125 27.6875 
z
M 43.796875 71.78125 
L 38.71875 51.515625 
L 52.984375 51.515625 
L 58.109375 71.78125 
L 65.921875 71.78125 
L 60.890625 51.515625 
L 76.125 51.515625 
L 76.125 44 
L 58.984375 44 
L 54.984375 27.6875 
L 70.515625 27.6875 
L 70.515625 20.21875 
L 53.078125 20.21875 
L 48 0 
L 40.1875 0 
L 45.21875 20.21875 
L 30.90625 20.21875 
L 25.875 0 
L 18.015625 0 
L 23.09375 20.21875 
L 7.71875 20.21875 
L 7.71875 27.6875 
L 24.90625 27.6875 
L 29 44 
L 13.28125 44 
L 13.28125 51.515625 
L 30.90625 51.515625 
L 35.890625 71.78125 
z
" id="DejaVuSans-23"/>
      <path d="M 4.890625 31.390625 
L 31.203125 31.390625 
L 31.203125 23.390625 
L 4.890625 23.390625 
z
" id="DejaVuSans-2d"/>
      <path d="M 56.203125 29.59375 
L 56.203125 25.203125 
L 14.890625 25.203125 
Q 15.484375 15.921875 20.484375 11.0625 
Q 25.484375 6.203125 34.421875 6.203125 
Q 39.59375 6.203125 44.453125 7.46875 
Q 49.3125 8.734375 54.109375 11.28125 
L 54.109375 2.78125 
Q 49.265625 0.734375 44.1875 -0.34375 
Q 39.109375 -1.421875 33.890625 -1.421875 
Q 20.796875 -1.421875 13.15625 6.1875 
Q 5.515625 13.8125 5.515625 26.8125 
Q 5.515625 40.234375 12.765625 48.109375 
Q 20.015625 56 32.328125 56 
Q 43.359375 56 49.78125 48.890625 
Q 56.203125 41.796875 56.203125 29.59375 
z
M 47.21875 32.234375 
Q 47.125 39.59375 43.09375 43.984375 
Q 39.0625 48.390625 32.421875 48.390625 
Q 24.90625 48.390625 20.390625 44.140625 
Q 15.875 39.890625 15.1875 32.171875 
z
" id="DejaVuSans-65"/>
      <path d="M 2.984375 54.6875 
L 12.5 54.6875 
L 29.59375 8.796875 
L 46.6875 54.6875 
L 56.203125 54.6875 
L 35.6875 0 
L 23.484375 0 
z
" id="DejaVuSans-76"/>
      <path d="M 34.28125 27.484375 
Q 23.390625 27.484375 19.1875 25 
Q 14.984375 22.515625 14.984375 16.5 
Q 14.984375 11.71875 18.140625 8.90625 
Q 21.296875 6.109375 26.703125 6.109375 
Q 34.1875 6.109375 38.703125 11.40625 
Q 43.21875 16.703125 43.21875 25.484375 
L 43.21875 27.484375 
z
M 52.203125 31.203125 
L 52.203125 0 
L 43.21875 0 
L 43.21875 8.296875 
Q 40.140625 3.328125 35.546875 0.953125 
Q 30.953125 -1.421875 24.3125 -1.421875 
Q 15.921875 -1.421875 10.953125 3.296875 
Q 6 8.015625 6 15.921875 
Q 6 25.140625 12.171875 29.828125 
Q 18.359375 34.515625 30.609375 34.515625 
L 43.21875 34.515625 
L 43.21875 35.40625 
Q 43.21875 41.609375 39.140625 45 
Q 35.0625 48.390625 27.6875 48.390625 
Q 23 48.390625 18.546875 47.265625 
Q 14.109375 46.140625 10.015625 43.890625 
L 10.015625 52.203125 
Q 14.9375 54.109375 19.578125 55.046875 
Q 24.21875 56 28.609375 56 
Q 40.484375 56 46.34375 49.84375 
Q 52.203125 43.703125 52.203125 31.203125 
z
" id="DejaVuSans-61"/>
      <path d="M 44.28125 53.078125 
L 44.28125 44.578125 
Q 40.484375 46.53125 36.375 47.5 
Q 32.28125 48.484375 27.875 48.484375 
Q 21.1875 48.484375 17.84375 46.4375 
Q 14.5 44.390625 14.5 40.28125 
Q 14.5 37.15625 16.890625 35.375 
Q 19.28125 33.59375 26.515625 31.984375 
L 29.59375 31.296875 
Q 39.15625 29.25 43.1875 25.515625 
Q 47.21875 21.78125 47.21875 15.09375 
Q 47.21875 7.46875 41.1875 3.015625 
Q 35.15625 -1.421875 24.609375 -1.421875 
Q 20.21875 -1.421875 15.453125 -0.5625 
Q 10.6875 0.296875 5.421875 2 
L 5.421875 11.28125 
Q 10.40625 8.6875 15.234375 7.390625 
Q 20.0625 6.109375 24.8125 6.109375 
Q 31.15625 6.109375 34.5625 8.28125 
Q 37.984375 10.453125 37.984375 14.40625 
Q 37.984375 18.0625 35.515625 20.015625 
Q 33.0625 21.96875 24.703125 23.78125 
L 21.578125 24.515625 
Q 13.234375 26.265625 9.515625 29.90625 
Q 5.8125 33.546875 5.8125 39.890625 
Q 5.8125 47.609375 11.28125 51.796875 
Q 16.75 56 26.8125 56 
Q 31.78125 56 36.171875 55.265625 
Q 40.578125 54.546875 44.28125 53.078125 
z
" id="DejaVuSans-73"/>
      <path d="M 25.390625 72.90625 
L 33.6875 72.90625 
L 8.296875 -9.28125 
L 0 -9.28125 
z
" id="DejaVuSans-2f"/>
      <path d="M 45.40625 46.390625 
L 45.40625 75.984375 
L 54.390625 75.984375 
L 54.390625 0 
L 45.40625 0 
L 45.40625 8.203125 
Q 42.578125 3.328125 38.25 0.953125 
Q 33.9375 -1.421875 27.875 -1.421875 
Q 17.96875 -1.421875 11.734375 6.484375 
Q 5.515625 14.40625 5.515625 27.296875 
Q 5.515625 40.1875 11.734375 48.09375 
Q 17.96875 56 27.875 56 
Q 33.9375 56 38.25 53.625 
Q 42.578125 51.265625 45.40625 46.390625 
z
M 14.796875 27.296875 
Q 14.796875 17.390625 18.875 11.75 
Q 22.953125 6.109375 30.078125 6.109375 
Q 37.203125 6.109375 41.296875 11.75 
Q 45.40625 17.390625 45.40625 27.296875 
Q 45.40625 37.203125 41.296875 42.84375 
Q 37.203125 48.484375 30.078125 48.484375 
Q 22.953125 48.484375 18.875 42.84375 
Q 14.796875 37.203125 14.796875 27.296875 
z
" id="DejaVuSans-64"/>
      <path d="M 9.421875 54.6875 
L 18.40625 54.6875 
L 18.40625 0 
L 9.421875 0 
z
M 9.421875 75.984375 
L 18.40625 75.984375 
L 18.40625 64.59375 
L 9.421875 64.59375 
z
" id="DejaVuSans-69"/>
      <path d="M 52 44.1875 
Q 55.375 50.25 60.0625 53.125 
Q 64.75 56 71.09375 56 
Q 79.640625 56 84.28125 50.015625 
Q 88.921875 44.046875 88.921875 33.015625 
L 88.921875 0 
L 79.890625 0 
L 79.890625 32.71875 
Q 79.890625 40.578125 77.09375 44.375 
Q 74.3125 48.1875 68.609375 48.1875 
Q 61.625 48.1875 57.5625 43.546875 
Q 53.515625 38.921875 53.515625 30.90625 
L 53.515625 0 
L 44.484375 0 
L 44.484375 32.71875 
Q 44.484375 40.625 41.703125 44.40625 
Q 38.921875 48.1875 33.109375 48.1875 
Q 26.21875 48.1875 22.15625 43.53125 
Q 18.109375 38.875 18.109375 30.90625 
L 18.109375 0 
L 9.078125 0 
L 9.078125 54.6875 
L 18.109375 54.6875 
L 18.109375 46.1875 
Q 21.1875 51.21875 25.484375 53.609375 
Q 29.78125 56 35.6875 56 
Q 41.65625 56 45.828125 52.96875 
Q 50 49.953125 52 44.1875 
z
" id="DejaVuSans-6d"/>
      <path d="M 54.890625 33.015625 
L 54.890625 0 
L 45.90625 0 
L 45.90625 32.71875 
Q 45.90625 40.484375 42.875 44.328125 
Q 39.84375 48.1875 33.796875 48.1875 
Q 26.515625 48.1875 22.3125 43.546875 
Q 18.109375 38.921875 18.109375 30.90625 
L 18.109375 0 
L 9.078125 0 
L 9.078125 54.6875 
L 18.109375 54.6875 
L 18.109375 46.1875 
Q 21.34375 51.125 25.703125 53.5625 
Q 30.078125 56 35.796875 56 
Q 45.21875 56 50.046875 50.171875 
Q 54.890625 44.34375 54.890625 33.015625 
z
" id="DejaVuSans-6e"/>
      <path d="M 8.015625 75.875 
L 15.828125 75.875 
Q 23.140625 64.359375 26.78125 53.3125 
Q 30.421875 42.28125 30.421875 31.390625 
Q 30.421875 20.453125 26.78125 9.375 
Q 23.140625 -1.703125 15.828125 -13.1875 
L 8.015625 -13.1875 
Q 14.5 -2 17.703125 9.0625 
Q 20.90625 20.125 20.90625 31.390625 
Q 20.90625 42.671875 17.703125 53.65625 
Q 14.5 64.65625 8.015625 75.875 
z
" id="DejaVuSans-29"/>
     </defs>
     <g transform="translate(109.328482 342.278812)scale(0.18 -0.18)">
      <use xlink:href="#DejaVuSans-6c"/>
      <use x="27.783203" xlink:href="#DejaVuSans-6f"/>
      <use x="88.964844" xlink:href="#DejaVuSans-67"/>
      <use x="152.441406" xlink:href="#DejaVuSans-31"/>
      <use x="216.064453" xlink:href="#DejaVuSans-30"/>
      <use x="279.6875" xlink:href="#DejaVuSans-20"/>
      <use x="311.474609" xlink:href="#DejaVuSans-6f"/>
      <use x="372.65625" xlink:href="#DejaVuSans-66"/>
      <use x="407.861328" xlink:href="#DejaVuSans-20"/>
      <use x="439.648438" xlink:href="#DejaVuSans-28"/>
      <use x="478.662109" xlink:href="#DejaVuSans-23"/>
      <use x="562.451172" xlink:href="#DejaVuSans-20"/>
      <use x="594.238281" xlink:href="#DejaVuSans-66"/>
      <use x="629.365234" xlink:href="#DejaVuSans-2d"/>
      <use x="665.449219" xlink:href="#DejaVuSans-65"/>
      <use x="726.972656" xlink:href="#DejaVuSans-76"/>
      <use x="786.152344" xlink:href="#DejaVuSans-61"/>
      <use x="847.431641" xlink:href="#DejaVuSans-6c"/>
      <use x="875.214844" xlink:href="#DejaVuSans-73"/>
      <use x="927.314453" xlink:href="#DejaVuSans-20"/>
      <use x="959.101562" xlink:href="#DejaVuSans-2f"/>
      <use x="992.792969" xlink:href="#DejaVuSans-20"/>
      <use x="1024.580078" xlink:href="#DejaVuSans-64"/>
      <use x="1088.056641" xlink:href="#DejaVuSans-69"/>
      <use x="1115.839844" xlink:href="#DejaVuSans-6d"/>
      <use x="1213.251953" xlink:href="#DejaVuSans-65"/>
      <use x="1274.775391" xlink:href="#DejaVuSans-6e"/>
      <use x="1338.154297" xlink:href="#DejaVuSans-73"/>
      <use x="1390.253906" xlink:href="#DejaVuSans-69"/>
      <use x="1418.037109" xlink:href="#DejaVuSans-6f"/>
      <use x="1479.21875" xlink:href="#DejaVuSans-6e"/>
      <use x="1542.597656" xlink:href="#DejaVuSans-29"/>
     </g>
    </g>
   </g>
   <g id="matplotlib.axis_2">
    <g id="ytick_1">
     <g id="line2d_11">
      <path clip-path="url(#p0e35eeec3d)" d="M 73.113325 298.245375 
L 430.233325 298.245375 
" style="fill:none;stroke:#b0b0b0;stroke-linecap:square;stroke-width:0.8;"/>
     </g>
     <g id="line2d_12">
      <defs>
       <path d="M 0 0 
L -3.5 0 
" id="mdf3f98fd9a" style="stroke:#000000;stroke-width:0.8;"/>
      </defs>
      <g>
       <use style="stroke:#000000;stroke-width:0.8;" x="73.113325" xlink:href="#mdf3f98fd9a" y="298.245375"/>
      </g>
     </g>
     <g id="text_7">
      <!-- 0.0 -->
      <defs>
       <path d="M 10.6875 12.40625 
L 21 12.40625 
L 21 0 
L 10.6875 0 
z
" id="DejaVuSans-2e"/>
      </defs>
      <g transform="translate(34.307075 305.843812)scale(0.2 -0.2)">
       <use xlink:href="#DejaVuSans-30"/>
       <use x="63.623047" xlink:href="#DejaVuSans-2e"/>
       <use x="95.410156" xlink:href="#DejaVuSans-30"/>
      </g>
     </g>
    </g>
    <g id="ytick_2">
     <g id="line2d_13">
      <path clip-path="url(#p0e35eeec3d)" d="M 73.113325 245.549929 
L 430.233325 245.549929 
" style="fill:none;stroke:#b0b0b0;stroke-linecap:square;stroke-width:0.8;"/>
     </g>
     <g id="line2d_14">
      <g>
       <use style="stroke:#000000;stroke-width:0.8;" x="73.113325" xlink:href="#mdf3f98fd9a" y="245.549929"/>
      </g>
     </g>
     <g id="text_8">
      <!-- 0.2 -->
      <g transform="translate(34.307075 253.148367)scale(0.2 -0.2)">
       <use xlink:href="#DejaVuSans-30"/>
       <use x="63.623047" xlink:href="#DejaVuSans-2e"/>
       <use x="95.410156" xlink:href="#DejaVuSans-32"/>
      </g>
     </g>
    </g>
    <g id="ytick_3">
     <g id="line2d_15">
      <path clip-path="url(#p0e35eeec3d)" d="M 73.113325 192.854484 
L 430.233325 192.854484 
" style="fill:none;stroke:#b0b0b0;stroke-linecap:square;stroke-width:0.8;"/>
     </g>
     <g id="line2d_16">
      <g>
       <use style="stroke:#000000;stroke-width:0.8;" x="73.113325" xlink:href="#mdf3f98fd9a" y="192.854484"/>
      </g>
     </g>
     <g id="text_9">
      <!-- 0.4 -->
      <g transform="translate(34.307075 200.452921)scale(0.2 -0.2)">
       <use xlink:href="#DejaVuSans-30"/>
       <use x="63.623047" xlink:href="#DejaVuSans-2e"/>
       <use x="95.410156" xlink:href="#DejaVuSans-34"/>
      </g>
     </g>
    </g>
    <g id="ytick_4">
     <g id="line2d_17">
      <path clip-path="url(#p0e35eeec3d)" d="M 73.113325 140.159038 
L 430.233325 140.159038 
" style="fill:none;stroke:#b0b0b0;stroke-linecap:square;stroke-width:0.8;"/>
     </g>
     <g id="line2d_18">
      <g>
       <use style="stroke:#000000;stroke-width:0.8;" x="73.113325" xlink:href="#mdf3f98fd9a" y="140.159038"/>
      </g>
     </g>
     <g id="text_10">
      <!-- 0.6 -->
      <g transform="translate(34.307075 147.757476)scale(0.2 -0.2)">
       <use xlink:href="#DejaVuSans-30"/>
       <use x="63.623047" xlink:href="#DejaVuSans-2e"/>
       <use x="95.410156" xlink:href="#DejaVuSans-36"/>
      </g>
     </g>
    </g>
    <g id="ytick_5">
     <g id="line2d_19">
      <path clip-path="url(#p0e35eeec3d)" d="M 73.113325 87.463593 
L 430.233325 87.463593 
" style="fill:none;stroke:#b0b0b0;stroke-linecap:square;stroke-width:0.8;"/>
     </g>
     <g id="line2d_20">
      <g>
       <use style="stroke:#000000;stroke-width:0.8;" x="73.113325" xlink:href="#mdf3f98fd9a" y="87.463593"/>
      </g>
     </g>
     <g id="text_11">
      <!-- 0.8 -->
      <g transform="translate(34.307075 95.06203)scale(0.2 -0.2)">
       <use xlink:href="#DejaVuSans-30"/>
       <use x="63.623047" xlink:href="#DejaVuSans-2e"/>
       <use x="95.410156" xlink:href="#DejaVuSans-38"/>
      </g>
     </g>
    </g>
    <g id="ytick_6">
     <g id="line2d_21">
      <path clip-path="url(#p0e35eeec3d)" d="M 73.113325 34.768147 
L 430.233325 34.768147 
" style="fill:none;stroke:#b0b0b0;stroke-linecap:square;stroke-width:0.8;"/>
     </g>
     <g id="line2d_22">
      <g>
       <use style="stroke:#000000;stroke-width:0.8;" x="73.113325" xlink:href="#mdf3f98fd9a" y="34.768147"/>
      </g>
     </g>
     <g id="text_12">
      <!-- 1.0 -->
      <g transform="translate(34.307075 42.366585)scale(0.2 -0.2)">
       <use xlink:href="#DejaVuSans-31"/>
       <use x="63.623047" xlink:href="#DejaVuSans-2e"/>
       <use x="95.410156" xlink:href="#DejaVuSans-30"/>
      </g>
     </g>
    </g>
    <g id="text_13">
     <!-- Proportion of function+target pairs -->
     <defs>
      <path d="M 19.671875 64.796875 
L 19.671875 37.40625 
L 32.078125 37.40625 
Q 38.96875 37.40625 42.71875 40.96875 
Q 46.484375 44.53125 46.484375 51.125 
Q 46.484375 57.671875 42.71875 61.234375 
Q 38.96875 64.796875 32.078125 64.796875 
z
M 9.8125 72.90625 
L 32.078125 72.90625 
Q 44.34375 72.90625 50.609375 67.359375 
Q 56.890625 61.8125 56.890625 51.125 
Q 56.890625 40.328125 50.609375 34.8125 
Q 44.34375 29.296875 32.078125 29.296875 
L 19.671875 29.296875 
L 19.671875 0 
L 9.8125 0 
z
" id="DejaVuSans-50"/>
      <path d="M 41.109375 46.296875 
Q 39.59375 47.171875 37.8125 47.578125 
Q 36.03125 48 33.890625 48 
Q 26.265625 48 22.1875 43.046875 
Q 18.109375 38.09375 18.109375 28.8125 
L 18.109375 0 
L 9.078125 0 
L 9.078125 54.6875 
L 18.109375 54.6875 
L 18.109375 46.1875 
Q 20.953125 51.171875 25.484375 53.578125 
Q 30.03125 56 36.53125 56 
Q 37.453125 56 38.578125 55.875 
Q 39.703125 55.765625 41.0625 55.515625 
z
" id="DejaVuSans-72"/>
      <path d="M 18.109375 8.203125 
L 18.109375 -20.796875 
L 9.078125 -20.796875 
L 9.078125 54.6875 
L 18.109375 54.6875 
L 18.109375 46.390625 
Q 20.953125 51.265625 25.265625 53.625 
Q 29.59375 56 35.59375 56 
Q 45.5625 56 51.78125 48.09375 
Q 58.015625 40.1875 58.015625 27.296875 
Q 58.015625 14.40625 51.78125 6.484375 
Q 45.5625 -1.421875 35.59375 -1.421875 
Q 29.59375 -1.421875 25.265625 0.953125 
Q 20.953125 3.328125 18.109375 8.203125 
z
M 48.6875 27.296875 
Q 48.6875 37.203125 44.609375 42.84375 
Q 40.53125 48.484375 33.40625 48.484375 
Q 26.265625 48.484375 22.1875 42.84375 
Q 18.109375 37.203125 18.109375 27.296875 
Q 18.109375 17.390625 22.1875 11.75 
Q 26.265625 6.109375 33.40625 6.109375 
Q 40.53125 6.109375 44.609375 11.75 
Q 48.6875 17.390625 48.6875 27.296875 
z
" id="DejaVuSans-70"/>
      <path d="M 18.3125 70.21875 
L 18.3125 54.6875 
L 36.8125 54.6875 
L 36.8125 47.703125 
L 18.3125 47.703125 
L 18.3125 18.015625 
Q 18.3125 11.328125 20.140625 9.421875 
Q 21.96875 7.515625 27.59375 7.515625 
L 36.8125 7.515625 
L 36.8125 0 
L 27.59375 0 
Q 17.1875 0 13.234375 3.875 
Q 9.28125 7.765625 9.28125 18.015625 
L 9.28125 47.703125 
L 2.6875 47.703125 
L 2.6875 54.6875 
L 9.28125 54.6875 
L 9.28125 70.21875 
z
" id="DejaVuSans-74"/>
      <path d="M 8.5 21.578125 
L 8.5 54.6875 
L 17.484375 54.6875 
L 17.484375 21.921875 
Q 17.484375 14.15625 20.5 10.265625 
Q 23.53125 6.390625 29.59375 6.390625 
Q 36.859375 6.390625 41.078125 11.03125 
Q 45.3125 15.671875 45.3125 23.6875 
L 45.3125 54.6875 
L 54.296875 54.6875 
L 54.296875 0 
L 45.3125 0 
L 45.3125 8.40625 
Q 42.046875 3.421875 37.71875 1 
Q 33.40625 -1.421875 27.6875 -1.421875 
Q 18.265625 -1.421875 13.375 4.4375 
Q 8.5 10.296875 8.5 21.578125 
z
M 31.109375 56 
z
" id="DejaVuSans-75"/>
      <path d="M 48.78125 52.59375 
L 48.78125 44.1875 
Q 44.96875 46.296875 41.140625 47.34375 
Q 37.3125 48.390625 33.40625 48.390625 
Q 24.65625 48.390625 19.8125 42.84375 
Q 14.984375 37.3125 14.984375 27.296875 
Q 14.984375 17.28125 19.8125 11.734375 
Q 24.65625 6.203125 33.40625 6.203125 
Q 37.3125 6.203125 41.140625 7.25 
Q 44.96875 8.296875 48.78125 10.40625 
L 48.78125 2.09375 
Q 45.015625 0.34375 40.984375 -0.53125 
Q 36.96875 -1.421875 32.421875 -1.421875 
Q 20.0625 -1.421875 12.78125 6.34375 
Q 5.515625 14.109375 5.515625 27.296875 
Q 5.515625 40.671875 12.859375 48.328125 
Q 20.21875 56 33.015625 56 
Q 37.15625 56 41.109375 55.140625 
Q 45.0625 54.296875 48.78125 52.59375 
z
" id="DejaVuSans-63"/>
      <path d="M 46 62.703125 
L 46 35.5 
L 73.1875 35.5 
L 73.1875 27.203125 
L 46 27.203125 
L 46 0 
L 37.796875 0 
L 37.796875 27.203125 
L 10.59375 27.203125 
L 10.59375 35.5 
L 37.796875 35.5 
L 37.796875 62.703125 
z
" id="DejaVuSans-2b"/>
     </defs>
     <g transform="translate(26.563638 323.17875)rotate(-90)scale(0.18 -0.18)">
      <use xlink:href="#DejaVuSans-50"/>
      <use x="60.287109" xlink:href="#DejaVuSans-72"/>
      <use x="101.369141" xlink:href="#DejaVuSans-6f"/>
      <use x="162.550781" xlink:href="#DejaVuSans-70"/>
      <use x="226.027344" xlink:href="#DejaVuSans-6f"/>
      <use x="287.208984" xlink:href="#DejaVuSans-72"/>
      <use x="328.322266" xlink:href="#DejaVuSans-74"/>
      <use x="367.53125" xlink:href="#DejaVuSans-69"/>
      <use x="395.314453" xlink:href="#DejaVuSans-6f"/>
      <use x="456.496094" xlink:href="#DejaVuSans-6e"/>
      <use x="519.875" xlink:href="#DejaVuSans-20"/>
      <use x="551.662109" xlink:href="#DejaVuSans-6f"/>
      <use x="612.84375" xlink:href="#DejaVuSans-66"/>
      <use x="648.048828" xlink:href="#DejaVuSans-20"/>
      <use x="679.835938" xlink:href="#DejaVuSans-66"/>
      <use x="715.041016" xlink:href="#DejaVuSans-75"/>
      <use x="778.419922" xlink:href="#DejaVuSans-6e"/>
      <use x="841.798828" xlink:href="#DejaVuSans-63"/>
      <use x="896.779297" xlink:href="#DejaVuSans-74"/>
      <use x="935.988281" xlink:href="#DejaVuSans-69"/>
      <use x="963.771484" xlink:href="#DejaVuSans-6f"/>
      <use x="1024.953125" xlink:href="#DejaVuSans-6e"/>
      <use x="1088.332031" xlink:href="#DejaVuSans-2b"/>
      <use x="1172.121094" xlink:href="#DejaVuSans-74"/>
      <use x="1211.330078" xlink:href="#DejaVuSans-61"/>
      <use x="1272.609375" xlink:href="#DejaVuSans-72"/>
      <use x="1313.707031" xlink:href="#DejaVuSans-67"/>
      <use x="1377.183594" xlink:href="#DejaVuSans-65"/>
      <use x="1438.707031" xlink:href="#DejaVuSans-74"/>
      <use x="1477.916016" xlink:href="#DejaVuSans-20"/>
      <use x="1509.703125" xlink:href="#DejaVuSans-70"/>
      <use x="1573.179688" xlink:href="#DejaVuSans-61"/>
      <use x="1634.458984" xlink:href="#DejaVuSans-69"/>
      <use x="1662.242188" xlink:href="#DejaVuSans-72"/>
      <use x="1703.355469" xlink:href="#DejaVuSans-73"/>
     </g>
    </g>
   </g>
   <g id="line2d_23">
    <defs>
     <path d="M 0 1.5 
C 0.397805 1.5 0.77937 1.341951 1.06066 1.06066 
C 1.341951 0.77937 1.5 0.397805 1.5 0 
C 1.5 -0.397805 1.341951 -0.77937 1.06066 -1.06066 
C 0.77937 -1.341951 0.397805 -1.5 0 -1.5 
C -0.397805 -1.5 -0.77937 -1.341951 -1.06066 -1.06066 
C -1.341951 -0.77937 -1.5 -0.397805 -1.5 0 
C -1.5 0.397805 -1.341951 0.77937 -1.06066 1.06066 
C -0.77937 1.341951 -0.397805 1.5 0 1.5 
z
" id="m1b412f506c" style="stroke:#000080;"/>
    </defs>
    <g>
     <use style="fill:#000080;stroke:#000080;" x="291.365869" xlink:href="#m1b412f506c" y="158.757431"/>
     <use style="fill:#000080;stroke:#000080;" x="291.365869" xlink:href="#m1b412f506c" y="158.757431"/>
    </g>
   </g>
   <g id="line2d_24">
    <path d="M 146.922167 298.245375 
L 146.922167 297.728753 
L 147.235276 297.728753 
L 147.235276 297.212131 
L 147.632905 297.212131 
L 147.632905 296.695509 
L 148.28987 296.695509 
L 148.28987 296.178887 
L 148.514546 296.178887 
L 148.514546 295.145643 
L 148.736432 295.145643 
L 148.788242 293.595777 
L 149.165774 293.595777 
L 149.165774 293.079155 
L 149.609764 293.079155 
L 149.652946 292.045911 
L 149.842937 292.045911 
L 149.842937 291.012667 
L 149.976553 291.012667 
L 149.976553 290.496045 
L 150.121186 290.496045 
L 150.121186 289.979423 
L 150.246787 289.979423 
L 150.318164 288.946179 
L 150.35967 288.946179 
L 150.436497 286.363069 
L 150.694102 286.363069 
L 150.757927 284.813203 
L 150.959503 284.813203 
L 151.016681 282.230093 
L 151.113466 282.230093 
L 151.136163 280.163604 
L 151.254851 280.163604 
L 151.350357 276.54725 
L 151.445356 276.54725 
L 151.445356 276.030628 
L 151.578618 276.030628 
L 151.611779 272.930896 
L 151.814921 272.930896 
L 151.918347 269.831164 
L 151.934623 269.831164 
L 151.934623 269.314542 
L 152.118053 269.314542 
L 152.150229 268.281298 
L 152.235748 268.281298 
L 152.235748 267.764676 
L 152.43723 267.764676 
L 152.50564 266.731432 
L 152.610377 266.731432 
L 152.610377 266.21481 
L 152.750806 266.21481 
L 152.807702 264.664944 
L 153.002872 264.664944 
L 153.007979 263.6317 
L 153.180767 263.6317 
L 153.180767 263.115078 
L 153.416902 263.115078 
L 153.416902 262.598456 
L 153.536288 262.598456 
L 153.536288 261.565212 
L 153.952813 261.565212 
L 153.952813 261.04859 
L 154.250622 261.04859 
L 154.321933 258.982102 
L 154.785579 258.982102 
L 154.785579 258.46548 
L 155.492602 258.46548 
L 155.581256 256.398992 
L 155.848964 256.398992 
L 155.848964 255.88237 
L 156.039605 255.88237 
L 156.07405 254.849126 
L 156.321807 254.849126 
L 156.321807 254.332504 
L 156.61632 254.332504 
L 156.624664 253.29926 
L 157.845754 253.29926 
L 157.845754 252.782638 
L 158.367824 252.782638 
L 158.367824 252.266016 
L 158.597122 252.266016 
L 158.597122 251.749394 
L 159.278663 251.749394 
L 159.278663 251.232772 
L 159.962862 251.232772 
L 159.962862 250.199528 
L 160.611818 250.199528 
L 160.611818 249.166284 
L 161.936227 249.166284 
L 161.936227 248.649662 
L 212.752745 248.649662 
L 212.843567 244.516685 
L 212.867589 244.516685 
L 212.965137 238.833843 
L 212.983658 238.833843 
L 213.086948 235.734111 
L 213.127427 235.734111 
L 213.227434 234.184245 
L 224.860786 234.184245 
L 224.964589 229.534647 
L 224.974054 229.534647 
L 225.061819 222.818561 
L 232.024774 222.818561 
L 232.132735 214.035987 
L 232.144372 214.035987 
L 232.144372 213.519365 
L 237.12862 213.519365 
L 237.207982 207.836522 
L 241.08177 207.836522 
L 241.156079 200.603814 
L 244.332826 200.603814 
L 244.378432 195.954216 
L 247.068354 195.954216 
L 247.107493 192.854484 
L 249.435943 192.854484 
L 249.474433 188.204886 
L 251.532588 188.204886 
L 251.557965 184.07191 
L 253.406141 184.07191 
L 253.413089 182.522044 
L 255.102057 182.522044 
L 255.118683 178.90569 
L 256.645955 178.90569 
L 256.670208 177.355823 
L 258.086887 177.355823 
L 258.086887 176.839201 
L 259.402722 176.839201 
L 259.416548 174.772713 
L 260.634377 174.772713 
L 260.634377 174.256091 
L 261.77271 174.256091 
L 261.789445 172.189603 
L 262.860879 172.189603 
L 262.867777 171.156359 
L 263.877389 171.156359 
L 263.877389 170.639737 
L 264.844397 170.639737 
L 264.844397 170.123115 
L 265.759343 170.123115 
L 265.759343 169.606493 
L 266.625548 169.606493 
L 266.63598 168.573249 
L 269.006029 168.573249 
L 269.006029 168.056627 
L 269.734037 168.056627 
L 269.734037 167.540005 
L 270.433541 167.540005 
L 270.442342 164.956895 
L 271.106689 164.956895 
L 271.106689 164.440273 
L 271.756643 164.440273 
L 271.756643 163.923651 
L 272.386627 163.923651 
L 272.386627 163.407029 
L 274.137588 163.407029 
L 274.137588 162.890407 
L 279.820572 162.890407 
L 279.820791 161.857163 
L 280.61655 161.857163 
L 280.61655 161.340541 
L 281.376276 161.340541 
L 281.376276 160.823919 
L 281.746448 160.823919 
L 281.746448 160.307297 
L 282.804814 160.307297 
L 282.804814 159.790675 
L 286.228617 159.790675 
L 286.228617 159.274053 
L 291.365869 159.274053 
L 291.365869 158.757431 
L 361.113325 158.757431 
L 361.113325 158.757431 
" style="fill:none;stroke:#000080;stroke-linecap:square;stroke-width:1.5;"/>
   </g>
   <g id="line2d_25">
    <defs>
     <path d="M 0 6 
C 1.591219 6 3.117479 5.367802 4.242641 4.242641 
C 5.367802 3.117479 6 1.591219 6 0 
C 6 -1.591219 5.367802 -3.117479 4.242641 -4.242641 
C 3.117479 -5.367802 1.591219 -6 0 -6 
C -1.591219 -6 -3.117479 -5.367802 -4.242641 -4.242641 
C -5.367802 -3.117479 -6 -1.591219 -6 0 
C -6 1.591219 -5.367802 3.117479 -4.242641 4.242641 
C -3.117479 5.367802 -1.591219 6 0 6 
z
" id="m3fb8a3bd49" style="stroke:#000080;stroke-width:1.5;"/>
    </defs>
    <g>
     <use style="fill:none;stroke:#000080;stroke-width:1.5;" x="155.581256" xlink:href="#m3fb8a3bd49" y="256.398992"/>
     <use style="fill:none;stroke:#000080;stroke-width:1.5;" x="225.018943" xlink:href="#m3fb8a3bd49" y="225.401671"/>
     <use style="fill:none;stroke:#000080;stroke-width:1.5;" x="282.804814" xlink:href="#m3fb8a3bd49" y="159.790675"/>
     <use style="fill:none;stroke:#000080;stroke-width:1.5;" x="291.365869" xlink:href="#m3fb8a3bd49" y="158.757431"/>
     <use style="fill:none;stroke:#000080;stroke-width:1.5;" x="361.113325" xlink:href="#m3fb8a3bd49" y="158.757431"/>
    </g>
   </g>
   <g id="line2d_26"/>
   <g id="line2d_27">
    <path clip-path="url(#p0e35eeec3d)" d="M 212.18506 248.649662 
" style="fill:none;stroke:#000080;stroke-linecap:square;stroke-width:1.5;"/>
    <defs>
     <path d="M -12 12 
L 12 -12 
M -12 -12 
L 12 12 
" id="m4f899ff212" style="stroke:#000080;stroke-width:3;"/>
    </defs>
    <g clip-path="url(#p0e35eeec3d)">
     <use style="fill:#000080;stroke:#000080;stroke-width:3;" x="212.18506" xlink:href="#m4f899ff212" y="248.649662"/>
    </g>
   </g>
   <g id="line2d_28">
    <defs>
     <path d="M 0 1.5 
C 0.397805 1.5 0.77937 1.341951 1.06066 1.06066 
C 1.341951 0.77937 1.5 0.397805 1.5 0 
C 1.5 -0.397805 1.341951 -0.77937 1.06066 -1.06066 
C 0.77937 -1.341951 0.397805 -1.5 0 -1.5 
C -0.397805 -1.5 -0.77937 -1.341951 -1.06066 -1.06066 
C -1.341951 -0.77937 -1.5 -0.397805 -1.5 0 
C -1.5 0.397805 -1.341951 0.77937 -1.06066 1.06066 
C -0.77937 1.341951 -0.397805 1.5 0 1.5 
z
" id="m1267bf3818" style="stroke:#ff00ff;"/>
    </defs>
    <g>
     <use style="fill:#ff00ff;stroke:#ff00ff;" x="286.511377" xlink:href="#m1267bf3818" y="132.92633"/>
     <use style="fill:#ff00ff;stroke:#ff00ff;" x="286.511377" xlink:href="#m1267bf3818" y="132.92633"/>
    </g>
   </g>
   <g id="line2d_29">
    <path d="M 134.644292 298.245375 
L 134.644292 297.728753 
L 136.640696 297.728753 
L 136.640696 296.695509 
L 137.825757 296.695509 
L 137.825757 295.662265 
L 138.835786 295.662265 
L 138.937086 294.629021 
L 139.456963 294.629021 
L 139.456963 293.079155 
L 139.652126 293.079155 
L 139.652126 292.045911 
L 140.504905 292.045911 
L 140.597194 289.979423 
L 140.840992 289.979423 
L 140.840992 288.946179 
L 141.755489 288.946179 
L 141.755489 288.429557 
L 142.003 288.429557 
L 142.097291 286.363069 
L 142.134869 286.363069 
L 142.134869 285.329825 
L 143.191599 285.329825 
L 143.191599 284.296581 
L 143.978944 284.296581 
L 143.978944 283.779959 
L 144.214387 283.779959 
L 144.264437 282.230093 
L 144.347545 282.230093 
L 144.347545 281.713471 
L 144.998847 281.713471 
L 144.998847 281.196849 
L 145.134242 281.196849 
L 145.134242 280.163604 
L 145.534379 280.163604 
L 145.534379 279.646982 
L 145.688882 279.646982 
L 145.688882 279.13036 
L 146.204417 279.13036 
L 146.234284 277.580494 
L 146.82138 277.580494 
L 146.886237 276.030628 
L 147.722366 276.030628 
L 147.722366 274.997384 
L 147.994855 274.997384 
L 147.994855 274.480762 
L 148.269909 274.480762 
L 148.269909 273.96414 
L 148.461934 273.96414 
L 148.461934 273.447518 
L 149.398525 273.447518 
L 149.398525 272.930896 
L 149.652946 272.930896 
L 149.738999 271.897652 
L 150.097162 271.897652 
L 150.097162 270.864408 
L 150.565763 270.864408 
L 150.565763 270.347786 
L 151.016681 270.347786 
L 151.016681 269.831164 
L 151.130491 269.831164 
L 151.130491 269.314542 
L 151.417468 269.314542 
L 151.417468 268.79792 
L 151.847647 268.79792 
L 151.847647 267.764676 
L 151.983362 267.764676 
L 151.983362 266.731432 
L 152.235748 266.731432 
L 152.235748 266.21481 
L 152.68333 266.21481 
L 152.688529 264.664944 
L 153.491612 264.664944 
L 153.600624 263.6317 
L 154.274424 263.6317 
L 154.274424 262.598456 
L 155.425822 262.598456 
L 155.425822 262.081834 
L 155.905502 262.081834 
L 155.905502 261.565212 
L 156.039605 261.565212 
L 156.039605 261.04859 
L 156.885517 261.04859 
L 156.926574 258.982102 
L 157.475784 258.982102 
L 157.475784 258.46548 
L 157.935124 258.46548 
L 157.935124 257.948858 
L 158.291999 257.948858 
L 158.367824 256.915614 
L 160.771267 256.915614 
L 160.771267 256.398992 
L 161.137873 256.398992 
L 161.137873 255.88237 
L 161.607903 255.88237 
L 161.607903 255.365748 
L 163.797119 255.365748 
L 163.797119 254.849126 
L 165.262517 254.849126 
L 165.262517 253.815882 
L 165.812115 253.815882 
L 165.812115 253.29926 
L 167.075789 253.29926 
L 167.075789 252.266016 
L 167.944367 252.266016 
L 167.944367 251.232772 
L 168.666695 251.232772 
L 168.666695 250.71615 
L 212.579901 250.71615 
L 212.641512 248.649662 
L 212.716828 248.649662 
L 212.813584 244.000063 
L 212.846616 244.000063 
L 212.89623 240.383709 
L 212.959613 240.383709 
L 213.049038 239.350465 
L 213.11524 239.350465 
L 213.11524 238.833843 
L 213.2534 238.833843 
L 213.2534 238.317221 
L 213.39311 238.317221 
L 213.433423 237.283977 
L 213.561746 237.283977 
L 213.627624 235.217489 
L 213.684705 235.217489 
L 213.684705 234.700867 
L 224.843198 234.700867 
L 224.94528 229.534647 
L 224.961767 229.534647 
L 225.004507 226.951537 
L 225.076299 226.951537 
L 225.184527 222.818561 
L 225.205375 222.818561 
L 225.30613 219.718829 
L 225.335844 219.718829 
L 225.422386 218.168963 
L 231.978419 218.168963 
L 232.070581 214.035987 
L 232.105836 214.035987 
L 232.130662 211.452876 
L 232.254218 211.452876 
L 232.329185 208.353144 
L 232.387744 208.353144 
L 232.387744 207.836522 
L 237.108609 207.836522 
L 237.205183 203.186924 
L 237.265284 203.186924 
L 237.327234 201.637058 
L 241.070686 201.637058 
L 241.171815 196.98746 
L 241.19943 196.98746 
L 241.288411 194.40435 
L 244.327622 194.40435 
L 244.397863 190.787996 
L 244.459271 190.787996 
L 244.488995 188.721508 
L 247.061748 188.721508 
L 247.161587 184.588532 
L 247.176904 184.588532 
L 247.176904 183.555288 
L 249.431222 183.555288 
L 249.518761 178.389067 
L 251.528554 178.389067 
L 251.588416 173.739469 
L 253.423144 173.739469 
L 253.477528 172.189603 
L 255.092027 172.189603 
L 255.135446 169.606493 
L 256.670995 169.606493 
L 256.699653 165.990139 
L 258.083835 165.990139 
L 258.149637 161.857163 
L 259.40504 161.857163 
L 259.443731 159.274053 
L 260.639731 159.274053 
L 260.676803 157.207565 
L 261.782883 157.207565 
L 261.811559 154.107833 
L 262.855747 154.107833 
L 262.897402 151.008101 
L 263.8945 151.008101 
L 263.927266 149.974857 
L 265.785796 149.974857 
L 265.788113 148.941613 
L 266.628298 148.941613 
L 266.641573 147.908369 
L 267.457554 147.908369 
L 267.482218 144.292014 
L 268.260496 144.292014 
L 268.275636 142.225526 
L 269.735679 142.225526 
L 269.735679 141.708904 
L 270.445399 141.708904 
L 270.445399 141.192282 
L 272.401572 141.192282 
L 272.406154 140.159038 
L 272.991538 140.159038 
L 272.991538 139.642416 
L 274.165693 139.642416 
L 274.165693 139.125794 
L 274.702598 139.125794 
L 274.702598 138.609172 
L 275.226829 138.609172 
L 275.226829 138.09255 
L 275.746432 138.09255 
L 275.746432 137.575928 
L 276.242294 137.575928 
L 276.242294 137.059306 
L 277.212188 137.059306 
L 277.222991 136.026062 
L 277.68016 136.026062 
L 277.68016 135.50944 
L 278.572088 135.50944 
L 278.572088 134.992818 
L 281.379049 134.992818 
L 281.379049 134.476196 
L 283.14566 134.476196 
L 283.14566 133.959574 
L 285.35847 133.959574 
L 285.35847 133.442952 
L 286.511377 133.442952 
L 286.511377 132.92633 
L 361.113325 132.92633 
L 361.113325 132.92633 
" style="fill:none;stroke:#ff00ff;stroke-linecap:square;stroke-width:1.5;"/>
   </g>
   <g id="line2d_30">
    <defs>
     <path d="M -0 8.485281 
L 5.091169 0 
L 0 -8.485281 
L -5.091169 -0 
z
" id="me9ec0f2e3c" style="stroke:#ff00ff;stroke-linejoin:miter;stroke-width:1.5;"/>
    </defs>
    <g>
     <use style="fill:none;stroke:#ff00ff;stroke-linejoin:miter;stroke-width:1.5;" x="213.684705" xlink:href="#me9ec0f2e3c" y="234.700867"/>
     <use style="fill:none;stroke:#ff00ff;stroke-linejoin:miter;stroke-width:1.5;" x="259.443731" xlink:href="#me9ec0f2e3c" y="159.790675"/>
     <use style="fill:none;stroke:#ff00ff;stroke-linejoin:miter;stroke-width:1.5;" x="286.511377" xlink:href="#me9ec0f2e3c" y="132.92633"/>
     <use style="fill:none;stroke:#ff00ff;stroke-linejoin:miter;stroke-width:1.5;" x="286.511377" xlink:href="#me9ec0f2e3c" y="132.92633"/>
     <use style="fill:none;stroke:#ff00ff;stroke-linejoin:miter;stroke-width:1.5;" x="361.113325" xlink:href="#me9ec0f2e3c" y="132.92633"/>
    </g>
   </g>
   <g id="line2d_31"/>
   <g id="line2d_32">
    <path clip-path="url(#p0e35eeec3d)" d="M 212.18506 250.71615 
" style="fill:none;stroke:#ff00ff;stroke-linecap:square;stroke-width:1.5;"/>
    <defs>
     <path d="M -12 12 
L 12 -12 
M -12 -12 
L 12 12 
" id="mb1c19ee65c" style="stroke:#ff00ff;stroke-width:3;"/>
    </defs>
    <g clip-path="url(#p0e35eeec3d)">
     <use style="fill:#ff00ff;stroke:#ff00ff;stroke-width:3;" x="212.18506" xlink:href="#mb1c19ee65c" y="250.71615"/>
    </g>
   </g>
   <g id="line2d_33">
    <path clip-path="url(#p0e35eeec3d)" d="M 73.113325 298.245375 
L 73.113325 298.245375 
L 73.113325 298.245375 
L 73.113325 298.245375 
L 430.233325 298.245375 
" style="fill:none;stroke:#ffa500;stroke-linecap:square;stroke-width:1.5;"/>
   </g>
   <g id="line2d_34">
    <defs>
     <path d="M 0 -6 
L -1.347084 -1.854102 
L -5.706339 -1.854102 
L -2.179628 0.708204 
L -3.526712 4.854102 
L -0 2.291796 
L 3.526712 4.854102 
L 2.179628 0.708204 
L 5.706339 -1.854102 
L 1.347084 -1.854102 
z
" id="mada497dcdf" style="stroke:#ffa500;stroke-linejoin:bevel;stroke-width:1.5;"/>
    </defs>
    <g clip-path="url(#p0e35eeec3d)">
     <use style="fill:none;stroke:#ffa500;stroke-linejoin:bevel;stroke-width:1.5;" x="73.113325" xlink:href="#mada497dcdf" y="298.245375"/>
     <use style="fill:none;stroke:#ffa500;stroke-linejoin:bevel;stroke-width:1.5;" x="73.113325" xlink:href="#mada497dcdf" y="298.245375"/>
     <use style="fill:none;stroke:#ffa500;stroke-linejoin:bevel;stroke-width:1.5;" x="114.256183" xlink:href="#mada497dcdf" y="298.245375"/>
     <use style="fill:none;stroke:#ffa500;stroke-linejoin:bevel;stroke-width:1.5;" x="155.39904" xlink:href="#mada497dcdf" y="298.245375"/>
     <use style="fill:none;stroke:#ffa500;stroke-linejoin:bevel;stroke-width:1.5;" x="196.541897" xlink:href="#mada497dcdf" y="298.245375"/>
     <use style="fill:none;stroke:#ffa500;stroke-linejoin:bevel;stroke-width:1.5;" x="237.684754" xlink:href="#mada497dcdf" y="298.245375"/>
     <use style="fill:none;stroke:#ffa500;stroke-linejoin:bevel;stroke-width:1.5;" x="278.827611" xlink:href="#mada497dcdf" y="298.245375"/>
     <use style="fill:none;stroke:#ffa500;stroke-linejoin:bevel;stroke-width:1.5;" x="319.970468" xlink:href="#mada497dcdf" y="298.245375"/>
     <use style="fill:none;stroke:#ffa500;stroke-linejoin:bevel;stroke-width:1.5;" x="361.113325" xlink:href="#mada497dcdf" y="298.245375"/>
     <use style="fill:none;stroke:#ffa500;stroke-linejoin:bevel;stroke-width:1.5;" x="402.256183" xlink:href="#mada497dcdf" y="298.245375"/>
    </g>
   </g>
   <g id="line2d_35"/>
   <g id="line2d_36">
    <path clip-path="url(#p0e35eeec3d)" d="M 73.113325 298.245375 
L 73.113325 298.245375 
L 73.113325 298.245375 
L 73.113325 298.245375 
L 430.233325 298.245375 
" style="fill:none;stroke:#6495ed;stroke-linecap:square;stroke-width:1.5;"/>
   </g>
   <g id="line2d_37">
    <defs>
     <path d="M -0 6 
L 6 -6 
L -6 -6 
z
" id="mdff768d631" style="stroke:#6495ed;stroke-linejoin:miter;stroke-width:1.5;"/>
    </defs>
    <g clip-path="url(#p0e35eeec3d)">
     <use style="fill:none;stroke:#6495ed;stroke-linejoin:miter;stroke-width:1.5;" x="73.113325" xlink:href="#mdff768d631" y="298.245375"/>
     <use style="fill:none;stroke:#6495ed;stroke-linejoin:miter;stroke-width:1.5;" x="73.113325" xlink:href="#mdff768d631" y="298.245375"/>
     <use style="fill:none;stroke:#6495ed;stroke-linejoin:miter;stroke-width:1.5;" x="114.256183" xlink:href="#mdff768d631" y="298.245375"/>
     <use style="fill:none;stroke:#6495ed;stroke-linejoin:miter;stroke-width:1.5;" x="155.39904" xlink:href="#mdff768d631" y="298.245375"/>
     <use style="fill:none;stroke:#6495ed;stroke-linejoin:miter;stroke-width:1.5;" x="196.541897" xlink:href="#mdff768d631" y="298.245375"/>
     <use style="fill:none;stroke:#6495ed;stroke-linejoin:miter;stroke-width:1.5;" x="237.684754" xlink:href="#mdff768d631" y="298.245375"/>
     <use style="fill:none;stroke:#6495ed;stroke-linejoin:miter;stroke-width:1.5;" x="278.827611" xlink:href="#mdff768d631" y="298.245375"/>
     <use style="fill:none;stroke:#6495ed;stroke-linejoin:miter;stroke-width:1.5;" x="319.970468" xlink:href="#mdff768d631" y="298.245375"/>
     <use style="fill:none;stroke:#6495ed;stroke-linejoin:miter;stroke-width:1.5;" x="361.113325" xlink:href="#mdff768d631" y="298.245375"/>
     <use style="fill:none;stroke:#6495ed;stroke-linejoin:miter;stroke-width:1.5;" x="402.256183" xlink:href="#mdff768d631" y="298.245375"/>
    </g>
   </g>
   <g id="line2d_38"/>
   <g id="line2d_39">
    <defs>
     <path d="M 0 1.5 
C 0.397805 1.5 0.77937 1.341951 1.06066 1.06066 
C 1.341951 0.77937 1.5 0.397805 1.5 0 
C 1.5 -0.397805 1.341951 -0.77937 1.06066 -1.06066 
C 0.77937 -1.341951 0.397805 -1.5 0 -1.5 
C -0.397805 -1.5 -0.77937 -1.341951 -1.06066 -1.06066 
C -1.341951 -0.77937 -1.5 -0.397805 -1.5 0 
C -1.5 0.397805 -1.341951 0.77937 -1.06066 1.06066 
C -0.77937 1.341951 -0.397805 1.5 0 1.5 
z
" id="me254d0c03b" style="stroke:#ff0000;"/>
    </defs>
    <g>
     <use style="fill:#ff0000;stroke:#ff0000;" x="212.118863" xlink:href="#me254d0c03b" y="143.25877"/>
     <use style="fill:#ff0000;stroke:#ff0000;" x="212.118863" xlink:href="#me254d0c03b" y="143.25877"/>
    </g>
   </g>
   <g id="line2d_40">
    <path d="M 7.2 298.245375 
L 7.2 293.079155 
L 41.969748 293.079155 
L 41.969748 292.045911 
L 48.342857 292.045911 
L 48.342857 291.529289 
L 56.740936 291.529289 
L 56.740936 291.012667 
L 59.811577 291.012667 
L 59.811577 290.496045 
L 77.454316 290.496045 
L 77.454316 289.979423 
L 81.230011 289.979423 
L 81.230011 289.462801 
L 83.366058 289.462801 
L 83.366058 288.946179 
L 83.615966 288.946179 
L 83.615966 288.429557 
L 84.345378 288.429557 
L 84.345378 286.879691 
L 85.93977 286.879691 
L 85.93977 286.363069 
L 86.156356 286.363069 
L 86.156356 285.329825 
L 87.201573 285.329825 
L 87.201573 284.296581 
L 89.12473 284.296581 
L 89.12473 283.779959 
L 91.025547 283.779959 
L 91.025547 283.263337 
L 93.329349 283.263337 
L 93.329349 282.230093 
L 95.497839 282.230093 
L 95.497839 281.196849 
L 96.967279 281.196849 
L 96.967279 280.163604 
L 97.545586 280.163604 
L 97.545586 279.13036 
L 98.105761 279.13036 
L 98.105761 278.613738 
L 99.176028 278.613738 
L 99.176028 277.580494 
L 99.688043 277.580494 
L 99.688043 277.063872 
L 102.399108 277.063872 
L 102.399108 276.030628 
L 104.133635 276.030628 
L 104.133635 275.514006 
L 105.929433 275.514006 
L 105.929433 274.480762 
L 106.281873 274.480762 
L 106.281873 273.96414 
L 107.754986 273.96414 
L 107.754986 273.447518 
L 108.199331 273.447518 
L 108.199331 272.930896 
L 109.115846 272.930896 
L 109.175307 271.897652 
L 110.435761 271.897652 
L 110.435761 271.38103 
L 110.926824 271.38103 
L 110.926824 270.864408 
L 111.299645 270.864408 
L 111.299645 270.347786 
L 111.870228 270.347786 
L 111.870228 269.831164 
L 113.055289 269.831164 
L 113.055289 269.314542 
L 113.849558 269.314542 
L 113.849558 268.79792 
L 114.870871 268.79792 
L 114.870871 267.764676 
L 114.999883 267.764676 
L 114.999883 267.248054 
L 115.465115 267.248054 
L 115.465115 266.731432 
L 116.040231 266.731432 
L 116.040231 266.21481 
L 116.675608 266.21481 
L 116.675608 264.664944 
L 118.314667 264.664944 
L 118.385713 263.6317 
L 119.046927 263.6317 
L 119.149128 262.081834 
L 119.552185 262.081834 
L 119.552185 261.04859 
L 119.78317 261.04859 
L 119.78317 260.531968 
L 120.108054 260.531968 
L 120.172328 258.46548 
L 120.395483 258.46548 
L 120.395483 257.948858 
L 121.971321 257.948858 
L 121.971321 257.432236 
L 122.876229 257.432236 
L 122.876229 256.915614 
L 123.365797 256.915614 
L 123.365797 256.398992 
L 123.605641 256.398992 
L 123.605641 255.88237 
L 124.050079 255.88237 
L 124.050079 254.849126 
L 124.659279 254.849126 
L 124.758823 253.815882 
L 125.005283 253.815882 
L 125.005283 253.29926 
L 125.53582 253.29926 
L 125.53582 252.266016 
L 125.912004 252.266016 
L 125.912004 251.232772 
L 126.120179 251.232772 
L 126.120179 250.71615 
L 126.348675 250.71615 
L 126.348675 250.199528 
L 126.708297 250.199528 
L 126.752745 249.166284 
L 127.427915 249.166284 
L 127.427915 248.649662 
L 127.995873 248.649662 
L 127.995873 248.13304 
L 128.60646 248.13304 
L 128.646433 246.583173 
L 128.78564 246.583173 
L 128.84497 243.483441 
L 128.943417 243.483441 
L 128.943417 242.966819 
L 129.351073 242.966819 
L 129.351073 242.450197 
L 129.880537 242.450197 
L 129.880537 241.933575 
L 130.249345 241.933575 
L 130.249345 241.416953 
L 130.682096 241.416953 
L 130.682096 240.900331 
L 131.087206 240.900331 
L 131.087206 240.383709 
L 131.397963 240.383709 
L 131.397963 239.350465 
L 131.517369 239.350465 
L 131.517369 238.833843 
L 131.787336 238.833843 
L 131.887531 237.800599 
L 132.217515 237.800599 
L 132.217515 237.283977 
L 132.347821 237.283977 
L 132.428782 235.217489 
L 132.621606 235.217489 
L 132.621606 234.700867 
L 132.954119 234.700867 
L 132.954119 234.184245 
L 133.187896 234.184245 
L 133.295954 232.117757 
L 133.37274 232.117757 
L 133.37274 231.601135 
L 133.796749 231.601135 
L 133.796749 231.084513 
L 133.930929 231.084513 
L 133.945775 230.051269 
L 134.16701 230.051269 
L 134.196302 229.018025 
L 134.400012 229.018025 
L 134.400012 227.468159 
L 135.398805 227.468159 
L 135.398805 226.951537 
L 135.724182 226.951537 
L 135.791229 225.401671 
L 136.149001 225.401671 
L 136.149001 224.368427 
L 136.805849 224.368427 
L 136.805849 223.851805 
L 137.094354 223.851805 
L 137.131644 222.301939 
L 137.267712 222.301939 
L 137.267712 221.785317 
L 137.621548 221.785317 
L 137.621548 220.752073 
L 138.098377 220.752073 
L 138.098377 220.235451 
L 138.262306 220.235451 
L 138.262306 219.718829 
L 138.39006 219.718829 
L 138.39006 219.202207 
L 138.790579 219.202207 
L 138.790579 218.685585 
L 139.193384 218.685585 
L 139.248618 217.652341 
L 139.456963 217.652341 
L 139.456963 216.102475 
L 139.71671 216.102475 
L 139.71671 215.585853 
L 139.993906 215.585853 
L 139.993906 215.069231 
L 140.586963 215.069231 
L 140.67883 212.48612 
L 141.22033 212.48612 
L 141.22033 211.969498 
L 141.455827 211.969498 
L 141.455827 210.419632 
L 141.688261 210.419632 
L 141.688261 209.386388 
L 141.822464 209.386388 
L 141.822464 208.869766 
L 142.003 208.869766 
L 142.003 207.836522 
L 142.497167 207.836522 
L 142.497167 207.3199 
L 142.816167 207.3199 
L 142.816167 206.803278 
L 143.102924 206.803278 
L 143.102924 206.286656 
L 143.740359 206.286656 
L 143.740359 205.770034 
L 143.978944 205.770034 
L 143.978944 205.253412 
L 144.256105 205.253412 
L 144.256105 204.73679 
L 144.846299 204.73679 
L 144.862418 203.703546 
L 145.038776 203.703546 
L 145.038776 203.186924 
L 145.611797 203.186924 
L 145.681188 201.637058 
L 146.98666 201.637058 
L 146.98666 201.120436 
L 147.270512 201.120436 
L 147.270512 200.603814 
L 147.438684 200.603814 
L 147.438684 200.087192 
L 147.556855 200.087192 
L 147.619101 199.053948 
L 148.176463 199.053948 
L 148.196529 198.020704 
L 148.296518 198.020704 
L 148.296518 197.504082 
L 148.742916 197.504082 
L 148.794708 196.470838 
L 149.304532 196.470838 
L 149.398525 195.437594 
L 149.516878 195.437594 
L 149.516878 194.40435 
L 149.634452 194.40435 
L 149.634452 193.887728 
L 149.751258 193.887728 
L 149.751258 193.371106 
L 150.012821 193.371106 
L 150.012821 192.854484 
L 150.49537 192.854484 
L 150.49537 192.337862 
L 151.198431 192.337862 
L 151.198431 191.304618 
L 151.977953 191.304618 
L 151.977953 189.754752 
L 152.843815 189.754752 
L 152.843815 188.721508 
L 153.341878 188.721508 
L 153.436855 187.688264 
L 154.264907 187.688264 
L 154.312441 186.65502 
L 155.138055 186.65502 
L 155.151648 185.105154 
L 155.376691 185.105154 
L 155.376691 184.588532 
L 156.219703 184.588532 
L 156.219703 184.07191 
L 156.499097 184.07191 
L 156.499097 183.555288 
L 157.348069 183.555288 
L 157.348069 183.038666 
L 158.76071 183.038666 
L 158.76071 182.522044 
L 159.697938 182.522044 
L 159.697938 181.4888 
L 159.858756 181.4888 
L 159.879625 180.455556 
L 160.393605 180.455556 
L 160.393605 179.422312 
L 161.056691 179.422312 
L 161.056691 178.90569 
L 161.65203 178.90569 
L 161.65203 178.389067 
L 162.243405 178.389067 
L 162.243405 177.872445 
L 163.396206 177.872445 
L 163.396206 177.355823 
L 163.950017 177.355823 
L 163.950017 176.322579 
L 164.295438 176.322579 
L 164.295438 175.289335 
L 165.167097 175.289335 
L 165.167097 174.772713 
L 165.505208 174.772713 
L 165.505208 174.256091 
L 167.299792 174.256091 
L 167.299792 173.739469 
L 167.882279 173.739469 
L 167.882279 172.706225 
L 170.536103 172.706225 
L 170.536103 171.672981 
L 171.05876 171.672981 
L 171.05876 171.156359 
L 171.221653 171.156359 
L 171.221653 170.639737 
L 171.53943 170.639737 
L 171.53943 170.123115 
L 171.812478 170.123115 
L 171.812478 168.573249 
L 174.54163 168.573249 
L 174.54163 168.056627 
L 174.881148 168.056627 
L 174.881148 167.540005 
L 176.373963 167.540005 
L 176.373963 167.023383 
L 177.092655 167.023383 
L 177.092655 166.506761 
L 178.298078 166.506761 
L 178.298078 165.473517 
L 178.456106 165.473517 
L 178.470849 163.923651 
L 178.878809 163.923651 
L 178.878809 162.890407 
L 181.722655 162.890407 
L 181.722655 162.373785 
L 181.833901 162.373785 
L 181.833901 161.857163 
L 182.015099 161.857163 
L 182.033219 160.307297 
L 183.217564 160.307297 
L 183.217564 159.274053 
L 183.681359 159.274053 
L 183.681359 158.757431 
L 185.826345 158.757431 
L 185.826345 157.724187 
L 186.248513 157.724187 
L 186.248513 157.207565 
L 188.955604 157.207565 
L 188.955604 156.174321 
L 191.700422 156.174321 
L 191.730854 154.107833 
L 191.92972 154.107833 
L 191.92972 153.591211 
L 194.281597 153.591211 
L 194.281597 152.041345 
L 198.102618 152.041345 
L 198.102618 151.008101 
L 200.455642 151.008101 
L 200.455642 149.974857 
L 201.751339 149.974857 
L 201.751339 148.941613 
L 203.719663 148.941613 
L 203.719663 147.908369 
L 203.930352 147.908369 
L 203.930352 147.391747 
L 205.819739 147.391747 
L 205.819739 146.358503 
L 209.820603 146.358503 
L 209.820603 145.841881 
L 210.12625 145.841881 
L 210.12625 144.808637 
L 210.641714 144.808637 
L 210.641714 144.292014 
L 211.089966 144.292014 
L 211.089966 143.775392 
L 212.118863 143.775392 
L 212.118863 143.25877 
L 361.113325 143.25877 
L 361.113325 143.25877 
" style="fill:none;stroke:#ff0000;stroke-linecap:square;stroke-width:1.5;"/>
   </g>
   <g id="line2d_41">
    <defs>
     <path d="M 0 -6 
L -5.196152 -3 
L -5.196152 3 
L -0 6 
L 5.196152 3 
L 5.196152 -3 
z
" id="md40831a128" style="stroke:#ff0000;stroke-linejoin:miter;stroke-width:1.5;"/>
    </defs>
    <g>
     <use style="fill:none;stroke:#ff0000;stroke-linejoin:miter;stroke-width:1.5;" x="120.108054" xlink:href="#md40831a128" y="259.498724"/>
     <use style="fill:none;stroke:#ff0000;stroke-linejoin:miter;stroke-width:1.5;" x="153.341878" xlink:href="#md40831a128" y="188.721508"/>
     <use style="fill:none;stroke:#ff0000;stroke-linejoin:miter;stroke-width:1.5;" x="212.118863" xlink:href="#md40831a128" y="143.775392"/>
     <use style="fill:none;stroke:#ff0000;stroke-linejoin:miter;stroke-width:1.5;" x="212.118863" xlink:href="#md40831a128" y="143.25877"/>
     <use style="fill:none;stroke:#ff0000;stroke-linejoin:miter;stroke-width:1.5;" x="212.118863" xlink:href="#md40831a128" y="143.25877"/>
     <use style="fill:none;stroke:#ff0000;stroke-linejoin:miter;stroke-width:1.5;" x="361.113325" xlink:href="#md40831a128" y="143.25877"/>
    </g>
   </g>
   <g id="line2d_42"/>
   <g id="line2d_43">
    <path clip-path="url(#p0e35eeec3d)" d="M 212.18506 143.25877 
" style="fill:none;stroke:#ff0000;stroke-linecap:square;stroke-width:1.5;"/>
    <defs>
     <path d="M -12 12 
L 12 -12 
M -12 -12 
L 12 12 
" id="md248554795" style="stroke:#ff0000;stroke-width:3;"/>
    </defs>
    <g clip-path="url(#p0e35eeec3d)">
     <use style="fill:#ff0000;stroke:#ff0000;stroke-width:3;" x="212.18506" xlink:href="#md248554795" y="143.25877"/>
    </g>
   </g>
   <g id="line2d_44">
    <path d="M 361.113325 298.245375 
L 392.793325 292.97583 
" style="fill:none;stroke:#6495ed;stroke-linecap:square;stroke-width:1.5;"/>
    <g>
     <use style="fill:none;stroke:#6495ed;stroke-linejoin:miter;stroke-width:1.5;" x="361.113325" xlink:href="#mdff768d631" y="298.245375"/>
     <use style="fill:none;stroke:#6495ed;stroke-linejoin:miter;stroke-width:1.5;" x="392.793325" xlink:href="#mdff768d631" y="292.97583"/>
    </g>
   </g>
   <g id="line2d_45">
    <path d="M 361.113325 298.245375 
L 392.793325 229.741296 
" style="fill:none;stroke:#ffa500;stroke-linecap:square;stroke-width:1.5;"/>
    <g>
     <use style="fill:none;stroke:#ffa500;stroke-linejoin:bevel;stroke-width:1.5;" x="361.113325" xlink:href="#mada497dcdf" y="298.245375"/>
     <use style="fill:none;stroke:#ffa500;stroke-linejoin:bevel;stroke-width:1.5;" x="392.793325" xlink:href="#mada497dcdf" y="229.741296"/>
    </g>
   </g>
   <g id="line2d_46">
    <path d="M 361.113325 158.757431 
L 392.793325 166.506761 
" style="fill:none;stroke:#000080;stroke-linecap:square;stroke-width:1.5;"/>
    <g>
     <use style="fill:none;stroke:#000080;stroke-width:1.5;" x="361.113325" xlink:href="#m3fb8a3bd49" y="158.757431"/>
     <use style="fill:none;stroke:#000080;stroke-width:1.5;" x="392.793325" xlink:href="#m3fb8a3bd49" y="166.506761"/>
    </g>
   </g>
   <g id="line2d_47">
    <path d="M 361.113325 143.25877 
L 392.793325 103.272226 
" style="fill:none;stroke:#ff0000;stroke-linecap:square;stroke-width:1.5;"/>
    <g>
     <use style="fill:none;stroke:#ff0000;stroke-linejoin:miter;stroke-width:1.5;" x="361.113325" xlink:href="#md40831a128" y="143.25877"/>
     <use style="fill:none;stroke:#ff0000;stroke-linejoin:miter;stroke-width:1.5;" x="392.793325" xlink:href="#md40831a128" y="103.272226"/>
    </g>
   </g>
   <g id="line2d_48">
    <path d="M 361.113325 132.92633 
L 392.793325 40.037692 
" style="fill:none;stroke:#ff00ff;stroke-linecap:square;stroke-width:1.5;"/>
    <g>
     <use style="fill:none;stroke:#ff00ff;stroke-linejoin:miter;stroke-width:1.5;" x="361.113325" xlink:href="#me9ec0f2e3c" y="132.92633"/>
     <use style="fill:none;stroke:#ff00ff;stroke-linejoin:miter;stroke-width:1.5;" x="392.793325" xlink:href="#me9ec0f2e3c" y="40.037692"/>
    </g>
   </g>
   <g id="line2d_49">
    <path d="M 361.113325 298.245375 
L 361.113325 34.768147 
" style="fill:none;stroke:#000000;stroke-linecap:square;stroke-width:1.5;"/>
   </g>
   <g id="patch_3">
    <path d="M 73.113325 298.245375 
L 73.113325 32.133375 
" style="fill:none;stroke:#000000;stroke-linecap:square;stroke-linejoin:miter;stroke-width:0.8;"/>
   </g>
   <g id="patch_4">
    <path d="M 430.233325 298.245375 
L 430.233325 32.133375 
" style="fill:none;stroke:#000000;stroke-linecap:square;stroke-linejoin:miter;stroke-width:0.8;"/>
   </g>
   <g id="patch_5">
    <path d="M 73.113325 298.245375 
L 430.233325 298.245375 
" style="fill:none;stroke:#000000;stroke-linecap:square;stroke-linejoin:miter;stroke-width:0.8;"/>
   </g>
   <g id="patch_6">
    <path d="M 73.113325 32.133375 
L 430.233325 32.133375 
" style="fill:none;stroke:#000000;stroke-linecap:square;stroke-linejoin:miter;stroke-width:0.8;"/>
   </g>
   <g id="text_14">
    <!-- f11 -->
    <g transform="translate(398.553325 297.114893)scale(0.15 -0.15)">
     <use xlink:href="#DejaVuSans-66"/>
     <use x="35.205078" xlink:href="#DejaVuSans-31"/>
     <use x="98.828125" xlink:href="#DejaVuSans-31"/>
    </g>
   </g>
   <g id="text_15">
    <!-- f10 -->
    <g transform="translate(398.553325 233.880358)scale(0.15 -0.15)">
     <use xlink:href="#DejaVuSans-66"/>
     <use x="35.205078" xlink:href="#DejaVuSans-31"/>
     <use x="98.828125" xlink:href="#DejaVuSans-30"/>
    </g>
   </g>
   <g id="text_16">
    <!-- f12 -->
    <g transform="translate(398.553325 170.645824)scale(0.15 -0.15)">
     <use xlink:href="#DejaVuSans-66"/>
     <use x="35.205078" xlink:href="#DejaVuSans-31"/>
     <use x="98.828125" xlink:href="#DejaVuSans-32"/>
    </g>
   </g>
   <g id="text_17">
    <!-- f14 -->
    <g transform="translate(398.553325 107.411289)scale(0.15 -0.15)">
     <use xlink:href="#DejaVuSans-66"/>
     <use x="35.205078" xlink:href="#DejaVuSans-31"/>
     <use x="98.828125" xlink:href="#DejaVuSans-34"/>
    </g>
   </g>
   <g id="text_18">
    <!-- f13 -->
    <defs>
     <path d="M 40.578125 39.3125 
Q 47.65625 37.796875 51.625 33 
Q 55.609375 28.21875 55.609375 21.1875 
Q 55.609375 10.40625 48.1875 4.484375 
Q 40.765625 -1.421875 27.09375 -1.421875 
Q 22.515625 -1.421875 17.65625 -0.515625 
Q 12.796875 0.390625 7.625 2.203125 
L 7.625 11.71875 
Q 11.71875 9.328125 16.59375 8.109375 
Q 21.484375 6.890625 26.8125 6.890625 
Q 36.078125 6.890625 40.9375 10.546875 
Q 45.796875 14.203125 45.796875 21.1875 
Q 45.796875 27.640625 41.28125 31.265625 
Q 36.765625 34.90625 28.71875 34.90625 
L 20.21875 34.90625 
L 20.21875 43.015625 
L 29.109375 43.015625 
Q 36.375 43.015625 40.234375 45.921875 
Q 44.09375 48.828125 44.09375 54.296875 
Q 44.09375 59.90625 40.109375 62.90625 
Q 36.140625 65.921875 28.71875 65.921875 
Q 24.65625 65.921875 20.015625 65.03125 
Q 15.375 64.15625 9.8125 62.3125 
L 9.8125 71.09375 
Q 15.4375 72.65625 20.34375 73.4375 
Q 25.25 74.21875 29.59375 74.21875 
Q 40.828125 74.21875 47.359375 69.109375 
Q 53.90625 64.015625 53.90625 55.328125 
Q 53.90625 49.265625 50.4375 45.09375 
Q 46.96875 40.921875 40.578125 39.3125 
z
" id="DejaVuSans-33"/>
    </defs>
    <g transform="translate(398.553325 44.176754)scale(0.15 -0.15)">
     <use xlink:href="#DejaVuSans-66"/>
     <use x="35.205078" xlink:href="#DejaVuSans-31"/>
     <use x="98.828125" xlink:href="#DejaVuSans-33"/>
    </g>
   </g>
   <g id="text_19">
    <!-- bbob -->
    <defs>
     <path d="M 48.6875 27.296875 
Q 48.6875 37.203125 44.609375 42.84375 
Q 40.53125 48.484375 33.40625 48.484375 
Q 26.265625 48.484375 22.1875 42.84375 
Q 18.109375 37.203125 18.109375 27.296875 
Q 18.109375 17.390625 22.1875 11.75 
Q 26.265625 6.109375 33.40625 6.109375 
Q 40.53125 6.109375 44.609375 11.75 
Q 48.6875 17.390625 48.6875 27.296875 
z
M 18.109375 46.390625 
Q 20.953125 51.265625 25.265625 53.625 
Q 29.59375 56 35.59375 56 
Q 45.5625 56 51.78125 48.09375 
Q 58.015625 40.1875 58.015625 27.296875 
Q 58.015625 14.40625 51.78125 6.484375 
Q 45.5625 -1.421875 35.59375 -1.421875 
Q 29.59375 -1.421875 25.265625 0.953125 
Q 20.953125 3.328125 18.109375 8.203125 
L 18.109375 0 
L 9.078125 0 
L 9.078125 75.984375 
L 18.109375 75.984375 
z
" id="DejaVuSans-62"/>
    </defs>
    <g transform="translate(76.684525 50.114612)scale(0.1666 -0.1666)">
     <use xlink:href="#DejaVuSans-62"/>
     <use x="63.476562" xlink:href="#DejaVuSans-62"/>
     <use x="126.953125" xlink:href="#DejaVuSans-6f"/>
     <use x="188.134766" xlink:href="#DejaVuSans-62"/>
    </g>
    <!-- Ill-conditioned functions, 40-D -->
    <defs>
     <path d="M 9.8125 72.90625 
L 19.671875 72.90625 
L 19.671875 0 
L 9.8125 0 
z
" id="DejaVuSans-49"/>
     <path d="M 11.71875 12.40625 
L 22.015625 12.40625 
L 22.015625 4 
L 14.015625 -11.625 
L 7.71875 -11.625 
L 11.71875 4 
z
" id="DejaVuSans-2c"/>
     <path d="M 19.671875 64.796875 
L 19.671875 8.109375 
L 31.59375 8.109375 
Q 46.6875 8.109375 53.6875 14.9375 
Q 60.6875 21.78125 60.6875 36.53125 
Q 60.6875 51.171875 53.6875 57.984375 
Q 46.6875 64.796875 31.59375 64.796875 
z
M 9.8125 72.90625 
L 30.078125 72.90625 
Q 51.265625 72.90625 61.171875 64.09375 
Q 71.09375 55.28125 71.09375 36.53125 
Q 71.09375 17.671875 61.125 8.828125 
Q 51.171875 0 30.078125 0 
L 9.8125 0 
z
" id="DejaVuSans-44"/>
    </defs>
    <g transform="translate(76.684525 68.770168)scale(0.1666 -0.1666)">
     <use xlink:href="#DejaVuSans-49"/>
     <use x="29.492188" xlink:href="#DejaVuSans-6c"/>
     <use x="57.275391" xlink:href="#DejaVuSans-6c"/>
     <use x="85.058594" xlink:href="#DejaVuSans-2d"/>
     <use x="121.142578" xlink:href="#DejaVuSans-63"/>
     <use x="176.123047" xlink:href="#DejaVuSans-6f"/>
     <use x="237.304688" xlink:href="#DejaVuSans-6e"/>
     <use x="300.683594" xlink:href="#DejaVuSans-64"/>
     <use x="364.160156" xlink:href="#DejaVuSans-69"/>
     <use x="391.943359" xlink:href="#DejaVuSans-74"/>
     <use x="431.152344" xlink:href="#DejaVuSans-69"/>
     <use x="458.935547" xlink:href="#DejaVuSans-6f"/>
     <use x="520.117188" xlink:href="#DejaVuSans-6e"/>
     <use x="583.496094" xlink:href="#DejaVuSans-65"/>
     <use x="645.019531" xlink:href="#DejaVuSans-64"/>
     <use x="708.496094" xlink:href="#DejaVuSans-20"/>
     <use x="740.283203" xlink:href="#DejaVuSans-66"/>
     <use x="775.488281" xlink:href="#DejaVuSans-75"/>
     <use x="838.867188" xlink:href="#DejaVuSans-6e"/>
     <use x="902.246094" xlink:href="#DejaVuSans-63"/>
     <use x="957.226562" xlink:href="#DejaVuSans-74"/>
     <use x="996.435547" xlink:href="#DejaVuSans-69"/>
     <use x="1024.21875" xlink:href="#DejaVuSans-6f"/>
     <use x="1085.400391" xlink:href="#DejaVuSans-6e"/>
     <use x="1148.779297" xlink:href="#DejaVuSans-73"/>
     <use x="1200.878906" xlink:href="#DejaVuSans-2c"/>
     <use x="1232.666016" xlink:href="#DejaVuSans-20"/>
     <use x="1264.453125" xlink:href="#DejaVuSans-34"/>
     <use x="1328.076172" xlink:href="#DejaVuSans-30"/>
     <use x="1391.699219" xlink:href="#DejaVuSans-2d"/>
     <use x="1427.783203" xlink:href="#DejaVuSans-44"/>
    </g>
    <!-- 51 targets in 100..1e-08 -->
    <defs>
     <path d="M 10.796875 72.90625 
L 49.515625 72.90625 
L 49.515625 64.59375 
L 19.828125 64.59375 
L 19.828125 46.734375 
Q 21.96875 47.46875 24.109375 47.828125 
Q 26.265625 48.1875 28.421875 48.1875 
Q 40.625 48.1875 47.75 41.5 
Q 54.890625 34.8125 54.890625 23.390625 
Q 54.890625 11.625 47.5625 5.09375 
Q 40.234375 -1.421875 26.90625 -1.421875 
Q 22.3125 -1.421875 17.546875 -0.640625 
Q 12.796875 0.140625 7.71875 1.703125 
L 7.71875 11.625 
Q 12.109375 9.234375 16.796875 8.0625 
Q 21.484375 6.890625 26.703125 6.890625 
Q 35.15625 6.890625 40.078125 11.328125 
Q 45.015625 15.765625 45.015625 23.390625 
Q 45.015625 31 40.078125 35.4375 
Q 35.15625 39.890625 26.703125 39.890625 
Q 22.75 39.890625 18.8125 39.015625 
Q 14.890625 38.140625 10.796875 36.28125 
z
" id="DejaVuSans-35"/>
    </defs>
    <g transform="translate(76.684525 87.425723)scale(0.1666 -0.1666)">
     <use xlink:href="#DejaVuSans-35"/>
     <use x="63.623047" xlink:href="#DejaVuSans-31"/>
     <use x="127.246094" xlink:href="#DejaVuSans-20"/>
     <use x="159.033203" xlink:href="#DejaVuSans-74"/>
     <use x="198.242188" xlink:href="#DejaVuSans-61"/>
     <use x="259.521484" xlink:href="#DejaVuSans-72"/>
     <use x="300.619141" xlink:href="#DejaVuSans-67"/>
     <use x="364.095703" xlink:href="#DejaVuSans-65"/>
     <use x="425.619141" xlink:href="#DejaVuSans-74"/>
     <use x="464.828125" xlink:href="#DejaVuSans-73"/>
     <use x="516.927734" xlink:href="#DejaVuSans-20"/>
     <use x="548.714844" xlink:href="#DejaVuSans-69"/>
     <use x="576.498047" xlink:href="#DejaVuSans-6e"/>
     <use x="639.876953" xlink:href="#DejaVuSans-20"/>
     <use x="671.664062" xlink:href="#DejaVuSans-31"/>
     <use x="735.287109" xlink:href="#DejaVuSans-30"/>
     <use x="798.910156" xlink:href="#DejaVuSans-30"/>
     <use x="862.533203" xlink:href="#DejaVuSans-2e"/>
     <use x="894.320312" xlink:href="#DejaVuSans-2e"/>
     <use x="926.107422" xlink:href="#DejaVuSans-31"/>
     <use x="989.730469" xlink:href="#DejaVuSans-65"/>
     <use x="1051.253906" xlink:href="#DejaVuSans-2d"/>
     <use x="1087.337891" xlink:href="#DejaVuSans-30"/>
     <use x="1150.960938" xlink:href="#DejaVuSans-38"/>
    </g>
    <!-- 15 instances -->
    <g transform="translate(76.684525 106.081279)scale(0.1666 -0.1666)">
     <use xlink:href="#DejaVuSans-31"/>
     <use x="63.623047" xlink:href="#DejaVuSans-35"/>
     <use x="127.246094" xlink:href="#DejaVuSans-20"/>
     <use x="159.033203" xlink:href="#DejaVuSans-69"/>
     <use x="186.816406" xlink:href="#DejaVuSans-6e"/>
     <use x="250.195312" xlink:href="#DejaVuSans-73"/>
     <use x="302.294922" xlink:href="#DejaVuSans-74"/>
     <use x="341.503906" xlink:href="#DejaVuSans-61"/>
     <use x="402.783203" xlink:href="#DejaVuSans-6e"/>
     <use x="466.162109" xlink:href="#DejaVuSans-63"/>
     <use x="521.142578" xlink:href="#DejaVuSans-65"/>
     <use x="582.666016" xlink:href="#DejaVuSans-73"/>
    </g>
   </g>
   <g id="text_20">
    <!-- v2.1 -->
    <g style="fill:#808080;" transform="translate(240.762388 293.504568)scale(0.1 -0.1)">
     <use xlink:href="#DejaVuSans-76"/>
     <use x="59.179688" xlink:href="#DejaVuSans-32"/>
     <use x="122.802734" xlink:href="#DejaVuSans-2e"/>
     <use x="154.589844" xlink:href="#DejaVuSans-31"/>
    </g>
   </g>
  </g>
 </g>
 <defs>
  <clipPath id="p0e35eeec3d">
   <rect height="266.112" width="357.12" x="73.113325" y="32.133375"/>
  </clipPath>
 </defs>
</svg>
