<?xml version="1.0" encoding="utf-8" standalone="no"?>
<!DOCTYPE svg PUBLIC "-//W3C//DTD SVG 1.1//EN"
  "http://www.w3.org/Graphics/SVG/1.1/DTD/svg11.dtd">
<!-- Created with matplotlib (http://matplotlib.org/) -->
<svg height="353pt" version="1.1" viewBox="0 0 438 353" width="438pt" xmlns="http://www.w3.org/2000/svg" xmlns:xlink="http://www.w3.org/1999/xlink">
 <defs>
  <style type="text/css">
*{stroke-linecap:butt;stroke-linejoin:round;}
  </style>
 </defs>
 <g id="figure_1">
  <g id="patch_1">
   <path d="M 0 353.22225 
L 438.62 353.22225 
L 438.62 0 
L 0 0 
z
" style="fill:#ffffff;"/>
  </g>
  <g id="axes_1">
   <g id="patch_2">
    <path d="M 70.8 298.245375 
L 427.92 298.245375 
L 427.92 32.133375 
L 70.8 32.133375 
z
" style="fill:#ffffff;"/>
   </g>
   <g id="matplotlib.axis_1">
    <g id="xtick_1">
     <g id="line2d_1">
      <path clip-path="url(#paea8a33b02)" d="M 70.8 298.245375 
L 70.8 32.133375 
" style="fill:none;stroke:#b0b0b0;stroke-linecap:square;stroke-width:0.8;"/>
     </g>
     <g id="line2d_2">
      <defs>
       <path d="M 0 0 
L 0 3.5 
" id="m482e676303" style="stroke:#000000;stroke-width:0.8;"/>
      </defs>
      <g>
       <use style="stroke:#000000;stroke-width:0.8;" x="70.8" xlink:href="#m482e676303" y="298.245375"/>
      </g>
     </g>
     <g id="text_1">
      <!-- 0 -->
      <defs>
       <path d="M 31.78125 66.40625 
Q 24.171875 66.40625 20.328125 58.90625 
Q 16.5 51.421875 16.5 36.375 
Q 16.5 21.390625 20.328125 13.890625 
Q 24.171875 6.390625 31.78125 6.390625 
Q 39.453125 6.390625 43.28125 13.890625 
Q 47.125 21.390625 47.125 36.375 
Q 47.125 51.421875 43.28125 58.90625 
Q 39.453125 66.40625 31.78125 66.40625 
z
M 31.78125 74.21875 
Q 44.046875 74.21875 50.515625 64.515625 
Q 56.984375 54.828125 56.984375 36.375 
Q 56.984375 17.96875 50.515625 8.265625 
Q 44.046875 -1.421875 31.78125 -1.421875 
Q 19.53125 -1.421875 13.0625 8.265625 
Q 6.59375 17.96875 6.59375 36.375 
Q 6.59375 54.828125 13.0625 64.515625 
Q 19.53125 74.21875 31.78125 74.21875 
z
" id="DejaVuSans-30"/>
      </defs>
      <g transform="translate(64.4375 320.44225)scale(0.2 -0.2)">
       <use xlink:href="#DejaVuSans-30"/>
      </g>
     </g>
    </g>
    <g id="xtick_2">
     <g id="line2d_3">
      <path clip-path="url(#paea8a33b02)" d="M 153.085714 298.245375 
L 153.085714 32.133375 
" style="fill:none;stroke:#b0b0b0;stroke-linecap:square;stroke-width:0.8;"/>
     </g>
     <g id="line2d_4">
      <g>
       <use style="stroke:#000000;stroke-width:0.8;" x="153.085714" xlink:href="#m482e676303" y="298.245375"/>
      </g>
     </g>
     <g id="text_2">
      <!-- 2 -->
      <defs>
       <path d="M 19.1875 8.296875 
L 53.609375 8.296875 
L 53.609375 0 
L 7.328125 0 
L 7.328125 8.296875 
Q 12.9375 14.109375 22.625 23.890625 
Q 32.328125 33.6875 34.8125 36.53125 
Q 39.546875 41.84375 41.421875 45.53125 
Q 43.3125 49.21875 43.3125 52.78125 
Q 43.3125 58.59375 39.234375 62.25 
Q 35.15625 65.921875 28.609375 65.921875 
Q 23.96875 65.921875 18.8125 64.3125 
Q 13.671875 62.703125 7.8125 59.421875 
L 7.8125 69.390625 
Q 13.765625 71.78125 18.9375 73 
Q 24.125 74.21875 28.421875 74.21875 
Q 39.75 74.21875 46.484375 68.546875 
Q 53.21875 62.890625 53.21875 53.421875 
Q 53.21875 48.921875 51.53125 44.890625 
Q 49.859375 40.875 45.40625 35.40625 
Q 44.1875 33.984375 37.640625 27.21875 
Q 31.109375 20.453125 19.1875 8.296875 
z
" id="DejaVuSans-32"/>
      </defs>
      <g transform="translate(146.723214 320.44225)scale(0.2 -0.2)">
       <use xlink:href="#DejaVuSans-32"/>
      </g>
     </g>
    </g>
    <g id="xtick_3">
     <g id="line2d_5">
      <path clip-path="url(#paea8a33b02)" d="M 235.371429 298.245375 
L 235.371429 32.133375 
" style="fill:none;stroke:#b0b0b0;stroke-linecap:square;stroke-width:0.8;"/>
     </g>
     <g id="line2d_6">
      <g>
       <use style="stroke:#000000;stroke-width:0.8;" x="235.371429" xlink:href="#m482e676303" y="298.245375"/>
      </g>
     </g>
     <g id="text_3">
      <!-- 4 -->
      <defs>
       <path d="M 37.796875 64.3125 
L 12.890625 25.390625 
L 37.796875 25.390625 
z
M 35.203125 72.90625 
L 47.609375 72.90625 
L 47.609375 25.390625 
L 58.015625 25.390625 
L 58.015625 17.1875 
L 47.609375 17.1875 
L 47.609375 0 
L 37.796875 0 
L 37.796875 17.1875 
L 4.890625 17.1875 
L 4.890625 26.703125 
z
" id="DejaVuSans-34"/>
      </defs>
      <g transform="translate(229.008929 320.44225)scale(0.2 -0.2)">
       <use xlink:href="#DejaVuSans-34"/>
      </g>
     </g>
    </g>
    <g id="xtick_4">
     <g id="line2d_7">
      <path clip-path="url(#paea8a33b02)" d="M 317.657143 298.245375 
L 317.657143 32.133375 
" style="fill:none;stroke:#b0b0b0;stroke-linecap:square;stroke-width:0.8;"/>
     </g>
     <g id="line2d_8">
      <g>
       <use style="stroke:#000000;stroke-width:0.8;" x="317.657143" xlink:href="#m482e676303" y="298.245375"/>
      </g>
     </g>
     <g id="text_4">
      <!-- 6 -->
      <defs>
       <path d="M 33.015625 40.375 
Q 26.375 40.375 22.484375 35.828125 
Q 18.609375 31.296875 18.609375 23.390625 
Q 18.609375 15.53125 22.484375 10.953125 
Q 26.375 6.390625 33.015625 6.390625 
Q 39.65625 6.390625 43.53125 10.953125 
Q 47.40625 15.53125 47.40625 23.390625 
Q 47.40625 31.296875 43.53125 35.828125 
Q 39.65625 40.375 33.015625 40.375 
z
M 52.59375 71.296875 
L 52.59375 62.3125 
Q 48.875 64.0625 45.09375 64.984375 
Q 41.3125 65.921875 37.59375 65.921875 
Q 27.828125 65.921875 22.671875 59.328125 
Q 17.53125 52.734375 16.796875 39.40625 
Q 19.671875 43.65625 24.015625 45.921875 
Q 28.375 48.1875 33.59375 48.1875 
Q 44.578125 48.1875 50.953125 41.515625 
Q 57.328125 34.859375 57.328125 23.390625 
Q 57.328125 12.15625 50.6875 5.359375 
Q 44.046875 -1.421875 33.015625 -1.421875 
Q 20.359375 -1.421875 13.671875 8.265625 
Q 6.984375 17.96875 6.984375 36.375 
Q 6.984375 53.65625 15.1875 63.9375 
Q 23.390625 74.21875 37.203125 74.21875 
Q 40.921875 74.21875 44.703125 73.484375 
Q 48.484375 72.75 52.59375 71.296875 
z
" id="DejaVuSans-36"/>
      </defs>
      <g transform="translate(311.294643 320.44225)scale(0.2 -0.2)">
       <use xlink:href="#DejaVuSans-36"/>
      </g>
     </g>
    </g>
    <g id="xtick_5">
     <g id="line2d_9">
      <path clip-path="url(#paea8a33b02)" d="M 399.942857 298.245375 
L 399.942857 32.133375 
" style="fill:none;stroke:#b0b0b0;stroke-linecap:square;stroke-width:0.8;"/>
     </g>
     <g id="line2d_10">
      <g>
       <use style="stroke:#000000;stroke-width:0.8;" x="399.942857" xlink:href="#m482e676303" y="298.245375"/>
      </g>
     </g>
     <g id="text_5">
      <!-- 8 -->
      <defs>
       <path d="M 31.78125 34.625 
Q 24.75 34.625 20.71875 30.859375 
Q 16.703125 27.09375 16.703125 20.515625 
Q 16.703125 13.921875 20.71875 10.15625 
Q 24.75 6.390625 31.78125 6.390625 
Q 38.8125 6.390625 42.859375 10.171875 
Q 46.921875 13.96875 46.921875 20.515625 
Q 46.921875 27.09375 42.890625 30.859375 
Q 38.875 34.625 31.78125 34.625 
z
M 21.921875 38.8125 
Q 15.578125 40.375 12.03125 44.71875 
Q 8.5 49.078125 8.5 55.328125 
Q 8.5 64.0625 14.71875 69.140625 
Q 20.953125 74.21875 31.78125 74.21875 
Q 42.671875 74.21875 48.875 69.140625 
Q 55.078125 64.0625 55.078125 55.328125 
Q 55.078125 49.078125 51.53125 44.71875 
Q 48 40.375 41.703125 38.8125 
Q 48.828125 37.15625 52.796875 32.3125 
Q 56.78125 27.484375 56.78125 20.515625 
Q 56.78125 9.90625 50.3125 4.234375 
Q 43.84375 -1.421875 31.78125 -1.421875 
Q 19.734375 -1.421875 13.25 4.234375 
Q 6.78125 9.90625 6.78125 20.515625 
Q 6.78125 27.484375 10.78125 32.3125 
Q 14.796875 37.15625 21.921875 38.8125 
z
M 18.3125 54.390625 
Q 18.3125 48.734375 21.84375 45.5625 
Q 25.390625 42.390625 31.78125 42.390625 
Q 38.140625 42.390625 41.71875 45.5625 
Q 45.3125 48.734375 45.3125 54.390625 
Q 45.3125 60.0625 41.71875 63.234375 
Q 38.140625 66.40625 31.78125 66.40625 
Q 25.390625 66.40625 21.84375 63.234375 
Q 18.3125 60.0625 18.3125 54.390625 
z
" id="DejaVuSans-38"/>
      </defs>
      <g transform="translate(393.580357 320.44225)scale(0.2 -0.2)">
       <use xlink:href="#DejaVuSans-38"/>
      </g>
     </g>
    </g>
    <g id="text_6">
     <!-- log10 of (# f-evals / dimension) -->
     <defs>
      <path d="M 9.421875 75.984375 
L 18.40625 75.984375 
L 18.40625 0 
L 9.421875 0 
z
" id="DejaVuSans-6c"/>
      <path d="M 30.609375 48.390625 
Q 23.390625 48.390625 19.1875 42.75 
Q 14.984375 37.109375 14.984375 27.296875 
Q 14.984375 17.484375 19.15625 11.84375 
Q 23.34375 6.203125 30.609375 6.203125 
Q 37.796875 6.203125 41.984375 11.859375 
Q 46.1875 17.53125 46.1875 27.296875 
Q 46.1875 37.015625 41.984375 42.703125 
Q 37.796875 48.390625 30.609375 48.390625 
z
M 30.609375 56 
Q 42.328125 56 49.015625 48.375 
Q 55.71875 40.765625 55.71875 27.296875 
Q 55.71875 13.875 49.015625 6.21875 
Q 42.328125 -1.421875 30.609375 -1.421875 
Q 18.84375 -1.421875 12.171875 6.21875 
Q 5.515625 13.875 5.515625 27.296875 
Q 5.515625 40.765625 12.171875 48.375 
Q 18.84375 56 30.609375 56 
z
" id="DejaVuSans-6f"/>
      <path d="M 45.40625 27.984375 
Q 45.40625 37.75 41.375 43.109375 
Q 37.359375 48.484375 30.078125 48.484375 
Q 22.859375 48.484375 18.828125 43.109375 
Q 14.796875 37.75 14.796875 27.984375 
Q 14.796875 18.265625 18.828125 12.890625 
Q 22.859375 7.515625 30.078125 7.515625 
Q 37.359375 7.515625 41.375 12.890625 
Q 45.40625 18.265625 45.40625 27.984375 
z
M 54.390625 6.78125 
Q 54.390625 -7.171875 48.1875 -13.984375 
Q 42 -20.796875 29.203125 -20.796875 
Q 24.46875 -20.796875 20.265625 -20.09375 
Q 16.0625 -19.390625 12.109375 -17.921875 
L 12.109375 -9.1875 
Q 16.0625 -11.328125 19.921875 -12.34375 
Q 23.78125 -13.375 27.78125 -13.375 
Q 36.625 -13.375 41.015625 -8.765625 
Q 45.40625 -4.15625 45.40625 5.171875 
L 45.40625 9.625 
Q 42.625 4.78125 38.28125 2.390625 
Q 33.9375 0 27.875 0 
Q 17.828125 0 11.671875 7.65625 
Q 5.515625 15.328125 5.515625 27.984375 
Q 5.515625 40.671875 11.671875 48.328125 
Q 17.828125 56 27.875 56 
Q 33.9375 56 38.28125 53.609375 
Q 42.625 51.21875 45.40625 46.390625 
L 45.40625 54.6875 
L 54.390625 54.6875 
z
" id="DejaVuSans-67"/>
      <path d="M 12.40625 8.296875 
L 28.515625 8.296875 
L 28.515625 63.921875 
L 10.984375 60.40625 
L 10.984375 69.390625 
L 28.421875 72.90625 
L 38.28125 72.90625 
L 38.28125 8.296875 
L 54.390625 8.296875 
L 54.390625 0 
L 12.40625 0 
z
" id="DejaVuSans-31"/>
      <path id="DejaVuSans-20"/>
      <path d="M 37.109375 75.984375 
L 37.109375 68.5 
L 28.515625 68.5 
Q 23.6875 68.5 21.796875 66.546875 
Q 19.921875 64.59375 19.921875 59.515625 
L 19.921875 54.6875 
L 34.71875 54.6875 
L 34.71875 47.703125 
L 19.921875 47.703125 
L 19.921875 0 
L 10.890625 0 
L 10.890625 47.703125 
L 2.296875 47.703125 
L 2.296875 54.6875 
L 10.890625 54.6875 
L 10.890625 58.5 
Q 10.890625 67.625 15.140625 71.796875 
Q 19.390625 75.984375 28.609375 75.984375 
z
" id="DejaVuSans-66"/>
      <path d="M 31 75.875 
Q 24.46875 64.65625 21.28125 53.65625 
Q 18.109375 42.671875 18.109375 31.390625 
Q 18.109375 20.125 21.3125 9.0625 
Q 24.515625 -2 31 -13.1875 
L 23.1875 -13.1875 
Q 15.875 -1.703125 12.234375 9.375 
Q 8.59375 20.453125 8.59375 31.390625 
Q 8.59375 42.28125 12.203125 53.3125 
Q 15.828125 64.359375 23.1875 75.875 
z
" id="DejaVuSans-28"/>
      <path d="M 51.125 44 
L 36.921875 44 
L 32.8125 27.6875 
L 47.125 27.6875 
z
M 43.796875 71.78125 
L 38.71875 51.515625 
L 52.984375 51.515625 
L 58.109375 71.78125 
L 65.921875 71.78125 
L 60.890625 51.515625 
L 76.125 51.515625 
L 76.125 44 
L 58.984375 44 
L 54.984375 27.6875 
L 70.515625 27.6875 
L 70.515625 20.21875 
L 53.078125 20.21875 
L 48 0 
L 40.1875 0 
L 45.21875 20.21875 
L 30.90625 20.21875 
L 25.875 0 
L 18.015625 0 
L 23.09375 20.21875 
L 7.71875 20.21875 
L 7.71875 27.6875 
L 24.90625 27.6875 
L 29 44 
L 13.28125 44 
L 13.28125 51.515625 
L 30.90625 51.515625 
L 35.890625 71.78125 
z
" id="DejaVuSans-23"/>
      <path d="M 4.890625 31.390625 
L 31.203125 31.390625 
L 31.203125 23.390625 
L 4.890625 23.390625 
z
" id="DejaVuSans-2d"/>
      <path d="M 56.203125 29.59375 
L 56.203125 25.203125 
L 14.890625 25.203125 
Q 15.484375 15.921875 20.484375 11.0625 
Q 25.484375 6.203125 34.421875 6.203125 
Q 39.59375 6.203125 44.453125 7.46875 
Q 49.3125 8.734375 54.109375 11.28125 
L 54.109375 2.78125 
Q 49.265625 0.734375 44.1875 -0.34375 
Q 39.109375 -1.421875 33.890625 -1.421875 
Q 20.796875 -1.421875 13.15625 6.1875 
Q 5.515625 13.8125 5.515625 26.8125 
Q 5.515625 40.234375 12.765625 48.109375 
Q 20.015625 56 32.328125 56 
Q 43.359375 56 49.78125 48.890625 
Q 56.203125 41.796875 56.203125 29.59375 
z
M 47.21875 32.234375 
Q 47.125 39.59375 43.09375 43.984375 
Q 39.0625 48.390625 32.421875 48.390625 
Q 24.90625 48.390625 20.390625 44.140625 
Q 15.875 39.890625 15.1875 32.171875 
z
" id="DejaVuSans-65"/>
      <path d="M 2.984375 54.6875 
L 12.5 54.6875 
L 29.59375 8.796875 
L 46.6875 54.6875 
L 56.203125 54.6875 
L 35.6875 0 
L 23.484375 0 
z
" id="DejaVuSans-76"/>
      <path d="M 34.28125 27.484375 
Q 23.390625 27.484375 19.1875 25 
Q 14.984375 22.515625 14.984375 16.5 
Q 14.984375 11.71875 18.140625 8.90625 
Q 21.296875 6.109375 26.703125 6.109375 
Q 34.1875 6.109375 38.703125 11.40625 
Q 43.21875 16.703125 43.21875 25.484375 
L 43.21875 27.484375 
z
M 52.203125 31.203125 
L 52.203125 0 
L 43.21875 0 
L 43.21875 8.296875 
Q 40.140625 3.328125 35.546875 0.953125 
Q 30.953125 -1.421875 24.3125 -1.421875 
Q 15.921875 -1.421875 10.953125 3.296875 
Q 6 8.015625 6 15.921875 
Q 6 25.140625 12.171875 29.828125 
Q 18.359375 34.515625 30.609375 34.515625 
L 43.21875 34.515625 
L 43.21875 35.40625 
Q 43.21875 41.609375 39.140625 45 
Q 35.0625 48.390625 27.6875 48.390625 
Q 23 48.390625 18.546875 47.265625 
Q 14.109375 46.140625 10.015625 43.890625 
L 10.015625 52.203125 
Q 14.9375 54.109375 19.578125 55.046875 
Q 24.21875 56 28.609375 56 
Q 40.484375 56 46.34375 49.84375 
Q 52.203125 43.703125 52.203125 31.203125 
z
" id="DejaVuSans-61"/>
      <path d="M 44.28125 53.078125 
L 44.28125 44.578125 
Q 40.484375 46.53125 36.375 47.5 
Q 32.28125 48.484375 27.875 48.484375 
Q 21.1875 48.484375 17.84375 46.4375 
Q 14.5 44.390625 14.5 40.28125 
Q 14.5 37.15625 16.890625 35.375 
Q 19.28125 33.59375 26.515625 31.984375 
L 29.59375 31.296875 
Q 39.15625 29.25 43.1875 25.515625 
Q 47.21875 21.78125 47.21875 15.09375 
Q 47.21875 7.46875 41.1875 3.015625 
Q 35.15625 -1.421875 24.609375 -1.421875 
Q 20.21875 -1.421875 15.453125 -0.5625 
Q 10.6875 0.296875 5.421875 2 
L 5.421875 11.28125 
Q 10.40625 8.6875 15.234375 7.390625 
Q 20.0625 6.109375 24.8125 6.109375 
Q 31.15625 6.109375 34.5625 8.28125 
Q 37.984375 10.453125 37.984375 14.40625 
Q 37.984375 18.0625 35.515625 20.015625 
Q 33.0625 21.96875 24.703125 23.78125 
L 21.578125 24.515625 
Q 13.234375 26.265625 9.515625 29.90625 
Q 5.8125 33.546875 5.8125 39.890625 
Q 5.8125 47.609375 11.28125 51.796875 
Q 16.75 56 26.8125 56 
Q 31.78125 56 36.171875 55.265625 
Q 40.578125 54.546875 44.28125 53.078125 
z
" id="DejaVuSans-73"/>
      <path d="M 25.390625 72.90625 
L 33.6875 72.90625 
L 8.296875 -9.28125 
L 0 -9.28125 
z
" id="DejaVuSans-2f"/>
      <path d="M 45.40625 46.390625 
L 45.40625 75.984375 
L 54.390625 75.984375 
L 54.390625 0 
L 45.40625 0 
L 45.40625 8.203125 
Q 42.578125 3.328125 38.25 0.953125 
Q 33.9375 -1.421875 27.875 -1.421875 
Q 17.96875 -1.421875 11.734375 6.484375 
Q 5.515625 14.40625 5.515625 27.296875 
Q 5.515625 40.1875 11.734375 48.09375 
Q 17.96875 56 27.875 56 
Q 33.9375 56 38.25 53.625 
Q 42.578125 51.265625 45.40625 46.390625 
z
M 14.796875 27.296875 
Q 14.796875 17.390625 18.875 11.75 
Q 22.953125 6.109375 30.078125 6.109375 
Q 37.203125 6.109375 41.296875 11.75 
Q 45.40625 17.390625 45.40625 27.296875 
Q 45.40625 37.203125 41.296875 42.84375 
Q 37.203125 48.484375 30.078125 48.484375 
Q 22.953125 48.484375 18.875 42.84375 
Q 14.796875 37.203125 14.796875 27.296875 
z
" id="DejaVuSans-64"/>
      <path d="M 9.421875 54.6875 
L 18.40625 54.6875 
L 18.40625 0 
L 9.421875 0 
z
M 9.421875 75.984375 
L 18.40625 75.984375 
L 18.40625 64.59375 
L 9.421875 64.59375 
z
" id="DejaVuSans-69"/>
      <path d="M 52 44.1875 
Q 55.375 50.25 60.0625 53.125 
Q 64.75 56 71.09375 56 
Q 79.640625 56 84.28125 50.015625 
Q 88.921875 44.046875 88.921875 33.015625 
L 88.921875 0 
L 79.890625 0 
L 79.890625 32.71875 
Q 79.890625 40.578125 77.09375 44.375 
Q 74.3125 48.1875 68.609375 48.1875 
Q 61.625 48.1875 57.5625 43.546875 
Q 53.515625 38.921875 53.515625 30.90625 
L 53.515625 0 
L 44.484375 0 
L 44.484375 32.71875 
Q 44.484375 40.625 41.703125 44.40625 
Q 38.921875 48.1875 33.109375 48.1875 
Q 26.21875 48.1875 22.15625 43.53125 
Q 18.109375 38.875 18.109375 30.90625 
L 18.109375 0 
L 9.078125 0 
L 9.078125 54.6875 
L 18.109375 54.6875 
L 18.109375 46.1875 
Q 21.1875 51.21875 25.484375 53.609375 
Q 29.78125 56 35.6875 56 
Q 41.65625 56 45.828125 52.96875 
Q 50 49.953125 52 44.1875 
z
" id="DejaVuSans-6d"/>
      <path d="M 54.890625 33.015625 
L 54.890625 0 
L 45.90625 0 
L 45.90625 32.71875 
Q 45.90625 40.484375 42.875 44.328125 
Q 39.84375 48.1875 33.796875 48.1875 
Q 26.515625 48.1875 22.3125 43.546875 
Q 18.109375 38.921875 18.109375 30.90625 
L 18.109375 0 
L 9.078125 0 
L 9.078125 54.6875 
L 18.109375 54.6875 
L 18.109375 46.1875 
Q 21.34375 51.125 25.703125 53.5625 
Q 30.078125 56 35.796875 56 
Q 45.21875 56 50.046875 50.171875 
Q 54.890625 44.34375 54.890625 33.015625 
z
" id="DejaVuSans-6e"/>
      <path d="M 8.015625 75.875 
L 15.828125 75.875 
Q 23.140625 64.359375 26.78125 53.3125 
Q 30.421875 42.28125 30.421875 31.390625 
Q 30.421875 20.453125 26.78125 9.375 
Q 23.140625 -1.703125 15.828125 -13.1875 
L 8.015625 -13.1875 
Q 14.5 -2 17.703125 9.0625 
Q 20.90625 20.125 20.90625 31.390625 
Q 20.90625 42.671875 17.703125 53.65625 
Q 14.5 64.65625 8.015625 75.875 
z
" id="DejaVuSans-29"/>
     </defs>
     <g transform="translate(107.015156 342.278812)scale(0.18 -0.18)">
      <use xlink:href="#DejaVuSans-6c"/>
      <use x="27.783203" xlink:href="#DejaVuSans-6f"/>
      <use x="88.964844" xlink:href="#DejaVuSans-67"/>
      <use x="152.441406" xlink:href="#DejaVuSans-31"/>
      <use x="216.064453" xlink:href="#DejaVuSans-30"/>
      <use x="279.6875" xlink:href="#DejaVuSans-20"/>
      <use x="311.474609" xlink:href="#DejaVuSans-6f"/>
      <use x="372.65625" xlink:href="#DejaVuSans-66"/>
      <use x="407.861328" xlink:href="#DejaVuSans-20"/>
      <use x="439.648438" xlink:href="#DejaVuSans-28"/>
      <use x="478.662109" xlink:href="#DejaVuSans-23"/>
      <use x="562.451172" xlink:href="#DejaVuSans-20"/>
      <use x="594.238281" xlink:href="#DejaVuSans-66"/>
      <use x="629.365234" xlink:href="#DejaVuSans-2d"/>
      <use x="665.449219" xlink:href="#DejaVuSans-65"/>
      <use x="726.972656" xlink:href="#DejaVuSans-76"/>
      <use x="786.152344" xlink:href="#DejaVuSans-61"/>
      <use x="847.431641" xlink:href="#DejaVuSans-6c"/>
      <use x="875.214844" xlink:href="#DejaVuSans-73"/>
      <use x="927.314453" xlink:href="#DejaVuSans-20"/>
      <use x="959.101562" xlink:href="#DejaVuSans-2f"/>
      <use x="992.792969" xlink:href="#DejaVuSans-20"/>
      <use x="1024.580078" xlink:href="#DejaVuSans-64"/>
      <use x="1088.056641" xlink:href="#DejaVuSans-69"/>
      <use x="1115.839844" xlink:href="#DejaVuSans-6d"/>
      <use x="1213.251953" xlink:href="#DejaVuSans-65"/>
      <use x="1274.775391" xlink:href="#DejaVuSans-6e"/>
      <use x="1338.154297" xlink:href="#DejaVuSans-73"/>
      <use x="1390.253906" xlink:href="#DejaVuSans-69"/>
      <use x="1418.037109" xlink:href="#DejaVuSans-6f"/>
      <use x="1479.21875" xlink:href="#DejaVuSans-6e"/>
      <use x="1542.597656" xlink:href="#DejaVuSans-29"/>
     </g>
    </g>
   </g>
   <g id="matplotlib.axis_2">
    <g id="ytick_1">
     <g id="line2d_11">
      <path clip-path="url(#paea8a33b02)" d="M 70.8 298.245375 
L 427.92 298.245375 
" style="fill:none;stroke:#b0b0b0;stroke-linecap:square;stroke-width:0.8;"/>
     </g>
     <g id="line2d_12">
      <defs>
       <path d="M 0 0 
L -3.5 0 
" id="m586d3c3688" style="stroke:#000000;stroke-width:0.8;"/>
      </defs>
      <g>
       <use style="stroke:#000000;stroke-width:0.8;" x="70.8" xlink:href="#m586d3c3688" y="298.245375"/>
      </g>
     </g>
     <g id="text_7">
      <!-- 0.0 -->
      <defs>
       <path d="M 10.6875 12.40625 
L 21 12.40625 
L 21 0 
L 10.6875 0 
z
" id="DejaVuSans-2e"/>
      </defs>
      <g transform="translate(31.99375 305.843812)scale(0.2 -0.2)">
       <use xlink:href="#DejaVuSans-30"/>
       <use x="63.623047" xlink:href="#DejaVuSans-2e"/>
       <use x="95.410156" xlink:href="#DejaVuSans-30"/>
      </g>
     </g>
    </g>
    <g id="ytick_2">
     <g id="line2d_13">
      <path clip-path="url(#paea8a33b02)" d="M 70.8 245.549929 
L 427.92 245.549929 
" style="fill:none;stroke:#b0b0b0;stroke-linecap:square;stroke-width:0.8;"/>
     </g>
     <g id="line2d_14">
      <g>
       <use style="stroke:#000000;stroke-width:0.8;" x="70.8" xlink:href="#m586d3c3688" y="245.549929"/>
      </g>
     </g>
     <g id="text_8">
      <!-- 0.2 -->
      <g transform="translate(31.99375 253.148367)scale(0.2 -0.2)">
       <use xlink:href="#DejaVuSans-30"/>
       <use x="63.623047" xlink:href="#DejaVuSans-2e"/>
       <use x="95.410156" xlink:href="#DejaVuSans-32"/>
      </g>
     </g>
    </g>
    <g id="ytick_3">
     <g id="line2d_15">
      <path clip-path="url(#paea8a33b02)" d="M 70.8 192.854484 
L 427.92 192.854484 
" style="fill:none;stroke:#b0b0b0;stroke-linecap:square;stroke-width:0.8;"/>
     </g>
     <g id="line2d_16">
      <g>
       <use style="stroke:#000000;stroke-width:0.8;" x="70.8" xlink:href="#m586d3c3688" y="192.854484"/>
      </g>
     </g>
     <g id="text_9">
      <!-- 0.4 -->
      <g transform="translate(31.99375 200.452921)scale(0.2 -0.2)">
       <use xlink:href="#DejaVuSans-30"/>
       <use x="63.623047" xlink:href="#DejaVuSans-2e"/>
       <use x="95.410156" xlink:href="#DejaVuSans-34"/>
      </g>
     </g>
    </g>
    <g id="ytick_4">
     <g id="line2d_17">
      <path clip-path="url(#paea8a33b02)" d="M 70.8 140.159038 
L 427.92 140.159038 
" style="fill:none;stroke:#b0b0b0;stroke-linecap:square;stroke-width:0.8;"/>
     </g>
     <g id="line2d_18">
      <g>
       <use style="stroke:#000000;stroke-width:0.8;" x="70.8" xlink:href="#m586d3c3688" y="140.159038"/>
      </g>
     </g>
     <g id="text_10">
      <!-- 0.6 -->
      <g transform="translate(31.99375 147.757476)scale(0.2 -0.2)">
       <use xlink:href="#DejaVuSans-30"/>
       <use x="63.623047" xlink:href="#DejaVuSans-2e"/>
       <use x="95.410156" xlink:href="#DejaVuSans-36"/>
      </g>
     </g>
    </g>
    <g id="ytick_5">
     <g id="line2d_19">
      <path clip-path="url(#paea8a33b02)" d="M 70.8 87.463593 
L 427.92 87.463593 
" style="fill:none;stroke:#b0b0b0;stroke-linecap:square;stroke-width:0.8;"/>
     </g>
     <g id="line2d_20">
      <g>
       <use style="stroke:#000000;stroke-width:0.8;" x="70.8" xlink:href="#m586d3c3688" y="87.463593"/>
      </g>
     </g>
     <g id="text_11">
      <!-- 0.8 -->
      <g transform="translate(31.99375 95.06203)scale(0.2 -0.2)">
       <use xlink:href="#DejaVuSans-30"/>
       <use x="63.623047" xlink:href="#DejaVuSans-2e"/>
       <use x="95.410156" xlink:href="#DejaVuSans-38"/>
      </g>
     </g>
    </g>
    <g id="ytick_6">
     <g id="line2d_21">
      <path clip-path="url(#paea8a33b02)" d="M 70.8 34.768147 
L 427.92 34.768147 
" style="fill:none;stroke:#b0b0b0;stroke-linecap:square;stroke-width:0.8;"/>
     </g>
     <g id="line2d_22">
      <g>
       <use style="stroke:#000000;stroke-width:0.8;" x="70.8" xlink:href="#m586d3c3688" y="34.768147"/>
      </g>
     </g>
     <g id="text_12">
      <!-- 1.0 -->
      <g transform="translate(31.99375 42.366585)scale(0.2 -0.2)">
       <use xlink:href="#DejaVuSans-31"/>
       <use x="63.623047" xlink:href="#DejaVuSans-2e"/>
       <use x="95.410156" xlink:href="#DejaVuSans-30"/>
      </g>
     </g>
    </g>
    <g id="text_13">
     <!-- Proportion of function+target pairs -->
     <defs>
      <path d="M 19.671875 64.796875 
L 19.671875 37.40625 
L 32.078125 37.40625 
Q 38.96875 37.40625 42.71875 40.96875 
Q 46.484375 44.53125 46.484375 51.125 
Q 46.484375 57.671875 42.71875 61.234375 
Q 38.96875 64.796875 32.078125 64.796875 
z
M 9.8125 72.90625 
L 32.078125 72.90625 
Q 44.34375 72.90625 50.609375 67.359375 
Q 56.890625 61.8125 56.890625 51.125 
Q 56.890625 40.328125 50.609375 34.8125 
Q 44.34375 29.296875 32.078125 29.296875 
L 19.671875 29.296875 
L 19.671875 0 
L 9.8125 0 
z
" id="DejaVuSans-50"/>
      <path d="M 41.109375 46.296875 
Q 39.59375 47.171875 37.8125 47.578125 
Q 36.03125 48 33.890625 48 
Q 26.265625 48 22.1875 43.046875 
Q 18.109375 38.09375 18.109375 28.8125 
L 18.109375 0 
L 9.078125 0 
L 9.078125 54.6875 
L 18.109375 54.6875 
L 18.109375 46.1875 
Q 20.953125 51.171875 25.484375 53.578125 
Q 30.03125 56 36.53125 56 
Q 37.453125 56 38.578125 55.875 
Q 39.703125 55.765625 41.0625 55.515625 
z
" id="DejaVuSans-72"/>
      <path d="M 18.109375 8.203125 
L 18.109375 -20.796875 
L 9.078125 -20.796875 
L 9.078125 54.6875 
L 18.109375 54.6875 
L 18.109375 46.390625 
Q 20.953125 51.265625 25.265625 53.625 
Q 29.59375 56 35.59375 56 
Q 45.5625 56 51.78125 48.09375 
Q 58.015625 40.1875 58.015625 27.296875 
Q 58.015625 14.40625 51.78125 6.484375 
Q 45.5625 -1.421875 35.59375 -1.421875 
Q 29.59375 -1.421875 25.265625 0.953125 
Q 20.953125 3.328125 18.109375 8.203125 
z
M 48.6875 27.296875 
Q 48.6875 37.203125 44.609375 42.84375 
Q 40.53125 48.484375 33.40625 48.484375 
Q 26.265625 48.484375 22.1875 42.84375 
Q 18.109375 37.203125 18.109375 27.296875 
Q 18.109375 17.390625 22.1875 11.75 
Q 26.265625 6.109375 33.40625 6.109375 
Q 40.53125 6.109375 44.609375 11.75 
Q 48.6875 17.390625 48.6875 27.296875 
z
" id="DejaVuSans-70"/>
      <path d="M 18.3125 70.21875 
L 18.3125 54.6875 
L 36.8125 54.6875 
L 36.8125 47.703125 
L 18.3125 47.703125 
L 18.3125 18.015625 
Q 18.3125 11.328125 20.140625 9.421875 
Q 21.96875 7.515625 27.59375 7.515625 
L 36.8125 7.515625 
L 36.8125 0 
L 27.59375 0 
Q 17.1875 0 13.234375 3.875 
Q 9.28125 7.765625 9.28125 18.015625 
L 9.28125 47.703125 
L 2.6875 47.703125 
L 2.6875 54.6875 
L 9.28125 54.6875 
L 9.28125 70.21875 
z
" id="DejaVuSans-74"/>
      <path d="M 8.5 21.578125 
L 8.5 54.6875 
L 17.484375 54.6875 
L 17.484375 21.921875 
Q 17.484375 14.15625 20.5 10.265625 
Q 23.53125 6.390625 29.59375 6.390625 
Q 36.859375 6.390625 41.078125 11.03125 
Q 45.3125 15.671875 45.3125 23.6875 
L 45.3125 54.6875 
L 54.296875 54.6875 
L 54.296875 0 
L 45.3125 0 
L 45.3125 8.40625 
Q 42.046875 3.421875 37.71875 1 
Q 33.40625 -1.421875 27.6875 -1.421875 
Q 18.265625 -1.421875 13.375 4.4375 
Q 8.5 10.296875 8.5 21.578125 
z
M 31.109375 56 
z
" id="DejaVuSans-75"/>
      <path d="M 48.78125 52.59375 
L 48.78125 44.1875 
Q 44.96875 46.296875 41.140625 47.34375 
Q 37.3125 48.390625 33.40625 48.390625 
Q 24.65625 48.390625 19.8125 42.84375 
Q 14.984375 37.3125 14.984375 27.296875 
Q 14.984375 17.28125 19.8125 11.734375 
Q 24.65625 6.203125 33.40625 6.203125 
Q 37.3125 6.203125 41.140625 7.25 
Q 44.96875 8.296875 48.78125 10.40625 
L 48.78125 2.09375 
Q 45.015625 0.34375 40.984375 -0.53125 
Q 36.96875 -1.421875 32.421875 -1.421875 
Q 20.0625 -1.421875 12.78125 6.34375 
Q 5.515625 14.109375 5.515625 27.296875 
Q 5.515625 40.671875 12.859375 48.328125 
Q 20.21875 56 33.015625 56 
Q 37.15625 56 41.109375 55.140625 
Q 45.0625 54.296875 48.78125 52.59375 
z
" id="DejaVuSans-63"/>
      <path d="M 46 62.703125 
L 46 35.5 
L 73.1875 35.5 
L 73.1875 27.203125 
L 46 27.203125 
L 46 0 
L 37.796875 0 
L 37.796875 27.203125 
L 10.59375 27.203125 
L 10.59375 35.5 
L 37.796875 35.5 
L 37.796875 62.703125 
z
" id="DejaVuSans-2b"/>
     </defs>
     <g transform="translate(24.250312 323.17875)rotate(-90)scale(0.18 -0.18)">
      <use xlink:href="#DejaVuSans-50"/>
      <use x="60.287109" xlink:href="#DejaVuSans-72"/>
      <use x="101.369141" xlink:href="#DejaVuSans-6f"/>
      <use x="162.550781" xlink:href="#DejaVuSans-70"/>
      <use x="226.027344" xlink:href="#DejaVuSans-6f"/>
      <use x="287.208984" xlink:href="#DejaVuSans-72"/>
      <use x="328.322266" xlink:href="#DejaVuSans-74"/>
      <use x="367.53125" xlink:href="#DejaVuSans-69"/>
      <use x="395.314453" xlink:href="#DejaVuSans-6f"/>
      <use x="456.496094" xlink:href="#DejaVuSans-6e"/>
      <use x="519.875" xlink:href="#DejaVuSans-20"/>
      <use x="551.662109" xlink:href="#DejaVuSans-6f"/>
      <use x="612.84375" xlink:href="#DejaVuSans-66"/>
      <use x="648.048828" xlink:href="#DejaVuSans-20"/>
      <use x="679.835938" xlink:href="#DejaVuSans-66"/>
      <use x="715.041016" xlink:href="#DejaVuSans-75"/>
      <use x="778.419922" xlink:href="#DejaVuSans-6e"/>
      <use x="841.798828" xlink:href="#DejaVuSans-63"/>
      <use x="896.779297" xlink:href="#DejaVuSans-74"/>
      <use x="935.988281" xlink:href="#DejaVuSans-69"/>
      <use x="963.771484" xlink:href="#DejaVuSans-6f"/>
      <use x="1024.953125" xlink:href="#DejaVuSans-6e"/>
      <use x="1088.332031" xlink:href="#DejaVuSans-2b"/>
      <use x="1172.121094" xlink:href="#DejaVuSans-74"/>
      <use x="1211.330078" xlink:href="#DejaVuSans-61"/>
      <use x="1272.609375" xlink:href="#DejaVuSans-72"/>
      <use x="1313.707031" xlink:href="#DejaVuSans-67"/>
      <use x="1377.183594" xlink:href="#DejaVuSans-65"/>
      <use x="1438.707031" xlink:href="#DejaVuSans-74"/>
      <use x="1477.916016" xlink:href="#DejaVuSans-20"/>
      <use x="1509.703125" xlink:href="#DejaVuSans-70"/>
      <use x="1573.179688" xlink:href="#DejaVuSans-61"/>
      <use x="1634.458984" xlink:href="#DejaVuSans-69"/>
      <use x="1662.242188" xlink:href="#DejaVuSans-72"/>
      <use x="1703.355469" xlink:href="#DejaVuSans-73"/>
     </g>
    </g>
   </g>
   <g id="line2d_23">
    <defs>
     <path d="M 0 1.5 
C 0.397805 1.5 0.77937 1.341951 1.06066 1.06066 
C 1.341951 0.77937 1.5 0.397805 1.5 0 
C 1.5 -0.397805 1.341951 -0.77937 1.06066 -1.06066 
C 0.77937 -1.341951 0.397805 -1.5 0 -1.5 
C -0.397805 -1.5 -0.77937 -1.341951 -1.06066 -1.06066 
C -1.341951 -0.77937 -1.5 -0.397805 -1.5 0 
C -1.5 0.397805 -1.341951 0.77937 -1.06066 1.06066 
C -0.77937 1.341951 -0.397805 1.5 0 1.5 
z
" id="mbed8f76f54" style="stroke:#000080;"/>
    </defs>
    <g>
     <use style="fill:#000080;stroke:#000080;" x="285.73634" xlink:href="#mbed8f76f54" y="112.26145"/>
     <use style="fill:#000080;stroke:#000080;" x="285.73634" xlink:href="#mbed8f76f54" y="112.26145"/>
    </g>
   </g>
   <g id="line2d_24">
    <path d="M 129.936856 298.245375 
L 129.936856 297.728753 
L 130.066924 297.728753 
L 130.066924 297.212131 
L 130.781427 297.212131 
L 130.781427 296.695509 
L 131.955997 296.695509 
L 131.955997 296.178887 
L 132.712206 296.178887 
L 132.712206 295.662265 
L 133.357037 295.662265 
L 133.357037 294.112399 
L 133.55803 294.112399 
L 133.55803 293.595777 
L 135.583952 293.595777 
L 135.583952 293.079155 
L 135.913979 293.079155 
L 135.913979 292.562533 
L 136.134504 292.562533 
L 136.134504 292.045911 
L 138.129788 292.045911 
L 138.129788 291.529289 
L 138.456902 291.529289 
L 138.537753 289.979423 
L 139.288127 289.979423 
L 139.288127 289.462801 
L 139.689675 289.462801 
L 139.689675 288.429557 
L 140.357719 288.429557 
L 140.394111 287.396313 
L 142.042509 287.396313 
L 142.042509 286.879691 
L 144.8371 286.879691 
L 144.8371 286.363069 
L 165.70835 286.363069 
L 165.70835 285.846447 
L 180.247301 285.846447 
L 180.247301 285.329825 
L 181.124159 285.329825 
L 181.124159 284.296581 
L 183.5707 284.296581 
L 183.5707 283.263337 
L 183.781148 283.263337 
L 183.781148 282.746715 
L 185.113732 282.746715 
L 185.113732 282.230093 
L 186.163294 282.230093 
L 186.163294 281.713471 
L 186.36004 281.713471 
L 186.36004 281.196849 
L 186.543658 281.196849 
L 186.543658 279.646982 
L 195.747081 279.646982 
L 195.747081 279.13036 
L 195.910455 279.13036 
L 195.910455 278.097116 
L 196.331544 278.097116 
L 196.331544 277.063872 
L 197.176157 277.063872 
L 197.188274 276.030628 
L 197.691729 276.030628 
L 197.799228 273.96414 
L 197.83723 273.96414 
L 197.83723 273.447518 
L 198.006883 273.447518 
L 198.08985 271.897652 
L 198.496187 271.897652 
L 198.496187 271.38103 
L 198.609807 271.38103 
L 198.609807 270.864408 
L 198.862497 270.864408 
L 198.862497 270.347786 
L 199.011798 270.347786 
L 199.011798 269.831164 
L 199.356061 269.831164 
L 199.356061 269.314542 
L 200.474634 269.314542 
L 200.474634 268.79792 
L 201.117346 268.79792 
L 201.117346 268.281298 
L 201.323343 268.281298 
L 201.323343 267.764676 
L 201.527587 267.764676 
L 201.527587 266.731432 
L 201.915842 266.731432 
L 201.915842 266.21481 
L 202.104838 266.21481 
L 202.20431 264.664944 
L 202.3146 264.664944 
L 202.3146 264.148322 
L 202.50254 264.148322 
L 202.50254 263.6317 
L 202.809696 263.6317 
L 202.809696 262.598456 
L 203.457444 262.598456 
L 203.457444 261.565212 
L 203.674653 261.565212 
L 203.674653 261.04859 
L 204.455616 261.04859 
L 204.487846 260.015346 
L 204.781519 260.015346 
L 204.781519 259.498724 
L 205.124419 259.498724 
L 205.16879 258.46548 
L 205.509159 258.46548 
L 205.509159 257.948858 
L 205.782198 257.948858 
L 205.86973 255.88237 
L 206.00127 255.88237 
L 206.098546 254.332504 
L 206.220657 254.332504 
L 206.248034 253.29926 
L 206.446178 253.29926 
L 206.446178 252.266016 
L 206.663766 252.266016 
L 206.676235 250.71615 
L 206.807072 250.71615 
L 206.867069 249.682906 
L 206.960195 249.682906 
L 207.059156 247.616418 
L 207.081798 247.616418 
L 207.099413 246.583173 
L 207.204308 246.583173 
L 207.236046 245.549929 
L 207.320833 245.549929 
L 207.332851 244.000063 
L 207.566244 244.000063 
L 207.640838 240.900331 
L 208.011482 240.900331 
L 208.117333 238.317221 
L 208.261912 238.317221 
L 208.364269 234.700867 
L 208.385519 234.700867 
L 208.495417 231.084513 
L 208.53678 231.084513 
L 208.58025 229.534647 
L 208.675232 229.534647 
L 208.785939 227.468159 
L 208.833344 227.468159 
L 208.833344 226.434915 
L 208.98518 226.434915 
L 208.98518 225.918293 
L 209.096516 225.918293 
L 209.121573 224.368427 
L 209.239586 224.368427 
L 209.332863 221.785317 
L 209.390318 221.785317 
L 209.476154 220.235451 
L 209.523095 220.235451 
L 209.594881 219.202207 
L 209.636797 219.202207 
L 209.636797 218.685585 
L 209.76982 218.685585 
L 209.864846 216.619097 
L 219.730524 216.619097 
L 219.805618 215.585853 
L 219.981628 215.585853 
L 219.981628 215.069231 
L 220.208494 215.069231 
L 220.269549 213.519365 
L 220.495174 213.519365 
L 220.495174 213.002743 
L 220.817719 213.002743 
L 220.905962 211.969498 
L 220.957979 211.969498 
L 221.032583 209.90301 
L 221.159104 209.90301 
L 221.266941 207.3199 
L 221.322528 207.3199 
L 221.381266 205.253412 
L 221.487094 205.253412 
L 221.582058 203.703546 
L 221.621928 203.703546 
L 221.722317 200.603814 
L 221.819189 200.603814 
L 221.885824 199.053948 
L 221.941701 199.053948 
L 221.989564 197.504082 
L 222.118515 197.504082 
L 222.225393 194.920972 
L 222.237228 194.920972 
L 222.253525 192.854484 
L 227.031718 192.854484 
L 227.031718 192.337862 
L 227.507337 192.337862 
L 227.507337 191.82124 
L 228.017606 191.82124 
L 228.017606 191.304618 
L 228.136066 191.304618 
L 228.136066 190.787996 
L 228.481746 190.787996 
L 228.481746 190.271374 
L 229.013373 190.271374 
L 229.081023 188.204886 
L 229.247179 188.204886 
L 229.247179 187.688264 
L 229.409683 187.688264 
L 229.49957 186.65502 
L 233.275029 186.65502 
L 233.358719 185.621776 
L 233.540726 185.621776 
L 233.627764 183.555288 
L 233.78301 183.555288 
L 233.78301 183.038666 
L 234.353153 183.038666 
L 234.461872 179.938934 
L 234.557548 179.938934 
L 234.575119 178.90569 
L 237.688777 178.90569 
L 237.753675 177.872445 
L 237.822466 177.872445 
L 237.879274 176.839201 
L 237.945341 176.839201 
L 237.945341 175.805957 
L 238.261538 175.805957 
L 238.368565 173.222847 
L 238.485239 173.222847 
L 238.582616 171.672981 
L 238.61312 171.672981 
L 238.61312 171.156359 
L 241.160378 171.156359 
L 241.264237 170.123115 
L 241.384319 170.123115 
L 241.384319 168.056627 
L 241.693165 168.056627 
L 241.782628 165.990139 
L 241.830709 165.990139 
L 241.87357 164.440273 
L 244.068873 164.440273 
L 244.155585 162.890407 
L 244.287934 162.890407 
L 244.379529 161.857163 
L 244.509888 161.857163 
L 244.509888 160.823919 
L 244.632466 160.823919 
L 244.640498 159.790675 
L 246.397217 159.790675 
L 246.397217 159.274053 
L 246.527415 159.274053 
L 246.527415 158.240809 
L 246.651684 158.240809 
L 246.688402 156.690943 
L 246.864888 156.690943 
L 246.864888 156.174321 
L 248.857623 156.174321 
L 248.857623 155.657699 
L 248.970646 155.657699 
L 249.02973 154.107833 
L 250.643485 154.107833 
L 250.643485 153.074589 
L 250.767844 153.074589 
L 250.869441 151.524723 
L 250.899532 151.524723 
L 250.952224 150.491479 
L 252.324879 150.491479 
L 252.355347 149.458235 
L 252.599534 149.458235 
L 252.688563 148.424991 
L 253.886425 148.424991 
L 253.990502 147.391747 
L 254.195688 147.391747 
L 254.26557 145.841881 
L 255.417767 145.841881 
L 255.417767 145.325259 
L 255.614105 145.325259 
L 255.654591 144.292014 
L 256.78542 144.292014 
L 256.812969 143.25877 
L 258.09537 143.25877 
L 258.09537 142.742148 
L 259.258854 142.742148 
L 259.331581 141.192282 
L 260.24279 141.192282 
L 260.320077 140.159038 
L 260.459258 140.159038 
L 260.491144 138.09255 
L 262.288953 138.09255 
L 262.353869 136.542684 
L 263.184895 136.542684 
L 263.184895 136.026062 
L 263.327398 136.026062 
L 263.368669 134.476196 
L 264.184722 134.476196 
L 264.216916 132.92633 
L 264.991103 132.92633 
L 265.019906 131.893086 
L 266.609717 131.893086 
L 266.609717 131.376464 
L 267.28869 131.376464 
L 267.335125 130.34322 
L 268.075499 130.34322 
L 268.075499 129.309976 
L 268.637419 129.309976 
L 268.694583 127.76011 
L 269.270509 127.76011 
L 269.270509 127.243488 
L 269.400547 127.243488 
L 269.400547 126.726866 
L 269.994273 126.726866 
L 270.017485 125.177 
L 270.512746 125.177 
L 270.512746 124.660378 
L 271.111744 124.660378 
L 271.188809 123.110512 
L 272.755036 123.110512 
L 272.772802 122.077268 
L 273.900212 122.077268 
L 273.900212 121.560646 
L 274.367212 121.560646 
L 274.367212 121.044024 
L 274.860143 121.044024 
L 274.860143 120.527402 
L 275.30913 120.527402 
L 275.316707 119.494158 
L 275.693003 119.494158 
L 275.693003 118.977536 
L 276.626 118.977536 
L 276.642018 117.944292 
L 276.98532 117.944292 
L 276.98532 117.42767 
L 277.887817 117.42767 
L 277.887817 116.911048 
L 278.268803 116.911048 
L 278.268803 116.394426 
L 278.659825 116.394426 
L 278.659825 115.877804 
L 279.036151 115.877804 
L 279.036151 115.361182 
L 279.749262 115.361182 
L 279.770591 114.327938 
L 281.795735 114.327938 
L 281.795735 113.811316 
L 282.366254 113.811316 
L 282.366254 113.294694 
L 285.518215 113.294694 
L 285.518215 112.778072 
L 285.73634 112.778072 
L 285.73634 112.26145 
L 358.8 112.26145 
L 358.8 112.26145 
" style="fill:none;stroke:#000080;stroke-linecap:square;stroke-width:1.5;"/>
   </g>
   <g id="line2d_25">
    <defs>
     <path d="M 0 6 
C 1.591219 6 3.117479 5.367802 4.242641 4.242641 
C 5.367802 3.117479 6 1.591219 6 0 
C 6 -1.591219 5.367802 -3.117479 4.242641 -4.242641 
C 3.117479 -5.367802 1.591219 -6 0 -6 
C -1.591219 -6 -3.117479 -5.367802 -4.242641 -4.242641 
C -5.367802 -3.117479 -6 -1.591219 -6 0 
C -6 1.591219 -5.367802 3.117479 -4.242641 4.242641 
C -3.117479 5.367802 -1.591219 6 0 6 
z
" id="mdec3c21a0f" style="stroke:#000080;stroke-width:1.5;"/>
    </defs>
    <g>
     <use style="fill:none;stroke:#000080;stroke-width:1.5;" x="207.582541" xlink:href="#mdec3c21a0f" y="243.483441"/>
     <use style="fill:none;stroke:#000080;stroke-width:1.5;" x="238.368565" xlink:href="#mdec3c21a0f" y="173.222847"/>
     <use style="fill:none;stroke:#000080;stroke-width:1.5;" x="285.73634" xlink:href="#mdec3c21a0f" y="112.26145"/>
     <use style="fill:none;stroke:#000080;stroke-width:1.5;" x="285.73634" xlink:href="#mdec3c21a0f" y="112.26145"/>
     <use style="fill:none;stroke:#000080;stroke-width:1.5;" x="358.8" xlink:href="#mdec3c21a0f" y="112.26145"/>
    </g>
   </g>
   <g id="line2d_26"/>
   <g id="line2d_27">
    <path clip-path="url(#paea8a33b02)" d="M 209.871734 216.619097 
" style="fill:none;stroke:#000080;stroke-linecap:square;stroke-width:1.5;"/>
    <defs>
     <path d="M -12 12 
L 12 -12 
M -12 -12 
L 12 12 
" id="m0d30c53c51" style="stroke:#000080;stroke-width:3;"/>
    </defs>
    <g clip-path="url(#paea8a33b02)">
     <use style="fill:#000080;stroke:#000080;stroke-width:3;" x="209.871734" xlink:href="#m0d30c53c51" y="216.619097"/>
    </g>
   </g>
   <g id="line2d_28">
    <defs>
     <path d="M 0 1.5 
C 0.397805 1.5 0.77937 1.341951 1.06066 1.06066 
C 1.341951 0.77937 1.5 0.397805 1.5 0 
C 1.5 -0.397805 1.341951 -0.77937 1.06066 -1.06066 
C 0.77937 -1.341951 0.397805 -1.5 0 -1.5 
C -0.397805 -1.5 -0.77937 -1.341951 -1.06066 -1.06066 
C -1.341951 -0.77937 -1.5 -0.397805 -1.5 0 
C -1.5 0.397805 -1.341951 0.77937 -1.06066 1.06066 
C -0.77937 1.341951 -0.397805 1.5 0 1.5 
z
" id="m03ee86b3e0" style="stroke:#ff00ff;"/>
    </defs>
    <g>
     <use style="fill:#ff00ff;stroke:#ff00ff;" x="282.703471" xlink:href="#m03ee86b3e0" y="215.585853"/>
     <use style="fill:#ff00ff;stroke:#ff00ff;" x="282.703471" xlink:href="#m03ee86b3e0" y="215.585853"/>
    </g>
   </g>
   <g id="line2d_29">
    <path d="M 113.564467 298.245375 
L 113.564467 297.728753 
L 123.127198 297.728753 
L 123.127198 297.212131 
L 123.921467 297.212131 
L 123.921467 296.695509 
L 125.263581 296.695509 
L 125.263581 295.145643 
L 125.867924 295.145643 
L 125.867924 294.629021 
L 127.228648 294.629021 
L 127.228648 294.112399 
L 127.54857 294.112399 
L 127.54857 293.595777 
L 129.152967 293.595777 
L 129.152967 293.079155 
L 130.034496 293.079155 
L 130.034496 292.562533 
L 130.403917 292.562533 
L 130.403917 292.045911 
L 132.628186 292.045911 
L 132.628186 291.529289 
L 133.126477 291.529289 
L 133.126477 291.012667 
L 134.605972 291.012667 
L 134.605972 289.462801 
L 135.392591 289.462801 
L 135.392591 288.946179 
L 139.132751 288.946179 
L 139.132751 288.429557 
L 140.691544 288.429557 
L 140.691544 287.912935 
L 172.887742 287.912935 
L 172.887742 287.396313 
L 175.169051 287.396313 
L 175.169051 285.329825 
L 175.502107 285.329825 
L 175.502107 284.813203 
L 175.86406 284.813203 
L 175.86406 284.296581 
L 183.967741 284.296581 
L 183.967741 283.263337 
L 186.641596 283.263337 
L 186.641596 282.230093 
L 191.654268 282.230093 
L 191.654268 281.713471 
L 196.605031 281.713471 
L 196.605031 281.196849 
L 196.851267 281.196849 
L 196.851267 280.680226 
L 197.08007 280.680226 
L 197.122291 279.646982 
L 201.018338 279.646982 
L 201.018338 279.13036 
L 202.074053 279.13036 
L 202.074053 278.613738 
L 202.443122 278.613738 
L 202.523332 277.580494 
L 202.577166 277.580494 
L 202.577166 277.063872 
L 202.77235 277.063872 
L 202.867083 276.030628 
L 203.453446 276.030628 
L 203.453446 275.514006 
L 204.468968 275.514006 
L 204.468968 274.997384 
L 205.512485 274.997384 
L 205.512485 274.480762 
L 205.71468 274.480762 
L 205.71468 273.96414 
L 205.938753 273.96414 
L 205.938753 273.447518 
L 206.124275 273.447518 
L 206.207867 270.864408 
L 206.255784 270.864408 
L 206.280832 269.831164 
L 206.487164 269.831164 
L 206.564601 268.79792 
L 206.613806 268.79792 
L 206.613806 268.281298 
L 206.882037 268.281298 
L 206.882037 267.248054 
L 207.922861 267.248054 
L 207.922861 266.731432 
L 208.117743 266.731432 
L 208.117743 266.21481 
L 208.257838 266.21481 
L 208.257838 265.698188 
L 208.522735 265.698188 
L 208.522735 265.181566 
L 209.498785 265.181566 
L 209.498785 264.664944 
L 210.14143 264.664944 
L 210.14143 264.148322 
L 212.354744 264.148322 
L 212.354744 263.115078 
L 212.474529 263.115078 
L 212.474529 262.598456 
L 215.374067 262.598456 
L 215.374067 262.081834 
L 215.499204 262.081834 
L 215.499204 261.565212 
L 216.98218 261.565212 
L 216.996052 260.015346 
L 218.112476 260.015346 
L 218.112476 259.498724 
L 218.373093 259.498724 
L 218.373093 258.982102 
L 219.334472 258.982102 
L 219.334472 258.46548 
L 219.759016 258.46548 
L 219.759016 257.432236 
L 220.209955 257.432236 
L 220.209955 256.915614 
L 220.470199 256.915614 
L 220.572855 251.232772 
L 220.60024 251.232772 
L 220.702154 249.682906 
L 220.782886 249.682906 
L 220.824577 248.649662 
L 221.401487 248.649662 
L 221.468236 247.099796 
L 224.239075 247.099796 
L 224.239075 246.583173 
L 226.848265 246.583173 
L 226.848265 246.066551 
L 227.008551 246.066551 
L 227.008551 245.549929 
L 227.433795 245.549929 
L 227.45767 244.516685 
L 227.875946 244.516685 
L 227.875946 242.966819 
L 228.347174 242.966819 
L 228.437221 240.900331 
L 228.46558 240.900331 
L 228.51115 239.867087 
L 228.875566 239.867087 
L 228.875566 238.833843 
L 233.153156 238.833843 
L 233.153156 238.317221 
L 233.81998 238.317221 
L 233.870677 236.250733 
L 235.660726 236.250733 
L 235.660726 235.734111 
L 236.70666 235.734111 
L 236.70666 235.217489 
L 237.431104 235.217489 
L 237.448213 234.184245 
L 237.945534 234.184245 
L 238.054233 231.601135 
L 238.256218 231.601135 
L 238.31803 230.567891 
L 239.181132 230.567891 
L 239.181132 230.051269 
L 240.908315 230.051269 
L 240.908315 229.534647 
L 241.376692 229.534647 
L 241.422279 228.501403 
L 243.962692 228.501403 
L 243.962692 227.984781 
L 244.204698 227.984781 
L 244.243809 226.951537 
L 244.454892 226.951537 
L 244.454892 226.434915 
L 245.850204 226.434915 
L 245.850204 225.918293 
L 248.606294 225.918293 
L 248.606294 225.401671 
L 248.793351 225.401671 
L 248.793351 224.885049 
L 250.701805 224.885049 
L 250.701805 224.368427 
L 250.859606 224.368427 
L 250.859606 223.851805 
L 251.664091 223.851805 
L 251.664091 223.335183 
L 254.041435 223.335183 
L 254.117805 221.785317 
L 255.559952 221.785317 
L 255.583446 220.752073 
L 258.075009 220.752073 
L 258.135973 219.718829 
L 259.239777 219.718829 
L 259.315962 218.168963 
L 260.320597 218.168963 
L 260.320597 217.652341 
L 263.322501 217.652341 
L 263.322501 217.135719 
L 264.140037 217.135719 
L 264.140037 216.619097 
L 265.018716 216.619097 
L 265.018716 216.102475 
L 282.703471 216.102475 
L 282.703471 215.585853 
L 358.8 215.585853 
L 358.8 215.585853 
" style="fill:none;stroke:#ff00ff;stroke-linecap:square;stroke-width:1.5;"/>
   </g>
   <g id="line2d_30">
    <defs>
     <path d="M -0 8.485281 
L 5.091169 0 
L 0 -8.485281 
L -5.091169 -0 
z
" id="m9eeb29f824" style="stroke:#ff00ff;stroke-linejoin:miter;stroke-width:1.5;"/>
    </defs>
    <g>
     <use style="fill:none;stroke:#ff00ff;stroke-linejoin:miter;stroke-width:1.5;" x="202.77235" xlink:href="#m9eeb29f824" y="276.54725"/>
     <use style="fill:none;stroke:#ff00ff;stroke-linejoin:miter;stroke-width:1.5;" x="235.660726" xlink:href="#m9eeb29f824" y="235.734111"/>
     <use style="fill:none;stroke:#ff00ff;stroke-linejoin:miter;stroke-width:1.5;" x="282.703471" xlink:href="#m9eeb29f824" y="216.102475"/>
     <use style="fill:none;stroke:#ff00ff;stroke-linejoin:miter;stroke-width:1.5;" x="282.703471" xlink:href="#m9eeb29f824" y="215.585853"/>
     <use style="fill:none;stroke:#ff00ff;stroke-linejoin:miter;stroke-width:1.5;" x="358.8" xlink:href="#m9eeb29f824" y="215.585853"/>
    </g>
   </g>
   <g id="line2d_31"/>
   <g id="line2d_32">
    <path clip-path="url(#paea8a33b02)" d="M 209.871734 264.664944 
" style="fill:none;stroke:#ff00ff;stroke-linecap:square;stroke-width:1.5;"/>
    <defs>
     <path d="M -12 12 
L 12 -12 
M -12 -12 
L 12 12 
" id="md45aca7527" style="stroke:#ff00ff;stroke-width:3;"/>
    </defs>
    <g clip-path="url(#paea8a33b02)">
     <use style="fill:#ff00ff;stroke:#ff00ff;stroke-width:3;" x="209.871734" xlink:href="#md45aca7527" y="264.664944"/>
    </g>
   </g>
   <g id="line2d_33">
    <defs>
     <path d="M 0 1.5 
C 0.397805 1.5 0.77937 1.341951 1.06066 1.06066 
C 1.341951 0.77937 1.5 0.397805 1.5 0 
C 1.5 -0.397805 1.341951 -0.77937 1.06066 -1.06066 
C 0.77937 -1.341951 0.397805 -1.5 0 -1.5 
C -0.397805 -1.5 -0.77937 -1.341951 -1.06066 -1.06066 
C -1.341951 -0.77937 -1.5 -0.397805 -1.5 0 
C -1.5 0.397805 -1.341951 0.77937 -1.06066 1.06066 
C -0.77937 1.341951 -0.397805 1.5 0 1.5 
z
" id="mcd1b297491" style="stroke:#ffa500;"/>
    </defs>
    <g>
     <use style="fill:#ffa500;stroke:#ffa500;" x="218.679259" xlink:href="#mcd1b297491" y="34.768147"/>
     <use style="fill:#ffa500;stroke:#ffa500;" x="218.679259" xlink:href="#mcd1b297491" y="34.768147"/>
    </g>
   </g>
   <g id="line2d_34">
    <path d="M 135.94898 298.245375 
L 135.94898 297.728753 
L 137.306421 297.728753 
L 137.306421 296.695509 
L 137.98477 296.695509 
L 137.98477 296.178887 
L 139.765147 296.178887 
L 139.765147 295.662265 
L 140.11012 295.662265 
L 140.11012 295.145643 
L 140.34861 295.145643 
L 140.34861 294.629021 
L 140.511873 294.629021 
L 140.511873 293.595777 
L 141.297897 293.595777 
L 141.297897 293.079155 
L 141.665619 293.079155 
L 141.665619 292.045911 
L 142.199284 292.045911 
L 142.199284 291.529289 
L 143.861174 291.529289 
L 143.861174 291.012667 
L 143.980544 291.012667 
L 144.039931 289.979423 
L 144.158117 289.979423 
L 144.158117 289.462801 
L 144.275526 289.462801 
L 144.275526 288.946179 
L 144.957187 288.946179 
L 144.957187 288.429557 
L 145.125359 288.429557 
L 145.125359 287.912935 
L 145.755741 287.912935 
L 145.755741 287.396313 
L 146.468449 287.396313 
L 146.468449 286.879691 
L 146.966058 286.879691 
L 146.997488 284.813203 
L 147.14136 284.813203 
L 147.14136 284.296581 
L 147.327294 284.296581 
L 147.327294 283.779959 
L 147.777825 283.779959 
L 147.777825 283.263337 
L 148.800141 283.263337 
L 148.800141 281.713471 
L 149.734815 281.713471 
L 149.734815 280.163604 
L 149.847616 280.163604 
L 149.847616 279.646982 
L 150.380402 279.646982 
L 150.447839 277.580494 
L 151.346481 277.580494 
L 151.346481 277.063872 
L 152.532253 277.063872 
L 152.532253 276.030628 
L 153.334133 276.030628 
L 153.386919 274.480762 
L 153.919173 274.480762 
L 153.919173 273.96414 
L 154.067774 273.96414 
L 154.152137 272.930896 
L 154.402863 272.930896 
L 154.427743 271.38103 
L 154.829291 271.38103 
L 154.829291 270.347786 
L 155.434778 270.347786 
L 155.434778 269.831164 
L 156.242665 269.831164 
L 156.265112 268.281298 
L 156.791929 268.281298 
L 156.791929 267.764676 
L 157.105003 267.764676 
L 157.105003 267.248054 
L 157.869624 267.248054 
L 157.869624 266.731432 
L 158.002423 266.731432 
L 158.005815 265.181566 
L 158.248372 265.181566 
L 158.348474 262.081834 
L 158.378395 262.081834 
L 158.378395 261.04859 
L 159.250342 261.04859 
L 159.250342 260.531968 
L 159.641482 260.531968 
L 159.663134 258.982102 
L 159.795571 258.982102 
L 159.795571 258.46548 
L 160.452295 258.46548 
L 160.452295 257.948858 
L 160.640599 257.948858 
L 160.640599 257.432236 
L 160.928028 257.432236 
L 160.928028 256.915614 
L 161.2024 256.915614 
L 161.312671 254.849126 
L 161.581244 254.849126 
L 161.581244 254.332504 
L 162.138899 254.332504 
L 162.171166 252.782638 
L 162.770833 252.782638 
L 162.809758 251.232772 
L 163.22737 251.232772 
L 163.252676 249.166284 
L 163.483819 249.166284 
L 163.483819 248.649662 
L 163.97622 248.649662 
L 163.97622 248.13304 
L 164.094817 248.13304 
L 164.102052 247.099796 
L 164.391469 247.099796 
L 164.391469 246.066551 
L 165.000231 246.066551 
L 165.000231 245.549929 
L 165.153215 245.549929 
L 165.153215 245.033307 
L 165.293624 245.033307 
L 165.293624 244.516685 
L 166.210364 244.516685 
L 166.210364 244.000063 
L 166.512104 244.000063 
L 166.619244 242.450197 
L 166.723663 242.450197 
L 166.723663 241.933575 
L 167.043537 241.933575 
L 167.043537 240.900331 
L 167.345723 240.900331 
L 167.373856 239.350465 
L 167.845452 239.350465 
L 167.845452 238.317221 
L 168.384792 238.317221 
L 168.483187 236.250733 
L 168.55475 236.250733 
L 168.55475 235.217489 
L 168.734274 235.217489 
L 168.734274 234.700867 
L 169.361354 234.700867 
L 169.422331 232.634379 
L 169.766335 232.634379 
L 169.766335 232.117757 
L 169.963697 232.117757 
L 169.963697 231.601135 
L 170.553119 231.601135 
L 170.553119 230.567891 
L 170.698736 230.567891 
L 170.698736 229.534647 
L 171.081344 229.534647 
L 171.17086 227.984781 
L 171.287371 227.984781 
L 171.287371 227.468159 
L 171.727086 227.468159 
L 171.836909 225.401671 
L 172.235954 225.401671 
L 172.280256 223.335183 
L 172.75749 223.335183 
L 172.75749 222.301939 
L 173.353538 222.301939 
L 173.353538 220.752073 
L 173.55925 220.752073 
L 173.642855 219.718829 
L 173.683806 219.718829 
L 173.737325 217.652341 
L 174.128181 217.652341 
L 174.195471 215.585853 
L 174.579221 215.585853 
L 174.659534 214.552609 
L 174.763403 214.552609 
L 174.763403 214.035987 
L 175.146972 214.035987 
L 175.219601 211.969498 
L 175.634116 211.969498 
L 175.634116 211.452876 
L 175.780216 211.452876 
L 175.866556 210.419632 
L 176.016965 210.419632 
L 176.104636 209.386388 
L 176.198007 209.386388 
L 176.198007 208.869766 
L 176.33229 208.869766 
L 176.394207 207.3199 
L 177.300417 207.3199 
L 177.300417 205.770034 
L 177.481518 205.770034 
L 177.481518 204.73679 
L 177.905252 204.73679 
L 177.905252 203.703546 
L 178.264677 203.703546 
L 178.346354 200.603814 
L 178.502135 200.603814 
L 178.502135 199.57057 
L 178.79591 199.57057 
L 178.821321 196.98746 
L 179.011807 196.98746 
L 179.011807 196.470838 
L 179.147378 196.470838 
L 179.147378 195.954216 
L 179.372435 195.954216 
L 179.459425 193.887728 
L 179.864194 193.887728 
L 179.864194 193.371106 
L 180.096225 193.371106 
L 180.150327 190.271374 
L 180.412604 190.271374 
L 180.412604 189.754752 
L 180.671086 189.754752 
L 180.733938 187.688264 
L 180.934345 187.688264 
L 180.934345 187.171642 
L 181.653827 187.171642 
L 181.712422 185.105154 
L 181.773515 185.105154 
L 181.827249 184.07191 
L 182.084706 184.07191 
L 182.142785 182.522044 
L 182.209431 182.522044 
L 182.209431 182.005422 
L 182.357614 182.005422 
L 182.357614 181.4888 
L 182.593893 181.4888 
L 182.614441 179.422312 
L 182.730435 179.422312 
L 182.730435 178.90569 
L 182.861722 178.90569 
L 182.861722 178.389067 
L 183.058114 178.389067 
L 183.151355 176.322579 
L 183.274649 176.322579 
L 183.301018 174.256091 
L 183.491851 174.256091 
L 183.578809 172.189603 
L 183.744237 172.189603 
L 183.815583 169.606493 
L 183.857136 169.606493 
L 183.865116 168.573249 
L 184.188484 168.573249 
L 184.275243 167.540005 
L 184.332849 167.540005 
L 184.383297 166.506761 
L 184.455229 166.506761 
L 184.506872 165.473517 
L 184.687599 165.473517 
L 184.779556 163.923651 
L 184.844628 163.923651 
L 184.844628 163.407029 
L 184.968814 163.407029 
L 185.042914 162.373785 
L 185.099591 162.373785 
L 185.099591 161.857163 
L 185.359041 161.857163 
L 185.42862 160.307297 
L 185.572771 160.307297 
L 185.6032 158.757431 
L 185.707135 158.757431 
L 185.712891 157.207565 
L 185.933828 157.207565 
L 186.022433 155.657699 
L 186.208136 155.657699 
L 186.26124 153.591211 
L 186.454846 153.591211 
L 186.479675 151.008101 
L 186.87367 151.008101 
L 186.911385 146.875125 
L 187.012686 146.875125 
L 187.012686 146.358503 
L 187.271038 146.358503 
L 187.345391 144.808637 
L 187.457975 144.808637 
L 187.524407 143.775392 
L 187.60613 143.775392 
L 187.60613 143.25877 
L 188.004801 143.25877 
L 188.037678 142.225526 
L 188.166704 142.225526 
L 188.175482 141.192282 
L 188.547056 141.192282 
L 188.641961 138.09255 
L 188.658441 138.09255 
L 188.658441 137.575928 
L 188.867697 137.575928 
L 188.909857 134.476196 
L 188.979505 134.476196 
L 189.067973 132.92633 
L 189.101333 132.92633 
L 189.183278 131.893086 
L 189.26367 131.893086 
L 189.350158 130.34322 
L 189.773566 130.34322 
L 189.786171 129.309976 
L 189.908329 129.309976 
L 189.908329 128.276732 
L 190.027963 128.276732 
L 190.108026 126.726866 
L 190.166437 126.726866 
L 190.166437 126.210244 
L 190.278232 126.210244 
L 190.324422 124.660378 
L 190.456765 124.660378 
L 190.456765 123.627134 
L 190.716914 123.627134 
L 190.810189 122.59389 
L 190.861499 122.59389 
L 190.952952 121.044024 
L 190.983511 121.044024 
L 190.983511 120.527402 
L 191.222948 120.527402 
L 191.289419 119.494158 
L 191.336222 119.494158 
L 191.336222 118.977536 
L 191.449827 118.977536 
L 191.449827 118.460914 
L 191.739194 118.460914 
L 191.769976 117.42767 
L 192.147837 117.42767 
L 192.246433 114.84456 
L 192.338531 114.84456 
L 192.353421 113.811316 
L 192.454346 113.811316 
L 192.467168 112.26145 
L 192.703706 112.26145 
L 192.813801 110.711584 
L 192.83796 110.711584 
L 192.83796 110.194961 
L 193.094915 110.194961 
L 193.101577 108.128473 
L 193.235247 108.128473 
L 193.235247 107.611851 
L 193.423619 107.611851 
L 193.529379 106.061985 
L 193.616498 106.061985 
L 193.715611 105.028741 
L 193.855276 105.028741 
L 193.93038 103.478875 
L 193.997478 103.478875 
L 194.058013 101.929009 
L 194.25803 101.929009 
L 194.334128 100.895765 
L 194.401057 100.895765 
L 194.401057 100.379143 
L 194.585472 100.379143 
L 194.585472 99.862521 
L 194.778403 99.862521 
L 194.778403 99.345899 
L 194.914762 99.345899 
L 195.01165 97.279411 
L 195.06544 97.279411 
L 195.06544 96.762789 
L 195.210208 96.762789 
L 195.210208 95.212923 
L 195.349198 95.212923 
L 195.404911 93.663057 
L 195.715459 93.663057 
L 195.750363 91.596569 
L 195.867714 91.596569 
L 195.952284 90.046703 
L 196.034032 90.046703 
L 196.034032 89.013459 
L 196.1772 89.013459 
L 196.224003 86.946971 
L 196.320024 86.946971 
L 196.320024 86.430349 
L 196.525073 86.430349 
L 196.525073 85.913727 
L 196.649948 85.913727 
L 196.693585 84.880483 
L 196.795249 84.880483 
L 196.900571 82.297373 
L 197.004892 82.297373 
L 197.004892 81.780751 
L 197.157209 81.780751 
L 197.157209 81.264129 
L 197.350673 81.264129 
L 197.353673 79.197641 
L 197.557644 79.197641 
L 197.557644 78.681019 
L 197.691729 78.681019 
L 197.707546 77.647775 
L 198.104959 77.647775 
L 198.184967 76.097908 
L 198.80035 76.097908 
L 198.80035 75.064664 
L 198.985803 75.064664 
L 198.985803 74.548042 
L 199.368796 74.548042 
L 199.434008 71.44831 
L 199.556761 71.44831 
L 199.556761 70.931688 
L 199.709601 70.931688 
L 199.730953 69.898444 
L 200.051122 69.898444 
L 200.051122 69.381822 
L 200.177088 69.381822 
L 200.217069 67.315334 
L 200.292948 67.315334 
L 200.292948 66.798712 
L 200.8597 66.798712 
L 200.8597 66.28209 
L 200.981949 66.28209 
L 200.981949 64.732224 
L 201.170129 64.732224 
L 201.170129 64.215602 
L 201.380312 64.215602 
L 201.380312 63.69898 
L 201.514816 63.69898 
L 201.514816 63.182358 
L 201.768524 63.182358 
L 201.85327 60.599248 
L 202.204882 60.599248 
L 202.204882 59.566004 
L 202.546624 59.566004 
L 202.603183 57.499516 
L 202.762655 57.499516 
L 202.808314 55.94965 
L 203.009203 55.94965 
L 203.116007 54.399784 
L 203.147491 54.399784 
L 203.147491 53.883162 
L 203.552069 53.883162 
L 203.586234 52.333296 
L 203.688076 52.333296 
L 203.776779 49.750186 
L 203.933942 49.750186 
L 203.989904 48.716942 
L 204.148032 48.716942 
L 204.148032 48.20032 
L 204.432667 48.20032 
L 204.432667 47.167076 
L 204.604445 47.167076 
L 204.604445 46.650454 
L 204.960775 46.650454 
L 204.960775 45.61721 
L 205.143102 45.61721 
L 205.205319 44.583966 
L 205.429148 44.583966 
L 205.454905 43.550722 
L 208.101721 43.550722 
L 208.101721 43.0341 
L 208.480534 43.0341 
L 208.480534 42.517478 
L 208.708437 42.517478 
L 208.708437 41.484233 
L 208.923855 41.484233 
L 208.923855 40.450989 
L 209.297725 40.450989 
L 209.297725 39.417745 
L 209.506385 39.417745 
L 209.554004 38.384501 
L 214.776945 38.384501 
L 214.776945 37.867879 
L 216.027606 37.867879 
L 216.048299 36.834635 
L 216.755968 36.834635 
L 216.755968 36.318013 
L 218.137338 36.318013 
L 218.137338 35.801391 
L 218.597441 35.801391 
L 218.679259 34.768147 
L 358.8 34.768147 
L 358.8 34.768147 
" style="fill:none;stroke:#ffa500;stroke-linecap:square;stroke-width:1.5;"/>
   </g>
   <g id="line2d_35">
    <defs>
     <path d="M 0 -6 
L -1.347084 -1.854102 
L -5.706339 -1.854102 
L -2.179628 0.708204 
L -3.526712 4.854102 
L -0 2.291796 
L 3.526712 4.854102 
L 2.179628 0.708204 
L 5.706339 -1.854102 
L 1.347084 -1.854102 
z
" id="mbff450048c" style="stroke:#ffa500;stroke-linejoin:bevel;stroke-width:1.5;"/>
    </defs>
    <g>
     <use style="fill:none;stroke:#ffa500;stroke-linejoin:bevel;stroke-width:1.5;" x="165.293624" xlink:href="#mbff450048c" y="244.516685"/>
     <use style="fill:none;stroke:#ffa500;stroke-linejoin:bevel;stroke-width:1.5;" x="192.246433" xlink:href="#mbff450048c" y="115.877804"/>
     <use style="fill:none;stroke:#ffa500;stroke-linejoin:bevel;stroke-width:1.5;" x="218.679259" xlink:href="#mbff450048c" y="35.284769"/>
     <use style="fill:none;stroke:#ffa500;stroke-linejoin:bevel;stroke-width:1.5;" x="218.679259" xlink:href="#mbff450048c" y="34.768147"/>
     <use style="fill:none;stroke:#ffa500;stroke-linejoin:bevel;stroke-width:1.5;" x="358.8" xlink:href="#mbff450048c" y="34.768147"/>
    </g>
   </g>
   <g id="line2d_36"/>
   <g id="line2d_37">
    <path clip-path="url(#paea8a33b02)" d="M 209.871734 38.384501 
" style="fill:none;stroke:#ffa500;stroke-linecap:square;stroke-width:1.5;"/>
    <defs>
     <path d="M -12 12 
L 12 -12 
M -12 -12 
L 12 12 
" id="m4b0cdaf9aa" style="stroke:#ffa500;stroke-width:3;"/>
    </defs>
    <g clip-path="url(#paea8a33b02)">
     <use style="fill:#ffa500;stroke:#ffa500;stroke-width:3;" x="209.871734" xlink:href="#m4b0cdaf9aa" y="38.384501"/>
    </g>
   </g>
   <g id="line2d_38">
    <defs>
     <path d="M 0 1.5 
C 0.397805 1.5 0.77937 1.341951 1.06066 1.06066 
C 1.341951 0.77937 1.5 0.397805 1.5 0 
C 1.5 -0.397805 1.341951 -0.77937 1.06066 -1.06066 
C 0.77937 -1.341951 0.397805 -1.5 0 -1.5 
C -0.397805 -1.5 -0.77937 -1.341951 -1.06066 -1.06066 
C -1.341951 -0.77937 -1.5 -0.397805 -1.5 0 
C -1.5 0.397805 -1.341951 0.77937 -1.06066 1.06066 
C -0.77937 1.341951 -0.397805 1.5 0 1.5 
z
" id="ma02000be13" style="stroke:#6495ed;"/>
    </defs>
    <g>
     <use style="fill:#6495ed;stroke:#6495ed;" x="252.749167" xlink:href="#ma02000be13" y="277.580494"/>
     <use style="fill:#6495ed;stroke:#6495ed;" x="252.749167" xlink:href="#ma02000be13" y="277.580494"/>
    </g>
   </g>
   <g id="line2d_39">
    <path d="M 117.072023 298.245375 
L 117.072023 297.212131 
L 121.212725 297.212131 
L 121.212725 296.178887 
L 121.424184 296.178887 
L 121.424184 295.662265 
L 122.19559 295.662265 
L 122.19559 295.145643 
L 122.569153 295.145643 
L 122.569153 294.112399 
L 124.94278 294.112399 
L 124.94278 293.079155 
L 125.028891 293.079155 
L 125.028891 292.045911 
L 125.135951 292.045911 
L 125.135951 291.529289 
L 125.578723 291.529289 
L 125.578723 291.012667 
L 125.744554 291.012667 
L 125.744554 290.496045 
L 127.076091 290.496045 
L 127.076091 289.979423 
L 133.303055 289.979423 
L 133.303055 289.462801 
L 133.756788 289.462801 
L 133.756788 288.946179 
L 136.431932 288.946179 
L 136.431932 287.396313 
L 138.406183 287.396313 
L 138.406183 286.879691 
L 140.754004 286.879691 
L 140.754004 286.363069 
L 145.415904 286.363069 
L 145.415904 285.846447 
L 149.615874 285.846447 
L 149.615874 285.329825 
L 189.671821 285.329825 
L 189.671821 284.813203 
L 210.185011 284.813203 
L 210.185011 284.296581 
L 210.196164 284.296581 
L 210.196164 283.779959 
L 222.408204 283.779959 
L 222.408204 283.263337 
L 222.486928 283.263337 
L 222.486928 282.746715 
L 222.560915 282.746715 
L 222.560915 282.230093 
L 229.582585 282.230093 
L 229.582585 281.713471 
L 229.617323 281.713471 
L 229.617323 281.196849 
L 234.757552 281.196849 
L 234.757552 280.680226 
L 238.721697 280.680226 
L 238.721697 279.646982 
L 241.927505 279.646982 
L 241.927505 279.13036 
L 241.964083 279.13036 
L 241.964083 278.613738 
L 247.085205 278.613738 
L 247.085205 278.097116 
L 252.749167 278.097116 
L 252.749167 277.580494 
L 358.8 277.580494 
" style="fill:none;stroke:#6495ed;stroke-linecap:square;stroke-width:1.5;"/>
   </g>
   <g id="line2d_40">
    <defs>
     <path d="M -0 6 
L 6 -6 
L -6 -6 
z
" id="m6c31343d03" style="stroke:#6495ed;stroke-linejoin:miter;stroke-width:1.5;"/>
    </defs>
    <g>
     <use style="fill:none;stroke:#6495ed;stroke-linejoin:miter;stroke-width:1.5;" x="138.406183" xlink:href="#m6c31343d03" y="286.879691"/>
     <use style="fill:none;stroke:#6495ed;stroke-linejoin:miter;stroke-width:1.5;" x="210.196164" xlink:href="#m6c31343d03" y="284.296581"/>
     <use style="fill:none;stroke:#6495ed;stroke-linejoin:miter;stroke-width:1.5;" x="252.749167" xlink:href="#m6c31343d03" y="278.097116"/>
     <use style="fill:none;stroke:#6495ed;stroke-linejoin:miter;stroke-width:1.5;" x="252.749167" xlink:href="#m6c31343d03" y="277.580494"/>
     <use style="fill:none;stroke:#6495ed;stroke-linejoin:miter;stroke-width:1.5;" x="358.8" xlink:href="#m6c31343d03" y="277.580494"/>
    </g>
   </g>
   <g id="line2d_41"/>
   <g id="line2d_42">
    <path clip-path="url(#paea8a33b02)" d="M 209.871734 284.813203 
" style="fill:none;stroke:#6495ed;stroke-linecap:square;stroke-width:1.5;"/>
    <defs>
     <path d="M -12 12 
L 12 -12 
M -12 -12 
L 12 12 
" id="m82484b855a" style="stroke:#6495ed;stroke-width:3;"/>
    </defs>
    <g clip-path="url(#paea8a33b02)">
     <use style="fill:#6495ed;stroke:#6495ed;stroke-width:3;" x="209.871734" xlink:href="#m82484b855a" y="284.813203"/>
    </g>
   </g>
   <g id="line2d_43">
    <path d="M 358.8 277.580494 
L 390.48 292.97583 
" style="fill:none;stroke:#6495ed;stroke-linecap:square;stroke-width:1.5;"/>
    <g>
     <use style="fill:none;stroke:#6495ed;stroke-linejoin:miter;stroke-width:1.5;" x="358.8" xlink:href="#m6c31343d03" y="277.580494"/>
     <use style="fill:none;stroke:#6495ed;stroke-linejoin:miter;stroke-width:1.5;" x="390.48" xlink:href="#m6c31343d03" y="292.97583"/>
    </g>
   </g>
   <g id="line2d_44">
    <path d="M 358.8 215.585853 
L 390.48 208.663118 
" style="fill:none;stroke:#ff00ff;stroke-linecap:square;stroke-width:1.5;"/>
    <g>
     <use style="fill:none;stroke:#ff00ff;stroke-linejoin:miter;stroke-width:1.5;" x="358.8" xlink:href="#m9eeb29f824" y="215.585853"/>
     <use style="fill:none;stroke:#ff00ff;stroke-linejoin:miter;stroke-width:1.5;" x="390.48" xlink:href="#m9eeb29f824" y="208.663118"/>
    </g>
   </g>
   <g id="line2d_45">
    <path d="M 358.8 112.26145 
L 390.48 124.350405 
" style="fill:none;stroke:#000080;stroke-linecap:square;stroke-width:1.5;"/>
    <g>
     <use style="fill:none;stroke:#000080;stroke-width:1.5;" x="358.8" xlink:href="#mdec3c21a0f" y="112.26145"/>
     <use style="fill:none;stroke:#000080;stroke-width:1.5;" x="390.48" xlink:href="#mdec3c21a0f" y="124.350405"/>
    </g>
   </g>
   <g id="line2d_46">
    <path d="M 358.8 34.768147 
L 390.48 40.037692 
" style="fill:none;stroke:#ffa500;stroke-linecap:square;stroke-width:1.5;"/>
    <g>
     <use style="fill:none;stroke:#ffa500;stroke-linejoin:bevel;stroke-width:1.5;" x="358.8" xlink:href="#mbff450048c" y="34.768147"/>
     <use style="fill:none;stroke:#ffa500;stroke-linejoin:bevel;stroke-width:1.5;" x="390.48" xlink:href="#mbff450048c" y="40.037692"/>
    </g>
   </g>
   <g id="line2d_47">
    <path d="M 358.8 298.245375 
L 358.8 34.768147 
" style="fill:none;stroke:#000000;stroke-linecap:square;stroke-width:1.5;"/>
   </g>
   <g id="patch_3">
    <path d="M 70.8 298.245375 
L 70.8 32.133375 
" style="fill:none;stroke:#000000;stroke-linecap:square;stroke-linejoin:miter;stroke-width:0.8;"/>
   </g>
   <g id="patch_4">
    <path d="M 427.92 298.245375 
L 427.92 32.133375 
" style="fill:none;stroke:#000000;stroke-linecap:square;stroke-linejoin:miter;stroke-width:0.8;"/>
   </g>
   <g id="patch_5">
    <path d="M 70.8 298.245375 
L 427.92 298.245375 
" style="fill:none;stroke:#000000;stroke-linecap:square;stroke-linejoin:miter;stroke-width:0.8;"/>
   </g>
   <g id="patch_6">
    <path d="M 70.8 32.133375 
L 427.92 32.133375 
" style="fill:none;stroke:#000000;stroke-linecap:square;stroke-linejoin:miter;stroke-width:0.8;"/>
   </g>
   <g id="text_14">
    <!-- f7 -->
    <defs>
     <path d="M 8.203125 72.90625 
L 55.078125 72.90625 
L 55.078125 68.703125 
L 28.609375 0 
L 18.3125 0 
L 43.21875 64.59375 
L 8.203125 64.59375 
z
" id="DejaVuSans-37"/>
    </defs>
    <g transform="translate(396.24 297.114893)scale(0.15 -0.15)">
     <use xlink:href="#DejaVuSans-66"/>
     <use x="35.205078" xlink:href="#DejaVuSans-37"/>
    </g>
   </g>
   <g id="text_15">
    <!-- f9 -->
    <defs>
     <path d="M 10.984375 1.515625 
L 10.984375 10.5 
Q 14.703125 8.734375 18.5 7.8125 
Q 22.3125 6.890625 25.984375 6.890625 
Q 35.75 6.890625 40.890625 13.453125 
Q 46.046875 20.015625 46.78125 33.40625 
Q 43.953125 29.203125 39.59375 26.953125 
Q 35.25 24.703125 29.984375 24.703125 
Q 19.046875 24.703125 12.671875 31.3125 
Q 6.296875 37.9375 6.296875 49.421875 
Q 6.296875 60.640625 12.9375 67.421875 
Q 19.578125 74.21875 30.609375 74.21875 
Q 43.265625 74.21875 49.921875 64.515625 
Q 56.59375 54.828125 56.59375 36.375 
Q 56.59375 19.140625 48.40625 8.859375 
Q 40.234375 -1.421875 26.421875 -1.421875 
Q 22.703125 -1.421875 18.890625 -0.6875 
Q 15.09375 0.046875 10.984375 1.515625 
z
M 30.609375 32.421875 
Q 37.25 32.421875 41.125 36.953125 
Q 45.015625 41.5 45.015625 49.421875 
Q 45.015625 57.28125 41.125 61.84375 
Q 37.25 66.40625 30.609375 66.40625 
Q 23.96875 66.40625 20.09375 61.84375 
Q 16.21875 57.28125 16.21875 49.421875 
Q 16.21875 41.5 20.09375 36.953125 
Q 23.96875 32.421875 30.609375 32.421875 
z
" id="DejaVuSans-39"/>
    </defs>
    <g transform="translate(396.24 212.80218)scale(0.15 -0.15)">
     <use xlink:href="#DejaVuSans-66"/>
     <use x="35.205078" xlink:href="#DejaVuSans-39"/>
    </g>
   </g>
   <g id="text_16">
    <!-- f8 -->
    <g transform="translate(396.24 128.489467)scale(0.15 -0.15)">
     <use xlink:href="#DejaVuSans-66"/>
     <use x="35.205078" xlink:href="#DejaVuSans-38"/>
    </g>
   </g>
   <g id="text_17">
    <!-- f6 -->
    <g transform="translate(396.24 44.176754)scale(0.15 -0.15)">
     <use xlink:href="#DejaVuSans-66"/>
     <use x="35.205078" xlink:href="#DejaVuSans-36"/>
    </g>
   </g>
   <g id="text_18">
    <!-- bbob -->
    <defs>
     <path d="M 48.6875 27.296875 
Q 48.6875 37.203125 44.609375 42.84375 
Q 40.53125 48.484375 33.40625 48.484375 
Q 26.265625 48.484375 22.1875 42.84375 
Q 18.109375 37.203125 18.109375 27.296875 
Q 18.109375 17.390625 22.1875 11.75 
Q 26.265625 6.109375 33.40625 6.109375 
Q 40.53125 6.109375 44.609375 11.75 
Q 48.6875 17.390625 48.6875 27.296875 
z
M 18.109375 46.390625 
Q 20.953125 51.265625 25.265625 53.625 
Q 29.59375 56 35.59375 56 
Q 45.5625 56 51.78125 48.09375 
Q 58.015625 40.1875 58.015625 27.296875 
Q 58.015625 14.40625 51.78125 6.484375 
Q 45.5625 -1.421875 35.59375 -1.421875 
Q 29.59375 -1.421875 25.265625 0.953125 
Q 20.953125 3.328125 18.109375 8.203125 
L 18.109375 0 
L 9.078125 0 
L 9.078125 75.984375 
L 18.109375 75.984375 
z
" id="DejaVuSans-62"/>
    </defs>
    <g transform="translate(74.3712 50.114612)scale(0.1666 -0.1666)">
     <use xlink:href="#DejaVuSans-62"/>
     <use x="63.476562" xlink:href="#DejaVuSans-62"/>
     <use x="126.953125" xlink:href="#DejaVuSans-6f"/>
     <use x="188.134766" xlink:href="#DejaVuSans-62"/>
    </g>
    <!-- Misc. moderate functions, 40-D -->
    <defs>
     <path d="M 9.8125 72.90625 
L 24.515625 72.90625 
L 43.109375 23.296875 
L 61.8125 72.90625 
L 76.515625 72.90625 
L 76.515625 0 
L 66.890625 0 
L 66.890625 64.015625 
L 48.09375 14.015625 
L 38.1875 14.015625 
L 19.390625 64.015625 
L 19.390625 0 
L 9.8125 0 
z
" id="DejaVuSans-4d"/>
     <path d="M 11.71875 12.40625 
L 22.015625 12.40625 
L 22.015625 4 
L 14.015625 -11.625 
L 7.71875 -11.625 
L 11.71875 4 
z
" id="DejaVuSans-2c"/>
     <path d="M 19.671875 64.796875 
L 19.671875 8.109375 
L 31.59375 8.109375 
Q 46.6875 8.109375 53.6875 14.9375 
Q 60.6875 21.78125 60.6875 36.53125 
Q 60.6875 51.171875 53.6875 57.984375 
Q 46.6875 64.796875 31.59375 64.796875 
z
M 9.8125 72.90625 
L 30.078125 72.90625 
Q 51.265625 72.90625 61.171875 64.09375 
Q 71.09375 55.28125 71.09375 36.53125 
Q 71.09375 17.671875 61.125 8.828125 
Q 51.171875 0 30.078125 0 
L 9.8125 0 
z
" id="DejaVuSans-44"/>
    </defs>
    <g transform="translate(74.3712 68.770168)scale(0.1666 -0.1666)">
     <use xlink:href="#DejaVuSans-4d"/>
     <use x="86.279297" xlink:href="#DejaVuSans-69"/>
     <use x="114.0625" xlink:href="#DejaVuSans-73"/>
     <use x="166.162109" xlink:href="#DejaVuSans-63"/>
     <use x="221.142578" xlink:href="#DejaVuSans-2e"/>
     <use x="252.929688" xlink:href="#DejaVuSans-20"/>
     <use x="284.716797" xlink:href="#DejaVuSans-6d"/>
     <use x="382.128906" xlink:href="#DejaVuSans-6f"/>
     <use x="443.310547" xlink:href="#DejaVuSans-64"/>
     <use x="506.787109" xlink:href="#DejaVuSans-65"/>
     <use x="568.310547" xlink:href="#DejaVuSans-72"/>
     <use x="609.423828" xlink:href="#DejaVuSans-61"/>
     <use x="670.703125" xlink:href="#DejaVuSans-74"/>
     <use x="709.912109" xlink:href="#DejaVuSans-65"/>
     <use x="771.435547" xlink:href="#DejaVuSans-20"/>
     <use x="803.222656" xlink:href="#DejaVuSans-66"/>
     <use x="838.427734" xlink:href="#DejaVuSans-75"/>
     <use x="901.806641" xlink:href="#DejaVuSans-6e"/>
     <use x="965.185547" xlink:href="#DejaVuSans-63"/>
     <use x="1020.166016" xlink:href="#DejaVuSans-74"/>
     <use x="1059.375" xlink:href="#DejaVuSans-69"/>
     <use x="1087.158203" xlink:href="#DejaVuSans-6f"/>
     <use x="1148.339844" xlink:href="#DejaVuSans-6e"/>
     <use x="1211.71875" xlink:href="#DejaVuSans-73"/>
     <use x="1263.818359" xlink:href="#DejaVuSans-2c"/>
     <use x="1295.605469" xlink:href="#DejaVuSans-20"/>
     <use x="1327.392578" xlink:href="#DejaVuSans-34"/>
     <use x="1391.015625" xlink:href="#DejaVuSans-30"/>
     <use x="1454.638672" xlink:href="#DejaVuSans-2d"/>
     <use x="1490.722656" xlink:href="#DejaVuSans-44"/>
    </g>
    <!-- 51 targets in 100..1e-08 -->
    <defs>
     <path d="M 10.796875 72.90625 
L 49.515625 72.90625 
L 49.515625 64.59375 
L 19.828125 64.59375 
L 19.828125 46.734375 
Q 21.96875 47.46875 24.109375 47.828125 
Q 26.265625 48.1875 28.421875 48.1875 
Q 40.625 48.1875 47.75 41.5 
Q 54.890625 34.8125 54.890625 23.390625 
Q 54.890625 11.625 47.5625 5.09375 
Q 40.234375 -1.421875 26.90625 -1.421875 
Q 22.3125 -1.421875 17.546875 -0.640625 
Q 12.796875 0.140625 7.71875 1.703125 
L 7.71875 11.625 
Q 12.109375 9.234375 16.796875 8.0625 
Q 21.484375 6.890625 26.703125 6.890625 
Q 35.15625 6.890625 40.078125 11.328125 
Q 45.015625 15.765625 45.015625 23.390625 
Q 45.015625 31 40.078125 35.4375 
Q 35.15625 39.890625 26.703125 39.890625 
Q 22.75 39.890625 18.8125 39.015625 
Q 14.890625 38.140625 10.796875 36.28125 
z
" id="DejaVuSans-35"/>
    </defs>
    <g transform="translate(74.3712 87.425723)scale(0.1666 -0.1666)">
     <use xlink:href="#DejaVuSans-35"/>
     <use x="63.623047" xlink:href="#DejaVuSans-31"/>
     <use x="127.246094" xlink:href="#DejaVuSans-20"/>
     <use x="159.033203" xlink:href="#DejaVuSans-74"/>
     <use x="198.242188" xlink:href="#DejaVuSans-61"/>
     <use x="259.521484" xlink:href="#DejaVuSans-72"/>
     <use x="300.619141" xlink:href="#DejaVuSans-67"/>
     <use x="364.095703" xlink:href="#DejaVuSans-65"/>
     <use x="425.619141" xlink:href="#DejaVuSans-74"/>
     <use x="464.828125" xlink:href="#DejaVuSans-73"/>
     <use x="516.927734" xlink:href="#DejaVuSans-20"/>
     <use x="548.714844" xlink:href="#DejaVuSans-69"/>
     <use x="576.498047" xlink:href="#DejaVuSans-6e"/>
     <use x="639.876953" xlink:href="#DejaVuSans-20"/>
     <use x="671.664062" xlink:href="#DejaVuSans-31"/>
     <use x="735.287109" xlink:href="#DejaVuSans-30"/>
     <use x="798.910156" xlink:href="#DejaVuSans-30"/>
     <use x="862.533203" xlink:href="#DejaVuSans-2e"/>
     <use x="894.320312" xlink:href="#DejaVuSans-2e"/>
     <use x="926.107422" xlink:href="#DejaVuSans-31"/>
     <use x="989.730469" xlink:href="#DejaVuSans-65"/>
     <use x="1051.253906" xlink:href="#DejaVuSans-2d"/>
     <use x="1087.337891" xlink:href="#DejaVuSans-30"/>
     <use x="1150.960938" xlink:href="#DejaVuSans-38"/>
    </g>
    <!-- 15 instances -->
    <g transform="translate(74.3712 106.081279)scale(0.1666 -0.1666)">
     <use xlink:href="#DejaVuSans-31"/>
     <use x="63.623047" xlink:href="#DejaVuSans-35"/>
     <use x="127.246094" xlink:href="#DejaVuSans-20"/>
     <use x="159.033203" xlink:href="#DejaVuSans-69"/>
     <use x="186.816406" xlink:href="#DejaVuSans-6e"/>
     <use x="250.195312" xlink:href="#DejaVuSans-73"/>
     <use x="302.294922" xlink:href="#DejaVuSans-74"/>
     <use x="341.503906" xlink:href="#DejaVuSans-61"/>
     <use x="402.783203" xlink:href="#DejaVuSans-6e"/>
     <use x="466.162109" xlink:href="#DejaVuSans-63"/>
     <use x="521.142578" xlink:href="#DejaVuSans-65"/>
     <use x="582.666016" xlink:href="#DejaVuSans-73"/>
    </g>
   </g>
   <g id="text_19">
    <!-- v2.1 -->
    <g style="fill:#808080;" transform="translate(238.449063 293.504568)scale(0.1 -0.1)">
     <use xlink:href="#DejaVuSans-76"/>
     <use x="59.179688" xlink:href="#DejaVuSans-32"/>
     <use x="122.802734" xlink:href="#DejaVuSans-2e"/>
     <use x="154.589844" xlink:href="#DejaVuSans-31"/>
    </g>
   </g>
  </g>
 </g>
 <defs>
  <clipPath id="paea8a33b02">
   <rect height="266.112" width="357.12" x="70.8" y="32.133375"/>
  </clipPath>
 </defs>
</svg>
