<?xml version="1.0" encoding="utf-8" standalone="no"?>
<!DOCTYPE svg PUBLIC "-//W3C//DTD SVG 1.1//EN"
  "http://www.w3.org/Graphics/SVG/1.1/DTD/svg11.dtd">
<!-- Created with matplotlib (http://matplotlib.org/) -->
<svg height="353pt" version="1.1" viewBox="0 0 441 353" width="441pt" xmlns="http://www.w3.org/2000/svg" xmlns:xlink="http://www.w3.org/1999/xlink">
 <defs>
  <style type="text/css">
*{stroke-linecap:butt;stroke-linejoin:round;}
  </style>
 </defs>
 <g id="figure_1">
  <g id="patch_1">
   <path d="M -0 353.22225 
L 441.802544 353.22225 
L 441.802544 0 
L -0 0 
z
" style="fill:#ffffff;"/>
  </g>
  <g id="axes_1">
   <g id="patch_2">
    <path d="M 73.113325 298.245375 
L 430.233325 298.245375 
L 430.233325 32.133375 
L 73.113325 32.133375 
z
" style="fill:#ffffff;"/>
   </g>
   <g id="matplotlib.axis_1">
    <g id="xtick_1">
     <g id="line2d_1">
      <path clip-path="url(#p0ff094bcc8)" d="M 73.113325 298.245375 
L 73.113325 32.133375 
" style="fill:none;stroke:#b0b0b0;stroke-linecap:square;stroke-width:0.8;"/>
     </g>
     <g id="line2d_2">
      <defs>
       <path d="M 0 0 
L 0 3.5 
" id="m95687fd1d7" style="stroke:#000000;stroke-width:0.8;"/>
      </defs>
      <g>
       <use style="stroke:#000000;stroke-width:0.8;" x="73.113325" xlink:href="#m95687fd1d7" y="298.245375"/>
      </g>
     </g>
     <g id="text_1">
      <!-- 0 -->
      <defs>
       <path d="M 31.78125 66.40625 
Q 24.171875 66.40625 20.328125 58.90625 
Q 16.5 51.421875 16.5 36.375 
Q 16.5 21.390625 20.328125 13.890625 
Q 24.171875 6.390625 31.78125 6.390625 
Q 39.453125 6.390625 43.28125 13.890625 
Q 47.125 21.390625 47.125 36.375 
Q 47.125 51.421875 43.28125 58.90625 
Q 39.453125 66.40625 31.78125 66.40625 
z
M 31.78125 74.21875 
Q 44.046875 74.21875 50.515625 64.515625 
Q 56.984375 54.828125 56.984375 36.375 
Q 56.984375 17.96875 50.515625 8.265625 
Q 44.046875 -1.421875 31.78125 -1.421875 
Q 19.53125 -1.421875 13.0625 8.265625 
Q 6.59375 17.96875 6.59375 36.375 
Q 6.59375 54.828125 13.0625 64.515625 
Q 19.53125 74.21875 31.78125 74.21875 
z
" id="DejaVuSans-30"/>
      </defs>
      <g transform="translate(66.750825 320.44225)scale(0.2 -0.2)">
       <use xlink:href="#DejaVuSans-30"/>
      </g>
     </g>
    </g>
    <g id="xtick_2">
     <g id="line2d_3">
      <path clip-path="url(#p0ff094bcc8)" d="M 155.39904 298.245375 
L 155.39904 32.133375 
" style="fill:none;stroke:#b0b0b0;stroke-linecap:square;stroke-width:0.8;"/>
     </g>
     <g id="line2d_4">
      <g>
       <use style="stroke:#000000;stroke-width:0.8;" x="155.39904" xlink:href="#m95687fd1d7" y="298.245375"/>
      </g>
     </g>
     <g id="text_2">
      <!-- 2 -->
      <defs>
       <path d="M 19.1875 8.296875 
L 53.609375 8.296875 
L 53.609375 0 
L 7.328125 0 
L 7.328125 8.296875 
Q 12.9375 14.109375 22.625 23.890625 
Q 32.328125 33.6875 34.8125 36.53125 
Q 39.546875 41.84375 41.421875 45.53125 
Q 43.3125 49.21875 43.3125 52.78125 
Q 43.3125 58.59375 39.234375 62.25 
Q 35.15625 65.921875 28.609375 65.921875 
Q 23.96875 65.921875 18.8125 64.3125 
Q 13.671875 62.703125 7.8125 59.421875 
L 7.8125 69.390625 
Q 13.765625 71.78125 18.9375 73 
Q 24.125 74.21875 28.421875 74.21875 
Q 39.75 74.21875 46.484375 68.546875 
Q 53.21875 62.890625 53.21875 53.421875 
Q 53.21875 48.921875 51.53125 44.890625 
Q 49.859375 40.875 45.40625 35.40625 
Q 44.1875 33.984375 37.640625 27.21875 
Q 31.109375 20.453125 19.1875 8.296875 
z
" id="DejaVuSans-32"/>
      </defs>
      <g transform="translate(149.03654 320.44225)scale(0.2 -0.2)">
       <use xlink:href="#DejaVuSans-32"/>
      </g>
     </g>
    </g>
    <g id="xtick_3">
     <g id="line2d_5">
      <path clip-path="url(#p0ff094bcc8)" d="M 237.684754 298.245375 
L 237.684754 32.133375 
" style="fill:none;stroke:#b0b0b0;stroke-linecap:square;stroke-width:0.8;"/>
     </g>
     <g id="line2d_6">
      <g>
       <use style="stroke:#000000;stroke-width:0.8;" x="237.684754" xlink:href="#m95687fd1d7" y="298.245375"/>
      </g>
     </g>
     <g id="text_3">
      <!-- 4 -->
      <defs>
       <path d="M 37.796875 64.3125 
L 12.890625 25.390625 
L 37.796875 25.390625 
z
M 35.203125 72.90625 
L 47.609375 72.90625 
L 47.609375 25.390625 
L 58.015625 25.390625 
L 58.015625 17.1875 
L 47.609375 17.1875 
L 47.609375 0 
L 37.796875 0 
L 37.796875 17.1875 
L 4.890625 17.1875 
L 4.890625 26.703125 
z
" id="DejaVuSans-34"/>
      </defs>
      <g transform="translate(231.322254 320.44225)scale(0.2 -0.2)">
       <use xlink:href="#DejaVuSans-34"/>
      </g>
     </g>
    </g>
    <g id="xtick_4">
     <g id="line2d_7">
      <path clip-path="url(#p0ff094bcc8)" d="M 319.970468 298.245375 
L 319.970468 32.133375 
" style="fill:none;stroke:#b0b0b0;stroke-linecap:square;stroke-width:0.8;"/>
     </g>
     <g id="line2d_8">
      <g>
       <use style="stroke:#000000;stroke-width:0.8;" x="319.970468" xlink:href="#m95687fd1d7" y="298.245375"/>
      </g>
     </g>
     <g id="text_4">
      <!-- 6 -->
      <defs>
       <path d="M 33.015625 40.375 
Q 26.375 40.375 22.484375 35.828125 
Q 18.609375 31.296875 18.609375 23.390625 
Q 18.609375 15.53125 22.484375 10.953125 
Q 26.375 6.390625 33.015625 6.390625 
Q 39.65625 6.390625 43.53125 10.953125 
Q 47.40625 15.53125 47.40625 23.390625 
Q 47.40625 31.296875 43.53125 35.828125 
Q 39.65625 40.375 33.015625 40.375 
z
M 52.59375 71.296875 
L 52.59375 62.3125 
Q 48.875 64.0625 45.09375 64.984375 
Q 41.3125 65.921875 37.59375 65.921875 
Q 27.828125 65.921875 22.671875 59.328125 
Q 17.53125 52.734375 16.796875 39.40625 
Q 19.671875 43.65625 24.015625 45.921875 
Q 28.375 48.1875 33.59375 48.1875 
Q 44.578125 48.1875 50.953125 41.515625 
Q 57.328125 34.859375 57.328125 23.390625 
Q 57.328125 12.15625 50.6875 5.359375 
Q 44.046875 -1.421875 33.015625 -1.421875 
Q 20.359375 -1.421875 13.671875 8.265625 
Q 6.984375 17.96875 6.984375 36.375 
Q 6.984375 53.65625 15.1875 63.9375 
Q 23.390625 74.21875 37.203125 74.21875 
Q 40.921875 74.21875 44.703125 73.484375 
Q 48.484375 72.75 52.59375 71.296875 
z
" id="DejaVuSans-36"/>
      </defs>
      <g transform="translate(313.607968 320.44225)scale(0.2 -0.2)">
       <use xlink:href="#DejaVuSans-36"/>
      </g>
     </g>
    </g>
    <g id="xtick_5">
     <g id="line2d_9">
      <path clip-path="url(#p0ff094bcc8)" d="M 402.256183 298.245375 
L 402.256183 32.133375 
" style="fill:none;stroke:#b0b0b0;stroke-linecap:square;stroke-width:0.8;"/>
     </g>
     <g id="line2d_10">
      <g>
       <use style="stroke:#000000;stroke-width:0.8;" x="402.256183" xlink:href="#m95687fd1d7" y="298.245375"/>
      </g>
     </g>
     <g id="text_5">
      <!-- 8 -->
      <defs>
       <path d="M 31.78125 34.625 
Q 24.75 34.625 20.71875 30.859375 
Q 16.703125 27.09375 16.703125 20.515625 
Q 16.703125 13.921875 20.71875 10.15625 
Q 24.75 6.390625 31.78125 6.390625 
Q 38.8125 6.390625 42.859375 10.171875 
Q 46.921875 13.96875 46.921875 20.515625 
Q 46.921875 27.09375 42.890625 30.859375 
Q 38.875 34.625 31.78125 34.625 
z
M 21.921875 38.8125 
Q 15.578125 40.375 12.03125 44.71875 
Q 8.5 49.078125 8.5 55.328125 
Q 8.5 64.0625 14.71875 69.140625 
Q 20.953125 74.21875 31.78125 74.21875 
Q 42.671875 74.21875 48.875 69.140625 
Q 55.078125 64.0625 55.078125 55.328125 
Q 55.078125 49.078125 51.53125 44.71875 
Q 48 40.375 41.703125 38.8125 
Q 48.828125 37.15625 52.796875 32.3125 
Q 56.78125 27.484375 56.78125 20.515625 
Q 56.78125 9.90625 50.3125 4.234375 
Q 43.84375 -1.421875 31.78125 -1.421875 
Q 19.734375 -1.421875 13.25 4.234375 
Q 6.78125 9.90625 6.78125 20.515625 
Q 6.78125 27.484375 10.78125 32.3125 
Q 14.796875 37.15625 21.921875 38.8125 
z
M 18.3125 54.390625 
Q 18.3125 48.734375 21.84375 45.5625 
Q 25.390625 42.390625 31.78125 42.390625 
Q 38.140625 42.390625 41.71875 45.5625 
Q 45.3125 48.734375 45.3125 54.390625 
Q 45.3125 60.0625 41.71875 63.234375 
Q 38.140625 66.40625 31.78125 66.40625 
Q 25.390625 66.40625 21.84375 63.234375 
Q 18.3125 60.0625 18.3125 54.390625 
z
" id="DejaVuSans-38"/>
      </defs>
      <g transform="translate(395.893683 320.44225)scale(0.2 -0.2)">
       <use xlink:href="#DejaVuSans-38"/>
      </g>
     </g>
    </g>
    <g id="text_6">
     <!-- log10 of (# f-evals / dimension) -->
     <defs>
      <path d="M 9.421875 75.984375 
L 18.40625 75.984375 
L 18.40625 0 
L 9.421875 0 
z
" id="DejaVuSans-6c"/>
      <path d="M 30.609375 48.390625 
Q 23.390625 48.390625 19.1875 42.75 
Q 14.984375 37.109375 14.984375 27.296875 
Q 14.984375 17.484375 19.15625 11.84375 
Q 23.34375 6.203125 30.609375 6.203125 
Q 37.796875 6.203125 41.984375 11.859375 
Q 46.1875 17.53125 46.1875 27.296875 
Q 46.1875 37.015625 41.984375 42.703125 
Q 37.796875 48.390625 30.609375 48.390625 
z
M 30.609375 56 
Q 42.328125 56 49.015625 48.375 
Q 55.71875 40.765625 55.71875 27.296875 
Q 55.71875 13.875 49.015625 6.21875 
Q 42.328125 -1.421875 30.609375 -1.421875 
Q 18.84375 -1.421875 12.171875 6.21875 
Q 5.515625 13.875 5.515625 27.296875 
Q 5.515625 40.765625 12.171875 48.375 
Q 18.84375 56 30.609375 56 
z
" id="DejaVuSans-6f"/>
      <path d="M 45.40625 27.984375 
Q 45.40625 37.75 41.375 43.109375 
Q 37.359375 48.484375 30.078125 48.484375 
Q 22.859375 48.484375 18.828125 43.109375 
Q 14.796875 37.75 14.796875 27.984375 
Q 14.796875 18.265625 18.828125 12.890625 
Q 22.859375 7.515625 30.078125 7.515625 
Q 37.359375 7.515625 41.375 12.890625 
Q 45.40625 18.265625 45.40625 27.984375 
z
M 54.390625 6.78125 
Q 54.390625 -7.171875 48.1875 -13.984375 
Q 42 -20.796875 29.203125 -20.796875 
Q 24.46875 -20.796875 20.265625 -20.09375 
Q 16.0625 -19.390625 12.109375 -17.921875 
L 12.109375 -9.1875 
Q 16.0625 -11.328125 19.921875 -12.34375 
Q 23.78125 -13.375 27.78125 -13.375 
Q 36.625 -13.375 41.015625 -8.765625 
Q 45.40625 -4.15625 45.40625 5.171875 
L 45.40625 9.625 
Q 42.625 4.78125 38.28125 2.390625 
Q 33.9375 0 27.875 0 
Q 17.828125 0 11.671875 7.65625 
Q 5.515625 15.328125 5.515625 27.984375 
Q 5.515625 40.671875 11.671875 48.328125 
Q 17.828125 56 27.875 56 
Q 33.9375 56 38.28125 53.609375 
Q 42.625 51.21875 45.40625 46.390625 
L 45.40625 54.6875 
L 54.390625 54.6875 
z
" id="DejaVuSans-67"/>
      <path d="M 12.40625 8.296875 
L 28.515625 8.296875 
L 28.515625 63.921875 
L 10.984375 60.40625 
L 10.984375 69.390625 
L 28.421875 72.90625 
L 38.28125 72.90625 
L 38.28125 8.296875 
L 54.390625 8.296875 
L 54.390625 0 
L 12.40625 0 
z
" id="DejaVuSans-31"/>
      <path id="DejaVuSans-20"/>
      <path d="M 37.109375 75.984375 
L 37.109375 68.5 
L 28.515625 68.5 
Q 23.6875 68.5 21.796875 66.546875 
Q 19.921875 64.59375 19.921875 59.515625 
L 19.921875 54.6875 
L 34.71875 54.6875 
L 34.71875 47.703125 
L 19.921875 47.703125 
L 19.921875 0 
L 10.890625 0 
L 10.890625 47.703125 
L 2.296875 47.703125 
L 2.296875 54.6875 
L 10.890625 54.6875 
L 10.890625 58.5 
Q 10.890625 67.625 15.140625 71.796875 
Q 19.390625 75.984375 28.609375 75.984375 
z
" id="DejaVuSans-66"/>
      <path d="M 31 75.875 
Q 24.46875 64.65625 21.28125 53.65625 
Q 18.109375 42.671875 18.109375 31.390625 
Q 18.109375 20.125 21.3125 9.0625 
Q 24.515625 -2 31 -13.1875 
L 23.1875 -13.1875 
Q 15.875 -1.703125 12.234375 9.375 
Q 8.59375 20.453125 8.59375 31.390625 
Q 8.59375 42.28125 12.203125 53.3125 
Q 15.828125 64.359375 23.1875 75.875 
z
" id="DejaVuSans-28"/>
      <path d="M 51.125 44 
L 36.921875 44 
L 32.8125 27.6875 
L 47.125 27.6875 
z
M 43.796875 71.78125 
L 38.71875 51.515625 
L 52.984375 51.515625 
L 58.109375 71.78125 
L 65.921875 71.78125 
L 60.890625 51.515625 
L 76.125 51.515625 
L 76.125 44 
L 58.984375 44 
L 54.984375 27.6875 
L 70.515625 27.6875 
L 70.515625 20.21875 
L 53.078125 20.21875 
L 48 0 
L 40.1875 0 
L 45.21875 20.21875 
L 30.90625 20.21875 
L 25.875 0 
L 18.015625 0 
L 23.09375 20.21875 
L 7.71875 20.21875 
L 7.71875 27.6875 
L 24.90625 27.6875 
L 29 44 
L 13.28125 44 
L 13.28125 51.515625 
L 30.90625 51.515625 
L 35.890625 71.78125 
z
" id="DejaVuSans-23"/>
      <path d="M 4.890625 31.390625 
L 31.203125 31.390625 
L 31.203125 23.390625 
L 4.890625 23.390625 
z
" id="DejaVuSans-2d"/>
      <path d="M 56.203125 29.59375 
L 56.203125 25.203125 
L 14.890625 25.203125 
Q 15.484375 15.921875 20.484375 11.0625 
Q 25.484375 6.203125 34.421875 6.203125 
Q 39.59375 6.203125 44.453125 7.46875 
Q 49.3125 8.734375 54.109375 11.28125 
L 54.109375 2.78125 
Q 49.265625 0.734375 44.1875 -0.34375 
Q 39.109375 -1.421875 33.890625 -1.421875 
Q 20.796875 -1.421875 13.15625 6.1875 
Q 5.515625 13.8125 5.515625 26.8125 
Q 5.515625 40.234375 12.765625 48.109375 
Q 20.015625 56 32.328125 56 
Q 43.359375 56 49.78125 48.890625 
Q 56.203125 41.796875 56.203125 29.59375 
z
M 47.21875 32.234375 
Q 47.125 39.59375 43.09375 43.984375 
Q 39.0625 48.390625 32.421875 48.390625 
Q 24.90625 48.390625 20.390625 44.140625 
Q 15.875 39.890625 15.1875 32.171875 
z
" id="DejaVuSans-65"/>
      <path d="M 2.984375 54.6875 
L 12.5 54.6875 
L 29.59375 8.796875 
L 46.6875 54.6875 
L 56.203125 54.6875 
L 35.6875 0 
L 23.484375 0 
z
" id="DejaVuSans-76"/>
      <path d="M 34.28125 27.484375 
Q 23.390625 27.484375 19.1875 25 
Q 14.984375 22.515625 14.984375 16.5 
Q 14.984375 11.71875 18.140625 8.90625 
Q 21.296875 6.109375 26.703125 6.109375 
Q 34.1875 6.109375 38.703125 11.40625 
Q 43.21875 16.703125 43.21875 25.484375 
L 43.21875 27.484375 
z
M 52.203125 31.203125 
L 52.203125 0 
L 43.21875 0 
L 43.21875 8.296875 
Q 40.140625 3.328125 35.546875 0.953125 
Q 30.953125 -1.421875 24.3125 -1.421875 
Q 15.921875 -1.421875 10.953125 3.296875 
Q 6 8.015625 6 15.921875 
Q 6 25.140625 12.171875 29.828125 
Q 18.359375 34.515625 30.609375 34.515625 
L 43.21875 34.515625 
L 43.21875 35.40625 
Q 43.21875 41.609375 39.140625 45 
Q 35.0625 48.390625 27.6875 48.390625 
Q 23 48.390625 18.546875 47.265625 
Q 14.109375 46.140625 10.015625 43.890625 
L 10.015625 52.203125 
Q 14.9375 54.109375 19.578125 55.046875 
Q 24.21875 56 28.609375 56 
Q 40.484375 56 46.34375 49.84375 
Q 52.203125 43.703125 52.203125 31.203125 
z
" id="DejaVuSans-61"/>
      <path d="M 44.28125 53.078125 
L 44.28125 44.578125 
Q 40.484375 46.53125 36.375 47.5 
Q 32.28125 48.484375 27.875 48.484375 
Q 21.1875 48.484375 17.84375 46.4375 
Q 14.5 44.390625 14.5 40.28125 
Q 14.5 37.15625 16.890625 35.375 
Q 19.28125 33.59375 26.515625 31.984375 
L 29.59375 31.296875 
Q 39.15625 29.25 43.1875 25.515625 
Q 47.21875 21.78125 47.21875 15.09375 
Q 47.21875 7.46875 41.1875 3.015625 
Q 35.15625 -1.421875 24.609375 -1.421875 
Q 20.21875 -1.421875 15.453125 -0.5625 
Q 10.6875 0.296875 5.421875 2 
L 5.421875 11.28125 
Q 10.40625 8.6875 15.234375 7.390625 
Q 20.0625 6.109375 24.8125 6.109375 
Q 31.15625 6.109375 34.5625 8.28125 
Q 37.984375 10.453125 37.984375 14.40625 
Q 37.984375 18.0625 35.515625 20.015625 
Q 33.0625 21.96875 24.703125 23.78125 
L 21.578125 24.515625 
Q 13.234375 26.265625 9.515625 29.90625 
Q 5.8125 33.546875 5.8125 39.890625 
Q 5.8125 47.609375 11.28125 51.796875 
Q 16.75 56 26.8125 56 
Q 31.78125 56 36.171875 55.265625 
Q 40.578125 54.546875 44.28125 53.078125 
z
" id="DejaVuSans-73"/>
      <path d="M 25.390625 72.90625 
L 33.6875 72.90625 
L 8.296875 -9.28125 
L 0 -9.28125 
z
" id="DejaVuSans-2f"/>
      <path d="M 45.40625 46.390625 
L 45.40625 75.984375 
L 54.390625 75.984375 
L 54.390625 0 
L 45.40625 0 
L 45.40625 8.203125 
Q 42.578125 3.328125 38.25 0.953125 
Q 33.9375 -1.421875 27.875 -1.421875 
Q 17.96875 -1.421875 11.734375 6.484375 
Q 5.515625 14.40625 5.515625 27.296875 
Q 5.515625 40.1875 11.734375 48.09375 
Q 17.96875 56 27.875 56 
Q 33.9375 56 38.25 53.625 
Q 42.578125 51.265625 45.40625 46.390625 
z
M 14.796875 27.296875 
Q 14.796875 17.390625 18.875 11.75 
Q 22.953125 6.109375 30.078125 6.109375 
Q 37.203125 6.109375 41.296875 11.75 
Q 45.40625 17.390625 45.40625 27.296875 
Q 45.40625 37.203125 41.296875 42.84375 
Q 37.203125 48.484375 30.078125 48.484375 
Q 22.953125 48.484375 18.875 42.84375 
Q 14.796875 37.203125 14.796875 27.296875 
z
" id="DejaVuSans-64"/>
      <path d="M 9.421875 54.6875 
L 18.40625 54.6875 
L 18.40625 0 
L 9.421875 0 
z
M 9.421875 75.984375 
L 18.40625 75.984375 
L 18.40625 64.59375 
L 9.421875 64.59375 
z
" id="DejaVuSans-69"/>
      <path d="M 52 44.1875 
Q 55.375 50.25 60.0625 53.125 
Q 64.75 56 71.09375 56 
Q 79.640625 56 84.28125 50.015625 
Q 88.921875 44.046875 88.921875 33.015625 
L 88.921875 0 
L 79.890625 0 
L 79.890625 32.71875 
Q 79.890625 40.578125 77.09375 44.375 
Q 74.3125 48.1875 68.609375 48.1875 
Q 61.625 48.1875 57.5625 43.546875 
Q 53.515625 38.921875 53.515625 30.90625 
L 53.515625 0 
L 44.484375 0 
L 44.484375 32.71875 
Q 44.484375 40.625 41.703125 44.40625 
Q 38.921875 48.1875 33.109375 48.1875 
Q 26.21875 48.1875 22.15625 43.53125 
Q 18.109375 38.875 18.109375 30.90625 
L 18.109375 0 
L 9.078125 0 
L 9.078125 54.6875 
L 18.109375 54.6875 
L 18.109375 46.1875 
Q 21.1875 51.21875 25.484375 53.609375 
Q 29.78125 56 35.6875 56 
Q 41.65625 56 45.828125 52.96875 
Q 50 49.953125 52 44.1875 
z
" id="DejaVuSans-6d"/>
      <path d="M 54.890625 33.015625 
L 54.890625 0 
L 45.90625 0 
L 45.90625 32.71875 
Q 45.90625 40.484375 42.875 44.328125 
Q 39.84375 48.1875 33.796875 48.1875 
Q 26.515625 48.1875 22.3125 43.546875 
Q 18.109375 38.921875 18.109375 30.90625 
L 18.109375 0 
L 9.078125 0 
L 9.078125 54.6875 
L 18.109375 54.6875 
L 18.109375 46.1875 
Q 21.34375 51.125 25.703125 53.5625 
Q 30.078125 56 35.796875 56 
Q 45.21875 56 50.046875 50.171875 
Q 54.890625 44.34375 54.890625 33.015625 
z
" id="DejaVuSans-6e"/>
      <path d="M 8.015625 75.875 
L 15.828125 75.875 
Q 23.140625 64.359375 26.78125 53.3125 
Q 30.421875 42.28125 30.421875 31.390625 
Q 30.421875 20.453125 26.78125 9.375 
Q 23.140625 -1.703125 15.828125 -13.1875 
L 8.015625 -13.1875 
Q 14.5 -2 17.703125 9.0625 
Q 20.90625 20.125 20.90625 31.390625 
Q 20.90625 42.671875 17.703125 53.65625 
Q 14.5 64.65625 8.015625 75.875 
z
" id="DejaVuSans-29"/>
     </defs>
     <g transform="translate(109.328482 342.278812)scale(0.18 -0.18)">
      <use xlink:href="#DejaVuSans-6c"/>
      <use x="27.783203" xlink:href="#DejaVuSans-6f"/>
      <use x="88.964844" xlink:href="#DejaVuSans-67"/>
      <use x="152.441406" xlink:href="#DejaVuSans-31"/>
      <use x="216.064453" xlink:href="#DejaVuSans-30"/>
      <use x="279.6875" xlink:href="#DejaVuSans-20"/>
      <use x="311.474609" xlink:href="#DejaVuSans-6f"/>
      <use x="372.65625" xlink:href="#DejaVuSans-66"/>
      <use x="407.861328" xlink:href="#DejaVuSans-20"/>
      <use x="439.648438" xlink:href="#DejaVuSans-28"/>
      <use x="478.662109" xlink:href="#DejaVuSans-23"/>
      <use x="562.451172" xlink:href="#DejaVuSans-20"/>
      <use x="594.238281" xlink:href="#DejaVuSans-66"/>
      <use x="629.365234" xlink:href="#DejaVuSans-2d"/>
      <use x="665.449219" xlink:href="#DejaVuSans-65"/>
      <use x="726.972656" xlink:href="#DejaVuSans-76"/>
      <use x="786.152344" xlink:href="#DejaVuSans-61"/>
      <use x="847.431641" xlink:href="#DejaVuSans-6c"/>
      <use x="875.214844" xlink:href="#DejaVuSans-73"/>
      <use x="927.314453" xlink:href="#DejaVuSans-20"/>
      <use x="959.101562" xlink:href="#DejaVuSans-2f"/>
      <use x="992.792969" xlink:href="#DejaVuSans-20"/>
      <use x="1024.580078" xlink:href="#DejaVuSans-64"/>
      <use x="1088.056641" xlink:href="#DejaVuSans-69"/>
      <use x="1115.839844" xlink:href="#DejaVuSans-6d"/>
      <use x="1213.251953" xlink:href="#DejaVuSans-65"/>
      <use x="1274.775391" xlink:href="#DejaVuSans-6e"/>
      <use x="1338.154297" xlink:href="#DejaVuSans-73"/>
      <use x="1390.253906" xlink:href="#DejaVuSans-69"/>
      <use x="1418.037109" xlink:href="#DejaVuSans-6f"/>
      <use x="1479.21875" xlink:href="#DejaVuSans-6e"/>
      <use x="1542.597656" xlink:href="#DejaVuSans-29"/>
     </g>
    </g>
   </g>
   <g id="matplotlib.axis_2">
    <g id="ytick_1">
     <g id="line2d_11">
      <path clip-path="url(#p0ff094bcc8)" d="M 73.113325 298.245375 
L 430.233325 298.245375 
" style="fill:none;stroke:#b0b0b0;stroke-linecap:square;stroke-width:0.8;"/>
     </g>
     <g id="line2d_12">
      <defs>
       <path d="M 0 0 
L -3.5 0 
" id="m91a8ceac60" style="stroke:#000000;stroke-width:0.8;"/>
      </defs>
      <g>
       <use style="stroke:#000000;stroke-width:0.8;" x="73.113325" xlink:href="#m91a8ceac60" y="298.245375"/>
      </g>
     </g>
     <g id="text_7">
      <!-- 0.0 -->
      <defs>
       <path d="M 10.6875 12.40625 
L 21 12.40625 
L 21 0 
L 10.6875 0 
z
" id="DejaVuSans-2e"/>
      </defs>
      <g transform="translate(34.307075 305.843812)scale(0.2 -0.2)">
       <use xlink:href="#DejaVuSans-30"/>
       <use x="63.623047" xlink:href="#DejaVuSans-2e"/>
       <use x="95.410156" xlink:href="#DejaVuSans-30"/>
      </g>
     </g>
    </g>
    <g id="ytick_2">
     <g id="line2d_13">
      <path clip-path="url(#p0ff094bcc8)" d="M 73.113325 245.549929 
L 430.233325 245.549929 
" style="fill:none;stroke:#b0b0b0;stroke-linecap:square;stroke-width:0.8;"/>
     </g>
     <g id="line2d_14">
      <g>
       <use style="stroke:#000000;stroke-width:0.8;" x="73.113325" xlink:href="#m91a8ceac60" y="245.549929"/>
      </g>
     </g>
     <g id="text_8">
      <!-- 0.2 -->
      <g transform="translate(34.307075 253.148367)scale(0.2 -0.2)">
       <use xlink:href="#DejaVuSans-30"/>
       <use x="63.623047" xlink:href="#DejaVuSans-2e"/>
       <use x="95.410156" xlink:href="#DejaVuSans-32"/>
      </g>
     </g>
    </g>
    <g id="ytick_3">
     <g id="line2d_15">
      <path clip-path="url(#p0ff094bcc8)" d="M 73.113325 192.854484 
L 430.233325 192.854484 
" style="fill:none;stroke:#b0b0b0;stroke-linecap:square;stroke-width:0.8;"/>
     </g>
     <g id="line2d_16">
      <g>
       <use style="stroke:#000000;stroke-width:0.8;" x="73.113325" xlink:href="#m91a8ceac60" y="192.854484"/>
      </g>
     </g>
     <g id="text_9">
      <!-- 0.4 -->
      <g transform="translate(34.307075 200.452921)scale(0.2 -0.2)">
       <use xlink:href="#DejaVuSans-30"/>
       <use x="63.623047" xlink:href="#DejaVuSans-2e"/>
       <use x="95.410156" xlink:href="#DejaVuSans-34"/>
      </g>
     </g>
    </g>
    <g id="ytick_4">
     <g id="line2d_17">
      <path clip-path="url(#p0ff094bcc8)" d="M 73.113325 140.159038 
L 430.233325 140.159038 
" style="fill:none;stroke:#b0b0b0;stroke-linecap:square;stroke-width:0.8;"/>
     </g>
     <g id="line2d_18">
      <g>
       <use style="stroke:#000000;stroke-width:0.8;" x="73.113325" xlink:href="#m91a8ceac60" y="140.159038"/>
      </g>
     </g>
     <g id="text_10">
      <!-- 0.6 -->
      <g transform="translate(34.307075 147.757476)scale(0.2 -0.2)">
       <use xlink:href="#DejaVuSans-30"/>
       <use x="63.623047" xlink:href="#DejaVuSans-2e"/>
       <use x="95.410156" xlink:href="#DejaVuSans-36"/>
      </g>
     </g>
    </g>
    <g id="ytick_5">
     <g id="line2d_19">
      <path clip-path="url(#p0ff094bcc8)" d="M 73.113325 87.463593 
L 430.233325 87.463593 
" style="fill:none;stroke:#b0b0b0;stroke-linecap:square;stroke-width:0.8;"/>
     </g>
     <g id="line2d_20">
      <g>
       <use style="stroke:#000000;stroke-width:0.8;" x="73.113325" xlink:href="#m91a8ceac60" y="87.463593"/>
      </g>
     </g>
     <g id="text_11">
      <!-- 0.8 -->
      <g transform="translate(34.307075 95.06203)scale(0.2 -0.2)">
       <use xlink:href="#DejaVuSans-30"/>
       <use x="63.623047" xlink:href="#DejaVuSans-2e"/>
       <use x="95.410156" xlink:href="#DejaVuSans-38"/>
      </g>
     </g>
    </g>
    <g id="ytick_6">
     <g id="line2d_21">
      <path clip-path="url(#p0ff094bcc8)" d="M 73.113325 34.768147 
L 430.233325 34.768147 
" style="fill:none;stroke:#b0b0b0;stroke-linecap:square;stroke-width:0.8;"/>
     </g>
     <g id="line2d_22">
      <g>
       <use style="stroke:#000000;stroke-width:0.8;" x="73.113325" xlink:href="#m91a8ceac60" y="34.768147"/>
      </g>
     </g>
     <g id="text_12">
      <!-- 1.0 -->
      <g transform="translate(34.307075 42.366585)scale(0.2 -0.2)">
       <use xlink:href="#DejaVuSans-31"/>
       <use x="63.623047" xlink:href="#DejaVuSans-2e"/>
       <use x="95.410156" xlink:href="#DejaVuSans-30"/>
      </g>
     </g>
    </g>
    <g id="text_13">
     <!-- Proportion of function+target pairs -->
     <defs>
      <path d="M 19.671875 64.796875 
L 19.671875 37.40625 
L 32.078125 37.40625 
Q 38.96875 37.40625 42.71875 40.96875 
Q 46.484375 44.53125 46.484375 51.125 
Q 46.484375 57.671875 42.71875 61.234375 
Q 38.96875 64.796875 32.078125 64.796875 
z
M 9.8125 72.90625 
L 32.078125 72.90625 
Q 44.34375 72.90625 50.609375 67.359375 
Q 56.890625 61.8125 56.890625 51.125 
Q 56.890625 40.328125 50.609375 34.8125 
Q 44.34375 29.296875 32.078125 29.296875 
L 19.671875 29.296875 
L 19.671875 0 
L 9.8125 0 
z
" id="DejaVuSans-50"/>
      <path d="M 41.109375 46.296875 
Q 39.59375 47.171875 37.8125 47.578125 
Q 36.03125 48 33.890625 48 
Q 26.265625 48 22.1875 43.046875 
Q 18.109375 38.09375 18.109375 28.8125 
L 18.109375 0 
L 9.078125 0 
L 9.078125 54.6875 
L 18.109375 54.6875 
L 18.109375 46.1875 
Q 20.953125 51.171875 25.484375 53.578125 
Q 30.03125 56 36.53125 56 
Q 37.453125 56 38.578125 55.875 
Q 39.703125 55.765625 41.0625 55.515625 
z
" id="DejaVuSans-72"/>
      <path d="M 18.109375 8.203125 
L 18.109375 -20.796875 
L 9.078125 -20.796875 
L 9.078125 54.6875 
L 18.109375 54.6875 
L 18.109375 46.390625 
Q 20.953125 51.265625 25.265625 53.625 
Q 29.59375 56 35.59375 56 
Q 45.5625 56 51.78125 48.09375 
Q 58.015625 40.1875 58.015625 27.296875 
Q 58.015625 14.40625 51.78125 6.484375 
Q 45.5625 -1.421875 35.59375 -1.421875 
Q 29.59375 -1.421875 25.265625 0.953125 
Q 20.953125 3.328125 18.109375 8.203125 
z
M 48.6875 27.296875 
Q 48.6875 37.203125 44.609375 42.84375 
Q 40.53125 48.484375 33.40625 48.484375 
Q 26.265625 48.484375 22.1875 42.84375 
Q 18.109375 37.203125 18.109375 27.296875 
Q 18.109375 17.390625 22.1875 11.75 
Q 26.265625 6.109375 33.40625 6.109375 
Q 40.53125 6.109375 44.609375 11.75 
Q 48.6875 17.390625 48.6875 27.296875 
z
" id="DejaVuSans-70"/>
      <path d="M 18.3125 70.21875 
L 18.3125 54.6875 
L 36.8125 54.6875 
L 36.8125 47.703125 
L 18.3125 47.703125 
L 18.3125 18.015625 
Q 18.3125 11.328125 20.140625 9.421875 
Q 21.96875 7.515625 27.59375 7.515625 
L 36.8125 7.515625 
L 36.8125 0 
L 27.59375 0 
Q 17.1875 0 13.234375 3.875 
Q 9.28125 7.765625 9.28125 18.015625 
L 9.28125 47.703125 
L 2.6875 47.703125 
L 2.6875 54.6875 
L 9.28125 54.6875 
L 9.28125 70.21875 
z
" id="DejaVuSans-74"/>
      <path d="M 8.5 21.578125 
L 8.5 54.6875 
L 17.484375 54.6875 
L 17.484375 21.921875 
Q 17.484375 14.15625 20.5 10.265625 
Q 23.53125 6.390625 29.59375 6.390625 
Q 36.859375 6.390625 41.078125 11.03125 
Q 45.3125 15.671875 45.3125 23.6875 
L 45.3125 54.6875 
L 54.296875 54.6875 
L 54.296875 0 
L 45.3125 0 
L 45.3125 8.40625 
Q 42.046875 3.421875 37.71875 1 
Q 33.40625 -1.421875 27.6875 -1.421875 
Q 18.265625 -1.421875 13.375 4.4375 
Q 8.5 10.296875 8.5 21.578125 
z
M 31.109375 56 
z
" id="DejaVuSans-75"/>
      <path d="M 48.78125 52.59375 
L 48.78125 44.1875 
Q 44.96875 46.296875 41.140625 47.34375 
Q 37.3125 48.390625 33.40625 48.390625 
Q 24.65625 48.390625 19.8125 42.84375 
Q 14.984375 37.3125 14.984375 27.296875 
Q 14.984375 17.28125 19.8125 11.734375 
Q 24.65625 6.203125 33.40625 6.203125 
Q 37.3125 6.203125 41.140625 7.25 
Q 44.96875 8.296875 48.78125 10.40625 
L 48.78125 2.09375 
Q 45.015625 0.34375 40.984375 -0.53125 
Q 36.96875 -1.421875 32.421875 -1.421875 
Q 20.0625 -1.421875 12.78125 6.34375 
Q 5.515625 14.109375 5.515625 27.296875 
Q 5.515625 40.671875 12.859375 48.328125 
Q 20.21875 56 33.015625 56 
Q 37.15625 56 41.109375 55.140625 
Q 45.0625 54.296875 48.78125 52.59375 
z
" id="DejaVuSans-63"/>
      <path d="M 46 62.703125 
L 46 35.5 
L 73.1875 35.5 
L 73.1875 27.203125 
L 46 27.203125 
L 46 0 
L 37.796875 0 
L 37.796875 27.203125 
L 10.59375 27.203125 
L 10.59375 35.5 
L 37.796875 35.5 
L 37.796875 62.703125 
z
" id="DejaVuSans-2b"/>
     </defs>
     <g transform="translate(26.563638 323.17875)rotate(-90)scale(0.18 -0.18)">
      <use xlink:href="#DejaVuSans-50"/>
      <use x="60.287109" xlink:href="#DejaVuSans-72"/>
      <use x="101.369141" xlink:href="#DejaVuSans-6f"/>
      <use x="162.550781" xlink:href="#DejaVuSans-70"/>
      <use x="226.027344" xlink:href="#DejaVuSans-6f"/>
      <use x="287.208984" xlink:href="#DejaVuSans-72"/>
      <use x="328.322266" xlink:href="#DejaVuSans-74"/>
      <use x="367.53125" xlink:href="#DejaVuSans-69"/>
      <use x="395.314453" xlink:href="#DejaVuSans-6f"/>
      <use x="456.496094" xlink:href="#DejaVuSans-6e"/>
      <use x="519.875" xlink:href="#DejaVuSans-20"/>
      <use x="551.662109" xlink:href="#DejaVuSans-6f"/>
      <use x="612.84375" xlink:href="#DejaVuSans-66"/>
      <use x="648.048828" xlink:href="#DejaVuSans-20"/>
      <use x="679.835938" xlink:href="#DejaVuSans-66"/>
      <use x="715.041016" xlink:href="#DejaVuSans-75"/>
      <use x="778.419922" xlink:href="#DejaVuSans-6e"/>
      <use x="841.798828" xlink:href="#DejaVuSans-63"/>
      <use x="896.779297" xlink:href="#DejaVuSans-74"/>
      <use x="935.988281" xlink:href="#DejaVuSans-69"/>
      <use x="963.771484" xlink:href="#DejaVuSans-6f"/>
      <use x="1024.953125" xlink:href="#DejaVuSans-6e"/>
      <use x="1088.332031" xlink:href="#DejaVuSans-2b"/>
      <use x="1172.121094" xlink:href="#DejaVuSans-74"/>
      <use x="1211.330078" xlink:href="#DejaVuSans-61"/>
      <use x="1272.609375" xlink:href="#DejaVuSans-72"/>
      <use x="1313.707031" xlink:href="#DejaVuSans-67"/>
      <use x="1377.183594" xlink:href="#DejaVuSans-65"/>
      <use x="1438.707031" xlink:href="#DejaVuSans-74"/>
      <use x="1477.916016" xlink:href="#DejaVuSans-20"/>
      <use x="1509.703125" xlink:href="#DejaVuSans-70"/>
      <use x="1573.179688" xlink:href="#DejaVuSans-61"/>
      <use x="1634.458984" xlink:href="#DejaVuSans-69"/>
      <use x="1662.242188" xlink:href="#DejaVuSans-72"/>
      <use x="1703.355469" xlink:href="#DejaVuSans-73"/>
     </g>
    </g>
   </g>
   <g id="line2d_23">
    <defs>
     <path d="M 0 1.5 
C 0.397805 1.5 0.77937 1.341951 1.06066 1.06066 
C 1.341951 0.77937 1.5 0.397805 1.5 0 
C 1.5 -0.397805 1.341951 -0.77937 1.06066 -1.06066 
C 0.77937 -1.341951 0.397805 -1.5 0 -1.5 
C -0.397805 -1.5 -0.77937 -1.341951 -1.06066 -1.06066 
C -1.341951 -0.77937 -1.5 -0.397805 -1.5 0 
C -1.5 0.397805 -1.341951 0.77937 -1.06066 1.06066 
C -0.77937 1.341951 -0.397805 1.5 0 1.5 
z
" id="mf63675f7ff" style="stroke:#00bfbf;"/>
    </defs>
    <g>
     <use style="fill:#00bfbf;stroke:#00bfbf;" x="273.033394" xlink:href="#mf63675f7ff" y="34.768147"/>
     <use style="fill:#00bfbf;stroke:#00bfbf;" x="273.033394" xlink:href="#mf63675f7ff" y="34.768147"/>
    </g>
   </g>
   <g id="line2d_24">
    <path d="M 60.728091 298.245375 
L 60.728091 287.396313 
L 73.113325 287.396313 
L 73.113325 283.263337 
L 80.358223 283.263337 
L 80.358223 280.680226 
L 85.498559 280.680226 
L 85.498559 278.613738 
L 97.883794 278.613738 
L 97.883794 277.580494 
L 99.988354 277.580494 
L 99.988354 275.514006 
L 110.269028 275.514006 
L 110.269028 273.447518 
L 111.352275 273.447518 
L 111.352275 272.930896 
L 113.339668 272.930896 
L 113.339668 272.414274 
L 114.256183 272.414274 
L 114.256183 271.38103 
L 115.127971 271.38103 
L 115.127971 270.864408 
L 116.753465 270.864408 
L 116.753465 269.831164 
L 118.243337 269.831164 
L 118.243337 269.314542 
L 120.895323 269.314542 
L 120.895323 267.764676 
L 122.086972 267.764676 
L 122.086972 266.731432 
L 124.255462 266.731432 
L 124.255462 265.181566 
L 124.758823 265.181566 
L 124.758823 264.148322 
L 128.745978 264.148322 
L 128.745978 262.081834 
L 129.138699 262.081834 
L 129.138699 261.565212 
L 129.522975 261.565212 
L 129.522975 258.982102 
L 130.982407 258.982102 
L 130.982407 258.46548 
L 132.9698 258.46548 
L 132.9698 255.365748 
L 133.280557 255.365748 
L 133.280557 254.332504 
L 134.472206 254.332504 
L 134.472206 253.815882 
L 135.316526 253.815882 
L 135.316526 253.29926 
L 136.383597 253.29926 
L 136.383597 252.782638 
L 136.640696 252.782638 
L 136.640696 251.749394 
L 140.729664 251.749394 
L 140.729664 250.71615 
L 141.908209 250.71615 
L 141.908209 248.649662 
L 147.974562 248.649662 
L 147.974562 246.583173 
L 149.153106 246.583173 
L 149.153106 244.516685 
L 149.652946 244.516685 
L 149.652946 244.000063 
L 150.018859 244.000063 
L 150.018859 243.483441 
L 150.844595 243.483441 
L 150.844595 241.416953 
L 151.523213 241.416953 
L 151.523213 240.900331 
L 151.74381 240.900331 
L 151.74381 240.383709 
L 152.910689 240.383709 
L 152.910689 238.317221 
L 153.114898 238.317221 
L 153.114898 236.767355 
L 153.615438 236.767355 
L 153.615438 236.250733 
L 154.198146 236.250733 
L 154.198146 235.734111 
L 155.128987 235.734111 
L 155.128987 235.217489 
L 155.309475 235.217489 
L 155.309475 234.184245 
L 156.355712 234.184245 
L 156.440195 233.151001 
L 156.938873 233.151001 
L 156.938873 231.601135 
L 158.127878 231.601135 
L 158.127878 229.534647 
L 158.507257 229.534647 
L 158.507257 227.984781 
L 159.528571 227.984781 
L 159.599336 226.951537 
L 160.42735 226.951537 
L 160.42735 225.918293 
L 161.089208 225.918293 
L 161.089208 224.885049 
L 162.524418 224.885049 
L 162.524418 224.368427 
L 163.57236 224.368427 
L 163.57236 223.851805 
L 163.741194 223.851805 
L 163.741194 222.818561 
L 164.77495 222.818561 
L 164.827736 221.785317 
L 166.000672 221.785317 
L 166.000672 219.202207 
L 166.678677 219.202207 
L 166.678677 218.168963 
L 167.193914 218.168963 
L 167.193914 217.652341 
L 167.604693 217.652341 
L 167.604693 216.619097 
L 167.828888 216.619097 
L 167.873392 215.585853 
L 169.729297 215.585853 
L 169.729297 211.452876 
L 170.00756 211.452876 
L 170.00756 209.90301 
L 171.079203 209.90301 
L 171.079203 207.836522 
L 171.373941 207.836522 
L 171.410444 204.220168 
L 171.627909 204.220168 
L 171.627909 203.703546 
L 171.913805 203.703546 
L 171.913805 203.186924 
L 172.125264 203.186924 
L 172.125264 202.670302 
L 172.33425 202.670302 
L 172.437834 199.053948 
L 174.081282 199.053948 
L 174.081282 198.537326 
L 174.423414 198.537326 
L 174.423414 195.954216 
L 175.088633 195.954216 
L 175.088633 194.920972 
L 179.276489 194.920972 
L 179.276489 192.854484 
L 179.967352 192.854484 
L 179.967352 189.754752 
L 180.102376 189.754752 
L 180.102376 188.721508 
L 181.544657 188.721508 
L 181.544657 186.65502 
L 212.192317 186.65502 
L 212.266582 185.105154 
L 212.347918 185.105154 
L 212.447237 182.005422 
L 212.560593 182.005422 
L 212.560593 181.4888 
L 212.673234 181.4888 
L 212.777969 177.872445 
L 212.824721 177.872445 
L 212.907137 175.289335 
L 212.960683 175.289335 
L 213.035378 172.189603 
L 213.102691 172.189603 
L 213.183838 169.606493 
L 213.264617 169.606493 
L 213.338055 166.506761 
L 213.407717 166.506761 
L 213.487493 164.440273 
L 213.621957 164.440273 
L 213.680254 162.890407 
L 213.775861 162.890407 
L 213.799683 158.757431 
L 213.894654 158.757431 
L 213.925073 157.207565 
L 214.012662 157.207565 
L 214.022741 152.041345 
L 214.13991 152.041345 
L 214.176576 151.008101 
L 214.817595 151.008101 
L 214.913712 148.424991 
L 215.145459 148.424991 
L 215.145459 146.875125 
L 224.575691 146.875125 
L 224.657374 144.808637 
L 224.736841 144.808637 
L 224.847138 143.25877 
L 224.870947 143.25877 
L 224.974964 140.159038 
L 225.00042 140.159038 
L 225.060279 136.026062 
L 225.114524 136.026062 
L 225.157801 134.476196 
L 225.235079 134.476196 
L 225.315594 129.826598 
L 225.37085 129.826598 
L 225.472005 123.110512 
L 225.509129 123.110512 
L 225.576111 118.460914 
L 225.621796 118.460914 
L 225.707578 117.42767 
L 225.936637 117.42767 
L 225.988289 115.877804 
L 226.113356 115.877804 
L 226.113356 115.361182 
L 231.847238 115.361182 
L 231.927566 113.294694 
L 232.017353 113.294694 
L 232.111573 107.095229 
L 232.210154 107.095229 
L 232.310609 102.962253 
L 232.363633 102.962253 
L 232.423698 97.279411 
L 232.493122 97.279411 
L 232.511032 95.729545 
L 232.738715 95.729545 
L 232.77403 94.696301 
L 236.980451 94.696301 
L 237.040755 92.629813 
L 237.122075 92.629813 
L 237.192009 91.079947 
L 237.292747 91.079947 
L 237.401091 86.946971 
L 237.409259 86.946971 
L 237.510587 81.264129 
L 237.534929 81.264129 
L 237.534929 80.747507 
L 237.685647 80.747507 
L 237.745402 79.714263 
L 241.011602 79.714263 
L 241.02124 78.681019 
L 241.182102 78.681019 
L 241.275152 75.064664 
L 241.306548 75.064664 
L 241.388791 71.964932 
L 241.503876 71.964932 
L 241.578034 69.898444 
L 244.347293 69.898444 
L 244.450983 67.315334 
L 244.478492 67.315334 
L 244.560156 62.665736 
L 244.687996 62.665736 
L 244.732013 61.11587 
L 247.216461 61.11587 
L 247.232176 58.016138 
L 247.377145 58.016138 
L 247.411908 56.982894 
L 249.579998 56.982894 
L 249.612108 55.94965 
L 249.694868 55.94965 
L 249.694868 55.433028 
L 251.613919 55.433028 
L 251.696084 51.300052 
L 253.494833 51.300052 
L 253.546021 48.20032 
L 253.650153 48.20032 
L 253.650153 47.167076 
L 255.169628 47.167076 
L 255.220931 44.583966 
L 255.302109 44.583966 
L 255.302109 44.067344 
L 256.701117 44.067344 
L 256.774935 42.517478 
L 256.834688 42.517478 
L 256.834688 42.000855 
L 258.134127 42.000855 
L 258.184688 40.967611 
L 259.46175 40.967611 
L 259.473103 39.934367 
L 260.686669 39.934367 
L 260.697516 38.901123 
L 262.917774 38.901123 
L 262.92278 37.867879 
L 263.935121 37.867879 
L 263.935121 37.351257 
L 265.783924 37.351257 
L 265.822258 36.318013 
L 268.291634 36.318013 
L 268.291634 35.801391 
L 271.12882 35.801391 
L 271.12882 35.284769 
L 273.033394 35.284769 
L 273.033394 34.768147 
L 361.113325 34.768147 
L 361.113325 34.768147 
" style="fill:none;stroke:#00bfbf;stroke-linecap:square;stroke-width:1.5;"/>
   </g>
   <g id="line2d_25">
    <defs>
     <path d="M -6 0 
L 6 0 
M 0 6 
L 0 -6 
" id="m54d28cc16c" style="stroke:#00bfbf;stroke-width:1.5;"/>
    </defs>
    <g>
     <use style="fill:none;stroke:#00bfbf;stroke-width:1.5;" x="122.086972" xlink:href="#m54d28cc16c" y="267.764676"/>
     <use style="fill:none;stroke:#00bfbf;stroke-width:1.5;" x="179.276489" xlink:href="#m54d28cc16c" y="192.854484"/>
     <use style="fill:none;stroke:#00bfbf;stroke-width:1.5;" x="225.376188" xlink:href="#m54d28cc16c" y="128.276732"/>
     <use style="fill:none;stroke:#00bfbf;stroke-width:1.5;" x="273.033394" xlink:href="#m54d28cc16c" y="35.284769"/>
     <use style="fill:none;stroke:#00bfbf;stroke-width:1.5;" x="273.033394" xlink:href="#m54d28cc16c" y="34.768147"/>
     <use style="fill:none;stroke:#00bfbf;stroke-width:1.5;" x="361.113325" xlink:href="#m54d28cc16c" y="34.768147"/>
    </g>
   </g>
   <g id="line2d_26"/>
   <g id="line2d_27">
    <path clip-path="url(#p0ff094bcc8)" d="M 212.188596 186.65502 
" style="fill:none;stroke:#00bfbf;stroke-linecap:square;stroke-width:1.5;"/>
    <defs>
     <path d="M -12 12 
L 12 -12 
M -12 -12 
L 12 12 
" id="m54b45e8a89" style="stroke:#00bfbf;stroke-width:3;"/>
    </defs>
    <g clip-path="url(#p0ff094bcc8)">
     <use style="fill:#00bfbf;stroke:#00bfbf;stroke-width:3;" x="212.188596" xlink:href="#m54b45e8a89" y="186.65502"/>
    </g>
   </g>
   <g id="line2d_28">
    <defs>
     <path d="M 0 1.5 
C 0.397805 1.5 0.77937 1.341951 1.06066 1.06066 
C 1.341951 0.77937 1.5 0.397805 1.5 0 
C 1.5 -0.397805 1.341951 -0.77937 1.06066 -1.06066 
C 0.77937 -1.341951 0.397805 -1.5 0 -1.5 
C -0.397805 -1.5 -0.77937 -1.341951 -1.06066 -1.06066 
C -1.341951 -0.77937 -1.5 -0.397805 -1.5 0 
C -1.5 0.397805 -1.341951 0.77937 -1.06066 1.06066 
C -0.77937 1.341951 -0.397805 1.5 0 1.5 
z
" id="mee5a947a4c" style="stroke:#008000;"/>
    </defs>
    <g>
     <use style="fill:#008000;stroke:#008000;" x="293.18597" xlink:href="#mee5a947a4c" y="189.754752"/>
     <use style="fill:#008000;stroke:#008000;" x="293.18597" xlink:href="#mee5a947a4c" y="189.754752"/>
    </g>
   </g>
   <g id="line2d_29">
    <path d="M 53.483194 298.245375 
L 53.483194 291.529289 
L 65.868428 291.529289 
L 65.868428 289.979423 
L 78.253662 289.979423 
L 78.253662 289.462801 
L 85.498559 289.462801 
L 85.498559 287.912935 
L 88.252942 287.912935 
L 88.252942 286.363069 
L 94.626051 286.363069 
L 94.626051 285.846447 
L 96.329064 285.846447 
L 96.329064 285.329825 
L 106.09477 285.329825 
L 106.09477 284.296581 
L 107.011285 284.296581 
L 107.011285 282.746715 
L 113.02341 282.746715 
L 113.02341 281.713471 
L 114.256183 281.713471 
L 114.256183 280.680226 
L 116.492612 280.680226 
L 116.492612 279.646982 
L 118.003493 279.646982 
L 118.003493 279.13036 
L 118.944138 279.13036 
L 118.944138 278.613738 
L 121.099532 278.613738 
L 121.099532 277.063872 
L 122.278077 277.063872 
L 122.278077 276.54725 
L 123.02269 276.54725 
L 123.02269 275.514006 
L 125.408644 275.514006 
L 125.408644 274.997384 
L 131.556994 274.997384 
L 131.556994 274.480762 
L 132.865001 274.480762 
L 132.865001 273.96414 
L 134.279036 273.96414 
L 134.279036 273.447518 
L 135.946702 273.447518 
L 135.946702 272.930896 
L 136.122744 272.930896 
L 136.122744 272.414274 
L 136.297068 272.414274 
L 136.297068 271.38103 
L 139.321998 271.38103 
L 139.321998 270.347786 
L 142.530854 270.347786 
L 142.530854 269.314542 
L 144.278315 269.314542 
L 144.278315 268.79792 
L 145.665791 268.79792 
L 145.665791 268.281298 
L 147.237628 268.281298 
L 147.237628 267.764676 
L 148.682302 267.764676 
L 148.682302 266.21481 
L 150.49537 266.21481 
L 150.49537 265.698188 
L 151.0357 265.698188 
L 151.0357 264.664944 
L 151.26236 264.664944 
L 151.26236 264.148322 
L 152.842097 264.148322 
L 152.842097 263.6317 
L 153.582502 263.6317 
L 153.582502 263.115078 
L 154.482525 263.115078 
L 154.482525 262.598456 
L 157.102053 262.598456 
L 157.102053 261.565212 
L 157.635469 261.565212 
L 157.635469 261.04859 
L 159.949016 261.04859 
L 159.949016 260.015346 
L 160.71717 260.015346 
L 160.71717 259.498724 
L 161.83161 259.498724 
L 161.83161 258.982102 
L 163.22983 258.982102 
L 163.22983 257.948858 
L 165.567687 257.948858 
L 165.567687 256.915614 
L 175.729972 256.915614 
L 175.729972 256.398992 
L 175.863103 256.398992 
L 175.863103 255.88237 
L 212.192317 255.88237 
L 212.256698 252.782638 
L 212.308529 252.782638 
L 212.414192 250.71615 
L 212.438676 250.71615 
L 212.441122 248.649662 
L 212.613974 248.649662 
L 212.691336 247.099796 
L 212.761157 247.099796 
L 212.768364 246.066551 
L 212.880901 246.066551 
L 212.949986 244.000063 
L 213.122718 244.000063 
L 213.223688 241.416953 
L 224.62091 241.416953 
L 224.731923 237.800599 
L 224.771229 237.800599 
L 224.865455 234.184245 
L 224.899597 234.184245 
L 224.97739 231.601135 
L 225.207561 231.601135 
L 225.218334 230.567891 
L 231.902477 230.567891 
L 231.987065 228.501403 
L 232.055754 228.501403 
L 232.112794 226.951537 
L 232.243298 226.951537 
L 232.250565 225.918293 
L 237.0753 225.918293 
L 237.13375 223.851805 
L 237.20425 223.851805 
L 237.206697 221.268695 
L 240.995526 221.268695 
L 241.088319 219.718829 
L 241.122747 219.718829 
L 241.144354 218.685585 
L 244.296764 218.685585 
L 244.350984 216.102475 
L 244.58851 216.102475 
L 244.58851 215.585853 
L 247.057844 215.585853 
L 247.073699 214.035987 
L 249.401892 214.035987 
L 249.43278 211.452876 
L 251.705734 211.452876 
L 251.705734 210.936254 
L 253.370117 210.936254 
L 253.419318 208.869766 
L 253.524434 208.869766 
L 253.524434 208.353144 
L 255.051037 208.353144 
L 255.152383 207.3199 
L 258.054396 207.3199 
L 258.073435 205.253412 
L 259.436027 205.253412 
L 259.436027 204.220168 
L 260.629616 204.220168 
L 260.662569 202.15368 
L 261.757733 202.15368 
L 261.773209 200.603814 
L 262.888732 200.603814 
L 262.888732 200.087192 
L 263.855033 200.087192 
L 263.88241 198.537326 
L 264.836765 198.537326 
L 264.836765 198.020704 
L 266.615334 198.020704 
L 266.620878 196.98746 
L 267.450575 196.98746 
L 267.451138 195.954216 
L 268.269816 195.954216 
L 268.269816 195.437594 
L 269.725217 195.437594 
L 269.725217 194.920972 
L 270.421525 194.920972 
L 270.421525 194.40435 
L 271.099609 194.40435 
L 271.110804 193.371106 
L 272.374085 193.371106 
L 272.374085 192.337862 
L 274.135999 192.337862 
L 274.135999 191.82124 
L 276.242883 191.82124 
L 276.242883 191.304618 
L 277.660383 191.304618 
L 277.660383 190.787996 
L 283.471713 190.787996 
L 283.471713 190.271374 
L 293.18597 190.271374 
L 293.18597 189.754752 
L 361.113325 189.754752 
L 361.113325 189.754752 
" style="fill:none;stroke:#008000;stroke-linecap:square;stroke-width:1.5;"/>
   </g>
   <g id="line2d_30">
    <defs>
     <path d="M -0 6 
L 6 -6 
L -6 -6 
z
" id="md5c2b646a7" style="stroke:#008000;stroke-linejoin:miter;stroke-width:1.5;"/>
    </defs>
    <g>
     <use style="fill:none;stroke:#008000;stroke-linejoin:miter;stroke-width:1.5;" x="134.279036" xlink:href="#md5c2b646a7" y="273.447518"/>
     <use style="fill:none;stroke:#008000;stroke-linejoin:miter;stroke-width:1.5;" x="212.256698" xlink:href="#md5c2b646a7" y="252.782638"/>
     <use style="fill:none;stroke:#008000;stroke-linejoin:miter;stroke-width:1.5;" x="255.152383" xlink:href="#md5c2b646a7" y="207.836522"/>
     <use style="fill:none;stroke:#008000;stroke-linejoin:miter;stroke-width:1.5;" x="293.18597" xlink:href="#md5c2b646a7" y="190.271374"/>
     <use style="fill:none;stroke:#008000;stroke-linejoin:miter;stroke-width:1.5;" x="293.18597" xlink:href="#md5c2b646a7" y="189.754752"/>
     <use style="fill:none;stroke:#008000;stroke-linejoin:miter;stroke-width:1.5;" x="361.113325" xlink:href="#md5c2b646a7" y="189.754752"/>
    </g>
   </g>
   <g id="line2d_31"/>
   <g id="line2d_32">
    <path clip-path="url(#p0ff094bcc8)" d="M 212.187355 255.88237 
" style="fill:none;stroke:#008000;stroke-linecap:square;stroke-width:1.5;"/>
    <defs>
     <path d="M -12 12 
L 12 -12 
M -12 -12 
L 12 12 
" id="m0113170aa0" style="stroke:#008000;stroke-width:3;"/>
    </defs>
    <g clip-path="url(#p0ff094bcc8)">
     <use style="fill:#008000;stroke:#008000;stroke-width:3;" x="212.187355" xlink:href="#m0113170aa0" y="255.88237"/>
    </g>
   </g>
   <g id="line2d_33">
    <defs>
     <path d="M 0 1.5 
C 0.397805 1.5 0.77937 1.341951 1.06066 1.06066 
C 1.341951 0.77937 1.5 0.397805 1.5 0 
C 1.5 -0.397805 1.341951 -0.77937 1.06066 -1.06066 
C 0.77937 -1.341951 0.397805 -1.5 0 -1.5 
C -0.397805 -1.5 -0.77937 -1.341951 -1.06066 -1.06066 
C -1.341951 -0.77937 -1.5 -0.397805 -1.5 0 
C -1.5 0.397805 -1.341951 0.77937 -1.06066 1.06066 
C -0.77937 1.341951 -0.397805 1.5 0 1.5 
z
" id="m89165d6ecc" style="stroke:#0000ff;"/>
    </defs>
    <g>
     <use style="fill:#0000ff;stroke:#0000ff;" x="269.747229" xlink:href="#m89165d6ecc" y="200.087192"/>
     <use style="fill:#0000ff;stroke:#0000ff;" x="269.747229" xlink:href="#m89165d6ecc" y="200.087192"/>
    </g>
   </g>
   <g id="line2d_34">
    <path d="M 44.355702 298.245375 
L 44.355702 294.629021 
L 56.740936 294.629021 
L 56.740936 291.012667 
L 63.985834 291.012667 
L 63.985834 289.979423 
L 73.113325 289.979423 
L 73.113325 288.429557 
L 81.511405 288.429557 
L 81.511405 287.912935 
L 83.615966 287.912935 
L 83.615966 286.363069 
L 85.498559 286.363069 
L 85.498559 285.846447 
L 87.201573 285.846447 
L 87.201573 283.779959 
L 88.756302 283.779959 
L 88.756302 281.196849 
L 92.743457 281.196849 
L 92.743457 280.680226 
L 96.967279 280.680226 
L 96.967279 278.613738 
L 101.870948 278.613738 
L 101.870948 278.097116 
L 103.895918 278.097116 
L 103.895918 275.514006 
L 106.831704 275.514006 
L 106.831704 274.997384 
L 107.883073 274.997384 
L 107.883073 274.480762 
L 110.269028 274.480762 
L 110.269028 273.96414 
L 110.710238 273.96414 
L 110.710238 272.414274 
L 112.76631 272.414274 
L 112.76631 271.897652 
L 113.52677 271.897652 
L 113.52677 271.38103 
L 114.956983 271.38103 
L 114.956983 270.864408 
L 115.631331 270.864408 
L 115.631331 270.347786 
L 116.597411 270.347786 
L 116.597411 269.831164 
L 121.261236 269.831164 
L 121.261236 269.314542 
L 123.095472 269.314542 
L 123.095472 268.79792 
L 123.52605 268.79792 
L 123.52605 268.281298 
L 126.097168 268.281298 
L 126.097168 267.764676 
L 129.446778 267.764676 
L 129.446778 266.731432 
L 130.34037 266.731432 
L 130.34037 265.698188 
L 132.396442 265.698188 
L 132.396442 265.181566 
L 133.64647 265.181566 
L 133.64647 264.664944 
L 135.371421 264.664944 
L 135.371421 264.148322 
L 135.911284 264.148322 
L 135.911284 263.6317 
L 137.243049 263.6317 
L 137.243049 263.115078 
L 137.729949 263.115078 
L 137.729949 262.081834 
L 138.110136 262.081834 
L 138.110136 261.565212 
L 139.380486 261.565212 
L 139.380486 261.04859 
L 140.4018 261.04859 
L 140.4018 260.531968 
L 140.891368 260.531968 
L 140.891368 259.498724 
L 141.367879 259.498724 
L 141.367879 258.982102 
L 142.059634 258.982102 
L 142.059634 258.46548 
L 143.085135 258.46548 
L 143.156182 255.88237 
L 144.189309 255.88237 
L 144.189309 255.365748 
L 145.604071 255.365748 
L 145.604071 254.849126 
L 145.7273 254.849126 
L 145.7273 253.815882 
L 146.390274 253.815882 
L 146.390274 253.29926 
L 146.741789 253.29926 
L 146.741789 252.782638 
L 147.756655 252.782638 
L 147.756655 252.266016 
L 147.974562 252.266016 
L 147.974562 251.749394 
L 148.923534 251.749394 
L 148.923534 250.71615 
L 149.329645 250.71615 
L 149.329645 250.199528 
L 149.578856 250.199528 
L 149.578856 248.649662 
L 151.141833 248.649662 
L 151.141833 248.13304 
L 153.870281 248.13304 
L 153.870281 247.616418 
L 155.541416 247.616418 
L 155.541416 247.099796 
L 158.656782 247.099796 
L 158.656782 246.066551 
L 159.893525 246.066551 
L 159.893525 245.549929 
L 162.379931 245.549929 
L 162.379931 245.033307 
L 164.454915 245.033307 
L 164.454915 244.516685 
L 166.138347 244.516685 
L 166.138347 244.000063 
L 178.582261 244.000063 
L 178.582261 242.966819 
L 212.20422 242.966819 
L 212.310993 239.867087 
L 212.330204 239.867087 
L 212.390656 237.283977 
L 212.461171 237.283977 
L 212.569339 233.667623 
L 212.639153 233.667623 
L 212.731817 230.567891 
L 212.908567 230.567891 
L 212.97992 227.984781 
L 213.075088 227.984781 
L 213.075088 227.468159 
L 213.255504 227.468159 
L 213.293329 226.434915 
L 213.495105 226.434915 
L 213.495105 225.918293 
L 213.711041 225.918293 
L 213.711041 225.401671 
L 224.662929 225.401671 
L 224.764111 224.368427 
L 224.828803 224.368427 
L 224.828803 223.851805 
L 225.021484 223.851805 
L 225.021484 223.335183 
L 225.133651 223.335183 
L 225.183358 221.268695 
L 225.350193 221.268695 
L 225.350193 220.752073 
L 225.88449 220.752073 
L 225.88449 220.235451 
L 231.921894 220.235451 
L 232.017844 215.585853 
L 232.072232 215.585853 
L 232.180029 214.035987 
L 232.702386 214.035987 
L 232.702386 213.519365 
L 237.02593 213.519365 
L 237.02593 213.002743 
L 237.230173 213.002743 
L 237.265329 211.452876 
L 241.121764 211.452876 
L 241.170933 210.419632 
L 241.480773 210.419632 
L 241.480773 209.90301 
L 244.290592 209.90301 
L 244.302687 208.869766 
L 244.425637 208.869766 
L 244.425637 208.353144 
L 249.402634 208.353144 
L 249.417837 207.3199 
L 251.497506 207.3199 
L 251.54561 206.286656 
L 253.443054 206.286656 
L 253.443054 204.73679 
L 256.631449 204.73679 
L 256.661252 203.186924 
L 259.422729 203.186924 
L 259.422729 202.670302 
L 261.783045 202.670302 
L 261.79853 201.637058 
L 263.865576 201.637058 
L 263.865576 201.120436 
L 269.019716 201.120436 
L 269.019716 200.603814 
L 269.747229 200.603814 
L 269.747229 200.087192 
L 361.113325 200.087192 
L 361.113325 200.087192 
" style="fill:none;stroke:#0000ff;stroke-linecap:square;stroke-width:1.5;"/>
   </g>
   <g id="line2d_35">
    <defs>
     <path d="M 0 -6 
L -1.347084 -1.854102 
L -5.706339 -1.854102 
L -2.179628 0.708204 
L -3.526712 4.854102 
L -0 2.291796 
L 3.526712 4.854102 
L 2.179628 0.708204 
L 5.706339 -1.854102 
L 1.347084 -1.854102 
z
" id="m795a295338" style="stroke:#0000ff;stroke-linejoin:bevel;stroke-width:1.5;"/>
    </defs>
    <g>
     <use style="fill:none;stroke:#0000ff;stroke-linejoin:bevel;stroke-width:1.5;" x="114.956983" xlink:href="#m795a295338" y="270.864408"/>
     <use style="fill:none;stroke:#0000ff;stroke-linejoin:bevel;stroke-width:1.5;" x="166.138347" xlink:href="#m795a295338" y="244.000063"/>
     <use style="fill:none;stroke:#0000ff;stroke-linejoin:bevel;stroke-width:1.5;" x="237.230173" xlink:href="#m795a295338" y="213.002743"/>
     <use style="fill:none;stroke:#0000ff;stroke-linejoin:bevel;stroke-width:1.5;" x="269.747229" xlink:href="#m795a295338" y="200.087192"/>
     <use style="fill:none;stroke:#0000ff;stroke-linejoin:bevel;stroke-width:1.5;" x="269.747229" xlink:href="#m795a295338" y="200.087192"/>
     <use style="fill:none;stroke:#0000ff;stroke-linejoin:bevel;stroke-width:1.5;" x="361.113325" xlink:href="#m795a295338" y="200.087192"/>
    </g>
   </g>
   <g id="line2d_36"/>
   <g id="line2d_37">
    <path clip-path="url(#p0ff094bcc8)" d="M 212.186363 242.966819 
" style="fill:none;stroke:#0000ff;stroke-linecap:square;stroke-width:1.5;"/>
    <defs>
     <path d="M -12 12 
L 12 -12 
M -12 -12 
L 12 12 
" id="m9f6394a69e" style="stroke:#0000ff;stroke-width:3;"/>
    </defs>
    <g clip-path="url(#p0ff094bcc8)">
     <use style="fill:#0000ff;stroke:#0000ff;stroke-width:3;" x="212.186363" xlink:href="#m9f6394a69e" y="242.966819"/>
    </g>
   </g>
   <g id="line2d_38">
    <defs>
     <path d="M 0 1.5 
C 0.397805 1.5 0.77937 1.341951 1.06066 1.06066 
C 1.341951 0.77937 1.5 0.397805 1.5 0 
C 1.5 -0.397805 1.341951 -0.77937 1.06066 -1.06066 
C 0.77937 -1.341951 0.397805 -1.5 0 -1.5 
C -0.397805 -1.5 -0.77937 -1.341951 -1.06066 -1.06066 
C -1.341951 -0.77937 -1.5 -0.397805 -1.5 0 
C -1.5 0.397805 -1.341951 0.77937 -1.06066 1.06066 
C -0.77937 1.341951 -0.397805 1.5 0 1.5 
z
" id="m9186979913" style="stroke:#000000;"/>
    </defs>
    <g>
     <use style="stroke:#000000;" x="288.371001" xlink:href="#m9186979913" y="205.253412"/>
     <use style="stroke:#000000;" x="288.371001" xlink:href="#m9186979913" y="205.253412"/>
    </g>
   </g>
   <g id="line2d_39">
    <path d="M 31.970468 298.245375 
L 31.970468 295.145643 
L 44.355702 295.145643 
L 44.355702 293.595777 
L 51.6006 293.595777 
L 51.6006 292.045911 
L 56.740936 292.045911 
L 56.740936 291.529289 
L 60.728091 291.529289 
L 60.728091 291.012667 
L 63.985834 291.012667 
L 63.985834 289.979423 
L 73.113325 289.979423 
L 73.113325 289.462801 
L 84.582045 289.462801 
L 84.582045 288.946179 
L 85.498559 288.946179 
L 85.498559 288.429557 
L 87.995842 288.429557 
L 87.995842 287.912935 
L 90.860863 287.912935 
L 90.860863 287.396313 
L 94.44647 287.396313 
L 94.44647 286.363069 
L 100.765352 286.363069 
L 100.765352 285.846447 
L 102.224784 285.846447 
L 102.224784 284.813203 
L 102.571749 284.813203 
L 102.571749 282.746715 
L 102.912104 282.746715 
L 102.912104 282.230093 
L 105.424039 282.230093 
L 105.424039 281.713471 
L 106.558903 281.713471 
L 106.558903 281.196849 
L 109.352513 281.196849 
L 109.352513 280.163604 
L 111.140816 280.163604 
L 111.140816 279.13036 
L 112.76631 279.13036 
L 112.76631 277.580494 
L 114.076602 277.580494 
L 114.076602 276.54725 
L 116.753465 276.54725 
L 116.753465 275.514006 
L 118.526964 275.514006 
L 118.526964 274.997384 
L 118.944138 274.997384 
L 118.944138 274.480762 
L 120.52176 274.480762 
L 120.52176 273.96414 
L 121.737747 273.96414 
L 121.737747 272.930896 
L 121.971321 272.930896 
L 121.971321 272.414274 
L 125.53582 272.414274 
L 125.53582 271.897652 
L 126.189035 271.897652 
L 126.189035 270.864408 
L 126.81921 270.864408 
L 126.81921 270.347786 
L 129.598848 270.347786 
L 129.598848 268.79792 
L 130.485052 268.79792 
L 130.485052 267.764676 
L 131.052341 267.764676 
L 131.052341 267.248054 
L 131.191393 267.248054 
L 131.191393 266.21481 
L 133.094752 266.21481 
L 133.094752 265.698188 
L 133.945775 265.698188 
L 133.945775 265.181566 
L 134.472206 265.181566 
L 134.472206 264.148322 
L 135.261463 264.148322 
L 135.261463 263.115078 
L 139.598127 263.115078 
L 139.598127 262.598456 
L 140.318885 262.598456 
L 140.318885 262.081834 
L 141.446076 262.081834 
L 141.523933 260.531968 
L 142.761884 260.531968 
L 142.761884 259.498724 
L 144.222738 259.498724 
L 144.222738 258.982102 
L 144.422013 258.982102 
L 144.422013 258.46548 
L 145.479986 258.46548 
L 145.479986 257.432236 
L 147.920334 257.432236 
L 147.920334 255.88237 
L 148.507978 255.88237 
L 148.507978 254.849126 
L 149.70217 254.849126 
L 149.70217 254.332504 
L 149.970501 254.332504 
L 149.970501 253.815882 
L 150.890647 253.815882 
L 150.890647 253.29926 
L 151.655898 253.29926 
L 151.655898 252.782638 
L 152.848968 252.782638 
L 152.848968 252.266016 
L 153.694239 252.266016 
L 153.792255 250.71615 
L 155.201401 250.71615 
L 155.201401 249.166284 
L 156.065445 249.166284 
L 156.065445 248.649662 
L 156.270828 248.649662 
L 156.270828 247.616418 
L 160.41386 247.616418 
L 160.41386 247.099796 
L 161.53834 247.099796 
L 161.53834 246.066551 
L 162.075111 246.066551 
L 162.075111 245.549929 
L 166.333203 245.549929 
L 166.333203 245.033307 
L 212.339801 245.033307 
L 212.339801 244.516685 
L 212.593369 244.516685 
L 212.684821 242.966819 
L 212.711588 242.966819 
L 212.755629 240.900331 
L 212.853431 240.900331 
L 212.853431 240.383709 
L 213.139429 240.383709 
L 213.23586 236.767355 
L 213.347127 236.767355 
L 213.347127 236.250733 
L 224.77589 236.250733 
L 224.822197 234.700867 
L 224.888508 234.700867 
L 224.888508 234.184245 
L 225.103688 234.184245 
L 225.103688 233.151001 
L 231.92214 233.151001 
L 232.028146 230.051269 
L 232.059018 230.051269 
L 232.141327 226.951537 
L 232.267591 226.951537 
L 232.267591 226.434915 
L 237.138847 226.434915 
L 237.218072 225.401671 
L 237.296034 225.401671 
L 237.296034 224.885049 
L 241.044204 224.885049 
L 241.089599 223.335183 
L 244.282442 223.335183 
L 244.329316 221.268695 
L 244.428333 221.268695 
L 244.428333 220.752073 
L 247.023727 220.752073 
L 247.065421 219.202207 
L 247.150413 219.202207 
L 247.150413 218.685585 
L 249.432935 218.685585 
L 249.463369 217.135719 
L 253.396391 217.135719 
L 253.396391 216.619097 
L 255.093241 216.619097 
L 255.098164 215.585853 
L 256.667676 215.585853 
L 256.667676 215.069231 
L 258.12172 215.069231 
L 258.12172 214.035987 
L 259.426116 214.035987 
L 259.426116 213.519365 
L 261.787683 213.519365 
L 261.787683 213.002743 
L 262.852973 213.002743 
L 262.852973 212.48612 
L 264.848685 212.48612 
L 264.848685 211.969498 
L 266.632091 211.969498 
L 266.632091 211.452876 
L 268.240552 211.452876 
L 268.240552 210.936254 
L 269.728061 210.936254 
L 269.730232 209.90301 
L 271.752058 209.90301 
L 271.752058 209.386388 
L 272.981274 209.386388 
L 272.981274 208.869766 
L 275.235368 208.869766 
L 275.235368 208.353144 
L 277.681728 208.353144 
L 277.681728 207.836522 
L 279.406995 207.836522 
L 279.406995 207.3199 
L 280.219826 207.3199 
L 280.219826 206.803278 
L 280.994973 206.803278 
L 280.994973 206.286656 
L 283.479381 206.286656 
L 283.479381 205.770034 
L 288.371001 205.770034 
L 288.371001 205.253412 
L 361.113325 205.253412 
L 361.113325 205.253412 
" style="fill:none;stroke:#000000;stroke-linecap:square;stroke-width:1.5;"/>
   </g>
   <g id="line2d_40">
    <defs>
     <path d="M 0 6 
C 1.591219 6 3.117479 5.367802 4.242641 4.242641 
C 5.367802 3.117479 6 1.591219 6 0 
C 6 -1.591219 5.367802 -3.117479 4.242641 -4.242641 
C 3.117479 -5.367802 1.591219 -6 0 -6 
C -1.591219 -6 -3.117479 -5.367802 -4.242641 -4.242641 
C -5.367802 -3.117479 -6 -1.591219 -6 0 
C -6 1.591219 -5.367802 3.117479 -4.242641 4.242641 
C -3.117479 5.367802 -1.591219 6 0 6 
z
" id="m38d95a2601" style="stroke:#000000;stroke-width:1.5;"/>
    </defs>
    <g>
     <use style="fill:none;stroke:#000000;stroke-width:1.5;" x="63.985834" xlink:href="#m38d95a2601" y="289.979423"/>
     <use style="fill:none;stroke:#000000;stroke-width:1.5;" x="135.261463" xlink:href="#m38d95a2601" y="263.115078"/>
     <use style="fill:none;stroke:#000000;stroke-width:1.5;" x="212.749138" xlink:href="#m38d95a2601" y="241.416953"/>
     <use style="fill:none;stroke:#000000;stroke-width:1.5;" x="268.240552" xlink:href="#m38d95a2601" y="210.936254"/>
     <use style="fill:none;stroke:#000000;stroke-width:1.5;" x="288.371001" xlink:href="#m38d95a2601" y="205.253412"/>
     <use style="fill:none;stroke:#000000;stroke-width:1.5;" x="361.113325" xlink:href="#m38d95a2601" y="205.253412"/>
    </g>
   </g>
   <g id="line2d_41"/>
   <g id="line2d_42">
    <path clip-path="url(#p0ff094bcc8)" d="M 212.185618 245.033307 
" style="fill:none;stroke:#000000;stroke-linecap:square;stroke-width:1.5;"/>
    <defs>
     <path d="M -12 12 
L 12 -12 
M -12 -12 
L 12 12 
" id="m42d046bfc9" style="stroke:#000000;stroke-width:3;"/>
    </defs>
    <g clip-path="url(#p0ff094bcc8)">
     <use style="stroke:#000000;stroke-width:3;" x="212.185618" xlink:href="#m42d046bfc9" y="245.033307"/>
    </g>
   </g>
   <g id="line2d_43">
    <defs>
     <path d="M 0 1.5 
C 0.397805 1.5 0.77937 1.341951 1.06066 1.06066 
C 1.341951 0.77937 1.5 0.397805 1.5 0 
C 1.5 -0.397805 1.341951 -0.77937 1.06066 -1.06066 
C 0.77937 -1.341951 0.397805 -1.5 0 -1.5 
C -0.397805 -1.5 -0.77937 -1.341951 -1.06066 -1.06066 
C -1.341951 -0.77937 -1.5 -0.397805 -1.5 0 
C -1.5 0.397805 -1.341951 0.77937 -1.06066 1.06066 
C -0.77937 1.341951 -0.397805 1.5 0 1.5 
z
" id="m27afd78438" style="stroke:#ff0000;"/>
    </defs>
    <g>
     <use style="fill:#ff0000;stroke:#ff0000;" x="277.194062" xlink:href="#m27afd78438" y="241.416953"/>
     <use style="fill:#ff0000;stroke:#ff0000;" x="277.194062" xlink:href="#m27afd78438" y="241.416953"/>
    </g>
   </g>
   <g id="line2d_44">
    <path d="M 19.585234 298.245375 
L 19.585234 293.079155 
L 31.970468 293.079155 
L 31.970468 292.562533 
L 39.215366 292.562533 
L 39.215366 292.045911 
L 44.355702 292.045911 
L 44.355702 291.012667 
L 51.6006 291.012667 
L 51.6006 290.496045 
L 54.354982 290.496045 
L 54.354982 289.462801 
L 62.431105 289.462801 
L 62.431105 288.946179 
L 70.209418 288.946179 
L 70.209418 288.429557 
L 73.113325 288.429557 
L 73.113325 286.879691 
L 79.12545 286.879691 
L 79.12545 286.363069 
L 82.594652 286.363069 
L 82.594652 285.846447 
L 83.112605 285.846447 
L 83.112605 285.329825 
L 85.046178 285.329825 
L 85.046178 284.813203 
L 91.826942 284.813203 
L 91.826942 284.296581 
L 93.896639 284.296581 
L 93.896639 283.779959 
L 94.44647 283.779959 
L 94.44647 283.263337 
L 96.730612 283.263337 
L 96.730612 282.746715 
L 96.967279 282.746715 
L 96.967279 282.230093 
L 100.185794 282.230093 
L 100.185794 281.713471 
L 103.573962 281.713471 
L 103.573962 281.196849 
L 106.420925 281.196849 
L 106.420925 280.680226 
L 107.883073 280.680226 
L 107.883073 280.163604 
L 111.03414 280.163604 
L 111.03414 279.646982 
L 113.150586 279.646982 
L 113.150586 279.13036 
L 119.149128 279.13036 
L 119.149128 278.097116 
L 120.14022 278.097116 
L 120.14022 277.063872 
L 125.005283 277.063872 
L 125.005283 276.54725 
L 125.53582 276.54725 
L 125.53582 275.514006 
L 125.724902 275.514006 
L 125.724902 274.997384 
L 127.598089 274.997384 
L 127.598089 274.480762 
L 128.546332 274.480762 
L 128.546332 273.96414 
L 130.947337 273.96414 
L 130.947337 273.447518 
L 132.331585 273.447518 
L 132.331585 272.930896 
L 133.796749 272.930896 
L 133.796749 271.897652 
L 134.414474 271.897652 
L 134.414474 271.38103 
L 136.2014 271.38103 
L 136.279712 270.347786 
L 136.894149 270.347786 
L 136.894149 269.831164 
L 137.512485 269.831164 
L 137.512485 268.79792 
L 138.227305 268.79792 
L 138.227305 268.281298 
L 138.892135 268.281298 
L 138.892135 267.764676 
L 139.533113 267.764676 
L 139.533113 267.248054 
L 142.302996 267.248054 
L 142.302996 266.731432 
L 142.834225 266.731432 
L 142.834225 265.698188 
L 145.464415 265.698188 
L 145.464415 265.181566 
L 146.196942 265.181566 
L 146.196942 264.664944 
L 146.654556 264.664944 
L 146.654556 264.148322 
L 147.591463 264.148322 
L 147.591463 263.115078 
L 151.754769 263.115078 
L 151.754769 261.565212 
L 152.315552 261.565212 
L 152.315552 261.04859 
L 153.466743 261.04859 
L 153.466743 260.015346 
L 154.407132 260.015346 
L 154.407132 259.498724 
L 155.629828 259.498724 
L 155.629828 258.982102 
L 159.02521 258.982102 
L 159.02521 257.432236 
L 213.434117 257.432236 
L 213.434117 256.398992 
L 224.712299 256.398992 
L 224.809346 255.365748 
L 224.857215 255.365748 
L 224.857215 254.849126 
L 225.080912 254.849126 
L 225.080912 254.332504 
L 225.205824 254.332504 
L 225.205824 253.815882 
L 231.966858 253.815882 
L 232.007044 252.266016 
L 232.15728 252.266016 
L 232.241441 251.232772 
L 237.106856 251.232772 
L 237.143268 249.682906 
L 241.033911 249.682906 
L 241.092036 248.649662 
L 244.276512 248.649662 
L 244.325866 247.099796 
L 247.023568 247.099796 
L 247.050194 246.066551 
L 249.397904 246.066551 
L 249.501915 244.516685 
L 251.560205 244.516685 
L 251.560205 244.000063 
L 253.373682 244.000063 
L 253.373682 243.483441 
L 261.806847 243.483441 
L 261.806847 242.966819 
L 263.867826 242.966819 
L 263.867826 242.450197 
L 267.450598 242.450197 
L 267.450598 241.933575 
L 277.194062 241.933575 
L 277.194062 241.416953 
L 361.113325 241.416953 
L 361.113325 241.416953 
" style="fill:none;stroke:#ff0000;stroke-linecap:square;stroke-width:1.5;"/>
   </g>
   <g id="line2d_45">
    <defs>
     <path d="M -6 6 
L 6 6 
L 6 -6 
L -6 -6 
z
" id="m2440b1d5a3" style="stroke:#ff0000;stroke-linejoin:miter;stroke-width:1.5;"/>
    </defs>
    <g>
     <use style="fill:none;stroke:#ff0000;stroke-linejoin:miter;stroke-width:1.5;" x="51.6006" xlink:href="#m2440b1d5a3" y="290.496045"/>
     <use style="fill:none;stroke:#ff0000;stroke-linejoin:miter;stroke-width:1.5;" x="145.464415" xlink:href="#m2440b1d5a3" y="265.698188"/>
     <use style="fill:none;stroke:#ff0000;stroke-linejoin:miter;stroke-width:1.5;" x="213.434117" xlink:href="#m2440b1d5a3" y="256.398992"/>
     <use style="fill:none;stroke:#ff0000;stroke-linejoin:miter;stroke-width:1.5;" x="277.194062" xlink:href="#m2440b1d5a3" y="241.933575"/>
     <use style="fill:none;stroke:#ff0000;stroke-linejoin:miter;stroke-width:1.5;" x="277.194062" xlink:href="#m2440b1d5a3" y="241.416953"/>
     <use style="fill:none;stroke:#ff0000;stroke-linejoin:miter;stroke-width:1.5;" x="361.113325" xlink:href="#m2440b1d5a3" y="241.416953"/>
    </g>
   </g>
   <g id="line2d_46"/>
   <g id="line2d_47">
    <path clip-path="url(#p0ff094bcc8)" d="M 212.185246 257.432236 
" style="fill:none;stroke:#ff0000;stroke-linecap:square;stroke-width:1.5;"/>
    <defs>
     <path d="M -12 12 
L 12 -12 
M -12 -12 
L 12 12 
" id="mfbeb800428" style="stroke:#ff0000;stroke-width:3;"/>
    </defs>
    <g clip-path="url(#p0ff094bcc8)">
     <use style="fill:#ff0000;stroke:#ff0000;stroke-width:3;" x="212.185246" xlink:href="#mfbeb800428" y="257.432236"/>
    </g>
   </g>
   <g id="line2d_48">
    <defs>
     <path d="M 0 1.5 
C 0.397805 1.5 0.77937 1.341951 1.06066 1.06066 
C 1.341951 0.77937 1.5 0.397805 1.5 0 
C 1.5 -0.397805 1.341951 -0.77937 1.06066 -1.06066 
C 0.77937 -1.341951 0.397805 -1.5 0 -1.5 
C -0.397805 -1.5 -0.77937 -1.341951 -1.06066 -1.06066 
C -1.341951 -0.77937 -1.5 -0.397805 -1.5 0 
C -1.5 0.397805 -1.341951 0.77937 -1.06066 1.06066 
C -0.77937 1.341951 -0.397805 1.5 0 1.5 
z
" id="m17ae36f269" style="stroke:#bf00bf;"/>
    </defs>
    <g>
     <use style="fill:#bf00bf;stroke:#bf00bf;" x="274.131053" xlink:href="#m17ae36f269" y="251.749394"/>
     <use style="fill:#bf00bf;stroke:#bf00bf;" x="274.131053" xlink:href="#m17ae36f269" y="251.749394"/>
    </g>
   </g>
   <g id="line2d_49">
    <path d="M 7.2 298.245375 
L 7.2 292.045911 
L 19.585234 292.045911 
L 19.585234 291.529289 
L 41.969748 291.529289 
L 41.969748 291.012667 
L 58.845497 291.012667 
L 58.845497 289.979423 
L 59.811577 289.979423 
L 59.811577 289.462801 
L 62.431105 289.462801 
L 62.431105 288.946179 
L 70.727371 288.946179 
L 70.727371 288.429557 
L 72.660944 288.429557 
L 72.660944 287.912935 
L 76.371068 287.912935 
L 76.371068 287.396313 
L 79.752466 287.396313 
L 79.752466 285.846447 
L 82.329935 285.846447 
L 82.329935 285.329825 
L 91.669513 285.329825 
L 91.669513 284.296581 
L 96.24766 284.296581 
L 96.24766 283.779959 
L 97.659034 283.779959 
L 97.659034 282.746715 
L 99.788709 282.746715 
L 99.788709 282.230093 
L 100.381076 282.230093 
L 100.381076 281.713471 
L 108.324284 281.713471 
L 108.324284 281.196849 
L 110.600953 281.196849 
L 110.600953 280.680226 
L 111.767832 280.680226 
L 111.767832 280.163604 
L 115.589922 280.163604 
L 115.589922 279.13036 
L 120.011208 279.13036 
L 120.011208 278.613738 
L 121.590198 278.613738 
L 121.590198 277.580494 
L 123.285128 277.580494 
L 123.285128 277.063872 
L 124.433256 277.063872 
L 124.433256 276.030628 
L 124.882478 276.030628 
L 124.882478 275.514006 
L 125.392683 275.514006 
L 125.392683 274.997384 
L 127.598089 274.997384 
L 127.598089 273.96414 
L 128.263026 273.96414 
L 128.263026 273.447518 
L 128.486 273.447518 
L 128.486 272.414274 
L 128.646433 272.414274 
L 128.646433 271.897652 
L 131.635982 271.897652 
L 131.635982 271.38103 
L 132.653542 271.38103 
L 132.653542 270.347786 
L 133.094752 270.347786 
L 133.094752 269.831164 
L 133.616262 269.831164 
L 133.616262 268.281298 
L 133.661555 268.281298 
L 133.661555 267.764676 
L 134.644292 267.764676 
L 134.644292 267.248054 
L 135.164691 267.248054 
L 135.164691 266.731432 
L 137.427195 266.731432 
L 137.427195 266.21481 
L 139.126877 266.21481 
L 139.126877 265.698188 
L 141.77465 265.698188 
L 141.77465 265.181566 
L 142.106693 265.181566 
L 142.106693 264.664944 
L 145.588607 264.664944 
L 145.588607 263.6317 
L 145.93334 263.6317 
L 145.93334 263.115078 
L 148.872115 263.115078 
L 148.872115 262.598456 
L 149.051438 262.598456 
L 149.051438 262.081834 
L 149.597407 262.081834 
L 149.597407 261.04859 
L 151.085054 261.04859 
L 151.085054 260.015346 
L 151.738328 260.015346 
L 151.738328 259.498724 
L 152.547609 259.498724 
L 152.547609 258.982102 
L 153.094582 258.982102 
L 153.094582 258.46548 
L 154.430727 258.46548 
L 154.430727 257.948858 
L 224.837331 257.948858 
L 224.837331 257.432236 
L 224.884851 257.432236 
L 224.884851 256.915614 
L 231.993659 256.915614 
L 231.993659 256.398992 
L 232.02551 256.398992 
L 232.02551 255.88237 
L 237.101134 255.88237 
L 237.101134 255.365748 
L 244.27333 255.365748 
L 244.27333 254.849126 
L 253.391273 254.849126 
L 253.391273 253.815882 
L 256.630444 253.815882 
L 256.630444 253.29926 
L 259.371323 253.29926 
L 259.371323 252.782638 
L 268.238007 252.782638 
L 268.238007 252.266016 
L 274.131053 252.266016 
L 274.131053 251.749394 
L 361.113325 251.749394 
" style="fill:none;stroke:#bf00bf;stroke-linecap:square;stroke-width:1.5;"/>
   </g>
   <g id="line2d_50">
    <defs>
     <path d="M -0 8.485281 
L 8.485281 0 
L 0 -8.485281 
L -8.485281 -0 
z
" id="mf9463f830b" style="stroke:#bf00bf;stroke-linejoin:miter;stroke-width:1.5;"/>
    </defs>
    <g>
     <use style="fill:none;stroke:#bf00bf;stroke-linejoin:miter;stroke-width:1.5;" x="62.431105" xlink:href="#mf9463f830b" y="289.462801"/>
     <use style="fill:none;stroke:#bf00bf;stroke-linejoin:miter;stroke-width:1.5;" x="115.589922" xlink:href="#mf9463f830b" y="279.13036"/>
     <use style="fill:none;stroke:#bf00bf;stroke-linejoin:miter;stroke-width:1.5;" x="154.430727" xlink:href="#mf9463f830b" y="257.948858"/>
     <use style="fill:none;stroke:#bf00bf;stroke-linejoin:miter;stroke-width:1.5;" x="274.131053" xlink:href="#mf9463f830b" y="252.266016"/>
     <use style="fill:none;stroke:#bf00bf;stroke-linejoin:miter;stroke-width:1.5;" x="274.131053" xlink:href="#mf9463f830b" y="251.749394"/>
     <use style="fill:none;stroke:#bf00bf;stroke-linejoin:miter;stroke-width:1.5;" x="361.113325" xlink:href="#mf9463f830b" y="251.749394"/>
    </g>
   </g>
   <g id="line2d_51"/>
   <g id="line2d_52">
    <path clip-path="url(#p0ff094bcc8)" d="M 212.18506 257.948858 
" style="fill:none;stroke:#bf00bf;stroke-linecap:square;stroke-width:1.5;"/>
    <defs>
     <path d="M -12 12 
L 12 -12 
M -12 -12 
L 12 12 
" id="m19520f867e" style="stroke:#bf00bf;stroke-width:3;"/>
    </defs>
    <g clip-path="url(#p0ff094bcc8)">
     <use style="fill:#bf00bf;stroke:#bf00bf;stroke-width:3;" x="212.18506" xlink:href="#m19520f867e" y="257.948858"/>
    </g>
   </g>
   <g id="line2d_53">
    <path d="M 361.113325 251.749394 
L 392.793325 292.97583 
" style="fill:none;stroke:#bf00bf;stroke-linecap:square;stroke-width:1.5;"/>
    <g>
     <use style="fill:none;stroke:#bf00bf;stroke-linejoin:miter;stroke-width:1.5;" x="361.113325" xlink:href="#mf9463f830b" y="251.749394"/>
     <use style="fill:none;stroke:#bf00bf;stroke-linejoin:miter;stroke-width:1.5;" x="392.793325" xlink:href="#mf9463f830b" y="292.97583"/>
    </g>
   </g>
   <g id="line2d_54">
    <path d="M 361.113325 241.416953 
L 392.793325 242.388203 
" style="fill:none;stroke:#ff0000;stroke-linecap:square;stroke-width:1.5;"/>
    <g>
     <use style="fill:none;stroke:#ff0000;stroke-linejoin:miter;stroke-width:1.5;" x="361.113325" xlink:href="#m2440b1d5a3" y="241.416953"/>
     <use style="fill:none;stroke:#ff0000;stroke-linejoin:miter;stroke-width:1.5;" x="392.793325" xlink:href="#m2440b1d5a3" y="242.388203"/>
    </g>
   </g>
   <g id="line2d_55">
    <path d="M 361.113325 205.253412 
L 392.793325 191.800575 
" style="fill:none;stroke:#000000;stroke-linecap:square;stroke-width:1.5;"/>
    <g>
     <use style="fill:none;stroke:#000000;stroke-width:1.5;" x="361.113325" xlink:href="#m38d95a2601" y="205.253412"/>
     <use style="fill:none;stroke:#000000;stroke-width:1.5;" x="392.793325" xlink:href="#m38d95a2601" y="191.800575"/>
    </g>
   </g>
   <g id="line2d_56">
    <path d="M 361.113325 200.087192 
L 392.793325 141.212947 
" style="fill:none;stroke:#0000ff;stroke-linecap:square;stroke-width:1.5;"/>
    <g>
     <use style="fill:none;stroke:#0000ff;stroke-linejoin:bevel;stroke-width:1.5;" x="361.113325" xlink:href="#m795a295338" y="200.087192"/>
     <use style="fill:none;stroke:#0000ff;stroke-linejoin:bevel;stroke-width:1.5;" x="392.793325" xlink:href="#m795a295338" y="141.212947"/>
    </g>
   </g>
   <g id="line2d_57">
    <path d="M 361.113325 189.754752 
L 392.793325 90.62532 
" style="fill:none;stroke:#008000;stroke-linecap:square;stroke-width:1.5;"/>
    <g>
     <use style="fill:none;stroke:#008000;stroke-linejoin:miter;stroke-width:1.5;" x="361.113325" xlink:href="#md5c2b646a7" y="189.754752"/>
     <use style="fill:none;stroke:#008000;stroke-linejoin:miter;stroke-width:1.5;" x="392.793325" xlink:href="#md5c2b646a7" y="90.62532"/>
    </g>
   </g>
   <g id="line2d_58">
    <path d="M 361.113325 34.768147 
L 392.793325 40.037692 
" style="fill:none;stroke:#00bfbf;stroke-linecap:square;stroke-width:1.5;"/>
    <g>
     <use style="fill:none;stroke:#00bfbf;stroke-width:1.5;" x="361.113325" xlink:href="#m54d28cc16c" y="34.768147"/>
     <use style="fill:none;stroke:#00bfbf;stroke-width:1.5;" x="392.793325" xlink:href="#m54d28cc16c" y="40.037692"/>
    </g>
   </g>
   <g id="line2d_59">
    <path d="M 361.113325 298.245375 
L 361.113325 34.768147 
" style="fill:none;stroke:#000000;stroke-linecap:square;stroke-width:1.5;"/>
   </g>
   <g id="patch_3">
    <path d="M 73.113325 298.245375 
L 73.113325 32.133375 
" style="fill:none;stroke:#000000;stroke-linecap:square;stroke-linejoin:miter;stroke-width:0.8;"/>
   </g>
   <g id="patch_4">
    <path d="M 430.233325 298.245375 
L 430.233325 32.133375 
" style="fill:none;stroke:#000000;stroke-linecap:square;stroke-linejoin:miter;stroke-width:0.8;"/>
   </g>
   <g id="patch_5">
    <path d="M 73.113325 298.245375 
L 430.233325 298.245375 
" style="fill:none;stroke:#000000;stroke-linecap:square;stroke-linejoin:miter;stroke-width:0.8;"/>
   </g>
   <g id="patch_6">
    <path d="M 73.113325 32.133375 
L 430.233325 32.133375 
" style="fill:none;stroke:#000000;stroke-linecap:square;stroke-linejoin:miter;stroke-width:0.8;"/>
   </g>
   <g id="text_14">
    <!-- 40-D -->
    <defs>
     <path d="M 19.671875 64.796875 
L 19.671875 8.109375 
L 31.59375 8.109375 
Q 46.6875 8.109375 53.6875 14.9375 
Q 60.6875 21.78125 60.6875 36.53125 
Q 60.6875 51.171875 53.6875 57.984375 
Q 46.6875 64.796875 31.59375 64.796875 
z
M 9.8125 72.90625 
L 30.078125 72.90625 
Q 51.265625 72.90625 61.171875 64.09375 
Q 71.09375 55.28125 71.09375 36.53125 
Q 71.09375 17.671875 61.125 8.828125 
Q 51.171875 0 30.078125 0 
L 9.8125 0 
z
" id="DejaVuSans-44"/>
    </defs>
    <g transform="translate(398.553325 297.114893)scale(0.15 -0.15)">
     <use xlink:href="#DejaVuSans-34"/>
     <use x="63.623047" xlink:href="#DejaVuSans-30"/>
     <use x="127.246094" xlink:href="#DejaVuSans-2d"/>
     <use x="163.330078" xlink:href="#DejaVuSans-44"/>
    </g>
   </g>
   <g id="text_15">
    <!-- 20-D -->
    <g transform="translate(398.553325 246.527265)scale(0.15 -0.15)">
     <use xlink:href="#DejaVuSans-32"/>
     <use x="63.623047" xlink:href="#DejaVuSans-30"/>
     <use x="127.246094" xlink:href="#DejaVuSans-2d"/>
     <use x="163.330078" xlink:href="#DejaVuSans-44"/>
    </g>
   </g>
   <g id="text_16">
    <!-- 10-D -->
    <g transform="translate(398.553325 195.939637)scale(0.15 -0.15)">
     <use xlink:href="#DejaVuSans-31"/>
     <use x="63.623047" xlink:href="#DejaVuSans-30"/>
     <use x="127.246094" xlink:href="#DejaVuSans-2d"/>
     <use x="163.330078" xlink:href="#DejaVuSans-44"/>
    </g>
   </g>
   <g id="text_17">
    <!-- 5-D -->
    <defs>
     <path d="M 10.796875 72.90625 
L 49.515625 72.90625 
L 49.515625 64.59375 
L 19.828125 64.59375 
L 19.828125 46.734375 
Q 21.96875 47.46875 24.109375 47.828125 
Q 26.265625 48.1875 28.421875 48.1875 
Q 40.625 48.1875 47.75 41.5 
Q 54.890625 34.8125 54.890625 23.390625 
Q 54.890625 11.625 47.5625 5.09375 
Q 40.234375 -1.421875 26.90625 -1.421875 
Q 22.3125 -1.421875 17.546875 -0.640625 
Q 12.796875 0.140625 7.71875 1.703125 
L 7.71875 11.625 
Q 12.109375 9.234375 16.796875 8.0625 
Q 21.484375 6.890625 26.703125 6.890625 
Q 35.15625 6.890625 40.078125 11.328125 
Q 45.015625 15.765625 45.015625 23.390625 
Q 45.015625 31 40.078125 35.4375 
Q 35.15625 39.890625 26.703125 39.890625 
Q 22.75 39.890625 18.8125 39.015625 
Q 14.890625 38.140625 10.796875 36.28125 
z
" id="DejaVuSans-35"/>
    </defs>
    <g transform="translate(398.553325 145.35201)scale(0.15 -0.15)">
     <use xlink:href="#DejaVuSans-35"/>
     <use x="63.623047" xlink:href="#DejaVuSans-2d"/>
     <use x="99.707031" xlink:href="#DejaVuSans-44"/>
    </g>
   </g>
   <g id="text_18">
    <!-- 3-D -->
    <defs>
     <path d="M 40.578125 39.3125 
Q 47.65625 37.796875 51.625 33 
Q 55.609375 28.21875 55.609375 21.1875 
Q 55.609375 10.40625 48.1875 4.484375 
Q 40.765625 -1.421875 27.09375 -1.421875 
Q 22.515625 -1.421875 17.65625 -0.515625 
Q 12.796875 0.390625 7.625 2.203125 
L 7.625 11.71875 
Q 11.71875 9.328125 16.59375 8.109375 
Q 21.484375 6.890625 26.8125 6.890625 
Q 36.078125 6.890625 40.9375 10.546875 
Q 45.796875 14.203125 45.796875 21.1875 
Q 45.796875 27.640625 41.28125 31.265625 
Q 36.765625 34.90625 28.71875 34.90625 
L 20.21875 34.90625 
L 20.21875 43.015625 
L 29.109375 43.015625 
Q 36.375 43.015625 40.234375 45.921875 
Q 44.09375 48.828125 44.09375 54.296875 
Q 44.09375 59.90625 40.109375 62.90625 
Q 36.140625 65.921875 28.71875 65.921875 
Q 24.65625 65.921875 20.015625 65.03125 
Q 15.375 64.15625 9.8125 62.3125 
L 9.8125 71.09375 
Q 15.4375 72.65625 20.34375 73.4375 
Q 25.25 74.21875 29.59375 74.21875 
Q 40.828125 74.21875 47.359375 69.109375 
Q 53.90625 64.015625 53.90625 55.328125 
Q 53.90625 49.265625 50.4375 45.09375 
Q 46.96875 40.921875 40.578125 39.3125 
z
" id="DejaVuSans-33"/>
    </defs>
    <g transform="translate(398.553325 94.764382)scale(0.15 -0.15)">
     <use xlink:href="#DejaVuSans-33"/>
     <use x="63.623047" xlink:href="#DejaVuSans-2d"/>
     <use x="99.707031" xlink:href="#DejaVuSans-44"/>
    </g>
   </g>
   <g id="text_19">
    <!-- 2-D -->
    <g transform="translate(398.553325 44.176754)scale(0.15 -0.15)">
     <use xlink:href="#DejaVuSans-32"/>
     <use x="63.623047" xlink:href="#DejaVuSans-2d"/>
     <use x="99.707031" xlink:href="#DejaVuSans-44"/>
    </g>
   </g>
   <g id="text_20">
    <!-- bbob - f16 -->
    <defs>
     <path d="M 48.6875 27.296875 
Q 48.6875 37.203125 44.609375 42.84375 
Q 40.53125 48.484375 33.40625 48.484375 
Q 26.265625 48.484375 22.1875 42.84375 
Q 18.109375 37.203125 18.109375 27.296875 
Q 18.109375 17.390625 22.1875 11.75 
Q 26.265625 6.109375 33.40625 6.109375 
Q 40.53125 6.109375 44.609375 11.75 
Q 48.6875 17.390625 48.6875 27.296875 
z
M 18.109375 46.390625 
Q 20.953125 51.265625 25.265625 53.625 
Q 29.59375 56 35.59375 56 
Q 45.5625 56 51.78125 48.09375 
Q 58.015625 40.1875 58.015625 27.296875 
Q 58.015625 14.40625 51.78125 6.484375 
Q 45.5625 -1.421875 35.59375 -1.421875 
Q 29.59375 -1.421875 25.265625 0.953125 
Q 20.953125 3.328125 18.109375 8.203125 
L 18.109375 0 
L 9.078125 0 
L 9.078125 75.984375 
L 18.109375 75.984375 
z
" id="DejaVuSans-62"/>
    </defs>
    <g transform="translate(76.684525 50.114612)scale(0.1666 -0.1666)">
     <use xlink:href="#DejaVuSans-62"/>
     <use x="63.476562" xlink:href="#DejaVuSans-62"/>
     <use x="126.953125" xlink:href="#DejaVuSans-6f"/>
     <use x="188.134766" xlink:href="#DejaVuSans-62"/>
     <use x="251.611328" xlink:href="#DejaVuSans-20"/>
     <use x="283.398438" xlink:href="#DejaVuSans-2d"/>
     <use x="319.482422" xlink:href="#DejaVuSans-20"/>
     <use x="351.269531" xlink:href="#DejaVuSans-66"/>
     <use x="386.474609" xlink:href="#DejaVuSans-31"/>
     <use x="450.097656" xlink:href="#DejaVuSans-36"/>
    </g>
    <!-- 51 targets in 100..1e-08 -->
    <g transform="translate(76.684525 68.770168)scale(0.1666 -0.1666)">
     <use xlink:href="#DejaVuSans-35"/>
     <use x="63.623047" xlink:href="#DejaVuSans-31"/>
     <use x="127.246094" xlink:href="#DejaVuSans-20"/>
     <use x="159.033203" xlink:href="#DejaVuSans-74"/>
     <use x="198.242188" xlink:href="#DejaVuSans-61"/>
     <use x="259.521484" xlink:href="#DejaVuSans-72"/>
     <use x="300.619141" xlink:href="#DejaVuSans-67"/>
     <use x="364.095703" xlink:href="#DejaVuSans-65"/>
     <use x="425.619141" xlink:href="#DejaVuSans-74"/>
     <use x="464.828125" xlink:href="#DejaVuSans-73"/>
     <use x="516.927734" xlink:href="#DejaVuSans-20"/>
     <use x="548.714844" xlink:href="#DejaVuSans-69"/>
     <use x="576.498047" xlink:href="#DejaVuSans-6e"/>
     <use x="639.876953" xlink:href="#DejaVuSans-20"/>
     <use x="671.664062" xlink:href="#DejaVuSans-31"/>
     <use x="735.287109" xlink:href="#DejaVuSans-30"/>
     <use x="798.910156" xlink:href="#DejaVuSans-30"/>
     <use x="862.533203" xlink:href="#DejaVuSans-2e"/>
     <use x="894.320312" xlink:href="#DejaVuSans-2e"/>
     <use x="926.107422" xlink:href="#DejaVuSans-31"/>
     <use x="989.730469" xlink:href="#DejaVuSans-65"/>
     <use x="1051.253906" xlink:href="#DejaVuSans-2d"/>
     <use x="1087.337891" xlink:href="#DejaVuSans-30"/>
     <use x="1150.960938" xlink:href="#DejaVuSans-38"/>
    </g>
    <!-- 15 instances -->
    <g transform="translate(76.684525 87.425723)scale(0.1666 -0.1666)">
     <use xlink:href="#DejaVuSans-31"/>
     <use x="63.623047" xlink:href="#DejaVuSans-35"/>
     <use x="127.246094" xlink:href="#DejaVuSans-20"/>
     <use x="159.033203" xlink:href="#DejaVuSans-69"/>
     <use x="186.816406" xlink:href="#DejaVuSans-6e"/>
     <use x="250.195312" xlink:href="#DejaVuSans-73"/>
     <use x="302.294922" xlink:href="#DejaVuSans-74"/>
     <use x="341.503906" xlink:href="#DejaVuSans-61"/>
     <use x="402.783203" xlink:href="#DejaVuSans-6e"/>
     <use x="466.162109" xlink:href="#DejaVuSans-63"/>
     <use x="521.142578" xlink:href="#DejaVuSans-65"/>
     <use x="582.666016" xlink:href="#DejaVuSans-73"/>
    </g>
   </g>
   <g id="text_21">
    <!-- v2.1 -->
    <g style="fill:#808080;" transform="translate(240.762388 293.504568)scale(0.1 -0.1)">
     <use xlink:href="#DejaVuSans-76"/>
     <use x="59.179688" xlink:href="#DejaVuSans-32"/>
     <use x="122.802734" xlink:href="#DejaVuSans-2e"/>
     <use x="154.589844" xlink:href="#DejaVuSans-31"/>
    </g>
   </g>
   <g id="text_22">
    <!-- 16 Weierstrass -->
    <defs>
     <path d="M 3.328125 72.90625 
L 13.28125 72.90625 
L 28.609375 11.28125 
L 43.890625 72.90625 
L 54.984375 72.90625 
L 70.3125 11.28125 
L 85.59375 72.90625 
L 95.609375 72.90625 
L 77.296875 0 
L 64.890625 0 
L 49.515625 63.28125 
L 33.984375 0 
L 21.578125 0 
z
" id="DejaVuSans-57"/>
    </defs>
    <g transform="translate(161.954575 26.133375)scale(0.24 -0.24)">
     <use xlink:href="#DejaVuSans-31"/>
     <use x="63.623047" xlink:href="#DejaVuSans-36"/>
     <use x="127.246094" xlink:href="#DejaVuSans-20"/>
     <use x="159.033203" xlink:href="#DejaVuSans-57"/>
     <use x="257.832031" xlink:href="#DejaVuSans-65"/>
     <use x="319.355469" xlink:href="#DejaVuSans-69"/>
     <use x="347.138672" xlink:href="#DejaVuSans-65"/>
     <use x="408.662109" xlink:href="#DejaVuSans-72"/>
     <use x="449.775391" xlink:href="#DejaVuSans-73"/>
     <use x="501.875" xlink:href="#DejaVuSans-74"/>
     <use x="541.083984" xlink:href="#DejaVuSans-72"/>
     <use x="582.197266" xlink:href="#DejaVuSans-61"/>
     <use x="643.476562" xlink:href="#DejaVuSans-73"/>
     <use x="695.576172" xlink:href="#DejaVuSans-73"/>
    </g>
   </g>
  </g>
 </g>
 <defs>
  <clipPath id="p0ff094bcc8">
   <rect height="266.112" width="357.12" x="73.113325" y="32.133375"/>
  </clipPath>
 </defs>
</svg>
