<?xml version="1.0" encoding="utf-8" standalone="no"?>
<!DOCTYPE svg PUBLIC "-//W3C//DTD SVG 1.1//EN"
  "http://www.w3.org/Graphics/SVG/1.1/DTD/svg11.dtd">
<!-- Created with matplotlib (http://matplotlib.org/) -->
<svg height="353pt" version="1.1" viewBox="0 0 438 353" width="438pt" xmlns="http://www.w3.org/2000/svg" xmlns:xlink="http://www.w3.org/1999/xlink">
 <defs>
  <style type="text/css">
*{stroke-linecap:butt;stroke-linejoin:round;}
  </style>
 </defs>
 <g id="figure_1">
  <g id="patch_1">
   <path d="M 0 353.22225 
L 438.62 353.22225 
L 438.62 0 
L 0 0 
z
" style="fill:#ffffff;"/>
  </g>
  <g id="axes_1">
   <g id="patch_2">
    <path d="M 70.8 298.245375 
L 427.92 298.245375 
L 427.92 32.133375 
L 70.8 32.133375 
z
" style="fill:#ffffff;"/>
   </g>
   <g id="matplotlib.axis_1">
    <g id="xtick_1">
     <g id="line2d_1">
      <path clip-path="url(#p59b7977961)" d="M 70.8 298.245375 
L 70.8 32.133375 
" style="fill:none;stroke:#b0b0b0;stroke-linecap:square;stroke-width:0.8;"/>
     </g>
     <g id="line2d_2">
      <defs>
       <path d="M 0 0 
L 0 3.5 
" id="mcaf4cd0d8f" style="stroke:#000000;stroke-width:0.8;"/>
      </defs>
      <g>
       <use style="stroke:#000000;stroke-width:0.8;" x="70.8" xlink:href="#mcaf4cd0d8f" y="298.245375"/>
      </g>
     </g>
     <g id="text_1">
      <!-- 0 -->
      <defs>
       <path d="M 31.78125 66.40625 
Q 24.171875 66.40625 20.328125 58.90625 
Q 16.5 51.421875 16.5 36.375 
Q 16.5 21.390625 20.328125 13.890625 
Q 24.171875 6.390625 31.78125 6.390625 
Q 39.453125 6.390625 43.28125 13.890625 
Q 47.125 21.390625 47.125 36.375 
Q 47.125 51.421875 43.28125 58.90625 
Q 39.453125 66.40625 31.78125 66.40625 
z
M 31.78125 74.21875 
Q 44.046875 74.21875 50.515625 64.515625 
Q 56.984375 54.828125 56.984375 36.375 
Q 56.984375 17.96875 50.515625 8.265625 
Q 44.046875 -1.421875 31.78125 -1.421875 
Q 19.53125 -1.421875 13.0625 8.265625 
Q 6.59375 17.96875 6.59375 36.375 
Q 6.59375 54.828125 13.0625 64.515625 
Q 19.53125 74.21875 31.78125 74.21875 
z
" id="DejaVuSans-30"/>
      </defs>
      <g transform="translate(64.4375 320.44225)scale(0.2 -0.2)">
       <use xlink:href="#DejaVuSans-30"/>
      </g>
     </g>
    </g>
    <g id="xtick_2">
     <g id="line2d_3">
      <path clip-path="url(#p59b7977961)" d="M 153.085714 298.245375 
L 153.085714 32.133375 
" style="fill:none;stroke:#b0b0b0;stroke-linecap:square;stroke-width:0.8;"/>
     </g>
     <g id="line2d_4">
      <g>
       <use style="stroke:#000000;stroke-width:0.8;" x="153.085714" xlink:href="#mcaf4cd0d8f" y="298.245375"/>
      </g>
     </g>
     <g id="text_2">
      <!-- 2 -->
      <defs>
       <path d="M 19.1875 8.296875 
L 53.609375 8.296875 
L 53.609375 0 
L 7.328125 0 
L 7.328125 8.296875 
Q 12.9375 14.109375 22.625 23.890625 
Q 32.328125 33.6875 34.8125 36.53125 
Q 39.546875 41.84375 41.421875 45.53125 
Q 43.3125 49.21875 43.3125 52.78125 
Q 43.3125 58.59375 39.234375 62.25 
Q 35.15625 65.921875 28.609375 65.921875 
Q 23.96875 65.921875 18.8125 64.3125 
Q 13.671875 62.703125 7.8125 59.421875 
L 7.8125 69.390625 
Q 13.765625 71.78125 18.9375 73 
Q 24.125 74.21875 28.421875 74.21875 
Q 39.75 74.21875 46.484375 68.546875 
Q 53.21875 62.890625 53.21875 53.421875 
Q 53.21875 48.921875 51.53125 44.890625 
Q 49.859375 40.875 45.40625 35.40625 
Q 44.1875 33.984375 37.640625 27.21875 
Q 31.109375 20.453125 19.1875 8.296875 
z
" id="DejaVuSans-32"/>
      </defs>
      <g transform="translate(146.723214 320.44225)scale(0.2 -0.2)">
       <use xlink:href="#DejaVuSans-32"/>
      </g>
     </g>
    </g>
    <g id="xtick_3">
     <g id="line2d_5">
      <path clip-path="url(#p59b7977961)" d="M 235.371429 298.245375 
L 235.371429 32.133375 
" style="fill:none;stroke:#b0b0b0;stroke-linecap:square;stroke-width:0.8;"/>
     </g>
     <g id="line2d_6">
      <g>
       <use style="stroke:#000000;stroke-width:0.8;" x="235.371429" xlink:href="#mcaf4cd0d8f" y="298.245375"/>
      </g>
     </g>
     <g id="text_3">
      <!-- 4 -->
      <defs>
       <path d="M 37.796875 64.3125 
L 12.890625 25.390625 
L 37.796875 25.390625 
z
M 35.203125 72.90625 
L 47.609375 72.90625 
L 47.609375 25.390625 
L 58.015625 25.390625 
L 58.015625 17.1875 
L 47.609375 17.1875 
L 47.609375 0 
L 37.796875 0 
L 37.796875 17.1875 
L 4.890625 17.1875 
L 4.890625 26.703125 
z
" id="DejaVuSans-34"/>
      </defs>
      <g transform="translate(229.008929 320.44225)scale(0.2 -0.2)">
       <use xlink:href="#DejaVuSans-34"/>
      </g>
     </g>
    </g>
    <g id="xtick_4">
     <g id="line2d_7">
      <path clip-path="url(#p59b7977961)" d="M 317.657143 298.245375 
L 317.657143 32.133375 
" style="fill:none;stroke:#b0b0b0;stroke-linecap:square;stroke-width:0.8;"/>
     </g>
     <g id="line2d_8">
      <g>
       <use style="stroke:#000000;stroke-width:0.8;" x="317.657143" xlink:href="#mcaf4cd0d8f" y="298.245375"/>
      </g>
     </g>
     <g id="text_4">
      <!-- 6 -->
      <defs>
       <path d="M 33.015625 40.375 
Q 26.375 40.375 22.484375 35.828125 
Q 18.609375 31.296875 18.609375 23.390625 
Q 18.609375 15.53125 22.484375 10.953125 
Q 26.375 6.390625 33.015625 6.390625 
Q 39.65625 6.390625 43.53125 10.953125 
Q 47.40625 15.53125 47.40625 23.390625 
Q 47.40625 31.296875 43.53125 35.828125 
Q 39.65625 40.375 33.015625 40.375 
z
M 52.59375 71.296875 
L 52.59375 62.3125 
Q 48.875 64.0625 45.09375 64.984375 
Q 41.3125 65.921875 37.59375 65.921875 
Q 27.828125 65.921875 22.671875 59.328125 
Q 17.53125 52.734375 16.796875 39.40625 
Q 19.671875 43.65625 24.015625 45.921875 
Q 28.375 48.1875 33.59375 48.1875 
Q 44.578125 48.1875 50.953125 41.515625 
Q 57.328125 34.859375 57.328125 23.390625 
Q 57.328125 12.15625 50.6875 5.359375 
Q 44.046875 -1.421875 33.015625 -1.421875 
Q 20.359375 -1.421875 13.671875 8.265625 
Q 6.984375 17.96875 6.984375 36.375 
Q 6.984375 53.65625 15.1875 63.9375 
Q 23.390625 74.21875 37.203125 74.21875 
Q 40.921875 74.21875 44.703125 73.484375 
Q 48.484375 72.75 52.59375 71.296875 
z
" id="DejaVuSans-36"/>
      </defs>
      <g transform="translate(311.294643 320.44225)scale(0.2 -0.2)">
       <use xlink:href="#DejaVuSans-36"/>
      </g>
     </g>
    </g>
    <g id="xtick_5">
     <g id="line2d_9">
      <path clip-path="url(#p59b7977961)" d="M 399.942857 298.245375 
L 399.942857 32.133375 
" style="fill:none;stroke:#b0b0b0;stroke-linecap:square;stroke-width:0.8;"/>
     </g>
     <g id="line2d_10">
      <g>
       <use style="stroke:#000000;stroke-width:0.8;" x="399.942857" xlink:href="#mcaf4cd0d8f" y="298.245375"/>
      </g>
     </g>
     <g id="text_5">
      <!-- 8 -->
      <defs>
       <path d="M 31.78125 34.625 
Q 24.75 34.625 20.71875 30.859375 
Q 16.703125 27.09375 16.703125 20.515625 
Q 16.703125 13.921875 20.71875 10.15625 
Q 24.75 6.390625 31.78125 6.390625 
Q 38.8125 6.390625 42.859375 10.171875 
Q 46.921875 13.96875 46.921875 20.515625 
Q 46.921875 27.09375 42.890625 30.859375 
Q 38.875 34.625 31.78125 34.625 
z
M 21.921875 38.8125 
Q 15.578125 40.375 12.03125 44.71875 
Q 8.5 49.078125 8.5 55.328125 
Q 8.5 64.0625 14.71875 69.140625 
Q 20.953125 74.21875 31.78125 74.21875 
Q 42.671875 74.21875 48.875 69.140625 
Q 55.078125 64.0625 55.078125 55.328125 
Q 55.078125 49.078125 51.53125 44.71875 
Q 48 40.375 41.703125 38.8125 
Q 48.828125 37.15625 52.796875 32.3125 
Q 56.78125 27.484375 56.78125 20.515625 
Q 56.78125 9.90625 50.3125 4.234375 
Q 43.84375 -1.421875 31.78125 -1.421875 
Q 19.734375 -1.421875 13.25 4.234375 
Q 6.78125 9.90625 6.78125 20.515625 
Q 6.78125 27.484375 10.78125 32.3125 
Q 14.796875 37.15625 21.921875 38.8125 
z
M 18.3125 54.390625 
Q 18.3125 48.734375 21.84375 45.5625 
Q 25.390625 42.390625 31.78125 42.390625 
Q 38.140625 42.390625 41.71875 45.5625 
Q 45.3125 48.734375 45.3125 54.390625 
Q 45.3125 60.0625 41.71875 63.234375 
Q 38.140625 66.40625 31.78125 66.40625 
Q 25.390625 66.40625 21.84375 63.234375 
Q 18.3125 60.0625 18.3125 54.390625 
z
" id="DejaVuSans-38"/>
      </defs>
      <g transform="translate(393.580357 320.44225)scale(0.2 -0.2)">
       <use xlink:href="#DejaVuSans-38"/>
      </g>
     </g>
    </g>
    <g id="text_6">
     <!-- log10 of (# f-evals / dimension) -->
     <defs>
      <path d="M 9.421875 75.984375 
L 18.40625 75.984375 
L 18.40625 0 
L 9.421875 0 
z
" id="DejaVuSans-6c"/>
      <path d="M 30.609375 48.390625 
Q 23.390625 48.390625 19.1875 42.75 
Q 14.984375 37.109375 14.984375 27.296875 
Q 14.984375 17.484375 19.15625 11.84375 
Q 23.34375 6.203125 30.609375 6.203125 
Q 37.796875 6.203125 41.984375 11.859375 
Q 46.1875 17.53125 46.1875 27.296875 
Q 46.1875 37.015625 41.984375 42.703125 
Q 37.796875 48.390625 30.609375 48.390625 
z
M 30.609375 56 
Q 42.328125 56 49.015625 48.375 
Q 55.71875 40.765625 55.71875 27.296875 
Q 55.71875 13.875 49.015625 6.21875 
Q 42.328125 -1.421875 30.609375 -1.421875 
Q 18.84375 -1.421875 12.171875 6.21875 
Q 5.515625 13.875 5.515625 27.296875 
Q 5.515625 40.765625 12.171875 48.375 
Q 18.84375 56 30.609375 56 
z
" id="DejaVuSans-6f"/>
      <path d="M 45.40625 27.984375 
Q 45.40625 37.75 41.375 43.109375 
Q 37.359375 48.484375 30.078125 48.484375 
Q 22.859375 48.484375 18.828125 43.109375 
Q 14.796875 37.75 14.796875 27.984375 
Q 14.796875 18.265625 18.828125 12.890625 
Q 22.859375 7.515625 30.078125 7.515625 
Q 37.359375 7.515625 41.375 12.890625 
Q 45.40625 18.265625 45.40625 27.984375 
z
M 54.390625 6.78125 
Q 54.390625 -7.171875 48.1875 -13.984375 
Q 42 -20.796875 29.203125 -20.796875 
Q 24.46875 -20.796875 20.265625 -20.09375 
Q 16.0625 -19.390625 12.109375 -17.921875 
L 12.109375 -9.1875 
Q 16.0625 -11.328125 19.921875 -12.34375 
Q 23.78125 -13.375 27.78125 -13.375 
Q 36.625 -13.375 41.015625 -8.765625 
Q 45.40625 -4.15625 45.40625 5.171875 
L 45.40625 9.625 
Q 42.625 4.78125 38.28125 2.390625 
Q 33.9375 0 27.875 0 
Q 17.828125 0 11.671875 7.65625 
Q 5.515625 15.328125 5.515625 27.984375 
Q 5.515625 40.671875 11.671875 48.328125 
Q 17.828125 56 27.875 56 
Q 33.9375 56 38.28125 53.609375 
Q 42.625 51.21875 45.40625 46.390625 
L 45.40625 54.6875 
L 54.390625 54.6875 
z
" id="DejaVuSans-67"/>
      <path d="M 12.40625 8.296875 
L 28.515625 8.296875 
L 28.515625 63.921875 
L 10.984375 60.40625 
L 10.984375 69.390625 
L 28.421875 72.90625 
L 38.28125 72.90625 
L 38.28125 8.296875 
L 54.390625 8.296875 
L 54.390625 0 
L 12.40625 0 
z
" id="DejaVuSans-31"/>
      <path id="DejaVuSans-20"/>
      <path d="M 37.109375 75.984375 
L 37.109375 68.5 
L 28.515625 68.5 
Q 23.6875 68.5 21.796875 66.546875 
Q 19.921875 64.59375 19.921875 59.515625 
L 19.921875 54.6875 
L 34.71875 54.6875 
L 34.71875 47.703125 
L 19.921875 47.703125 
L 19.921875 0 
L 10.890625 0 
L 10.890625 47.703125 
L 2.296875 47.703125 
L 2.296875 54.6875 
L 10.890625 54.6875 
L 10.890625 58.5 
Q 10.890625 67.625 15.140625 71.796875 
Q 19.390625 75.984375 28.609375 75.984375 
z
" id="DejaVuSans-66"/>
      <path d="M 31 75.875 
Q 24.46875 64.65625 21.28125 53.65625 
Q 18.109375 42.671875 18.109375 31.390625 
Q 18.109375 20.125 21.3125 9.0625 
Q 24.515625 -2 31 -13.1875 
L 23.1875 -13.1875 
Q 15.875 -1.703125 12.234375 9.375 
Q 8.59375 20.453125 8.59375 31.390625 
Q 8.59375 42.28125 12.203125 53.3125 
Q 15.828125 64.359375 23.1875 75.875 
z
" id="DejaVuSans-28"/>
      <path d="M 51.125 44 
L 36.921875 44 
L 32.8125 27.6875 
L 47.125 27.6875 
z
M 43.796875 71.78125 
L 38.71875 51.515625 
L 52.984375 51.515625 
L 58.109375 71.78125 
L 65.921875 71.78125 
L 60.890625 51.515625 
L 76.125 51.515625 
L 76.125 44 
L 58.984375 44 
L 54.984375 27.6875 
L 70.515625 27.6875 
L 70.515625 20.21875 
L 53.078125 20.21875 
L 48 0 
L 40.1875 0 
L 45.21875 20.21875 
L 30.90625 20.21875 
L 25.875 0 
L 18.015625 0 
L 23.09375 20.21875 
L 7.71875 20.21875 
L 7.71875 27.6875 
L 24.90625 27.6875 
L 29 44 
L 13.28125 44 
L 13.28125 51.515625 
L 30.90625 51.515625 
L 35.890625 71.78125 
z
" id="DejaVuSans-23"/>
      <path d="M 4.890625 31.390625 
L 31.203125 31.390625 
L 31.203125 23.390625 
L 4.890625 23.390625 
z
" id="DejaVuSans-2d"/>
      <path d="M 56.203125 29.59375 
L 56.203125 25.203125 
L 14.890625 25.203125 
Q 15.484375 15.921875 20.484375 11.0625 
Q 25.484375 6.203125 34.421875 6.203125 
Q 39.59375 6.203125 44.453125 7.46875 
Q 49.3125 8.734375 54.109375 11.28125 
L 54.109375 2.78125 
Q 49.265625 0.734375 44.1875 -0.34375 
Q 39.109375 -1.421875 33.890625 -1.421875 
Q 20.796875 -1.421875 13.15625 6.1875 
Q 5.515625 13.8125 5.515625 26.8125 
Q 5.515625 40.234375 12.765625 48.109375 
Q 20.015625 56 32.328125 56 
Q 43.359375 56 49.78125 48.890625 
Q 56.203125 41.796875 56.203125 29.59375 
z
M 47.21875 32.234375 
Q 47.125 39.59375 43.09375 43.984375 
Q 39.0625 48.390625 32.421875 48.390625 
Q 24.90625 48.390625 20.390625 44.140625 
Q 15.875 39.890625 15.1875 32.171875 
z
" id="DejaVuSans-65"/>
      <path d="M 2.984375 54.6875 
L 12.5 54.6875 
L 29.59375 8.796875 
L 46.6875 54.6875 
L 56.203125 54.6875 
L 35.6875 0 
L 23.484375 0 
z
" id="DejaVuSans-76"/>
      <path d="M 34.28125 27.484375 
Q 23.390625 27.484375 19.1875 25 
Q 14.984375 22.515625 14.984375 16.5 
Q 14.984375 11.71875 18.140625 8.90625 
Q 21.296875 6.109375 26.703125 6.109375 
Q 34.1875 6.109375 38.703125 11.40625 
Q 43.21875 16.703125 43.21875 25.484375 
L 43.21875 27.484375 
z
M 52.203125 31.203125 
L 52.203125 0 
L 43.21875 0 
L 43.21875 8.296875 
Q 40.140625 3.328125 35.546875 0.953125 
Q 30.953125 -1.421875 24.3125 -1.421875 
Q 15.921875 -1.421875 10.953125 3.296875 
Q 6 8.015625 6 15.921875 
Q 6 25.140625 12.171875 29.828125 
Q 18.359375 34.515625 30.609375 34.515625 
L 43.21875 34.515625 
L 43.21875 35.40625 
Q 43.21875 41.609375 39.140625 45 
Q 35.0625 48.390625 27.6875 48.390625 
Q 23 48.390625 18.546875 47.265625 
Q 14.109375 46.140625 10.015625 43.890625 
L 10.015625 52.203125 
Q 14.9375 54.109375 19.578125 55.046875 
Q 24.21875 56 28.609375 56 
Q 40.484375 56 46.34375 49.84375 
Q 52.203125 43.703125 52.203125 31.203125 
z
" id="DejaVuSans-61"/>
      <path d="M 44.28125 53.078125 
L 44.28125 44.578125 
Q 40.484375 46.53125 36.375 47.5 
Q 32.28125 48.484375 27.875 48.484375 
Q 21.1875 48.484375 17.84375 46.4375 
Q 14.5 44.390625 14.5 40.28125 
Q 14.5 37.15625 16.890625 35.375 
Q 19.28125 33.59375 26.515625 31.984375 
L 29.59375 31.296875 
Q 39.15625 29.25 43.1875 25.515625 
Q 47.21875 21.78125 47.21875 15.09375 
Q 47.21875 7.46875 41.1875 3.015625 
Q 35.15625 -1.421875 24.609375 -1.421875 
Q 20.21875 -1.421875 15.453125 -0.5625 
Q 10.6875 0.296875 5.421875 2 
L 5.421875 11.28125 
Q 10.40625 8.6875 15.234375 7.390625 
Q 20.0625 6.109375 24.8125 6.109375 
Q 31.15625 6.109375 34.5625 8.28125 
Q 37.984375 10.453125 37.984375 14.40625 
Q 37.984375 18.0625 35.515625 20.015625 
Q 33.0625 21.96875 24.703125 23.78125 
L 21.578125 24.515625 
Q 13.234375 26.265625 9.515625 29.90625 
Q 5.8125 33.546875 5.8125 39.890625 
Q 5.8125 47.609375 11.28125 51.796875 
Q 16.75 56 26.8125 56 
Q 31.78125 56 36.171875 55.265625 
Q 40.578125 54.546875 44.28125 53.078125 
z
" id="DejaVuSans-73"/>
      <path d="M 25.390625 72.90625 
L 33.6875 72.90625 
L 8.296875 -9.28125 
L 0 -9.28125 
z
" id="DejaVuSans-2f"/>
      <path d="M 45.40625 46.390625 
L 45.40625 75.984375 
L 54.390625 75.984375 
L 54.390625 0 
L 45.40625 0 
L 45.40625 8.203125 
Q 42.578125 3.328125 38.25 0.953125 
Q 33.9375 -1.421875 27.875 -1.421875 
Q 17.96875 -1.421875 11.734375 6.484375 
Q 5.515625 14.40625 5.515625 27.296875 
Q 5.515625 40.1875 11.734375 48.09375 
Q 17.96875 56 27.875 56 
Q 33.9375 56 38.25 53.625 
Q 42.578125 51.265625 45.40625 46.390625 
z
M 14.796875 27.296875 
Q 14.796875 17.390625 18.875 11.75 
Q 22.953125 6.109375 30.078125 6.109375 
Q 37.203125 6.109375 41.296875 11.75 
Q 45.40625 17.390625 45.40625 27.296875 
Q 45.40625 37.203125 41.296875 42.84375 
Q 37.203125 48.484375 30.078125 48.484375 
Q 22.953125 48.484375 18.875 42.84375 
Q 14.796875 37.203125 14.796875 27.296875 
z
" id="DejaVuSans-64"/>
      <path d="M 9.421875 54.6875 
L 18.40625 54.6875 
L 18.40625 0 
L 9.421875 0 
z
M 9.421875 75.984375 
L 18.40625 75.984375 
L 18.40625 64.59375 
L 9.421875 64.59375 
z
" id="DejaVuSans-69"/>
      <path d="M 52 44.1875 
Q 55.375 50.25 60.0625 53.125 
Q 64.75 56 71.09375 56 
Q 79.640625 56 84.28125 50.015625 
Q 88.921875 44.046875 88.921875 33.015625 
L 88.921875 0 
L 79.890625 0 
L 79.890625 32.71875 
Q 79.890625 40.578125 77.09375 44.375 
Q 74.3125 48.1875 68.609375 48.1875 
Q 61.625 48.1875 57.5625 43.546875 
Q 53.515625 38.921875 53.515625 30.90625 
L 53.515625 0 
L 44.484375 0 
L 44.484375 32.71875 
Q 44.484375 40.625 41.703125 44.40625 
Q 38.921875 48.1875 33.109375 48.1875 
Q 26.21875 48.1875 22.15625 43.53125 
Q 18.109375 38.875 18.109375 30.90625 
L 18.109375 0 
L 9.078125 0 
L 9.078125 54.6875 
L 18.109375 54.6875 
L 18.109375 46.1875 
Q 21.1875 51.21875 25.484375 53.609375 
Q 29.78125 56 35.6875 56 
Q 41.65625 56 45.828125 52.96875 
Q 50 49.953125 52 44.1875 
z
" id="DejaVuSans-6d"/>
      <path d="M 54.890625 33.015625 
L 54.890625 0 
L 45.90625 0 
L 45.90625 32.71875 
Q 45.90625 40.484375 42.875 44.328125 
Q 39.84375 48.1875 33.796875 48.1875 
Q 26.515625 48.1875 22.3125 43.546875 
Q 18.109375 38.921875 18.109375 30.90625 
L 18.109375 0 
L 9.078125 0 
L 9.078125 54.6875 
L 18.109375 54.6875 
L 18.109375 46.1875 
Q 21.34375 51.125 25.703125 53.5625 
Q 30.078125 56 35.796875 56 
Q 45.21875 56 50.046875 50.171875 
Q 54.890625 44.34375 54.890625 33.015625 
z
" id="DejaVuSans-6e"/>
      <path d="M 8.015625 75.875 
L 15.828125 75.875 
Q 23.140625 64.359375 26.78125 53.3125 
Q 30.421875 42.28125 30.421875 31.390625 
Q 30.421875 20.453125 26.78125 9.375 
Q 23.140625 -1.703125 15.828125 -13.1875 
L 8.015625 -13.1875 
Q 14.5 -2 17.703125 9.0625 
Q 20.90625 20.125 20.90625 31.390625 
Q 20.90625 42.671875 17.703125 53.65625 
Q 14.5 64.65625 8.015625 75.875 
z
" id="DejaVuSans-29"/>
     </defs>
     <g transform="translate(107.015156 342.278812)scale(0.18 -0.18)">
      <use xlink:href="#DejaVuSans-6c"/>
      <use x="27.783203" xlink:href="#DejaVuSans-6f"/>
      <use x="88.964844" xlink:href="#DejaVuSans-67"/>
      <use x="152.441406" xlink:href="#DejaVuSans-31"/>
      <use x="216.064453" xlink:href="#DejaVuSans-30"/>
      <use x="279.6875" xlink:href="#DejaVuSans-20"/>
      <use x="311.474609" xlink:href="#DejaVuSans-6f"/>
      <use x="372.65625" xlink:href="#DejaVuSans-66"/>
      <use x="407.861328" xlink:href="#DejaVuSans-20"/>
      <use x="439.648438" xlink:href="#DejaVuSans-28"/>
      <use x="478.662109" xlink:href="#DejaVuSans-23"/>
      <use x="562.451172" xlink:href="#DejaVuSans-20"/>
      <use x="594.238281" xlink:href="#DejaVuSans-66"/>
      <use x="629.365234" xlink:href="#DejaVuSans-2d"/>
      <use x="665.449219" xlink:href="#DejaVuSans-65"/>
      <use x="726.972656" xlink:href="#DejaVuSans-76"/>
      <use x="786.152344" xlink:href="#DejaVuSans-61"/>
      <use x="847.431641" xlink:href="#DejaVuSans-6c"/>
      <use x="875.214844" xlink:href="#DejaVuSans-73"/>
      <use x="927.314453" xlink:href="#DejaVuSans-20"/>
      <use x="959.101562" xlink:href="#DejaVuSans-2f"/>
      <use x="992.792969" xlink:href="#DejaVuSans-20"/>
      <use x="1024.580078" xlink:href="#DejaVuSans-64"/>
      <use x="1088.056641" xlink:href="#DejaVuSans-69"/>
      <use x="1115.839844" xlink:href="#DejaVuSans-6d"/>
      <use x="1213.251953" xlink:href="#DejaVuSans-65"/>
      <use x="1274.775391" xlink:href="#DejaVuSans-6e"/>
      <use x="1338.154297" xlink:href="#DejaVuSans-73"/>
      <use x="1390.253906" xlink:href="#DejaVuSans-69"/>
      <use x="1418.037109" xlink:href="#DejaVuSans-6f"/>
      <use x="1479.21875" xlink:href="#DejaVuSans-6e"/>
      <use x="1542.597656" xlink:href="#DejaVuSans-29"/>
     </g>
    </g>
   </g>
   <g id="matplotlib.axis_2">
    <g id="ytick_1">
     <g id="line2d_11">
      <path clip-path="url(#p59b7977961)" d="M 70.8 298.245375 
L 427.92 298.245375 
" style="fill:none;stroke:#b0b0b0;stroke-linecap:square;stroke-width:0.8;"/>
     </g>
     <g id="line2d_12">
      <defs>
       <path d="M 0 0 
L -3.5 0 
" id="md2777530dd" style="stroke:#000000;stroke-width:0.8;"/>
      </defs>
      <g>
       <use style="stroke:#000000;stroke-width:0.8;" x="70.8" xlink:href="#md2777530dd" y="298.245375"/>
      </g>
     </g>
     <g id="text_7">
      <!-- 0.0 -->
      <defs>
       <path d="M 10.6875 12.40625 
L 21 12.40625 
L 21 0 
L 10.6875 0 
z
" id="DejaVuSans-2e"/>
      </defs>
      <g transform="translate(31.99375 305.843812)scale(0.2 -0.2)">
       <use xlink:href="#DejaVuSans-30"/>
       <use x="63.623047" xlink:href="#DejaVuSans-2e"/>
       <use x="95.410156" xlink:href="#DejaVuSans-30"/>
      </g>
     </g>
    </g>
    <g id="ytick_2">
     <g id="line2d_13">
      <path clip-path="url(#p59b7977961)" d="M 70.8 245.549929 
L 427.92 245.549929 
" style="fill:none;stroke:#b0b0b0;stroke-linecap:square;stroke-width:0.8;"/>
     </g>
     <g id="line2d_14">
      <g>
       <use style="stroke:#000000;stroke-width:0.8;" x="70.8" xlink:href="#md2777530dd" y="245.549929"/>
      </g>
     </g>
     <g id="text_8">
      <!-- 0.2 -->
      <g transform="translate(31.99375 253.148367)scale(0.2 -0.2)">
       <use xlink:href="#DejaVuSans-30"/>
       <use x="63.623047" xlink:href="#DejaVuSans-2e"/>
       <use x="95.410156" xlink:href="#DejaVuSans-32"/>
      </g>
     </g>
    </g>
    <g id="ytick_3">
     <g id="line2d_15">
      <path clip-path="url(#p59b7977961)" d="M 70.8 192.854484 
L 427.92 192.854484 
" style="fill:none;stroke:#b0b0b0;stroke-linecap:square;stroke-width:0.8;"/>
     </g>
     <g id="line2d_16">
      <g>
       <use style="stroke:#000000;stroke-width:0.8;" x="70.8" xlink:href="#md2777530dd" y="192.854484"/>
      </g>
     </g>
     <g id="text_9">
      <!-- 0.4 -->
      <g transform="translate(31.99375 200.452921)scale(0.2 -0.2)">
       <use xlink:href="#DejaVuSans-30"/>
       <use x="63.623047" xlink:href="#DejaVuSans-2e"/>
       <use x="95.410156" xlink:href="#DejaVuSans-34"/>
      </g>
     </g>
    </g>
    <g id="ytick_4">
     <g id="line2d_17">
      <path clip-path="url(#p59b7977961)" d="M 70.8 140.159038 
L 427.92 140.159038 
" style="fill:none;stroke:#b0b0b0;stroke-linecap:square;stroke-width:0.8;"/>
     </g>
     <g id="line2d_18">
      <g>
       <use style="stroke:#000000;stroke-width:0.8;" x="70.8" xlink:href="#md2777530dd" y="140.159038"/>
      </g>
     </g>
     <g id="text_10">
      <!-- 0.6 -->
      <g transform="translate(31.99375 147.757476)scale(0.2 -0.2)">
       <use xlink:href="#DejaVuSans-30"/>
       <use x="63.623047" xlink:href="#DejaVuSans-2e"/>
       <use x="95.410156" xlink:href="#DejaVuSans-36"/>
      </g>
     </g>
    </g>
    <g id="ytick_5">
     <g id="line2d_19">
      <path clip-path="url(#p59b7977961)" d="M 70.8 87.463593 
L 427.92 87.463593 
" style="fill:none;stroke:#b0b0b0;stroke-linecap:square;stroke-width:0.8;"/>
     </g>
     <g id="line2d_20">
      <g>
       <use style="stroke:#000000;stroke-width:0.8;" x="70.8" xlink:href="#md2777530dd" y="87.463593"/>
      </g>
     </g>
     <g id="text_11">
      <!-- 0.8 -->
      <g transform="translate(31.99375 95.06203)scale(0.2 -0.2)">
       <use xlink:href="#DejaVuSans-30"/>
       <use x="63.623047" xlink:href="#DejaVuSans-2e"/>
       <use x="95.410156" xlink:href="#DejaVuSans-38"/>
      </g>
     </g>
    </g>
    <g id="ytick_6">
     <g id="line2d_21">
      <path clip-path="url(#p59b7977961)" d="M 70.8 34.768147 
L 427.92 34.768147 
" style="fill:none;stroke:#b0b0b0;stroke-linecap:square;stroke-width:0.8;"/>
     </g>
     <g id="line2d_22">
      <g>
       <use style="stroke:#000000;stroke-width:0.8;" x="70.8" xlink:href="#md2777530dd" y="34.768147"/>
      </g>
     </g>
     <g id="text_12">
      <!-- 1.0 -->
      <g transform="translate(31.99375 42.366585)scale(0.2 -0.2)">
       <use xlink:href="#DejaVuSans-31"/>
       <use x="63.623047" xlink:href="#DejaVuSans-2e"/>
       <use x="95.410156" xlink:href="#DejaVuSans-30"/>
      </g>
     </g>
    </g>
    <g id="text_13">
     <!-- Proportion of function+target pairs -->
     <defs>
      <path d="M 19.671875 64.796875 
L 19.671875 37.40625 
L 32.078125 37.40625 
Q 38.96875 37.40625 42.71875 40.96875 
Q 46.484375 44.53125 46.484375 51.125 
Q 46.484375 57.671875 42.71875 61.234375 
Q 38.96875 64.796875 32.078125 64.796875 
z
M 9.8125 72.90625 
L 32.078125 72.90625 
Q 44.34375 72.90625 50.609375 67.359375 
Q 56.890625 61.8125 56.890625 51.125 
Q 56.890625 40.328125 50.609375 34.8125 
Q 44.34375 29.296875 32.078125 29.296875 
L 19.671875 29.296875 
L 19.671875 0 
L 9.8125 0 
z
" id="DejaVuSans-50"/>
      <path d="M 41.109375 46.296875 
Q 39.59375 47.171875 37.8125 47.578125 
Q 36.03125 48 33.890625 48 
Q 26.265625 48 22.1875 43.046875 
Q 18.109375 38.09375 18.109375 28.8125 
L 18.109375 0 
L 9.078125 0 
L 9.078125 54.6875 
L 18.109375 54.6875 
L 18.109375 46.1875 
Q 20.953125 51.171875 25.484375 53.578125 
Q 30.03125 56 36.53125 56 
Q 37.453125 56 38.578125 55.875 
Q 39.703125 55.765625 41.0625 55.515625 
z
" id="DejaVuSans-72"/>
      <path d="M 18.109375 8.203125 
L 18.109375 -20.796875 
L 9.078125 -20.796875 
L 9.078125 54.6875 
L 18.109375 54.6875 
L 18.109375 46.390625 
Q 20.953125 51.265625 25.265625 53.625 
Q 29.59375 56 35.59375 56 
Q 45.5625 56 51.78125 48.09375 
Q 58.015625 40.1875 58.015625 27.296875 
Q 58.015625 14.40625 51.78125 6.484375 
Q 45.5625 -1.421875 35.59375 -1.421875 
Q 29.59375 -1.421875 25.265625 0.953125 
Q 20.953125 3.328125 18.109375 8.203125 
z
M 48.6875 27.296875 
Q 48.6875 37.203125 44.609375 42.84375 
Q 40.53125 48.484375 33.40625 48.484375 
Q 26.265625 48.484375 22.1875 42.84375 
Q 18.109375 37.203125 18.109375 27.296875 
Q 18.109375 17.390625 22.1875 11.75 
Q 26.265625 6.109375 33.40625 6.109375 
Q 40.53125 6.109375 44.609375 11.75 
Q 48.6875 17.390625 48.6875 27.296875 
z
" id="DejaVuSans-70"/>
      <path d="M 18.3125 70.21875 
L 18.3125 54.6875 
L 36.8125 54.6875 
L 36.8125 47.703125 
L 18.3125 47.703125 
L 18.3125 18.015625 
Q 18.3125 11.328125 20.140625 9.421875 
Q 21.96875 7.515625 27.59375 7.515625 
L 36.8125 7.515625 
L 36.8125 0 
L 27.59375 0 
Q 17.1875 0 13.234375 3.875 
Q 9.28125 7.765625 9.28125 18.015625 
L 9.28125 47.703125 
L 2.6875 47.703125 
L 2.6875 54.6875 
L 9.28125 54.6875 
L 9.28125 70.21875 
z
" id="DejaVuSans-74"/>
      <path d="M 8.5 21.578125 
L 8.5 54.6875 
L 17.484375 54.6875 
L 17.484375 21.921875 
Q 17.484375 14.15625 20.5 10.265625 
Q 23.53125 6.390625 29.59375 6.390625 
Q 36.859375 6.390625 41.078125 11.03125 
Q 45.3125 15.671875 45.3125 23.6875 
L 45.3125 54.6875 
L 54.296875 54.6875 
L 54.296875 0 
L 45.3125 0 
L 45.3125 8.40625 
Q 42.046875 3.421875 37.71875 1 
Q 33.40625 -1.421875 27.6875 -1.421875 
Q 18.265625 -1.421875 13.375 4.4375 
Q 8.5 10.296875 8.5 21.578125 
z
M 31.109375 56 
z
" id="DejaVuSans-75"/>
      <path d="M 48.78125 52.59375 
L 48.78125 44.1875 
Q 44.96875 46.296875 41.140625 47.34375 
Q 37.3125 48.390625 33.40625 48.390625 
Q 24.65625 48.390625 19.8125 42.84375 
Q 14.984375 37.3125 14.984375 27.296875 
Q 14.984375 17.28125 19.8125 11.734375 
Q 24.65625 6.203125 33.40625 6.203125 
Q 37.3125 6.203125 41.140625 7.25 
Q 44.96875 8.296875 48.78125 10.40625 
L 48.78125 2.09375 
Q 45.015625 0.34375 40.984375 -0.53125 
Q 36.96875 -1.421875 32.421875 -1.421875 
Q 20.0625 -1.421875 12.78125 6.34375 
Q 5.515625 14.109375 5.515625 27.296875 
Q 5.515625 40.671875 12.859375 48.328125 
Q 20.21875 56 33.015625 56 
Q 37.15625 56 41.109375 55.140625 
Q 45.0625 54.296875 48.78125 52.59375 
z
" id="DejaVuSans-63"/>
      <path d="M 46 62.703125 
L 46 35.5 
L 73.1875 35.5 
L 73.1875 27.203125 
L 46 27.203125 
L 46 0 
L 37.796875 0 
L 37.796875 27.203125 
L 10.59375 27.203125 
L 10.59375 35.5 
L 37.796875 35.5 
L 37.796875 62.703125 
z
" id="DejaVuSans-2b"/>
     </defs>
     <g transform="translate(24.250312 323.17875)rotate(-90)scale(0.18 -0.18)">
      <use xlink:href="#DejaVuSans-50"/>
      <use x="60.287109" xlink:href="#DejaVuSans-72"/>
      <use x="101.369141" xlink:href="#DejaVuSans-6f"/>
      <use x="162.550781" xlink:href="#DejaVuSans-70"/>
      <use x="226.027344" xlink:href="#DejaVuSans-6f"/>
      <use x="287.208984" xlink:href="#DejaVuSans-72"/>
      <use x="328.322266" xlink:href="#DejaVuSans-74"/>
      <use x="367.53125" xlink:href="#DejaVuSans-69"/>
      <use x="395.314453" xlink:href="#DejaVuSans-6f"/>
      <use x="456.496094" xlink:href="#DejaVuSans-6e"/>
      <use x="519.875" xlink:href="#DejaVuSans-20"/>
      <use x="551.662109" xlink:href="#DejaVuSans-6f"/>
      <use x="612.84375" xlink:href="#DejaVuSans-66"/>
      <use x="648.048828" xlink:href="#DejaVuSans-20"/>
      <use x="679.835938" xlink:href="#DejaVuSans-66"/>
      <use x="715.041016" xlink:href="#DejaVuSans-75"/>
      <use x="778.419922" xlink:href="#DejaVuSans-6e"/>
      <use x="841.798828" xlink:href="#DejaVuSans-63"/>
      <use x="896.779297" xlink:href="#DejaVuSans-74"/>
      <use x="935.988281" xlink:href="#DejaVuSans-69"/>
      <use x="963.771484" xlink:href="#DejaVuSans-6f"/>
      <use x="1024.953125" xlink:href="#DejaVuSans-6e"/>
      <use x="1088.332031" xlink:href="#DejaVuSans-2b"/>
      <use x="1172.121094" xlink:href="#DejaVuSans-74"/>
      <use x="1211.330078" xlink:href="#DejaVuSans-61"/>
      <use x="1272.609375" xlink:href="#DejaVuSans-72"/>
      <use x="1313.707031" xlink:href="#DejaVuSans-67"/>
      <use x="1377.183594" xlink:href="#DejaVuSans-65"/>
      <use x="1438.707031" xlink:href="#DejaVuSans-74"/>
      <use x="1477.916016" xlink:href="#DejaVuSans-20"/>
      <use x="1509.703125" xlink:href="#DejaVuSans-70"/>
      <use x="1573.179688" xlink:href="#DejaVuSans-61"/>
      <use x="1634.458984" xlink:href="#DejaVuSans-69"/>
      <use x="1662.242188" xlink:href="#DejaVuSans-72"/>
      <use x="1703.355469" xlink:href="#DejaVuSans-73"/>
     </g>
    </g>
   </g>
   <g id="line2d_23">
    <defs>
     <path d="M 0 1.5 
C 0.397805 1.5 0.77937 1.341951 1.06066 1.06066 
C 1.341951 0.77937 1.5 0.397805 1.5 0 
C 1.5 -0.397805 1.341951 -0.77937 1.06066 -1.06066 
C 0.77937 -1.341951 0.397805 -1.5 0 -1.5 
C -0.397805 -1.5 -0.77937 -1.341951 -1.06066 -1.06066 
C -1.341951 -0.77937 -1.5 -0.397805 -1.5 0 
C -1.5 0.397805 -1.341951 0.77937 -1.06066 1.06066 
C -0.77937 1.341951 -0.397805 1.5 0 1.5 
z
" id="m8e2099802f" style="stroke:#000080;"/>
    </defs>
    <g>
     <use style="fill:#000080;stroke:#000080;" x="283.280142" xlink:href="#m8e2099802f" y="86.430349"/>
     <use style="fill:#000080;stroke:#000080;" x="283.280142" xlink:href="#m8e2099802f" y="86.430349"/>
    </g>
   </g>
   <g id="line2d_24">
    <path d="M 123.829835 298.245375 
L 123.829835 297.728753 
L 127.54857 297.728753 
L 127.62302 296.178887 
L 128.598873 296.178887 
L 128.598873 295.145643 
L 129.557546 295.145643 
L 129.557546 294.629021 
L 129.953166 294.629021 
L 130.018259 293.079155 
L 131.483424 293.079155 
L 131.572989 292.045911 
L 131.691714 292.045911 
L 131.691714 291.529289 
L 131.809656 291.529289 
L 131.809656 290.496045 
L 132.670245 290.496045 
L 132.670245 289.462801 
L 133.544701 289.462801 
L 133.544701 288.429557 
L 133.914217 288.429557 
L 133.914217 287.912935 
L 134.327371 287.912935 
L 134.327371 287.396313 
L 135.655187 287.396313 
L 135.655187 286.363069 
L 136.238021 286.363069 
L 136.238021 285.846447 
L 136.802443 285.846447 
L 136.802443 284.813203 
L 137.284802 284.813203 
L 137.284802 284.296581 
L 139.727451 284.296581 
L 139.727451 283.263337 
L 140.248099 283.263337 
L 140.302993 282.230093 
L 151.01351 282.230093 
L 151.01351 280.163604 
L 163.91297 280.163604 
L 163.91297 279.646982 
L 164.398586 279.646982 
L 164.398586 279.13036 
L 165.439652 279.13036 
L 165.439652 278.613738 
L 166.650633 278.613738 
L 166.650633 278.097116 
L 173.125069 278.097116 
L 173.125069 277.580494 
L 176.424481 277.580494 
L 176.424481 277.063872 
L 176.845377 277.063872 
L 176.845377 276.54725 
L 178.210018 276.54725 
L 178.210018 275.514006 
L 181.416594 275.514006 
L 181.416594 274.997384 
L 182.33503 274.997384 
L 182.33503 273.96414 
L 185.093633 273.96414 
L 185.093633 272.930896 
L 185.422771 272.930896 
L 185.422771 272.414274 
L 187.064789 272.414274 
L 187.064789 270.864408 
L 187.46189 270.864408 
L 187.46189 270.347786 
L 189.003458 270.347786 
L 189.003458 269.831164 
L 189.370689 269.831164 
L 189.370689 268.79792 
L 189.81536 268.79792 
L 189.81536 268.281298 
L 189.983831 268.281298 
L 189.983831 267.764676 
L 190.204526 267.764676 
L 190.293827 266.731432 
L 190.846392 266.731432 
L 190.846392 266.21481 
L 191.504539 266.21481 
L 191.504539 265.181566 
L 191.633102 265.181566 
L 191.700127 262.598456 
L 192.023443 262.598456 
L 192.023443 261.565212 
L 192.591459 261.565212 
L 192.696893 258.982102 
L 192.939553 258.982102 
L 192.970255 257.948858 
L 193.057274 257.948858 
L 193.167589 256.398992 
L 193.279112 256.398992 
L 193.319579 254.849126 
L 194.971415 254.849126 
L 194.971415 254.332504 
L 195.384824 254.332504 
L 195.453361 253.29926 
L 196.21761 253.29926 
L 196.319627 251.232772 
L 196.451069 251.232772 
L 196.451069 250.71615 
L 196.593295 250.71615 
L 196.69086 249.682906 
L 197.01789 249.682906 
L 197.01789 249.166284 
L 198.243579 249.166284 
L 198.257132 247.099796 
L 198.531683 247.099796 
L 198.566058 245.033307 
L 199.194065 245.033307 
L 199.194065 244.516685 
L 199.345664 244.516685 
L 199.432673 242.450197 
L 199.462692 242.450197 
L 199.462692 241.933575 
L 200.132523 241.933575 
L 200.19661 240.900331 
L 200.362169 240.900331 
L 200.442483 239.350465 
L 200.586397 239.350465 
L 200.681907 238.317221 
L 201.041235 238.317221 
L 201.14588 235.734111 
L 201.419784 235.734111 
L 201.47466 233.667623 
L 201.648904 233.667623 
L 201.68661 232.117757 
L 201.761199 232.117757 
L 201.761199 231.601135 
L 201.989482 231.601135 
L 202.01608 230.051269 
L 202.214313 230.051269 
L 202.214313 229.534647 
L 202.385486 229.534647 
L 202.385486 229.018025 
L 202.510129 229.018025 
L 202.60542 226.951537 
L 202.645626 226.951537 
L 202.700761 224.885049 
L 202.847515 224.885049 
L 202.847515 223.851805 
L 203.084741 223.851805 
L 203.130942 222.301939 
L 203.246194 222.301939 
L 203.354276 220.752073 
L 203.393903 220.752073 
L 203.477687 218.168963 
L 203.515979 218.168963 
L 203.56161 216.619097 
L 203.789601 216.619097 
L 203.789601 216.102475 
L 204.065795 216.102475 
L 204.134181 214.035987 
L 204.180822 214.035987 
L 204.257437 213.002743 
L 204.305282 213.002743 
L 204.398567 211.969498 
L 204.618187 211.969498 
L 204.72873 210.419632 
L 204.758985 210.419632 
L 204.758985 209.386388 
L 205.012396 209.386388 
L 205.039736 207.836522 
L 205.126846 207.836522 
L 205.195166 205.253412 
L 205.455382 205.253412 
L 205.455382 204.73679 
L 205.718438 204.73679 
L 205.811656 202.15368 
L 205.858783 202.15368 
L 205.920651 201.120436 
L 206.049283 201.120436 
L 206.100385 199.053948 
L 206.366867 199.053948 
L 206.405324 197.504082 
L 206.636127 197.504082 
L 206.745986 194.40435 
L 206.880717 194.40435 
L 206.954936 192.337862 
L 207.12157 192.337862 
L 207.12157 191.82124 
L 207.345076 191.82124 
L 207.34722 190.271374 
L 207.477083 190.271374 
L 207.563279 188.721508 
L 207.591213 188.721508 
L 207.591213 188.204886 
L 207.721002 188.204886 
L 207.826912 187.171642 
L 207.890242 187.171642 
L 207.991022 184.588532 
L 208.239494 184.588532 
L 208.239494 184.07191 
L 208.416843 184.07191 
L 208.472485 183.038666 
L 208.729481 183.038666 
L 208.762387 182.005422 
L 208.872556 182.005422 
L 208.9107 178.389067 
L 209.037912 178.389067 
L 209.069866 177.355823 
L 209.29042 177.355823 
L 209.326532 176.322579 
L 209.465685 176.322579 
L 209.561391 173.739469 
L 209.654327 173.739469 
L 209.728028 172.189603 
L 215.725834 172.189603 
L 215.821345 170.639737 
L 216.710837 170.639737 
L 216.710837 170.123115 
L 216.939622 170.123115 
L 216.939622 169.606493 
L 217.298662 169.606493 
L 217.298662 169.089871 
L 217.800057 169.089871 
L 217.800057 168.573249 
L 218.198058 168.573249 
L 218.210901 167.540005 
L 218.580301 167.540005 
L 218.580301 166.506761 
L 219.028944 166.506761 
L 219.028944 165.990139 
L 219.249661 165.990139 
L 219.360319 164.956895 
L 219.589975 164.956895 
L 219.589975 164.440273 
L 219.884224 164.440273 
L 219.930501 163.407029 
L 220.009405 163.407029 
L 220.04167 162.373785 
L 220.237172 162.373785 
L 220.237172 161.857163 
L 220.449308 161.857163 
L 220.449308 161.340541 
L 220.762459 161.340541 
L 220.819434 159.790675 
L 221.214041 159.790675 
L 221.214633 158.757431 
L 221.536093 158.757431 
L 221.619035 157.724187 
L 221.774596 157.724187 
L 221.860627 156.174321 
L 221.96877 156.174321 
L 222.070996 154.624455 
L 222.088479 154.624455 
L 222.167405 152.557967 
L 225.01898 152.557967 
L 225.01898 152.041345 
L 227.415536 152.041345 
L 227.415536 151.524723 
L 227.623911 151.524723 
L 227.623911 151.008101 
L 228.556538 151.008101 
L 228.564385 148.941613 
L 228.69883 148.941613 
L 228.69883 148.424991 
L 228.990149 148.424991 
L 229.048535 146.875125 
L 229.389779 146.875125 
L 229.442269 145.325259 
L 232.334594 145.325259 
L 232.334594 144.808637 
L 232.571275 144.808637 
L 232.571275 144.292014 
L 232.727857 144.292014 
L 232.727857 143.775392 
L 232.898372 143.775392 
L 232.898372 142.225526 
L 233.395379 142.225526 
L 233.395379 141.708904 
L 233.516905 141.708904 
L 233.516905 140.67566 
L 233.76132 140.67566 
L 233.76132 140.159038 
L 233.940211 140.159038 
L 233.940211 139.642416 
L 234.092586 139.642416 
L 234.092586 139.125794 
L 234.285495 139.125794 
L 234.285495 138.609172 
L 234.592345 138.609172 
L 234.592345 138.09255 
L 236.688079 138.09255 
L 236.688079 137.059306 
L 236.80777 137.059306 
L 236.80777 136.542684 
L 237.380118 136.542684 
L 237.380118 136.026062 
L 238.068259 136.026062 
L 238.070026 134.992818 
L 238.324165 134.992818 
L 238.358817 133.442952 
L 238.514748 133.442952 
L 238.586236 131.893086 
L 240.142825 131.893086 
L 240.142825 131.376464 
L 241.041703 131.376464 
L 241.144895 129.826598 
L 241.311425 129.826598 
L 241.311425 129.309976 
L 241.514214 129.309976 
L 241.514214 128.793354 
L 241.633168 128.793354 
L 241.633168 128.276732 
L 241.825449 128.276732 
L 241.825449 127.76011 
L 243.487717 127.76011 
L 243.487717 127.243488 
L 244.149218 127.243488 
L 244.243809 126.210244 
L 244.448712 126.210244 
L 244.502279 125.177 
L 244.593638 125.177 
L 244.616072 124.143756 
L 246.095987 124.143756 
L 246.095987 123.627134 
L 246.414994 123.627134 
L 246.498969 122.59389 
L 246.597476 122.59389 
L 246.597476 122.077268 
L 246.905717 122.077268 
L 246.985603 119.494158 
L 248.745951 119.494158 
L 248.745951 118.977536 
L 249.023864 118.977536 
L 249.094838 117.42767 
L 250.214904 117.42767 
L 250.214904 116.911048 
L 250.667546 116.911048 
L 250.736339 115.361182 
L 250.79187 115.361182 
L 250.872874 114.327938 
L 250.977701 114.327938 
L 250.977701 113.811316 
L 252.172472 113.811316 
L 252.274337 112.26145 
L 252.316679 112.26145 
L 252.316679 111.744828 
L 252.515263 111.744828 
L 252.588835 109.678339 
L 253.60847 109.678339 
L 253.60847 109.161717 
L 254.086958 109.161717 
L 254.192993 108.128473 
L 255.286506 108.128473 
L 255.31743 107.095229 
L 255.436232 107.095229 
L 255.531513 105.545363 
L 255.585896 105.545363 
L 255.585896 105.028741 
L 256.397378 105.028741 
L 256.397378 103.995497 
L 257.810993 103.995497 
L 257.810993 103.478875 
L 258.221492 103.478875 
L 258.247735 102.445631 
L 258.778474 102.445631 
L 258.778474 101.929009 
L 258.95311 101.929009 
L 258.99255 100.895765 
L 259.317986 100.895765 
L 259.317986 100.379143 
L 260.406828 100.379143 
L 260.406828 99.862521 
L 261.18615 99.862521 
L 261.18615 99.345899 
L 261.363266 99.345899 
L 261.393924 98.312655 
L 261.485604 98.312655 
L 261.498754 97.279411 
L 263.261335 97.279411 
L 263.261335 96.246167 
L 264.946028 96.246167 
L 265.034078 94.696301 
L 266.483269 94.696301 
L 266.483269 94.179679 
L 266.594563 94.179679 
L 266.594563 93.663057 
L 267.298337 93.663057 
L 267.298337 93.146435 
L 268.002562 93.146435 
L 268.051306 91.596569 
L 270.529913 91.596569 
L 270.612482 90.563325 
L 272.77991 90.563325 
L 272.816066 89.530081 
L 276.048448 89.530081 
L 276.048448 89.013459 
L 276.57497 89.013459 
L 276.57497 88.496837 
L 277.466156 88.496837 
L 277.466156 87.980215 
L 278.654626 87.980215 
L 278.654626 87.463593 
L 282.053878 87.463593 
L 282.053878 86.946971 
L 283.280142 86.946971 
L 283.280142 86.430349 
L 358.8 86.430349 
L 358.8 86.430349 
" style="fill:none;stroke:#000080;stroke-linecap:square;stroke-width:1.5;"/>
   </g>
   <g id="line2d_25">
    <defs>
     <path d="M 0 6 
C 1.591219 6 3.117479 5.367802 4.242641 4.242641 
C 5.367802 3.117479 6 1.591219 6 0 
C 6 -1.591219 5.367802 -3.117479 4.242641 -4.242641 
C 3.117479 -5.367802 1.591219 -6 0 -6 
C -1.591219 -6 -3.117479 -5.367802 -4.242641 -4.242641 
C -5.367802 -3.117479 -6 -1.591219 -6 0 
C -6 1.591219 -5.367802 3.117479 -4.242641 4.242641 
C -3.117479 5.367802 -1.591219 6 0 6 
z
" id="m4e508c618c" style="stroke:#000080;stroke-width:1.5;"/>
    </defs>
    <g>
     <use style="fill:none;stroke:#000080;stroke-width:1.5;" x="198.566058" xlink:href="#m4e508c618c" y="245.033307"/>
     <use style="fill:none;stroke:#000080;stroke-width:1.5;" x="232.898372" xlink:href="#m4e508c618c" y="143.775392"/>
     <use style="fill:none;stroke:#000080;stroke-width:1.5;" x="283.280142" xlink:href="#m4e508c618c" y="86.430349"/>
     <use style="fill:none;stroke:#000080;stroke-width:1.5;" x="283.280142" xlink:href="#m4e508c618c" y="86.430349"/>
     <use style="fill:none;stroke:#000080;stroke-width:1.5;" x="358.8" xlink:href="#m4e508c618c" y="86.430349"/>
    </g>
   </g>
   <g id="line2d_26"/>
   <g id="line2d_27">
    <path clip-path="url(#p59b7977961)" d="M 209.87192 172.189603 
" style="fill:none;stroke:#000080;stroke-linecap:square;stroke-width:1.5;"/>
    <defs>
     <path d="M -12 12 
L 12 -12 
M -12 -12 
L 12 12 
" id="mf76d0e1a30" style="stroke:#000080;stroke-width:3;"/>
    </defs>
    <g clip-path="url(#p59b7977961)">
     <use style="fill:#000080;stroke:#000080;stroke-width:3;" x="209.87192" xlink:href="#mf76d0e1a30" y="172.189603"/>
    </g>
   </g>
   <g id="line2d_28">
    <defs>
     <path d="M 0 1.5 
C 0.397805 1.5 0.77937 1.341951 1.06066 1.06066 
C 1.341951 0.77937 1.5 0.397805 1.5 0 
C 1.5 -0.397805 1.341951 -0.77937 1.06066 -1.06066 
C 0.77937 -1.341951 0.397805 -1.5 0 -1.5 
C -0.397805 -1.5 -0.77937 -1.341951 -1.06066 -1.06066 
C -1.341951 -0.77937 -1.5 -0.397805 -1.5 0 
C -1.5 0.397805 -1.341951 0.77937 -1.06066 1.06066 
C -0.77937 1.341951 -0.397805 1.5 0 1.5 
z
" id="m7c58832e73" style="stroke:#ff00ff;"/>
    </defs>
    <g>
     <use style="fill:#ff00ff;stroke:#ff00ff;" x="281.103805" xlink:href="#m7c58832e73" y="200.087192"/>
     <use style="fill:#ff00ff;stroke:#ff00ff;" x="281.103805" xlink:href="#m7c58832e73" y="200.087192"/>
    </g>
   </g>
   <g id="line2d_29">
    <path d="M 102.515054 298.245375 
L 102.515054 297.728753 
L 111.398608 297.728753 
L 111.490476 296.695509 
L 116.561956 296.695509 
L 116.561956 295.662265 
L 116.903613 295.662265 
L 116.903613 295.145643 
L 117.038468 295.145643 
L 117.038468 294.629021 
L 117.502601 294.629021 
L 117.502601 294.112399 
L 117.762505 294.112399 
L 117.762505 293.079155 
L 119.187755 293.079155 
L 119.187755 292.562533 
L 119.599888 292.562533 
L 119.599888 292.045911 
L 119.831193 292.045911 
L 119.831193 291.529289 
L 122.935065 291.529289 
L 122.935065 289.979423 
L 123.411577 289.979423 
L 123.411577 289.462801 
L 124.417209 289.462801 
L 124.417209 288.946179 
L 126.980077 288.946179 
L 126.980077 288.429557 
L 127.881181 288.429557 
L 127.881181 287.396313 
L 128.027044 287.396313 
L 128.027044 286.879691 
L 128.207714 286.879691 
L 128.207714 285.846447 
L 128.563665 285.846447 
L 128.563665 285.329825 
L 128.878068 285.329825 
L 128.878068 284.296581 
L 130.050717 284.296581 
L 130.050717 283.263337 
L 135.150472 283.263337 
L 135.150472 282.746715 
L 135.607728 282.746715 
L 135.607728 282.230093 
L 138.355321 282.230093 
L 138.355321 281.713471 
L 138.477149 281.713471 
L 138.477149 281.196849 
L 142.931654 281.196849 
L 142.931654 280.680226 
L 144.515272 280.680226 
L 144.515272 280.163604 
L 152.018094 280.163604 
L 152.018094 279.646982 
L 155.50514 279.646982 
L 155.50514 278.613738 
L 156.373212 278.613738 
L 156.373212 278.097116 
L 159.908748 278.097116 
L 159.908748 277.580494 
L 160.502507 277.580494 
L 160.514302 276.54725 
L 160.97405 276.54725 
L 160.97405 276.030628 
L 161.611761 276.030628 
L 161.644994 274.480762 
L 162.275635 274.480762 
L 162.275635 273.96414 
L 162.540745 273.96414 
L 162.540745 272.930896 
L 162.858942 272.930896 
L 162.858942 272.414274 
L 163.829919 272.414274 
L 163.829919 271.897652 
L 164.293927 271.897652 
L 164.293927 270.864408 
L 164.806562 270.864408 
L 164.806562 270.347786 
L 165.232613 270.347786 
L 165.232613 269.831164 
L 168.728691 269.831164 
L 168.728691 268.79792 
L 171.88689 268.79792 
L 171.88689 267.764676 
L 186.138021 267.764676 
L 186.138021 267.248054 
L 186.2724 267.248054 
L 186.2724 266.731432 
L 186.580705 266.731432 
L 186.580705 266.21481 
L 187.02606 266.21481 
L 187.02606 265.698188 
L 187.724804 265.698188 
L 187.724804 265.181566 
L 187.843972 265.181566 
L 187.921707 263.6317 
L 188.521868 263.6317 
L 188.617518 262.081834 
L 188.715091 262.081834 
L 188.715091 261.04859 
L 188.918278 261.04859 
L 188.918278 260.015346 
L 191.243548 260.015346 
L 191.29521 258.982102 
L 191.878318 258.982102 
L 191.878318 258.46548 
L 193.408659 258.46548 
L 193.408659 257.948858 
L 197.514583 257.948858 
L 197.514583 257.432236 
L 198.59407 257.432236 
L 198.59407 256.915614 
L 199.914191 256.915614 
L 199.914191 256.398992 
L 201.386897 256.398992 
L 201.418589 255.365748 
L 202.026477 255.365748 
L 202.026477 254.849126 
L 202.248565 254.849126 
L 202.346959 253.29926 
L 202.893232 253.29926 
L 202.893232 252.266016 
L 203.897056 252.266016 
L 203.897056 251.749394 
L 204.705881 251.749394 
L 204.705881 250.71615 
L 204.825268 250.71615 
L 204.825268 249.166284 
L 206.167837 249.166284 
L 206.167837 248.649662 
L 206.956689 248.649662 
L 206.956689 248.13304 
L 207.341645 248.13304 
L 207.341645 247.616418 
L 207.674757 247.616418 
L 207.674757 247.099796 
L 209.641888 247.099796 
L 209.70099 244.000063 
L 211.181088 244.000063 
L 211.283884 240.900331 
L 214.47857 240.900331 
L 214.562653 239.867087 
L 214.642637 239.867087 
L 214.751184 238.317221 
L 216.385483 238.317221 
L 216.385483 237.800599 
L 216.790373 237.800599 
L 216.790373 237.283977 
L 218.51364 237.283977 
L 218.51364 236.767355 
L 219.106372 236.767355 
L 219.159133 235.734111 
L 220.863756 235.734111 
L 220.863756 235.217489 
L 221.408905 235.217489 
L 221.460161 234.184245 
L 222.960446 234.184245 
L 223.028314 232.634379 
L 224.756007 232.634379 
L 224.862819 230.051269 
L 225.535142 230.051269 
L 225.535142 229.534647 
L 225.80911 229.534647 
L 225.80911 229.018025 
L 229.076385 229.018025 
L 229.076385 228.501403 
L 229.435047 228.501403 
L 229.435047 227.984781 
L 229.98521 227.984781 
L 229.98521 227.468159 
L 230.104376 227.468159 
L 230.104376 226.951537 
L 231.195328 226.951537 
L 231.25662 225.918293 
L 231.752774 225.918293 
L 231.752774 225.401671 
L 231.946663 225.401671 
L 231.946663 224.885049 
L 233.019442 224.885049 
L 233.019442 224.368427 
L 233.160437 224.368427 
L 233.160437 223.851805 
L 233.924815 223.851805 
L 233.924815 223.335183 
L 234.042612 223.335183 
L 234.042612 222.301939 
L 235.018283 222.301939 
L 235.032128 221.268695 
L 235.788304 221.268695 
L 235.788304 220.752073 
L 235.992676 220.752073 
L 235.992676 220.235451 
L 236.638796 220.235451 
L 236.638796 219.202207 
L 237.224793 219.202207 
L 237.224793 218.685585 
L 237.777351 218.685585 
L 237.777351 217.652341 
L 238.314999 217.652341 
L 238.314999 217.135719 
L 238.942012 217.135719 
L 238.942012 216.619097 
L 239.717814 216.619097 
L 239.717814 216.102475 
L 242.124806 216.102475 
L 242.190986 214.552609 
L 242.659336 214.552609 
L 242.659336 214.035987 
L 243.151366 214.035987 
L 243.242693 212.48612 
L 243.809945 212.48612 
L 243.809945 211.969498 
L 244.403392 211.969498 
L 244.41756 210.936254 
L 246.730251 210.936254 
L 246.730251 210.419632 
L 247.983967 210.419632 
L 247.983967 209.90301 
L 248.429006 209.90301 
L 248.429006 209.386388 
L 250.777278 209.386388 
L 250.777278 208.869766 
L 251.197616 208.869766 
L 251.197616 208.353144 
L 251.553404 208.353144 
L 251.553404 207.836522 
L 252.502013 207.836522 
L 252.502013 206.803278 
L 254.734047 206.803278 
L 254.734047 206.286656 
L 255.582408 206.286656 
L 255.582408 205.770034 
L 257.423223 205.770034 
L 257.423223 205.253412 
L 257.620423 205.253412 
L 257.620423 204.73679 
L 257.87635 204.73679 
L 257.87635 204.220168 
L 258.155441 204.220168 
L 258.155441 203.703546 
L 259.897427 203.703546 
L 259.897427 203.186924 
L 260.356781 203.186924 
L 260.356781 202.670302 
L 265.794421 202.670302 
L 265.829385 201.637058 
L 271.855429 201.637058 
L 271.855429 201.120436 
L 274.61912 201.120436 
L 274.61912 200.603814 
L 281.103805 200.603814 
L 281.103805 200.087192 
L 358.8 200.087192 
L 358.8 200.087192 
" style="fill:none;stroke:#ff00ff;stroke-linecap:square;stroke-width:1.5;"/>
   </g>
   <g id="line2d_30">
    <defs>
     <path d="M -0 8.485281 
L 5.091169 0 
L 0 -8.485281 
L -5.091169 -0 
z
" id="m917c6ebd8b" style="stroke:#ff00ff;stroke-linejoin:miter;stroke-width:1.5;"/>
    </defs>
    <g>
     <use style="fill:none;stroke:#ff00ff;stroke-linejoin:miter;stroke-width:1.5;" x="193.408659" xlink:href="#m917c6ebd8b" y="258.46548"/>
     <use style="fill:none;stroke:#ff00ff;stroke-linejoin:miter;stroke-width:1.5;" x="260.356781" xlink:href="#m917c6ebd8b" y="203.186924"/>
     <use style="fill:none;stroke:#ff00ff;stroke-linejoin:miter;stroke-width:1.5;" x="281.103805" xlink:href="#m917c6ebd8b" y="200.087192"/>
     <use style="fill:none;stroke:#ff00ff;stroke-linejoin:miter;stroke-width:1.5;" x="281.103805" xlink:href="#m917c6ebd8b" y="200.087192"/>
     <use style="fill:none;stroke:#ff00ff;stroke-linejoin:miter;stroke-width:1.5;" x="358.8" xlink:href="#m917c6ebd8b" y="200.087192"/>
    </g>
   </g>
   <g id="line2d_31"/>
   <g id="line2d_32">
    <path clip-path="url(#p59b7977961)" d="M 209.87192 244.000063 
" style="fill:none;stroke:#ff00ff;stroke-linecap:square;stroke-width:1.5;"/>
    <defs>
     <path d="M -12 12 
L 12 -12 
M -12 -12 
L 12 12 
" id="m3156ffe790" style="stroke:#ff00ff;stroke-width:3;"/>
    </defs>
    <g clip-path="url(#p59b7977961)">
     <use style="fill:#ff00ff;stroke:#ff00ff;stroke-width:3;" x="209.87192" xlink:href="#m3156ffe790" y="244.000063"/>
    </g>
   </g>
   <g id="line2d_33">
    <defs>
     <path d="M 0 1.5 
C 0.397805 1.5 0.77937 1.341951 1.06066 1.06066 
C 1.341951 0.77937 1.5 0.397805 1.5 0 
C 1.5 -0.397805 1.341951 -0.77937 1.06066 -1.06066 
C 0.77937 -1.341951 0.397805 -1.5 0 -1.5 
C -0.397805 -1.5 -0.77937 -1.341951 -1.06066 -1.06066 
C -1.341951 -0.77937 -1.5 -0.397805 -1.5 0 
C -1.5 0.397805 -1.341951 0.77937 -1.06066 1.06066 
C -0.77937 1.341951 -0.397805 1.5 0 1.5 
z
" id="mc76da1e49a" style="stroke:#ffa500;"/>
    </defs>
    <g>
     <use style="fill:#ffa500;stroke:#ffa500;" x="213.698364" xlink:href="#mc76da1e49a" y="34.768147"/>
     <use style="fill:#ffa500;stroke:#ffa500;" x="213.698364" xlink:href="#mc76da1e49a" y="34.768147"/>
    </g>
   </g>
   <g id="line2d_34">
    <path d="M 128.669082 298.245375 
L 128.669082 296.178887 
L 129.221037 296.178887 
L 129.221037 295.662265 
L 130.403917 295.662265 
L 130.403917 295.145643 
L 134.352879 295.145643 
L 134.352879 294.112399 
L 136.690976 294.112399 
L 136.690976 293.595777 
L 137.263157 293.595777 
L 137.263157 292.562533 
L 137.754481 292.562533 
L 137.754481 291.529289 
L 138.817886 291.529289 
L 138.817886 291.012667 
L 139.365311 291.012667 
L 139.422981 288.946179 
L 141.24598 288.946179 
L 141.24598 288.429557 
L 141.674081 288.429557 
L 141.690994 287.396313 
L 141.992714 287.396313 
L 141.992714 286.879691 
L 142.41973 286.879691 
L 142.41973 286.363069 
L 142.757329 286.363069 
L 142.757329 285.846447 
L 143.026028 285.846447 
L 143.026028 284.813203 
L 143.429318 284.813203 
L 143.429318 284.296581 
L 143.627601 284.296581 
L 143.642762 282.746715 
L 143.763595 282.746715 
L 143.763595 282.230093 
L 144.341231 282.230093 
L 144.341231 281.713471 
L 144.601662 281.713471 
L 144.673335 280.163604 
L 145.429622 280.163604 
L 145.429622 279.646982 
L 145.7153 279.646982 
L 145.7153 279.13036 
L 146.234024 279.13036 
L 146.234024 278.613738 
L 146.507222 278.613738 
L 146.507222 278.097116 
L 146.890399 278.097116 
L 146.890399 277.580494 
L 147.462426 277.580494 
L 147.462426 277.063872 
L 147.741716 277.063872 
L 147.741716 276.54725 
L 148.004839 276.54725 
L 148.004839 275.514006 
L 148.322555 275.514006 
L 148.322555 274.997384 
L 148.930256 274.997384 
L 148.930256 273.447518 
L 149.287407 273.447518 
L 149.287407 272.414274 
L 149.572426 272.414274 
L 149.572426 271.897652 
L 149.938412 271.897652 
L 149.938412 271.38103 
L 150.628144 271.38103 
L 150.628144 270.864408 
L 151.341557 270.864408 
L 151.420185 269.831164 
L 151.951582 269.831164 
L 151.951582 268.79792 
L 152.578269 268.79792 
L 152.614997 267.248054 
L 153.023066 267.248054 
L 153.112496 266.21481 
L 153.43955 266.21481 
L 153.448307 265.181566 
L 153.743511 265.181566 
L 153.743511 264.664944 
L 153.966009 264.664944 
L 153.966009 264.148322 
L 154.11844 264.148322 
L 154.177369 263.115078 
L 154.286295 263.115078 
L 154.286295 262.598456 
L 154.518675 262.598456 
L 154.518675 261.565212 
L 154.910142 261.565212 
L 154.910142 261.04859 
L 155.198215 261.04859 
L 155.229938 259.498724 
L 155.364137 259.498724 
L 155.364137 258.982102 
L 155.590764 258.982102 
L 155.590764 258.46548 
L 156.050715 258.46548 
L 156.050715 257.948858 
L 156.365778 257.948858 
L 156.365778 256.915614 
L 156.580124 256.915614 
L 156.580124 256.398992 
L 156.828195 256.398992 
L 156.893289 254.849126 
L 157.165543 254.849126 
L 157.165543 254.332504 
L 157.828564 254.332504 
L 157.855948 253.29926 
L 158.060002 253.29926 
L 158.060002 252.266016 
L 158.268437 252.266016 
L 158.375073 249.166284 
L 158.924703 249.166284 
L 159.00186 247.616418 
L 159.123347 247.616418 
L 159.180606 246.583173 
L 159.445417 246.583173 
L 159.445417 246.066551 
L 159.663134 246.066551 
L 159.663134 245.549929 
L 159.786363 245.549929 
L 159.786363 244.516685 
L 160.157046 244.516685 
L 160.157046 243.483441 
L 160.608375 243.483441 
L 160.655227 241.416953 
L 160.893434 241.416953 
L 160.893434 240.383709 
L 161.242063 240.383709 
L 161.287284 237.800599 
L 161.914106 237.800599 
L 161.984827 235.734111 
L 162.087689 235.734111 
L 162.120049 234.184245 
L 162.472194 234.184245 
L 162.546008 233.151001 
L 162.791603 233.151001 
L 162.791603 232.117757 
L 163.125789 232.117757 
L 163.232434 230.051269 
L 163.303179 230.051269 
L 163.383689 228.501403 
L 163.433824 228.501403 
L 163.43883 226.434915 
L 163.893463 226.434915 
L 163.893463 225.918293 
L 164.097229 225.918293 
L 164.097229 224.885049 
L 164.231793 224.885049 
L 164.231793 224.368427 
L 164.351089 224.368427 
L 164.351089 223.851805 
L 164.474318 223.851805 
L 164.545027 222.301939 
L 164.713596 222.301939 
L 164.713596 221.785317 
L 165.082594 221.785317 
L 165.082594 221.268695 
L 165.286855 221.268695 
L 165.286855 220.752073 
L 165.520018 220.752073 
L 165.520018 220.235451 
L 165.714961 220.235451 
L 165.714961 219.718829 
L 165.846668 219.718829 
L 165.94699 218.685585 
L 165.960034 218.685585 
L 165.960034 218.168963 
L 166.120132 218.168963 
L 166.197501 217.135719 
L 166.329969 217.135719 
L 166.329969 216.102475 
L 166.783947 216.102475 
L 166.866766 213.002743 
L 167.006683 213.002743 
L 167.006683 212.48612 
L 167.246909 212.48612 
L 167.283272 210.936254 
L 167.511865 210.936254 
L 167.567566 209.386388 
L 167.662652 209.386388 
L 167.662652 208.869766 
L 168.018657 208.869766 
L 168.126785 207.3199 
L 168.348704 207.3199 
L 168.424594 205.770034 
L 168.702614 205.770034 
L 168.773306 204.73679 
L 168.817809 204.73679 
L 168.817809 203.703546 
L 169.075226 203.703546 
L 169.075226 203.186924 
L 169.310981 203.186924 
L 169.357761 201.637058 
L 169.493804 201.637058 
L 169.493804 201.120436 
L 169.720614 201.120436 
L 169.720614 200.603814 
L 170.020925 200.603814 
L 170.027849 199.57057 
L 170.254858 199.57057 
L 170.254858 199.053948 
L 170.576632 199.053948 
L 170.626913 197.504082 
L 170.763629 197.504082 
L 170.763629 196.98746 
L 170.928954 196.98746 
L 171.037236 195.437594 
L 171.06012 195.437594 
L 171.161117 193.887728 
L 171.196817 193.887728 
L 171.196817 192.854484 
L 171.351772 192.854484 
L 171.444743 190.787996 
L 171.467112 190.787996 
L 171.467112 190.271374 
L 171.673499 190.271374 
L 171.711342 188.204886 
L 171.88065 188.204886 
L 171.967811 186.138398 
L 172.272625 186.138398 
L 172.327491 184.588532 
L 172.385224 184.588532 
L 172.385224 184.07191 
L 172.497117 184.07191 
L 172.497117 183.038666 
L 172.608314 183.038666 
L 172.608314 182.522044 
L 172.763431 182.522044 
L 172.872988 179.938934 
L 173.037537 179.938934 
L 173.133798 177.355823 
L 173.186087 177.355823 
L 173.186087 176.322579 
L 173.390856 176.322579 
L 173.430958 175.289335 
L 173.508043 175.289335 
L 173.556409 172.706225 
L 173.751382 172.706225 
L 173.835494 171.156359 
L 173.924778 171.156359 
L 173.94703 169.606493 
L 174.068922 169.606493 
L 174.110286 168.573249 
L 174.200953 168.573249 
L 174.258411 167.540005 
L 174.361916 167.540005 
L 174.408027 164.956895 
L 174.722194 164.956895 
L 174.81776 163.407029 
L 175.085786 163.407029 
L 175.135272 161.857163 
L 175.277751 161.857163 
L 175.277751 161.340541 
L 175.416543 161.340541 
L 175.521207 159.274053 
L 175.549184 159.274053 
L 175.645494 157.724187 
L 175.718647 157.724187 
L 175.718647 157.207565 
L 175.879035 157.207565 
L 175.966142 155.657699 
L 176.000866 155.657699 
L 176.000866 155.141077 
L 176.146467 155.141077 
L 176.146467 154.624455 
L 176.412378 154.624455 
L 176.511384 153.591211 
L 176.609844 153.591211 
L 176.707765 152.557967 
L 176.72443 152.557967 
L 176.755337 151.524723 
L 176.878435 151.524723 
L 176.911433 149.458235 
L 177.040479 149.458235 
L 177.066177 147.908369 
L 177.187159 147.908369 
L 177.242722 146.358503 
L 177.43813 146.358503 
L 177.43813 145.841881 
L 177.696895 145.841881 
L 177.798017 142.225526 
L 177.920837 142.225526 
L 177.956409 139.125794 
L 178.109006 139.125794 
L 178.109006 138.09255 
L 178.323522 138.09255 
L 178.434148 135.50944 
L 178.651229 135.50944 
L 178.761973 133.959574 
L 178.823437 133.959574 
L 178.85937 132.409708 
L 179.019133 132.409708 
L 179.058852 129.826598 
L 179.196139 129.826598 
L 179.239602 128.276732 
L 179.475752 128.276732 
L 179.549041 126.726866 
L 179.672542 126.726866 
L 179.684643 125.177 
L 179.831228 125.177 
L 179.831228 124.660378 
L 179.980586 124.660378 
L 180.067632 122.077268 
L 180.109027 122.077268 
L 180.213078 120.01078 
L 180.335977 120.01078 
L 180.367055 118.460914 
L 180.502391 118.460914 
L 180.55816 116.911048 
L 180.889166 116.911048 
L 180.906121 115.877804 
L 181.08412 115.877804 
L 181.184514 114.327938 
L 181.236348 114.327938 
L 181.345081 112.26145 
L 181.379957 112.26145 
L 181.4294 109.678339 
L 181.786068 109.678339 
L 181.889734 107.611851 
L 181.946673 107.611851 
L 181.982168 106.578607 
L 182.399232 106.578607 
L 182.399232 106.061985 
L 182.60417 106.061985 
L 182.684468 103.995497 
L 182.721931 103.995497 
L 182.803397 102.445631 
L 182.837232 102.445631 
L 182.945074 101.412387 
L 183.045589 101.412387 
L 183.127259 98.312655 
L 183.226756 98.312655 
L 183.226756 97.796033 
L 183.427376 97.796033 
L 183.494295 93.663057 
L 183.762702 93.663057 
L 183.85075 92.113191 
L 183.949486 92.113191 
L 184.028717 90.046703 
L 184.117041 90.046703 
L 184.143767 88.496837 
L 184.362359 88.496837 
L 184.387172 87.463593 
L 184.515337 87.463593 
L 184.562971 86.430349 
L 184.627305 86.430349 
L 184.627305 85.913727 
L 184.855198 85.913727 
L 184.855198 85.397105 
L 185.231635 85.397105 
L 185.318635 82.813995 
L 185.433005 82.813995 
L 185.539385 80.747507 
L 185.574221 80.747507 
L 185.650912 79.197641 
L 185.76892 79.197641 
L 185.76892 78.681019 
L 185.883304 78.681019 
L 185.989877 77.131153 
L 186.088776 77.131153 
L 186.088776 76.097908 
L 186.241694 76.097908 
L 186.351712 74.548042 
L 186.358652 74.548042 
L 186.358652 74.03142 
L 186.476229 74.03142 
L 186.476229 73.514798 
L 186.752581 73.514798 
L 186.752581 72.998176 
L 186.894558 72.998176 
L 186.956404 71.44831 
L 187.197698 71.44831 
L 187.302001 68.8652 
L 187.506195 68.8652 
L 187.600952 67.831956 
L 187.763332 67.831956 
L 187.763332 67.315334 
L 188.073647 67.315334 
L 188.093809 66.28209 
L 188.271752 66.28209 
L 188.271752 65.765468 
L 188.804875 65.765468 
L 188.853219 64.732224 
L 189.076319 64.732224 
L 189.091808 63.69898 
L 189.205777 63.69898 
L 189.274282 60.082626 
L 189.411681 60.082626 
L 189.411681 59.566004 
L 189.553834 59.566004 
L 189.553834 59.049382 
L 189.990628 59.049382 
L 189.990628 58.53276 
L 190.111401 58.53276 
L 190.111401 58.016138 
L 190.47 58.016138 
L 190.47 56.982894 
L 191.120648 56.982894 
L 191.120648 56.466272 
L 191.487883 56.466272 
L 191.487883 55.94965 
L 191.803776 55.94965 
L 191.803776 55.433028 
L 192.35987 55.433028 
L 192.35987 54.916406 
L 193.002817 54.916406 
L 193.002817 54.399784 
L 194.66368 54.399784 
L 194.66368 53.36654 
L 194.923357 53.36654 
L 194.979984 52.333296 
L 195.311819 52.333296 
L 195.311819 51.816674 
L 195.52496 51.816674 
L 195.634301 50.78343 
L 195.737231 50.78343 
L 195.756106 48.716942 
L 196.014236 48.716942 
L 196.014236 47.167076 
L 196.197616 47.167076 
L 196.197616 46.650454 
L 196.388636 46.650454 
L 196.486535 45.100588 
L 197.160242 45.100588 
L 197.160242 44.067344 
L 197.665582 44.067344 
L 197.665582 43.550722 
L 198.631817 43.550722 
L 198.631817 42.517478 
L 200.856002 42.517478 
L 200.856002 42.000855 
L 203.109215 42.000855 
L 203.109215 41.484233 
L 203.352131 41.484233 
L 203.352131 40.967611 
L 206.337403 40.967611 
L 206.337403 39.934367 
L 207.262989 39.934367 
L 207.262989 38.901123 
L 208.106036 38.901123 
L 208.106036 37.867879 
L 209.007855 37.867879 
L 209.007855 36.834635 
L 209.26194 36.834635 
L 209.26194 35.801391 
L 209.87192 35.801391 
L 209.87192 35.284769 
L 213.698364 35.284769 
L 213.698364 34.768147 
L 358.8 34.768147 
L 358.8 34.768147 
" style="fill:none;stroke:#ffa500;stroke-linecap:square;stroke-width:1.5;"/>
   </g>
   <g id="line2d_35">
    <defs>
     <path d="M 0 -6 
L -1.347084 -1.854102 
L -5.706339 -1.854102 
L -2.179628 0.708204 
L -3.526712 4.854102 
L -0 2.291796 
L 3.526712 4.854102 
L 2.179628 0.708204 
L 5.706339 -1.854102 
L 1.347084 -1.854102 
z
" id="m4c82981676" style="stroke:#ffa500;stroke-linejoin:bevel;stroke-width:1.5;"/>
    </defs>
    <g>
     <use style="fill:none;stroke:#ffa500;stroke-linejoin:bevel;stroke-width:1.5;" x="165.960034" xlink:href="#m4c82981676" y="218.168963"/>
     <use style="fill:none;stroke:#ffa500;stroke-linejoin:bevel;stroke-width:1.5;" x="180.006348" xlink:href="#m4c82981676" y="123.110512"/>
     <use style="fill:none;stroke:#ffa500;stroke-linejoin:bevel;stroke-width:1.5;" x="213.698364" xlink:href="#m4c82981676" y="35.284769"/>
     <use style="fill:none;stroke:#ffa500;stroke-linejoin:bevel;stroke-width:1.5;" x="213.698364" xlink:href="#m4c82981676" y="34.768147"/>
     <use style="fill:none;stroke:#ffa500;stroke-linejoin:bevel;stroke-width:1.5;" x="358.8" xlink:href="#m4c82981676" y="34.768147"/>
    </g>
   </g>
   <g id="line2d_36"/>
   <g id="line2d_37">
    <path clip-path="url(#p59b7977961)" d="M 209.87192 35.284769 
" style="fill:none;stroke:#ffa500;stroke-linecap:square;stroke-width:1.5;"/>
    <defs>
     <path d="M -12 12 
L 12 -12 
M -12 -12 
L 12 12 
" id="m2421b3427a" style="stroke:#ffa500;stroke-width:3;"/>
    </defs>
    <g clip-path="url(#p59b7977961)">
     <use style="fill:#ffa500;stroke:#ffa500;stroke-width:3;" x="209.87192" xlink:href="#m2421b3427a" y="35.284769"/>
    </g>
   </g>
   <g id="line2d_38">
    <defs>
     <path d="M 0 1.5 
C 0.397805 1.5 0.77937 1.341951 1.06066 1.06066 
C 1.341951 0.77937 1.5 0.397805 1.5 0 
C 1.5 -0.397805 1.341951 -0.77937 1.06066 -1.06066 
C 0.77937 -1.341951 0.397805 -1.5 0 -1.5 
C -0.397805 -1.5 -0.77937 -1.341951 -1.06066 -1.06066 
C -1.341951 -0.77937 -1.5 -0.397805 -1.5 0 
C -1.5 0.397805 -1.341951 0.77937 -1.06066 1.06066 
C -0.77937 1.341951 -0.397805 1.5 0 1.5 
z
" id="mc33b932e0c" style="stroke:#6495ed;"/>
    </defs>
    <g>
     <use style="fill:#6495ed;stroke:#6495ed;" x="286.048812" xlink:href="#mc33b932e0c" y="256.915614"/>
     <use style="fill:#6495ed;stroke:#6495ed;" x="286.048812" xlink:href="#mc33b932e0c" y="256.915614"/>
    </g>
   </g>
   <g id="line2d_39">
    <path d="M 106.683001 298.245375 
L 106.683001 297.212131 
L 107.955702 297.212131 
L 107.955702 296.695509 
L 112.89953 296.695509 
L 112.89953 296.178887 
L 113.235091 296.178887 
L 113.235091 295.145643 
L 114.975841 295.145643 
L 114.975841 294.629021 
L 115.348884 294.629021 
L 115.348884 293.595777 
L 116.423443 293.595777 
L 116.423443 292.562533 
L 117.305161 292.562533 
L 117.305161 291.529289 
L 118.145408 291.529289 
L 118.145408 291.012667 
L 118.333826 291.012667 
L 118.333826 290.496045 
L 119.599888 290.496045 
L 119.599888 289.979423 
L 119.888555 289.979423 
L 119.888555 289.462801 
L 120.727588 289.462801 
L 120.727588 288.946179 
L 121.736754 288.946179 
L 121.736754 287.912935 
L 121.891012 287.912935 
L 121.891012 286.879691 
L 123.505373 286.879691 
L 123.505373 285.846447 
L 124.103332 285.846447 
L 124.103332 285.329825 
L 124.238527 285.329825 
L 124.238527 284.813203 
L 124.725668 284.813203 
L 124.725668 284.296581 
L 128.135666 284.296581 
L 128.135666 283.263337 
L 128.24363 283.263337 
L 128.24363 282.230093 
L 128.94719 282.230093 
L 128.94719 281.713471 
L 129.624094 281.713471 
L 129.624094 280.680226 
L 131.572989 280.680226 
L 131.572989 279.646982 
L 132.892904 279.646982 
L 132.892904 279.13036 
L 133.140122 279.13036 
L 133.140122 278.097116 
L 135.678869 278.097116 
L 135.678869 277.580494 
L 136.030384 277.580494 
L 136.030384 277.063872 
L 136.646194 277.063872 
L 136.646194 276.030628 
L 137.349581 276.030628 
L 137.349581 275.514006 
L 137.606373 275.514006 
L 137.606373 274.997384 
L 138.578042 274.997384 
L 138.578042 273.447518 
L 139.132751 273.447518 
L 139.132751 272.930896 
L 139.307454 272.930896 
L 139.307454 272.414274 
L 139.915143 272.414274 
L 139.915143 271.897652 
L 142.289424 271.897652 
L 142.289424 271.38103 
L 142.645503 271.38103 
L 142.645503 270.864408 
L 143.673047 270.864408 
L 143.673047 270.347786 
L 145.634143 270.347786 
L 145.634143 269.314542 
L 147.620822 269.314542 
L 147.620822 268.79792 
L 148.986533 268.79792 
L 148.986533 267.764676 
L 153.674488 267.764676 
L 153.674488 267.248054 
L 210.212971 267.248054 
L 210.212971 266.731432 
L 210.454198 266.731432 
L 210.454198 266.21481 
L 222.428494 266.21481 
L 222.428494 265.698188 
L 222.637786 265.698188 
L 222.637786 264.148322 
L 229.591786 264.148322 
L 229.591786 263.6317 
L 229.647995 263.6317 
L 229.647995 262.598456 
L 234.709731 262.598456 
L 234.709731 262.081834 
L 238.747527 262.081834 
L 238.747527 261.565212 
L 241.960407 261.565212 
L 241.960407 261.04859 
L 242.015067 261.04859 
L 242.015067 260.531968 
L 249.197826 260.531968 
L 249.197826 260.015346 
L 252.757712 260.015346 
L 252.757712 259.498724 
L 258.310897 259.498724 
L 258.310897 258.46548 
L 261.560113 258.46548 
L 261.560113 257.948858 
L 265.137965 257.948858 
L 265.137965 257.432236 
L 286.048812 257.432236 
L 286.048812 256.915614 
L 358.8 256.915614 
" style="fill:none;stroke:#6495ed;stroke-linecap:square;stroke-width:1.5;"/>
   </g>
   <g id="line2d_40">
    <defs>
     <path d="M -0 6 
L 6 -6 
L -6 -6 
z
" id="m053b814a6a" style="stroke:#6495ed;stroke-linejoin:miter;stroke-width:1.5;"/>
    </defs>
    <g>
     <use style="fill:none;stroke:#6495ed;stroke-linejoin:miter;stroke-width:1.5;" x="153.674488" xlink:href="#m053b814a6a" y="267.764676"/>
     <use style="fill:none;stroke:#6495ed;stroke-linejoin:miter;stroke-width:1.5;" x="238.747527" xlink:href="#m053b814a6a" y="262.081834"/>
     <use style="fill:none;stroke:#6495ed;stroke-linejoin:miter;stroke-width:1.5;" x="286.048812" xlink:href="#m053b814a6a" y="256.915614"/>
     <use style="fill:none;stroke:#6495ed;stroke-linejoin:miter;stroke-width:1.5;" x="286.048812" xlink:href="#m053b814a6a" y="256.915614"/>
     <use style="fill:none;stroke:#6495ed;stroke-linejoin:miter;stroke-width:1.5;" x="358.8" xlink:href="#m053b814a6a" y="256.915614"/>
    </g>
   </g>
   <g id="line2d_41"/>
   <g id="line2d_42">
    <path clip-path="url(#p59b7977961)" d="M 209.87192 267.248054 
" style="fill:none;stroke:#6495ed;stroke-linecap:square;stroke-width:1.5;"/>
    <defs>
     <path d="M -12 12 
L 12 -12 
M -12 -12 
L 12 12 
" id="mc53b817081" style="stroke:#6495ed;stroke-width:3;"/>
    </defs>
    <g clip-path="url(#p59b7977961)">
     <use style="fill:#6495ed;stroke:#6495ed;stroke-width:3;" x="209.87192" xlink:href="#mc53b817081" y="267.248054"/>
    </g>
   </g>
   <g id="line2d_43">
    <path d="M 358.8 256.915614 
L 390.48 292.97583 
" style="fill:none;stroke:#6495ed;stroke-linecap:square;stroke-width:1.5;"/>
    <g>
     <use style="fill:none;stroke:#6495ed;stroke-linejoin:miter;stroke-width:1.5;" x="358.8" xlink:href="#m053b814a6a" y="256.915614"/>
     <use style="fill:none;stroke:#6495ed;stroke-linejoin:miter;stroke-width:1.5;" x="390.48" xlink:href="#m053b814a6a" y="292.97583"/>
    </g>
   </g>
   <g id="line2d_44">
    <path d="M 358.8 200.087192 
L 390.48 208.663118 
" style="fill:none;stroke:#ff00ff;stroke-linecap:square;stroke-width:1.5;"/>
    <g>
     <use style="fill:none;stroke:#ff00ff;stroke-linejoin:miter;stroke-width:1.5;" x="358.8" xlink:href="#m917c6ebd8b" y="200.087192"/>
     <use style="fill:none;stroke:#ff00ff;stroke-linejoin:miter;stroke-width:1.5;" x="390.48" xlink:href="#m917c6ebd8b" y="208.663118"/>
    </g>
   </g>
   <g id="line2d_45">
    <path d="M 358.8 86.430349 
L 390.48 124.350405 
" style="fill:none;stroke:#000080;stroke-linecap:square;stroke-width:1.5;"/>
    <g>
     <use style="fill:none;stroke:#000080;stroke-width:1.5;" x="358.8" xlink:href="#m4e508c618c" y="86.430349"/>
     <use style="fill:none;stroke:#000080;stroke-width:1.5;" x="390.48" xlink:href="#m4e508c618c" y="124.350405"/>
    </g>
   </g>
   <g id="line2d_46">
    <path d="M 358.8 34.768147 
L 390.48 40.037692 
" style="fill:none;stroke:#ffa500;stroke-linecap:square;stroke-width:1.5;"/>
    <g>
     <use style="fill:none;stroke:#ffa500;stroke-linejoin:bevel;stroke-width:1.5;" x="358.8" xlink:href="#m4c82981676" y="34.768147"/>
     <use style="fill:none;stroke:#ffa500;stroke-linejoin:bevel;stroke-width:1.5;" x="390.48" xlink:href="#m4c82981676" y="40.037692"/>
    </g>
   </g>
   <g id="line2d_47">
    <path d="M 358.8 298.245375 
L 358.8 34.768147 
" style="fill:none;stroke:#000000;stroke-linecap:square;stroke-width:1.5;"/>
   </g>
   <g id="patch_3">
    <path d="M 70.8 298.245375 
L 70.8 32.133375 
" style="fill:none;stroke:#000000;stroke-linecap:square;stroke-linejoin:miter;stroke-width:0.8;"/>
   </g>
   <g id="patch_4">
    <path d="M 427.92 298.245375 
L 427.92 32.133375 
" style="fill:none;stroke:#000000;stroke-linecap:square;stroke-linejoin:miter;stroke-width:0.8;"/>
   </g>
   <g id="patch_5">
    <path d="M 70.8 298.245375 
L 427.92 298.245375 
" style="fill:none;stroke:#000000;stroke-linecap:square;stroke-linejoin:miter;stroke-width:0.8;"/>
   </g>
   <g id="patch_6">
    <path d="M 70.8 32.133375 
L 427.92 32.133375 
" style="fill:none;stroke:#000000;stroke-linecap:square;stroke-linejoin:miter;stroke-width:0.8;"/>
   </g>
   <g id="text_14">
    <!-- f7 -->
    <defs>
     <path d="M 8.203125 72.90625 
L 55.078125 72.90625 
L 55.078125 68.703125 
L 28.609375 0 
L 18.3125 0 
L 43.21875 64.59375 
L 8.203125 64.59375 
z
" id="DejaVuSans-37"/>
    </defs>
    <g transform="translate(396.24 297.114893)scale(0.15 -0.15)">
     <use xlink:href="#DejaVuSans-66"/>
     <use x="35.205078" xlink:href="#DejaVuSans-37"/>
    </g>
   </g>
   <g id="text_15">
    <!-- f9 -->
    <defs>
     <path d="M 10.984375 1.515625 
L 10.984375 10.5 
Q 14.703125 8.734375 18.5 7.8125 
Q 22.3125 6.890625 25.984375 6.890625 
Q 35.75 6.890625 40.890625 13.453125 
Q 46.046875 20.015625 46.78125 33.40625 
Q 43.953125 29.203125 39.59375 26.953125 
Q 35.25 24.703125 29.984375 24.703125 
Q 19.046875 24.703125 12.671875 31.3125 
Q 6.296875 37.9375 6.296875 49.421875 
Q 6.296875 60.640625 12.9375 67.421875 
Q 19.578125 74.21875 30.609375 74.21875 
Q 43.265625 74.21875 49.921875 64.515625 
Q 56.59375 54.828125 56.59375 36.375 
Q 56.59375 19.140625 48.40625 8.859375 
Q 40.234375 -1.421875 26.421875 -1.421875 
Q 22.703125 -1.421875 18.890625 -0.6875 
Q 15.09375 0.046875 10.984375 1.515625 
z
M 30.609375 32.421875 
Q 37.25 32.421875 41.125 36.953125 
Q 45.015625 41.5 45.015625 49.421875 
Q 45.015625 57.28125 41.125 61.84375 
Q 37.25 66.40625 30.609375 66.40625 
Q 23.96875 66.40625 20.09375 61.84375 
Q 16.21875 57.28125 16.21875 49.421875 
Q 16.21875 41.5 20.09375 36.953125 
Q 23.96875 32.421875 30.609375 32.421875 
z
" id="DejaVuSans-39"/>
    </defs>
    <g transform="translate(396.24 212.80218)scale(0.15 -0.15)">
     <use xlink:href="#DejaVuSans-66"/>
     <use x="35.205078" xlink:href="#DejaVuSans-39"/>
    </g>
   </g>
   <g id="text_16">
    <!-- f8 -->
    <g transform="translate(396.24 128.489467)scale(0.15 -0.15)">
     <use xlink:href="#DejaVuSans-66"/>
     <use x="35.205078" xlink:href="#DejaVuSans-38"/>
    </g>
   </g>
   <g id="text_17">
    <!-- f6 -->
    <g transform="translate(396.24 44.176754)scale(0.15 -0.15)">
     <use xlink:href="#DejaVuSans-66"/>
     <use x="35.205078" xlink:href="#DejaVuSans-36"/>
    </g>
   </g>
   <g id="text_18">
    <!-- bbob -->
    <defs>
     <path d="M 48.6875 27.296875 
Q 48.6875 37.203125 44.609375 42.84375 
Q 40.53125 48.484375 33.40625 48.484375 
Q 26.265625 48.484375 22.1875 42.84375 
Q 18.109375 37.203125 18.109375 27.296875 
Q 18.109375 17.390625 22.1875 11.75 
Q 26.265625 6.109375 33.40625 6.109375 
Q 40.53125 6.109375 44.609375 11.75 
Q 48.6875 17.390625 48.6875 27.296875 
z
M 18.109375 46.390625 
Q 20.953125 51.265625 25.265625 53.625 
Q 29.59375 56 35.59375 56 
Q 45.5625 56 51.78125 48.09375 
Q 58.015625 40.1875 58.015625 27.296875 
Q 58.015625 14.40625 51.78125 6.484375 
Q 45.5625 -1.421875 35.59375 -1.421875 
Q 29.59375 -1.421875 25.265625 0.953125 
Q 20.953125 3.328125 18.109375 8.203125 
L 18.109375 0 
L 9.078125 0 
L 9.078125 75.984375 
L 18.109375 75.984375 
z
" id="DejaVuSans-62"/>
    </defs>
    <g transform="translate(74.3712 50.114612)scale(0.1666 -0.1666)">
     <use xlink:href="#DejaVuSans-62"/>
     <use x="63.476562" xlink:href="#DejaVuSans-62"/>
     <use x="126.953125" xlink:href="#DejaVuSans-6f"/>
     <use x="188.134766" xlink:href="#DejaVuSans-62"/>
    </g>
    <!-- Misc. moderate functions, 20-D -->
    <defs>
     <path d="M 9.8125 72.90625 
L 24.515625 72.90625 
L 43.109375 23.296875 
L 61.8125 72.90625 
L 76.515625 72.90625 
L 76.515625 0 
L 66.890625 0 
L 66.890625 64.015625 
L 48.09375 14.015625 
L 38.1875 14.015625 
L 19.390625 64.015625 
L 19.390625 0 
L 9.8125 0 
z
" id="DejaVuSans-4d"/>
     <path d="M 11.71875 12.40625 
L 22.015625 12.40625 
L 22.015625 4 
L 14.015625 -11.625 
L 7.71875 -11.625 
L 11.71875 4 
z
" id="DejaVuSans-2c"/>
     <path d="M 19.671875 64.796875 
L 19.671875 8.109375 
L 31.59375 8.109375 
Q 46.6875 8.109375 53.6875 14.9375 
Q 60.6875 21.78125 60.6875 36.53125 
Q 60.6875 51.171875 53.6875 57.984375 
Q 46.6875 64.796875 31.59375 64.796875 
z
M 9.8125 72.90625 
L 30.078125 72.90625 
Q 51.265625 72.90625 61.171875 64.09375 
Q 71.09375 55.28125 71.09375 36.53125 
Q 71.09375 17.671875 61.125 8.828125 
Q 51.171875 0 30.078125 0 
L 9.8125 0 
z
" id="DejaVuSans-44"/>
    </defs>
    <g transform="translate(74.3712 68.770168)scale(0.1666 -0.1666)">
     <use xlink:href="#DejaVuSans-4d"/>
     <use x="86.279297" xlink:href="#DejaVuSans-69"/>
     <use x="114.0625" xlink:href="#DejaVuSans-73"/>
     <use x="166.162109" xlink:href="#DejaVuSans-63"/>
     <use x="221.142578" xlink:href="#DejaVuSans-2e"/>
     <use x="252.929688" xlink:href="#DejaVuSans-20"/>
     <use x="284.716797" xlink:href="#DejaVuSans-6d"/>
     <use x="382.128906" xlink:href="#DejaVuSans-6f"/>
     <use x="443.310547" xlink:href="#DejaVuSans-64"/>
     <use x="506.787109" xlink:href="#DejaVuSans-65"/>
     <use x="568.310547" xlink:href="#DejaVuSans-72"/>
     <use x="609.423828" xlink:href="#DejaVuSans-61"/>
     <use x="670.703125" xlink:href="#DejaVuSans-74"/>
     <use x="709.912109" xlink:href="#DejaVuSans-65"/>
     <use x="771.435547" xlink:href="#DejaVuSans-20"/>
     <use x="803.222656" xlink:href="#DejaVuSans-66"/>
     <use x="838.427734" xlink:href="#DejaVuSans-75"/>
     <use x="901.806641" xlink:href="#DejaVuSans-6e"/>
     <use x="965.185547" xlink:href="#DejaVuSans-63"/>
     <use x="1020.166016" xlink:href="#DejaVuSans-74"/>
     <use x="1059.375" xlink:href="#DejaVuSans-69"/>
     <use x="1087.158203" xlink:href="#DejaVuSans-6f"/>
     <use x="1148.339844" xlink:href="#DejaVuSans-6e"/>
     <use x="1211.71875" xlink:href="#DejaVuSans-73"/>
     <use x="1263.818359" xlink:href="#DejaVuSans-2c"/>
     <use x="1295.605469" xlink:href="#DejaVuSans-20"/>
     <use x="1327.392578" xlink:href="#DejaVuSans-32"/>
     <use x="1391.015625" xlink:href="#DejaVuSans-30"/>
     <use x="1454.638672" xlink:href="#DejaVuSans-2d"/>
     <use x="1490.722656" xlink:href="#DejaVuSans-44"/>
    </g>
    <!-- 51 targets in 100..1e-08 -->
    <defs>
     <path d="M 10.796875 72.90625 
L 49.515625 72.90625 
L 49.515625 64.59375 
L 19.828125 64.59375 
L 19.828125 46.734375 
Q 21.96875 47.46875 24.109375 47.828125 
Q 26.265625 48.1875 28.421875 48.1875 
Q 40.625 48.1875 47.75 41.5 
Q 54.890625 34.8125 54.890625 23.390625 
Q 54.890625 11.625 47.5625 5.09375 
Q 40.234375 -1.421875 26.90625 -1.421875 
Q 22.3125 -1.421875 17.546875 -0.640625 
Q 12.796875 0.140625 7.71875 1.703125 
L 7.71875 11.625 
Q 12.109375 9.234375 16.796875 8.0625 
Q 21.484375 6.890625 26.703125 6.890625 
Q 35.15625 6.890625 40.078125 11.328125 
Q 45.015625 15.765625 45.015625 23.390625 
Q 45.015625 31 40.078125 35.4375 
Q 35.15625 39.890625 26.703125 39.890625 
Q 22.75 39.890625 18.8125 39.015625 
Q 14.890625 38.140625 10.796875 36.28125 
z
" id="DejaVuSans-35"/>
    </defs>
    <g transform="translate(74.3712 87.425723)scale(0.1666 -0.1666)">
     <use xlink:href="#DejaVuSans-35"/>
     <use x="63.623047" xlink:href="#DejaVuSans-31"/>
     <use x="127.246094" xlink:href="#DejaVuSans-20"/>
     <use x="159.033203" xlink:href="#DejaVuSans-74"/>
     <use x="198.242188" xlink:href="#DejaVuSans-61"/>
     <use x="259.521484" xlink:href="#DejaVuSans-72"/>
     <use x="300.619141" xlink:href="#DejaVuSans-67"/>
     <use x="364.095703" xlink:href="#DejaVuSans-65"/>
     <use x="425.619141" xlink:href="#DejaVuSans-74"/>
     <use x="464.828125" xlink:href="#DejaVuSans-73"/>
     <use x="516.927734" xlink:href="#DejaVuSans-20"/>
     <use x="548.714844" xlink:href="#DejaVuSans-69"/>
     <use x="576.498047" xlink:href="#DejaVuSans-6e"/>
     <use x="639.876953" xlink:href="#DejaVuSans-20"/>
     <use x="671.664062" xlink:href="#DejaVuSans-31"/>
     <use x="735.287109" xlink:href="#DejaVuSans-30"/>
     <use x="798.910156" xlink:href="#DejaVuSans-30"/>
     <use x="862.533203" xlink:href="#DejaVuSans-2e"/>
     <use x="894.320312" xlink:href="#DejaVuSans-2e"/>
     <use x="926.107422" xlink:href="#DejaVuSans-31"/>
     <use x="989.730469" xlink:href="#DejaVuSans-65"/>
     <use x="1051.253906" xlink:href="#DejaVuSans-2d"/>
     <use x="1087.337891" xlink:href="#DejaVuSans-30"/>
     <use x="1150.960938" xlink:href="#DejaVuSans-38"/>
    </g>
    <!-- 15 instances -->
    <g transform="translate(74.3712 106.081279)scale(0.1666 -0.1666)">
     <use xlink:href="#DejaVuSans-31"/>
     <use x="63.623047" xlink:href="#DejaVuSans-35"/>
     <use x="127.246094" xlink:href="#DejaVuSans-20"/>
     <use x="159.033203" xlink:href="#DejaVuSans-69"/>
     <use x="186.816406" xlink:href="#DejaVuSans-6e"/>
     <use x="250.195312" xlink:href="#DejaVuSans-73"/>
     <use x="302.294922" xlink:href="#DejaVuSans-74"/>
     <use x="341.503906" xlink:href="#DejaVuSans-61"/>
     <use x="402.783203" xlink:href="#DejaVuSans-6e"/>
     <use x="466.162109" xlink:href="#DejaVuSans-63"/>
     <use x="521.142578" xlink:href="#DejaVuSans-65"/>
     <use x="582.666016" xlink:href="#DejaVuSans-73"/>
    </g>
   </g>
   <g id="text_19">
    <!-- v2.1 -->
    <g style="fill:#808080;" transform="translate(238.449063 293.504568)scale(0.1 -0.1)">
     <use xlink:href="#DejaVuSans-76"/>
     <use x="59.179688" xlink:href="#DejaVuSans-32"/>
     <use x="122.802734" xlink:href="#DejaVuSans-2e"/>
     <use x="154.589844" xlink:href="#DejaVuSans-31"/>
    </g>
   </g>
  </g>
 </g>
 <defs>
  <clipPath id="p59b7977961">
   <rect height="266.112" width="357.12" x="70.8" y="32.133375"/>
  </clipPath>
 </defs>
</svg>
