<?xml version="1.0" encoding="utf-8" standalone="no"?>
<!DOCTYPE svg PUBLIC "-//W3C//DTD SVG 1.1//EN"
  "http://www.w3.org/Graphics/SVG/1.1/DTD/svg11.dtd">
<!-- Created with matplotlib (http://matplotlib.org/) -->
<svg height="353pt" version="1.1" viewBox="0 0 438 353" width="438pt" xmlns="http://www.w3.org/2000/svg" xmlns:xlink="http://www.w3.org/1999/xlink">
 <defs>
  <style type="text/css">
*{stroke-linecap:butt;stroke-linejoin:round;}
  </style>
 </defs>
 <g id="figure_1">
  <g id="patch_1">
   <path d="M 0 353.22225 
L 438.62 353.22225 
L 438.62 0 
L 0 0 
z
" style="fill:#ffffff;"/>
  </g>
  <g id="axes_1">
   <g id="patch_2">
    <path d="M 70.8 298.245375 
L 427.92 298.245375 
L 427.92 32.133375 
L 70.8 32.133375 
z
" style="fill:#ffffff;"/>
   </g>
   <g id="matplotlib.axis_1">
    <g id="xtick_1">
     <g id="line2d_1">
      <path clip-path="url(#p73904f5836)" d="M 70.8 298.245375 
L 70.8 32.133375 
" style="fill:none;stroke:#b0b0b0;stroke-linecap:square;stroke-width:0.8;"/>
     </g>
     <g id="line2d_2">
      <defs>
       <path d="M 0 0 
L 0 3.5 
" id="ma7ce7e51be" style="stroke:#000000;stroke-width:0.8;"/>
      </defs>
      <g>
       <use style="stroke:#000000;stroke-width:0.8;" x="70.8" xlink:href="#ma7ce7e51be" y="298.245375"/>
      </g>
     </g>
     <g id="text_1">
      <!-- 0 -->
      <defs>
       <path d="M 31.78125 66.40625 
Q 24.171875 66.40625 20.328125 58.90625 
Q 16.5 51.421875 16.5 36.375 
Q 16.5 21.390625 20.328125 13.890625 
Q 24.171875 6.390625 31.78125 6.390625 
Q 39.453125 6.390625 43.28125 13.890625 
Q 47.125 21.390625 47.125 36.375 
Q 47.125 51.421875 43.28125 58.90625 
Q 39.453125 66.40625 31.78125 66.40625 
z
M 31.78125 74.21875 
Q 44.046875 74.21875 50.515625 64.515625 
Q 56.984375 54.828125 56.984375 36.375 
Q 56.984375 17.96875 50.515625 8.265625 
Q 44.046875 -1.421875 31.78125 -1.421875 
Q 19.53125 -1.421875 13.0625 8.265625 
Q 6.59375 17.96875 6.59375 36.375 
Q 6.59375 54.828125 13.0625 64.515625 
Q 19.53125 74.21875 31.78125 74.21875 
z
" id="DejaVuSans-30"/>
      </defs>
      <g transform="translate(64.4375 320.44225)scale(0.2 -0.2)">
       <use xlink:href="#DejaVuSans-30"/>
      </g>
     </g>
    </g>
    <g id="xtick_2">
     <g id="line2d_3">
      <path clip-path="url(#p73904f5836)" d="M 153.085714 298.245375 
L 153.085714 32.133375 
" style="fill:none;stroke:#b0b0b0;stroke-linecap:square;stroke-width:0.8;"/>
     </g>
     <g id="line2d_4">
      <g>
       <use style="stroke:#000000;stroke-width:0.8;" x="153.085714" xlink:href="#ma7ce7e51be" y="298.245375"/>
      </g>
     </g>
     <g id="text_2">
      <!-- 2 -->
      <defs>
       <path d="M 19.1875 8.296875 
L 53.609375 8.296875 
L 53.609375 0 
L 7.328125 0 
L 7.328125 8.296875 
Q 12.9375 14.109375 22.625 23.890625 
Q 32.328125 33.6875 34.8125 36.53125 
Q 39.546875 41.84375 41.421875 45.53125 
Q 43.3125 49.21875 43.3125 52.78125 
Q 43.3125 58.59375 39.234375 62.25 
Q 35.15625 65.921875 28.609375 65.921875 
Q 23.96875 65.921875 18.8125 64.3125 
Q 13.671875 62.703125 7.8125 59.421875 
L 7.8125 69.390625 
Q 13.765625 71.78125 18.9375 73 
Q 24.125 74.21875 28.421875 74.21875 
Q 39.75 74.21875 46.484375 68.546875 
Q 53.21875 62.890625 53.21875 53.421875 
Q 53.21875 48.921875 51.53125 44.890625 
Q 49.859375 40.875 45.40625 35.40625 
Q 44.1875 33.984375 37.640625 27.21875 
Q 31.109375 20.453125 19.1875 8.296875 
z
" id="DejaVuSans-32"/>
      </defs>
      <g transform="translate(146.723214 320.44225)scale(0.2 -0.2)">
       <use xlink:href="#DejaVuSans-32"/>
      </g>
     </g>
    </g>
    <g id="xtick_3">
     <g id="line2d_5">
      <path clip-path="url(#p73904f5836)" d="M 235.371429 298.245375 
L 235.371429 32.133375 
" style="fill:none;stroke:#b0b0b0;stroke-linecap:square;stroke-width:0.8;"/>
     </g>
     <g id="line2d_6">
      <g>
       <use style="stroke:#000000;stroke-width:0.8;" x="235.371429" xlink:href="#ma7ce7e51be" y="298.245375"/>
      </g>
     </g>
     <g id="text_3">
      <!-- 4 -->
      <defs>
       <path d="M 37.796875 64.3125 
L 12.890625 25.390625 
L 37.796875 25.390625 
z
M 35.203125 72.90625 
L 47.609375 72.90625 
L 47.609375 25.390625 
L 58.015625 25.390625 
L 58.015625 17.1875 
L 47.609375 17.1875 
L 47.609375 0 
L 37.796875 0 
L 37.796875 17.1875 
L 4.890625 17.1875 
L 4.890625 26.703125 
z
" id="DejaVuSans-34"/>
      </defs>
      <g transform="translate(229.008929 320.44225)scale(0.2 -0.2)">
       <use xlink:href="#DejaVuSans-34"/>
      </g>
     </g>
    </g>
    <g id="xtick_4">
     <g id="line2d_7">
      <path clip-path="url(#p73904f5836)" d="M 317.657143 298.245375 
L 317.657143 32.133375 
" style="fill:none;stroke:#b0b0b0;stroke-linecap:square;stroke-width:0.8;"/>
     </g>
     <g id="line2d_8">
      <g>
       <use style="stroke:#000000;stroke-width:0.8;" x="317.657143" xlink:href="#ma7ce7e51be" y="298.245375"/>
      </g>
     </g>
     <g id="text_4">
      <!-- 6 -->
      <defs>
       <path d="M 33.015625 40.375 
Q 26.375 40.375 22.484375 35.828125 
Q 18.609375 31.296875 18.609375 23.390625 
Q 18.609375 15.53125 22.484375 10.953125 
Q 26.375 6.390625 33.015625 6.390625 
Q 39.65625 6.390625 43.53125 10.953125 
Q 47.40625 15.53125 47.40625 23.390625 
Q 47.40625 31.296875 43.53125 35.828125 
Q 39.65625 40.375 33.015625 40.375 
z
M 52.59375 71.296875 
L 52.59375 62.3125 
Q 48.875 64.0625 45.09375 64.984375 
Q 41.3125 65.921875 37.59375 65.921875 
Q 27.828125 65.921875 22.671875 59.328125 
Q 17.53125 52.734375 16.796875 39.40625 
Q 19.671875 43.65625 24.015625 45.921875 
Q 28.375 48.1875 33.59375 48.1875 
Q 44.578125 48.1875 50.953125 41.515625 
Q 57.328125 34.859375 57.328125 23.390625 
Q 57.328125 12.15625 50.6875 5.359375 
Q 44.046875 -1.421875 33.015625 -1.421875 
Q 20.359375 -1.421875 13.671875 8.265625 
Q 6.984375 17.96875 6.984375 36.375 
Q 6.984375 53.65625 15.1875 63.9375 
Q 23.390625 74.21875 37.203125 74.21875 
Q 40.921875 74.21875 44.703125 73.484375 
Q 48.484375 72.75 52.59375 71.296875 
z
" id="DejaVuSans-36"/>
      </defs>
      <g transform="translate(311.294643 320.44225)scale(0.2 -0.2)">
       <use xlink:href="#DejaVuSans-36"/>
      </g>
     </g>
    </g>
    <g id="xtick_5">
     <g id="line2d_9">
      <path clip-path="url(#p73904f5836)" d="M 399.942857 298.245375 
L 399.942857 32.133375 
" style="fill:none;stroke:#b0b0b0;stroke-linecap:square;stroke-width:0.8;"/>
     </g>
     <g id="line2d_10">
      <g>
       <use style="stroke:#000000;stroke-width:0.8;" x="399.942857" xlink:href="#ma7ce7e51be" y="298.245375"/>
      </g>
     </g>
     <g id="text_5">
      <!-- 8 -->
      <defs>
       <path d="M 31.78125 34.625 
Q 24.75 34.625 20.71875 30.859375 
Q 16.703125 27.09375 16.703125 20.515625 
Q 16.703125 13.921875 20.71875 10.15625 
Q 24.75 6.390625 31.78125 6.390625 
Q 38.8125 6.390625 42.859375 10.171875 
Q 46.921875 13.96875 46.921875 20.515625 
Q 46.921875 27.09375 42.890625 30.859375 
Q 38.875 34.625 31.78125 34.625 
z
M 21.921875 38.8125 
Q 15.578125 40.375 12.03125 44.71875 
Q 8.5 49.078125 8.5 55.328125 
Q 8.5 64.0625 14.71875 69.140625 
Q 20.953125 74.21875 31.78125 74.21875 
Q 42.671875 74.21875 48.875 69.140625 
Q 55.078125 64.0625 55.078125 55.328125 
Q 55.078125 49.078125 51.53125 44.71875 
Q 48 40.375 41.703125 38.8125 
Q 48.828125 37.15625 52.796875 32.3125 
Q 56.78125 27.484375 56.78125 20.515625 
Q 56.78125 9.90625 50.3125 4.234375 
Q 43.84375 -1.421875 31.78125 -1.421875 
Q 19.734375 -1.421875 13.25 4.234375 
Q 6.78125 9.90625 6.78125 20.515625 
Q 6.78125 27.484375 10.78125 32.3125 
Q 14.796875 37.15625 21.921875 38.8125 
z
M 18.3125 54.390625 
Q 18.3125 48.734375 21.84375 45.5625 
Q 25.390625 42.390625 31.78125 42.390625 
Q 38.140625 42.390625 41.71875 45.5625 
Q 45.3125 48.734375 45.3125 54.390625 
Q 45.3125 60.0625 41.71875 63.234375 
Q 38.140625 66.40625 31.78125 66.40625 
Q 25.390625 66.40625 21.84375 63.234375 
Q 18.3125 60.0625 18.3125 54.390625 
z
" id="DejaVuSans-38"/>
      </defs>
      <g transform="translate(393.580357 320.44225)scale(0.2 -0.2)">
       <use xlink:href="#DejaVuSans-38"/>
      </g>
     </g>
    </g>
    <g id="text_6">
     <!-- log10 of (# f-evals / dimension) -->
     <defs>
      <path d="M 9.421875 75.984375 
L 18.40625 75.984375 
L 18.40625 0 
L 9.421875 0 
z
" id="DejaVuSans-6c"/>
      <path d="M 30.609375 48.390625 
Q 23.390625 48.390625 19.1875 42.75 
Q 14.984375 37.109375 14.984375 27.296875 
Q 14.984375 17.484375 19.15625 11.84375 
Q 23.34375 6.203125 30.609375 6.203125 
Q 37.796875 6.203125 41.984375 11.859375 
Q 46.1875 17.53125 46.1875 27.296875 
Q 46.1875 37.015625 41.984375 42.703125 
Q 37.796875 48.390625 30.609375 48.390625 
z
M 30.609375 56 
Q 42.328125 56 49.015625 48.375 
Q 55.71875 40.765625 55.71875 27.296875 
Q 55.71875 13.875 49.015625 6.21875 
Q 42.328125 -1.421875 30.609375 -1.421875 
Q 18.84375 -1.421875 12.171875 6.21875 
Q 5.515625 13.875 5.515625 27.296875 
Q 5.515625 40.765625 12.171875 48.375 
Q 18.84375 56 30.609375 56 
z
" id="DejaVuSans-6f"/>
      <path d="M 45.40625 27.984375 
Q 45.40625 37.75 41.375 43.109375 
Q 37.359375 48.484375 30.078125 48.484375 
Q 22.859375 48.484375 18.828125 43.109375 
Q 14.796875 37.75 14.796875 27.984375 
Q 14.796875 18.265625 18.828125 12.890625 
Q 22.859375 7.515625 30.078125 7.515625 
Q 37.359375 7.515625 41.375 12.890625 
Q 45.40625 18.265625 45.40625 27.984375 
z
M 54.390625 6.78125 
Q 54.390625 -7.171875 48.1875 -13.984375 
Q 42 -20.796875 29.203125 -20.796875 
Q 24.46875 -20.796875 20.265625 -20.09375 
Q 16.0625 -19.390625 12.109375 -17.921875 
L 12.109375 -9.1875 
Q 16.0625 -11.328125 19.921875 -12.34375 
Q 23.78125 -13.375 27.78125 -13.375 
Q 36.625 -13.375 41.015625 -8.765625 
Q 45.40625 -4.15625 45.40625 5.171875 
L 45.40625 9.625 
Q 42.625 4.78125 38.28125 2.390625 
Q 33.9375 0 27.875 0 
Q 17.828125 0 11.671875 7.65625 
Q 5.515625 15.328125 5.515625 27.984375 
Q 5.515625 40.671875 11.671875 48.328125 
Q 17.828125 56 27.875 56 
Q 33.9375 56 38.28125 53.609375 
Q 42.625 51.21875 45.40625 46.390625 
L 45.40625 54.6875 
L 54.390625 54.6875 
z
" id="DejaVuSans-67"/>
      <path d="M 12.40625 8.296875 
L 28.515625 8.296875 
L 28.515625 63.921875 
L 10.984375 60.40625 
L 10.984375 69.390625 
L 28.421875 72.90625 
L 38.28125 72.90625 
L 38.28125 8.296875 
L 54.390625 8.296875 
L 54.390625 0 
L 12.40625 0 
z
" id="DejaVuSans-31"/>
      <path id="DejaVuSans-20"/>
      <path d="M 37.109375 75.984375 
L 37.109375 68.5 
L 28.515625 68.5 
Q 23.6875 68.5 21.796875 66.546875 
Q 19.921875 64.59375 19.921875 59.515625 
L 19.921875 54.6875 
L 34.71875 54.6875 
L 34.71875 47.703125 
L 19.921875 47.703125 
L 19.921875 0 
L 10.890625 0 
L 10.890625 47.703125 
L 2.296875 47.703125 
L 2.296875 54.6875 
L 10.890625 54.6875 
L 10.890625 58.5 
Q 10.890625 67.625 15.140625 71.796875 
Q 19.390625 75.984375 28.609375 75.984375 
z
" id="DejaVuSans-66"/>
      <path d="M 31 75.875 
Q 24.46875 64.65625 21.28125 53.65625 
Q 18.109375 42.671875 18.109375 31.390625 
Q 18.109375 20.125 21.3125 9.0625 
Q 24.515625 -2 31 -13.1875 
L 23.1875 -13.1875 
Q 15.875 -1.703125 12.234375 9.375 
Q 8.59375 20.453125 8.59375 31.390625 
Q 8.59375 42.28125 12.203125 53.3125 
Q 15.828125 64.359375 23.1875 75.875 
z
" id="DejaVuSans-28"/>
      <path d="M 51.125 44 
L 36.921875 44 
L 32.8125 27.6875 
L 47.125 27.6875 
z
M 43.796875 71.78125 
L 38.71875 51.515625 
L 52.984375 51.515625 
L 58.109375 71.78125 
L 65.921875 71.78125 
L 60.890625 51.515625 
L 76.125 51.515625 
L 76.125 44 
L 58.984375 44 
L 54.984375 27.6875 
L 70.515625 27.6875 
L 70.515625 20.21875 
L 53.078125 20.21875 
L 48 0 
L 40.1875 0 
L 45.21875 20.21875 
L 30.90625 20.21875 
L 25.875 0 
L 18.015625 0 
L 23.09375 20.21875 
L 7.71875 20.21875 
L 7.71875 27.6875 
L 24.90625 27.6875 
L 29 44 
L 13.28125 44 
L 13.28125 51.515625 
L 30.90625 51.515625 
L 35.890625 71.78125 
z
" id="DejaVuSans-23"/>
      <path d="M 4.890625 31.390625 
L 31.203125 31.390625 
L 31.203125 23.390625 
L 4.890625 23.390625 
z
" id="DejaVuSans-2d"/>
      <path d="M 56.203125 29.59375 
L 56.203125 25.203125 
L 14.890625 25.203125 
Q 15.484375 15.921875 20.484375 11.0625 
Q 25.484375 6.203125 34.421875 6.203125 
Q 39.59375 6.203125 44.453125 7.46875 
Q 49.3125 8.734375 54.109375 11.28125 
L 54.109375 2.78125 
Q 49.265625 0.734375 44.1875 -0.34375 
Q 39.109375 -1.421875 33.890625 -1.421875 
Q 20.796875 -1.421875 13.15625 6.1875 
Q 5.515625 13.8125 5.515625 26.8125 
Q 5.515625 40.234375 12.765625 48.109375 
Q 20.015625 56 32.328125 56 
Q 43.359375 56 49.78125 48.890625 
Q 56.203125 41.796875 56.203125 29.59375 
z
M 47.21875 32.234375 
Q 47.125 39.59375 43.09375 43.984375 
Q 39.0625 48.390625 32.421875 48.390625 
Q 24.90625 48.390625 20.390625 44.140625 
Q 15.875 39.890625 15.1875 32.171875 
z
" id="DejaVuSans-65"/>
      <path d="M 2.984375 54.6875 
L 12.5 54.6875 
L 29.59375 8.796875 
L 46.6875 54.6875 
L 56.203125 54.6875 
L 35.6875 0 
L 23.484375 0 
z
" id="DejaVuSans-76"/>
      <path d="M 34.28125 27.484375 
Q 23.390625 27.484375 19.1875 25 
Q 14.984375 22.515625 14.984375 16.5 
Q 14.984375 11.71875 18.140625 8.90625 
Q 21.296875 6.109375 26.703125 6.109375 
Q 34.1875 6.109375 38.703125 11.40625 
Q 43.21875 16.703125 43.21875 25.484375 
L 43.21875 27.484375 
z
M 52.203125 31.203125 
L 52.203125 0 
L 43.21875 0 
L 43.21875 8.296875 
Q 40.140625 3.328125 35.546875 0.953125 
Q 30.953125 -1.421875 24.3125 -1.421875 
Q 15.921875 -1.421875 10.953125 3.296875 
Q 6 8.015625 6 15.921875 
Q 6 25.140625 12.171875 29.828125 
Q 18.359375 34.515625 30.609375 34.515625 
L 43.21875 34.515625 
L 43.21875 35.40625 
Q 43.21875 41.609375 39.140625 45 
Q 35.0625 48.390625 27.6875 48.390625 
Q 23 48.390625 18.546875 47.265625 
Q 14.109375 46.140625 10.015625 43.890625 
L 10.015625 52.203125 
Q 14.9375 54.109375 19.578125 55.046875 
Q 24.21875 56 28.609375 56 
Q 40.484375 56 46.34375 49.84375 
Q 52.203125 43.703125 52.203125 31.203125 
z
" id="DejaVuSans-61"/>
      <path d="M 44.28125 53.078125 
L 44.28125 44.578125 
Q 40.484375 46.53125 36.375 47.5 
Q 32.28125 48.484375 27.875 48.484375 
Q 21.1875 48.484375 17.84375 46.4375 
Q 14.5 44.390625 14.5 40.28125 
Q 14.5 37.15625 16.890625 35.375 
Q 19.28125 33.59375 26.515625 31.984375 
L 29.59375 31.296875 
Q 39.15625 29.25 43.1875 25.515625 
Q 47.21875 21.78125 47.21875 15.09375 
Q 47.21875 7.46875 41.1875 3.015625 
Q 35.15625 -1.421875 24.609375 -1.421875 
Q 20.21875 -1.421875 15.453125 -0.5625 
Q 10.6875 0.296875 5.421875 2 
L 5.421875 11.28125 
Q 10.40625 8.6875 15.234375 7.390625 
Q 20.0625 6.109375 24.8125 6.109375 
Q 31.15625 6.109375 34.5625 8.28125 
Q 37.984375 10.453125 37.984375 14.40625 
Q 37.984375 18.0625 35.515625 20.015625 
Q 33.0625 21.96875 24.703125 23.78125 
L 21.578125 24.515625 
Q 13.234375 26.265625 9.515625 29.90625 
Q 5.8125 33.546875 5.8125 39.890625 
Q 5.8125 47.609375 11.28125 51.796875 
Q 16.75 56 26.8125 56 
Q 31.78125 56 36.171875 55.265625 
Q 40.578125 54.546875 44.28125 53.078125 
z
" id="DejaVuSans-73"/>
      <path d="M 25.390625 72.90625 
L 33.6875 72.90625 
L 8.296875 -9.28125 
L 0 -9.28125 
z
" id="DejaVuSans-2f"/>
      <path d="M 45.40625 46.390625 
L 45.40625 75.984375 
L 54.390625 75.984375 
L 54.390625 0 
L 45.40625 0 
L 45.40625 8.203125 
Q 42.578125 3.328125 38.25 0.953125 
Q 33.9375 -1.421875 27.875 -1.421875 
Q 17.96875 -1.421875 11.734375 6.484375 
Q 5.515625 14.40625 5.515625 27.296875 
Q 5.515625 40.1875 11.734375 48.09375 
Q 17.96875 56 27.875 56 
Q 33.9375 56 38.25 53.625 
Q 42.578125 51.265625 45.40625 46.390625 
z
M 14.796875 27.296875 
Q 14.796875 17.390625 18.875 11.75 
Q 22.953125 6.109375 30.078125 6.109375 
Q 37.203125 6.109375 41.296875 11.75 
Q 45.40625 17.390625 45.40625 27.296875 
Q 45.40625 37.203125 41.296875 42.84375 
Q 37.203125 48.484375 30.078125 48.484375 
Q 22.953125 48.484375 18.875 42.84375 
Q 14.796875 37.203125 14.796875 27.296875 
z
" id="DejaVuSans-64"/>
      <path d="M 9.421875 54.6875 
L 18.40625 54.6875 
L 18.40625 0 
L 9.421875 0 
z
M 9.421875 75.984375 
L 18.40625 75.984375 
L 18.40625 64.59375 
L 9.421875 64.59375 
z
" id="DejaVuSans-69"/>
      <path d="M 52 44.1875 
Q 55.375 50.25 60.0625 53.125 
Q 64.75 56 71.09375 56 
Q 79.640625 56 84.28125 50.015625 
Q 88.921875 44.046875 88.921875 33.015625 
L 88.921875 0 
L 79.890625 0 
L 79.890625 32.71875 
Q 79.890625 40.578125 77.09375 44.375 
Q 74.3125 48.1875 68.609375 48.1875 
Q 61.625 48.1875 57.5625 43.546875 
Q 53.515625 38.921875 53.515625 30.90625 
L 53.515625 0 
L 44.484375 0 
L 44.484375 32.71875 
Q 44.484375 40.625 41.703125 44.40625 
Q 38.921875 48.1875 33.109375 48.1875 
Q 26.21875 48.1875 22.15625 43.53125 
Q 18.109375 38.875 18.109375 30.90625 
L 18.109375 0 
L 9.078125 0 
L 9.078125 54.6875 
L 18.109375 54.6875 
L 18.109375 46.1875 
Q 21.1875 51.21875 25.484375 53.609375 
Q 29.78125 56 35.6875 56 
Q 41.65625 56 45.828125 52.96875 
Q 50 49.953125 52 44.1875 
z
" id="DejaVuSans-6d"/>
      <path d="M 54.890625 33.015625 
L 54.890625 0 
L 45.90625 0 
L 45.90625 32.71875 
Q 45.90625 40.484375 42.875 44.328125 
Q 39.84375 48.1875 33.796875 48.1875 
Q 26.515625 48.1875 22.3125 43.546875 
Q 18.109375 38.921875 18.109375 30.90625 
L 18.109375 0 
L 9.078125 0 
L 9.078125 54.6875 
L 18.109375 54.6875 
L 18.109375 46.1875 
Q 21.34375 51.125 25.703125 53.5625 
Q 30.078125 56 35.796875 56 
Q 45.21875 56 50.046875 50.171875 
Q 54.890625 44.34375 54.890625 33.015625 
z
" id="DejaVuSans-6e"/>
      <path d="M 8.015625 75.875 
L 15.828125 75.875 
Q 23.140625 64.359375 26.78125 53.3125 
Q 30.421875 42.28125 30.421875 31.390625 
Q 30.421875 20.453125 26.78125 9.375 
Q 23.140625 -1.703125 15.828125 -13.1875 
L 8.015625 -13.1875 
Q 14.5 -2 17.703125 9.0625 
Q 20.90625 20.125 20.90625 31.390625 
Q 20.90625 42.671875 17.703125 53.65625 
Q 14.5 64.65625 8.015625 75.875 
z
" id="DejaVuSans-29"/>
     </defs>
     <g transform="translate(107.015156 342.278812)scale(0.18 -0.18)">
      <use xlink:href="#DejaVuSans-6c"/>
      <use x="27.783203" xlink:href="#DejaVuSans-6f"/>
      <use x="88.964844" xlink:href="#DejaVuSans-67"/>
      <use x="152.441406" xlink:href="#DejaVuSans-31"/>
      <use x="216.064453" xlink:href="#DejaVuSans-30"/>
      <use x="279.6875" xlink:href="#DejaVuSans-20"/>
      <use x="311.474609" xlink:href="#DejaVuSans-6f"/>
      <use x="372.65625" xlink:href="#DejaVuSans-66"/>
      <use x="407.861328" xlink:href="#DejaVuSans-20"/>
      <use x="439.648438" xlink:href="#DejaVuSans-28"/>
      <use x="478.662109" xlink:href="#DejaVuSans-23"/>
      <use x="562.451172" xlink:href="#DejaVuSans-20"/>
      <use x="594.238281" xlink:href="#DejaVuSans-66"/>
      <use x="629.365234" xlink:href="#DejaVuSans-2d"/>
      <use x="665.449219" xlink:href="#DejaVuSans-65"/>
      <use x="726.972656" xlink:href="#DejaVuSans-76"/>
      <use x="786.152344" xlink:href="#DejaVuSans-61"/>
      <use x="847.431641" xlink:href="#DejaVuSans-6c"/>
      <use x="875.214844" xlink:href="#DejaVuSans-73"/>
      <use x="927.314453" xlink:href="#DejaVuSans-20"/>
      <use x="959.101562" xlink:href="#DejaVuSans-2f"/>
      <use x="992.792969" xlink:href="#DejaVuSans-20"/>
      <use x="1024.580078" xlink:href="#DejaVuSans-64"/>
      <use x="1088.056641" xlink:href="#DejaVuSans-69"/>
      <use x="1115.839844" xlink:href="#DejaVuSans-6d"/>
      <use x="1213.251953" xlink:href="#DejaVuSans-65"/>
      <use x="1274.775391" xlink:href="#DejaVuSans-6e"/>
      <use x="1338.154297" xlink:href="#DejaVuSans-73"/>
      <use x="1390.253906" xlink:href="#DejaVuSans-69"/>
      <use x="1418.037109" xlink:href="#DejaVuSans-6f"/>
      <use x="1479.21875" xlink:href="#DejaVuSans-6e"/>
      <use x="1542.597656" xlink:href="#DejaVuSans-29"/>
     </g>
    </g>
   </g>
   <g id="matplotlib.axis_2">
    <g id="ytick_1">
     <g id="line2d_11">
      <path clip-path="url(#p73904f5836)" d="M 70.8 298.245375 
L 427.92 298.245375 
" style="fill:none;stroke:#b0b0b0;stroke-linecap:square;stroke-width:0.8;"/>
     </g>
     <g id="line2d_12">
      <defs>
       <path d="M 0 0 
L -3.5 0 
" id="m57297e7ef2" style="stroke:#000000;stroke-width:0.8;"/>
      </defs>
      <g>
       <use style="stroke:#000000;stroke-width:0.8;" x="70.8" xlink:href="#m57297e7ef2" y="298.245375"/>
      </g>
     </g>
     <g id="text_7">
      <!-- 0.0 -->
      <defs>
       <path d="M 10.6875 12.40625 
L 21 12.40625 
L 21 0 
L 10.6875 0 
z
" id="DejaVuSans-2e"/>
      </defs>
      <g transform="translate(31.99375 305.843812)scale(0.2 -0.2)">
       <use xlink:href="#DejaVuSans-30"/>
       <use x="63.623047" xlink:href="#DejaVuSans-2e"/>
       <use x="95.410156" xlink:href="#DejaVuSans-30"/>
      </g>
     </g>
    </g>
    <g id="ytick_2">
     <g id="line2d_13">
      <path clip-path="url(#p73904f5836)" d="M 70.8 245.549929 
L 427.92 245.549929 
" style="fill:none;stroke:#b0b0b0;stroke-linecap:square;stroke-width:0.8;"/>
     </g>
     <g id="line2d_14">
      <g>
       <use style="stroke:#000000;stroke-width:0.8;" x="70.8" xlink:href="#m57297e7ef2" y="245.549929"/>
      </g>
     </g>
     <g id="text_8">
      <!-- 0.2 -->
      <g transform="translate(31.99375 253.148367)scale(0.2 -0.2)">
       <use xlink:href="#DejaVuSans-30"/>
       <use x="63.623047" xlink:href="#DejaVuSans-2e"/>
       <use x="95.410156" xlink:href="#DejaVuSans-32"/>
      </g>
     </g>
    </g>
    <g id="ytick_3">
     <g id="line2d_15">
      <path clip-path="url(#p73904f5836)" d="M 70.8 192.854484 
L 427.92 192.854484 
" style="fill:none;stroke:#b0b0b0;stroke-linecap:square;stroke-width:0.8;"/>
     </g>
     <g id="line2d_16">
      <g>
       <use style="stroke:#000000;stroke-width:0.8;" x="70.8" xlink:href="#m57297e7ef2" y="192.854484"/>
      </g>
     </g>
     <g id="text_9">
      <!-- 0.4 -->
      <g transform="translate(31.99375 200.452921)scale(0.2 -0.2)">
       <use xlink:href="#DejaVuSans-30"/>
       <use x="63.623047" xlink:href="#DejaVuSans-2e"/>
       <use x="95.410156" xlink:href="#DejaVuSans-34"/>
      </g>
     </g>
    </g>
    <g id="ytick_4">
     <g id="line2d_17">
      <path clip-path="url(#p73904f5836)" d="M 70.8 140.159038 
L 427.92 140.159038 
" style="fill:none;stroke:#b0b0b0;stroke-linecap:square;stroke-width:0.8;"/>
     </g>
     <g id="line2d_18">
      <g>
       <use style="stroke:#000000;stroke-width:0.8;" x="70.8" xlink:href="#m57297e7ef2" y="140.159038"/>
      </g>
     </g>
     <g id="text_10">
      <!-- 0.6 -->
      <g transform="translate(31.99375 147.757476)scale(0.2 -0.2)">
       <use xlink:href="#DejaVuSans-30"/>
       <use x="63.623047" xlink:href="#DejaVuSans-2e"/>
       <use x="95.410156" xlink:href="#DejaVuSans-36"/>
      </g>
     </g>
    </g>
    <g id="ytick_5">
     <g id="line2d_19">
      <path clip-path="url(#p73904f5836)" d="M 70.8 87.463593 
L 427.92 87.463593 
" style="fill:none;stroke:#b0b0b0;stroke-linecap:square;stroke-width:0.8;"/>
     </g>
     <g id="line2d_20">
      <g>
       <use style="stroke:#000000;stroke-width:0.8;" x="70.8" xlink:href="#m57297e7ef2" y="87.463593"/>
      </g>
     </g>
     <g id="text_11">
      <!-- 0.8 -->
      <g transform="translate(31.99375 95.06203)scale(0.2 -0.2)">
       <use xlink:href="#DejaVuSans-30"/>
       <use x="63.623047" xlink:href="#DejaVuSans-2e"/>
       <use x="95.410156" xlink:href="#DejaVuSans-38"/>
      </g>
     </g>
    </g>
    <g id="ytick_6">
     <g id="line2d_21">
      <path clip-path="url(#p73904f5836)" d="M 70.8 34.768147 
L 427.92 34.768147 
" style="fill:none;stroke:#b0b0b0;stroke-linecap:square;stroke-width:0.8;"/>
     </g>
     <g id="line2d_22">
      <g>
       <use style="stroke:#000000;stroke-width:0.8;" x="70.8" xlink:href="#m57297e7ef2" y="34.768147"/>
      </g>
     </g>
     <g id="text_12">
      <!-- 1.0 -->
      <g transform="translate(31.99375 42.366585)scale(0.2 -0.2)">
       <use xlink:href="#DejaVuSans-31"/>
       <use x="63.623047" xlink:href="#DejaVuSans-2e"/>
       <use x="95.410156" xlink:href="#DejaVuSans-30"/>
      </g>
     </g>
    </g>
    <g id="text_13">
     <!-- Proportion of function+target pairs -->
     <defs>
      <path d="M 19.671875 64.796875 
L 19.671875 37.40625 
L 32.078125 37.40625 
Q 38.96875 37.40625 42.71875 40.96875 
Q 46.484375 44.53125 46.484375 51.125 
Q 46.484375 57.671875 42.71875 61.234375 
Q 38.96875 64.796875 32.078125 64.796875 
z
M 9.8125 72.90625 
L 32.078125 72.90625 
Q 44.34375 72.90625 50.609375 67.359375 
Q 56.890625 61.8125 56.890625 51.125 
Q 56.890625 40.328125 50.609375 34.8125 
Q 44.34375 29.296875 32.078125 29.296875 
L 19.671875 29.296875 
L 19.671875 0 
L 9.8125 0 
z
" id="DejaVuSans-50"/>
      <path d="M 41.109375 46.296875 
Q 39.59375 47.171875 37.8125 47.578125 
Q 36.03125 48 33.890625 48 
Q 26.265625 48 22.1875 43.046875 
Q 18.109375 38.09375 18.109375 28.8125 
L 18.109375 0 
L 9.078125 0 
L 9.078125 54.6875 
L 18.109375 54.6875 
L 18.109375 46.1875 
Q 20.953125 51.171875 25.484375 53.578125 
Q 30.03125 56 36.53125 56 
Q 37.453125 56 38.578125 55.875 
Q 39.703125 55.765625 41.0625 55.515625 
z
" id="DejaVuSans-72"/>
      <path d="M 18.109375 8.203125 
L 18.109375 -20.796875 
L 9.078125 -20.796875 
L 9.078125 54.6875 
L 18.109375 54.6875 
L 18.109375 46.390625 
Q 20.953125 51.265625 25.265625 53.625 
Q 29.59375 56 35.59375 56 
Q 45.5625 56 51.78125 48.09375 
Q 58.015625 40.1875 58.015625 27.296875 
Q 58.015625 14.40625 51.78125 6.484375 
Q 45.5625 -1.421875 35.59375 -1.421875 
Q 29.59375 -1.421875 25.265625 0.953125 
Q 20.953125 3.328125 18.109375 8.203125 
z
M 48.6875 27.296875 
Q 48.6875 37.203125 44.609375 42.84375 
Q 40.53125 48.484375 33.40625 48.484375 
Q 26.265625 48.484375 22.1875 42.84375 
Q 18.109375 37.203125 18.109375 27.296875 
Q 18.109375 17.390625 22.1875 11.75 
Q 26.265625 6.109375 33.40625 6.109375 
Q 40.53125 6.109375 44.609375 11.75 
Q 48.6875 17.390625 48.6875 27.296875 
z
" id="DejaVuSans-70"/>
      <path d="M 18.3125 70.21875 
L 18.3125 54.6875 
L 36.8125 54.6875 
L 36.8125 47.703125 
L 18.3125 47.703125 
L 18.3125 18.015625 
Q 18.3125 11.328125 20.140625 9.421875 
Q 21.96875 7.515625 27.59375 7.515625 
L 36.8125 7.515625 
L 36.8125 0 
L 27.59375 0 
Q 17.1875 0 13.234375 3.875 
Q 9.28125 7.765625 9.28125 18.015625 
L 9.28125 47.703125 
L 2.6875 47.703125 
L 2.6875 54.6875 
L 9.28125 54.6875 
L 9.28125 70.21875 
z
" id="DejaVuSans-74"/>
      <path d="M 8.5 21.578125 
L 8.5 54.6875 
L 17.484375 54.6875 
L 17.484375 21.921875 
Q 17.484375 14.15625 20.5 10.265625 
Q 23.53125 6.390625 29.59375 6.390625 
Q 36.859375 6.390625 41.078125 11.03125 
Q 45.3125 15.671875 45.3125 23.6875 
L 45.3125 54.6875 
L 54.296875 54.6875 
L 54.296875 0 
L 45.3125 0 
L 45.3125 8.40625 
Q 42.046875 3.421875 37.71875 1 
Q 33.40625 -1.421875 27.6875 -1.421875 
Q 18.265625 -1.421875 13.375 4.4375 
Q 8.5 10.296875 8.5 21.578125 
z
M 31.109375 56 
z
" id="DejaVuSans-75"/>
      <path d="M 48.78125 52.59375 
L 48.78125 44.1875 
Q 44.96875 46.296875 41.140625 47.34375 
Q 37.3125 48.390625 33.40625 48.390625 
Q 24.65625 48.390625 19.8125 42.84375 
Q 14.984375 37.3125 14.984375 27.296875 
Q 14.984375 17.28125 19.8125 11.734375 
Q 24.65625 6.203125 33.40625 6.203125 
Q 37.3125 6.203125 41.140625 7.25 
Q 44.96875 8.296875 48.78125 10.40625 
L 48.78125 2.09375 
Q 45.015625 0.34375 40.984375 -0.53125 
Q 36.96875 -1.421875 32.421875 -1.421875 
Q 20.0625 -1.421875 12.78125 6.34375 
Q 5.515625 14.109375 5.515625 27.296875 
Q 5.515625 40.671875 12.859375 48.328125 
Q 20.21875 56 33.015625 56 
Q 37.15625 56 41.109375 55.140625 
Q 45.0625 54.296875 48.78125 52.59375 
z
" id="DejaVuSans-63"/>
      <path d="M 46 62.703125 
L 46 35.5 
L 73.1875 35.5 
L 73.1875 27.203125 
L 46 27.203125 
L 46 0 
L 37.796875 0 
L 37.796875 27.203125 
L 10.59375 27.203125 
L 10.59375 35.5 
L 37.796875 35.5 
L 37.796875 62.703125 
z
" id="DejaVuSans-2b"/>
     </defs>
     <g transform="translate(24.250312 323.17875)rotate(-90)scale(0.18 -0.18)">
      <use xlink:href="#DejaVuSans-50"/>
      <use x="60.287109" xlink:href="#DejaVuSans-72"/>
      <use x="101.369141" xlink:href="#DejaVuSans-6f"/>
      <use x="162.550781" xlink:href="#DejaVuSans-70"/>
      <use x="226.027344" xlink:href="#DejaVuSans-6f"/>
      <use x="287.208984" xlink:href="#DejaVuSans-72"/>
      <use x="328.322266" xlink:href="#DejaVuSans-74"/>
      <use x="367.53125" xlink:href="#DejaVuSans-69"/>
      <use x="395.314453" xlink:href="#DejaVuSans-6f"/>
      <use x="456.496094" xlink:href="#DejaVuSans-6e"/>
      <use x="519.875" xlink:href="#DejaVuSans-20"/>
      <use x="551.662109" xlink:href="#DejaVuSans-6f"/>
      <use x="612.84375" xlink:href="#DejaVuSans-66"/>
      <use x="648.048828" xlink:href="#DejaVuSans-20"/>
      <use x="679.835938" xlink:href="#DejaVuSans-66"/>
      <use x="715.041016" xlink:href="#DejaVuSans-75"/>
      <use x="778.419922" xlink:href="#DejaVuSans-6e"/>
      <use x="841.798828" xlink:href="#DejaVuSans-63"/>
      <use x="896.779297" xlink:href="#DejaVuSans-74"/>
      <use x="935.988281" xlink:href="#DejaVuSans-69"/>
      <use x="963.771484" xlink:href="#DejaVuSans-6f"/>
      <use x="1024.953125" xlink:href="#DejaVuSans-6e"/>
      <use x="1088.332031" xlink:href="#DejaVuSans-2b"/>
      <use x="1172.121094" xlink:href="#DejaVuSans-74"/>
      <use x="1211.330078" xlink:href="#DejaVuSans-61"/>
      <use x="1272.609375" xlink:href="#DejaVuSans-72"/>
      <use x="1313.707031" xlink:href="#DejaVuSans-67"/>
      <use x="1377.183594" xlink:href="#DejaVuSans-65"/>
      <use x="1438.707031" xlink:href="#DejaVuSans-74"/>
      <use x="1477.916016" xlink:href="#DejaVuSans-20"/>
      <use x="1509.703125" xlink:href="#DejaVuSans-70"/>
      <use x="1573.179688" xlink:href="#DejaVuSans-61"/>
      <use x="1634.458984" xlink:href="#DejaVuSans-69"/>
      <use x="1662.242188" xlink:href="#DejaVuSans-72"/>
      <use x="1703.355469" xlink:href="#DejaVuSans-73"/>
     </g>
    </g>
   </g>
   <g id="line2d_23">
    <defs>
     <path d="M 0 1.5 
C 0.397805 1.5 0.77937 1.341951 1.06066 1.06066 
C 1.341951 0.77937 1.5 0.397805 1.5 0 
C 1.5 -0.397805 1.341951 -0.77937 1.06066 -1.06066 
C 0.77937 -1.341951 0.397805 -1.5 0 -1.5 
C -0.397805 -1.5 -0.77937 -1.341951 -1.06066 -1.06066 
C -1.341951 -0.77937 -1.5 -0.397805 -1.5 0 
C -1.5 0.397805 -1.341951 0.77937 -1.06066 1.06066 
C -0.77937 1.341951 -0.397805 1.5 0 1.5 
z
" id="mbdefb48d76" style="stroke:#000080;"/>
    </defs>
    <g>
     <use style="fill:#000080;stroke:#000080;" x="275.282828" xlink:href="#mbdefb48d76" y="143.25877"/>
     <use style="fill:#000080;stroke:#000080;" x="275.282828" xlink:href="#mbdefb48d76" y="143.25877"/>
    </g>
   </g>
   <g id="line2d_24">
    <path d="M 123.691501 298.245375 
L 123.691501 296.695509 
L 125.537024 296.695509 
L 125.537024 296.178887 
L 127.511228 296.178887 
L 127.511228 295.145643 
L 128.099532 295.145643 
L 128.099532 294.112399 
L 128.315246 294.112399 
L 128.315246 293.595777 
L 130.967232 293.595777 
L 130.967232 292.045911 
L 131.393408 292.045911 
L 131.393408 291.529289 
L 132.216427 291.529289 
L 132.216427 290.496045 
L 132.614144 290.496045 
L 132.614144 289.979423 
L 132.837499 289.979423 
L 132.837499 288.946179 
L 133.383967 288.946179 
L 133.383967 288.429557 
L 133.704001 288.429557 
L 133.704001 287.912935 
L 135.368527 287.912935 
L 135.416624 286.363069 
L 135.796811 286.363069 
L 135.796811 285.329825 
L 136.397865 285.329825 
L 136.397865 284.813203 
L 137.023313 284.813203 
L 137.023313 284.296581 
L 137.627606 284.296581 
L 137.627606 283.779959 
L 138.129788 283.779959 
L 138.129788 283.263337 
L 138.537753 283.263337 
L 138.537753 281.713471 
L 139.821543 281.713471 
L 139.821543 281.196849 
L 140.193035 281.196849 
L 140.193035 280.680226 
L 140.375924 280.680226 
L 140.375924 280.163604 
L 141.297897 280.163604 
L 141.297897 279.646982 
L 142.629471 279.646982 
L 142.629471 279.13036 
L 143.505841 279.13036 
L 143.505841 278.097116 
L 143.748536 278.097116 
L 143.748536 277.580494 
L 144.601662 277.580494 
L 144.601662 276.54725 
L 144.886646 276.54725 
L 144.886646 276.030628 
L 145.083464 276.030628 
L 145.083464 275.514006 
L 145.278138 275.514006 
L 145.278138 274.480762 
L 145.742271 274.480762 
L 145.742271 273.96414 
L 147.091449 273.96414 
L 147.166263 272.930896 
L 147.535706 272.930896 
L 147.632948 271.38103 
L 148.415618 271.38103 
L 148.415618 270.864408 
L 149.031428 270.864408 
L 149.031428 269.831164 
L 150.034049 269.831164 
L 150.034049 269.314542 
L 150.307492 269.314542 
L 150.307492 268.79792 
L 150.658872 268.79792 
L 150.658872 267.764676 
L 151.20312 267.764676 
L 151.20312 267.248054 
L 152.187998 267.248054 
L 152.187998 266.731432 
L 152.578269 266.731432 
L 152.578269 266.21481 
L 153.139238 266.21481 
L 153.139238 265.181566 
L 154.723634 265.181566 
L 154.723634 264.664944 
L 156.118698 264.664944 
L 156.118698 264.148322 
L 158.234983 264.148322 
L 158.234983 263.6317 
L 159.199652 263.6317 
L 159.199652 263.115078 
L 162.86928 263.115078 
L 162.86928 262.598456 
L 165.372403 262.598456 
L 165.372403 262.081834 
L 166.214649 262.081834 
L 166.214649 261.565212 
L 169.769847 261.565212 
L 169.769847 261.04859 
L 172.834571 261.04859 
L 172.834571 259.498724 
L 173.116335 259.498724 
L 173.203482 258.46548 
L 176.151382 258.46548 
L 176.151382 257.432236 
L 177.435843 257.432236 
L 177.435843 256.398992 
L 180.337921 256.398992 
L 180.337921 255.88237 
L 180.870308 255.88237 
L 180.870308 254.332504 
L 181.07293 254.332504 
L 181.07293 253.815882 
L 184.080818 253.815882 
L 184.099726 252.782638 
L 184.590571 252.782638 
L 184.590571 251.232772 
L 185.807606 251.232772 
L 185.807606 250.71615 
L 189.816503 250.71615 
L 189.816503 249.166284 
L 190.23248 249.166284 
L 190.23248 248.649662 
L 191.523259 248.649662 
L 191.523259 247.616418 
L 192.41533 247.616418 
L 192.454839 245.033307 
L 192.557157 245.033307 
L 192.557157 244.516685 
L 192.674492 244.516685 
L 192.674492 244.000063 
L 193.20074 244.000063 
L 193.20074 241.933575 
L 194.333684 241.933575 
L 194.376265 240.900331 
L 194.596416 240.900331 
L 194.596416 240.383709 
L 195.0407 240.383709 
L 195.0407 239.867087 
L 195.659883 239.867087 
L 195.752004 238.317221 
L 195.988348 238.317221 
L 195.988348 237.800599 
L 196.220007 237.800599 
L 196.220007 237.283977 
L 196.401298 237.283977 
L 196.447124 236.250733 
L 196.760004 236.250733 
L 196.760004 235.734111 
L 196.935924 235.734111 
L 196.935924 235.217489 
L 197.149624 235.217489 
L 197.149624 234.184245 
L 197.365295 234.184245 
L 197.365295 233.151001 
L 197.742074 233.151001 
L 197.742074 232.634379 
L 198.017365 232.634379 
L 198.017365 231.601135 
L 198.410495 231.601135 
L 198.410495 231.084513 
L 198.622737 231.084513 
L 198.702203 230.051269 
L 198.797929 230.051269 
L 198.797929 229.534647 
L 199.250138 229.534647 
L 199.250138 228.501403 
L 199.450024 228.501403 
L 199.450024 227.984781 
L 200.009474 227.984781 
L 200.009474 227.468159 
L 200.178048 227.468159 
L 200.178048 226.951537 
L 200.291675 226.951537 
L 200.291675 226.434915 
L 200.513014 226.434915 
L 200.513014 225.918293 
L 200.716737 225.918293 
L 200.716737 224.885049 
L 200.894802 224.885049 
L 200.894802 223.335183 
L 201.555474 223.335183 
L 201.555474 222.301939 
L 202.287305 222.301939 
L 202.287305 221.268695 
L 202.646741 221.268695 
L 202.665695 220.235451 
L 203.054782 220.235451 
L 203.08855 218.168963 
L 203.274757 218.168963 
L 203.274757 217.652341 
L 203.496312 217.652341 
L 203.601309 216.619097 
L 203.801108 216.619097 
L 203.84706 215.585853 
L 205.051927 215.585853 
L 205.051927 214.552609 
L 205.368904 214.552609 
L 205.368904 214.035987 
L 205.617175 214.035987 
L 205.617175 213.002743 
L 205.895557 213.002743 
L 205.895557 212.48612 
L 206.054814 212.48612 
L 206.054814 211.969498 
L 206.486489 211.969498 
L 206.486489 211.452876 
L 206.672673 211.452876 
L 206.672673 210.936254 
L 206.944854 210.936254 
L 206.997397 209.90301 
L 207.462606 209.90301 
L 207.462606 209.386388 
L 207.77843 209.386388 
L 207.792654 208.353144 
L 208.256616 208.353144 
L 208.256616 207.3199 
L 208.457583 207.3199 
L 208.500241 205.770034 
L 208.888296 205.770034 
L 208.947195 204.73679 
L 209.076095 204.73679 
L 209.076095 203.703546 
L 209.543959 203.703546 
L 209.603763 202.670302 
L 209.782732 202.670302 
L 209.845472 201.120436 
L 210.581652 201.120436 
L 210.581652 200.603814 
L 210.823986 200.603814 
L 210.823986 200.087192 
L 213.123086 200.087192 
L 213.123086 199.57057 
L 213.809199 199.57057 
L 213.809199 199.053948 
L 214.208451 199.053948 
L 214.208451 198.537326 
L 216.044083 198.537326 
L 216.044083 197.504082 
L 217.049314 197.504082 
L 217.087138 195.954216 
L 217.285392 195.954216 
L 217.285392 195.437594 
L 217.714822 195.437594 
L 217.724419 194.40435 
L 217.966003 194.40435 
L 218.059941 193.371106 
L 218.101793 193.371106 
L 218.101793 192.854484 
L 218.32677 192.854484 
L 218.32677 192.337862 
L 219.015114 192.337862 
L 219.015114 191.82124 
L 219.171968 191.82124 
L 219.185677 190.787996 
L 219.494209 190.787996 
L 219.494209 190.271374 
L 219.881461 190.271374 
L 219.881461 189.23813 
L 220.128475 189.23813 
L 220.128475 188.721508 
L 220.490038 188.721508 
L 220.490038 188.204886 
L 220.644702 188.204886 
L 220.7337 187.171642 
L 221.093274 187.171642 
L 221.166228 186.138398 
L 221.345361 186.138398 
L 221.345361 185.621776 
L 221.605141 185.621776 
L 221.605141 184.588532 
L 221.772301 184.588532 
L 221.772301 184.07191 
L 221.957606 184.07191 
L 221.957606 183.555288 
L 224.745647 183.555288 
L 224.827394 182.522044 
L 225.327423 182.522044 
L 225.339017 181.4888 
L 226.477665 181.4888 
L 226.477665 180.972178 
L 226.987352 180.972178 
L 227.008194 179.938934 
L 227.136135 179.938934 
L 227.136135 179.422312 
L 228.079924 179.422312 
L 228.079924 178.90569 
L 228.578895 178.90569 
L 228.578895 178.389067 
L 229.041406 178.389067 
L 229.041406 177.872445 
L 229.472621 177.872445 
L 229.472621 177.355823 
L 231.506031 177.355823 
L 231.506031 176.839201 
L 232.239463 176.839201 
L 232.239463 176.322579 
L 232.625532 176.322579 
L 232.625532 175.805957 
L 232.790417 175.805957 
L 232.790417 174.256091 
L 233.494194 174.256091 
L 233.494194 173.739469 
L 234.105441 173.739469 
L 234.1451 172.706225 
L 234.561241 172.706225 
L 234.561241 172.189603 
L 236.733834 172.189603 
L 236.733834 171.672981 
L 236.952033 171.672981 
L 236.952033 171.156359 
L 237.163722 171.156359 
L 237.163722 170.639737 
L 237.943755 170.639737 
L 237.943755 169.606493 
L 238.473489 169.606493 
L 238.473489 169.089871 
L 239.921821 169.089871 
L 239.921821 168.573249 
L 241.205778 168.573249 
L 241.205778 168.056627 
L 241.317703 168.056627 
L 241.317703 167.023383 
L 241.43186 167.023383 
L 241.43186 166.506761 
L 241.557429 166.506761 
L 241.660019 164.956895 
L 241.672832 164.956895 
L 241.672832 163.923651 
L 241.788243 163.923651 
L 241.788243 163.407029 
L 243.774086 163.407029 
L 243.774086 162.890407 
L 243.994783 162.890407 
L 243.994783 161.857163 
L 245.964372 161.857163 
L 245.997921 160.823919 
L 246.125816 160.823919 
L 246.125816 160.307297 
L 246.462939 160.307297 
L 246.519039 159.274053 
L 246.780897 159.274053 
L 246.780897 158.757431 
L 248.989626 158.757431 
L 248.989626 158.240809 
L 250.297087 158.240809 
L 250.297087 157.724187 
L 250.441582 157.724187 
L 250.441582 157.207565 
L 250.675363 157.207565 
L 250.675363 156.690943 
L 250.817746 156.690943 
L 250.817746 156.174321 
L 252.409534 156.174321 
L 252.409534 155.657699 
L 252.662172 155.657699 
L 252.664005 154.624455 
L 254.223254 154.624455 
L 254.223254 153.591211 
L 255.263542 153.591211 
L 255.263542 153.074589 
L 255.442306 153.074589 
L 255.442306 152.041345 
L 258.220348 152.041345 
L 258.220348 151.524723 
L 258.905614 151.524723 
L 258.905614 151.008101 
L 260.232793 151.008101 
L 260.232793 150.491479 
L 260.461452 150.491479 
L 260.461452 149.974857 
L 264.059014 149.974857 
L 264.059014 149.458235 
L 264.178442 149.458235 
L 264.178442 148.941613 
L 265.812106 148.941613 
L 265.871785 147.908369 
L 266.517333 147.908369 
L 266.57614 146.875125 
L 266.633325 146.875125 
L 266.633325 146.358503 
L 268.597118 146.358503 
L 268.597118 145.841881 
L 270.019001 145.841881 
L 270.019001 145.325259 
L 270.97098 145.325259 
L 270.97098 144.808637 
L 272.823877 144.808637 
L 272.823877 144.292014 
L 274.271923 144.292014 
L 274.271923 143.775392 
L 275.282828 143.775392 
L 275.282828 143.25877 
L 358.8 143.25877 
L 358.8 143.25877 
" style="fill:none;stroke:#000080;stroke-linecap:square;stroke-width:1.5;"/>
   </g>
   <g id="line2d_25">
    <defs>
     <path d="M 0 6 
C 1.591219 6 3.117479 5.367802 4.242641 4.242641 
C 5.367802 3.117479 6 1.591219 6 0 
C 6 -1.591219 5.367802 -3.117479 4.242641 -4.242641 
C 3.117479 -5.367802 1.591219 -6 0 -6 
C -1.591219 -6 -3.117479 -5.367802 -4.242641 -4.242641 
C -5.367802 -3.117479 -6 -1.591219 -6 0 
C -6 1.591219 -5.367802 3.117479 -4.242641 4.242641 
C -3.117479 5.367802 -1.591219 6 0 6 
z
" id="m5c05984633" style="stroke:#000080;stroke-width:1.5;"/>
    </defs>
    <g>
     <use style="fill:none;stroke:#000080;stroke-width:1.5;" x="159.199652" xlink:href="#m5c05984633" y="263.6317"/>
     <use style="fill:none;stroke:#000080;stroke-width:1.5;" x="210.823986" xlink:href="#m5c05984633" y="200.603814"/>
     <use style="fill:none;stroke:#000080;stroke-width:1.5;" x="266.57614" xlink:href="#m5c05984633" y="147.391747"/>
     <use style="fill:none;stroke:#000080;stroke-width:1.5;" x="275.282828" xlink:href="#m5c05984633" y="143.25877"/>
     <use style="fill:none;stroke:#000080;stroke-width:1.5;" x="358.8" xlink:href="#m5c05984633" y="143.25877"/>
    </g>
   </g>
   <g id="line2d_26"/>
   <g id="line2d_27">
    <path clip-path="url(#p73904f5836)" d="M 209.872293 201.120436 
" style="fill:none;stroke:#000080;stroke-linecap:square;stroke-width:1.5;"/>
    <defs>
     <path d="M -12 12 
L 12 -12 
M -12 -12 
L 12 12 
" id="mfcefab8c93" style="stroke:#000080;stroke-width:3;"/>
    </defs>
    <g clip-path="url(#p73904f5836)">
     <use style="fill:#000080;stroke:#000080;stroke-width:3;" x="209.872293" xlink:href="#mfcefab8c93" y="201.120436"/>
    </g>
   </g>
   <g id="line2d_28">
    <defs>
     <path d="M 0 1.5 
C 0.397805 1.5 0.77937 1.341951 1.06066 1.06066 
C 1.341951 0.77937 1.5 0.397805 1.5 0 
C 1.5 -0.397805 1.341951 -0.77937 1.06066 -1.06066 
C 0.77937 -1.341951 0.397805 -1.5 0 -1.5 
C -0.397805 -1.5 -0.77937 -1.341951 -1.06066 -1.06066 
C -1.341951 -0.77937 -1.5 -0.397805 -1.5 0 
C -1.5 0.397805 -1.341951 0.77937 -1.06066 1.06066 
C -0.77937 1.341951 -0.397805 1.5 0 1.5 
z
" id="mc924bc7a15" style="stroke:#ff00ff;"/>
    </defs>
    <g>
     <use style="fill:#ff00ff;stroke:#ff00ff;" x="285.520406" xlink:href="#mc924bc7a15" y="200.087192"/>
     <use style="fill:#ff00ff;stroke:#ff00ff;" x="285.520406" xlink:href="#mc924bc7a15" y="200.087192"/>
    </g>
   </g>
   <g id="line2d_29">
    <path d="M 29.657143 298.245375 
L 29.657143 287.912935 
L 89.824375 287.912935 
L 89.824375 287.396313 
L 99.911459 287.396313 
L 99.911459 286.879691 
L 100.598779 286.879691 
L 100.598779 285.846447 
L 101.582593 285.846447 
L 101.582593 284.813203 
L 101.898851 284.813203 
L 101.898851 284.296581 
L 102.815366 284.296581 
L 102.815366 282.746715 
L 103.401258 282.746715 
L 103.401258 282.230093 
L 109.454506 282.230093 
L 109.454506 281.713471 
L 111.763277 281.713471 
L 111.763277 280.680226 
L 113.64587 280.680226 
L 113.64587 279.13036 
L 115.348884 279.13036 
L 115.348884 278.613738 
L 115.495947 278.613738 
L 115.495947 277.580494 
L 116.072388 277.580494 
L 116.072388 277.063872 
L 117.437029 277.063872 
L 117.437029 275.514006 
L 120.002729 275.514006 
L 120.002729 274.997384 
L 120.672861 274.997384 
L 120.672861 274.480762 
L 122.935065 274.480762 
L 122.935065 273.96414 
L 123.783843 273.96414 
L 123.783843 273.447518 
L 124.505885 273.447518 
L 124.505885 272.930896 
L 125.453332 272.930896 
L 125.453332 271.897652 
L 125.867924 271.897652 
L 125.867924 270.864408 
L 126.432652 270.864408 
L 126.432652 270.347786 
L 126.669319 270.347786 
L 126.669319 269.831164 
L 126.825374 269.831164 
L 126.825374 269.314542 
L 128.386576 269.314542 
L 128.386576 267.764676 
L 128.739016 267.764676 
L 128.739016 267.248054 
L 130.083117 267.248054 
L 130.083117 266.21481 
L 130.212129 266.21481 
L 130.212129 264.664944 
L 130.656474 264.664944 
L 130.656474 263.6317 
L 131.926824 263.6317 
L 131.926824 262.598456 
L 132.273789 262.598456 
L 132.273789 262.081834 
L 132.557867 262.081834 
L 132.557867 261.565212 
L 132.837499 261.565212 
L 132.837499 261.04859 
L 137.880461 261.04859 
L 137.880461 260.015346 
L 138.456902 260.015346 
L 138.456902 259.498724 
L 138.578042 259.498724 
L 138.578042 258.982102 
L 140.008255 258.982102 
L 140.008255 258.46548 
L 141.808936 258.46548 
L 141.808936 257.948858 
L 144.801627 257.948858 
L 144.801627 257.432236 
L 146.991206 257.432236 
L 146.991206 256.915614 
L 158.208174 256.915614 
L 158.208174 256.398992 
L 160.066605 256.398992 
L 160.066605 254.849126 
L 166.912153 254.849126 
L 166.912153 253.815882 
L 170.879517 253.815882 
L 170.879517 253.29926 
L 172.39129 253.29926 
L 172.488071 251.232772 
L 173.17448 251.232772 
L 173.17448 249.682906 
L 173.450975 249.682906 
L 173.519435 248.649662 
L 175.708575 248.649662 
L 175.708575 248.13304 
L 178.09138 248.13304 
L 178.09138 247.616418 
L 179.712849 247.616418 
L 179.712849 247.099796 
L 180.330144 247.099796 
L 180.330144 246.583173 
L 181.449504 246.583173 
L 181.449504 246.066551 
L 181.660147 246.066551 
L 181.660147 245.549929 
L 181.836189 245.549929 
L 181.836189 245.033307 
L 184.228398 245.033307 
L 184.228398 244.516685 
L 185.160541 244.516685 
L 185.160541 244.000063 
L 186.245884 244.000063 
L 186.245884 243.483441 
L 187.613893 243.483441 
L 187.613893 242.966819 
L 187.926792 242.966819 
L 187.926792 242.450197 
L 188.7855 242.450197 
L 188.7855 240.900331 
L 188.9831 240.900331 
L 188.9831 240.383709 
L 189.13582 240.383709 
L 189.13582 239.867087 
L 189.385926 239.867087 
L 189.385926 239.350465 
L 190.933624 239.350465 
L 190.933624 238.317221 
L 191.997144 238.317221 
L 191.997144 237.800599 
L 192.128254 237.800599 
L 192.128254 237.283977 
L 193.004731 237.283977 
L 193.006644 236.250733 
L 193.772524 236.250733 
L 193.772524 235.734111 
L 194.176679 235.734111 
L 194.176679 235.217489 
L 194.448774 235.217489 
L 194.448774 234.700867 
L 194.860516 234.700867 
L 194.860516 234.184245 
L 195.003097 234.184245 
L 195.103763 233.151001 
L 196.36487 233.151001 
L 196.36487 232.634379 
L 196.680738 232.634379 
L 196.680738 232.117757 
L 196.91595 232.117757 
L 196.91595 231.084513 
L 197.091872 231.084513 
L 197.131406 229.018025 
L 198.174224 229.018025 
L 198.174224 228.501403 
L 199.322838 228.501403 
L 199.322838 227.984781 
L 200.129312 227.984781 
L 200.129312 227.468159 
L 200.669451 227.468159 
L 200.724192 226.434915 
L 201.775845 226.434915 
L 201.775845 225.401671 
L 202.196018 225.401671 
L 202.196018 224.885049 
L 202.372464 224.885049 
L 202.372464 223.851805 
L 202.744637 223.851805 
L 202.744637 223.335183 
L 203.048239 223.335183 
L 203.048239 222.818561 
L 203.317784 222.818561 
L 203.317784 222.301939 
L 203.506946 222.301939 
L 203.506946 221.785317 
L 204.718302 221.785317 
L 204.718302 221.268695 
L 205.046076 221.268695 
L 205.046076 220.235451 
L 205.807918 220.235451 
L 205.807918 219.718829 
L 206.129324 219.718829 
L 206.129324 218.685585 
L 206.649506 218.685585 
L 206.649506 218.168963 
L 207.053273 218.168963 
L 207.101152 217.135719 
L 207.24575 217.135719 
L 207.24575 216.102475 
L 208.501045 216.102475 
L 208.501045 215.069231 
L 209.142912 215.069231 
L 209.142912 214.552609 
L 209.408473 214.552609 
L 209.408473 213.519365 
L 218.242153 213.519365 
L 218.242153 213.002743 
L 220.034294 213.002743 
L 220.034294 212.48612 
L 220.916799 212.48612 
L 220.916799 211.452876 
L 226.928121 211.452876 
L 226.928121 210.936254 
L 229.056933 210.936254 
L 229.056933 210.419632 
L 229.331622 210.419632 
L 229.331622 209.90301 
L 232.747631 209.90301 
L 232.747631 209.386388 
L 233.984969 209.386388 
L 233.984969 208.869766 
L 234.309688 208.869766 
L 234.309688 208.353144 
L 234.514813 208.353144 
L 234.514813 207.836522 
L 238.363956 207.836522 
L 238.363956 207.3199 
L 240.646828 207.3199 
L 240.646828 206.803278 
L 244.56904 206.803278 
L 244.56904 206.286656 
L 250.754932 206.286656 
L 250.754932 205.770034 
L 256.726111 205.770034 
L 256.726111 205.253412 
L 257.979119 205.253412 
L 257.979119 204.73679 
L 258.171833 204.73679 
L 258.171833 204.220168 
L 259.381328 204.220168 
L 259.381328 203.703546 
L 260.418663 203.703546 
L 260.466454 202.15368 
L 262.457009 202.15368 
L 262.457009 201.637058 
L 263.374868 201.637058 
L 263.374868 201.120436 
L 264.247872 201.120436 
L 264.247872 200.603814 
L 285.520406 200.603814 
L 285.520406 200.087192 
L 358.8 200.087192 
L 358.8 200.087192 
" style="fill:none;stroke:#ff00ff;stroke-linecap:square;stroke-width:1.5;"/>
   </g>
   <g id="line2d_30">
    <defs>
     <path d="M -0 8.485281 
L 5.091169 0 
L 0 -8.485281 
L -5.091169 -0 
z
" id="mc2c48574be" style="stroke:#ff00ff;stroke-linejoin:miter;stroke-width:1.5;"/>
    </defs>
    <g>
     <use style="fill:none;stroke:#ff00ff;stroke-linejoin:miter;stroke-width:1.5;" x="100.598779" xlink:href="#mc2c48574be" y="286.879691"/>
     <use style="fill:none;stroke:#ff00ff;stroke-linejoin:miter;stroke-width:1.5;" x="160.066605" xlink:href="#mc2c48574be" y="256.398992"/>
     <use style="fill:none;stroke:#ff00ff;stroke-linejoin:miter;stroke-width:1.5;" x="209.408473" xlink:href="#mc2c48574be" y="214.552609"/>
     <use style="fill:none;stroke:#ff00ff;stroke-linejoin:miter;stroke-width:1.5;" x="285.520406" xlink:href="#mc2c48574be" y="200.603814"/>
     <use style="fill:none;stroke:#ff00ff;stroke-linejoin:miter;stroke-width:1.5;" x="285.520406" xlink:href="#mc2c48574be" y="200.087192"/>
     <use style="fill:none;stroke:#ff00ff;stroke-linejoin:miter;stroke-width:1.5;" x="358.8" xlink:href="#mc2c48574be" y="200.087192"/>
    </g>
   </g>
   <g id="line2d_31"/>
   <g id="line2d_32">
    <path clip-path="url(#p73904f5836)" d="M 209.872293 213.519365 
" style="fill:none;stroke:#ff00ff;stroke-linecap:square;stroke-width:1.5;"/>
    <defs>
     <path d="M -12 12 
L 12 -12 
M -12 -12 
L 12 12 
" id="mdcc8b5b1f4" style="stroke:#ff00ff;stroke-width:3;"/>
    </defs>
    <g clip-path="url(#p73904f5836)">
     <use style="fill:#ff00ff;stroke:#ff00ff;stroke-width:3;" x="209.872293" xlink:href="#mdcc8b5b1f4" y="213.519365"/>
    </g>
   </g>
   <g id="line2d_33">
    <defs>
     <path d="M 0 1.5 
C 0.397805 1.5 0.77937 1.341951 1.06066 1.06066 
C 1.341951 0.77937 1.5 0.397805 1.5 0 
C 1.5 -0.397805 1.341951 -0.77937 1.06066 -1.06066 
C 0.77937 -1.341951 0.397805 -1.5 0 -1.5 
C -0.397805 -1.5 -0.77937 -1.341951 -1.06066 -1.06066 
C -1.341951 -0.77937 -1.5 -0.397805 -1.5 0 
C -1.5 0.397805 -1.341951 0.77937 -1.06066 1.06066 
C -0.77937 1.341951 -0.397805 1.5 0 1.5 
z
" id="mffd26d8e84" style="stroke:#ffa500;"/>
    </defs>
    <g>
     <use style="fill:#ffa500;stroke:#ffa500;" x="186.437583" xlink:href="#mffd26d8e84" y="34.768147"/>
     <use style="fill:#ffa500;stroke:#ffa500;" x="186.437583" xlink:href="#mffd26d8e84" y="34.768147"/>
    </g>
   </g>
   <g id="line2d_34">
    <path d="M 114.284085 298.245375 
L 114.284085 297.728753 
L 117.305161 297.728753 
L 117.305161 297.212131 
L 119.30648 297.212131 
L 119.30648 296.695509 
L 119.888555 296.695509 
L 119.888555 296.178887 
L 120.672861 296.178887 
L 120.672861 295.145643 
L 121.63317 295.145643 
L 121.63317 294.112399 
L 125.537024 294.112399 
L 125.537024 293.595777 
L 127.133452 293.595777 
L 127.133452 293.079155 
L 127.436309 293.079155 
L 127.436309 292.562533 
L 127.585834 292.562533 
L 127.585834 291.529289 
L 129.624094 291.529289 
L 129.624094 291.012667 
L 130.781427 291.012667 
L 130.781427 290.496045 
L 130.905511 290.496045 
L 130.905511 289.979423 
L 133.276002 289.979423 
L 133.276002 289.462801 
L 133.651059 289.462801 
L 133.651059 288.429557 
L 134.429184 288.429557 
L 134.479874 287.396313 
L 136.260944 287.396313 
L 136.260944 286.363069 
L 136.488566 286.363069 
L 136.488566 285.846447 
L 136.668599 285.846447 
L 136.668599 284.296581 
L 140.008255 284.296581 
L 140.008255 283.263337 
L 140.339496 283.263337 
L 140.339496 282.746715 
L 140.984107 282.746715 
L 140.984107 282.230093 
L 141.12425 282.230093 
L 141.22864 280.680226 
L 141.606271 280.680226 
L 141.606271 279.646982 
L 142.009328 279.646982 
L 142.009328 279.13036 
L 142.273069 279.13036 
L 142.273069 278.613738 
L 142.978903 278.613738 
L 143.041708 277.580494 
L 143.166661 277.580494 
L 143.197763 276.030628 
L 143.352466 276.030628 
L 143.352466 275.514006 
L 144.572912 275.514006 
L 144.572912 274.997384 
L 144.943101 274.997384 
L 144.943101 273.96414 
L 145.055479 273.96414 
L 145.055479 272.930896 
L 145.167155 272.930896 
L 145.167155 272.414274 
L 145.44333 272.414274 
L 145.44333 271.897652 
L 145.634143 271.897652 
L 145.634143 270.864408 
L 145.796091 270.864408 
L 145.796091 270.347786 
L 146.115648 270.347786 
L 146.115648 269.831164 
L 146.533025 269.831164 
L 146.533025 269.314542 
L 147.166263 269.314542 
L 147.166263 268.281298 
L 147.486886 268.281298 
L 147.486886 267.248054 
L 147.729663 267.248054 
L 147.825858 265.698188 
L 148.53127 265.698188 
L 148.600303 264.664944 
L 149.008995 264.664944 
L 149.07621 263.6317 
L 149.16544 263.6317 
L 149.16544 263.115078 
L 150.2238 263.115078 
L 150.2238 262.081834 
L 150.349191 262.081834 
L 150.349191 260.531968 
L 150.535643 260.531968 
L 150.535643 260.015346 
L 150.943143 260.015346 
L 150.943143 259.498724 
L 151.595842 259.498724 
L 151.595842 258.46548 
L 152.131543 258.46548 
L 152.131543 257.948858 
L 152.319038 257.948858 
L 152.319038 256.915614 
L 153.316503 256.915614 
L 153.316503 255.365748 
L 153.43955 255.365748 
L 153.457059 253.29926 
L 153.631214 253.29926 
L 153.700403 250.71615 
L 153.855106 250.71615 
L 153.855106 250.199528 
L 154.160552 250.199528 
L 154.160552 248.649662 
L 154.559856 248.649662 
L 154.559856 248.13304 
L 154.821186 248.13304 
L 154.821186 247.099796 
L 155.126631 247.099796 
L 155.126631 245.549929 
L 155.50514 245.549929 
L 155.520739 241.933575 
L 155.860506 241.933575 
L 155.860506 240.900331 
L 156.565424 240.900331 
L 156.565424 240.383709 
L 156.75559 240.383709 
L 156.75559 239.867087 
L 157.087158 239.867087 
L 157.087158 238.833843 
L 157.215245 238.833843 
L 157.215245 237.800599 
L 157.524536 237.800599 
L 157.524536 236.767355 
L 157.69101 236.767355 
L 157.69101 235.217489 
L 158.005815 235.217489 
L 158.005815 234.700867 
L 158.140975 234.700867 
L 158.140975 234.184245 
L 158.394997 234.184245 
L 158.394997 233.667623 
L 158.606144 233.667623 
L 158.697742 231.601135 
L 158.892456 231.601135 
L 158.892456 231.084513 
L 159.072295 231.084513 
L 159.174253 229.534647 
L 159.823167 229.534647 
L 159.84766 228.501403 
L 160.102837 228.501403 
L 160.102837 227.984781 
L 160.378197 227.984781 
L 160.378197 227.468159 
L 160.543753 227.468159 
L 160.543753 226.951537 
L 160.707789 226.951537 
L 160.789246 224.885049 
L 160.962556 224.885049 
L 160.962556 223.851805 
L 161.383002 223.851805 
L 161.439067 221.785317 
L 161.528408 221.785317 
L 161.528408 220.752073 
L 161.650527 220.752073 
L 161.727806 219.718829 
L 161.968532 219.718829 
L 162.033625 218.168963 
L 162.130823 218.168963 
L 162.14159 217.135719 
L 162.291653 217.135719 
L 162.291653 216.619097 
L 162.858942 216.619097 
L 162.858942 216.102475 
L 163.115599 216.102475 
L 163.125789 214.035987 
L 163.308222 214.035987 
L 163.308222 213.002743 
L 163.48881 213.002743 
L 163.48881 212.48612 
L 163.608197 212.48612 
L 163.608197 211.969498 
L 163.854386 211.969498 
L 163.854386 211.452876 
L 164.077923 211.452876 
L 164.077923 210.419632 
L 164.241366 210.419632 
L 164.308234 207.836522 
L 164.374853 207.836522 
L 164.374853 206.803278 
L 164.601393 206.803278 
L 164.601393 206.286656 
L 164.722914 206.286656 
L 164.788007 204.220168 
L 164.852864 204.220168 
L 164.880588 203.186924 
L 164.991056 203.186924 
L 164.991056 202.670302 
L 165.191824 202.670302 
L 165.23714 200.603814 
L 165.309407 200.603814 
L 165.327429 199.57057 
L 165.426222 199.57057 
L 165.426222 199.053948 
L 165.868525 199.053948 
L 165.912159 196.470838 
L 165.981752 196.470838 
L 166.068365 195.437594 
L 166.180337 195.437594 
L 166.231781 193.371106 
L 166.419151 193.371106 
L 166.419151 192.854484 
L 166.671529 192.854484 
L 166.671529 192.337862 
L 166.870897 192.337862 
L 166.870897 191.82124 
L 167.059892 191.82124 
L 167.125164 187.171642 
L 167.423982 187.171642 
L 167.447993 186.138398 
L 167.543716 186.138398 
L 167.575509 185.105154 
L 167.670553 185.105154 
L 167.765093 184.07191 
L 167.890374 184.07191 
L 167.952687 181.4888 
L 168.261031 181.4888 
L 168.352506 179.422312 
L 168.451079 179.422312 
L 168.503932 177.872445 
L 168.616665 177.872445 
L 168.616665 176.839201 
L 168.86959 176.839201 
L 168.980046 174.772713 
L 169.060616 174.772713 
L 169.060616 174.256091 
L 169.206182 174.256091 
L 169.300168 172.706225 
L 169.66418 172.706225 
L 169.762822 170.123115 
L 169.790905 170.123115 
L 169.790905 169.606493 
L 169.965434 169.606493 
L 170.000136 167.023383 
L 170.179509 167.023383 
L 170.179509 166.506761 
L 170.329892 166.506761 
L 170.329892 165.990139 
L 170.553119 165.990139 
L 170.573275 164.956895 
L 170.673714 164.956895 
L 170.673714 164.440273 
L 170.879517 164.440273 
L 170.879517 162.890407 
L 171.004492 162.890407 
L 171.004492 161.857163 
L 171.154618 161.857163 
L 171.154618 161.340541 
L 171.303493 161.340541 
L 171.406331 159.274053 
L 171.444743 159.274053 
L 171.483073 157.724187 
L 171.786788 157.724187 
L 171.830651 156.690943 
L 172.048368 156.690943 
L 172.116249 155.141077 
L 172.232894 155.141077 
L 172.263464 154.107833 
L 172.367013 154.107833 
L 172.451839 151.524723 
L 172.482037 151.524723 
L 172.58433 149.458235 
L 172.650209 149.458235 
L 172.650209 148.941613 
L 172.858222 148.941613 
L 172.923101 146.875125 
L 173.069682 146.875125 
L 173.180284 143.25877 
L 173.203482 143.25877 
L 173.278668 141.708904 
L 173.376512 141.708904 
L 173.468115 140.159038 
L 173.587634 140.159038 
L 173.678163 137.575928 
L 173.779463 137.575928 
L 173.785074 135.50944 
L 173.896925 135.50944 
L 173.974806 133.959574 
L 174.129557 133.959574 
L 174.129557 133.442952 
L 174.29934 133.442952 
L 174.29934 132.92633 
L 174.451317 132.92633 
L 174.505283 131.893086 
L 174.612729 131.893086 
L 174.612729 131.376464 
L 174.793916 131.376464 
L 174.857428 129.309976 
L 174.920716 129.309976 
L 175.030932 127.243488 
L 175.036163 127.243488 
L 175.072741 125.693622 
L 175.239006 125.693622 
L 175.239006 125.177 
L 175.367832 125.177 
L 175.454906 124.143756 
L 175.495736 124.143756 
L 175.58219 120.527402 
L 175.703536 120.527402 
L 175.809042 118.977536 
L 175.844073 118.977536 
L 175.923886 117.42767 
L 175.968625 117.42767 
L 175.968625 116.911048 
L 176.185749 116.911048 
L 176.259169 113.294694 
L 176.337154 113.294694 
L 176.438994 111.744828 
L 176.487286 111.744828 
L 176.583481 108.645095 
L 176.688701 108.645095 
L 176.688701 107.095229 
L 176.802783 107.095229 
L 176.906723 103.995497 
L 176.991317 103.995497 
L 177.080178 101.929009 
L 177.191796 101.929009 
L 177.261205 99.345899 
L 177.517975 99.345899 
L 177.590665 98.312655 
L 177.681114 98.312655 
L 177.766618 97.279411 
L 177.815934 97.279411 
L 177.833833 93.146435 
L 178.04724 93.146435 
L 178.148601 90.563325 
L 178.323522 90.563325 
L 178.427659 87.980215 
L 178.479501 87.980215 
L 178.539794 85.913727 
L 178.591312 85.913727 
L 178.604168 84.363861 
L 178.740729 84.363861 
L 178.825553 83.330617 
L 178.947837 83.330617 
L 179.027502 80.230885 
L 179.102649 80.230885 
L 179.127627 77.647775 
L 179.239602 77.647775 
L 179.239602 77.131153 
L 179.52261 77.131153 
L 179.575432 76.097908 
L 179.704795 76.097908 
L 179.81322 74.548042 
L 179.825227 74.548042 
L 179.825227 74.03142 
L 179.944854 74.03142 
L 180.012288 72.998176 
L 180.154256 72.998176 
L 180.248278 69.898444 
L 180.368996 69.898444 
L 180.368996 69.381822 
L 180.500465 69.381822 
L 180.59652 67.831956 
L 180.775717 67.831956 
L 180.862759 66.28209 
L 180.889166 66.28209 
L 180.889166 65.765468 
L 181.013133 65.765468 
L 181.061734 64.732224 
L 181.162253 64.732224 
L 181.258517 62.665736 
L 181.3175 62.665736 
L 181.3175 62.149114 
L 181.58054 62.149114 
L 181.663757 60.599248 
L 181.735806 60.599248 
L 181.803984 59.049382 
L 181.900424 59.049382 
L 181.94312 58.016138 
L 182.017592 58.016138 
L 182.088231 56.982894 
L 182.169123 56.982894 
L 182.253142 54.399784 
L 182.295004 54.399784 
L 182.326336 52.849918 
L 182.478731 52.849918 
L 182.5063 50.266808 
L 182.616152 50.266808 
L 182.711722 47.683698 
L 182.796622 47.683698 
L 182.90471 46.650454 
L 182.958509 46.650454 
L 182.971934 45.100588 
L 183.092303 45.100588 
L 183.092303 44.067344 
L 183.445355 44.067344 
L 183.491036 43.0341 
L 183.75307 43.0341 
L 183.75307 42.517478 
L 183.897001 42.517478 
L 183.932008 40.450989 
L 184.023973 40.450989 
L 184.080818 38.901123 
L 184.559901 38.901123 
L 184.559901 38.384501 
L 184.915482 38.384501 
L 184.915482 37.867879 
L 185.17241 37.867879 
L 185.193161 36.834635 
L 185.320106 36.834635 
L 185.320106 36.318013 
L 185.97854 36.318013 
L 185.97854 35.284769 
L 186.437583 35.284769 
L 186.437583 34.768147 
L 358.8 34.768147 
L 358.8 34.768147 
" style="fill:none;stroke:#ffa500;stroke-linecap:square;stroke-width:1.5;"/>
   </g>
   <g id="line2d_35">
    <defs>
     <path d="M 0 -6 
L -1.347084 -1.854102 
L -5.706339 -1.854102 
L -2.179628 0.708204 
L -3.526712 4.854102 
L -0 2.291796 
L 3.526712 4.854102 
L 2.179628 0.708204 
L 5.706339 -1.854102 
L 1.347084 -1.854102 
z
" id="mb09fc760db" style="stroke:#ffa500;stroke-linejoin:bevel;stroke-width:1.5;"/>
    </defs>
    <g>
     <use style="fill:none;stroke:#ffa500;stroke-linejoin:bevel;stroke-width:1.5;" x="143.197763" xlink:href="#mb09fc760db" y="277.063872"/>
     <use style="fill:none;stroke:#ffa500;stroke-linejoin:bevel;stroke-width:1.5;" x="175.072741" xlink:href="#mb09fc760db" y="125.693622"/>
     <use style="fill:none;stroke:#ffa500;stroke-linejoin:bevel;stroke-width:1.5;" x="186.437583" xlink:href="#mb09fc760db" y="35.284769"/>
     <use style="fill:none;stroke:#ffa500;stroke-linejoin:bevel;stroke-width:1.5;" x="186.437583" xlink:href="#mb09fc760db" y="34.768147"/>
     <use style="fill:none;stroke:#ffa500;stroke-linejoin:bevel;stroke-width:1.5;" x="358.8" xlink:href="#mb09fc760db" y="34.768147"/>
    </g>
   </g>
   <g id="line2d_36"/>
   <g id="line2d_37">
    <defs>
     <path d="M 0 1.5 
C 0.397805 1.5 0.77937 1.341951 1.06066 1.06066 
C 1.341951 0.77937 1.5 0.397805 1.5 0 
C 1.5 -0.397805 1.341951 -0.77937 1.06066 -1.06066 
C 0.77937 -1.341951 0.397805 -1.5 0 -1.5 
C -0.397805 -1.5 -0.77937 -1.341951 -1.06066 -1.06066 
C -1.341951 -0.77937 -1.5 -0.397805 -1.5 0 
C -1.5 0.397805 -1.341951 0.77937 -1.06066 1.06066 
C -0.77937 1.341951 -0.397805 1.5 0 1.5 
z
" id="m096db755d4" style="stroke:#6495ed;"/>
    </defs>
    <g>
     <use style="fill:#6495ed;stroke:#6495ed;" x="279.054865" xlink:href="#m096db755d4" y="236.250733"/>
     <use style="fill:#6495ed;stroke:#6495ed;" x="279.054865" xlink:href="#m096db755d4" y="236.250733"/>
    </g>
   </g>
   <g id="line2d_38">
    <path d="M 92.666561 298.245375 
L 92.666561 297.728753 
L 101.582593 297.728753 
L 101.582593 296.695509 
L 103.687154 296.695509 
L 103.687154 295.662265 
L 106.319569 295.662265 
L 106.319569 294.112399 
L 109.658716 294.112399 
L 109.658716 293.595777 
L 113.48269 293.595777 
L 113.48269 293.079155 
L 114.748218 293.079155 
L 114.748218 292.562533 
L 115.051075 292.562533 
L 115.051075 292.045911 
L 116.353782 292.045911 
L 116.353782 291.012667 
L 116.767733 291.012667 
L 116.767733 289.979423 
L 117.826895 289.979423 
L 117.826895 289.462801 
L 118.082158 289.462801 
L 118.082158 288.946179 
L 118.208435 288.946179 
L 118.208435 288.429557 
L 119.424422 288.429557 
L 119.424422 287.396313 
L 120.340936 287.396313 
L 120.340936 285.846447 
L 120.562903 285.846447 
L 120.562903 284.813203 
L 121.318767 284.813203 
L 121.424184 283.263337 
L 122.838219 283.263337 
L 122.935065 282.230093 
L 123.127198 282.230093 
L 123.127198 281.713471 
L 125.028891 281.713471 
L 125.028891 280.680226 
L 126.825374 280.680226 
L 126.825374 279.646982 
L 127.585834 279.646982 
L 127.585834 279.13036 
L 128.099532 279.13036 
L 128.171726 276.54725 
L 128.457622 276.54725 
L 128.457622 275.514006 
L 128.669082 275.514006 
L 128.669082 274.997384 
L 129.288847 274.997384 
L 129.288847 274.480762 
L 130.467392 274.480762 
L 130.467392 273.96414 
L 131.02874 273.96414 
L 131.090037 272.930896 
L 131.572989 272.930896 
L 131.572989 272.414274 
L 131.985122 272.414274 
L 131.985122 271.897652 
L 132.216427 271.897652 
L 132.216427 271.38103 
L 132.781921 271.38103 
L 132.781921 270.864408 
L 133.276002 270.864408 
L 133.276002 269.831164 
L 133.914217 269.831164 
L 133.966387 268.281298 
L 134.429184 268.281298 
L 134.429184 267.248054 
L 135.890607 267.248054 
L 135.890607 266.731432 
L 136.713325 266.731432 
L 136.802443 265.698188 
L 137.499824 265.698188 
L 137.499824 265.181566 
L 141.366886 265.181566 
L 141.366886 264.664944 
L 143.197763 264.664944 
L 143.197763 264.148322 
L 143.566825 264.148322 
L 143.566825 263.115078 
L 144.687635 263.115078 
L 144.687635 262.598456 
L 146.089235 262.598456 
L 146.089235 261.565212 
L 147.632948 261.565212 
L 147.632948 261.04859 
L 147.753761 261.04859 
L 147.753761 260.531968 
L 150.307492 260.531968 
L 150.307492 260.015346 
L 210.094251 260.015346 
L 210.188851 256.398992 
L 210.269125 256.398992 
L 210.3686 254.332504 
L 210.409103 254.332504 
L 210.498461 251.232772 
L 210.587375 251.232772 
L 210.587375 250.199528 
L 222.389554 250.199528 
L 222.406543 249.166284 
L 222.531614 249.166284 
L 222.573354 248.13304 
L 229.713595 248.13304 
L 229.713595 247.099796 
L 234.72039 247.099796 
L 234.824232 244.516685 
L 238.718734 244.516685 
L 238.718734 244.000063 
L 244.705527 244.000063 
L 244.745964 242.450197 
L 247.096912 242.450197 
L 247.096912 241.933575 
L 251.070305 241.933575 
L 251.078763 240.900331 
L 252.767636 240.900331 
L 252.767636 240.383709 
L 254.318248 240.383709 
L 254.318248 239.867087 
L 255.759139 239.867087 
L 255.759139 239.350465 
L 258.296836 239.350465 
L 258.296836 238.317221 
L 259.447721 238.317221 
L 259.447721 237.800599 
L 263.427611 237.800599 
L 263.427611 237.283977 
L 274.883634 237.283977 
L 274.883634 236.767355 
L 279.054865 236.767355 
L 279.054865 236.250733 
L 358.8 236.250733 
L 358.8 236.250733 
" style="fill:none;stroke:#6495ed;stroke-linecap:square;stroke-width:1.5;"/>
   </g>
   <g id="line2d_39">
    <defs>
     <path d="M -0 6 
L 6 -6 
L -6 -6 
z
" id="mfbbca0a078" style="stroke:#6495ed;stroke-linejoin:miter;stroke-width:1.5;"/>
    </defs>
    <g>
     <use style="fill:none;stroke:#6495ed;stroke-linejoin:miter;stroke-width:1.5;" x="150.307492" xlink:href="#mfbbca0a078" y="260.531968"/>
     <use style="fill:none;stroke:#6495ed;stroke-linejoin:miter;stroke-width:1.5;" x="234.824232" xlink:href="#mfbbca0a078" y="244.516685"/>
     <use style="fill:none;stroke:#6495ed;stroke-linejoin:miter;stroke-width:1.5;" x="279.054865" xlink:href="#mfbbca0a078" y="236.250733"/>
     <use style="fill:none;stroke:#6495ed;stroke-linejoin:miter;stroke-width:1.5;" x="279.054865" xlink:href="#mfbbca0a078" y="236.250733"/>
     <use style="fill:none;stroke:#6495ed;stroke-linejoin:miter;stroke-width:1.5;" x="358.8" xlink:href="#mfbbca0a078" y="236.250733"/>
    </g>
   </g>
   <g id="line2d_40"/>
   <g id="line2d_41">
    <path clip-path="url(#p73904f5836)" d="M 209.872293 260.015346 
" style="fill:none;stroke:#6495ed;stroke-linecap:square;stroke-width:1.5;"/>
    <defs>
     <path d="M -12 12 
L 12 -12 
M -12 -12 
L 12 12 
" id="m173c9fb828" style="stroke:#6495ed;stroke-width:3;"/>
    </defs>
    <g clip-path="url(#p73904f5836)">
     <use style="fill:#6495ed;stroke:#6495ed;stroke-width:3;" x="209.872293" xlink:href="#m173c9fb828" y="260.015346"/>
    </g>
   </g>
   <g id="line2d_42">
    <path d="M 358.8 236.250733 
L 390.48 292.97583 
" style="fill:none;stroke:#6495ed;stroke-linecap:square;stroke-width:1.5;"/>
    <g>
     <use style="fill:none;stroke:#6495ed;stroke-linejoin:miter;stroke-width:1.5;" x="358.8" xlink:href="#mfbbca0a078" y="236.250733"/>
     <use style="fill:none;stroke:#6495ed;stroke-linejoin:miter;stroke-width:1.5;" x="390.48" xlink:href="#mfbbca0a078" y="292.97583"/>
    </g>
   </g>
   <g id="line2d_43">
    <path d="M 358.8 200.087192 
L 390.48 208.663118 
" style="fill:none;stroke:#ff00ff;stroke-linecap:square;stroke-width:1.5;"/>
    <g>
     <use style="fill:none;stroke:#ff00ff;stroke-linejoin:miter;stroke-width:1.5;" x="358.8" xlink:href="#mc2c48574be" y="200.087192"/>
     <use style="fill:none;stroke:#ff00ff;stroke-linejoin:miter;stroke-width:1.5;" x="390.48" xlink:href="#mc2c48574be" y="208.663118"/>
    </g>
   </g>
   <g id="line2d_44">
    <path d="M 358.8 143.25877 
L 390.48 124.350405 
" style="fill:none;stroke:#000080;stroke-linecap:square;stroke-width:1.5;"/>
    <g>
     <use style="fill:none;stroke:#000080;stroke-width:1.5;" x="358.8" xlink:href="#m5c05984633" y="143.25877"/>
     <use style="fill:none;stroke:#000080;stroke-width:1.5;" x="390.48" xlink:href="#m5c05984633" y="124.350405"/>
    </g>
   </g>
   <g id="line2d_45">
    <path d="M 358.8 34.768147 
L 390.48 40.037692 
" style="fill:none;stroke:#ffa500;stroke-linecap:square;stroke-width:1.5;"/>
    <g>
     <use style="fill:none;stroke:#ffa500;stroke-linejoin:bevel;stroke-width:1.5;" x="358.8" xlink:href="#mb09fc760db" y="34.768147"/>
     <use style="fill:none;stroke:#ffa500;stroke-linejoin:bevel;stroke-width:1.5;" x="390.48" xlink:href="#mb09fc760db" y="40.037692"/>
    </g>
   </g>
   <g id="line2d_46">
    <path d="M 358.8 298.245375 
L 358.8 34.768147 
" style="fill:none;stroke:#000000;stroke-linecap:square;stroke-width:1.5;"/>
   </g>
   <g id="patch_3">
    <path d="M 70.8 298.245375 
L 70.8 32.133375 
" style="fill:none;stroke:#000000;stroke-linecap:square;stroke-linejoin:miter;stroke-width:0.8;"/>
   </g>
   <g id="patch_4">
    <path d="M 427.92 298.245375 
L 427.92 32.133375 
" style="fill:none;stroke:#000000;stroke-linecap:square;stroke-linejoin:miter;stroke-width:0.8;"/>
   </g>
   <g id="patch_5">
    <path d="M 70.8 298.245375 
L 427.92 298.245375 
" style="fill:none;stroke:#000000;stroke-linecap:square;stroke-linejoin:miter;stroke-width:0.8;"/>
   </g>
   <g id="patch_6">
    <path d="M 70.8 32.133375 
L 427.92 32.133375 
" style="fill:none;stroke:#000000;stroke-linecap:square;stroke-linejoin:miter;stroke-width:0.8;"/>
   </g>
   <g id="text_14">
    <!-- f7 -->
    <defs>
     <path d="M 8.203125 72.90625 
L 55.078125 72.90625 
L 55.078125 68.703125 
L 28.609375 0 
L 18.3125 0 
L 43.21875 64.59375 
L 8.203125 64.59375 
z
" id="DejaVuSans-37"/>
    </defs>
    <g transform="translate(396.24 297.114893)scale(0.15 -0.15)">
     <use xlink:href="#DejaVuSans-66"/>
     <use x="35.205078" xlink:href="#DejaVuSans-37"/>
    </g>
   </g>
   <g id="text_15">
    <!-- f9 -->
    <defs>
     <path d="M 10.984375 1.515625 
L 10.984375 10.5 
Q 14.703125 8.734375 18.5 7.8125 
Q 22.3125 6.890625 25.984375 6.890625 
Q 35.75 6.890625 40.890625 13.453125 
Q 46.046875 20.015625 46.78125 33.40625 
Q 43.953125 29.203125 39.59375 26.953125 
Q 35.25 24.703125 29.984375 24.703125 
Q 19.046875 24.703125 12.671875 31.3125 
Q 6.296875 37.9375 6.296875 49.421875 
Q 6.296875 60.640625 12.9375 67.421875 
Q 19.578125 74.21875 30.609375 74.21875 
Q 43.265625 74.21875 49.921875 64.515625 
Q 56.59375 54.828125 56.59375 36.375 
Q 56.59375 19.140625 48.40625 8.859375 
Q 40.234375 -1.421875 26.421875 -1.421875 
Q 22.703125 -1.421875 18.890625 -0.6875 
Q 15.09375 0.046875 10.984375 1.515625 
z
M 30.609375 32.421875 
Q 37.25 32.421875 41.125 36.953125 
Q 45.015625 41.5 45.015625 49.421875 
Q 45.015625 57.28125 41.125 61.84375 
Q 37.25 66.40625 30.609375 66.40625 
Q 23.96875 66.40625 20.09375 61.84375 
Q 16.21875 57.28125 16.21875 49.421875 
Q 16.21875 41.5 20.09375 36.953125 
Q 23.96875 32.421875 30.609375 32.421875 
z
" id="DejaVuSans-39"/>
    </defs>
    <g transform="translate(396.24 212.80218)scale(0.15 -0.15)">
     <use xlink:href="#DejaVuSans-66"/>
     <use x="35.205078" xlink:href="#DejaVuSans-39"/>
    </g>
   </g>
   <g id="text_16">
    <!-- f8 -->
    <g transform="translate(396.24 128.489467)scale(0.15 -0.15)">
     <use xlink:href="#DejaVuSans-66"/>
     <use x="35.205078" xlink:href="#DejaVuSans-38"/>
    </g>
   </g>
   <g id="text_17">
    <!-- f6 -->
    <g transform="translate(396.24 44.176754)scale(0.15 -0.15)">
     <use xlink:href="#DejaVuSans-66"/>
     <use x="35.205078" xlink:href="#DejaVuSans-36"/>
    </g>
   </g>
   <g id="text_18">
    <!-- bbob -->
    <defs>
     <path d="M 48.6875 27.296875 
Q 48.6875 37.203125 44.609375 42.84375 
Q 40.53125 48.484375 33.40625 48.484375 
Q 26.265625 48.484375 22.1875 42.84375 
Q 18.109375 37.203125 18.109375 27.296875 
Q 18.109375 17.390625 22.1875 11.75 
Q 26.265625 6.109375 33.40625 6.109375 
Q 40.53125 6.109375 44.609375 11.75 
Q 48.6875 17.390625 48.6875 27.296875 
z
M 18.109375 46.390625 
Q 20.953125 51.265625 25.265625 53.625 
Q 29.59375 56 35.59375 56 
Q 45.5625 56 51.78125 48.09375 
Q 58.015625 40.1875 58.015625 27.296875 
Q 58.015625 14.40625 51.78125 6.484375 
Q 45.5625 -1.421875 35.59375 -1.421875 
Q 29.59375 -1.421875 25.265625 0.953125 
Q 20.953125 3.328125 18.109375 8.203125 
L 18.109375 0 
L 9.078125 0 
L 9.078125 75.984375 
L 18.109375 75.984375 
z
" id="DejaVuSans-62"/>
    </defs>
    <g transform="translate(74.3712 50.114612)scale(0.1666 -0.1666)">
     <use xlink:href="#DejaVuSans-62"/>
     <use x="63.476562" xlink:href="#DejaVuSans-62"/>
     <use x="126.953125" xlink:href="#DejaVuSans-6f"/>
     <use x="188.134766" xlink:href="#DejaVuSans-62"/>
    </g>
    <!-- Misc. moderate functions, 10-D -->
    <defs>
     <path d="M 9.8125 72.90625 
L 24.515625 72.90625 
L 43.109375 23.296875 
L 61.8125 72.90625 
L 76.515625 72.90625 
L 76.515625 0 
L 66.890625 0 
L 66.890625 64.015625 
L 48.09375 14.015625 
L 38.1875 14.015625 
L 19.390625 64.015625 
L 19.390625 0 
L 9.8125 0 
z
" id="DejaVuSans-4d"/>
     <path d="M 11.71875 12.40625 
L 22.015625 12.40625 
L 22.015625 4 
L 14.015625 -11.625 
L 7.71875 -11.625 
L 11.71875 4 
z
" id="DejaVuSans-2c"/>
     <path d="M 19.671875 64.796875 
L 19.671875 8.109375 
L 31.59375 8.109375 
Q 46.6875 8.109375 53.6875 14.9375 
Q 60.6875 21.78125 60.6875 36.53125 
Q 60.6875 51.171875 53.6875 57.984375 
Q 46.6875 64.796875 31.59375 64.796875 
z
M 9.8125 72.90625 
L 30.078125 72.90625 
Q 51.265625 72.90625 61.171875 64.09375 
Q 71.09375 55.28125 71.09375 36.53125 
Q 71.09375 17.671875 61.125 8.828125 
Q 51.171875 0 30.078125 0 
L 9.8125 0 
z
" id="DejaVuSans-44"/>
    </defs>
    <g transform="translate(74.3712 68.770168)scale(0.1666 -0.1666)">
     <use xlink:href="#DejaVuSans-4d"/>
     <use x="86.279297" xlink:href="#DejaVuSans-69"/>
     <use x="114.0625" xlink:href="#DejaVuSans-73"/>
     <use x="166.162109" xlink:href="#DejaVuSans-63"/>
     <use x="221.142578" xlink:href="#DejaVuSans-2e"/>
     <use x="252.929688" xlink:href="#DejaVuSans-20"/>
     <use x="284.716797" xlink:href="#DejaVuSans-6d"/>
     <use x="382.128906" xlink:href="#DejaVuSans-6f"/>
     <use x="443.310547" xlink:href="#DejaVuSans-64"/>
     <use x="506.787109" xlink:href="#DejaVuSans-65"/>
     <use x="568.310547" xlink:href="#DejaVuSans-72"/>
     <use x="609.423828" xlink:href="#DejaVuSans-61"/>
     <use x="670.703125" xlink:href="#DejaVuSans-74"/>
     <use x="709.912109" xlink:href="#DejaVuSans-65"/>
     <use x="771.435547" xlink:href="#DejaVuSans-20"/>
     <use x="803.222656" xlink:href="#DejaVuSans-66"/>
     <use x="838.427734" xlink:href="#DejaVuSans-75"/>
     <use x="901.806641" xlink:href="#DejaVuSans-6e"/>
     <use x="965.185547" xlink:href="#DejaVuSans-63"/>
     <use x="1020.166016" xlink:href="#DejaVuSans-74"/>
     <use x="1059.375" xlink:href="#DejaVuSans-69"/>
     <use x="1087.158203" xlink:href="#DejaVuSans-6f"/>
     <use x="1148.339844" xlink:href="#DejaVuSans-6e"/>
     <use x="1211.71875" xlink:href="#DejaVuSans-73"/>
     <use x="1263.818359" xlink:href="#DejaVuSans-2c"/>
     <use x="1295.605469" xlink:href="#DejaVuSans-20"/>
     <use x="1327.392578" xlink:href="#DejaVuSans-31"/>
     <use x="1391.015625" xlink:href="#DejaVuSans-30"/>
     <use x="1454.638672" xlink:href="#DejaVuSans-2d"/>
     <use x="1490.722656" xlink:href="#DejaVuSans-44"/>
    </g>
    <!-- 51 targets in 100..1e-08 -->
    <defs>
     <path d="M 10.796875 72.90625 
L 49.515625 72.90625 
L 49.515625 64.59375 
L 19.828125 64.59375 
L 19.828125 46.734375 
Q 21.96875 47.46875 24.109375 47.828125 
Q 26.265625 48.1875 28.421875 48.1875 
Q 40.625 48.1875 47.75 41.5 
Q 54.890625 34.8125 54.890625 23.390625 
Q 54.890625 11.625 47.5625 5.09375 
Q 40.234375 -1.421875 26.90625 -1.421875 
Q 22.3125 -1.421875 17.546875 -0.640625 
Q 12.796875 0.140625 7.71875 1.703125 
L 7.71875 11.625 
Q 12.109375 9.234375 16.796875 8.0625 
Q 21.484375 6.890625 26.703125 6.890625 
Q 35.15625 6.890625 40.078125 11.328125 
Q 45.015625 15.765625 45.015625 23.390625 
Q 45.015625 31 40.078125 35.4375 
Q 35.15625 39.890625 26.703125 39.890625 
Q 22.75 39.890625 18.8125 39.015625 
Q 14.890625 38.140625 10.796875 36.28125 
z
" id="DejaVuSans-35"/>
    </defs>
    <g transform="translate(74.3712 87.425723)scale(0.1666 -0.1666)">
     <use xlink:href="#DejaVuSans-35"/>
     <use x="63.623047" xlink:href="#DejaVuSans-31"/>
     <use x="127.246094" xlink:href="#DejaVuSans-20"/>
     <use x="159.033203" xlink:href="#DejaVuSans-74"/>
     <use x="198.242188" xlink:href="#DejaVuSans-61"/>
     <use x="259.521484" xlink:href="#DejaVuSans-72"/>
     <use x="300.619141" xlink:href="#DejaVuSans-67"/>
     <use x="364.095703" xlink:href="#DejaVuSans-65"/>
     <use x="425.619141" xlink:href="#DejaVuSans-74"/>
     <use x="464.828125" xlink:href="#DejaVuSans-73"/>
     <use x="516.927734" xlink:href="#DejaVuSans-20"/>
     <use x="548.714844" xlink:href="#DejaVuSans-69"/>
     <use x="576.498047" xlink:href="#DejaVuSans-6e"/>
     <use x="639.876953" xlink:href="#DejaVuSans-20"/>
     <use x="671.664062" xlink:href="#DejaVuSans-31"/>
     <use x="735.287109" xlink:href="#DejaVuSans-30"/>
     <use x="798.910156" xlink:href="#DejaVuSans-30"/>
     <use x="862.533203" xlink:href="#DejaVuSans-2e"/>
     <use x="894.320312" xlink:href="#DejaVuSans-2e"/>
     <use x="926.107422" xlink:href="#DejaVuSans-31"/>
     <use x="989.730469" xlink:href="#DejaVuSans-65"/>
     <use x="1051.253906" xlink:href="#DejaVuSans-2d"/>
     <use x="1087.337891" xlink:href="#DejaVuSans-30"/>
     <use x="1150.960938" xlink:href="#DejaVuSans-38"/>
    </g>
    <!-- 15 instances -->
    <g transform="translate(74.3712 106.081279)scale(0.1666 -0.1666)">
     <use xlink:href="#DejaVuSans-31"/>
     <use x="63.623047" xlink:href="#DejaVuSans-35"/>
     <use x="127.246094" xlink:href="#DejaVuSans-20"/>
     <use x="159.033203" xlink:href="#DejaVuSans-69"/>
     <use x="186.816406" xlink:href="#DejaVuSans-6e"/>
     <use x="250.195312" xlink:href="#DejaVuSans-73"/>
     <use x="302.294922" xlink:href="#DejaVuSans-74"/>
     <use x="341.503906" xlink:href="#DejaVuSans-61"/>
     <use x="402.783203" xlink:href="#DejaVuSans-6e"/>
     <use x="466.162109" xlink:href="#DejaVuSans-63"/>
     <use x="521.142578" xlink:href="#DejaVuSans-65"/>
     <use x="582.666016" xlink:href="#DejaVuSans-73"/>
    </g>
   </g>
   <g id="text_19">
    <!-- v2.1 -->
    <g style="fill:#808080;" transform="translate(238.449063 293.504568)scale(0.1 -0.1)">
     <use xlink:href="#DejaVuSans-76"/>
     <use x="59.179688" xlink:href="#DejaVuSans-32"/>
     <use x="122.802734" xlink:href="#DejaVuSans-2e"/>
     <use x="154.589844" xlink:href="#DejaVuSans-31"/>
    </g>
   </g>
  </g>
 </g>
 <defs>
  <clipPath id="p73904f5836">
   <rect height="266.112" width="357.12" x="70.8" y="32.133375"/>
  </clipPath>
 </defs>
</svg>
