<?xml version="1.0" encoding="utf-8" standalone="no"?>
<!DOCTYPE svg PUBLIC "-//W3C//DTD SVG 1.1//EN"
  "http://www.w3.org/Graphics/SVG/1.1/DTD/svg11.dtd">
<!-- Created with matplotlib (http://matplotlib.org/) -->
<svg height="353pt" version="1.1" viewBox="0 0 438 353" width="438pt" xmlns="http://www.w3.org/2000/svg" xmlns:xlink="http://www.w3.org/1999/xlink">
 <defs>
  <style type="text/css">
*{stroke-linecap:butt;stroke-linejoin:round;}
  </style>
 </defs>
 <g id="figure_1">
  <g id="patch_1">
   <path d="M 0 353.22225 
L 438.62 353.22225 
L 438.62 0 
L 0 0 
z
" style="fill:#ffffff;"/>
  </g>
  <g id="axes_1">
   <g id="patch_2">
    <path d="M 70.8 298.245375 
L 427.92 298.245375 
L 427.92 32.133375 
L 70.8 32.133375 
z
" style="fill:#ffffff;"/>
   </g>
   <g id="matplotlib.axis_1">
    <g id="xtick_1">
     <g id="line2d_1">
      <path clip-path="url(#p8bea5ff292)" d="M 70.8 298.245375 
L 70.8 32.133375 
" style="fill:none;stroke:#b0b0b0;stroke-linecap:square;stroke-width:0.8;"/>
     </g>
     <g id="line2d_2">
      <defs>
       <path d="M 0 0 
L 0 3.5 
" id="m4606908f53" style="stroke:#000000;stroke-width:0.8;"/>
      </defs>
      <g>
       <use style="stroke:#000000;stroke-width:0.8;" x="70.8" xlink:href="#m4606908f53" y="298.245375"/>
      </g>
     </g>
     <g id="text_1">
      <!-- 0 -->
      <defs>
       <path d="M 31.78125 66.40625 
Q 24.171875 66.40625 20.328125 58.90625 
Q 16.5 51.421875 16.5 36.375 
Q 16.5 21.390625 20.328125 13.890625 
Q 24.171875 6.390625 31.78125 6.390625 
Q 39.453125 6.390625 43.28125 13.890625 
Q 47.125 21.390625 47.125 36.375 
Q 47.125 51.421875 43.28125 58.90625 
Q 39.453125 66.40625 31.78125 66.40625 
z
M 31.78125 74.21875 
Q 44.046875 74.21875 50.515625 64.515625 
Q 56.984375 54.828125 56.984375 36.375 
Q 56.984375 17.96875 50.515625 8.265625 
Q 44.046875 -1.421875 31.78125 -1.421875 
Q 19.53125 -1.421875 13.0625 8.265625 
Q 6.59375 17.96875 6.59375 36.375 
Q 6.59375 54.828125 13.0625 64.515625 
Q 19.53125 74.21875 31.78125 74.21875 
z
" id="DejaVuSans-30"/>
      </defs>
      <g transform="translate(64.4375 320.44225)scale(0.2 -0.2)">
       <use xlink:href="#DejaVuSans-30"/>
      </g>
     </g>
    </g>
    <g id="xtick_2">
     <g id="line2d_3">
      <path clip-path="url(#p8bea5ff292)" d="M 153.085714 298.245375 
L 153.085714 32.133375 
" style="fill:none;stroke:#b0b0b0;stroke-linecap:square;stroke-width:0.8;"/>
     </g>
     <g id="line2d_4">
      <g>
       <use style="stroke:#000000;stroke-width:0.8;" x="153.085714" xlink:href="#m4606908f53" y="298.245375"/>
      </g>
     </g>
     <g id="text_2">
      <!-- 2 -->
      <defs>
       <path d="M 19.1875 8.296875 
L 53.609375 8.296875 
L 53.609375 0 
L 7.328125 0 
L 7.328125 8.296875 
Q 12.9375 14.109375 22.625 23.890625 
Q 32.328125 33.6875 34.8125 36.53125 
Q 39.546875 41.84375 41.421875 45.53125 
Q 43.3125 49.21875 43.3125 52.78125 
Q 43.3125 58.59375 39.234375 62.25 
Q 35.15625 65.921875 28.609375 65.921875 
Q 23.96875 65.921875 18.8125 64.3125 
Q 13.671875 62.703125 7.8125 59.421875 
L 7.8125 69.390625 
Q 13.765625 71.78125 18.9375 73 
Q 24.125 74.21875 28.421875 74.21875 
Q 39.75 74.21875 46.484375 68.546875 
Q 53.21875 62.890625 53.21875 53.421875 
Q 53.21875 48.921875 51.53125 44.890625 
Q 49.859375 40.875 45.40625 35.40625 
Q 44.1875 33.984375 37.640625 27.21875 
Q 31.109375 20.453125 19.1875 8.296875 
z
" id="DejaVuSans-32"/>
      </defs>
      <g transform="translate(146.723214 320.44225)scale(0.2 -0.2)">
       <use xlink:href="#DejaVuSans-32"/>
      </g>
     </g>
    </g>
    <g id="xtick_3">
     <g id="line2d_5">
      <path clip-path="url(#p8bea5ff292)" d="M 235.371429 298.245375 
L 235.371429 32.133375 
" style="fill:none;stroke:#b0b0b0;stroke-linecap:square;stroke-width:0.8;"/>
     </g>
     <g id="line2d_6">
      <g>
       <use style="stroke:#000000;stroke-width:0.8;" x="235.371429" xlink:href="#m4606908f53" y="298.245375"/>
      </g>
     </g>
     <g id="text_3">
      <!-- 4 -->
      <defs>
       <path d="M 37.796875 64.3125 
L 12.890625 25.390625 
L 37.796875 25.390625 
z
M 35.203125 72.90625 
L 47.609375 72.90625 
L 47.609375 25.390625 
L 58.015625 25.390625 
L 58.015625 17.1875 
L 47.609375 17.1875 
L 47.609375 0 
L 37.796875 0 
L 37.796875 17.1875 
L 4.890625 17.1875 
L 4.890625 26.703125 
z
" id="DejaVuSans-34"/>
      </defs>
      <g transform="translate(229.008929 320.44225)scale(0.2 -0.2)">
       <use xlink:href="#DejaVuSans-34"/>
      </g>
     </g>
    </g>
    <g id="xtick_4">
     <g id="line2d_7">
      <path clip-path="url(#p8bea5ff292)" d="M 317.657143 298.245375 
L 317.657143 32.133375 
" style="fill:none;stroke:#b0b0b0;stroke-linecap:square;stroke-width:0.8;"/>
     </g>
     <g id="line2d_8">
      <g>
       <use style="stroke:#000000;stroke-width:0.8;" x="317.657143" xlink:href="#m4606908f53" y="298.245375"/>
      </g>
     </g>
     <g id="text_4">
      <!-- 6 -->
      <defs>
       <path d="M 33.015625 40.375 
Q 26.375 40.375 22.484375 35.828125 
Q 18.609375 31.296875 18.609375 23.390625 
Q 18.609375 15.53125 22.484375 10.953125 
Q 26.375 6.390625 33.015625 6.390625 
Q 39.65625 6.390625 43.53125 10.953125 
Q 47.40625 15.53125 47.40625 23.390625 
Q 47.40625 31.296875 43.53125 35.828125 
Q 39.65625 40.375 33.015625 40.375 
z
M 52.59375 71.296875 
L 52.59375 62.3125 
Q 48.875 64.0625 45.09375 64.984375 
Q 41.3125 65.921875 37.59375 65.921875 
Q 27.828125 65.921875 22.671875 59.328125 
Q 17.53125 52.734375 16.796875 39.40625 
Q 19.671875 43.65625 24.015625 45.921875 
Q 28.375 48.1875 33.59375 48.1875 
Q 44.578125 48.1875 50.953125 41.515625 
Q 57.328125 34.859375 57.328125 23.390625 
Q 57.328125 12.15625 50.6875 5.359375 
Q 44.046875 -1.421875 33.015625 -1.421875 
Q 20.359375 -1.421875 13.671875 8.265625 
Q 6.984375 17.96875 6.984375 36.375 
Q 6.984375 53.65625 15.1875 63.9375 
Q 23.390625 74.21875 37.203125 74.21875 
Q 40.921875 74.21875 44.703125 73.484375 
Q 48.484375 72.75 52.59375 71.296875 
z
" id="DejaVuSans-36"/>
      </defs>
      <g transform="translate(311.294643 320.44225)scale(0.2 -0.2)">
       <use xlink:href="#DejaVuSans-36"/>
      </g>
     </g>
    </g>
    <g id="xtick_5">
     <g id="line2d_9">
      <path clip-path="url(#p8bea5ff292)" d="M 399.942857 298.245375 
L 399.942857 32.133375 
" style="fill:none;stroke:#b0b0b0;stroke-linecap:square;stroke-width:0.8;"/>
     </g>
     <g id="line2d_10">
      <g>
       <use style="stroke:#000000;stroke-width:0.8;" x="399.942857" xlink:href="#m4606908f53" y="298.245375"/>
      </g>
     </g>
     <g id="text_5">
      <!-- 8 -->
      <defs>
       <path d="M 31.78125 34.625 
Q 24.75 34.625 20.71875 30.859375 
Q 16.703125 27.09375 16.703125 20.515625 
Q 16.703125 13.921875 20.71875 10.15625 
Q 24.75 6.390625 31.78125 6.390625 
Q 38.8125 6.390625 42.859375 10.171875 
Q 46.921875 13.96875 46.921875 20.515625 
Q 46.921875 27.09375 42.890625 30.859375 
Q 38.875 34.625 31.78125 34.625 
z
M 21.921875 38.8125 
Q 15.578125 40.375 12.03125 44.71875 
Q 8.5 49.078125 8.5 55.328125 
Q 8.5 64.0625 14.71875 69.140625 
Q 20.953125 74.21875 31.78125 74.21875 
Q 42.671875 74.21875 48.875 69.140625 
Q 55.078125 64.0625 55.078125 55.328125 
Q 55.078125 49.078125 51.53125 44.71875 
Q 48 40.375 41.703125 38.8125 
Q 48.828125 37.15625 52.796875 32.3125 
Q 56.78125 27.484375 56.78125 20.515625 
Q 56.78125 9.90625 50.3125 4.234375 
Q 43.84375 -1.421875 31.78125 -1.421875 
Q 19.734375 -1.421875 13.25 4.234375 
Q 6.78125 9.90625 6.78125 20.515625 
Q 6.78125 27.484375 10.78125 32.3125 
Q 14.796875 37.15625 21.921875 38.8125 
z
M 18.3125 54.390625 
Q 18.3125 48.734375 21.84375 45.5625 
Q 25.390625 42.390625 31.78125 42.390625 
Q 38.140625 42.390625 41.71875 45.5625 
Q 45.3125 48.734375 45.3125 54.390625 
Q 45.3125 60.0625 41.71875 63.234375 
Q 38.140625 66.40625 31.78125 66.40625 
Q 25.390625 66.40625 21.84375 63.234375 
Q 18.3125 60.0625 18.3125 54.390625 
z
" id="DejaVuSans-38"/>
      </defs>
      <g transform="translate(393.580357 320.44225)scale(0.2 -0.2)">
       <use xlink:href="#DejaVuSans-38"/>
      </g>
     </g>
    </g>
    <g id="text_6">
     <!-- log10 of (# f-evals / dimension) -->
     <defs>
      <path d="M 9.421875 75.984375 
L 18.40625 75.984375 
L 18.40625 0 
L 9.421875 0 
z
" id="DejaVuSans-6c"/>
      <path d="M 30.609375 48.390625 
Q 23.390625 48.390625 19.1875 42.75 
Q 14.984375 37.109375 14.984375 27.296875 
Q 14.984375 17.484375 19.15625 11.84375 
Q 23.34375 6.203125 30.609375 6.203125 
Q 37.796875 6.203125 41.984375 11.859375 
Q 46.1875 17.53125 46.1875 27.296875 
Q 46.1875 37.015625 41.984375 42.703125 
Q 37.796875 48.390625 30.609375 48.390625 
z
M 30.609375 56 
Q 42.328125 56 49.015625 48.375 
Q 55.71875 40.765625 55.71875 27.296875 
Q 55.71875 13.875 49.015625 6.21875 
Q 42.328125 -1.421875 30.609375 -1.421875 
Q 18.84375 -1.421875 12.171875 6.21875 
Q 5.515625 13.875 5.515625 27.296875 
Q 5.515625 40.765625 12.171875 48.375 
Q 18.84375 56 30.609375 56 
z
" id="DejaVuSans-6f"/>
      <path d="M 45.40625 27.984375 
Q 45.40625 37.75 41.375 43.109375 
Q 37.359375 48.484375 30.078125 48.484375 
Q 22.859375 48.484375 18.828125 43.109375 
Q 14.796875 37.75 14.796875 27.984375 
Q 14.796875 18.265625 18.828125 12.890625 
Q 22.859375 7.515625 30.078125 7.515625 
Q 37.359375 7.515625 41.375 12.890625 
Q 45.40625 18.265625 45.40625 27.984375 
z
M 54.390625 6.78125 
Q 54.390625 -7.171875 48.1875 -13.984375 
Q 42 -20.796875 29.203125 -20.796875 
Q 24.46875 -20.796875 20.265625 -20.09375 
Q 16.0625 -19.390625 12.109375 -17.921875 
L 12.109375 -9.1875 
Q 16.0625 -11.328125 19.921875 -12.34375 
Q 23.78125 -13.375 27.78125 -13.375 
Q 36.625 -13.375 41.015625 -8.765625 
Q 45.40625 -4.15625 45.40625 5.171875 
L 45.40625 9.625 
Q 42.625 4.78125 38.28125 2.390625 
Q 33.9375 0 27.875 0 
Q 17.828125 0 11.671875 7.65625 
Q 5.515625 15.328125 5.515625 27.984375 
Q 5.515625 40.671875 11.671875 48.328125 
Q 17.828125 56 27.875 56 
Q 33.9375 56 38.28125 53.609375 
Q 42.625 51.21875 45.40625 46.390625 
L 45.40625 54.6875 
L 54.390625 54.6875 
z
" id="DejaVuSans-67"/>
      <path d="M 12.40625 8.296875 
L 28.515625 8.296875 
L 28.515625 63.921875 
L 10.984375 60.40625 
L 10.984375 69.390625 
L 28.421875 72.90625 
L 38.28125 72.90625 
L 38.28125 8.296875 
L 54.390625 8.296875 
L 54.390625 0 
L 12.40625 0 
z
" id="DejaVuSans-31"/>
      <path id="DejaVuSans-20"/>
      <path d="M 37.109375 75.984375 
L 37.109375 68.5 
L 28.515625 68.5 
Q 23.6875 68.5 21.796875 66.546875 
Q 19.921875 64.59375 19.921875 59.515625 
L 19.921875 54.6875 
L 34.71875 54.6875 
L 34.71875 47.703125 
L 19.921875 47.703125 
L 19.921875 0 
L 10.890625 0 
L 10.890625 47.703125 
L 2.296875 47.703125 
L 2.296875 54.6875 
L 10.890625 54.6875 
L 10.890625 58.5 
Q 10.890625 67.625 15.140625 71.796875 
Q 19.390625 75.984375 28.609375 75.984375 
z
" id="DejaVuSans-66"/>
      <path d="M 31 75.875 
Q 24.46875 64.65625 21.28125 53.65625 
Q 18.109375 42.671875 18.109375 31.390625 
Q 18.109375 20.125 21.3125 9.0625 
Q 24.515625 -2 31 -13.1875 
L 23.1875 -13.1875 
Q 15.875 -1.703125 12.234375 9.375 
Q 8.59375 20.453125 8.59375 31.390625 
Q 8.59375 42.28125 12.203125 53.3125 
Q 15.828125 64.359375 23.1875 75.875 
z
" id="DejaVuSans-28"/>
      <path d="M 51.125 44 
L 36.921875 44 
L 32.8125 27.6875 
L 47.125 27.6875 
z
M 43.796875 71.78125 
L 38.71875 51.515625 
L 52.984375 51.515625 
L 58.109375 71.78125 
L 65.921875 71.78125 
L 60.890625 51.515625 
L 76.125 51.515625 
L 76.125 44 
L 58.984375 44 
L 54.984375 27.6875 
L 70.515625 27.6875 
L 70.515625 20.21875 
L 53.078125 20.21875 
L 48 0 
L 40.1875 0 
L 45.21875 20.21875 
L 30.90625 20.21875 
L 25.875 0 
L 18.015625 0 
L 23.09375 20.21875 
L 7.71875 20.21875 
L 7.71875 27.6875 
L 24.90625 27.6875 
L 29 44 
L 13.28125 44 
L 13.28125 51.515625 
L 30.90625 51.515625 
L 35.890625 71.78125 
z
" id="DejaVuSans-23"/>
      <path d="M 4.890625 31.390625 
L 31.203125 31.390625 
L 31.203125 23.390625 
L 4.890625 23.390625 
z
" id="DejaVuSans-2d"/>
      <path d="M 56.203125 29.59375 
L 56.203125 25.203125 
L 14.890625 25.203125 
Q 15.484375 15.921875 20.484375 11.0625 
Q 25.484375 6.203125 34.421875 6.203125 
Q 39.59375 6.203125 44.453125 7.46875 
Q 49.3125 8.734375 54.109375 11.28125 
L 54.109375 2.78125 
Q 49.265625 0.734375 44.1875 -0.34375 
Q 39.109375 -1.421875 33.890625 -1.421875 
Q 20.796875 -1.421875 13.15625 6.1875 
Q 5.515625 13.8125 5.515625 26.8125 
Q 5.515625 40.234375 12.765625 48.109375 
Q 20.015625 56 32.328125 56 
Q 43.359375 56 49.78125 48.890625 
Q 56.203125 41.796875 56.203125 29.59375 
z
M 47.21875 32.234375 
Q 47.125 39.59375 43.09375 43.984375 
Q 39.0625 48.390625 32.421875 48.390625 
Q 24.90625 48.390625 20.390625 44.140625 
Q 15.875 39.890625 15.1875 32.171875 
z
" id="DejaVuSans-65"/>
      <path d="M 2.984375 54.6875 
L 12.5 54.6875 
L 29.59375 8.796875 
L 46.6875 54.6875 
L 56.203125 54.6875 
L 35.6875 0 
L 23.484375 0 
z
" id="DejaVuSans-76"/>
      <path d="M 34.28125 27.484375 
Q 23.390625 27.484375 19.1875 25 
Q 14.984375 22.515625 14.984375 16.5 
Q 14.984375 11.71875 18.140625 8.90625 
Q 21.296875 6.109375 26.703125 6.109375 
Q 34.1875 6.109375 38.703125 11.40625 
Q 43.21875 16.703125 43.21875 25.484375 
L 43.21875 27.484375 
z
M 52.203125 31.203125 
L 52.203125 0 
L 43.21875 0 
L 43.21875 8.296875 
Q 40.140625 3.328125 35.546875 0.953125 
Q 30.953125 -1.421875 24.3125 -1.421875 
Q 15.921875 -1.421875 10.953125 3.296875 
Q 6 8.015625 6 15.921875 
Q 6 25.140625 12.171875 29.828125 
Q 18.359375 34.515625 30.609375 34.515625 
L 43.21875 34.515625 
L 43.21875 35.40625 
Q 43.21875 41.609375 39.140625 45 
Q 35.0625 48.390625 27.6875 48.390625 
Q 23 48.390625 18.546875 47.265625 
Q 14.109375 46.140625 10.015625 43.890625 
L 10.015625 52.203125 
Q 14.9375 54.109375 19.578125 55.046875 
Q 24.21875 56 28.609375 56 
Q 40.484375 56 46.34375 49.84375 
Q 52.203125 43.703125 52.203125 31.203125 
z
" id="DejaVuSans-61"/>
      <path d="M 44.28125 53.078125 
L 44.28125 44.578125 
Q 40.484375 46.53125 36.375 47.5 
Q 32.28125 48.484375 27.875 48.484375 
Q 21.1875 48.484375 17.84375 46.4375 
Q 14.5 44.390625 14.5 40.28125 
Q 14.5 37.15625 16.890625 35.375 
Q 19.28125 33.59375 26.515625 31.984375 
L 29.59375 31.296875 
Q 39.15625 29.25 43.1875 25.515625 
Q 47.21875 21.78125 47.21875 15.09375 
Q 47.21875 7.46875 41.1875 3.015625 
Q 35.15625 -1.421875 24.609375 -1.421875 
Q 20.21875 -1.421875 15.453125 -0.5625 
Q 10.6875 0.296875 5.421875 2 
L 5.421875 11.28125 
Q 10.40625 8.6875 15.234375 7.390625 
Q 20.0625 6.109375 24.8125 6.109375 
Q 31.15625 6.109375 34.5625 8.28125 
Q 37.984375 10.453125 37.984375 14.40625 
Q 37.984375 18.0625 35.515625 20.015625 
Q 33.0625 21.96875 24.703125 23.78125 
L 21.578125 24.515625 
Q 13.234375 26.265625 9.515625 29.90625 
Q 5.8125 33.546875 5.8125 39.890625 
Q 5.8125 47.609375 11.28125 51.796875 
Q 16.75 56 26.8125 56 
Q 31.78125 56 36.171875 55.265625 
Q 40.578125 54.546875 44.28125 53.078125 
z
" id="DejaVuSans-73"/>
      <path d="M 25.390625 72.90625 
L 33.6875 72.90625 
L 8.296875 -9.28125 
L 0 -9.28125 
z
" id="DejaVuSans-2f"/>
      <path d="M 45.40625 46.390625 
L 45.40625 75.984375 
L 54.390625 75.984375 
L 54.390625 0 
L 45.40625 0 
L 45.40625 8.203125 
Q 42.578125 3.328125 38.25 0.953125 
Q 33.9375 -1.421875 27.875 -1.421875 
Q 17.96875 -1.421875 11.734375 6.484375 
Q 5.515625 14.40625 5.515625 27.296875 
Q 5.515625 40.1875 11.734375 48.09375 
Q 17.96875 56 27.875 56 
Q 33.9375 56 38.25 53.625 
Q 42.578125 51.265625 45.40625 46.390625 
z
M 14.796875 27.296875 
Q 14.796875 17.390625 18.875 11.75 
Q 22.953125 6.109375 30.078125 6.109375 
Q 37.203125 6.109375 41.296875 11.75 
Q 45.40625 17.390625 45.40625 27.296875 
Q 45.40625 37.203125 41.296875 42.84375 
Q 37.203125 48.484375 30.078125 48.484375 
Q 22.953125 48.484375 18.875 42.84375 
Q 14.796875 37.203125 14.796875 27.296875 
z
" id="DejaVuSans-64"/>
      <path d="M 9.421875 54.6875 
L 18.40625 54.6875 
L 18.40625 0 
L 9.421875 0 
z
M 9.421875 75.984375 
L 18.40625 75.984375 
L 18.40625 64.59375 
L 9.421875 64.59375 
z
" id="DejaVuSans-69"/>
      <path d="M 52 44.1875 
Q 55.375 50.25 60.0625 53.125 
Q 64.75 56 71.09375 56 
Q 79.640625 56 84.28125 50.015625 
Q 88.921875 44.046875 88.921875 33.015625 
L 88.921875 0 
L 79.890625 0 
L 79.890625 32.71875 
Q 79.890625 40.578125 77.09375 44.375 
Q 74.3125 48.1875 68.609375 48.1875 
Q 61.625 48.1875 57.5625 43.546875 
Q 53.515625 38.921875 53.515625 30.90625 
L 53.515625 0 
L 44.484375 0 
L 44.484375 32.71875 
Q 44.484375 40.625 41.703125 44.40625 
Q 38.921875 48.1875 33.109375 48.1875 
Q 26.21875 48.1875 22.15625 43.53125 
Q 18.109375 38.875 18.109375 30.90625 
L 18.109375 0 
L 9.078125 0 
L 9.078125 54.6875 
L 18.109375 54.6875 
L 18.109375 46.1875 
Q 21.1875 51.21875 25.484375 53.609375 
Q 29.78125 56 35.6875 56 
Q 41.65625 56 45.828125 52.96875 
Q 50 49.953125 52 44.1875 
z
" id="DejaVuSans-6d"/>
      <path d="M 54.890625 33.015625 
L 54.890625 0 
L 45.90625 0 
L 45.90625 32.71875 
Q 45.90625 40.484375 42.875 44.328125 
Q 39.84375 48.1875 33.796875 48.1875 
Q 26.515625 48.1875 22.3125 43.546875 
Q 18.109375 38.921875 18.109375 30.90625 
L 18.109375 0 
L 9.078125 0 
L 9.078125 54.6875 
L 18.109375 54.6875 
L 18.109375 46.1875 
Q 21.34375 51.125 25.703125 53.5625 
Q 30.078125 56 35.796875 56 
Q 45.21875 56 50.046875 50.171875 
Q 54.890625 44.34375 54.890625 33.015625 
z
" id="DejaVuSans-6e"/>
      <path d="M 8.015625 75.875 
L 15.828125 75.875 
Q 23.140625 64.359375 26.78125 53.3125 
Q 30.421875 42.28125 30.421875 31.390625 
Q 30.421875 20.453125 26.78125 9.375 
Q 23.140625 -1.703125 15.828125 -13.1875 
L 8.015625 -13.1875 
Q 14.5 -2 17.703125 9.0625 
Q 20.90625 20.125 20.90625 31.390625 
Q 20.90625 42.671875 17.703125 53.65625 
Q 14.5 64.65625 8.015625 75.875 
z
" id="DejaVuSans-29"/>
     </defs>
     <g transform="translate(107.015156 342.278812)scale(0.18 -0.18)">
      <use xlink:href="#DejaVuSans-6c"/>
      <use x="27.783203" xlink:href="#DejaVuSans-6f"/>
      <use x="88.964844" xlink:href="#DejaVuSans-67"/>
      <use x="152.441406" xlink:href="#DejaVuSans-31"/>
      <use x="216.064453" xlink:href="#DejaVuSans-30"/>
      <use x="279.6875" xlink:href="#DejaVuSans-20"/>
      <use x="311.474609" xlink:href="#DejaVuSans-6f"/>
      <use x="372.65625" xlink:href="#DejaVuSans-66"/>
      <use x="407.861328" xlink:href="#DejaVuSans-20"/>
      <use x="439.648438" xlink:href="#DejaVuSans-28"/>
      <use x="478.662109" xlink:href="#DejaVuSans-23"/>
      <use x="562.451172" xlink:href="#DejaVuSans-20"/>
      <use x="594.238281" xlink:href="#DejaVuSans-66"/>
      <use x="629.365234" xlink:href="#DejaVuSans-2d"/>
      <use x="665.449219" xlink:href="#DejaVuSans-65"/>
      <use x="726.972656" xlink:href="#DejaVuSans-76"/>
      <use x="786.152344" xlink:href="#DejaVuSans-61"/>
      <use x="847.431641" xlink:href="#DejaVuSans-6c"/>
      <use x="875.214844" xlink:href="#DejaVuSans-73"/>
      <use x="927.314453" xlink:href="#DejaVuSans-20"/>
      <use x="959.101562" xlink:href="#DejaVuSans-2f"/>
      <use x="992.792969" xlink:href="#DejaVuSans-20"/>
      <use x="1024.580078" xlink:href="#DejaVuSans-64"/>
      <use x="1088.056641" xlink:href="#DejaVuSans-69"/>
      <use x="1115.839844" xlink:href="#DejaVuSans-6d"/>
      <use x="1213.251953" xlink:href="#DejaVuSans-65"/>
      <use x="1274.775391" xlink:href="#DejaVuSans-6e"/>
      <use x="1338.154297" xlink:href="#DejaVuSans-73"/>
      <use x="1390.253906" xlink:href="#DejaVuSans-69"/>
      <use x="1418.037109" xlink:href="#DejaVuSans-6f"/>
      <use x="1479.21875" xlink:href="#DejaVuSans-6e"/>
      <use x="1542.597656" xlink:href="#DejaVuSans-29"/>
     </g>
    </g>
   </g>
   <g id="matplotlib.axis_2">
    <g id="ytick_1">
     <g id="line2d_11">
      <path clip-path="url(#p8bea5ff292)" d="M 70.8 298.245375 
L 427.92 298.245375 
" style="fill:none;stroke:#b0b0b0;stroke-linecap:square;stroke-width:0.8;"/>
     </g>
     <g id="line2d_12">
      <defs>
       <path d="M 0 0 
L -3.5 0 
" id="m43672bf4fc" style="stroke:#000000;stroke-width:0.8;"/>
      </defs>
      <g>
       <use style="stroke:#000000;stroke-width:0.8;" x="70.8" xlink:href="#m43672bf4fc" y="298.245375"/>
      </g>
     </g>
     <g id="text_7">
      <!-- 0.0 -->
      <defs>
       <path d="M 10.6875 12.40625 
L 21 12.40625 
L 21 0 
L 10.6875 0 
z
" id="DejaVuSans-2e"/>
      </defs>
      <g transform="translate(31.99375 305.843812)scale(0.2 -0.2)">
       <use xlink:href="#DejaVuSans-30"/>
       <use x="63.623047" xlink:href="#DejaVuSans-2e"/>
       <use x="95.410156" xlink:href="#DejaVuSans-30"/>
      </g>
     </g>
    </g>
    <g id="ytick_2">
     <g id="line2d_13">
      <path clip-path="url(#p8bea5ff292)" d="M 70.8 245.549929 
L 427.92 245.549929 
" style="fill:none;stroke:#b0b0b0;stroke-linecap:square;stroke-width:0.8;"/>
     </g>
     <g id="line2d_14">
      <g>
       <use style="stroke:#000000;stroke-width:0.8;" x="70.8" xlink:href="#m43672bf4fc" y="245.549929"/>
      </g>
     </g>
     <g id="text_8">
      <!-- 0.2 -->
      <g transform="translate(31.99375 253.148367)scale(0.2 -0.2)">
       <use xlink:href="#DejaVuSans-30"/>
       <use x="63.623047" xlink:href="#DejaVuSans-2e"/>
       <use x="95.410156" xlink:href="#DejaVuSans-32"/>
      </g>
     </g>
    </g>
    <g id="ytick_3">
     <g id="line2d_15">
      <path clip-path="url(#p8bea5ff292)" d="M 70.8 192.854484 
L 427.92 192.854484 
" style="fill:none;stroke:#b0b0b0;stroke-linecap:square;stroke-width:0.8;"/>
     </g>
     <g id="line2d_16">
      <g>
       <use style="stroke:#000000;stroke-width:0.8;" x="70.8" xlink:href="#m43672bf4fc" y="192.854484"/>
      </g>
     </g>
     <g id="text_9">
      <!-- 0.4 -->
      <g transform="translate(31.99375 200.452921)scale(0.2 -0.2)">
       <use xlink:href="#DejaVuSans-30"/>
       <use x="63.623047" xlink:href="#DejaVuSans-2e"/>
       <use x="95.410156" xlink:href="#DejaVuSans-34"/>
      </g>
     </g>
    </g>
    <g id="ytick_4">
     <g id="line2d_17">
      <path clip-path="url(#p8bea5ff292)" d="M 70.8 140.159038 
L 427.92 140.159038 
" style="fill:none;stroke:#b0b0b0;stroke-linecap:square;stroke-width:0.8;"/>
     </g>
     <g id="line2d_18">
      <g>
       <use style="stroke:#000000;stroke-width:0.8;" x="70.8" xlink:href="#m43672bf4fc" y="140.159038"/>
      </g>
     </g>
     <g id="text_10">
      <!-- 0.6 -->
      <g transform="translate(31.99375 147.757476)scale(0.2 -0.2)">
       <use xlink:href="#DejaVuSans-30"/>
       <use x="63.623047" xlink:href="#DejaVuSans-2e"/>
       <use x="95.410156" xlink:href="#DejaVuSans-36"/>
      </g>
     </g>
    </g>
    <g id="ytick_5">
     <g id="line2d_19">
      <path clip-path="url(#p8bea5ff292)" d="M 70.8 87.463593 
L 427.92 87.463593 
" style="fill:none;stroke:#b0b0b0;stroke-linecap:square;stroke-width:0.8;"/>
     </g>
     <g id="line2d_20">
      <g>
       <use style="stroke:#000000;stroke-width:0.8;" x="70.8" xlink:href="#m43672bf4fc" y="87.463593"/>
      </g>
     </g>
     <g id="text_11">
      <!-- 0.8 -->
      <g transform="translate(31.99375 95.06203)scale(0.2 -0.2)">
       <use xlink:href="#DejaVuSans-30"/>
       <use x="63.623047" xlink:href="#DejaVuSans-2e"/>
       <use x="95.410156" xlink:href="#DejaVuSans-38"/>
      </g>
     </g>
    </g>
    <g id="ytick_6">
     <g id="line2d_21">
      <path clip-path="url(#p8bea5ff292)" d="M 70.8 34.768147 
L 427.92 34.768147 
" style="fill:none;stroke:#b0b0b0;stroke-linecap:square;stroke-width:0.8;"/>
     </g>
     <g id="line2d_22">
      <g>
       <use style="stroke:#000000;stroke-width:0.8;" x="70.8" xlink:href="#m43672bf4fc" y="34.768147"/>
      </g>
     </g>
     <g id="text_12">
      <!-- 1.0 -->
      <g transform="translate(31.99375 42.366585)scale(0.2 -0.2)">
       <use xlink:href="#DejaVuSans-31"/>
       <use x="63.623047" xlink:href="#DejaVuSans-2e"/>
       <use x="95.410156" xlink:href="#DejaVuSans-30"/>
      </g>
     </g>
    </g>
    <g id="text_13">
     <!-- Proportion of function+target pairs -->
     <defs>
      <path d="M 19.671875 64.796875 
L 19.671875 37.40625 
L 32.078125 37.40625 
Q 38.96875 37.40625 42.71875 40.96875 
Q 46.484375 44.53125 46.484375 51.125 
Q 46.484375 57.671875 42.71875 61.234375 
Q 38.96875 64.796875 32.078125 64.796875 
z
M 9.8125 72.90625 
L 32.078125 72.90625 
Q 44.34375 72.90625 50.609375 67.359375 
Q 56.890625 61.8125 56.890625 51.125 
Q 56.890625 40.328125 50.609375 34.8125 
Q 44.34375 29.296875 32.078125 29.296875 
L 19.671875 29.296875 
L 19.671875 0 
L 9.8125 0 
z
" id="DejaVuSans-50"/>
      <path d="M 41.109375 46.296875 
Q 39.59375 47.171875 37.8125 47.578125 
Q 36.03125 48 33.890625 48 
Q 26.265625 48 22.1875 43.046875 
Q 18.109375 38.09375 18.109375 28.8125 
L 18.109375 0 
L 9.078125 0 
L 9.078125 54.6875 
L 18.109375 54.6875 
L 18.109375 46.1875 
Q 20.953125 51.171875 25.484375 53.578125 
Q 30.03125 56 36.53125 56 
Q 37.453125 56 38.578125 55.875 
Q 39.703125 55.765625 41.0625 55.515625 
z
" id="DejaVuSans-72"/>
      <path d="M 18.109375 8.203125 
L 18.109375 -20.796875 
L 9.078125 -20.796875 
L 9.078125 54.6875 
L 18.109375 54.6875 
L 18.109375 46.390625 
Q 20.953125 51.265625 25.265625 53.625 
Q 29.59375 56 35.59375 56 
Q 45.5625 56 51.78125 48.09375 
Q 58.015625 40.1875 58.015625 27.296875 
Q 58.015625 14.40625 51.78125 6.484375 
Q 45.5625 -1.421875 35.59375 -1.421875 
Q 29.59375 -1.421875 25.265625 0.953125 
Q 20.953125 3.328125 18.109375 8.203125 
z
M 48.6875 27.296875 
Q 48.6875 37.203125 44.609375 42.84375 
Q 40.53125 48.484375 33.40625 48.484375 
Q 26.265625 48.484375 22.1875 42.84375 
Q 18.109375 37.203125 18.109375 27.296875 
Q 18.109375 17.390625 22.1875 11.75 
Q 26.265625 6.109375 33.40625 6.109375 
Q 40.53125 6.109375 44.609375 11.75 
Q 48.6875 17.390625 48.6875 27.296875 
z
" id="DejaVuSans-70"/>
      <path d="M 18.3125 70.21875 
L 18.3125 54.6875 
L 36.8125 54.6875 
L 36.8125 47.703125 
L 18.3125 47.703125 
L 18.3125 18.015625 
Q 18.3125 11.328125 20.140625 9.421875 
Q 21.96875 7.515625 27.59375 7.515625 
L 36.8125 7.515625 
L 36.8125 0 
L 27.59375 0 
Q 17.1875 0 13.234375 3.875 
Q 9.28125 7.765625 9.28125 18.015625 
L 9.28125 47.703125 
L 2.6875 47.703125 
L 2.6875 54.6875 
L 9.28125 54.6875 
L 9.28125 70.21875 
z
" id="DejaVuSans-74"/>
      <path d="M 8.5 21.578125 
L 8.5 54.6875 
L 17.484375 54.6875 
L 17.484375 21.921875 
Q 17.484375 14.15625 20.5 10.265625 
Q 23.53125 6.390625 29.59375 6.390625 
Q 36.859375 6.390625 41.078125 11.03125 
Q 45.3125 15.671875 45.3125 23.6875 
L 45.3125 54.6875 
L 54.296875 54.6875 
L 54.296875 0 
L 45.3125 0 
L 45.3125 8.40625 
Q 42.046875 3.421875 37.71875 1 
Q 33.40625 -1.421875 27.6875 -1.421875 
Q 18.265625 -1.421875 13.375 4.4375 
Q 8.5 10.296875 8.5 21.578125 
z
M 31.109375 56 
z
" id="DejaVuSans-75"/>
      <path d="M 48.78125 52.59375 
L 48.78125 44.1875 
Q 44.96875 46.296875 41.140625 47.34375 
Q 37.3125 48.390625 33.40625 48.390625 
Q 24.65625 48.390625 19.8125 42.84375 
Q 14.984375 37.3125 14.984375 27.296875 
Q 14.984375 17.28125 19.8125 11.734375 
Q 24.65625 6.203125 33.40625 6.203125 
Q 37.3125 6.203125 41.140625 7.25 
Q 44.96875 8.296875 48.78125 10.40625 
L 48.78125 2.09375 
Q 45.015625 0.34375 40.984375 -0.53125 
Q 36.96875 -1.421875 32.421875 -1.421875 
Q 20.0625 -1.421875 12.78125 6.34375 
Q 5.515625 14.109375 5.515625 27.296875 
Q 5.515625 40.671875 12.859375 48.328125 
Q 20.21875 56 33.015625 56 
Q 37.15625 56 41.109375 55.140625 
Q 45.0625 54.296875 48.78125 52.59375 
z
" id="DejaVuSans-63"/>
      <path d="M 46 62.703125 
L 46 35.5 
L 73.1875 35.5 
L 73.1875 27.203125 
L 46 27.203125 
L 46 0 
L 37.796875 0 
L 37.796875 27.203125 
L 10.59375 27.203125 
L 10.59375 35.5 
L 37.796875 35.5 
L 37.796875 62.703125 
z
" id="DejaVuSans-2b"/>
     </defs>
     <g transform="translate(24.250312 323.17875)rotate(-90)scale(0.18 -0.18)">
      <use xlink:href="#DejaVuSans-50"/>
      <use x="60.287109" xlink:href="#DejaVuSans-72"/>
      <use x="101.369141" xlink:href="#DejaVuSans-6f"/>
      <use x="162.550781" xlink:href="#DejaVuSans-70"/>
      <use x="226.027344" xlink:href="#DejaVuSans-6f"/>
      <use x="287.208984" xlink:href="#DejaVuSans-72"/>
      <use x="328.322266" xlink:href="#DejaVuSans-74"/>
      <use x="367.53125" xlink:href="#DejaVuSans-69"/>
      <use x="395.314453" xlink:href="#DejaVuSans-6f"/>
      <use x="456.496094" xlink:href="#DejaVuSans-6e"/>
      <use x="519.875" xlink:href="#DejaVuSans-20"/>
      <use x="551.662109" xlink:href="#DejaVuSans-6f"/>
      <use x="612.84375" xlink:href="#DejaVuSans-66"/>
      <use x="648.048828" xlink:href="#DejaVuSans-20"/>
      <use x="679.835938" xlink:href="#DejaVuSans-66"/>
      <use x="715.041016" xlink:href="#DejaVuSans-75"/>
      <use x="778.419922" xlink:href="#DejaVuSans-6e"/>
      <use x="841.798828" xlink:href="#DejaVuSans-63"/>
      <use x="896.779297" xlink:href="#DejaVuSans-74"/>
      <use x="935.988281" xlink:href="#DejaVuSans-69"/>
      <use x="963.771484" xlink:href="#DejaVuSans-6f"/>
      <use x="1024.953125" xlink:href="#DejaVuSans-6e"/>
      <use x="1088.332031" xlink:href="#DejaVuSans-2b"/>
      <use x="1172.121094" xlink:href="#DejaVuSans-74"/>
      <use x="1211.330078" xlink:href="#DejaVuSans-61"/>
      <use x="1272.609375" xlink:href="#DejaVuSans-72"/>
      <use x="1313.707031" xlink:href="#DejaVuSans-67"/>
      <use x="1377.183594" xlink:href="#DejaVuSans-65"/>
      <use x="1438.707031" xlink:href="#DejaVuSans-74"/>
      <use x="1477.916016" xlink:href="#DejaVuSans-20"/>
      <use x="1509.703125" xlink:href="#DejaVuSans-70"/>
      <use x="1573.179688" xlink:href="#DejaVuSans-61"/>
      <use x="1634.458984" xlink:href="#DejaVuSans-69"/>
      <use x="1662.242188" xlink:href="#DejaVuSans-72"/>
      <use x="1703.355469" xlink:href="#DejaVuSans-73"/>
     </g>
    </g>
   </g>
   <g id="line2d_23">
    <defs>
     <path d="M 0 1.5 
C 0.397805 1.5 0.77937 1.341951 1.06066 1.06066 
C 1.341951 0.77937 1.5 0.397805 1.5 0 
C 1.5 -0.397805 1.341951 -0.77937 1.06066 -1.06066 
C 0.77937 -1.341951 0.397805 -1.5 0 -1.5 
C -0.397805 -1.5 -0.77937 -1.341951 -1.06066 -1.06066 
C -1.341951 -0.77937 -1.5 -0.397805 -1.5 0 
C -1.5 0.397805 -1.341951 0.77937 -1.06066 1.06066 
C -0.77937 1.341951 -0.397805 1.5 0 1.5 
z
" id="mf746935473" style="stroke:#000080;"/>
    </defs>
    <g>
     <use style="fill:#000080;stroke:#000080;" x="167.375863" xlink:href="#mf746935473" y="34.768147"/>
     <use style="fill:#000080;stroke:#000080;" x="167.375863" xlink:href="#mf746935473" y="34.768147"/>
    </g>
   </g>
   <g id="line2d_24">
    <path d="M 58.414766 298.245375 
L 58.414766 264.664944 
L 70.8 264.664944 
L 70.8 261.04859 
L 78.044898 261.04859 
L 78.044898 260.531968 
L 87.172389 260.531968 
L 87.172389 259.498724 
L 99.557623 259.498724 
L 99.557623 258.982102 
L 101.260636 258.982102 
L 101.260636 257.948858 
L 102.815366 257.948858 
L 102.815366 257.432236 
L 104.245578 257.432236 
L 104.245578 256.915614 
L 105.569748 256.915614 
L 105.569748 256.398992 
L 106.802521 256.398992 
L 106.802521 255.88237 
L 109.03895 255.88237 
L 109.03895 254.849126 
L 110.060263 254.849126 
L 110.060263 247.616418 
L 111.026343 247.616418 
L 111.026343 245.549929 
L 111.942857 245.549929 
L 111.942857 244.000063 
L 113.64587 244.000063 
L 113.64587 242.966819 
L 116.630812 242.966819 
L 116.630812 238.833843 
L 118.581998 238.833843 
L 118.581998 235.217489 
L 119.187755 235.217489 
L 119.187755 234.700867 
L 119.773647 234.700867 
L 119.773647 232.634379 
L 120.890768 232.634379 
L 120.890768 231.601135 
L 121.424184 231.601135 
L 121.424184 231.084513 
L 121.942137 231.084513 
L 121.942137 230.567891 
L 122.445497 230.567891 
L 122.445497 229.018025 
L 123.411577 229.018025 
L 123.411577 228.501403 
L 124.769302 228.501403 
L 124.769302 227.984781 
L 125.620325 227.984781 
L 125.620325 227.468159 
L 126.825374 227.468159 
L 126.825374 226.951537 
L 127.585834 226.951537 
L 127.585834 224.885049 
L 128.669082 224.885049 
L 128.669082 222.818561 
L 129.016046 222.818561 
L 129.016046 221.268695 
L 130.340216 221.268695 
L 130.340216 220.235451 
L 130.656474 220.235451 
L 130.656474 219.718829 
L 130.967232 219.718829 
L 130.967232 218.685585 
L 131.868336 218.685585 
L 131.868336 216.102475 
L 133.276002 216.102475 
L 133.276002 212.48612 
L 133.809418 212.48612 
L 133.809418 208.353144 
L 134.070271 208.353144 
L 134.070271 207.836522 
L 135.077192 207.836522 
L 135.077192 205.770034 
L 135.3203 205.770034 
L 135.3203 202.15368 
L 135.560144 202.15368 
L 135.560144 201.120436 
L 137.154536 201.120436 
L 137.154536 199.053948 
L 137.371122 199.053948 
L 137.371122 198.537326 
L 138.212129 198.537326 
L 138.212129 194.40435 
L 138.61824 194.40435 
L 138.61824 193.887728 
L 138.817886 193.887728 
L 138.817886 192.337862 
L 139.015326 192.337862 
L 139.015326 191.82124 
L 139.210608 191.82124 
L 139.210608 191.304618 
L 139.403779 191.304618 
L 139.403779 190.787996 
L 139.783966 190.787996 
L 139.783966 190.271374 
L 140.5209 190.271374 
L 140.5209 188.721508 
L 140.878274 188.721508 
L 140.878274 186.65502 
L 141.054316 186.65502 
L 141.054316 185.105154 
L 141.22864 185.105154 
L 141.22864 182.522044 
L 141.741636 182.522044 
L 141.741636 180.455556 
L 142.403494 180.455556 
L 142.403494 179.938934 
L 143.041708 179.938934 
L 143.041708 179.422312 
L 143.808698 179.422312 
L 143.808698 177.355823 
L 144.399433 177.355823 
L 144.399433 176.839201 
L 144.544115 176.839201 
L 144.544115 175.805957 
L 144.830011 175.805957 
L 144.830011 174.256091 
L 145.111405 174.256091 
L 145.111405 173.739469 
L 145.250457 173.739469 
L 145.250457 170.639737 
L 145.796091 170.639737 
L 145.796091 169.606493 
L 146.062784 169.606493 
L 146.062784 168.573249 
L 146.584518 168.573249 
L 146.584518 168.056627 
L 146.712605 168.056627 
L 146.712605 167.540005 
L 146.839781 167.540005 
L 146.839781 165.990139 
L 146.966058 165.990139 
L 146.966058 163.923651 
L 147.584393 163.923651 
L 147.584393 161.340541 
L 148.064103 161.340541 
L 148.064103 160.823919 
L 148.182045 160.823919 
L 148.182045 160.307297 
L 148.415618 160.307297 
L 148.415618 156.690943 
L 148.760352 156.690943 
L 148.760352 155.657699 
L 149.098559 155.657699 
L 149.098559 154.624455 
L 149.53977 154.624455 
L 149.648391 151.524723 
L 150.07639 151.524723 
L 150.07639 150.491479 
L 150.286606 150.491479 
L 150.286606 147.908369 
L 150.494377 147.908369 
L 150.494377 145.841881 
L 151.20312 145.841881 
L 151.20312 144.808637 
L 151.40056 144.808637 
L 151.40056 144.292014 
L 151.692688 144.292014 
L 151.789013 140.67566 
L 151.884821 140.67566 
L 151.884821 139.125794 
L 152.074909 139.125794 
L 152.1692 135.50944 
L 152.262996 135.50944 
L 152.262996 133.959574 
L 152.541466 133.959574 
L 152.633333 132.409708 
L 152.815662 132.409708 
L 152.906134 127.76011 
L 153.174832 127.76011 
L 153.263508 123.627134 
L 153.700403 123.627134 
L 153.786515 120.527402 
L 154.12687 120.527402 
L 154.12687 120.01078 
L 154.294647 120.01078 
L 154.294647 119.494158 
L 154.625547 119.494158 
L 154.625547 118.460914 
L 154.788728 118.460914 
L 154.788728 117.944292 
L 155.426942 117.944292 
L 155.426942 116.911048 
L 155.582997 116.911048 
L 155.582997 113.811316 
L 155.7377 113.811316 
L 155.814552 110.194961 
L 155.967272 110.194961 
L 155.967272 102.962253 
L 156.268851 102.962253 
L 156.268851 102.445631 
L 156.491741 102.445631 
L 156.565424 95.729545 
L 157.072869 95.729545 
L 157.144199 92.629813 
L 157.28601 92.629813 
L 157.356496 90.563325 
L 157.97866 90.563325 
L 157.97866 87.463593 
L 158.114025 87.463593 
L 158.114025 84.880483 
L 158.248372 84.880483 
L 158.248372 84.363861 
L 158.514074 84.363861 
L 158.514074 83.847239 
L 158.710789 83.847239 
L 158.710789 83.330617 
L 159.097839 83.330617 
L 159.16154 80.230885 
L 159.288265 80.230885 
L 159.288265 77.131153 
L 159.476683 77.131153 
L 159.53905 74.548042 
L 159.6012 74.548042 
L 159.6012 72.998176 
L 159.724855 72.998176 
L 159.724855 70.931688 
L 160.151031 70.931688 
L 160.211092 68.8652 
L 160.270952 68.8652 
L 160.330612 61.632492 
L 160.684447 61.632492 
L 160.684447 60.082626 
L 160.800853 60.082626 
L 160.800853 59.566004 
L 160.916504 59.566004 
L 160.916504 59.049382 
L 161.2024 59.049382 
L 161.259034 58.016138 
L 161.650527 58.016138 
L 161.650527 53.883162 
L 161.870445 53.883162 
L 161.925004 52.849918 
L 162.033625 52.849918 
L 162.033625 52.333296 
L 162.248906 52.333296 
L 162.302324 50.78343 
L 162.567041 50.78343 
L 162.619517 49.750186 
L 162.931179 49.750186 
L 163.033869 48.716942 
L 163.48881 48.716942 
L 163.48881 47.167076 
L 163.637919 47.167076 
L 163.637919 43.550722 
L 164.270055 43.550722 
L 164.365352 38.901123 
L 164.554434 38.901123 
L 164.554434 37.867879 
L 165.200896 37.867879 
L 165.200896 36.834635 
L 165.868525 36.834635 
L 165.868525 35.284769 
L 167.375863 35.284769 
L 167.375863 34.768147 
L 358.8 34.768147 
L 358.8 34.768147 
" style="fill:none;stroke:#000080;stroke-linecap:square;stroke-width:1.5;"/>
   </g>
   <g id="line2d_25">
    <defs>
     <path d="M 0 6 
C 1.591219 6 3.117479 5.367802 4.242641 4.242641 
C 5.367802 3.117479 6 1.591219 6 0 
C 6 -1.591219 5.367802 -3.117479 4.242641 -4.242641 
C 3.117479 -5.367802 1.591219 -6 0 -6 
C -1.591219 -6 -3.117479 -5.367802 -4.242641 -4.242641 
C -5.367802 -3.117479 -6 -1.591219 -6 0 
C -6 1.591219 -5.367802 3.117479 -4.242641 4.242641 
C -3.117479 5.367802 -1.591219 6 0 6 
z
" id="m38bec75274" style="stroke:#000080;stroke-width:1.5;"/>
    </defs>
    <g>
     <use style="fill:none;stroke:#000080;stroke-width:1.5;" x="133.276002" xlink:href="#m38bec75274" y="212.48612"/>
     <use style="fill:none;stroke:#000080;stroke-width:1.5;" x="159.16154" xlink:href="#m38bec75274" y="81.780751"/>
     <use style="fill:none;stroke:#000080;stroke-width:1.5;" x="167.375863" xlink:href="#m38bec75274" y="35.284769"/>
     <use style="fill:none;stroke:#000080;stroke-width:1.5;" x="167.375863" xlink:href="#m38bec75274" y="34.768147"/>
     <use style="fill:none;stroke:#000080;stroke-width:1.5;" x="167.375863" xlink:href="#m38bec75274" y="34.768147"/>
     <use style="fill:none;stroke:#000080;stroke-width:1.5;" x="358.8" xlink:href="#m38bec75274" y="34.768147"/>
    </g>
   </g>
   <g id="line2d_26"/>
   <g id="line2d_27">
    <defs>
     <path d="M 0 1.5 
C 0.397805 1.5 0.77937 1.341951 1.06066 1.06066 
C 1.341951 0.77937 1.5 0.397805 1.5 0 
C 1.5 -0.397805 1.341951 -0.77937 1.06066 -1.06066 
C 0.77937 -1.341951 0.397805 -1.5 0 -1.5 
C -0.397805 -1.5 -0.77937 -1.341951 -1.06066 -1.06066 
C -1.341951 -0.77937 -1.5 -0.397805 -1.5 0 
C -1.5 0.397805 -1.341951 0.77937 -1.06066 1.06066 
C -0.77937 1.341951 -0.397805 1.5 0 1.5 
z
" id="mfb2e21ea4b" style="stroke:#ff00ff;"/>
    </defs>
    <g>
     <use style="fill:#ff00ff;stroke:#ff00ff;" x="178.664042" xlink:href="#mfb2e21ea4b" y="34.768147"/>
     <use style="fill:#ff00ff;stroke:#ff00ff;" x="178.664042" xlink:href="#mfb2e21ea4b" y="34.768147"/>
    </g>
   </g>
   <g id="line2d_28">
    <path d="M 58.414766 298.245375 
L 58.414766 297.728753 
L 116.630812 297.728753 
L 116.630812 296.695509 
L 125.19988 296.695509 
L 125.19988 295.145643 
L 125.620325 295.145643 
L 125.620325 294.629021 
L 130.018259 294.629021 
L 130.018259 293.595777 
L 133.809418 293.595777 
L 133.809418 289.979423 
L 134.580824 289.979423 
L 134.580824 287.912935 
L 134.830731 287.912935 
L 134.830731 284.296581 
L 137.371122 284.296581 
L 137.371122 281.713471 
L 143.505841 281.713471 
L 143.505841 280.680226 
L 144.106507 280.680226 
L 144.106507 280.163604 
L 145.111405 280.163604 
L 145.111405 279.13036 
L 145.661236 279.13036 
L 145.661236 277.580494 
L 146.062784 277.580494 
L 146.062784 274.480762 
L 146.194652 274.480762 
L 146.194652 271.38103 
L 146.455505 271.38103 
L 146.455505 268.281298 
L 146.839781 268.281298 
L 146.839781 265.698188 
L 147.091449 265.698188 
L 147.091449 265.181566 
L 147.584393 265.181566 
L 147.584393 264.664944 
L 150.07639 264.664944 
L 150.07639 264.148322 
L 150.597364 264.148322 
L 150.597364 261.565212 
L 151.20312 261.565212 
L 151.20312 260.531968 
L 153.174832 260.531968 
L 153.263508 258.46548 
L 154.042387 258.46548 
L 154.042387 257.948858 
L 154.788728 257.948858 
L 154.788728 256.398992 
L 155.190275 256.398992 
L 155.269513 254.332504 
L 157.97866 254.332504 
L 157.97866 252.266016 
L 158.248372 252.266016 
L 158.248372 250.71615 
L 159.16154 250.71615 
L 159.16154 250.199528 
L 159.663134 250.199528 
L 159.663134 249.682906 
L 160.270952 249.682906 
L 160.270952 248.649662 
L 161.427868 248.649662 
L 161.427868 247.099796 
L 163.834815 247.099796 
L 163.834815 246.583173 
L 164.174247 246.583173 
L 164.174247 245.549929 
L 165.064324 245.549929 
L 165.064324 245.033307 
L 165.200896 245.033307 
L 165.291368 242.450197 
L 165.648742 242.450197 
L 165.73698 238.833843 
L 165.780936 238.833843 
L 165.824784 237.283977 
L 165.912159 237.283977 
L 165.955687 234.700867 
L 166.171749 234.700867 
L 166.171749 232.634379 
L 166.300143 232.634379 
L 166.342737 231.084513 
L 166.554196 231.084513 
L 166.638084 229.018025 
L 166.763182 229.018025 
L 166.804688 224.368427 
L 166.969752 224.368427 
L 166.969752 223.851805 
L 167.133306 223.851805 
L 167.214525 221.785317 
L 167.254996 221.785317 
L 167.254996 219.718829 
L 167.45599 219.718829 
L 167.495918 217.652341 
L 167.575509 217.652341 
L 167.654747 215.585853 
L 167.733635 215.585853 
L 167.772949 213.002743 
L 167.851318 213.002743 
L 167.851318 211.452876 
L 168.122934 211.452876 
L 168.122934 210.419632 
L 168.27631 210.419632 
L 168.314449 207.3199 
L 168.390483 207.3199 
L 168.390483 206.803278 
L 168.579166 206.803278 
L 168.579166 206.286656 
L 168.691427 206.286656 
L 168.728691 199.57057 
L 168.802987 199.57057 
L 168.913855 196.470838 
L 169.060616 196.470838 
L 169.169902 191.82124 
L 169.242389 191.82124 
L 169.242389 190.271374 
L 169.458103 190.271374 
L 169.529433 185.621776 
L 169.600479 185.621776 
L 169.706522 184.588532 
L 169.74173 184.588532 
L 169.84694 180.455556 
L 169.881873 180.455556 
L 169.986263 173.739469 
L 170.193232 173.739469 
L 170.295825 168.056627 
L 170.465514 168.056627 
L 170.566559 164.440273 
L 170.600114 164.440273 
L 170.600114 163.407029 
L 170.766951 163.407029 
L 170.833252 159.790675 
L 170.899308 159.790675 
L 170.932245 157.724187 
L 171.128599 157.724187 
L 171.128599 155.657699 
L 171.258314 155.657699 
L 171.290596 153.074589 
L 171.387094 153.074589 
L 171.451137 149.458235 
L 171.546774 149.458235 
L 171.546774 148.941613 
L 171.799331 148.941613 
L 171.861917 145.841881 
L 171.924284 145.841881 
L 171.924284 141.708904 
L 172.14087 141.708904 
L 172.14087 141.192282 
L 172.263464 141.192282 
L 172.354862 139.642416 
L 172.415534 139.642416 
L 172.445794 133.959574 
L 172.566321 133.959574 
L 172.626281 125.693622 
L 172.804964 125.693622 
L 172.86413 122.077268 
L 173.127979 122.077268 
L 173.186087 118.977536 
L 173.272895 118.977536 
L 173.359285 112.778072 
L 173.387988 112.778072 
L 173.445258 99.862521 
L 173.587634 99.862521 
L 173.615974 97.279411 
L 173.700724 97.279411 
L 173.785074 94.179679 
L 174.035761 94.179679 
L 174.090995 92.113191 
L 174.391766 92.113191 
L 174.391766 89.530081 
L 174.553714 89.530081 
L 174.607372 87.463593 
L 174.687558 87.463593 
L 174.740816 84.880483 
L 174.820407 84.880483 
L 174.820407 83.847239 
L 175.109244 83.847239 
L 175.213128 80.230885 
L 175.393486 80.230885 
L 175.495736 79.197641 
L 175.521207 79.197641 
L 175.546642 75.581286 
L 175.648022 75.581286 
L 175.648022 72.998176 
L 175.898983 72.998176 
L 175.923886 68.8652 
L 176.023153 68.8652 
L 176.047884 67.315334 
L 176.220049 67.315334 
L 176.293329 63.69898 
L 176.511384 63.69898 
L 176.583481 61.632492 
L 176.679161 61.632492 
L 176.774331 57.499516 
L 176.845377 57.499516 
L 176.892585 55.433028 
L 176.963163 55.433028 
L 176.963163 52.333296 
L 177.103489 52.333296 
L 177.173241 49.233564 
L 177.403801 49.233564 
L 177.472393 47.167076 
L 177.517975 47.167076 
L 177.563441 44.583966 
L 177.676602 44.583966 
L 177.766618 39.417745 
L 177.878504 39.417745 
L 177.878504 38.901123 
L 177.989693 38.901123 
L 178.011848 37.351257 
L 178.556983 37.351257 
L 178.664042 34.768147 
L 358.8 34.768147 
L 358.8 34.768147 
" style="fill:none;stroke:#ff00ff;stroke-linecap:square;stroke-width:1.5;"/>
   </g>
   <g id="line2d_29">
    <defs>
     <path d="M -0 8.485281 
L 5.091169 0 
L 0 -8.485281 
L -5.091169 -0 
z
" id="m748c314ed5" style="stroke:#ff00ff;stroke-linejoin:miter;stroke-width:1.5;"/>
    </defs>
    <g>
     <use style="fill:none;stroke:#ff00ff;stroke-linejoin:miter;stroke-width:1.5;" x="116.630812" xlink:href="#m748c314ed5" y="297.728753"/>
     <use style="fill:none;stroke:#ff00ff;stroke-linejoin:miter;stroke-width:1.5;" x="167.214525" xlink:href="#m748c314ed5" y="221.785317"/>
     <use style="fill:none;stroke:#ff00ff;stroke-linejoin:miter;stroke-width:1.5;" x="175.213128" xlink:href="#m748c314ed5" y="82.297373"/>
     <use style="fill:none;stroke:#ff00ff;stroke-linejoin:miter;stroke-width:1.5;" x="178.664042" xlink:href="#m748c314ed5" y="35.801391"/>
     <use style="fill:none;stroke:#ff00ff;stroke-linejoin:miter;stroke-width:1.5;" x="178.664042" xlink:href="#m748c314ed5" y="34.768147"/>
     <use style="fill:none;stroke:#ff00ff;stroke-linejoin:miter;stroke-width:1.5;" x="358.8" xlink:href="#m748c314ed5" y="34.768147"/>
    </g>
   </g>
   <g id="line2d_30"/>
   <g id="line2d_31">
    <defs>
     <path d="M 0 1.5 
C 0.397805 1.5 0.77937 1.341951 1.06066 1.06066 
C 1.341951 0.77937 1.5 0.397805 1.5 0 
C 1.5 -0.397805 1.341951 -0.77937 1.06066 -1.06066 
C 0.77937 -1.341951 0.397805 -1.5 0 -1.5 
C -0.397805 -1.5 -0.77937 -1.341951 -1.06066 -1.06066 
C -1.341951 -0.77937 -1.5 -0.397805 -1.5 0 
C -1.5 0.397805 -1.341951 0.77937 -1.06066 1.06066 
C -0.77937 1.341951 -0.397805 1.5 0 1.5 
z
" id="me4ae479adf" style="stroke:#ffa500;"/>
    </defs>
    <g>
     <use style="fill:#ffa500;stroke:#ffa500;" x="277.551227" xlink:href="#me4ae479adf" y="34.768147"/>
     <use style="fill:#ffa500;stroke:#ffa500;" x="277.551227" xlink:href="#me4ae479adf" y="34.768147"/>
    </g>
   </g>
   <g id="line2d_32">
    <path d="M 58.414766 298.245375 
L 58.414766 292.045911 
L 70.8 292.045911 
L 70.8 291.012667 
L 99.557623 291.012667 
L 99.557623 289.462801 
L 104.245578 289.462801 
L 104.245578 288.946179 
L 106.802521 288.946179 
L 106.802521 288.429557 
L 107.955702 288.429557 
L 107.955702 287.912935 
L 110.060263 287.912935 
L 110.060263 287.396313 
L 111.942857 287.396313 
L 111.942857 286.363069 
L 113.64587 286.363069 
L 113.64587 285.846447 
L 115.2006 285.846447 
L 115.2006 284.813203 
L 116.630812 284.813203 
L 116.630812 284.296581 
L 117.305161 284.296581 
L 117.305161 283.263337 
L 118.581998 283.263337 
L 118.581998 281.196849 
L 121.424184 281.196849 
L 121.424184 280.680226 
L 121.942137 280.680226 
L 121.942137 280.163604 
L 122.445497 280.163604 
L 122.445497 278.613738 
L 122.935065 278.613738 
L 122.935065 278.097116 
L 123.411577 278.097116 
L 123.411577 277.580494 
L 123.87571 277.580494 
L 123.87571 277.063872 
L 125.620325 277.063872 
L 125.620325 276.54725 
L 126.031105 276.54725 
L 126.031105 276.030628 
L 126.825374 276.030628 
L 126.825374 275.514006 
L 127.954262 275.514006 
L 127.954262 274.997384 
L 130.656474 274.997384 
L 130.656474 272.930896 
L 133.809418 272.930896 
L 133.809418 272.414274 
L 136.260944 272.414274 
L 136.260944 271.897652 
L 139.403779 271.897652 
L 139.403779 271.38103 
L 140.156232 271.38103 
L 140.156232 269.831164 
L 141.40128 269.831164 
L 141.40128 269.314542 
L 144.399433 269.314542 
L 144.399433 267.248054 
L 144.544115 267.248054 
L 144.544115 266.21481 
L 146.194652 266.21481 
L 146.194652 265.181566 
L 153.700403 265.181566 
L 153.700403 264.148322 
L 154.460863 264.148322 
L 154.460863 263.6317 
L 157.215245 263.6317 
L 157.215245 261.565212 
L 157.5663 261.565212 
L 157.5663 261.04859 
L 157.773669 261.04859 
L 157.773669 259.498724 
L 159.16154 259.498724 
L 159.16154 256.915614 
L 161.031412 256.915614 
L 161.031412 256.398992 
L 162.408682 256.398992 
L 162.408682 255.88237 
L 164.270055 255.88237 
L 164.270055 252.266016 
L 167.45599 252.266016 
L 167.45599 250.71615 
L 168.691427 250.71615 
L 168.691427 250.199528 
L 168.950658 250.199528 
L 168.950658 249.682906 
L 169.529433 249.682906 
L 169.529433 248.13304 
L 170.499259 248.13304 
L 170.600114 246.583173 
L 171.641902 246.583173 
L 171.641902 245.549929 
L 173.186087 245.549929 
L 173.21507 241.416953 
L 173.615974 241.416953 
L 173.615974 237.283977 
L 175.393486 237.283977 
L 175.393486 236.767355 
L 175.622731 236.767355 
L 175.622731 235.217489 
L 176.36631 235.217489 
L 176.36631 234.700867 
L 176.939668 234.700867 
L 176.939668 234.184245 
L 209.942137 234.184245 
L 209.942137 233.667623 
L 210.086161 233.667623 
L 210.086161 233.151001 
L 210.218083 233.151001 
L 210.2582 232.117757 
L 210.374392 232.117757 
L 210.374392 231.084513 
L 210.497024 231.084513 
L 210.497024 230.567891 
L 210.789366 230.567891 
L 210.891621 227.468159 
L 211.087437 227.468159 
L 211.188005 225.918293 
L 211.215649 225.918293 
L 211.215649 223.335183 
L 211.353229 223.335183 
L 211.377197 221.785317 
L 211.46594 221.785317 
L 211.547468 218.685585 
L 211.598235 218.685585 
L 211.652227 215.585853 
L 211.746323 215.585853 
L 211.76977 213.519365 
L 211.863251 213.519365 
L 211.863251 212.48612 
L 211.976109 212.48612 
L 212.081682 207.3199 
L 212.3267 207.3199 
L 212.423775 204.73679 
L 212.452795 204.73679 
L 212.501056 203.703546 
L 222.332932 203.703546 
L 222.332932 203.186924 
L 222.679825 203.186924 
L 222.775905 199.053948 
L 222.831864 199.053948 
L 222.831864 198.537326 
L 222.943259 198.537326 
L 223.014761 191.82124 
L 223.073534 191.82124 
L 223.171063 187.171642 
L 223.22051 187.171642 
L 223.282128 183.555288 
L 223.341782 183.555288 
L 223.397745 177.355823 
L 223.51262 177.355823 
L 223.621588 174.256091 
L 229.633959 174.256091 
L 229.633959 173.739469 
L 229.786039 173.739469 
L 229.888331 171.672981 
L 229.953782 171.672981 
L 230.057527 165.473517 
L 230.117567 165.473517 
L 230.159476 159.274053 
L 230.240619 159.274053 
L 230.349817 153.074589 
L 230.360464 153.074589 
L 230.424211 150.491479 
L 234.905297 150.491479 
L 234.990377 147.908369 
L 235.078687 147.908369 
L 235.163851 141.708904 
L 235.209887 141.708904 
L 235.317744 134.476196 
L 235.339237 134.476196 
L 235.339237 132.92633 
L 238.840841 132.92633 
L 238.943548 129.309976 
L 238.962558 129.309976 
L 239.025291 124.660378 
L 239.077644 124.660378 
L 239.144316 120.527402 
L 242.031506 120.527402 
L 242.121132 115.877804 
L 242.165777 115.877804 
L 242.269315 109.678339 
L 242.277815 109.678339 
L 242.346879 107.611851 
L 244.793799 107.611851 
L 244.881112 104.512119 
L 244.909947 104.512119 
L 245.016495 96.246167 
L 245.036792 96.246167 
L 245.044593 95.212923 
L 247.161223 95.212923 
L 247.262999 93.663057 
L 247.275853 93.663057 
L 247.356435 87.463593 
L 249.22957 87.463593 
L 249.332523 85.397105 
L 249.341928 85.397105 
L 249.447083 80.747507 
L 251.122404 80.747507 
L 251.227179 78.164397 
L 251.241886 78.164397 
L 251.27897 76.614531 
L 252.847234 76.614531 
L 252.933369 71.964932 
L 252.958427 71.964932 
L 252.958427 71.44831 
L 254.423816 71.44831 
L 254.493502 66.28209 
L 255.812835 66.28209 
L 255.885823 62.149114 
L 257.129401 62.149114 
L 257.197214 56.982894 
L 258.394784 56.982894 
L 258.415461 55.433028 
L 259.532597 55.433028 
L 259.579679 53.36654 
L 260.560867 53.36654 
L 260.637066 49.233564 
L 261.578774 49.233564 
L 261.647682 48.20032 
L 262.574192 48.20032 
L 262.610023 45.61721 
L 263.501717 45.61721 
L 263.520399 44.067344 
L 264.34131 44.067344 
L 264.386631 41.484233 
L 265.196316 41.484233 
L 265.225412 39.934367 
L 265.961061 39.934367 
L 265.961061 39.417745 
L 267.446107 39.417745 
L 267.446107 38.901123 
L 268.179419 38.901123 
L 268.179419 38.384501 
L 269.445767 38.384501 
L 269.495722 37.351257 
L 271.278996 37.351257 
L 271.308073 36.318013 
L 272.407461 36.318013 
L 272.407461 35.801391 
L 274.466444 35.801391 
L 274.466444 35.284769 
L 277.551227 35.284769 
L 277.551227 34.768147 
L 358.8 34.768147 
L 358.8 34.768147 
" style="fill:none;stroke:#ffa500;stroke-linecap:square;stroke-width:1.5;"/>
   </g>
   <g id="line2d_33">
    <defs>
     <path d="M 0 -6 
L -1.347084 -1.854102 
L -5.706339 -1.854102 
L -2.179628 0.708204 
L -3.526712 4.854102 
L -0 2.291796 
L 3.526712 4.854102 
L 2.179628 0.708204 
L 5.706339 -1.854102 
L 1.347084 -1.854102 
z
" id="m3216fcaf15" style="stroke:#ffa500;stroke-linejoin:bevel;stroke-width:1.5;"/>
    </defs>
    <g>
     <use style="fill:none;stroke:#ffa500;stroke-linejoin:bevel;stroke-width:1.5;" x="123.87571" xlink:href="#m3216fcaf15" y="277.063872"/>
     <use style="fill:none;stroke:#ffa500;stroke-linejoin:bevel;stroke-width:1.5;" x="211.598235" xlink:href="#m3216fcaf15" y="218.168963"/>
     <use style="fill:none;stroke:#ffa500;stroke-linejoin:bevel;stroke-width:1.5;" x="242.269315" xlink:href="#m3216fcaf15" y="109.678339"/>
     <use style="fill:none;stroke:#ffa500;stroke-linejoin:bevel;stroke-width:1.5;" x="277.551227" xlink:href="#m3216fcaf15" y="35.284769"/>
     <use style="fill:none;stroke:#ffa500;stroke-linejoin:bevel;stroke-width:1.5;" x="277.551227" xlink:href="#m3216fcaf15" y="34.768147"/>
     <use style="fill:none;stroke:#ffa500;stroke-linejoin:bevel;stroke-width:1.5;" x="358.8" xlink:href="#m3216fcaf15" y="34.768147"/>
    </g>
   </g>
   <g id="line2d_34"/>
   <g id="line2d_35">
    <path clip-path="url(#p8bea5ff292)" d="M 209.87527 234.184245 
" style="fill:none;stroke:#ffa500;stroke-linecap:square;stroke-width:1.5;"/>
    <defs>
     <path d="M -12 12 
L 12 -12 
M -12 -12 
L 12 12 
" id="m4c5541bf72" style="stroke:#ffa500;stroke-width:3;"/>
    </defs>
    <g clip-path="url(#p8bea5ff292)">
     <use style="fill:#ffa500;stroke:#ffa500;stroke-width:3;" x="209.87527" xlink:href="#m4c5541bf72" y="234.184245"/>
    </g>
   </g>
   <g id="line2d_36">
    <defs>
     <path d="M 0 1.5 
C 0.397805 1.5 0.77937 1.341951 1.06066 1.06066 
C 1.341951 0.77937 1.5 0.397805 1.5 0 
C 1.5 -0.397805 1.341951 -0.77937 1.06066 -1.06066 
C 0.77937 -1.341951 0.397805 -1.5 0 -1.5 
C -0.397805 -1.5 -0.77937 -1.341951 -1.06066 -1.06066 
C -1.341951 -0.77937 -1.5 -0.397805 -1.5 0 
C -1.5 0.397805 -1.341951 0.77937 -1.06066 1.06066 
C -0.77937 1.341951 -0.397805 1.5 0 1.5 
z
" id="macf65f4478" style="stroke:#6495ed;"/>
    </defs>
    <g>
     <use style="fill:#6495ed;stroke:#6495ed;" x="293.711775" xlink:href="#macf65f4478" y="34.768147"/>
     <use style="fill:#6495ed;stroke:#6495ed;" x="293.711775" xlink:href="#macf65f4478" y="34.768147"/>
    </g>
   </g>
   <g id="line2d_37">
    <path d="M 58.414766 298.245375 
L 58.414766 294.112399 
L 70.8 294.112399 
L 70.8 293.595777 
L 83.185234 293.595777 
L 83.185234 291.529289 
L 90.430132 291.529289 
L 90.430132 290.496045 
L 97.675029 290.496045 
L 97.675029 288.946179 
L 99.557623 288.946179 
L 99.557623 287.396313 
L 102.815366 287.396313 
L 102.815366 286.879691 
L 105.569748 286.879691 
L 105.569748 286.363069 
L 115.2006 286.363069 
L 115.2006 285.329825 
L 116.630812 285.329825 
L 116.630812 284.813203 
L 117.305161 284.813203 
L 117.305161 284.296581 
L 119.187755 284.296581 
L 119.187755 282.746715 
L 120.340936 282.746715 
L 120.340936 282.230093 
L 121.424184 282.230093 
L 121.424184 280.680226 
L 121.942137 280.680226 
L 121.942137 279.646982 
L 122.935065 279.646982 
L 122.935065 279.13036 
L 125.620325 279.13036 
L 125.620325 278.613738 
L 126.432652 278.613738 
L 126.432652 276.54725 
L 128.315246 276.54725 
L 128.315246 274.997384 
L 128.669082 274.997384 
L 128.669082 274.480762 
L 134.830731 274.480762 
L 134.830731 272.414274 
L 135.796811 272.414274 
L 135.796811 271.38103 
L 136.260944 271.38103 
L 136.260944 270.864408 
L 136.935292 270.864408 
L 136.935292 269.314542 
L 138.212129 269.314542 
L 138.212129 268.281298 
L 145.929935 268.281298 
L 145.929935 267.764676 
L 146.966058 267.764676 
L 146.966058 266.731432 
L 147.825858 266.731432 
L 147.825858 266.21481 
L 150.286606 266.21481 
L 150.286606 265.698188 
L 150.902809 265.698188 
L 150.902809 265.181566 
L 152.1692 265.181566 
L 152.1692 262.598456 
L 152.72473 262.598456 
L 152.72473 261.565212 
L 154.210955 261.565212 
L 154.210955 260.015346 
L 156.417753 260.015346 
L 156.417753 258.982102 
L 157.001253 258.982102 
L 157.001253 257.948858 
L 158.969752 257.948858 
L 158.969752 257.432236 
L 160.211092 257.432236 
L 160.211092 256.398992 
L 160.742745 256.398992 
L 160.742745 255.365748 
L 161.031412 255.365748 
L 161.031412 254.849126 
L 161.539544 254.849126 
L 161.539544 252.266016 
L 164.64823 252.266016 
L 164.64823 251.232772 
L 165.426222 251.232772 
L 165.426222 250.71615 
L 166.342737 250.71615 
L 166.342737 248.13304 
L 167.615172 248.13304 
L 167.615172 247.616418 
L 167.890374 247.616418 
L 167.890374 244.516685 
L 171.387094 244.516685 
L 171.387094 244.000063 
L 173.445258 244.000063 
L 173.445258 242.966819 
L 174.173527 242.966819 
L 174.173527 240.900331 
L 210.001364 240.900331 
L 210.001364 239.867087 
L 210.141247 239.867087 
L 210.250912 237.283977 
L 210.42138 237.283977 
L 210.42138 236.767355 
L 210.568769 236.767355 
L 210.650921 234.184245 
L 210.778754 234.184245 
L 210.88107 229.534647 
L 210.982802 229.534647 
L 211.031708 226.951537 
L 211.222553 226.951537 
L 211.24325 225.918293 
L 211.373775 225.918293 
L 211.479554 223.335183 
L 211.503353 223.335183 
L 211.503353 218.685585 
L 211.823247 218.685585 
L 211.823247 218.168963 
L 212.147349 218.168963 
L 212.147349 216.619097 
L 222.574085 216.619097 
L 222.652538 214.035987 
L 222.717956 214.035987 
L 222.746954 212.48612 
L 222.831864 212.48612 
L 222.848078 209.386388 
L 223.025461 209.386388 
L 223.093083 204.73679 
L 223.261026 204.73679 
L 223.261026 204.220168 
L 223.432634 204.220168 
L 223.432634 201.637058 
L 229.631495 201.637058 
L 229.631495 201.120436 
L 229.82995 201.120436 
L 229.899256 195.954216 
L 230.018994 195.954216 
L 230.064742 191.304618 
L 230.295302 191.304618 
L 230.295302 188.204886 
L 234.689416 188.204886 
L 234.689416 187.688264 
L 234.875928 187.688264 
L 234.94194 184.588532 
L 235.060514 184.588532 
L 235.066877 179.422312 
L 235.241413 179.422312 
L 235.241413 178.90569 
L 238.817282 178.90569 
L 238.914996 175.289335 
L 238.942817 175.289335 
L 239.039849 167.540005 
L 239.111011 167.540005 
L 239.111011 166.506761 
L 242.044425 166.506761 
L 242.149278 163.923651 
L 242.16822 163.923651 
L 242.172495 162.373785 
L 242.28995 162.373785 
L 242.28995 160.823919 
L 244.776918 160.823919 
L 244.886883 153.074589 
L 244.987831 153.074589 
L 244.987831 150.491479 
L 247.109885 150.491479 
L 247.179687 146.358503 
L 247.225304 146.358503 
L 247.331292 142.742148 
L 249.244373 142.742148 
L 249.323933 134.992818 
L 249.402732 134.992818 
L 249.402732 133.442952 
L 251.137198 133.442952 
L 251.187776 129.309976 
L 252.80519 129.309976 
L 252.875433 124.143756 
L 252.940054 124.143756 
L 252.940054 122.59389 
L 254.368055 122.59389 
L 254.476643 118.460914 
L 255.777227 118.460914 
L 255.836724 116.394426 
L 255.891491 116.394426 
L 255.891491 115.361182 
L 257.096324 115.361182 
L 257.202481 112.26145 
L 258.324699 112.26145 
L 258.423823 107.611851 
L 259.488634 107.611851 
L 259.566997 103.478875 
L 260.569592 103.478875 
L 260.599443 100.379143 
L 261.572178 100.379143 
L 261.654867 96.246167 
L 262.535555 96.246167 
L 262.576336 93.663057 
L 263.452607 93.663057 
L 263.524096 87.463593 
L 264.354901 87.463593 
L 264.356136 85.913727 
L 265.160596 85.913727 
L 265.183687 83.847239 
L 265.968478 83.847239 
L 266.005677 82.297373 
L 267.429923 82.297373 
L 267.487169 77.647775 
L 268.137207 77.647775 
L 268.184261 74.03142 
L 268.809858 74.03142 
L 268.855176 70.415066 
L 269.450676 70.415066 
L 269.501808 65.765468 
L 270.080706 65.765468 
L 270.125854 62.149114 
L 270.688038 62.149114 
L 270.704988 60.082626 
L 271.265938 60.082626 
L 271.289053 58.016138 
L 271.838736 58.016138 
L 271.845814 56.982894 
L 272.387438 56.982894 
L 272.402851 55.433028 
L 272.930604 55.433028 
L 272.955807 53.36654 
L 273.451277 53.36654 
L 273.471732 52.333296 
L 273.953288 52.333296 
L 273.953288 51.816674 
L 274.42552 51.816674 
L 274.460933 49.750186 
L 274.935727 49.750186 
L 274.935727 49.233564 
L 275.827631 49.233564 
L 275.849065 46.650454 
L 276.270699 46.650454 
L 276.270699 46.133832 
L 276.700304 46.133832 
L 276.700923 45.100588 
L 277.108591 45.100588 
L 277.120427 43.550722 
L 277.919685 43.550722 
L 277.927859 42.517478 
L 278.32233 42.517478 
L 278.32233 42.000855 
L 278.703381 42.000855 
L 278.703381 41.484233 
L 279.070513 41.484233 
L 279.081815 40.450989 
L 279.439131 40.450989 
L 279.439131 39.934367 
L 280.849039 39.934367 
L 280.849039 39.417745 
L 281.182437 39.417745 
L 281.182437 38.901123 
L 281.843934 38.901123 
L 281.843934 38.384501 
L 282.454667 38.384501 
L 282.457101 37.351257 
L 282.761608 37.351257 
L 282.761608 36.834635 
L 283.658421 36.834635 
L 283.658421 36.318013 
L 283.932318 36.318013 
L 283.932318 35.801391 
L 286.795785 35.801391 
L 286.795785 35.284769 
L 293.711775 35.284769 
L 293.711775 34.768147 
L 358.8 34.768147 
L 358.8 34.768147 
" style="fill:none;stroke:#6495ed;stroke-linecap:square;stroke-width:1.5;"/>
   </g>
   <g id="line2d_38">
    <defs>
     <path d="M -0 6 
L 6 -6 
L -6 -6 
z
" id="mcbd12c326c" style="stroke:#6495ed;stroke-linejoin:miter;stroke-width:1.5;"/>
    </defs>
    <g>
     <use style="fill:none;stroke:#6495ed;stroke-linejoin:miter;stroke-width:1.5;" x="174.173527" xlink:href="#mcbd12c326c" y="240.900331"/>
     <use style="fill:none;stroke:#6495ed;stroke-linejoin:miter;stroke-width:1.5;" x="242.172495" xlink:href="#mcbd12c326c" y="163.407029"/>
     <use style="fill:none;stroke:#6495ed;stroke-linejoin:miter;stroke-width:1.5;" x="268.827724" xlink:href="#mcbd12c326c" y="71.964932"/>
     <use style="fill:none;stroke:#6495ed;stroke-linejoin:miter;stroke-width:1.5;" x="293.711775" xlink:href="#mcbd12c326c" y="34.768147"/>
     <use style="fill:none;stroke:#6495ed;stroke-linejoin:miter;stroke-width:1.5;" x="293.711775" xlink:href="#mcbd12c326c" y="34.768147"/>
     <use style="fill:none;stroke:#6495ed;stroke-linejoin:miter;stroke-width:1.5;" x="358.8" xlink:href="#mcbd12c326c" y="34.768147"/>
    </g>
   </g>
   <g id="line2d_39"/>
   <g id="line2d_40">
    <path clip-path="url(#p8bea5ff292)" d="M 209.87527 240.900331 
" style="fill:none;stroke:#6495ed;stroke-linecap:square;stroke-width:1.5;"/>
    <defs>
     <path d="M -12 12 
L 12 -12 
M -12 -12 
L 12 12 
" id="m90de80393a" style="stroke:#6495ed;stroke-width:3;"/>
    </defs>
    <g clip-path="url(#p8bea5ff292)">
     <use style="fill:#6495ed;stroke:#6495ed;stroke-width:3;" x="209.87527" xlink:href="#m90de80393a" y="240.900331"/>
    </g>
   </g>
   <g id="line2d_41">
    <defs>
     <path d="M 0 1.5 
C 0.397805 1.5 0.77937 1.341951 1.06066 1.06066 
C 1.341951 0.77937 1.5 0.397805 1.5 0 
C 1.5 -0.397805 1.341951 -0.77937 1.06066 -1.06066 
C 0.77937 -1.341951 0.397805 -1.5 0 -1.5 
C -0.397805 -1.5 -0.77937 -1.341951 -1.06066 -1.06066 
C -1.341951 -0.77937 -1.5 -0.397805 -1.5 0 
C -1.5 0.397805 -1.341951 0.77937 -1.06066 1.06066 
C -0.77937 1.341951 -0.397805 1.5 0 1.5 
z
" id="me1708a624c" style="stroke:#ff0000;"/>
    </defs>
    <g>
     <use style="fill:#ff0000;stroke:#ff0000;" x="147.584393" xlink:href="#me1708a624c" y="34.768147"/>
     <use style="fill:#ff0000;stroke:#ff0000;" x="147.584393" xlink:href="#me1708a624c" y="34.768147"/>
    </g>
   </g>
   <g id="line2d_42">
    <path d="M 58.414766 298.245375 
L 58.414766 287.912935 
L 110.060263 287.912935 
L 110.060263 287.396313 
L 111.942857 287.396313 
L 111.942857 286.879691 
L 117.305161 286.879691 
L 117.305161 286.363069 
L 117.954982 286.363069 
L 117.954982 285.329825 
L 118.581998 285.329825 
L 118.581998 283.779959 
L 119.773647 283.779959 
L 119.773647 282.230093 
L 121.424184 282.230093 
L 121.424184 279.646982 
L 122.445497 279.646982 
L 122.445497 277.063872 
L 122.935065 277.063872 
L 122.935065 276.54725 
L 123.411577 276.54725 
L 123.411577 276.030628 
L 123.87571 276.030628 
L 123.87571 274.997384 
L 125.620325 274.997384 
L 125.620325 273.96414 
L 126.031105 273.96414 
L 126.031105 272.930896 
L 126.432652 272.930896 
L 126.432652 271.897652 
L 127.209649 271.897652 
L 127.209649 271.38103 
L 127.954262 271.38103 
L 127.954262 270.864408 
L 128.315246 270.864408 
L 128.315246 267.764676 
L 128.669082 267.764676 
L 128.669082 265.181566 
L 129.016046 265.181566 
L 129.016046 264.148322 
L 130.967232 264.148322 
L 130.967232 249.682906 
L 131.272677 249.682906 
L 131.272677 248.649662 
L 131.572989 248.649662 
L 131.572989 244.516685 
L 131.868336 244.516685 
L 131.868336 234.700867 
L 132.726171 234.700867 
L 132.726171 232.634379 
L 133.276002 232.634379 
L 133.276002 230.567891 
L 133.544701 230.567891 
L 133.544701 193.371106 
L 133.809418 193.371106 
L 133.809418 192.854484 
L 134.070271 192.854484 
L 134.070271 192.337862 
L 134.830731 192.337862 
L 134.830731 191.82124 
L 135.077192 191.82124 
L 135.077192 179.422312 
L 135.3203 179.422312 
L 135.3203 178.90569 
L 136.488566 178.90569 
L 136.488566 176.839201 
L 136.713325 176.839201 
L 136.713325 173.739469 
L 137.154536 173.739469 
L 137.154536 159.274053 
L 137.585114 159.274053 
L 137.585114 158.240809 
L 138.005559 158.240809 
L 138.005559 140.67566 
L 138.212129 140.67566 
L 138.212129 128.276732 
L 138.416339 128.276732 
L 138.416339 118.460914 
L 138.817886 118.460914 
L 138.817886 106.061985 
L 139.210608 106.061985 
L 139.210608 87.980215 
L 139.971068 87.980215 
L 139.971068 85.913727 
L 140.156232 85.913727 
L 140.156232 74.548042 
L 140.878274 74.548042 
L 140.878274 64.215602 
L 141.741636 64.215602 
L 141.741636 63.69898 
L 143.041708 63.69898 
L 143.041708 51.300052 
L 143.197763 51.300052 
L 143.197763 50.78343 
L 144.544115 50.78343 
L 144.544115 50.266808 
L 147.584393 50.266808 
L 147.584393 34.768147 
L 358.8 34.768147 
" style="fill:none;stroke:#ff0000;stroke-linecap:square;stroke-width:1.5;"/>
   </g>
   <g id="line2d_43">
    <defs>
     <path d="M 0 -6 
L -5.196152 -3 
L -5.196152 3 
L -0 6 
L 5.196152 3 
L 5.196152 -3 
z
" id="mfa29706144" style="stroke:#ff0000;stroke-linejoin:miter;stroke-width:1.5;"/>
    </defs>
    <g>
     <use style="fill:none;stroke:#ff0000;stroke-linejoin:miter;stroke-width:1.5;" x="131.272677" xlink:href="#mfa29706144" y="248.649662"/>
     <use style="fill:none;stroke:#ff0000;stroke-linejoin:miter;stroke-width:1.5;" x="138.416339" xlink:href="#mfa29706144" y="128.276732"/>
     <use style="fill:none;stroke:#ff0000;stroke-linejoin:miter;stroke-width:1.5;" x="147.584393" xlink:href="#mfa29706144" y="50.266808"/>
     <use style="fill:none;stroke:#ff0000;stroke-linejoin:miter;stroke-width:1.5;" x="147.584393" xlink:href="#mfa29706144" y="34.768147"/>
     <use style="fill:none;stroke:#ff0000;stroke-linejoin:miter;stroke-width:1.5;" x="147.584393" xlink:href="#mfa29706144" y="34.768147"/>
     <use style="fill:none;stroke:#ff0000;stroke-linejoin:miter;stroke-width:1.5;" x="358.8" xlink:href="#mfa29706144" y="34.768147"/>
    </g>
   </g>
   <g id="line2d_44"/>
   <g id="line2d_45">
    <path d="M 358.8 34.768147 
L 390.48 292.97583 
" style="fill:none;stroke:#6495ed;stroke-linecap:square;stroke-width:1.5;"/>
    <g>
     <use style="fill:none;stroke:#6495ed;stroke-linejoin:miter;stroke-width:1.5;" x="358.8" xlink:href="#mcbd12c326c" y="34.768147"/>
     <use style="fill:none;stroke:#6495ed;stroke-linejoin:miter;stroke-width:1.5;" x="390.48" xlink:href="#mcbd12c326c" y="292.97583"/>
    </g>
   </g>
   <g id="line2d_46">
    <path d="M 358.8 34.768147 
L 390.48 229.741296 
" style="fill:none;stroke:#ffa500;stroke-linecap:square;stroke-width:1.5;"/>
    <g>
     <use style="fill:none;stroke:#ffa500;stroke-linejoin:bevel;stroke-width:1.5;" x="358.8" xlink:href="#m3216fcaf15" y="34.768147"/>
     <use style="fill:none;stroke:#ffa500;stroke-linejoin:bevel;stroke-width:1.5;" x="390.48" xlink:href="#m3216fcaf15" y="229.741296"/>
    </g>
   </g>
   <g id="line2d_47">
    <path d="M 358.8 34.768147 
L 390.48 166.506761 
" style="fill:none;stroke:#ff00ff;stroke-linecap:square;stroke-width:1.5;"/>
    <g>
     <use style="fill:none;stroke:#ff00ff;stroke-linejoin:miter;stroke-width:1.5;" x="358.8" xlink:href="#m748c314ed5" y="34.768147"/>
     <use style="fill:none;stroke:#ff00ff;stroke-linejoin:miter;stroke-width:1.5;" x="390.48" xlink:href="#m748c314ed5" y="166.506761"/>
    </g>
   </g>
   <g id="line2d_48">
    <path d="M 358.8 34.768147 
L 390.48 103.272226 
" style="fill:none;stroke:#000080;stroke-linecap:square;stroke-width:1.5;"/>
    <g>
     <use style="fill:none;stroke:#000080;stroke-width:1.5;" x="358.8" xlink:href="#m38bec75274" y="34.768147"/>
     <use style="fill:none;stroke:#000080;stroke-width:1.5;" x="390.48" xlink:href="#m38bec75274" y="103.272226"/>
    </g>
   </g>
   <g id="line2d_49">
    <path d="M 358.8 34.768147 
L 390.48 40.037692 
" style="fill:none;stroke:#ff0000;stroke-linecap:square;stroke-width:1.5;"/>
    <g>
     <use style="fill:none;stroke:#ff0000;stroke-linejoin:miter;stroke-width:1.5;" x="358.8" xlink:href="#mfa29706144" y="34.768147"/>
     <use style="fill:none;stroke:#ff0000;stroke-linejoin:miter;stroke-width:1.5;" x="390.48" xlink:href="#mfa29706144" y="40.037692"/>
    </g>
   </g>
   <g id="line2d_50">
    <path d="M 358.8 298.245375 
L 358.8 34.768147 
" style="fill:none;stroke:#000000;stroke-linecap:square;stroke-width:1.5;"/>
   </g>
   <g id="patch_3">
    <path d="M 70.8 298.245375 
L 70.8 32.133375 
" style="fill:none;stroke:#000000;stroke-linecap:square;stroke-linejoin:miter;stroke-width:0.8;"/>
   </g>
   <g id="patch_4">
    <path d="M 427.92 298.245375 
L 427.92 32.133375 
" style="fill:none;stroke:#000000;stroke-linecap:square;stroke-linejoin:miter;stroke-width:0.8;"/>
   </g>
   <g id="patch_5">
    <path d="M 70.8 298.245375 
L 427.92 298.245375 
" style="fill:none;stroke:#000000;stroke-linecap:square;stroke-linejoin:miter;stroke-width:0.8;"/>
   </g>
   <g id="patch_6">
    <path d="M 70.8 32.133375 
L 427.92 32.133375 
" style="fill:none;stroke:#000000;stroke-linecap:square;stroke-linejoin:miter;stroke-width:0.8;"/>
   </g>
   <g id="text_14">
    <!-- f4 -->
    <g transform="translate(396.24 297.114893)scale(0.15 -0.15)">
     <use xlink:href="#DejaVuSans-66"/>
     <use x="35.205078" xlink:href="#DejaVuSans-34"/>
    </g>
   </g>
   <g id="text_15">
    <!-- f3 -->
    <defs>
     <path d="M 40.578125 39.3125 
Q 47.65625 37.796875 51.625 33 
Q 55.609375 28.21875 55.609375 21.1875 
Q 55.609375 10.40625 48.1875 4.484375 
Q 40.765625 -1.421875 27.09375 -1.421875 
Q 22.515625 -1.421875 17.65625 -0.515625 
Q 12.796875 0.390625 7.625 2.203125 
L 7.625 11.71875 
Q 11.71875 9.328125 16.59375 8.109375 
Q 21.484375 6.890625 26.8125 6.890625 
Q 36.078125 6.890625 40.9375 10.546875 
Q 45.796875 14.203125 45.796875 21.1875 
Q 45.796875 27.640625 41.28125 31.265625 
Q 36.765625 34.90625 28.71875 34.90625 
L 20.21875 34.90625 
L 20.21875 43.015625 
L 29.109375 43.015625 
Q 36.375 43.015625 40.234375 45.921875 
Q 44.09375 48.828125 44.09375 54.296875 
Q 44.09375 59.90625 40.109375 62.90625 
Q 36.140625 65.921875 28.71875 65.921875 
Q 24.65625 65.921875 20.015625 65.03125 
Q 15.375 64.15625 9.8125 62.3125 
L 9.8125 71.09375 
Q 15.4375 72.65625 20.34375 73.4375 
Q 25.25 74.21875 29.59375 74.21875 
Q 40.828125 74.21875 47.359375 69.109375 
Q 53.90625 64.015625 53.90625 55.328125 
Q 53.90625 49.265625 50.4375 45.09375 
Q 46.96875 40.921875 40.578125 39.3125 
z
" id="DejaVuSans-33"/>
    </defs>
    <g transform="translate(396.24 233.880358)scale(0.15 -0.15)">
     <use xlink:href="#DejaVuSans-66"/>
     <use x="35.205078" xlink:href="#DejaVuSans-33"/>
    </g>
   </g>
   <g id="text_16">
    <!-- f2 -->
    <g transform="translate(396.24 170.645824)scale(0.15 -0.15)">
     <use xlink:href="#DejaVuSans-66"/>
     <use x="35.205078" xlink:href="#DejaVuSans-32"/>
    </g>
   </g>
   <g id="text_17">
    <!-- f1 -->
    <g transform="translate(396.24 107.411289)scale(0.15 -0.15)">
     <use xlink:href="#DejaVuSans-66"/>
     <use x="35.205078" xlink:href="#DejaVuSans-31"/>
    </g>
   </g>
   <g id="text_18">
    <!-- f5 -->
    <defs>
     <path d="M 10.796875 72.90625 
L 49.515625 72.90625 
L 49.515625 64.59375 
L 19.828125 64.59375 
L 19.828125 46.734375 
Q 21.96875 47.46875 24.109375 47.828125 
Q 26.265625 48.1875 28.421875 48.1875 
Q 40.625 48.1875 47.75 41.5 
Q 54.890625 34.8125 54.890625 23.390625 
Q 54.890625 11.625 47.5625 5.09375 
Q 40.234375 -1.421875 26.90625 -1.421875 
Q 22.3125 -1.421875 17.546875 -0.640625 
Q 12.796875 0.140625 7.71875 1.703125 
L 7.71875 11.625 
Q 12.109375 9.234375 16.796875 8.0625 
Q 21.484375 6.890625 26.703125 6.890625 
Q 35.15625 6.890625 40.078125 11.328125 
Q 45.015625 15.765625 45.015625 23.390625 
Q 45.015625 31 40.078125 35.4375 
Q 35.15625 39.890625 26.703125 39.890625 
Q 22.75 39.890625 18.8125 39.015625 
Q 14.890625 38.140625 10.796875 36.28125 
z
" id="DejaVuSans-35"/>
    </defs>
    <g transform="translate(396.24 44.176754)scale(0.15 -0.15)">
     <use xlink:href="#DejaVuSans-66"/>
     <use x="35.205078" xlink:href="#DejaVuSans-35"/>
    </g>
   </g>
   <g id="text_19">
    <!-- bbob -->
    <defs>
     <path d="M 48.6875 27.296875 
Q 48.6875 37.203125 44.609375 42.84375 
Q 40.53125 48.484375 33.40625 48.484375 
Q 26.265625 48.484375 22.1875 42.84375 
Q 18.109375 37.203125 18.109375 27.296875 
Q 18.109375 17.390625 22.1875 11.75 
Q 26.265625 6.109375 33.40625 6.109375 
Q 40.53125 6.109375 44.609375 11.75 
Q 48.6875 17.390625 48.6875 27.296875 
z
M 18.109375 46.390625 
Q 20.953125 51.265625 25.265625 53.625 
Q 29.59375 56 35.59375 56 
Q 45.5625 56 51.78125 48.09375 
Q 58.015625 40.1875 58.015625 27.296875 
Q 58.015625 14.40625 51.78125 6.484375 
Q 45.5625 -1.421875 35.59375 -1.421875 
Q 29.59375 -1.421875 25.265625 0.953125 
Q 20.953125 3.328125 18.109375 8.203125 
L 18.109375 0 
L 9.078125 0 
L 9.078125 75.984375 
L 18.109375 75.984375 
z
" id="DejaVuSans-62"/>
    </defs>
    <g transform="translate(74.3712 50.114612)scale(0.1666 -0.1666)">
     <use xlink:href="#DejaVuSans-62"/>
     <use x="63.476562" xlink:href="#DejaVuSans-62"/>
     <use x="126.953125" xlink:href="#DejaVuSans-6f"/>
     <use x="188.134766" xlink:href="#DejaVuSans-62"/>
    </g>
    <!-- Separable functions, 2-D -->
    <defs>
     <path d="M 53.515625 70.515625 
L 53.515625 60.890625 
Q 47.90625 63.578125 42.921875 64.890625 
Q 37.9375 66.21875 33.296875 66.21875 
Q 25.25 66.21875 20.875 63.09375 
Q 16.5 59.96875 16.5 54.203125 
Q 16.5 49.359375 19.40625 46.890625 
Q 22.3125 44.4375 30.421875 42.921875 
L 36.375 41.703125 
Q 47.40625 39.59375 52.65625 34.296875 
Q 57.90625 29 57.90625 20.125 
Q 57.90625 9.515625 50.796875 4.046875 
Q 43.703125 -1.421875 29.984375 -1.421875 
Q 24.8125 -1.421875 18.96875 -0.25 
Q 13.140625 0.921875 6.890625 3.21875 
L 6.890625 13.375 
Q 12.890625 10.015625 18.65625 8.296875 
Q 24.421875 6.59375 29.984375 6.59375 
Q 38.421875 6.59375 43.015625 9.90625 
Q 47.609375 13.234375 47.609375 19.390625 
Q 47.609375 24.75 44.3125 27.78125 
Q 41.015625 30.8125 33.5 32.328125 
L 27.484375 33.5 
Q 16.453125 35.6875 11.515625 40.375 
Q 6.59375 45.0625 6.59375 53.421875 
Q 6.59375 63.09375 13.40625 68.65625 
Q 20.21875 74.21875 32.171875 74.21875 
Q 37.3125 74.21875 42.625 73.28125 
Q 47.953125 72.359375 53.515625 70.515625 
z
" id="DejaVuSans-53"/>
     <path d="M 11.71875 12.40625 
L 22.015625 12.40625 
L 22.015625 4 
L 14.015625 -11.625 
L 7.71875 -11.625 
L 11.71875 4 
z
" id="DejaVuSans-2c"/>
     <path d="M 19.671875 64.796875 
L 19.671875 8.109375 
L 31.59375 8.109375 
Q 46.6875 8.109375 53.6875 14.9375 
Q 60.6875 21.78125 60.6875 36.53125 
Q 60.6875 51.171875 53.6875 57.984375 
Q 46.6875 64.796875 31.59375 64.796875 
z
M 9.8125 72.90625 
L 30.078125 72.90625 
Q 51.265625 72.90625 61.171875 64.09375 
Q 71.09375 55.28125 71.09375 36.53125 
Q 71.09375 17.671875 61.125 8.828125 
Q 51.171875 0 30.078125 0 
L 9.8125 0 
z
" id="DejaVuSans-44"/>
    </defs>
    <g transform="translate(74.3712 68.770168)scale(0.1666 -0.1666)">
     <use xlink:href="#DejaVuSans-53"/>
     <use x="63.476562" xlink:href="#DejaVuSans-65"/>
     <use x="125" xlink:href="#DejaVuSans-70"/>
     <use x="188.476562" xlink:href="#DejaVuSans-61"/>
     <use x="249.755859" xlink:href="#DejaVuSans-72"/>
     <use x="290.869141" xlink:href="#DejaVuSans-61"/>
     <use x="352.148438" xlink:href="#DejaVuSans-62"/>
     <use x="415.625" xlink:href="#DejaVuSans-6c"/>
     <use x="443.408203" xlink:href="#DejaVuSans-65"/>
     <use x="504.931641" xlink:href="#DejaVuSans-20"/>
     <use x="536.71875" xlink:href="#DejaVuSans-66"/>
     <use x="571.923828" xlink:href="#DejaVuSans-75"/>
     <use x="635.302734" xlink:href="#DejaVuSans-6e"/>
     <use x="698.681641" xlink:href="#DejaVuSans-63"/>
     <use x="753.662109" xlink:href="#DejaVuSans-74"/>
     <use x="792.871094" xlink:href="#DejaVuSans-69"/>
     <use x="820.654297" xlink:href="#DejaVuSans-6f"/>
     <use x="881.835938" xlink:href="#DejaVuSans-6e"/>
     <use x="945.214844" xlink:href="#DejaVuSans-73"/>
     <use x="997.314453" xlink:href="#DejaVuSans-2c"/>
     <use x="1029.101562" xlink:href="#DejaVuSans-20"/>
     <use x="1060.888672" xlink:href="#DejaVuSans-32"/>
     <use x="1124.511719" xlink:href="#DejaVuSans-2d"/>
     <use x="1160.595703" xlink:href="#DejaVuSans-44"/>
    </g>
    <!-- 51 targets in 100..1e-08 -->
    <g transform="translate(74.3712 87.425723)scale(0.1666 -0.1666)">
     <use xlink:href="#DejaVuSans-35"/>
     <use x="63.623047" xlink:href="#DejaVuSans-31"/>
     <use x="127.246094" xlink:href="#DejaVuSans-20"/>
     <use x="159.033203" xlink:href="#DejaVuSans-74"/>
     <use x="198.242188" xlink:href="#DejaVuSans-61"/>
     <use x="259.521484" xlink:href="#DejaVuSans-72"/>
     <use x="300.619141" xlink:href="#DejaVuSans-67"/>
     <use x="364.095703" xlink:href="#DejaVuSans-65"/>
     <use x="425.619141" xlink:href="#DejaVuSans-74"/>
     <use x="464.828125" xlink:href="#DejaVuSans-73"/>
     <use x="516.927734" xlink:href="#DejaVuSans-20"/>
     <use x="548.714844" xlink:href="#DejaVuSans-69"/>
     <use x="576.498047" xlink:href="#DejaVuSans-6e"/>
     <use x="639.876953" xlink:href="#DejaVuSans-20"/>
     <use x="671.664062" xlink:href="#DejaVuSans-31"/>
     <use x="735.287109" xlink:href="#DejaVuSans-30"/>
     <use x="798.910156" xlink:href="#DejaVuSans-30"/>
     <use x="862.533203" xlink:href="#DejaVuSans-2e"/>
     <use x="894.320312" xlink:href="#DejaVuSans-2e"/>
     <use x="926.107422" xlink:href="#DejaVuSans-31"/>
     <use x="989.730469" xlink:href="#DejaVuSans-65"/>
     <use x="1051.253906" xlink:href="#DejaVuSans-2d"/>
     <use x="1087.337891" xlink:href="#DejaVuSans-30"/>
     <use x="1150.960938" xlink:href="#DejaVuSans-38"/>
    </g>
    <!-- 15 instances -->
    <g transform="translate(74.3712 106.081279)scale(0.1666 -0.1666)">
     <use xlink:href="#DejaVuSans-31"/>
     <use x="63.623047" xlink:href="#DejaVuSans-35"/>
     <use x="127.246094" xlink:href="#DejaVuSans-20"/>
     <use x="159.033203" xlink:href="#DejaVuSans-69"/>
     <use x="186.816406" xlink:href="#DejaVuSans-6e"/>
     <use x="250.195312" xlink:href="#DejaVuSans-73"/>
     <use x="302.294922" xlink:href="#DejaVuSans-74"/>
     <use x="341.503906" xlink:href="#DejaVuSans-61"/>
     <use x="402.783203" xlink:href="#DejaVuSans-6e"/>
     <use x="466.162109" xlink:href="#DejaVuSans-63"/>
     <use x="521.142578" xlink:href="#DejaVuSans-65"/>
     <use x="582.666016" xlink:href="#DejaVuSans-73"/>
    </g>
   </g>
   <g id="text_20">
    <!-- v2.1 -->
    <g style="fill:#808080;" transform="translate(238.449063 293.504568)scale(0.1 -0.1)">
     <use xlink:href="#DejaVuSans-76"/>
     <use x="59.179688" xlink:href="#DejaVuSans-32"/>
     <use x="122.802734" xlink:href="#DejaVuSans-2e"/>
     <use x="154.589844" xlink:href="#DejaVuSans-31"/>
    </g>
   </g>
  </g>
 </g>
 <defs>
  <clipPath id="p8bea5ff292">
   <rect height="266.112" width="357.12" x="70.8" y="32.133375"/>
  </clipPath>
 </defs>
</svg>
