<?xml version="1.0" encoding="utf-8" standalone="no"?>
<!DOCTYPE svg PUBLIC "-//W3C//DTD SVG 1.1//EN"
  "http://www.w3.org/Graphics/SVG/1.1/DTD/svg11.dtd">
<!-- Created with matplotlib (http://matplotlib.org/) -->
<svg height="353pt" version="1.1" viewBox="0 0 438 353" width="438pt" xmlns="http://www.w3.org/2000/svg" xmlns:xlink="http://www.w3.org/1999/xlink">
 <defs>
  <style type="text/css">
*{stroke-linecap:butt;stroke-linejoin:round;}
  </style>
 </defs>
 <g id="figure_1">
  <g id="patch_1">
   <path d="M 0 353.22225 
L 438.62 353.22225 
L 438.62 0 
L 0 0 
z
" style="fill:#ffffff;"/>
  </g>
  <g id="axes_1">
   <g id="patch_2">
    <path d="M 70.8 298.245375 
L 427.92 298.245375 
L 427.92 32.133375 
L 70.8 32.133375 
z
" style="fill:#ffffff;"/>
   </g>
   <g id="matplotlib.axis_1">
    <g id="xtick_1">
     <g id="line2d_1">
      <path clip-path="url(#p1c6f9294e8)" d="M 70.8 298.245375 
L 70.8 32.133375 
" style="fill:none;stroke:#b0b0b0;stroke-linecap:square;stroke-width:0.8;"/>
     </g>
     <g id="line2d_2">
      <defs>
       <path d="M 0 0 
L 0 3.5 
" id="m91880884d0" style="stroke:#000000;stroke-width:0.8;"/>
      </defs>
      <g>
       <use style="stroke:#000000;stroke-width:0.8;" x="70.8" xlink:href="#m91880884d0" y="298.245375"/>
      </g>
     </g>
     <g id="text_1">
      <!-- 0 -->
      <defs>
       <path d="M 31.78125 66.40625 
Q 24.171875 66.40625 20.328125 58.90625 
Q 16.5 51.421875 16.5 36.375 
Q 16.5 21.390625 20.328125 13.890625 
Q 24.171875 6.390625 31.78125 6.390625 
Q 39.453125 6.390625 43.28125 13.890625 
Q 47.125 21.390625 47.125 36.375 
Q 47.125 51.421875 43.28125 58.90625 
Q 39.453125 66.40625 31.78125 66.40625 
z
M 31.78125 74.21875 
Q 44.046875 74.21875 50.515625 64.515625 
Q 56.984375 54.828125 56.984375 36.375 
Q 56.984375 17.96875 50.515625 8.265625 
Q 44.046875 -1.421875 31.78125 -1.421875 
Q 19.53125 -1.421875 13.0625 8.265625 
Q 6.59375 17.96875 6.59375 36.375 
Q 6.59375 54.828125 13.0625 64.515625 
Q 19.53125 74.21875 31.78125 74.21875 
z
" id="DejaVuSans-30"/>
      </defs>
      <g transform="translate(64.4375 320.44225)scale(0.2 -0.2)">
       <use xlink:href="#DejaVuSans-30"/>
      </g>
     </g>
    </g>
    <g id="xtick_2">
     <g id="line2d_3">
      <path clip-path="url(#p1c6f9294e8)" d="M 153.085714 298.245375 
L 153.085714 32.133375 
" style="fill:none;stroke:#b0b0b0;stroke-linecap:square;stroke-width:0.8;"/>
     </g>
     <g id="line2d_4">
      <g>
       <use style="stroke:#000000;stroke-width:0.8;" x="153.085714" xlink:href="#m91880884d0" y="298.245375"/>
      </g>
     </g>
     <g id="text_2">
      <!-- 2 -->
      <defs>
       <path d="M 19.1875 8.296875 
L 53.609375 8.296875 
L 53.609375 0 
L 7.328125 0 
L 7.328125 8.296875 
Q 12.9375 14.109375 22.625 23.890625 
Q 32.328125 33.6875 34.8125 36.53125 
Q 39.546875 41.84375 41.421875 45.53125 
Q 43.3125 49.21875 43.3125 52.78125 
Q 43.3125 58.59375 39.234375 62.25 
Q 35.15625 65.921875 28.609375 65.921875 
Q 23.96875 65.921875 18.8125 64.3125 
Q 13.671875 62.703125 7.8125 59.421875 
L 7.8125 69.390625 
Q 13.765625 71.78125 18.9375 73 
Q 24.125 74.21875 28.421875 74.21875 
Q 39.75 74.21875 46.484375 68.546875 
Q 53.21875 62.890625 53.21875 53.421875 
Q 53.21875 48.921875 51.53125 44.890625 
Q 49.859375 40.875 45.40625 35.40625 
Q 44.1875 33.984375 37.640625 27.21875 
Q 31.109375 20.453125 19.1875 8.296875 
z
" id="DejaVuSans-32"/>
      </defs>
      <g transform="translate(146.723214 320.44225)scale(0.2 -0.2)">
       <use xlink:href="#DejaVuSans-32"/>
      </g>
     </g>
    </g>
    <g id="xtick_3">
     <g id="line2d_5">
      <path clip-path="url(#p1c6f9294e8)" d="M 235.371429 298.245375 
L 235.371429 32.133375 
" style="fill:none;stroke:#b0b0b0;stroke-linecap:square;stroke-width:0.8;"/>
     </g>
     <g id="line2d_6">
      <g>
       <use style="stroke:#000000;stroke-width:0.8;" x="235.371429" xlink:href="#m91880884d0" y="298.245375"/>
      </g>
     </g>
     <g id="text_3">
      <!-- 4 -->
      <defs>
       <path d="M 37.796875 64.3125 
L 12.890625 25.390625 
L 37.796875 25.390625 
z
M 35.203125 72.90625 
L 47.609375 72.90625 
L 47.609375 25.390625 
L 58.015625 25.390625 
L 58.015625 17.1875 
L 47.609375 17.1875 
L 47.609375 0 
L 37.796875 0 
L 37.796875 17.1875 
L 4.890625 17.1875 
L 4.890625 26.703125 
z
" id="DejaVuSans-34"/>
      </defs>
      <g transform="translate(229.008929 320.44225)scale(0.2 -0.2)">
       <use xlink:href="#DejaVuSans-34"/>
      </g>
     </g>
    </g>
    <g id="xtick_4">
     <g id="line2d_7">
      <path clip-path="url(#p1c6f9294e8)" d="M 317.657143 298.245375 
L 317.657143 32.133375 
" style="fill:none;stroke:#b0b0b0;stroke-linecap:square;stroke-width:0.8;"/>
     </g>
     <g id="line2d_8">
      <g>
       <use style="stroke:#000000;stroke-width:0.8;" x="317.657143" xlink:href="#m91880884d0" y="298.245375"/>
      </g>
     </g>
     <g id="text_4">
      <!-- 6 -->
      <defs>
       <path d="M 33.015625 40.375 
Q 26.375 40.375 22.484375 35.828125 
Q 18.609375 31.296875 18.609375 23.390625 
Q 18.609375 15.53125 22.484375 10.953125 
Q 26.375 6.390625 33.015625 6.390625 
Q 39.65625 6.390625 43.53125 10.953125 
Q 47.40625 15.53125 47.40625 23.390625 
Q 47.40625 31.296875 43.53125 35.828125 
Q 39.65625 40.375 33.015625 40.375 
z
M 52.59375 71.296875 
L 52.59375 62.3125 
Q 48.875 64.0625 45.09375 64.984375 
Q 41.3125 65.921875 37.59375 65.921875 
Q 27.828125 65.921875 22.671875 59.328125 
Q 17.53125 52.734375 16.796875 39.40625 
Q 19.671875 43.65625 24.015625 45.921875 
Q 28.375 48.1875 33.59375 48.1875 
Q 44.578125 48.1875 50.953125 41.515625 
Q 57.328125 34.859375 57.328125 23.390625 
Q 57.328125 12.15625 50.6875 5.359375 
Q 44.046875 -1.421875 33.015625 -1.421875 
Q 20.359375 -1.421875 13.671875 8.265625 
Q 6.984375 17.96875 6.984375 36.375 
Q 6.984375 53.65625 15.1875 63.9375 
Q 23.390625 74.21875 37.203125 74.21875 
Q 40.921875 74.21875 44.703125 73.484375 
Q 48.484375 72.75 52.59375 71.296875 
z
" id="DejaVuSans-36"/>
      </defs>
      <g transform="translate(311.294643 320.44225)scale(0.2 -0.2)">
       <use xlink:href="#DejaVuSans-36"/>
      </g>
     </g>
    </g>
    <g id="xtick_5">
     <g id="line2d_9">
      <path clip-path="url(#p1c6f9294e8)" d="M 399.942857 298.245375 
L 399.942857 32.133375 
" style="fill:none;stroke:#b0b0b0;stroke-linecap:square;stroke-width:0.8;"/>
     </g>
     <g id="line2d_10">
      <g>
       <use style="stroke:#000000;stroke-width:0.8;" x="399.942857" xlink:href="#m91880884d0" y="298.245375"/>
      </g>
     </g>
     <g id="text_5">
      <!-- 8 -->
      <defs>
       <path d="M 31.78125 34.625 
Q 24.75 34.625 20.71875 30.859375 
Q 16.703125 27.09375 16.703125 20.515625 
Q 16.703125 13.921875 20.71875 10.15625 
Q 24.75 6.390625 31.78125 6.390625 
Q 38.8125 6.390625 42.859375 10.171875 
Q 46.921875 13.96875 46.921875 20.515625 
Q 46.921875 27.09375 42.890625 30.859375 
Q 38.875 34.625 31.78125 34.625 
z
M 21.921875 38.8125 
Q 15.578125 40.375 12.03125 44.71875 
Q 8.5 49.078125 8.5 55.328125 
Q 8.5 64.0625 14.71875 69.140625 
Q 20.953125 74.21875 31.78125 74.21875 
Q 42.671875 74.21875 48.875 69.140625 
Q 55.078125 64.0625 55.078125 55.328125 
Q 55.078125 49.078125 51.53125 44.71875 
Q 48 40.375 41.703125 38.8125 
Q 48.828125 37.15625 52.796875 32.3125 
Q 56.78125 27.484375 56.78125 20.515625 
Q 56.78125 9.90625 50.3125 4.234375 
Q 43.84375 -1.421875 31.78125 -1.421875 
Q 19.734375 -1.421875 13.25 4.234375 
Q 6.78125 9.90625 6.78125 20.515625 
Q 6.78125 27.484375 10.78125 32.3125 
Q 14.796875 37.15625 21.921875 38.8125 
z
M 18.3125 54.390625 
Q 18.3125 48.734375 21.84375 45.5625 
Q 25.390625 42.390625 31.78125 42.390625 
Q 38.140625 42.390625 41.71875 45.5625 
Q 45.3125 48.734375 45.3125 54.390625 
Q 45.3125 60.0625 41.71875 63.234375 
Q 38.140625 66.40625 31.78125 66.40625 
Q 25.390625 66.40625 21.84375 63.234375 
Q 18.3125 60.0625 18.3125 54.390625 
z
" id="DejaVuSans-38"/>
      </defs>
      <g transform="translate(393.580357 320.44225)scale(0.2 -0.2)">
       <use xlink:href="#DejaVuSans-38"/>
      </g>
     </g>
    </g>
    <g id="text_6">
     <!-- log10 of (# f-evals / dimension) -->
     <defs>
      <path d="M 9.421875 75.984375 
L 18.40625 75.984375 
L 18.40625 0 
L 9.421875 0 
z
" id="DejaVuSans-6c"/>
      <path d="M 30.609375 48.390625 
Q 23.390625 48.390625 19.1875 42.75 
Q 14.984375 37.109375 14.984375 27.296875 
Q 14.984375 17.484375 19.15625 11.84375 
Q 23.34375 6.203125 30.609375 6.203125 
Q 37.796875 6.203125 41.984375 11.859375 
Q 46.1875 17.53125 46.1875 27.296875 
Q 46.1875 37.015625 41.984375 42.703125 
Q 37.796875 48.390625 30.609375 48.390625 
z
M 30.609375 56 
Q 42.328125 56 49.015625 48.375 
Q 55.71875 40.765625 55.71875 27.296875 
Q 55.71875 13.875 49.015625 6.21875 
Q 42.328125 -1.421875 30.609375 -1.421875 
Q 18.84375 -1.421875 12.171875 6.21875 
Q 5.515625 13.875 5.515625 27.296875 
Q 5.515625 40.765625 12.171875 48.375 
Q 18.84375 56 30.609375 56 
z
" id="DejaVuSans-6f"/>
      <path d="M 45.40625 27.984375 
Q 45.40625 37.75 41.375 43.109375 
Q 37.359375 48.484375 30.078125 48.484375 
Q 22.859375 48.484375 18.828125 43.109375 
Q 14.796875 37.75 14.796875 27.984375 
Q 14.796875 18.265625 18.828125 12.890625 
Q 22.859375 7.515625 30.078125 7.515625 
Q 37.359375 7.515625 41.375 12.890625 
Q 45.40625 18.265625 45.40625 27.984375 
z
M 54.390625 6.78125 
Q 54.390625 -7.171875 48.1875 -13.984375 
Q 42 -20.796875 29.203125 -20.796875 
Q 24.46875 -20.796875 20.265625 -20.09375 
Q 16.0625 -19.390625 12.109375 -17.921875 
L 12.109375 -9.1875 
Q 16.0625 -11.328125 19.921875 -12.34375 
Q 23.78125 -13.375 27.78125 -13.375 
Q 36.625 -13.375 41.015625 -8.765625 
Q 45.40625 -4.15625 45.40625 5.171875 
L 45.40625 9.625 
Q 42.625 4.78125 38.28125 2.390625 
Q 33.9375 0 27.875 0 
Q 17.828125 0 11.671875 7.65625 
Q 5.515625 15.328125 5.515625 27.984375 
Q 5.515625 40.671875 11.671875 48.328125 
Q 17.828125 56 27.875 56 
Q 33.9375 56 38.28125 53.609375 
Q 42.625 51.21875 45.40625 46.390625 
L 45.40625 54.6875 
L 54.390625 54.6875 
z
" id="DejaVuSans-67"/>
      <path d="M 12.40625 8.296875 
L 28.515625 8.296875 
L 28.515625 63.921875 
L 10.984375 60.40625 
L 10.984375 69.390625 
L 28.421875 72.90625 
L 38.28125 72.90625 
L 38.28125 8.296875 
L 54.390625 8.296875 
L 54.390625 0 
L 12.40625 0 
z
" id="DejaVuSans-31"/>
      <path id="DejaVuSans-20"/>
      <path d="M 37.109375 75.984375 
L 37.109375 68.5 
L 28.515625 68.5 
Q 23.6875 68.5 21.796875 66.546875 
Q 19.921875 64.59375 19.921875 59.515625 
L 19.921875 54.6875 
L 34.71875 54.6875 
L 34.71875 47.703125 
L 19.921875 47.703125 
L 19.921875 0 
L 10.890625 0 
L 10.890625 47.703125 
L 2.296875 47.703125 
L 2.296875 54.6875 
L 10.890625 54.6875 
L 10.890625 58.5 
Q 10.890625 67.625 15.140625 71.796875 
Q 19.390625 75.984375 28.609375 75.984375 
z
" id="DejaVuSans-66"/>
      <path d="M 31 75.875 
Q 24.46875 64.65625 21.28125 53.65625 
Q 18.109375 42.671875 18.109375 31.390625 
Q 18.109375 20.125 21.3125 9.0625 
Q 24.515625 -2 31 -13.1875 
L 23.1875 -13.1875 
Q 15.875 -1.703125 12.234375 9.375 
Q 8.59375 20.453125 8.59375 31.390625 
Q 8.59375 42.28125 12.203125 53.3125 
Q 15.828125 64.359375 23.1875 75.875 
z
" id="DejaVuSans-28"/>
      <path d="M 51.125 44 
L 36.921875 44 
L 32.8125 27.6875 
L 47.125 27.6875 
z
M 43.796875 71.78125 
L 38.71875 51.515625 
L 52.984375 51.515625 
L 58.109375 71.78125 
L 65.921875 71.78125 
L 60.890625 51.515625 
L 76.125 51.515625 
L 76.125 44 
L 58.984375 44 
L 54.984375 27.6875 
L 70.515625 27.6875 
L 70.515625 20.21875 
L 53.078125 20.21875 
L 48 0 
L 40.1875 0 
L 45.21875 20.21875 
L 30.90625 20.21875 
L 25.875 0 
L 18.015625 0 
L 23.09375 20.21875 
L 7.71875 20.21875 
L 7.71875 27.6875 
L 24.90625 27.6875 
L 29 44 
L 13.28125 44 
L 13.28125 51.515625 
L 30.90625 51.515625 
L 35.890625 71.78125 
z
" id="DejaVuSans-23"/>
      <path d="M 4.890625 31.390625 
L 31.203125 31.390625 
L 31.203125 23.390625 
L 4.890625 23.390625 
z
" id="DejaVuSans-2d"/>
      <path d="M 56.203125 29.59375 
L 56.203125 25.203125 
L 14.890625 25.203125 
Q 15.484375 15.921875 20.484375 11.0625 
Q 25.484375 6.203125 34.421875 6.203125 
Q 39.59375 6.203125 44.453125 7.46875 
Q 49.3125 8.734375 54.109375 11.28125 
L 54.109375 2.78125 
Q 49.265625 0.734375 44.1875 -0.34375 
Q 39.109375 -1.421875 33.890625 -1.421875 
Q 20.796875 -1.421875 13.15625 6.1875 
Q 5.515625 13.8125 5.515625 26.8125 
Q 5.515625 40.234375 12.765625 48.109375 
Q 20.015625 56 32.328125 56 
Q 43.359375 56 49.78125 48.890625 
Q 56.203125 41.796875 56.203125 29.59375 
z
M 47.21875 32.234375 
Q 47.125 39.59375 43.09375 43.984375 
Q 39.0625 48.390625 32.421875 48.390625 
Q 24.90625 48.390625 20.390625 44.140625 
Q 15.875 39.890625 15.1875 32.171875 
z
" id="DejaVuSans-65"/>
      <path d="M 2.984375 54.6875 
L 12.5 54.6875 
L 29.59375 8.796875 
L 46.6875 54.6875 
L 56.203125 54.6875 
L 35.6875 0 
L 23.484375 0 
z
" id="DejaVuSans-76"/>
      <path d="M 34.28125 27.484375 
Q 23.390625 27.484375 19.1875 25 
Q 14.984375 22.515625 14.984375 16.5 
Q 14.984375 11.71875 18.140625 8.90625 
Q 21.296875 6.109375 26.703125 6.109375 
Q 34.1875 6.109375 38.703125 11.40625 
Q 43.21875 16.703125 43.21875 25.484375 
L 43.21875 27.484375 
z
M 52.203125 31.203125 
L 52.203125 0 
L 43.21875 0 
L 43.21875 8.296875 
Q 40.140625 3.328125 35.546875 0.953125 
Q 30.953125 -1.421875 24.3125 -1.421875 
Q 15.921875 -1.421875 10.953125 3.296875 
Q 6 8.015625 6 15.921875 
Q 6 25.140625 12.171875 29.828125 
Q 18.359375 34.515625 30.609375 34.515625 
L 43.21875 34.515625 
L 43.21875 35.40625 
Q 43.21875 41.609375 39.140625 45 
Q 35.0625 48.390625 27.6875 48.390625 
Q 23 48.390625 18.546875 47.265625 
Q 14.109375 46.140625 10.015625 43.890625 
L 10.015625 52.203125 
Q 14.9375 54.109375 19.578125 55.046875 
Q 24.21875 56 28.609375 56 
Q 40.484375 56 46.34375 49.84375 
Q 52.203125 43.703125 52.203125 31.203125 
z
" id="DejaVuSans-61"/>
      <path d="M 44.28125 53.078125 
L 44.28125 44.578125 
Q 40.484375 46.53125 36.375 47.5 
Q 32.28125 48.484375 27.875 48.484375 
Q 21.1875 48.484375 17.84375 46.4375 
Q 14.5 44.390625 14.5 40.28125 
Q 14.5 37.15625 16.890625 35.375 
Q 19.28125 33.59375 26.515625 31.984375 
L 29.59375 31.296875 
Q 39.15625 29.25 43.1875 25.515625 
Q 47.21875 21.78125 47.21875 15.09375 
Q 47.21875 7.46875 41.1875 3.015625 
Q 35.15625 -1.421875 24.609375 -1.421875 
Q 20.21875 -1.421875 15.453125 -0.5625 
Q 10.6875 0.296875 5.421875 2 
L 5.421875 11.28125 
Q 10.40625 8.6875 15.234375 7.390625 
Q 20.0625 6.109375 24.8125 6.109375 
Q 31.15625 6.109375 34.5625 8.28125 
Q 37.984375 10.453125 37.984375 14.40625 
Q 37.984375 18.0625 35.515625 20.015625 
Q 33.0625 21.96875 24.703125 23.78125 
L 21.578125 24.515625 
Q 13.234375 26.265625 9.515625 29.90625 
Q 5.8125 33.546875 5.8125 39.890625 
Q 5.8125 47.609375 11.28125 51.796875 
Q 16.75 56 26.8125 56 
Q 31.78125 56 36.171875 55.265625 
Q 40.578125 54.546875 44.28125 53.078125 
z
" id="DejaVuSans-73"/>
      <path d="M 25.390625 72.90625 
L 33.6875 72.90625 
L 8.296875 -9.28125 
L 0 -9.28125 
z
" id="DejaVuSans-2f"/>
      <path d="M 45.40625 46.390625 
L 45.40625 75.984375 
L 54.390625 75.984375 
L 54.390625 0 
L 45.40625 0 
L 45.40625 8.203125 
Q 42.578125 3.328125 38.25 0.953125 
Q 33.9375 -1.421875 27.875 -1.421875 
Q 17.96875 -1.421875 11.734375 6.484375 
Q 5.515625 14.40625 5.515625 27.296875 
Q 5.515625 40.1875 11.734375 48.09375 
Q 17.96875 56 27.875 56 
Q 33.9375 56 38.25 53.625 
Q 42.578125 51.265625 45.40625 46.390625 
z
M 14.796875 27.296875 
Q 14.796875 17.390625 18.875 11.75 
Q 22.953125 6.109375 30.078125 6.109375 
Q 37.203125 6.109375 41.296875 11.75 
Q 45.40625 17.390625 45.40625 27.296875 
Q 45.40625 37.203125 41.296875 42.84375 
Q 37.203125 48.484375 30.078125 48.484375 
Q 22.953125 48.484375 18.875 42.84375 
Q 14.796875 37.203125 14.796875 27.296875 
z
" id="DejaVuSans-64"/>
      <path d="M 9.421875 54.6875 
L 18.40625 54.6875 
L 18.40625 0 
L 9.421875 0 
z
M 9.421875 75.984375 
L 18.40625 75.984375 
L 18.40625 64.59375 
L 9.421875 64.59375 
z
" id="DejaVuSans-69"/>
      <path d="M 52 44.1875 
Q 55.375 50.25 60.0625 53.125 
Q 64.75 56 71.09375 56 
Q 79.640625 56 84.28125 50.015625 
Q 88.921875 44.046875 88.921875 33.015625 
L 88.921875 0 
L 79.890625 0 
L 79.890625 32.71875 
Q 79.890625 40.578125 77.09375 44.375 
Q 74.3125 48.1875 68.609375 48.1875 
Q 61.625 48.1875 57.5625 43.546875 
Q 53.515625 38.921875 53.515625 30.90625 
L 53.515625 0 
L 44.484375 0 
L 44.484375 32.71875 
Q 44.484375 40.625 41.703125 44.40625 
Q 38.921875 48.1875 33.109375 48.1875 
Q 26.21875 48.1875 22.15625 43.53125 
Q 18.109375 38.875 18.109375 30.90625 
L 18.109375 0 
L 9.078125 0 
L 9.078125 54.6875 
L 18.109375 54.6875 
L 18.109375 46.1875 
Q 21.1875 51.21875 25.484375 53.609375 
Q 29.78125 56 35.6875 56 
Q 41.65625 56 45.828125 52.96875 
Q 50 49.953125 52 44.1875 
z
" id="DejaVuSans-6d"/>
      <path d="M 54.890625 33.015625 
L 54.890625 0 
L 45.90625 0 
L 45.90625 32.71875 
Q 45.90625 40.484375 42.875 44.328125 
Q 39.84375 48.1875 33.796875 48.1875 
Q 26.515625 48.1875 22.3125 43.546875 
Q 18.109375 38.921875 18.109375 30.90625 
L 18.109375 0 
L 9.078125 0 
L 9.078125 54.6875 
L 18.109375 54.6875 
L 18.109375 46.1875 
Q 21.34375 51.125 25.703125 53.5625 
Q 30.078125 56 35.796875 56 
Q 45.21875 56 50.046875 50.171875 
Q 54.890625 44.34375 54.890625 33.015625 
z
" id="DejaVuSans-6e"/>
      <path d="M 8.015625 75.875 
L 15.828125 75.875 
Q 23.140625 64.359375 26.78125 53.3125 
Q 30.421875 42.28125 30.421875 31.390625 
Q 30.421875 20.453125 26.78125 9.375 
Q 23.140625 -1.703125 15.828125 -13.1875 
L 8.015625 -13.1875 
Q 14.5 -2 17.703125 9.0625 
Q 20.90625 20.125 20.90625 31.390625 
Q 20.90625 42.671875 17.703125 53.65625 
Q 14.5 64.65625 8.015625 75.875 
z
" id="DejaVuSans-29"/>
     </defs>
     <g transform="translate(107.015156 342.278812)scale(0.18 -0.18)">
      <use xlink:href="#DejaVuSans-6c"/>
      <use x="27.783203" xlink:href="#DejaVuSans-6f"/>
      <use x="88.964844" xlink:href="#DejaVuSans-67"/>
      <use x="152.441406" xlink:href="#DejaVuSans-31"/>
      <use x="216.064453" xlink:href="#DejaVuSans-30"/>
      <use x="279.6875" xlink:href="#DejaVuSans-20"/>
      <use x="311.474609" xlink:href="#DejaVuSans-6f"/>
      <use x="372.65625" xlink:href="#DejaVuSans-66"/>
      <use x="407.861328" xlink:href="#DejaVuSans-20"/>
      <use x="439.648438" xlink:href="#DejaVuSans-28"/>
      <use x="478.662109" xlink:href="#DejaVuSans-23"/>
      <use x="562.451172" xlink:href="#DejaVuSans-20"/>
      <use x="594.238281" xlink:href="#DejaVuSans-66"/>
      <use x="629.365234" xlink:href="#DejaVuSans-2d"/>
      <use x="665.449219" xlink:href="#DejaVuSans-65"/>
      <use x="726.972656" xlink:href="#DejaVuSans-76"/>
      <use x="786.152344" xlink:href="#DejaVuSans-61"/>
      <use x="847.431641" xlink:href="#DejaVuSans-6c"/>
      <use x="875.214844" xlink:href="#DejaVuSans-73"/>
      <use x="927.314453" xlink:href="#DejaVuSans-20"/>
      <use x="959.101562" xlink:href="#DejaVuSans-2f"/>
      <use x="992.792969" xlink:href="#DejaVuSans-20"/>
      <use x="1024.580078" xlink:href="#DejaVuSans-64"/>
      <use x="1088.056641" xlink:href="#DejaVuSans-69"/>
      <use x="1115.839844" xlink:href="#DejaVuSans-6d"/>
      <use x="1213.251953" xlink:href="#DejaVuSans-65"/>
      <use x="1274.775391" xlink:href="#DejaVuSans-6e"/>
      <use x="1338.154297" xlink:href="#DejaVuSans-73"/>
      <use x="1390.253906" xlink:href="#DejaVuSans-69"/>
      <use x="1418.037109" xlink:href="#DejaVuSans-6f"/>
      <use x="1479.21875" xlink:href="#DejaVuSans-6e"/>
      <use x="1542.597656" xlink:href="#DejaVuSans-29"/>
     </g>
    </g>
   </g>
   <g id="matplotlib.axis_2">
    <g id="ytick_1">
     <g id="line2d_11">
      <path clip-path="url(#p1c6f9294e8)" d="M 70.8 298.245375 
L 427.92 298.245375 
" style="fill:none;stroke:#b0b0b0;stroke-linecap:square;stroke-width:0.8;"/>
     </g>
     <g id="line2d_12">
      <defs>
       <path d="M 0 0 
L -3.5 0 
" id="m4d7202fbdb" style="stroke:#000000;stroke-width:0.8;"/>
      </defs>
      <g>
       <use style="stroke:#000000;stroke-width:0.8;" x="70.8" xlink:href="#m4d7202fbdb" y="298.245375"/>
      </g>
     </g>
     <g id="text_7">
      <!-- 0.0 -->
      <defs>
       <path d="M 10.6875 12.40625 
L 21 12.40625 
L 21 0 
L 10.6875 0 
z
" id="DejaVuSans-2e"/>
      </defs>
      <g transform="translate(31.99375 305.843812)scale(0.2 -0.2)">
       <use xlink:href="#DejaVuSans-30"/>
       <use x="63.623047" xlink:href="#DejaVuSans-2e"/>
       <use x="95.410156" xlink:href="#DejaVuSans-30"/>
      </g>
     </g>
    </g>
    <g id="ytick_2">
     <g id="line2d_13">
      <path clip-path="url(#p1c6f9294e8)" d="M 70.8 245.549929 
L 427.92 245.549929 
" style="fill:none;stroke:#b0b0b0;stroke-linecap:square;stroke-width:0.8;"/>
     </g>
     <g id="line2d_14">
      <g>
       <use style="stroke:#000000;stroke-width:0.8;" x="70.8" xlink:href="#m4d7202fbdb" y="245.549929"/>
      </g>
     </g>
     <g id="text_8">
      <!-- 0.2 -->
      <g transform="translate(31.99375 253.148367)scale(0.2 -0.2)">
       <use xlink:href="#DejaVuSans-30"/>
       <use x="63.623047" xlink:href="#DejaVuSans-2e"/>
       <use x="95.410156" xlink:href="#DejaVuSans-32"/>
      </g>
     </g>
    </g>
    <g id="ytick_3">
     <g id="line2d_15">
      <path clip-path="url(#p1c6f9294e8)" d="M 70.8 192.854484 
L 427.92 192.854484 
" style="fill:none;stroke:#b0b0b0;stroke-linecap:square;stroke-width:0.8;"/>
     </g>
     <g id="line2d_16">
      <g>
       <use style="stroke:#000000;stroke-width:0.8;" x="70.8" xlink:href="#m4d7202fbdb" y="192.854484"/>
      </g>
     </g>
     <g id="text_9">
      <!-- 0.4 -->
      <g transform="translate(31.99375 200.452921)scale(0.2 -0.2)">
       <use xlink:href="#DejaVuSans-30"/>
       <use x="63.623047" xlink:href="#DejaVuSans-2e"/>
       <use x="95.410156" xlink:href="#DejaVuSans-34"/>
      </g>
     </g>
    </g>
    <g id="ytick_4">
     <g id="line2d_17">
      <path clip-path="url(#p1c6f9294e8)" d="M 70.8 140.159038 
L 427.92 140.159038 
" style="fill:none;stroke:#b0b0b0;stroke-linecap:square;stroke-width:0.8;"/>
     </g>
     <g id="line2d_18">
      <g>
       <use style="stroke:#000000;stroke-width:0.8;" x="70.8" xlink:href="#m4d7202fbdb" y="140.159038"/>
      </g>
     </g>
     <g id="text_10">
      <!-- 0.6 -->
      <g transform="translate(31.99375 147.757476)scale(0.2 -0.2)">
       <use xlink:href="#DejaVuSans-30"/>
       <use x="63.623047" xlink:href="#DejaVuSans-2e"/>
       <use x="95.410156" xlink:href="#DejaVuSans-36"/>
      </g>
     </g>
    </g>
    <g id="ytick_5">
     <g id="line2d_19">
      <path clip-path="url(#p1c6f9294e8)" d="M 70.8 87.463593 
L 427.92 87.463593 
" style="fill:none;stroke:#b0b0b0;stroke-linecap:square;stroke-width:0.8;"/>
     </g>
     <g id="line2d_20">
      <g>
       <use style="stroke:#000000;stroke-width:0.8;" x="70.8" xlink:href="#m4d7202fbdb" y="87.463593"/>
      </g>
     </g>
     <g id="text_11">
      <!-- 0.8 -->
      <g transform="translate(31.99375 95.06203)scale(0.2 -0.2)">
       <use xlink:href="#DejaVuSans-30"/>
       <use x="63.623047" xlink:href="#DejaVuSans-2e"/>
       <use x="95.410156" xlink:href="#DejaVuSans-38"/>
      </g>
     </g>
    </g>
    <g id="ytick_6">
     <g id="line2d_21">
      <path clip-path="url(#p1c6f9294e8)" d="M 70.8 34.768147 
L 427.92 34.768147 
" style="fill:none;stroke:#b0b0b0;stroke-linecap:square;stroke-width:0.8;"/>
     </g>
     <g id="line2d_22">
      <g>
       <use style="stroke:#000000;stroke-width:0.8;" x="70.8" xlink:href="#m4d7202fbdb" y="34.768147"/>
      </g>
     </g>
     <g id="text_12">
      <!-- 1.0 -->
      <g transform="translate(31.99375 42.366585)scale(0.2 -0.2)">
       <use xlink:href="#DejaVuSans-31"/>
       <use x="63.623047" xlink:href="#DejaVuSans-2e"/>
       <use x="95.410156" xlink:href="#DejaVuSans-30"/>
      </g>
     </g>
    </g>
    <g id="text_13">
     <!-- Proportion of function+target pairs -->
     <defs>
      <path d="M 19.671875 64.796875 
L 19.671875 37.40625 
L 32.078125 37.40625 
Q 38.96875 37.40625 42.71875 40.96875 
Q 46.484375 44.53125 46.484375 51.125 
Q 46.484375 57.671875 42.71875 61.234375 
Q 38.96875 64.796875 32.078125 64.796875 
z
M 9.8125 72.90625 
L 32.078125 72.90625 
Q 44.34375 72.90625 50.609375 67.359375 
Q 56.890625 61.8125 56.890625 51.125 
Q 56.890625 40.328125 50.609375 34.8125 
Q 44.34375 29.296875 32.078125 29.296875 
L 19.671875 29.296875 
L 19.671875 0 
L 9.8125 0 
z
" id="DejaVuSans-50"/>
      <path d="M 41.109375 46.296875 
Q 39.59375 47.171875 37.8125 47.578125 
Q 36.03125 48 33.890625 48 
Q 26.265625 48 22.1875 43.046875 
Q 18.109375 38.09375 18.109375 28.8125 
L 18.109375 0 
L 9.078125 0 
L 9.078125 54.6875 
L 18.109375 54.6875 
L 18.109375 46.1875 
Q 20.953125 51.171875 25.484375 53.578125 
Q 30.03125 56 36.53125 56 
Q 37.453125 56 38.578125 55.875 
Q 39.703125 55.765625 41.0625 55.515625 
z
" id="DejaVuSans-72"/>
      <path d="M 18.109375 8.203125 
L 18.109375 -20.796875 
L 9.078125 -20.796875 
L 9.078125 54.6875 
L 18.109375 54.6875 
L 18.109375 46.390625 
Q 20.953125 51.265625 25.265625 53.625 
Q 29.59375 56 35.59375 56 
Q 45.5625 56 51.78125 48.09375 
Q 58.015625 40.1875 58.015625 27.296875 
Q 58.015625 14.40625 51.78125 6.484375 
Q 45.5625 -1.421875 35.59375 -1.421875 
Q 29.59375 -1.421875 25.265625 0.953125 
Q 20.953125 3.328125 18.109375 8.203125 
z
M 48.6875 27.296875 
Q 48.6875 37.203125 44.609375 42.84375 
Q 40.53125 48.484375 33.40625 48.484375 
Q 26.265625 48.484375 22.1875 42.84375 
Q 18.109375 37.203125 18.109375 27.296875 
Q 18.109375 17.390625 22.1875 11.75 
Q 26.265625 6.109375 33.40625 6.109375 
Q 40.53125 6.109375 44.609375 11.75 
Q 48.6875 17.390625 48.6875 27.296875 
z
" id="DejaVuSans-70"/>
      <path d="M 18.3125 70.21875 
L 18.3125 54.6875 
L 36.8125 54.6875 
L 36.8125 47.703125 
L 18.3125 47.703125 
L 18.3125 18.015625 
Q 18.3125 11.328125 20.140625 9.421875 
Q 21.96875 7.515625 27.59375 7.515625 
L 36.8125 7.515625 
L 36.8125 0 
L 27.59375 0 
Q 17.1875 0 13.234375 3.875 
Q 9.28125 7.765625 9.28125 18.015625 
L 9.28125 47.703125 
L 2.6875 47.703125 
L 2.6875 54.6875 
L 9.28125 54.6875 
L 9.28125 70.21875 
z
" id="DejaVuSans-74"/>
      <path d="M 8.5 21.578125 
L 8.5 54.6875 
L 17.484375 54.6875 
L 17.484375 21.921875 
Q 17.484375 14.15625 20.5 10.265625 
Q 23.53125 6.390625 29.59375 6.390625 
Q 36.859375 6.390625 41.078125 11.03125 
Q 45.3125 15.671875 45.3125 23.6875 
L 45.3125 54.6875 
L 54.296875 54.6875 
L 54.296875 0 
L 45.3125 0 
L 45.3125 8.40625 
Q 42.046875 3.421875 37.71875 1 
Q 33.40625 -1.421875 27.6875 -1.421875 
Q 18.265625 -1.421875 13.375 4.4375 
Q 8.5 10.296875 8.5 21.578125 
z
M 31.109375 56 
z
" id="DejaVuSans-75"/>
      <path d="M 48.78125 52.59375 
L 48.78125 44.1875 
Q 44.96875 46.296875 41.140625 47.34375 
Q 37.3125 48.390625 33.40625 48.390625 
Q 24.65625 48.390625 19.8125 42.84375 
Q 14.984375 37.3125 14.984375 27.296875 
Q 14.984375 17.28125 19.8125 11.734375 
Q 24.65625 6.203125 33.40625 6.203125 
Q 37.3125 6.203125 41.140625 7.25 
Q 44.96875 8.296875 48.78125 10.40625 
L 48.78125 2.09375 
Q 45.015625 0.34375 40.984375 -0.53125 
Q 36.96875 -1.421875 32.421875 -1.421875 
Q 20.0625 -1.421875 12.78125 6.34375 
Q 5.515625 14.109375 5.515625 27.296875 
Q 5.515625 40.671875 12.859375 48.328125 
Q 20.21875 56 33.015625 56 
Q 37.15625 56 41.109375 55.140625 
Q 45.0625 54.296875 48.78125 52.59375 
z
" id="DejaVuSans-63"/>
      <path d="M 46 62.703125 
L 46 35.5 
L 73.1875 35.5 
L 73.1875 27.203125 
L 46 27.203125 
L 46 0 
L 37.796875 0 
L 37.796875 27.203125 
L 10.59375 27.203125 
L 10.59375 35.5 
L 37.796875 35.5 
L 37.796875 62.703125 
z
" id="DejaVuSans-2b"/>
     </defs>
     <g transform="translate(24.250312 323.17875)rotate(-90)scale(0.18 -0.18)">
      <use xlink:href="#DejaVuSans-50"/>
      <use x="60.287109" xlink:href="#DejaVuSans-72"/>
      <use x="101.369141" xlink:href="#DejaVuSans-6f"/>
      <use x="162.550781" xlink:href="#DejaVuSans-70"/>
      <use x="226.027344" xlink:href="#DejaVuSans-6f"/>
      <use x="287.208984" xlink:href="#DejaVuSans-72"/>
      <use x="328.322266" xlink:href="#DejaVuSans-74"/>
      <use x="367.53125" xlink:href="#DejaVuSans-69"/>
      <use x="395.314453" xlink:href="#DejaVuSans-6f"/>
      <use x="456.496094" xlink:href="#DejaVuSans-6e"/>
      <use x="519.875" xlink:href="#DejaVuSans-20"/>
      <use x="551.662109" xlink:href="#DejaVuSans-6f"/>
      <use x="612.84375" xlink:href="#DejaVuSans-66"/>
      <use x="648.048828" xlink:href="#DejaVuSans-20"/>
      <use x="679.835938" xlink:href="#DejaVuSans-66"/>
      <use x="715.041016" xlink:href="#DejaVuSans-75"/>
      <use x="778.419922" xlink:href="#DejaVuSans-6e"/>
      <use x="841.798828" xlink:href="#DejaVuSans-63"/>
      <use x="896.779297" xlink:href="#DejaVuSans-74"/>
      <use x="935.988281" xlink:href="#DejaVuSans-69"/>
      <use x="963.771484" xlink:href="#DejaVuSans-6f"/>
      <use x="1024.953125" xlink:href="#DejaVuSans-6e"/>
      <use x="1088.332031" xlink:href="#DejaVuSans-2b"/>
      <use x="1172.121094" xlink:href="#DejaVuSans-74"/>
      <use x="1211.330078" xlink:href="#DejaVuSans-61"/>
      <use x="1272.609375" xlink:href="#DejaVuSans-72"/>
      <use x="1313.707031" xlink:href="#DejaVuSans-67"/>
      <use x="1377.183594" xlink:href="#DejaVuSans-65"/>
      <use x="1438.707031" xlink:href="#DejaVuSans-74"/>
      <use x="1477.916016" xlink:href="#DejaVuSans-20"/>
      <use x="1509.703125" xlink:href="#DejaVuSans-70"/>
      <use x="1573.179688" xlink:href="#DejaVuSans-61"/>
      <use x="1634.458984" xlink:href="#DejaVuSans-69"/>
      <use x="1662.242188" xlink:href="#DejaVuSans-72"/>
      <use x="1703.355469" xlink:href="#DejaVuSans-73"/>
     </g>
    </g>
   </g>
   <g id="line2d_23">
    <defs>
     <path d="M 0 1.5 
C 0.397805 1.5 0.77937 1.341951 1.06066 1.06066 
C 1.341951 0.77937 1.5 0.397805 1.5 0 
C 1.5 -0.397805 1.341951 -0.77937 1.06066 -1.06066 
C 0.77937 -1.341951 0.397805 -1.5 0 -1.5 
C -0.397805 -1.5 -0.77937 -1.341951 -1.06066 -1.06066 
C -1.341951 -0.77937 -1.5 -0.397805 -1.5 0 
C -1.5 0.397805 -1.341951 0.77937 -1.06066 1.06066 
C -0.77937 1.341951 -0.397805 1.5 0 1.5 
z
" id="m321660f029" style="stroke:#000080;"/>
    </defs>
    <g>
     <use style="fill:#000080;stroke:#000080;" x="280.185616" xlink:href="#m321660f029" y="34.768147"/>
     <use style="fill:#000080;stroke:#000080;" x="280.185616" xlink:href="#m321660f029" y="34.768147"/>
    </g>
   </g>
   <g id="line2d_24">
    <path d="M 51.169868 298.245375 
L 51.169868 278.097116 
L 63.555102 278.097116 
L 63.555102 270.864408 
L 75.940337 270.864408 
L 75.940337 268.281298 
L 79.927491 268.281298 
L 79.927491 266.731432 
L 90.430132 266.731432 
L 90.430132 266.21481 
L 92.312726 266.21481 
L 92.312726 265.181566 
L 103.781445 265.181566 
L 103.781445 264.148322 
L 107.955702 264.148322 
L 107.955702 263.6317 
L 113.64587 263.6317 
L 113.64587 262.598456 
L 116.166679 262.598456 
L 116.166679 262.081834 
L 117.954982 262.081834 
L 117.954982 260.531968 
L 120.340936 260.531968 
L 120.340936 260.015346 
L 123.095319 260.015346 
L 123.095319 259.498724 
L 124.328091 259.498724 
L 124.328091 258.46548 
L 145.111405 258.46548 
L 145.111405 257.432236 
L 146.194652 257.432236 
L 146.194652 256.398992 
L 149.466987 256.398992 
L 149.466987 255.365748 
L 151.595842 255.365748 
L 151.595842 253.815882 
L 155.941909 253.815882 
L 155.941909 253.29926 
L 159.182724 253.29926 
L 159.182724 252.782638 
L 159.724855 252.782638 
L 159.724855 252.266016 
L 159.84766 252.266016 
L 159.84766 251.749394 
L 164.803471 251.749394 
L 164.803471 250.71615 
L 165.07955 250.71615 
L 165.07955 249.682906 
L 168.403124 249.682906 
L 168.478783 248.649662 
L 169.718266 248.649662 
L 169.718266 247.616418 
L 170.363894 247.616418 
L 170.363894 247.099796 
L 172.007103 247.099796 
L 172.007103 246.583173 
L 172.795084 246.583173 
L 172.795084 246.066551 
L 174.109368 246.066551 
L 174.109368 245.549929 
L 174.544755 245.549929 
L 174.544755 244.516685 
L 177.403801 244.516685 
L 177.403801 244.000063 
L 177.781576 244.000063 
L 177.781576 242.966819 
L 178.413232 242.966819 
L 178.413232 242.450197 
L 178.897338 242.450197 
L 178.897338 241.933575 
L 179.761098 241.933575 
L 179.761098 241.416953 
L 180.32755 241.416953 
L 180.430984 239.350465 
L 181.579331 239.350465 
L 181.579331 238.833843 
L 182.208848 238.833843 
L 182.301972 237.800599 
L 182.816939 237.800599 
L 182.816939 237.283977 
L 183.847023 237.283977 
L 183.847023 236.767355 
L 183.97435 236.767355 
L 184.079767 234.700867 
L 185.715769 234.700867 
L 185.715769 234.184245 
L 185.98232 234.184245 
L 185.98232 233.151001 
L 186.531292 233.151001 
L 186.531292 232.634379 
L 186.695472 232.634379 
L 186.695472 232.117757 
L 187.258505 232.117757 
L 187.258505 231.084513 
L 188.066922 231.084513 
L 188.066922 230.051269 
L 188.735352 230.051269 
L 188.735352 229.018025 
L 189.048484 229.018025 
L 189.048484 226.951537 
L 189.262097 226.951537 
L 189.262097 226.434915 
L 189.418698 226.434915 
L 189.480956 224.368427 
L 189.811928 224.368427 
L 189.834792 222.301939 
L 189.986475 222.301939 
L 189.986475 221.268695 
L 190.52944 221.268695 
L 190.624425 220.235451 
L 191.835809 220.235451 
L 191.835809 217.652341 
L 192.398842 217.652341 
L 192.398842 217.135719 
L 193.837173 217.135719 
L 193.837173 216.619097 
L 194.47699 216.619097 
L 194.47699 216.102475 
L 195.381753 216.102475 
L 195.459756 214.552609 
L 196.061064 214.552609 
L 196.061064 213.002743 
L 196.216277 213.002743 
L 196.242903 211.452876 
L 197.2213 211.452876 
L 197.2213 210.936254 
L 197.37179 210.936254 
L 197.37179 210.419632 
L 197.990364 210.419632 
L 197.990364 209.386388 
L 204.104905 209.386388 
L 204.104905 208.869766 
L 208.183667 208.869766 
L 208.183667 208.353144 
L 208.699827 208.353144 
L 208.699827 207.836522 
L 210.471845 207.836522 
L 210.471845 207.3199 
L 211.547468 207.3199 
L 211.547468 206.803278 
L 211.731793 206.803278 
L 211.731793 205.770034 
L 212.055347 205.770034 
L 212.138608 204.73679 
L 212.542778 204.73679 
L 212.61742 201.637058 
L 212.708698 201.637058 
L 212.780542 200.087192 
L 212.912907 200.087192 
L 213.019346 197.504082 
L 213.33491 197.504082 
L 213.426672 195.954216 
L 213.661065 195.954216 
L 213.661065 194.920972 
L 214.040428 194.920972 
L 214.132557 193.887728 
L 214.313467 193.887728 
L 214.313467 193.371106 
L 214.49448 193.371106 
L 214.49448 192.854484 
L 214.649001 192.854484 
L 214.722927 191.304618 
L 214.826663 191.304618 
L 214.826663 190.787996 
L 214.950357 190.787996 
L 215.056499 188.721508 
L 215.086181 188.721508 
L 215.132459 187.688264 
L 215.425837 187.688264 
L 215.425837 186.65502 
L 215.577953 186.65502 
L 215.577953 186.138398 
L 215.982666 186.138398 
L 215.982666 185.621776 
L 216.655578 185.621776 
L 216.713206 183.555288 
L 216.827908 183.555288 
L 216.936865 180.455556 
L 217.240101 180.455556 
L 217.240101 179.938934 
L 221.479482 179.938934 
L 221.537708 178.389067 
L 222.311296 178.389067 
L 222.333549 177.355823 
L 223.179314 177.355823 
L 223.179314 176.839201 
L 223.347036 176.839201 
L 223.422756 175.289335 
L 223.643417 175.289335 
L 223.732752 172.706225 
L 223.843228 172.706225 
L 223.893117 171.672981 
L 223.962052 171.672981 
L 224.00486 169.606493 
L 224.123735 169.606493 
L 224.17842 167.540005 
L 224.241824 167.540005 
L 224.252924 166.506761 
L 224.391099 166.506761 
L 224.391099 165.990139 
L 224.528213 165.990139 
L 224.616505 164.440273 
L 224.718423 164.440273 
L 224.819763 162.890407 
L 224.847692 162.890407 
L 224.955773 159.274053 
L 225.037734 159.274053 
L 225.068506 157.724187 
L 225.542422 157.724187 
L 225.542422 156.690943 
L 225.84442 156.690943 
L 225.84442 155.657699 
L 226.072376 155.657699 
L 226.127415 154.624455 
L 226.193239 154.624455 
L 226.193239 153.591211 
L 228.988106 153.591211 
L 228.988106 153.074589 
L 230.446587 153.074589 
L 230.526439 152.041345 
L 230.575582 152.041345 
L 230.609824 150.491479 
L 230.806222 150.491479 
L 230.85767 148.941613 
L 230.95326 148.941613 
L 231.059718 147.908369 
L 231.157253 147.908369 
L 231.157253 147.391747 
L 231.290967 147.391747 
L 231.361179 145.841881 
L 231.434086 145.841881 
L 231.434086 144.808637 
L 231.552482 144.808637 
L 231.614327 143.25877 
L 231.780394 143.25877 
L 231.87191 142.225526 
L 232.061435 142.225526 
L 232.134401 140.67566 
L 232.173622 140.67566 
L 232.220574 138.609172 
L 232.331064 138.609172 
L 232.331064 138.09255 
L 235.252509 138.09255 
L 235.355936 136.542684 
L 235.377384 136.542684 
L 235.416637 134.992818 
L 235.663261 134.992818 
L 235.74219 133.442952 
L 235.794035 133.442952 
L 235.898432 130.34322 
L 235.91635 130.34322 
L 236.017165 128.276732 
L 236.04185 128.276732 
L 236.05504 127.243488 
L 236.202329 127.243488 
L 236.283446 125.177 
L 236.378276 125.177 
L 236.438412 123.627134 
L 236.614839 123.627134 
L 236.719534 122.077268 
L 239.086838 122.077268 
L 239.086838 121.560646 
L 239.235706 121.560646 
L 239.332358 120.01078 
L 239.379536 120.01078 
L 239.458366 118.460914 
L 239.568428 118.460914 
L 239.641741 115.361182 
L 239.738093 115.361182 
L 239.759538 112.778072 
L 239.888594 112.778072 
L 239.888594 111.744828 
L 240.031873 111.744828 
L 240.031873 111.228206 
L 240.310513 111.228206 
L 240.367795 109.678339 
L 241.6521 109.678339 
L 241.6521 109.161717 
L 242.366821 109.161717 
L 242.39418 108.128473 
L 242.574983 108.128473 
L 242.578963 107.095229 
L 242.772484 107.095229 
L 242.832998 104.512119 
L 242.942891 104.512119 
L 243.052112 103.478875 
L 243.105121 103.478875 
L 243.105121 102.962253 
L 243.226794 102.962253 
L 243.252869 101.929009 
L 245.089077 101.929009 
L 245.128449 100.895765 
L 245.206591 100.895765 
L 245.309682 97.796033 
L 245.321973 97.796033 
L 245.421687 96.762789 
L 245.482671 96.762789 
L 245.482671 96.246167 
L 245.743553 96.246167 
L 245.748219 95.212923 
L 245.900851 95.212923 
L 245.900851 94.179679 
L 246.887108 94.179679 
L 246.887108 93.663057 
L 247.419972 93.663057 
L 247.514404 92.113191 
L 247.549386 92.113191 
L 247.613743 91.079947 
L 247.712235 91.079947 
L 247.778092 89.013459 
L 248.078061 89.013459 
L 248.080986 87.463593 
L 249.451281 87.463593 
L 249.553642 84.880483 
L 249.578939 84.880483 
L 249.660775 81.780751 
L 249.790139 81.780751 
L 249.865723 79.197641 
L 249.925697 79.197641 
L 249.925697 78.681019 
L 250.071749 78.681019 
L 250.127125 76.614531 
L 251.40567 76.614531 
L 251.417563 75.581286 
L 251.582517 75.581286 
L 251.656408 73.514798 
L 251.730709 73.514798 
L 251.793778 71.964932 
L 251.869168 71.964932 
L 251.869168 71.44831 
L 252.979671 71.44831 
L 253.08452 69.898444 
L 253.146519 69.898444 
L 253.236158 67.831956 
L 253.258278 67.831956 
L 253.258278 67.315334 
L 253.369995 67.315334 
L 253.45441 66.28209 
L 253.502622 66.28209 
L 253.530021 65.248846 
L 254.516773 65.248846 
L 254.577663 63.69898 
L 254.673365 63.69898 
L 254.747223 61.632492 
L 254.871444 61.632492 
L 254.871444 60.599248 
L 255.580342 60.599248 
L 255.580342 60.082626 
L 255.894135 60.082626 
L 255.996206 59.049382 
L 256.024539 59.049382 
L 256.12792 55.94965 
L 256.137051 55.94965 
L 256.137051 55.433028 
L 256.279753 55.433028 
L 256.369354 54.399784 
L 256.39802 54.399784 
L 256.39802 53.883162 
L 257.236763 53.883162 
L 257.312634 52.849918 
L 257.443513 52.849918 
L 257.443513 52.333296 
L 257.587359 52.333296 
L 257.587359 51.816674 
L 258.455761 51.816674 
L 258.455761 51.300052 
L 258.604864 51.300052 
L 258.604864 50.78343 
L 258.864078 50.78343 
L 258.864078 50.266808 
L 259.593964 50.266808 
L 259.663381 48.20032 
L 259.755825 48.20032 
L 259.774682 47.167076 
L 259.90658 47.167076 
L 259.90658 46.650454 
L 260.732112 46.650454 
L 260.732112 46.133832 
L 260.897591 46.133832 
L 260.897591 45.61721 
L 261.012834 45.61721 
L 261.012834 45.100588 
L 261.750991 45.100588 
L 261.83963 44.067344 
L 261.936587 44.067344 
L 261.936587 43.550722 
L 263.742158 43.550722 
L 263.742158 43.0341 
L 264.47249 43.0341 
L 264.47249 42.517478 
L 265.237619 42.517478 
L 265.237619 41.484233 
L 265.356344 41.484233 
L 265.433138 40.450989 
L 265.497581 40.450989 
L 265.497581 39.934367 
L 266.910267 39.934367 
L 266.910267 39.417745 
L 267.688682 39.417745 
L 267.690537 38.384501 
L 269.720968 38.384501 
L 269.728458 37.351257 
L 270.74427 37.351257 
L 270.74427 36.834635 
L 271.342951 36.834635 
L 271.342951 36.318013 
L 273.651114 36.318013 
L 273.651114 35.801391 
L 276.015601 35.801391 
L 276.015601 35.284769 
L 280.185616 35.284769 
L 280.185616 34.768147 
L 358.8 34.768147 
L 358.8 34.768147 
" style="fill:none;stroke:#000080;stroke-linecap:square;stroke-width:1.5;"/>
   </g>
   <g id="line2d_25">
    <defs>
     <path d="M 0 6 
C 1.591219 6 3.117479 5.367802 4.242641 4.242641 
C 5.367802 3.117479 6 1.591219 6 0 
C 6 -1.591219 5.367802 -3.117479 4.242641 -4.242641 
C 3.117479 -5.367802 1.591219 -6 0 -6 
C -1.591219 -6 -3.117479 -5.367802 -4.242641 -4.242641 
C -5.367802 -3.117479 -6 -1.591219 -6 0 
C -6 1.591219 -5.367802 3.117479 -4.242641 4.242641 
C -3.117479 5.367802 -1.591219 6 0 6 
z
" id="m612c552252" style="stroke:#000080;stroke-width:1.5;"/>
    </defs>
    <g>
     <use style="fill:none;stroke:#000080;stroke-width:1.5;" x="107.955702" xlink:href="#m612c552252" y="264.148322"/>
     <use style="fill:none;stroke:#000080;stroke-width:1.5;" x="189.986475" xlink:href="#m612c552252" y="221.268695"/>
     <use style="fill:none;stroke:#000080;stroke-width:1.5;" x="240.310513" xlink:href="#m612c552252" y="110.711584"/>
     <use style="fill:none;stroke:#000080;stroke-width:1.5;" x="267.690537" xlink:href="#m612c552252" y="38.384501"/>
     <use style="fill:none;stroke:#000080;stroke-width:1.5;" x="280.185616" xlink:href="#m612c552252" y="34.768147"/>
     <use style="fill:none;stroke:#000080;stroke-width:1.5;" x="358.8" xlink:href="#m612c552252" y="34.768147"/>
    </g>
   </g>
   <g id="line2d_26"/>
   <g id="line2d_27">
    <path clip-path="url(#p1c6f9294e8)" d="M 209.87403 207.836522 
" style="fill:none;stroke:#000080;stroke-linecap:square;stroke-width:1.5;"/>
    <defs>
     <path d="M -12 12 
L 12 -12 
M -12 -12 
L 12 12 
" id="m0bfe2aa56c" style="stroke:#000080;stroke-width:3;"/>
    </defs>
    <g clip-path="url(#p1c6f9294e8)">
     <use style="fill:#000080;stroke:#000080;stroke-width:3;" x="209.87403" xlink:href="#m0bfe2aa56c" y="207.836522"/>
    </g>
   </g>
   <g id="line2d_28">
    <defs>
     <path d="M 0 1.5 
C 0.397805 1.5 0.77937 1.341951 1.06066 1.06066 
C 1.341951 0.77937 1.5 0.397805 1.5 0 
C 1.5 -0.397805 1.341951 -0.77937 1.06066 -1.06066 
C 0.77937 -1.341951 0.397805 -1.5 0 -1.5 
C -0.397805 -1.5 -0.77937 -1.341951 -1.06066 -1.06066 
C -1.341951 -0.77937 -1.5 -0.397805 -1.5 0 
C -1.5 0.397805 -1.341951 0.77937 -1.06066 1.06066 
C -0.77937 1.341951 -0.397805 1.5 0 1.5 
z
" id="m9ff3f3fa85" style="stroke:#ff00ff;"/>
    </defs>
    <g>
     <use style="fill:#ff00ff;stroke:#ff00ff;" x="249.21599" xlink:href="#m9ff3f3fa85" y="34.768147"/>
     <use style="fill:#ff00ff;stroke:#ff00ff;" x="249.21599" xlink:href="#m9ff3f3fa85" y="34.768147"/>
    </g>
   </g>
   <g id="line2d_29">
    <path d="M 51.169868 298.245375 
L 51.169868 283.263337 
L 63.555102 283.263337 
L 63.555102 281.713471 
L 70.8 281.713471 
L 70.8 280.163604 
L 88.325571 280.163604 
L 88.325571 278.097116 
L 92.312726 278.097116 
L 92.312726 274.480762 
L 95.570468 274.480762 
L 95.570468 273.447518 
L 102.815366 273.447518 
L 102.815366 271.38103 
L 103.781445 271.38103 
L 103.781445 270.864408 
L 107.195242 270.864408 
L 107.195242 270.347786 
L 110.060263 270.347786 
L 110.060263 269.314542 
L 113.096039 269.314542 
L 113.096039 268.79792 
L 114.179287 268.79792 
L 114.179287 268.281298 
L 115.690168 268.281298 
L 115.690168 267.248054 
L 116.166679 267.248054 
L 116.166679 265.698188 
L 116.630812 265.698188 
L 116.630812 265.181566 
L 118.375428 265.181566 
L 118.375428 264.664944 
L 119.580476 264.664944 
L 119.580476 263.6317 
L 121.070349 263.6317 
L 121.070349 261.565212 
L 121.424184 261.565212 
L 121.424184 261.04859 
L 123.722334 261.04859 
L 123.722334 260.531968 
L 124.328091 260.531968 
L 124.328091 257.948858 
L 125.19988 257.948858 
L 125.19988 255.88237 
L 125.481273 255.88237 
L 125.481273 254.332504 
L 126.031105 254.332504 
L 126.031105 251.232772 
L 126.564521 251.232772 
L 126.564521 249.166284 
L 127.082473 249.166284 
L 127.082473 248.649662 
L 127.335926 248.649662 
L 127.335926 248.13304 
L 127.585834 248.13304 
L 127.585834 247.616418 
L 128.315246 247.616418 
L 128.315246 246.583173 
L 130.340216 246.583173 
L 130.340216 240.900331 
L 131.373343 240.900331 
L 131.373343 239.350465 
L 132.911334 239.350465 
L 132.911334 238.833843 
L 133.983743 238.833843 
L 133.983743 238.317221 
L 134.664515 238.317221 
L 134.664515 237.283977 
L 135.480553 237.283977 
L 135.480553 235.217489 
L 136.107569 235.217489 
L 136.107569 234.700867 
L 136.861609 234.700867 
L 136.861609 233.667623 
L 137.299218 233.667623 
L 137.299218 230.567891 
L 140.580961 230.567891 
L 140.580961 230.051269 
L 143.041708 230.051269 
L 143.041708 229.018025 
L 144.155663 229.018025 
L 144.155663 228.501403 
L 144.447791 228.501403 
L 144.447791 227.468159 
L 145.018098 227.468159 
L 145.018098 226.951537 
L 145.929935 226.951537 
L 145.929935 225.401671 
L 147.215966 225.401671 
L 147.215966 222.818561 
L 150.111598 222.818561 
L 150.111598 222.301939 
L 151.269176 222.301939 
L 151.269176 220.752073 
L 152.043367 220.752073 
L 152.043367 219.202207 
L 152.1692 219.202207 
L 152.231785 217.652341 
L 152.418237 217.652341 
L 152.418237 216.619097 
L 152.906134 216.619097 
L 152.906134 215.069231 
L 153.20444 215.069231 
L 153.20444 214.552609 
L 153.497847 214.552609 
L 153.497847 213.519365 
L 153.957503 213.519365 
L 153.957503 213.002743 
L 154.405629 213.002743 
L 154.405629 209.386388 
L 156.491741 209.386388 
L 156.491741 208.869766 
L 156.784667 208.869766 
L 156.784667 207.836522 
L 157.681802 207.836522 
L 157.681802 206.286656 
L 158.270665 206.286656 
L 158.270665 202.670302 
L 161.815719 202.670302 
L 161.815719 202.15368 
L 163.254361 202.15368 
L 163.254361 201.120436 
L 167.628374 201.120436 
L 167.628374 200.603814 
L 167.916364 200.603814 
L 167.916364 199.053948 
L 170.043996 199.053948 
L 170.043996 198.537326 
L 171.117747 198.537326 
L 171.117747 196.98746 
L 173.244006 196.98746 
L 173.244006 195.954216 
L 175.723681 195.954216 
L 175.723681 195.437594 
L 176.671207 195.437594 
L 176.671207 194.920972 
L 177.691636 194.920972 
L 177.691636 194.40435 
L 178.925411 194.40435 
L 178.925411 193.371106 
L 179.491385 193.371106 
L 179.491385 192.854484 
L 181.17586 192.854484 
L 181.17586 191.82124 
L 181.543026 191.82124 
L 181.543026 191.304618 
L 183.772328 191.304618 
L 183.772328 190.787996 
L 184.443904 190.787996 
L 184.443904 190.271374 
L 184.719826 190.271374 
L 184.800768 189.23813 
L 185.031457 189.23813 
L 185.031457 188.204886 
L 185.474369 188.204886 
L 185.474369 187.688264 
L 186.640913 187.688264 
L 186.640913 186.65502 
L 186.786036 186.65502 
L 186.786036 186.138398 
L 187.442308 186.138398 
L 187.442308 185.621776 
L 188.159177 185.621776 
L 188.159177 184.588532 
L 188.588958 184.588532 
L 188.588958 184.07191 
L 189.151653 184.07191 
L 189.183278 183.038666 
L 189.850018 183.038666 
L 189.850018 182.522044 
L 190.121897 182.522044 
L 190.121897 182.005422 
L 190.675362 182.005422 
L 190.675362 180.972178 
L 191.070611 180.972178 
L 191.070611 179.938934 
L 191.338673 179.938934 
L 191.338673 179.422312 
L 191.519794 179.422312 
L 191.519794 178.90569 
L 191.924114 178.90569 
L 191.924114 178.389067 
L 192.18644 178.389067 
L 192.18644 177.355823 
L 192.951073 177.355823 
L 193.05314 174.772713 
L 193.837173 174.772713 
L 193.837173 174.256091 
L 194.150975 174.256091 
L 194.150975 173.739469 
L 194.98655 173.739469 
L 194.98655 172.706225 
L 195.520805 172.706225 
L 195.520805 172.189603 
L 196.306641 172.189603 
L 196.306641 171.672981 
L 198.268063 171.672981 
L 198.277562 169.606493 
L 198.597568 169.606493 
L 198.597568 169.089871 
L 199.089783 169.089871 
L 199.089783 168.573249 
L 199.661326 168.573249 
L 199.661326 168.056627 
L 200.155407 168.056627 
L 200.155407 167.540005 
L 200.826589 167.540005 
L 200.826589 166.506761 
L 201.445652 166.506761 
L 201.445652 165.990139 
L 202.017043 165.990139 
L 202.036291 164.440273 
L 203.452291 164.440273 
L 203.452291 163.407029 
L 203.981107 163.407029 
L 203.981107 162.890407 
L 204.197194 162.890407 
L 204.197194 162.373785 
L 204.329664 162.373785 
L 204.420802 161.340541 
L 205.081803 161.340541 
L 205.081803 160.823919 
L 209.893869 160.823919 
L 209.965604 158.240809 
L 210.037052 158.240809 
L 210.13758 149.974857 
L 210.149801 149.974857 
L 210.179097 144.808637 
L 210.269125 144.808637 
L 210.373185 140.67566 
L 210.402118 140.67566 
L 210.495825 137.575928 
L 210.534128 137.575928 
L 210.62001 135.50944 
L 210.658047 135.50944 
L 210.658047 134.992818 
L 210.811747 134.992818 
L 210.842329 132.92633 
L 211.047981 132.92633 
L 211.142993 131.893086 
L 211.221403 131.893086 
L 211.235204 130.859842 
L 211.499956 130.859842 
L 211.509015 129.309976 
L 212.03557 129.309976 
L 212.03557 128.793354 
L 212.338593 128.793354 
L 212.338593 128.276732 
L 212.604646 128.276732 
L 212.604646 127.76011 
L 212.864697 127.76011 
L 212.889866 126.210244 
L 213.203587 126.210244 
L 213.203587 125.693622 
L 213.326731 125.693622 
L 213.326731 125.177 
L 213.602754 125.177 
L 213.602754 124.660378 
L 213.775123 124.660378 
L 213.8448 122.59389 
L 213.93201 122.59389 
L 213.93201 122.077268 
L 214.179419 122.077268 
L 214.179419 121.560646 
L 214.354065 121.560646 
L 214.354065 121.044024 
L 214.515543 121.044024 
L 214.626193 120.01078 
L 214.747501 120.01078 
L 214.755055 118.460914 
L 214.944753 118.460914 
L 214.944753 117.944292 
L 215.294412 117.944292 
L 215.402179 116.394426 
L 215.449463 116.394426 
L 215.520156 115.361182 
L 216.486712 115.361182 
L 216.486712 114.84456 
L 217.385737 114.84456 
L 217.385737 114.327938 
L 217.668684 114.327938 
L 217.668684 112.778072 
L 217.872838 112.778072 
L 217.964583 111.228206 
L 218.04958 111.228206 
L 218.04958 110.711584 
L 218.30217 110.711584 
L 218.356276 109.678339 
L 218.537493 109.678339 
L 218.537493 109.161717 
L 218.759196 109.161717 
L 218.759196 108.645095 
L 219.276803 108.645095 
L 219.276803 107.611851 
L 219.551759 107.611851 
L 219.645351 106.578607 
L 219.739884 106.578607 
L 219.739884 105.028741 
L 220.023331 105.028741 
L 220.023331 104.512119 
L 222.281582 104.512119 
L 222.379205 100.379143 
L 222.397681 100.379143 
L 222.506914 92.113191 
L 222.513031 92.113191 
L 222.592361 88.496837 
L 222.655572 88.496837 
L 222.734273 84.880483 
L 223.090714 84.880483 
L 223.090714 84.363861 
L 223.458756 84.363861 
L 223.458756 83.847239 
L 223.643417 83.847239 
L 223.643417 83.330617 
L 223.817095 83.330617 
L 223.820506 82.297373 
L 224.001484 82.297373 
L 224.001484 81.780751 
L 224.316064 81.780751 
L 224.335957 80.747507 
L 224.558783 80.747507 
L 224.605628 79.714263 
L 224.786405 79.714263 
L 224.792866 78.681019 
L 225.174209 78.681019 
L 225.174209 78.164397 
L 225.626881 78.164397 
L 225.626881 77.647775 
L 225.77322 77.647775 
L 225.86978 76.614531 
L 226.111421 76.614531 
L 226.111421 76.097908 
L 226.405015 76.097908 
L 226.405015 75.581286 
L 226.578298 75.581286 
L 226.578298 74.548042 
L 226.999061 74.548042 
L 226.999061 74.03142 
L 227.608973 74.03142 
L 227.608973 73.514798 
L 227.747305 73.514798 
L 227.747305 72.998176 
L 229.530609 72.998176 
L 229.61383 68.8652 
L 229.713023 68.8652 
L 229.822233 65.765468 
L 229.895211 65.765468 
L 229.895211 65.248846 
L 230.557657 65.248846 
L 230.564673 64.215602 
L 230.915085 64.215602 
L 230.915085 63.182358 
L 231.125556 63.182358 
L 231.125556 62.665736 
L 231.542892 62.665736 
L 231.542892 62.149114 
L 232.319763 62.149114 
L 232.319763 61.632492 
L 232.663344 61.632492 
L 232.663344 61.11587 
L 232.775271 61.11587 
L 232.775271 60.599248 
L 233.242282 60.599248 
L 233.242282 60.082626 
L 234.65566 60.082626 
L 234.762591 58.53276 
L 234.861532 58.53276 
L 234.861532 58.016138 
L 235.066271 58.016138 
L 235.102586 56.466272 
L 235.643914 56.466272 
L 235.643914 55.94965 
L 236.231868 55.94965 
L 236.231868 55.433028 
L 236.66754 55.433028 
L 236.66754 54.916406 
L 237.064693 54.916406 
L 237.064693 54.399784 
L 237.497683 54.399784 
L 237.497683 53.883162 
L 237.631491 53.883162 
L 237.631491 52.849918 
L 238.653971 52.849918 
L 238.731125 50.266808 
L 238.773025 50.266808 
L 238.829556 48.20032 
L 238.892758 48.20032 
L 238.892758 47.683698 
L 239.46784 47.683698 
L 239.489138 46.650454 
L 239.720359 46.650454 
L 239.720359 46.133832 
L 240.121128 46.133832 
L 240.121128 45.61721 
L 240.407828 45.61721 
L 240.407828 45.100588 
L 241.032551 45.100588 
L 241.132495 43.550722 
L 241.940603 43.550722 
L 242.022477 42.000855 
L 242.054467 42.000855 
L 242.054467 41.484233 
L 242.37447 41.484233 
L 242.37447 40.967611 
L 242.774452 40.967611 
L 242.774452 40.450989 
L 243.752376 40.450989 
L 243.752376 39.934367 
L 244.652637 39.934367 
L 244.709236 38.384501 
L 244.78536 38.384501 
L 244.78536 37.867879 
L 245.262149 37.867879 
L 245.262149 37.351257 
L 245.426777 37.351257 
L 245.426777 36.834635 
L 246.432401 36.834635 
L 246.432401 36.318013 
L 247.068151 36.318013 
L 247.153678 35.284769 
L 249.21599 35.284769 
L 249.21599 34.768147 
L 358.8 34.768147 
L 358.8 34.768147 
" style="fill:none;stroke:#ff00ff;stroke-linecap:square;stroke-width:1.5;"/>
   </g>
   <g id="line2d_30">
    <defs>
     <path d="M -0 8.485281 
L 5.091169 0 
L 0 -8.485281 
L -5.091169 -0 
z
" id="md2d747303f" style="stroke:#ff00ff;stroke-linejoin:miter;stroke-width:1.5;"/>
    </defs>
    <g>
     <use style="fill:none;stroke:#ff00ff;stroke-linejoin:miter;stroke-width:1.5;" x="92.312726" xlink:href="#md2d747303f" y="274.480762"/>
     <use style="fill:none;stroke:#ff00ff;stroke-linejoin:miter;stroke-width:1.5;" x="158.270665" xlink:href="#md2d747303f" y="206.286656"/>
     <use style="fill:none;stroke:#ff00ff;stroke-linejoin:miter;stroke-width:1.5;" x="213.775123" xlink:href="#md2d747303f" y="123.627134"/>
     <use style="fill:none;stroke:#ff00ff;stroke-linejoin:miter;stroke-width:1.5;" x="249.21599" xlink:href="#md2d747303f" y="35.284769"/>
     <use style="fill:none;stroke:#ff00ff;stroke-linejoin:miter;stroke-width:1.5;" x="249.21599" xlink:href="#md2d747303f" y="34.768147"/>
     <use style="fill:none;stroke:#ff00ff;stroke-linejoin:miter;stroke-width:1.5;" x="358.8" xlink:href="#md2d747303f" y="34.768147"/>
    </g>
   </g>
   <g id="line2d_31"/>
   <g id="line2d_32">
    <path clip-path="url(#p1c6f9294e8)" d="M 209.87403 160.823919 
" style="fill:none;stroke:#ff00ff;stroke-linecap:square;stroke-width:1.5;"/>
    <defs>
     <path d="M -12 12 
L 12 -12 
M -12 -12 
L 12 12 
" id="m0174bef88a" style="stroke:#ff00ff;stroke-width:3;"/>
    </defs>
    <g clip-path="url(#p1c6f9294e8)">
     <use style="fill:#ff00ff;stroke:#ff00ff;stroke-width:3;" x="209.87403" xlink:href="#m0174bef88a" y="160.823919"/>
    </g>
   </g>
   <g id="line2d_33">
    <defs>
     <path d="M 0 1.5 
C 0.397805 1.5 0.77937 1.341951 1.06066 1.06066 
C 1.341951 0.77937 1.5 0.397805 1.5 0 
C 1.5 -0.397805 1.341951 -0.77937 1.06066 -1.06066 
C 0.77937 -1.341951 0.397805 -1.5 0 -1.5 
C -0.397805 -1.5 -0.77937 -1.341951 -1.06066 -1.06066 
C -1.341951 -0.77937 -1.5 -0.397805 -1.5 0 
C -1.5 0.397805 -1.341951 0.77937 -1.06066 1.06066 
C -0.77937 1.341951 -0.397805 1.5 0 1.5 
z
" id="m29189369b4" style="stroke:#ffa500;"/>
    </defs>
    <g>
     <use style="fill:#ffa500;stroke:#ffa500;" x="265.131057" xlink:href="#m29189369b4" y="34.768147"/>
     <use style="fill:#ffa500;stroke:#ffa500;" x="265.131057" xlink:href="#m29189369b4" y="34.768147"/>
    </g>
   </g>
   <g id="line2d_34">
    <path d="M 51.169868 298.245375 
L 51.169868 277.063872 
L 70.8 277.063872 
L 70.8 276.030628 
L 75.940337 276.030628 
L 75.940337 273.447518 
L 83.185234 273.447518 
L 83.185234 272.414274 
L 85.939616 272.414274 
L 85.939616 271.897652 
L 92.312726 271.897652 
L 92.312726 267.764676 
L 94.015739 267.764676 
L 94.015739 266.21481 
L 95.570468 266.21481 
L 95.570468 263.6317 
L 97.000681 263.6317 
L 97.000681 262.598456 
L 100.710805 262.598456 
L 100.710805 262.081834 
L 102.815366 262.081834 
L 102.815366 261.04859 
L 103.781445 261.04859 
L 103.781445 260.531968 
L 105.569748 260.531968 
L 105.569748 260.015346 
L 109.385915 260.015346 
L 109.385915 259.498724 
L 111.942857 259.498724 
L 111.942857 258.982102 
L 113.096039 258.982102 
L 113.096039 258.46548 
L 117.524404 258.46548 
L 117.524404 257.432236 
L 118.786207 257.432236 
L 118.786207 255.365748 
L 120.340936 255.365748 
L 120.340936 254.332504 
L 123.095319 254.332504 
L 123.095319 252.782638 
L 124.02778 252.782638 
L 124.02778 252.266016 
L 127.335926 252.266016 
L 127.335926 249.166284 
L 130.340216 249.166284 
L 130.340216 248.649662 
L 132.349986 248.649662 
L 132.349986 248.13304 
L 132.539068 248.13304 
L 132.539068 246.066551 
L 132.911334 246.066551 
L 132.911334 245.549929 
L 133.809418 245.549929 
L 133.809418 239.867087 
L 134.156383 239.867087 
L 134.156383 239.350465 
L 134.327371 239.350465 
L 134.327371 238.833843 
L 134.496738 238.833843 
L 134.496738 238.317221 
L 134.664515 238.317221 
L 134.664515 237.800599 
L 134.830731 237.800599 
L 134.830731 236.250733 
L 137.585114 236.250733 
L 137.585114 234.700867 
L 137.726364 234.700867 
L 137.726364 233.667623 
L 138.143538 233.667623 
L 138.143538 233.151001 
L 139.080657 233.151001 
L 139.080657 227.468159 
L 139.210608 227.468159 
L 139.210608 225.918293 
L 140.819206 225.918293 
L 140.819206 225.401671 
L 144.057215 225.401671 
L 144.057215 223.851805 
L 145.479832 223.851805 
L 145.479832 223.335183 
L 145.751252 223.335183 
L 145.751252 222.301939 
L 145.929935 222.301939 
L 145.929935 221.785317 
L 147.705534 221.785317 
L 147.705534 220.235451 
L 148.024616 220.235451 
L 148.024616 219.718829 
L 148.260243 219.718829 
L 148.338099 214.035987 
L 148.646178 214.035987 
L 148.646178 213.519365 
L 148.8738 213.519365 
L 148.8738 210.419632 
L 150.936427 210.419632 
L 150.936427 208.353144 
L 151.852942 208.353144 
L 151.852942 205.253412 
L 152.66385 205.253412 
L 152.72473 202.15368 
L 153.20444 202.15368 
L 153.20444 201.120436 
L 155.322144 201.120436 
L 155.322144 200.603814 
L 155.582997 200.603814 
L 155.582997 199.57057 
L 155.840096 199.57057 
L 155.840096 197.504082 
L 156.043145 197.504082 
L 156.043145 195.954216 
L 156.929349 195.954216 
L 156.929349 193.887728 
L 158.492082 193.887728 
L 158.492082 193.371106 
L 160.449337 193.371106 
L 160.449337 192.854484 
L 163.152934 192.854484 
L 163.152934 191.304618 
L 209.883952 191.304618 
L 209.975476 182.522044 
L 210.012447 182.522044 
L 210.098417 178.90569 
L 210.12535 178.90569 
L 210.230249 168.056627 
L 210.3176 168.056627 
L 210.426192 160.307297 
L 210.433408 160.307297 
L 210.522167 153.591211 
L 210.58666 153.591211 
L 210.608106 148.424991 
L 210.698373 148.424991 
L 210.774036 141.192282 
L 210.814101 141.192282 
L 210.854078 140.159038 
L 210.964136 140.159038 
L 210.994459 139.125794 
L 211.136058 139.125794 
L 211.136058 138.609172 
L 222.266706 138.609172 
L 222.36071 132.409708 
L 222.385366 132.409708 
L 222.482426 125.177 
L 222.500795 125.177 
L 222.603317 118.977536 
L 222.619132 118.977536 
L 222.714933 110.711584 
L 222.756006 110.711584 
L 222.828259 108.645095 
L 222.901418 108.645095 
L 222.901418 108.128473 
L 229.514084 108.128473 
L 229.61794 100.379143 
L 229.653245 100.379143 
L 229.75222 92.113191 
L 229.787261 92.113191 
L 229.874969 87.463593 
L 234.65132 87.463593 
L 234.7299 80.230885 
L 234.765672 80.230885 
L 234.860307 74.548042 
L 234.894595 74.548042 
L 234.93126 72.481554 
L 238.637607 72.481554 
L 238.744938 68.348578 
L 238.748883 68.348578 
L 238.806474 64.732224 
L 241.891877 64.732224 
L 241.999064 61.11587 
L 242.010569 61.11587 
L 242.106021 56.982894 
L 244.645196 56.982894 
L 244.747691 51.816674 
L 244.775159 51.816674 
L 244.775159 51.300052 
L 247.043994 51.300052 
L 247.149982 48.20032 
L 247.155218 48.20032 
L 247.155218 47.683698 
L 249.153857 47.683698 
L 249.227787 45.100588 
L 251.034496 45.100588 
L 251.113151 43.0341 
L 252.722381 43.0341 
L 252.773282 40.967611 
L 254.291577 40.967611 
L 254.322125 38.384501 
L 258.27865 38.384501 
L 258.319589 36.834635 
L 260.518199 36.834635 
L 260.518199 36.318013 
L 261.538541 36.318013 
L 261.538541 35.801391 
L 264.321818 35.801391 
L 264.321818 35.284769 
L 265.131057 35.284769 
L 265.131057 34.768147 
L 358.8 34.768147 
L 358.8 34.768147 
" style="fill:none;stroke:#ffa500;stroke-linecap:square;stroke-width:1.5;"/>
   </g>
   <g id="line2d_35">
    <defs>
     <path d="M 0 -6 
L -1.347084 -1.854102 
L -5.706339 -1.854102 
L -2.179628 0.708204 
L -3.526712 4.854102 
L -0 2.291796 
L 3.526712 4.854102 
L 2.179628 0.708204 
L 5.706339 -1.854102 
L 1.347084 -1.854102 
z
" id="m92ba0e51cd" style="stroke:#ffa500;stroke-linejoin:bevel;stroke-width:1.5;"/>
    </defs>
    <g>
     <use style="fill:none;stroke:#ffa500;stroke-linejoin:bevel;stroke-width:1.5;" x="105.569748" xlink:href="#m92ba0e51cd" y="260.531968"/>
     <use style="fill:none;stroke:#ffa500;stroke-linejoin:bevel;stroke-width:1.5;" x="163.152934" xlink:href="#m92ba0e51cd" y="192.854484"/>
     <use style="fill:none;stroke:#ffa500;stroke-linejoin:bevel;stroke-width:1.5;" x="222.714933" xlink:href="#m92ba0e51cd" y="111.744828"/>
     <use style="fill:none;stroke:#ffa500;stroke-linejoin:bevel;stroke-width:1.5;" x="265.131057" xlink:href="#m92ba0e51cd" y="35.284769"/>
     <use style="fill:none;stroke:#ffa500;stroke-linejoin:bevel;stroke-width:1.5;" x="265.131057" xlink:href="#m92ba0e51cd" y="34.768147"/>
     <use style="fill:none;stroke:#ffa500;stroke-linejoin:bevel;stroke-width:1.5;" x="358.8" xlink:href="#m92ba0e51cd" y="34.768147"/>
    </g>
   </g>
   <g id="line2d_36"/>
   <g id="line2d_37">
    <path clip-path="url(#p1c6f9294e8)" d="M 209.87403 191.304618 
" style="fill:none;stroke:#ffa500;stroke-linecap:square;stroke-width:1.5;"/>
    <defs>
     <path d="M -12 12 
L 12 -12 
M -12 -12 
L 12 12 
" id="m9bbed8c1a3" style="stroke:#ffa500;stroke-width:3;"/>
    </defs>
    <g clip-path="url(#p1c6f9294e8)">
     <use style="fill:#ffa500;stroke:#ffa500;stroke-width:3;" x="209.87403" xlink:href="#m9bbed8c1a3" y="191.304618"/>
    </g>
   </g>
   <g id="line2d_38">
    <defs>
     <path d="M 0 1.5 
C 0.397805 1.5 0.77937 1.341951 1.06066 1.06066 
C 1.341951 0.77937 1.5 0.397805 1.5 0 
C 1.5 -0.397805 1.341951 -0.77937 1.06066 -1.06066 
C 0.77937 -1.341951 0.397805 -1.5 0 -1.5 
C -0.397805 -1.5 -0.77937 -1.341951 -1.06066 -1.06066 
C -1.341951 -0.77937 -1.5 -0.397805 -1.5 0 
C -1.5 0.397805 -1.341951 0.77937 -1.06066 1.06066 
C -0.77937 1.341951 -0.397805 1.5 0 1.5 
z
" id="m1a24d342bc" style="stroke:#6495ed;"/>
    </defs>
    <g>
     <use style="fill:#6495ed;stroke:#6495ed;" x="289.270077" xlink:href="#m1a24d342bc" y="231.084513"/>
     <use style="fill:#6495ed;stroke:#6495ed;" x="289.270077" xlink:href="#m1a24d342bc" y="231.084513"/>
    </g>
   </g>
   <g id="line2d_39">
    <path d="M 97.000681 298.245375 
L 97.000681 293.079155 
L 102.815366 293.079155 
L 102.815366 290.496045 
L 103.781445 290.496045 
L 103.781445 288.946179 
L 105.569748 288.946179 
L 105.569748 287.912935 
L 106.400973 287.912935 
L 106.400973 285.846447 
L 109.385915 285.846447 
L 109.385915 277.580494 
L 110.060263 277.580494 
L 110.060263 273.447518 
L 110.710085 273.447518 
L 110.710085 271.897652 
L 111.3371 271.897652 
L 111.3371 268.79792 
L 111.942857 268.79792 
L 111.942857 268.281298 
L 112.528749 268.281298 
L 112.528749 264.664944 
L 113.096039 264.664944 
L 113.096039 262.598456 
L 113.64587 262.598456 
L 113.64587 261.565212 
L 114.179287 261.565212 
L 114.179287 259.498724 
L 116.166679 259.498724 
L 116.166679 258.982102 
L 117.083194 258.982102 
L 117.083194 258.46548 
L 117.524404 258.46548 
L 117.524404 256.915614 
L 122.773362 256.915614 
L 122.773362 256.398992 
L 123.095319 256.398992 
L 123.095319 255.88237 
L 128.315246 255.88237 
L 128.315246 255.365748 
L 130.340216 255.365748 
L 130.340216 254.332504 
L 131.572989 254.332504 
L 131.572989 253.29926 
L 132.158881 253.29926 
L 132.158881 252.782638 
L 132.349986 252.782638 
L 132.349986 252.266016 
L 140.217529 252.266016 
L 140.217529 251.232772 
L 151.40056 251.232772 
L 151.40056 250.71615 
L 151.789013 250.71615 
L 151.789013 249.682906 
L 152.1692 249.682906 
L 152.1692 248.649662 
L 161.779141 248.649662 
L 161.779141 247.616418 
L 209.992739 247.616418 
L 209.992739 247.099796 
L 210.108215 247.099796 
L 210.108215 246.066551 
L 210.232681 246.066551 
L 210.232681 245.549929 
L 210.261842 245.549929 
L 210.261842 245.033307 
L 210.567575 245.033307 
L 210.567575 244.000063 
L 222.609401 244.000063 
L 222.609401 243.483441 
L 222.854679 243.483441 
L 222.854679 242.450197 
L 229.728548 242.450197 
L 229.728548 241.933575 
L 229.738347 241.933575 
L 229.738347 240.900331 
L 234.820424 240.900331 
L 234.820424 240.383709 
L 238.772532 240.383709 
L 238.772532 239.867087 
L 238.872205 239.867087 
L 238.872205 239.350465 
L 242.006872 239.350465 
L 242.006872 238.317221 
L 244.744519 238.317221 
L 244.744519 237.800599 
L 249.212696 237.800599 
L 249.212696 237.283977 
L 251.137568 237.283977 
L 251.137568 236.767355 
L 252.784074 236.767355 
L 252.784074 236.250733 
L 254.333464 236.250733 
L 254.333464 235.217489 
L 258.308868 235.217489 
L 258.308868 234.700867 
L 262.549224 234.700867 
L 262.549224 234.184245 
L 265.930124 234.184245 
L 265.930124 233.667623 
L 266.689305 233.667623 
L 266.689305 233.151001 
L 272.386688 233.151001 
L 272.386688 232.634379 
L 277.918805 232.634379 
L 277.918805 232.117757 
L 283.339189 232.117757 
L 283.339189 231.601135 
L 289.270077 231.601135 
L 289.270077 231.084513 
L 358.8 231.084513 
" style="fill:none;stroke:#6495ed;stroke-linecap:square;stroke-width:1.5;"/>
   </g>
   <g id="line2d_40">
    <defs>
     <path d="M -0 6 
L 6 -6 
L -6 -6 
z
" id="mdd223bc677" style="stroke:#6495ed;stroke-linejoin:miter;stroke-width:1.5;"/>
    </defs>
    <g>
     <use style="fill:none;stroke:#6495ed;stroke-linejoin:miter;stroke-width:1.5;" x="161.779141" xlink:href="#mdd223bc677" y="248.649662"/>
     <use style="fill:none;stroke:#6495ed;stroke-linejoin:miter;stroke-width:1.5;" x="266.689305" xlink:href="#mdd223bc677" y="233.151001"/>
     <use style="fill:none;stroke:#6495ed;stroke-linejoin:miter;stroke-width:1.5;" x="289.270077" xlink:href="#mdd223bc677" y="231.084513"/>
     <use style="fill:none;stroke:#6495ed;stroke-linejoin:miter;stroke-width:1.5;" x="289.270077" xlink:href="#mdd223bc677" y="231.084513"/>
     <use style="fill:none;stroke:#6495ed;stroke-linejoin:miter;stroke-width:1.5;" x="358.8" xlink:href="#mdd223bc677" y="231.084513"/>
    </g>
   </g>
   <g id="line2d_41"/>
   <g id="line2d_42">
    <path clip-path="url(#p1c6f9294e8)" d="M 209.87403 247.616418 
" style="fill:none;stroke:#6495ed;stroke-linecap:square;stroke-width:1.5;"/>
    <defs>
     <path d="M -12 12 
L 12 -12 
M -12 -12 
L 12 12 
" id="mb4e9ad807c" style="stroke:#6495ed;stroke-width:3;"/>
    </defs>
    <g clip-path="url(#p1c6f9294e8)">
     <use style="fill:#6495ed;stroke:#6495ed;stroke-width:3;" x="209.87403" xlink:href="#mb4e9ad807c" y="247.616418"/>
    </g>
   </g>
   <g id="line2d_43">
    <defs>
     <path d="M 0 1.5 
C 0.397805 1.5 0.77937 1.341951 1.06066 1.06066 
C 1.341951 0.77937 1.5 0.397805 1.5 0 
C 1.5 -0.397805 1.341951 -0.77937 1.06066 -1.06066 
C 0.77937 -1.341951 0.397805 -1.5 0 -1.5 
C -0.397805 -1.5 -0.77937 -1.341951 -1.06066 -1.06066 
C -1.341951 -0.77937 -1.5 -0.397805 -1.5 0 
C -1.5 0.397805 -1.341951 0.77937 -1.06066 1.06066 
C -0.77937 1.341951 -0.397805 1.5 0 1.5 
z
" id="m292ef455fa" style="stroke:#ff0000;"/>
    </defs>
    <g>
     <use style="fill:#ff0000;stroke:#ff0000;" x="270.075198" xlink:href="#m292ef455fa" y="246.583173"/>
     <use style="fill:#ff0000;stroke:#ff0000;" x="270.075198" xlink:href="#m292ef455fa" y="246.583173"/>
    </g>
   </g>
   <g id="line2d_44">
    <path d="M 51.169868 298.245375 
L 51.169868 288.946179 
L 63.555102 288.946179 
L 63.555102 285.329825 
L 70.8 285.329825 
L 70.8 283.779959 
L 88.325571 283.779959 
L 88.325571 283.263337 
L 90.430132 283.263337 
L 90.430132 282.746715 
L 94.015739 282.746715 
L 94.015739 282.230093 
L 95.570468 282.230093 
L 95.570468 281.713471 
L 101.794053 281.713471 
L 101.794053 280.680226 
L 104.69796 280.680226 
L 104.69796 279.646982 
L 111.3371 279.646982 
L 111.3371 278.613738 
L 117.954982 278.613738 
L 117.954982 278.097116 
L 118.375428 278.097116 
L 118.375428 276.030628 
L 127.335926 276.030628 
L 127.335926 275.514006 
L 127.832295 275.514006 
L 127.832295 274.480762 
L 134.995416 274.480762 
L 134.995416 273.447518 
L 136.563801 273.447518 
L 136.563801 272.930896 
L 141.286373 272.930896 
L 141.286373 272.414274 
L 147.78584 272.414274 
L 147.78584 271.897652 
L 149.899301 271.897652 
L 149.899301 271.38103 
L 152.66385 271.38103 
L 152.66385 270.864408 
L 153.145176 270.864408 
L 153.145176 269.314542 
L 155.322144 269.314542 
L 155.322144 268.79792 
L 158.091535 268.79792 
L 158.091535 268.281298 
L 158.136486 268.281298 
L 158.136486 267.764676 
L 158.926851 267.764676 
L 158.926851 267.248054 
L 161.183482 267.248054 
L 161.183482 266.21481 
L 163.687347 266.21481 
L 163.687347 265.181566 
L 164.491628 265.181566 
L 164.491628 264.148322 
L 164.865192 264.148322 
L 164.865192 263.115078 
L 176.734738 263.115078 
L 176.734738 262.598456 
L 177.281206 262.598456 
L 177.281206 261.565212 
L 179.973974 261.565212 
L 179.973974 261.04859 
L 181.051775 261.04859 
L 181.051775 260.015346 
L 210.486237 260.015346 
L 210.486237 259.498724 
L 210.731515 259.498724 
L 210.731515 257.948858 
L 210.943114 257.948858 
L 210.943114 256.915614 
L 211.258183 256.915614 
L 211.258183 256.398992 
L 212.547052 256.398992 
L 212.547052 255.365748 
L 212.946368 255.365748 
L 212.946368 254.849126 
L 222.920558 254.849126 
L 222.920558 254.332504 
L 229.829544 254.332504 
L 229.829544 253.815882 
L 234.889089 253.815882 
L 234.889089 253.29926 
L 242.052828 253.29926 
L 242.052828 252.782638 
L 244.783954 252.782638 
L 244.783954 251.749394 
L 245.051004 251.749394 
L 245.051004 251.232772 
L 247.139195 251.232772 
L 247.139195 250.71615 
L 247.152446 250.71615 
L 247.152446 250.199528 
L 249.231627 250.199528 
L 249.231627 249.682906 
L 249.243414 249.682906 
L 249.243414 249.166284 
L 254.356533 249.166284 
L 254.356533 248.649662 
L 258.327337 248.649662 
L 258.327337 248.13304 
L 259.476429 248.13304 
L 259.476429 247.616418 
L 269.449393 247.616418 
L 269.449393 247.099796 
L 270.075198 247.099796 
L 270.075198 246.583173 
L 358.8 246.583173 
" style="fill:none;stroke:#ff0000;stroke-linecap:square;stroke-width:1.5;"/>
   </g>
   <g id="line2d_45">
    <defs>
     <path d="M 0 -6 
L -5.196152 -3 
L -5.196152 3 
L -0 6 
L 5.196152 3 
L 5.196152 -3 
z
" id="mb22f3a5893" style="stroke:#ff0000;stroke-linejoin:miter;stroke-width:1.5;"/>
    </defs>
    <g>
     <use style="fill:none;stroke:#ff0000;stroke-linejoin:miter;stroke-width:1.5;" x="111.3371" xlink:href="#mb22f3a5893" y="278.613738"/>
     <use style="fill:none;stroke:#ff0000;stroke-linejoin:miter;stroke-width:1.5;" x="181.051775" xlink:href="#mb22f3a5893" y="261.04859"/>
     <use style="fill:none;stroke:#ff0000;stroke-linejoin:miter;stroke-width:1.5;" x="259.476429" xlink:href="#mb22f3a5893" y="248.13304"/>
     <use style="fill:none;stroke:#ff0000;stroke-linejoin:miter;stroke-width:1.5;" x="270.075198" xlink:href="#mb22f3a5893" y="246.583173"/>
     <use style="fill:none;stroke:#ff0000;stroke-linejoin:miter;stroke-width:1.5;" x="270.075198" xlink:href="#mb22f3a5893" y="246.583173"/>
     <use style="fill:none;stroke:#ff0000;stroke-linejoin:miter;stroke-width:1.5;" x="358.8" xlink:href="#mb22f3a5893" y="246.583173"/>
    </g>
   </g>
   <g id="line2d_46"/>
   <g id="line2d_47">
    <path clip-path="url(#p1c6f9294e8)" d="M 209.87403 260.015346 
" style="fill:none;stroke:#ff0000;stroke-linecap:square;stroke-width:1.5;"/>
    <defs>
     <path d="M -12 12 
L 12 -12 
M -12 -12 
L 12 12 
" id="mf82beebd13" style="stroke:#ff0000;stroke-width:3;"/>
    </defs>
    <g clip-path="url(#p1c6f9294e8)">
     <use style="fill:#ff0000;stroke:#ff0000;stroke-width:3;" x="209.87403" xlink:href="#mf82beebd13" y="260.015346"/>
    </g>
   </g>
   <g id="line2d_48">
    <path d="M 358.8 246.583173 
L 390.48 292.97583 
" style="fill:none;stroke:#ff0000;stroke-linecap:square;stroke-width:1.5;"/>
    <g>
     <use style="fill:none;stroke:#ff0000;stroke-linejoin:miter;stroke-width:1.5;" x="358.8" xlink:href="#mb22f3a5893" y="246.583173"/>
     <use style="fill:none;stroke:#ff0000;stroke-linejoin:miter;stroke-width:1.5;" x="390.48" xlink:href="#mb22f3a5893" y="292.97583"/>
    </g>
   </g>
   <g id="line2d_49">
    <path d="M 358.8 231.084513 
L 390.48 229.741296 
" style="fill:none;stroke:#6495ed;stroke-linecap:square;stroke-width:1.5;"/>
    <g>
     <use style="fill:none;stroke:#6495ed;stroke-linejoin:miter;stroke-width:1.5;" x="358.8" xlink:href="#mdd223bc677" y="231.084513"/>
     <use style="fill:none;stroke:#6495ed;stroke-linejoin:miter;stroke-width:1.5;" x="390.48" xlink:href="#mdd223bc677" y="229.741296"/>
    </g>
   </g>
   <g id="line2d_50">
    <path d="M 358.8 34.768147 
L 390.48 166.506761 
" style="fill:none;stroke:#000080;stroke-linecap:square;stroke-width:1.5;"/>
    <g>
     <use style="fill:none;stroke:#000080;stroke-width:1.5;" x="358.8" xlink:href="#m612c552252" y="34.768147"/>
     <use style="fill:none;stroke:#000080;stroke-width:1.5;" x="390.48" xlink:href="#m612c552252" y="166.506761"/>
    </g>
   </g>
   <g id="line2d_51">
    <path d="M 358.8 34.768147 
L 390.48 103.272226 
" style="fill:none;stroke:#ffa500;stroke-linecap:square;stroke-width:1.5;"/>
    <g>
     <use style="fill:none;stroke:#ffa500;stroke-linejoin:bevel;stroke-width:1.5;" x="358.8" xlink:href="#m92ba0e51cd" y="34.768147"/>
     <use style="fill:none;stroke:#ffa500;stroke-linejoin:bevel;stroke-width:1.5;" x="390.48" xlink:href="#m92ba0e51cd" y="103.272226"/>
    </g>
   </g>
   <g id="line2d_52">
    <path d="M 358.8 34.768147 
L 390.48 40.037692 
" style="fill:none;stroke:#ff00ff;stroke-linecap:square;stroke-width:1.5;"/>
    <g>
     <use style="fill:none;stroke:#ff00ff;stroke-linejoin:miter;stroke-width:1.5;" x="358.8" xlink:href="#md2d747303f" y="34.768147"/>
     <use style="fill:none;stroke:#ff00ff;stroke-linejoin:miter;stroke-width:1.5;" x="390.48" xlink:href="#md2d747303f" y="40.037692"/>
    </g>
   </g>
   <g id="line2d_53">
    <path d="M 358.8 298.245375 
L 358.8 34.768147 
" style="fill:none;stroke:#000000;stroke-linecap:square;stroke-width:1.5;"/>
   </g>
   <g id="patch_3">
    <path d="M 70.8 298.245375 
L 70.8 32.133375 
" style="fill:none;stroke:#000000;stroke-linecap:square;stroke-linejoin:miter;stroke-width:0.8;"/>
   </g>
   <g id="patch_4">
    <path d="M 427.92 298.245375 
L 427.92 32.133375 
" style="fill:none;stroke:#000000;stroke-linecap:square;stroke-linejoin:miter;stroke-width:0.8;"/>
   </g>
   <g id="patch_5">
    <path d="M 70.8 298.245375 
L 427.92 298.245375 
" style="fill:none;stroke:#000000;stroke-linecap:square;stroke-linejoin:miter;stroke-width:0.8;"/>
   </g>
   <g id="patch_6">
    <path d="M 70.8 32.133375 
L 427.92 32.133375 
" style="fill:none;stroke:#000000;stroke-linecap:square;stroke-linejoin:miter;stroke-width:0.8;"/>
   </g>
   <g id="text_14">
    <!-- f24 -->
    <g transform="translate(396.24 297.114893)scale(0.15 -0.15)">
     <use xlink:href="#DejaVuSans-66"/>
     <use x="35.205078" xlink:href="#DejaVuSans-32"/>
     <use x="98.828125" xlink:href="#DejaVuSans-34"/>
    </g>
   </g>
   <g id="text_15">
    <!-- f20 -->
    <g transform="translate(396.24 233.880358)scale(0.15 -0.15)">
     <use xlink:href="#DejaVuSans-66"/>
     <use x="35.205078" xlink:href="#DejaVuSans-32"/>
     <use x="98.828125" xlink:href="#DejaVuSans-30"/>
    </g>
   </g>
   <g id="text_16">
    <!-- f23 -->
    <defs>
     <path d="M 40.578125 39.3125 
Q 47.65625 37.796875 51.625 33 
Q 55.609375 28.21875 55.609375 21.1875 
Q 55.609375 10.40625 48.1875 4.484375 
Q 40.765625 -1.421875 27.09375 -1.421875 
Q 22.515625 -1.421875 17.65625 -0.515625 
Q 12.796875 0.390625 7.625 2.203125 
L 7.625 11.71875 
Q 11.71875 9.328125 16.59375 8.109375 
Q 21.484375 6.890625 26.8125 6.890625 
Q 36.078125 6.890625 40.9375 10.546875 
Q 45.796875 14.203125 45.796875 21.1875 
Q 45.796875 27.640625 41.28125 31.265625 
Q 36.765625 34.90625 28.71875 34.90625 
L 20.21875 34.90625 
L 20.21875 43.015625 
L 29.109375 43.015625 
Q 36.375 43.015625 40.234375 45.921875 
Q 44.09375 48.828125 44.09375 54.296875 
Q 44.09375 59.90625 40.109375 62.90625 
Q 36.140625 65.921875 28.71875 65.921875 
Q 24.65625 65.921875 20.015625 65.03125 
Q 15.375 64.15625 9.8125 62.3125 
L 9.8125 71.09375 
Q 15.4375 72.65625 20.34375 73.4375 
Q 25.25 74.21875 29.59375 74.21875 
Q 40.828125 74.21875 47.359375 69.109375 
Q 53.90625 64.015625 53.90625 55.328125 
Q 53.90625 49.265625 50.4375 45.09375 
Q 46.96875 40.921875 40.578125 39.3125 
z
" id="DejaVuSans-33"/>
    </defs>
    <g transform="translate(396.24 170.645824)scale(0.15 -0.15)">
     <use xlink:href="#DejaVuSans-66"/>
     <use x="35.205078" xlink:href="#DejaVuSans-32"/>
     <use x="98.828125" xlink:href="#DejaVuSans-33"/>
    </g>
   </g>
   <g id="text_17">
    <!-- f21 -->
    <g transform="translate(396.24 107.411289)scale(0.15 -0.15)">
     <use xlink:href="#DejaVuSans-66"/>
     <use x="35.205078" xlink:href="#DejaVuSans-32"/>
     <use x="98.828125" xlink:href="#DejaVuSans-31"/>
    </g>
   </g>
   <g id="text_18">
    <!-- f22 -->
    <g transform="translate(396.24 44.176754)scale(0.15 -0.15)">
     <use xlink:href="#DejaVuSans-66"/>
     <use x="35.205078" xlink:href="#DejaVuSans-32"/>
     <use x="98.828125" xlink:href="#DejaVuSans-32"/>
    </g>
   </g>
   <g id="text_19">
    <!-- bbob -->
    <defs>
     <path d="M 48.6875 27.296875 
Q 48.6875 37.203125 44.609375 42.84375 
Q 40.53125 48.484375 33.40625 48.484375 
Q 26.265625 48.484375 22.1875 42.84375 
Q 18.109375 37.203125 18.109375 27.296875 
Q 18.109375 17.390625 22.1875 11.75 
Q 26.265625 6.109375 33.40625 6.109375 
Q 40.53125 6.109375 44.609375 11.75 
Q 48.6875 17.390625 48.6875 27.296875 
z
M 18.109375 46.390625 
Q 20.953125 51.265625 25.265625 53.625 
Q 29.59375 56 35.59375 56 
Q 45.5625 56 51.78125 48.09375 
Q 58.015625 40.1875 58.015625 27.296875 
Q 58.015625 14.40625 51.78125 6.484375 
Q 45.5625 -1.421875 35.59375 -1.421875 
Q 29.59375 -1.421875 25.265625 0.953125 
Q 20.953125 3.328125 18.109375 8.203125 
L 18.109375 0 
L 9.078125 0 
L 9.078125 75.984375 
L 18.109375 75.984375 
z
" id="DejaVuSans-62"/>
    </defs>
    <g transform="translate(74.3712 50.114612)scale(0.1666 -0.1666)">
     <use xlink:href="#DejaVuSans-62"/>
     <use x="63.476562" xlink:href="#DejaVuSans-62"/>
     <use x="126.953125" xlink:href="#DejaVuSans-6f"/>
     <use x="188.134766" xlink:href="#DejaVuSans-62"/>
    </g>
    <!-- Weak structure functions, 3-D -->
    <defs>
     <path d="M 3.328125 72.90625 
L 13.28125 72.90625 
L 28.609375 11.28125 
L 43.890625 72.90625 
L 54.984375 72.90625 
L 70.3125 11.28125 
L 85.59375 72.90625 
L 95.609375 72.90625 
L 77.296875 0 
L 64.890625 0 
L 49.515625 63.28125 
L 33.984375 0 
L 21.578125 0 
z
" id="DejaVuSans-57"/>
     <path d="M 9.078125 75.984375 
L 18.109375 75.984375 
L 18.109375 31.109375 
L 44.921875 54.6875 
L 56.390625 54.6875 
L 27.390625 29.109375 
L 57.625 0 
L 45.90625 0 
L 18.109375 26.703125 
L 18.109375 0 
L 9.078125 0 
z
" id="DejaVuSans-6b"/>
     <path d="M 11.71875 12.40625 
L 22.015625 12.40625 
L 22.015625 4 
L 14.015625 -11.625 
L 7.71875 -11.625 
L 11.71875 4 
z
" id="DejaVuSans-2c"/>
     <path d="M 19.671875 64.796875 
L 19.671875 8.109375 
L 31.59375 8.109375 
Q 46.6875 8.109375 53.6875 14.9375 
Q 60.6875 21.78125 60.6875 36.53125 
Q 60.6875 51.171875 53.6875 57.984375 
Q 46.6875 64.796875 31.59375 64.796875 
z
M 9.8125 72.90625 
L 30.078125 72.90625 
Q 51.265625 72.90625 61.171875 64.09375 
Q 71.09375 55.28125 71.09375 36.53125 
Q 71.09375 17.671875 61.125 8.828125 
Q 51.171875 0 30.078125 0 
L 9.8125 0 
z
" id="DejaVuSans-44"/>
    </defs>
    <g transform="translate(74.3712 68.770168)scale(0.1666 -0.1666)">
     <use xlink:href="#DejaVuSans-57"/>
     <use x="98.798828" xlink:href="#DejaVuSans-65"/>
     <use x="160.322266" xlink:href="#DejaVuSans-61"/>
     <use x="221.601562" xlink:href="#DejaVuSans-6b"/>
     <use x="279.511719" xlink:href="#DejaVuSans-20"/>
     <use x="311.298828" xlink:href="#DejaVuSans-73"/>
     <use x="363.398438" xlink:href="#DejaVuSans-74"/>
     <use x="402.607422" xlink:href="#DejaVuSans-72"/>
     <use x="443.720703" xlink:href="#DejaVuSans-75"/>
     <use x="507.099609" xlink:href="#DejaVuSans-63"/>
     <use x="562.080078" xlink:href="#DejaVuSans-74"/>
     <use x="601.289062" xlink:href="#DejaVuSans-75"/>
     <use x="664.667969" xlink:href="#DejaVuSans-72"/>
     <use x="705.75" xlink:href="#DejaVuSans-65"/>
     <use x="767.273438" xlink:href="#DejaVuSans-20"/>
     <use x="799.060547" xlink:href="#DejaVuSans-66"/>
     <use x="834.265625" xlink:href="#DejaVuSans-75"/>
     <use x="897.644531" xlink:href="#DejaVuSans-6e"/>
     <use x="961.023438" xlink:href="#DejaVuSans-63"/>
     <use x="1016.003906" xlink:href="#DejaVuSans-74"/>
     <use x="1055.212891" xlink:href="#DejaVuSans-69"/>
     <use x="1082.996094" xlink:href="#DejaVuSans-6f"/>
     <use x="1144.177734" xlink:href="#DejaVuSans-6e"/>
     <use x="1207.556641" xlink:href="#DejaVuSans-73"/>
     <use x="1259.65625" xlink:href="#DejaVuSans-2c"/>
     <use x="1291.443359" xlink:href="#DejaVuSans-20"/>
     <use x="1323.230469" xlink:href="#DejaVuSans-33"/>
     <use x="1386.853516" xlink:href="#DejaVuSans-2d"/>
     <use x="1422.9375" xlink:href="#DejaVuSans-44"/>
    </g>
    <!-- 51 targets in 100..1e-08 -->
    <defs>
     <path d="M 10.796875 72.90625 
L 49.515625 72.90625 
L 49.515625 64.59375 
L 19.828125 64.59375 
L 19.828125 46.734375 
Q 21.96875 47.46875 24.109375 47.828125 
Q 26.265625 48.1875 28.421875 48.1875 
Q 40.625 48.1875 47.75 41.5 
Q 54.890625 34.8125 54.890625 23.390625 
Q 54.890625 11.625 47.5625 5.09375 
Q 40.234375 -1.421875 26.90625 -1.421875 
Q 22.3125 -1.421875 17.546875 -0.640625 
Q 12.796875 0.140625 7.71875 1.703125 
L 7.71875 11.625 
Q 12.109375 9.234375 16.796875 8.0625 
Q 21.484375 6.890625 26.703125 6.890625 
Q 35.15625 6.890625 40.078125 11.328125 
Q 45.015625 15.765625 45.015625 23.390625 
Q 45.015625 31 40.078125 35.4375 
Q 35.15625 39.890625 26.703125 39.890625 
Q 22.75 39.890625 18.8125 39.015625 
Q 14.890625 38.140625 10.796875 36.28125 
z
" id="DejaVuSans-35"/>
    </defs>
    <g transform="translate(74.3712 87.425723)scale(0.1666 -0.1666)">
     <use xlink:href="#DejaVuSans-35"/>
     <use x="63.623047" xlink:href="#DejaVuSans-31"/>
     <use x="127.246094" xlink:href="#DejaVuSans-20"/>
     <use x="159.033203" xlink:href="#DejaVuSans-74"/>
     <use x="198.242188" xlink:href="#DejaVuSans-61"/>
     <use x="259.521484" xlink:href="#DejaVuSans-72"/>
     <use x="300.619141" xlink:href="#DejaVuSans-67"/>
     <use x="364.095703" xlink:href="#DejaVuSans-65"/>
     <use x="425.619141" xlink:href="#DejaVuSans-74"/>
     <use x="464.828125" xlink:href="#DejaVuSans-73"/>
     <use x="516.927734" xlink:href="#DejaVuSans-20"/>
     <use x="548.714844" xlink:href="#DejaVuSans-69"/>
     <use x="576.498047" xlink:href="#DejaVuSans-6e"/>
     <use x="639.876953" xlink:href="#DejaVuSans-20"/>
     <use x="671.664062" xlink:href="#DejaVuSans-31"/>
     <use x="735.287109" xlink:href="#DejaVuSans-30"/>
     <use x="798.910156" xlink:href="#DejaVuSans-30"/>
     <use x="862.533203" xlink:href="#DejaVuSans-2e"/>
     <use x="894.320312" xlink:href="#DejaVuSans-2e"/>
     <use x="926.107422" xlink:href="#DejaVuSans-31"/>
     <use x="989.730469" xlink:href="#DejaVuSans-65"/>
     <use x="1051.253906" xlink:href="#DejaVuSans-2d"/>
     <use x="1087.337891" xlink:href="#DejaVuSans-30"/>
     <use x="1150.960938" xlink:href="#DejaVuSans-38"/>
    </g>
    <!-- 15 instances -->
    <g transform="translate(74.3712 106.081279)scale(0.1666 -0.1666)">
     <use xlink:href="#DejaVuSans-31"/>
     <use x="63.623047" xlink:href="#DejaVuSans-35"/>
     <use x="127.246094" xlink:href="#DejaVuSans-20"/>
     <use x="159.033203" xlink:href="#DejaVuSans-69"/>
     <use x="186.816406" xlink:href="#DejaVuSans-6e"/>
     <use x="250.195312" xlink:href="#DejaVuSans-73"/>
     <use x="302.294922" xlink:href="#DejaVuSans-74"/>
     <use x="341.503906" xlink:href="#DejaVuSans-61"/>
     <use x="402.783203" xlink:href="#DejaVuSans-6e"/>
     <use x="466.162109" xlink:href="#DejaVuSans-63"/>
     <use x="521.142578" xlink:href="#DejaVuSans-65"/>
     <use x="582.666016" xlink:href="#DejaVuSans-73"/>
    </g>
   </g>
   <g id="text_20">
    <!-- v2.1 -->
    <g style="fill:#808080;" transform="translate(238.449063 293.504568)scale(0.1 -0.1)">
     <use xlink:href="#DejaVuSans-76"/>
     <use x="59.179688" xlink:href="#DejaVuSans-32"/>
     <use x="122.802734" xlink:href="#DejaVuSans-2e"/>
     <use x="154.589844" xlink:href="#DejaVuSans-31"/>
    </g>
   </g>
  </g>
 </g>
 <defs>
  <clipPath id="p1c6f9294e8">
   <rect height="266.112" width="357.12" x="70.8" y="32.133375"/>
  </clipPath>
 </defs>
</svg>
