<?xml version="1.0" encoding="utf-8" standalone="no"?>
<!DOCTYPE svg PUBLIC "-//W3C//DTD SVG 1.1//EN"
  "http://www.w3.org/Graphics/SVG/1.1/DTD/svg11.dtd">
<!-- Created with matplotlib (http://matplotlib.org/) -->
<svg height="353pt" version="1.1" viewBox="0 0 438 353" width="438pt" xmlns="http://www.w3.org/2000/svg" xmlns:xlink="http://www.w3.org/1999/xlink">
 <defs>
  <style type="text/css">
*{stroke-linecap:butt;stroke-linejoin:round;}
  </style>
 </defs>
 <g id="figure_1">
  <g id="patch_1">
   <path d="M 0 353.22225 
L 438.62 353.22225 
L 438.62 0 
L 0 0 
z
" style="fill:#ffffff;"/>
  </g>
  <g id="axes_1">
   <g id="patch_2">
    <path d="M 70.8 298.245375 
L 427.92 298.245375 
L 427.92 32.133375 
L 70.8 32.133375 
z
" style="fill:#ffffff;"/>
   </g>
   <g id="matplotlib.axis_1">
    <g id="xtick_1">
     <g id="line2d_1">
      <path clip-path="url(#pa1f9073bae)" d="M 70.8 298.245375 
L 70.8 32.133375 
" style="fill:none;stroke:#b0b0b0;stroke-linecap:square;stroke-width:0.8;"/>
     </g>
     <g id="line2d_2">
      <defs>
       <path d="M 0 0 
L 0 3.5 
" id="mac5fd325f1" style="stroke:#000000;stroke-width:0.8;"/>
      </defs>
      <g>
       <use style="stroke:#000000;stroke-width:0.8;" x="70.8" xlink:href="#mac5fd325f1" y="298.245375"/>
      </g>
     </g>
     <g id="text_1">
      <!-- 0 -->
      <defs>
       <path d="M 31.78125 66.40625 
Q 24.171875 66.40625 20.328125 58.90625 
Q 16.5 51.421875 16.5 36.375 
Q 16.5 21.390625 20.328125 13.890625 
Q 24.171875 6.390625 31.78125 6.390625 
Q 39.453125 6.390625 43.28125 13.890625 
Q 47.125 21.390625 47.125 36.375 
Q 47.125 51.421875 43.28125 58.90625 
Q 39.453125 66.40625 31.78125 66.40625 
z
M 31.78125 74.21875 
Q 44.046875 74.21875 50.515625 64.515625 
Q 56.984375 54.828125 56.984375 36.375 
Q 56.984375 17.96875 50.515625 8.265625 
Q 44.046875 -1.421875 31.78125 -1.421875 
Q 19.53125 -1.421875 13.0625 8.265625 
Q 6.59375 17.96875 6.59375 36.375 
Q 6.59375 54.828125 13.0625 64.515625 
Q 19.53125 74.21875 31.78125 74.21875 
z
" id="DejaVuSans-30"/>
      </defs>
      <g transform="translate(64.4375 320.44225)scale(0.2 -0.2)">
       <use xlink:href="#DejaVuSans-30"/>
      </g>
     </g>
    </g>
    <g id="xtick_2">
     <g id="line2d_3">
      <path clip-path="url(#pa1f9073bae)" d="M 153.085714 298.245375 
L 153.085714 32.133375 
" style="fill:none;stroke:#b0b0b0;stroke-linecap:square;stroke-width:0.8;"/>
     </g>
     <g id="line2d_4">
      <g>
       <use style="stroke:#000000;stroke-width:0.8;" x="153.085714" xlink:href="#mac5fd325f1" y="298.245375"/>
      </g>
     </g>
     <g id="text_2">
      <!-- 2 -->
      <defs>
       <path d="M 19.1875 8.296875 
L 53.609375 8.296875 
L 53.609375 0 
L 7.328125 0 
L 7.328125 8.296875 
Q 12.9375 14.109375 22.625 23.890625 
Q 32.328125 33.6875 34.8125 36.53125 
Q 39.546875 41.84375 41.421875 45.53125 
Q 43.3125 49.21875 43.3125 52.78125 
Q 43.3125 58.59375 39.234375 62.25 
Q 35.15625 65.921875 28.609375 65.921875 
Q 23.96875 65.921875 18.8125 64.3125 
Q 13.671875 62.703125 7.8125 59.421875 
L 7.8125 69.390625 
Q 13.765625 71.78125 18.9375 73 
Q 24.125 74.21875 28.421875 74.21875 
Q 39.75 74.21875 46.484375 68.546875 
Q 53.21875 62.890625 53.21875 53.421875 
Q 53.21875 48.921875 51.53125 44.890625 
Q 49.859375 40.875 45.40625 35.40625 
Q 44.1875 33.984375 37.640625 27.21875 
Q 31.109375 20.453125 19.1875 8.296875 
z
" id="DejaVuSans-32"/>
      </defs>
      <g transform="translate(146.723214 320.44225)scale(0.2 -0.2)">
       <use xlink:href="#DejaVuSans-32"/>
      </g>
     </g>
    </g>
    <g id="xtick_3">
     <g id="line2d_5">
      <path clip-path="url(#pa1f9073bae)" d="M 235.371429 298.245375 
L 235.371429 32.133375 
" style="fill:none;stroke:#b0b0b0;stroke-linecap:square;stroke-width:0.8;"/>
     </g>
     <g id="line2d_6">
      <g>
       <use style="stroke:#000000;stroke-width:0.8;" x="235.371429" xlink:href="#mac5fd325f1" y="298.245375"/>
      </g>
     </g>
     <g id="text_3">
      <!-- 4 -->
      <defs>
       <path d="M 37.796875 64.3125 
L 12.890625 25.390625 
L 37.796875 25.390625 
z
M 35.203125 72.90625 
L 47.609375 72.90625 
L 47.609375 25.390625 
L 58.015625 25.390625 
L 58.015625 17.1875 
L 47.609375 17.1875 
L 47.609375 0 
L 37.796875 0 
L 37.796875 17.1875 
L 4.890625 17.1875 
L 4.890625 26.703125 
z
" id="DejaVuSans-34"/>
      </defs>
      <g transform="translate(229.008929 320.44225)scale(0.2 -0.2)">
       <use xlink:href="#DejaVuSans-34"/>
      </g>
     </g>
    </g>
    <g id="xtick_4">
     <g id="line2d_7">
      <path clip-path="url(#pa1f9073bae)" d="M 317.657143 298.245375 
L 317.657143 32.133375 
" style="fill:none;stroke:#b0b0b0;stroke-linecap:square;stroke-width:0.8;"/>
     </g>
     <g id="line2d_8">
      <g>
       <use style="stroke:#000000;stroke-width:0.8;" x="317.657143" xlink:href="#mac5fd325f1" y="298.245375"/>
      </g>
     </g>
     <g id="text_4">
      <!-- 6 -->
      <defs>
       <path d="M 33.015625 40.375 
Q 26.375 40.375 22.484375 35.828125 
Q 18.609375 31.296875 18.609375 23.390625 
Q 18.609375 15.53125 22.484375 10.953125 
Q 26.375 6.390625 33.015625 6.390625 
Q 39.65625 6.390625 43.53125 10.953125 
Q 47.40625 15.53125 47.40625 23.390625 
Q 47.40625 31.296875 43.53125 35.828125 
Q 39.65625 40.375 33.015625 40.375 
z
M 52.59375 71.296875 
L 52.59375 62.3125 
Q 48.875 64.0625 45.09375 64.984375 
Q 41.3125 65.921875 37.59375 65.921875 
Q 27.828125 65.921875 22.671875 59.328125 
Q 17.53125 52.734375 16.796875 39.40625 
Q 19.671875 43.65625 24.015625 45.921875 
Q 28.375 48.1875 33.59375 48.1875 
Q 44.578125 48.1875 50.953125 41.515625 
Q 57.328125 34.859375 57.328125 23.390625 
Q 57.328125 12.15625 50.6875 5.359375 
Q 44.046875 -1.421875 33.015625 -1.421875 
Q 20.359375 -1.421875 13.671875 8.265625 
Q 6.984375 17.96875 6.984375 36.375 
Q 6.984375 53.65625 15.1875 63.9375 
Q 23.390625 74.21875 37.203125 74.21875 
Q 40.921875 74.21875 44.703125 73.484375 
Q 48.484375 72.75 52.59375 71.296875 
z
" id="DejaVuSans-36"/>
      </defs>
      <g transform="translate(311.294643 320.44225)scale(0.2 -0.2)">
       <use xlink:href="#DejaVuSans-36"/>
      </g>
     </g>
    </g>
    <g id="xtick_5">
     <g id="line2d_9">
      <path clip-path="url(#pa1f9073bae)" d="M 399.942857 298.245375 
L 399.942857 32.133375 
" style="fill:none;stroke:#b0b0b0;stroke-linecap:square;stroke-width:0.8;"/>
     </g>
     <g id="line2d_10">
      <g>
       <use style="stroke:#000000;stroke-width:0.8;" x="399.942857" xlink:href="#mac5fd325f1" y="298.245375"/>
      </g>
     </g>
     <g id="text_5">
      <!-- 8 -->
      <defs>
       <path d="M 31.78125 34.625 
Q 24.75 34.625 20.71875 30.859375 
Q 16.703125 27.09375 16.703125 20.515625 
Q 16.703125 13.921875 20.71875 10.15625 
Q 24.75 6.390625 31.78125 6.390625 
Q 38.8125 6.390625 42.859375 10.171875 
Q 46.921875 13.96875 46.921875 20.515625 
Q 46.921875 27.09375 42.890625 30.859375 
Q 38.875 34.625 31.78125 34.625 
z
M 21.921875 38.8125 
Q 15.578125 40.375 12.03125 44.71875 
Q 8.5 49.078125 8.5 55.328125 
Q 8.5 64.0625 14.71875 69.140625 
Q 20.953125 74.21875 31.78125 74.21875 
Q 42.671875 74.21875 48.875 69.140625 
Q 55.078125 64.0625 55.078125 55.328125 
Q 55.078125 49.078125 51.53125 44.71875 
Q 48 40.375 41.703125 38.8125 
Q 48.828125 37.15625 52.796875 32.3125 
Q 56.78125 27.484375 56.78125 20.515625 
Q 56.78125 9.90625 50.3125 4.234375 
Q 43.84375 -1.421875 31.78125 -1.421875 
Q 19.734375 -1.421875 13.25 4.234375 
Q 6.78125 9.90625 6.78125 20.515625 
Q 6.78125 27.484375 10.78125 32.3125 
Q 14.796875 37.15625 21.921875 38.8125 
z
M 18.3125 54.390625 
Q 18.3125 48.734375 21.84375 45.5625 
Q 25.390625 42.390625 31.78125 42.390625 
Q 38.140625 42.390625 41.71875 45.5625 
Q 45.3125 48.734375 45.3125 54.390625 
Q 45.3125 60.0625 41.71875 63.234375 
Q 38.140625 66.40625 31.78125 66.40625 
Q 25.390625 66.40625 21.84375 63.234375 
Q 18.3125 60.0625 18.3125 54.390625 
z
" id="DejaVuSans-38"/>
      </defs>
      <g transform="translate(393.580357 320.44225)scale(0.2 -0.2)">
       <use xlink:href="#DejaVuSans-38"/>
      </g>
     </g>
    </g>
    <g id="text_6">
     <!-- log10 of (# f-evals / dimension) -->
     <defs>
      <path d="M 9.421875 75.984375 
L 18.40625 75.984375 
L 18.40625 0 
L 9.421875 0 
z
" id="DejaVuSans-6c"/>
      <path d="M 30.609375 48.390625 
Q 23.390625 48.390625 19.1875 42.75 
Q 14.984375 37.109375 14.984375 27.296875 
Q 14.984375 17.484375 19.15625 11.84375 
Q 23.34375 6.203125 30.609375 6.203125 
Q 37.796875 6.203125 41.984375 11.859375 
Q 46.1875 17.53125 46.1875 27.296875 
Q 46.1875 37.015625 41.984375 42.703125 
Q 37.796875 48.390625 30.609375 48.390625 
z
M 30.609375 56 
Q 42.328125 56 49.015625 48.375 
Q 55.71875 40.765625 55.71875 27.296875 
Q 55.71875 13.875 49.015625 6.21875 
Q 42.328125 -1.421875 30.609375 -1.421875 
Q 18.84375 -1.421875 12.171875 6.21875 
Q 5.515625 13.875 5.515625 27.296875 
Q 5.515625 40.765625 12.171875 48.375 
Q 18.84375 56 30.609375 56 
z
" id="DejaVuSans-6f"/>
      <path d="M 45.40625 27.984375 
Q 45.40625 37.75 41.375 43.109375 
Q 37.359375 48.484375 30.078125 48.484375 
Q 22.859375 48.484375 18.828125 43.109375 
Q 14.796875 37.75 14.796875 27.984375 
Q 14.796875 18.265625 18.828125 12.890625 
Q 22.859375 7.515625 30.078125 7.515625 
Q 37.359375 7.515625 41.375 12.890625 
Q 45.40625 18.265625 45.40625 27.984375 
z
M 54.390625 6.78125 
Q 54.390625 -7.171875 48.1875 -13.984375 
Q 42 -20.796875 29.203125 -20.796875 
Q 24.46875 -20.796875 20.265625 -20.09375 
Q 16.0625 -19.390625 12.109375 -17.921875 
L 12.109375 -9.1875 
Q 16.0625 -11.328125 19.921875 -12.34375 
Q 23.78125 -13.375 27.78125 -13.375 
Q 36.625 -13.375 41.015625 -8.765625 
Q 45.40625 -4.15625 45.40625 5.171875 
L 45.40625 9.625 
Q 42.625 4.78125 38.28125 2.390625 
Q 33.9375 0 27.875 0 
Q 17.828125 0 11.671875 7.65625 
Q 5.515625 15.328125 5.515625 27.984375 
Q 5.515625 40.671875 11.671875 48.328125 
Q 17.828125 56 27.875 56 
Q 33.9375 56 38.28125 53.609375 
Q 42.625 51.21875 45.40625 46.390625 
L 45.40625 54.6875 
L 54.390625 54.6875 
z
" id="DejaVuSans-67"/>
      <path d="M 12.40625 8.296875 
L 28.515625 8.296875 
L 28.515625 63.921875 
L 10.984375 60.40625 
L 10.984375 69.390625 
L 28.421875 72.90625 
L 38.28125 72.90625 
L 38.28125 8.296875 
L 54.390625 8.296875 
L 54.390625 0 
L 12.40625 0 
z
" id="DejaVuSans-31"/>
      <path id="DejaVuSans-20"/>
      <path d="M 37.109375 75.984375 
L 37.109375 68.5 
L 28.515625 68.5 
Q 23.6875 68.5 21.796875 66.546875 
Q 19.921875 64.59375 19.921875 59.515625 
L 19.921875 54.6875 
L 34.71875 54.6875 
L 34.71875 47.703125 
L 19.921875 47.703125 
L 19.921875 0 
L 10.890625 0 
L 10.890625 47.703125 
L 2.296875 47.703125 
L 2.296875 54.6875 
L 10.890625 54.6875 
L 10.890625 58.5 
Q 10.890625 67.625 15.140625 71.796875 
Q 19.390625 75.984375 28.609375 75.984375 
z
" id="DejaVuSans-66"/>
      <path d="M 31 75.875 
Q 24.46875 64.65625 21.28125 53.65625 
Q 18.109375 42.671875 18.109375 31.390625 
Q 18.109375 20.125 21.3125 9.0625 
Q 24.515625 -2 31 -13.1875 
L 23.1875 -13.1875 
Q 15.875 -1.703125 12.234375 9.375 
Q 8.59375 20.453125 8.59375 31.390625 
Q 8.59375 42.28125 12.203125 53.3125 
Q 15.828125 64.359375 23.1875 75.875 
z
" id="DejaVuSans-28"/>
      <path d="M 51.125 44 
L 36.921875 44 
L 32.8125 27.6875 
L 47.125 27.6875 
z
M 43.796875 71.78125 
L 38.71875 51.515625 
L 52.984375 51.515625 
L 58.109375 71.78125 
L 65.921875 71.78125 
L 60.890625 51.515625 
L 76.125 51.515625 
L 76.125 44 
L 58.984375 44 
L 54.984375 27.6875 
L 70.515625 27.6875 
L 70.515625 20.21875 
L 53.078125 20.21875 
L 48 0 
L 40.1875 0 
L 45.21875 20.21875 
L 30.90625 20.21875 
L 25.875 0 
L 18.015625 0 
L 23.09375 20.21875 
L 7.71875 20.21875 
L 7.71875 27.6875 
L 24.90625 27.6875 
L 29 44 
L 13.28125 44 
L 13.28125 51.515625 
L 30.90625 51.515625 
L 35.890625 71.78125 
z
" id="DejaVuSans-23"/>
      <path d="M 4.890625 31.390625 
L 31.203125 31.390625 
L 31.203125 23.390625 
L 4.890625 23.390625 
z
" id="DejaVuSans-2d"/>
      <path d="M 56.203125 29.59375 
L 56.203125 25.203125 
L 14.890625 25.203125 
Q 15.484375 15.921875 20.484375 11.0625 
Q 25.484375 6.203125 34.421875 6.203125 
Q 39.59375 6.203125 44.453125 7.46875 
Q 49.3125 8.734375 54.109375 11.28125 
L 54.109375 2.78125 
Q 49.265625 0.734375 44.1875 -0.34375 
Q 39.109375 -1.421875 33.890625 -1.421875 
Q 20.796875 -1.421875 13.15625 6.1875 
Q 5.515625 13.8125 5.515625 26.8125 
Q 5.515625 40.234375 12.765625 48.109375 
Q 20.015625 56 32.328125 56 
Q 43.359375 56 49.78125 48.890625 
Q 56.203125 41.796875 56.203125 29.59375 
z
M 47.21875 32.234375 
Q 47.125 39.59375 43.09375 43.984375 
Q 39.0625 48.390625 32.421875 48.390625 
Q 24.90625 48.390625 20.390625 44.140625 
Q 15.875 39.890625 15.1875 32.171875 
z
" id="DejaVuSans-65"/>
      <path d="M 2.984375 54.6875 
L 12.5 54.6875 
L 29.59375 8.796875 
L 46.6875 54.6875 
L 56.203125 54.6875 
L 35.6875 0 
L 23.484375 0 
z
" id="DejaVuSans-76"/>
      <path d="M 34.28125 27.484375 
Q 23.390625 27.484375 19.1875 25 
Q 14.984375 22.515625 14.984375 16.5 
Q 14.984375 11.71875 18.140625 8.90625 
Q 21.296875 6.109375 26.703125 6.109375 
Q 34.1875 6.109375 38.703125 11.40625 
Q 43.21875 16.703125 43.21875 25.484375 
L 43.21875 27.484375 
z
M 52.203125 31.203125 
L 52.203125 0 
L 43.21875 0 
L 43.21875 8.296875 
Q 40.140625 3.328125 35.546875 0.953125 
Q 30.953125 -1.421875 24.3125 -1.421875 
Q 15.921875 -1.421875 10.953125 3.296875 
Q 6 8.015625 6 15.921875 
Q 6 25.140625 12.171875 29.828125 
Q 18.359375 34.515625 30.609375 34.515625 
L 43.21875 34.515625 
L 43.21875 35.40625 
Q 43.21875 41.609375 39.140625 45 
Q 35.0625 48.390625 27.6875 48.390625 
Q 23 48.390625 18.546875 47.265625 
Q 14.109375 46.140625 10.015625 43.890625 
L 10.015625 52.203125 
Q 14.9375 54.109375 19.578125 55.046875 
Q 24.21875 56 28.609375 56 
Q 40.484375 56 46.34375 49.84375 
Q 52.203125 43.703125 52.203125 31.203125 
z
" id="DejaVuSans-61"/>
      <path d="M 44.28125 53.078125 
L 44.28125 44.578125 
Q 40.484375 46.53125 36.375 47.5 
Q 32.28125 48.484375 27.875 48.484375 
Q 21.1875 48.484375 17.84375 46.4375 
Q 14.5 44.390625 14.5 40.28125 
Q 14.5 37.15625 16.890625 35.375 
Q 19.28125 33.59375 26.515625 31.984375 
L 29.59375 31.296875 
Q 39.15625 29.25 43.1875 25.515625 
Q 47.21875 21.78125 47.21875 15.09375 
Q 47.21875 7.46875 41.1875 3.015625 
Q 35.15625 -1.421875 24.609375 -1.421875 
Q 20.21875 -1.421875 15.453125 -0.5625 
Q 10.6875 0.296875 5.421875 2 
L 5.421875 11.28125 
Q 10.40625 8.6875 15.234375 7.390625 
Q 20.0625 6.109375 24.8125 6.109375 
Q 31.15625 6.109375 34.5625 8.28125 
Q 37.984375 10.453125 37.984375 14.40625 
Q 37.984375 18.0625 35.515625 20.015625 
Q 33.0625 21.96875 24.703125 23.78125 
L 21.578125 24.515625 
Q 13.234375 26.265625 9.515625 29.90625 
Q 5.8125 33.546875 5.8125 39.890625 
Q 5.8125 47.609375 11.28125 51.796875 
Q 16.75 56 26.8125 56 
Q 31.78125 56 36.171875 55.265625 
Q 40.578125 54.546875 44.28125 53.078125 
z
" id="DejaVuSans-73"/>
      <path d="M 25.390625 72.90625 
L 33.6875 72.90625 
L 8.296875 -9.28125 
L 0 -9.28125 
z
" id="DejaVuSans-2f"/>
      <path d="M 45.40625 46.390625 
L 45.40625 75.984375 
L 54.390625 75.984375 
L 54.390625 0 
L 45.40625 0 
L 45.40625 8.203125 
Q 42.578125 3.328125 38.25 0.953125 
Q 33.9375 -1.421875 27.875 -1.421875 
Q 17.96875 -1.421875 11.734375 6.484375 
Q 5.515625 14.40625 5.515625 27.296875 
Q 5.515625 40.1875 11.734375 48.09375 
Q 17.96875 56 27.875 56 
Q 33.9375 56 38.25 53.625 
Q 42.578125 51.265625 45.40625 46.390625 
z
M 14.796875 27.296875 
Q 14.796875 17.390625 18.875 11.75 
Q 22.953125 6.109375 30.078125 6.109375 
Q 37.203125 6.109375 41.296875 11.75 
Q 45.40625 17.390625 45.40625 27.296875 
Q 45.40625 37.203125 41.296875 42.84375 
Q 37.203125 48.484375 30.078125 48.484375 
Q 22.953125 48.484375 18.875 42.84375 
Q 14.796875 37.203125 14.796875 27.296875 
z
" id="DejaVuSans-64"/>
      <path d="M 9.421875 54.6875 
L 18.40625 54.6875 
L 18.40625 0 
L 9.421875 0 
z
M 9.421875 75.984375 
L 18.40625 75.984375 
L 18.40625 64.59375 
L 9.421875 64.59375 
z
" id="DejaVuSans-69"/>
      <path d="M 52 44.1875 
Q 55.375 50.25 60.0625 53.125 
Q 64.75 56 71.09375 56 
Q 79.640625 56 84.28125 50.015625 
Q 88.921875 44.046875 88.921875 33.015625 
L 88.921875 0 
L 79.890625 0 
L 79.890625 32.71875 
Q 79.890625 40.578125 77.09375 44.375 
Q 74.3125 48.1875 68.609375 48.1875 
Q 61.625 48.1875 57.5625 43.546875 
Q 53.515625 38.921875 53.515625 30.90625 
L 53.515625 0 
L 44.484375 0 
L 44.484375 32.71875 
Q 44.484375 40.625 41.703125 44.40625 
Q 38.921875 48.1875 33.109375 48.1875 
Q 26.21875 48.1875 22.15625 43.53125 
Q 18.109375 38.875 18.109375 30.90625 
L 18.109375 0 
L 9.078125 0 
L 9.078125 54.6875 
L 18.109375 54.6875 
L 18.109375 46.1875 
Q 21.1875 51.21875 25.484375 53.609375 
Q 29.78125 56 35.6875 56 
Q 41.65625 56 45.828125 52.96875 
Q 50 49.953125 52 44.1875 
z
" id="DejaVuSans-6d"/>
      <path d="M 54.890625 33.015625 
L 54.890625 0 
L 45.90625 0 
L 45.90625 32.71875 
Q 45.90625 40.484375 42.875 44.328125 
Q 39.84375 48.1875 33.796875 48.1875 
Q 26.515625 48.1875 22.3125 43.546875 
Q 18.109375 38.921875 18.109375 30.90625 
L 18.109375 0 
L 9.078125 0 
L 9.078125 54.6875 
L 18.109375 54.6875 
L 18.109375 46.1875 
Q 21.34375 51.125 25.703125 53.5625 
Q 30.078125 56 35.796875 56 
Q 45.21875 56 50.046875 50.171875 
Q 54.890625 44.34375 54.890625 33.015625 
z
" id="DejaVuSans-6e"/>
      <path d="M 8.015625 75.875 
L 15.828125 75.875 
Q 23.140625 64.359375 26.78125 53.3125 
Q 30.421875 42.28125 30.421875 31.390625 
Q 30.421875 20.453125 26.78125 9.375 
Q 23.140625 -1.703125 15.828125 -13.1875 
L 8.015625 -13.1875 
Q 14.5 -2 17.703125 9.0625 
Q 20.90625 20.125 20.90625 31.390625 
Q 20.90625 42.671875 17.703125 53.65625 
Q 14.5 64.65625 8.015625 75.875 
z
" id="DejaVuSans-29"/>
     </defs>
     <g transform="translate(107.015156 342.278812)scale(0.18 -0.18)">
      <use xlink:href="#DejaVuSans-6c"/>
      <use x="27.783203" xlink:href="#DejaVuSans-6f"/>
      <use x="88.964844" xlink:href="#DejaVuSans-67"/>
      <use x="152.441406" xlink:href="#DejaVuSans-31"/>
      <use x="216.064453" xlink:href="#DejaVuSans-30"/>
      <use x="279.6875" xlink:href="#DejaVuSans-20"/>
      <use x="311.474609" xlink:href="#DejaVuSans-6f"/>
      <use x="372.65625" xlink:href="#DejaVuSans-66"/>
      <use x="407.861328" xlink:href="#DejaVuSans-20"/>
      <use x="439.648438" xlink:href="#DejaVuSans-28"/>
      <use x="478.662109" xlink:href="#DejaVuSans-23"/>
      <use x="562.451172" xlink:href="#DejaVuSans-20"/>
      <use x="594.238281" xlink:href="#DejaVuSans-66"/>
      <use x="629.365234" xlink:href="#DejaVuSans-2d"/>
      <use x="665.449219" xlink:href="#DejaVuSans-65"/>
      <use x="726.972656" xlink:href="#DejaVuSans-76"/>
      <use x="786.152344" xlink:href="#DejaVuSans-61"/>
      <use x="847.431641" xlink:href="#DejaVuSans-6c"/>
      <use x="875.214844" xlink:href="#DejaVuSans-73"/>
      <use x="927.314453" xlink:href="#DejaVuSans-20"/>
      <use x="959.101562" xlink:href="#DejaVuSans-2f"/>
      <use x="992.792969" xlink:href="#DejaVuSans-20"/>
      <use x="1024.580078" xlink:href="#DejaVuSans-64"/>
      <use x="1088.056641" xlink:href="#DejaVuSans-69"/>
      <use x="1115.839844" xlink:href="#DejaVuSans-6d"/>
      <use x="1213.251953" xlink:href="#DejaVuSans-65"/>
      <use x="1274.775391" xlink:href="#DejaVuSans-6e"/>
      <use x="1338.154297" xlink:href="#DejaVuSans-73"/>
      <use x="1390.253906" xlink:href="#DejaVuSans-69"/>
      <use x="1418.037109" xlink:href="#DejaVuSans-6f"/>
      <use x="1479.21875" xlink:href="#DejaVuSans-6e"/>
      <use x="1542.597656" xlink:href="#DejaVuSans-29"/>
     </g>
    </g>
   </g>
   <g id="matplotlib.axis_2">
    <g id="ytick_1">
     <g id="line2d_11">
      <path clip-path="url(#pa1f9073bae)" d="M 70.8 298.245375 
L 427.92 298.245375 
" style="fill:none;stroke:#b0b0b0;stroke-linecap:square;stroke-width:0.8;"/>
     </g>
     <g id="line2d_12">
      <defs>
       <path d="M 0 0 
L -3.5 0 
" id="m10133e279b" style="stroke:#000000;stroke-width:0.8;"/>
      </defs>
      <g>
       <use style="stroke:#000000;stroke-width:0.8;" x="70.8" xlink:href="#m10133e279b" y="298.245375"/>
      </g>
     </g>
     <g id="text_7">
      <!-- 0.0 -->
      <defs>
       <path d="M 10.6875 12.40625 
L 21 12.40625 
L 21 0 
L 10.6875 0 
z
" id="DejaVuSans-2e"/>
      </defs>
      <g transform="translate(31.99375 305.843812)scale(0.2 -0.2)">
       <use xlink:href="#DejaVuSans-30"/>
       <use x="63.623047" xlink:href="#DejaVuSans-2e"/>
       <use x="95.410156" xlink:href="#DejaVuSans-30"/>
      </g>
     </g>
    </g>
    <g id="ytick_2">
     <g id="line2d_13">
      <path clip-path="url(#pa1f9073bae)" d="M 70.8 245.549929 
L 427.92 245.549929 
" style="fill:none;stroke:#b0b0b0;stroke-linecap:square;stroke-width:0.8;"/>
     </g>
     <g id="line2d_14">
      <g>
       <use style="stroke:#000000;stroke-width:0.8;" x="70.8" xlink:href="#m10133e279b" y="245.549929"/>
      </g>
     </g>
     <g id="text_8">
      <!-- 0.2 -->
      <g transform="translate(31.99375 253.148367)scale(0.2 -0.2)">
       <use xlink:href="#DejaVuSans-30"/>
       <use x="63.623047" xlink:href="#DejaVuSans-2e"/>
       <use x="95.410156" xlink:href="#DejaVuSans-32"/>
      </g>
     </g>
    </g>
    <g id="ytick_3">
     <g id="line2d_15">
      <path clip-path="url(#pa1f9073bae)" d="M 70.8 192.854484 
L 427.92 192.854484 
" style="fill:none;stroke:#b0b0b0;stroke-linecap:square;stroke-width:0.8;"/>
     </g>
     <g id="line2d_16">
      <g>
       <use style="stroke:#000000;stroke-width:0.8;" x="70.8" xlink:href="#m10133e279b" y="192.854484"/>
      </g>
     </g>
     <g id="text_9">
      <!-- 0.4 -->
      <g transform="translate(31.99375 200.452921)scale(0.2 -0.2)">
       <use xlink:href="#DejaVuSans-30"/>
       <use x="63.623047" xlink:href="#DejaVuSans-2e"/>
       <use x="95.410156" xlink:href="#DejaVuSans-34"/>
      </g>
     </g>
    </g>
    <g id="ytick_4">
     <g id="line2d_17">
      <path clip-path="url(#pa1f9073bae)" d="M 70.8 140.159038 
L 427.92 140.159038 
" style="fill:none;stroke:#b0b0b0;stroke-linecap:square;stroke-width:0.8;"/>
     </g>
     <g id="line2d_18">
      <g>
       <use style="stroke:#000000;stroke-width:0.8;" x="70.8" xlink:href="#m10133e279b" y="140.159038"/>
      </g>
     </g>
     <g id="text_10">
      <!-- 0.6 -->
      <g transform="translate(31.99375 147.757476)scale(0.2 -0.2)">
       <use xlink:href="#DejaVuSans-30"/>
       <use x="63.623047" xlink:href="#DejaVuSans-2e"/>
       <use x="95.410156" xlink:href="#DejaVuSans-36"/>
      </g>
     </g>
    </g>
    <g id="ytick_5">
     <g id="line2d_19">
      <path clip-path="url(#pa1f9073bae)" d="M 70.8 87.463593 
L 427.92 87.463593 
" style="fill:none;stroke:#b0b0b0;stroke-linecap:square;stroke-width:0.8;"/>
     </g>
     <g id="line2d_20">
      <g>
       <use style="stroke:#000000;stroke-width:0.8;" x="70.8" xlink:href="#m10133e279b" y="87.463593"/>
      </g>
     </g>
     <g id="text_11">
      <!-- 0.8 -->
      <g transform="translate(31.99375 95.06203)scale(0.2 -0.2)">
       <use xlink:href="#DejaVuSans-30"/>
       <use x="63.623047" xlink:href="#DejaVuSans-2e"/>
       <use x="95.410156" xlink:href="#DejaVuSans-38"/>
      </g>
     </g>
    </g>
    <g id="ytick_6">
     <g id="line2d_21">
      <path clip-path="url(#pa1f9073bae)" d="M 70.8 34.768147 
L 427.92 34.768147 
" style="fill:none;stroke:#b0b0b0;stroke-linecap:square;stroke-width:0.8;"/>
     </g>
     <g id="line2d_22">
      <g>
       <use style="stroke:#000000;stroke-width:0.8;" x="70.8" xlink:href="#m10133e279b" y="34.768147"/>
      </g>
     </g>
     <g id="text_12">
      <!-- 1.0 -->
      <g transform="translate(31.99375 42.366585)scale(0.2 -0.2)">
       <use xlink:href="#DejaVuSans-31"/>
       <use x="63.623047" xlink:href="#DejaVuSans-2e"/>
       <use x="95.410156" xlink:href="#DejaVuSans-30"/>
      </g>
     </g>
    </g>
    <g id="text_13">
     <!-- Proportion of function+target pairs -->
     <defs>
      <path d="M 19.671875 64.796875 
L 19.671875 37.40625 
L 32.078125 37.40625 
Q 38.96875 37.40625 42.71875 40.96875 
Q 46.484375 44.53125 46.484375 51.125 
Q 46.484375 57.671875 42.71875 61.234375 
Q 38.96875 64.796875 32.078125 64.796875 
z
M 9.8125 72.90625 
L 32.078125 72.90625 
Q 44.34375 72.90625 50.609375 67.359375 
Q 56.890625 61.8125 56.890625 51.125 
Q 56.890625 40.328125 50.609375 34.8125 
Q 44.34375 29.296875 32.078125 29.296875 
L 19.671875 29.296875 
L 19.671875 0 
L 9.8125 0 
z
" id="DejaVuSans-50"/>
      <path d="M 41.109375 46.296875 
Q 39.59375 47.171875 37.8125 47.578125 
Q 36.03125 48 33.890625 48 
Q 26.265625 48 22.1875 43.046875 
Q 18.109375 38.09375 18.109375 28.8125 
L 18.109375 0 
L 9.078125 0 
L 9.078125 54.6875 
L 18.109375 54.6875 
L 18.109375 46.1875 
Q 20.953125 51.171875 25.484375 53.578125 
Q 30.03125 56 36.53125 56 
Q 37.453125 56 38.578125 55.875 
Q 39.703125 55.765625 41.0625 55.515625 
z
" id="DejaVuSans-72"/>
      <path d="M 18.109375 8.203125 
L 18.109375 -20.796875 
L 9.078125 -20.796875 
L 9.078125 54.6875 
L 18.109375 54.6875 
L 18.109375 46.390625 
Q 20.953125 51.265625 25.265625 53.625 
Q 29.59375 56 35.59375 56 
Q 45.5625 56 51.78125 48.09375 
Q 58.015625 40.1875 58.015625 27.296875 
Q 58.015625 14.40625 51.78125 6.484375 
Q 45.5625 -1.421875 35.59375 -1.421875 
Q 29.59375 -1.421875 25.265625 0.953125 
Q 20.953125 3.328125 18.109375 8.203125 
z
M 48.6875 27.296875 
Q 48.6875 37.203125 44.609375 42.84375 
Q 40.53125 48.484375 33.40625 48.484375 
Q 26.265625 48.484375 22.1875 42.84375 
Q 18.109375 37.203125 18.109375 27.296875 
Q 18.109375 17.390625 22.1875 11.75 
Q 26.265625 6.109375 33.40625 6.109375 
Q 40.53125 6.109375 44.609375 11.75 
Q 48.6875 17.390625 48.6875 27.296875 
z
" id="DejaVuSans-70"/>
      <path d="M 18.3125 70.21875 
L 18.3125 54.6875 
L 36.8125 54.6875 
L 36.8125 47.703125 
L 18.3125 47.703125 
L 18.3125 18.015625 
Q 18.3125 11.328125 20.140625 9.421875 
Q 21.96875 7.515625 27.59375 7.515625 
L 36.8125 7.515625 
L 36.8125 0 
L 27.59375 0 
Q 17.1875 0 13.234375 3.875 
Q 9.28125 7.765625 9.28125 18.015625 
L 9.28125 47.703125 
L 2.6875 47.703125 
L 2.6875 54.6875 
L 9.28125 54.6875 
L 9.28125 70.21875 
z
" id="DejaVuSans-74"/>
      <path d="M 8.5 21.578125 
L 8.5 54.6875 
L 17.484375 54.6875 
L 17.484375 21.921875 
Q 17.484375 14.15625 20.5 10.265625 
Q 23.53125 6.390625 29.59375 6.390625 
Q 36.859375 6.390625 41.078125 11.03125 
Q 45.3125 15.671875 45.3125 23.6875 
L 45.3125 54.6875 
L 54.296875 54.6875 
L 54.296875 0 
L 45.3125 0 
L 45.3125 8.40625 
Q 42.046875 3.421875 37.71875 1 
Q 33.40625 -1.421875 27.6875 -1.421875 
Q 18.265625 -1.421875 13.375 4.4375 
Q 8.5 10.296875 8.5 21.578125 
z
M 31.109375 56 
z
" id="DejaVuSans-75"/>
      <path d="M 48.78125 52.59375 
L 48.78125 44.1875 
Q 44.96875 46.296875 41.140625 47.34375 
Q 37.3125 48.390625 33.40625 48.390625 
Q 24.65625 48.390625 19.8125 42.84375 
Q 14.984375 37.3125 14.984375 27.296875 
Q 14.984375 17.28125 19.8125 11.734375 
Q 24.65625 6.203125 33.40625 6.203125 
Q 37.3125 6.203125 41.140625 7.25 
Q 44.96875 8.296875 48.78125 10.40625 
L 48.78125 2.09375 
Q 45.015625 0.34375 40.984375 -0.53125 
Q 36.96875 -1.421875 32.421875 -1.421875 
Q 20.0625 -1.421875 12.78125 6.34375 
Q 5.515625 14.109375 5.515625 27.296875 
Q 5.515625 40.671875 12.859375 48.328125 
Q 20.21875 56 33.015625 56 
Q 37.15625 56 41.109375 55.140625 
Q 45.0625 54.296875 48.78125 52.59375 
z
" id="DejaVuSans-63"/>
      <path d="M 46 62.703125 
L 46 35.5 
L 73.1875 35.5 
L 73.1875 27.203125 
L 46 27.203125 
L 46 0 
L 37.796875 0 
L 37.796875 27.203125 
L 10.59375 27.203125 
L 10.59375 35.5 
L 37.796875 35.5 
L 37.796875 62.703125 
z
" id="DejaVuSans-2b"/>
     </defs>
     <g transform="translate(24.250312 323.17875)rotate(-90)scale(0.18 -0.18)">
      <use xlink:href="#DejaVuSans-50"/>
      <use x="60.287109" xlink:href="#DejaVuSans-72"/>
      <use x="101.369141" xlink:href="#DejaVuSans-6f"/>
      <use x="162.550781" xlink:href="#DejaVuSans-70"/>
      <use x="226.027344" xlink:href="#DejaVuSans-6f"/>
      <use x="287.208984" xlink:href="#DejaVuSans-72"/>
      <use x="328.322266" xlink:href="#DejaVuSans-74"/>
      <use x="367.53125" xlink:href="#DejaVuSans-69"/>
      <use x="395.314453" xlink:href="#DejaVuSans-6f"/>
      <use x="456.496094" xlink:href="#DejaVuSans-6e"/>
      <use x="519.875" xlink:href="#DejaVuSans-20"/>
      <use x="551.662109" xlink:href="#DejaVuSans-6f"/>
      <use x="612.84375" xlink:href="#DejaVuSans-66"/>
      <use x="648.048828" xlink:href="#DejaVuSans-20"/>
      <use x="679.835938" xlink:href="#DejaVuSans-66"/>
      <use x="715.041016" xlink:href="#DejaVuSans-75"/>
      <use x="778.419922" xlink:href="#DejaVuSans-6e"/>
      <use x="841.798828" xlink:href="#DejaVuSans-63"/>
      <use x="896.779297" xlink:href="#DejaVuSans-74"/>
      <use x="935.988281" xlink:href="#DejaVuSans-69"/>
      <use x="963.771484" xlink:href="#DejaVuSans-6f"/>
      <use x="1024.953125" xlink:href="#DejaVuSans-6e"/>
      <use x="1088.332031" xlink:href="#DejaVuSans-2b"/>
      <use x="1172.121094" xlink:href="#DejaVuSans-74"/>
      <use x="1211.330078" xlink:href="#DejaVuSans-61"/>
      <use x="1272.609375" xlink:href="#DejaVuSans-72"/>
      <use x="1313.707031" xlink:href="#DejaVuSans-67"/>
      <use x="1377.183594" xlink:href="#DejaVuSans-65"/>
      <use x="1438.707031" xlink:href="#DejaVuSans-74"/>
      <use x="1477.916016" xlink:href="#DejaVuSans-20"/>
      <use x="1509.703125" xlink:href="#DejaVuSans-70"/>
      <use x="1573.179688" xlink:href="#DejaVuSans-61"/>
      <use x="1634.458984" xlink:href="#DejaVuSans-69"/>
      <use x="1662.242188" xlink:href="#DejaVuSans-72"/>
      <use x="1703.355469" xlink:href="#DejaVuSans-73"/>
     </g>
    </g>
   </g>
   <g id="line2d_23">
    <defs>
     <path d="M 0 1.5 
C 0.397805 1.5 0.77937 1.341951 1.06066 1.06066 
C 1.341951 0.77937 1.5 0.397805 1.5 0 
C 1.5 -0.397805 1.341951 -0.77937 1.06066 -1.06066 
C 0.77937 -1.341951 0.397805 -1.5 0 -1.5 
C -0.397805 -1.5 -0.77937 -1.341951 -1.06066 -1.06066 
C -1.341951 -0.77937 -1.5 -0.397805 -1.5 0 
C -1.5 0.397805 -1.341951 0.77937 -1.06066 1.06066 
C -0.77937 1.341951 -0.397805 1.5 0 1.5 
z
" id="m0fe25c1e8b" style="stroke:#000080;"/>
    </defs>
    <g>
     <use style="fill:#000080;stroke:#000080;" x="270.093891" xlink:href="#m0fe25c1e8b" y="205.253412"/>
     <use style="fill:#000080;stroke:#000080;" x="270.093891" xlink:href="#m0fe25c1e8b" y="205.253412"/>
    </g>
   </g>
   <g id="line2d_24">
    <path d="M 58.414766 298.245375 
L 58.414766 293.079155 
L 70.8 293.079155 
L 70.8 292.045911 
L 78.044898 292.045911 
L 78.044898 291.529289 
L 83.185234 291.529289 
L 83.185234 291.012667 
L 87.172389 291.012667 
L 87.172389 290.496045 
L 95.570468 290.496045 
L 95.570468 288.429557 
L 102.815366 288.429557 
L 102.815366 287.396313 
L 110.060263 287.396313 
L 110.060263 286.879691 
L 112.814645 286.879691 
L 112.814645 286.363069 
L 117.305161 286.363069 
L 117.305161 284.813203 
L 118.581998 284.813203 
L 118.581998 283.263337 
L 121.424184 283.263337 
L 121.424184 282.230093 
L 122.445497 282.230093 
L 122.445497 281.196849 
L 126.031105 281.196849 
L 126.031105 279.646982 
L 128.315246 279.646982 
L 128.315246 278.613738 
L 135.3203 278.613738 
L 135.3203 277.580494 
L 136.260944 277.580494 
L 136.260944 277.063872 
L 136.935292 277.063872 
L 136.935292 274.997384 
L 138.005559 274.997384 
L 138.005559 274.480762 
L 138.212129 274.480762 
L 138.212129 273.96414 
L 139.971068 273.96414 
L 139.971068 272.930896 
L 140.339496 272.930896 
L 140.339496 271.897652 
L 142.075629 271.897652 
L 142.075629 270.347786 
L 143.808698 270.347786 
L 143.808698 269.314542 
L 144.25357 269.314542 
L 144.25357 268.281298 
L 144.687635 268.281298 
L 144.687635 267.764676 
L 146.062784 267.764676 
L 146.062784 267.248054 
L 146.966058 267.248054 
L 146.966058 266.21481 
L 148.299213 266.21481 
L 148.299213 265.698188 
L 148.415618 265.698188 
L 148.415618 264.664944 
L 148.646178 264.664944 
L 148.646178 264.148322 
L 150.181807 264.148322 
L 150.181807 263.6317 
L 151.20312 263.6317 
L 151.20312 262.081834 
L 151.498468 262.081834 
L 151.498468 261.04859 
L 151.692688 261.04859 
L 151.692688 260.531968 
L 152.262996 260.531968 
L 152.262996 260.015346 
L 152.541466 260.015346 
L 152.541466 257.948858 
L 152.72473 257.948858 
L 152.72473 257.432236 
L 153.700403 257.432236 
L 153.786515 253.29926 
L 154.625547 253.29926 
L 154.625547 252.266016 
L 155.582997 252.266016 
L 155.582997 251.232772 
L 156.268851 251.232772 
L 156.268851 250.71615 
L 159.663134 250.71615 
L 159.663134 250.199528 
L 162.72401 250.199528 
L 162.72401 249.682906 
L 164.554434 249.682906 
L 164.554434 248.649662 
L 209.878992 248.649662 
L 209.942137 246.066551 
L 210.001364 246.066551 
L 210.038281 244.516685 
L 210.126574 244.516685 
L 210.229033 239.867087 
L 210.334536 239.867087 
L 210.439419 238.833843 
L 210.622389 238.833843 
L 210.711401 236.767355 
L 211.170706 236.767355 
L 211.236354 235.217489 
L 222.282821 235.217489 
L 222.342196 233.151001 
L 222.480588 233.151001 
L 222.480588 232.634379 
L 222.617916 232.634379 
L 222.68346 231.601135 
L 222.887649 231.601135 
L 222.991554 230.051269 
L 229.506643 230.051269 
L 229.613008 227.468159 
L 229.652425 227.468159 
L 229.757929 226.434915 
L 229.885902 226.434915 
L 229.996076 223.335183 
L 234.726504 223.335183 
L 234.761666 222.301939 
L 234.866741 222.301939 
L 234.866741 221.785317 
L 234.978508 221.785317 
L 234.995852 220.235451 
L 238.652236 220.235451 
L 238.758987 218.168963 
L 238.784837 218.168963 
L 238.784837 217.652341 
L 238.928912 217.652341 
L 238.928912 217.135719 
L 241.964299 217.135719 
L 241.985907 216.102475 
L 242.081899 216.102475 
L 242.124806 214.552609 
L 247.122849 214.552609 
L 247.126089 213.002743 
L 249.300593 213.002743 
L 249.300593 212.48612 
L 251.022593 212.48612 
L 251.022593 211.969498 
L 251.158997 211.969498 
L 251.16675 210.419632 
L 254.337174 210.419632 
L 254.337174 209.90301 
L 255.740118 209.90301 
L 255.814542 208.353144 
L 259.462204 208.353144 
L 259.462204 207.836522 
L 261.603488 207.836522 
L 261.603488 207.3199 
L 262.561127 207.3199 
L 262.561127 206.803278 
L 264.346077 206.803278 
L 264.346077 206.286656 
L 265.146761 206.286656 
L 265.146761 205.770034 
L 270.093891 205.770034 
L 270.093891 205.253412 
L 358.8 205.253412 
L 358.8 205.253412 
" style="fill:none;stroke:#000080;stroke-linecap:square;stroke-width:1.5;"/>
   </g>
   <g id="line2d_25">
    <defs>
     <path d="M 0 6 
C 1.591219 6 3.117479 5.367802 4.242641 4.242641 
C 5.367802 3.117479 6 1.591219 6 0 
C 6 -1.591219 5.367802 -3.117479 4.242641 -4.242641 
C 3.117479 -5.367802 1.591219 -6 0 -6 
C -1.591219 -6 -3.117479 -5.367802 -4.242641 -4.242641 
C -5.367802 -3.117479 -6 -1.591219 -6 0 
C -6 1.591219 -5.367802 3.117479 -4.242641 4.242641 
C -3.117479 5.367802 -1.591219 6 0 6 
z
" id="m1abc80cfa1" style="stroke:#000080;stroke-width:1.5;"/>
    </defs>
    <g>
     <use style="fill:none;stroke:#000080;stroke-width:1.5;" x="95.570468" xlink:href="#m1abc80cfa1" y="290.496045"/>
     <use style="fill:none;stroke:#000080;stroke-width:1.5;" x="151.692688" xlink:href="#m1abc80cfa1" y="261.04859"/>
     <use style="fill:none;stroke:#000080;stroke-width:1.5;" x="210.148579" xlink:href="#m1abc80cfa1" y="241.416953"/>
     <use style="fill:none;stroke:#000080;stroke-width:1.5;" x="264.346077" xlink:href="#m1abc80cfa1" y="206.803278"/>
     <use style="fill:none;stroke:#000080;stroke-width:1.5;" x="270.093891" xlink:href="#m1abc80cfa1" y="205.253412"/>
     <use style="fill:none;stroke:#000080;stroke-width:1.5;" x="358.8" xlink:href="#m1abc80cfa1" y="205.253412"/>
    </g>
   </g>
   <g id="line2d_26"/>
   <g id="line2d_27">
    <path clip-path="url(#pa1f9073bae)" d="M 209.87527 248.649662 
" style="fill:none;stroke:#000080;stroke-linecap:square;stroke-width:1.5;"/>
    <defs>
     <path d="M -12 12 
L 12 -12 
M -12 -12 
L 12 12 
" id="mab35d873bf" style="stroke:#000080;stroke-width:3;"/>
    </defs>
    <g clip-path="url(#pa1f9073bae)">
     <use style="fill:#000080;stroke:#000080;stroke-width:3;" x="209.87527" xlink:href="#mab35d873bf" y="248.649662"/>
    </g>
   </g>
   <g id="line2d_28">
    <defs>
     <path d="M 0 1.5 
C 0.397805 1.5 0.77937 1.341951 1.06066 1.06066 
C 1.341951 0.77937 1.5 0.397805 1.5 0 
C 1.5 -0.397805 1.341951 -0.77937 1.06066 -1.06066 
C 0.77937 -1.341951 0.397805 -1.5 0 -1.5 
C -0.397805 -1.5 -0.77937 -1.341951 -1.06066 -1.06066 
C -1.341951 -0.77937 -1.5 -0.397805 -1.5 0 
C -1.5 0.397805 -1.341951 0.77937 -1.06066 1.06066 
C -0.77937 1.341951 -0.397805 1.5 0 1.5 
z
" id="mafa302147a" style="stroke:#ff00ff;"/>
    </defs>
    <g>
     <use style="fill:#ff00ff;stroke:#ff00ff;" x="284.60003" xlink:href="#mafa302147a" y="34.768147"/>
     <use style="fill:#ff00ff;stroke:#ff00ff;" x="284.60003" xlink:href="#mafa302147a" y="34.768147"/>
    </g>
   </g>
   <g id="line2d_29">
    <path d="M 58.414766 298.245375 
L 58.414766 225.918293 
L 78.044898 225.918293 
L 78.044898 222.818561 
L 95.570468 222.818561 
L 95.570468 222.301939 
L 97.675029 222.301939 
L 97.675029 220.235451 
L 101.260636 220.235451 
L 101.260636 217.135719 
L 104.245578 217.135719 
L 104.245578 215.069231 
L 105.569748 215.069231 
L 105.569748 214.552609 
L 106.802521 214.552609 
L 106.802521 213.519365 
L 111.026343 213.519365 
L 111.026343 211.452876 
L 111.942857 211.452876 
L 111.942857 209.90301 
L 115.2006 209.90301 
L 115.2006 208.353144 
L 121.942137 208.353144 
L 121.942137 206.803278 
L 125.620325 206.803278 
L 125.620325 205.253412 
L 127.209649 205.253412 
L 127.209649 204.73679 
L 128.315246 204.73679 
L 128.315246 203.186924 
L 132.726171 203.186924 
L 132.726171 201.120436 
L 133.003201 201.120436 
L 133.003201 196.98746 
L 143.352466 196.98746 
L 143.352466 195.954216 
L 143.657911 195.954216 
L 143.657911 194.40435 
L 146.455505 194.40435 
L 146.455505 193.371106 
L 146.712605 193.371106 
L 146.712605 192.337862 
L 147.462426 192.337862 
L 147.462426 190.787996 
L 153.700403 190.787996 
L 153.700403 190.271374 
L 154.788728 190.271374 
L 154.788728 189.754752 
L 155.891075 189.754752 
L 155.891075 189.23813 
L 156.711885 189.23813 
L 156.711885 188.721508 
L 158.775882 188.721508 
L 158.84074 186.65502 
L 160.211092 186.65502 
L 160.211092 185.621776 
L 161.760824 185.621776 
L 161.760824 184.588532 
L 162.67184 184.588532 
L 162.67184 184.07191 
L 163.932455 184.07191 
L 163.932455 183.555288 
L 164.64823 183.555288 
L 164.64823 183.038666 
L 166.171749 183.038666 
L 166.171749 182.522044 
L 166.512104 182.522044 
L 166.512104 181.4888 
L 167.295376 181.4888 
L 167.295376 180.455556 
L 167.694235 180.455556 
L 167.694235 179.422312 
L 169.916737 179.422312 
L 169.916737 178.389067 
L 174.607372 178.389067 
L 174.607372 177.872445 
L 177.357926 177.872445 
L 177.357926 176.839201 
L 183.333924 176.839201 
L 183.333924 173.739469 
L 185.498656 173.739469 
L 185.498656 173.222847 
L 187.48145 173.222847 
L 187.48145 172.706225 
L 189.230611 172.706225 
L 189.230611 171.672981 
L 189.925956 171.672981 
L 189.925956 170.639737 
L 191.377141 170.639737 
L 191.377141 169.606493 
L 192.44497 169.606493 
L 192.44497 168.056627 
L 192.874138 168.056627 
L 192.874138 167.540005 
L 194.503403 167.540005 
L 194.503403 166.506761 
L 194.903582 166.506761 
L 194.903582 165.990139 
L 195.066293 165.990139 
L 195.066293 165.473517 
L 195.62852 165.473517 
L 195.62852 164.956895 
L 195.760206 164.956895 
L 195.760206 163.923651 
L 196.506994 163.923651 
L 196.561961 161.340541 
L 197.094916 161.340541 
L 197.094916 160.823919 
L 197.321768 160.823919 
L 197.411708 159.274053 
L 197.471418 159.274053 
L 197.471418 158.757431 
L 197.634598 158.757431 
L 197.678844 156.690943 
L 197.818239 156.690943 
L 197.818239 156.174321 
L 198.65345 156.174321 
L 198.65345 155.657699 
L 198.771621 155.657699 
L 198.771621 155.141077 
L 199.471355 155.141077 
L 199.471355 154.624455 
L 199.63714 154.624455 
L 199.63714 153.591211 
L 200.125459 153.591211 
L 200.125459 153.074589 
L 200.613291 153.074589 
L 200.613291 152.557967 
L 201.838979 152.557967 
L 201.862306 151.524723 
L 201.984273 151.524723 
L 201.984273 151.008101 
L 202.958576 151.008101 
L 202.958576 150.491479 
L 204.481304 150.491479 
L 204.591694 148.941613 
L 206.166005 148.941613 
L 206.239141 146.358503 
L 206.456771 146.358503 
L 206.456771 145.325259 
L 206.573557 145.325259 
L 206.573557 144.808637 
L 207.566244 144.808637 
L 207.570478 143.775392 
L 208.841036 143.775392 
L 208.892228 141.708904 
L 209.430617 141.708904 
L 209.430617 141.192282 
L 209.563664 141.192282 
L 209.624157 139.125794 
L 209.945844 139.125794 
L 209.945844 138.609172 
L 210.111889 138.609172 
L 210.115561 136.026062 
L 210.629526 136.026062 
L 210.629526 135.50944 
L 210.764595 135.50944 
L 210.764595 134.992818 
L 210.951292 134.992818 
L 211.045657 133.442952 
L 211.452316 133.442952 
L 211.486357 131.376464 
L 212.19971 131.376464 
L 212.19971 130.859842 
L 213.522013 130.859842 
L 213.522013 127.76011 
L 213.941894 127.76011 
L 213.941894 127.243488 
L 215.819744 127.243488 
L 215.819744 126.726866 
L 216.348215 126.726866 
L 216.348215 126.210244 
L 216.816134 126.210244 
L 216.816134 124.660378 
L 216.98943 124.660378 
L 217.064254 122.59389 
L 217.156109 122.59389 
L 217.23024 119.494158 
L 217.443498 119.494158 
L 217.443498 117.42767 
L 218.042512 117.42767 
L 218.042512 116.911048 
L 218.223035 116.911048 
L 218.223035 116.394426 
L 218.690398 116.394426 
L 218.747118 114.327938 
L 219.300245 114.327938 
L 219.300245 113.811316 
L 219.813302 113.811316 
L 219.828234 112.778072 
L 220.046515 112.778072 
L 220.048622 111.744828 
L 220.501951 111.744828 
L 220.520421 109.161717 
L 221.182838 109.161717 
L 221.182838 108.645095 
L 221.967824 108.645095 
L 222.039561 107.611851 
L 222.135389 107.611851 
L 222.135389 107.095229 
L 222.379205 107.095229 
L 222.381054 106.061985 
L 222.765054 106.061985 
L 222.855279 104.512119 
L 223.085977 104.512119 
L 223.085977 103.995497 
L 224.176748 103.995497 
L 224.203475 102.445631 
L 224.409258 102.445631 
L 224.409258 101.929009 
L 224.969637 101.929009 
L 224.969637 101.412387 
L 225.346221 101.412387 
L 225.346221 100.895765 
L 225.478815 100.895765 
L 225.478815 99.862521 
L 226.065861 99.862521 
L 226.169331 97.796033 
L 226.232021 97.796033 
L 226.285581 94.696301 
L 226.486481 94.696301 
L 226.486481 94.179679 
L 226.806759 94.179679 
L 226.806759 93.146435 
L 227.352393 93.146435 
L 227.352393 92.629813 
L 227.921213 92.629813 
L 227.921213 92.113191 
L 228.060296 92.113191 
L 228.060296 91.596569 
L 228.373628 91.596569 
L 228.373628 91.079947 
L 228.76839 91.079947 
L 228.794227 90.046703 
L 229.584623 90.046703 
L 229.584623 89.530081 
L 230.805453 89.530081 
L 230.805453 89.013459 
L 231.289096 89.013459 
L 231.289096 88.496837 
L 232.005435 88.496837 
L 232.005435 87.980215 
L 232.130117 87.980215 
L 232.203871 83.847239 
L 232.248615 83.847239 
L 232.286879 81.780751 
L 232.448592 81.780751 
L 232.448592 81.264129 
L 234.096808 81.264129 
L 234.115029 79.714263 
L 234.392738 79.714263 
L 234.392738 79.197641 
L 236.649529 79.197641 
L 236.741613 76.097908 
L 236.762288 76.097908 
L 236.787066 72.998176 
L 237.002011 72.998176 
L 237.002011 72.481554 
L 238.195107 72.481554 
L 238.195107 71.964932 
L 239.424217 71.964932 
L 239.424217 71.44831 
L 240.3288 71.44831 
L 240.353154 68.8652 
L 240.592214 68.8652 
L 240.592214 67.831956 
L 240.891858 67.831956 
L 240.891858 67.315334 
L 241.538587 67.315334 
L 241.538587 66.798712 
L 241.839078 66.798712 
L 241.849028 65.765468 
L 243.314835 65.765468 
L 243.335443 64.215602 
L 243.848066 64.215602 
L 243.848066 63.69898 
L 243.983201 63.69898 
L 244.04049 61.632492 
L 244.60936 61.632492 
L 244.60936 61.11587 
L 245.848241 61.11587 
L 245.89044 58.53276 
L 246.478684 58.53276 
L 246.478684 58.016138 
L 246.767588 58.016138 
L 246.800606 56.982894 
L 248.091218 56.982894 
L 248.125382 55.433028 
L 249.58593 55.433028 
L 249.58593 54.916406 
L 250.078288 54.916406 
L 250.1116 53.36654 
L 250.800198 53.36654 
L 250.834073 52.333296 
L 251.846798 52.333296 
L 251.886194 49.750186 
L 253.498411 49.750186 
L 253.523661 48.20032 
L 253.909581 48.20032 
L 253.909581 47.683698 
L 254.989644 47.683698 
L 255.002156 46.650454 
L 256.377536 46.650454 
L 256.377536 46.133832 
L 257.66099 46.133832 
L 257.663812 44.583966 
L 258.246393 44.583966 
L 258.246393 44.067344 
L 258.846396 44.067344 
L 258.855039 43.0341 
L 259.954193 43.0341 
L 259.971789 41.484233 
L 261.999771 41.484233 
L 262.015465 39.934367 
L 268.433708 39.934367 
L 268.433708 39.417745 
L 269.724887 39.417745 
L 269.724887 38.901123 
L 273.148292 38.901123 
L 273.148292 38.384501 
L 274.147109 38.384501 
L 274.147109 37.867879 
L 275.10464 37.867879 
L 275.10464 37.351257 
L 276.867245 37.351257 
L 276.867245 36.834635 
L 280.985692 36.834635 
L 280.985692 36.318013 
L 281.961229 36.318013 
L 281.961229 35.801391 
L 283.476247 35.801391 
L 283.476247 35.284769 
L 284.60003 35.284769 
L 284.60003 34.768147 
L 358.8 34.768147 
L 358.8 34.768147 
" style="fill:none;stroke:#ff00ff;stroke-linecap:square;stroke-width:1.5;"/>
   </g>
   <g id="line2d_30">
    <defs>
     <path d="M -0 8.485281 
L 5.091169 0 
L 0 -8.485281 
L -5.091169 -0 
z
" id="m6a2532e964" style="stroke:#ff00ff;stroke-linejoin:miter;stroke-width:1.5;"/>
    </defs>
    <g>
     <use style="fill:none;stroke:#ff00ff;stroke-linejoin:miter;stroke-width:1.5;" x="78.044898" xlink:href="#m6a2532e964" y="225.918293"/>
     <use style="fill:none;stroke:#ff00ff;stroke-linejoin:miter;stroke-width:1.5;" x="143.657911" xlink:href="#m6a2532e964" y="194.40435"/>
     <use style="fill:none;stroke:#ff00ff;stroke-linejoin:miter;stroke-width:1.5;" x="216.816134" xlink:href="#m6a2532e964" y="126.210244"/>
     <use style="fill:none;stroke:#ff00ff;stroke-linejoin:miter;stroke-width:1.5;" x="255.002156" xlink:href="#m6a2532e964" y="47.167076"/>
     <use style="fill:none;stroke:#ff00ff;stroke-linejoin:miter;stroke-width:1.5;" x="284.60003" xlink:href="#m6a2532e964" y="34.768147"/>
     <use style="fill:none;stroke:#ff00ff;stroke-linejoin:miter;stroke-width:1.5;" x="358.8" xlink:href="#m6a2532e964" y="34.768147"/>
    </g>
   </g>
   <g id="line2d_31"/>
   <g id="line2d_32">
    <path clip-path="url(#pa1f9073bae)" d="M 209.87527 139.125794 
" style="fill:none;stroke:#ff00ff;stroke-linecap:square;stroke-width:1.5;"/>
    <defs>
     <path d="M -12 12 
L 12 -12 
M -12 -12 
L 12 12 
" id="mf7078c3e48" style="stroke:#ff00ff;stroke-width:3;"/>
    </defs>
    <g clip-path="url(#pa1f9073bae)">
     <use style="fill:#ff00ff;stroke:#ff00ff;stroke-width:3;" x="209.87527" xlink:href="#mf7078c3e48" y="139.125794"/>
    </g>
   </g>
   <g id="line2d_33">
    <defs>
     <path d="M 0 1.5 
C 0.397805 1.5 0.77937 1.341951 1.06066 1.06066 
C 1.341951 0.77937 1.5 0.397805 1.5 0 
C 1.5 -0.397805 1.341951 -0.77937 1.06066 -1.06066 
C 0.77937 -1.341951 0.397805 -1.5 0 -1.5 
C -0.397805 -1.5 -0.77937 -1.341951 -1.06066 -1.06066 
C -1.341951 -0.77937 -1.5 -0.397805 -1.5 0 
C -1.5 0.397805 -1.341951 0.77937 -1.06066 1.06066 
C -0.77937 1.341951 -0.397805 1.5 0 1.5 
z
" id="m546bbf2e88" style="stroke:#ffa500;"/>
    </defs>
    <g>
     <use style="fill:#ffa500;stroke:#ffa500;" x="265.189077" xlink:href="#m546bbf2e88" y="34.768147"/>
     <use style="fill:#ffa500;stroke:#ffa500;" x="265.189077" xlink:href="#m546bbf2e88" y="34.768147"/>
    </g>
   </g>
   <g id="line2d_34">
    <path d="M 58.414766 298.245375 
L 58.414766 290.496045 
L 70.8 290.496045 
L 70.8 287.912935 
L 78.044898 287.912935 
L 78.044898 285.329825 
L 83.185234 285.329825 
L 83.185234 282.230093 
L 87.172389 282.230093 
L 87.172389 281.196849 
L 90.430132 281.196849 
L 90.430132 280.680226 
L 95.570468 280.680226 
L 95.570468 280.163604 
L 97.675029 280.163604 
L 97.675029 279.646982 
L 101.260636 279.646982 
L 101.260636 279.13036 
L 102.815366 279.13036 
L 102.815366 278.613738 
L 107.955702 278.613738 
L 107.955702 278.097116 
L 109.03895 278.097116 
L 109.03895 277.063872 
L 111.942857 277.063872 
L 111.942857 274.997384 
L 112.814645 274.997384 
L 112.814645 273.96414 
L 114.44014 273.96414 
L 114.44014 271.897652 
L 117.305161 271.897652 
L 117.305161 271.38103 
L 118.581998 271.38103 
L 118.581998 270.864408 
L 119.187755 270.864408 
L 119.187755 269.831164 
L 119.773647 269.831164 
L 119.773647 268.79792 
L 122.445497 268.79792 
L 122.445497 268.281298 
L 124.769302 268.281298 
L 124.769302 267.764676 
L 125.620325 267.764676 
L 125.620325 266.731432 
L 126.432652 266.731432 
L 126.432652 264.148322 
L 127.209649 264.148322 
L 127.209649 262.598456 
L 130.656474 262.598456 
L 130.656474 262.081834 
L 130.967232 262.081834 
L 130.967232 261.04859 
L 131.272677 261.04859 
L 131.272677 260.531968 
L 132.158881 260.531968 
L 132.158881 259.498724 
L 133.003201 259.498724 
L 133.003201 257.948858 
L 134.070271 257.948858 
L 134.070271 256.915614 
L 134.327371 256.915614 
L 134.327371 254.849126 
L 138.416339 254.849126 
L 138.416339 252.266016 
L 139.594883 252.266016 
L 139.594883 250.71615 
L 140.878274 250.71615 
L 140.878274 249.682906 
L 145.661236 249.682906 
L 145.661236 248.13304 
L 147.339621 248.13304 
L 147.339621 247.616418 
L 147.705534 247.616418 
L 147.705534 247.099796 
L 147.825858 247.099796 
L 147.825858 246.583173 
L 149.098559 246.583173 
L 149.098559 246.066551 
L 149.209888 246.066551 
L 149.209888 245.033307 
L 149.430484 245.033307 
L 149.430484 244.516685 
L 150.07639 244.516685 
L 150.07639 244.000063 
L 150.494377 244.000063 
L 150.597364 241.933575 
L 150.801573 241.933575 
L 150.801573 239.867087 
L 151.789013 239.867087 
L 151.789013 239.350465 
L 152.815662 239.350465 
L 152.815662 238.317221 
L 152.99615 238.317221 
L 152.99615 237.800599 
L 154.042387 237.800599 
L 154.12687 236.250733 
L 154.625547 236.250733 
L 154.625547 234.184245 
L 155.7377 234.184245 
L 155.814552 230.051269 
L 156.193932 230.051269 
L 156.193932 229.534647 
L 157.28601 229.534647 
L 157.28601 228.501403 
L 158.114025 228.501403 
L 158.114025 227.984781 
L 158.775882 227.984781 
L 158.775882 226.434915 
L 160.0303 226.434915 
L 160.0303 224.368427 
L 161.259034 224.368427 
L 161.259034 223.851805 
L 161.427868 223.851805 
L 161.427868 223.335183 
L 162.461624 223.335183 
L 162.461624 222.818561 
L 163.687347 222.818561 
L 163.687347 220.752073 
L 164.077923 220.752073 
L 164.077923 219.718829 
L 164.880588 219.718829 
L 164.880588 219.202207 
L 165.515563 219.202207 
L 165.560066 216.102475 
L 165.780936 216.102475 
L 165.780936 215.585853 
L 166.257447 215.585853 
L 166.257447 215.069231 
L 167.092558 215.069231 
L 167.092558 214.552609 
L 167.214525 214.552609 
L 167.214525 214.035987 
L 167.415972 214.035987 
L 167.415972 212.48612 
L 167.694235 212.48612 
L 167.694235 210.936254 
L 168.765878 210.936254 
L 168.765878 209.90301 
L 169.060616 209.90301 
L 169.097119 207.836522 
L 169.278523 207.836522 
L 169.314583 206.803278 
L 169.600479 206.803278 
L 169.600479 206.286656 
L 170.020925 206.286656 
L 170.124509 202.15368 
L 171.290596 202.15368 
L 171.290596 201.637058 
L 171.641902 201.637058 
L 171.641902 200.087192 
L 171.767956 200.087192 
L 171.767956 199.57057 
L 172.110089 199.57057 
L 172.110089 196.470838 
L 172.775307 196.470838 
L 172.775307 194.40435 
L 173.55925 194.40435 
L 173.55925 193.887728 
L 176.963163 193.887728 
L 176.963163 192.337862 
L 177.654027 192.337862 
L 177.654027 190.271374 
L 177.789051 190.271374 
L 177.789051 189.754752 
L 179.231331 189.754752 
L 179.231331 186.138398 
L 209.882712 186.138398 
L 209.986575 182.005422 
L 210.005059 182.005422 
L 210.089838 178.90569 
L 210.199819 178.90569 
L 210.247268 176.839201 
L 210.41777 176.839201 
L 210.518577 172.706225 
L 210.554443 172.706225 
L 210.593812 171.672981 
L 210.668731 171.672981 
L 210.739791 167.023383 
L 210.951292 167.023383 
L 211.02473 165.990139 
L 211.174168 165.990139 
L 211.260479 162.373785 
L 211.291449 162.373785 
L 211.312066 159.790675 
L 211.462535 159.790675 
L 211.469345 155.657699 
L 211.581329 155.657699 
L 211.679162 149.974857 
L 211.699337 149.974857 
L 211.709416 145.325259 
L 211.826584 145.325259 
L 211.876565 143.25877 
L 212.075102 143.25877 
L 212.075102 142.742148 
L 212.504269 142.742148 
L 212.600386 139.125794 
L 212.619548 139.125794 
L 212.619548 138.609172 
L 212.832134 138.609172 
L 212.832134 137.059306 
L 222.262365 137.059306 
L 222.344048 134.476196 
L 222.414293 134.476196 
L 222.447471 132.409708 
L 222.533813 132.409708 
L 222.623387 130.34322 
L 222.650718 130.34322 
L 222.754196 127.243488 
L 222.801198 127.243488 
L 222.801198 126.726866 
L 222.921753 126.726866 
L 222.99334 123.627134 
L 223.057524 123.627134 
L 223.14983 118.977536 
L 223.201101 118.977536 
L 223.201101 115.361182 
L 223.347036 115.361182 
L 223.347036 114.84456 
L 223.623312 114.84456 
L 223.685277 112.26145 
L 229.561141 112.26145 
L 229.592032 110.711584 
L 229.696665 110.711584 
L 229.798248 107.095229 
L 229.831169 107.095229 
L 229.921087 106.061985 
L 229.948942 106.061985 
L 230.050308 102.445631 
L 230.137935 102.445631 
L 230.237047 96.762789 
L 230.42539 96.762789 
L 230.460705 95.729545 
L 234.687559 95.729545 
L 234.794915 94.179679 
L 234.806906 94.179679 
L 234.890619 92.113191 
L 234.918131 92.113191 
L 235.020469 89.530081 
L 235.051421 89.530081 
L 235.153906 82.297373 
L 235.163851 82.297373 
L 235.221603 80.747507 
L 235.366961 80.747507 
L 235.366961 80.230885 
L 238.633638 80.230885 
L 238.707915 78.681019 
L 238.820228 78.681019 
L 238.929644 75.581286 
L 238.941354 75.581286 
L 239.048578 73.514798 
L 239.059483 73.514798 
L 239.059483 72.998176 
L 239.19055 72.998176 
L 239.19055 71.964932 
L 241.917289 71.964932 
L 241.917289 71.44831 
L 242.137658 71.44831 
L 242.246831 64.732224 
L 242.35655 64.732224 
L 242.418688 62.665736 
L 244.73835 62.665736 
L 244.836457 60.599248 
L 244.856959 60.599248 
L 244.937167 57.499516 
L 245.098583 57.499516 
L 245.098583 56.982894 
L 247.105716 56.982894 
L 247.117294 55.433028 
L 247.234965 55.433028 
L 247.270804 52.849918 
L 249.284607 52.849918 
L 249.382759 48.20032 
L 249.489296 48.20032 
L 249.489296 47.683698 
L 251.152349 47.683698 
L 251.232695 45.61721 
L 251.299131 45.61721 
L 251.312316 44.583966 
L 252.856303 44.583966 
L 252.883146 42.000855 
L 253.011102 42.000855 
L 253.011102 41.484233 
L 254.343354 41.484233 
L 254.436115 39.934367 
L 254.469895 39.934367 
L 254.510346 38.901123 
L 255.868243 38.901123 
L 255.868243 38.384501 
L 257.136801 38.384501 
L 257.148425 37.351257 
L 259.500214 37.351257 
L 259.500214 36.834635 
L 260.665286 36.834635 
L 260.665286 36.318013 
L 261.612747 36.318013 
L 261.650351 35.284769 
L 265.189077 35.284769 
L 265.189077 34.768147 
L 358.8 34.768147 
L 358.8 34.768147 
" style="fill:none;stroke:#ffa500;stroke-linecap:square;stroke-width:1.5;"/>
   </g>
   <g id="line2d_35">
    <defs>
     <path d="M 0 -6 
L -1.347084 -1.854102 
L -5.706339 -1.854102 
L -2.179628 0.708204 
L -3.526712 4.854102 
L -0 2.291796 
L 3.526712 4.854102 
L 2.179628 0.708204 
L 5.706339 -1.854102 
L 1.347084 -1.854102 
z
" id="mfbe0a0c063" style="stroke:#ffa500;stroke-linejoin:bevel;stroke-width:1.5;"/>
    </defs>
    <g>
     <use style="fill:none;stroke:#ffa500;stroke-linejoin:bevel;stroke-width:1.5;" x="134.327371" xlink:href="#mfbe0a0c063" y="254.849126"/>
     <use style="fill:none;stroke:#ffa500;stroke-linejoin:bevel;stroke-width:1.5;" x="179.231331" xlink:href="#mfbe0a0c063" y="186.138398"/>
     <use style="fill:none;stroke:#ffa500;stroke-linejoin:bevel;stroke-width:1.5;" x="234.979422" xlink:href="#mfbe0a0c063" y="91.596569"/>
     <use style="fill:none;stroke:#ffa500;stroke-linejoin:bevel;stroke-width:1.5;" x="265.189077" xlink:href="#mfbe0a0c063" y="35.284769"/>
     <use style="fill:none;stroke:#ffa500;stroke-linejoin:bevel;stroke-width:1.5;" x="265.189077" xlink:href="#mfbe0a0c063" y="34.768147"/>
     <use style="fill:none;stroke:#ffa500;stroke-linejoin:bevel;stroke-width:1.5;" x="358.8" xlink:href="#mfbe0a0c063" y="34.768147"/>
    </g>
   </g>
   <g id="line2d_36"/>
   <g id="line2d_37">
    <path clip-path="url(#pa1f9073bae)" d="M 209.87527 186.138398 
" style="fill:none;stroke:#ffa500;stroke-linecap:square;stroke-width:1.5;"/>
    <defs>
     <path d="M -12 12 
L 12 -12 
M -12 -12 
L 12 12 
" id="mbce14371c3" style="stroke:#ffa500;stroke-width:3;"/>
    </defs>
    <g clip-path="url(#pa1f9073bae)">
     <use style="fill:#ffa500;stroke:#ffa500;stroke-width:3;" x="209.87527" xlink:href="#mbce14371c3" y="186.138398"/>
    </g>
   </g>
   <g id="line2d_38">
    <defs>
     <path d="M 0 1.5 
C 0.397805 1.5 0.77937 1.341951 1.06066 1.06066 
C 1.341951 0.77937 1.5 0.397805 1.5 0 
C 1.5 -0.397805 1.341951 -0.77937 1.06066 -1.06066 
C 0.77937 -1.341951 0.397805 -1.5 0 -1.5 
C -0.397805 -1.5 -0.77937 -1.341951 -1.06066 -1.06066 
C -1.341951 -0.77937 -1.5 -0.397805 -1.5 0 
C -1.5 0.397805 -1.341951 0.77937 -1.06066 1.06066 
C -0.77937 1.341951 -0.397805 1.5 0 1.5 
z
" id="m4355f5cc87" style="stroke:#6495ed;"/>
    </defs>
    <g>
     <use style="fill:#6495ed;stroke:#6495ed;" x="273.982238" xlink:href="#m4355f5cc87" y="112.26145"/>
     <use style="fill:#6495ed;stroke:#6495ed;" x="273.982238" xlink:href="#m4355f5cc87" y="112.26145"/>
    </g>
   </g>
   <g id="line2d_39">
    <path d="M 58.414766 298.245375 
L 58.414766 271.38103 
L 70.8 271.38103 
L 70.8 264.664944 
L 78.044898 264.664944 
L 78.044898 263.6317 
L 101.260636 263.6317 
L 101.260636 263.115078 
L 104.245578 263.115078 
L 104.245578 262.598456 
L 114.44014 262.598456 
L 114.44014 262.081834 
L 117.954982 262.081834 
L 117.954982 261.565212 
L 121.942137 261.565212 
L 121.942137 261.04859 
L 122.445497 261.04859 
L 122.445497 259.498724 
L 126.432652 259.498724 
L 126.432652 257.948858 
L 126.825374 257.948858 
L 126.825374 256.915614 
L 129.356402 256.915614 
L 129.356402 255.365748 
L 129.690395 255.365748 
L 129.690395 253.815882 
L 132.726171 253.815882 
L 132.726171 252.782638 
L 133.276002 252.782638 
L 133.276002 251.232772 
L 138.005559 251.232772 
L 138.005559 250.71615 
L 138.817886 250.71615 
L 138.817886 249.166284 
L 139.210608 249.166284 
L 139.210608 248.649662 
L 139.594883 248.649662 
L 139.594883 248.13304 
L 141.909413 248.13304 
L 141.909413 247.616418 
L 144.687635 247.616418 
L 144.687635 247.099796 
L 144.830011 247.099796 
L 144.830011 245.549929 
L 147.945378 245.549929 
L 147.945378 242.966819 
L 150.07639 242.966819 
L 150.07639 242.450197 
L 152.1692 242.450197 
L 152.1692 241.416953 
L 152.906134 241.416953 
L 152.906134 240.900331 
L 154.460863 240.900331 
L 154.460863 239.867087 
L 155.030737 239.867087 
L 155.030737 239.350465 
L 155.348401 239.350465 
L 155.348401 238.317221 
L 155.814552 238.317221 
L 155.814552 237.283977 
L 156.043145 237.283977 
L 156.043145 236.250733 
L 156.193932 236.250733 
L 156.193932 235.734111 
L 156.638804 235.734111 
L 156.638804 232.634379 
L 156.784667 232.634379 
L 156.784667 232.117757 
L 157.28601 232.117757 
L 157.28601 231.601135 
L 157.704813 231.601135 
L 157.704813 231.084513 
L 159.53905 231.084513 
L 159.53905 229.534647 
L 159.663134 229.534647 
L 159.663134 229.018025 
L 160.211092 229.018025 
L 160.211092 227.984781 
L 160.97405 227.984781 
L 160.97405 227.468159 
L 161.145586 227.468159 
L 161.145586 226.434915 
L 162.195329 226.434915 
L 162.195329 225.401671 
L 163.186807 225.401671 
L 163.186807 224.368427 
L 163.981076 224.368427 
L 163.981076 222.818561 
L 164.834358 222.818561 
L 164.834358 221.785317 
L 165.692915 221.785317 
L 165.692915 221.268695 
L 165.912159 221.268695 
L 165.955687 219.718829 
L 166.469912 219.718829 
L 166.469912 219.202207 
L 166.846097 219.202207 
L 166.846097 218.168963 
L 167.295376 218.168963 
L 167.295376 217.135719 
L 167.772949 217.135719 
L 167.772949 216.619097 
L 168.390483 216.619097 
L 168.390483 216.102475 
L 168.579166 216.102475 
L 168.579166 215.069231 
L 168.876975 215.069231 
L 168.876975 213.519365 
L 169.133547 213.519365 
L 169.133547 211.969498 
L 171.986434 211.969498 
L 171.986434 210.936254 
L 172.415534 210.936254 
L 172.415534 209.386388 
L 173.416646 209.386388 
L 173.416646 208.869766 
L 173.728885 208.869766 
L 173.728885 208.353144 
L 174.63414 208.353144 
L 174.63414 206.803278 
L 175.849072 206.803278 
L 175.849072 205.770034 
L 176.438994 205.770034 
L 176.438994 205.253412 
L 178.834013 205.253412 
L 178.834013 204.73679 
L 209.942137 204.73679 
L 210.008753 202.15368 
L 210.155908 202.15368 
L 210.239976 199.053948 
L 210.269125 199.053948 
L 210.338163 198.020704 
L 210.424989 198.020704 
L 210.435813 196.470838 
L 210.725601 196.470838 
L 210.814101 192.337862 
L 210.919726 192.337862 
L 211.007272 190.787996 
L 211.066559 190.787996 
L 211.139526 188.204886 
L 211.19492 188.204886 
L 211.257034 186.138398 
L 211.342947 186.138398 
L 211.414796 184.07191 
L 211.46594 184.07191 
L 211.493158 183.038666 
L 211.591474 183.038666 
L 211.682526 177.872445 
L 211.712774 177.872445 
L 211.712774 177.355823 
L 211.946304 177.355823 
L 211.946304 175.805957 
L 212.094835 175.805957 
L 212.144072 174.772713 
L 212.235619 174.772713 
L 212.235619 174.256091 
L 212.355878 174.256091 
L 212.433453 172.706225 
L 222.262365 172.706225 
L 222.35886 170.639737 
L 222.427203 170.639737 
L 222.49345 168.573249 
L 222.596014 168.573249 
L 222.690728 166.506761 
L 222.708885 166.506761 
L 222.786749 164.440273 
L 222.830062 164.440273 
L 222.93251 161.857163 
L 222.96474 161.857163 
L 223.073534 159.274053 
L 223.080645 159.274053 
L 223.186972 157.724187 
L 223.301449 157.724187 
L 223.404729 155.657699 
L 223.430891 155.657699 
L 223.462236 154.624455 
L 223.543821 154.624455 
L 223.543821 154.107833 
L 223.767563 154.107833 
L 223.767563 153.591211 
L 229.507883 153.591211 
L 229.54877 151.524723 
L 229.620405 151.524723 
L 229.71384 149.458235 
L 229.749364 149.458235 
L 229.805569 147.391747 
L 229.936836 147.391747 
L 230.047901 143.775392 
L 230.051511 143.775392 
L 230.161868 142.225526 
L 230.206059 142.225526 
L 230.263226 138.609172 
L 230.32732 138.609172 
L 230.399448 137.059306 
L 234.647599 137.059306 
L 234.647599 136.542684 
L 234.845591 136.542684 
L 234.952919 133.442952 
L 234.9849 133.442952 
L 235.060514 132.409708 
L 235.17379 132.409708 
L 235.256705 131.376464 
L 238.801067 131.376464 
L 238.879058 130.34322 
L 238.962558 130.34322 
L 239.02966 128.793354 
L 242.022888 128.793354 
L 242.048729 127.76011 
L 242.16822 127.76011 
L 242.252911 126.726866 
L 242.300259 126.726866 
L 242.407242 125.177 
L 244.765304 125.177 
L 244.765304 124.660378 
L 244.973743 124.660378 
L 244.979484 123.627134 
L 247.148287 123.627134 
L 247.239564 122.077268 
L 247.323971 122.077268 
L 247.323971 121.044024 
L 249.176013 121.044024 
L 249.176013 120.527402 
L 249.409657 120.527402 
L 249.454396 118.977536 
L 251.248868 118.977536 
L 251.248868 118.460914 
L 254.368055 118.460914 
L 254.368055 117.944292 
L 257.225635 117.944292 
L 257.235887 116.394426 
L 258.445449 116.394426 
L 258.445449 115.877804 
L 262.608661 115.877804 
L 262.608661 115.361182 
L 264.424282 115.361182 
L 264.424282 114.84456 
L 266.001333 114.84456 
L 266.001333 114.327938 
L 270.744517 114.327938 
L 270.744517 113.811316 
L 272.434423 113.811316 
L 272.434423 113.294694 
L 273.982238 113.294694 
L 273.982238 112.26145 
L 358.8 112.26145 
L 358.8 112.26145 
" style="fill:none;stroke:#6495ed;stroke-linecap:square;stroke-width:1.5;"/>
   </g>
   <g id="line2d_40">
    <defs>
     <path d="M -0 6 
L 6 -6 
L -6 -6 
z
" id="m18d43384b5" style="stroke:#6495ed;stroke-linejoin:miter;stroke-width:1.5;"/>
    </defs>
    <g>
     <use style="fill:none;stroke:#6495ed;stroke-linejoin:miter;stroke-width:1.5;" x="144.830011" xlink:href="#m18d43384b5" y="247.099796"/>
     <use style="fill:none;stroke:#6495ed;stroke-linejoin:miter;stroke-width:1.5;" x="210.803505" xlink:href="#m18d43384b5" y="193.371106"/>
     <use style="fill:none;stroke:#6495ed;stroke-linejoin:miter;stroke-width:1.5;" x="249.454396" xlink:href="#m18d43384b5" y="119.494158"/>
     <use style="fill:none;stroke:#6495ed;stroke-linejoin:miter;stroke-width:1.5;" x="273.982238" xlink:href="#m18d43384b5" y="112.26145"/>
     <use style="fill:none;stroke:#6495ed;stroke-linejoin:miter;stroke-width:1.5;" x="273.982238" xlink:href="#m18d43384b5" y="112.26145"/>
     <use style="fill:none;stroke:#6495ed;stroke-linejoin:miter;stroke-width:1.5;" x="358.8" xlink:href="#m18d43384b5" y="112.26145"/>
    </g>
   </g>
   <g id="line2d_41"/>
   <g id="line2d_42">
    <path clip-path="url(#pa1f9073bae)" d="M 209.87527 204.73679 
" style="fill:none;stroke:#6495ed;stroke-linecap:square;stroke-width:1.5;"/>
    <defs>
     <path d="M -12 12 
L 12 -12 
M -12 -12 
L 12 12 
" id="m4b208e96e7" style="stroke:#6495ed;stroke-width:3;"/>
    </defs>
    <g clip-path="url(#pa1f9073bae)">
     <use style="fill:#6495ed;stroke:#6495ed;stroke-width:3;" x="209.87527" xlink:href="#m4b208e96e7" y="204.73679"/>
    </g>
   </g>
   <g id="line2d_43">
    <defs>
     <path d="M 0 1.5 
C 0.397805 1.5 0.77937 1.341951 1.06066 1.06066 
C 1.341951 0.77937 1.5 0.397805 1.5 0 
C 1.5 -0.397805 1.341951 -0.77937 1.06066 -1.06066 
C 0.77937 -1.341951 0.397805 -1.5 0 -1.5 
C -0.397805 -1.5 -0.77937 -1.341951 -1.06066 -1.06066 
C -1.341951 -0.77937 -1.5 -0.397805 -1.5 0 
C -1.5 0.397805 -1.341951 0.77937 -1.06066 1.06066 
C -0.77937 1.341951 -0.397805 1.5 0 1.5 
z
" id="m89e4fca46b" style="stroke:#ff0000;"/>
    </defs>
    <g>
     <use style="fill:#ff0000;stroke:#ff0000;" x="264.357194" xlink:href="#m89e4fca46b" y="34.768147"/>
     <use style="fill:#ff0000;stroke:#ff0000;" x="264.357194" xlink:href="#m89e4fca46b" y="34.768147"/>
    </g>
   </g>
   <g id="line2d_44">
    <path d="M 58.414766 298.245375 
L 58.414766 291.012667 
L 70.8 291.012667 
L 70.8 288.429557 
L 90.430132 288.429557 
L 90.430132 287.396313 
L 97.675029 287.396313 
L 97.675029 286.363069 
L 110.060263 286.363069 
L 110.060263 285.846447 
L 111.942857 285.846447 
L 111.942857 279.646982 
L 114.44014 279.646982 
L 114.44014 279.13036 
L 116.630812 279.13036 
L 116.630812 277.580494 
L 119.187755 277.580494 
L 119.187755 274.997384 
L 119.773647 274.997384 
L 119.773647 274.480762 
L 120.890768 274.480762 
L 120.890768 273.447518 
L 121.942137 273.447518 
L 121.942137 271.897652 
L 122.445497 271.897652 
L 122.445497 271.38103 
L 123.87571 271.38103 
L 123.87571 270.864408 
L 124.769302 270.864408 
L 124.769302 269.831164 
L 126.031105 269.831164 
L 126.031105 269.314542 
L 126.432652 269.314542 
L 126.432652 268.79792 
L 127.954262 268.79792 
L 127.954262 267.764676 
L 128.669082 267.764676 
L 128.669082 266.731432 
L 129.016046 266.731432 
L 129.016046 263.6317 
L 130.018259 263.6317 
L 130.018259 263.115078 
L 131.272677 263.115078 
L 131.272677 262.081834 
L 131.572989 262.081834 
L 131.572989 260.015346 
L 133.276002 260.015346 
L 133.276002 259.498724 
L 136.260944 259.498724 
L 136.260944 258.982102 
L 136.488566 258.982102 
L 136.488566 257.432236 
L 138.005559 257.432236 
L 138.005559 256.398992 
L 138.61824 256.398992 
L 138.61824 255.88237 
L 140.878274 255.88237 
L 140.878274 255.365748 
L 142.075629 255.365748 
L 142.075629 254.332504 
L 142.884279 254.332504 
L 142.884279 251.232772 
L 143.808698 251.232772 
L 143.808698 250.71615 
L 145.111405 250.71615 
L 145.111405 250.199528 
L 145.250457 250.199528 
L 145.250457 249.166284 
L 147.705534 249.166284 
L 147.705534 248.13304 
L 150.597364 248.13304 
L 150.597364 247.099796 
L 151.103576 247.099796 
L 151.103576 246.583173 
L 151.692688 246.583173 
L 151.692688 246.066551 
L 153.351746 246.066551 
L 153.351746 245.549929 
L 153.957503 245.549929 
L 153.957503 245.033307 
L 154.12687 245.033307 
L 154.12687 242.966819 
L 154.294647 242.966819 
L 154.294647 241.933575 
L 154.625547 241.933575 
L 154.625547 241.416953 
L 155.030737 241.416953 
L 155.030737 240.900331 
L 156.491741 240.900331 
L 156.491741 239.867087 
L 157.28601 239.867087 
L 157.28601 238.317221 
L 157.5663 238.317221 
L 157.5663 235.734111 
L 158.579887 235.734111 
L 158.579887 233.667623 
L 160.800853 233.667623 
L 160.800853 232.634379 
L 161.031412 232.634379 
L 161.031412 232.117757 
L 161.483794 232.117757 
L 161.483794 229.534647 
L 161.925004 229.534647 
L 161.925004 225.918293 
L 162.408682 225.918293 
L 162.408682 225.401671 
L 162.982598 225.401671 
L 162.982598 223.851805 
L 163.736638 223.851805 
L 163.736638 223.335183 
L 164.077923 223.335183 
L 164.077923 221.785317 
L 164.317767 221.785317 
L 164.317767 220.752073 
L 165.955687 220.752073 
L 165.955687 219.718829 
L 166.085637 219.718829 
L 166.085637 218.685585 
L 166.887411 218.685585 
L 166.887411 218.168963 
L 167.890374 218.168963 
L 167.890374 217.652341 
L 168.122934 217.652341 
L 168.122934 214.552609 
L 168.27631 214.552609 
L 168.27631 213.519365 
L 168.390483 213.519365 
L 168.390483 211.969498 
L 170.431704 211.969498 
L 170.431704 211.452876 
L 170.700403 211.452876 
L 170.766951 208.869766 
L 209.882712 208.869766 
L 209.986575 202.15368 
L 210.097191 202.15368 
L 210.122904 200.087192 
L 210.254556 200.087192 
L 210.359909 197.504082 
L 210.41777 197.504082 
L 210.41777 196.98746 
L 210.529345 196.98746 
L 210.572348 194.920972 
L 210.647357 194.920972 
L 210.686522 189.754752 
L 210.792901 189.754752 
L 210.859949 185.105154 
L 211.000284 185.105154 
L 211.087437 180.455556 
L 211.125651 180.455556 
L 211.219101 177.355823 
L 211.353229 177.355823 
L 211.353229 176.839201 
L 211.516939 176.839201 
L 211.537297 173.739469 
L 211.766422 173.739469 
L 211.773117 170.123115 
L 222.297683 170.123115 
L 222.355158 166.506761 
L 222.451154 166.506761 
L 222.504467 163.923651 
L 222.601492 163.923651 
L 222.661639 157.207565 
L 222.72521 157.207565 
L 222.831864 152.041345 
L 222.846277 152.041345 
L 222.94505 145.325259 
L 223.009408 145.325259 
L 223.116158 140.159038 
L 223.231089 140.159038 
L 223.234613 137.575928 
L 229.601906 137.575928 
L 229.688071 136.542684 
L 229.726098 136.542684 
L 229.821421 131.893086 
L 229.839694 131.893086 
L 229.931992 123.627134 
L 229.958621 123.627134 
L 230.069551 117.944292 
L 230.071955 117.944292 
L 230.15828 113.811316 
L 234.664338 113.811316 
L 234.765364 111.744828 
L 234.84007 111.744828 
L 234.948345 107.095229 
L 234.956576 107.095229 
L 235.066877 99.345899 
L 235.072328 99.345899 
L 235.13943 93.663057 
L 238.647774 93.663057 
L 238.699018 92.113191 
L 238.765638 92.113191 
L 238.869512 88.496837 
L 238.906202 88.496837 
L 238.974976 81.780751 
L 239.028932 81.780751 
L 239.028932 81.264129 
L 242.001325 81.264129 
L 242.092942 75.581286 
L 242.118682 75.581286 
L 242.221275 72.481554 
L 244.713474 72.481554 
L 244.818563 68.348578 
L 244.825933 68.348578 
L 244.892127 65.248846 
L 247.040275 65.248846 
L 247.143202 62.665736 
L 247.19214 62.665736 
L 247.279524 59.049382 
L 249.188799 59.049382 
L 249.278865 55.433028 
L 251.025569 55.433028 
L 251.099078 53.883162 
L 251.139786 53.883162 
L 251.191462 50.266808 
L 252.764734 50.266808 
L 252.865703 47.683698 
L 252.877445 47.683698 
L 252.877445 47.167076 
L 254.350768 47.167076 
L 254.419201 45.100588 
L 255.778367 45.100588 
L 255.858878 41.484233 
L 257.117236 41.484233 
L 257.117236 40.967611 
L 258.34027 40.967611 
L 258.365451 39.417745 
L 259.502066 39.417745 
L 259.502066 38.901123 
L 260.531826 38.901123 
L 260.547117 37.867879 
L 261.56496 37.867879 
L 261.573827 36.834635 
L 262.553713 36.834635 
L 262.578285 35.284769 
L 264.357194 35.284769 
L 264.357194 34.768147 
L 358.8 34.768147 
L 358.8 34.768147 
" style="fill:none;stroke:#ff0000;stroke-linecap:square;stroke-width:1.5;"/>
   </g>
   <g id="line2d_45">
    <defs>
     <path d="M 0 -6 
L -5.196152 -3 
L -5.196152 3 
L -0 6 
L 5.196152 3 
L 5.196152 -3 
z
" id="mf3c76b1f24" style="stroke:#ff0000;stroke-linejoin:miter;stroke-width:1.5;"/>
    </defs>
    <g>
     <use style="fill:none;stroke:#ff0000;stroke-linejoin:miter;stroke-width:1.5;" x="158.579887" xlink:href="#mf3c76b1f24" y="235.734111"/>
     <use style="fill:none;stroke:#ff0000;stroke-linejoin:miter;stroke-width:1.5;" x="211.125651" xlink:href="#mf3c76b1f24" y="179.422312"/>
     <use style="fill:none;stroke:#ff0000;stroke-linejoin:miter;stroke-width:1.5;" x="235.026846" xlink:href="#mf3c76b1f24" y="101.412387"/>
     <use style="fill:none;stroke:#ff0000;stroke-linejoin:miter;stroke-width:1.5;" x="264.357194" xlink:href="#mf3c76b1f24" y="35.284769"/>
     <use style="fill:none;stroke:#ff0000;stroke-linejoin:miter;stroke-width:1.5;" x="264.357194" xlink:href="#mf3c76b1f24" y="34.768147"/>
     <use style="fill:none;stroke:#ff0000;stroke-linejoin:miter;stroke-width:1.5;" x="358.8" xlink:href="#mf3c76b1f24" y="34.768147"/>
    </g>
   </g>
   <g id="line2d_46"/>
   <g id="line2d_47">
    <path clip-path="url(#pa1f9073bae)" d="M 209.87527 208.869766 
" style="fill:none;stroke:#ff0000;stroke-linecap:square;stroke-width:1.5;"/>
    <defs>
     <path d="M -12 12 
L 12 -12 
M -12 -12 
L 12 12 
" id="mc6dfb4fdb7" style="stroke:#ff0000;stroke-width:3;"/>
    </defs>
    <g clip-path="url(#pa1f9073bae)">
     <use style="fill:#ff0000;stroke:#ff0000;stroke-width:3;" x="209.87527" xlink:href="#mc6dfb4fdb7" y="208.869766"/>
    </g>
   </g>
   <g id="line2d_48">
    <path d="M 358.8 205.253412 
L 390.48 292.97583 
" style="fill:none;stroke:#000080;stroke-linecap:square;stroke-width:1.5;"/>
    <g>
     <use style="fill:none;stroke:#000080;stroke-width:1.5;" x="358.8" xlink:href="#m1abc80cfa1" y="205.253412"/>
     <use style="fill:none;stroke:#000080;stroke-width:1.5;" x="390.48" xlink:href="#m1abc80cfa1" y="292.97583"/>
    </g>
   </g>
   <g id="line2d_49">
    <path d="M 358.8 112.26145 
L 390.48 229.741296 
" style="fill:none;stroke:#6495ed;stroke-linecap:square;stroke-width:1.5;"/>
    <g>
     <use style="fill:none;stroke:#6495ed;stroke-linejoin:miter;stroke-width:1.5;" x="358.8" xlink:href="#m18d43384b5" y="112.26145"/>
     <use style="fill:none;stroke:#6495ed;stroke-linejoin:miter;stroke-width:1.5;" x="390.48" xlink:href="#m18d43384b5" y="229.741296"/>
    </g>
   </g>
   <g id="line2d_50">
    <path d="M 358.8 34.768147 
L 390.48 166.506761 
" style="fill:none;stroke:#ff00ff;stroke-linecap:square;stroke-width:1.5;"/>
    <g>
     <use style="fill:none;stroke:#ff00ff;stroke-linejoin:miter;stroke-width:1.5;" x="358.8" xlink:href="#m6a2532e964" y="34.768147"/>
     <use style="fill:none;stroke:#ff00ff;stroke-linejoin:miter;stroke-width:1.5;" x="390.48" xlink:href="#m6a2532e964" y="166.506761"/>
    </g>
   </g>
   <g id="line2d_51">
    <path d="M 358.8 34.768147 
L 390.48 103.272226 
" style="fill:none;stroke:#ffa500;stroke-linecap:square;stroke-width:1.5;"/>
    <g>
     <use style="fill:none;stroke:#ffa500;stroke-linejoin:bevel;stroke-width:1.5;" x="358.8" xlink:href="#mfbe0a0c063" y="34.768147"/>
     <use style="fill:none;stroke:#ffa500;stroke-linejoin:bevel;stroke-width:1.5;" x="390.48" xlink:href="#mfbe0a0c063" y="103.272226"/>
    </g>
   </g>
   <g id="line2d_52">
    <path d="M 358.8 34.768147 
L 390.48 40.037692 
" style="fill:none;stroke:#ff0000;stroke-linecap:square;stroke-width:1.5;"/>
    <g>
     <use style="fill:none;stroke:#ff0000;stroke-linejoin:miter;stroke-width:1.5;" x="358.8" xlink:href="#mf3c76b1f24" y="34.768147"/>
     <use style="fill:none;stroke:#ff0000;stroke-linejoin:miter;stroke-width:1.5;" x="390.48" xlink:href="#mf3c76b1f24" y="40.037692"/>
    </g>
   </g>
   <g id="line2d_53">
    <path d="M 358.8 298.245375 
L 358.8 34.768147 
" style="fill:none;stroke:#000000;stroke-linecap:square;stroke-width:1.5;"/>
   </g>
   <g id="patch_3">
    <path d="M 70.8 298.245375 
L 70.8 32.133375 
" style="fill:none;stroke:#000000;stroke-linecap:square;stroke-linejoin:miter;stroke-width:0.8;"/>
   </g>
   <g id="patch_4">
    <path d="M 427.92 298.245375 
L 427.92 32.133375 
" style="fill:none;stroke:#000000;stroke-linecap:square;stroke-linejoin:miter;stroke-width:0.8;"/>
   </g>
   <g id="patch_5">
    <path d="M 70.8 298.245375 
L 427.92 298.245375 
" style="fill:none;stroke:#000000;stroke-linecap:square;stroke-linejoin:miter;stroke-width:0.8;"/>
   </g>
   <g id="patch_6">
    <path d="M 70.8 32.133375 
L 427.92 32.133375 
" style="fill:none;stroke:#000000;stroke-linecap:square;stroke-linejoin:miter;stroke-width:0.8;"/>
   </g>
   <g id="text_14">
    <!-- f18 -->
    <g transform="translate(396.24 297.114893)scale(0.15 -0.15)">
     <use xlink:href="#DejaVuSans-66"/>
     <use x="35.205078" xlink:href="#DejaVuSans-31"/>
     <use x="98.828125" xlink:href="#DejaVuSans-38"/>
    </g>
   </g>
   <g id="text_15">
    <!-- f17 -->
    <defs>
     <path d="M 8.203125 72.90625 
L 55.078125 72.90625 
L 55.078125 68.703125 
L 28.609375 0 
L 18.3125 0 
L 43.21875 64.59375 
L 8.203125 64.59375 
z
" id="DejaVuSans-37"/>
    </defs>
    <g transform="translate(396.24 233.880358)scale(0.15 -0.15)">
     <use xlink:href="#DejaVuSans-66"/>
     <use x="35.205078" xlink:href="#DejaVuSans-31"/>
     <use x="98.828125" xlink:href="#DejaVuSans-37"/>
    </g>
   </g>
   <g id="text_16">
    <!-- f19 -->
    <defs>
     <path d="M 10.984375 1.515625 
L 10.984375 10.5 
Q 14.703125 8.734375 18.5 7.8125 
Q 22.3125 6.890625 25.984375 6.890625 
Q 35.75 6.890625 40.890625 13.453125 
Q 46.046875 20.015625 46.78125 33.40625 
Q 43.953125 29.203125 39.59375 26.953125 
Q 35.25 24.703125 29.984375 24.703125 
Q 19.046875 24.703125 12.671875 31.3125 
Q 6.296875 37.9375 6.296875 49.421875 
Q 6.296875 60.640625 12.9375 67.421875 
Q 19.578125 74.21875 30.609375 74.21875 
Q 43.265625 74.21875 49.921875 64.515625 
Q 56.59375 54.828125 56.59375 36.375 
Q 56.59375 19.140625 48.40625 8.859375 
Q 40.234375 -1.421875 26.421875 -1.421875 
Q 22.703125 -1.421875 18.890625 -0.6875 
Q 15.09375 0.046875 10.984375 1.515625 
z
M 30.609375 32.421875 
Q 37.25 32.421875 41.125 36.953125 
Q 45.015625 41.5 45.015625 49.421875 
Q 45.015625 57.28125 41.125 61.84375 
Q 37.25 66.40625 30.609375 66.40625 
Q 23.96875 66.40625 20.09375 61.84375 
Q 16.21875 57.28125 16.21875 49.421875 
Q 16.21875 41.5 20.09375 36.953125 
Q 23.96875 32.421875 30.609375 32.421875 
z
" id="DejaVuSans-39"/>
    </defs>
    <g transform="translate(396.24 170.645824)scale(0.15 -0.15)">
     <use xlink:href="#DejaVuSans-66"/>
     <use x="35.205078" xlink:href="#DejaVuSans-31"/>
     <use x="98.828125" xlink:href="#DejaVuSans-39"/>
    </g>
   </g>
   <g id="text_17">
    <!-- f16 -->
    <g transform="translate(396.24 107.411289)scale(0.15 -0.15)">
     <use xlink:href="#DejaVuSans-66"/>
     <use x="35.205078" xlink:href="#DejaVuSans-31"/>
     <use x="98.828125" xlink:href="#DejaVuSans-36"/>
    </g>
   </g>
   <g id="text_18">
    <!-- f15 -->
    <defs>
     <path d="M 10.796875 72.90625 
L 49.515625 72.90625 
L 49.515625 64.59375 
L 19.828125 64.59375 
L 19.828125 46.734375 
Q 21.96875 47.46875 24.109375 47.828125 
Q 26.265625 48.1875 28.421875 48.1875 
Q 40.625 48.1875 47.75 41.5 
Q 54.890625 34.8125 54.890625 23.390625 
Q 54.890625 11.625 47.5625 5.09375 
Q 40.234375 -1.421875 26.90625 -1.421875 
Q 22.3125 -1.421875 17.546875 -0.640625 
Q 12.796875 0.140625 7.71875 1.703125 
L 7.71875 11.625 
Q 12.109375 9.234375 16.796875 8.0625 
Q 21.484375 6.890625 26.703125 6.890625 
Q 35.15625 6.890625 40.078125 11.328125 
Q 45.015625 15.765625 45.015625 23.390625 
Q 45.015625 31 40.078125 35.4375 
Q 35.15625 39.890625 26.703125 39.890625 
Q 22.75 39.890625 18.8125 39.015625 
Q 14.890625 38.140625 10.796875 36.28125 
z
" id="DejaVuSans-35"/>
    </defs>
    <g transform="translate(396.24 44.176754)scale(0.15 -0.15)">
     <use xlink:href="#DejaVuSans-66"/>
     <use x="35.205078" xlink:href="#DejaVuSans-31"/>
     <use x="98.828125" xlink:href="#DejaVuSans-35"/>
    </g>
   </g>
   <g id="text_19">
    <!-- bbob -->
    <defs>
     <path d="M 48.6875 27.296875 
Q 48.6875 37.203125 44.609375 42.84375 
Q 40.53125 48.484375 33.40625 48.484375 
Q 26.265625 48.484375 22.1875 42.84375 
Q 18.109375 37.203125 18.109375 27.296875 
Q 18.109375 17.390625 22.1875 11.75 
Q 26.265625 6.109375 33.40625 6.109375 
Q 40.53125 6.109375 44.609375 11.75 
Q 48.6875 17.390625 48.6875 27.296875 
z
M 18.109375 46.390625 
Q 20.953125 51.265625 25.265625 53.625 
Q 29.59375 56 35.59375 56 
Q 45.5625 56 51.78125 48.09375 
Q 58.015625 40.1875 58.015625 27.296875 
Q 58.015625 14.40625 51.78125 6.484375 
Q 45.5625 -1.421875 35.59375 -1.421875 
Q 29.59375 -1.421875 25.265625 0.953125 
Q 20.953125 3.328125 18.109375 8.203125 
L 18.109375 0 
L 9.078125 0 
L 9.078125 75.984375 
L 18.109375 75.984375 
z
" id="DejaVuSans-62"/>
    </defs>
    <g transform="translate(74.3712 50.114612)scale(0.1666 -0.1666)">
     <use xlink:href="#DejaVuSans-62"/>
     <use x="63.476562" xlink:href="#DejaVuSans-62"/>
     <use x="126.953125" xlink:href="#DejaVuSans-6f"/>
     <use x="188.134766" xlink:href="#DejaVuSans-62"/>
    </g>
    <!-- Multi-modal functions, 2-D -->
    <defs>
     <path d="M 9.8125 72.90625 
L 24.515625 72.90625 
L 43.109375 23.296875 
L 61.8125 72.90625 
L 76.515625 72.90625 
L 76.515625 0 
L 66.890625 0 
L 66.890625 64.015625 
L 48.09375 14.015625 
L 38.1875 14.015625 
L 19.390625 64.015625 
L 19.390625 0 
L 9.8125 0 
z
" id="DejaVuSans-4d"/>
     <path d="M 11.71875 12.40625 
L 22.015625 12.40625 
L 22.015625 4 
L 14.015625 -11.625 
L 7.71875 -11.625 
L 11.71875 4 
z
" id="DejaVuSans-2c"/>
     <path d="M 19.671875 64.796875 
L 19.671875 8.109375 
L 31.59375 8.109375 
Q 46.6875 8.109375 53.6875 14.9375 
Q 60.6875 21.78125 60.6875 36.53125 
Q 60.6875 51.171875 53.6875 57.984375 
Q 46.6875 64.796875 31.59375 64.796875 
z
M 9.8125 72.90625 
L 30.078125 72.90625 
Q 51.265625 72.90625 61.171875 64.09375 
Q 71.09375 55.28125 71.09375 36.53125 
Q 71.09375 17.671875 61.125 8.828125 
Q 51.171875 0 30.078125 0 
L 9.8125 0 
z
" id="DejaVuSans-44"/>
    </defs>
    <g transform="translate(74.3712 68.770168)scale(0.1666 -0.1666)">
     <use xlink:href="#DejaVuSans-4d"/>
     <use x="86.279297" xlink:href="#DejaVuSans-75"/>
     <use x="149.658203" xlink:href="#DejaVuSans-6c"/>
     <use x="177.441406" xlink:href="#DejaVuSans-74"/>
     <use x="216.650391" xlink:href="#DejaVuSans-69"/>
     <use x="244.433594" xlink:href="#DejaVuSans-2d"/>
     <use x="280.517578" xlink:href="#DejaVuSans-6d"/>
     <use x="377.929688" xlink:href="#DejaVuSans-6f"/>
     <use x="439.111328" xlink:href="#DejaVuSans-64"/>
     <use x="502.587891" xlink:href="#DejaVuSans-61"/>
     <use x="563.867188" xlink:href="#DejaVuSans-6c"/>
     <use x="591.650391" xlink:href="#DejaVuSans-20"/>
     <use x="623.4375" xlink:href="#DejaVuSans-66"/>
     <use x="658.642578" xlink:href="#DejaVuSans-75"/>
     <use x="722.021484" xlink:href="#DejaVuSans-6e"/>
     <use x="785.400391" xlink:href="#DejaVuSans-63"/>
     <use x="840.380859" xlink:href="#DejaVuSans-74"/>
     <use x="879.589844" xlink:href="#DejaVuSans-69"/>
     <use x="907.373047" xlink:href="#DejaVuSans-6f"/>
     <use x="968.554688" xlink:href="#DejaVuSans-6e"/>
     <use x="1031.933594" xlink:href="#DejaVuSans-73"/>
     <use x="1084.033203" xlink:href="#DejaVuSans-2c"/>
     <use x="1115.820312" xlink:href="#DejaVuSans-20"/>
     <use x="1147.607422" xlink:href="#DejaVuSans-32"/>
     <use x="1211.230469" xlink:href="#DejaVuSans-2d"/>
     <use x="1247.314453" xlink:href="#DejaVuSans-44"/>
    </g>
    <!-- 51 targets in 100..1e-08 -->
    <g transform="translate(74.3712 87.425723)scale(0.1666 -0.1666)">
     <use xlink:href="#DejaVuSans-35"/>
     <use x="63.623047" xlink:href="#DejaVuSans-31"/>
     <use x="127.246094" xlink:href="#DejaVuSans-20"/>
     <use x="159.033203" xlink:href="#DejaVuSans-74"/>
     <use x="198.242188" xlink:href="#DejaVuSans-61"/>
     <use x="259.521484" xlink:href="#DejaVuSans-72"/>
     <use x="300.619141" xlink:href="#DejaVuSans-67"/>
     <use x="364.095703" xlink:href="#DejaVuSans-65"/>
     <use x="425.619141" xlink:href="#DejaVuSans-74"/>
     <use x="464.828125" xlink:href="#DejaVuSans-73"/>
     <use x="516.927734" xlink:href="#DejaVuSans-20"/>
     <use x="548.714844" xlink:href="#DejaVuSans-69"/>
     <use x="576.498047" xlink:href="#DejaVuSans-6e"/>
     <use x="639.876953" xlink:href="#DejaVuSans-20"/>
     <use x="671.664062" xlink:href="#DejaVuSans-31"/>
     <use x="735.287109" xlink:href="#DejaVuSans-30"/>
     <use x="798.910156" xlink:href="#DejaVuSans-30"/>
     <use x="862.533203" xlink:href="#DejaVuSans-2e"/>
     <use x="894.320312" xlink:href="#DejaVuSans-2e"/>
     <use x="926.107422" xlink:href="#DejaVuSans-31"/>
     <use x="989.730469" xlink:href="#DejaVuSans-65"/>
     <use x="1051.253906" xlink:href="#DejaVuSans-2d"/>
     <use x="1087.337891" xlink:href="#DejaVuSans-30"/>
     <use x="1150.960938" xlink:href="#DejaVuSans-38"/>
    </g>
    <!-- 15 instances -->
    <g transform="translate(74.3712 106.081279)scale(0.1666 -0.1666)">
     <use xlink:href="#DejaVuSans-31"/>
     <use x="63.623047" xlink:href="#DejaVuSans-35"/>
     <use x="127.246094" xlink:href="#DejaVuSans-20"/>
     <use x="159.033203" xlink:href="#DejaVuSans-69"/>
     <use x="186.816406" xlink:href="#DejaVuSans-6e"/>
     <use x="250.195312" xlink:href="#DejaVuSans-73"/>
     <use x="302.294922" xlink:href="#DejaVuSans-74"/>
     <use x="341.503906" xlink:href="#DejaVuSans-61"/>
     <use x="402.783203" xlink:href="#DejaVuSans-6e"/>
     <use x="466.162109" xlink:href="#DejaVuSans-63"/>
     <use x="521.142578" xlink:href="#DejaVuSans-65"/>
     <use x="582.666016" xlink:href="#DejaVuSans-73"/>
    </g>
   </g>
   <g id="text_20">
    <!-- v2.1 -->
    <g style="fill:#808080;" transform="translate(238.449063 293.504568)scale(0.1 -0.1)">
     <use xlink:href="#DejaVuSans-76"/>
     <use x="59.179688" xlink:href="#DejaVuSans-32"/>
     <use x="122.802734" xlink:href="#DejaVuSans-2e"/>
     <use x="154.589844" xlink:href="#DejaVuSans-31"/>
    </g>
   </g>
  </g>
 </g>
 <defs>
  <clipPath id="pa1f9073bae">
   <rect height="266.112" width="357.12" x="70.8" y="32.133375"/>
  </clipPath>
 </defs>
</svg>
