<?xml version="1.0" encoding="utf-8" standalone="no"?>
<!DOCTYPE svg PUBLIC "-//W3C//DTD SVG 1.1//EN"
  "http://www.w3.org/Graphics/SVG/1.1/DTD/svg11.dtd">
<!-- Created with matplotlib (http://matplotlib.org/) -->
<svg height="353pt" version="1.1" viewBox="0 0 438 353" width="438pt" xmlns="http://www.w3.org/2000/svg" xmlns:xlink="http://www.w3.org/1999/xlink">
 <defs>
  <style type="text/css">
*{stroke-linecap:butt;stroke-linejoin:round;}
  </style>
 </defs>
 <g id="figure_1">
  <g id="patch_1">
   <path d="M 0 353.22225 
L 438.62 353.22225 
L 438.62 0 
L 0 0 
z
" style="fill:#ffffff;"/>
  </g>
  <g id="axes_1">
   <g id="patch_2">
    <path d="M 70.8 298.245375 
L 427.92 298.245375 
L 427.92 32.133375 
L 70.8 32.133375 
z
" style="fill:#ffffff;"/>
   </g>
   <g id="matplotlib.axis_1">
    <g id="xtick_1">
     <g id="line2d_1">
      <path clip-path="url(#p06d4a51c8a)" d="M 70.8 298.245375 
L 70.8 32.133375 
" style="fill:none;stroke:#b0b0b0;stroke-linecap:square;stroke-width:0.8;"/>
     </g>
     <g id="line2d_2">
      <defs>
       <path d="M 0 0 
L 0 3.5 
" id="m2e711d181d" style="stroke:#000000;stroke-width:0.8;"/>
      </defs>
      <g>
       <use style="stroke:#000000;stroke-width:0.8;" x="70.8" xlink:href="#m2e711d181d" y="298.245375"/>
      </g>
     </g>
     <g id="text_1">
      <!-- 0 -->
      <defs>
       <path d="M 31.78125 66.40625 
Q 24.171875 66.40625 20.328125 58.90625 
Q 16.5 51.421875 16.5 36.375 
Q 16.5 21.390625 20.328125 13.890625 
Q 24.171875 6.390625 31.78125 6.390625 
Q 39.453125 6.390625 43.28125 13.890625 
Q 47.125 21.390625 47.125 36.375 
Q 47.125 51.421875 43.28125 58.90625 
Q 39.453125 66.40625 31.78125 66.40625 
z
M 31.78125 74.21875 
Q 44.046875 74.21875 50.515625 64.515625 
Q 56.984375 54.828125 56.984375 36.375 
Q 56.984375 17.96875 50.515625 8.265625 
Q 44.046875 -1.421875 31.78125 -1.421875 
Q 19.53125 -1.421875 13.0625 8.265625 
Q 6.59375 17.96875 6.59375 36.375 
Q 6.59375 54.828125 13.0625 64.515625 
Q 19.53125 74.21875 31.78125 74.21875 
z
" id="DejaVuSans-30"/>
      </defs>
      <g transform="translate(64.4375 320.44225)scale(0.2 -0.2)">
       <use xlink:href="#DejaVuSans-30"/>
      </g>
     </g>
    </g>
    <g id="xtick_2">
     <g id="line2d_3">
      <path clip-path="url(#p06d4a51c8a)" d="M 153.085714 298.245375 
L 153.085714 32.133375 
" style="fill:none;stroke:#b0b0b0;stroke-linecap:square;stroke-width:0.8;"/>
     </g>
     <g id="line2d_4">
      <g>
       <use style="stroke:#000000;stroke-width:0.8;" x="153.085714" xlink:href="#m2e711d181d" y="298.245375"/>
      </g>
     </g>
     <g id="text_2">
      <!-- 2 -->
      <defs>
       <path d="M 19.1875 8.296875 
L 53.609375 8.296875 
L 53.609375 0 
L 7.328125 0 
L 7.328125 8.296875 
Q 12.9375 14.109375 22.625 23.890625 
Q 32.328125 33.6875 34.8125 36.53125 
Q 39.546875 41.84375 41.421875 45.53125 
Q 43.3125 49.21875 43.3125 52.78125 
Q 43.3125 58.59375 39.234375 62.25 
Q 35.15625 65.921875 28.609375 65.921875 
Q 23.96875 65.921875 18.8125 64.3125 
Q 13.671875 62.703125 7.8125 59.421875 
L 7.8125 69.390625 
Q 13.765625 71.78125 18.9375 73 
Q 24.125 74.21875 28.421875 74.21875 
Q 39.75 74.21875 46.484375 68.546875 
Q 53.21875 62.890625 53.21875 53.421875 
Q 53.21875 48.921875 51.53125 44.890625 
Q 49.859375 40.875 45.40625 35.40625 
Q 44.1875 33.984375 37.640625 27.21875 
Q 31.109375 20.453125 19.1875 8.296875 
z
" id="DejaVuSans-32"/>
      </defs>
      <g transform="translate(146.723214 320.44225)scale(0.2 -0.2)">
       <use xlink:href="#DejaVuSans-32"/>
      </g>
     </g>
    </g>
    <g id="xtick_3">
     <g id="line2d_5">
      <path clip-path="url(#p06d4a51c8a)" d="M 235.371429 298.245375 
L 235.371429 32.133375 
" style="fill:none;stroke:#b0b0b0;stroke-linecap:square;stroke-width:0.8;"/>
     </g>
     <g id="line2d_6">
      <g>
       <use style="stroke:#000000;stroke-width:0.8;" x="235.371429" xlink:href="#m2e711d181d" y="298.245375"/>
      </g>
     </g>
     <g id="text_3">
      <!-- 4 -->
      <defs>
       <path d="M 37.796875 64.3125 
L 12.890625 25.390625 
L 37.796875 25.390625 
z
M 35.203125 72.90625 
L 47.609375 72.90625 
L 47.609375 25.390625 
L 58.015625 25.390625 
L 58.015625 17.1875 
L 47.609375 17.1875 
L 47.609375 0 
L 37.796875 0 
L 37.796875 17.1875 
L 4.890625 17.1875 
L 4.890625 26.703125 
z
" id="DejaVuSans-34"/>
      </defs>
      <g transform="translate(229.008929 320.44225)scale(0.2 -0.2)">
       <use xlink:href="#DejaVuSans-34"/>
      </g>
     </g>
    </g>
    <g id="xtick_4">
     <g id="line2d_7">
      <path clip-path="url(#p06d4a51c8a)" d="M 317.657143 298.245375 
L 317.657143 32.133375 
" style="fill:none;stroke:#b0b0b0;stroke-linecap:square;stroke-width:0.8;"/>
     </g>
     <g id="line2d_8">
      <g>
       <use style="stroke:#000000;stroke-width:0.8;" x="317.657143" xlink:href="#m2e711d181d" y="298.245375"/>
      </g>
     </g>
     <g id="text_4">
      <!-- 6 -->
      <defs>
       <path d="M 33.015625 40.375 
Q 26.375 40.375 22.484375 35.828125 
Q 18.609375 31.296875 18.609375 23.390625 
Q 18.609375 15.53125 22.484375 10.953125 
Q 26.375 6.390625 33.015625 6.390625 
Q 39.65625 6.390625 43.53125 10.953125 
Q 47.40625 15.53125 47.40625 23.390625 
Q 47.40625 31.296875 43.53125 35.828125 
Q 39.65625 40.375 33.015625 40.375 
z
M 52.59375 71.296875 
L 52.59375 62.3125 
Q 48.875 64.0625 45.09375 64.984375 
Q 41.3125 65.921875 37.59375 65.921875 
Q 27.828125 65.921875 22.671875 59.328125 
Q 17.53125 52.734375 16.796875 39.40625 
Q 19.671875 43.65625 24.015625 45.921875 
Q 28.375 48.1875 33.59375 48.1875 
Q 44.578125 48.1875 50.953125 41.515625 
Q 57.328125 34.859375 57.328125 23.390625 
Q 57.328125 12.15625 50.6875 5.359375 
Q 44.046875 -1.421875 33.015625 -1.421875 
Q 20.359375 -1.421875 13.671875 8.265625 
Q 6.984375 17.96875 6.984375 36.375 
Q 6.984375 53.65625 15.1875 63.9375 
Q 23.390625 74.21875 37.203125 74.21875 
Q 40.921875 74.21875 44.703125 73.484375 
Q 48.484375 72.75 52.59375 71.296875 
z
" id="DejaVuSans-36"/>
      </defs>
      <g transform="translate(311.294643 320.44225)scale(0.2 -0.2)">
       <use xlink:href="#DejaVuSans-36"/>
      </g>
     </g>
    </g>
    <g id="xtick_5">
     <g id="line2d_9">
      <path clip-path="url(#p06d4a51c8a)" d="M 399.942857 298.245375 
L 399.942857 32.133375 
" style="fill:none;stroke:#b0b0b0;stroke-linecap:square;stroke-width:0.8;"/>
     </g>
     <g id="line2d_10">
      <g>
       <use style="stroke:#000000;stroke-width:0.8;" x="399.942857" xlink:href="#m2e711d181d" y="298.245375"/>
      </g>
     </g>
     <g id="text_5">
      <!-- 8 -->
      <defs>
       <path d="M 31.78125 34.625 
Q 24.75 34.625 20.71875 30.859375 
Q 16.703125 27.09375 16.703125 20.515625 
Q 16.703125 13.921875 20.71875 10.15625 
Q 24.75 6.390625 31.78125 6.390625 
Q 38.8125 6.390625 42.859375 10.171875 
Q 46.921875 13.96875 46.921875 20.515625 
Q 46.921875 27.09375 42.890625 30.859375 
Q 38.875 34.625 31.78125 34.625 
z
M 21.921875 38.8125 
Q 15.578125 40.375 12.03125 44.71875 
Q 8.5 49.078125 8.5 55.328125 
Q 8.5 64.0625 14.71875 69.140625 
Q 20.953125 74.21875 31.78125 74.21875 
Q 42.671875 74.21875 48.875 69.140625 
Q 55.078125 64.0625 55.078125 55.328125 
Q 55.078125 49.078125 51.53125 44.71875 
Q 48 40.375 41.703125 38.8125 
Q 48.828125 37.15625 52.796875 32.3125 
Q 56.78125 27.484375 56.78125 20.515625 
Q 56.78125 9.90625 50.3125 4.234375 
Q 43.84375 -1.421875 31.78125 -1.421875 
Q 19.734375 -1.421875 13.25 4.234375 
Q 6.78125 9.90625 6.78125 20.515625 
Q 6.78125 27.484375 10.78125 32.3125 
Q 14.796875 37.15625 21.921875 38.8125 
z
M 18.3125 54.390625 
Q 18.3125 48.734375 21.84375 45.5625 
Q 25.390625 42.390625 31.78125 42.390625 
Q 38.140625 42.390625 41.71875 45.5625 
Q 45.3125 48.734375 45.3125 54.390625 
Q 45.3125 60.0625 41.71875 63.234375 
Q 38.140625 66.40625 31.78125 66.40625 
Q 25.390625 66.40625 21.84375 63.234375 
Q 18.3125 60.0625 18.3125 54.390625 
z
" id="DejaVuSans-38"/>
      </defs>
      <g transform="translate(393.580357 320.44225)scale(0.2 -0.2)">
       <use xlink:href="#DejaVuSans-38"/>
      </g>
     </g>
    </g>
    <g id="text_6">
     <!-- log10 of (# f-evals / dimension) -->
     <defs>
      <path d="M 9.421875 75.984375 
L 18.40625 75.984375 
L 18.40625 0 
L 9.421875 0 
z
" id="DejaVuSans-6c"/>
      <path d="M 30.609375 48.390625 
Q 23.390625 48.390625 19.1875 42.75 
Q 14.984375 37.109375 14.984375 27.296875 
Q 14.984375 17.484375 19.15625 11.84375 
Q 23.34375 6.203125 30.609375 6.203125 
Q 37.796875 6.203125 41.984375 11.859375 
Q 46.1875 17.53125 46.1875 27.296875 
Q 46.1875 37.015625 41.984375 42.703125 
Q 37.796875 48.390625 30.609375 48.390625 
z
M 30.609375 56 
Q 42.328125 56 49.015625 48.375 
Q 55.71875 40.765625 55.71875 27.296875 
Q 55.71875 13.875 49.015625 6.21875 
Q 42.328125 -1.421875 30.609375 -1.421875 
Q 18.84375 -1.421875 12.171875 6.21875 
Q 5.515625 13.875 5.515625 27.296875 
Q 5.515625 40.765625 12.171875 48.375 
Q 18.84375 56 30.609375 56 
z
" id="DejaVuSans-6f"/>
      <path d="M 45.40625 27.984375 
Q 45.40625 37.75 41.375 43.109375 
Q 37.359375 48.484375 30.078125 48.484375 
Q 22.859375 48.484375 18.828125 43.109375 
Q 14.796875 37.75 14.796875 27.984375 
Q 14.796875 18.265625 18.828125 12.890625 
Q 22.859375 7.515625 30.078125 7.515625 
Q 37.359375 7.515625 41.375 12.890625 
Q 45.40625 18.265625 45.40625 27.984375 
z
M 54.390625 6.78125 
Q 54.390625 -7.171875 48.1875 -13.984375 
Q 42 -20.796875 29.203125 -20.796875 
Q 24.46875 -20.796875 20.265625 -20.09375 
Q 16.0625 -19.390625 12.109375 -17.921875 
L 12.109375 -9.1875 
Q 16.0625 -11.328125 19.921875 -12.34375 
Q 23.78125 -13.375 27.78125 -13.375 
Q 36.625 -13.375 41.015625 -8.765625 
Q 45.40625 -4.15625 45.40625 5.171875 
L 45.40625 9.625 
Q 42.625 4.78125 38.28125 2.390625 
Q 33.9375 0 27.875 0 
Q 17.828125 0 11.671875 7.65625 
Q 5.515625 15.328125 5.515625 27.984375 
Q 5.515625 40.671875 11.671875 48.328125 
Q 17.828125 56 27.875 56 
Q 33.9375 56 38.28125 53.609375 
Q 42.625 51.21875 45.40625 46.390625 
L 45.40625 54.6875 
L 54.390625 54.6875 
z
" id="DejaVuSans-67"/>
      <path d="M 12.40625 8.296875 
L 28.515625 8.296875 
L 28.515625 63.921875 
L 10.984375 60.40625 
L 10.984375 69.390625 
L 28.421875 72.90625 
L 38.28125 72.90625 
L 38.28125 8.296875 
L 54.390625 8.296875 
L 54.390625 0 
L 12.40625 0 
z
" id="DejaVuSans-31"/>
      <path id="DejaVuSans-20"/>
      <path d="M 37.109375 75.984375 
L 37.109375 68.5 
L 28.515625 68.5 
Q 23.6875 68.5 21.796875 66.546875 
Q 19.921875 64.59375 19.921875 59.515625 
L 19.921875 54.6875 
L 34.71875 54.6875 
L 34.71875 47.703125 
L 19.921875 47.703125 
L 19.921875 0 
L 10.890625 0 
L 10.890625 47.703125 
L 2.296875 47.703125 
L 2.296875 54.6875 
L 10.890625 54.6875 
L 10.890625 58.5 
Q 10.890625 67.625 15.140625 71.796875 
Q 19.390625 75.984375 28.609375 75.984375 
z
" id="DejaVuSans-66"/>
      <path d="M 31 75.875 
Q 24.46875 64.65625 21.28125 53.65625 
Q 18.109375 42.671875 18.109375 31.390625 
Q 18.109375 20.125 21.3125 9.0625 
Q 24.515625 -2 31 -13.1875 
L 23.1875 -13.1875 
Q 15.875 -1.703125 12.234375 9.375 
Q 8.59375 20.453125 8.59375 31.390625 
Q 8.59375 42.28125 12.203125 53.3125 
Q 15.828125 64.359375 23.1875 75.875 
z
" id="DejaVuSans-28"/>
      <path d="M 51.125 44 
L 36.921875 44 
L 32.8125 27.6875 
L 47.125 27.6875 
z
M 43.796875 71.78125 
L 38.71875 51.515625 
L 52.984375 51.515625 
L 58.109375 71.78125 
L 65.921875 71.78125 
L 60.890625 51.515625 
L 76.125 51.515625 
L 76.125 44 
L 58.984375 44 
L 54.984375 27.6875 
L 70.515625 27.6875 
L 70.515625 20.21875 
L 53.078125 20.21875 
L 48 0 
L 40.1875 0 
L 45.21875 20.21875 
L 30.90625 20.21875 
L 25.875 0 
L 18.015625 0 
L 23.09375 20.21875 
L 7.71875 20.21875 
L 7.71875 27.6875 
L 24.90625 27.6875 
L 29 44 
L 13.28125 44 
L 13.28125 51.515625 
L 30.90625 51.515625 
L 35.890625 71.78125 
z
" id="DejaVuSans-23"/>
      <path d="M 4.890625 31.390625 
L 31.203125 31.390625 
L 31.203125 23.390625 
L 4.890625 23.390625 
z
" id="DejaVuSans-2d"/>
      <path d="M 56.203125 29.59375 
L 56.203125 25.203125 
L 14.890625 25.203125 
Q 15.484375 15.921875 20.484375 11.0625 
Q 25.484375 6.203125 34.421875 6.203125 
Q 39.59375 6.203125 44.453125 7.46875 
Q 49.3125 8.734375 54.109375 11.28125 
L 54.109375 2.78125 
Q 49.265625 0.734375 44.1875 -0.34375 
Q 39.109375 -1.421875 33.890625 -1.421875 
Q 20.796875 -1.421875 13.15625 6.1875 
Q 5.515625 13.8125 5.515625 26.8125 
Q 5.515625 40.234375 12.765625 48.109375 
Q 20.015625 56 32.328125 56 
Q 43.359375 56 49.78125 48.890625 
Q 56.203125 41.796875 56.203125 29.59375 
z
M 47.21875 32.234375 
Q 47.125 39.59375 43.09375 43.984375 
Q 39.0625 48.390625 32.421875 48.390625 
Q 24.90625 48.390625 20.390625 44.140625 
Q 15.875 39.890625 15.1875 32.171875 
z
" id="DejaVuSans-65"/>
      <path d="M 2.984375 54.6875 
L 12.5 54.6875 
L 29.59375 8.796875 
L 46.6875 54.6875 
L 56.203125 54.6875 
L 35.6875 0 
L 23.484375 0 
z
" id="DejaVuSans-76"/>
      <path d="M 34.28125 27.484375 
Q 23.390625 27.484375 19.1875 25 
Q 14.984375 22.515625 14.984375 16.5 
Q 14.984375 11.71875 18.140625 8.90625 
Q 21.296875 6.109375 26.703125 6.109375 
Q 34.1875 6.109375 38.703125 11.40625 
Q 43.21875 16.703125 43.21875 25.484375 
L 43.21875 27.484375 
z
M 52.203125 31.203125 
L 52.203125 0 
L 43.21875 0 
L 43.21875 8.296875 
Q 40.140625 3.328125 35.546875 0.953125 
Q 30.953125 -1.421875 24.3125 -1.421875 
Q 15.921875 -1.421875 10.953125 3.296875 
Q 6 8.015625 6 15.921875 
Q 6 25.140625 12.171875 29.828125 
Q 18.359375 34.515625 30.609375 34.515625 
L 43.21875 34.515625 
L 43.21875 35.40625 
Q 43.21875 41.609375 39.140625 45 
Q 35.0625 48.390625 27.6875 48.390625 
Q 23 48.390625 18.546875 47.265625 
Q 14.109375 46.140625 10.015625 43.890625 
L 10.015625 52.203125 
Q 14.9375 54.109375 19.578125 55.046875 
Q 24.21875 56 28.609375 56 
Q 40.484375 56 46.34375 49.84375 
Q 52.203125 43.703125 52.203125 31.203125 
z
" id="DejaVuSans-61"/>
      <path d="M 44.28125 53.078125 
L 44.28125 44.578125 
Q 40.484375 46.53125 36.375 47.5 
Q 32.28125 48.484375 27.875 48.484375 
Q 21.1875 48.484375 17.84375 46.4375 
Q 14.5 44.390625 14.5 40.28125 
Q 14.5 37.15625 16.890625 35.375 
Q 19.28125 33.59375 26.515625 31.984375 
L 29.59375 31.296875 
Q 39.15625 29.25 43.1875 25.515625 
Q 47.21875 21.78125 47.21875 15.09375 
Q 47.21875 7.46875 41.1875 3.015625 
Q 35.15625 -1.421875 24.609375 -1.421875 
Q 20.21875 -1.421875 15.453125 -0.5625 
Q 10.6875 0.296875 5.421875 2 
L 5.421875 11.28125 
Q 10.40625 8.6875 15.234375 7.390625 
Q 20.0625 6.109375 24.8125 6.109375 
Q 31.15625 6.109375 34.5625 8.28125 
Q 37.984375 10.453125 37.984375 14.40625 
Q 37.984375 18.0625 35.515625 20.015625 
Q 33.0625 21.96875 24.703125 23.78125 
L 21.578125 24.515625 
Q 13.234375 26.265625 9.515625 29.90625 
Q 5.8125 33.546875 5.8125 39.890625 
Q 5.8125 47.609375 11.28125 51.796875 
Q 16.75 56 26.8125 56 
Q 31.78125 56 36.171875 55.265625 
Q 40.578125 54.546875 44.28125 53.078125 
z
" id="DejaVuSans-73"/>
      <path d="M 25.390625 72.90625 
L 33.6875 72.90625 
L 8.296875 -9.28125 
L 0 -9.28125 
z
" id="DejaVuSans-2f"/>
      <path d="M 45.40625 46.390625 
L 45.40625 75.984375 
L 54.390625 75.984375 
L 54.390625 0 
L 45.40625 0 
L 45.40625 8.203125 
Q 42.578125 3.328125 38.25 0.953125 
Q 33.9375 -1.421875 27.875 -1.421875 
Q 17.96875 -1.421875 11.734375 6.484375 
Q 5.515625 14.40625 5.515625 27.296875 
Q 5.515625 40.1875 11.734375 48.09375 
Q 17.96875 56 27.875 56 
Q 33.9375 56 38.25 53.625 
Q 42.578125 51.265625 45.40625 46.390625 
z
M 14.796875 27.296875 
Q 14.796875 17.390625 18.875 11.75 
Q 22.953125 6.109375 30.078125 6.109375 
Q 37.203125 6.109375 41.296875 11.75 
Q 45.40625 17.390625 45.40625 27.296875 
Q 45.40625 37.203125 41.296875 42.84375 
Q 37.203125 48.484375 30.078125 48.484375 
Q 22.953125 48.484375 18.875 42.84375 
Q 14.796875 37.203125 14.796875 27.296875 
z
" id="DejaVuSans-64"/>
      <path d="M 9.421875 54.6875 
L 18.40625 54.6875 
L 18.40625 0 
L 9.421875 0 
z
M 9.421875 75.984375 
L 18.40625 75.984375 
L 18.40625 64.59375 
L 9.421875 64.59375 
z
" id="DejaVuSans-69"/>
      <path d="M 52 44.1875 
Q 55.375 50.25 60.0625 53.125 
Q 64.75 56 71.09375 56 
Q 79.640625 56 84.28125 50.015625 
Q 88.921875 44.046875 88.921875 33.015625 
L 88.921875 0 
L 79.890625 0 
L 79.890625 32.71875 
Q 79.890625 40.578125 77.09375 44.375 
Q 74.3125 48.1875 68.609375 48.1875 
Q 61.625 48.1875 57.5625 43.546875 
Q 53.515625 38.921875 53.515625 30.90625 
L 53.515625 0 
L 44.484375 0 
L 44.484375 32.71875 
Q 44.484375 40.625 41.703125 44.40625 
Q 38.921875 48.1875 33.109375 48.1875 
Q 26.21875 48.1875 22.15625 43.53125 
Q 18.109375 38.875 18.109375 30.90625 
L 18.109375 0 
L 9.078125 0 
L 9.078125 54.6875 
L 18.109375 54.6875 
L 18.109375 46.1875 
Q 21.1875 51.21875 25.484375 53.609375 
Q 29.78125 56 35.6875 56 
Q 41.65625 56 45.828125 52.96875 
Q 50 49.953125 52 44.1875 
z
" id="DejaVuSans-6d"/>
      <path d="M 54.890625 33.015625 
L 54.890625 0 
L 45.90625 0 
L 45.90625 32.71875 
Q 45.90625 40.484375 42.875 44.328125 
Q 39.84375 48.1875 33.796875 48.1875 
Q 26.515625 48.1875 22.3125 43.546875 
Q 18.109375 38.921875 18.109375 30.90625 
L 18.109375 0 
L 9.078125 0 
L 9.078125 54.6875 
L 18.109375 54.6875 
L 18.109375 46.1875 
Q 21.34375 51.125 25.703125 53.5625 
Q 30.078125 56 35.796875 56 
Q 45.21875 56 50.046875 50.171875 
Q 54.890625 44.34375 54.890625 33.015625 
z
" id="DejaVuSans-6e"/>
      <path d="M 8.015625 75.875 
L 15.828125 75.875 
Q 23.140625 64.359375 26.78125 53.3125 
Q 30.421875 42.28125 30.421875 31.390625 
Q 30.421875 20.453125 26.78125 9.375 
Q 23.140625 -1.703125 15.828125 -13.1875 
L 8.015625 -13.1875 
Q 14.5 -2 17.703125 9.0625 
Q 20.90625 20.125 20.90625 31.390625 
Q 20.90625 42.671875 17.703125 53.65625 
Q 14.5 64.65625 8.015625 75.875 
z
" id="DejaVuSans-29"/>
     </defs>
     <g transform="translate(107.015156 342.278812)scale(0.18 -0.18)">
      <use xlink:href="#DejaVuSans-6c"/>
      <use x="27.783203" xlink:href="#DejaVuSans-6f"/>
      <use x="88.964844" xlink:href="#DejaVuSans-67"/>
      <use x="152.441406" xlink:href="#DejaVuSans-31"/>
      <use x="216.064453" xlink:href="#DejaVuSans-30"/>
      <use x="279.6875" xlink:href="#DejaVuSans-20"/>
      <use x="311.474609" xlink:href="#DejaVuSans-6f"/>
      <use x="372.65625" xlink:href="#DejaVuSans-66"/>
      <use x="407.861328" xlink:href="#DejaVuSans-20"/>
      <use x="439.648438" xlink:href="#DejaVuSans-28"/>
      <use x="478.662109" xlink:href="#DejaVuSans-23"/>
      <use x="562.451172" xlink:href="#DejaVuSans-20"/>
      <use x="594.238281" xlink:href="#DejaVuSans-66"/>
      <use x="629.365234" xlink:href="#DejaVuSans-2d"/>
      <use x="665.449219" xlink:href="#DejaVuSans-65"/>
      <use x="726.972656" xlink:href="#DejaVuSans-76"/>
      <use x="786.152344" xlink:href="#DejaVuSans-61"/>
      <use x="847.431641" xlink:href="#DejaVuSans-6c"/>
      <use x="875.214844" xlink:href="#DejaVuSans-73"/>
      <use x="927.314453" xlink:href="#DejaVuSans-20"/>
      <use x="959.101562" xlink:href="#DejaVuSans-2f"/>
      <use x="992.792969" xlink:href="#DejaVuSans-20"/>
      <use x="1024.580078" xlink:href="#DejaVuSans-64"/>
      <use x="1088.056641" xlink:href="#DejaVuSans-69"/>
      <use x="1115.839844" xlink:href="#DejaVuSans-6d"/>
      <use x="1213.251953" xlink:href="#DejaVuSans-65"/>
      <use x="1274.775391" xlink:href="#DejaVuSans-6e"/>
      <use x="1338.154297" xlink:href="#DejaVuSans-73"/>
      <use x="1390.253906" xlink:href="#DejaVuSans-69"/>
      <use x="1418.037109" xlink:href="#DejaVuSans-6f"/>
      <use x="1479.21875" xlink:href="#DejaVuSans-6e"/>
      <use x="1542.597656" xlink:href="#DejaVuSans-29"/>
     </g>
    </g>
   </g>
   <g id="matplotlib.axis_2">
    <g id="ytick_1">
     <g id="line2d_11">
      <path clip-path="url(#p06d4a51c8a)" d="M 70.8 298.245375 
L 427.92 298.245375 
" style="fill:none;stroke:#b0b0b0;stroke-linecap:square;stroke-width:0.8;"/>
     </g>
     <g id="line2d_12">
      <defs>
       <path d="M 0 0 
L -3.5 0 
" id="m229d88428a" style="stroke:#000000;stroke-width:0.8;"/>
      </defs>
      <g>
       <use style="stroke:#000000;stroke-width:0.8;" x="70.8" xlink:href="#m229d88428a" y="298.245375"/>
      </g>
     </g>
     <g id="text_7">
      <!-- 0.0 -->
      <defs>
       <path d="M 10.6875 12.40625 
L 21 12.40625 
L 21 0 
L 10.6875 0 
z
" id="DejaVuSans-2e"/>
      </defs>
      <g transform="translate(31.99375 305.843812)scale(0.2 -0.2)">
       <use xlink:href="#DejaVuSans-30"/>
       <use x="63.623047" xlink:href="#DejaVuSans-2e"/>
       <use x="95.410156" xlink:href="#DejaVuSans-30"/>
      </g>
     </g>
    </g>
    <g id="ytick_2">
     <g id="line2d_13">
      <path clip-path="url(#p06d4a51c8a)" d="M 70.8 245.549929 
L 427.92 245.549929 
" style="fill:none;stroke:#b0b0b0;stroke-linecap:square;stroke-width:0.8;"/>
     </g>
     <g id="line2d_14">
      <g>
       <use style="stroke:#000000;stroke-width:0.8;" x="70.8" xlink:href="#m229d88428a" y="245.549929"/>
      </g>
     </g>
     <g id="text_8">
      <!-- 0.2 -->
      <g transform="translate(31.99375 253.148367)scale(0.2 -0.2)">
       <use xlink:href="#DejaVuSans-30"/>
       <use x="63.623047" xlink:href="#DejaVuSans-2e"/>
       <use x="95.410156" xlink:href="#DejaVuSans-32"/>
      </g>
     </g>
    </g>
    <g id="ytick_3">
     <g id="line2d_15">
      <path clip-path="url(#p06d4a51c8a)" d="M 70.8 192.854484 
L 427.92 192.854484 
" style="fill:none;stroke:#b0b0b0;stroke-linecap:square;stroke-width:0.8;"/>
     </g>
     <g id="line2d_16">
      <g>
       <use style="stroke:#000000;stroke-width:0.8;" x="70.8" xlink:href="#m229d88428a" y="192.854484"/>
      </g>
     </g>
     <g id="text_9">
      <!-- 0.4 -->
      <g transform="translate(31.99375 200.452921)scale(0.2 -0.2)">
       <use xlink:href="#DejaVuSans-30"/>
       <use x="63.623047" xlink:href="#DejaVuSans-2e"/>
       <use x="95.410156" xlink:href="#DejaVuSans-34"/>
      </g>
     </g>
    </g>
    <g id="ytick_4">
     <g id="line2d_17">
      <path clip-path="url(#p06d4a51c8a)" d="M 70.8 140.159038 
L 427.92 140.159038 
" style="fill:none;stroke:#b0b0b0;stroke-linecap:square;stroke-width:0.8;"/>
     </g>
     <g id="line2d_18">
      <g>
       <use style="stroke:#000000;stroke-width:0.8;" x="70.8" xlink:href="#m229d88428a" y="140.159038"/>
      </g>
     </g>
     <g id="text_10">
      <!-- 0.6 -->
      <g transform="translate(31.99375 147.757476)scale(0.2 -0.2)">
       <use xlink:href="#DejaVuSans-30"/>
       <use x="63.623047" xlink:href="#DejaVuSans-2e"/>
       <use x="95.410156" xlink:href="#DejaVuSans-36"/>
      </g>
     </g>
    </g>
    <g id="ytick_5">
     <g id="line2d_19">
      <path clip-path="url(#p06d4a51c8a)" d="M 70.8 87.463593 
L 427.92 87.463593 
" style="fill:none;stroke:#b0b0b0;stroke-linecap:square;stroke-width:0.8;"/>
     </g>
     <g id="line2d_20">
      <g>
       <use style="stroke:#000000;stroke-width:0.8;" x="70.8" xlink:href="#m229d88428a" y="87.463593"/>
      </g>
     </g>
     <g id="text_11">
      <!-- 0.8 -->
      <g transform="translate(31.99375 95.06203)scale(0.2 -0.2)">
       <use xlink:href="#DejaVuSans-30"/>
       <use x="63.623047" xlink:href="#DejaVuSans-2e"/>
       <use x="95.410156" xlink:href="#DejaVuSans-38"/>
      </g>
     </g>
    </g>
    <g id="ytick_6">
     <g id="line2d_21">
      <path clip-path="url(#p06d4a51c8a)" d="M 70.8 34.768147 
L 427.92 34.768147 
" style="fill:none;stroke:#b0b0b0;stroke-linecap:square;stroke-width:0.8;"/>
     </g>
     <g id="line2d_22">
      <g>
       <use style="stroke:#000000;stroke-width:0.8;" x="70.8" xlink:href="#m229d88428a" y="34.768147"/>
      </g>
     </g>
     <g id="text_12">
      <!-- 1.0 -->
      <g transform="translate(31.99375 42.366585)scale(0.2 -0.2)">
       <use xlink:href="#DejaVuSans-31"/>
       <use x="63.623047" xlink:href="#DejaVuSans-2e"/>
       <use x="95.410156" xlink:href="#DejaVuSans-30"/>
      </g>
     </g>
    </g>
    <g id="text_13">
     <!-- Proportion of function+target pairs -->
     <defs>
      <path d="M 19.671875 64.796875 
L 19.671875 37.40625 
L 32.078125 37.40625 
Q 38.96875 37.40625 42.71875 40.96875 
Q 46.484375 44.53125 46.484375 51.125 
Q 46.484375 57.671875 42.71875 61.234375 
Q 38.96875 64.796875 32.078125 64.796875 
z
M 9.8125 72.90625 
L 32.078125 72.90625 
Q 44.34375 72.90625 50.609375 67.359375 
Q 56.890625 61.8125 56.890625 51.125 
Q 56.890625 40.328125 50.609375 34.8125 
Q 44.34375 29.296875 32.078125 29.296875 
L 19.671875 29.296875 
L 19.671875 0 
L 9.8125 0 
z
" id="DejaVuSans-50"/>
      <path d="M 41.109375 46.296875 
Q 39.59375 47.171875 37.8125 47.578125 
Q 36.03125 48 33.890625 48 
Q 26.265625 48 22.1875 43.046875 
Q 18.109375 38.09375 18.109375 28.8125 
L 18.109375 0 
L 9.078125 0 
L 9.078125 54.6875 
L 18.109375 54.6875 
L 18.109375 46.1875 
Q 20.953125 51.171875 25.484375 53.578125 
Q 30.03125 56 36.53125 56 
Q 37.453125 56 38.578125 55.875 
Q 39.703125 55.765625 41.0625 55.515625 
z
" id="DejaVuSans-72"/>
      <path d="M 18.109375 8.203125 
L 18.109375 -20.796875 
L 9.078125 -20.796875 
L 9.078125 54.6875 
L 18.109375 54.6875 
L 18.109375 46.390625 
Q 20.953125 51.265625 25.265625 53.625 
Q 29.59375 56 35.59375 56 
Q 45.5625 56 51.78125 48.09375 
Q 58.015625 40.1875 58.015625 27.296875 
Q 58.015625 14.40625 51.78125 6.484375 
Q 45.5625 -1.421875 35.59375 -1.421875 
Q 29.59375 -1.421875 25.265625 0.953125 
Q 20.953125 3.328125 18.109375 8.203125 
z
M 48.6875 27.296875 
Q 48.6875 37.203125 44.609375 42.84375 
Q 40.53125 48.484375 33.40625 48.484375 
Q 26.265625 48.484375 22.1875 42.84375 
Q 18.109375 37.203125 18.109375 27.296875 
Q 18.109375 17.390625 22.1875 11.75 
Q 26.265625 6.109375 33.40625 6.109375 
Q 40.53125 6.109375 44.609375 11.75 
Q 48.6875 17.390625 48.6875 27.296875 
z
" id="DejaVuSans-70"/>
      <path d="M 18.3125 70.21875 
L 18.3125 54.6875 
L 36.8125 54.6875 
L 36.8125 47.703125 
L 18.3125 47.703125 
L 18.3125 18.015625 
Q 18.3125 11.328125 20.140625 9.421875 
Q 21.96875 7.515625 27.59375 7.515625 
L 36.8125 7.515625 
L 36.8125 0 
L 27.59375 0 
Q 17.1875 0 13.234375 3.875 
Q 9.28125 7.765625 9.28125 18.015625 
L 9.28125 47.703125 
L 2.6875 47.703125 
L 2.6875 54.6875 
L 9.28125 54.6875 
L 9.28125 70.21875 
z
" id="DejaVuSans-74"/>
      <path d="M 8.5 21.578125 
L 8.5 54.6875 
L 17.484375 54.6875 
L 17.484375 21.921875 
Q 17.484375 14.15625 20.5 10.265625 
Q 23.53125 6.390625 29.59375 6.390625 
Q 36.859375 6.390625 41.078125 11.03125 
Q 45.3125 15.671875 45.3125 23.6875 
L 45.3125 54.6875 
L 54.296875 54.6875 
L 54.296875 0 
L 45.3125 0 
L 45.3125 8.40625 
Q 42.046875 3.421875 37.71875 1 
Q 33.40625 -1.421875 27.6875 -1.421875 
Q 18.265625 -1.421875 13.375 4.4375 
Q 8.5 10.296875 8.5 21.578125 
z
M 31.109375 56 
z
" id="DejaVuSans-75"/>
      <path d="M 48.78125 52.59375 
L 48.78125 44.1875 
Q 44.96875 46.296875 41.140625 47.34375 
Q 37.3125 48.390625 33.40625 48.390625 
Q 24.65625 48.390625 19.8125 42.84375 
Q 14.984375 37.3125 14.984375 27.296875 
Q 14.984375 17.28125 19.8125 11.734375 
Q 24.65625 6.203125 33.40625 6.203125 
Q 37.3125 6.203125 41.140625 7.25 
Q 44.96875 8.296875 48.78125 10.40625 
L 48.78125 2.09375 
Q 45.015625 0.34375 40.984375 -0.53125 
Q 36.96875 -1.421875 32.421875 -1.421875 
Q 20.0625 -1.421875 12.78125 6.34375 
Q 5.515625 14.109375 5.515625 27.296875 
Q 5.515625 40.671875 12.859375 48.328125 
Q 20.21875 56 33.015625 56 
Q 37.15625 56 41.109375 55.140625 
Q 45.0625 54.296875 48.78125 52.59375 
z
" id="DejaVuSans-63"/>
      <path d="M 46 62.703125 
L 46 35.5 
L 73.1875 35.5 
L 73.1875 27.203125 
L 46 27.203125 
L 46 0 
L 37.796875 0 
L 37.796875 27.203125 
L 10.59375 27.203125 
L 10.59375 35.5 
L 37.796875 35.5 
L 37.796875 62.703125 
z
" id="DejaVuSans-2b"/>
     </defs>
     <g transform="translate(24.250312 323.17875)rotate(-90)scale(0.18 -0.18)">
      <use xlink:href="#DejaVuSans-50"/>
      <use x="60.287109" xlink:href="#DejaVuSans-72"/>
      <use x="101.369141" xlink:href="#DejaVuSans-6f"/>
      <use x="162.550781" xlink:href="#DejaVuSans-70"/>
      <use x="226.027344" xlink:href="#DejaVuSans-6f"/>
      <use x="287.208984" xlink:href="#DejaVuSans-72"/>
      <use x="328.322266" xlink:href="#DejaVuSans-74"/>
      <use x="367.53125" xlink:href="#DejaVuSans-69"/>
      <use x="395.314453" xlink:href="#DejaVuSans-6f"/>
      <use x="456.496094" xlink:href="#DejaVuSans-6e"/>
      <use x="519.875" xlink:href="#DejaVuSans-20"/>
      <use x="551.662109" xlink:href="#DejaVuSans-6f"/>
      <use x="612.84375" xlink:href="#DejaVuSans-66"/>
      <use x="648.048828" xlink:href="#DejaVuSans-20"/>
      <use x="679.835938" xlink:href="#DejaVuSans-66"/>
      <use x="715.041016" xlink:href="#DejaVuSans-75"/>
      <use x="778.419922" xlink:href="#DejaVuSans-6e"/>
      <use x="841.798828" xlink:href="#DejaVuSans-63"/>
      <use x="896.779297" xlink:href="#DejaVuSans-74"/>
      <use x="935.988281" xlink:href="#DejaVuSans-69"/>
      <use x="963.771484" xlink:href="#DejaVuSans-6f"/>
      <use x="1024.953125" xlink:href="#DejaVuSans-6e"/>
      <use x="1088.332031" xlink:href="#DejaVuSans-2b"/>
      <use x="1172.121094" xlink:href="#DejaVuSans-74"/>
      <use x="1211.330078" xlink:href="#DejaVuSans-61"/>
      <use x="1272.609375" xlink:href="#DejaVuSans-72"/>
      <use x="1313.707031" xlink:href="#DejaVuSans-67"/>
      <use x="1377.183594" xlink:href="#DejaVuSans-65"/>
      <use x="1438.707031" xlink:href="#DejaVuSans-74"/>
      <use x="1477.916016" xlink:href="#DejaVuSans-20"/>
      <use x="1509.703125" xlink:href="#DejaVuSans-70"/>
      <use x="1573.179688" xlink:href="#DejaVuSans-61"/>
      <use x="1634.458984" xlink:href="#DejaVuSans-69"/>
      <use x="1662.242188" xlink:href="#DejaVuSans-72"/>
      <use x="1703.355469" xlink:href="#DejaVuSans-73"/>
     </g>
    </g>
   </g>
   <g id="line2d_23">
    <defs>
     <path d="M 0 1.5 
C 0.397805 1.5 0.77937 1.341951 1.06066 1.06066 
C 1.341951 0.77937 1.5 0.397805 1.5 0 
C 1.5 -0.397805 1.341951 -0.77937 1.06066 -1.06066 
C 0.77937 -1.341951 0.397805 -1.5 0 -1.5 
C -0.397805 -1.5 -0.77937 -1.341951 -1.06066 -1.06066 
C -1.341951 -0.77937 -1.5 -0.397805 -1.5 0 
C -1.5 0.397805 -1.341951 0.77937 -1.06066 1.06066 
C -0.77937 1.341951 -0.397805 1.5 0 1.5 
z
" id="m3b3f52f62a" style="stroke:#000080;"/>
    </defs>
    <g>
     <use style="fill:#000080;stroke:#000080;" x="268.242125" xlink:href="#m3b3f52f62a" y="34.768147"/>
     <use style="fill:#000080;stroke:#000080;" x="268.242125" xlink:href="#m3b3f52f62a" y="34.768147"/>
    </g>
   </g>
   <g id="line2d_24">
    <path d="M 113.64587 298.245375 
L 113.64587 297.212131 
L 120.340936 297.212131 
L 120.340936 296.178887 
L 125.620325 296.178887 
L 125.620325 295.662265 
L 127.585834 295.662265 
L 127.585834 294.629021 
L 130.656474 294.629021 
L 130.656474 292.562533 
L 133.809418 292.562533 
L 133.809418 291.012667 
L 137.154536 291.012667 
L 137.154536 289.979423 
L 140.339496 289.979423 
L 140.339496 288.946179 
L 142.884279 288.946179 
L 142.884279 288.429557 
L 143.505841 288.429557 
L 143.505841 286.363069 
L 144.687635 286.363069 
L 144.687635 285.846447 
L 145.250457 285.846447 
L 145.250457 285.329825 
L 145.388435 285.329825 
L 145.388435 284.296581 
L 145.525356 284.296581 
L 145.525356 283.263337 
L 146.062784 283.263337 
L 146.062784 282.230093 
L 146.194652 282.230093 
L 146.194652 281.713471 
L 146.712605 281.713471 
L 146.712605 281.196849 
L 146.839781 281.196849 
L 146.839781 279.646982 
L 148.760352 279.646982 
L 148.760352 278.613738 
L 148.8738 278.613738 
L 148.8738 276.54725 
L 149.53977 276.54725 
L 149.53977 274.480762 
L 150.494377 274.480762 
L 150.494377 271.38103 
L 150.801573 271.38103 
L 150.801573 265.181566 
L 151.20312 265.181566 
L 151.20312 264.664944 
L 151.789013 264.664944 
L 151.789013 263.6317 
L 151.980117 263.6317 
L 151.980117 263.115078 
L 152.449124 263.115078 
L 152.449124 262.081834 
L 152.633333 262.081834 
L 152.633333 261.04859 
L 155.891075 261.04859 
L 155.891075 260.531968 
L 156.268851 260.531968 
L 156.268851 260.015346 
L 156.711885 260.015346 
L 156.711885 258.982102 
L 157.91059 258.982102 
L 157.91059 257.948858 
L 158.969752 257.948858 
L 158.969752 256.915614 
L 160.211092 256.915614 
L 160.211092 255.365748 
L 161.705761 255.365748 
L 161.705761 254.849126 
L 162.461624 254.849126 
L 162.461624 254.332504 
L 164.12615 254.332504 
L 164.12615 253.29926 
L 164.601393 253.29926 
L 164.601393 252.782638 
L 164.834358 252.782638 
L 164.834358 251.749394 
L 165.246189 251.749394 
L 165.246189 251.232772 
L 166.427621 251.232772 
L 166.427621 250.71615 
L 166.72158 250.71615 
L 166.72158 250.199528 
L 167.133306 250.199528 
L 167.133306 249.682906 
L 167.733635 249.682906 
L 167.733635 248.13304 
L 167.890374 248.13304 
L 167.890374 247.616418 
L 168.084384 247.616418 
L 168.084384 245.033307 
L 168.199786 245.033307 
L 168.199786 244.516685 
L 168.314449 244.516685 
L 168.314449 244.000063 
L 168.503932 244.000063 
L 168.503932 242.966819 
L 168.840019 242.966819 
L 168.950658 241.933575 
L 169.776869 241.933575 
L 169.776869 239.867087 
L 170.397831 239.867087 
L 170.499259 234.700867 
L 170.566559 234.700867 
L 170.600114 231.601135 
L 170.899308 231.601135 
L 170.899308 230.567891 
L 171.641902 230.567891 
L 171.70504 224.368427 
L 171.767956 224.368427 
L 171.767956 222.818561 
L 172.048368 222.818561 
L 172.14087 221.268695 
L 172.232894 221.268695 
L 172.232894 218.168963 
L 173.301738 218.168963 
L 173.301738 216.619097 
L 174.767386 216.619097 
L 174.873271 211.969498 
L 175.083178 211.969498 
L 175.083178 210.419632 
L 175.495736 210.419632 
L 175.495736 209.386388 
L 176.195556 209.386388 
L 176.195556 208.869766 
L 176.438994 208.869766 
L 176.438994 207.836522 
L 176.750586 207.836522 
L 176.750586 207.3199 
L 176.868996 207.3199 
L 176.868996 206.803278 
L 177.334945 206.803278 
L 177.334945 206.286656 
L 177.495198 206.286656 
L 177.495198 202.670302 
L 177.699148 202.670302 
L 177.699148 201.637058 
L 178.275589 201.637058 
L 178.340921 200.087192 
L 178.427659 200.087192 
L 178.427659 199.57057 
L 179.189922 199.57057 
L 179.189922 199.053948 
L 181.717821 199.053948 
L 181.717821 198.537326 
L 182.850748 198.537326 
L 182.850748 195.954216 
L 185.367111 195.954216 
L 185.367111 194.920972 
L 185.498656 194.920972 
L 185.498656 193.887728 
L 185.887579 193.887728 
L 185.887579 192.854484 
L 186.898598 192.854484 
L 186.898598 192.337862 
L 198.07941 192.337862 
L 198.07941 191.304618 
L 201.106406 191.304618 
L 201.106406 190.787996 
L 210.349039 190.787996 
L 210.349039 189.754752 
L 210.518577 189.754752 
L 210.518577 187.171642 
L 210.675849 187.171642 
L 210.743337 186.138398 
L 210.824692 186.138398 
L 210.824692 185.621776 
L 211.042171 185.621776 
L 211.090915 184.588532 
L 211.288011 184.588532 
L 211.380618 182.522044 
L 211.40455 182.522044 
L 211.503353 180.972178 
L 211.520334 180.972178 
L 211.598235 174.772713 
L 211.675798 174.772713 
L 211.756376 168.056627 
L 211.863251 168.056627 
L 211.926406 161.340541 
L 212.045462 161.340541 
L 212.150626 158.757431 
L 212.219306 158.757431 
L 212.31047 152.557967 
L 212.333189 152.557967 
L 212.433453 150.491479 
L 212.491414 150.491479 
L 212.578005 146.358503 
L 212.689631 146.358503 
L 212.711873 144.292014 
L 212.913953 144.292014 
L 212.913953 143.775392 
L 213.234452 143.775392 
L 213.296024 142.742148 
L 213.43379 142.742148 
L 213.43379 141.708904 
L 213.915196 141.708904 
L 213.915196 141.192282 
L 214.23588 141.192282 
L 214.288288 139.642416 
L 222.585053 139.642416 
L 222.665277 136.542684 
L 222.741521 136.542684 
L 222.746954 134.992818 
L 222.885852 134.992818 
L 222.96474 133.442952 
L 222.998698 133.442952 
L 223.101961 129.309976 
L 223.121479 129.309976 
L 223.2258 124.143756 
L 223.282128 124.143756 
L 223.378528 117.944292 
L 223.47441 117.944292 
L 223.585339 111.228206 
L 223.619863 111.228206 
L 223.728181 106.578607 
L 223.735037 106.578607 
L 223.844364 103.995497 
L 224.052617 103.995497 
L 224.128205 102.962253 
L 224.453753 102.962253 
L 224.453753 101.929009 
L 224.573503 101.929009 
L 224.573503 100.895765 
L 229.707708 100.895765 
L 229.722421 99.345899 
L 229.861597 99.345899 
L 229.861597 98.829277 
L 230.049105 98.829277 
L 230.154692 94.696301 
L 230.165455 94.696301 
L 230.258469 90.046703 
L 230.321395 90.046703 
L 230.420676 83.847239 
L 230.452471 83.847239 
L 230.536981 80.747507 
L 230.576751 80.747507 
L 230.576751 80.230885 
L 230.765034 80.230885 
L 230.765034 79.714263 
L 230.997061 79.714263 
L 231.080176 78.164397 
L 232.823418 78.164397 
L 232.823418 77.647775 
L 234.80875 77.647775 
L 234.902546 76.097908 
L 234.996764 76.097908 
L 235.074145 74.03142 
L 235.113164 74.03142 
L 235.213493 71.44831 
L 235.2612 71.44831 
L 235.360704 67.315334 
L 235.391965 67.315334 
L 235.430296 66.28209 
L 235.603981 66.28209 
L 235.603981 65.765468 
L 235.775994 65.765468 
L 235.775994 65.248846 
L 238.763421 65.248846 
L 238.763421 64.732224 
L 238.967672 64.732224 
L 239.048578 61.11587 
L 239.147932 61.11587 
L 239.167448 60.082626 
L 239.283379 60.082626 
L 239.283379 59.049382 
L 242.164555 59.049382 
L 242.237708 55.94965 
L 242.395788 55.94965 
L 242.417483 54.916406 
L 244.73835 54.916406 
L 244.73835 54.399784 
L 244.889505 54.399784 
L 244.999302 52.333296 
L 245.078875 52.333296 
L 245.078875 51.816674 
L 247.250137 51.816674 
L 247.341353 48.716942 
L 247.38884 48.716942 
L 247.440293 47.683698 
L 247.58881 47.683698 
L 247.605036 46.650454 
L 249.234094 46.650454 
L 249.234094 46.133832 
L 249.354595 46.133832 
L 249.416578 44.583966 
L 249.646715 44.583966 
L 249.646715 44.067344 
L 251.227179 44.067344 
L 251.322929 40.967611 
L 251.383927 40.967611 
L 251.383927 40.450989 
L 252.917647 40.450989 
L 252.987451 38.384501 
L 254.330373 38.384501 
L 254.425969 37.351257 
L 255.869377 37.351257 
L 255.869377 36.834635 
L 257.155818 36.834635 
L 257.180351 35.801391 
L 258.360763 35.801391 
L 258.360763 35.284769 
L 268.242125 35.284769 
L 268.242125 34.768147 
L 358.8 34.768147 
L 358.8 34.768147 
" style="fill:none;stroke:#000080;stroke-linecap:square;stroke-width:1.5;"/>
   </g>
   <g id="line2d_25">
    <defs>
     <path d="M 0 6 
C 1.591219 6 3.117479 5.367802 4.242641 4.242641 
C 5.367802 3.117479 6 1.591219 6 0 
C 6 -1.591219 5.367802 -3.117479 4.242641 -4.242641 
C 3.117479 -5.367802 1.591219 -6 0 -6 
C -1.591219 -6 -3.117479 -5.367802 -4.242641 -4.242641 
C -5.367802 -3.117479 -6 -1.591219 -6 0 
C -6 1.591219 -5.367802 3.117479 -4.242641 4.242641 
C -3.117479 5.367802 -1.591219 6 0 6 
z
" id="m2e2ce68a54" style="stroke:#000080;stroke-width:1.5;"/>
    </defs>
    <g>
     <use style="fill:none;stroke:#000080;stroke-width:1.5;" x="168.314449" xlink:href="#m2e2ce68a54" y="244.516685"/>
     <use style="fill:none;stroke:#000080;stroke-width:1.5;" x="214.23588" xlink:href="#m2e2ce68a54" y="141.192282"/>
     <use style="fill:none;stroke:#000080;stroke-width:1.5;" x="258.360763" xlink:href="#m2e2ce68a54" y="35.284769"/>
     <use style="fill:none;stroke:#000080;stroke-width:1.5;" x="268.242125" xlink:href="#m2e2ce68a54" y="34.768147"/>
     <use style="fill:none;stroke:#000080;stroke-width:1.5;" x="358.8" xlink:href="#m2e2ce68a54" y="34.768147"/>
    </g>
   </g>
   <g id="line2d_26"/>
   <g id="line2d_27">
    <path clip-path="url(#p06d4a51c8a)" d="M 209.87527 190.787996 
" style="fill:none;stroke:#000080;stroke-linecap:square;stroke-width:1.5;"/>
    <defs>
     <path d="M -12 12 
L 12 -12 
M -12 -12 
L 12 12 
" id="m7480b99602" style="stroke:#000080;stroke-width:3;"/>
    </defs>
    <g clip-path="url(#p06d4a51c8a)">
     <use style="fill:#000080;stroke:#000080;stroke-width:3;" x="209.87527" xlink:href="#m7480b99602" y="190.787996"/>
    </g>
   </g>
   <g id="line2d_28">
    <defs>
     <path d="M 0 1.5 
C 0.397805 1.5 0.77937 1.341951 1.06066 1.06066 
C 1.341951 0.77937 1.5 0.397805 1.5 0 
C 1.5 -0.397805 1.341951 -0.77937 1.06066 -1.06066 
C 0.77937 -1.341951 0.397805 -1.5 0 -1.5 
C -0.397805 -1.5 -0.77937 -1.341951 -1.06066 -1.06066 
C -1.341951 -0.77937 -1.5 -0.397805 -1.5 0 
C -1.5 0.397805 -1.341951 0.77937 -1.06066 1.06066 
C -0.77937 1.341951 -0.397805 1.5 0 1.5 
z
" id="mc6335a3e1d" style="stroke:#ff00ff;"/>
    </defs>
    <g>
     <use style="fill:#ff00ff;stroke:#ff00ff;" x="286.052385" xlink:href="#mc6335a3e1d" y="200.087192"/>
     <use style="fill:#ff00ff;stroke:#ff00ff;" x="286.052385" xlink:href="#mc6335a3e1d" y="200.087192"/>
    </g>
   </g>
   <g id="line2d_29">
    <path d="M 58.414766 298.245375 
L 58.414766 297.728753 
L 78.044898 297.728753 
L 78.044898 296.695509 
L 112.814645 296.695509 
L 112.814645 296.178887 
L 115.2006 296.178887 
L 115.2006 295.145643 
L 115.930012 295.145643 
L 115.930012 294.629021 
L 118.581998 294.629021 
L 118.581998 293.079155 
L 121.942137 293.079155 
L 121.942137 292.045911 
L 122.445497 292.045911 
L 122.445497 291.529289 
L 122.935065 291.529289 
L 122.935065 290.496045 
L 123.411577 290.496045 
L 123.411577 289.462801 
L 124.328091 289.462801 
L 124.328091 287.396313 
L 125.19988 287.396313 
L 125.19988 285.846447 
L 126.031105 285.846447 
L 126.031105 285.329825 
L 126.825374 285.329825 
L 126.825374 283.779959 
L 127.209649 283.779959 
L 127.209649 283.263337 
L 127.585834 283.263337 
L 127.585834 282.746715 
L 128.669082 282.746715 
L 128.669082 281.713471 
L 129.016046 281.713471 
L 129.016046 280.680226 
L 129.356402 280.680226 
L 129.356402 279.646982 
L 130.018259 279.646982 
L 130.018259 278.613738 
L 133.276002 278.613738 
L 133.276002 278.097116 
L 134.070271 278.097116 
L 134.070271 277.580494 
L 134.580824 277.580494 
L 134.580824 276.54725 
L 135.796811 276.54725 
L 135.796811 276.030628 
L 139.783966 276.030628 
L 139.783966 275.514006 
L 140.339496 275.514006 
L 140.339496 274.997384 
L 140.878274 274.997384 
L 140.878274 273.96414 
L 141.572268 273.96414 
L 141.572268 273.447518 
L 142.403494 273.447518 
L 142.403494 272.414274 
L 144.25357 272.414274 
L 144.25357 271.897652 
L 144.830011 271.897652 
L 144.830011 271.38103 
L 145.388435 271.38103 
L 145.388435 270.347786 
L 146.194652 270.347786 
L 146.194652 269.314542 
L 146.455505 269.314542 
L 146.455505 266.731432 
L 146.584518 266.731432 
L 146.584518 266.21481 
L 147.339621 266.21481 
L 147.339621 265.181566 
L 148.064103 265.181566 
L 148.064103 264.148322 
L 148.53127 264.148322 
L 148.53127 263.6317 
L 149.430484 263.6317 
L 149.430484 262.598456 
L 151.595842 262.598456 
L 151.595842 261.565212 
L 151.789013 261.565212 
L 151.789013 260.531968 
L 152.906134 260.531968 
L 152.906134 259.498724 
L 153.351746 259.498724 
L 153.351746 257.948858 
L 153.786515 257.948858 
L 153.786515 257.432236 
L 154.042387 257.432236 
L 154.12687 255.88237 
L 156.638804 255.88237 
L 156.638804 254.849126 
L 157.144199 254.849126 
L 157.144199 253.29926 
L 157.842261 253.29926 
L 157.842261 252.782638 
L 161.371767 252.782638 
L 161.371767 252.266016 
L 165.426222 252.266016 
L 165.426222 251.749394 
L 210.093515 251.749394 
L 210.196164 250.199528 
L 210.247268 250.199528 
L 210.352663 248.649662 
L 210.381629 248.649662 
L 210.471845 247.099796 
L 210.554443 247.099796 
L 210.647357 241.416953 
L 210.761054 241.416953 
L 210.814101 238.317221 
L 211.02124 238.317221 
L 211.108291 236.767355 
L 211.246697 236.767355 
L 211.301761 235.734111 
L 222.561281 235.734111 
L 222.617916 233.667623 
L 222.727023 233.667623 
L 222.739709 232.634379 
L 222.887649 232.634379 
L 222.914579 231.601135 
L 229.630264 231.601135 
L 229.665954 230.051269 
L 229.755482 230.051269 
L 229.826295 227.468159 
L 229.898043 227.468159 
L 229.993662 225.401671 
L 234.785685 225.401671 
L 234.84099 223.335183 
L 234.90438 223.335183 
L 234.962062 221.785317 
L 238.685664 221.785317 
L 238.789265 217.652341 
L 238.886399 217.652341 
L 238.886399 217.135719 
L 241.976032 217.135719 
L 242.010569 215.585853 
L 242.111332 215.585853 
L 242.111332 215.069231 
L 244.752624 215.069231 
L 244.855909 213.519365 
L 247.128865 213.519365 
L 247.128865 213.002743 
L 251.078689 213.002743 
L 251.096484 210.419632 
L 252.806873 210.419632 
L 252.836816 209.386388 
L 254.399192 209.386388 
L 254.399192 208.869766 
L 255.808281 208.869766 
L 255.808281 208.353144 
L 257.086257 208.353144 
L 257.12517 206.803278 
L 259.46522 206.803278 
L 259.495814 205.770034 
L 260.535104 205.770034 
L 260.545588 204.73679 
L 263.442583 204.73679 
L 263.442583 204.220168 
L 268.121495 204.220168 
L 268.121495 203.703546 
L 271.27708 203.703546 
L 271.27708 203.186924 
L 273.440669 203.186924 
L 273.440669 202.670302 
L 277.521865 202.670302 
L 277.521865 201.637058 
L 280.842028 201.637058 
L 280.842028 201.120436 
L 282.450694 201.120436 
L 282.450694 200.603814 
L 286.052385 200.603814 
L 286.052385 200.087192 
L 358.8 200.087192 
L 358.8 200.087192 
" style="fill:none;stroke:#ff00ff;stroke-linecap:square;stroke-width:1.5;"/>
   </g>
   <g id="line2d_30">
    <defs>
     <path d="M -0 8.485281 
L 5.091169 0 
L 0 -8.485281 
L -5.091169 -0 
z
" id="m7896a98624" style="stroke:#ff00ff;stroke-linejoin:miter;stroke-width:1.5;"/>
    </defs>
    <g>
     <use style="fill:none;stroke:#ff00ff;stroke-linejoin:miter;stroke-width:1.5;" x="146.455505" xlink:href="#m7896a98624" y="269.314542"/>
     <use style="fill:none;stroke:#ff00ff;stroke-linejoin:miter;stroke-width:1.5;" x="222.599666" xlink:href="#m7896a98624" y="234.700867"/>
     <use style="fill:none;stroke:#ff00ff;stroke-linejoin:miter;stroke-width:1.5;" x="277.521865" xlink:href="#m7896a98624" y="202.670302"/>
     <use style="fill:none;stroke:#ff00ff;stroke-linejoin:miter;stroke-width:1.5;" x="286.052385" xlink:href="#m7896a98624" y="200.087192"/>
     <use style="fill:none;stroke:#ff00ff;stroke-linejoin:miter;stroke-width:1.5;" x="286.052385" xlink:href="#m7896a98624" y="200.087192"/>
     <use style="fill:none;stroke:#ff00ff;stroke-linejoin:miter;stroke-width:1.5;" x="358.8" xlink:href="#m7896a98624" y="200.087192"/>
    </g>
   </g>
   <g id="line2d_31"/>
   <g id="line2d_32">
    <path clip-path="url(#p06d4a51c8a)" d="M 209.87527 251.749394 
" style="fill:none;stroke:#ff00ff;stroke-linecap:square;stroke-width:1.5;"/>
    <defs>
     <path d="M -12 12 
L 12 -12 
M -12 -12 
L 12 12 
" id="me204e70f93" style="stroke:#ff00ff;stroke-width:3;"/>
    </defs>
    <g clip-path="url(#p06d4a51c8a)">
     <use style="fill:#ff00ff;stroke:#ff00ff;stroke-width:3;" x="209.87527" xlink:href="#me204e70f93" y="251.749394"/>
    </g>
   </g>
   <g id="line2d_33">
    <defs>
     <path d="M 0 1.5 
C 0.397805 1.5 0.77937 1.341951 1.06066 1.06066 
C 1.341951 0.77937 1.5 0.397805 1.5 0 
C 1.5 -0.397805 1.341951 -0.77937 1.06066 -1.06066 
C 0.77937 -1.341951 0.397805 -1.5 0 -1.5 
C -0.397805 -1.5 -0.77937 -1.341951 -1.06066 -1.06066 
C -1.341951 -0.77937 -1.5 -0.397805 -1.5 0 
C -1.5 0.397805 -1.341951 0.77937 -1.06066 1.06066 
C -0.77937 1.341951 -0.397805 1.5 0 1.5 
z
" id="m75e566c13f" style="stroke:#ffa500;"/>
    </defs>
    <g>
     <use style="fill:#ffa500;stroke:#ffa500;" x="280.153069" xlink:href="#m75e566c13f" y="200.087192"/>
     <use style="fill:#ffa500;stroke:#ffa500;" x="280.153069" xlink:href="#m75e566c13f" y="200.087192"/>
    </g>
   </g>
   <g id="line2d_34">
    <path d="M 58.414766 298.245375 
L 58.414766 297.728753 
L 83.185234 297.728753 
L 83.185234 296.695509 
L 99.557623 296.695509 
L 99.557623 296.178887 
L 122.445497 296.178887 
L 122.445497 295.145643 
L 122.935065 295.145643 
L 122.935065 294.112399 
L 125.620325 294.112399 
L 125.620325 293.595777 
L 126.825374 293.595777 
L 126.825374 292.045911 
L 130.340216 292.045911 
L 130.340216 291.012667 
L 137.154536 291.012667 
L 137.154536 287.912935 
L 137.796573 287.912935 
L 137.796573 287.396313 
L 139.594883 287.396313 
L 139.594883 284.296581 
L 140.878274 284.296581 
L 140.878274 283.263337 
L 141.572268 283.263337 
L 141.572268 282.230093 
L 144.544115 282.230093 
L 144.544115 281.196849 
L 145.388435 281.196849 
L 145.388435 278.613738 
L 146.455505 278.613738 
L 146.455505 277.580494 
L 147.091449 277.580494 
L 147.091449 277.063872 
L 147.825858 277.063872 
L 147.825858 276.54725 
L 149.970348 276.54725 
L 149.970348 275.514006 
L 150.181807 275.514006 
L 150.181807 273.96414 
L 151.40056 273.96414 
L 151.40056 269.314542 
L 151.884821 269.314542 
L 151.884821 267.764676 
L 152.356302 267.764676 
L 152.356302 267.248054 
L 152.815662 267.248054 
L 152.815662 265.181566 
L 153.263508 265.181566 
L 153.263508 261.565212 
L 153.43955 261.565212 
L 153.43955 259.498724 
L 159.908748 259.498724 
L 159.908748 258.982102 
L 161.427868 258.982102 
L 161.427868 257.432236 
L 161.595122 257.432236 
L 161.595122 255.365748 
L 204.531566 255.365748 
L 204.531566 254.849126 
L 210.082482 254.849126 
L 210.177877 252.782638 
L 210.261842 252.782638 
L 210.283681 251.232772 
L 210.497024 251.232772 
L 210.593812 248.649662 
L 210.611678 248.649662 
L 210.61882 245.033307 
L 210.870512 245.033307 
L 210.933762 242.966819 
L 211.035197 242.966819 
L 211.035197 242.450197 
L 222.364411 242.450197 
L 222.454836 238.317221 
L 222.515477 238.317221 
L 222.623387 235.217489 
L 222.632502 235.217489 
L 222.632502 233.151001 
L 222.765054 233.151001 
L 222.849878 231.601135 
L 229.57474 231.601135 
L 229.57474 230.567891 
L 229.729773 230.567891 
L 229.756705 228.501403 
L 234.697767 228.501403 
L 234.778298 226.951537 
L 234.814281 226.951537 
L 234.899794 224.885049 
L 234.942855 224.885049 
L 234.942855 224.368427 
L 238.771547 224.368427 
L 238.836426 221.785317 
L 241.955648 221.785317 
L 242.060407 220.235451 
L 244.674768 220.235451 
L 244.753153 215.585853 
L 244.790635 215.585853 
L 244.815404 214.552609 
L 247.180149 214.552609 
L 247.180149 213.519365 
L 249.158676 213.519365 
L 249.268196 211.452876 
L 252.789355 211.452876 
L 252.829756 209.386388 
L 255.752972 209.386388 
L 255.763819 208.353144 
L 259.463132 208.353144 
L 259.49095 207.3199 
L 264.323821 207.3199 
L 264.332126 206.286656 
L 265.945088 206.286656 
L 265.945088 205.770034 
L 267.431409 205.770034 
L 267.431409 204.73679 
L 273.43186 204.73679 
L 273.43186 204.220168 
L 273.934409 204.220168 
L 273.934409 203.703546 
L 275.814164 203.703546 
L 275.818531 202.670302 
L 276.684736 202.670302 
L 276.688895 201.637058 
L 277.919768 201.637058 
L 277.919768 201.120436 
L 278.695633 201.120436 
L 278.695633 200.603814 
L 280.153069 200.603814 
L 280.153069 200.087192 
L 358.8 200.087192 
L 358.8 200.087192 
" style="fill:none;stroke:#ffa500;stroke-linecap:square;stroke-width:1.5;"/>
   </g>
   <g id="line2d_35">
    <defs>
     <path d="M 0 -6 
L -1.347084 -1.854102 
L -5.706339 -1.854102 
L -2.179628 0.708204 
L -3.526712 4.854102 
L -0 2.291796 
L 3.526712 4.854102 
L 2.179628 0.708204 
L 5.706339 -1.854102 
L 1.347084 -1.854102 
z
" id="meacfbc718e" style="stroke:#ffa500;stroke-linejoin:bevel;stroke-width:1.5;"/>
    </defs>
    <g>
     <use style="fill:none;stroke:#ffa500;stroke-linejoin:bevel;stroke-width:1.5;" x="83.185234" xlink:href="#meacfbc718e" y="297.728753"/>
     <use style="fill:none;stroke:#ffa500;stroke-linejoin:bevel;stroke-width:1.5;" x="150.181807" xlink:href="#meacfbc718e" y="273.96414"/>
     <use style="fill:none;stroke:#ffa500;stroke-linejoin:bevel;stroke-width:1.5;" x="211.035197" xlink:href="#meacfbc718e" y="242.450197"/>
     <use style="fill:none;stroke:#ffa500;stroke-linejoin:bevel;stroke-width:1.5;" x="267.431409" xlink:href="#meacfbc718e" y="204.73679"/>
     <use style="fill:none;stroke:#ffa500;stroke-linejoin:bevel;stroke-width:1.5;" x="280.153069" xlink:href="#meacfbc718e" y="200.087192"/>
     <use style="fill:none;stroke:#ffa500;stroke-linejoin:bevel;stroke-width:1.5;" x="358.8" xlink:href="#meacfbc718e" y="200.087192"/>
    </g>
   </g>
   <g id="line2d_36"/>
   <g id="line2d_37">
    <path clip-path="url(#p06d4a51c8a)" d="M 209.87527 254.849126 
" style="fill:none;stroke:#ffa500;stroke-linecap:square;stroke-width:1.5;"/>
    <defs>
     <path d="M -12 12 
L 12 -12 
M -12 -12 
L 12 12 
" id="m6379f9bf60" style="stroke:#ffa500;stroke-width:3;"/>
    </defs>
    <g clip-path="url(#p06d4a51c8a)">
     <use style="fill:#ffa500;stroke:#ffa500;stroke-width:3;" x="209.87527" xlink:href="#m6379f9bf60" y="254.849126"/>
    </g>
   </g>
   <g id="line2d_38">
    <defs>
     <path d="M 0 1.5 
C 0.397805 1.5 0.77937 1.341951 1.06066 1.06066 
C 1.341951 0.77937 1.5 0.397805 1.5 0 
C 1.5 -0.397805 1.341951 -0.77937 1.06066 -1.06066 
C 0.77937 -1.341951 0.397805 -1.5 0 -1.5 
C -0.397805 -1.5 -0.77937 -1.341951 -1.06066 -1.06066 
C -1.341951 -0.77937 -1.5 -0.397805 -1.5 0 
C -1.5 0.397805 -1.341951 0.77937 -1.06066 1.06066 
C -0.77937 1.341951 -0.397805 1.5 0 1.5 
z
" id="m2518ff1b18" style="stroke:#6495ed;"/>
    </defs>
    <g>
     <use style="fill:#6495ed;stroke:#6495ed;" x="287.060451" xlink:href="#m2518ff1b18" y="34.768147"/>
     <use style="fill:#6495ed;stroke:#6495ed;" x="287.060451" xlink:href="#m2518ff1b18" y="34.768147"/>
    </g>
   </g>
   <g id="line2d_39">
    <path d="M 95.570468 298.245375 
L 95.570468 297.212131 
L 111.026343 297.212131 
L 111.026343 295.662265 
L 116.630812 295.662265 
L 116.630812 294.629021 
L 126.432652 294.629021 
L 126.432652 291.012667 
L 130.018259 291.012667 
L 130.018259 290.496045 
L 131.572989 290.496045 
L 131.572989 289.979423 
L 136.935292 289.979423 
L 136.935292 289.462801 
L 139.210608 289.462801 
L 139.210608 287.912935 
L 139.594883 287.912935 
L 139.594883 286.879691 
L 144.106507 286.879691 
L 144.106507 286.363069 
L 144.399433 286.363069 
L 144.399433 285.846447 
L 144.544115 285.846447 
L 144.544115 282.230093 
L 145.525356 282.230093 
L 145.525356 281.713471 
L 146.062784 281.713471 
L 146.062784 280.680226 
L 147.584393 280.680226 
L 147.584393 279.646982 
L 148.760352 279.646982 
L 148.760352 276.030628 
L 148.986533 276.030628 
L 148.986533 273.96414 
L 149.209888 273.96414 
L 149.209888 272.930896 
L 151.20312 272.930896 
L 151.20312 272.414274 
L 151.980117 272.414274 
L 151.980117 270.864408 
L 152.541466 270.864408 
L 152.541466 268.79792 
L 156.043145 268.79792 
L 156.043145 267.248054 
L 163.637919 267.248054 
L 163.637919 266.731432 
L 169.133547 266.731432 
L 169.133547 266.21481 
L 170.667036 266.21481 
L 170.667036 265.181566 
L 172.293982 265.181566 
L 172.293982 264.664944 
L 173.785074 264.664944 
L 173.785074 261.565212 
L 175.135272 261.565212 
L 175.135272 260.531968 
L 176.121873 260.531968 
L 176.121873 260.015346 
L 176.36631 260.015346 
L 176.438994 257.948858 
L 177.080178 257.948858 
L 177.080178 257.432236 
L 177.923063 257.432236 
L 177.923063 256.398992 
L 179.559196 256.398992 
L 179.620006 254.332504 
L 208.324939 254.332504 
L 208.324939 253.815882 
L 209.778242 253.815882 
L 209.778242 252.782638 
L 209.945844 252.782638 
L 209.945844 252.266016 
L 210.464644 252.266016 
L 210.561607 249.682906 
L 210.583083 249.682906 
L 210.583083 248.13304 
L 210.732698 248.13304 
L 210.750426 245.033307 
L 211.170706 245.033307 
L 211.170706 244.516685 
L 211.615125 244.516685 
L 211.615125 244.000063 
L 211.799871 244.000063 
L 211.896518 242.450197 
L 211.933041 242.450197 
L 211.933041 241.416953 
L 212.101407 241.416953 
L 212.101407 237.800599 
L 212.264946 237.800599 
L 212.264946 234.700867 
L 212.391475 234.700867 
L 212.433453 230.051269 
L 212.520325 230.051269 
L 212.520325 229.018025 
L 212.638689 229.018025 
L 212.638689 228.501403 
L 212.756274 228.501403 
L 212.756274 227.984781 
L 212.882529 227.984781 
L 212.882529 227.468159 
L 213.154091 227.468159 
L 213.154091 226.951537 
L 222.212056 226.951537 
L 222.212056 226.434915 
L 222.592361 226.434915 
L 222.694361 223.335183 
L 223.229326 223.335183 
L 223.318996 220.235451 
L 223.373283 220.235451 
L 223.408219 218.168963 
L 223.562862 218.168963 
L 223.631931 214.552609 
L 223.695583 214.552609 
L 223.695583 211.969498 
L 223.975018 211.969498 
L 223.975018 210.936254 
L 229.003424 210.936254 
L 229.003424 209.90301 
L 229.795807 209.90301 
L 229.795807 208.869766 
L 230.170237 208.869766 
L 230.278677 203.186924 
L 230.33798 203.186924 
L 230.43128 198.537326 
L 230.474811 198.537326 
L 230.56857 196.470838 
L 230.985645 196.470838 
L 230.985645 195.437594 
L 234.270583 195.437594 
L 234.270583 194.920972 
L 234.621531 194.920972 
L 234.621531 194.40435 
L 234.863983 194.40435 
L 234.863983 193.371106 
L 235.172887 193.371106 
L 235.273781 190.271374 
L 235.320432 190.271374 
L 235.410695 185.105154 
L 235.448986 185.105154 
L 235.448986 184.07191 
L 235.767257 184.07191 
L 235.767257 183.555288 
L 238.807702 183.555288 
L 238.807702 182.005422 
L 239.034755 182.005422 
L 239.137081 177.355823 
L 239.165281 177.355823 
L 239.220827 173.222847 
L 242.036428 173.222847 
L 242.036428 172.706225 
L 242.250479 172.706225 
L 242.359572 164.440273 
L 242.381914 164.440273 
L 242.430126 161.857163 
L 244.932982 161.857163 
L 245.033671 154.624455 
L 245.047712 154.624455 
L 245.066935 153.591211 
L 247.140428 153.591211 
L 247.140428 153.074589 
L 247.283194 153.074589 
L 247.383823 146.358503 
L 247.400692 146.358503 
L 247.43711 142.742148 
L 249.371744 142.742148 
L 249.479564 133.442952 
L 249.496998 133.442952 
L 249.496998 132.92633 
L 251.246296 132.92633 
L 251.343772 125.177 
L 252.928687 125.177 
L 253.003111 121.044024 
L 254.472349 121.044024 
L 254.547651 116.911048 
L 255.881855 116.911048 
L 255.944961 112.26145 
L 257.023339 112.26145 
L 257.023339 111.744828 
L 257.198795 111.744828 
L 257.262673 107.095229 
L 258.415461 107.095229 
L 258.46116 99.345899 
L 259.551999 99.345899 
L 259.586592 96.762789 
L 260.638369 96.762789 
L 260.691728 92.113191 
L 261.647888 92.113191 
L 261.702414 87.980215 
L 262.61119 87.980215 
L 262.658397 84.880483 
L 263.510043 84.880483 
L 263.552168 82.297373 
L 264.378704 82.297373 
L 264.405642 78.681019 
L 265.205235 78.681019 
L 265.255131 74.548042 
L 266.000206 74.548042 
L 266.024167 71.44831 
L 266.751747 71.44831 
L 266.79705 69.898444 
L 267.492499 69.898444 
L 267.49975 68.8652 
L 268.182268 68.8652 
L 268.20063 66.798712 
L 268.853256 66.798712 
L 268.886557 64.215602 
L 269.499956 64.215602 
L 269.521903 62.665736 
L 270.121511 62.665736 
L 270.149981 60.599248 
L 270.72081 60.599248 
L 270.757468 57.499516 
L 271.308073 57.499516 
L 271.31644 55.94965 
L 271.890309 55.94965 
L 271.89459 54.399784 
L 272.420723 54.399784 
L 272.450581 52.849918 
L 272.954281 52.849918 
L 272.976402 50.266808 
L 273.487826 50.266808 
L 273.487826 49.750186 
L 273.971735 49.750186 
L 273.9809 48.20032 
L 274.47616 48.20032 
L 274.47616 47.167076 
L 274.944313 47.167076 
L 274.946947 46.133832 
L 275.406598 46.133832 
L 275.42028 45.100588 
L 276.287536 45.100588 
L 276.30255 43.550722 
L 276.725749 43.550722 
L 276.725749 43.0341 
L 277.543722 43.0341 
L 277.559402 42.000855 
L 278.335729 42.000855 
L 278.335729 41.484233 
L 278.716497 41.484233 
L 278.736547 40.450989 
L 279.832677 40.450989 
L 279.832677 39.934367 
L 280.183434 39.934367 
L 280.183434 39.417745 
L 280.529364 39.417745 
L 280.529364 38.901123 
L 280.861581 38.901123 
L 280.861581 38.384501 
L 281.518373 38.384501 
L 281.525192 37.351257 
L 281.839624 37.351257 
L 281.839624 36.834635 
L 283.377767 36.834635 
L 283.377767 36.318013 
L 285.827123 36.318013 
L 285.827123 35.801391 
L 286.079344 35.801391 
L 286.079344 35.284769 
L 287.060451 35.284769 
L 287.060451 34.768147 
L 358.8 34.768147 
L 358.8 34.768147 
" style="fill:none;stroke:#6495ed;stroke-linecap:square;stroke-width:1.5;"/>
   </g>
   <g id="line2d_40">
    <defs>
     <path d="M -0 6 
L 6 -6 
L -6 -6 
z
" id="m38f1576c4d" style="stroke:#6495ed;stroke-linejoin:miter;stroke-width:1.5;"/>
    </defs>
    <g>
     <use style="fill:none;stroke:#6495ed;stroke-linejoin:miter;stroke-width:1.5;" x="179.620006" xlink:href="#m38f1576c4d" y="254.332504"/>
     <use style="fill:none;stroke:#6495ed;stroke-linejoin:miter;stroke-width:1.5;" x="257.198795" xlink:href="#m38f1576c4d" y="110.194961"/>
     <use style="fill:none;stroke:#6495ed;stroke-linejoin:miter;stroke-width:1.5;" x="287.060451" xlink:href="#m38f1576c4d" y="35.284769"/>
     <use style="fill:none;stroke:#6495ed;stroke-linejoin:miter;stroke-width:1.5;" x="287.060451" xlink:href="#m38f1576c4d" y="34.768147"/>
     <use style="fill:none;stroke:#6495ed;stroke-linejoin:miter;stroke-width:1.5;" x="358.8" xlink:href="#m38f1576c4d" y="34.768147"/>
    </g>
   </g>
   <g id="line2d_41"/>
   <g id="line2d_42">
    <path clip-path="url(#p06d4a51c8a)" d="M 209.87527 252.782638 
" style="fill:none;stroke:#6495ed;stroke-linecap:square;stroke-width:1.5;"/>
    <defs>
     <path d="M -12 12 
L 12 -12 
M -12 -12 
L 12 12 
" id="m9a1b5acdd0" style="stroke:#6495ed;stroke-width:3;"/>
    </defs>
    <g clip-path="url(#p06d4a51c8a)">
     <use style="fill:#6495ed;stroke:#6495ed;stroke-width:3;" x="209.87527" xlink:href="#m9a1b5acdd0" y="252.782638"/>
    </g>
   </g>
   <g id="line2d_43">
    <defs>
     <path d="M 0 1.5 
C 0.397805 1.5 0.77937 1.341951 1.06066 1.06066 
C 1.341951 0.77937 1.5 0.397805 1.5 0 
C 1.5 -0.397805 1.341951 -0.77937 1.06066 -1.06066 
C 0.77937 -1.341951 0.397805 -1.5 0 -1.5 
C -0.397805 -1.5 -0.77937 -1.341951 -1.06066 -1.06066 
C -1.341951 -0.77937 -1.5 -0.397805 -1.5 0 
C -1.5 0.397805 -1.341951 0.77937 -1.06066 1.06066 
C -0.77937 1.341951 -0.397805 1.5 0 1.5 
z
" id="ma39cf9f7ae" style="stroke:#ff0000;"/>
    </defs>
    <g>
     <use style="fill:#ff0000;stroke:#ff0000;" x="251.282637" xlink:href="#ma39cf9f7ae" y="117.42767"/>
     <use style="fill:#ff0000;stroke:#ff0000;" x="251.282637" xlink:href="#ma39cf9f7ae" y="117.42767"/>
    </g>
   </g>
   <g id="line2d_44">
    <path d="M 58.414766 298.245375 
L 58.414766 269.831164 
L 70.8 269.831164 
L 70.8 268.281298 
L 78.044898 268.281298 
L 78.044898 266.731432 
L 99.557623 266.731432 
L 99.557623 264.664944 
L 101.260636 264.664944 
L 101.260636 263.6317 
L 102.815366 263.6317 
L 102.815366 262.081834 
L 106.802521 262.081834 
L 106.802521 261.565212 
L 107.955702 261.565212 
L 107.955702 261.04859 
L 111.026343 261.04859 
L 111.026343 260.015346 
L 111.942857 260.015346 
L 111.942857 258.46548 
L 112.814645 258.46548 
L 112.814645 257.432236 
L 113.64587 257.432236 
L 113.64587 252.266016 
L 114.44014 252.266016 
L 114.44014 249.682906 
L 115.2006 249.682906 
L 115.2006 249.166284 
L 115.930012 249.166284 
L 115.930012 248.649662 
L 116.630812 248.649662 
L 116.630812 241.416953 
L 117.305161 241.416953 
L 117.305161 239.867087 
L 117.954982 239.867087 
L 117.954982 239.350465 
L 118.581998 239.350465 
L 118.581998 238.317221 
L 119.773647 238.317221 
L 119.773647 237.283977 
L 120.340936 237.283977 
L 120.340936 236.250733 
L 121.424184 236.250733 
L 121.424184 235.217489 
L 121.942137 235.217489 
L 121.942137 234.184245 
L 122.935065 234.184245 
L 122.935065 232.634379 
L 123.87571 232.634379 
L 123.87571 231.601135 
L 124.328091 231.601135 
L 124.328091 228.501403 
L 127.585834 228.501403 
L 127.585834 227.984781 
L 128.669082 227.984781 
L 128.669082 225.401671 
L 129.356402 225.401671 
L 129.356402 224.885049 
L 131.272677 224.885049 
L 131.272677 222.818561 
L 132.158881 222.818561 
L 132.158881 222.301939 
L 133.276002 222.301939 
L 133.276002 219.718829 
L 133.544701 219.718829 
L 133.544701 218.685585 
L 133.809418 218.685585 
L 133.809418 217.652341 
L 134.327371 217.652341 
L 134.327371 216.102475 
L 135.3203 216.102475 
L 135.3203 215.585853 
L 136.488566 215.585853 
L 136.488566 215.069231 
L 136.713325 215.069231 
L 136.713325 214.552609 
L 137.585114 214.552609 
L 137.585114 214.035987 
L 137.796573 214.035987 
L 137.796573 212.48612 
L 138.61824 212.48612 
L 138.61824 210.936254 
L 139.783966 210.936254 
L 139.783966 210.419632 
L 139.971068 210.419632 
L 139.971068 209.90301 
L 141.909413 209.90301 
L 141.909413 208.869766 
L 142.075629 208.869766 
L 142.075629 208.353144 
L 143.041708 208.353144 
L 143.041708 207.3199 
L 143.197763 207.3199 
L 143.197763 206.803278 
L 143.352466 206.803278 
L 143.352466 203.703546 
L 143.657911 203.703546 
L 143.657911 203.186924 
L 144.106507 203.186924 
L 144.106507 202.15368 
L 144.399433 202.15368 
L 144.399433 201.120436 
L 144.687635 201.120436 
L 144.687635 200.603814 
L 144.971262 200.603814 
L 144.971262 199.57057 
L 146.325555 199.57057 
L 146.325555 199.053948 
L 147.339621 199.053948 
L 147.339621 197.504082 
L 147.462426 197.504082 
L 147.462426 196.470838 
L 147.825858 196.470838 
L 147.825858 195.954216 
L 147.945378 195.954216 
L 147.945378 194.40435 
L 148.646178 194.40435 
L 148.646178 193.371106 
L 149.209888 193.371106 
L 149.209888 189.754752 
L 149.970348 189.754752 
L 149.970348 189.23813 
L 150.69976 189.23813 
L 150.801573 187.171642 
L 151.103576 187.171642 
L 151.103576 185.621776 
L 151.595842 185.621776 
L 151.595842 184.07191 
L 151.789013 184.07191 
L 151.789013 182.522044 
L 152.262996 182.522044 
L 152.262996 182.005422 
L 152.815662 182.005422 
L 152.815662 181.4888 
L 153.085714 181.4888 
L 153.085714 180.455556 
L 153.351746 180.455556 
L 153.351746 177.872445 
L 154.042387 177.872445 
L 154.042387 176.839201 
L 154.460863 176.839201 
L 154.460863 176.322579 
L 154.869762 176.322579 
L 154.869762 175.805957 
L 155.030737 175.805957 
L 155.030737 175.289335 
L 155.269513 175.289335 
L 155.348401 174.256091 
L 155.426942 174.256091 
L 155.426942 173.739469 
L 155.582997 173.739469 
L 155.582997 173.222847 
L 156.343457 173.222847 
L 156.343457 171.672981 
L 156.857155 171.672981 
L 156.857155 171.156359 
L 157.144199 171.156359 
L 157.144199 170.123115 
L 157.635691 170.123115 
L 157.635691 169.606493 
L 158.84074 169.606493 
L 158.84074 168.056627 
L 159.225015 168.056627 
L 159.225015 167.540005 
L 159.476683 167.540005 
L 159.53905 165.990139 
L 159.663134 165.990139 
L 159.663134 162.373785 
L 160.858772 162.373785 
L 160.858772 160.307297 
L 163.237497 160.307297 
L 163.237497 159.790675 
L 163.932455 159.790675 
L 163.932455 158.757431 
L 164.222215 158.757431 
L 164.222215 158.240809 
L 164.64823 158.240809 
L 164.64823 157.724187 
L 165.064324 157.724187 
L 165.064324 156.690943 
L 167.375863 156.690943 
L 167.375863 156.174321 
L 168.007033 156.174321 
L 168.007033 153.074589 
L 170.227495 153.074589 
L 170.227495 152.041345 
L 173.924778 152.041345 
L 173.924778 151.524723 
L 174.714207 151.524723 
L 174.714207 151.008101 
L 175.874045 151.008101 
L 175.874045 150.491479 
L 178.960439 150.491479 
L 178.960439 148.941613 
L 180.353465 148.941613 
L 180.353465 148.424991 
L 180.585021 148.424991 
L 180.585021 147.908369 
L 181.188221 147.908369 
L 181.188221 147.391747 
L 182.021131 147.391747 
L 182.021131 146.875125 
L 189.004655 146.875125 
L 189.004655 146.358503 
L 191.229817 146.358503 
L 191.229817 145.841881 
L 192.951073 145.841881 
L 192.951073 145.325259 
L 195.678016 145.325259 
L 195.678016 144.292014 
L 196.237581 144.292014 
L 196.237581 143.775392 
L 198.985118 143.775392 
L 198.985118 143.25877 
L 201.651263 143.25877 
L 201.651263 142.742148 
L 202.379259 142.742148 
L 202.379259 142.225526 
L 202.520243 142.225526 
L 202.520243 141.708904 
L 206.243703 141.708904 
L 206.243703 140.67566 
L 207.747433 140.67566 
L 207.747433 139.642416 
L 207.98068 139.642416 
L 207.98068 139.125794 
L 208.89616 139.125794 
L 208.89616 138.609172 
L 209.052727 138.609172 
L 209.052727 137.575928 
L 211.142993 137.575928 
L 211.142993 137.059306 
L 211.853258 137.059306 
L 211.853258 136.542684 
L 212.600386 136.542684 
L 212.600386 136.026062 
L 217.632555 136.026062 
L 217.632555 135.50944 
L 218.617532 135.50944 
L 218.617532 134.992818 
L 218.958791 134.992818 
L 218.958791 134.476196 
L 221.228242 134.476196 
L 221.228242 133.959574 
L 222.918166 133.959574 
L 222.930717 132.92633 
L 223.09841 132.92633 
L 223.09841 132.409708 
L 223.545553 132.409708 
L 223.545553 131.893086 
L 226.249892 131.893086 
L 226.249892 130.859842 
L 226.556851 130.859842 
L 226.556851 130.34322 
L 229.913813 130.34322 
L 229.913813 129.826598 
L 230.189351 129.826598 
L 230.189351 129.309976 
L 231.821126 129.309976 
L 231.821126 128.793354 
L 232.916934 128.793354 
L 232.916934 128.276732 
L 234.912632 128.276732 
L 234.912632 127.76011 
L 235.481869 127.76011 
L 235.492521 126.726866 
L 236.410055 126.726866 
L 236.410055 126.210244 
L 237.963239 126.210244 
L 237.963239 125.693622 
L 238.846726 125.693622 
L 238.846726 125.177 
L 240.058009 125.177 
L 240.058009 124.660378 
L 240.477112 124.660378 
L 240.477112 124.143756 
L 242.069007 124.143756 
L 242.174326 123.110512 
L 244.798016 123.110512 
L 244.798016 122.59389 
L 246.187471 122.59389 
L 246.187471 122.077268 
L 247.197671 122.077268 
L 247.290531 121.044024 
L 248.205716 121.044024 
L 248.205716 120.527402 
L 248.387745 120.527402 
L 248.387745 120.01078 
L 249.366438 120.01078 
L 249.366438 119.494158 
L 250.102201 119.494158 
L 250.183499 118.460914 
L 250.346541 118.460914 
L 250.346541 117.944292 
L 251.282637 117.944292 
L 251.282637 117.42767 
L 358.8 117.42767 
L 358.8 117.42767 
" style="fill:none;stroke:#ff0000;stroke-linecap:square;stroke-width:1.5;"/>
   </g>
   <g id="line2d_45">
    <defs>
     <path d="M 0 -6 
L -5.196152 -3 
L -5.196152 3 
L -0 6 
L 5.196152 3 
L 5.196152 -3 
z
" id="mb00f6f5516" style="stroke:#ff0000;stroke-linejoin:miter;stroke-width:1.5;"/>
    </defs>
    <g>
     <use style="fill:none;stroke:#ff0000;stroke-linejoin:miter;stroke-width:1.5;" x="99.557623" xlink:href="#mb00f6f5516" y="266.731432"/>
     <use style="fill:none;stroke:#ff0000;stroke-linejoin:miter;stroke-width:1.5;" x="151.103576" xlink:href="#mb00f6f5516" y="185.621776"/>
     <use style="fill:none;stroke:#ff0000;stroke-linejoin:miter;stroke-width:1.5;" x="207.747433" xlink:href="#mb00f6f5516" y="140.67566"/>
     <use style="fill:none;stroke:#ff0000;stroke-linejoin:miter;stroke-width:1.5;" x="251.282637" xlink:href="#mb00f6f5516" y="117.944292"/>
     <use style="fill:none;stroke:#ff0000;stroke-linejoin:miter;stroke-width:1.5;" x="251.282637" xlink:href="#mb00f6f5516" y="117.42767"/>
     <use style="fill:none;stroke:#ff0000;stroke-linejoin:miter;stroke-width:1.5;" x="358.8" xlink:href="#mb00f6f5516" y="117.42767"/>
    </g>
   </g>
   <g id="line2d_46"/>
   <g id="line2d_47">
    <path clip-path="url(#p06d4a51c8a)" d="M 209.87527 137.575928 
" style="fill:none;stroke:#ff0000;stroke-linecap:square;stroke-width:1.5;"/>
    <defs>
     <path d="M -12 12 
L 12 -12 
M -12 -12 
L 12 12 
" id="m500aab150f" style="stroke:#ff0000;stroke-width:3;"/>
    </defs>
    <g clip-path="url(#p06d4a51c8a)">
     <use style="fill:#ff0000;stroke:#ff0000;stroke-width:3;" x="209.87527" xlink:href="#m500aab150f" y="137.575928"/>
    </g>
   </g>
   <g id="line2d_48">
    <path d="M 358.8 200.087192 
L 390.48 292.97583 
" style="fill:none;stroke:#ff00ff;stroke-linecap:square;stroke-width:1.5;"/>
    <g>
     <use style="fill:none;stroke:#ff00ff;stroke-linejoin:miter;stroke-width:1.5;" x="358.8" xlink:href="#m7896a98624" y="200.087192"/>
     <use style="fill:none;stroke:#ff00ff;stroke-linejoin:miter;stroke-width:1.5;" x="390.48" xlink:href="#m7896a98624" y="292.97583"/>
    </g>
   </g>
   <g id="line2d_49">
    <path d="M 358.8 200.087192 
L 390.48 229.741296 
" style="fill:none;stroke:#ffa500;stroke-linecap:square;stroke-width:1.5;"/>
    <g>
     <use style="fill:none;stroke:#ffa500;stroke-linejoin:bevel;stroke-width:1.5;" x="358.8" xlink:href="#meacfbc718e" y="200.087192"/>
     <use style="fill:none;stroke:#ffa500;stroke-linejoin:bevel;stroke-width:1.5;" x="390.48" xlink:href="#meacfbc718e" y="229.741296"/>
    </g>
   </g>
   <g id="line2d_50">
    <path d="M 358.8 117.42767 
L 390.48 166.506761 
" style="fill:none;stroke:#ff0000;stroke-linecap:square;stroke-width:1.5;"/>
    <g>
     <use style="fill:none;stroke:#ff0000;stroke-linejoin:miter;stroke-width:1.5;" x="358.8" xlink:href="#mb00f6f5516" y="117.42767"/>
     <use style="fill:none;stroke:#ff0000;stroke-linejoin:miter;stroke-width:1.5;" x="390.48" xlink:href="#mb00f6f5516" y="166.506761"/>
    </g>
   </g>
   <g id="line2d_51">
    <path d="M 358.8 34.768147 
L 390.48 103.272226 
" style="fill:none;stroke:#6495ed;stroke-linecap:square;stroke-width:1.5;"/>
    <g>
     <use style="fill:none;stroke:#6495ed;stroke-linejoin:miter;stroke-width:1.5;" x="358.8" xlink:href="#m38f1576c4d" y="34.768147"/>
     <use style="fill:none;stroke:#6495ed;stroke-linejoin:miter;stroke-width:1.5;" x="390.48" xlink:href="#m38f1576c4d" y="103.272226"/>
    </g>
   </g>
   <g id="line2d_52">
    <path d="M 358.8 34.768147 
L 390.48 40.037692 
" style="fill:none;stroke:#000080;stroke-linecap:square;stroke-width:1.5;"/>
    <g>
     <use style="fill:none;stroke:#000080;stroke-width:1.5;" x="358.8" xlink:href="#m2e2ce68a54" y="34.768147"/>
     <use style="fill:none;stroke:#000080;stroke-width:1.5;" x="390.48" xlink:href="#m2e2ce68a54" y="40.037692"/>
    </g>
   </g>
   <g id="line2d_53">
    <path d="M 358.8 298.245375 
L 358.8 34.768147 
" style="fill:none;stroke:#000000;stroke-linecap:square;stroke-width:1.5;"/>
   </g>
   <g id="patch_3">
    <path d="M 70.8 298.245375 
L 70.8 32.133375 
" style="fill:none;stroke:#000000;stroke-linecap:square;stroke-linejoin:miter;stroke-width:0.8;"/>
   </g>
   <g id="patch_4">
    <path d="M 427.92 298.245375 
L 427.92 32.133375 
" style="fill:none;stroke:#000000;stroke-linecap:square;stroke-linejoin:miter;stroke-width:0.8;"/>
   </g>
   <g id="patch_5">
    <path d="M 70.8 298.245375 
L 427.92 298.245375 
" style="fill:none;stroke:#000000;stroke-linecap:square;stroke-linejoin:miter;stroke-width:0.8;"/>
   </g>
   <g id="patch_6">
    <path d="M 70.8 32.133375 
L 427.92 32.133375 
" style="fill:none;stroke:#000000;stroke-linecap:square;stroke-linejoin:miter;stroke-width:0.8;"/>
   </g>
   <g id="text_14">
    <!-- f13 -->
    <defs>
     <path d="M 40.578125 39.3125 
Q 47.65625 37.796875 51.625 33 
Q 55.609375 28.21875 55.609375 21.1875 
Q 55.609375 10.40625 48.1875 4.484375 
Q 40.765625 -1.421875 27.09375 -1.421875 
Q 22.515625 -1.421875 17.65625 -0.515625 
Q 12.796875 0.390625 7.625 2.203125 
L 7.625 11.71875 
Q 11.71875 9.328125 16.59375 8.109375 
Q 21.484375 6.890625 26.8125 6.890625 
Q 36.078125 6.890625 40.9375 10.546875 
Q 45.796875 14.203125 45.796875 21.1875 
Q 45.796875 27.640625 41.28125 31.265625 
Q 36.765625 34.90625 28.71875 34.90625 
L 20.21875 34.90625 
L 20.21875 43.015625 
L 29.109375 43.015625 
Q 36.375 43.015625 40.234375 45.921875 
Q 44.09375 48.828125 44.09375 54.296875 
Q 44.09375 59.90625 40.109375 62.90625 
Q 36.140625 65.921875 28.71875 65.921875 
Q 24.65625 65.921875 20.015625 65.03125 
Q 15.375 64.15625 9.8125 62.3125 
L 9.8125 71.09375 
Q 15.4375 72.65625 20.34375 73.4375 
Q 25.25 74.21875 29.59375 74.21875 
Q 40.828125 74.21875 47.359375 69.109375 
Q 53.90625 64.015625 53.90625 55.328125 
Q 53.90625 49.265625 50.4375 45.09375 
Q 46.96875 40.921875 40.578125 39.3125 
z
" id="DejaVuSans-33"/>
    </defs>
    <g transform="translate(396.24 297.114893)scale(0.15 -0.15)">
     <use xlink:href="#DejaVuSans-66"/>
     <use x="35.205078" xlink:href="#DejaVuSans-31"/>
     <use x="98.828125" xlink:href="#DejaVuSans-33"/>
    </g>
   </g>
   <g id="text_15">
    <!-- f10 -->
    <g transform="translate(396.24 233.880358)scale(0.15 -0.15)">
     <use xlink:href="#DejaVuSans-66"/>
     <use x="35.205078" xlink:href="#DejaVuSans-31"/>
     <use x="98.828125" xlink:href="#DejaVuSans-30"/>
    </g>
   </g>
   <g id="text_16">
    <!-- f14 -->
    <g transform="translate(396.24 170.645824)scale(0.15 -0.15)">
     <use xlink:href="#DejaVuSans-66"/>
     <use x="35.205078" xlink:href="#DejaVuSans-31"/>
     <use x="98.828125" xlink:href="#DejaVuSans-34"/>
    </g>
   </g>
   <g id="text_17">
    <!-- f11 -->
    <g transform="translate(396.24 107.411289)scale(0.15 -0.15)">
     <use xlink:href="#DejaVuSans-66"/>
     <use x="35.205078" xlink:href="#DejaVuSans-31"/>
     <use x="98.828125" xlink:href="#DejaVuSans-31"/>
    </g>
   </g>
   <g id="text_18">
    <!-- f12 -->
    <g transform="translate(396.24 44.176754)scale(0.15 -0.15)">
     <use xlink:href="#DejaVuSans-66"/>
     <use x="35.205078" xlink:href="#DejaVuSans-31"/>
     <use x="98.828125" xlink:href="#DejaVuSans-32"/>
    </g>
   </g>
   <g id="text_19">
    <!-- bbob -->
    <defs>
     <path d="M 48.6875 27.296875 
Q 48.6875 37.203125 44.609375 42.84375 
Q 40.53125 48.484375 33.40625 48.484375 
Q 26.265625 48.484375 22.1875 42.84375 
Q 18.109375 37.203125 18.109375 27.296875 
Q 18.109375 17.390625 22.1875 11.75 
Q 26.265625 6.109375 33.40625 6.109375 
Q 40.53125 6.109375 44.609375 11.75 
Q 48.6875 17.390625 48.6875 27.296875 
z
M 18.109375 46.390625 
Q 20.953125 51.265625 25.265625 53.625 
Q 29.59375 56 35.59375 56 
Q 45.5625 56 51.78125 48.09375 
Q 58.015625 40.1875 58.015625 27.296875 
Q 58.015625 14.40625 51.78125 6.484375 
Q 45.5625 -1.421875 35.59375 -1.421875 
Q 29.59375 -1.421875 25.265625 0.953125 
Q 20.953125 3.328125 18.109375 8.203125 
L 18.109375 0 
L 9.078125 0 
L 9.078125 75.984375 
L 18.109375 75.984375 
z
" id="DejaVuSans-62"/>
    </defs>
    <g transform="translate(74.3712 50.114612)scale(0.1666 -0.1666)">
     <use xlink:href="#DejaVuSans-62"/>
     <use x="63.476562" xlink:href="#DejaVuSans-62"/>
     <use x="126.953125" xlink:href="#DejaVuSans-6f"/>
     <use x="188.134766" xlink:href="#DejaVuSans-62"/>
    </g>
    <!-- Ill-conditioned functions, 2-D -->
    <defs>
     <path d="M 9.8125 72.90625 
L 19.671875 72.90625 
L 19.671875 0 
L 9.8125 0 
z
" id="DejaVuSans-49"/>
     <path d="M 11.71875 12.40625 
L 22.015625 12.40625 
L 22.015625 4 
L 14.015625 -11.625 
L 7.71875 -11.625 
L 11.71875 4 
z
" id="DejaVuSans-2c"/>
     <path d="M 19.671875 64.796875 
L 19.671875 8.109375 
L 31.59375 8.109375 
Q 46.6875 8.109375 53.6875 14.9375 
Q 60.6875 21.78125 60.6875 36.53125 
Q 60.6875 51.171875 53.6875 57.984375 
Q 46.6875 64.796875 31.59375 64.796875 
z
M 9.8125 72.90625 
L 30.078125 72.90625 
Q 51.265625 72.90625 61.171875 64.09375 
Q 71.09375 55.28125 71.09375 36.53125 
Q 71.09375 17.671875 61.125 8.828125 
Q 51.171875 0 30.078125 0 
L 9.8125 0 
z
" id="DejaVuSans-44"/>
    </defs>
    <g transform="translate(74.3712 68.770168)scale(0.1666 -0.1666)">
     <use xlink:href="#DejaVuSans-49"/>
     <use x="29.492188" xlink:href="#DejaVuSans-6c"/>
     <use x="57.275391" xlink:href="#DejaVuSans-6c"/>
     <use x="85.058594" xlink:href="#DejaVuSans-2d"/>
     <use x="121.142578" xlink:href="#DejaVuSans-63"/>
     <use x="176.123047" xlink:href="#DejaVuSans-6f"/>
     <use x="237.304688" xlink:href="#DejaVuSans-6e"/>
     <use x="300.683594" xlink:href="#DejaVuSans-64"/>
     <use x="364.160156" xlink:href="#DejaVuSans-69"/>
     <use x="391.943359" xlink:href="#DejaVuSans-74"/>
     <use x="431.152344" xlink:href="#DejaVuSans-69"/>
     <use x="458.935547" xlink:href="#DejaVuSans-6f"/>
     <use x="520.117188" xlink:href="#DejaVuSans-6e"/>
     <use x="583.496094" xlink:href="#DejaVuSans-65"/>
     <use x="645.019531" xlink:href="#DejaVuSans-64"/>
     <use x="708.496094" xlink:href="#DejaVuSans-20"/>
     <use x="740.283203" xlink:href="#DejaVuSans-66"/>
     <use x="775.488281" xlink:href="#DejaVuSans-75"/>
     <use x="838.867188" xlink:href="#DejaVuSans-6e"/>
     <use x="902.246094" xlink:href="#DejaVuSans-63"/>
     <use x="957.226562" xlink:href="#DejaVuSans-74"/>
     <use x="996.435547" xlink:href="#DejaVuSans-69"/>
     <use x="1024.21875" xlink:href="#DejaVuSans-6f"/>
     <use x="1085.400391" xlink:href="#DejaVuSans-6e"/>
     <use x="1148.779297" xlink:href="#DejaVuSans-73"/>
     <use x="1200.878906" xlink:href="#DejaVuSans-2c"/>
     <use x="1232.666016" xlink:href="#DejaVuSans-20"/>
     <use x="1264.453125" xlink:href="#DejaVuSans-32"/>
     <use x="1328.076172" xlink:href="#DejaVuSans-2d"/>
     <use x="1364.160156" xlink:href="#DejaVuSans-44"/>
    </g>
    <!-- 51 targets in 100..1e-08 -->
    <defs>
     <path d="M 10.796875 72.90625 
L 49.515625 72.90625 
L 49.515625 64.59375 
L 19.828125 64.59375 
L 19.828125 46.734375 
Q 21.96875 47.46875 24.109375 47.828125 
Q 26.265625 48.1875 28.421875 48.1875 
Q 40.625 48.1875 47.75 41.5 
Q 54.890625 34.8125 54.890625 23.390625 
Q 54.890625 11.625 47.5625 5.09375 
Q 40.234375 -1.421875 26.90625 -1.421875 
Q 22.3125 -1.421875 17.546875 -0.640625 
Q 12.796875 0.140625 7.71875 1.703125 
L 7.71875 11.625 
Q 12.109375 9.234375 16.796875 8.0625 
Q 21.484375 6.890625 26.703125 6.890625 
Q 35.15625 6.890625 40.078125 11.328125 
Q 45.015625 15.765625 45.015625 23.390625 
Q 45.015625 31 40.078125 35.4375 
Q 35.15625 39.890625 26.703125 39.890625 
Q 22.75 39.890625 18.8125 39.015625 
Q 14.890625 38.140625 10.796875 36.28125 
z
" id="DejaVuSans-35"/>
    </defs>
    <g transform="translate(74.3712 87.425723)scale(0.1666 -0.1666)">
     <use xlink:href="#DejaVuSans-35"/>
     <use x="63.623047" xlink:href="#DejaVuSans-31"/>
     <use x="127.246094" xlink:href="#DejaVuSans-20"/>
     <use x="159.033203" xlink:href="#DejaVuSans-74"/>
     <use x="198.242188" xlink:href="#DejaVuSans-61"/>
     <use x="259.521484" xlink:href="#DejaVuSans-72"/>
     <use x="300.619141" xlink:href="#DejaVuSans-67"/>
     <use x="364.095703" xlink:href="#DejaVuSans-65"/>
     <use x="425.619141" xlink:href="#DejaVuSans-74"/>
     <use x="464.828125" xlink:href="#DejaVuSans-73"/>
     <use x="516.927734" xlink:href="#DejaVuSans-20"/>
     <use x="548.714844" xlink:href="#DejaVuSans-69"/>
     <use x="576.498047" xlink:href="#DejaVuSans-6e"/>
     <use x="639.876953" xlink:href="#DejaVuSans-20"/>
     <use x="671.664062" xlink:href="#DejaVuSans-31"/>
     <use x="735.287109" xlink:href="#DejaVuSans-30"/>
     <use x="798.910156" xlink:href="#DejaVuSans-30"/>
     <use x="862.533203" xlink:href="#DejaVuSans-2e"/>
     <use x="894.320312" xlink:href="#DejaVuSans-2e"/>
     <use x="926.107422" xlink:href="#DejaVuSans-31"/>
     <use x="989.730469" xlink:href="#DejaVuSans-65"/>
     <use x="1051.253906" xlink:href="#DejaVuSans-2d"/>
     <use x="1087.337891" xlink:href="#DejaVuSans-30"/>
     <use x="1150.960938" xlink:href="#DejaVuSans-38"/>
    </g>
    <!-- 15 instances -->
    <g transform="translate(74.3712 106.081279)scale(0.1666 -0.1666)">
     <use xlink:href="#DejaVuSans-31"/>
     <use x="63.623047" xlink:href="#DejaVuSans-35"/>
     <use x="127.246094" xlink:href="#DejaVuSans-20"/>
     <use x="159.033203" xlink:href="#DejaVuSans-69"/>
     <use x="186.816406" xlink:href="#DejaVuSans-6e"/>
     <use x="250.195312" xlink:href="#DejaVuSans-73"/>
     <use x="302.294922" xlink:href="#DejaVuSans-74"/>
     <use x="341.503906" xlink:href="#DejaVuSans-61"/>
     <use x="402.783203" xlink:href="#DejaVuSans-6e"/>
     <use x="466.162109" xlink:href="#DejaVuSans-63"/>
     <use x="521.142578" xlink:href="#DejaVuSans-65"/>
     <use x="582.666016" xlink:href="#DejaVuSans-73"/>
    </g>
   </g>
   <g id="text_20">
    <!-- v2.1 -->
    <g style="fill:#808080;" transform="translate(238.449063 293.504568)scale(0.1 -0.1)">
     <use xlink:href="#DejaVuSans-76"/>
     <use x="59.179688" xlink:href="#DejaVuSans-32"/>
     <use x="122.802734" xlink:href="#DejaVuSans-2e"/>
     <use x="154.589844" xlink:href="#DejaVuSans-31"/>
    </g>
   </g>
  </g>
 </g>
 <defs>
  <clipPath id="p06d4a51c8a">
   <rect height="266.112" width="357.12" x="70.8" y="32.133375"/>
  </clipPath>
 </defs>
</svg>
