<?xml version="1.0" encoding="utf-8" standalone="no"?>
<!DOCTYPE svg PUBLIC "-//W3C//DTD SVG 1.1//EN"
  "http://www.w3.org/Graphics/SVG/1.1/DTD/svg11.dtd">
<!-- Created with matplotlib (http://matplotlib.org/) -->
<svg height="353pt" version="1.1" viewBox="0 0 438 353" width="438pt" xmlns="http://www.w3.org/2000/svg" xmlns:xlink="http://www.w3.org/1999/xlink">
 <defs>
  <style type="text/css">
*{stroke-linecap:butt;stroke-linejoin:round;}
  </style>
 </defs>
 <g id="figure_1">
  <g id="patch_1">
   <path d="M 0 353.22225 
L 438.62 353.22225 
L 438.62 0 
L 0 0 
z
" style="fill:#ffffff;"/>
  </g>
  <g id="axes_1">
   <g id="patch_2">
    <path d="M 70.8 298.245375 
L 427.92 298.245375 
L 427.92 32.133375 
L 70.8 32.133375 
z
" style="fill:#ffffff;"/>
   </g>
   <g id="matplotlib.axis_1">
    <g id="xtick_1">
     <g id="line2d_1">
      <path clip-path="url(#p004f2d4366)" d="M 70.8 298.245375 
L 70.8 32.133375 
" style="fill:none;stroke:#b0b0b0;stroke-linecap:square;stroke-width:0.8;"/>
     </g>
     <g id="line2d_2">
      <defs>
       <path d="M 0 0 
L 0 3.5 
" id="m569bf88cb1" style="stroke:#000000;stroke-width:0.8;"/>
      </defs>
      <g>
       <use style="stroke:#000000;stroke-width:0.8;" x="70.8" xlink:href="#m569bf88cb1" y="298.245375"/>
      </g>
     </g>
     <g id="text_1">
      <!-- 0 -->
      <defs>
       <path d="M 31.78125 66.40625 
Q 24.171875 66.40625 20.328125 58.90625 
Q 16.5 51.421875 16.5 36.375 
Q 16.5 21.390625 20.328125 13.890625 
Q 24.171875 6.390625 31.78125 6.390625 
Q 39.453125 6.390625 43.28125 13.890625 
Q 47.125 21.390625 47.125 36.375 
Q 47.125 51.421875 43.28125 58.90625 
Q 39.453125 66.40625 31.78125 66.40625 
z
M 31.78125 74.21875 
Q 44.046875 74.21875 50.515625 64.515625 
Q 56.984375 54.828125 56.984375 36.375 
Q 56.984375 17.96875 50.515625 8.265625 
Q 44.046875 -1.421875 31.78125 -1.421875 
Q 19.53125 -1.421875 13.0625 8.265625 
Q 6.59375 17.96875 6.59375 36.375 
Q 6.59375 54.828125 13.0625 64.515625 
Q 19.53125 74.21875 31.78125 74.21875 
z
" id="DejaVuSans-30"/>
      </defs>
      <g transform="translate(64.4375 320.44225)scale(0.2 -0.2)">
       <use xlink:href="#DejaVuSans-30"/>
      </g>
     </g>
    </g>
    <g id="xtick_2">
     <g id="line2d_3">
      <path clip-path="url(#p004f2d4366)" d="M 153.085714 298.245375 
L 153.085714 32.133375 
" style="fill:none;stroke:#b0b0b0;stroke-linecap:square;stroke-width:0.8;"/>
     </g>
     <g id="line2d_4">
      <g>
       <use style="stroke:#000000;stroke-width:0.8;" x="153.085714" xlink:href="#m569bf88cb1" y="298.245375"/>
      </g>
     </g>
     <g id="text_2">
      <!-- 2 -->
      <defs>
       <path d="M 19.1875 8.296875 
L 53.609375 8.296875 
L 53.609375 0 
L 7.328125 0 
L 7.328125 8.296875 
Q 12.9375 14.109375 22.625 23.890625 
Q 32.328125 33.6875 34.8125 36.53125 
Q 39.546875 41.84375 41.421875 45.53125 
Q 43.3125 49.21875 43.3125 52.78125 
Q 43.3125 58.59375 39.234375 62.25 
Q 35.15625 65.921875 28.609375 65.921875 
Q 23.96875 65.921875 18.8125 64.3125 
Q 13.671875 62.703125 7.8125 59.421875 
L 7.8125 69.390625 
Q 13.765625 71.78125 18.9375 73 
Q 24.125 74.21875 28.421875 74.21875 
Q 39.75 74.21875 46.484375 68.546875 
Q 53.21875 62.890625 53.21875 53.421875 
Q 53.21875 48.921875 51.53125 44.890625 
Q 49.859375 40.875 45.40625 35.40625 
Q 44.1875 33.984375 37.640625 27.21875 
Q 31.109375 20.453125 19.1875 8.296875 
z
" id="DejaVuSans-32"/>
      </defs>
      <g transform="translate(146.723214 320.44225)scale(0.2 -0.2)">
       <use xlink:href="#DejaVuSans-32"/>
      </g>
     </g>
    </g>
    <g id="xtick_3">
     <g id="line2d_5">
      <path clip-path="url(#p004f2d4366)" d="M 235.371429 298.245375 
L 235.371429 32.133375 
" style="fill:none;stroke:#b0b0b0;stroke-linecap:square;stroke-width:0.8;"/>
     </g>
     <g id="line2d_6">
      <g>
       <use style="stroke:#000000;stroke-width:0.8;" x="235.371429" xlink:href="#m569bf88cb1" y="298.245375"/>
      </g>
     </g>
     <g id="text_3">
      <!-- 4 -->
      <defs>
       <path d="M 37.796875 64.3125 
L 12.890625 25.390625 
L 37.796875 25.390625 
z
M 35.203125 72.90625 
L 47.609375 72.90625 
L 47.609375 25.390625 
L 58.015625 25.390625 
L 58.015625 17.1875 
L 47.609375 17.1875 
L 47.609375 0 
L 37.796875 0 
L 37.796875 17.1875 
L 4.890625 17.1875 
L 4.890625 26.703125 
z
" id="DejaVuSans-34"/>
      </defs>
      <g transform="translate(229.008929 320.44225)scale(0.2 -0.2)">
       <use xlink:href="#DejaVuSans-34"/>
      </g>
     </g>
    </g>
    <g id="xtick_4">
     <g id="line2d_7">
      <path clip-path="url(#p004f2d4366)" d="M 317.657143 298.245375 
L 317.657143 32.133375 
" style="fill:none;stroke:#b0b0b0;stroke-linecap:square;stroke-width:0.8;"/>
     </g>
     <g id="line2d_8">
      <g>
       <use style="stroke:#000000;stroke-width:0.8;" x="317.657143" xlink:href="#m569bf88cb1" y="298.245375"/>
      </g>
     </g>
     <g id="text_4">
      <!-- 6 -->
      <defs>
       <path d="M 33.015625 40.375 
Q 26.375 40.375 22.484375 35.828125 
Q 18.609375 31.296875 18.609375 23.390625 
Q 18.609375 15.53125 22.484375 10.953125 
Q 26.375 6.390625 33.015625 6.390625 
Q 39.65625 6.390625 43.53125 10.953125 
Q 47.40625 15.53125 47.40625 23.390625 
Q 47.40625 31.296875 43.53125 35.828125 
Q 39.65625 40.375 33.015625 40.375 
z
M 52.59375 71.296875 
L 52.59375 62.3125 
Q 48.875 64.0625 45.09375 64.984375 
Q 41.3125 65.921875 37.59375 65.921875 
Q 27.828125 65.921875 22.671875 59.328125 
Q 17.53125 52.734375 16.796875 39.40625 
Q 19.671875 43.65625 24.015625 45.921875 
Q 28.375 48.1875 33.59375 48.1875 
Q 44.578125 48.1875 50.953125 41.515625 
Q 57.328125 34.859375 57.328125 23.390625 
Q 57.328125 12.15625 50.6875 5.359375 
Q 44.046875 -1.421875 33.015625 -1.421875 
Q 20.359375 -1.421875 13.671875 8.265625 
Q 6.984375 17.96875 6.984375 36.375 
Q 6.984375 53.65625 15.1875 63.9375 
Q 23.390625 74.21875 37.203125 74.21875 
Q 40.921875 74.21875 44.703125 73.484375 
Q 48.484375 72.75 52.59375 71.296875 
z
" id="DejaVuSans-36"/>
      </defs>
      <g transform="translate(311.294643 320.44225)scale(0.2 -0.2)">
       <use xlink:href="#DejaVuSans-36"/>
      </g>
     </g>
    </g>
    <g id="xtick_5">
     <g id="line2d_9">
      <path clip-path="url(#p004f2d4366)" d="M 399.942857 298.245375 
L 399.942857 32.133375 
" style="fill:none;stroke:#b0b0b0;stroke-linecap:square;stroke-width:0.8;"/>
     </g>
     <g id="line2d_10">
      <g>
       <use style="stroke:#000000;stroke-width:0.8;" x="399.942857" xlink:href="#m569bf88cb1" y="298.245375"/>
      </g>
     </g>
     <g id="text_5">
      <!-- 8 -->
      <defs>
       <path d="M 31.78125 34.625 
Q 24.75 34.625 20.71875 30.859375 
Q 16.703125 27.09375 16.703125 20.515625 
Q 16.703125 13.921875 20.71875 10.15625 
Q 24.75 6.390625 31.78125 6.390625 
Q 38.8125 6.390625 42.859375 10.171875 
Q 46.921875 13.96875 46.921875 20.515625 
Q 46.921875 27.09375 42.890625 30.859375 
Q 38.875 34.625 31.78125 34.625 
z
M 21.921875 38.8125 
Q 15.578125 40.375 12.03125 44.71875 
Q 8.5 49.078125 8.5 55.328125 
Q 8.5 64.0625 14.71875 69.140625 
Q 20.953125 74.21875 31.78125 74.21875 
Q 42.671875 74.21875 48.875 69.140625 
Q 55.078125 64.0625 55.078125 55.328125 
Q 55.078125 49.078125 51.53125 44.71875 
Q 48 40.375 41.703125 38.8125 
Q 48.828125 37.15625 52.796875 32.3125 
Q 56.78125 27.484375 56.78125 20.515625 
Q 56.78125 9.90625 50.3125 4.234375 
Q 43.84375 -1.421875 31.78125 -1.421875 
Q 19.734375 -1.421875 13.25 4.234375 
Q 6.78125 9.90625 6.78125 20.515625 
Q 6.78125 27.484375 10.78125 32.3125 
Q 14.796875 37.15625 21.921875 38.8125 
z
M 18.3125 54.390625 
Q 18.3125 48.734375 21.84375 45.5625 
Q 25.390625 42.390625 31.78125 42.390625 
Q 38.140625 42.390625 41.71875 45.5625 
Q 45.3125 48.734375 45.3125 54.390625 
Q 45.3125 60.0625 41.71875 63.234375 
Q 38.140625 66.40625 31.78125 66.40625 
Q 25.390625 66.40625 21.84375 63.234375 
Q 18.3125 60.0625 18.3125 54.390625 
z
" id="DejaVuSans-38"/>
      </defs>
      <g transform="translate(393.580357 320.44225)scale(0.2 -0.2)">
       <use xlink:href="#DejaVuSans-38"/>
      </g>
     </g>
    </g>
    <g id="text_6">
     <!-- log10 of (# f-evals / dimension) -->
     <defs>
      <path d="M 9.421875 75.984375 
L 18.40625 75.984375 
L 18.40625 0 
L 9.421875 0 
z
" id="DejaVuSans-6c"/>
      <path d="M 30.609375 48.390625 
Q 23.390625 48.390625 19.1875 42.75 
Q 14.984375 37.109375 14.984375 27.296875 
Q 14.984375 17.484375 19.15625 11.84375 
Q 23.34375 6.203125 30.609375 6.203125 
Q 37.796875 6.203125 41.984375 11.859375 
Q 46.1875 17.53125 46.1875 27.296875 
Q 46.1875 37.015625 41.984375 42.703125 
Q 37.796875 48.390625 30.609375 48.390625 
z
M 30.609375 56 
Q 42.328125 56 49.015625 48.375 
Q 55.71875 40.765625 55.71875 27.296875 
Q 55.71875 13.875 49.015625 6.21875 
Q 42.328125 -1.421875 30.609375 -1.421875 
Q 18.84375 -1.421875 12.171875 6.21875 
Q 5.515625 13.875 5.515625 27.296875 
Q 5.515625 40.765625 12.171875 48.375 
Q 18.84375 56 30.609375 56 
z
" id="DejaVuSans-6f"/>
      <path d="M 45.40625 27.984375 
Q 45.40625 37.75 41.375 43.109375 
Q 37.359375 48.484375 30.078125 48.484375 
Q 22.859375 48.484375 18.828125 43.109375 
Q 14.796875 37.75 14.796875 27.984375 
Q 14.796875 18.265625 18.828125 12.890625 
Q 22.859375 7.515625 30.078125 7.515625 
Q 37.359375 7.515625 41.375 12.890625 
Q 45.40625 18.265625 45.40625 27.984375 
z
M 54.390625 6.78125 
Q 54.390625 -7.171875 48.1875 -13.984375 
Q 42 -20.796875 29.203125 -20.796875 
Q 24.46875 -20.796875 20.265625 -20.09375 
Q 16.0625 -19.390625 12.109375 -17.921875 
L 12.109375 -9.1875 
Q 16.0625 -11.328125 19.921875 -12.34375 
Q 23.78125 -13.375 27.78125 -13.375 
Q 36.625 -13.375 41.015625 -8.765625 
Q 45.40625 -4.15625 45.40625 5.171875 
L 45.40625 9.625 
Q 42.625 4.78125 38.28125 2.390625 
Q 33.9375 0 27.875 0 
Q 17.828125 0 11.671875 7.65625 
Q 5.515625 15.328125 5.515625 27.984375 
Q 5.515625 40.671875 11.671875 48.328125 
Q 17.828125 56 27.875 56 
Q 33.9375 56 38.28125 53.609375 
Q 42.625 51.21875 45.40625 46.390625 
L 45.40625 54.6875 
L 54.390625 54.6875 
z
" id="DejaVuSans-67"/>
      <path d="M 12.40625 8.296875 
L 28.515625 8.296875 
L 28.515625 63.921875 
L 10.984375 60.40625 
L 10.984375 69.390625 
L 28.421875 72.90625 
L 38.28125 72.90625 
L 38.28125 8.296875 
L 54.390625 8.296875 
L 54.390625 0 
L 12.40625 0 
z
" id="DejaVuSans-31"/>
      <path id="DejaVuSans-20"/>
      <path d="M 37.109375 75.984375 
L 37.109375 68.5 
L 28.515625 68.5 
Q 23.6875 68.5 21.796875 66.546875 
Q 19.921875 64.59375 19.921875 59.515625 
L 19.921875 54.6875 
L 34.71875 54.6875 
L 34.71875 47.703125 
L 19.921875 47.703125 
L 19.921875 0 
L 10.890625 0 
L 10.890625 47.703125 
L 2.296875 47.703125 
L 2.296875 54.6875 
L 10.890625 54.6875 
L 10.890625 58.5 
Q 10.890625 67.625 15.140625 71.796875 
Q 19.390625 75.984375 28.609375 75.984375 
z
" id="DejaVuSans-66"/>
      <path d="M 31 75.875 
Q 24.46875 64.65625 21.28125 53.65625 
Q 18.109375 42.671875 18.109375 31.390625 
Q 18.109375 20.125 21.3125 9.0625 
Q 24.515625 -2 31 -13.1875 
L 23.1875 -13.1875 
Q 15.875 -1.703125 12.234375 9.375 
Q 8.59375 20.453125 8.59375 31.390625 
Q 8.59375 42.28125 12.203125 53.3125 
Q 15.828125 64.359375 23.1875 75.875 
z
" id="DejaVuSans-28"/>
      <path d="M 51.125 44 
L 36.921875 44 
L 32.8125 27.6875 
L 47.125 27.6875 
z
M 43.796875 71.78125 
L 38.71875 51.515625 
L 52.984375 51.515625 
L 58.109375 71.78125 
L 65.921875 71.78125 
L 60.890625 51.515625 
L 76.125 51.515625 
L 76.125 44 
L 58.984375 44 
L 54.984375 27.6875 
L 70.515625 27.6875 
L 70.515625 20.21875 
L 53.078125 20.21875 
L 48 0 
L 40.1875 0 
L 45.21875 20.21875 
L 30.90625 20.21875 
L 25.875 0 
L 18.015625 0 
L 23.09375 20.21875 
L 7.71875 20.21875 
L 7.71875 27.6875 
L 24.90625 27.6875 
L 29 44 
L 13.28125 44 
L 13.28125 51.515625 
L 30.90625 51.515625 
L 35.890625 71.78125 
z
" id="DejaVuSans-23"/>
      <path d="M 4.890625 31.390625 
L 31.203125 31.390625 
L 31.203125 23.390625 
L 4.890625 23.390625 
z
" id="DejaVuSans-2d"/>
      <path d="M 56.203125 29.59375 
L 56.203125 25.203125 
L 14.890625 25.203125 
Q 15.484375 15.921875 20.484375 11.0625 
Q 25.484375 6.203125 34.421875 6.203125 
Q 39.59375 6.203125 44.453125 7.46875 
Q 49.3125 8.734375 54.109375 11.28125 
L 54.109375 2.78125 
Q 49.265625 0.734375 44.1875 -0.34375 
Q 39.109375 -1.421875 33.890625 -1.421875 
Q 20.796875 -1.421875 13.15625 6.1875 
Q 5.515625 13.8125 5.515625 26.8125 
Q 5.515625 40.234375 12.765625 48.109375 
Q 20.015625 56 32.328125 56 
Q 43.359375 56 49.78125 48.890625 
Q 56.203125 41.796875 56.203125 29.59375 
z
M 47.21875 32.234375 
Q 47.125 39.59375 43.09375 43.984375 
Q 39.0625 48.390625 32.421875 48.390625 
Q 24.90625 48.390625 20.390625 44.140625 
Q 15.875 39.890625 15.1875 32.171875 
z
" id="DejaVuSans-65"/>
      <path d="M 2.984375 54.6875 
L 12.5 54.6875 
L 29.59375 8.796875 
L 46.6875 54.6875 
L 56.203125 54.6875 
L 35.6875 0 
L 23.484375 0 
z
" id="DejaVuSans-76"/>
      <path d="M 34.28125 27.484375 
Q 23.390625 27.484375 19.1875 25 
Q 14.984375 22.515625 14.984375 16.5 
Q 14.984375 11.71875 18.140625 8.90625 
Q 21.296875 6.109375 26.703125 6.109375 
Q 34.1875 6.109375 38.703125 11.40625 
Q 43.21875 16.703125 43.21875 25.484375 
L 43.21875 27.484375 
z
M 52.203125 31.203125 
L 52.203125 0 
L 43.21875 0 
L 43.21875 8.296875 
Q 40.140625 3.328125 35.546875 0.953125 
Q 30.953125 -1.421875 24.3125 -1.421875 
Q 15.921875 -1.421875 10.953125 3.296875 
Q 6 8.015625 6 15.921875 
Q 6 25.140625 12.171875 29.828125 
Q 18.359375 34.515625 30.609375 34.515625 
L 43.21875 34.515625 
L 43.21875 35.40625 
Q 43.21875 41.609375 39.140625 45 
Q 35.0625 48.390625 27.6875 48.390625 
Q 23 48.390625 18.546875 47.265625 
Q 14.109375 46.140625 10.015625 43.890625 
L 10.015625 52.203125 
Q 14.9375 54.109375 19.578125 55.046875 
Q 24.21875 56 28.609375 56 
Q 40.484375 56 46.34375 49.84375 
Q 52.203125 43.703125 52.203125 31.203125 
z
" id="DejaVuSans-61"/>
      <path d="M 44.28125 53.078125 
L 44.28125 44.578125 
Q 40.484375 46.53125 36.375 47.5 
Q 32.28125 48.484375 27.875 48.484375 
Q 21.1875 48.484375 17.84375 46.4375 
Q 14.5 44.390625 14.5 40.28125 
Q 14.5 37.15625 16.890625 35.375 
Q 19.28125 33.59375 26.515625 31.984375 
L 29.59375 31.296875 
Q 39.15625 29.25 43.1875 25.515625 
Q 47.21875 21.78125 47.21875 15.09375 
Q 47.21875 7.46875 41.1875 3.015625 
Q 35.15625 -1.421875 24.609375 -1.421875 
Q 20.21875 -1.421875 15.453125 -0.5625 
Q 10.6875 0.296875 5.421875 2 
L 5.421875 11.28125 
Q 10.40625 8.6875 15.234375 7.390625 
Q 20.0625 6.109375 24.8125 6.109375 
Q 31.15625 6.109375 34.5625 8.28125 
Q 37.984375 10.453125 37.984375 14.40625 
Q 37.984375 18.0625 35.515625 20.015625 
Q 33.0625 21.96875 24.703125 23.78125 
L 21.578125 24.515625 
Q 13.234375 26.265625 9.515625 29.90625 
Q 5.8125 33.546875 5.8125 39.890625 
Q 5.8125 47.609375 11.28125 51.796875 
Q 16.75 56 26.8125 56 
Q 31.78125 56 36.171875 55.265625 
Q 40.578125 54.546875 44.28125 53.078125 
z
" id="DejaVuSans-73"/>
      <path d="M 25.390625 72.90625 
L 33.6875 72.90625 
L 8.296875 -9.28125 
L 0 -9.28125 
z
" id="DejaVuSans-2f"/>
      <path d="M 45.40625 46.390625 
L 45.40625 75.984375 
L 54.390625 75.984375 
L 54.390625 0 
L 45.40625 0 
L 45.40625 8.203125 
Q 42.578125 3.328125 38.25 0.953125 
Q 33.9375 -1.421875 27.875 -1.421875 
Q 17.96875 -1.421875 11.734375 6.484375 
Q 5.515625 14.40625 5.515625 27.296875 
Q 5.515625 40.1875 11.734375 48.09375 
Q 17.96875 56 27.875 56 
Q 33.9375 56 38.25 53.625 
Q 42.578125 51.265625 45.40625 46.390625 
z
M 14.796875 27.296875 
Q 14.796875 17.390625 18.875 11.75 
Q 22.953125 6.109375 30.078125 6.109375 
Q 37.203125 6.109375 41.296875 11.75 
Q 45.40625 17.390625 45.40625 27.296875 
Q 45.40625 37.203125 41.296875 42.84375 
Q 37.203125 48.484375 30.078125 48.484375 
Q 22.953125 48.484375 18.875 42.84375 
Q 14.796875 37.203125 14.796875 27.296875 
z
" id="DejaVuSans-64"/>
      <path d="M 9.421875 54.6875 
L 18.40625 54.6875 
L 18.40625 0 
L 9.421875 0 
z
M 9.421875 75.984375 
L 18.40625 75.984375 
L 18.40625 64.59375 
L 9.421875 64.59375 
z
" id="DejaVuSans-69"/>
      <path d="M 52 44.1875 
Q 55.375 50.25 60.0625 53.125 
Q 64.75 56 71.09375 56 
Q 79.640625 56 84.28125 50.015625 
Q 88.921875 44.046875 88.921875 33.015625 
L 88.921875 0 
L 79.890625 0 
L 79.890625 32.71875 
Q 79.890625 40.578125 77.09375 44.375 
Q 74.3125 48.1875 68.609375 48.1875 
Q 61.625 48.1875 57.5625 43.546875 
Q 53.515625 38.921875 53.515625 30.90625 
L 53.515625 0 
L 44.484375 0 
L 44.484375 32.71875 
Q 44.484375 40.625 41.703125 44.40625 
Q 38.921875 48.1875 33.109375 48.1875 
Q 26.21875 48.1875 22.15625 43.53125 
Q 18.109375 38.875 18.109375 30.90625 
L 18.109375 0 
L 9.078125 0 
L 9.078125 54.6875 
L 18.109375 54.6875 
L 18.109375 46.1875 
Q 21.1875 51.21875 25.484375 53.609375 
Q 29.78125 56 35.6875 56 
Q 41.65625 56 45.828125 52.96875 
Q 50 49.953125 52 44.1875 
z
" id="DejaVuSans-6d"/>
      <path d="M 54.890625 33.015625 
L 54.890625 0 
L 45.90625 0 
L 45.90625 32.71875 
Q 45.90625 40.484375 42.875 44.328125 
Q 39.84375 48.1875 33.796875 48.1875 
Q 26.515625 48.1875 22.3125 43.546875 
Q 18.109375 38.921875 18.109375 30.90625 
L 18.109375 0 
L 9.078125 0 
L 9.078125 54.6875 
L 18.109375 54.6875 
L 18.109375 46.1875 
Q 21.34375 51.125 25.703125 53.5625 
Q 30.078125 56 35.796875 56 
Q 45.21875 56 50.046875 50.171875 
Q 54.890625 44.34375 54.890625 33.015625 
z
" id="DejaVuSans-6e"/>
      <path d="M 8.015625 75.875 
L 15.828125 75.875 
Q 23.140625 64.359375 26.78125 53.3125 
Q 30.421875 42.28125 30.421875 31.390625 
Q 30.421875 20.453125 26.78125 9.375 
Q 23.140625 -1.703125 15.828125 -13.1875 
L 8.015625 -13.1875 
Q 14.5 -2 17.703125 9.0625 
Q 20.90625 20.125 20.90625 31.390625 
Q 20.90625 42.671875 17.703125 53.65625 
Q 14.5 64.65625 8.015625 75.875 
z
" id="DejaVuSans-29"/>
     </defs>
     <g transform="translate(107.015156 342.278812)scale(0.18 -0.18)">
      <use xlink:href="#DejaVuSans-6c"/>
      <use x="27.783203" xlink:href="#DejaVuSans-6f"/>
      <use x="88.964844" xlink:href="#DejaVuSans-67"/>
      <use x="152.441406" xlink:href="#DejaVuSans-31"/>
      <use x="216.064453" xlink:href="#DejaVuSans-30"/>
      <use x="279.6875" xlink:href="#DejaVuSans-20"/>
      <use x="311.474609" xlink:href="#DejaVuSans-6f"/>
      <use x="372.65625" xlink:href="#DejaVuSans-66"/>
      <use x="407.861328" xlink:href="#DejaVuSans-20"/>
      <use x="439.648438" xlink:href="#DejaVuSans-28"/>
      <use x="478.662109" xlink:href="#DejaVuSans-23"/>
      <use x="562.451172" xlink:href="#DejaVuSans-20"/>
      <use x="594.238281" xlink:href="#DejaVuSans-66"/>
      <use x="629.365234" xlink:href="#DejaVuSans-2d"/>
      <use x="665.449219" xlink:href="#DejaVuSans-65"/>
      <use x="726.972656" xlink:href="#DejaVuSans-76"/>
      <use x="786.152344" xlink:href="#DejaVuSans-61"/>
      <use x="847.431641" xlink:href="#DejaVuSans-6c"/>
      <use x="875.214844" xlink:href="#DejaVuSans-73"/>
      <use x="927.314453" xlink:href="#DejaVuSans-20"/>
      <use x="959.101562" xlink:href="#DejaVuSans-2f"/>
      <use x="992.792969" xlink:href="#DejaVuSans-20"/>
      <use x="1024.580078" xlink:href="#DejaVuSans-64"/>
      <use x="1088.056641" xlink:href="#DejaVuSans-69"/>
      <use x="1115.839844" xlink:href="#DejaVuSans-6d"/>
      <use x="1213.251953" xlink:href="#DejaVuSans-65"/>
      <use x="1274.775391" xlink:href="#DejaVuSans-6e"/>
      <use x="1338.154297" xlink:href="#DejaVuSans-73"/>
      <use x="1390.253906" xlink:href="#DejaVuSans-69"/>
      <use x="1418.037109" xlink:href="#DejaVuSans-6f"/>
      <use x="1479.21875" xlink:href="#DejaVuSans-6e"/>
      <use x="1542.597656" xlink:href="#DejaVuSans-29"/>
     </g>
    </g>
   </g>
   <g id="matplotlib.axis_2">
    <g id="ytick_1">
     <g id="line2d_11">
      <path clip-path="url(#p004f2d4366)" d="M 70.8 298.245375 
L 427.92 298.245375 
" style="fill:none;stroke:#b0b0b0;stroke-linecap:square;stroke-width:0.8;"/>
     </g>
     <g id="line2d_12">
      <defs>
       <path d="M 0 0 
L -3.5 0 
" id="mcdae0efdf3" style="stroke:#000000;stroke-width:0.8;"/>
      </defs>
      <g>
       <use style="stroke:#000000;stroke-width:0.8;" x="70.8" xlink:href="#mcdae0efdf3" y="298.245375"/>
      </g>
     </g>
     <g id="text_7">
      <!-- 0.0 -->
      <defs>
       <path d="M 10.6875 12.40625 
L 21 12.40625 
L 21 0 
L 10.6875 0 
z
" id="DejaVuSans-2e"/>
      </defs>
      <g transform="translate(31.99375 305.843812)scale(0.2 -0.2)">
       <use xlink:href="#DejaVuSans-30"/>
       <use x="63.623047" xlink:href="#DejaVuSans-2e"/>
       <use x="95.410156" xlink:href="#DejaVuSans-30"/>
      </g>
     </g>
    </g>
    <g id="ytick_2">
     <g id="line2d_13">
      <path clip-path="url(#p004f2d4366)" d="M 70.8 245.549929 
L 427.92 245.549929 
" style="fill:none;stroke:#b0b0b0;stroke-linecap:square;stroke-width:0.8;"/>
     </g>
     <g id="line2d_14">
      <g>
       <use style="stroke:#000000;stroke-width:0.8;" x="70.8" xlink:href="#mcdae0efdf3" y="245.549929"/>
      </g>
     </g>
     <g id="text_8">
      <!-- 0.2 -->
      <g transform="translate(31.99375 253.148367)scale(0.2 -0.2)">
       <use xlink:href="#DejaVuSans-30"/>
       <use x="63.623047" xlink:href="#DejaVuSans-2e"/>
       <use x="95.410156" xlink:href="#DejaVuSans-32"/>
      </g>
     </g>
    </g>
    <g id="ytick_3">
     <g id="line2d_15">
      <path clip-path="url(#p004f2d4366)" d="M 70.8 192.854484 
L 427.92 192.854484 
" style="fill:none;stroke:#b0b0b0;stroke-linecap:square;stroke-width:0.8;"/>
     </g>
     <g id="line2d_16">
      <g>
       <use style="stroke:#000000;stroke-width:0.8;" x="70.8" xlink:href="#mcdae0efdf3" y="192.854484"/>
      </g>
     </g>
     <g id="text_9">
      <!-- 0.4 -->
      <g transform="translate(31.99375 200.452921)scale(0.2 -0.2)">
       <use xlink:href="#DejaVuSans-30"/>
       <use x="63.623047" xlink:href="#DejaVuSans-2e"/>
       <use x="95.410156" xlink:href="#DejaVuSans-34"/>
      </g>
     </g>
    </g>
    <g id="ytick_4">
     <g id="line2d_17">
      <path clip-path="url(#p004f2d4366)" d="M 70.8 140.159038 
L 427.92 140.159038 
" style="fill:none;stroke:#b0b0b0;stroke-linecap:square;stroke-width:0.8;"/>
     </g>
     <g id="line2d_18">
      <g>
       <use style="stroke:#000000;stroke-width:0.8;" x="70.8" xlink:href="#mcdae0efdf3" y="140.159038"/>
      </g>
     </g>
     <g id="text_10">
      <!-- 0.6 -->
      <g transform="translate(31.99375 147.757476)scale(0.2 -0.2)">
       <use xlink:href="#DejaVuSans-30"/>
       <use x="63.623047" xlink:href="#DejaVuSans-2e"/>
       <use x="95.410156" xlink:href="#DejaVuSans-36"/>
      </g>
     </g>
    </g>
    <g id="ytick_5">
     <g id="line2d_19">
      <path clip-path="url(#p004f2d4366)" d="M 70.8 87.463593 
L 427.92 87.463593 
" style="fill:none;stroke:#b0b0b0;stroke-linecap:square;stroke-width:0.8;"/>
     </g>
     <g id="line2d_20">
      <g>
       <use style="stroke:#000000;stroke-width:0.8;" x="70.8" xlink:href="#mcdae0efdf3" y="87.463593"/>
      </g>
     </g>
     <g id="text_11">
      <!-- 0.8 -->
      <g transform="translate(31.99375 95.06203)scale(0.2 -0.2)">
       <use xlink:href="#DejaVuSans-30"/>
       <use x="63.623047" xlink:href="#DejaVuSans-2e"/>
       <use x="95.410156" xlink:href="#DejaVuSans-38"/>
      </g>
     </g>
    </g>
    <g id="ytick_6">
     <g id="line2d_21">
      <path clip-path="url(#p004f2d4366)" d="M 70.8 34.768147 
L 427.92 34.768147 
" style="fill:none;stroke:#b0b0b0;stroke-linecap:square;stroke-width:0.8;"/>
     </g>
     <g id="line2d_22">
      <g>
       <use style="stroke:#000000;stroke-width:0.8;" x="70.8" xlink:href="#mcdae0efdf3" y="34.768147"/>
      </g>
     </g>
     <g id="text_12">
      <!-- 1.0 -->
      <g transform="translate(31.99375 42.366585)scale(0.2 -0.2)">
       <use xlink:href="#DejaVuSans-31"/>
       <use x="63.623047" xlink:href="#DejaVuSans-2e"/>
       <use x="95.410156" xlink:href="#DejaVuSans-30"/>
      </g>
     </g>
    </g>
    <g id="text_13">
     <!-- Proportion of function+target pairs -->
     <defs>
      <path d="M 19.671875 64.796875 
L 19.671875 37.40625 
L 32.078125 37.40625 
Q 38.96875 37.40625 42.71875 40.96875 
Q 46.484375 44.53125 46.484375 51.125 
Q 46.484375 57.671875 42.71875 61.234375 
Q 38.96875 64.796875 32.078125 64.796875 
z
M 9.8125 72.90625 
L 32.078125 72.90625 
Q 44.34375 72.90625 50.609375 67.359375 
Q 56.890625 61.8125 56.890625 51.125 
Q 56.890625 40.328125 50.609375 34.8125 
Q 44.34375 29.296875 32.078125 29.296875 
L 19.671875 29.296875 
L 19.671875 0 
L 9.8125 0 
z
" id="DejaVuSans-50"/>
      <path d="M 41.109375 46.296875 
Q 39.59375 47.171875 37.8125 47.578125 
Q 36.03125 48 33.890625 48 
Q 26.265625 48 22.1875 43.046875 
Q 18.109375 38.09375 18.109375 28.8125 
L 18.109375 0 
L 9.078125 0 
L 9.078125 54.6875 
L 18.109375 54.6875 
L 18.109375 46.1875 
Q 20.953125 51.171875 25.484375 53.578125 
Q 30.03125 56 36.53125 56 
Q 37.453125 56 38.578125 55.875 
Q 39.703125 55.765625 41.0625 55.515625 
z
" id="DejaVuSans-72"/>
      <path d="M 18.109375 8.203125 
L 18.109375 -20.796875 
L 9.078125 -20.796875 
L 9.078125 54.6875 
L 18.109375 54.6875 
L 18.109375 46.390625 
Q 20.953125 51.265625 25.265625 53.625 
Q 29.59375 56 35.59375 56 
Q 45.5625 56 51.78125 48.09375 
Q 58.015625 40.1875 58.015625 27.296875 
Q 58.015625 14.40625 51.78125 6.484375 
Q 45.5625 -1.421875 35.59375 -1.421875 
Q 29.59375 -1.421875 25.265625 0.953125 
Q 20.953125 3.328125 18.109375 8.203125 
z
M 48.6875 27.296875 
Q 48.6875 37.203125 44.609375 42.84375 
Q 40.53125 48.484375 33.40625 48.484375 
Q 26.265625 48.484375 22.1875 42.84375 
Q 18.109375 37.203125 18.109375 27.296875 
Q 18.109375 17.390625 22.1875 11.75 
Q 26.265625 6.109375 33.40625 6.109375 
Q 40.53125 6.109375 44.609375 11.75 
Q 48.6875 17.390625 48.6875 27.296875 
z
" id="DejaVuSans-70"/>
      <path d="M 18.3125 70.21875 
L 18.3125 54.6875 
L 36.8125 54.6875 
L 36.8125 47.703125 
L 18.3125 47.703125 
L 18.3125 18.015625 
Q 18.3125 11.328125 20.140625 9.421875 
Q 21.96875 7.515625 27.59375 7.515625 
L 36.8125 7.515625 
L 36.8125 0 
L 27.59375 0 
Q 17.1875 0 13.234375 3.875 
Q 9.28125 7.765625 9.28125 18.015625 
L 9.28125 47.703125 
L 2.6875 47.703125 
L 2.6875 54.6875 
L 9.28125 54.6875 
L 9.28125 70.21875 
z
" id="DejaVuSans-74"/>
      <path d="M 8.5 21.578125 
L 8.5 54.6875 
L 17.484375 54.6875 
L 17.484375 21.921875 
Q 17.484375 14.15625 20.5 10.265625 
Q 23.53125 6.390625 29.59375 6.390625 
Q 36.859375 6.390625 41.078125 11.03125 
Q 45.3125 15.671875 45.3125 23.6875 
L 45.3125 54.6875 
L 54.296875 54.6875 
L 54.296875 0 
L 45.3125 0 
L 45.3125 8.40625 
Q 42.046875 3.421875 37.71875 1 
Q 33.40625 -1.421875 27.6875 -1.421875 
Q 18.265625 -1.421875 13.375 4.4375 
Q 8.5 10.296875 8.5 21.578125 
z
M 31.109375 56 
z
" id="DejaVuSans-75"/>
      <path d="M 48.78125 52.59375 
L 48.78125 44.1875 
Q 44.96875 46.296875 41.140625 47.34375 
Q 37.3125 48.390625 33.40625 48.390625 
Q 24.65625 48.390625 19.8125 42.84375 
Q 14.984375 37.3125 14.984375 27.296875 
Q 14.984375 17.28125 19.8125 11.734375 
Q 24.65625 6.203125 33.40625 6.203125 
Q 37.3125 6.203125 41.140625 7.25 
Q 44.96875 8.296875 48.78125 10.40625 
L 48.78125 2.09375 
Q 45.015625 0.34375 40.984375 -0.53125 
Q 36.96875 -1.421875 32.421875 -1.421875 
Q 20.0625 -1.421875 12.78125 6.34375 
Q 5.515625 14.109375 5.515625 27.296875 
Q 5.515625 40.671875 12.859375 48.328125 
Q 20.21875 56 33.015625 56 
Q 37.15625 56 41.109375 55.140625 
Q 45.0625 54.296875 48.78125 52.59375 
z
" id="DejaVuSans-63"/>
      <path d="M 46 62.703125 
L 46 35.5 
L 73.1875 35.5 
L 73.1875 27.203125 
L 46 27.203125 
L 46 0 
L 37.796875 0 
L 37.796875 27.203125 
L 10.59375 27.203125 
L 10.59375 35.5 
L 37.796875 35.5 
L 37.796875 62.703125 
z
" id="DejaVuSans-2b"/>
     </defs>
     <g transform="translate(24.250312 323.17875)rotate(-90)scale(0.18 -0.18)">
      <use xlink:href="#DejaVuSans-50"/>
      <use x="60.287109" xlink:href="#DejaVuSans-72"/>
      <use x="101.369141" xlink:href="#DejaVuSans-6f"/>
      <use x="162.550781" xlink:href="#DejaVuSans-70"/>
      <use x="226.027344" xlink:href="#DejaVuSans-6f"/>
      <use x="287.208984" xlink:href="#DejaVuSans-72"/>
      <use x="328.322266" xlink:href="#DejaVuSans-74"/>
      <use x="367.53125" xlink:href="#DejaVuSans-69"/>
      <use x="395.314453" xlink:href="#DejaVuSans-6f"/>
      <use x="456.496094" xlink:href="#DejaVuSans-6e"/>
      <use x="519.875" xlink:href="#DejaVuSans-20"/>
      <use x="551.662109" xlink:href="#DejaVuSans-6f"/>
      <use x="612.84375" xlink:href="#DejaVuSans-66"/>
      <use x="648.048828" xlink:href="#DejaVuSans-20"/>
      <use x="679.835938" xlink:href="#DejaVuSans-66"/>
      <use x="715.041016" xlink:href="#DejaVuSans-75"/>
      <use x="778.419922" xlink:href="#DejaVuSans-6e"/>
      <use x="841.798828" xlink:href="#DejaVuSans-63"/>
      <use x="896.779297" xlink:href="#DejaVuSans-74"/>
      <use x="935.988281" xlink:href="#DejaVuSans-69"/>
      <use x="963.771484" xlink:href="#DejaVuSans-6f"/>
      <use x="1024.953125" xlink:href="#DejaVuSans-6e"/>
      <use x="1088.332031" xlink:href="#DejaVuSans-2b"/>
      <use x="1172.121094" xlink:href="#DejaVuSans-74"/>
      <use x="1211.330078" xlink:href="#DejaVuSans-61"/>
      <use x="1272.609375" xlink:href="#DejaVuSans-72"/>
      <use x="1313.707031" xlink:href="#DejaVuSans-67"/>
      <use x="1377.183594" xlink:href="#DejaVuSans-65"/>
      <use x="1438.707031" xlink:href="#DejaVuSans-74"/>
      <use x="1477.916016" xlink:href="#DejaVuSans-20"/>
      <use x="1509.703125" xlink:href="#DejaVuSans-70"/>
      <use x="1573.179688" xlink:href="#DejaVuSans-61"/>
      <use x="1634.458984" xlink:href="#DejaVuSans-69"/>
      <use x="1662.242188" xlink:href="#DejaVuSans-72"/>
      <use x="1703.355469" xlink:href="#DejaVuSans-73"/>
     </g>
    </g>
   </g>
   <g id="line2d_23">
    <defs>
     <path d="M 0 1.5 
C 0.397805 1.5 0.77937 1.341951 1.06066 1.06066 
C 1.341951 0.77937 1.5 0.397805 1.5 0 
C 1.5 -0.397805 1.341951 -0.77937 1.06066 -1.06066 
C 0.77937 -1.341951 0.397805 -1.5 0 -1.5 
C -0.397805 -1.5 -0.77937 -1.341951 -1.06066 -1.06066 
C -1.341951 -0.77937 -1.5 -0.397805 -1.5 0 
C -1.5 0.397805 -1.341951 0.77937 -1.06066 1.06066 
C -0.77937 1.341951 -0.397805 1.5 0 1.5 
z
" id="m2dac3ad544" style="stroke:#000080;"/>
    </defs>
    <g>
     <use style="fill:#000080;stroke:#000080;" x="283.470982" xlink:href="#m2dac3ad544" y="81.264129"/>
     <use style="fill:#000080;stroke:#000080;" x="283.470982" xlink:href="#m2dac3ad544" y="81.264129"/>
    </g>
   </g>
   <g id="line2d_24">
    <path d="M 58.414766 298.245375 
L 58.414766 288.946179 
L 70.8 288.946179 
L 70.8 284.296581 
L 83.185234 284.296581 
L 83.185234 282.746715 
L 87.172389 282.746715 
L 87.172389 282.230093 
L 99.557623 282.230093 
L 99.557623 279.646982 
L 101.260636 279.646982 
L 101.260636 278.613738 
L 102.815366 278.613738 
L 102.815366 278.097116 
L 104.245578 278.097116 
L 104.245578 274.480762 
L 105.569748 274.480762 
L 105.569748 273.96414 
L 106.802521 273.96414 
L 106.802521 273.447518 
L 107.955702 273.447518 
L 107.955702 271.38103 
L 111.026343 271.38103 
L 111.026343 269.314542 
L 113.64587 269.314542 
L 113.64587 268.79792 
L 115.2006 268.79792 
L 115.2006 266.731432 
L 117.305161 266.731432 
L 117.305161 266.21481 
L 118.581998 266.21481 
L 118.581998 262.598456 
L 119.773647 262.598456 
L 119.773647 258.46548 
L 122.445497 258.46548 
L 122.445497 257.948858 
L 123.411577 257.948858 
L 123.411577 256.915614 
L 123.87571 256.915614 
L 123.87571 254.849126 
L 125.620325 254.849126 
L 125.620325 248.649662 
L 126.031105 248.649662 
L 126.031105 247.616418 
L 126.432652 247.616418 
L 126.432652 247.099796 
L 127.954262 247.099796 
L 127.954262 244.516685 
L 129.016046 244.516685 
L 129.016046 244.000063 
L 131.572989 244.000063 
L 131.572989 241.416953 
L 132.726171 241.416953 
L 132.726171 238.833843 
L 133.544701 238.833843 
L 133.544701 238.317221 
L 135.077192 238.317221 
L 135.077192 237.800599 
L 135.796811 237.800599 
L 135.796811 237.283977 
L 136.488566 237.283977 
L 136.488566 236.767355 
L 137.371122 236.767355 
L 137.371122 236.250733 
L 137.585114 236.250733 
L 137.585114 235.217489 
L 140.70048 235.217489 
L 140.70048 234.184245 
L 142.565197 234.184245 
L 142.565197 233.151001 
L 143.808698 233.151001 
L 143.808698 232.634379 
L 147.584393 232.634379 
L 147.584393 232.117757 
L 148.182045 232.117757 
L 148.182045 231.084513 
L 148.986533 231.084513 
L 148.986533 229.534647 
L 149.209888 229.534647 
L 149.209888 227.984781 
L 152.074909 227.984781 
L 152.074909 225.918293 
L 152.906134 225.918293 
L 152.906134 224.368427 
L 154.950431 224.368427 
L 154.950431 223.335183 
L 158.514074 223.335183 
L 158.514074 222.818561 
L 162.72401 222.818561 
L 162.72401 220.752073 
L 165.780936 220.752073 
L 165.780936 220.235451 
L 170.261693 220.235451 
L 170.261693 218.685585 
L 170.700403 218.685585 
L 170.700403 218.168963 
L 170.965121 218.168963 
L 170.965121 217.652341 
L 172.952513 217.652341 
L 172.952513 217.135719 
L 178.449278 217.135719 
L 178.449278 216.619097 
L 178.812855 216.619097 
L 178.812855 215.585853 
L 180.334033 215.585853 
L 180.334033 215.069231 
L 180.832532 215.069231 
L 180.832532 214.552609 
L 181.44585 214.552609 
L 181.44585 214.035987 
L 181.645699 214.035987 
L 181.645699 213.002743 
L 182.440754 213.002743 
L 182.440754 212.48612 
L 184.027136 212.48612 
L 184.027136 211.969498 
L 185.614778 211.969498 
L 185.614778 210.936254 
L 185.859058 210.936254 
L 185.859058 210.419632 
L 187.765898 210.419632 
L 187.765898 209.90301 
L 188.184255 209.90301 
L 188.184255 209.386388 
L 188.739402 209.386388 
L 188.739402 208.869766 
L 189.171425 208.869766 
L 189.171425 207.3199 
L 189.477072 207.3199 
L 189.477072 206.803278 
L 189.982698 206.803278 
L 189.982698 206.286656 
L 190.341643 206.286656 
L 190.430264 205.253412 
L 190.649912 205.253412 
L 190.649912 204.73679 
L 193.17991 204.73679 
L 193.17991 204.220168 
L 193.767024 204.220168 
L 193.785351 203.186924 
L 194.012857 203.186924 
L 194.12104 202.15368 
L 194.174887 202.15368 
L 194.174887 201.120436 
L 194.353213 201.120436 
L 194.353213 200.603814 
L 195.269727 200.603814 
L 195.269727 200.087192 
L 195.479203 200.087192 
L 195.479203 199.57057 
L 196.221606 199.57057 
L 196.269488 198.020704 
L 196.803373 198.020704 
L 196.803373 197.504082 
L 197.170854 197.504082 
L 197.208702 195.954216 
L 197.419183 195.954216 
L 197.419183 195.437594 
L 197.619825 195.437594 
L 197.619825 194.920972 
L 198.179954 194.920972 
L 198.201426 193.887728 
L 198.943995 193.887728 
L 198.943995 192.337862 
L 199.162234 192.337862 
L 199.270362 190.787996 
L 199.794859 190.787996 
L 199.794859 189.754752 
L 200.644513 189.754752 
L 200.644513 189.23813 
L 201.515113 189.23813 
L 201.515113 188.721508 
L 202.007411 188.721508 
L 202.007411 188.204886 
L 202.452709 188.204886 
L 202.542697 186.65502 
L 202.881676 186.65502 
L 202.881676 185.621776 
L 203.187308 185.621776 
L 203.187308 185.105154 
L 203.604482 185.105154 
L 203.699385 182.005422 
L 203.918885 182.005422 
L 203.918885 180.972178 
L 204.089477 180.972178 
L 204.089477 179.938934 
L 204.202307 179.938934 
L 204.202307 179.422312 
L 204.410699 179.422312 
L 204.4309 176.839201 
L 204.586691 176.839201 
L 204.641647 175.805957 
L 205.720786 175.805957 
L 205.809787 174.772713 
L 205.940144 174.772713 
L 205.940144 174.256091 
L 206.465782 174.256091 
L 206.465782 173.222847 
L 206.653964 173.222847 
L 206.65842 171.672981 
L 207.055016 171.672981 
L 207.055016 169.606493 
L 207.185282 169.606493 
L 207.185282 169.089871 
L 207.400304 169.089871 
L 207.400304 168.573249 
L 207.688643 168.573249 
L 207.688643 167.540005 
L 207.885251 167.540005 
L 207.885251 166.506761 
L 208.59085 166.506761 
L 208.59085 165.990139 
L 208.841036 165.990139 
L 208.841036 164.956895 
L 209.037132 164.956895 
L 209.037132 164.440273 
L 209.990274 164.440273 
L 210.056712 159.790675 
L 213.222113 159.790675 
L 213.222113 159.274053 
L 213.965591 159.274053 
L 214.051233 157.724187 
L 215.039782 157.724187 
L 215.117663 156.690943 
L 215.989716 156.690943 
L 215.989716 156.174321 
L 216.648786 156.174321 
L 216.648786 155.657699 
L 216.778238 155.657699 
L 216.778238 155.141077 
L 216.966921 155.141077 
L 216.966921 154.624455 
L 217.284408 154.624455 
L 217.360459 153.074589 
L 218.468601 153.074589 
L 218.468601 152.557967 
L 219.227623 152.557967 
L 219.227623 152.041345 
L 219.736312 152.041345 
L 219.736312 151.524723 
L 220.464953 151.524723 
L 220.464953 150.491479 
L 220.63696 150.491479 
L 220.63696 149.974857 
L 221.293184 149.974857 
L 221.293184 149.458235 
L 221.629833 149.458235 
L 221.629833 148.941613 
L 221.775743 148.941613 
L 221.775743 148.424991 
L 221.928056 148.424991 
L 221.928056 147.908369 
L 222.351455 147.908369 
L 222.351455 145.325259 
L 225.966325 145.325259 
L 225.966325 144.292014 
L 226.483543 144.292014 
L 226.54807 143.25877 
L 227.67415 143.25877 
L 227.731784 141.708904 
L 227.934764 141.708904 
L 227.990215 140.67566 
L 228.194301 140.67566 
L 228.194301 140.159038 
L 229.566087 140.159038 
L 229.566087 138.09255 
L 231.4845 138.09255 
L 231.4845 137.575928 
L 232.059284 137.575928 
L 232.059284 137.059306 
L 233.19357 137.059306 
L 233.19357 136.542684 
L 233.428179 136.542684 
L 233.428179 136.026062 
L 233.671542 136.026062 
L 233.671542 135.50944 
L 234.058388 135.50944 
L 234.058388 134.992818 
L 234.4182 134.992818 
L 234.480288 133.959574 
L 234.691272 133.959574 
L 234.691272 133.442952 
L 236.699363 133.442952 
L 236.699363 132.92633 
L 236.837341 132.92633 
L 236.837341 132.409708 
L 237.480754 132.409708 
L 237.480754 130.859842 
L 237.689131 130.859842 
L 237.701682 129.826598 
L 238.001065 129.826598 
L 238.001065 129.309976 
L 238.164568 129.309976 
L 238.164568 128.793354 
L 238.451095 128.793354 
L 238.451095 127.76011 
L 238.669329 127.76011 
L 238.669329 126.726866 
L 239.846451 126.726866 
L 239.846451 125.693622 
L 240.473084 125.693622 
L 240.473084 125.177 
L 241.118036 125.177 
L 241.122569 124.143756 
L 241.501222 124.143756 
L 241.573979 123.110512 
L 241.739266 123.110512 
L 241.739266 122.59389 
L 241.921005 122.59389 
L 241.921005 121.560646 
L 243.976027 121.560646 
L 243.976027 121.044024 
L 244.515351 121.044024 
L 244.550663 119.494158 
L 244.671052 119.494158 
L 244.671052 118.460914 
L 245.520174 118.460914 
L 245.520174 117.944292 
L 245.784504 117.944292 
L 245.784504 116.394426 
L 246.432562 116.394426 
L 246.489717 114.327938 
L 246.739711 114.327938 
L 246.739711 113.811316 
L 246.948439 113.811316 
L 247.053754 112.26145 
L 248.624196 112.26145 
L 248.709101 110.711584 
L 248.87687 110.711584 
L 248.87687 110.194961 
L 249.044325 110.194961 
L 249.044325 109.678339 
L 249.155785 109.678339 
L 249.155785 108.645095 
L 250.077503 108.645095 
L 250.077503 108.128473 
L 250.451342 108.128473 
L 250.56126 106.578607 
L 250.952131 106.578607 
L 251.036355 105.545363 
L 251.868104 105.545363 
L 251.961902 104.512119 
L 252.320485 104.512119 
L 252.373002 103.478875 
L 252.661154 103.478875 
L 252.661154 102.962253 
L 253.282995 102.962253 
L 253.282995 102.445631 
L 253.495496 102.445631 
L 253.495496 101.929009 
L 253.848696 101.929009 
L 253.957003 100.379143 
L 255.655338 100.379143 
L 255.655338 99.345899 
L 256.328665 99.345899 
L 256.363468 98.312655 
L 256.983137 98.312655 
L 257.043274 96.762789 
L 257.473187 96.762789 
L 257.473187 96.246167 
L 258.008388 96.246167 
L 258.054888 95.212923 
L 258.275179 95.212923 
L 258.275179 94.696301 
L 259.177592 94.696301 
L 259.177592 94.179679 
L 259.923696 94.179679 
L 259.923696 93.663057 
L 260.168233 93.663057 
L 260.168233 93.146435 
L 261.004323 93.146435 
L 261.004323 92.629813 
L 261.308823 92.629813 
L 261.308823 92.113191 
L 262.051228 92.113191 
L 262.051228 91.596569 
L 262.322731 91.596569 
L 262.364789 90.046703 
L 262.939238 90.046703 
L 262.939238 89.530081 
L 263.122216 89.530081 
L 263.122216 89.013459 
L 264.896218 89.013459 
L 264.896218 88.496837 
L 266.478585 88.496837 
L 266.478585 87.980215 
L 266.920816 87.980215 
L 266.920816 87.463593 
L 267.639911 87.463593 
L 267.639911 86.430349 
L 269.253657 86.430349 
L 269.253657 85.913727 
L 269.707243 85.913727 
L 269.707243 85.397105 
L 270.936101 85.397105 
L 270.936101 84.880483 
L 271.626244 84.880483 
L 271.626244 84.363861 
L 272.281098 84.363861 
L 272.281098 83.847239 
L 274.772 83.847239 
L 274.772 83.330617 
L 277.22625 83.330617 
L 277.22625 82.813995 
L 277.841723 82.813995 
L 277.841723 82.297373 
L 282.05032 82.297373 
L 282.05032 81.780751 
L 283.470982 81.780751 
L 283.470982 81.264129 
L 358.8 81.264129 
L 358.8 81.264129 
" style="fill:none;stroke:#000080;stroke-linecap:square;stroke-width:1.5;"/>
   </g>
   <g id="line2d_25">
    <defs>
     <path d="M 0 6 
C 1.591219 6 3.117479 5.367802 4.242641 4.242641 
C 5.367802 3.117479 6 1.591219 6 0 
C 6 -1.591219 5.367802 -3.117479 4.242641 -4.242641 
C 3.117479 -5.367802 1.591219 -6 0 -6 
C -1.591219 -6 -3.117479 -5.367802 -4.242641 -4.242641 
C -5.367802 -3.117479 -6 -1.591219 -6 0 
C -6 1.591219 -5.367802 3.117479 -4.242641 4.242641 
C -3.117479 5.367802 -1.591219 6 0 6 
z
" id="mde965454b6" style="stroke:#000080;stroke-width:1.5;"/>
    </defs>
    <g>
     <use style="fill:none;stroke:#000080;stroke-width:1.5;" x="111.026343" xlink:href="#mde965454b6" y="269.314542"/>
     <use style="fill:none;stroke:#000080;stroke-width:1.5;" x="165.780936" xlink:href="#mde965454b6" y="220.752073"/>
     <use style="fill:none;stroke:#000080;stroke-width:1.5;" x="221.629833" xlink:href="#mde965454b6" y="149.458235"/>
     <use style="fill:none;stroke:#000080;stroke-width:1.5;" x="253.957003" xlink:href="#mde965454b6" y="100.379143"/>
     <use style="fill:none;stroke:#000080;stroke-width:1.5;" x="283.470982" xlink:href="#mde965454b6" y="81.264129"/>
     <use style="fill:none;stroke:#000080;stroke-width:1.5;" x="358.8" xlink:href="#mde965454b6" y="81.264129"/>
    </g>
   </g>
   <g id="line2d_26"/>
   <g id="line2d_27">
    <path clip-path="url(#p004f2d4366)" d="M 209.87527 164.440273 
" style="fill:none;stroke:#000080;stroke-linecap:square;stroke-width:1.5;"/>
    <defs>
     <path d="M -12 12 
L 12 -12 
M -12 -12 
L 12 12 
" id="mcd4e8d58a8" style="stroke:#000080;stroke-width:3;"/>
    </defs>
    <g clip-path="url(#p004f2d4366)">
     <use style="fill:#000080;stroke:#000080;stroke-width:3;" x="209.87527" xlink:href="#mcd4e8d58a8" y="164.440273"/>
    </g>
   </g>
   <g id="line2d_28">
    <defs>
     <path d="M 0 1.5 
C 0.397805 1.5 0.77937 1.341951 1.06066 1.06066 
C 1.341951 0.77937 1.5 0.397805 1.5 0 
C 1.5 -0.397805 1.341951 -0.77937 1.06066 -1.06066 
C 0.77937 -1.341951 0.397805 -1.5 0 -1.5 
C -0.397805 -1.5 -0.77937 -1.341951 -1.06066 -1.06066 
C -1.341951 -0.77937 -1.5 -0.397805 -1.5 0 
C -1.5 0.397805 -1.341951 0.77937 -1.06066 1.06066 
C -0.77937 1.341951 -0.397805 1.5 0 1.5 
z
" id="m40d32edc26" style="stroke:#ff00ff;"/>
    </defs>
    <g>
     <use style="fill:#ff00ff;stroke:#ff00ff;" x="267.174245" xlink:href="#m40d32edc26" y="34.768147"/>
     <use style="fill:#ff00ff;stroke:#ff00ff;" x="267.174245" xlink:href="#m40d32edc26" y="34.768147"/>
    </g>
   </g>
   <g id="line2d_29">
    <path d="M 58.414766 298.245375 
L 58.414766 267.248054 
L 70.8 267.248054 
L 70.8 261.04859 
L 78.044898 261.04859 
L 78.044898 250.199528 
L 83.185234 250.199528 
L 83.185234 245.549929 
L 87.172389 245.549929 
L 87.172389 242.966819 
L 90.430132 242.966819 
L 90.430132 242.450197 
L 93.184514 242.450197 
L 93.184514 237.800599 
L 95.570468 237.800599 
L 95.570468 236.250733 
L 99.557623 236.250733 
L 99.557623 233.667623 
L 101.260636 233.667623 
L 101.260636 231.601135 
L 102.815366 231.601135 
L 102.815366 230.567891 
L 104.245578 230.567891 
L 104.245578 229.018025 
L 107.955702 229.018025 
L 107.955702 226.434915 
L 111.026343 226.434915 
L 111.026343 225.918293 
L 114.44014 225.918293 
L 114.44014 225.401671 
L 115.930012 225.401671 
L 115.930012 224.368427 
L 116.630812 224.368427 
L 116.630812 221.785317 
L 117.305161 221.785317 
L 117.305161 221.268695 
L 120.340936 221.268695 
L 120.340936 220.752073 
L 120.890768 220.752073 
L 120.890768 219.718829 
L 121.424184 219.718829 
L 121.424184 219.202207 
L 126.031105 219.202207 
L 126.031105 218.685585 
L 128.315246 218.685585 
L 128.315246 217.652341 
L 133.276002 217.652341 
L 133.276002 217.135719 
L 134.327371 217.135719 
L 134.327371 216.619097 
L 135.796811 216.619097 
L 135.796811 216.102475 
L 141.22864 216.102475 
L 141.22864 215.069231 
L 143.041708 215.069231 
L 143.041708 214.552609 
L 143.657911 214.552609 
L 143.657911 214.035987 
L 144.830011 214.035987 
L 144.830011 213.519365 
L 151.789013 213.519365 
L 151.789013 213.002743 
L 152.541466 213.002743 
L 152.541466 212.48612 
L 153.526925 212.48612 
L 153.526925 210.936254 
L 154.12687 210.936254 
L 154.12687 209.90301 
L 155.030737 209.90301 
L 155.030737 209.386388 
L 156.118698 209.386388 
L 156.118698 206.803278 
L 156.711885 206.803278 
L 156.711885 206.286656 
L 159.908748 206.286656 
L 159.908748 205.770034 
L 160.270952 205.770034 
L 160.270952 205.253412 
L 160.97405 205.253412 
L 160.97405 203.703546 
L 161.371767 203.703546 
L 161.371767 203.186924 
L 162.514411 203.186924 
L 162.514411 202.15368 
L 163.388709 202.15368 
L 163.388709 200.087192 
L 163.687347 200.087192 
L 163.687347 199.57057 
L 164.601393 199.57057 
L 164.601393 196.470838 
L 164.788007 196.470838 
L 164.788007 195.954216 
L 165.336432 195.954216 
L 165.336432 194.40435 
L 166.342737 194.40435 
L 166.342737 193.887728 
L 166.763182 193.887728 
L 166.763182 191.82124 
L 168.728691 191.82124 
L 168.728691 191.304618 
L 168.913855 191.304618 
L 168.913855 190.787996 
L 169.458103 190.787996 
L 169.458103 189.23813 
L 169.84694 189.23813 
L 169.84694 188.721508 
L 172.232894 188.721508 
L 172.232894 187.688264 
L 174.173527 187.688264 
L 174.173527 186.65502 
L 174.714207 186.65502 
L 174.714207 185.621776 
L 175.673277 185.621776 
L 175.723681 184.588532 
L 176.535449 184.588532 
L 176.535449 184.07191 
L 176.963163 184.07191 
L 176.963163 183.555288 
L 177.103489 183.555288 
L 177.103489 183.038666 
L 178.578446 183.038666 
L 178.578446 182.522044 
L 179.51854 182.522044 
L 179.51854 182.005422 
L 179.801206 182.005422 
L 179.801206 180.455556 
L 180.314579 180.455556 
L 180.314579 179.422312 
L 180.945621 179.422312 
L 180.9644 178.389067 
L 182.038813 178.389067 
L 182.038813 177.872445 
L 182.197173 177.872445 
L 182.197173 176.839201 
L 182.440754 176.839201 
L 182.49252 175.289335 
L 183.415926 175.289335 
L 183.415926 174.772713 
L 183.756281 174.772713 
L 183.756281 174.256091 
L 184.800768 174.256091 
L 184.846138 171.672981 
L 185.056354 171.672981 
L 185.056354 171.156359 
L 185.454916 171.156359 
L 185.454916 170.123115 
L 185.972868 170.123115 
L 185.972868 169.606493 
L 186.114119 169.606493 
L 186.114119 169.089871 
L 187.232093 169.089871 
L 187.232093 168.573249 
L 187.727375 168.573249 
L 187.727375 168.056627 
L 188.271752 168.056627 
L 188.271752 167.023383 
L 188.775805 167.023383 
L 188.775805 166.506761 
L 189.076319 166.506761 
L 189.076319 165.990139 
L 189.477072 165.990139 
L 189.477072 165.473517 
L 190.106901 165.473517 
L 190.106901 164.956895 
L 190.252581 164.956895 
L 190.286031 163.923651 
L 190.649912 163.923651 
L 190.649912 163.407029 
L 190.812893 163.407029 
L 190.812893 162.890407 
L 191.709387 162.890407 
L 191.709387 162.373785 
L 192.345978 162.373785 
L 192.454839 160.823919 
L 193.471219 160.823919 
L 193.471219 159.274053 
L 193.831084 159.274053 
L 193.831084 158.757431 
L 194.058013 158.757431 
L 194.058013 158.240809 
L 194.264272 158.240809 
L 194.264272 157.724187 
L 194.397517 157.724187 
L 194.397517 157.207565 
L 194.529776 157.207565 
L 194.573646 156.174321 
L 194.678496 156.174321 
L 194.678496 155.657699 
L 194.800048 155.657699 
L 194.869137 153.591211 
L 195.378961 153.591211 
L 195.387336 152.041345 
L 195.611991 152.041345 
L 195.611991 151.008101 
L 195.882787 151.008101 
L 195.882787 149.458235 
L 196.459745 149.458235 
L 196.538424 148.424991 
L 196.679181 148.424991 
L 196.679181 147.908369 
L 196.934389 147.908369 
L 196.934389 146.875125 
L 197.132925 146.875125 
L 197.132925 146.358503 
L 197.76701 146.358503 
L 197.81093 144.808637 
L 198.950855 144.808637 
L 198.950855 144.292014 
L 199.121517 144.292014 
L 199.196094 142.742148 
L 199.424659 142.742148 
L 199.484675 141.192282 
L 199.630538 141.192282 
L 199.630538 140.67566 
L 200.361535 140.67566 
L 200.437435 139.125794 
L 200.731644 139.125794 
L 200.731644 137.059306 
L 201.359944 137.059306 
L 201.437697 136.026062 
L 201.627659 136.026062 
L 201.627659 134.476196 
L 201.873958 134.476196 
L 201.873958 133.959574 
L 202.486508 133.959574 
L 202.486508 133.442952 
L 202.848618 133.442952 
L 202.848618 132.409708 
L 203.219747 132.409708 
L 203.300586 130.859842 
L 203.918885 130.859842 
L 203.918885 130.34322 
L 204.037954 130.34322 
L 204.037954 129.826598 
L 204.186963 129.826598 
L 204.186963 129.309976 
L 204.334739 129.309976 
L 204.375291 127.76011 
L 204.661589 127.76011 
L 204.661589 127.243488 
L 205.143345 127.243488 
L 205.143345 126.726866 
L 205.730176 126.726866 
L 205.837801 124.660378 
L 205.930864 124.660378 
L 206.009589 122.59389 
L 206.147674 122.59389 
L 206.147674 122.077268 
L 206.636127 122.077268 
L 206.698478 120.527402 
L 206.756182 120.527402 
L 206.809282 117.944292 
L 206.875435 117.944292 
L 206.980775 116.394426 
L 207.098544 116.394426 
L 207.098544 115.361182 
L 207.918501 115.361182 
L 207.997225 113.811316 
L 208.45033 113.811316 
L 208.45033 113.294694 
L 209.211797 113.294694 
L 209.211797 112.26145 
L 209.590155 112.26145 
L 209.646789 111.228206 
L 209.811888 111.228206 
L 209.811888 110.711584 
L 211.094391 110.711584 
L 211.094391 110.194961 
L 211.239802 110.194961 
L 211.294887 108.645095 
L 211.407966 108.645095 
L 211.407966 107.611851 
L 212.926508 107.611851 
L 213.00165 106.578607 
L 213.512906 106.578607 
L 213.512906 106.061985 
L 213.852746 106.061985 
L 213.852746 105.545363 
L 215.017468 105.545363 
L 215.017468 105.028741 
L 215.564423 105.028741 
L 215.564423 103.995497 
L 215.726103 103.995497 
L 215.726103 103.478875 
L 215.936773 103.478875 
L 215.936773 101.929009 
L 216.288529 101.929009 
L 216.288529 101.412387 
L 216.446392 101.412387 
L 216.446392 100.895765 
L 216.85395 100.895765 
L 216.85395 100.379143 
L 217.001922 100.379143 
L 217.001922 99.862521 
L 217.675901 99.862521 
L 217.675901 99.345899 
L 217.869666 99.345899 
L 217.869666 98.312655 
L 218.129485 98.312655 
L 218.138862 96.762789 
L 218.28823 96.762789 
L 218.28823 95.729545 
L 218.535201 95.729545 
L 218.535201 95.212923 
L 218.902739 95.212923 
L 218.902739 94.179679 
L 219.348495 94.179679 
L 219.394432 92.629813 
L 219.579167 92.629813 
L 219.680501 91.079947 
L 219.721303 91.079947 
L 219.721303 90.563325 
L 219.843153 90.563325 
L 219.843153 90.046703 
L 220.038088 90.046703 
L 220.038088 89.530081 
L 220.307887 89.530081 
L 220.338997 87.980215 
L 220.583896 87.980215 
L 220.657327 86.430349 
L 220.742616 86.430349 
L 220.793191 83.330617 
L 221.083736 83.330617 
L 221.083736 82.813995 
L 222.112887 82.813995 
L 222.112887 82.297373 
L 222.88046 82.297373 
L 222.984408 78.681019 
L 223.043281 78.681019 
L 223.043281 78.164397 
L 223.891985 78.164397 
L 223.891985 77.647775 
L 224.171733 77.647775 
L 224.171733 77.131153 
L 225.547067 77.131153 
L 225.64742 75.581286 
L 225.719633 75.581286 
L 225.719633 75.064664 
L 225.84645 75.064664 
L 225.88751 74.03142 
L 226.061348 74.03142 
L 226.088405 72.998176 
L 226.176806 72.998176 
L 226.176806 72.481554 
L 226.860064 72.481554 
L 226.860064 71.964932 
L 227.110052 71.964932 
L 227.110052 71.44831 
L 227.338393 71.44831 
L 227.338393 70.931688 
L 227.455653 70.931688 
L 227.550017 69.898444 
L 227.741372 69.898444 
L 227.741372 69.381822 
L 228.284854 69.381822 
L 228.347174 67.831956 
L 228.686756 67.831956 
L 228.686756 67.315334 
L 229.410868 67.315334 
L 229.483058 66.28209 
L 229.94168 66.28209 
L 230.031045 64.215602 
L 231.76218 64.215602 
L 231.833109 63.182358 
L 231.884222 63.182358 
L 231.899418 62.149114 
L 232.045299 62.149114 
L 232.045299 61.11587 
L 232.62449 61.11587 
L 232.703497 60.082626 
L 233.477912 60.082626 
L 233.477912 59.566004 
L 234.482166 59.566004 
L 234.572082 58.53276 
L 234.629914 58.53276 
L 234.629914 58.016138 
L 234.973941 58.016138 
L 235.041413 56.982894 
L 236.431959 56.982894 
L 236.431959 56.466272 
L 236.891579 56.466272 
L 236.891579 55.94965 
L 237.003642 55.94965 
L 237.031344 54.916406 
L 237.645132 54.916406 
L 237.645132 54.399784 
L 238.059576 54.399784 
L 238.059576 53.883162 
L 238.319772 53.883162 
L 238.319772 53.36654 
L 238.950131 53.36654 
L 238.950131 52.849918 
L 240.107425 52.849918 
L 240.107425 52.333296 
L 240.526723 52.333296 
L 240.624869 51.300052 
L 240.801107 51.300052 
L 240.895138 50.266808 
L 240.939679 50.266808 
L 240.971706 49.233564 
L 242.15539 49.233564 
L 242.15539 48.716942 
L 243.167601 48.716942 
L 243.205676 47.683698 
L 243.515888 47.683698 
L 243.515888 47.167076 
L 243.795175 47.167076 
L 243.795175 46.650454 
L 244.854858 46.650454 
L 244.87219 45.100588 
L 245.24005 45.100588 
L 245.24005 44.583966 
L 245.70351 44.583966 
L 245.710524 43.550722 
L 247.229905 43.550722 
L 247.229905 43.0341 
L 247.821317 43.0341 
L 247.821317 42.517478 
L 248.237923 42.517478 
L 248.237923 42.000855 
L 250.472459 42.000855 
L 250.50696 40.967611 
L 250.72469 40.967611 
L 250.72469 40.450989 
L 251.17745 40.450989 
L 251.17745 39.934367 
L 252.20872 39.934367 
L 252.20872 39.417745 
L 254.031675 39.417745 
L 254.031675 38.901123 
L 254.991134 38.901123 
L 254.991134 38.384501 
L 255.106968 38.384501 
L 255.106968 37.867879 
L 255.445385 37.867879 
L 255.445385 37.351257 
L 255.828764 37.351257 
L 255.828764 36.834635 
L 257.958991 36.834635 
L 257.958991 36.318013 
L 258.837508 36.318013 
L 258.837508 35.801391 
L 260.586158 35.801391 
L 260.586158 35.284769 
L 267.174245 35.284769 
L 267.174245 34.768147 
L 358.8 34.768147 
L 358.8 34.768147 
" style="fill:none;stroke:#ff00ff;stroke-linecap:square;stroke-width:1.5;"/>
   </g>
   <g id="line2d_30">
    <defs>
     <path d="M -0 8.485281 
L 5.091169 0 
L 0 -8.485281 
L -5.091169 -0 
z
" id="m66b84c7bef" style="stroke:#ff00ff;stroke-linejoin:miter;stroke-width:1.5;"/>
    </defs>
    <g>
     <use style="fill:none;stroke:#ff00ff;stroke-linejoin:miter;stroke-width:1.5;" x="116.630812" xlink:href="#m66b84c7bef" y="224.368427"/>
     <use style="fill:none;stroke:#ff00ff;stroke-linejoin:miter;stroke-width:1.5;" x="190.649912" xlink:href="#m66b84c7bef" y="163.407029"/>
     <use style="fill:none;stroke:#ff00ff;stroke-linejoin:miter;stroke-width:1.5;" x="224.171733" xlink:href="#m66b84c7bef" y="77.131153"/>
     <use style="fill:none;stroke:#ff00ff;stroke-linejoin:miter;stroke-width:1.5;" x="267.174245" xlink:href="#m66b84c7bef" y="34.768147"/>
     <use style="fill:none;stroke:#ff00ff;stroke-linejoin:miter;stroke-width:1.5;" x="267.174245" xlink:href="#m66b84c7bef" y="34.768147"/>
     <use style="fill:none;stroke:#ff00ff;stroke-linejoin:miter;stroke-width:1.5;" x="358.8" xlink:href="#m66b84c7bef" y="34.768147"/>
    </g>
   </g>
   <g id="line2d_31"/>
   <g id="line2d_32">
    <path clip-path="url(#p004f2d4366)" d="M 209.87527 110.711584 
" style="fill:none;stroke:#ff00ff;stroke-linecap:square;stroke-width:1.5;"/>
    <defs>
     <path d="M -12 12 
L 12 -12 
M -12 -12 
L 12 12 
" id="mf455ce3e3a" style="stroke:#ff00ff;stroke-width:3;"/>
    </defs>
    <g clip-path="url(#p004f2d4366)">
     <use style="fill:#ff00ff;stroke:#ff00ff;stroke-width:3;" x="209.87527" xlink:href="#mf455ce3e3a" y="110.711584"/>
    </g>
   </g>
   <g id="line2d_33">
    <defs>
     <path d="M 0 1.5 
C 0.397805 1.5 0.77937 1.341951 1.06066 1.06066 
C 1.341951 0.77937 1.5 0.397805 1.5 0 
C 1.5 -0.397805 1.341951 -0.77937 1.06066 -1.06066 
C 0.77937 -1.341951 0.397805 -1.5 0 -1.5 
C -0.397805 -1.5 -0.77937 -1.341951 -1.06066 -1.06066 
C -1.341951 -0.77937 -1.5 -0.397805 -1.5 0 
C -1.5 0.397805 -1.341951 0.77937 -1.06066 1.06066 
C -0.77937 1.341951 -0.397805 1.5 0 1.5 
z
" id="mb505d10ecf" style="stroke:#ffa500;"/>
    </defs>
    <g>
     <use style="fill:#ffa500;stroke:#ffa500;" x="183.916104" xlink:href="#mb505d10ecf" y="34.768147"/>
     <use style="fill:#ffa500;stroke:#ffa500;" x="183.916104" xlink:href="#mb505d10ecf" y="34.768147"/>
    </g>
   </g>
   <g id="line2d_34">
    <path d="M 58.414766 298.245375 
L 58.414766 296.695509 
L 102.815366 296.695509 
L 102.815366 294.629021 
L 104.245578 294.629021 
L 104.245578 292.562533 
L 110.060263 292.562533 
L 110.060263 289.979423 
L 112.814645 289.979423 
L 112.814645 286.879691 
L 114.44014 286.879691 
L 114.44014 283.779959 
L 118.581998 283.779959 
L 118.581998 283.263337 
L 119.773647 283.263337 
L 119.773647 282.746715 
L 120.890768 282.746715 
L 120.890768 282.230093 
L 121.424184 282.230093 
L 121.424184 278.613738 
L 123.411577 278.613738 
L 123.411577 278.097116 
L 124.769302 278.097116 
L 124.769302 276.54725 
L 125.19988 276.54725 
L 125.19988 273.447518 
L 126.031105 273.447518 
L 126.031105 272.930896 
L 126.432652 272.930896 
L 126.432652 270.864408 
L 127.954262 270.864408 
L 127.954262 270.347786 
L 128.315246 270.347786 
L 128.315246 269.314542 
L 128.669082 269.314542 
L 128.669082 268.281298 
L 129.016046 268.281298 
L 129.016046 264.148322 
L 129.690395 264.148322 
L 129.690395 262.598456 
L 130.340216 262.598456 
L 130.340216 262.081834 
L 131.572989 262.081834 
L 131.572989 256.915614 
L 132.726171 256.915614 
L 132.726171 256.398992 
L 134.327371 256.398992 
L 134.327371 255.88237 
L 136.030384 255.88237 
L 136.030384 255.365748 
L 136.935292 255.365748 
L 136.935292 254.849126 
L 137.154536 254.849126 
L 137.154536 253.815882 
L 139.210608 253.815882 
L 139.210608 250.199528 
L 139.783966 250.199528 
L 139.783966 249.166284 
L 140.156232 249.166284 
L 140.156232 248.13304 
L 140.5209 248.13304 
L 140.5209 247.099796 
L 143.505841 247.099796 
L 143.505841 246.066551 
L 145.250457 246.066551 
L 145.250457 244.516685 
L 145.388435 244.516685 
L 145.388435 244.000063 
L 145.661236 244.000063 
L 145.661236 243.483441 
L 145.796091 243.483441 
L 145.796091 242.966819 
L 146.455505 242.966819 
L 146.455505 242.450197 
L 146.584518 242.450197 
L 146.584518 241.933575 
L 146.839781 241.933575 
L 146.839781 241.416953 
L 146.966058 241.416953 
L 146.966058 240.900331 
L 147.825858 240.900331 
L 147.825858 240.383709 
L 147.945378 240.383709 
L 147.945378 239.867087 
L 148.415618 239.867087 
L 148.415618 239.350465 
L 149.756356 239.350465 
L 149.756356 237.800599 
L 151.40056 237.800599 
L 151.40056 235.734111 
L 151.789013 235.734111 
L 151.789013 234.700867 
L 152.72473 234.700867 
L 152.815662 232.117757 
L 153.43955 232.117757 
L 153.43955 231.084513 
L 153.700403 231.084513 
L 153.786515 229.018025 
L 154.377948 229.018025 
L 154.377948 228.501403 
L 154.869762 228.501403 
L 154.950431 226.434915 
L 155.030737 226.434915 
L 155.030737 224.368427 
L 155.348401 224.368427 
L 155.426942 219.202207 
L 155.582997 219.202207 
L 155.582997 218.685585 
L 155.814552 218.685585 
L 155.891075 217.652341 
L 156.193932 217.652341 
L 156.193932 217.135719 
L 156.565424 217.135719 
L 156.638804 214.552609 
L 156.711885 214.552609 
L 156.784667 212.48612 
L 157.215245 212.48612 
L 157.215245 210.936254 
L 157.635691 210.936254 
L 157.635691 210.419632 
L 158.04647 210.419632 
L 158.04647 209.90301 
L 158.248372 209.90301 
L 158.248372 209.386388 
L 158.84074 209.386388 
L 158.84074 208.353144 
L 159.414097 208.353144 
L 159.414097 207.836522 
L 159.53905 207.836522 
L 159.53905 207.3199 
L 159.786363 207.3199 
L 159.786363 206.286656 
L 159.908748 206.286656 
L 159.908748 205.770034 
L 160.270952 205.770034 
L 160.270952 204.73679 
L 160.390073 204.73679 
L 160.449337 202.670302 
L 160.800853 202.670302 
L 160.800853 200.087192 
L 160.916504 200.087192 
L 160.916504 198.537326 
L 161.650527 198.537326 
L 161.650527 196.98746 
L 161.925004 196.98746 
L 161.979397 195.437594 
L 162.14159 195.437594 
L 162.248906 193.887728 
L 162.302324 193.887728 
L 162.408682 191.304618 
L 162.619517 191.304618 
L 162.619517 190.787996 
L 162.776028 190.787996 
L 162.776028 188.721508 
L 163.288043 188.721508 
L 163.338447 187.688264 
L 163.834815 187.688264 
L 163.834815 187.171642 
L 163.981076 187.171642 
L 164.077923 183.038666 
L 164.12615 183.038666 
L 164.12615 181.4888 
L 164.507351 181.4888 
L 164.601393 178.90569 
L 164.834358 178.90569 
L 164.9267 175.805957 
L 165.109964 175.805957 
L 165.109964 175.289335 
L 165.470948 175.289335 
L 165.470948 174.772713 
L 165.604459 174.772713 
L 165.604459 174.256091 
L 165.912159 174.256091 
L 165.912159 173.222847 
L 166.085637 173.222847 
L 166.171749 171.156359 
L 166.342737 171.156359 
L 166.427621 164.956895 
L 166.512104 164.956895 
L 166.596189 163.923651 
L 166.804688 163.923651 
L 166.887411 162.890407 
L 167.051716 162.890407 
L 167.051716 160.823919 
L 167.173962 160.823919 
L 167.254996 158.240809 
L 167.335665 158.240809 
L 167.415972 156.690943 
L 167.575509 156.690943 
L 167.654747 154.107833 
L 167.812177 154.107833 
L 167.812177 153.074589 
L 168.161402 153.074589 
L 168.161402 152.557967 
L 168.390483 152.557967 
L 168.42838 150.491479 
L 168.765878 150.491479 
L 168.876975 145.325259 
L 168.913855 145.325259 
L 169.024039 139.125794 
L 169.060616 139.125794 
L 169.133547 138.09255 
L 169.386487 138.09255 
L 169.386487 137.575928 
L 169.529433 137.575928 
L 169.564992 134.992818 
L 169.84694 134.992818 
L 169.84694 134.476196 
L 169.986263 134.476196 
L 170.05552 132.409708 
L 170.158903 132.409708 
L 170.261693 125.693622 
L 170.295825 125.693622 
L 170.295825 124.660378 
L 170.766951 124.660378 
L 170.766951 124.143756 
L 171.225974 124.143756 
L 171.32282 119.494158 
L 171.673499 119.494158 
L 171.673499 116.911048 
L 171.893127 116.911048 
L 171.893127 112.778072 
L 172.048368 112.778072 
L 172.048368 112.26145 
L 172.202272 112.26145 
L 172.202272 111.228206 
L 172.385224 111.228206 
L 172.445794 109.161717 
L 172.596326 109.161717 
L 172.596326 108.645095 
L 172.745601 108.645095 
L 172.745601 107.095229 
L 172.923101 107.095229 
L 172.981877 105.545363 
L 173.55925 105.545363 
L 173.55925 104.512119 
L 173.728885 104.512119 
L 173.757002 102.962253 
L 173.869028 102.962253 
L 173.869028 102.445631 
L 173.980356 102.445631 
L 174.063399 101.412387 
L 174.364631 101.412387 
L 174.418859 100.379143 
L 174.499894 100.379143 
L 174.499894 99.345899 
L 174.63414 99.345899 
L 174.740816 95.729545 
L 174.873271 95.729545 
L 174.925979 92.113191 
L 175.030932 92.113191 
L 175.030932 90.563325 
L 175.187214 90.563325 
L 175.187214 89.013459 
L 175.367832 89.013459 
L 175.367832 87.980215 
L 175.597404 87.980215 
L 175.622731 84.880483 
L 175.748829 84.880483 
L 175.799021 83.330617 
L 175.874045 83.330617 
L 175.874045 82.813995 
L 176.559481 82.813995 
L 176.583481 81.780751 
L 176.679161 81.780751 
L 176.703001 80.230885 
L 176.798044 80.230885 
L 176.892585 76.614531 
L 177.056836 76.614531 
L 177.056836 76.097908 
L 177.196432 76.097908 
L 177.288893 72.481554 
L 177.357926 72.481554 
L 177.403801 69.898444 
L 177.833833 69.898444 
L 177.900797 67.315334 
L 177.9453 67.315334 
L 177.9453 66.798712 
L 178.100195 66.798712 
L 178.100195 66.28209 
L 178.275589 66.28209 
L 178.275589 65.248846 
L 178.427659 65.248846 
L 178.513979 61.632492 
L 179.023318 61.632492 
L 179.106814 59.049382 
L 179.148416 59.049382 
L 179.148416 58.53276 
L 179.51854 58.53276 
L 179.51854 58.016138 
L 179.640231 58.016138 
L 179.720899 52.849918 
L 179.940879 52.849918 
L 179.940879 51.816674 
L 180.158183 51.816674 
L 180.158183 50.78343 
L 180.372876 50.78343 
L 180.372876 50.266808 
L 180.546636 50.266808 
L 180.623323 46.133832 
L 180.945621 46.133832 
L 181.020619 43.0341 
L 181.464111 43.0341 
L 181.464111 42.000855 
L 182.003431 42.000855 
L 182.109369 40.967611 
L 182.214682 40.967611 
L 182.214682 40.450989 
L 182.612729 40.450989 
L 182.612729 39.934367 
L 182.80001 39.934367 
L 182.850748 37.867879 
L 182.985348 37.867879 
L 182.985348 36.834635 
L 183.724144 36.834635 
L 183.724144 35.284769 
L 183.916104 35.284769 
L 183.916104 34.768147 
L 358.8 34.768147 
L 358.8 34.768147 
" style="fill:none;stroke:#ffa500;stroke-linecap:square;stroke-width:1.5;"/>
   </g>
   <g id="line2d_35">
    <defs>
     <path d="M 0 -6 
L -1.347084 -1.854102 
L -5.706339 -1.854102 
L -2.179628 0.708204 
L -3.526712 4.854102 
L -0 2.291796 
L 3.526712 4.854102 
L 2.179628 0.708204 
L 5.706339 -1.854102 
L 1.347084 -1.854102 
z
" id="m4466d3fb8e" style="stroke:#ffa500;stroke-linejoin:bevel;stroke-width:1.5;"/>
    </defs>
    <g>
     <use style="fill:none;stroke:#ffa500;stroke-linejoin:bevel;stroke-width:1.5;" x="148.415618" xlink:href="#m4466d3fb8e" y="239.350465"/>
     <use style="fill:none;stroke:#ffa500;stroke-linejoin:bevel;stroke-width:1.5;" x="171.673499" xlink:href="#m4466d3fb8e" y="119.494158"/>
     <use style="fill:none;stroke:#ffa500;stroke-linejoin:bevel;stroke-width:1.5;" x="183.916104" xlink:href="#m4466d3fb8e" y="35.284769"/>
     <use style="fill:none;stroke:#ffa500;stroke-linejoin:bevel;stroke-width:1.5;" x="183.916104" xlink:href="#m4466d3fb8e" y="34.768147"/>
     <use style="fill:none;stroke:#ffa500;stroke-linejoin:bevel;stroke-width:1.5;" x="183.916104" xlink:href="#m4466d3fb8e" y="34.768147"/>
     <use style="fill:none;stroke:#ffa500;stroke-linejoin:bevel;stroke-width:1.5;" x="358.8" xlink:href="#m4466d3fb8e" y="34.768147"/>
    </g>
   </g>
   <g id="line2d_36"/>
   <g id="line2d_37">
    <defs>
     <path d="M 0 1.5 
C 0.397805 1.5 0.77937 1.341951 1.06066 1.06066 
C 1.341951 0.77937 1.5 0.397805 1.5 0 
C 1.5 -0.397805 1.341951 -0.77937 1.06066 -1.06066 
C 0.77937 -1.341951 0.397805 -1.5 0 -1.5 
C -0.397805 -1.5 -0.77937 -1.341951 -1.06066 -1.06066 
C -1.341951 -0.77937 -1.5 -0.397805 -1.5 0 
C -1.5 0.397805 -1.341951 0.77937 -1.06066 1.06066 
C -0.77937 1.341951 -0.397805 1.5 0 1.5 
z
" id="m7672e95257" style="stroke:#6495ed;"/>
    </defs>
    <g>
     <use style="fill:#6495ed;stroke:#6495ed;" x="270.672558" xlink:href="#m7672e95257" y="34.768147"/>
     <use style="fill:#6495ed;stroke:#6495ed;" x="270.672558" xlink:href="#m7672e95257" y="34.768147"/>
    </g>
   </g>
   <g id="line2d_38">
    <path d="M 58.414766 298.245375 
L 58.414766 291.012667 
L 70.8 291.012667 
L 70.8 288.429557 
L 78.044898 288.429557 
L 78.044898 285.846447 
L 99.557623 285.846447 
L 99.557623 284.813203 
L 109.03895 284.813203 
L 109.03895 283.779959 
L 110.060263 283.779959 
L 110.060263 280.680226 
L 113.64587 280.680226 
L 113.64587 280.163604 
L 117.305161 280.163604 
L 117.305161 278.097116 
L 117.954982 278.097116 
L 117.954982 276.54725 
L 118.581998 276.54725 
L 118.581998 273.96414 
L 119.187755 273.96414 
L 119.187755 272.930896 
L 119.773647 272.930896 
L 119.773647 271.38103 
L 120.340936 271.38103 
L 120.340936 270.347786 
L 121.424184 270.347786 
L 121.424184 269.831164 
L 122.445497 269.831164 
L 122.445497 268.281298 
L 122.935065 268.281298 
L 122.935065 265.698188 
L 125.19988 265.698188 
L 125.19988 264.664944 
L 125.620325 264.664944 
L 125.620325 257.948858 
L 126.031105 257.948858 
L 126.031105 256.398992 
L 126.432652 256.398992 
L 126.432652 255.88237 
L 127.954262 255.88237 
L 127.954262 251.232772 
L 128.669082 251.232772 
L 128.669082 250.71615 
L 129.690395 250.71615 
L 129.690395 248.13304 
L 131.572989 248.13304 
L 131.572989 247.099796 
L 134.580824 247.099796 
L 134.580824 246.583173 
L 135.077192 246.583173 
L 135.077192 245.549929 
L 135.3203 245.549929 
L 135.3203 245.033307 
L 136.713325 245.033307 
L 136.713325 242.450197 
L 137.154536 242.450197 
L 137.154536 241.933575 
L 137.585114 241.933575 
L 137.585114 238.833843 
L 140.70048 238.833843 
L 140.70048 237.800599 
L 141.054316 237.800599 
L 141.054316 237.283977 
L 141.909413 237.283977 
L 141.909413 236.250733 
L 142.240313 236.250733 
L 142.240313 235.734111 
L 142.565197 235.734111 
L 142.565197 234.700867 
L 144.687635 234.700867 
L 144.687635 233.667623 
L 146.966058 233.667623 
L 146.966058 232.117757 
L 149.098559 232.117757 
L 149.098559 231.084513 
L 149.430484 231.084513 
L 149.430484 229.018025 
L 150.181807 229.018025 
L 150.181807 228.501403 
L 152.541466 228.501403 
L 152.541466 222.301939 
L 152.72473 222.301939 
L 152.72473 215.585853 
L 154.460863 215.585853 
L 154.460863 208.869766 
L 156.343457 208.869766 
L 156.343457 200.087192 
L 156.857155 200.087192 
L 156.857155 199.57057 
L 157.426705 199.57057 
L 157.426705 198.537326 
L 158.514074 198.537326 
L 158.514074 198.020704 
L 160.330612 198.020704 
L 160.330612 196.98746 
L 164.972692 196.98746 
L 164.972692 195.954216 
L 168.840019 195.954216 
L 168.840019 195.437594 
L 171.128599 195.437594 
L 171.128599 193.371106 
L 186.640913 193.371106 
L 186.640913 192.337862 
L 189.512004 192.337862 
L 189.512004 191.82124 
L 209.993971 191.82124 
L 210.097191 189.754752 
L 210.170557 189.754752 
L 210.225384 188.204886 
L 210.283681 188.204886 
L 210.283681 187.171642 
L 210.396094 187.171642 
L 210.461043 184.588532 
L 210.583083 184.588532 
L 210.661609 169.606493 
L 210.746881 169.606493 
L 210.856426 161.857163 
L 210.958299 161.857163 
L 211.010765 159.274053 
L 211.809893 159.274053 
L 211.809893 158.757431 
L 222.408758 158.757431 
L 222.491613 155.657699 
L 222.522814 155.657699 
L 222.621563 148.941613 
L 222.657999 148.941613 
L 222.757816 137.575928 
L 222.810223 137.575928 
L 222.810223 137.059306 
L 223.253986 137.059306 
L 223.253986 136.542684 
L 229.631495 136.542684 
L 229.702801 133.442952 
L 229.744469 133.442952 
L 229.838476 118.977536 
L 229.873754 118.977536 
L 229.873754 118.460914 
L 234.733912 118.460914 
L 234.82718 110.194961 
L 234.845591 110.194961 
L 234.922712 102.962253 
L 238.73828 102.962253 
L 238.821702 91.596569 
L 238.854814 91.596569 
L 238.920124 90.563325 
L 241.989608 90.563325 
L 242.048114 80.230885 
L 242.130315 80.230885 
L 242.130315 79.714263 
L 242.684096 79.714263 
L 242.684096 79.197641 
L 244.747867 79.197641 
L 244.788525 71.964932 
L 247.120998 71.964932 
L 247.211032 63.69898 
L 249.19457 63.69898 
L 249.295676 59.049382 
L 251.090925 59.049382 
L 251.129433 55.94965 
L 252.769121 55.94965 
L 252.804516 52.849918 
L 254.335937 52.849918 
L 254.396111 48.716942 
L 255.746975 48.716942 
L 255.791763 46.133832 
L 257.067962 46.133832 
L 257.133366 43.550722 
L 258.31159 43.550722 
L 258.337305 42.000855 
L 259.479133 42.000855 
L 259.485854 40.967611 
L 259.717898 40.967611 
L 259.717898 40.450989 
L 260.542313 40.450989 
L 260.555194 38.384501 
L 262.525199 38.384501 
L 262.529107 37.351257 
L 265.940568 37.351257 
L 265.941859 36.318013 
L 268.800781 36.318013 
L 268.800781 35.801391 
L 269.444174 35.801391 
L 269.444174 35.284769 
L 270.672558 35.284769 
L 270.672558 34.768147 
L 358.8 34.768147 
L 358.8 34.768147 
" style="fill:none;stroke:#6495ed;stroke-linecap:square;stroke-width:1.5;"/>
   </g>
   <g id="line2d_39">
    <defs>
     <path d="M -0 6 
L 6 -6 
L -6 -6 
z
" id="mdf6d0c1126" style="stroke:#6495ed;stroke-linejoin:miter;stroke-width:1.5;"/>
    </defs>
    <g>
     <use style="fill:none;stroke:#6495ed;stroke-linejoin:miter;stroke-width:1.5;" x="113.64587" xlink:href="#mdf6d0c1126" y="280.680226"/>
     <use style="fill:none;stroke:#6495ed;stroke-linejoin:miter;stroke-width:1.5;" x="168.840019" xlink:href="#mdf6d0c1126" y="195.437594"/>
     <use style="fill:none;stroke:#6495ed;stroke-linejoin:miter;stroke-width:1.5;" x="229.659806" xlink:href="#mdf6d0c1126" y="134.992818"/>
     <use style="fill:none;stroke:#6495ed;stroke-linejoin:miter;stroke-width:1.5;" x="270.672558" xlink:href="#mdf6d0c1126" y="35.284769"/>
     <use style="fill:none;stroke:#6495ed;stroke-linejoin:miter;stroke-width:1.5;" x="270.672558" xlink:href="#mdf6d0c1126" y="34.768147"/>
     <use style="fill:none;stroke:#6495ed;stroke-linejoin:miter;stroke-width:1.5;" x="358.8" xlink:href="#mdf6d0c1126" y="34.768147"/>
    </g>
   </g>
   <g id="line2d_40"/>
   <g id="line2d_41">
    <path clip-path="url(#p004f2d4366)" d="M 209.87527 191.82124 
" style="fill:none;stroke:#6495ed;stroke-linecap:square;stroke-width:1.5;"/>
    <defs>
     <path d="M -12 12 
L 12 -12 
M -12 -12 
L 12 12 
" id="mca7794d555" style="stroke:#6495ed;stroke-width:3;"/>
    </defs>
    <g clip-path="url(#p004f2d4366)">
     <use style="fill:#6495ed;stroke:#6495ed;stroke-width:3;" x="209.87527" xlink:href="#mca7794d555" y="191.82124"/>
    </g>
   </g>
   <g id="line2d_42">
    <path d="M 358.8 81.264129 
L 390.48 292.97583 
" style="fill:none;stroke:#000080;stroke-linecap:square;stroke-width:1.5;"/>
    <g>
     <use style="fill:none;stroke:#000080;stroke-width:1.5;" x="358.8" xlink:href="#mde965454b6" y="81.264129"/>
     <use style="fill:none;stroke:#000080;stroke-width:1.5;" x="390.48" xlink:href="#mde965454b6" y="292.97583"/>
    </g>
   </g>
   <g id="line2d_43">
    <path d="M 358.8 34.768147 
L 390.48 208.663118 
" style="fill:none;stroke:#6495ed;stroke-linecap:square;stroke-width:1.5;"/>
    <g>
     <use style="fill:none;stroke:#6495ed;stroke-linejoin:miter;stroke-width:1.5;" x="358.8" xlink:href="#mdf6d0c1126" y="34.768147"/>
     <use style="fill:none;stroke:#6495ed;stroke-linejoin:miter;stroke-width:1.5;" x="390.48" xlink:href="#mdf6d0c1126" y="208.663118"/>
    </g>
   </g>
   <g id="line2d_44">
    <path d="M 358.8 34.768147 
L 390.48 124.350405 
" style="fill:none;stroke:#ff00ff;stroke-linecap:square;stroke-width:1.5;"/>
    <g>
     <use style="fill:none;stroke:#ff00ff;stroke-linejoin:miter;stroke-width:1.5;" x="358.8" xlink:href="#m66b84c7bef" y="34.768147"/>
     <use style="fill:none;stroke:#ff00ff;stroke-linejoin:miter;stroke-width:1.5;" x="390.48" xlink:href="#m66b84c7bef" y="124.350405"/>
    </g>
   </g>
   <g id="line2d_45">
    <path d="M 358.8 34.768147 
L 390.48 40.037692 
" style="fill:none;stroke:#ffa500;stroke-linecap:square;stroke-width:1.5;"/>
    <g>
     <use style="fill:none;stroke:#ffa500;stroke-linejoin:bevel;stroke-width:1.5;" x="358.8" xlink:href="#m4466d3fb8e" y="34.768147"/>
     <use style="fill:none;stroke:#ffa500;stroke-linejoin:bevel;stroke-width:1.5;" x="390.48" xlink:href="#m4466d3fb8e" y="40.037692"/>
    </g>
   </g>
   <g id="line2d_46">
    <path d="M 358.8 298.245375 
L 358.8 34.768147 
" style="fill:none;stroke:#000000;stroke-linecap:square;stroke-width:1.5;"/>
   </g>
   <g id="patch_3">
    <path d="M 70.8 298.245375 
L 70.8 32.133375 
" style="fill:none;stroke:#000000;stroke-linecap:square;stroke-linejoin:miter;stroke-width:0.8;"/>
   </g>
   <g id="patch_4">
    <path d="M 427.92 298.245375 
L 427.92 32.133375 
" style="fill:none;stroke:#000000;stroke-linecap:square;stroke-linejoin:miter;stroke-width:0.8;"/>
   </g>
   <g id="patch_5">
    <path d="M 70.8 298.245375 
L 427.92 298.245375 
" style="fill:none;stroke:#000000;stroke-linecap:square;stroke-linejoin:miter;stroke-width:0.8;"/>
   </g>
   <g id="patch_6">
    <path d="M 70.8 32.133375 
L 427.92 32.133375 
" style="fill:none;stroke:#000000;stroke-linecap:square;stroke-linejoin:miter;stroke-width:0.8;"/>
   </g>
   <g id="text_14">
    <!-- f8 -->
    <g transform="translate(396.24 297.114893)scale(0.15 -0.15)">
     <use xlink:href="#DejaVuSans-66"/>
     <use x="35.205078" xlink:href="#DejaVuSans-38"/>
    </g>
   </g>
   <g id="text_15">
    <!-- f7 -->
    <defs>
     <path d="M 8.203125 72.90625 
L 55.078125 72.90625 
L 55.078125 68.703125 
L 28.609375 0 
L 18.3125 0 
L 43.21875 64.59375 
L 8.203125 64.59375 
z
" id="DejaVuSans-37"/>
    </defs>
    <g transform="translate(396.24 212.80218)scale(0.15 -0.15)">
     <use xlink:href="#DejaVuSans-66"/>
     <use x="35.205078" xlink:href="#DejaVuSans-37"/>
    </g>
   </g>
   <g id="text_16">
    <!-- f9 -->
    <defs>
     <path d="M 10.984375 1.515625 
L 10.984375 10.5 
Q 14.703125 8.734375 18.5 7.8125 
Q 22.3125 6.890625 25.984375 6.890625 
Q 35.75 6.890625 40.890625 13.453125 
Q 46.046875 20.015625 46.78125 33.40625 
Q 43.953125 29.203125 39.59375 26.953125 
Q 35.25 24.703125 29.984375 24.703125 
Q 19.046875 24.703125 12.671875 31.3125 
Q 6.296875 37.9375 6.296875 49.421875 
Q 6.296875 60.640625 12.9375 67.421875 
Q 19.578125 74.21875 30.609375 74.21875 
Q 43.265625 74.21875 49.921875 64.515625 
Q 56.59375 54.828125 56.59375 36.375 
Q 56.59375 19.140625 48.40625 8.859375 
Q 40.234375 -1.421875 26.421875 -1.421875 
Q 22.703125 -1.421875 18.890625 -0.6875 
Q 15.09375 0.046875 10.984375 1.515625 
z
M 30.609375 32.421875 
Q 37.25 32.421875 41.125 36.953125 
Q 45.015625 41.5 45.015625 49.421875 
Q 45.015625 57.28125 41.125 61.84375 
Q 37.25 66.40625 30.609375 66.40625 
Q 23.96875 66.40625 20.09375 61.84375 
Q 16.21875 57.28125 16.21875 49.421875 
Q 16.21875 41.5 20.09375 36.953125 
Q 23.96875 32.421875 30.609375 32.421875 
z
" id="DejaVuSans-39"/>
    </defs>
    <g transform="translate(396.24 128.489467)scale(0.15 -0.15)">
     <use xlink:href="#DejaVuSans-66"/>
     <use x="35.205078" xlink:href="#DejaVuSans-39"/>
    </g>
   </g>
   <g id="text_17">
    <!-- f6 -->
    <g transform="translate(396.24 44.176754)scale(0.15 -0.15)">
     <use xlink:href="#DejaVuSans-66"/>
     <use x="35.205078" xlink:href="#DejaVuSans-36"/>
    </g>
   </g>
   <g id="text_18">
    <!-- bbob -->
    <defs>
     <path d="M 48.6875 27.296875 
Q 48.6875 37.203125 44.609375 42.84375 
Q 40.53125 48.484375 33.40625 48.484375 
Q 26.265625 48.484375 22.1875 42.84375 
Q 18.109375 37.203125 18.109375 27.296875 
Q 18.109375 17.390625 22.1875 11.75 
Q 26.265625 6.109375 33.40625 6.109375 
Q 40.53125 6.109375 44.609375 11.75 
Q 48.6875 17.390625 48.6875 27.296875 
z
M 18.109375 46.390625 
Q 20.953125 51.265625 25.265625 53.625 
Q 29.59375 56 35.59375 56 
Q 45.5625 56 51.78125 48.09375 
Q 58.015625 40.1875 58.015625 27.296875 
Q 58.015625 14.40625 51.78125 6.484375 
Q 45.5625 -1.421875 35.59375 -1.421875 
Q 29.59375 -1.421875 25.265625 0.953125 
Q 20.953125 3.328125 18.109375 8.203125 
L 18.109375 0 
L 9.078125 0 
L 9.078125 75.984375 
L 18.109375 75.984375 
z
" id="DejaVuSans-62"/>
    </defs>
    <g transform="translate(74.3712 50.114612)scale(0.1666 -0.1666)">
     <use xlink:href="#DejaVuSans-62"/>
     <use x="63.476562" xlink:href="#DejaVuSans-62"/>
     <use x="126.953125" xlink:href="#DejaVuSans-6f"/>
     <use x="188.134766" xlink:href="#DejaVuSans-62"/>
    </g>
    <!-- Misc. moderate functions, 2-D -->
    <defs>
     <path d="M 9.8125 72.90625 
L 24.515625 72.90625 
L 43.109375 23.296875 
L 61.8125 72.90625 
L 76.515625 72.90625 
L 76.515625 0 
L 66.890625 0 
L 66.890625 64.015625 
L 48.09375 14.015625 
L 38.1875 14.015625 
L 19.390625 64.015625 
L 19.390625 0 
L 9.8125 0 
z
" id="DejaVuSans-4d"/>
     <path d="M 11.71875 12.40625 
L 22.015625 12.40625 
L 22.015625 4 
L 14.015625 -11.625 
L 7.71875 -11.625 
L 11.71875 4 
z
" id="DejaVuSans-2c"/>
     <path d="M 19.671875 64.796875 
L 19.671875 8.109375 
L 31.59375 8.109375 
Q 46.6875 8.109375 53.6875 14.9375 
Q 60.6875 21.78125 60.6875 36.53125 
Q 60.6875 51.171875 53.6875 57.984375 
Q 46.6875 64.796875 31.59375 64.796875 
z
M 9.8125 72.90625 
L 30.078125 72.90625 
Q 51.265625 72.90625 61.171875 64.09375 
Q 71.09375 55.28125 71.09375 36.53125 
Q 71.09375 17.671875 61.125 8.828125 
Q 51.171875 0 30.078125 0 
L 9.8125 0 
z
" id="DejaVuSans-44"/>
    </defs>
    <g transform="translate(74.3712 68.770168)scale(0.1666 -0.1666)">
     <use xlink:href="#DejaVuSans-4d"/>
     <use x="86.279297" xlink:href="#DejaVuSans-69"/>
     <use x="114.0625" xlink:href="#DejaVuSans-73"/>
     <use x="166.162109" xlink:href="#DejaVuSans-63"/>
     <use x="221.142578" xlink:href="#DejaVuSans-2e"/>
     <use x="252.929688" xlink:href="#DejaVuSans-20"/>
     <use x="284.716797" xlink:href="#DejaVuSans-6d"/>
     <use x="382.128906" xlink:href="#DejaVuSans-6f"/>
     <use x="443.310547" xlink:href="#DejaVuSans-64"/>
     <use x="506.787109" xlink:href="#DejaVuSans-65"/>
     <use x="568.310547" xlink:href="#DejaVuSans-72"/>
     <use x="609.423828" xlink:href="#DejaVuSans-61"/>
     <use x="670.703125" xlink:href="#DejaVuSans-74"/>
     <use x="709.912109" xlink:href="#DejaVuSans-65"/>
     <use x="771.435547" xlink:href="#DejaVuSans-20"/>
     <use x="803.222656" xlink:href="#DejaVuSans-66"/>
     <use x="838.427734" xlink:href="#DejaVuSans-75"/>
     <use x="901.806641" xlink:href="#DejaVuSans-6e"/>
     <use x="965.185547" xlink:href="#DejaVuSans-63"/>
     <use x="1020.166016" xlink:href="#DejaVuSans-74"/>
     <use x="1059.375" xlink:href="#DejaVuSans-69"/>
     <use x="1087.158203" xlink:href="#DejaVuSans-6f"/>
     <use x="1148.339844" xlink:href="#DejaVuSans-6e"/>
     <use x="1211.71875" xlink:href="#DejaVuSans-73"/>
     <use x="1263.818359" xlink:href="#DejaVuSans-2c"/>
     <use x="1295.605469" xlink:href="#DejaVuSans-20"/>
     <use x="1327.392578" xlink:href="#DejaVuSans-32"/>
     <use x="1391.015625" xlink:href="#DejaVuSans-2d"/>
     <use x="1427.099609" xlink:href="#DejaVuSans-44"/>
    </g>
    <!-- 51 targets in 100..1e-08 -->
    <defs>
     <path d="M 10.796875 72.90625 
L 49.515625 72.90625 
L 49.515625 64.59375 
L 19.828125 64.59375 
L 19.828125 46.734375 
Q 21.96875 47.46875 24.109375 47.828125 
Q 26.265625 48.1875 28.421875 48.1875 
Q 40.625 48.1875 47.75 41.5 
Q 54.890625 34.8125 54.890625 23.390625 
Q 54.890625 11.625 47.5625 5.09375 
Q 40.234375 -1.421875 26.90625 -1.421875 
Q 22.3125 -1.421875 17.546875 -0.640625 
Q 12.796875 0.140625 7.71875 1.703125 
L 7.71875 11.625 
Q 12.109375 9.234375 16.796875 8.0625 
Q 21.484375 6.890625 26.703125 6.890625 
Q 35.15625 6.890625 40.078125 11.328125 
Q 45.015625 15.765625 45.015625 23.390625 
Q 45.015625 31 40.078125 35.4375 
Q 35.15625 39.890625 26.703125 39.890625 
Q 22.75 39.890625 18.8125 39.015625 
Q 14.890625 38.140625 10.796875 36.28125 
z
" id="DejaVuSans-35"/>
    </defs>
    <g transform="translate(74.3712 87.425723)scale(0.1666 -0.1666)">
     <use xlink:href="#DejaVuSans-35"/>
     <use x="63.623047" xlink:href="#DejaVuSans-31"/>
     <use x="127.246094" xlink:href="#DejaVuSans-20"/>
     <use x="159.033203" xlink:href="#DejaVuSans-74"/>
     <use x="198.242188" xlink:href="#DejaVuSans-61"/>
     <use x="259.521484" xlink:href="#DejaVuSans-72"/>
     <use x="300.619141" xlink:href="#DejaVuSans-67"/>
     <use x="364.095703" xlink:href="#DejaVuSans-65"/>
     <use x="425.619141" xlink:href="#DejaVuSans-74"/>
     <use x="464.828125" xlink:href="#DejaVuSans-73"/>
     <use x="516.927734" xlink:href="#DejaVuSans-20"/>
     <use x="548.714844" xlink:href="#DejaVuSans-69"/>
     <use x="576.498047" xlink:href="#DejaVuSans-6e"/>
     <use x="639.876953" xlink:href="#DejaVuSans-20"/>
     <use x="671.664062" xlink:href="#DejaVuSans-31"/>
     <use x="735.287109" xlink:href="#DejaVuSans-30"/>
     <use x="798.910156" xlink:href="#DejaVuSans-30"/>
     <use x="862.533203" xlink:href="#DejaVuSans-2e"/>
     <use x="894.320312" xlink:href="#DejaVuSans-2e"/>
     <use x="926.107422" xlink:href="#DejaVuSans-31"/>
     <use x="989.730469" xlink:href="#DejaVuSans-65"/>
     <use x="1051.253906" xlink:href="#DejaVuSans-2d"/>
     <use x="1087.337891" xlink:href="#DejaVuSans-30"/>
     <use x="1150.960938" xlink:href="#DejaVuSans-38"/>
    </g>
    <!-- 15 instances -->
    <g transform="translate(74.3712 106.081279)scale(0.1666 -0.1666)">
     <use xlink:href="#DejaVuSans-31"/>
     <use x="63.623047" xlink:href="#DejaVuSans-35"/>
     <use x="127.246094" xlink:href="#DejaVuSans-20"/>
     <use x="159.033203" xlink:href="#DejaVuSans-69"/>
     <use x="186.816406" xlink:href="#DejaVuSans-6e"/>
     <use x="250.195312" xlink:href="#DejaVuSans-73"/>
     <use x="302.294922" xlink:href="#DejaVuSans-74"/>
     <use x="341.503906" xlink:href="#DejaVuSans-61"/>
     <use x="402.783203" xlink:href="#DejaVuSans-6e"/>
     <use x="466.162109" xlink:href="#DejaVuSans-63"/>
     <use x="521.142578" xlink:href="#DejaVuSans-65"/>
     <use x="582.666016" xlink:href="#DejaVuSans-73"/>
    </g>
   </g>
   <g id="text_19">
    <!-- v2.1 -->
    <g style="fill:#808080;" transform="translate(238.449063 293.504568)scale(0.1 -0.1)">
     <use xlink:href="#DejaVuSans-76"/>
     <use x="59.179688" xlink:href="#DejaVuSans-32"/>
     <use x="122.802734" xlink:href="#DejaVuSans-2e"/>
     <use x="154.589844" xlink:href="#DejaVuSans-31"/>
    </g>
   </g>
  </g>
 </g>
 <defs>
  <clipPath id="p004f2d4366">
   <rect height="266.112" width="357.12" x="70.8" y="32.133375"/>
  </clipPath>
 </defs>
</svg>
