<?xml version="1.0" encoding="utf-8" standalone="no"?>
<!DOCTYPE svg PUBLIC "-//W3C//DTD SVG 1.1//EN"
  "http://www.w3.org/Graphics/SVG/1.1/DTD/svg11.dtd">
<!-- Created with matplotlib (http://matplotlib.org/) -->
<svg height="353pt" version="1.1" viewBox="0 0 438 353" width="438pt" xmlns="http://www.w3.org/2000/svg" xmlns:xlink="http://www.w3.org/1999/xlink">
 <defs>
  <style type="text/css">
*{stroke-linecap:butt;stroke-linejoin:round;}
  </style>
 </defs>
 <g id="figure_1">
  <g id="patch_1">
   <path d="M 0 353.22225 
L 438.62 353.22225 
L 438.62 0 
L 0 0 
z
" style="fill:#ffffff;"/>
  </g>
  <g id="axes_1">
   <g id="patch_2">
    <path d="M 70.8 298.245375 
L 427.92 298.245375 
L 427.92 32.133375 
L 70.8 32.133375 
z
" style="fill:#ffffff;"/>
   </g>
   <g id="matplotlib.axis_1">
    <g id="xtick_1">
     <g id="line2d_1">
      <path clip-path="url(#pfa5d919d89)" d="M 70.8 298.245375 
L 70.8 32.133375 
" style="fill:none;stroke:#b0b0b0;stroke-linecap:square;stroke-width:0.8;"/>
     </g>
     <g id="line2d_2">
      <defs>
       <path d="M 0 0 
L 0 3.5 
" id="m2c47fc5367" style="stroke:#000000;stroke-width:0.8;"/>
      </defs>
      <g>
       <use style="stroke:#000000;stroke-width:0.8;" x="70.8" xlink:href="#m2c47fc5367" y="298.245375"/>
      </g>
     </g>
     <g id="text_1">
      <!-- 0 -->
      <defs>
       <path d="M 31.78125 66.40625 
Q 24.171875 66.40625 20.328125 58.90625 
Q 16.5 51.421875 16.5 36.375 
Q 16.5 21.390625 20.328125 13.890625 
Q 24.171875 6.390625 31.78125 6.390625 
Q 39.453125 6.390625 43.28125 13.890625 
Q 47.125 21.390625 47.125 36.375 
Q 47.125 51.421875 43.28125 58.90625 
Q 39.453125 66.40625 31.78125 66.40625 
z
M 31.78125 74.21875 
Q 44.046875 74.21875 50.515625 64.515625 
Q 56.984375 54.828125 56.984375 36.375 
Q 56.984375 17.96875 50.515625 8.265625 
Q 44.046875 -1.421875 31.78125 -1.421875 
Q 19.53125 -1.421875 13.0625 8.265625 
Q 6.59375 17.96875 6.59375 36.375 
Q 6.59375 54.828125 13.0625 64.515625 
Q 19.53125 74.21875 31.78125 74.21875 
z
" id="DejaVuSans-30"/>
      </defs>
      <g transform="translate(64.4375 320.44225)scale(0.2 -0.2)">
       <use xlink:href="#DejaVuSans-30"/>
      </g>
     </g>
    </g>
    <g id="xtick_2">
     <g id="line2d_3">
      <path clip-path="url(#pfa5d919d89)" d="M 153.085714 298.245375 
L 153.085714 32.133375 
" style="fill:none;stroke:#b0b0b0;stroke-linecap:square;stroke-width:0.8;"/>
     </g>
     <g id="line2d_4">
      <g>
       <use style="stroke:#000000;stroke-width:0.8;" x="153.085714" xlink:href="#m2c47fc5367" y="298.245375"/>
      </g>
     </g>
     <g id="text_2">
      <!-- 2 -->
      <defs>
       <path d="M 19.1875 8.296875 
L 53.609375 8.296875 
L 53.609375 0 
L 7.328125 0 
L 7.328125 8.296875 
Q 12.9375 14.109375 22.625 23.890625 
Q 32.328125 33.6875 34.8125 36.53125 
Q 39.546875 41.84375 41.421875 45.53125 
Q 43.3125 49.21875 43.3125 52.78125 
Q 43.3125 58.59375 39.234375 62.25 
Q 35.15625 65.921875 28.609375 65.921875 
Q 23.96875 65.921875 18.8125 64.3125 
Q 13.671875 62.703125 7.8125 59.421875 
L 7.8125 69.390625 
Q 13.765625 71.78125 18.9375 73 
Q 24.125 74.21875 28.421875 74.21875 
Q 39.75 74.21875 46.484375 68.546875 
Q 53.21875 62.890625 53.21875 53.421875 
Q 53.21875 48.921875 51.53125 44.890625 
Q 49.859375 40.875 45.40625 35.40625 
Q 44.1875 33.984375 37.640625 27.21875 
Q 31.109375 20.453125 19.1875 8.296875 
z
" id="DejaVuSans-32"/>
      </defs>
      <g transform="translate(146.723214 320.44225)scale(0.2 -0.2)">
       <use xlink:href="#DejaVuSans-32"/>
      </g>
     </g>
    </g>
    <g id="xtick_3">
     <g id="line2d_5">
      <path clip-path="url(#pfa5d919d89)" d="M 235.371429 298.245375 
L 235.371429 32.133375 
" style="fill:none;stroke:#b0b0b0;stroke-linecap:square;stroke-width:0.8;"/>
     </g>
     <g id="line2d_6">
      <g>
       <use style="stroke:#000000;stroke-width:0.8;" x="235.371429" xlink:href="#m2c47fc5367" y="298.245375"/>
      </g>
     </g>
     <g id="text_3">
      <!-- 4 -->
      <defs>
       <path d="M 37.796875 64.3125 
L 12.890625 25.390625 
L 37.796875 25.390625 
z
M 35.203125 72.90625 
L 47.609375 72.90625 
L 47.609375 25.390625 
L 58.015625 25.390625 
L 58.015625 17.1875 
L 47.609375 17.1875 
L 47.609375 0 
L 37.796875 0 
L 37.796875 17.1875 
L 4.890625 17.1875 
L 4.890625 26.703125 
z
" id="DejaVuSans-34"/>
      </defs>
      <g transform="translate(229.008929 320.44225)scale(0.2 -0.2)">
       <use xlink:href="#DejaVuSans-34"/>
      </g>
     </g>
    </g>
    <g id="xtick_4">
     <g id="line2d_7">
      <path clip-path="url(#pfa5d919d89)" d="M 317.657143 298.245375 
L 317.657143 32.133375 
" style="fill:none;stroke:#b0b0b0;stroke-linecap:square;stroke-width:0.8;"/>
     </g>
     <g id="line2d_8">
      <g>
       <use style="stroke:#000000;stroke-width:0.8;" x="317.657143" xlink:href="#m2c47fc5367" y="298.245375"/>
      </g>
     </g>
     <g id="text_4">
      <!-- 6 -->
      <defs>
       <path d="M 33.015625 40.375 
Q 26.375 40.375 22.484375 35.828125 
Q 18.609375 31.296875 18.609375 23.390625 
Q 18.609375 15.53125 22.484375 10.953125 
Q 26.375 6.390625 33.015625 6.390625 
Q 39.65625 6.390625 43.53125 10.953125 
Q 47.40625 15.53125 47.40625 23.390625 
Q 47.40625 31.296875 43.53125 35.828125 
Q 39.65625 40.375 33.015625 40.375 
z
M 52.59375 71.296875 
L 52.59375 62.3125 
Q 48.875 64.0625 45.09375 64.984375 
Q 41.3125 65.921875 37.59375 65.921875 
Q 27.828125 65.921875 22.671875 59.328125 
Q 17.53125 52.734375 16.796875 39.40625 
Q 19.671875 43.65625 24.015625 45.921875 
Q 28.375 48.1875 33.59375 48.1875 
Q 44.578125 48.1875 50.953125 41.515625 
Q 57.328125 34.859375 57.328125 23.390625 
Q 57.328125 12.15625 50.6875 5.359375 
Q 44.046875 -1.421875 33.015625 -1.421875 
Q 20.359375 -1.421875 13.671875 8.265625 
Q 6.984375 17.96875 6.984375 36.375 
Q 6.984375 53.65625 15.1875 63.9375 
Q 23.390625 74.21875 37.203125 74.21875 
Q 40.921875 74.21875 44.703125 73.484375 
Q 48.484375 72.75 52.59375 71.296875 
z
" id="DejaVuSans-36"/>
      </defs>
      <g transform="translate(311.294643 320.44225)scale(0.2 -0.2)">
       <use xlink:href="#DejaVuSans-36"/>
      </g>
     </g>
    </g>
    <g id="xtick_5">
     <g id="line2d_9">
      <path clip-path="url(#pfa5d919d89)" d="M 399.942857 298.245375 
L 399.942857 32.133375 
" style="fill:none;stroke:#b0b0b0;stroke-linecap:square;stroke-width:0.8;"/>
     </g>
     <g id="line2d_10">
      <g>
       <use style="stroke:#000000;stroke-width:0.8;" x="399.942857" xlink:href="#m2c47fc5367" y="298.245375"/>
      </g>
     </g>
     <g id="text_5">
      <!-- 8 -->
      <defs>
       <path d="M 31.78125 34.625 
Q 24.75 34.625 20.71875 30.859375 
Q 16.703125 27.09375 16.703125 20.515625 
Q 16.703125 13.921875 20.71875 10.15625 
Q 24.75 6.390625 31.78125 6.390625 
Q 38.8125 6.390625 42.859375 10.171875 
Q 46.921875 13.96875 46.921875 20.515625 
Q 46.921875 27.09375 42.890625 30.859375 
Q 38.875 34.625 31.78125 34.625 
z
M 21.921875 38.8125 
Q 15.578125 40.375 12.03125 44.71875 
Q 8.5 49.078125 8.5 55.328125 
Q 8.5 64.0625 14.71875 69.140625 
Q 20.953125 74.21875 31.78125 74.21875 
Q 42.671875 74.21875 48.875 69.140625 
Q 55.078125 64.0625 55.078125 55.328125 
Q 55.078125 49.078125 51.53125 44.71875 
Q 48 40.375 41.703125 38.8125 
Q 48.828125 37.15625 52.796875 32.3125 
Q 56.78125 27.484375 56.78125 20.515625 
Q 56.78125 9.90625 50.3125 4.234375 
Q 43.84375 -1.421875 31.78125 -1.421875 
Q 19.734375 -1.421875 13.25 4.234375 
Q 6.78125 9.90625 6.78125 20.515625 
Q 6.78125 27.484375 10.78125 32.3125 
Q 14.796875 37.15625 21.921875 38.8125 
z
M 18.3125 54.390625 
Q 18.3125 48.734375 21.84375 45.5625 
Q 25.390625 42.390625 31.78125 42.390625 
Q 38.140625 42.390625 41.71875 45.5625 
Q 45.3125 48.734375 45.3125 54.390625 
Q 45.3125 60.0625 41.71875 63.234375 
Q 38.140625 66.40625 31.78125 66.40625 
Q 25.390625 66.40625 21.84375 63.234375 
Q 18.3125 60.0625 18.3125 54.390625 
z
" id="DejaVuSans-38"/>
      </defs>
      <g transform="translate(393.580357 320.44225)scale(0.2 -0.2)">
       <use xlink:href="#DejaVuSans-38"/>
      </g>
     </g>
    </g>
    <g id="text_6">
     <!-- log10 of (# f-evals / dimension) -->
     <defs>
      <path d="M 9.421875 75.984375 
L 18.40625 75.984375 
L 18.40625 0 
L 9.421875 0 
z
" id="DejaVuSans-6c"/>
      <path d="M 30.609375 48.390625 
Q 23.390625 48.390625 19.1875 42.75 
Q 14.984375 37.109375 14.984375 27.296875 
Q 14.984375 17.484375 19.15625 11.84375 
Q 23.34375 6.203125 30.609375 6.203125 
Q 37.796875 6.203125 41.984375 11.859375 
Q 46.1875 17.53125 46.1875 27.296875 
Q 46.1875 37.015625 41.984375 42.703125 
Q 37.796875 48.390625 30.609375 48.390625 
z
M 30.609375 56 
Q 42.328125 56 49.015625 48.375 
Q 55.71875 40.765625 55.71875 27.296875 
Q 55.71875 13.875 49.015625 6.21875 
Q 42.328125 -1.421875 30.609375 -1.421875 
Q 18.84375 -1.421875 12.171875 6.21875 
Q 5.515625 13.875 5.515625 27.296875 
Q 5.515625 40.765625 12.171875 48.375 
Q 18.84375 56 30.609375 56 
z
" id="DejaVuSans-6f"/>
      <path d="M 45.40625 27.984375 
Q 45.40625 37.75 41.375 43.109375 
Q 37.359375 48.484375 30.078125 48.484375 
Q 22.859375 48.484375 18.828125 43.109375 
Q 14.796875 37.75 14.796875 27.984375 
Q 14.796875 18.265625 18.828125 12.890625 
Q 22.859375 7.515625 30.078125 7.515625 
Q 37.359375 7.515625 41.375 12.890625 
Q 45.40625 18.265625 45.40625 27.984375 
z
M 54.390625 6.78125 
Q 54.390625 -7.171875 48.1875 -13.984375 
Q 42 -20.796875 29.203125 -20.796875 
Q 24.46875 -20.796875 20.265625 -20.09375 
Q 16.0625 -19.390625 12.109375 -17.921875 
L 12.109375 -9.1875 
Q 16.0625 -11.328125 19.921875 -12.34375 
Q 23.78125 -13.375 27.78125 -13.375 
Q 36.625 -13.375 41.015625 -8.765625 
Q 45.40625 -4.15625 45.40625 5.171875 
L 45.40625 9.625 
Q 42.625 4.78125 38.28125 2.390625 
Q 33.9375 0 27.875 0 
Q 17.828125 0 11.671875 7.65625 
Q 5.515625 15.328125 5.515625 27.984375 
Q 5.515625 40.671875 11.671875 48.328125 
Q 17.828125 56 27.875 56 
Q 33.9375 56 38.28125 53.609375 
Q 42.625 51.21875 45.40625 46.390625 
L 45.40625 54.6875 
L 54.390625 54.6875 
z
" id="DejaVuSans-67"/>
      <path d="M 12.40625 8.296875 
L 28.515625 8.296875 
L 28.515625 63.921875 
L 10.984375 60.40625 
L 10.984375 69.390625 
L 28.421875 72.90625 
L 38.28125 72.90625 
L 38.28125 8.296875 
L 54.390625 8.296875 
L 54.390625 0 
L 12.40625 0 
z
" id="DejaVuSans-31"/>
      <path id="DejaVuSans-20"/>
      <path d="M 37.109375 75.984375 
L 37.109375 68.5 
L 28.515625 68.5 
Q 23.6875 68.5 21.796875 66.546875 
Q 19.921875 64.59375 19.921875 59.515625 
L 19.921875 54.6875 
L 34.71875 54.6875 
L 34.71875 47.703125 
L 19.921875 47.703125 
L 19.921875 0 
L 10.890625 0 
L 10.890625 47.703125 
L 2.296875 47.703125 
L 2.296875 54.6875 
L 10.890625 54.6875 
L 10.890625 58.5 
Q 10.890625 67.625 15.140625 71.796875 
Q 19.390625 75.984375 28.609375 75.984375 
z
" id="DejaVuSans-66"/>
      <path d="M 31 75.875 
Q 24.46875 64.65625 21.28125 53.65625 
Q 18.109375 42.671875 18.109375 31.390625 
Q 18.109375 20.125 21.3125 9.0625 
Q 24.515625 -2 31 -13.1875 
L 23.1875 -13.1875 
Q 15.875 -1.703125 12.234375 9.375 
Q 8.59375 20.453125 8.59375 31.390625 
Q 8.59375 42.28125 12.203125 53.3125 
Q 15.828125 64.359375 23.1875 75.875 
z
" id="DejaVuSans-28"/>
      <path d="M 51.125 44 
L 36.921875 44 
L 32.8125 27.6875 
L 47.125 27.6875 
z
M 43.796875 71.78125 
L 38.71875 51.515625 
L 52.984375 51.515625 
L 58.109375 71.78125 
L 65.921875 71.78125 
L 60.890625 51.515625 
L 76.125 51.515625 
L 76.125 44 
L 58.984375 44 
L 54.984375 27.6875 
L 70.515625 27.6875 
L 70.515625 20.21875 
L 53.078125 20.21875 
L 48 0 
L 40.1875 0 
L 45.21875 20.21875 
L 30.90625 20.21875 
L 25.875 0 
L 18.015625 0 
L 23.09375 20.21875 
L 7.71875 20.21875 
L 7.71875 27.6875 
L 24.90625 27.6875 
L 29 44 
L 13.28125 44 
L 13.28125 51.515625 
L 30.90625 51.515625 
L 35.890625 71.78125 
z
" id="DejaVuSans-23"/>
      <path d="M 4.890625 31.390625 
L 31.203125 31.390625 
L 31.203125 23.390625 
L 4.890625 23.390625 
z
" id="DejaVuSans-2d"/>
      <path d="M 56.203125 29.59375 
L 56.203125 25.203125 
L 14.890625 25.203125 
Q 15.484375 15.921875 20.484375 11.0625 
Q 25.484375 6.203125 34.421875 6.203125 
Q 39.59375 6.203125 44.453125 7.46875 
Q 49.3125 8.734375 54.109375 11.28125 
L 54.109375 2.78125 
Q 49.265625 0.734375 44.1875 -0.34375 
Q 39.109375 -1.421875 33.890625 -1.421875 
Q 20.796875 -1.421875 13.15625 6.1875 
Q 5.515625 13.8125 5.515625 26.8125 
Q 5.515625 40.234375 12.765625 48.109375 
Q 20.015625 56 32.328125 56 
Q 43.359375 56 49.78125 48.890625 
Q 56.203125 41.796875 56.203125 29.59375 
z
M 47.21875 32.234375 
Q 47.125 39.59375 43.09375 43.984375 
Q 39.0625 48.390625 32.421875 48.390625 
Q 24.90625 48.390625 20.390625 44.140625 
Q 15.875 39.890625 15.1875 32.171875 
z
" id="DejaVuSans-65"/>
      <path d="M 2.984375 54.6875 
L 12.5 54.6875 
L 29.59375 8.796875 
L 46.6875 54.6875 
L 56.203125 54.6875 
L 35.6875 0 
L 23.484375 0 
z
" id="DejaVuSans-76"/>
      <path d="M 34.28125 27.484375 
Q 23.390625 27.484375 19.1875 25 
Q 14.984375 22.515625 14.984375 16.5 
Q 14.984375 11.71875 18.140625 8.90625 
Q 21.296875 6.109375 26.703125 6.109375 
Q 34.1875 6.109375 38.703125 11.40625 
Q 43.21875 16.703125 43.21875 25.484375 
L 43.21875 27.484375 
z
M 52.203125 31.203125 
L 52.203125 0 
L 43.21875 0 
L 43.21875 8.296875 
Q 40.140625 3.328125 35.546875 0.953125 
Q 30.953125 -1.421875 24.3125 -1.421875 
Q 15.921875 -1.421875 10.953125 3.296875 
Q 6 8.015625 6 15.921875 
Q 6 25.140625 12.171875 29.828125 
Q 18.359375 34.515625 30.609375 34.515625 
L 43.21875 34.515625 
L 43.21875 35.40625 
Q 43.21875 41.609375 39.140625 45 
Q 35.0625 48.390625 27.6875 48.390625 
Q 23 48.390625 18.546875 47.265625 
Q 14.109375 46.140625 10.015625 43.890625 
L 10.015625 52.203125 
Q 14.9375 54.109375 19.578125 55.046875 
Q 24.21875 56 28.609375 56 
Q 40.484375 56 46.34375 49.84375 
Q 52.203125 43.703125 52.203125 31.203125 
z
" id="DejaVuSans-61"/>
      <path d="M 44.28125 53.078125 
L 44.28125 44.578125 
Q 40.484375 46.53125 36.375 47.5 
Q 32.28125 48.484375 27.875 48.484375 
Q 21.1875 48.484375 17.84375 46.4375 
Q 14.5 44.390625 14.5 40.28125 
Q 14.5 37.15625 16.890625 35.375 
Q 19.28125 33.59375 26.515625 31.984375 
L 29.59375 31.296875 
Q 39.15625 29.25 43.1875 25.515625 
Q 47.21875 21.78125 47.21875 15.09375 
Q 47.21875 7.46875 41.1875 3.015625 
Q 35.15625 -1.421875 24.609375 -1.421875 
Q 20.21875 -1.421875 15.453125 -0.5625 
Q 10.6875 0.296875 5.421875 2 
L 5.421875 11.28125 
Q 10.40625 8.6875 15.234375 7.390625 
Q 20.0625 6.109375 24.8125 6.109375 
Q 31.15625 6.109375 34.5625 8.28125 
Q 37.984375 10.453125 37.984375 14.40625 
Q 37.984375 18.0625 35.515625 20.015625 
Q 33.0625 21.96875 24.703125 23.78125 
L 21.578125 24.515625 
Q 13.234375 26.265625 9.515625 29.90625 
Q 5.8125 33.546875 5.8125 39.890625 
Q 5.8125 47.609375 11.28125 51.796875 
Q 16.75 56 26.8125 56 
Q 31.78125 56 36.171875 55.265625 
Q 40.578125 54.546875 44.28125 53.078125 
z
" id="DejaVuSans-73"/>
      <path d="M 25.390625 72.90625 
L 33.6875 72.90625 
L 8.296875 -9.28125 
L 0 -9.28125 
z
" id="DejaVuSans-2f"/>
      <path d="M 45.40625 46.390625 
L 45.40625 75.984375 
L 54.390625 75.984375 
L 54.390625 0 
L 45.40625 0 
L 45.40625 8.203125 
Q 42.578125 3.328125 38.25 0.953125 
Q 33.9375 -1.421875 27.875 -1.421875 
Q 17.96875 -1.421875 11.734375 6.484375 
Q 5.515625 14.40625 5.515625 27.296875 
Q 5.515625 40.1875 11.734375 48.09375 
Q 17.96875 56 27.875 56 
Q 33.9375 56 38.25 53.625 
Q 42.578125 51.265625 45.40625 46.390625 
z
M 14.796875 27.296875 
Q 14.796875 17.390625 18.875 11.75 
Q 22.953125 6.109375 30.078125 6.109375 
Q 37.203125 6.109375 41.296875 11.75 
Q 45.40625 17.390625 45.40625 27.296875 
Q 45.40625 37.203125 41.296875 42.84375 
Q 37.203125 48.484375 30.078125 48.484375 
Q 22.953125 48.484375 18.875 42.84375 
Q 14.796875 37.203125 14.796875 27.296875 
z
" id="DejaVuSans-64"/>
      <path d="M 9.421875 54.6875 
L 18.40625 54.6875 
L 18.40625 0 
L 9.421875 0 
z
M 9.421875 75.984375 
L 18.40625 75.984375 
L 18.40625 64.59375 
L 9.421875 64.59375 
z
" id="DejaVuSans-69"/>
      <path d="M 52 44.1875 
Q 55.375 50.25 60.0625 53.125 
Q 64.75 56 71.09375 56 
Q 79.640625 56 84.28125 50.015625 
Q 88.921875 44.046875 88.921875 33.015625 
L 88.921875 0 
L 79.890625 0 
L 79.890625 32.71875 
Q 79.890625 40.578125 77.09375 44.375 
Q 74.3125 48.1875 68.609375 48.1875 
Q 61.625 48.1875 57.5625 43.546875 
Q 53.515625 38.921875 53.515625 30.90625 
L 53.515625 0 
L 44.484375 0 
L 44.484375 32.71875 
Q 44.484375 40.625 41.703125 44.40625 
Q 38.921875 48.1875 33.109375 48.1875 
Q 26.21875 48.1875 22.15625 43.53125 
Q 18.109375 38.875 18.109375 30.90625 
L 18.109375 0 
L 9.078125 0 
L 9.078125 54.6875 
L 18.109375 54.6875 
L 18.109375 46.1875 
Q 21.1875 51.21875 25.484375 53.609375 
Q 29.78125 56 35.6875 56 
Q 41.65625 56 45.828125 52.96875 
Q 50 49.953125 52 44.1875 
z
" id="DejaVuSans-6d"/>
      <path d="M 54.890625 33.015625 
L 54.890625 0 
L 45.90625 0 
L 45.90625 32.71875 
Q 45.90625 40.484375 42.875 44.328125 
Q 39.84375 48.1875 33.796875 48.1875 
Q 26.515625 48.1875 22.3125 43.546875 
Q 18.109375 38.921875 18.109375 30.90625 
L 18.109375 0 
L 9.078125 0 
L 9.078125 54.6875 
L 18.109375 54.6875 
L 18.109375 46.1875 
Q 21.34375 51.125 25.703125 53.5625 
Q 30.078125 56 35.796875 56 
Q 45.21875 56 50.046875 50.171875 
Q 54.890625 44.34375 54.890625 33.015625 
z
" id="DejaVuSans-6e"/>
      <path d="M 8.015625 75.875 
L 15.828125 75.875 
Q 23.140625 64.359375 26.78125 53.3125 
Q 30.421875 42.28125 30.421875 31.390625 
Q 30.421875 20.453125 26.78125 9.375 
Q 23.140625 -1.703125 15.828125 -13.1875 
L 8.015625 -13.1875 
Q 14.5 -2 17.703125 9.0625 
Q 20.90625 20.125 20.90625 31.390625 
Q 20.90625 42.671875 17.703125 53.65625 
Q 14.5 64.65625 8.015625 75.875 
z
" id="DejaVuSans-29"/>
     </defs>
     <g transform="translate(107.015156 342.278812)scale(0.18 -0.18)">
      <use xlink:href="#DejaVuSans-6c"/>
      <use x="27.783203" xlink:href="#DejaVuSans-6f"/>
      <use x="88.964844" xlink:href="#DejaVuSans-67"/>
      <use x="152.441406" xlink:href="#DejaVuSans-31"/>
      <use x="216.064453" xlink:href="#DejaVuSans-30"/>
      <use x="279.6875" xlink:href="#DejaVuSans-20"/>
      <use x="311.474609" xlink:href="#DejaVuSans-6f"/>
      <use x="372.65625" xlink:href="#DejaVuSans-66"/>
      <use x="407.861328" xlink:href="#DejaVuSans-20"/>
      <use x="439.648438" xlink:href="#DejaVuSans-28"/>
      <use x="478.662109" xlink:href="#DejaVuSans-23"/>
      <use x="562.451172" xlink:href="#DejaVuSans-20"/>
      <use x="594.238281" xlink:href="#DejaVuSans-66"/>
      <use x="629.365234" xlink:href="#DejaVuSans-2d"/>
      <use x="665.449219" xlink:href="#DejaVuSans-65"/>
      <use x="726.972656" xlink:href="#DejaVuSans-76"/>
      <use x="786.152344" xlink:href="#DejaVuSans-61"/>
      <use x="847.431641" xlink:href="#DejaVuSans-6c"/>
      <use x="875.214844" xlink:href="#DejaVuSans-73"/>
      <use x="927.314453" xlink:href="#DejaVuSans-20"/>
      <use x="959.101562" xlink:href="#DejaVuSans-2f"/>
      <use x="992.792969" xlink:href="#DejaVuSans-20"/>
      <use x="1024.580078" xlink:href="#DejaVuSans-64"/>
      <use x="1088.056641" xlink:href="#DejaVuSans-69"/>
      <use x="1115.839844" xlink:href="#DejaVuSans-6d"/>
      <use x="1213.251953" xlink:href="#DejaVuSans-65"/>
      <use x="1274.775391" xlink:href="#DejaVuSans-6e"/>
      <use x="1338.154297" xlink:href="#DejaVuSans-73"/>
      <use x="1390.253906" xlink:href="#DejaVuSans-69"/>
      <use x="1418.037109" xlink:href="#DejaVuSans-6f"/>
      <use x="1479.21875" xlink:href="#DejaVuSans-6e"/>
      <use x="1542.597656" xlink:href="#DejaVuSans-29"/>
     </g>
    </g>
   </g>
   <g id="matplotlib.axis_2">
    <g id="ytick_1">
     <g id="line2d_11">
      <path clip-path="url(#pfa5d919d89)" d="M 70.8 298.245375 
L 427.92 298.245375 
" style="fill:none;stroke:#b0b0b0;stroke-linecap:square;stroke-width:0.8;"/>
     </g>
     <g id="line2d_12">
      <defs>
       <path d="M 0 0 
L -3.5 0 
" id="m0a47cf5410" style="stroke:#000000;stroke-width:0.8;"/>
      </defs>
      <g>
       <use style="stroke:#000000;stroke-width:0.8;" x="70.8" xlink:href="#m0a47cf5410" y="298.245375"/>
      </g>
     </g>
     <g id="text_7">
      <!-- 0.0 -->
      <defs>
       <path d="M 10.6875 12.40625 
L 21 12.40625 
L 21 0 
L 10.6875 0 
z
" id="DejaVuSans-2e"/>
      </defs>
      <g transform="translate(31.99375 305.843812)scale(0.2 -0.2)">
       <use xlink:href="#DejaVuSans-30"/>
       <use x="63.623047" xlink:href="#DejaVuSans-2e"/>
       <use x="95.410156" xlink:href="#DejaVuSans-30"/>
      </g>
     </g>
    </g>
    <g id="ytick_2">
     <g id="line2d_13">
      <path clip-path="url(#pfa5d919d89)" d="M 70.8 245.549929 
L 427.92 245.549929 
" style="fill:none;stroke:#b0b0b0;stroke-linecap:square;stroke-width:0.8;"/>
     </g>
     <g id="line2d_14">
      <g>
       <use style="stroke:#000000;stroke-width:0.8;" x="70.8" xlink:href="#m0a47cf5410" y="245.549929"/>
      </g>
     </g>
     <g id="text_8">
      <!-- 0.2 -->
      <g transform="translate(31.99375 253.148367)scale(0.2 -0.2)">
       <use xlink:href="#DejaVuSans-30"/>
       <use x="63.623047" xlink:href="#DejaVuSans-2e"/>
       <use x="95.410156" xlink:href="#DejaVuSans-32"/>
      </g>
     </g>
    </g>
    <g id="ytick_3">
     <g id="line2d_15">
      <path clip-path="url(#pfa5d919d89)" d="M 70.8 192.854484 
L 427.92 192.854484 
" style="fill:none;stroke:#b0b0b0;stroke-linecap:square;stroke-width:0.8;"/>
     </g>
     <g id="line2d_16">
      <g>
       <use style="stroke:#000000;stroke-width:0.8;" x="70.8" xlink:href="#m0a47cf5410" y="192.854484"/>
      </g>
     </g>
     <g id="text_9">
      <!-- 0.4 -->
      <g transform="translate(31.99375 200.452921)scale(0.2 -0.2)">
       <use xlink:href="#DejaVuSans-30"/>
       <use x="63.623047" xlink:href="#DejaVuSans-2e"/>
       <use x="95.410156" xlink:href="#DejaVuSans-34"/>
      </g>
     </g>
    </g>
    <g id="ytick_4">
     <g id="line2d_17">
      <path clip-path="url(#pfa5d919d89)" d="M 70.8 140.159038 
L 427.92 140.159038 
" style="fill:none;stroke:#b0b0b0;stroke-linecap:square;stroke-width:0.8;"/>
     </g>
     <g id="line2d_18">
      <g>
       <use style="stroke:#000000;stroke-width:0.8;" x="70.8" xlink:href="#m0a47cf5410" y="140.159038"/>
      </g>
     </g>
     <g id="text_10">
      <!-- 0.6 -->
      <g transform="translate(31.99375 147.757476)scale(0.2 -0.2)">
       <use xlink:href="#DejaVuSans-30"/>
       <use x="63.623047" xlink:href="#DejaVuSans-2e"/>
       <use x="95.410156" xlink:href="#DejaVuSans-36"/>
      </g>
     </g>
    </g>
    <g id="ytick_5">
     <g id="line2d_19">
      <path clip-path="url(#pfa5d919d89)" d="M 70.8 87.463593 
L 427.92 87.463593 
" style="fill:none;stroke:#b0b0b0;stroke-linecap:square;stroke-width:0.8;"/>
     </g>
     <g id="line2d_20">
      <g>
       <use style="stroke:#000000;stroke-width:0.8;" x="70.8" xlink:href="#m0a47cf5410" y="87.463593"/>
      </g>
     </g>
     <g id="text_11">
      <!-- 0.8 -->
      <g transform="translate(31.99375 95.06203)scale(0.2 -0.2)">
       <use xlink:href="#DejaVuSans-30"/>
       <use x="63.623047" xlink:href="#DejaVuSans-2e"/>
       <use x="95.410156" xlink:href="#DejaVuSans-38"/>
      </g>
     </g>
    </g>
    <g id="ytick_6">
     <g id="line2d_21">
      <path clip-path="url(#pfa5d919d89)" d="M 70.8 34.768147 
L 427.92 34.768147 
" style="fill:none;stroke:#b0b0b0;stroke-linecap:square;stroke-width:0.8;"/>
     </g>
     <g id="line2d_22">
      <g>
       <use style="stroke:#000000;stroke-width:0.8;" x="70.8" xlink:href="#m0a47cf5410" y="34.768147"/>
      </g>
     </g>
     <g id="text_12">
      <!-- 1.0 -->
      <g transform="translate(31.99375 42.366585)scale(0.2 -0.2)">
       <use xlink:href="#DejaVuSans-31"/>
       <use x="63.623047" xlink:href="#DejaVuSans-2e"/>
       <use x="95.410156" xlink:href="#DejaVuSans-30"/>
      </g>
     </g>
    </g>
    <g id="text_13">
     <!-- Proportion of function+target pairs -->
     <defs>
      <path d="M 19.671875 64.796875 
L 19.671875 37.40625 
L 32.078125 37.40625 
Q 38.96875 37.40625 42.71875 40.96875 
Q 46.484375 44.53125 46.484375 51.125 
Q 46.484375 57.671875 42.71875 61.234375 
Q 38.96875 64.796875 32.078125 64.796875 
z
M 9.8125 72.90625 
L 32.078125 72.90625 
Q 44.34375 72.90625 50.609375 67.359375 
Q 56.890625 61.8125 56.890625 51.125 
Q 56.890625 40.328125 50.609375 34.8125 
Q 44.34375 29.296875 32.078125 29.296875 
L 19.671875 29.296875 
L 19.671875 0 
L 9.8125 0 
z
" id="DejaVuSans-50"/>
      <path d="M 41.109375 46.296875 
Q 39.59375 47.171875 37.8125 47.578125 
Q 36.03125 48 33.890625 48 
Q 26.265625 48 22.1875 43.046875 
Q 18.109375 38.09375 18.109375 28.8125 
L 18.109375 0 
L 9.078125 0 
L 9.078125 54.6875 
L 18.109375 54.6875 
L 18.109375 46.1875 
Q 20.953125 51.171875 25.484375 53.578125 
Q 30.03125 56 36.53125 56 
Q 37.453125 56 38.578125 55.875 
Q 39.703125 55.765625 41.0625 55.515625 
z
" id="DejaVuSans-72"/>
      <path d="M 18.109375 8.203125 
L 18.109375 -20.796875 
L 9.078125 -20.796875 
L 9.078125 54.6875 
L 18.109375 54.6875 
L 18.109375 46.390625 
Q 20.953125 51.265625 25.265625 53.625 
Q 29.59375 56 35.59375 56 
Q 45.5625 56 51.78125 48.09375 
Q 58.015625 40.1875 58.015625 27.296875 
Q 58.015625 14.40625 51.78125 6.484375 
Q 45.5625 -1.421875 35.59375 -1.421875 
Q 29.59375 -1.421875 25.265625 0.953125 
Q 20.953125 3.328125 18.109375 8.203125 
z
M 48.6875 27.296875 
Q 48.6875 37.203125 44.609375 42.84375 
Q 40.53125 48.484375 33.40625 48.484375 
Q 26.265625 48.484375 22.1875 42.84375 
Q 18.109375 37.203125 18.109375 27.296875 
Q 18.109375 17.390625 22.1875 11.75 
Q 26.265625 6.109375 33.40625 6.109375 
Q 40.53125 6.109375 44.609375 11.75 
Q 48.6875 17.390625 48.6875 27.296875 
z
" id="DejaVuSans-70"/>
      <path d="M 18.3125 70.21875 
L 18.3125 54.6875 
L 36.8125 54.6875 
L 36.8125 47.703125 
L 18.3125 47.703125 
L 18.3125 18.015625 
Q 18.3125 11.328125 20.140625 9.421875 
Q 21.96875 7.515625 27.59375 7.515625 
L 36.8125 7.515625 
L 36.8125 0 
L 27.59375 0 
Q 17.1875 0 13.234375 3.875 
Q 9.28125 7.765625 9.28125 18.015625 
L 9.28125 47.703125 
L 2.6875 47.703125 
L 2.6875 54.6875 
L 9.28125 54.6875 
L 9.28125 70.21875 
z
" id="DejaVuSans-74"/>
      <path d="M 8.5 21.578125 
L 8.5 54.6875 
L 17.484375 54.6875 
L 17.484375 21.921875 
Q 17.484375 14.15625 20.5 10.265625 
Q 23.53125 6.390625 29.59375 6.390625 
Q 36.859375 6.390625 41.078125 11.03125 
Q 45.3125 15.671875 45.3125 23.6875 
L 45.3125 54.6875 
L 54.296875 54.6875 
L 54.296875 0 
L 45.3125 0 
L 45.3125 8.40625 
Q 42.046875 3.421875 37.71875 1 
Q 33.40625 -1.421875 27.6875 -1.421875 
Q 18.265625 -1.421875 13.375 4.4375 
Q 8.5 10.296875 8.5 21.578125 
z
M 31.109375 56 
z
" id="DejaVuSans-75"/>
      <path d="M 48.78125 52.59375 
L 48.78125 44.1875 
Q 44.96875 46.296875 41.140625 47.34375 
Q 37.3125 48.390625 33.40625 48.390625 
Q 24.65625 48.390625 19.8125 42.84375 
Q 14.984375 37.3125 14.984375 27.296875 
Q 14.984375 17.28125 19.8125 11.734375 
Q 24.65625 6.203125 33.40625 6.203125 
Q 37.3125 6.203125 41.140625 7.25 
Q 44.96875 8.296875 48.78125 10.40625 
L 48.78125 2.09375 
Q 45.015625 0.34375 40.984375 -0.53125 
Q 36.96875 -1.421875 32.421875 -1.421875 
Q 20.0625 -1.421875 12.78125 6.34375 
Q 5.515625 14.109375 5.515625 27.296875 
Q 5.515625 40.671875 12.859375 48.328125 
Q 20.21875 56 33.015625 56 
Q 37.15625 56 41.109375 55.140625 
Q 45.0625 54.296875 48.78125 52.59375 
z
" id="DejaVuSans-63"/>
      <path d="M 46 62.703125 
L 46 35.5 
L 73.1875 35.5 
L 73.1875 27.203125 
L 46 27.203125 
L 46 0 
L 37.796875 0 
L 37.796875 27.203125 
L 10.59375 27.203125 
L 10.59375 35.5 
L 37.796875 35.5 
L 37.796875 62.703125 
z
" id="DejaVuSans-2b"/>
     </defs>
     <g transform="translate(24.250312 323.17875)rotate(-90)scale(0.18 -0.18)">
      <use xlink:href="#DejaVuSans-50"/>
      <use x="60.287109" xlink:href="#DejaVuSans-72"/>
      <use x="101.369141" xlink:href="#DejaVuSans-6f"/>
      <use x="162.550781" xlink:href="#DejaVuSans-70"/>
      <use x="226.027344" xlink:href="#DejaVuSans-6f"/>
      <use x="287.208984" xlink:href="#DejaVuSans-72"/>
      <use x="328.322266" xlink:href="#DejaVuSans-74"/>
      <use x="367.53125" xlink:href="#DejaVuSans-69"/>
      <use x="395.314453" xlink:href="#DejaVuSans-6f"/>
      <use x="456.496094" xlink:href="#DejaVuSans-6e"/>
      <use x="519.875" xlink:href="#DejaVuSans-20"/>
      <use x="551.662109" xlink:href="#DejaVuSans-6f"/>
      <use x="612.84375" xlink:href="#DejaVuSans-66"/>
      <use x="648.048828" xlink:href="#DejaVuSans-20"/>
      <use x="679.835938" xlink:href="#DejaVuSans-66"/>
      <use x="715.041016" xlink:href="#DejaVuSans-75"/>
      <use x="778.419922" xlink:href="#DejaVuSans-6e"/>
      <use x="841.798828" xlink:href="#DejaVuSans-63"/>
      <use x="896.779297" xlink:href="#DejaVuSans-74"/>
      <use x="935.988281" xlink:href="#DejaVuSans-69"/>
      <use x="963.771484" xlink:href="#DejaVuSans-6f"/>
      <use x="1024.953125" xlink:href="#DejaVuSans-6e"/>
      <use x="1088.332031" xlink:href="#DejaVuSans-2b"/>
      <use x="1172.121094" xlink:href="#DejaVuSans-74"/>
      <use x="1211.330078" xlink:href="#DejaVuSans-61"/>
      <use x="1272.609375" xlink:href="#DejaVuSans-72"/>
      <use x="1313.707031" xlink:href="#DejaVuSans-67"/>
      <use x="1377.183594" xlink:href="#DejaVuSans-65"/>
      <use x="1438.707031" xlink:href="#DejaVuSans-74"/>
      <use x="1477.916016" xlink:href="#DejaVuSans-20"/>
      <use x="1509.703125" xlink:href="#DejaVuSans-70"/>
      <use x="1573.179688" xlink:href="#DejaVuSans-61"/>
      <use x="1634.458984" xlink:href="#DejaVuSans-69"/>
      <use x="1662.242188" xlink:href="#DejaVuSans-72"/>
      <use x="1703.355469" xlink:href="#DejaVuSans-73"/>
     </g>
    </g>
   </g>
   <g id="line2d_23">
    <defs>
     <path d="M 0 1.5 
C 0.397805 1.5 0.77937 1.341951 1.06066 1.06066 
C 1.341951 0.77937 1.5 0.397805 1.5 0 
C 1.5 -0.397805 1.341951 -0.77937 1.06066 -1.06066 
C 0.77937 -1.341951 0.397805 -1.5 0 -1.5 
C -0.397805 -1.5 -0.77937 -1.341951 -1.06066 -1.06066 
C -1.341951 -0.77937 -1.5 -0.397805 -1.5 0 
C -1.5 0.397805 -1.341951 0.77937 -1.06066 1.06066 
C -0.77937 1.341951 -0.397805 1.5 0 1.5 
z
" id="mfd20b56c13" style="stroke:#000080;"/>
    </defs>
    <g>
     <use style="fill:#000080;stroke:#000080;" x="272.878382" xlink:href="#mfd20b56c13" y="184.588532"/>
     <use style="fill:#000080;stroke:#000080;" x="272.878382" xlink:href="#mfd20b56c13" y="184.588532"/>
    </g>
   </g>
   <g id="line2d_24">
    <path d="M 109.247936 298.245375 
L 109.247936 297.212131 
L 110.452985 297.212131 
L 110.452985 296.695509 
L 111.942857 296.695509 
L 111.942857 296.178887 
L 112.984013 296.178887 
L 112.984013 295.662265 
L 121.212725 295.662265 
L 121.212725 293.595777 
L 124.328091 293.595777 
L 124.328091 291.012667 
L 124.856251 291.012667 
L 124.856251 290.496045 
L 126.980077 290.496045 
L 126.980077 289.462801 
L 127.585834 289.462801 
L 127.585834 288.946179 
L 129.016046 288.946179 
L 129.016046 288.429557 
L 129.690395 288.429557 
L 129.690395 286.879691 
L 130.71906 286.879691 
L 130.71906 285.329825 
L 131.090037 285.329825 
L 131.090037 284.296581 
L 131.212004 284.296581 
L 131.212004 283.263337 
L 131.691714 283.263337 
L 131.691714 282.746715 
L 132.043229 282.746715 
L 132.043229 281.713471 
L 132.387963 281.713471 
L 132.387963 280.163604 
L 133.383967 280.163604 
L 133.491283 279.13036 
L 133.809418 279.13036 
L 133.809418 278.613738 
L 134.53042 278.613738 
L 134.53042 276.030628 
L 136.352341 276.030628 
L 136.443273 273.447518 
L 136.979357 273.447518 
L 136.979357 272.414274 
L 137.414126 272.414274 
L 137.414126 271.897652 
L 137.669998 271.897652 
L 137.669998 270.864408 
L 138.497373 270.864408 
L 138.497373 269.831164 
L 139.821543 269.831164 
L 139.821543 268.79792 
L 141.469872 268.79792 
L 141.469872 267.764676 
L 142.3384 267.764676 
L 142.3384 267.248054 
L 142.789151 267.248054 
L 142.789151 266.21481 
L 142.915876 266.21481 
L 142.915876 265.698188 
L 143.475271 265.698188 
L 143.475271 265.181566 
L 143.597239 265.181566 
L 143.597239 264.664944 
L 143.838703 264.664944 
L 143.838703 264.148322 
L 144.544115 264.148322 
L 144.544115 263.6317 
L 145.333372 263.6317 
L 145.333372 263.115078 
L 145.661236 263.115078 
L 145.661236 262.598456 
L 146.089235 262.598456 
L 146.089235 260.531968 
L 146.763584 260.531968 
L 146.763584 260.015346 
L 146.966058 260.015346 
L 146.966058 259.498724 
L 147.897666 259.498724 
L 147.897666 258.982102 
L 148.182045 258.982102 
L 148.182045 257.948858 
L 148.737575 257.948858 
L 148.737575 255.88237 
L 148.918979 255.88237 
L 148.918979 255.365748 
L 150.2238 255.365748 
L 150.2238 254.849126 
L 152.093807 254.849126 
L 152.093807 254.332504 
L 155.921593 254.332504 
L 155.921593 253.815882 
L 157.356496 253.815882 
L 157.356496 252.266016 
L 158.527256 252.266016 
L 158.579887 251.232772 
L 159.326108 251.232772 
L 159.326108 250.199528 
L 159.526594 250.199528 
L 159.526594 249.682906 
L 166.188921 249.682906 
L 166.188921 248.649662 
L 167.076232 248.649662 
L 167.076232 248.13304 
L 167.905973 248.13304 
L 167.905973 247.099796 
L 169.543665 247.099796 
L 169.543665 246.583173 
L 170.048606 246.583173 
L 170.048606 246.066551 
L 173.496644 246.066551 
L 173.496644 245.549929 
L 178.288675 245.549929 
L 178.288675 244.516685 
L 178.651229 244.516685 
L 178.651229 242.966819 
L 179.905067 242.966819 
L 179.905067 242.450197 
L 180.18173 242.450197 
L 180.18173 241.933575 
L 181.262209 241.933575 
L 181.262209 241.416953 
L 181.893298 241.416953 
L 181.893298 240.383709 
L 182.336768 240.383709 
L 182.336768 239.350465 
L 182.502856 239.350465 
L 182.502856 238.833843 
L 182.891234 238.833843 
L 182.891234 238.317221 
L 185.972868 238.317221 
L 185.972868 237.800599 
L 186.282159 237.800599 
L 186.282159 237.283977 
L 186.679122 237.283977 
L 186.679122 236.250733 
L 187.773592 236.250733 
L 187.773592 235.734111 
L 188.512028 235.734111 
L 188.521868 233.667623 
L 189.544547 233.667623 
L 189.544547 233.151001 
L 192.586563 233.151001 
L 192.586563 232.634379 
L 192.808481 232.634379 
L 192.808481 231.601135 
L 193.050595 231.601135 
L 193.050595 231.084513 
L 193.446968 231.084513 
L 193.446968 230.051269 
L 193.728478 230.051269 
L 193.728478 229.018025 
L 194.146188 229.018025 
L 194.146188 227.984781 
L 195.814245 227.984781 
L 195.814245 227.468159 
L 196.48181 227.468159 
L 196.576068 226.434915 
L 197.492269 226.434915 
L 197.527958 225.401671 
L 197.857659 225.401671 
L 197.857659 224.368427 
L 198.121133 224.368427 
L 198.121133 223.851805 
L 198.86422 223.851805 
L 198.86422 222.818561 
L 200.102322 222.818561 
L 200.102322 222.301939 
L 200.253455 222.301939 
L 200.253455 221.268695 
L 200.674434 221.268695 
L 200.674434 220.752073 
L 201.315534 220.752073 
L 201.315534 219.202207 
L 203.156979 219.202207 
L 203.156979 218.168963 
L 203.92304 218.168963 
L 203.92304 217.652341 
L 204.832178 217.652341 
L 204.832178 217.135719 
L 205.529106 217.135719 
L 205.529106 216.619097 
L 205.847129 216.619097 
L 205.947565 214.552609 
L 206.604869 214.552609 
L 206.604869 214.035987 
L 206.802211 214.035987 
L 206.802211 213.519365 
L 207.364361 213.519365 
L 207.364361 211.969498 
L 208.045117 211.969498 
L 208.132315 210.936254 
L 208.451136 210.936254 
L 208.451136 210.419632 
L 208.844979 210.419632 
L 208.844979 209.90301 
L 209.165387 209.90301 
L 209.165387 208.353144 
L 209.784976 208.353144 
L 209.784976 207.836522 
L 210.225384 207.836522 
L 210.302587 206.803278 
L 210.724892 206.803278 
L 210.724892 206.286656 
L 211.331973 206.286656 
L 211.331973 205.770034 
L 212.065886 205.770034 
L 212.106664 204.73679 
L 212.197096 204.73679 
L 212.197096 204.220168 
L 212.742965 204.220168 
L 212.742965 203.703546 
L 213.587441 203.703546 
L 213.587441 203.186924 
L 214.604118 203.186924 
L 214.604118 202.670302 
L 215.733076 202.670302 
L 215.733076 202.15368 
L 219.265071 202.15368 
L 219.265071 201.637058 
L 219.529802 201.637058 
L 219.529802 201.120436 
L 219.718729 201.120436 
L 219.718729 200.603814 
L 220.358464 200.603814 
L 220.358464 200.087192 
L 220.655698 200.087192 
L 220.655698 199.053948 
L 220.998466 199.053948 
L 220.998466 198.537326 
L 221.561461 198.537326 
L 221.561461 198.020704 
L 221.858534 198.020704 
L 221.858534 197.504082 
L 222.214295 197.504082 
L 222.214295 196.470838 
L 224.130216 196.470838 
L 224.130216 195.954216 
L 226.107621 195.954216 
L 226.107621 195.437594 
L 227.850854 195.437594 
L 227.850854 194.920972 
L 229.041661 194.920972 
L 229.041661 194.40435 
L 229.270385 194.40435 
L 229.270385 193.887728 
L 232.263293 193.887728 
L 232.263293 193.371106 
L 234.024703 193.371106 
L 234.024703 192.854484 
L 234.298497 192.854484 
L 234.298497 191.82124 
L 234.608855 191.82124 
L 234.608855 191.304618 
L 238.137345 191.304618 
L 238.137345 190.787996 
L 238.602945 190.787996 
L 238.602945 190.271374 
L 247.011423 190.271374 
L 247.011423 189.754752 
L 251.002042 189.754752 
L 251.002042 189.23813 
L 252.358092 189.23813 
L 252.358092 188.721508 
L 259.405317 188.721508 
L 259.405317 188.204886 
L 260.41664 188.204886 
L 260.489074 187.171642 
L 262.356109 187.171642 
L 262.356109 186.65502 
L 266.653101 186.65502 
L 266.653101 186.138398 
L 267.382744 186.138398 
L 267.382744 185.105154 
L 272.878382 185.105154 
L 272.878382 184.588532 
L 358.8 184.588532 
L 358.8 184.588532 
" style="fill:none;stroke:#000080;stroke-linecap:square;stroke-width:1.5;"/>
   </g>
   <g id="line2d_25">
    <defs>
     <path d="M 0 6 
C 1.591219 6 3.117479 5.367802 4.242641 4.242641 
C 5.367802 3.117479 6 1.591219 6 0 
C 6 -1.591219 5.367802 -3.117479 4.242641 -4.242641 
C 3.117479 -5.367802 1.591219 -6 0 -6 
C -1.591219 -6 -3.117479 -5.367802 -4.242641 -4.242641 
C -5.367802 -3.117479 -6 -1.591219 -6 0 
C -6 1.591219 -5.367802 3.117479 -4.242641 4.242641 
C -3.117479 5.367802 -1.591219 6 0 6 
z
" id="m0fe2936e4e" style="stroke:#000080;stroke-width:1.5;"/>
    </defs>
    <g>
     <use style="fill:none;stroke:#000080;stroke-width:1.5;" x="142.915876" xlink:href="#m0fe2936e4e" y="266.21481"/>
     <use style="fill:none;stroke:#000080;stroke-width:1.5;" x="193.728478" xlink:href="#m0fe2936e4e" y="229.018025"/>
     <use style="fill:none;stroke:#000080;stroke-width:1.5;" x="262.356109" xlink:href="#m0fe2936e4e" y="186.65502"/>
     <use style="fill:none;stroke:#000080;stroke-width:1.5;" x="272.878382" xlink:href="#m0fe2936e4e" y="184.588532"/>
     <use style="fill:none;stroke:#000080;stroke-width:1.5;" x="358.8" xlink:href="#m0fe2936e4e" y="184.588532"/>
    </g>
   </g>
   <g id="line2d_26"/>
   <g id="line2d_27">
    <path clip-path="url(#pfa5d919d89)" d="M 209.873037 207.836522 
" style="fill:none;stroke:#000080;stroke-linecap:square;stroke-width:1.5;"/>
    <defs>
     <path d="M -12 12 
L 12 -12 
M -12 -12 
L 12 12 
" id="mfa0988e6f5" style="stroke:#000080;stroke-width:3;"/>
    </defs>
    <g clip-path="url(#pfa5d919d89)">
     <use style="fill:#000080;stroke:#000080;stroke-width:3;" x="209.873037" xlink:href="#mfa0988e6f5" y="207.836522"/>
    </g>
   </g>
   <g id="line2d_28">
    <defs>
     <path d="M 0 1.5 
C 0.397805 1.5 0.77937 1.341951 1.06066 1.06066 
C 1.341951 0.77937 1.5 0.397805 1.5 0 
C 1.5 -0.397805 1.341951 -0.77937 1.06066 -1.06066 
C 0.77937 -1.341951 0.397805 -1.5 0 -1.5 
C -0.397805 -1.5 -0.77937 -1.341951 -1.06066 -1.06066 
C -1.341951 -0.77937 -1.5 -0.397805 -1.5 0 
C -1.5 0.397805 -1.341951 0.77937 -1.06066 1.06066 
C -0.77937 1.341951 -0.397805 1.5 0 1.5 
z
" id="md8432b840a" style="stroke:#ff00ff;"/>
    </defs>
    <g>
     <use style="fill:#ff00ff;stroke:#ff00ff;" x="289.225551" xlink:href="#md8432b840a" y="153.591211"/>
     <use style="fill:#ff00ff;stroke:#ff00ff;" x="289.225551" xlink:href="#md8432b840a" y="153.591211"/>
    </g>
   </g>
   <g id="line2d_29">
    <path d="M 42.042377 298.245375 
L 42.042377 282.746715 
L 61.672509 282.746715 
L 61.672509 281.196849 
L 66.812845 281.196849 
L 66.812845 279.13036 
L 70.8 279.13036 
L 70.8 278.613738 
L 76.812125 278.613738 
L 76.812125 277.580494 
L 83.185234 277.580494 
L 83.185234 276.54725 
L 84.888247 276.54725 
L 84.888247 276.030628 
L 86.442977 276.030628 
L 86.442977 274.997384 
L 87.873189 274.997384 
L 87.873189 274.480762 
L 90.430132 274.480762 
L 90.430132 273.96414 
L 92.666561 273.96414 
L 92.666561 273.447518 
L 93.687874 273.447518 
L 93.687874 272.414274 
L 95.570468 272.414274 
L 95.570468 269.831164 
L 97.273482 269.831164 
L 97.273482 267.764676 
L 98.067751 267.764676 
L 98.067751 266.731432 
L 100.258423 266.731432 
L 100.258423 265.698188 
L 104.518379 265.698188 
L 104.518379 264.664944 
L 111.942857 264.664944 
L 111.942857 264.148322 
L 119.187755 264.148322 
L 119.187755 263.115078 
L 119.888555 263.115078 
L 119.888555 262.081834 
L 120.116177 262.081834 
L 120.116177 261.565212 
L 120.782147 261.565212 
L 120.782147 259.498724 
L 121.424184 259.498724 
L 121.424184 258.982102 
L 123.03139 258.982102 
L 123.03139 258.46548 
L 125.028891 258.46548 
L 125.028891 257.948858 
L 125.19988 257.948858 
L 125.19988 256.398992 
L 125.537024 256.398992 
L 125.537024 255.365748 
L 125.867924 255.365748 
L 125.867924 254.332504 
L 126.353061 254.332504 
L 126.353061 252.782638 
L 126.825374 252.782638 
L 126.825374 252.266016 
L 127.133452 252.266016 
L 127.133452 251.749394 
L 128.027044 251.749394 
L 128.027044 251.232772 
L 130.967232 251.232772 
L 130.967232 249.682906 
L 131.691714 249.682906 
L 131.691714 249.166284 
L 131.809656 249.166284 
L 131.809656 248.649662 
L 132.158881 248.649662 
L 132.158881 247.616418 
L 133.383967 247.616418 
L 133.383967 247.099796 
L 133.597959 247.099796 
L 133.597959 246.583173 
L 134.327371 246.583173 
L 134.429184 245.549929 
L 135.70252 245.549929 
L 135.70252 244.000063 
L 137.585114 244.000063 
L 137.669998 242.450197 
L 138.817886 242.450197 
L 138.817886 241.933575 
L 143.778642 241.933575 
L 143.778642 240.900331 
L 145.607008 240.900331 
L 145.607008 240.383709 
L 149.713248 240.383709 
L 149.713248 239.867087 
L 150.2238 239.867087 
L 150.2238 239.350465 
L 151.903921 239.350465 
L 151.903921 238.833843 
L 152.131543 238.833843 
L 152.131543 238.317221 
L 154.361319 238.317221 
L 154.361319 237.800599 
L 155.768481 237.800599 
L 155.768481 236.250733 
L 158.47447 236.250733 
L 158.47447 235.734111 
L 161.88137 235.734111 
L 161.88137 235.217489 
L 162.629994 235.217489 
L 162.629994 234.700867 
L 162.941474 234.700867 
L 162.941474 234.184245 
L 164.308234 234.184245 
L 164.308234 233.667623 
L 165.73698 233.667623 
L 165.73698 233.151001 
L 166.206077 233.151001 
L 166.206077 232.634379 
L 171.303493 232.634379 
L 171.303493 231.601135 
L 172.608314 231.601135 
L 172.608314 230.567891 
L 172.928987 230.567891 
L 172.928987 230.051269 
L 174.200953 230.051269 
L 174.200953 229.534647 
L 175.130069 229.534647 
L 175.130069 229.018025 
L 175.28549 229.018025 
L 175.28549 228.501403 
L 176.268936 228.501403 
L 176.268936 227.984781 
L 176.530638 227.984781 
L 176.569085 225.401671 
L 176.788563 225.401671 
L 176.788563 224.885049 
L 177.440416 224.885049 
L 177.440416 224.368427 
L 179.510398 224.368427 
L 179.510398 223.851805 
L 180.345695 223.851805 
L 180.345695 223.335183 
L 181.44585 223.335183 
L 181.44585 222.301939 
L 181.707021 222.301939 
L 181.707021 221.268695 
L 183.078969 221.268695 
L 183.172101 220.235451 
L 184.575243 220.235451 
L 184.575243 219.718829 
L 185.095123 219.718829 
L 185.095123 219.202207 
L 185.588716 219.202207 
L 185.588716 218.168963 
L 187.62424 218.168963 
L 187.62424 217.652341 
L 188.098846 217.652341 
L 188.098846 217.135719 
L 188.299163 217.135719 
L 188.299163 216.619097 
L 188.877343 216.619097 
L 188.877343 216.102475 
L 190.097897 216.102475 
L 190.138378 214.552609 
L 192.59048 214.552609 
L 192.59048 213.519365 
L 193.458165 213.519365 
L 193.54006 212.48612 
L 193.849345 212.48612 
L 193.849345 211.969498 
L 194.683722 211.969498 
L 194.701133 210.936254 
L 195.902322 210.936254 
L 195.902322 210.419632 
L 196.057839 210.419632 
L 196.057839 209.90301 
L 196.320422 209.90301 
L 196.320422 208.869766 
L 196.679181 208.869766 
L 196.679181 208.353144 
L 197.333786 208.353144 
L 197.333786 207.836522 
L 199.050719 207.836522 
L 199.050719 206.803278 
L 199.173076 206.803278 
L 199.173076 206.286656 
L 199.82493 206.286656 
L 199.82493 205.253412 
L 200.40079 205.253412 
L 200.40079 204.73679 
L 200.926764 204.73679 
L 201.034522 203.186924 
L 201.373126 203.186924 
L 201.373126 202.15368 
L 203.871034 202.15368 
L 203.871034 201.120436 
L 204.197194 201.120436 
L 204.197194 200.603814 
L 204.402612 200.603814 
L 204.4309 199.053948 
L 204.675535 199.053948 
L 204.675535 198.537326 
L 205.456811 198.537326 
L 205.456811 198.020704 
L 206.871033 198.020704 
L 206.871033 197.504082 
L 207.067214 197.504082 
L 207.067214 196.98746 
L 207.193933 196.98746 
L 207.24575 195.954216 
L 208.557226 195.954216 
L 208.557226 195.437594 
L 208.758029 195.437594 
L 208.854439 192.854484 
L 208.926799 192.854484 
L 208.926799 192.337862 
L 209.428327 192.337862 
L 209.460353 190.787996 
L 215.360245 190.787996 
L 215.360245 190.271374 
L 215.985486 190.271374 
L 215.985486 189.754752 
L 216.737219 189.754752 
L 216.737219 189.23813 
L 217.703299 189.23813 
L 217.703299 188.721508 
L 218.380031 188.721508 
L 218.380031 188.204886 
L 219.743598 188.204886 
L 219.743598 187.688264 
L 220.06967 187.688264 
L 220.06967 187.171642 
L 220.18625 187.171642 
L 220.18625 186.65502 
L 220.746668 186.65502 
L 220.746668 186.138398 
L 220.910378 186.138398 
L 220.992873 184.588532 
L 221.323803 184.588532 
L 221.323803 184.07191 
L 221.612475 184.07191 
L 221.709463 183.038666 
L 226.598941 183.038666 
L 226.598941 182.522044 
L 227.013329 182.522044 
L 227.013329 182.005422 
L 227.71753 182.005422 
L 227.71753 181.4888 
L 227.859018 181.4888 
L 227.859018 180.972178 
L 229.139176 180.972178 
L 229.139176 180.455556 
L 232.48937 180.455556 
L 232.510773 179.422312 
L 232.8094 179.422312 
L 232.8094 178.90569 
L 234.323525 178.90569 
L 234.411602 177.872445 
L 237.178747 177.872445 
L 237.178747 177.355823 
L 237.66243 177.355823 
L 237.66243 176.839201 
L 238.126015 176.839201 
L 238.135202 175.289335 
L 240.686816 175.289335 
L 240.723935 174.256091 
L 240.989198 174.256091 
L 241.085232 173.222847 
L 241.398607 173.222847 
L 241.398607 172.706225 
L 241.67572 172.706225 
L 241.67572 172.189603 
L 243.617881 172.189603 
L 243.617881 171.672981 
L 243.874842 171.672981 
L 243.874842 171.156359 
L 244.223788 171.156359 
L 244.283784 169.606493 
L 246.13521 169.606493 
L 246.13521 169.089871 
L 246.358614 169.089871 
L 246.358614 168.573249 
L 246.506205 168.573249 
L 246.506205 168.056627 
L 248.538886 168.056627 
L 248.601884 167.023383 
L 248.669585 167.023383 
L 248.669585 166.506761 
L 250.185137 166.506761 
L 250.185137 165.990139 
L 250.599096 165.990139 
L 250.599096 165.473517 
L 251.96529 165.473517 
L 251.96529 164.956895 
L 252.340404 164.956895 
L 252.340404 164.440273 
L 252.634927 164.440273 
L 252.634927 163.407029 
L 253.829691 163.407029 
L 253.829691 162.890407 
L 254.167612 162.890407 
L 254.19667 161.857163 
L 255.632815 161.857163 
L 255.632815 161.340541 
L 256.731302 161.340541 
L 256.731302 160.307297 
L 259.356279 160.307297 
L 259.356279 159.790675 
L 264.971887 159.790675 
L 264.971887 159.274053 
L 265.718388 159.274053 
L 265.718388 158.757431 
L 265.858296 158.757431 
L 265.858296 158.240809 
L 267.288488 158.240809 
L 267.288488 157.724187 
L 272.273488 157.724187 
L 272.273488 157.207565 
L 273.282312 157.207565 
L 273.282312 156.690943 
L 274.368411 156.690943 
L 274.368411 156.174321 
L 274.761103 156.174321 
L 274.761103 155.657699 
L 275.270074 155.657699 
L 275.270074 155.141077 
L 275.724056 155.141077 
L 275.724056 154.624455 
L 276.20508 154.624455 
L 276.20508 154.107833 
L 289.225551 154.107833 
L 289.225551 153.591211 
L 358.8 153.591211 
L 358.8 153.591211 
" style="fill:none;stroke:#ff00ff;stroke-linecap:square;stroke-width:1.5;"/>
   </g>
   <g id="line2d_30">
    <defs>
     <path d="M -0 8.485281 
L 5.091169 0 
L 0 -8.485281 
L -5.091169 -0 
z
" id="m1b3fcbe248" style="stroke:#ff00ff;stroke-linejoin:miter;stroke-width:1.5;"/>
    </defs>
    <g>
     <use style="fill:none;stroke:#ff00ff;stroke-linejoin:miter;stroke-width:1.5;" x="123.03139" xlink:href="#m1b3fcbe248" y="258.982102"/>
     <use style="fill:none;stroke:#ff00ff;stroke-linejoin:miter;stroke-width:1.5;" x="176.268936" xlink:href="#m1b3fcbe248" y="227.984781"/>
     <use style="fill:none;stroke:#ff00ff;stroke-linejoin:miter;stroke-width:1.5;" x="237.66243" xlink:href="#m1b3fcbe248" y="177.355823"/>
     <use style="fill:none;stroke:#ff00ff;stroke-linejoin:miter;stroke-width:1.5;" x="289.225551" xlink:href="#m1b3fcbe248" y="154.107833"/>
     <use style="fill:none;stroke:#ff00ff;stroke-linejoin:miter;stroke-width:1.5;" x="289.225551" xlink:href="#m1b3fcbe248" y="153.591211"/>
     <use style="fill:none;stroke:#ff00ff;stroke-linejoin:miter;stroke-width:1.5;" x="358.8" xlink:href="#m1b3fcbe248" y="153.591211"/>
    </g>
   </g>
   <g id="line2d_31"/>
   <g id="line2d_32">
    <path clip-path="url(#pfa5d919d89)" d="M 209.873037 190.787996 
" style="fill:none;stroke:#ff00ff;stroke-linecap:square;stroke-width:1.5;"/>
    <defs>
     <path d="M -12 12 
L 12 -12 
M -12 -12 
L 12 12 
" id="m9b15b3c110" style="stroke:#ff00ff;stroke-width:3;"/>
    </defs>
    <g clip-path="url(#pfa5d919d89)">
     <use style="fill:#ff00ff;stroke:#ff00ff;stroke-width:3;" x="209.873037" xlink:href="#m9b15b3c110" y="190.787996"/>
    </g>
   </g>
   <g id="line2d_33">
    <defs>
     <path d="M 0 1.5 
C 0.397805 1.5 0.77937 1.341951 1.06066 1.06066 
C 1.341951 0.77937 1.5 0.397805 1.5 0 
C 1.5 -0.397805 1.341951 -0.77937 1.06066 -1.06066 
C 0.77937 -1.341951 0.397805 -1.5 0 -1.5 
C -0.397805 -1.5 -0.77937 -1.341951 -1.06066 -1.06066 
C -1.341951 -0.77937 -1.5 -0.397805 -1.5 0 
C -1.5 0.397805 -1.341951 0.77937 -1.06066 1.06066 
C -0.77937 1.341951 -0.397805 1.5 0 1.5 
z
" id="m56ffa697e9" style="stroke:#ffa500;"/>
    </defs>
    <g>
     <use style="fill:#ffa500;stroke:#ffa500;" x="186.029503" xlink:href="#m56ffa697e9" y="34.768147"/>
     <use style="fill:#ffa500;stroke:#ffa500;" x="186.029503" xlink:href="#m56ffa697e9" y="34.768147"/>
    </g>
   </g>
   <g id="line2d_34">
    <path d="M 70.8 298.245375 
L 70.8 297.728753 
L 94.653954 297.728753 
L 94.653954 296.695509 
L 106.562676 296.695509 
L 106.562676 296.178887 
L 110.452985 296.178887 
L 110.452985 294.629021 
L 117.954982 294.629021 
L 117.954982 294.112399 
L 118.208435 294.112399 
L 118.208435 293.079155 
L 118.704803 293.079155 
L 118.704803 291.529289 
L 119.657995 291.529289 
L 119.657995 290.496045 
L 120.998733 290.496045 
L 120.998733 289.979423 
L 121.63317 289.979423 
L 121.63317 288.946179 
L 125.19988 288.946179 
L 125.19988 287.912935 
L 125.70324 287.912935 
L 125.70324 287.396313 
L 126.353061 287.396313 
L 126.353061 286.363069 
L 126.825374 286.363069 
L 126.825374 283.263337 
L 127.734118 283.263337 
L 127.734118 282.746715 
L 128.315246 282.746715 
L 128.315246 280.680226 
L 129.152967 280.680226 
L 129.152967 280.163604 
L 129.423702 280.163604 
L 129.423702 279.13036 
L 130.593669 279.13036 
L 130.593669 278.613738 
L 130.71906 278.613738 
L 130.71906 276.54725 
L 130.967232 276.54725 
L 130.967232 276.030628 
L 131.212004 276.030628 
L 131.212004 275.514006 
L 134.121988 275.514006 
L 134.121988 274.997384 
L 135.126079 274.997384 
L 135.126079 274.480762 
L 136.076735 274.480762 
L 136.076735 273.96414 
L 136.802443 273.96414 
L 136.891119 271.897652 
L 137.154536 271.897652 
L 137.154536 271.38103 
L 137.414126 271.38103 
L 137.414126 270.864408 
L 138.334935 270.864408 
L 138.334935 269.314542 
L 138.976012 269.314542 
L 139.054554 267.248054 
L 139.132751 267.248054 
L 139.210608 265.181566 
L 139.518687 265.181566 
L 139.594883 263.6317 
L 140.55696 263.6317 
L 140.55696 263.115078 
L 142.075629 263.115078 
L 142.075629 262.598456 
L 142.3384 262.598456 
L 142.3384 261.565212 
L 142.852626 261.565212 
L 142.852626 261.04859 
L 143.228811 261.04859 
L 143.228811 260.531968 
L 143.352466 260.531968 
L 143.352466 260.015346 
L 143.718379 260.015346 
L 143.778642 257.948858 
L 144.886646 257.948858 
L 144.886646 257.432236 
L 145.661236 257.432236 
L 145.661236 256.915614 
L 146.55879 256.915614 
L 146.55879 255.88237 
L 146.712605 255.88237 
L 146.712605 255.365748 
L 146.915654 255.365748 
L 146.915654 254.849126 
L 147.608687 254.849126 
L 147.608687 253.815882 
L 148.087754 253.815882 
L 148.087754 252.782638 
L 148.646178 252.782638 
L 148.646178 252.266016 
L 148.918979 252.266016 
L 148.964044 249.166284 
L 149.53977 249.166284 
L 149.53977 248.13304 
L 149.927754 248.13304 
L 149.927754 247.099796 
L 150.55624 247.099796 
L 150.597364 245.549929 
L 150.882607 245.549929 
L 150.882607 245.033307 
L 151.20312 245.033307 
L 151.20312 244.516685 
L 151.439788 244.516685 
L 151.439788 242.966819 
L 151.595842 242.966819 
L 151.595842 241.933575 
L 151.789013 241.933575 
L 151.789013 241.416953 
L 152.761158 241.416953 
L 152.87 239.867087 
L 152.906134 239.867087 
L 152.978183 237.800599 
L 153.369341 237.800599 
L 153.369341 236.767355 
L 153.855106 236.767355 
L 153.957503 233.151001 
L 154.059315 233.151001 
L 154.160552 231.601135 
L 154.227725 231.601135 
L 154.227725 231.084513 
L 154.918207 231.084513 
L 154.950431 229.534647 
L 155.174385 229.534647 
L 155.174385 228.501403 
L 155.489528 228.501403 
L 155.582997 226.434915 
L 155.768481 226.434915 
L 155.768481 225.918293 
L 155.891075 225.918293 
L 155.891075 225.401671 
L 156.13377 225.401671 
L 156.13377 224.885049 
L 156.580124 224.885049 
L 156.668072 222.301939 
L 156.726465 222.301939 
L 156.784667 221.268695 
L 156.842681 221.268695 
L 156.842681 220.752073 
L 157.243585 220.752073 
L 157.243585 218.168963 
L 157.5802 218.168963 
L 157.635691 217.135719 
L 157.937849 217.135719 
L 158.019377 215.585853 
L 158.100534 215.585853 
L 158.154435 214.552609 
L 158.234983 214.552609 
L 158.234983 214.035987 
L 158.606144 214.035987 
L 158.632363 212.48612 
L 158.788873 212.48612 
L 158.788873 211.969498 
L 158.995443 211.969498 
L 159.021097 210.419632 
L 159.87212 210.419632 
L 159.896547 209.386388 
L 160.018182 209.386388 
L 160.018182 208.869766 
L 160.138995 208.869766 
L 160.138995 208.353144 
L 160.637672 208.353144 
L 160.684447 207.3199 
L 160.800853 207.3199 
L 160.847203 204.73679 
L 161.371767 204.73679 
L 161.394229 202.670302 
L 161.705761 202.670302 
L 161.705761 201.120436 
L 161.859513 201.120436 
L 161.859513 200.603814 
L 162.206057 200.603814 
L 162.206057 200.087192 
L 162.334298 200.087192 
L 162.334298 199.57057 
L 162.962048 199.57057 
L 163.064562 198.537326 
L 163.166491 198.537326 
L 163.267842 195.437594 
L 163.308222 195.437594 
L 163.308222 194.920972 
L 163.428817 194.920972 
L 163.468835 192.854484 
L 163.548603 192.854484 
L 163.548603 192.337862 
L 163.726791 192.337862 
L 163.726791 191.82124 
L 164.097229 191.82124 
L 164.155023 189.754752 
L 164.327294 189.754752 
L 164.38435 186.65502 
L 164.815832 186.65502 
L 164.871352 183.555288 
L 164.981877 183.555288 
L 165.036884 182.522044 
L 165.164579 182.522044 
L 165.23714 181.4888 
L 165.345432 181.4888 
L 165.417263 179.938934 
L 165.488808 179.938934 
L 165.488808 177.872445 
L 166.016448 177.872445 
L 166.068365 176.322579 
L 166.223217 176.322579 
L 166.30867 172.706225 
L 166.342737 172.706225 
L 166.427621 170.639737 
L 166.478359 170.639737 
L 166.579404 168.056627 
L 166.696572 168.056627 
L 166.696572 167.540005 
L 166.846097 167.540005 
L 166.846097 165.990139 
L 167.125164 165.990139 
L 167.173962 164.956895 
L 167.271159 164.956895 
L 167.287308 163.923651 
L 167.733635 163.923651 
L 167.733635 162.890407 
L 167.937129 162.890407 
L 167.952687 160.823919 
L 168.153715 160.823919 
L 168.24574 159.274053 
L 168.322067 159.274053 
L 168.322067 158.757431 
L 168.443516 158.757431 
L 168.443516 156.690943 
L 168.713795 156.690943 
L 168.713795 155.141077 
L 168.891736 155.141077 
L 168.921221 152.557967 
L 169.082527 152.557967 
L 169.140824 151.524723 
L 169.37213 151.524723 
L 169.443803 148.424991 
L 169.811939 148.424991 
L 169.811939 147.391747 
L 170.076244 147.391747 
L 170.158903 145.841881 
L 170.268524 145.841881 
L 170.28218 144.808637 
L 170.445236 144.808637 
L 170.553119 143.25877 
L 170.620217 143.25877 
L 170.620217 142.742148 
L 170.806761 142.742148 
L 170.833252 141.708904 
L 171.017597 141.708904 
L 171.096023 138.09255 
L 171.200059 138.09255 
L 171.238917 136.542684 
L 171.31638 136.542684 
L 171.31638 134.992818 
L 171.546774 134.992818 
L 171.546774 134.476196 
L 171.761675 134.476196 
L 171.824392 132.409708 
L 171.88689 132.409708 
L 171.924284 131.376464 
L 172.293982 131.376464 
L 172.342702 127.76011 
L 172.58433 127.76011 
L 172.58433 127.243488 
L 172.751546 127.243488 
L 172.810889 125.177 
L 173.116335 125.177 
L 173.151245 123.627134 
L 173.290207 123.627134 
L 173.290207 123.110512 
L 173.405189 123.110512 
L 173.405189 122.59389 
L 173.53082 122.59389 
L 173.587634 120.527402 
L 173.757002 120.527402 
L 173.857857 117.42767 
L 173.891349 117.42767 
L 173.991451 113.294694 
L 174.002539 113.294694 
L 174.102021 111.744828 
L 174.277523 111.744828 
L 174.364631 110.194961 
L 174.462123 110.194961 
L 174.505283 107.611851 
L 174.623438 107.611851 
L 174.719532 106.061985 
L 174.899645 106.061985 
L 174.899645 105.545363 
L 175.264845 105.545363 
L 175.264845 105.028741 
L 175.378098 105.028741 
L 175.42934 103.995497 
L 175.521207 103.995497 
L 175.602472 101.412387 
L 175.723681 101.412387 
L 175.723681 100.895765 
L 175.943784 100.895765 
L 175.953724 98.312655 
L 176.092314 98.312655 
L 176.190653 95.212923 
L 176.337154 95.212923 
L 176.337154 94.696301 
L 176.453496 94.696301 
L 176.463157 93.146435 
L 176.607449 93.146435 
L 176.607449 91.596569 
L 176.845377 91.596569 
L 176.930261 90.046703 
L 177.033464 90.046703 
L 177.12677 89.013459 
L 177.173241 89.013459 
L 177.247345 87.463593 
L 177.449558 87.463593 
L 177.495198 86.430349 
L 177.622374 86.430349 
L 177.667575 85.397105 
L 177.900797 85.397105 
L 177.998559 81.780751 
L 178.016276 81.780751 
L 178.016276 81.264129 
L 178.157387 81.264129 
L 178.210018 78.164397 
L 178.297393 78.164397 
L 178.340921 76.614531 
L 178.453599 76.614531 
L 178.453599 75.581286 
L 178.642681 75.581286 
L 178.693904 73.514798 
L 178.77895 73.514798 
L 178.855147 72.481554 
L 179.006572 72.481554 
L 179.065115 68.8652 
L 179.140104 68.8652 
L 179.239602 63.69898 
L 179.280896 63.69898 
L 179.379615 60.599248 
L 179.510398 60.599248 
L 179.510398 60.082626 
L 179.720899 60.082626 
L 179.720899 59.049382 
L 180.09524 59.049382 
L 180.189572 54.399784 
L 180.790886 54.399784 
L 180.836313 52.849918 
L 180.904238 52.849918 
L 180.904238 51.816674 
L 181.031841 51.816674 
L 181.031841 50.266808 
L 181.37262 50.266808 
L 181.379957 49.233564 
L 181.569657 49.233564 
L 181.598663 47.683698 
L 181.707021 47.683698 
L 181.728614 45.61721 
L 181.836189 45.61721 
L 181.928899 44.067344 
L 181.992803 44.067344 
L 182.014053 41.484233 
L 182.295004 41.484233 
L 182.357614 39.934367 
L 182.447665 39.934367 
L 182.447665 39.417745 
L 182.985348 39.417745 
L 182.985348 38.901123 
L 183.277947 38.901123 
L 183.310896 37.351257 
L 184.861236 37.351257 
L 184.903442 35.801391 
L 186.029503 35.801391 
L 186.029503 34.768147 
L 358.8 34.768147 
L 358.8 34.768147 
" style="fill:none;stroke:#ffa500;stroke-linecap:square;stroke-width:1.5;"/>
   </g>
   <g id="line2d_35">
    <defs>
     <path d="M 0 -6 
L -1.347084 -1.854102 
L -5.706339 -1.854102 
L -2.179628 0.708204 
L -3.526712 4.854102 
L -0 2.291796 
L 3.526712 4.854102 
L 2.179628 0.708204 
L 5.706339 -1.854102 
L 1.347084 -1.854102 
z
" id="m32e0d91ee4" style="stroke:#ffa500;stroke-linejoin:bevel;stroke-width:1.5;"/>
    </defs>
    <g>
     <use style="fill:none;stroke:#ffa500;stroke-linejoin:bevel;stroke-width:1.5;" x="166.30867" xlink:href="#m32e0d91ee4" y="173.222847"/>
     <use style="fill:none;stroke:#ffa500;stroke-linejoin:bevel;stroke-width:1.5;" x="179.313863" xlink:href="#m32e0d91ee4" y="62.665736"/>
     <use style="fill:none;stroke:#ffa500;stroke-linejoin:bevel;stroke-width:1.5;" x="186.029503" xlink:href="#m32e0d91ee4" y="34.768147"/>
     <use style="fill:none;stroke:#ffa500;stroke-linejoin:bevel;stroke-width:1.5;" x="186.029503" xlink:href="#m32e0d91ee4" y="34.768147"/>
     <use style="fill:none;stroke:#ffa500;stroke-linejoin:bevel;stroke-width:1.5;" x="358.8" xlink:href="#m32e0d91ee4" y="34.768147"/>
    </g>
   </g>
   <g id="line2d_36"/>
   <g id="line2d_37">
    <defs>
     <path d="M 0 1.5 
C 0.397805 1.5 0.77937 1.341951 1.06066 1.06066 
C 1.341951 0.77937 1.5 0.397805 1.5 0 
C 1.5 -0.397805 1.341951 -0.77937 1.06066 -1.06066 
C 0.77937 -1.341951 0.397805 -1.5 0 -1.5 
C -0.397805 -1.5 -0.77937 -1.341951 -1.06066 -1.06066 
C -1.341951 -0.77937 -1.5 -0.397805 -1.5 0 
C -1.5 0.397805 -1.341951 0.77937 -1.06066 1.06066 
C -0.77937 1.341951 -0.397805 1.5 0 1.5 
z
" id="m34896897f2" style="stroke:#6495ed;"/>
    </defs>
    <g>
     <use style="fill:#6495ed;stroke:#6495ed;" x="279.420917" xlink:href="#m34896897f2" y="220.752073"/>
     <use style="fill:#6495ed;stroke:#6495ed;" x="279.420917" xlink:href="#m34896897f2" y="220.752073"/>
    </g>
   </g>
   <g id="line2d_38">
    <path d="M 42.042377 298.245375 
L 42.042377 294.112399 
L 74.057743 294.112399 
L 74.057743 293.079155 
L 97.273482 293.079155 
L 97.273482 292.562533 
L 99.557623 292.562533 
L 99.557623 292.045911 
L 101.582593 292.045911 
L 101.582593 291.529289 
L 102.209609 291.529289 
L 102.209609 291.012667 
L 107.039188 291.012667 
L 107.039188 290.496045 
L 108.827491 290.496045 
L 108.827491 289.979423 
L 111.213445 289.979423 
L 111.213445 289.462801 
L 112.643657 289.462801 
L 112.643657 288.946179 
L 114.900288 288.946179 
L 114.900288 287.912935 
L 115.2006 287.912935 
L 115.2006 287.396313 
L 115.495947 287.396313 
L 115.495947 285.846447 
L 117.172312 285.846447 
L 117.172312 285.329825 
L 117.437029 285.329825 
L 117.437029 283.779959 
L 118.704803 283.779959 
L 118.704803 283.263337 
L 118.947911 283.263337 
L 118.947911 282.746715 
L 119.187755 282.746715 
L 119.187755 278.613738 
L 119.657995 278.613738 
L 119.657995 277.580494 
L 119.888555 277.580494 
L 119.888555 276.030628 
L 120.562903 276.030628 
L 120.562903 275.514006 
L 120.782147 275.514006 
L 120.782147 274.997384 
L 121.424184 274.997384 
L 121.424184 274.480762 
L 122.838219 274.480762 
L 122.838219 273.96414 
L 124.148511 273.96414 
L 124.148511 273.447518 
L 125.70324 273.447518 
L 125.70324 272.930896 
L 125.867924 272.930896 
L 125.867924 272.414274 
L 126.825374 272.414274 
L 126.825374 271.897652 
L 128.027044 271.897652 
L 128.027044 271.38103 
L 128.739016 271.38103 
L 128.739016 270.347786 
L 129.288847 270.347786 
L 129.288847 269.831164 
L 129.953166 269.831164 
L 129.953166 269.314542 
L 130.340216 269.314542 
L 130.340216 267.764676 
L 132.501411 267.764676 
L 132.501411 266.731432 
L 135.126079 266.731432 
L 135.126079 265.698188 
L 135.607728 265.698188 
L 135.607728 265.181566 
L 136.623761 265.181566 
L 136.623761 264.148322 
L 136.891119 264.148322 
L 136.891119 263.6317 
L 137.328014 263.6317 
L 137.328014 261.04859 
L 137.669998 261.04859 
L 137.669998 260.015346 
L 138.416339 260.015346 
L 138.416339 259.498724 
L 138.738295 259.498724 
L 138.738295 258.982102 
L 138.897124 258.982102 
L 138.897124 258.46548 
L 139.132751 258.46548 
L 139.132751 257.948858 
L 141.808936 257.948858 
L 141.875983 256.398992 
L 142.468351 256.398992 
L 142.468351 255.88237 
L 142.915876 255.88237 
L 142.915876 255.365748 
L 144.544115 255.365748 
L 144.544115 253.29926 
L 144.830011 253.29926 
L 144.830011 252.266016 
L 144.999378 252.266016 
L 144.999378 250.71615 
L 146.194652 250.71615 
L 146.194652 249.682906 
L 148.646178 249.682906 
L 148.646178 249.166284 
L 151.003475 249.166284 
L 151.003475 248.649662 
L 151.673361 248.649662 
L 151.673361 247.616418 
L 155.7377 247.616418 
L 155.7377 247.099796 
L 156.668072 247.099796 
L 156.668072 246.583173 
L 157.072869 246.583173 
L 157.072869 245.033307 
L 165.560066 245.033307 
L 165.560066 244.516685 
L 210.295318 244.516685 
L 210.37222 242.966819 
L 210.444467 242.966819 
L 210.523603 240.383709 
L 210.720632 240.383709 
L 210.780169 239.350465 
L 210.957599 239.350465 
L 210.957599 238.317221 
L 211.310006 238.317221 
L 211.310006 237.283977 
L 222.49345 237.283977 
L 222.56677 234.700867 
L 222.80878 234.700867 
L 222.80878 234.184245 
L 222.991197 234.184245 
L 222.991197 233.151001 
L 229.656362 233.151001 
L 229.701574 231.601135 
L 229.810692 231.601135 
L 229.810692 231.084513 
L 229.995111 231.084513 
L 229.995111 230.567891 
L 234.694427 230.567891 
L 234.726689 229.534647 
L 238.712658 229.534647 
L 238.731619 228.501403 
L 238.852903 228.501403 
L 238.852903 227.984781 
L 241.972575 227.984781 
L 241.972575 227.468159 
L 247.080032 227.468159 
L 247.080032 226.951537 
L 249.178901 226.951537 
L 249.178901 226.434915 
L 252.773237 226.434915 
L 252.773237 225.918293 
L 254.307849 225.918293 
L 254.307849 225.401671 
L 258.288166 225.401671 
L 258.288166 224.885049 
L 260.526974 224.885049 
L 260.526974 223.851805 
L 261.546636 223.851805 
L 261.546636 223.335183 
L 263.421663 223.335183 
L 263.421663 222.818561 
L 266.675985 222.818561 
L 266.675985 222.301939 
L 272.364373 222.301939 
L 272.364373 221.785317 
L 276.667932 221.785317 
L 276.667932 221.268695 
L 279.420917 221.268695 
L 279.420917 220.752073 
L 358.8 220.752073 
L 358.8 220.752073 
" style="fill:none;stroke:#6495ed;stroke-linecap:square;stroke-width:1.5;"/>
   </g>
   <g id="line2d_39">
    <defs>
     <path d="M -0 6 
L 6 -6 
L -6 -6 
z
" id="m328a903f2a" style="stroke:#6495ed;stroke-linejoin:miter;stroke-width:1.5;"/>
    </defs>
    <g>
     <use style="fill:none;stroke:#6495ed;stroke-linejoin:miter;stroke-width:1.5;" x="124.148511" xlink:href="#m328a903f2a" y="273.96414"/>
     <use style="fill:none;stroke:#6495ed;stroke-linejoin:miter;stroke-width:1.5;" x="157.072869" xlink:href="#m328a903f2a" y="245.033307"/>
     <use style="fill:none;stroke:#6495ed;stroke-linejoin:miter;stroke-width:1.5;" x="258.288166" xlink:href="#m328a903f2a" y="225.401671"/>
     <use style="fill:none;stroke:#6495ed;stroke-linejoin:miter;stroke-width:1.5;" x="279.420917" xlink:href="#m328a903f2a" y="220.752073"/>
     <use style="fill:none;stroke:#6495ed;stroke-linejoin:miter;stroke-width:1.5;" x="279.420917" xlink:href="#m328a903f2a" y="220.752073"/>
     <use style="fill:none;stroke:#6495ed;stroke-linejoin:miter;stroke-width:1.5;" x="358.8" xlink:href="#m328a903f2a" y="220.752073"/>
    </g>
   </g>
   <g id="line2d_40"/>
   <g id="line2d_41">
    <path clip-path="url(#pfa5d919d89)" d="M 209.873037 244.516685 
" style="fill:none;stroke:#6495ed;stroke-linecap:square;stroke-width:1.5;"/>
    <defs>
     <path d="M -12 12 
L 12 -12 
M -12 -12 
L 12 12 
" id="m86b63a126d" style="stroke:#6495ed;stroke-width:3;"/>
    </defs>
    <g clip-path="url(#pfa5d919d89)">
     <use style="fill:#6495ed;stroke:#6495ed;stroke-width:3;" x="209.873037" xlink:href="#m86b63a126d" y="244.516685"/>
    </g>
   </g>
   <g id="line2d_42">
    <path d="M 358.8 220.752073 
L 390.48 292.97583 
" style="fill:none;stroke:#6495ed;stroke-linecap:square;stroke-width:1.5;"/>
    <g>
     <use style="fill:none;stroke:#6495ed;stroke-linejoin:miter;stroke-width:1.5;" x="358.8" xlink:href="#m328a903f2a" y="220.752073"/>
     <use style="fill:none;stroke:#6495ed;stroke-linejoin:miter;stroke-width:1.5;" x="390.48" xlink:href="#m328a903f2a" y="292.97583"/>
    </g>
   </g>
   <g id="line2d_43">
    <path d="M 358.8 184.588532 
L 390.48 208.663118 
" style="fill:none;stroke:#000080;stroke-linecap:square;stroke-width:1.5;"/>
    <g>
     <use style="fill:none;stroke:#000080;stroke-width:1.5;" x="358.8" xlink:href="#m0fe2936e4e" y="184.588532"/>
     <use style="fill:none;stroke:#000080;stroke-width:1.5;" x="390.48" xlink:href="#m0fe2936e4e" y="208.663118"/>
    </g>
   </g>
   <g id="line2d_44">
    <path d="M 358.8 153.591211 
L 390.48 124.350405 
" style="fill:none;stroke:#ff00ff;stroke-linecap:square;stroke-width:1.5;"/>
    <g>
     <use style="fill:none;stroke:#ff00ff;stroke-linejoin:miter;stroke-width:1.5;" x="358.8" xlink:href="#m1b3fcbe248" y="153.591211"/>
     <use style="fill:none;stroke:#ff00ff;stroke-linejoin:miter;stroke-width:1.5;" x="390.48" xlink:href="#m1b3fcbe248" y="124.350405"/>
    </g>
   </g>
   <g id="line2d_45">
    <path d="M 358.8 34.768147 
L 390.48 40.037692 
" style="fill:none;stroke:#ffa500;stroke-linecap:square;stroke-width:1.5;"/>
    <g>
     <use style="fill:none;stroke:#ffa500;stroke-linejoin:bevel;stroke-width:1.5;" x="358.8" xlink:href="#m32e0d91ee4" y="34.768147"/>
     <use style="fill:none;stroke:#ffa500;stroke-linejoin:bevel;stroke-width:1.5;" x="390.48" xlink:href="#m32e0d91ee4" y="40.037692"/>
    </g>
   </g>
   <g id="line2d_46">
    <path d="M 358.8 298.245375 
L 358.8 34.768147 
" style="fill:none;stroke:#000000;stroke-linecap:square;stroke-width:1.5;"/>
   </g>
   <g id="patch_3">
    <path d="M 70.8 298.245375 
L 70.8 32.133375 
" style="fill:none;stroke:#000000;stroke-linecap:square;stroke-linejoin:miter;stroke-width:0.8;"/>
   </g>
   <g id="patch_4">
    <path d="M 427.92 298.245375 
L 427.92 32.133375 
" style="fill:none;stroke:#000000;stroke-linecap:square;stroke-linejoin:miter;stroke-width:0.8;"/>
   </g>
   <g id="patch_5">
    <path d="M 70.8 298.245375 
L 427.92 298.245375 
" style="fill:none;stroke:#000000;stroke-linecap:square;stroke-linejoin:miter;stroke-width:0.8;"/>
   </g>
   <g id="patch_6">
    <path d="M 70.8 32.133375 
L 427.92 32.133375 
" style="fill:none;stroke:#000000;stroke-linecap:square;stroke-linejoin:miter;stroke-width:0.8;"/>
   </g>
   <g id="text_14">
    <!-- f7 -->
    <defs>
     <path d="M 8.203125 72.90625 
L 55.078125 72.90625 
L 55.078125 68.703125 
L 28.609375 0 
L 18.3125 0 
L 43.21875 64.59375 
L 8.203125 64.59375 
z
" id="DejaVuSans-37"/>
    </defs>
    <g transform="translate(396.24 297.114893)scale(0.15 -0.15)">
     <use xlink:href="#DejaVuSans-66"/>
     <use x="35.205078" xlink:href="#DejaVuSans-37"/>
    </g>
   </g>
   <g id="text_15">
    <!-- f8 -->
    <g transform="translate(396.24 212.80218)scale(0.15 -0.15)">
     <use xlink:href="#DejaVuSans-66"/>
     <use x="35.205078" xlink:href="#DejaVuSans-38"/>
    </g>
   </g>
   <g id="text_16">
    <!-- f9 -->
    <defs>
     <path d="M 10.984375 1.515625 
L 10.984375 10.5 
Q 14.703125 8.734375 18.5 7.8125 
Q 22.3125 6.890625 25.984375 6.890625 
Q 35.75 6.890625 40.890625 13.453125 
Q 46.046875 20.015625 46.78125 33.40625 
Q 43.953125 29.203125 39.59375 26.953125 
Q 35.25 24.703125 29.984375 24.703125 
Q 19.046875 24.703125 12.671875 31.3125 
Q 6.296875 37.9375 6.296875 49.421875 
Q 6.296875 60.640625 12.9375 67.421875 
Q 19.578125 74.21875 30.609375 74.21875 
Q 43.265625 74.21875 49.921875 64.515625 
Q 56.59375 54.828125 56.59375 36.375 
Q 56.59375 19.140625 48.40625 8.859375 
Q 40.234375 -1.421875 26.421875 -1.421875 
Q 22.703125 -1.421875 18.890625 -0.6875 
Q 15.09375 0.046875 10.984375 1.515625 
z
M 30.609375 32.421875 
Q 37.25 32.421875 41.125 36.953125 
Q 45.015625 41.5 45.015625 49.421875 
Q 45.015625 57.28125 41.125 61.84375 
Q 37.25 66.40625 30.609375 66.40625 
Q 23.96875 66.40625 20.09375 61.84375 
Q 16.21875 57.28125 16.21875 49.421875 
Q 16.21875 41.5 20.09375 36.953125 
Q 23.96875 32.421875 30.609375 32.421875 
z
" id="DejaVuSans-39"/>
    </defs>
    <g transform="translate(396.24 128.489467)scale(0.15 -0.15)">
     <use xlink:href="#DejaVuSans-66"/>
     <use x="35.205078" xlink:href="#DejaVuSans-39"/>
    </g>
   </g>
   <g id="text_17">
    <!-- f6 -->
    <g transform="translate(396.24 44.176754)scale(0.15 -0.15)">
     <use xlink:href="#DejaVuSans-66"/>
     <use x="35.205078" xlink:href="#DejaVuSans-36"/>
    </g>
   </g>
   <g id="text_18">
    <!-- bbob -->
    <defs>
     <path d="M 48.6875 27.296875 
Q 48.6875 37.203125 44.609375 42.84375 
Q 40.53125 48.484375 33.40625 48.484375 
Q 26.265625 48.484375 22.1875 42.84375 
Q 18.109375 37.203125 18.109375 27.296875 
Q 18.109375 17.390625 22.1875 11.75 
Q 26.265625 6.109375 33.40625 6.109375 
Q 40.53125 6.109375 44.609375 11.75 
Q 48.6875 17.390625 48.6875 27.296875 
z
M 18.109375 46.390625 
Q 20.953125 51.265625 25.265625 53.625 
Q 29.59375 56 35.59375 56 
Q 45.5625 56 51.78125 48.09375 
Q 58.015625 40.1875 58.015625 27.296875 
Q 58.015625 14.40625 51.78125 6.484375 
Q 45.5625 -1.421875 35.59375 -1.421875 
Q 29.59375 -1.421875 25.265625 0.953125 
Q 20.953125 3.328125 18.109375 8.203125 
L 18.109375 0 
L 9.078125 0 
L 9.078125 75.984375 
L 18.109375 75.984375 
z
" id="DejaVuSans-62"/>
    </defs>
    <g transform="translate(74.3712 50.114612)scale(0.1666 -0.1666)">
     <use xlink:href="#DejaVuSans-62"/>
     <use x="63.476562" xlink:href="#DejaVuSans-62"/>
     <use x="126.953125" xlink:href="#DejaVuSans-6f"/>
     <use x="188.134766" xlink:href="#DejaVuSans-62"/>
    </g>
    <!-- Misc. moderate functions, 5-D -->
    <defs>
     <path d="M 9.8125 72.90625 
L 24.515625 72.90625 
L 43.109375 23.296875 
L 61.8125 72.90625 
L 76.515625 72.90625 
L 76.515625 0 
L 66.890625 0 
L 66.890625 64.015625 
L 48.09375 14.015625 
L 38.1875 14.015625 
L 19.390625 64.015625 
L 19.390625 0 
L 9.8125 0 
z
" id="DejaVuSans-4d"/>
     <path d="M 11.71875 12.40625 
L 22.015625 12.40625 
L 22.015625 4 
L 14.015625 -11.625 
L 7.71875 -11.625 
L 11.71875 4 
z
" id="DejaVuSans-2c"/>
     <path d="M 10.796875 72.90625 
L 49.515625 72.90625 
L 49.515625 64.59375 
L 19.828125 64.59375 
L 19.828125 46.734375 
Q 21.96875 47.46875 24.109375 47.828125 
Q 26.265625 48.1875 28.421875 48.1875 
Q 40.625 48.1875 47.75 41.5 
Q 54.890625 34.8125 54.890625 23.390625 
Q 54.890625 11.625 47.5625 5.09375 
Q 40.234375 -1.421875 26.90625 -1.421875 
Q 22.3125 -1.421875 17.546875 -0.640625 
Q 12.796875 0.140625 7.71875 1.703125 
L 7.71875 11.625 
Q 12.109375 9.234375 16.796875 8.0625 
Q 21.484375 6.890625 26.703125 6.890625 
Q 35.15625 6.890625 40.078125 11.328125 
Q 45.015625 15.765625 45.015625 23.390625 
Q 45.015625 31 40.078125 35.4375 
Q 35.15625 39.890625 26.703125 39.890625 
Q 22.75 39.890625 18.8125 39.015625 
Q 14.890625 38.140625 10.796875 36.28125 
z
" id="DejaVuSans-35"/>
     <path d="M 19.671875 64.796875 
L 19.671875 8.109375 
L 31.59375 8.109375 
Q 46.6875 8.109375 53.6875 14.9375 
Q 60.6875 21.78125 60.6875 36.53125 
Q 60.6875 51.171875 53.6875 57.984375 
Q 46.6875 64.796875 31.59375 64.796875 
z
M 9.8125 72.90625 
L 30.078125 72.90625 
Q 51.265625 72.90625 61.171875 64.09375 
Q 71.09375 55.28125 71.09375 36.53125 
Q 71.09375 17.671875 61.125 8.828125 
Q 51.171875 0 30.078125 0 
L 9.8125 0 
z
" id="DejaVuSans-44"/>
    </defs>
    <g transform="translate(74.3712 68.770168)scale(0.1666 -0.1666)">
     <use xlink:href="#DejaVuSans-4d"/>
     <use x="86.279297" xlink:href="#DejaVuSans-69"/>
     <use x="114.0625" xlink:href="#DejaVuSans-73"/>
     <use x="166.162109" xlink:href="#DejaVuSans-63"/>
     <use x="221.142578" xlink:href="#DejaVuSans-2e"/>
     <use x="252.929688" xlink:href="#DejaVuSans-20"/>
     <use x="284.716797" xlink:href="#DejaVuSans-6d"/>
     <use x="382.128906" xlink:href="#DejaVuSans-6f"/>
     <use x="443.310547" xlink:href="#DejaVuSans-64"/>
     <use x="506.787109" xlink:href="#DejaVuSans-65"/>
     <use x="568.310547" xlink:href="#DejaVuSans-72"/>
     <use x="609.423828" xlink:href="#DejaVuSans-61"/>
     <use x="670.703125" xlink:href="#DejaVuSans-74"/>
     <use x="709.912109" xlink:href="#DejaVuSans-65"/>
     <use x="771.435547" xlink:href="#DejaVuSans-20"/>
     <use x="803.222656" xlink:href="#DejaVuSans-66"/>
     <use x="838.427734" xlink:href="#DejaVuSans-75"/>
     <use x="901.806641" xlink:href="#DejaVuSans-6e"/>
     <use x="965.185547" xlink:href="#DejaVuSans-63"/>
     <use x="1020.166016" xlink:href="#DejaVuSans-74"/>
     <use x="1059.375" xlink:href="#DejaVuSans-69"/>
     <use x="1087.158203" xlink:href="#DejaVuSans-6f"/>
     <use x="1148.339844" xlink:href="#DejaVuSans-6e"/>
     <use x="1211.71875" xlink:href="#DejaVuSans-73"/>
     <use x="1263.818359" xlink:href="#DejaVuSans-2c"/>
     <use x="1295.605469" xlink:href="#DejaVuSans-20"/>
     <use x="1327.392578" xlink:href="#DejaVuSans-35"/>
     <use x="1391.015625" xlink:href="#DejaVuSans-2d"/>
     <use x="1427.099609" xlink:href="#DejaVuSans-44"/>
    </g>
    <!-- 51 targets in 100..1e-08 -->
    <g transform="translate(74.3712 87.425723)scale(0.1666 -0.1666)">
     <use xlink:href="#DejaVuSans-35"/>
     <use x="63.623047" xlink:href="#DejaVuSans-31"/>
     <use x="127.246094" xlink:href="#DejaVuSans-20"/>
     <use x="159.033203" xlink:href="#DejaVuSans-74"/>
     <use x="198.242188" xlink:href="#DejaVuSans-61"/>
     <use x="259.521484" xlink:href="#DejaVuSans-72"/>
     <use x="300.619141" xlink:href="#DejaVuSans-67"/>
     <use x="364.095703" xlink:href="#DejaVuSans-65"/>
     <use x="425.619141" xlink:href="#DejaVuSans-74"/>
     <use x="464.828125" xlink:href="#DejaVuSans-73"/>
     <use x="516.927734" xlink:href="#DejaVuSans-20"/>
     <use x="548.714844" xlink:href="#DejaVuSans-69"/>
     <use x="576.498047" xlink:href="#DejaVuSans-6e"/>
     <use x="639.876953" xlink:href="#DejaVuSans-20"/>
     <use x="671.664062" xlink:href="#DejaVuSans-31"/>
     <use x="735.287109" xlink:href="#DejaVuSans-30"/>
     <use x="798.910156" xlink:href="#DejaVuSans-30"/>
     <use x="862.533203" xlink:href="#DejaVuSans-2e"/>
     <use x="894.320312" xlink:href="#DejaVuSans-2e"/>
     <use x="926.107422" xlink:href="#DejaVuSans-31"/>
     <use x="989.730469" xlink:href="#DejaVuSans-65"/>
     <use x="1051.253906" xlink:href="#DejaVuSans-2d"/>
     <use x="1087.337891" xlink:href="#DejaVuSans-30"/>
     <use x="1150.960938" xlink:href="#DejaVuSans-38"/>
    </g>
    <!-- 15 instances -->
    <g transform="translate(74.3712 106.081279)scale(0.1666 -0.1666)">
     <use xlink:href="#DejaVuSans-31"/>
     <use x="63.623047" xlink:href="#DejaVuSans-35"/>
     <use x="127.246094" xlink:href="#DejaVuSans-20"/>
     <use x="159.033203" xlink:href="#DejaVuSans-69"/>
     <use x="186.816406" xlink:href="#DejaVuSans-6e"/>
     <use x="250.195312" xlink:href="#DejaVuSans-73"/>
     <use x="302.294922" xlink:href="#DejaVuSans-74"/>
     <use x="341.503906" xlink:href="#DejaVuSans-61"/>
     <use x="402.783203" xlink:href="#DejaVuSans-6e"/>
     <use x="466.162109" xlink:href="#DejaVuSans-63"/>
     <use x="521.142578" xlink:href="#DejaVuSans-65"/>
     <use x="582.666016" xlink:href="#DejaVuSans-73"/>
    </g>
   </g>
   <g id="text_19">
    <!-- v2.1 -->
    <g style="fill:#808080;" transform="translate(238.449063 293.504568)scale(0.1 -0.1)">
     <use xlink:href="#DejaVuSans-76"/>
     <use x="59.179688" xlink:href="#DejaVuSans-32"/>
     <use x="122.802734" xlink:href="#DejaVuSans-2e"/>
     <use x="154.589844" xlink:href="#DejaVuSans-31"/>
    </g>
   </g>
  </g>
 </g>
 <defs>
  <clipPath id="pfa5d919d89">
   <rect height="266.112" width="357.12" x="70.8" y="32.133375"/>
  </clipPath>
 </defs>
</svg>
