<?xml version="1.0" encoding="utf-8" standalone="no"?>
<!DOCTYPE svg PUBLIC "-//W3C//DTD SVG 1.1//EN"
  "http://www.w3.org/Graphics/SVG/1.1/DTD/svg11.dtd">
<!-- Created with matplotlib (http://matplotlib.org/) -->
<svg height="353pt" version="1.1" viewBox="0 0 438 353" width="438pt" xmlns="http://www.w3.org/2000/svg" xmlns:xlink="http://www.w3.org/1999/xlink">
 <defs>
  <style type="text/css">
*{stroke-linecap:butt;stroke-linejoin:round;}
  </style>
 </defs>
 <g id="figure_1">
  <g id="patch_1">
   <path d="M 0 353.22225 
L 438.62 353.22225 
L 438.62 0 
L 0 0 
z
" style="fill:#ffffff;"/>
  </g>
  <g id="axes_1">
   <g id="patch_2">
    <path d="M 70.8 298.245375 
L 427.92 298.245375 
L 427.92 32.133375 
L 70.8 32.133375 
z
" style="fill:#ffffff;"/>
   </g>
   <g id="matplotlib.axis_1">
    <g id="xtick_1">
     <g id="line2d_1">
      <path clip-path="url(#p0d0a090dd1)" d="M 70.8 298.245375 
L 70.8 32.133375 
" style="fill:none;stroke:#b0b0b0;stroke-linecap:square;stroke-width:0.8;"/>
     </g>
     <g id="line2d_2">
      <defs>
       <path d="M 0 0 
L 0 3.5 
" id="mf96029da77" style="stroke:#000000;stroke-width:0.8;"/>
      </defs>
      <g>
       <use style="stroke:#000000;stroke-width:0.8;" x="70.8" xlink:href="#mf96029da77" y="298.245375"/>
      </g>
     </g>
     <g id="text_1">
      <!-- 0 -->
      <defs>
       <path d="M 31.78125 66.40625 
Q 24.171875 66.40625 20.328125 58.90625 
Q 16.5 51.421875 16.5 36.375 
Q 16.5 21.390625 20.328125 13.890625 
Q 24.171875 6.390625 31.78125 6.390625 
Q 39.453125 6.390625 43.28125 13.890625 
Q 47.125 21.390625 47.125 36.375 
Q 47.125 51.421875 43.28125 58.90625 
Q 39.453125 66.40625 31.78125 66.40625 
z
M 31.78125 74.21875 
Q 44.046875 74.21875 50.515625 64.515625 
Q 56.984375 54.828125 56.984375 36.375 
Q 56.984375 17.96875 50.515625 8.265625 
Q 44.046875 -1.421875 31.78125 -1.421875 
Q 19.53125 -1.421875 13.0625 8.265625 
Q 6.59375 17.96875 6.59375 36.375 
Q 6.59375 54.828125 13.0625 64.515625 
Q 19.53125 74.21875 31.78125 74.21875 
z
" id="DejaVuSans-30"/>
      </defs>
      <g transform="translate(64.4375 320.44225)scale(0.2 -0.2)">
       <use xlink:href="#DejaVuSans-30"/>
      </g>
     </g>
    </g>
    <g id="xtick_2">
     <g id="line2d_3">
      <path clip-path="url(#p0d0a090dd1)" d="M 153.085714 298.245375 
L 153.085714 32.133375 
" style="fill:none;stroke:#b0b0b0;stroke-linecap:square;stroke-width:0.8;"/>
     </g>
     <g id="line2d_4">
      <g>
       <use style="stroke:#000000;stroke-width:0.8;" x="153.085714" xlink:href="#mf96029da77" y="298.245375"/>
      </g>
     </g>
     <g id="text_2">
      <!-- 2 -->
      <defs>
       <path d="M 19.1875 8.296875 
L 53.609375 8.296875 
L 53.609375 0 
L 7.328125 0 
L 7.328125 8.296875 
Q 12.9375 14.109375 22.625 23.890625 
Q 32.328125 33.6875 34.8125 36.53125 
Q 39.546875 41.84375 41.421875 45.53125 
Q 43.3125 49.21875 43.3125 52.78125 
Q 43.3125 58.59375 39.234375 62.25 
Q 35.15625 65.921875 28.609375 65.921875 
Q 23.96875 65.921875 18.8125 64.3125 
Q 13.671875 62.703125 7.8125 59.421875 
L 7.8125 69.390625 
Q 13.765625 71.78125 18.9375 73 
Q 24.125 74.21875 28.421875 74.21875 
Q 39.75 74.21875 46.484375 68.546875 
Q 53.21875 62.890625 53.21875 53.421875 
Q 53.21875 48.921875 51.53125 44.890625 
Q 49.859375 40.875 45.40625 35.40625 
Q 44.1875 33.984375 37.640625 27.21875 
Q 31.109375 20.453125 19.1875 8.296875 
z
" id="DejaVuSans-32"/>
      </defs>
      <g transform="translate(146.723214 320.44225)scale(0.2 -0.2)">
       <use xlink:href="#DejaVuSans-32"/>
      </g>
     </g>
    </g>
    <g id="xtick_3">
     <g id="line2d_5">
      <path clip-path="url(#p0d0a090dd1)" d="M 235.371429 298.245375 
L 235.371429 32.133375 
" style="fill:none;stroke:#b0b0b0;stroke-linecap:square;stroke-width:0.8;"/>
     </g>
     <g id="line2d_6">
      <g>
       <use style="stroke:#000000;stroke-width:0.8;" x="235.371429" xlink:href="#mf96029da77" y="298.245375"/>
      </g>
     </g>
     <g id="text_3">
      <!-- 4 -->
      <defs>
       <path d="M 37.796875 64.3125 
L 12.890625 25.390625 
L 37.796875 25.390625 
z
M 35.203125 72.90625 
L 47.609375 72.90625 
L 47.609375 25.390625 
L 58.015625 25.390625 
L 58.015625 17.1875 
L 47.609375 17.1875 
L 47.609375 0 
L 37.796875 0 
L 37.796875 17.1875 
L 4.890625 17.1875 
L 4.890625 26.703125 
z
" id="DejaVuSans-34"/>
      </defs>
      <g transform="translate(229.008929 320.44225)scale(0.2 -0.2)">
       <use xlink:href="#DejaVuSans-34"/>
      </g>
     </g>
    </g>
    <g id="xtick_4">
     <g id="line2d_7">
      <path clip-path="url(#p0d0a090dd1)" d="M 317.657143 298.245375 
L 317.657143 32.133375 
" style="fill:none;stroke:#b0b0b0;stroke-linecap:square;stroke-width:0.8;"/>
     </g>
     <g id="line2d_8">
      <g>
       <use style="stroke:#000000;stroke-width:0.8;" x="317.657143" xlink:href="#mf96029da77" y="298.245375"/>
      </g>
     </g>
     <g id="text_4">
      <!-- 6 -->
      <defs>
       <path d="M 33.015625 40.375 
Q 26.375 40.375 22.484375 35.828125 
Q 18.609375 31.296875 18.609375 23.390625 
Q 18.609375 15.53125 22.484375 10.953125 
Q 26.375 6.390625 33.015625 6.390625 
Q 39.65625 6.390625 43.53125 10.953125 
Q 47.40625 15.53125 47.40625 23.390625 
Q 47.40625 31.296875 43.53125 35.828125 
Q 39.65625 40.375 33.015625 40.375 
z
M 52.59375 71.296875 
L 52.59375 62.3125 
Q 48.875 64.0625 45.09375 64.984375 
Q 41.3125 65.921875 37.59375 65.921875 
Q 27.828125 65.921875 22.671875 59.328125 
Q 17.53125 52.734375 16.796875 39.40625 
Q 19.671875 43.65625 24.015625 45.921875 
Q 28.375 48.1875 33.59375 48.1875 
Q 44.578125 48.1875 50.953125 41.515625 
Q 57.328125 34.859375 57.328125 23.390625 
Q 57.328125 12.15625 50.6875 5.359375 
Q 44.046875 -1.421875 33.015625 -1.421875 
Q 20.359375 -1.421875 13.671875 8.265625 
Q 6.984375 17.96875 6.984375 36.375 
Q 6.984375 53.65625 15.1875 63.9375 
Q 23.390625 74.21875 37.203125 74.21875 
Q 40.921875 74.21875 44.703125 73.484375 
Q 48.484375 72.75 52.59375 71.296875 
z
" id="DejaVuSans-36"/>
      </defs>
      <g transform="translate(311.294643 320.44225)scale(0.2 -0.2)">
       <use xlink:href="#DejaVuSans-36"/>
      </g>
     </g>
    </g>
    <g id="xtick_5">
     <g id="line2d_9">
      <path clip-path="url(#p0d0a090dd1)" d="M 399.942857 298.245375 
L 399.942857 32.133375 
" style="fill:none;stroke:#b0b0b0;stroke-linecap:square;stroke-width:0.8;"/>
     </g>
     <g id="line2d_10">
      <g>
       <use style="stroke:#000000;stroke-width:0.8;" x="399.942857" xlink:href="#mf96029da77" y="298.245375"/>
      </g>
     </g>
     <g id="text_5">
      <!-- 8 -->
      <defs>
       <path d="M 31.78125 34.625 
Q 24.75 34.625 20.71875 30.859375 
Q 16.703125 27.09375 16.703125 20.515625 
Q 16.703125 13.921875 20.71875 10.15625 
Q 24.75 6.390625 31.78125 6.390625 
Q 38.8125 6.390625 42.859375 10.171875 
Q 46.921875 13.96875 46.921875 20.515625 
Q 46.921875 27.09375 42.890625 30.859375 
Q 38.875 34.625 31.78125 34.625 
z
M 21.921875 38.8125 
Q 15.578125 40.375 12.03125 44.71875 
Q 8.5 49.078125 8.5 55.328125 
Q 8.5 64.0625 14.71875 69.140625 
Q 20.953125 74.21875 31.78125 74.21875 
Q 42.671875 74.21875 48.875 69.140625 
Q 55.078125 64.0625 55.078125 55.328125 
Q 55.078125 49.078125 51.53125 44.71875 
Q 48 40.375 41.703125 38.8125 
Q 48.828125 37.15625 52.796875 32.3125 
Q 56.78125 27.484375 56.78125 20.515625 
Q 56.78125 9.90625 50.3125 4.234375 
Q 43.84375 -1.421875 31.78125 -1.421875 
Q 19.734375 -1.421875 13.25 4.234375 
Q 6.78125 9.90625 6.78125 20.515625 
Q 6.78125 27.484375 10.78125 32.3125 
Q 14.796875 37.15625 21.921875 38.8125 
z
M 18.3125 54.390625 
Q 18.3125 48.734375 21.84375 45.5625 
Q 25.390625 42.390625 31.78125 42.390625 
Q 38.140625 42.390625 41.71875 45.5625 
Q 45.3125 48.734375 45.3125 54.390625 
Q 45.3125 60.0625 41.71875 63.234375 
Q 38.140625 66.40625 31.78125 66.40625 
Q 25.390625 66.40625 21.84375 63.234375 
Q 18.3125 60.0625 18.3125 54.390625 
z
" id="DejaVuSans-38"/>
      </defs>
      <g transform="translate(393.580357 320.44225)scale(0.2 -0.2)">
       <use xlink:href="#DejaVuSans-38"/>
      </g>
     </g>
    </g>
    <g id="text_6">
     <!-- log10 of (# f-evals / dimension) -->
     <defs>
      <path d="M 9.421875 75.984375 
L 18.40625 75.984375 
L 18.40625 0 
L 9.421875 0 
z
" id="DejaVuSans-6c"/>
      <path d="M 30.609375 48.390625 
Q 23.390625 48.390625 19.1875 42.75 
Q 14.984375 37.109375 14.984375 27.296875 
Q 14.984375 17.484375 19.15625 11.84375 
Q 23.34375 6.203125 30.609375 6.203125 
Q 37.796875 6.203125 41.984375 11.859375 
Q 46.1875 17.53125 46.1875 27.296875 
Q 46.1875 37.015625 41.984375 42.703125 
Q 37.796875 48.390625 30.609375 48.390625 
z
M 30.609375 56 
Q 42.328125 56 49.015625 48.375 
Q 55.71875 40.765625 55.71875 27.296875 
Q 55.71875 13.875 49.015625 6.21875 
Q 42.328125 -1.421875 30.609375 -1.421875 
Q 18.84375 -1.421875 12.171875 6.21875 
Q 5.515625 13.875 5.515625 27.296875 
Q 5.515625 40.765625 12.171875 48.375 
Q 18.84375 56 30.609375 56 
z
" id="DejaVuSans-6f"/>
      <path d="M 45.40625 27.984375 
Q 45.40625 37.75 41.375 43.109375 
Q 37.359375 48.484375 30.078125 48.484375 
Q 22.859375 48.484375 18.828125 43.109375 
Q 14.796875 37.75 14.796875 27.984375 
Q 14.796875 18.265625 18.828125 12.890625 
Q 22.859375 7.515625 30.078125 7.515625 
Q 37.359375 7.515625 41.375 12.890625 
Q 45.40625 18.265625 45.40625 27.984375 
z
M 54.390625 6.78125 
Q 54.390625 -7.171875 48.1875 -13.984375 
Q 42 -20.796875 29.203125 -20.796875 
Q 24.46875 -20.796875 20.265625 -20.09375 
Q 16.0625 -19.390625 12.109375 -17.921875 
L 12.109375 -9.1875 
Q 16.0625 -11.328125 19.921875 -12.34375 
Q 23.78125 -13.375 27.78125 -13.375 
Q 36.625 -13.375 41.015625 -8.765625 
Q 45.40625 -4.15625 45.40625 5.171875 
L 45.40625 9.625 
Q 42.625 4.78125 38.28125 2.390625 
Q 33.9375 0 27.875 0 
Q 17.828125 0 11.671875 7.65625 
Q 5.515625 15.328125 5.515625 27.984375 
Q 5.515625 40.671875 11.671875 48.328125 
Q 17.828125 56 27.875 56 
Q 33.9375 56 38.28125 53.609375 
Q 42.625 51.21875 45.40625 46.390625 
L 45.40625 54.6875 
L 54.390625 54.6875 
z
" id="DejaVuSans-67"/>
      <path d="M 12.40625 8.296875 
L 28.515625 8.296875 
L 28.515625 63.921875 
L 10.984375 60.40625 
L 10.984375 69.390625 
L 28.421875 72.90625 
L 38.28125 72.90625 
L 38.28125 8.296875 
L 54.390625 8.296875 
L 54.390625 0 
L 12.40625 0 
z
" id="DejaVuSans-31"/>
      <path id="DejaVuSans-20"/>
      <path d="M 37.109375 75.984375 
L 37.109375 68.5 
L 28.515625 68.5 
Q 23.6875 68.5 21.796875 66.546875 
Q 19.921875 64.59375 19.921875 59.515625 
L 19.921875 54.6875 
L 34.71875 54.6875 
L 34.71875 47.703125 
L 19.921875 47.703125 
L 19.921875 0 
L 10.890625 0 
L 10.890625 47.703125 
L 2.296875 47.703125 
L 2.296875 54.6875 
L 10.890625 54.6875 
L 10.890625 58.5 
Q 10.890625 67.625 15.140625 71.796875 
Q 19.390625 75.984375 28.609375 75.984375 
z
" id="DejaVuSans-66"/>
      <path d="M 31 75.875 
Q 24.46875 64.65625 21.28125 53.65625 
Q 18.109375 42.671875 18.109375 31.390625 
Q 18.109375 20.125 21.3125 9.0625 
Q 24.515625 -2 31 -13.1875 
L 23.1875 -13.1875 
Q 15.875 -1.703125 12.234375 9.375 
Q 8.59375 20.453125 8.59375 31.390625 
Q 8.59375 42.28125 12.203125 53.3125 
Q 15.828125 64.359375 23.1875 75.875 
z
" id="DejaVuSans-28"/>
      <path d="M 51.125 44 
L 36.921875 44 
L 32.8125 27.6875 
L 47.125 27.6875 
z
M 43.796875 71.78125 
L 38.71875 51.515625 
L 52.984375 51.515625 
L 58.109375 71.78125 
L 65.921875 71.78125 
L 60.890625 51.515625 
L 76.125 51.515625 
L 76.125 44 
L 58.984375 44 
L 54.984375 27.6875 
L 70.515625 27.6875 
L 70.515625 20.21875 
L 53.078125 20.21875 
L 48 0 
L 40.1875 0 
L 45.21875 20.21875 
L 30.90625 20.21875 
L 25.875 0 
L 18.015625 0 
L 23.09375 20.21875 
L 7.71875 20.21875 
L 7.71875 27.6875 
L 24.90625 27.6875 
L 29 44 
L 13.28125 44 
L 13.28125 51.515625 
L 30.90625 51.515625 
L 35.890625 71.78125 
z
" id="DejaVuSans-23"/>
      <path d="M 4.890625 31.390625 
L 31.203125 31.390625 
L 31.203125 23.390625 
L 4.890625 23.390625 
z
" id="DejaVuSans-2d"/>
      <path d="M 56.203125 29.59375 
L 56.203125 25.203125 
L 14.890625 25.203125 
Q 15.484375 15.921875 20.484375 11.0625 
Q 25.484375 6.203125 34.421875 6.203125 
Q 39.59375 6.203125 44.453125 7.46875 
Q 49.3125 8.734375 54.109375 11.28125 
L 54.109375 2.78125 
Q 49.265625 0.734375 44.1875 -0.34375 
Q 39.109375 -1.421875 33.890625 -1.421875 
Q 20.796875 -1.421875 13.15625 6.1875 
Q 5.515625 13.8125 5.515625 26.8125 
Q 5.515625 40.234375 12.765625 48.109375 
Q 20.015625 56 32.328125 56 
Q 43.359375 56 49.78125 48.890625 
Q 56.203125 41.796875 56.203125 29.59375 
z
M 47.21875 32.234375 
Q 47.125 39.59375 43.09375 43.984375 
Q 39.0625 48.390625 32.421875 48.390625 
Q 24.90625 48.390625 20.390625 44.140625 
Q 15.875 39.890625 15.1875 32.171875 
z
" id="DejaVuSans-65"/>
      <path d="M 2.984375 54.6875 
L 12.5 54.6875 
L 29.59375 8.796875 
L 46.6875 54.6875 
L 56.203125 54.6875 
L 35.6875 0 
L 23.484375 0 
z
" id="DejaVuSans-76"/>
      <path d="M 34.28125 27.484375 
Q 23.390625 27.484375 19.1875 25 
Q 14.984375 22.515625 14.984375 16.5 
Q 14.984375 11.71875 18.140625 8.90625 
Q 21.296875 6.109375 26.703125 6.109375 
Q 34.1875 6.109375 38.703125 11.40625 
Q 43.21875 16.703125 43.21875 25.484375 
L 43.21875 27.484375 
z
M 52.203125 31.203125 
L 52.203125 0 
L 43.21875 0 
L 43.21875 8.296875 
Q 40.140625 3.328125 35.546875 0.953125 
Q 30.953125 -1.421875 24.3125 -1.421875 
Q 15.921875 -1.421875 10.953125 3.296875 
Q 6 8.015625 6 15.921875 
Q 6 25.140625 12.171875 29.828125 
Q 18.359375 34.515625 30.609375 34.515625 
L 43.21875 34.515625 
L 43.21875 35.40625 
Q 43.21875 41.609375 39.140625 45 
Q 35.0625 48.390625 27.6875 48.390625 
Q 23 48.390625 18.546875 47.265625 
Q 14.109375 46.140625 10.015625 43.890625 
L 10.015625 52.203125 
Q 14.9375 54.109375 19.578125 55.046875 
Q 24.21875 56 28.609375 56 
Q 40.484375 56 46.34375 49.84375 
Q 52.203125 43.703125 52.203125 31.203125 
z
" id="DejaVuSans-61"/>
      <path d="M 44.28125 53.078125 
L 44.28125 44.578125 
Q 40.484375 46.53125 36.375 47.5 
Q 32.28125 48.484375 27.875 48.484375 
Q 21.1875 48.484375 17.84375 46.4375 
Q 14.5 44.390625 14.5 40.28125 
Q 14.5 37.15625 16.890625 35.375 
Q 19.28125 33.59375 26.515625 31.984375 
L 29.59375 31.296875 
Q 39.15625 29.25 43.1875 25.515625 
Q 47.21875 21.78125 47.21875 15.09375 
Q 47.21875 7.46875 41.1875 3.015625 
Q 35.15625 -1.421875 24.609375 -1.421875 
Q 20.21875 -1.421875 15.453125 -0.5625 
Q 10.6875 0.296875 5.421875 2 
L 5.421875 11.28125 
Q 10.40625 8.6875 15.234375 7.390625 
Q 20.0625 6.109375 24.8125 6.109375 
Q 31.15625 6.109375 34.5625 8.28125 
Q 37.984375 10.453125 37.984375 14.40625 
Q 37.984375 18.0625 35.515625 20.015625 
Q 33.0625 21.96875 24.703125 23.78125 
L 21.578125 24.515625 
Q 13.234375 26.265625 9.515625 29.90625 
Q 5.8125 33.546875 5.8125 39.890625 
Q 5.8125 47.609375 11.28125 51.796875 
Q 16.75 56 26.8125 56 
Q 31.78125 56 36.171875 55.265625 
Q 40.578125 54.546875 44.28125 53.078125 
z
" id="DejaVuSans-73"/>
      <path d="M 25.390625 72.90625 
L 33.6875 72.90625 
L 8.296875 -9.28125 
L 0 -9.28125 
z
" id="DejaVuSans-2f"/>
      <path d="M 45.40625 46.390625 
L 45.40625 75.984375 
L 54.390625 75.984375 
L 54.390625 0 
L 45.40625 0 
L 45.40625 8.203125 
Q 42.578125 3.328125 38.25 0.953125 
Q 33.9375 -1.421875 27.875 -1.421875 
Q 17.96875 -1.421875 11.734375 6.484375 
Q 5.515625 14.40625 5.515625 27.296875 
Q 5.515625 40.1875 11.734375 48.09375 
Q 17.96875 56 27.875 56 
Q 33.9375 56 38.25 53.625 
Q 42.578125 51.265625 45.40625 46.390625 
z
M 14.796875 27.296875 
Q 14.796875 17.390625 18.875 11.75 
Q 22.953125 6.109375 30.078125 6.109375 
Q 37.203125 6.109375 41.296875 11.75 
Q 45.40625 17.390625 45.40625 27.296875 
Q 45.40625 37.203125 41.296875 42.84375 
Q 37.203125 48.484375 30.078125 48.484375 
Q 22.953125 48.484375 18.875 42.84375 
Q 14.796875 37.203125 14.796875 27.296875 
z
" id="DejaVuSans-64"/>
      <path d="M 9.421875 54.6875 
L 18.40625 54.6875 
L 18.40625 0 
L 9.421875 0 
z
M 9.421875 75.984375 
L 18.40625 75.984375 
L 18.40625 64.59375 
L 9.421875 64.59375 
z
" id="DejaVuSans-69"/>
      <path d="M 52 44.1875 
Q 55.375 50.25 60.0625 53.125 
Q 64.75 56 71.09375 56 
Q 79.640625 56 84.28125 50.015625 
Q 88.921875 44.046875 88.921875 33.015625 
L 88.921875 0 
L 79.890625 0 
L 79.890625 32.71875 
Q 79.890625 40.578125 77.09375 44.375 
Q 74.3125 48.1875 68.609375 48.1875 
Q 61.625 48.1875 57.5625 43.546875 
Q 53.515625 38.921875 53.515625 30.90625 
L 53.515625 0 
L 44.484375 0 
L 44.484375 32.71875 
Q 44.484375 40.625 41.703125 44.40625 
Q 38.921875 48.1875 33.109375 48.1875 
Q 26.21875 48.1875 22.15625 43.53125 
Q 18.109375 38.875 18.109375 30.90625 
L 18.109375 0 
L 9.078125 0 
L 9.078125 54.6875 
L 18.109375 54.6875 
L 18.109375 46.1875 
Q 21.1875 51.21875 25.484375 53.609375 
Q 29.78125 56 35.6875 56 
Q 41.65625 56 45.828125 52.96875 
Q 50 49.953125 52 44.1875 
z
" id="DejaVuSans-6d"/>
      <path d="M 54.890625 33.015625 
L 54.890625 0 
L 45.90625 0 
L 45.90625 32.71875 
Q 45.90625 40.484375 42.875 44.328125 
Q 39.84375 48.1875 33.796875 48.1875 
Q 26.515625 48.1875 22.3125 43.546875 
Q 18.109375 38.921875 18.109375 30.90625 
L 18.109375 0 
L 9.078125 0 
L 9.078125 54.6875 
L 18.109375 54.6875 
L 18.109375 46.1875 
Q 21.34375 51.125 25.703125 53.5625 
Q 30.078125 56 35.796875 56 
Q 45.21875 56 50.046875 50.171875 
Q 54.890625 44.34375 54.890625 33.015625 
z
" id="DejaVuSans-6e"/>
      <path d="M 8.015625 75.875 
L 15.828125 75.875 
Q 23.140625 64.359375 26.78125 53.3125 
Q 30.421875 42.28125 30.421875 31.390625 
Q 30.421875 20.453125 26.78125 9.375 
Q 23.140625 -1.703125 15.828125 -13.1875 
L 8.015625 -13.1875 
Q 14.5 -2 17.703125 9.0625 
Q 20.90625 20.125 20.90625 31.390625 
Q 20.90625 42.671875 17.703125 53.65625 
Q 14.5 64.65625 8.015625 75.875 
z
" id="DejaVuSans-29"/>
     </defs>
     <g transform="translate(107.015156 342.278812)scale(0.18 -0.18)">
      <use xlink:href="#DejaVuSans-6c"/>
      <use x="27.783203" xlink:href="#DejaVuSans-6f"/>
      <use x="88.964844" xlink:href="#DejaVuSans-67"/>
      <use x="152.441406" xlink:href="#DejaVuSans-31"/>
      <use x="216.064453" xlink:href="#DejaVuSans-30"/>
      <use x="279.6875" xlink:href="#DejaVuSans-20"/>
      <use x="311.474609" xlink:href="#DejaVuSans-6f"/>
      <use x="372.65625" xlink:href="#DejaVuSans-66"/>
      <use x="407.861328" xlink:href="#DejaVuSans-20"/>
      <use x="439.648438" xlink:href="#DejaVuSans-28"/>
      <use x="478.662109" xlink:href="#DejaVuSans-23"/>
      <use x="562.451172" xlink:href="#DejaVuSans-20"/>
      <use x="594.238281" xlink:href="#DejaVuSans-66"/>
      <use x="629.365234" xlink:href="#DejaVuSans-2d"/>
      <use x="665.449219" xlink:href="#DejaVuSans-65"/>
      <use x="726.972656" xlink:href="#DejaVuSans-76"/>
      <use x="786.152344" xlink:href="#DejaVuSans-61"/>
      <use x="847.431641" xlink:href="#DejaVuSans-6c"/>
      <use x="875.214844" xlink:href="#DejaVuSans-73"/>
      <use x="927.314453" xlink:href="#DejaVuSans-20"/>
      <use x="959.101562" xlink:href="#DejaVuSans-2f"/>
      <use x="992.792969" xlink:href="#DejaVuSans-20"/>
      <use x="1024.580078" xlink:href="#DejaVuSans-64"/>
      <use x="1088.056641" xlink:href="#DejaVuSans-69"/>
      <use x="1115.839844" xlink:href="#DejaVuSans-6d"/>
      <use x="1213.251953" xlink:href="#DejaVuSans-65"/>
      <use x="1274.775391" xlink:href="#DejaVuSans-6e"/>
      <use x="1338.154297" xlink:href="#DejaVuSans-73"/>
      <use x="1390.253906" xlink:href="#DejaVuSans-69"/>
      <use x="1418.037109" xlink:href="#DejaVuSans-6f"/>
      <use x="1479.21875" xlink:href="#DejaVuSans-6e"/>
      <use x="1542.597656" xlink:href="#DejaVuSans-29"/>
     </g>
    </g>
   </g>
   <g id="matplotlib.axis_2">
    <g id="ytick_1">
     <g id="line2d_11">
      <path clip-path="url(#p0d0a090dd1)" d="M 70.8 298.245375 
L 427.92 298.245375 
" style="fill:none;stroke:#b0b0b0;stroke-linecap:square;stroke-width:0.8;"/>
     </g>
     <g id="line2d_12">
      <defs>
       <path d="M 0 0 
L -3.5 0 
" id="m364087a3e9" style="stroke:#000000;stroke-width:0.8;"/>
      </defs>
      <g>
       <use style="stroke:#000000;stroke-width:0.8;" x="70.8" xlink:href="#m364087a3e9" y="298.245375"/>
      </g>
     </g>
     <g id="text_7">
      <!-- 0.0 -->
      <defs>
       <path d="M 10.6875 12.40625 
L 21 12.40625 
L 21 0 
L 10.6875 0 
z
" id="DejaVuSans-2e"/>
      </defs>
      <g transform="translate(31.99375 305.843812)scale(0.2 -0.2)">
       <use xlink:href="#DejaVuSans-30"/>
       <use x="63.623047" xlink:href="#DejaVuSans-2e"/>
       <use x="95.410156" xlink:href="#DejaVuSans-30"/>
      </g>
     </g>
    </g>
    <g id="ytick_2">
     <g id="line2d_13">
      <path clip-path="url(#p0d0a090dd1)" d="M 70.8 245.549929 
L 427.92 245.549929 
" style="fill:none;stroke:#b0b0b0;stroke-linecap:square;stroke-width:0.8;"/>
     </g>
     <g id="line2d_14">
      <g>
       <use style="stroke:#000000;stroke-width:0.8;" x="70.8" xlink:href="#m364087a3e9" y="245.549929"/>
      </g>
     </g>
     <g id="text_8">
      <!-- 0.2 -->
      <g transform="translate(31.99375 253.148367)scale(0.2 -0.2)">
       <use xlink:href="#DejaVuSans-30"/>
       <use x="63.623047" xlink:href="#DejaVuSans-2e"/>
       <use x="95.410156" xlink:href="#DejaVuSans-32"/>
      </g>
     </g>
    </g>
    <g id="ytick_3">
     <g id="line2d_15">
      <path clip-path="url(#p0d0a090dd1)" d="M 70.8 192.854484 
L 427.92 192.854484 
" style="fill:none;stroke:#b0b0b0;stroke-linecap:square;stroke-width:0.8;"/>
     </g>
     <g id="line2d_16">
      <g>
       <use style="stroke:#000000;stroke-width:0.8;" x="70.8" xlink:href="#m364087a3e9" y="192.854484"/>
      </g>
     </g>
     <g id="text_9">
      <!-- 0.4 -->
      <g transform="translate(31.99375 200.452921)scale(0.2 -0.2)">
       <use xlink:href="#DejaVuSans-30"/>
       <use x="63.623047" xlink:href="#DejaVuSans-2e"/>
       <use x="95.410156" xlink:href="#DejaVuSans-34"/>
      </g>
     </g>
    </g>
    <g id="ytick_4">
     <g id="line2d_17">
      <path clip-path="url(#p0d0a090dd1)" d="M 70.8 140.159038 
L 427.92 140.159038 
" style="fill:none;stroke:#b0b0b0;stroke-linecap:square;stroke-width:0.8;"/>
     </g>
     <g id="line2d_18">
      <g>
       <use style="stroke:#000000;stroke-width:0.8;" x="70.8" xlink:href="#m364087a3e9" y="140.159038"/>
      </g>
     </g>
     <g id="text_10">
      <!-- 0.6 -->
      <g transform="translate(31.99375 147.757476)scale(0.2 -0.2)">
       <use xlink:href="#DejaVuSans-30"/>
       <use x="63.623047" xlink:href="#DejaVuSans-2e"/>
       <use x="95.410156" xlink:href="#DejaVuSans-36"/>
      </g>
     </g>
    </g>
    <g id="ytick_5">
     <g id="line2d_19">
      <path clip-path="url(#p0d0a090dd1)" d="M 70.8 87.463593 
L 427.92 87.463593 
" style="fill:none;stroke:#b0b0b0;stroke-linecap:square;stroke-width:0.8;"/>
     </g>
     <g id="line2d_20">
      <g>
       <use style="stroke:#000000;stroke-width:0.8;" x="70.8" xlink:href="#m364087a3e9" y="87.463593"/>
      </g>
     </g>
     <g id="text_11">
      <!-- 0.8 -->
      <g transform="translate(31.99375 95.06203)scale(0.2 -0.2)">
       <use xlink:href="#DejaVuSans-30"/>
       <use x="63.623047" xlink:href="#DejaVuSans-2e"/>
       <use x="95.410156" xlink:href="#DejaVuSans-38"/>
      </g>
     </g>
    </g>
    <g id="ytick_6">
     <g id="line2d_21">
      <path clip-path="url(#p0d0a090dd1)" d="M 70.8 34.768147 
L 427.92 34.768147 
" style="fill:none;stroke:#b0b0b0;stroke-linecap:square;stroke-width:0.8;"/>
     </g>
     <g id="line2d_22">
      <g>
       <use style="stroke:#000000;stroke-width:0.8;" x="70.8" xlink:href="#m364087a3e9" y="34.768147"/>
      </g>
     </g>
     <g id="text_12">
      <!-- 1.0 -->
      <g transform="translate(31.99375 42.366585)scale(0.2 -0.2)">
       <use xlink:href="#DejaVuSans-31"/>
       <use x="63.623047" xlink:href="#DejaVuSans-2e"/>
       <use x="95.410156" xlink:href="#DejaVuSans-30"/>
      </g>
     </g>
    </g>
    <g id="text_13">
     <!-- Proportion of function+target pairs -->
     <defs>
      <path d="M 19.671875 64.796875 
L 19.671875 37.40625 
L 32.078125 37.40625 
Q 38.96875 37.40625 42.71875 40.96875 
Q 46.484375 44.53125 46.484375 51.125 
Q 46.484375 57.671875 42.71875 61.234375 
Q 38.96875 64.796875 32.078125 64.796875 
z
M 9.8125 72.90625 
L 32.078125 72.90625 
Q 44.34375 72.90625 50.609375 67.359375 
Q 56.890625 61.8125 56.890625 51.125 
Q 56.890625 40.328125 50.609375 34.8125 
Q 44.34375 29.296875 32.078125 29.296875 
L 19.671875 29.296875 
L 19.671875 0 
L 9.8125 0 
z
" id="DejaVuSans-50"/>
      <path d="M 41.109375 46.296875 
Q 39.59375 47.171875 37.8125 47.578125 
Q 36.03125 48 33.890625 48 
Q 26.265625 48 22.1875 43.046875 
Q 18.109375 38.09375 18.109375 28.8125 
L 18.109375 0 
L 9.078125 0 
L 9.078125 54.6875 
L 18.109375 54.6875 
L 18.109375 46.1875 
Q 20.953125 51.171875 25.484375 53.578125 
Q 30.03125 56 36.53125 56 
Q 37.453125 56 38.578125 55.875 
Q 39.703125 55.765625 41.0625 55.515625 
z
" id="DejaVuSans-72"/>
      <path d="M 18.109375 8.203125 
L 18.109375 -20.796875 
L 9.078125 -20.796875 
L 9.078125 54.6875 
L 18.109375 54.6875 
L 18.109375 46.390625 
Q 20.953125 51.265625 25.265625 53.625 
Q 29.59375 56 35.59375 56 
Q 45.5625 56 51.78125 48.09375 
Q 58.015625 40.1875 58.015625 27.296875 
Q 58.015625 14.40625 51.78125 6.484375 
Q 45.5625 -1.421875 35.59375 -1.421875 
Q 29.59375 -1.421875 25.265625 0.953125 
Q 20.953125 3.328125 18.109375 8.203125 
z
M 48.6875 27.296875 
Q 48.6875 37.203125 44.609375 42.84375 
Q 40.53125 48.484375 33.40625 48.484375 
Q 26.265625 48.484375 22.1875 42.84375 
Q 18.109375 37.203125 18.109375 27.296875 
Q 18.109375 17.390625 22.1875 11.75 
Q 26.265625 6.109375 33.40625 6.109375 
Q 40.53125 6.109375 44.609375 11.75 
Q 48.6875 17.390625 48.6875 27.296875 
z
" id="DejaVuSans-70"/>
      <path d="M 18.3125 70.21875 
L 18.3125 54.6875 
L 36.8125 54.6875 
L 36.8125 47.703125 
L 18.3125 47.703125 
L 18.3125 18.015625 
Q 18.3125 11.328125 20.140625 9.421875 
Q 21.96875 7.515625 27.59375 7.515625 
L 36.8125 7.515625 
L 36.8125 0 
L 27.59375 0 
Q 17.1875 0 13.234375 3.875 
Q 9.28125 7.765625 9.28125 18.015625 
L 9.28125 47.703125 
L 2.6875 47.703125 
L 2.6875 54.6875 
L 9.28125 54.6875 
L 9.28125 70.21875 
z
" id="DejaVuSans-74"/>
      <path d="M 8.5 21.578125 
L 8.5 54.6875 
L 17.484375 54.6875 
L 17.484375 21.921875 
Q 17.484375 14.15625 20.5 10.265625 
Q 23.53125 6.390625 29.59375 6.390625 
Q 36.859375 6.390625 41.078125 11.03125 
Q 45.3125 15.671875 45.3125 23.6875 
L 45.3125 54.6875 
L 54.296875 54.6875 
L 54.296875 0 
L 45.3125 0 
L 45.3125 8.40625 
Q 42.046875 3.421875 37.71875 1 
Q 33.40625 -1.421875 27.6875 -1.421875 
Q 18.265625 -1.421875 13.375 4.4375 
Q 8.5 10.296875 8.5 21.578125 
z
M 31.109375 56 
z
" id="DejaVuSans-75"/>
      <path d="M 48.78125 52.59375 
L 48.78125 44.1875 
Q 44.96875 46.296875 41.140625 47.34375 
Q 37.3125 48.390625 33.40625 48.390625 
Q 24.65625 48.390625 19.8125 42.84375 
Q 14.984375 37.3125 14.984375 27.296875 
Q 14.984375 17.28125 19.8125 11.734375 
Q 24.65625 6.203125 33.40625 6.203125 
Q 37.3125 6.203125 41.140625 7.25 
Q 44.96875 8.296875 48.78125 10.40625 
L 48.78125 2.09375 
Q 45.015625 0.34375 40.984375 -0.53125 
Q 36.96875 -1.421875 32.421875 -1.421875 
Q 20.0625 -1.421875 12.78125 6.34375 
Q 5.515625 14.109375 5.515625 27.296875 
Q 5.515625 40.671875 12.859375 48.328125 
Q 20.21875 56 33.015625 56 
Q 37.15625 56 41.109375 55.140625 
Q 45.0625 54.296875 48.78125 52.59375 
z
" id="DejaVuSans-63"/>
      <path d="M 46 62.703125 
L 46 35.5 
L 73.1875 35.5 
L 73.1875 27.203125 
L 46 27.203125 
L 46 0 
L 37.796875 0 
L 37.796875 27.203125 
L 10.59375 27.203125 
L 10.59375 35.5 
L 37.796875 35.5 
L 37.796875 62.703125 
z
" id="DejaVuSans-2b"/>
     </defs>
     <g transform="translate(24.250312 323.17875)rotate(-90)scale(0.18 -0.18)">
      <use xlink:href="#DejaVuSans-50"/>
      <use x="60.287109" xlink:href="#DejaVuSans-72"/>
      <use x="101.369141" xlink:href="#DejaVuSans-6f"/>
      <use x="162.550781" xlink:href="#DejaVuSans-70"/>
      <use x="226.027344" xlink:href="#DejaVuSans-6f"/>
      <use x="287.208984" xlink:href="#DejaVuSans-72"/>
      <use x="328.322266" xlink:href="#DejaVuSans-74"/>
      <use x="367.53125" xlink:href="#DejaVuSans-69"/>
      <use x="395.314453" xlink:href="#DejaVuSans-6f"/>
      <use x="456.496094" xlink:href="#DejaVuSans-6e"/>
      <use x="519.875" xlink:href="#DejaVuSans-20"/>
      <use x="551.662109" xlink:href="#DejaVuSans-6f"/>
      <use x="612.84375" xlink:href="#DejaVuSans-66"/>
      <use x="648.048828" xlink:href="#DejaVuSans-20"/>
      <use x="679.835938" xlink:href="#DejaVuSans-66"/>
      <use x="715.041016" xlink:href="#DejaVuSans-75"/>
      <use x="778.419922" xlink:href="#DejaVuSans-6e"/>
      <use x="841.798828" xlink:href="#DejaVuSans-63"/>
      <use x="896.779297" xlink:href="#DejaVuSans-74"/>
      <use x="935.988281" xlink:href="#DejaVuSans-69"/>
      <use x="963.771484" xlink:href="#DejaVuSans-6f"/>
      <use x="1024.953125" xlink:href="#DejaVuSans-6e"/>
      <use x="1088.332031" xlink:href="#DejaVuSans-2b"/>
      <use x="1172.121094" xlink:href="#DejaVuSans-74"/>
      <use x="1211.330078" xlink:href="#DejaVuSans-61"/>
      <use x="1272.609375" xlink:href="#DejaVuSans-72"/>
      <use x="1313.707031" xlink:href="#DejaVuSans-67"/>
      <use x="1377.183594" xlink:href="#DejaVuSans-65"/>
      <use x="1438.707031" xlink:href="#DejaVuSans-74"/>
      <use x="1477.916016" xlink:href="#DejaVuSans-20"/>
      <use x="1509.703125" xlink:href="#DejaVuSans-70"/>
      <use x="1573.179688" xlink:href="#DejaVuSans-61"/>
      <use x="1634.458984" xlink:href="#DejaVuSans-69"/>
      <use x="1662.242188" xlink:href="#DejaVuSans-72"/>
      <use x="1703.355469" xlink:href="#DejaVuSans-73"/>
     </g>
    </g>
   </g>
   <g id="line2d_23">
    <defs>
     <path d="M 0 1.5 
C 0.397805 1.5 0.77937 1.341951 1.06066 1.06066 
C 1.341951 0.77937 1.5 0.397805 1.5 0 
C 1.5 -0.397805 1.341951 -0.77937 1.06066 -1.06066 
C 0.77937 -1.341951 0.397805 -1.5 0 -1.5 
C -0.397805 -1.5 -0.77937 -1.341951 -1.06066 -1.06066 
C -1.341951 -0.77937 -1.5 -0.397805 -1.5 0 
C -1.5 0.397805 -1.341951 0.77937 -1.06066 1.06066 
C -0.77937 1.341951 -0.397805 1.5 0 1.5 
z
" id="m6a5f5dfa50" style="stroke:#000080;"/>
    </defs>
    <g>
     <use style="fill:#000080;stroke:#000080;" x="274.450146" xlink:href="#m6a5f5dfa50" y="220.752073"/>
     <use style="fill:#000080;stroke:#000080;" x="274.450146" xlink:href="#m6a5f5dfa50" y="220.752073"/>
    </g>
   </g>
   <g id="line2d_24">
    <path d="M 29.657143 298.245375 
L 29.657143 274.997384 
L 42.042377 274.997384 
L 42.042377 271.38103 
L 49.287274 271.38103 
L 49.287274 267.764676 
L 66.812845 267.764676 
L 66.812845 267.248054 
L 68.917406 267.248054 
L 68.917406 266.731432 
L 72.503013 266.731432 
L 72.503013 263.6317 
L 74.057743 263.6317 
L 74.057743 262.081834 
L 80.281327 262.081834 
L 80.281327 261.565212 
L 81.30264 261.565212 
L 81.30264 261.04859 
L 86.442977 261.04859 
L 86.442977 260.531968 
L 95.118087 260.531968 
L 95.118087 259.498724 
L 107.955702 259.498724 
L 107.955702 258.982102 
L 120.782147 258.982102 
L 120.782147 258.46548 
L 120.998733 258.46548 
L 120.998733 257.948858 
L 123.127198 257.948858 
L 123.127198 257.432236 
L 135.655187 257.432236 
L 135.655187 256.915614 
L 144.687635 256.915614 
L 144.687635 255.365748 
L 157.412685 255.365748 
L 157.412685 254.849126 
L 157.55239 254.849126 
L 157.55239 254.332504 
L 159.136087 254.332504 
L 159.237683 253.29926 
L 160.997017 253.29926 
L 160.997017 252.782638 
L 162.195329 252.782638 
L 162.195329 252.266016 
L 163.298135 252.266016 
L 163.298135 251.749394 
L 164.087578 251.749394 
L 164.087578 251.232772 
L 164.592011 251.232772 
L 164.592011 250.71615 
L 165.622186 250.71615 
L 165.622186 249.682906 
L 166.274538 249.682906 
L 166.274538 249.166284 
L 166.419151 249.166284 
L 166.419151 248.649662 
L 166.646451 248.649662 
L 166.646451 247.616418 
L 166.846097 247.616418 
L 166.846097 246.066551 
L 167.343712 246.066551 
L 167.343712 245.549929 
L 168.594175 245.549929 
L 168.594175 244.000063 
L 169.307377 244.000063 
L 169.400834 242.450197 
L 170.626913 242.450197 
L 170.626913 241.416953 
L 171.380677 241.416953 
L 171.380677 239.867087 
L 172.085426 239.867087 
L 172.085426 239.350465 
L 172.281781 239.350465 
L 172.281781 238.317221 
L 172.739654 238.317221 
L 172.739654 237.800599 
L 174.397188 237.800599 
L 174.397188 237.283977 
L 174.762075 237.283977 
L 174.762075 236.767355 
L 178.271225 236.767355 
L 178.271225 236.250733 
L 182.911443 236.250733 
L 182.911443 235.734111 
L 188.607731 235.734111 
L 188.607731 235.217489 
L 190.669548 235.217489 
L 190.669548 234.700867 
L 211.199759 234.700867 
L 211.199759 234.184245 
L 211.628625 234.184245 
L 211.637395 233.151001 
L 212.216041 233.151001 
L 212.216041 232.634379 
L 212.410216 232.634379 
L 212.410216 232.117757 
L 214.753167 232.117757 
L 214.753167 231.601135 
L 216.400988 231.601135 
L 216.400988 231.084513 
L 223.07389 231.084513 
L 223.07389 230.567891 
L 223.354389 230.567891 
L 223.354389 230.051269 
L 223.853558 230.051269 
L 223.853558 229.534647 
L 230.024779 229.534647 
L 230.110373 227.984781 
L 230.241095 227.984781 
L 230.241095 226.951537 
L 230.582125 226.951537 
L 230.582125 226.434915 
L 235.168189 226.434915 
L 235.199607 225.401671 
L 239.076772 225.401671 
L 239.076772 224.885049 
L 239.212326 224.885049 
L 239.212326 224.368427 
L 242.180797 224.368427 
L 242.180797 223.851805 
L 242.374309 223.851805 
L 242.374309 223.335183 
L 247.308587 223.335183 
L 247.308587 222.301939 
L 252.91102 222.301939 
L 253.019156 221.268695 
L 274.450146 221.268695 
L 274.450146 220.752073 
L 358.8 220.752073 
L 358.8 220.752073 
" style="fill:none;stroke:#000080;stroke-linecap:square;stroke-width:1.5;"/>
   </g>
   <g id="line2d_25">
    <defs>
     <path d="M 0 6 
C 1.591219 6 3.117479 5.367802 4.242641 4.242641 
C 5.367802 3.117479 6 1.591219 6 0 
C 6 -1.591219 5.367802 -3.117479 4.242641 -4.242641 
C 3.117479 -5.367802 1.591219 -6 0 -6 
C -1.591219 -6 -3.117479 -5.367802 -4.242641 -4.242641 
C -5.367802 -3.117479 -6 -1.591219 -6 0 
C -6 1.591219 -5.367802 3.117479 -4.242641 4.242641 
C -3.117479 5.367802 -1.591219 6 0 6 
z
" id="m8e05f5d4d6" style="stroke:#000080;stroke-width:1.5;"/>
    </defs>
    <g>
     <use style="fill:none;stroke:#000080;stroke-width:1.5;" x="42.042377" xlink:href="#m8e05f5d4d6" y="274.997384"/>
     <use style="fill:none;stroke:#000080;stroke-width:1.5;" x="86.442977" xlink:href="#m8e05f5d4d6" y="260.531968"/>
     <use style="fill:none;stroke:#000080;stroke-width:1.5;" x="174.762075" xlink:href="#m8e05f5d4d6" y="236.767355"/>
     <use style="fill:none;stroke:#000080;stroke-width:1.5;" x="242.374309" xlink:href="#m8e05f5d4d6" y="223.335183"/>
     <use style="fill:none;stroke:#000080;stroke-width:1.5;" x="274.450146" xlink:href="#m8e05f5d4d6" y="220.752073"/>
     <use style="fill:none;stroke:#000080;stroke-width:1.5;" x="358.8" xlink:href="#m8e05f5d4d6" y="220.752073"/>
    </g>
   </g>
   <g id="line2d_26"/>
   <g id="line2d_27">
    <path clip-path="url(#p0d0a090dd1)" d="M 209.872293 234.700867 
" style="fill:none;stroke:#000080;stroke-linecap:square;stroke-width:1.5;"/>
    <defs>
     <path d="M -12 12 
L 12 -12 
M -12 -12 
L 12 12 
" id="m1ac9401625" style="stroke:#000080;stroke-width:3;"/>
    </defs>
    <g clip-path="url(#p0d0a090dd1)">
     <use style="fill:#000080;stroke:#000080;stroke-width:3;" x="209.872293" xlink:href="#m1ac9401625" y="234.700867"/>
    </g>
   </g>
   <g id="line2d_28">
    <defs>
     <path d="M 0 1.5 
C 0.397805 1.5 0.77937 1.341951 1.06066 1.06066 
C 1.341951 0.77937 1.5 0.397805 1.5 0 
C 1.5 -0.397805 1.341951 -0.77937 1.06066 -1.06066 
C 0.77937 -1.341951 0.397805 -1.5 0 -1.5 
C -0.397805 -1.5 -0.77937 -1.341951 -1.06066 -1.06066 
C -1.341951 -0.77937 -1.5 -0.397805 -1.5 0 
C -1.5 0.397805 -1.341951 0.77937 -1.06066 1.06066 
C -0.77937 1.341951 -0.397805 1.5 0 1.5 
z
" id="m972c62a88d" style="stroke:#ff00ff;"/>
    </defs>
    <g>
     <use style="fill:#ff00ff;stroke:#ff00ff;" x="267.617024" xlink:href="#m972c62a88d" y="34.768147"/>
     <use style="fill:#ff00ff;stroke:#ff00ff;" x="267.617024" xlink:href="#m972c62a88d" y="34.768147"/>
    </g>
   </g>
   <g id="line2d_29">
    <path d="M 29.657143 298.245375 
L 29.657143 293.079155 
L 78.044898 293.079155 
L 78.044898 292.562533 
L 91.016024 292.562533 
L 91.016024 292.045911 
L 93.687874 292.045911 
L 93.687874 291.012667 
L 95.570468 291.012667 
L 95.570468 289.979423 
L 99.911459 289.979423 
L 99.911459 289.462801 
L 100.932772 289.462801 
L 100.932772 288.946179 
L 102.209609 288.946179 
L 102.209609 288.429557 
L 103.110713 288.429557 
L 103.110713 287.912935 
L 105.312648 287.912935 
L 105.312648 286.363069 
L 105.823201 286.363069 
L 105.823201 284.813203 
L 106.802521 284.813203 
L 106.802521 284.296581 
L 107.039188 284.296581 
L 107.039188 283.779959 
L 107.955702 283.779959 
L 107.955702 282.746715 
L 108.177669 282.746715 
L 108.177669 281.713471 
L 109.658716 281.713471 
L 109.658716 281.196849 
L 111.213445 281.196849 
L 111.213445 280.163604 
L 114.284085 280.163604 
L 114.284085 279.646982 
L 114.594843 279.646982 
L 114.594843 279.13036 
L 115.930012 279.13036 
L 115.930012 278.613738 
L 116.353782 278.613738 
L 116.353782 278.097116 
L 117.826895 278.097116 
L 117.826895 277.063872 
L 118.208435 277.063872 
L 118.208435 276.54725 
L 119.068235 276.54725 
L 119.068235 275.514006 
L 119.187755 275.514006 
L 119.187755 274.997384 
L 119.30648 274.997384 
L 119.30648 274.480762 
L 120.22891 274.480762 
L 120.22891 273.447518 
L 120.452265 273.447518 
L 120.452265 272.930896 
L 121.212725 272.930896 
L 121.318767 270.864408 
L 121.424184 270.864408 
L 121.424184 270.347786 
L 122.642937 270.347786 
L 122.642937 269.831164 
L 123.505373 269.831164 
L 123.505373 269.314542 
L 123.783843 269.314542 
L 123.87571 268.281298 
L 125.453332 268.281298 
L 125.537024 265.698188 
L 125.867924 265.698188 
L 125.867924 265.181566 
L 126.031105 265.181566 
L 126.031105 264.664944 
L 126.192808 264.664944 
L 126.192808 264.148322 
L 127.133452 264.148322 
L 127.133452 263.6317 
L 127.585834 263.6317 
L 127.585834 263.115078 
L 127.807801 263.115078 
L 127.807801 262.598456 
L 128.099532 262.598456 
L 128.099532 262.081834 
L 129.084638 262.081834 
L 129.084638 261.565212 
L 129.756451 261.565212 
L 129.756451 259.498724 
L 130.147739 259.498724 
L 130.147739 258.982102 
L 130.276287 258.982102 
L 130.276287 258.46548 
L 130.967232 258.46548 
L 130.967232 257.948858 
L 131.090037 257.948858 
L 131.090037 257.432236 
L 134.173556 257.432236 
L 134.173556 256.398992 
L 134.479874 256.398992 
L 134.479874 255.365748 
L 136.215069 255.365748 
L 136.215069 254.332504 
L 136.668599 254.332504 
L 136.668599 253.29926 
L 138.129788 253.29926 
L 138.129788 252.782638 
L 139.326761 252.782638 
L 139.326761 251.749394 
L 142.629471 251.749394 
L 142.629471 250.71615 
L 143.010333 250.71615 
L 143.010333 250.199528 
L 143.135504 250.199528 
L 143.135504 249.682906 
L 143.928418 249.682906 
L 143.928418 248.649662 
L 144.773197 248.649662 
L 144.773197 248.13304 
L 146.55879 248.13304 
L 146.55879 247.616418 
L 146.865108 247.616418 
L 146.915654 245.033307 
L 148.369147 245.033307 
L 148.369147 244.516685 
L 148.485099 244.516685 
L 148.485099 243.483441 
L 148.828507 243.483441 
L 148.828507 242.966819 
L 150.55624 242.966819 
L 150.55624 242.450197 
L 150.882607 242.450197 
L 150.882607 241.933575 
L 151.341557 241.933575 
L 151.341557 240.900331 
L 152.131543 240.900331 
L 152.131543 240.383709 
L 157.649537 240.383709 
L 157.649537 239.867087 
L 158.073523 239.867087 
L 158.073523 239.350465 
L 160.4375 239.350465 
L 160.4375 238.833843 
L 162.982598 238.833843 
L 162.982598 237.800599 
L 165.577837 237.800599 
L 165.577837 237.283977 
L 168.283944 237.283977 
L 168.283944 236.767355 
L 169.328987 236.767355 
L 169.328987 236.250733 
L 171.451137 236.250733 
L 171.451137 235.734111 
L 172.751546 235.734111 
L 172.751546 234.700867 
L 173.005334 234.700867 
L 173.005334 234.184245 
L 173.542197 234.184245 
L 173.542197 233.151001 
L 174.682223 233.151001 
L 174.682223 232.634379 
L 177.070845 232.634379 
L 177.070845 231.601135 
L 178.135412 231.601135 
L 178.135412 231.084513 
L 178.43631 231.084513 
L 178.43631 230.567891 
L 178.757726 230.567891 
L 178.757726 229.534647 
L 179.61191 229.534647 
L 179.61191 229.018025 
L 182.045882 229.018025 
L 182.045882 227.984781 
L 182.718529 227.984781 
L 182.718529 227.468159 
L 183.833175 227.468159 
L 183.833175 226.434915 
L 184.328186 226.434915 
L 184.37477 224.885049 
L 185.213888 224.885049 
L 185.213888 224.368427 
L 188.607731 224.368427 
L 188.607731 223.851805 
L 188.732112 223.851805 
L 188.732112 223.335183 
L 189.683347 223.335183 
L 189.687955 221.785317 
L 190.834512 221.785317 
L 190.834512 221.268695 
L 190.978689 221.268695 
L 190.978689 220.235451 
L 191.162063 220.235451 
L 191.162063 219.718829 
L 191.439909 219.718829 
L 191.439909 218.685585 
L 191.873222 218.685585 
L 191.873222 218.168963 
L 192.450892 218.168963 
L 192.450892 217.652341 
L 193.579015 217.652341 
L 193.579015 216.619097 
L 193.982086 216.619097 
L 193.982086 216.102475 
L 194.151573 216.102475 
L 194.151573 215.069231 
L 194.508681 215.069231 
L 194.508681 214.552609 
L 195.752004 214.552609 
L 195.843653 213.519365 
L 196.337897 213.519365 
L 196.442389 211.969498 
L 197.161758 211.969498 
L 197.161758 211.452876 
L 197.339792 211.452876 
L 197.339792 210.936254 
L 197.582839 210.936254 
L 197.582839 210.419632 
L 197.927525 210.419632 
L 197.927525 209.90301 
L 198.478237 209.90301 
L 198.478237 209.386388 
L 198.901401 209.386388 
L 198.901401 208.353144 
L 199.892731 208.353144 
L 199.892731 207.836522 
L 200.314568 207.836522 
L 200.314568 207.3199 
L 200.56573 207.3199 
L 200.56573 206.803278 
L 210.035331 206.803278 
L 210.133178 203.186924 
L 210.159571 203.186924 
L 210.159571 202.670302 
L 210.282226 202.670302 
L 210.391756 200.087192 
L 210.507085 200.087192 
L 210.607392 198.537326 
L 210.837392 198.537326 
L 210.837392 198.020704 
L 211.020542 198.020704 
L 211.020542 197.504082 
L 211.268743 197.504082 
L 211.268743 196.98746 
L 211.770439 196.98746 
L 211.840593 195.954216 
L 212.009168 195.954216 
L 212.009168 195.437594 
L 212.274711 195.437594 
L 212.274711 194.920972 
L 212.464389 194.920972 
L 212.464389 194.40435 
L 212.758174 194.40435 
L 212.815093 192.854484 
L 212.888189 192.854484 
L 212.888189 192.337862 
L 213.407543 192.337862 
L 213.508048 190.787996 
L 213.612821 190.787996 
L 213.716384 189.23813 
L 213.836652 189.23813 
L 213.881917 188.204886 
L 214.072433 188.204886 
L 214.072433 187.688264 
L 214.414021 187.688264 
L 214.414021 187.171642 
L 214.617823 187.171642 
L 214.646912 185.105154 
L 214.874556 185.105154 
L 214.880744 184.07191 
L 215.162568 184.07191 
L 215.247083 183.038666 
L 215.434564 183.038666 
L 215.45364 182.005422 
L 215.577412 182.005422 
L 215.590931 180.972178 
L 215.750229 180.972178 
L 215.793039 179.422312 
L 215.876759 179.422312 
L 215.907057 178.389067 
L 216.178498 178.389067 
L 216.178498 177.872445 
L 216.383414 177.872445 
L 216.383414 177.355823 
L 216.586007 177.355823 
L 216.69509 176.322579 
L 217.027879 176.322579 
L 217.068236 175.289335 
L 217.149174 175.289335 
L 217.149174 174.256091 
L 217.301609 174.256091 
L 217.301609 173.739469 
L 217.601184 173.739469 
L 217.601184 173.222847 
L 222.309564 173.222847 
L 222.358119 170.639737 
L 222.463669 170.639737 
L 222.518412 167.540005 
L 222.591996 167.540005 
L 222.628856 166.506761 
L 222.74297 166.506761 
L 222.810584 165.473517 
L 222.893756 165.473517 
L 222.991197 164.440273 
L 223.078157 164.440273 
L 223.078157 163.923651 
L 223.307066 163.923651 
L 223.307066 163.407029 
L 223.499082 163.407029 
L 223.499082 162.890407 
L 223.628484 162.890407 
L 223.628484 161.857163 
L 223.789442 161.857163 
L 223.82903 160.307297 
L 224.032069 160.307297 
L 224.032069 159.790675 
L 224.488284 159.790675 
L 224.488284 159.274053 
L 224.693755 159.274053 
L 224.693755 158.757431 
L 224.81643 158.757431 
L 224.81643 158.240809 
L 224.933141 158.240809 
L 224.936665 157.207565 
L 225.117419 157.207565 
L 225.163351 156.174321 
L 225.254233 156.174321 
L 225.254233 155.657699 
L 225.406556 155.657699 
L 225.406556 154.624455 
L 225.625545 154.624455 
L 225.625545 154.107833 
L 225.808042 154.107833 
L 225.808042 153.591211 
L 225.927871 153.591211 
L 225.927871 153.074589 
L 226.11902 153.074589 
L 226.215325 149.458235 
L 226.847113 149.458235 
L 226.847113 148.941613 
L 229.545799 148.941613 
L 229.609555 145.841881 
L 229.673821 145.841881 
L 229.736143 142.225526 
L 229.819958 142.225526 
L 229.873025 140.67566 
L 230.208922 140.67566 
L 230.314757 138.09255 
L 230.660212 138.09255 
L 230.760177 136.026062 
L 230.7983 136.026062 
L 230.877748 134.992818 
L 230.923873 134.992818 
L 231.014855 133.442952 
L 231.039236 133.442952 
L 231.138694 132.409708 
L 231.162907 132.409708 
L 231.228141 131.376464 
L 231.332381 131.376464 
L 231.332381 130.34322 
L 231.445145 130.34322 
L 231.479169 128.793354 
L 231.561625 128.793354 
L 231.561625 128.276732 
L 231.768083 128.276732 
L 231.768083 127.76011 
L 231.934538 127.76011 
L 232.031088 126.726866 
L 232.077126 126.726866 
L 232.111256 125.693622 
L 232.689177 125.693622 
L 232.689177 125.177 
L 234.68236 125.177 
L 234.786054 121.560646 
L 234.888967 121.560646 
L 234.963707 120.527402 
L 235.341385 120.527402 
L 235.341385 120.01078 
L 235.518059 120.01078 
L 235.560011 117.42767 
L 235.73262 117.42767 
L 235.73262 116.911048 
L 235.867467 116.911048 
L 235.867467 116.394426 
L 236.030947 116.394426 
L 236.129864 115.361182 
L 236.145441 115.361182 
L 236.209832 114.327938 
L 236.303187 114.327938 
L 236.406009 111.744828 
L 236.623227 111.744828 
L 236.717601 110.711584 
L 237.031181 110.711584 
L 237.031181 110.194961 
L 237.223263 110.194961 
L 237.223263 109.678339 
L 238.67334 109.678339 
L 238.764456 106.578607 
L 238.821112 106.578607 
L 238.821112 106.061985 
L 239.057157 106.061985 
L 239.078225 103.995497 
L 239.209299 103.995497 
L 239.275195 101.929009 
L 239.359012 101.929009 
L 239.467745 100.895765 
L 239.507056 100.895765 
L 239.567769 99.862521 
L 239.644602 99.862521 
L 239.692367 98.829277 
L 239.894375 98.829277 
L 239.981419 96.762789 
L 240.02733 96.762789 
L 240.13263 95.212923 
L 240.181977 95.212923 
L 240.18962 94.179679 
L 241.920014 94.179679 
L 241.966275 92.113191 
L 242.084231 92.113191 
L 242.192999 90.046703 
L 242.218352 90.046703 
L 242.218352 89.530081 
L 242.371773 89.530081 
L 242.371773 89.013459 
L 242.662604 89.013459 
L 242.771343 86.946971 
L 243.071361 86.946971 
L 243.151193 85.913727 
L 243.221344 85.913727 
L 243.306586 84.880483 
L 243.574466 84.880483 
L 243.574466 84.363861 
L 244.689624 84.363861 
L 244.709448 83.330617 
L 244.801811 83.330617 
L 244.801811 82.813995 
L 244.948252 82.813995 
L 245.057794 81.264129 
L 245.076176 81.264129 
L 245.167288 79.714263 
L 245.244472 79.714263 
L 245.316921 78.164397 
L 245.361721 78.164397 
L 245.429729 77.131153 
L 245.521591 77.131153 
L 245.521591 76.614531 
L 245.63352 76.614531 
L 245.63352 76.097908 
L 245.76424 76.097908 
L 245.769832 75.064664 
L 245.904518 75.064664 
L 245.91185 74.03142 
L 246.161896 74.03142 
L 246.161896 73.514798 
L 247.079754 73.514798 
L 247.115998 72.481554 
L 247.305564 72.481554 
L 247.40215 69.898444 
L 247.510087 69.898444 
L 247.510087 69.381822 
L 247.650839 69.381822 
L 247.699393 68.348578 
L 247.795127 68.348578 
L 247.898507 65.248846 
L 247.983923 65.248846 
L 248.045653 63.69898 
L 248.262083 63.69898 
L 248.262083 63.182358 
L 249.184428 63.182358 
L 249.191025 61.632492 
L 249.371172 61.632492 
L 249.371172 61.11587 
L 249.541277 61.11587 
L 249.588994 60.082626 
L 249.69808 60.082626 
L 249.69808 59.566004 
L 249.912927 59.566004 
L 249.95366 58.016138 
L 250.039961 58.016138 
L 250.039961 57.499516 
L 250.233657 57.499516 
L 250.233657 56.982894 
L 251.036875 56.982894 
L 251.036875 56.466272 
L 251.320148 56.466272 
L 251.320148 55.94965 
L 251.490229 55.94965 
L 251.570156 54.916406 
L 251.714919 54.916406 
L 251.714919 54.399784 
L 251.935405 54.399784 
L 251.935405 53.883162 
L 252.943396 53.883162 
L 252.943396 53.36654 
L 253.117179 53.36654 
L 253.22342 50.78343 
L 253.279322 50.78343 
L 253.318958 49.750186 
L 254.300665 49.750186 
L 254.315896 48.716942 
L 254.445457 48.716942 
L 254.445457 48.20032 
L 254.625862 48.20032 
L 254.625862 47.683698 
L 255.043026 47.683698 
L 255.136194 46.650454 
L 255.836667 46.650454 
L 255.93428 45.100588 
L 256.214166 45.100588 
L 256.214166 44.583966 
L 257.06101 44.583966 
L 257.158774 42.517478 
L 257.281765 42.517478 
L 257.281765 42.000855 
L 257.434921 42.000855 
L 257.517633 40.967611 
L 257.579765 40.967611 
L 257.579765 40.450989 
L 258.294459 40.450989 
L 258.356617 39.417745 
L 258.52685 39.417745 
L 258.578166 38.384501 
L 259.770426 38.384501 
L 259.770426 37.867879 
L 260.526843 37.867879 
L 260.526843 37.351257 
L 261.856602 37.351257 
L 261.856602 36.834635 
L 263.465036 36.834635 
L 263.465036 36.318013 
L 266.172455 36.318013 
L 266.172455 35.801391 
L 267.114928 35.801391 
L 267.114928 35.284769 
L 267.617024 35.284769 
L 267.617024 34.768147 
L 358.8 34.768147 
L 358.8 34.768147 
" style="fill:none;stroke:#ff00ff;stroke-linecap:square;stroke-width:1.5;"/>
   </g>
   <g id="line2d_30">
    <defs>
     <path d="M -0 8.485281 
L 5.091169 0 
L 0 -8.485281 
L -5.091169 -0 
z
" id="m278f42f144" style="stroke:#ff00ff;stroke-linejoin:miter;stroke-width:1.5;"/>
    </defs>
    <g>
     <use style="fill:none;stroke:#ff00ff;stroke-linejoin:miter;stroke-width:1.5;" x="117.826895" xlink:href="#m278f42f144" y="278.097116"/>
     <use style="fill:none;stroke:#ff00ff;stroke-linejoin:miter;stroke-width:1.5;" x="197.339792" xlink:href="#m278f42f144" y="210.936254"/>
     <use style="fill:none;stroke:#ff00ff;stroke-linejoin:miter;stroke-width:1.5;" x="239.567769" xlink:href="#m278f42f144" y="100.379143"/>
     <use style="fill:none;stroke:#ff00ff;stroke-linejoin:miter;stroke-width:1.5;" x="267.617024" xlink:href="#m278f42f144" y="35.284769"/>
     <use style="fill:none;stroke:#ff00ff;stroke-linejoin:miter;stroke-width:1.5;" x="267.617024" xlink:href="#m278f42f144" y="34.768147"/>
     <use style="fill:none;stroke:#ff00ff;stroke-linejoin:miter;stroke-width:1.5;" x="358.8" xlink:href="#m278f42f144" y="34.768147"/>
    </g>
   </g>
   <g id="line2d_31"/>
   <g id="line2d_32">
    <path clip-path="url(#p0d0a090dd1)" d="M 209.872293 206.803278 
" style="fill:none;stroke:#ff00ff;stroke-linecap:square;stroke-width:1.5;"/>
    <defs>
     <path d="M -12 12 
L 12 -12 
M -12 -12 
L 12 12 
" id="mb211e41eb1" style="stroke:#ff00ff;stroke-width:3;"/>
    </defs>
    <g clip-path="url(#p0d0a090dd1)">
     <use style="fill:#ff00ff;stroke:#ff00ff;stroke-width:3;" x="209.872293" xlink:href="#mb211e41eb1" y="206.803278"/>
    </g>
   </g>
   <g id="line2d_33">
    <defs>
     <path d="M 0 1.5 
C 0.397805 1.5 0.77937 1.341951 1.06066 1.06066 
C 1.341951 0.77937 1.5 0.397805 1.5 0 
C 1.5 -0.397805 1.341951 -0.77937 1.06066 -1.06066 
C 0.77937 -1.341951 0.397805 -1.5 0 -1.5 
C -0.397805 -1.5 -0.77937 -1.341951 -1.06066 -1.06066 
C -1.341951 -0.77937 -1.5 -0.397805 -1.5 0 
C -1.5 0.397805 -1.341951 0.77937 -1.06066 1.06066 
C -0.77937 1.341951 -0.397805 1.5 0 1.5 
z
" id="m9a4df4005d" style="stroke:#ffa500;"/>
    </defs>
    <g>
     <use style="fill:#ffa500;stroke:#ffa500;" x="275.346022" xlink:href="#m9a4df4005d" y="34.768147"/>
     <use style="fill:#ffa500;stroke:#ffa500;" x="275.346022" xlink:href="#m9a4df4005d" y="34.768147"/>
    </g>
   </g>
   <g id="line2d_34">
    <path d="M 29.657143 298.245375 
L 29.657143 293.079155 
L 49.287274 293.079155 
L 49.287274 292.562533 
L 70.8 292.562533 
L 70.8 292.045911 
L 74.057743 292.045911 
L 74.057743 291.529289 
L 78.044898 291.529289 
L 78.044898 291.012667 
L 82.26872 291.012667 
L 82.26872 290.496045 
L 85.682517 290.496045 
L 85.682517 289.979423 
L 89.197359 289.979423 
L 89.197359 289.462801 
L 90.430132 289.462801 
L 90.430132 288.946179 
L 93.184514 288.946179 
L 93.184514 288.429557 
L 93.687874 288.429557 
L 93.687874 287.912935 
L 96.442257 287.912935 
L 96.442257 287.396313 
L 101.260636 287.396313 
L 101.260636 286.363069 
L 103.687154 286.363069 
L 103.687154 284.296581 
L 104.518379 284.296581 
L 104.518379 283.779959 
L 106.562676 283.779959 
L 106.562676 283.263337 
L 108.396913 283.263337 
L 108.396913 282.230093 
L 108.613499 282.230093 
L 108.613499 281.713471 
L 109.860617 281.713471 
L 109.860617 281.196849 
L 111.581873 281.196849 
L 111.581873 280.163604 
L 112.296693 280.163604 
L 112.296693 279.646982 
L 115.051075 279.646982 
L 115.051075 279.13036 
L 117.038468 279.13036 
L 117.038468 278.613738 
L 117.826895 278.613738 
L 117.826895 278.097116 
L 119.773647 278.097116 
L 119.773647 277.580494 
L 120.452265 277.580494 
L 120.452265 276.54725 
L 121.839741 276.54725 
L 121.839741 276.030628 
L 122.935065 276.030628 
L 123.03139 274.997384 
L 123.967107 274.997384 
L 123.967107 274.480762 
L 126.825374 274.480762 
L 126.825374 273.447518 
L 127.585834 273.447518 
L 127.585834 272.930896 
L 127.954262 272.930896 
L 127.954262 272.414274 
L 128.24363 272.414274 
L 128.24363 271.897652 
L 128.386576 271.897652 
L 128.386576 270.864408 
L 128.94719 270.864408 
L 128.94719 269.831164 
L 129.557546 269.831164 
L 129.557546 269.314542 
L 129.756451 269.314542 
L 129.756451 265.181566 
L 130.593669 265.181566 
L 130.593669 264.664944 
L 132.330967 264.664944 
L 132.330967 264.148322 
L 134.781029 264.148322 
L 134.781029 263.115078 
L 134.929724 263.115078 
L 134.929724 262.081834 
L 136.215069 262.081834 
L 136.215069 261.04859 
L 139.054554 261.04859 
L 139.054554 260.531968 
L 139.403779 260.531968 
L 139.403779 259.498724 
L 139.821543 259.498724 
L 139.821543 258.982102 
L 140.045364 258.982102 
L 140.045364 257.948858 
L 140.878274 257.948858 
L 140.984107 256.915614 
L 141.504069 256.915614 
L 141.504069 256.398992 
L 141.775317 256.398992 
L 141.775317 255.88237 
L 142.141685 255.88237 
L 142.141685 255.365748 
L 142.915876 255.365748 
L 142.915876 254.849126 
L 143.041708 254.849126 
L 143.041708 253.815882 
L 144.136017 253.815882 
L 144.136017 252.782638 
L 144.830011 252.782638 
L 144.830011 252.266016 
L 145.194966 252.266016 
L 145.194966 251.749394 
L 145.552615 251.749394 
L 145.552615 251.232772 
L 145.688289 251.232772 
L 145.688289 250.199528 
L 147.36425 250.199528 
L 147.36425 249.682906 
L 149.07621 249.682906 
L 149.07621 248.649662 
L 149.474279 248.649662 
L 149.496136 246.583173 
L 149.713248 246.583173 
L 149.713248 245.549929 
L 150.453016 245.549929 
L 150.453016 245.033307 
L 152.393489 245.033307 
L 152.393489 244.516685 
L 156.193932 244.516685 
L 156.193932 244.000063 
L 209.937687 244.000063 
L 210.042706 235.217489 
L 210.050079 235.217489 
L 210.13978 230.051269 
L 210.212971 230.051269 
L 210.317842 222.301939 
L 210.344689 222.301939 
L 210.453117 216.619097 
L 210.470405 216.619097 
L 210.567337 210.419632 
L 210.593097 210.419632 
L 210.593097 209.386388 
L 210.736954 209.386388 
L 210.811276 208.353144 
L 222.290625 208.353144 
L 222.391771 196.470838 
L 222.405066 196.470838 
L 222.505201 189.754752 
L 222.517679 189.754752 
L 222.621563 180.455556 
L 222.695087 180.455556 
L 222.733186 178.90569 
L 229.53416 178.90569 
L 229.643317 166.506761 
L 229.665708 166.506761 
L 229.745937 159.790675 
L 229.795319 159.790675 
L 229.795319 159.274053 
L 234.661549 159.274053 
L 234.767027 149.458235 
L 234.77331 149.458235 
L 234.796206 147.908369 
L 238.647625 147.908369 
L 238.757952 136.542684 
L 238.767706 136.542684 
L 238.776422 135.50944 
L 241.903534 135.50944 
L 242.00983 123.110512 
L 242.034706 123.110512 
L 242.034706 122.59389 
L 244.655649 122.59389 
L 244.74681 115.361182 
L 247.037392 115.361182 
L 247.138394 102.445631 
L 249.145951 102.445631 
L 249.203801 94.696301 
L 251.027206 94.696301 
L 251.079283 88.496837 
L 252.729462 88.496837 
L 252.776475 83.847239 
L 254.280274 83.847239 
L 254.322022 78.164397 
L 255.715699 78.164397 
L 255.771123 72.481554 
L 257.03509 72.481554 
L 257.071251 67.315334 
L 258.278005 67.315334 
L 258.309016 63.182358 
L 259.425834 63.182358 
L 259.453339 60.082626 
L 260.521771 60.082626 
L 260.539692 57.499516 
L 261.528168 57.499516 
L 261.558607 55.433028 
L 262.493702 55.433028 
L 262.502511 53.883162 
L 263.410469 53.883162 
L 263.43077 49.750186 
L 264.277383 49.750186 
L 264.301502 46.133832 
L 265.119024 46.133832 
L 265.119024 45.61721 
L 265.91242 45.61721 
L 265.928778 43.550722 
L 266.672266 43.550722 
L 266.682708 42.000855 
L 267.392511 42.000855 
L 267.416401 40.450989 
L 268.769304 40.450989 
L 268.769304 39.934367 
L 270.045171 39.934367 
L 270.060486 38.384501 
L 271.242193 38.384501 
L 271.242193 37.867879 
L 271.814044 37.867879 
L 271.814044 37.351257 
L 272.362502 37.351257 
L 272.362502 36.834635 
L 272.898476 36.834635 
L 272.898476 36.318013 
L 273.920862 36.318013 
L 273.920862 35.801391 
L 274.888449 35.801391 
L 274.888449 35.284769 
L 275.346022 35.284769 
L 275.346022 34.768147 
L 358.8 34.768147 
L 358.8 34.768147 
" style="fill:none;stroke:#ffa500;stroke-linecap:square;stroke-width:1.5;"/>
   </g>
   <g id="line2d_35">
    <defs>
     <path d="M 0 -6 
L -1.347084 -1.854102 
L -5.706339 -1.854102 
L -2.179628 0.708204 
L -3.526712 4.854102 
L -0 2.291796 
L 3.526712 4.854102 
L 2.179628 0.708204 
L 5.706339 -1.854102 
L 1.347084 -1.854102 
z
" id="mb88a809509" style="stroke:#ffa500;stroke-linejoin:bevel;stroke-width:1.5;"/>
    </defs>
    <g>
     <use style="fill:none;stroke:#ffa500;stroke-linejoin:bevel;stroke-width:1.5;" x="126.825374" xlink:href="#mb88a809509" y="274.480762"/>
     <use style="fill:none;stroke:#ffa500;stroke-linejoin:bevel;stroke-width:1.5;" x="222.3459" xlink:href="#mb88a809509" y="201.637058"/>
     <use style="fill:none;stroke:#ffa500;stroke-linejoin:bevel;stroke-width:1.5;" x="247.080218" xlink:href="#mb88a809509" y="109.678339"/>
     <use style="fill:none;stroke:#ffa500;stroke-linejoin:bevel;stroke-width:1.5;" x="275.346022" xlink:href="#mb88a809509" y="34.768147"/>
     <use style="fill:none;stroke:#ffa500;stroke-linejoin:bevel;stroke-width:1.5;" x="275.346022" xlink:href="#mb88a809509" y="34.768147"/>
     <use style="fill:none;stroke:#ffa500;stroke-linejoin:bevel;stroke-width:1.5;" x="358.8" xlink:href="#mb88a809509" y="34.768147"/>
    </g>
   </g>
   <g id="line2d_36"/>
   <g id="line2d_37">
    <path clip-path="url(#p0d0a090dd1)" d="M 209.872293 244.000063 
" style="fill:none;stroke:#ffa500;stroke-linecap:square;stroke-width:1.5;"/>
    <defs>
     <path d="M -12 12 
L 12 -12 
M -12 -12 
L 12 12 
" id="md1d20485f7" style="stroke:#ffa500;stroke-width:3;"/>
    </defs>
    <g clip-path="url(#p0d0a090dd1)">
     <use style="fill:#ffa500;stroke:#ffa500;stroke-width:3;" x="209.872293" xlink:href="#md1d20485f7" y="244.000063"/>
    </g>
   </g>
   <g id="line2d_38">
    <defs>
     <path d="M 0 1.5 
C 0.397805 1.5 0.77937 1.341951 1.06066 1.06066 
C 1.341951 0.77937 1.5 0.397805 1.5 0 
C 1.5 -0.397805 1.341951 -0.77937 1.06066 -1.06066 
C 0.77937 -1.341951 0.397805 -1.5 0 -1.5 
C -0.397805 -1.5 -0.77937 -1.341951 -1.06066 -1.06066 
C -1.341951 -0.77937 -1.5 -0.397805 -1.5 0 
C -1.5 0.397805 -1.341951 0.77937 -1.06066 1.06066 
C -0.77937 1.341951 -0.397805 1.5 0 1.5 
z
" id="mdf75126e9c" style="stroke:#6495ed;"/>
    </defs>
    <g>
     <use style="fill:#6495ed;stroke:#6495ed;" x="247.101732" xlink:href="#mdf75126e9c" y="246.583173"/>
     <use style="fill:#6495ed;stroke:#6495ed;" x="247.101732" xlink:href="#mdf75126e9c" y="246.583173"/>
    </g>
   </g>
   <g id="line2d_39">
    <path d="M 95.118087 298.245375 
L 95.118087 296.178887 
L 96.442257 296.178887 
L 96.442257 295.662265 
L 97.273482 295.662265 
L 97.273482 294.112399 
L 97.675029 294.112399 
L 97.675029 293.595777 
L 99.557623 293.595777 
L 99.557623 289.462801 
L 100.258423 289.462801 
L 100.258423 288.429557 
L 100.932772 288.429557 
L 100.932772 287.396313 
L 101.898851 287.396313 
L 101.898851 285.329825 
L 102.515054 285.329825 
L 102.515054 284.813203 
L 102.815366 284.813203 
L 102.815366 282.230093 
L 103.110713 282.230093 
L 103.110713 280.163604 
L 104.518379 280.163604 
L 104.518379 277.580494 
L 104.787078 277.580494 
L 104.787078 273.447518 
L 105.051795 273.447518 
L 105.051795 272.930896 
L 105.312648 272.930896 
L 105.312648 272.414274 
L 105.569748 272.414274 
L 105.569748 270.864408 
L 105.823201 270.864408 
L 105.823201 267.248054 
L 106.073108 267.248054 
L 106.073108 265.698188 
L 106.562676 265.698188 
L 106.562676 264.664944 
L 108.396913 264.664944 
L 108.396913 263.6317 
L 108.827491 263.6317 
L 108.827491 263.115078 
L 109.658716 263.115078 
L 109.658716 262.598456 
L 110.257703 262.598456 
L 110.257703 262.081834 
L 111.398608 262.081834 
L 111.398608 261.04859 
L 112.984013 261.04859 
L 112.984013 260.015346 
L 113.48269 260.015346 
L 113.48269 259.498724 
L 114.284085 259.498724 
L 114.284085 258.982102 
L 115.930012 258.982102 
L 115.930012 258.46548 
L 118.208435 258.46548 
L 118.208435 257.948858 
L 118.333826 257.948858 
L 118.333826 256.915614 
L 128.457622 256.915614 
L 128.457622 256.398992 
L 134.979015 256.398992 
L 134.979015 255.88237 
L 136.215069 255.88237 
L 136.215069 254.849126 
L 138.61824 254.849126 
L 138.61824 254.332504 
L 144.165478 254.332504 
L 144.165478 253.29926 
L 150.432299 253.29926 
L 150.432299 251.749394 
L 151.846559 251.749394 
L 151.846559 251.232772 
L 152.300377 251.232772 
L 152.300377 250.199528 
L 157.759919 250.199528 
L 157.759919 249.682906 
L 210.814101 249.682906 
L 210.814101 249.166284 
L 222.601492 249.166284 
L 222.601492 248.649662 
L 229.821908 248.649662 
L 229.821908 248.13304 
L 234.789931 248.13304 
L 234.789931 247.616418 
L 238.740795 247.616418 
L 238.740795 247.099796 
L 247.101732 247.099796 
L 247.101732 246.583173 
L 358.8 246.583173 
" style="fill:none;stroke:#6495ed;stroke-linecap:square;stroke-width:1.5;"/>
   </g>
   <g id="line2d_40">
    <defs>
     <path d="M -0 6 
L 6 -6 
L -6 -6 
z
" id="mdeec6d45af" style="stroke:#6495ed;stroke-linejoin:miter;stroke-width:1.5;"/>
    </defs>
    <g>
     <use style="fill:none;stroke:#6495ed;stroke-linejoin:miter;stroke-width:1.5;" x="144.165478" xlink:href="#mdeec6d45af" y="254.332504"/>
     <use style="fill:none;stroke:#6495ed;stroke-linejoin:miter;stroke-width:1.5;" x="210.814101" xlink:href="#mdeec6d45af" y="249.166284"/>
     <use style="fill:none;stroke:#6495ed;stroke-linejoin:miter;stroke-width:1.5;" x="247.101732" xlink:href="#mdeec6d45af" y="247.099796"/>
     <use style="fill:none;stroke:#6495ed;stroke-linejoin:miter;stroke-width:1.5;" x="247.101732" xlink:href="#mdeec6d45af" y="246.583173"/>
     <use style="fill:none;stroke:#6495ed;stroke-linejoin:miter;stroke-width:1.5;" x="358.8" xlink:href="#mdeec6d45af" y="246.583173"/>
    </g>
   </g>
   <g id="line2d_41"/>
   <g id="line2d_42">
    <path clip-path="url(#p0d0a090dd1)" d="M 209.872293 249.682906 
" style="fill:none;stroke:#6495ed;stroke-linecap:square;stroke-width:1.5;"/>
    <defs>
     <path d="M -12 12 
L 12 -12 
M -12 -12 
L 12 12 
" id="m2baded3925" style="stroke:#6495ed;stroke-width:3;"/>
    </defs>
    <g clip-path="url(#p0d0a090dd1)">
     <use style="fill:#6495ed;stroke:#6495ed;stroke-width:3;" x="209.872293" xlink:href="#m2baded3925" y="249.682906"/>
    </g>
   </g>
   <g id="line2d_43">
    <defs>
     <path d="M 0 1.5 
C 0.397805 1.5 0.77937 1.341951 1.06066 1.06066 
C 1.341951 0.77937 1.5 0.397805 1.5 0 
C 1.5 -0.397805 1.341951 -0.77937 1.06066 -1.06066 
C 0.77937 -1.341951 0.397805 -1.5 0 -1.5 
C -0.397805 -1.5 -0.77937 -1.341951 -1.06066 -1.06066 
C -1.341951 -0.77937 -1.5 -0.397805 -1.5 0 
C -1.5 0.397805 -1.341951 0.77937 -1.06066 1.06066 
C -0.77937 1.341951 -0.397805 1.5 0 1.5 
z
" id="mfcd2fe878f" style="stroke:#ff0000;"/>
    </defs>
    <g>
     <use style="fill:#ff0000;stroke:#ff0000;" x="235.331896" xlink:href="#mfcd2fe878f" y="277.580494"/>
     <use style="fill:#ff0000;stroke:#ff0000;" x="235.331896" xlink:href="#mfcd2fe878f" y="277.580494"/>
    </g>
   </g>
   <g id="line2d_44">
    <path d="M 70.8 298.245375 
L 70.8 297.212131 
L 91.016024 297.212131 
L 91.016024 296.695509 
L 92.666561 296.695509 
L 92.666561 295.662265 
L 104.787078 295.662265 
L 104.787078 294.629021 
L 109.860617 294.629021 
L 109.860617 294.112399 
L 115.2006 294.112399 
L 115.2006 293.595777 
L 133.651059 293.595777 
L 133.651059 293.079155 
L 141.842491 293.079155 
L 141.842491 292.562533 
L 145.388435 292.562533 
L 145.388435 292.045911 
L 150.862383 292.045911 
L 150.862383 291.529289 
L 152.87 291.529289 
L 152.87 291.012667 
L 158.827787 291.012667 
L 158.827787 290.496045 
L 168.405651 290.496045 
L 168.405651 289.979423 
L 168.706342 289.979423 
L 168.706342 288.946179 
L 170.506 288.946179 
L 170.506 288.429557 
L 173.615974 288.429557 
L 173.615974 287.912935 
L 176.821726 287.912935 
L 176.821726 286.363069 
L 181.967978 286.363069 
L 181.967978 285.329825 
L 183.5301 285.329825 
L 183.5301 284.296581 
L 186.248677 284.296581 
L 186.248677 283.779959 
L 196.826563 283.779959 
L 196.826563 283.263337 
L 211.384723 283.263337 
L 211.384723 282.746715 
L 211.744312 282.746715 
L 211.744312 282.230093 
L 213.555969 282.230093 
L 213.555969 281.713471 
L 216.899727 281.713471 
L 216.899727 281.196849 
L 223.016188 281.196849 
L 223.016188 280.680226 
L 223.218041 280.680226 
L 223.218041 280.163604 
L 223.610203 280.163604 
L 223.610203 279.646982 
L 224.194125 279.646982 
L 224.194125 279.13036 
L 230.14847 279.13036 
L 230.14847 278.613738 
L 230.274875 278.613738 
L 230.274875 278.097116 
L 235.331896 278.097116 
L 235.331896 277.580494 
L 358.8 277.580494 
" style="fill:none;stroke:#ff0000;stroke-linecap:square;stroke-width:1.5;"/>
   </g>
   <g id="line2d_45">
    <defs>
     <path d="M 0 -6 
L -5.196152 -3 
L -5.196152 3 
L -0 6 
L 5.196152 3 
L 5.196152 -3 
z
" id="me8481ac3f8" style="stroke:#ff0000;stroke-linejoin:miter;stroke-width:1.5;"/>
    </defs>
    <g>
     <use style="fill:none;stroke:#ff0000;stroke-linejoin:miter;stroke-width:1.5;" x="115.2006" xlink:href="#me8481ac3f8" y="293.595777"/>
     <use style="fill:none;stroke:#ff0000;stroke-linejoin:miter;stroke-width:1.5;" x="196.826563" xlink:href="#me8481ac3f8" y="283.263337"/>
     <use style="fill:none;stroke:#ff0000;stroke-linejoin:miter;stroke-width:1.5;" x="235.331896" xlink:href="#me8481ac3f8" y="277.580494"/>
     <use style="fill:none;stroke:#ff0000;stroke-linejoin:miter;stroke-width:1.5;" x="235.331896" xlink:href="#me8481ac3f8" y="277.580494"/>
     <use style="fill:none;stroke:#ff0000;stroke-linejoin:miter;stroke-width:1.5;" x="358.8" xlink:href="#me8481ac3f8" y="277.580494"/>
    </g>
   </g>
   <g id="line2d_46"/>
   <g id="line2d_47">
    <path clip-path="url(#p0d0a090dd1)" d="M 209.872293 283.263337 
" style="fill:none;stroke:#ff0000;stroke-linecap:square;stroke-width:1.5;"/>
    <defs>
     <path d="M -12 12 
L 12 -12 
M -12 -12 
L 12 12 
" id="m807a04a999" style="stroke:#ff0000;stroke-width:3;"/>
    </defs>
    <g clip-path="url(#p0d0a090dd1)">
     <use style="fill:#ff0000;stroke:#ff0000;stroke-width:3;" x="209.872293" xlink:href="#m807a04a999" y="283.263337"/>
    </g>
   </g>
   <g id="line2d_48">
    <path d="M 358.8 277.580494 
L 390.48 292.97583 
" style="fill:none;stroke:#ff0000;stroke-linecap:square;stroke-width:1.5;"/>
    <g>
     <use style="fill:none;stroke:#ff0000;stroke-linejoin:miter;stroke-width:1.5;" x="358.8" xlink:href="#me8481ac3f8" y="277.580494"/>
     <use style="fill:none;stroke:#ff0000;stroke-linejoin:miter;stroke-width:1.5;" x="390.48" xlink:href="#me8481ac3f8" y="292.97583"/>
    </g>
   </g>
   <g id="line2d_49">
    <path d="M 358.8 246.583173 
L 390.48 229.741296 
" style="fill:none;stroke:#6495ed;stroke-linecap:square;stroke-width:1.5;"/>
    <g>
     <use style="fill:none;stroke:#6495ed;stroke-linejoin:miter;stroke-width:1.5;" x="358.8" xlink:href="#mdeec6d45af" y="246.583173"/>
     <use style="fill:none;stroke:#6495ed;stroke-linejoin:miter;stroke-width:1.5;" x="390.48" xlink:href="#mdeec6d45af" y="229.741296"/>
    </g>
   </g>
   <g id="line2d_50">
    <path d="M 358.8 220.752073 
L 390.48 166.506761 
" style="fill:none;stroke:#000080;stroke-linecap:square;stroke-width:1.5;"/>
    <g>
     <use style="fill:none;stroke:#000080;stroke-width:1.5;" x="358.8" xlink:href="#m8e05f5d4d6" y="220.752073"/>
     <use style="fill:none;stroke:#000080;stroke-width:1.5;" x="390.48" xlink:href="#m8e05f5d4d6" y="166.506761"/>
    </g>
   </g>
   <g id="line2d_51">
    <path d="M 358.8 34.768147 
L 390.48 103.272226 
" style="fill:none;stroke:#ffa500;stroke-linecap:square;stroke-width:1.5;"/>
    <g>
     <use style="fill:none;stroke:#ffa500;stroke-linejoin:bevel;stroke-width:1.5;" x="358.8" xlink:href="#mb88a809509" y="34.768147"/>
     <use style="fill:none;stroke:#ffa500;stroke-linejoin:bevel;stroke-width:1.5;" x="390.48" xlink:href="#mb88a809509" y="103.272226"/>
    </g>
   </g>
   <g id="line2d_52">
    <path d="M 358.8 34.768147 
L 390.48 40.037692 
" style="fill:none;stroke:#ff00ff;stroke-linecap:square;stroke-width:1.5;"/>
    <g>
     <use style="fill:none;stroke:#ff00ff;stroke-linejoin:miter;stroke-width:1.5;" x="358.8" xlink:href="#m278f42f144" y="34.768147"/>
     <use style="fill:none;stroke:#ff00ff;stroke-linejoin:miter;stroke-width:1.5;" x="390.48" xlink:href="#m278f42f144" y="40.037692"/>
    </g>
   </g>
   <g id="line2d_53">
    <path d="M 358.8 298.245375 
L 358.8 34.768147 
" style="fill:none;stroke:#000000;stroke-linecap:square;stroke-width:1.5;"/>
   </g>
   <g id="patch_3">
    <path d="M 70.8 298.245375 
L 70.8 32.133375 
" style="fill:none;stroke:#000000;stroke-linecap:square;stroke-linejoin:miter;stroke-width:0.8;"/>
   </g>
   <g id="patch_4">
    <path d="M 427.92 298.245375 
L 427.92 32.133375 
" style="fill:none;stroke:#000000;stroke-linecap:square;stroke-linejoin:miter;stroke-width:0.8;"/>
   </g>
   <g id="patch_5">
    <path d="M 70.8 298.245375 
L 427.92 298.245375 
" style="fill:none;stroke:#000000;stroke-linecap:square;stroke-linejoin:miter;stroke-width:0.8;"/>
   </g>
   <g id="patch_6">
    <path d="M 70.8 32.133375 
L 427.92 32.133375 
" style="fill:none;stroke:#000000;stroke-linecap:square;stroke-linejoin:miter;stroke-width:0.8;"/>
   </g>
   <g id="text_14">
    <!-- f24 -->
    <g transform="translate(396.24 297.114893)scale(0.15 -0.15)">
     <use xlink:href="#DejaVuSans-66"/>
     <use x="35.205078" xlink:href="#DejaVuSans-32"/>
     <use x="98.828125" xlink:href="#DejaVuSans-34"/>
    </g>
   </g>
   <g id="text_15">
    <!-- f20 -->
    <g transform="translate(396.24 233.880358)scale(0.15 -0.15)">
     <use xlink:href="#DejaVuSans-66"/>
     <use x="35.205078" xlink:href="#DejaVuSans-32"/>
     <use x="98.828125" xlink:href="#DejaVuSans-30"/>
    </g>
   </g>
   <g id="text_16">
    <!-- f23 -->
    <defs>
     <path d="M 40.578125 39.3125 
Q 47.65625 37.796875 51.625 33 
Q 55.609375 28.21875 55.609375 21.1875 
Q 55.609375 10.40625 48.1875 4.484375 
Q 40.765625 -1.421875 27.09375 -1.421875 
Q 22.515625 -1.421875 17.65625 -0.515625 
Q 12.796875 0.390625 7.625 2.203125 
L 7.625 11.71875 
Q 11.71875 9.328125 16.59375 8.109375 
Q 21.484375 6.890625 26.8125 6.890625 
Q 36.078125 6.890625 40.9375 10.546875 
Q 45.796875 14.203125 45.796875 21.1875 
Q 45.796875 27.640625 41.28125 31.265625 
Q 36.765625 34.90625 28.71875 34.90625 
L 20.21875 34.90625 
L 20.21875 43.015625 
L 29.109375 43.015625 
Q 36.375 43.015625 40.234375 45.921875 
Q 44.09375 48.828125 44.09375 54.296875 
Q 44.09375 59.90625 40.109375 62.90625 
Q 36.140625 65.921875 28.71875 65.921875 
Q 24.65625 65.921875 20.015625 65.03125 
Q 15.375 64.15625 9.8125 62.3125 
L 9.8125 71.09375 
Q 15.4375 72.65625 20.34375 73.4375 
Q 25.25 74.21875 29.59375 74.21875 
Q 40.828125 74.21875 47.359375 69.109375 
Q 53.90625 64.015625 53.90625 55.328125 
Q 53.90625 49.265625 50.4375 45.09375 
Q 46.96875 40.921875 40.578125 39.3125 
z
" id="DejaVuSans-33"/>
    </defs>
    <g transform="translate(396.24 170.645824)scale(0.15 -0.15)">
     <use xlink:href="#DejaVuSans-66"/>
     <use x="35.205078" xlink:href="#DejaVuSans-32"/>
     <use x="98.828125" xlink:href="#DejaVuSans-33"/>
    </g>
   </g>
   <g id="text_17">
    <!-- f21 -->
    <g transform="translate(396.24 107.411289)scale(0.15 -0.15)">
     <use xlink:href="#DejaVuSans-66"/>
     <use x="35.205078" xlink:href="#DejaVuSans-32"/>
     <use x="98.828125" xlink:href="#DejaVuSans-31"/>
    </g>
   </g>
   <g id="text_18">
    <!-- f22 -->
    <g transform="translate(396.24 44.176754)scale(0.15 -0.15)">
     <use xlink:href="#DejaVuSans-66"/>
     <use x="35.205078" xlink:href="#DejaVuSans-32"/>
     <use x="98.828125" xlink:href="#DejaVuSans-32"/>
    </g>
   </g>
   <g id="text_19">
    <!-- bbob -->
    <defs>
     <path d="M 48.6875 27.296875 
Q 48.6875 37.203125 44.609375 42.84375 
Q 40.53125 48.484375 33.40625 48.484375 
Q 26.265625 48.484375 22.1875 42.84375 
Q 18.109375 37.203125 18.109375 27.296875 
Q 18.109375 17.390625 22.1875 11.75 
Q 26.265625 6.109375 33.40625 6.109375 
Q 40.53125 6.109375 44.609375 11.75 
Q 48.6875 17.390625 48.6875 27.296875 
z
M 18.109375 46.390625 
Q 20.953125 51.265625 25.265625 53.625 
Q 29.59375 56 35.59375 56 
Q 45.5625 56 51.78125 48.09375 
Q 58.015625 40.1875 58.015625 27.296875 
Q 58.015625 14.40625 51.78125 6.484375 
Q 45.5625 -1.421875 35.59375 -1.421875 
Q 29.59375 -1.421875 25.265625 0.953125 
Q 20.953125 3.328125 18.109375 8.203125 
L 18.109375 0 
L 9.078125 0 
L 9.078125 75.984375 
L 18.109375 75.984375 
z
" id="DejaVuSans-62"/>
    </defs>
    <g transform="translate(74.3712 50.114612)scale(0.1666 -0.1666)">
     <use xlink:href="#DejaVuSans-62"/>
     <use x="63.476562" xlink:href="#DejaVuSans-62"/>
     <use x="126.953125" xlink:href="#DejaVuSans-6f"/>
     <use x="188.134766" xlink:href="#DejaVuSans-62"/>
    </g>
    <!-- Weak structure functions, 10-D -->
    <defs>
     <path d="M 3.328125 72.90625 
L 13.28125 72.90625 
L 28.609375 11.28125 
L 43.890625 72.90625 
L 54.984375 72.90625 
L 70.3125 11.28125 
L 85.59375 72.90625 
L 95.609375 72.90625 
L 77.296875 0 
L 64.890625 0 
L 49.515625 63.28125 
L 33.984375 0 
L 21.578125 0 
z
" id="DejaVuSans-57"/>
     <path d="M 9.078125 75.984375 
L 18.109375 75.984375 
L 18.109375 31.109375 
L 44.921875 54.6875 
L 56.390625 54.6875 
L 27.390625 29.109375 
L 57.625 0 
L 45.90625 0 
L 18.109375 26.703125 
L 18.109375 0 
L 9.078125 0 
z
" id="DejaVuSans-6b"/>
     <path d="M 11.71875 12.40625 
L 22.015625 12.40625 
L 22.015625 4 
L 14.015625 -11.625 
L 7.71875 -11.625 
L 11.71875 4 
z
" id="DejaVuSans-2c"/>
     <path d="M 19.671875 64.796875 
L 19.671875 8.109375 
L 31.59375 8.109375 
Q 46.6875 8.109375 53.6875 14.9375 
Q 60.6875 21.78125 60.6875 36.53125 
Q 60.6875 51.171875 53.6875 57.984375 
Q 46.6875 64.796875 31.59375 64.796875 
z
M 9.8125 72.90625 
L 30.078125 72.90625 
Q 51.265625 72.90625 61.171875 64.09375 
Q 71.09375 55.28125 71.09375 36.53125 
Q 71.09375 17.671875 61.125 8.828125 
Q 51.171875 0 30.078125 0 
L 9.8125 0 
z
" id="DejaVuSans-44"/>
    </defs>
    <g transform="translate(74.3712 68.770168)scale(0.1666 -0.1666)">
     <use xlink:href="#DejaVuSans-57"/>
     <use x="98.798828" xlink:href="#DejaVuSans-65"/>
     <use x="160.322266" xlink:href="#DejaVuSans-61"/>
     <use x="221.601562" xlink:href="#DejaVuSans-6b"/>
     <use x="279.511719" xlink:href="#DejaVuSans-20"/>
     <use x="311.298828" xlink:href="#DejaVuSans-73"/>
     <use x="363.398438" xlink:href="#DejaVuSans-74"/>
     <use x="402.607422" xlink:href="#DejaVuSans-72"/>
     <use x="443.720703" xlink:href="#DejaVuSans-75"/>
     <use x="507.099609" xlink:href="#DejaVuSans-63"/>
     <use x="562.080078" xlink:href="#DejaVuSans-74"/>
     <use x="601.289062" xlink:href="#DejaVuSans-75"/>
     <use x="664.667969" xlink:href="#DejaVuSans-72"/>
     <use x="705.75" xlink:href="#DejaVuSans-65"/>
     <use x="767.273438" xlink:href="#DejaVuSans-20"/>
     <use x="799.060547" xlink:href="#DejaVuSans-66"/>
     <use x="834.265625" xlink:href="#DejaVuSans-75"/>
     <use x="897.644531" xlink:href="#DejaVuSans-6e"/>
     <use x="961.023438" xlink:href="#DejaVuSans-63"/>
     <use x="1016.003906" xlink:href="#DejaVuSans-74"/>
     <use x="1055.212891" xlink:href="#DejaVuSans-69"/>
     <use x="1082.996094" xlink:href="#DejaVuSans-6f"/>
     <use x="1144.177734" xlink:href="#DejaVuSans-6e"/>
     <use x="1207.556641" xlink:href="#DejaVuSans-73"/>
     <use x="1259.65625" xlink:href="#DejaVuSans-2c"/>
     <use x="1291.443359" xlink:href="#DejaVuSans-20"/>
     <use x="1323.230469" xlink:href="#DejaVuSans-31"/>
     <use x="1386.853516" xlink:href="#DejaVuSans-30"/>
     <use x="1450.476562" xlink:href="#DejaVuSans-2d"/>
     <use x="1486.560547" xlink:href="#DejaVuSans-44"/>
    </g>
    <!-- 51 targets in 100..1e-08 -->
    <defs>
     <path d="M 10.796875 72.90625 
L 49.515625 72.90625 
L 49.515625 64.59375 
L 19.828125 64.59375 
L 19.828125 46.734375 
Q 21.96875 47.46875 24.109375 47.828125 
Q 26.265625 48.1875 28.421875 48.1875 
Q 40.625 48.1875 47.75 41.5 
Q 54.890625 34.8125 54.890625 23.390625 
Q 54.890625 11.625 47.5625 5.09375 
Q 40.234375 -1.421875 26.90625 -1.421875 
Q 22.3125 -1.421875 17.546875 -0.640625 
Q 12.796875 0.140625 7.71875 1.703125 
L 7.71875 11.625 
Q 12.109375 9.234375 16.796875 8.0625 
Q 21.484375 6.890625 26.703125 6.890625 
Q 35.15625 6.890625 40.078125 11.328125 
Q 45.015625 15.765625 45.015625 23.390625 
Q 45.015625 31 40.078125 35.4375 
Q 35.15625 39.890625 26.703125 39.890625 
Q 22.75 39.890625 18.8125 39.015625 
Q 14.890625 38.140625 10.796875 36.28125 
z
" id="DejaVuSans-35"/>
    </defs>
    <g transform="translate(74.3712 87.425723)scale(0.1666 -0.1666)">
     <use xlink:href="#DejaVuSans-35"/>
     <use x="63.623047" xlink:href="#DejaVuSans-31"/>
     <use x="127.246094" xlink:href="#DejaVuSans-20"/>
     <use x="159.033203" xlink:href="#DejaVuSans-74"/>
     <use x="198.242188" xlink:href="#DejaVuSans-61"/>
     <use x="259.521484" xlink:href="#DejaVuSans-72"/>
     <use x="300.619141" xlink:href="#DejaVuSans-67"/>
     <use x="364.095703" xlink:href="#DejaVuSans-65"/>
     <use x="425.619141" xlink:href="#DejaVuSans-74"/>
     <use x="464.828125" xlink:href="#DejaVuSans-73"/>
     <use x="516.927734" xlink:href="#DejaVuSans-20"/>
     <use x="548.714844" xlink:href="#DejaVuSans-69"/>
     <use x="576.498047" xlink:href="#DejaVuSans-6e"/>
     <use x="639.876953" xlink:href="#DejaVuSans-20"/>
     <use x="671.664062" xlink:href="#DejaVuSans-31"/>
     <use x="735.287109" xlink:href="#DejaVuSans-30"/>
     <use x="798.910156" xlink:href="#DejaVuSans-30"/>
     <use x="862.533203" xlink:href="#DejaVuSans-2e"/>
     <use x="894.320312" xlink:href="#DejaVuSans-2e"/>
     <use x="926.107422" xlink:href="#DejaVuSans-31"/>
     <use x="989.730469" xlink:href="#DejaVuSans-65"/>
     <use x="1051.253906" xlink:href="#DejaVuSans-2d"/>
     <use x="1087.337891" xlink:href="#DejaVuSans-30"/>
     <use x="1150.960938" xlink:href="#DejaVuSans-38"/>
    </g>
    <!-- 15 instances -->
    <g transform="translate(74.3712 106.081279)scale(0.1666 -0.1666)">
     <use xlink:href="#DejaVuSans-31"/>
     <use x="63.623047" xlink:href="#DejaVuSans-35"/>
     <use x="127.246094" xlink:href="#DejaVuSans-20"/>
     <use x="159.033203" xlink:href="#DejaVuSans-69"/>
     <use x="186.816406" xlink:href="#DejaVuSans-6e"/>
     <use x="250.195312" xlink:href="#DejaVuSans-73"/>
     <use x="302.294922" xlink:href="#DejaVuSans-74"/>
     <use x="341.503906" xlink:href="#DejaVuSans-61"/>
     <use x="402.783203" xlink:href="#DejaVuSans-6e"/>
     <use x="466.162109" xlink:href="#DejaVuSans-63"/>
     <use x="521.142578" xlink:href="#DejaVuSans-65"/>
     <use x="582.666016" xlink:href="#DejaVuSans-73"/>
    </g>
   </g>
   <g id="text_20">
    <!-- v2.1 -->
    <g style="fill:#808080;" transform="translate(238.449063 293.504568)scale(0.1 -0.1)">
     <use xlink:href="#DejaVuSans-76"/>
     <use x="59.179688" xlink:href="#DejaVuSans-32"/>
     <use x="122.802734" xlink:href="#DejaVuSans-2e"/>
     <use x="154.589844" xlink:href="#DejaVuSans-31"/>
    </g>
   </g>
  </g>
 </g>
 <defs>
  <clipPath id="p0d0a090dd1">
   <rect height="266.112" width="357.12" x="70.8" y="32.133375"/>
  </clipPath>
 </defs>
</svg>
