<?xml version="1.0" encoding="utf-8" standalone="no"?>
<!DOCTYPE svg PUBLIC "-//W3C//DTD SVG 1.1//EN"
  "http://www.w3.org/Graphics/SVG/1.1/DTD/svg11.dtd">
<!-- Created with matplotlib (http://matplotlib.org/) -->
<svg height="353pt" version="1.1" viewBox="0 0 438 353" width="438pt" xmlns="http://www.w3.org/2000/svg" xmlns:xlink="http://www.w3.org/1999/xlink">
 <defs>
  <style type="text/css">
*{stroke-linecap:butt;stroke-linejoin:round;}
  </style>
 </defs>
 <g id="figure_1">
  <g id="patch_1">
   <path d="M 0 353.22225 
L 438.62 353.22225 
L 438.62 0 
L 0 0 
z
" style="fill:#ffffff;"/>
  </g>
  <g id="axes_1">
   <g id="patch_2">
    <path d="M 70.8 298.245375 
L 427.92 298.245375 
L 427.92 32.133375 
L 70.8 32.133375 
z
" style="fill:#ffffff;"/>
   </g>
   <g id="matplotlib.axis_1">
    <g id="xtick_1">
     <g id="line2d_1">
      <path clip-path="url(#p8f4818f221)" d="M 70.8 298.245375 
L 70.8 32.133375 
" style="fill:none;stroke:#b0b0b0;stroke-linecap:square;stroke-width:0.8;"/>
     </g>
     <g id="line2d_2">
      <defs>
       <path d="M 0 0 
L 0 3.5 
" id="m9f59d54036" style="stroke:#000000;stroke-width:0.8;"/>
      </defs>
      <g>
       <use style="stroke:#000000;stroke-width:0.8;" x="70.8" xlink:href="#m9f59d54036" y="298.245375"/>
      </g>
     </g>
     <g id="text_1">
      <!-- 0 -->
      <defs>
       <path d="M 31.78125 66.40625 
Q 24.171875 66.40625 20.328125 58.90625 
Q 16.5 51.421875 16.5 36.375 
Q 16.5 21.390625 20.328125 13.890625 
Q 24.171875 6.390625 31.78125 6.390625 
Q 39.453125 6.390625 43.28125 13.890625 
Q 47.125 21.390625 47.125 36.375 
Q 47.125 51.421875 43.28125 58.90625 
Q 39.453125 66.40625 31.78125 66.40625 
z
M 31.78125 74.21875 
Q 44.046875 74.21875 50.515625 64.515625 
Q 56.984375 54.828125 56.984375 36.375 
Q 56.984375 17.96875 50.515625 8.265625 
Q 44.046875 -1.421875 31.78125 -1.421875 
Q 19.53125 -1.421875 13.0625 8.265625 
Q 6.59375 17.96875 6.59375 36.375 
Q 6.59375 54.828125 13.0625 64.515625 
Q 19.53125 74.21875 31.78125 74.21875 
z
" id="DejaVuSans-30"/>
      </defs>
      <g transform="translate(64.4375 320.44225)scale(0.2 -0.2)">
       <use xlink:href="#DejaVuSans-30"/>
      </g>
     </g>
    </g>
    <g id="xtick_2">
     <g id="line2d_3">
      <path clip-path="url(#p8f4818f221)" d="M 153.085714 298.245375 
L 153.085714 32.133375 
" style="fill:none;stroke:#b0b0b0;stroke-linecap:square;stroke-width:0.8;"/>
     </g>
     <g id="line2d_4">
      <g>
       <use style="stroke:#000000;stroke-width:0.8;" x="153.085714" xlink:href="#m9f59d54036" y="298.245375"/>
      </g>
     </g>
     <g id="text_2">
      <!-- 2 -->
      <defs>
       <path d="M 19.1875 8.296875 
L 53.609375 8.296875 
L 53.609375 0 
L 7.328125 0 
L 7.328125 8.296875 
Q 12.9375 14.109375 22.625 23.890625 
Q 32.328125 33.6875 34.8125 36.53125 
Q 39.546875 41.84375 41.421875 45.53125 
Q 43.3125 49.21875 43.3125 52.78125 
Q 43.3125 58.59375 39.234375 62.25 
Q 35.15625 65.921875 28.609375 65.921875 
Q 23.96875 65.921875 18.8125 64.3125 
Q 13.671875 62.703125 7.8125 59.421875 
L 7.8125 69.390625 
Q 13.765625 71.78125 18.9375 73 
Q 24.125 74.21875 28.421875 74.21875 
Q 39.75 74.21875 46.484375 68.546875 
Q 53.21875 62.890625 53.21875 53.421875 
Q 53.21875 48.921875 51.53125 44.890625 
Q 49.859375 40.875 45.40625 35.40625 
Q 44.1875 33.984375 37.640625 27.21875 
Q 31.109375 20.453125 19.1875 8.296875 
z
" id="DejaVuSans-32"/>
      </defs>
      <g transform="translate(146.723214 320.44225)scale(0.2 -0.2)">
       <use xlink:href="#DejaVuSans-32"/>
      </g>
     </g>
    </g>
    <g id="xtick_3">
     <g id="line2d_5">
      <path clip-path="url(#p8f4818f221)" d="M 235.371429 298.245375 
L 235.371429 32.133375 
" style="fill:none;stroke:#b0b0b0;stroke-linecap:square;stroke-width:0.8;"/>
     </g>
     <g id="line2d_6">
      <g>
       <use style="stroke:#000000;stroke-width:0.8;" x="235.371429" xlink:href="#m9f59d54036" y="298.245375"/>
      </g>
     </g>
     <g id="text_3">
      <!-- 4 -->
      <defs>
       <path d="M 37.796875 64.3125 
L 12.890625 25.390625 
L 37.796875 25.390625 
z
M 35.203125 72.90625 
L 47.609375 72.90625 
L 47.609375 25.390625 
L 58.015625 25.390625 
L 58.015625 17.1875 
L 47.609375 17.1875 
L 47.609375 0 
L 37.796875 0 
L 37.796875 17.1875 
L 4.890625 17.1875 
L 4.890625 26.703125 
z
" id="DejaVuSans-34"/>
      </defs>
      <g transform="translate(229.008929 320.44225)scale(0.2 -0.2)">
       <use xlink:href="#DejaVuSans-34"/>
      </g>
     </g>
    </g>
    <g id="xtick_4">
     <g id="line2d_7">
      <path clip-path="url(#p8f4818f221)" d="M 317.657143 298.245375 
L 317.657143 32.133375 
" style="fill:none;stroke:#b0b0b0;stroke-linecap:square;stroke-width:0.8;"/>
     </g>
     <g id="line2d_8">
      <g>
       <use style="stroke:#000000;stroke-width:0.8;" x="317.657143" xlink:href="#m9f59d54036" y="298.245375"/>
      </g>
     </g>
     <g id="text_4">
      <!-- 6 -->
      <defs>
       <path d="M 33.015625 40.375 
Q 26.375 40.375 22.484375 35.828125 
Q 18.609375 31.296875 18.609375 23.390625 
Q 18.609375 15.53125 22.484375 10.953125 
Q 26.375 6.390625 33.015625 6.390625 
Q 39.65625 6.390625 43.53125 10.953125 
Q 47.40625 15.53125 47.40625 23.390625 
Q 47.40625 31.296875 43.53125 35.828125 
Q 39.65625 40.375 33.015625 40.375 
z
M 52.59375 71.296875 
L 52.59375 62.3125 
Q 48.875 64.0625 45.09375 64.984375 
Q 41.3125 65.921875 37.59375 65.921875 
Q 27.828125 65.921875 22.671875 59.328125 
Q 17.53125 52.734375 16.796875 39.40625 
Q 19.671875 43.65625 24.015625 45.921875 
Q 28.375 48.1875 33.59375 48.1875 
Q 44.578125 48.1875 50.953125 41.515625 
Q 57.328125 34.859375 57.328125 23.390625 
Q 57.328125 12.15625 50.6875 5.359375 
Q 44.046875 -1.421875 33.015625 -1.421875 
Q 20.359375 -1.421875 13.671875 8.265625 
Q 6.984375 17.96875 6.984375 36.375 
Q 6.984375 53.65625 15.1875 63.9375 
Q 23.390625 74.21875 37.203125 74.21875 
Q 40.921875 74.21875 44.703125 73.484375 
Q 48.484375 72.75 52.59375 71.296875 
z
" id="DejaVuSans-36"/>
      </defs>
      <g transform="translate(311.294643 320.44225)scale(0.2 -0.2)">
       <use xlink:href="#DejaVuSans-36"/>
      </g>
     </g>
    </g>
    <g id="xtick_5">
     <g id="line2d_9">
      <path clip-path="url(#p8f4818f221)" d="M 399.942857 298.245375 
L 399.942857 32.133375 
" style="fill:none;stroke:#b0b0b0;stroke-linecap:square;stroke-width:0.8;"/>
     </g>
     <g id="line2d_10">
      <g>
       <use style="stroke:#000000;stroke-width:0.8;" x="399.942857" xlink:href="#m9f59d54036" y="298.245375"/>
      </g>
     </g>
     <g id="text_5">
      <!-- 8 -->
      <defs>
       <path d="M 31.78125 34.625 
Q 24.75 34.625 20.71875 30.859375 
Q 16.703125 27.09375 16.703125 20.515625 
Q 16.703125 13.921875 20.71875 10.15625 
Q 24.75 6.390625 31.78125 6.390625 
Q 38.8125 6.390625 42.859375 10.171875 
Q 46.921875 13.96875 46.921875 20.515625 
Q 46.921875 27.09375 42.890625 30.859375 
Q 38.875 34.625 31.78125 34.625 
z
M 21.921875 38.8125 
Q 15.578125 40.375 12.03125 44.71875 
Q 8.5 49.078125 8.5 55.328125 
Q 8.5 64.0625 14.71875 69.140625 
Q 20.953125 74.21875 31.78125 74.21875 
Q 42.671875 74.21875 48.875 69.140625 
Q 55.078125 64.0625 55.078125 55.328125 
Q 55.078125 49.078125 51.53125 44.71875 
Q 48 40.375 41.703125 38.8125 
Q 48.828125 37.15625 52.796875 32.3125 
Q 56.78125 27.484375 56.78125 20.515625 
Q 56.78125 9.90625 50.3125 4.234375 
Q 43.84375 -1.421875 31.78125 -1.421875 
Q 19.734375 -1.421875 13.25 4.234375 
Q 6.78125 9.90625 6.78125 20.515625 
Q 6.78125 27.484375 10.78125 32.3125 
Q 14.796875 37.15625 21.921875 38.8125 
z
M 18.3125 54.390625 
Q 18.3125 48.734375 21.84375 45.5625 
Q 25.390625 42.390625 31.78125 42.390625 
Q 38.140625 42.390625 41.71875 45.5625 
Q 45.3125 48.734375 45.3125 54.390625 
Q 45.3125 60.0625 41.71875 63.234375 
Q 38.140625 66.40625 31.78125 66.40625 
Q 25.390625 66.40625 21.84375 63.234375 
Q 18.3125 60.0625 18.3125 54.390625 
z
" id="DejaVuSans-38"/>
      </defs>
      <g transform="translate(393.580357 320.44225)scale(0.2 -0.2)">
       <use xlink:href="#DejaVuSans-38"/>
      </g>
     </g>
    </g>
    <g id="text_6">
     <!-- log10 of (# f-evals / dimension) -->
     <defs>
      <path d="M 9.421875 75.984375 
L 18.40625 75.984375 
L 18.40625 0 
L 9.421875 0 
z
" id="DejaVuSans-6c"/>
      <path d="M 30.609375 48.390625 
Q 23.390625 48.390625 19.1875 42.75 
Q 14.984375 37.109375 14.984375 27.296875 
Q 14.984375 17.484375 19.15625 11.84375 
Q 23.34375 6.203125 30.609375 6.203125 
Q 37.796875 6.203125 41.984375 11.859375 
Q 46.1875 17.53125 46.1875 27.296875 
Q 46.1875 37.015625 41.984375 42.703125 
Q 37.796875 48.390625 30.609375 48.390625 
z
M 30.609375 56 
Q 42.328125 56 49.015625 48.375 
Q 55.71875 40.765625 55.71875 27.296875 
Q 55.71875 13.875 49.015625 6.21875 
Q 42.328125 -1.421875 30.609375 -1.421875 
Q 18.84375 -1.421875 12.171875 6.21875 
Q 5.515625 13.875 5.515625 27.296875 
Q 5.515625 40.765625 12.171875 48.375 
Q 18.84375 56 30.609375 56 
z
" id="DejaVuSans-6f"/>
      <path d="M 45.40625 27.984375 
Q 45.40625 37.75 41.375 43.109375 
Q 37.359375 48.484375 30.078125 48.484375 
Q 22.859375 48.484375 18.828125 43.109375 
Q 14.796875 37.75 14.796875 27.984375 
Q 14.796875 18.265625 18.828125 12.890625 
Q 22.859375 7.515625 30.078125 7.515625 
Q 37.359375 7.515625 41.375 12.890625 
Q 45.40625 18.265625 45.40625 27.984375 
z
M 54.390625 6.78125 
Q 54.390625 -7.171875 48.1875 -13.984375 
Q 42 -20.796875 29.203125 -20.796875 
Q 24.46875 -20.796875 20.265625 -20.09375 
Q 16.0625 -19.390625 12.109375 -17.921875 
L 12.109375 -9.1875 
Q 16.0625 -11.328125 19.921875 -12.34375 
Q 23.78125 -13.375 27.78125 -13.375 
Q 36.625 -13.375 41.015625 -8.765625 
Q 45.40625 -4.15625 45.40625 5.171875 
L 45.40625 9.625 
Q 42.625 4.78125 38.28125 2.390625 
Q 33.9375 0 27.875 0 
Q 17.828125 0 11.671875 7.65625 
Q 5.515625 15.328125 5.515625 27.984375 
Q 5.515625 40.671875 11.671875 48.328125 
Q 17.828125 56 27.875 56 
Q 33.9375 56 38.28125 53.609375 
Q 42.625 51.21875 45.40625 46.390625 
L 45.40625 54.6875 
L 54.390625 54.6875 
z
" id="DejaVuSans-67"/>
      <path d="M 12.40625 8.296875 
L 28.515625 8.296875 
L 28.515625 63.921875 
L 10.984375 60.40625 
L 10.984375 69.390625 
L 28.421875 72.90625 
L 38.28125 72.90625 
L 38.28125 8.296875 
L 54.390625 8.296875 
L 54.390625 0 
L 12.40625 0 
z
" id="DejaVuSans-31"/>
      <path id="DejaVuSans-20"/>
      <path d="M 37.109375 75.984375 
L 37.109375 68.5 
L 28.515625 68.5 
Q 23.6875 68.5 21.796875 66.546875 
Q 19.921875 64.59375 19.921875 59.515625 
L 19.921875 54.6875 
L 34.71875 54.6875 
L 34.71875 47.703125 
L 19.921875 47.703125 
L 19.921875 0 
L 10.890625 0 
L 10.890625 47.703125 
L 2.296875 47.703125 
L 2.296875 54.6875 
L 10.890625 54.6875 
L 10.890625 58.5 
Q 10.890625 67.625 15.140625 71.796875 
Q 19.390625 75.984375 28.609375 75.984375 
z
" id="DejaVuSans-66"/>
      <path d="M 31 75.875 
Q 24.46875 64.65625 21.28125 53.65625 
Q 18.109375 42.671875 18.109375 31.390625 
Q 18.109375 20.125 21.3125 9.0625 
Q 24.515625 -2 31 -13.1875 
L 23.1875 -13.1875 
Q 15.875 -1.703125 12.234375 9.375 
Q 8.59375 20.453125 8.59375 31.390625 
Q 8.59375 42.28125 12.203125 53.3125 
Q 15.828125 64.359375 23.1875 75.875 
z
" id="DejaVuSans-28"/>
      <path d="M 51.125 44 
L 36.921875 44 
L 32.8125 27.6875 
L 47.125 27.6875 
z
M 43.796875 71.78125 
L 38.71875 51.515625 
L 52.984375 51.515625 
L 58.109375 71.78125 
L 65.921875 71.78125 
L 60.890625 51.515625 
L 76.125 51.515625 
L 76.125 44 
L 58.984375 44 
L 54.984375 27.6875 
L 70.515625 27.6875 
L 70.515625 20.21875 
L 53.078125 20.21875 
L 48 0 
L 40.1875 0 
L 45.21875 20.21875 
L 30.90625 20.21875 
L 25.875 0 
L 18.015625 0 
L 23.09375 20.21875 
L 7.71875 20.21875 
L 7.71875 27.6875 
L 24.90625 27.6875 
L 29 44 
L 13.28125 44 
L 13.28125 51.515625 
L 30.90625 51.515625 
L 35.890625 71.78125 
z
" id="DejaVuSans-23"/>
      <path d="M 4.890625 31.390625 
L 31.203125 31.390625 
L 31.203125 23.390625 
L 4.890625 23.390625 
z
" id="DejaVuSans-2d"/>
      <path d="M 56.203125 29.59375 
L 56.203125 25.203125 
L 14.890625 25.203125 
Q 15.484375 15.921875 20.484375 11.0625 
Q 25.484375 6.203125 34.421875 6.203125 
Q 39.59375 6.203125 44.453125 7.46875 
Q 49.3125 8.734375 54.109375 11.28125 
L 54.109375 2.78125 
Q 49.265625 0.734375 44.1875 -0.34375 
Q 39.109375 -1.421875 33.890625 -1.421875 
Q 20.796875 -1.421875 13.15625 6.1875 
Q 5.515625 13.8125 5.515625 26.8125 
Q 5.515625 40.234375 12.765625 48.109375 
Q 20.015625 56 32.328125 56 
Q 43.359375 56 49.78125 48.890625 
Q 56.203125 41.796875 56.203125 29.59375 
z
M 47.21875 32.234375 
Q 47.125 39.59375 43.09375 43.984375 
Q 39.0625 48.390625 32.421875 48.390625 
Q 24.90625 48.390625 20.390625 44.140625 
Q 15.875 39.890625 15.1875 32.171875 
z
" id="DejaVuSans-65"/>
      <path d="M 2.984375 54.6875 
L 12.5 54.6875 
L 29.59375 8.796875 
L 46.6875 54.6875 
L 56.203125 54.6875 
L 35.6875 0 
L 23.484375 0 
z
" id="DejaVuSans-76"/>
      <path d="M 34.28125 27.484375 
Q 23.390625 27.484375 19.1875 25 
Q 14.984375 22.515625 14.984375 16.5 
Q 14.984375 11.71875 18.140625 8.90625 
Q 21.296875 6.109375 26.703125 6.109375 
Q 34.1875 6.109375 38.703125 11.40625 
Q 43.21875 16.703125 43.21875 25.484375 
L 43.21875 27.484375 
z
M 52.203125 31.203125 
L 52.203125 0 
L 43.21875 0 
L 43.21875 8.296875 
Q 40.140625 3.328125 35.546875 0.953125 
Q 30.953125 -1.421875 24.3125 -1.421875 
Q 15.921875 -1.421875 10.953125 3.296875 
Q 6 8.015625 6 15.921875 
Q 6 25.140625 12.171875 29.828125 
Q 18.359375 34.515625 30.609375 34.515625 
L 43.21875 34.515625 
L 43.21875 35.40625 
Q 43.21875 41.609375 39.140625 45 
Q 35.0625 48.390625 27.6875 48.390625 
Q 23 48.390625 18.546875 47.265625 
Q 14.109375 46.140625 10.015625 43.890625 
L 10.015625 52.203125 
Q 14.9375 54.109375 19.578125 55.046875 
Q 24.21875 56 28.609375 56 
Q 40.484375 56 46.34375 49.84375 
Q 52.203125 43.703125 52.203125 31.203125 
z
" id="DejaVuSans-61"/>
      <path d="M 44.28125 53.078125 
L 44.28125 44.578125 
Q 40.484375 46.53125 36.375 47.5 
Q 32.28125 48.484375 27.875 48.484375 
Q 21.1875 48.484375 17.84375 46.4375 
Q 14.5 44.390625 14.5 40.28125 
Q 14.5 37.15625 16.890625 35.375 
Q 19.28125 33.59375 26.515625 31.984375 
L 29.59375 31.296875 
Q 39.15625 29.25 43.1875 25.515625 
Q 47.21875 21.78125 47.21875 15.09375 
Q 47.21875 7.46875 41.1875 3.015625 
Q 35.15625 -1.421875 24.609375 -1.421875 
Q 20.21875 -1.421875 15.453125 -0.5625 
Q 10.6875 0.296875 5.421875 2 
L 5.421875 11.28125 
Q 10.40625 8.6875 15.234375 7.390625 
Q 20.0625 6.109375 24.8125 6.109375 
Q 31.15625 6.109375 34.5625 8.28125 
Q 37.984375 10.453125 37.984375 14.40625 
Q 37.984375 18.0625 35.515625 20.015625 
Q 33.0625 21.96875 24.703125 23.78125 
L 21.578125 24.515625 
Q 13.234375 26.265625 9.515625 29.90625 
Q 5.8125 33.546875 5.8125 39.890625 
Q 5.8125 47.609375 11.28125 51.796875 
Q 16.75 56 26.8125 56 
Q 31.78125 56 36.171875 55.265625 
Q 40.578125 54.546875 44.28125 53.078125 
z
" id="DejaVuSans-73"/>
      <path d="M 25.390625 72.90625 
L 33.6875 72.90625 
L 8.296875 -9.28125 
L 0 -9.28125 
z
" id="DejaVuSans-2f"/>
      <path d="M 45.40625 46.390625 
L 45.40625 75.984375 
L 54.390625 75.984375 
L 54.390625 0 
L 45.40625 0 
L 45.40625 8.203125 
Q 42.578125 3.328125 38.25 0.953125 
Q 33.9375 -1.421875 27.875 -1.421875 
Q 17.96875 -1.421875 11.734375 6.484375 
Q 5.515625 14.40625 5.515625 27.296875 
Q 5.515625 40.1875 11.734375 48.09375 
Q 17.96875 56 27.875 56 
Q 33.9375 56 38.25 53.625 
Q 42.578125 51.265625 45.40625 46.390625 
z
M 14.796875 27.296875 
Q 14.796875 17.390625 18.875 11.75 
Q 22.953125 6.109375 30.078125 6.109375 
Q 37.203125 6.109375 41.296875 11.75 
Q 45.40625 17.390625 45.40625 27.296875 
Q 45.40625 37.203125 41.296875 42.84375 
Q 37.203125 48.484375 30.078125 48.484375 
Q 22.953125 48.484375 18.875 42.84375 
Q 14.796875 37.203125 14.796875 27.296875 
z
" id="DejaVuSans-64"/>
      <path d="M 9.421875 54.6875 
L 18.40625 54.6875 
L 18.40625 0 
L 9.421875 0 
z
M 9.421875 75.984375 
L 18.40625 75.984375 
L 18.40625 64.59375 
L 9.421875 64.59375 
z
" id="DejaVuSans-69"/>
      <path d="M 52 44.1875 
Q 55.375 50.25 60.0625 53.125 
Q 64.75 56 71.09375 56 
Q 79.640625 56 84.28125 50.015625 
Q 88.921875 44.046875 88.921875 33.015625 
L 88.921875 0 
L 79.890625 0 
L 79.890625 32.71875 
Q 79.890625 40.578125 77.09375 44.375 
Q 74.3125 48.1875 68.609375 48.1875 
Q 61.625 48.1875 57.5625 43.546875 
Q 53.515625 38.921875 53.515625 30.90625 
L 53.515625 0 
L 44.484375 0 
L 44.484375 32.71875 
Q 44.484375 40.625 41.703125 44.40625 
Q 38.921875 48.1875 33.109375 48.1875 
Q 26.21875 48.1875 22.15625 43.53125 
Q 18.109375 38.875 18.109375 30.90625 
L 18.109375 0 
L 9.078125 0 
L 9.078125 54.6875 
L 18.109375 54.6875 
L 18.109375 46.1875 
Q 21.1875 51.21875 25.484375 53.609375 
Q 29.78125 56 35.6875 56 
Q 41.65625 56 45.828125 52.96875 
Q 50 49.953125 52 44.1875 
z
" id="DejaVuSans-6d"/>
      <path d="M 54.890625 33.015625 
L 54.890625 0 
L 45.90625 0 
L 45.90625 32.71875 
Q 45.90625 40.484375 42.875 44.328125 
Q 39.84375 48.1875 33.796875 48.1875 
Q 26.515625 48.1875 22.3125 43.546875 
Q 18.109375 38.921875 18.109375 30.90625 
L 18.109375 0 
L 9.078125 0 
L 9.078125 54.6875 
L 18.109375 54.6875 
L 18.109375 46.1875 
Q 21.34375 51.125 25.703125 53.5625 
Q 30.078125 56 35.796875 56 
Q 45.21875 56 50.046875 50.171875 
Q 54.890625 44.34375 54.890625 33.015625 
z
" id="DejaVuSans-6e"/>
      <path d="M 8.015625 75.875 
L 15.828125 75.875 
Q 23.140625 64.359375 26.78125 53.3125 
Q 30.421875 42.28125 30.421875 31.390625 
Q 30.421875 20.453125 26.78125 9.375 
Q 23.140625 -1.703125 15.828125 -13.1875 
L 8.015625 -13.1875 
Q 14.5 -2 17.703125 9.0625 
Q 20.90625 20.125 20.90625 31.390625 
Q 20.90625 42.671875 17.703125 53.65625 
Q 14.5 64.65625 8.015625 75.875 
z
" id="DejaVuSans-29"/>
     </defs>
     <g transform="translate(107.015156 342.278812)scale(0.18 -0.18)">
      <use xlink:href="#DejaVuSans-6c"/>
      <use x="27.783203" xlink:href="#DejaVuSans-6f"/>
      <use x="88.964844" xlink:href="#DejaVuSans-67"/>
      <use x="152.441406" xlink:href="#DejaVuSans-31"/>
      <use x="216.064453" xlink:href="#DejaVuSans-30"/>
      <use x="279.6875" xlink:href="#DejaVuSans-20"/>
      <use x="311.474609" xlink:href="#DejaVuSans-6f"/>
      <use x="372.65625" xlink:href="#DejaVuSans-66"/>
      <use x="407.861328" xlink:href="#DejaVuSans-20"/>
      <use x="439.648438" xlink:href="#DejaVuSans-28"/>
      <use x="478.662109" xlink:href="#DejaVuSans-23"/>
      <use x="562.451172" xlink:href="#DejaVuSans-20"/>
      <use x="594.238281" xlink:href="#DejaVuSans-66"/>
      <use x="629.365234" xlink:href="#DejaVuSans-2d"/>
      <use x="665.449219" xlink:href="#DejaVuSans-65"/>
      <use x="726.972656" xlink:href="#DejaVuSans-76"/>
      <use x="786.152344" xlink:href="#DejaVuSans-61"/>
      <use x="847.431641" xlink:href="#DejaVuSans-6c"/>
      <use x="875.214844" xlink:href="#DejaVuSans-73"/>
      <use x="927.314453" xlink:href="#DejaVuSans-20"/>
      <use x="959.101562" xlink:href="#DejaVuSans-2f"/>
      <use x="992.792969" xlink:href="#DejaVuSans-20"/>
      <use x="1024.580078" xlink:href="#DejaVuSans-64"/>
      <use x="1088.056641" xlink:href="#DejaVuSans-69"/>
      <use x="1115.839844" xlink:href="#DejaVuSans-6d"/>
      <use x="1213.251953" xlink:href="#DejaVuSans-65"/>
      <use x="1274.775391" xlink:href="#DejaVuSans-6e"/>
      <use x="1338.154297" xlink:href="#DejaVuSans-73"/>
      <use x="1390.253906" xlink:href="#DejaVuSans-69"/>
      <use x="1418.037109" xlink:href="#DejaVuSans-6f"/>
      <use x="1479.21875" xlink:href="#DejaVuSans-6e"/>
      <use x="1542.597656" xlink:href="#DejaVuSans-29"/>
     </g>
    </g>
   </g>
   <g id="matplotlib.axis_2">
    <g id="ytick_1">
     <g id="line2d_11">
      <path clip-path="url(#p8f4818f221)" d="M 70.8 298.245375 
L 427.92 298.245375 
" style="fill:none;stroke:#b0b0b0;stroke-linecap:square;stroke-width:0.8;"/>
     </g>
     <g id="line2d_12">
      <defs>
       <path d="M 0 0 
L -3.5 0 
" id="mb951aa2ddc" style="stroke:#000000;stroke-width:0.8;"/>
      </defs>
      <g>
       <use style="stroke:#000000;stroke-width:0.8;" x="70.8" xlink:href="#mb951aa2ddc" y="298.245375"/>
      </g>
     </g>
     <g id="text_7">
      <!-- 0.0 -->
      <defs>
       <path d="M 10.6875 12.40625 
L 21 12.40625 
L 21 0 
L 10.6875 0 
z
" id="DejaVuSans-2e"/>
      </defs>
      <g transform="translate(31.99375 305.843812)scale(0.2 -0.2)">
       <use xlink:href="#DejaVuSans-30"/>
       <use x="63.623047" xlink:href="#DejaVuSans-2e"/>
       <use x="95.410156" xlink:href="#DejaVuSans-30"/>
      </g>
     </g>
    </g>
    <g id="ytick_2">
     <g id="line2d_13">
      <path clip-path="url(#p8f4818f221)" d="M 70.8 245.549929 
L 427.92 245.549929 
" style="fill:none;stroke:#b0b0b0;stroke-linecap:square;stroke-width:0.8;"/>
     </g>
     <g id="line2d_14">
      <g>
       <use style="stroke:#000000;stroke-width:0.8;" x="70.8" xlink:href="#mb951aa2ddc" y="245.549929"/>
      </g>
     </g>
     <g id="text_8">
      <!-- 0.2 -->
      <g transform="translate(31.99375 253.148367)scale(0.2 -0.2)">
       <use xlink:href="#DejaVuSans-30"/>
       <use x="63.623047" xlink:href="#DejaVuSans-2e"/>
       <use x="95.410156" xlink:href="#DejaVuSans-32"/>
      </g>
     </g>
    </g>
    <g id="ytick_3">
     <g id="line2d_15">
      <path clip-path="url(#p8f4818f221)" d="M 70.8 192.854484 
L 427.92 192.854484 
" style="fill:none;stroke:#b0b0b0;stroke-linecap:square;stroke-width:0.8;"/>
     </g>
     <g id="line2d_16">
      <g>
       <use style="stroke:#000000;stroke-width:0.8;" x="70.8" xlink:href="#mb951aa2ddc" y="192.854484"/>
      </g>
     </g>
     <g id="text_9">
      <!-- 0.4 -->
      <g transform="translate(31.99375 200.452921)scale(0.2 -0.2)">
       <use xlink:href="#DejaVuSans-30"/>
       <use x="63.623047" xlink:href="#DejaVuSans-2e"/>
       <use x="95.410156" xlink:href="#DejaVuSans-34"/>
      </g>
     </g>
    </g>
    <g id="ytick_4">
     <g id="line2d_17">
      <path clip-path="url(#p8f4818f221)" d="M 70.8 140.159038 
L 427.92 140.159038 
" style="fill:none;stroke:#b0b0b0;stroke-linecap:square;stroke-width:0.8;"/>
     </g>
     <g id="line2d_18">
      <g>
       <use style="stroke:#000000;stroke-width:0.8;" x="70.8" xlink:href="#mb951aa2ddc" y="140.159038"/>
      </g>
     </g>
     <g id="text_10">
      <!-- 0.6 -->
      <g transform="translate(31.99375 147.757476)scale(0.2 -0.2)">
       <use xlink:href="#DejaVuSans-30"/>
       <use x="63.623047" xlink:href="#DejaVuSans-2e"/>
       <use x="95.410156" xlink:href="#DejaVuSans-36"/>
      </g>
     </g>
    </g>
    <g id="ytick_5">
     <g id="line2d_19">
      <path clip-path="url(#p8f4818f221)" d="M 70.8 87.463593 
L 427.92 87.463593 
" style="fill:none;stroke:#b0b0b0;stroke-linecap:square;stroke-width:0.8;"/>
     </g>
     <g id="line2d_20">
      <g>
       <use style="stroke:#000000;stroke-width:0.8;" x="70.8" xlink:href="#mb951aa2ddc" y="87.463593"/>
      </g>
     </g>
     <g id="text_11">
      <!-- 0.8 -->
      <g transform="translate(31.99375 95.06203)scale(0.2 -0.2)">
       <use xlink:href="#DejaVuSans-30"/>
       <use x="63.623047" xlink:href="#DejaVuSans-2e"/>
       <use x="95.410156" xlink:href="#DejaVuSans-38"/>
      </g>
     </g>
    </g>
    <g id="ytick_6">
     <g id="line2d_21">
      <path clip-path="url(#p8f4818f221)" d="M 70.8 34.768147 
L 427.92 34.768147 
" style="fill:none;stroke:#b0b0b0;stroke-linecap:square;stroke-width:0.8;"/>
     </g>
     <g id="line2d_22">
      <g>
       <use style="stroke:#000000;stroke-width:0.8;" x="70.8" xlink:href="#mb951aa2ddc" y="34.768147"/>
      </g>
     </g>
     <g id="text_12">
      <!-- 1.0 -->
      <g transform="translate(31.99375 42.366585)scale(0.2 -0.2)">
       <use xlink:href="#DejaVuSans-31"/>
       <use x="63.623047" xlink:href="#DejaVuSans-2e"/>
       <use x="95.410156" xlink:href="#DejaVuSans-30"/>
      </g>
     </g>
    </g>
    <g id="text_13">
     <!-- Proportion of function+target pairs -->
     <defs>
      <path d="M 19.671875 64.796875 
L 19.671875 37.40625 
L 32.078125 37.40625 
Q 38.96875 37.40625 42.71875 40.96875 
Q 46.484375 44.53125 46.484375 51.125 
Q 46.484375 57.671875 42.71875 61.234375 
Q 38.96875 64.796875 32.078125 64.796875 
z
M 9.8125 72.90625 
L 32.078125 72.90625 
Q 44.34375 72.90625 50.609375 67.359375 
Q 56.890625 61.8125 56.890625 51.125 
Q 56.890625 40.328125 50.609375 34.8125 
Q 44.34375 29.296875 32.078125 29.296875 
L 19.671875 29.296875 
L 19.671875 0 
L 9.8125 0 
z
" id="DejaVuSans-50"/>
      <path d="M 41.109375 46.296875 
Q 39.59375 47.171875 37.8125 47.578125 
Q 36.03125 48 33.890625 48 
Q 26.265625 48 22.1875 43.046875 
Q 18.109375 38.09375 18.109375 28.8125 
L 18.109375 0 
L 9.078125 0 
L 9.078125 54.6875 
L 18.109375 54.6875 
L 18.109375 46.1875 
Q 20.953125 51.171875 25.484375 53.578125 
Q 30.03125 56 36.53125 56 
Q 37.453125 56 38.578125 55.875 
Q 39.703125 55.765625 41.0625 55.515625 
z
" id="DejaVuSans-72"/>
      <path d="M 18.109375 8.203125 
L 18.109375 -20.796875 
L 9.078125 -20.796875 
L 9.078125 54.6875 
L 18.109375 54.6875 
L 18.109375 46.390625 
Q 20.953125 51.265625 25.265625 53.625 
Q 29.59375 56 35.59375 56 
Q 45.5625 56 51.78125 48.09375 
Q 58.015625 40.1875 58.015625 27.296875 
Q 58.015625 14.40625 51.78125 6.484375 
Q 45.5625 -1.421875 35.59375 -1.421875 
Q 29.59375 -1.421875 25.265625 0.953125 
Q 20.953125 3.328125 18.109375 8.203125 
z
M 48.6875 27.296875 
Q 48.6875 37.203125 44.609375 42.84375 
Q 40.53125 48.484375 33.40625 48.484375 
Q 26.265625 48.484375 22.1875 42.84375 
Q 18.109375 37.203125 18.109375 27.296875 
Q 18.109375 17.390625 22.1875 11.75 
Q 26.265625 6.109375 33.40625 6.109375 
Q 40.53125 6.109375 44.609375 11.75 
Q 48.6875 17.390625 48.6875 27.296875 
z
" id="DejaVuSans-70"/>
      <path d="M 18.3125 70.21875 
L 18.3125 54.6875 
L 36.8125 54.6875 
L 36.8125 47.703125 
L 18.3125 47.703125 
L 18.3125 18.015625 
Q 18.3125 11.328125 20.140625 9.421875 
Q 21.96875 7.515625 27.59375 7.515625 
L 36.8125 7.515625 
L 36.8125 0 
L 27.59375 0 
Q 17.1875 0 13.234375 3.875 
Q 9.28125 7.765625 9.28125 18.015625 
L 9.28125 47.703125 
L 2.6875 47.703125 
L 2.6875 54.6875 
L 9.28125 54.6875 
L 9.28125 70.21875 
z
" id="DejaVuSans-74"/>
      <path d="M 8.5 21.578125 
L 8.5 54.6875 
L 17.484375 54.6875 
L 17.484375 21.921875 
Q 17.484375 14.15625 20.5 10.265625 
Q 23.53125 6.390625 29.59375 6.390625 
Q 36.859375 6.390625 41.078125 11.03125 
Q 45.3125 15.671875 45.3125 23.6875 
L 45.3125 54.6875 
L 54.296875 54.6875 
L 54.296875 0 
L 45.3125 0 
L 45.3125 8.40625 
Q 42.046875 3.421875 37.71875 1 
Q 33.40625 -1.421875 27.6875 -1.421875 
Q 18.265625 -1.421875 13.375 4.4375 
Q 8.5 10.296875 8.5 21.578125 
z
M 31.109375 56 
z
" id="DejaVuSans-75"/>
      <path d="M 48.78125 52.59375 
L 48.78125 44.1875 
Q 44.96875 46.296875 41.140625 47.34375 
Q 37.3125 48.390625 33.40625 48.390625 
Q 24.65625 48.390625 19.8125 42.84375 
Q 14.984375 37.3125 14.984375 27.296875 
Q 14.984375 17.28125 19.8125 11.734375 
Q 24.65625 6.203125 33.40625 6.203125 
Q 37.3125 6.203125 41.140625 7.25 
Q 44.96875 8.296875 48.78125 10.40625 
L 48.78125 2.09375 
Q 45.015625 0.34375 40.984375 -0.53125 
Q 36.96875 -1.421875 32.421875 -1.421875 
Q 20.0625 -1.421875 12.78125 6.34375 
Q 5.515625 14.109375 5.515625 27.296875 
Q 5.515625 40.671875 12.859375 48.328125 
Q 20.21875 56 33.015625 56 
Q 37.15625 56 41.109375 55.140625 
Q 45.0625 54.296875 48.78125 52.59375 
z
" id="DejaVuSans-63"/>
      <path d="M 46 62.703125 
L 46 35.5 
L 73.1875 35.5 
L 73.1875 27.203125 
L 46 27.203125 
L 46 0 
L 37.796875 0 
L 37.796875 27.203125 
L 10.59375 27.203125 
L 10.59375 35.5 
L 37.796875 35.5 
L 37.796875 62.703125 
z
" id="DejaVuSans-2b"/>
     </defs>
     <g transform="translate(24.250312 323.17875)rotate(-90)scale(0.18 -0.18)">
      <use xlink:href="#DejaVuSans-50"/>
      <use x="60.287109" xlink:href="#DejaVuSans-72"/>
      <use x="101.369141" xlink:href="#DejaVuSans-6f"/>
      <use x="162.550781" xlink:href="#DejaVuSans-70"/>
      <use x="226.027344" xlink:href="#DejaVuSans-6f"/>
      <use x="287.208984" xlink:href="#DejaVuSans-72"/>
      <use x="328.322266" xlink:href="#DejaVuSans-74"/>
      <use x="367.53125" xlink:href="#DejaVuSans-69"/>
      <use x="395.314453" xlink:href="#DejaVuSans-6f"/>
      <use x="456.496094" xlink:href="#DejaVuSans-6e"/>
      <use x="519.875" xlink:href="#DejaVuSans-20"/>
      <use x="551.662109" xlink:href="#DejaVuSans-6f"/>
      <use x="612.84375" xlink:href="#DejaVuSans-66"/>
      <use x="648.048828" xlink:href="#DejaVuSans-20"/>
      <use x="679.835938" xlink:href="#DejaVuSans-66"/>
      <use x="715.041016" xlink:href="#DejaVuSans-75"/>
      <use x="778.419922" xlink:href="#DejaVuSans-6e"/>
      <use x="841.798828" xlink:href="#DejaVuSans-63"/>
      <use x="896.779297" xlink:href="#DejaVuSans-74"/>
      <use x="935.988281" xlink:href="#DejaVuSans-69"/>
      <use x="963.771484" xlink:href="#DejaVuSans-6f"/>
      <use x="1024.953125" xlink:href="#DejaVuSans-6e"/>
      <use x="1088.332031" xlink:href="#DejaVuSans-2b"/>
      <use x="1172.121094" xlink:href="#DejaVuSans-74"/>
      <use x="1211.330078" xlink:href="#DejaVuSans-61"/>
      <use x="1272.609375" xlink:href="#DejaVuSans-72"/>
      <use x="1313.707031" xlink:href="#DejaVuSans-67"/>
      <use x="1377.183594" xlink:href="#DejaVuSans-65"/>
      <use x="1438.707031" xlink:href="#DejaVuSans-74"/>
      <use x="1477.916016" xlink:href="#DejaVuSans-20"/>
      <use x="1509.703125" xlink:href="#DejaVuSans-70"/>
      <use x="1573.179688" xlink:href="#DejaVuSans-61"/>
      <use x="1634.458984" xlink:href="#DejaVuSans-69"/>
      <use x="1662.242188" xlink:href="#DejaVuSans-72"/>
      <use x="1703.355469" xlink:href="#DejaVuSans-73"/>
     </g>
    </g>
   </g>
   <g id="line2d_23">
    <defs>
     <path d="M 0 1.5 
C 0.397805 1.5 0.77937 1.341951 1.06066 1.06066 
C 1.341951 0.77937 1.5 0.397805 1.5 0 
C 1.5 -0.397805 1.341951 -0.77937 1.06066 -1.06066 
C 0.77937 -1.341951 0.397805 -1.5 0 -1.5 
C -0.397805 -1.5 -0.77937 -1.341951 -1.06066 -1.06066 
C -1.341951 -0.77937 -1.5 -0.397805 -1.5 0 
C -1.5 0.397805 -1.341951 0.77937 -1.06066 1.06066 
C -0.77937 1.341951 -0.397805 1.5 0 1.5 
z
" id="m6657e54e9c" style="stroke:#000080;"/>
    </defs>
    <g>
     <use style="fill:#000080;stroke:#000080;" x="285.288894" xlink:href="#m6657e54e9c" y="210.419632"/>
     <use style="fill:#000080;stroke:#000080;" x="285.288894" xlink:href="#m6657e54e9c" y="210.419632"/>
    </g>
   </g>
   <g id="line2d_24">
    <path d="M 147.166263 298.245375 
L 147.166263 297.212131 
L 150.097524 297.212131 
L 150.097524 295.662265 
L 151.556956 295.662265 
L 151.556956 295.145643 
L 151.711995 295.145643 
L 151.750545 293.595777 
L 151.827398 293.595777 
L 151.827398 292.562533 
L 151.980117 292.562533 
L 151.980117 291.529289 
L 152.319038 291.529289 
L 152.319038 289.979423 
L 152.430598 289.979423 
L 152.504586 288.946179 
L 152.65165 288.946179 
L 152.761158 287.396313 
L 153.263508 287.396313 
L 153.263508 286.879691 
L 153.43955 286.879691 
L 153.43955 286.363069 
L 153.648536 286.363069 
L 153.648536 285.846447 
L 153.957503 285.846447 
L 154.059315 284.296581 
L 154.12687 284.296581 
L 154.227725 283.263337 
L 154.261217 283.263337 
L 154.294647 280.680226 
L 154.526919 280.680226 
L 154.559856 278.613738 
L 154.690998 278.613738 
L 154.756211 276.030628 
L 154.950431 276.030628 
L 154.950431 275.514006 
L 155.174385 275.514006 
L 155.174385 274.997384 
L 155.458263 274.997384 
L 155.458263 274.480762 
L 155.645039 274.480762 
L 155.645039 272.930896 
L 155.768481 272.930896 
L 155.768481 272.414274 
L 155.891075 272.414274 
L 155.982473 269.831164 
L 156.193932 269.831164 
L 156.193932 269.314542 
L 156.668072 269.314542 
L 156.668072 267.764676 
L 157.072869 267.764676 
L 157.101435 265.698188 
L 157.243585 265.698188 
L 157.243585 264.664944 
L 157.384613 264.664944 
L 157.384613 264.148322 
L 157.607967 264.148322 
L 157.607967 263.115078 
L 158.866617 263.115078 
L 158.866617 262.598456 
L 159.225015 262.598456 
L 159.225015 261.565212 
L 159.476683 261.565212 
L 159.476683 261.04859 
L 160.2829 261.04859 
L 160.2829 260.015346 
L 161.439067 260.015346 
L 161.439067 258.982102 
L 210.598101 258.982102 
L 210.67229 253.29926 
L 210.717792 253.29926 
L 210.809863 247.099796 
L 210.850789 247.099796 
L 210.893027 246.066551 
L 211.260479 246.066551 
L 211.260479 245.549929 
L 222.611348 245.549929 
L 222.690728 241.933575 
L 222.725573 241.933575 
L 222.765416 237.800599 
L 229.757439 237.800599 
L 229.855515 232.117757 
L 229.977721 232.117757 
L 229.977721 231.601135 
L 234.837861 231.601135 
L 234.907681 229.018025 
L 238.815808 229.018025 
L 238.842901 227.984781 
L 242.033721 227.984781 
L 242.065445 225.918293 
L 244.752202 225.918293 
L 244.752202 225.401671 
L 247.126181 225.401671 
L 247.126181 224.885049 
L 249.219942 224.885049 
L 249.24725 223.335183 
L 251.118481 223.335183 
L 251.159588 222.301939 
L 252.789827 222.301939 
L 252.849586 219.202207 
L 254.338657 219.202207 
L 254.338657 218.685585 
L 255.763877 218.685585 
L 255.782815 217.135719 
L 260.555368 217.135719 
L 260.555368 216.619097 
L 261.561908 216.619097 
L 261.561908 215.585853 
L 263.440169 215.585853 
L 263.440169 215.069231 
L 266.695312 215.069231 
L 266.718884 214.035987 
L 267.445899 214.035987 
L 267.445899 213.519365 
L 268.800065 213.519365 
L 268.800065 213.002743 
L 270.680287 213.002743 
L 270.694052 211.969498 
L 273.441582 211.969498 
L 273.441582 211.452876 
L 277.922955 211.452876 
L 277.922955 210.936254 
L 285.288894 210.936254 
L 285.288894 210.419632 
L 358.8 210.419632 
L 358.8 210.419632 
" style="fill:none;stroke:#000080;stroke-linecap:square;stroke-width:1.5;"/>
   </g>
   <g id="line2d_25">
    <defs>
     <path d="M 0 6 
C 1.591219 6 3.117479 5.367802 4.242641 4.242641 
C 5.367802 3.117479 6 1.591219 6 0 
C 6 -1.591219 5.367802 -3.117479 4.242641 -4.242641 
C 3.117479 -5.367802 1.591219 -6 0 -6 
C -1.591219 -6 -3.117479 -5.367802 -4.242641 -4.242641 
C -5.367802 -3.117479 -6 -1.591219 -6 0 
C -6 1.591219 -5.367802 3.117479 -4.242641 4.242641 
C -3.117479 5.367802 -1.591219 6 0 6 
z
" id="m50d3d429ab" style="stroke:#000080;stroke-width:1.5;"/>
    </defs>
    <g>
     <use style="fill:none;stroke:#000080;stroke-width:1.5;" x="155.645039" xlink:href="#m50d3d429ab" y="272.930896"/>
     <use style="fill:none;stroke:#000080;stroke-width:1.5;" x="222.725573" xlink:href="#m50d3d429ab" y="240.900331"/>
     <use style="fill:none;stroke:#000080;stroke-width:1.5;" x="254.338657" xlink:href="#m50d3d429ab" y="218.685585"/>
     <use style="fill:none;stroke:#000080;stroke-width:1.5;" x="285.288894" xlink:href="#m50d3d429ab" y="210.419632"/>
     <use style="fill:none;stroke:#000080;stroke-width:1.5;" x="358.8" xlink:href="#m50d3d429ab" y="210.419632"/>
    </g>
   </g>
   <g id="line2d_26"/>
   <g id="line2d_27">
    <path clip-path="url(#p8f4818f221)" d="M 209.873037 258.982102 
" style="fill:none;stroke:#000080;stroke-linecap:square;stroke-width:1.5;"/>
    <defs>
     <path d="M -12 12 
L 12 -12 
M -12 -12 
L 12 12 
" id="m813699a35f" style="stroke:#000080;stroke-width:3;"/>
    </defs>
    <g clip-path="url(#p8f4818f221)">
     <use style="fill:#000080;stroke:#000080;stroke-width:3;" x="209.873037" xlink:href="#m813699a35f" y="258.982102"/>
    </g>
   </g>
   <g id="line2d_28">
    <defs>
     <path d="M 0 1.5 
C 0.397805 1.5 0.77937 1.341951 1.06066 1.06066 
C 1.341951 0.77937 1.5 0.397805 1.5 0 
C 1.5 -0.397805 1.341951 -0.77937 1.06066 -1.06066 
C 0.77937 -1.341951 0.397805 -1.5 0 -1.5 
C -0.397805 -1.5 -0.77937 -1.341951 -1.06066 -1.06066 
C -1.341951 -0.77937 -1.5 -0.397805 -1.5 0 
C -1.5 0.397805 -1.341951 0.77937 -1.06066 1.06066 
C -0.77937 1.341951 -0.397805 1.5 0 1.5 
z
" id="m1748aaee41" style="stroke:#ff00ff;"/>
    </defs>
    <g>
     <use style="fill:#ff00ff;stroke:#ff00ff;" x="281.499364" xlink:href="#m1748aaee41" y="205.253412"/>
     <use style="fill:#ff00ff;stroke:#ff00ff;" x="281.499364" xlink:href="#m1748aaee41" y="205.253412"/>
    </g>
   </g>
   <g id="line2d_29">
    <path d="M 130.340216 298.245375 
L 130.340216 297.728753 
L 130.467392 297.728753 
L 130.467392 297.212131 
L 130.967232 297.212131 
L 130.967232 296.695509 
L 132.273789 296.695509 
L 132.273789 295.145643 
L 132.726171 295.145643 
L 132.726171 294.629021 
L 132.948138 294.629021 
L 132.948138 294.112399 
L 133.167381 294.112399 
L 133.167381 293.595777 
L 133.597959 293.595777 
L 133.597959 293.079155 
L 134.53042 293.079155 
L 134.53042 292.562533 
L 135.607728 292.562533 
L 135.607728 292.045911 
L 136.169077 292.045911 
L 136.169077 291.529289 
L 137.067161 291.529289 
L 137.067161 291.012667 
L 137.328014 291.012667 
L 137.328014 290.496045 
L 137.922258 290.496045 
L 137.922258 288.946179 
L 138.334935 288.946179 
L 138.334935 288.429557 
L 139.365311 288.429557 
L 139.365311 287.396313 
L 139.971068 287.396313 
L 139.971068 286.879691 
L 140.193035 286.879691 
L 140.193035 286.363069 
L 140.842856 286.363069 
L 140.842856 284.813203 
L 141.193911 284.813203 
L 141.193911 284.296581 
L 141.469872 284.296581 
L 141.469872 283.263337 
L 141.94278 283.263337 
L 142.009328 281.713471 
L 142.273069 281.713471 
L 142.273069 281.196849 
L 143.104294 281.196849 
L 143.104294 280.163604 
L 143.228811 280.163604 
L 143.290745 279.13036 
L 143.597239 279.13036 
L 143.597239 278.613738 
L 144.428464 278.613738 
L 144.428464 277.580494 
L 144.601662 277.580494 
L 144.601662 277.063872 
L 145.055479 277.063872 
L 145.111405 275.514006 
L 145.876517 275.514006 
L 145.876517 274.997384 
L 146.247129 274.997384 
L 146.247129 273.96414 
L 146.763584 273.96414 
L 146.763584 272.930896 
L 147.116421 272.930896 
L 147.116421 272.414274 
L 147.897666 272.414274 
L 147.897666 271.897652 
L 148.040421 271.897652 
L 148.040421 271.38103 
L 148.554311 271.38103 
L 148.554311 270.347786 
L 148.691935 270.347786 
L 148.691935 269.831164 
L 149.276353 269.831164 
L 149.276353 269.314542 
L 149.53977 269.314542 
L 149.53977 268.281298 
L 150.097524 268.281298 
L 150.097524 267.764676 
L 151.043583 267.764676 
L 151.043583 266.731432 
L 152.281696 266.731432 
L 152.319038 265.698188 
L 153.085714 265.698188 
L 153.085714 265.181566 
L 153.544349 265.181566 
L 153.544349 264.664944 
L 153.889304 264.664944 
L 153.889304 264.148322 
L 154.025442 264.148322 
L 154.025442 263.6317 
L 154.493922 263.6317 
L 154.559856 262.598456 
L 154.756211 262.598456 
L 154.756211 261.565212 
L 155.269513 261.565212 
L 155.30111 260.531968 
L 156.784667 260.531968 
L 156.784667 260.015346 
L 158.154435 260.015346 
L 158.154435 259.498724 
L 159.426632 259.498724 
L 159.426632 258.982102 
L 159.969627 258.982102 
L 159.969627 257.432236 
L 160.114898 257.432236 
L 160.211092 255.365748 
L 161.483794 255.365748 
L 161.483794 254.849126 
L 162.440466 254.849126 
L 162.440466 254.332504 
L 164.62951 254.332504 
L 164.62951 253.815882 
L 166.696572 253.815882 
L 166.696572 253.29926 
L 210.27786 253.29926 
L 210.325828 251.749394 
L 210.450234 251.749394 
L 210.549426 248.649662 
L 210.570917 248.649662 
L 210.67229 242.966819 
L 210.690789 242.966819 
L 210.798557 240.383709 
L 210.835276 240.383709 
L 210.943581 237.283977 
L 211.026126 237.283977 
L 211.026126 236.767355 
L 211.239802 236.767355 
L 211.239802 236.250733 
L 211.400449 236.250733 
L 211.400449 235.734111 
L 222.461829 235.734111 
L 222.544805 234.184245 
L 222.626669 234.184245 
L 222.671825 232.634379 
L 222.748765 232.634379 
L 222.857079 230.567891 
L 222.875786 230.567891 
L 222.954719 229.018025 
L 229.762821 229.018025 
L 229.864272 226.434915 
L 229.904595 226.434915 
L 229.904595 225.918293 
L 234.800265 225.918293 
L 234.906948 222.301939 
L 234.918681 222.301939 
L 234.995122 220.235451 
L 235.037773 220.235451 
L 235.037773 219.718829 
L 238.772434 219.718829 
L 238.851138 218.168963 
L 238.912505 218.168963 
L 238.912505 217.652341 
L 242.028305 217.652341 
L 242.103488 216.619097 
L 244.757908 216.619097 
L 244.827302 213.519365 
L 247.177011 213.519365 
L 247.180333 212.48612 
L 251.125882 212.48612 
L 251.131652 211.452876 
L 252.829285 211.452876 
L 252.863286 209.386388 
L 255.795239 209.386388 
L 255.795239 208.869766 
L 259.513359 208.869766 
L 259.513359 208.353144 
L 260.580579 208.353144 
L 260.580579 207.3199 
L 261.588211 207.3199 
L 261.588211 206.803278 
L 265.163059 206.803278 
L 265.163059 206.286656 
L 276.691938 206.286656 
L 276.691938 205.770034 
L 281.499364 205.770034 
L 281.499364 205.253412 
L 358.8 205.253412 
L 358.8 205.253412 
" style="fill:none;stroke:#ff00ff;stroke-linecap:square;stroke-width:1.5;"/>
   </g>
   <g id="line2d_30">
    <defs>
     <path d="M -0 8.485281 
L 5.091169 0 
L 0 -8.485281 
L -5.091169 -0 
z
" id="macfb375624" style="stroke:#ff00ff;stroke-linejoin:miter;stroke-width:1.5;"/>
    </defs>
    <g>
     <use style="fill:none;stroke:#ff00ff;stroke-linejoin:miter;stroke-width:1.5;" x="166.696572" xlink:href="#macfb375624" y="253.29926"/>
     <use style="fill:none;stroke:#ff00ff;stroke-linejoin:miter;stroke-width:1.5;" x="247.180333" xlink:href="#macfb375624" y="212.48612"/>
     <use style="fill:none;stroke:#ff00ff;stroke-linejoin:miter;stroke-width:1.5;" x="281.499364" xlink:href="#macfb375624" y="205.253412"/>
     <use style="fill:none;stroke:#ff00ff;stroke-linejoin:miter;stroke-width:1.5;" x="281.499364" xlink:href="#macfb375624" y="205.253412"/>
     <use style="fill:none;stroke:#ff00ff;stroke-linejoin:miter;stroke-width:1.5;" x="358.8" xlink:href="#macfb375624" y="205.253412"/>
    </g>
   </g>
   <g id="line2d_31"/>
   <g id="line2d_32">
    <path clip-path="url(#p8f4818f221)" d="M 209.873037 253.29926 
" style="fill:none;stroke:#ff00ff;stroke-linecap:square;stroke-width:1.5;"/>
    <defs>
     <path d="M -12 12 
L 12 -12 
M -12 -12 
L 12 12 
" id="m5735b86086" style="stroke:#ff00ff;stroke-width:3;"/>
    </defs>
    <g clip-path="url(#p8f4818f221)">
     <use style="fill:#ff00ff;stroke:#ff00ff;stroke-width:3;" x="209.873037" xlink:href="#m5735b86086" y="253.29926"/>
    </g>
   </g>
   <g id="line2d_33">
    <defs>
     <path d="M 0 1.5 
C 0.397805 1.5 0.77937 1.341951 1.06066 1.06066 
C 1.341951 0.77937 1.5 0.397805 1.5 0 
C 1.5 -0.397805 1.341951 -0.77937 1.06066 -1.06066 
C 0.77937 -1.341951 0.397805 -1.5 0 -1.5 
C -0.397805 -1.5 -0.77937 -1.341951 -1.06066 -1.06066 
C -1.341951 -0.77937 -1.5 -0.397805 -1.5 0 
C -1.5 0.397805 -1.341951 0.77937 -1.06066 1.06066 
C -0.77937 1.341951 -0.397805 1.5 0 1.5 
z
" id="m8ac814ca53" style="stroke:#ffa500;"/>
    </defs>
    <g>
     <use style="fill:#ffa500;stroke:#ffa500;" x="284.862891" xlink:href="#m8ac814ca53" y="241.416953"/>
     <use style="fill:#ffa500;stroke:#ffa500;" x="284.862891" xlink:href="#m8ac814ca53" y="241.416953"/>
    </g>
   </g>
   <g id="line2d_34">
    <path d="M 142.468351 298.245375 
L 142.468351 297.728753 
L 145.607008 297.728753 
L 145.607008 296.695509 
L 159.225015 296.695509 
L 159.225015 296.178887 
L 160.567279 296.178887 
L 160.567279 295.662265 
L 163.2071 295.662265 
L 163.2071 295.145643 
L 164.945111 295.145643 
L 164.945111 294.112399 
L 165.964379 294.112399 
L 165.964379 293.595777 
L 175.963659 293.595777 
L 175.963659 293.079155 
L 182.315898 293.079155 
L 182.315898 292.562533 
L 184.234651 292.562533 
L 184.234651 292.045911 
L 190.993685 292.045911 
L 190.993685 291.529289 
L 194.905302 291.529289 
L 194.905302 291.012667 
L 195.947821 291.012667 
L 195.947821 289.979423 
L 196.638632 289.979423 
L 196.638632 289.462801 
L 198.026036 289.462801 
L 198.026036 288.946179 
L 203.093991 288.946179 
L 203.093991 287.912935 
L 203.217586 287.912935 
L 203.217586 286.879691 
L 204.022468 286.879691 
L 204.022468 286.363069 
L 204.671552 286.363069 
L 204.671552 285.846447 
L 206.170585 285.846447 
L 206.170585 285.329825 
L 206.964137 285.329825 
L 206.967641 284.296581 
L 210.356286 284.296581 
L 210.356286 282.230093 
L 210.893027 282.230093 
L 210.970205 281.196849 
L 211.084655 281.196849 
L 211.084655 280.680226 
L 211.341576 280.680226 
L 211.341576 279.13036 
L 216.039339 279.13036 
L 216.039339 278.613738 
L 217.299153 278.613738 
L 217.299153 278.097116 
L 217.935213 278.097116 
L 217.935213 277.580494 
L 218.192218 277.580494 
L 218.192218 277.063872 
L 220.864561 277.063872 
L 220.864561 276.54725 
L 223.007623 276.54725 
L 223.007623 276.030628 
L 225.423713 276.030628 
L 225.423713 275.514006 
L 226.740265 275.514006 
L 226.740265 274.480762 
L 227.547802 274.480762 
L 227.547802 273.96414 
L 228.58621 273.96414 
L 228.58621 273.447518 
L 229.665708 273.447518 
L 229.665708 272.930896 
L 229.978688 272.930896 
L 230.006212 270.864408 
L 231.803244 270.864408 
L 231.803244 270.347786 
L 232.725888 270.347786 
L 232.725888 269.831164 
L 233.197405 269.831164 
L 233.197405 269.314542 
L 233.787306 269.314542 
L 233.787306 268.79792 
L 233.959462 268.79792 
L 233.959462 268.281298 
L 234.271153 268.281298 
L 234.271153 266.21481 
L 235.001326 266.21481 
L 235.022109 265.181566 
L 235.574326 265.181566 
L 235.574326 264.664944 
L 236.655682 264.664944 
L 236.655682 264.148322 
L 237.483294 264.148322 
L 237.483294 263.6317 
L 237.603864 263.6317 
L 237.603864 263.115078 
L 238.333402 263.115078 
L 238.333402 262.598456 
L 240.258122 262.598456 
L 240.258122 261.565212 
L 240.5603 261.565212 
L 240.5603 261.04859 
L 240.937454 261.04859 
L 240.937454 260.531968 
L 241.969858 260.531968 
L 241.969858 260.015346 
L 242.105694 260.015346 
L 242.105694 259.498724 
L 243.204754 259.498724 
L 243.204754 258.982102 
L 245.180605 258.982102 
L 245.180605 258.46548 
L 246.042031 258.46548 
L 246.042031 257.948858 
L 246.289112 257.948858 
L 246.289112 257.432236 
L 246.843533 257.432236 
L 246.843533 256.398992 
L 247.208545 256.398992 
L 247.208545 255.88237 
L 249.102338 255.88237 
L 249.102338 255.365748 
L 250.98803 255.365748 
L 250.98803 254.849126 
L 251.1683 254.849126 
L 251.1683 254.332504 
L 251.394061 254.332504 
L 251.394061 253.29926 
L 251.848148 253.29926 
L 251.848148 252.782638 
L 252.849855 252.782638 
L 252.849855 252.266016 
L 253.063024 252.266016 
L 253.063024 251.749394 
L 254.393708 251.749394 
L 254.400732 250.71615 
L 254.943932 250.71615 
L 254.943932 250.199528 
L 255.682419 250.199528 
L 255.682419 249.682906 
L 255.995455 249.682906 
L 255.995455 249.166284 
L 256.347456 249.166284 
L 256.347456 248.649662 
L 258.356913 248.649662 
L 258.356913 248.13304 
L 260.410305 248.13304 
L 260.410305 247.616418 
L 261.985675 247.616418 
L 261.985675 247.099796 
L 265.037016 247.099796 
L 265.037016 246.583173 
L 265.277029 246.583173 
L 265.277029 246.066551 
L 266.647266 246.066551 
L 266.647266 245.549929 
L 271.753086 245.549929 
L 271.753086 245.033307 
L 272.605356 245.033307 
L 272.605356 244.516685 
L 272.994514 244.516685 
L 272.994514 244.000063 
L 273.131285 244.000063 
L 273.131285 243.483441 
L 275.822469 243.483441 
L 275.822469 242.966819 
L 276.748919 242.966819 
L 276.748919 242.450197 
L 279.255114 242.450197 
L 279.255114 241.933575 
L 284.862891 241.933575 
L 284.862891 241.416953 
L 358.8 241.416953 
L 358.8 241.416953 
" style="fill:none;stroke:#ffa500;stroke-linecap:square;stroke-width:1.5;"/>
   </g>
   <g id="line2d_35">
    <defs>
     <path d="M 0 -6 
L -1.347084 -1.854102 
L -5.706339 -1.854102 
L -2.179628 0.708204 
L -3.526712 4.854102 
L -0 2.291796 
L 3.526712 4.854102 
L 2.179628 0.708204 
L 5.706339 -1.854102 
L 1.347084 -1.854102 
z
" id="m5643467ee5" style="stroke:#ffa500;stroke-linejoin:bevel;stroke-width:1.5;"/>
    </defs>
    <g>
     <use style="fill:none;stroke:#ffa500;stroke-linejoin:bevel;stroke-width:1.5;" x="206.967641" xlink:href="#m5643467ee5" y="284.296581"/>
     <use style="fill:none;stroke:#ffa500;stroke-linejoin:bevel;stroke-width:1.5;" x="252.849855" xlink:href="#m5643467ee5" y="252.266016"/>
     <use style="fill:none;stroke:#ffa500;stroke-linejoin:bevel;stroke-width:1.5;" x="284.862891" xlink:href="#m5643467ee5" y="241.933575"/>
     <use style="fill:none;stroke:#ffa500;stroke-linejoin:bevel;stroke-width:1.5;" x="284.862891" xlink:href="#m5643467ee5" y="241.416953"/>
     <use style="fill:none;stroke:#ffa500;stroke-linejoin:bevel;stroke-width:1.5;" x="358.8" xlink:href="#m5643467ee5" y="241.416953"/>
    </g>
   </g>
   <g id="line2d_36"/>
   <g id="line2d_37">
    <path clip-path="url(#p8f4818f221)" d="M 209.873037 284.296581 
" style="fill:none;stroke:#ffa500;stroke-linecap:square;stroke-width:1.5;"/>
    <defs>
     <path d="M -12 12 
L 12 -12 
M -12 -12 
L 12 12 
" id="m12b58457ce" style="stroke:#ffa500;stroke-width:3;"/>
    </defs>
    <g clip-path="url(#p8f4818f221)">
     <use style="fill:#ffa500;stroke:#ffa500;stroke-width:3;" x="209.873037" xlink:href="#m12b58457ce" y="284.296581"/>
    </g>
   </g>
   <g id="line2d_38">
    <defs>
     <path d="M 0 1.5 
C 0.397805 1.5 0.77937 1.341951 1.06066 1.06066 
C 1.341951 0.77937 1.5 0.397805 1.5 0 
C 1.5 -0.397805 1.341951 -0.77937 1.06066 -1.06066 
C 0.77937 -1.341951 0.397805 -1.5 0 -1.5 
C -0.397805 -1.5 -0.77937 -1.341951 -1.06066 -1.06066 
C -1.341951 -0.77937 -1.5 -0.397805 -1.5 0 
C -1.5 0.397805 -1.341951 0.77937 -1.06066 1.06066 
C -0.77937 1.341951 -0.397805 1.5 0 1.5 
z
" id="m8c3960133c" style="stroke:#6495ed;"/>
    </defs>
    <g>
     <use style="fill:#6495ed;stroke:#6495ed;" x="279.793933" xlink:href="#m8c3960133c" y="262.081834"/>
     <use style="fill:#6495ed;stroke:#6495ed;" x="279.793933" xlink:href="#m8c3960133c" y="262.081834"/>
    </g>
   </g>
   <g id="line2d_39">
    <path d="M 90.430132 298.245375 
L 90.430132 297.728753 
L 91.583313 297.728753 
L 91.583313 296.178887 
L 93.687874 296.178887 
L 93.687874 295.145643 
L 97.273482 295.145643 
L 97.273482 293.595777 
L 100.258423 293.595777 
L 100.258423 292.562533 
L 109.247936 292.562533 
L 109.247936 290.496045 
L 113.967827 290.496045 
L 113.967827 289.979423 
L 115.495947 289.979423 
L 115.495947 288.429557 
L 116.072388 288.429557 
L 116.072388 287.912935 
L 119.424422 287.912935 
L 119.424422 286.879691 
L 124.856251 286.879691 
L 124.856251 286.363069 
L 127.436309 286.363069 
L 127.436309 285.846447 
L 129.822263 285.846447 
L 129.822263 285.329825 
L 133.914217 285.329825 
L 133.914217 284.813203 
L 135.3203 284.813203 
L 135.3203 283.779959 
L 136.443273 283.779959 
L 136.443273 282.746715 
L 140.55696 282.746715 
L 140.55696 282.230093 
L 144.601662 282.230093 
L 144.601662 281.196849 
L 147.116421 281.196849 
L 147.116421 280.680226 
L 152.504586 280.680226 
L 152.504586 280.163604 
L 171.508581 280.163604 
L 171.508581 279.646982 
L 177.82041 279.646982 
L 177.82041 278.613738 
L 183.932008 278.613738 
L 183.932008 278.097116 
L 201.801593 278.097116 
L 201.801593 277.580494 
L 204.621683 277.580494 
L 204.621683 277.063872 
L 209.963629 277.063872 
L 209.963629 276.54725 
L 210.049342 276.54725 
L 210.049342 275.514006 
L 210.074387 275.514006 
L 210.074387 274.480762 
L 210.619534 274.480762 
L 210.619534 273.96414 
L 210.692212 273.96414 
L 210.692212 273.447518 
L 211.84726 273.447518 
L 211.84726 272.930896 
L 222.35923 272.930896 
L 222.35923 271.897652 
L 222.582129 271.897652 
L 222.582129 271.38103 
L 222.761797 271.38103 
L 222.761797 270.864408 
L 223.272635 270.864408 
L 223.272635 270.347786 
L 229.570538 270.347786 
L 229.570538 269.831164 
L 229.780421 269.831164 
L 229.780421 269.314542 
L 234.897042 269.314542 
L 234.897042 268.79792 
L 238.671112 268.79792 
L 238.671112 268.281298 
L 238.678835 268.281298 
L 238.678835 267.764676 
L 238.833776 267.764676 
L 238.833776 267.248054 
L 239.043341 267.248054 
L 239.043341 266.731432 
L 244.655755 266.731432 
L 244.655755 266.21481 
L 244.788103 266.21481 
L 244.788103 265.698188 
L 247.155957 265.698188 
L 247.155957 265.181566 
L 249.155785 265.181566 
L 249.155785 264.664944 
L 251.117741 264.664944 
L 251.117741 264.148322 
L 254.35855 264.148322 
L 254.35855 263.6317 
L 268.128324 263.6317 
L 268.128324 263.115078 
L 276.252467 263.115078 
L 276.252467 262.598456 
L 279.793933 262.598456 
L 279.793933 262.081834 
L 358.8 262.081834 
" style="fill:none;stroke:#6495ed;stroke-linecap:square;stroke-width:1.5;"/>
   </g>
   <g id="line2d_40">
    <defs>
     <path d="M -0 6 
L 6 -6 
L -6 -6 
z
" id="m9aaa039f32" style="stroke:#6495ed;stroke-linejoin:miter;stroke-width:1.5;"/>
    </defs>
    <g>
     <use style="fill:none;stroke:#6495ed;stroke-linejoin:miter;stroke-width:1.5;" x="152.504586" xlink:href="#m9aaa039f32" y="280.680226"/>
     <use style="fill:none;stroke:#6495ed;stroke-linejoin:miter;stroke-width:1.5;" x="211.84726" xlink:href="#m9aaa039f32" y="272.930896"/>
     <use style="fill:none;stroke:#6495ed;stroke-linejoin:miter;stroke-width:1.5;" x="279.793933" xlink:href="#m9aaa039f32" y="262.081834"/>
     <use style="fill:none;stroke:#6495ed;stroke-linejoin:miter;stroke-width:1.5;" x="279.793933" xlink:href="#m9aaa039f32" y="262.081834"/>
     <use style="fill:none;stroke:#6495ed;stroke-linejoin:miter;stroke-width:1.5;" x="358.8" xlink:href="#m9aaa039f32" y="262.081834"/>
    </g>
   </g>
   <g id="line2d_41"/>
   <g id="line2d_42">
    <path clip-path="url(#p8f4818f221)" d="M 209.873037 277.063872 
" style="fill:none;stroke:#6495ed;stroke-linecap:square;stroke-width:1.5;"/>
    <defs>
     <path d="M -12 12 
L 12 -12 
M -12 -12 
L 12 12 
" id="m9e4e4932dc" style="stroke:#6495ed;stroke-width:3;"/>
    </defs>
    <g clip-path="url(#p8f4818f221)">
     <use style="fill:#6495ed;stroke:#6495ed;stroke-width:3;" x="209.873037" xlink:href="#m9e4e4932dc" y="277.063872"/>
    </g>
   </g>
   <g id="line2d_43">
    <defs>
     <path d="M 0 1.5 
C 0.397805 1.5 0.77937 1.341951 1.06066 1.06066 
C 1.341951 0.77937 1.5 0.397805 1.5 0 
C 1.5 -0.397805 1.341951 -0.77937 1.06066 -1.06066 
C 0.77937 -1.341951 0.397805 -1.5 0 -1.5 
C -0.397805 -1.5 -0.77937 -1.341951 -1.06066 -1.06066 
C -1.341951 -0.77937 -1.5 -0.397805 -1.5 0 
C -1.5 0.397805 -1.341951 0.77937 -1.06066 1.06066 
C -0.77937 1.341951 -0.397805 1.5 0 1.5 
z
" id="mec32be60b9" style="stroke:#ff0000;"/>
    </defs>
    <g>
     <use style="fill:#ff0000;stroke:#ff0000;" x="267.166558" xlink:href="#mec32be60b9" y="122.59389"/>
     <use style="fill:#ff0000;stroke:#ff0000;" x="267.166558" xlink:href="#mec32be60b9" y="122.59389"/>
    </g>
   </g>
   <g id="line2d_44">
    <path d="M 42.042377 298.245375 
L 42.042377 278.097116 
L 54.427611 278.097116 
L 54.427611 277.063872 
L 66.812845 277.063872 
L 66.812845 276.54725 
L 81.30264 276.54725 
L 81.30264 274.997384 
L 83.185234 274.997384 
L 83.185234 274.480762 
L 90.430132 274.480762 
L 90.430132 273.96414 
L 94.653954 273.96414 
L 94.653954 273.447518 
L 100.258423 273.447518 
L 100.258423 271.897652 
L 100.932772 271.897652 
L 100.932772 270.864408 
L 102.209609 270.864408 
L 102.209609 270.347786 
L 105.569748 270.347786 
L 105.569748 269.831164 
L 106.562676 269.831164 
L 106.562676 268.79792 
L 109.247936 268.79792 
L 109.247936 267.764676 
L 111.581873 267.764676 
L 111.581873 267.248054 
L 111.942857 267.248054 
L 111.942857 265.181566 
L 114.900288 265.181566 
L 114.900288 264.148322 
L 115.2006 264.148322 
L 115.2006 263.6317 
L 116.903613 263.6317 
L 116.903613 263.115078 
L 117.172312 263.115078 
L 117.172312 262.081834 
L 117.697882 262.081834 
L 117.697882 260.531968 
L 118.458343 260.531968 
L 118.458343 259.498724 
L 118.947911 259.498724 
L 118.947911 258.46548 
L 119.424422 258.46548 
L 119.424422 257.948858 
L 119.888555 257.948858 
L 119.888555 257.432236 
L 120.562903 257.432236 
L 120.562903 256.915614 
L 120.782147 256.915614 
L 120.782147 254.849126 
L 120.998733 254.849126 
L 120.998733 253.815882 
L 121.212725 253.815882 
L 121.212725 253.29926 
L 121.63317 253.29926 
L 121.63317 250.71615 
L 122.245852 250.71615 
L 122.245852 249.166284 
L 123.03139 249.166284 
L 123.03139 248.13304 
L 123.783843 248.13304 
L 123.783843 247.616418 
L 123.967107 247.616418 
L 123.967107 247.099796 
L 124.148511 247.099796 
L 124.148511 246.583173 
L 124.505885 246.583173 
L 124.505885 245.549929 
L 125.028891 245.549929 
L 125.028891 245.033307 
L 125.369247 245.033307 
L 125.369247 244.516685 
L 125.537024 244.516685 
L 125.537024 244.000063 
L 126.031105 244.000063 
L 126.031105 243.483441 
L 126.192808 243.483441 
L 126.192808 242.450197 
L 126.353061 242.450197 
L 126.353061 241.416953 
L 127.734118 241.416953 
L 127.734118 240.900331 
L 129.016046 240.900331 
L 129.016046 240.383709 
L 129.288847 240.383709 
L 129.288847 239.867087 
L 130.212129 239.867087 
L 130.212129 239.350465 
L 130.467392 239.350465 
L 130.467392 238.833843 
L 131.926824 238.833843 
L 131.926824 238.317221 
L 132.043229 238.317221 
L 132.043229 236.250733 
L 132.501411 236.250733 
L 132.501411 235.217489 
L 132.837499 235.217489 
L 132.948138 234.184245 
L 133.276002 234.184245 
L 133.383967 232.634379 
L 133.491283 232.634379 
L 133.491283 232.117757 
L 133.809418 232.117757 
L 133.809418 229.534647 
L 134.018404 229.534647 
L 134.121988 227.984781 
L 134.731187 227.984781 
L 134.731187 226.951537 
L 135.126079 226.951537 
L 135.126079 225.918293 
L 135.3203 225.918293 
L 135.416624 223.335183 
L 135.890607 223.335183 
L 135.890607 222.818561 
L 136.713325 222.818561 
L 136.713325 221.268695 
L 136.891119 221.268695 
L 136.891119 220.752073 
L 137.414126 220.752073 
L 137.414126 220.235451 
L 138.578042 220.235451 
L 138.658348 218.168963 
L 139.288127 218.168963 
L 139.365311 216.102475 
L 139.746309 216.102475 
L 139.746309 215.585853 
L 139.896462 215.585853 
L 139.896462 214.552609 
L 140.119352 214.552609 
L 140.119352 214.035987 
L 140.339496 214.035987 
L 140.339496 213.519365 
L 140.484766 213.519365 
L 140.484766 213.002743 
L 141.538202 213.002743 
L 141.538202 212.48612 
L 141.875983 212.48612 
L 141.875983 211.969498 
L 142.009328 211.969498 
L 142.009328 211.452876 
L 142.532973 211.452876 
L 142.532973 210.419632 
L 142.72545 210.419632 
L 142.72545 209.90301 
L 142.915876 209.90301 
L 142.915876 209.386388 
L 143.041708 209.386388 
L 143.041708 207.3199 
L 143.290745 207.3199 
L 143.352466 204.73679 
L 143.597239 204.73679 
L 143.597239 204.220168 
L 144.312059 204.220168 
L 144.370356 202.670302 
L 144.601662 202.670302 
L 144.601662 202.15368 
L 144.716201 202.15368 
L 144.716201 201.120436 
L 145.388435 201.120436 
L 145.388435 200.603814 
L 146.142022 200.603814 
L 146.142022 200.087192 
L 147.166263 200.087192 
L 147.166263 199.57057 
L 147.36425 199.57057 
L 147.413405 198.020704 
L 147.705534 198.020704 
L 147.705534 197.504082 
L 148.182045 197.504082 
L 148.182045 196.98746 
L 148.322555 196.98746 
L 148.322555 194.920972 
L 148.554311 194.920972 
L 148.646178 193.887728 
L 149.970348 193.887728 
L 149.970348 193.371106 
L 150.139715 193.371106 
L 150.139715 192.854484 
L 151.20312 192.854484 
L 151.282358 191.304618 
L 151.361246 191.304618 
L 151.361246 190.787996 
L 151.478929 190.787996 
L 151.478929 189.23813 
L 151.634644 189.23813 
L 151.711995 188.204886 
L 152.541466 188.204886 
L 152.614997 186.138398 
L 152.72473 186.138398 
L 152.72473 184.07191 
L 153.889304 184.07191 
L 153.991505 183.038666 
L 154.059315 183.038666 
L 154.059315 180.972178 
L 154.328014 180.972178 
L 154.328014 179.938934 
L 154.493922 179.938934 
L 154.493922 178.389067 
L 154.982597 178.389067 
L 154.982597 177.355823 
L 155.551895 177.355823 
L 155.551895 176.322579 
L 157.158431 176.322579 
L 157.158431 175.805957 
L 158.788873 175.805957 
L 158.788873 175.289335 
L 158.944024 175.289335 
L 158.944024 174.772713 
L 159.476683 174.772713 
L 159.476683 174.256091 
L 160.114898 174.256091 
L 160.114898 173.739469 
L 160.824043 173.739469 
L 160.824043 173.222847 
L 161.077169 173.222847 
L 161.077169 172.189603 
L 161.32676 172.189603 
L 161.32676 171.672981 
L 161.88137 171.672981 
L 161.88137 170.639737 
L 162.440466 170.639737 
L 162.440466 170.123115 
L 162.982598 170.123115 
L 163.044106 168.573249 
L 163.528695 168.573249 
L 163.528695 168.056627 
L 163.864163 168.056627 
L 163.864163 167.540005 
L 164.077923 167.540005 
L 164.174247 165.990139 
L 164.212632 165.990139 
L 164.212632 164.440273 
L 165.435176 164.440273 
L 165.435176 163.923651 
L 166.085637 163.923651 
L 166.085637 163.407029 
L 166.729908 163.407029 
L 166.729908 162.890407 
L 166.94509 162.890407 
L 166.94509 161.857163 
L 167.351755 161.857163 
L 167.351755 161.340541 
L 167.575509 161.340541 
L 167.575509 160.823919 
L 168.398069 160.823919 
L 168.398069 160.307297 
L 169.198932 160.307297 
L 169.198932 159.790675 
L 169.415168 159.790675 
L 169.415168 159.274053 
L 169.657114 159.274053 
L 169.657114 158.757431 
L 170.740361 158.757431 
L 170.740361 157.724187 
L 171.419144 157.724187 
L 171.419144 157.207565 
L 174.857428 157.207565 
L 174.857428 156.690943 
L 175.86406 156.690943 
L 175.86406 156.174321 
L 176.750586 156.174321 
L 176.750586 155.657699 
L 178.710945 155.657699 
L 178.710945 155.141077 
L 179.436951 155.141077 
L 179.436951 154.624455 
L 180.079469 154.624455 
L 180.079469 153.591211 
L 180.523565 153.591211 
L 180.523565 153.074589 
L 182.537264 153.074589 
L 182.537264 152.557967 
L 183.598255 152.557967 
L 183.598255 151.008101 
L 187.279607 151.008101 
L 187.279607 148.941613 
L 187.655243 148.941613 
L 187.655243 147.908369 
L 187.992773 147.908369 
L 187.992773 147.391747 
L 190.730502 147.391747 
L 190.730502 146.358503 
L 191.164184 146.358503 
L 191.164184 145.841881 
L 191.867105 145.841881 
L 191.867105 145.325259 
L 195.788065 145.325259 
L 195.788065 144.808637 
L 197.294697 144.808637 
L 197.294697 144.292014 
L 197.637551 144.292014 
L 197.637551 143.775392 
L 198.020256 143.775392 
L 198.020256 143.25877 
L 198.65066 143.25877 
L 198.65066 142.742148 
L 199.590875 142.742148 
L 199.590875 141.708904 
L 200.57951 141.708904 
L 200.57951 141.192282 
L 202.793384 141.192282 
L 202.793384 140.67566 
L 203.2866 140.67566 
L 203.2866 140.159038 
L 207.528086 140.159038 
L 207.584022 137.575928 
L 211.837926 137.575928 
L 211.837926 137.059306 
L 213.03349 137.059306 
L 213.03349 135.50944 
L 213.451469 135.50944 
L 213.451469 134.992818 
L 215.446557 134.992818 
L 215.446557 133.959574 
L 217.053798 133.959574 
L 217.053798 133.442952 
L 217.757011 133.442952 
L 217.757011 132.92633 
L 219.06681 132.92633 
L 219.06681 132.409708 
L 220.911181 132.409708 
L 220.911181 131.893086 
L 221.150393 131.893086 
L 221.150393 131.376464 
L 223.929313 131.376464 
L 223.929313 130.34322 
L 224.665151 130.34322 
L 224.665151 129.826598 
L 225.261471 129.826598 
L 225.261471 129.309976 
L 227.565512 129.309976 
L 227.565512 128.793354 
L 230.412659 128.793354 
L 230.412659 128.276732 
L 232.279021 128.276732 
L 232.279021 127.76011 
L 232.573574 127.76011 
L 232.573574 127.243488 
L 233.210315 127.243488 
L 233.210315 126.726866 
L 236.994343 126.726866 
L 236.994343 126.210244 
L 237.493452 126.210244 
L 237.493452 125.693622 
L 240.535425 125.693622 
L 240.535425 125.177 
L 246.023731 125.177 
L 246.023731 124.660378 
L 246.758143 124.660378 
L 246.758143 124.143756 
L 253.402463 124.143756 
L 253.402463 123.627134 
L 256.383767 123.627134 
L 256.383767 123.110512 
L 267.166558 123.110512 
L 267.166558 122.59389 
L 358.8 122.59389 
L 358.8 122.59389 
" style="fill:none;stroke:#ff0000;stroke-linecap:square;stroke-width:1.5;"/>
   </g>
   <g id="line2d_45">
    <defs>
     <path d="M 0 -6 
L -5.196152 -3 
L -5.196152 3 
L -0 6 
L 5.196152 3 
L 5.196152 -3 
z
" id="m360bd0e5f4" style="stroke:#ff0000;stroke-linejoin:miter;stroke-width:1.5;"/>
    </defs>
    <g>
     <use style="fill:none;stroke:#ff0000;stroke-linejoin:miter;stroke-width:1.5;" x="105.569748" xlink:href="#m360bd0e5f4" y="269.831164"/>
     <use style="fill:none;stroke:#ff0000;stroke-linejoin:miter;stroke-width:1.5;" x="144.370356" xlink:href="#m360bd0e5f4" y="202.670302"/>
     <use style="fill:none;stroke:#ff0000;stroke-linejoin:miter;stroke-width:1.5;" x="168.398069" xlink:href="#m360bd0e5f4" y="160.307297"/>
     <use style="fill:none;stroke:#ff0000;stroke-linejoin:miter;stroke-width:1.5;" x="256.383767" xlink:href="#m360bd0e5f4" y="123.110512"/>
     <use style="fill:none;stroke:#ff0000;stroke-linejoin:miter;stroke-width:1.5;" x="267.166558" xlink:href="#m360bd0e5f4" y="122.59389"/>
     <use style="fill:none;stroke:#ff0000;stroke-linejoin:miter;stroke-width:1.5;" x="358.8" xlink:href="#m360bd0e5f4" y="122.59389"/>
    </g>
   </g>
   <g id="line2d_46"/>
   <g id="line2d_47">
    <path clip-path="url(#p8f4818f221)" d="M 209.873037 137.575928 
" style="fill:none;stroke:#ff0000;stroke-linecap:square;stroke-width:1.5;"/>
    <defs>
     <path d="M -12 12 
L 12 -12 
M -12 -12 
L 12 12 
" id="m3c7e9f46d7" style="stroke:#ff0000;stroke-width:3;"/>
    </defs>
    <g clip-path="url(#p8f4818f221)">
     <use style="fill:#ff0000;stroke:#ff0000;stroke-width:3;" x="209.873037" xlink:href="#m3c7e9f46d7" y="137.575928"/>
    </g>
   </g>
   <g id="line2d_48">
    <path d="M 358.8 262.081834 
L 390.48 292.97583 
" style="fill:none;stroke:#6495ed;stroke-linecap:square;stroke-width:1.5;"/>
    <g>
     <use style="fill:none;stroke:#6495ed;stroke-linejoin:miter;stroke-width:1.5;" x="358.8" xlink:href="#m9aaa039f32" y="262.081834"/>
     <use style="fill:none;stroke:#6495ed;stroke-linejoin:miter;stroke-width:1.5;" x="390.48" xlink:href="#m9aaa039f32" y="292.97583"/>
    </g>
   </g>
   <g id="line2d_49">
    <path d="M 358.8 241.416953 
L 390.48 229.741296 
" style="fill:none;stroke:#ffa500;stroke-linecap:square;stroke-width:1.5;"/>
    <g>
     <use style="fill:none;stroke:#ffa500;stroke-linejoin:bevel;stroke-width:1.5;" x="358.8" xlink:href="#m5643467ee5" y="241.416953"/>
     <use style="fill:none;stroke:#ffa500;stroke-linejoin:bevel;stroke-width:1.5;" x="390.48" xlink:href="#m5643467ee5" y="229.741296"/>
    </g>
   </g>
   <g id="line2d_50">
    <path d="M 358.8 210.419632 
L 390.48 166.506761 
" style="fill:none;stroke:#000080;stroke-linecap:square;stroke-width:1.5;"/>
    <g>
     <use style="fill:none;stroke:#000080;stroke-width:1.5;" x="358.8" xlink:href="#m50d3d429ab" y="210.419632"/>
     <use style="fill:none;stroke:#000080;stroke-width:1.5;" x="390.48" xlink:href="#m50d3d429ab" y="166.506761"/>
    </g>
   </g>
   <g id="line2d_51">
    <path d="M 358.8 205.253412 
L 390.48 103.272226 
" style="fill:none;stroke:#ff00ff;stroke-linecap:square;stroke-width:1.5;"/>
    <g>
     <use style="fill:none;stroke:#ff00ff;stroke-linejoin:miter;stroke-width:1.5;" x="358.8" xlink:href="#macfb375624" y="205.253412"/>
     <use style="fill:none;stroke:#ff00ff;stroke-linejoin:miter;stroke-width:1.5;" x="390.48" xlink:href="#macfb375624" y="103.272226"/>
    </g>
   </g>
   <g id="line2d_52">
    <path d="M 358.8 122.59389 
L 390.48 40.037692 
" style="fill:none;stroke:#ff0000;stroke-linecap:square;stroke-width:1.5;"/>
    <g>
     <use style="fill:none;stroke:#ff0000;stroke-linejoin:miter;stroke-width:1.5;" x="358.8" xlink:href="#m360bd0e5f4" y="122.59389"/>
     <use style="fill:none;stroke:#ff0000;stroke-linejoin:miter;stroke-width:1.5;" x="390.48" xlink:href="#m360bd0e5f4" y="40.037692"/>
    </g>
   </g>
   <g id="line2d_53">
    <path d="M 358.8 298.245375 
L 358.8 34.768147 
" style="fill:none;stroke:#000000;stroke-linecap:square;stroke-width:1.5;"/>
   </g>
   <g id="patch_3">
    <path d="M 70.8 298.245375 
L 70.8 32.133375 
" style="fill:none;stroke:#000000;stroke-linecap:square;stroke-linejoin:miter;stroke-width:0.8;"/>
   </g>
   <g id="patch_4">
    <path d="M 427.92 298.245375 
L 427.92 32.133375 
" style="fill:none;stroke:#000000;stroke-linecap:square;stroke-linejoin:miter;stroke-width:0.8;"/>
   </g>
   <g id="patch_5">
    <path d="M 70.8 298.245375 
L 427.92 298.245375 
" style="fill:none;stroke:#000000;stroke-linecap:square;stroke-linejoin:miter;stroke-width:0.8;"/>
   </g>
   <g id="patch_6">
    <path d="M 70.8 32.133375 
L 427.92 32.133375 
" style="fill:none;stroke:#000000;stroke-linecap:square;stroke-linejoin:miter;stroke-width:0.8;"/>
   </g>
   <g id="text_14">
    <!-- f11 -->
    <g transform="translate(396.24 297.114893)scale(0.15 -0.15)">
     <use xlink:href="#DejaVuSans-66"/>
     <use x="35.205078" xlink:href="#DejaVuSans-31"/>
     <use x="98.828125" xlink:href="#DejaVuSans-31"/>
    </g>
   </g>
   <g id="text_15">
    <!-- f10 -->
    <g transform="translate(396.24 233.880358)scale(0.15 -0.15)">
     <use xlink:href="#DejaVuSans-66"/>
     <use x="35.205078" xlink:href="#DejaVuSans-31"/>
     <use x="98.828125" xlink:href="#DejaVuSans-30"/>
    </g>
   </g>
   <g id="text_16">
    <!-- f12 -->
    <g transform="translate(396.24 170.645824)scale(0.15 -0.15)">
     <use xlink:href="#DejaVuSans-66"/>
     <use x="35.205078" xlink:href="#DejaVuSans-31"/>
     <use x="98.828125" xlink:href="#DejaVuSans-32"/>
    </g>
   </g>
   <g id="text_17">
    <!-- f13 -->
    <defs>
     <path d="M 40.578125 39.3125 
Q 47.65625 37.796875 51.625 33 
Q 55.609375 28.21875 55.609375 21.1875 
Q 55.609375 10.40625 48.1875 4.484375 
Q 40.765625 -1.421875 27.09375 -1.421875 
Q 22.515625 -1.421875 17.65625 -0.515625 
Q 12.796875 0.390625 7.625 2.203125 
L 7.625 11.71875 
Q 11.71875 9.328125 16.59375 8.109375 
Q 21.484375 6.890625 26.8125 6.890625 
Q 36.078125 6.890625 40.9375 10.546875 
Q 45.796875 14.203125 45.796875 21.1875 
Q 45.796875 27.640625 41.28125 31.265625 
Q 36.765625 34.90625 28.71875 34.90625 
L 20.21875 34.90625 
L 20.21875 43.015625 
L 29.109375 43.015625 
Q 36.375 43.015625 40.234375 45.921875 
Q 44.09375 48.828125 44.09375 54.296875 
Q 44.09375 59.90625 40.109375 62.90625 
Q 36.140625 65.921875 28.71875 65.921875 
Q 24.65625 65.921875 20.015625 65.03125 
Q 15.375 64.15625 9.8125 62.3125 
L 9.8125 71.09375 
Q 15.4375 72.65625 20.34375 73.4375 
Q 25.25 74.21875 29.59375 74.21875 
Q 40.828125 74.21875 47.359375 69.109375 
Q 53.90625 64.015625 53.90625 55.328125 
Q 53.90625 49.265625 50.4375 45.09375 
Q 46.96875 40.921875 40.578125 39.3125 
z
" id="DejaVuSans-33"/>
    </defs>
    <g transform="translate(396.24 107.411289)scale(0.15 -0.15)">
     <use xlink:href="#DejaVuSans-66"/>
     <use x="35.205078" xlink:href="#DejaVuSans-31"/>
     <use x="98.828125" xlink:href="#DejaVuSans-33"/>
    </g>
   </g>
   <g id="text_18">
    <!-- f14 -->
    <g transform="translate(396.24 44.176754)scale(0.15 -0.15)">
     <use xlink:href="#DejaVuSans-66"/>
     <use x="35.205078" xlink:href="#DejaVuSans-31"/>
     <use x="98.828125" xlink:href="#DejaVuSans-34"/>
    </g>
   </g>
   <g id="text_19">
    <!-- bbob -->
    <defs>
     <path d="M 48.6875 27.296875 
Q 48.6875 37.203125 44.609375 42.84375 
Q 40.53125 48.484375 33.40625 48.484375 
Q 26.265625 48.484375 22.1875 42.84375 
Q 18.109375 37.203125 18.109375 27.296875 
Q 18.109375 17.390625 22.1875 11.75 
Q 26.265625 6.109375 33.40625 6.109375 
Q 40.53125 6.109375 44.609375 11.75 
Q 48.6875 17.390625 48.6875 27.296875 
z
M 18.109375 46.390625 
Q 20.953125 51.265625 25.265625 53.625 
Q 29.59375 56 35.59375 56 
Q 45.5625 56 51.78125 48.09375 
Q 58.015625 40.1875 58.015625 27.296875 
Q 58.015625 14.40625 51.78125 6.484375 
Q 45.5625 -1.421875 35.59375 -1.421875 
Q 29.59375 -1.421875 25.265625 0.953125 
Q 20.953125 3.328125 18.109375 8.203125 
L 18.109375 0 
L 9.078125 0 
L 9.078125 75.984375 
L 18.109375 75.984375 
z
" id="DejaVuSans-62"/>
    </defs>
    <g transform="translate(74.3712 50.114612)scale(0.1666 -0.1666)">
     <use xlink:href="#DejaVuSans-62"/>
     <use x="63.476562" xlink:href="#DejaVuSans-62"/>
     <use x="126.953125" xlink:href="#DejaVuSans-6f"/>
     <use x="188.134766" xlink:href="#DejaVuSans-62"/>
    </g>
    <!-- Ill-conditioned functions, 5-D -->
    <defs>
     <path d="M 9.8125 72.90625 
L 19.671875 72.90625 
L 19.671875 0 
L 9.8125 0 
z
" id="DejaVuSans-49"/>
     <path d="M 11.71875 12.40625 
L 22.015625 12.40625 
L 22.015625 4 
L 14.015625 -11.625 
L 7.71875 -11.625 
L 11.71875 4 
z
" id="DejaVuSans-2c"/>
     <path d="M 10.796875 72.90625 
L 49.515625 72.90625 
L 49.515625 64.59375 
L 19.828125 64.59375 
L 19.828125 46.734375 
Q 21.96875 47.46875 24.109375 47.828125 
Q 26.265625 48.1875 28.421875 48.1875 
Q 40.625 48.1875 47.75 41.5 
Q 54.890625 34.8125 54.890625 23.390625 
Q 54.890625 11.625 47.5625 5.09375 
Q 40.234375 -1.421875 26.90625 -1.421875 
Q 22.3125 -1.421875 17.546875 -0.640625 
Q 12.796875 0.140625 7.71875 1.703125 
L 7.71875 11.625 
Q 12.109375 9.234375 16.796875 8.0625 
Q 21.484375 6.890625 26.703125 6.890625 
Q 35.15625 6.890625 40.078125 11.328125 
Q 45.015625 15.765625 45.015625 23.390625 
Q 45.015625 31 40.078125 35.4375 
Q 35.15625 39.890625 26.703125 39.890625 
Q 22.75 39.890625 18.8125 39.015625 
Q 14.890625 38.140625 10.796875 36.28125 
z
" id="DejaVuSans-35"/>
     <path d="M 19.671875 64.796875 
L 19.671875 8.109375 
L 31.59375 8.109375 
Q 46.6875 8.109375 53.6875 14.9375 
Q 60.6875 21.78125 60.6875 36.53125 
Q 60.6875 51.171875 53.6875 57.984375 
Q 46.6875 64.796875 31.59375 64.796875 
z
M 9.8125 72.90625 
L 30.078125 72.90625 
Q 51.265625 72.90625 61.171875 64.09375 
Q 71.09375 55.28125 71.09375 36.53125 
Q 71.09375 17.671875 61.125 8.828125 
Q 51.171875 0 30.078125 0 
L 9.8125 0 
z
" id="DejaVuSans-44"/>
    </defs>
    <g transform="translate(74.3712 68.770168)scale(0.1666 -0.1666)">
     <use xlink:href="#DejaVuSans-49"/>
     <use x="29.492188" xlink:href="#DejaVuSans-6c"/>
     <use x="57.275391" xlink:href="#DejaVuSans-6c"/>
     <use x="85.058594" xlink:href="#DejaVuSans-2d"/>
     <use x="121.142578" xlink:href="#DejaVuSans-63"/>
     <use x="176.123047" xlink:href="#DejaVuSans-6f"/>
     <use x="237.304688" xlink:href="#DejaVuSans-6e"/>
     <use x="300.683594" xlink:href="#DejaVuSans-64"/>
     <use x="364.160156" xlink:href="#DejaVuSans-69"/>
     <use x="391.943359" xlink:href="#DejaVuSans-74"/>
     <use x="431.152344" xlink:href="#DejaVuSans-69"/>
     <use x="458.935547" xlink:href="#DejaVuSans-6f"/>
     <use x="520.117188" xlink:href="#DejaVuSans-6e"/>
     <use x="583.496094" xlink:href="#DejaVuSans-65"/>
     <use x="645.019531" xlink:href="#DejaVuSans-64"/>
     <use x="708.496094" xlink:href="#DejaVuSans-20"/>
     <use x="740.283203" xlink:href="#DejaVuSans-66"/>
     <use x="775.488281" xlink:href="#DejaVuSans-75"/>
     <use x="838.867188" xlink:href="#DejaVuSans-6e"/>
     <use x="902.246094" xlink:href="#DejaVuSans-63"/>
     <use x="957.226562" xlink:href="#DejaVuSans-74"/>
     <use x="996.435547" xlink:href="#DejaVuSans-69"/>
     <use x="1024.21875" xlink:href="#DejaVuSans-6f"/>
     <use x="1085.400391" xlink:href="#DejaVuSans-6e"/>
     <use x="1148.779297" xlink:href="#DejaVuSans-73"/>
     <use x="1200.878906" xlink:href="#DejaVuSans-2c"/>
     <use x="1232.666016" xlink:href="#DejaVuSans-20"/>
     <use x="1264.453125" xlink:href="#DejaVuSans-35"/>
     <use x="1328.076172" xlink:href="#DejaVuSans-2d"/>
     <use x="1364.160156" xlink:href="#DejaVuSans-44"/>
    </g>
    <!-- 51 targets in 100..1e-08 -->
    <g transform="translate(74.3712 87.425723)scale(0.1666 -0.1666)">
     <use xlink:href="#DejaVuSans-35"/>
     <use x="63.623047" xlink:href="#DejaVuSans-31"/>
     <use x="127.246094" xlink:href="#DejaVuSans-20"/>
     <use x="159.033203" xlink:href="#DejaVuSans-74"/>
     <use x="198.242188" xlink:href="#DejaVuSans-61"/>
     <use x="259.521484" xlink:href="#DejaVuSans-72"/>
     <use x="300.619141" xlink:href="#DejaVuSans-67"/>
     <use x="364.095703" xlink:href="#DejaVuSans-65"/>
     <use x="425.619141" xlink:href="#DejaVuSans-74"/>
     <use x="464.828125" xlink:href="#DejaVuSans-73"/>
     <use x="516.927734" xlink:href="#DejaVuSans-20"/>
     <use x="548.714844" xlink:href="#DejaVuSans-69"/>
     <use x="576.498047" xlink:href="#DejaVuSans-6e"/>
     <use x="639.876953" xlink:href="#DejaVuSans-20"/>
     <use x="671.664062" xlink:href="#DejaVuSans-31"/>
     <use x="735.287109" xlink:href="#DejaVuSans-30"/>
     <use x="798.910156" xlink:href="#DejaVuSans-30"/>
     <use x="862.533203" xlink:href="#DejaVuSans-2e"/>
     <use x="894.320312" xlink:href="#DejaVuSans-2e"/>
     <use x="926.107422" xlink:href="#DejaVuSans-31"/>
     <use x="989.730469" xlink:href="#DejaVuSans-65"/>
     <use x="1051.253906" xlink:href="#DejaVuSans-2d"/>
     <use x="1087.337891" xlink:href="#DejaVuSans-30"/>
     <use x="1150.960938" xlink:href="#DejaVuSans-38"/>
    </g>
    <!-- 15 instances -->
    <g transform="translate(74.3712 106.081279)scale(0.1666 -0.1666)">
     <use xlink:href="#DejaVuSans-31"/>
     <use x="63.623047" xlink:href="#DejaVuSans-35"/>
     <use x="127.246094" xlink:href="#DejaVuSans-20"/>
     <use x="159.033203" xlink:href="#DejaVuSans-69"/>
     <use x="186.816406" xlink:href="#DejaVuSans-6e"/>
     <use x="250.195312" xlink:href="#DejaVuSans-73"/>
     <use x="302.294922" xlink:href="#DejaVuSans-74"/>
     <use x="341.503906" xlink:href="#DejaVuSans-61"/>
     <use x="402.783203" xlink:href="#DejaVuSans-6e"/>
     <use x="466.162109" xlink:href="#DejaVuSans-63"/>
     <use x="521.142578" xlink:href="#DejaVuSans-65"/>
     <use x="582.666016" xlink:href="#DejaVuSans-73"/>
    </g>
   </g>
   <g id="text_20">
    <!-- v2.1 -->
    <g style="fill:#808080;" transform="translate(238.449063 293.504568)scale(0.1 -0.1)">
     <use xlink:href="#DejaVuSans-76"/>
     <use x="59.179688" xlink:href="#DejaVuSans-32"/>
     <use x="122.802734" xlink:href="#DejaVuSans-2e"/>
     <use x="154.589844" xlink:href="#DejaVuSans-31"/>
    </g>
   </g>
  </g>
 </g>
 <defs>
  <clipPath id="p8f4818f221">
   <rect height="266.112" width="357.12" x="70.8" y="32.133375"/>
  </clipPath>
 </defs>
</svg>
