<?xml version="1.0" encoding="utf-8" standalone="no"?>
<!DOCTYPE svg PUBLIC "-//W3C//DTD SVG 1.1//EN"
  "http://www.w3.org/Graphics/SVG/1.1/DTD/svg11.dtd">
<!-- Created with matplotlib (http://matplotlib.org/) -->
<svg height="353pt" version="1.1" viewBox="0 0 439 353" width="439pt" xmlns="http://www.w3.org/2000/svg" xmlns:xlink="http://www.w3.org/1999/xlink">
 <defs>
  <style type="text/css">
*{stroke-linecap:butt;stroke-linejoin:round;}
  </style>
 </defs>
 <g id="figure_1">
  <g id="patch_1">
   <path d="M 0 353.22225 
L 439.489219 353.22225 
L 439.489219 0 
L 0 0 
z
" style="fill:#ffffff;"/>
  </g>
  <g id="axes_1">
   <g id="patch_2">
    <path d="M 70.8 298.245375 
L 427.92 298.245375 
L 427.92 32.133375 
L 70.8 32.133375 
z
" style="fill:#ffffff;"/>
   </g>
   <g id="matplotlib.axis_1">
    <g id="xtick_1">
     <g id="line2d_1">
      <path clip-path="url(#p418e3a4f30)" d="M 70.8 298.245375 
L 70.8 32.133375 
" style="fill:none;stroke:#b0b0b0;stroke-linecap:square;stroke-width:0.8;"/>
     </g>
     <g id="line2d_2">
      <defs>
       <path d="M 0 0 
L 0 3.5 
" id="m9a6c2418e6" style="stroke:#000000;stroke-width:0.8;"/>
      </defs>
      <g>
       <use style="stroke:#000000;stroke-width:0.8;" x="70.8" xlink:href="#m9a6c2418e6" y="298.245375"/>
      </g>
     </g>
     <g id="text_1">
      <!-- 0 -->
      <defs>
       <path d="M 31.78125 66.40625 
Q 24.171875 66.40625 20.328125 58.90625 
Q 16.5 51.421875 16.5 36.375 
Q 16.5 21.390625 20.328125 13.890625 
Q 24.171875 6.390625 31.78125 6.390625 
Q 39.453125 6.390625 43.28125 13.890625 
Q 47.125 21.390625 47.125 36.375 
Q 47.125 51.421875 43.28125 58.90625 
Q 39.453125 66.40625 31.78125 66.40625 
z
M 31.78125 74.21875 
Q 44.046875 74.21875 50.515625 64.515625 
Q 56.984375 54.828125 56.984375 36.375 
Q 56.984375 17.96875 50.515625 8.265625 
Q 44.046875 -1.421875 31.78125 -1.421875 
Q 19.53125 -1.421875 13.0625 8.265625 
Q 6.59375 17.96875 6.59375 36.375 
Q 6.59375 54.828125 13.0625 64.515625 
Q 19.53125 74.21875 31.78125 74.21875 
z
" id="DejaVuSans-30"/>
      </defs>
      <g transform="translate(64.4375 320.44225)scale(0.2 -0.2)">
       <use xlink:href="#DejaVuSans-30"/>
      </g>
     </g>
    </g>
    <g id="xtick_2">
     <g id="line2d_3">
      <path clip-path="url(#p418e3a4f30)" d="M 153.085714 298.245375 
L 153.085714 32.133375 
" style="fill:none;stroke:#b0b0b0;stroke-linecap:square;stroke-width:0.8;"/>
     </g>
     <g id="line2d_4">
      <g>
       <use style="stroke:#000000;stroke-width:0.8;" x="153.085714" xlink:href="#m9a6c2418e6" y="298.245375"/>
      </g>
     </g>
     <g id="text_2">
      <!-- 2 -->
      <defs>
       <path d="M 19.1875 8.296875 
L 53.609375 8.296875 
L 53.609375 0 
L 7.328125 0 
L 7.328125 8.296875 
Q 12.9375 14.109375 22.625 23.890625 
Q 32.328125 33.6875 34.8125 36.53125 
Q 39.546875 41.84375 41.421875 45.53125 
Q 43.3125 49.21875 43.3125 52.78125 
Q 43.3125 58.59375 39.234375 62.25 
Q 35.15625 65.921875 28.609375 65.921875 
Q 23.96875 65.921875 18.8125 64.3125 
Q 13.671875 62.703125 7.8125 59.421875 
L 7.8125 69.390625 
Q 13.765625 71.78125 18.9375 73 
Q 24.125 74.21875 28.421875 74.21875 
Q 39.75 74.21875 46.484375 68.546875 
Q 53.21875 62.890625 53.21875 53.421875 
Q 53.21875 48.921875 51.53125 44.890625 
Q 49.859375 40.875 45.40625 35.40625 
Q 44.1875 33.984375 37.640625 27.21875 
Q 31.109375 20.453125 19.1875 8.296875 
z
" id="DejaVuSans-32"/>
      </defs>
      <g transform="translate(146.723214 320.44225)scale(0.2 -0.2)">
       <use xlink:href="#DejaVuSans-32"/>
      </g>
     </g>
    </g>
    <g id="xtick_3">
     <g id="line2d_5">
      <path clip-path="url(#p418e3a4f30)" d="M 235.371429 298.245375 
L 235.371429 32.133375 
" style="fill:none;stroke:#b0b0b0;stroke-linecap:square;stroke-width:0.8;"/>
     </g>
     <g id="line2d_6">
      <g>
       <use style="stroke:#000000;stroke-width:0.8;" x="235.371429" xlink:href="#m9a6c2418e6" y="298.245375"/>
      </g>
     </g>
     <g id="text_3">
      <!-- 4 -->
      <defs>
       <path d="M 37.796875 64.3125 
L 12.890625 25.390625 
L 37.796875 25.390625 
z
M 35.203125 72.90625 
L 47.609375 72.90625 
L 47.609375 25.390625 
L 58.015625 25.390625 
L 58.015625 17.1875 
L 47.609375 17.1875 
L 47.609375 0 
L 37.796875 0 
L 37.796875 17.1875 
L 4.890625 17.1875 
L 4.890625 26.703125 
z
" id="DejaVuSans-34"/>
      </defs>
      <g transform="translate(229.008929 320.44225)scale(0.2 -0.2)">
       <use xlink:href="#DejaVuSans-34"/>
      </g>
     </g>
    </g>
    <g id="xtick_4">
     <g id="line2d_7">
      <path clip-path="url(#p418e3a4f30)" d="M 317.657143 298.245375 
L 317.657143 32.133375 
" style="fill:none;stroke:#b0b0b0;stroke-linecap:square;stroke-width:0.8;"/>
     </g>
     <g id="line2d_8">
      <g>
       <use style="stroke:#000000;stroke-width:0.8;" x="317.657143" xlink:href="#m9a6c2418e6" y="298.245375"/>
      </g>
     </g>
     <g id="text_4">
      <!-- 6 -->
      <defs>
       <path d="M 33.015625 40.375 
Q 26.375 40.375 22.484375 35.828125 
Q 18.609375 31.296875 18.609375 23.390625 
Q 18.609375 15.53125 22.484375 10.953125 
Q 26.375 6.390625 33.015625 6.390625 
Q 39.65625 6.390625 43.53125 10.953125 
Q 47.40625 15.53125 47.40625 23.390625 
Q 47.40625 31.296875 43.53125 35.828125 
Q 39.65625 40.375 33.015625 40.375 
z
M 52.59375 71.296875 
L 52.59375 62.3125 
Q 48.875 64.0625 45.09375 64.984375 
Q 41.3125 65.921875 37.59375 65.921875 
Q 27.828125 65.921875 22.671875 59.328125 
Q 17.53125 52.734375 16.796875 39.40625 
Q 19.671875 43.65625 24.015625 45.921875 
Q 28.375 48.1875 33.59375 48.1875 
Q 44.578125 48.1875 50.953125 41.515625 
Q 57.328125 34.859375 57.328125 23.390625 
Q 57.328125 12.15625 50.6875 5.359375 
Q 44.046875 -1.421875 33.015625 -1.421875 
Q 20.359375 -1.421875 13.671875 8.265625 
Q 6.984375 17.96875 6.984375 36.375 
Q 6.984375 53.65625 15.1875 63.9375 
Q 23.390625 74.21875 37.203125 74.21875 
Q 40.921875 74.21875 44.703125 73.484375 
Q 48.484375 72.75 52.59375 71.296875 
z
" id="DejaVuSans-36"/>
      </defs>
      <g transform="translate(311.294643 320.44225)scale(0.2 -0.2)">
       <use xlink:href="#DejaVuSans-36"/>
      </g>
     </g>
    </g>
    <g id="xtick_5">
     <g id="line2d_9">
      <path clip-path="url(#p418e3a4f30)" d="M 399.942857 298.245375 
L 399.942857 32.133375 
" style="fill:none;stroke:#b0b0b0;stroke-linecap:square;stroke-width:0.8;"/>
     </g>
     <g id="line2d_10">
      <g>
       <use style="stroke:#000000;stroke-width:0.8;" x="399.942857" xlink:href="#m9a6c2418e6" y="298.245375"/>
      </g>
     </g>
     <g id="text_5">
      <!-- 8 -->
      <defs>
       <path d="M 31.78125 34.625 
Q 24.75 34.625 20.71875 30.859375 
Q 16.703125 27.09375 16.703125 20.515625 
Q 16.703125 13.921875 20.71875 10.15625 
Q 24.75 6.390625 31.78125 6.390625 
Q 38.8125 6.390625 42.859375 10.171875 
Q 46.921875 13.96875 46.921875 20.515625 
Q 46.921875 27.09375 42.890625 30.859375 
Q 38.875 34.625 31.78125 34.625 
z
M 21.921875 38.8125 
Q 15.578125 40.375 12.03125 44.71875 
Q 8.5 49.078125 8.5 55.328125 
Q 8.5 64.0625 14.71875 69.140625 
Q 20.953125 74.21875 31.78125 74.21875 
Q 42.671875 74.21875 48.875 69.140625 
Q 55.078125 64.0625 55.078125 55.328125 
Q 55.078125 49.078125 51.53125 44.71875 
Q 48 40.375 41.703125 38.8125 
Q 48.828125 37.15625 52.796875 32.3125 
Q 56.78125 27.484375 56.78125 20.515625 
Q 56.78125 9.90625 50.3125 4.234375 
Q 43.84375 -1.421875 31.78125 -1.421875 
Q 19.734375 -1.421875 13.25 4.234375 
Q 6.78125 9.90625 6.78125 20.515625 
Q 6.78125 27.484375 10.78125 32.3125 
Q 14.796875 37.15625 21.921875 38.8125 
z
M 18.3125 54.390625 
Q 18.3125 48.734375 21.84375 45.5625 
Q 25.390625 42.390625 31.78125 42.390625 
Q 38.140625 42.390625 41.71875 45.5625 
Q 45.3125 48.734375 45.3125 54.390625 
Q 45.3125 60.0625 41.71875 63.234375 
Q 38.140625 66.40625 31.78125 66.40625 
Q 25.390625 66.40625 21.84375 63.234375 
Q 18.3125 60.0625 18.3125 54.390625 
z
" id="DejaVuSans-38"/>
      </defs>
      <g transform="translate(393.580357 320.44225)scale(0.2 -0.2)">
       <use xlink:href="#DejaVuSans-38"/>
      </g>
     </g>
    </g>
    <g id="text_6">
     <!-- log10 of (# f-evals / dimension) -->
     <defs>
      <path d="M 9.421875 75.984375 
L 18.40625 75.984375 
L 18.40625 0 
L 9.421875 0 
z
" id="DejaVuSans-6c"/>
      <path d="M 30.609375 48.390625 
Q 23.390625 48.390625 19.1875 42.75 
Q 14.984375 37.109375 14.984375 27.296875 
Q 14.984375 17.484375 19.15625 11.84375 
Q 23.34375 6.203125 30.609375 6.203125 
Q 37.796875 6.203125 41.984375 11.859375 
Q 46.1875 17.53125 46.1875 27.296875 
Q 46.1875 37.015625 41.984375 42.703125 
Q 37.796875 48.390625 30.609375 48.390625 
z
M 30.609375 56 
Q 42.328125 56 49.015625 48.375 
Q 55.71875 40.765625 55.71875 27.296875 
Q 55.71875 13.875 49.015625 6.21875 
Q 42.328125 -1.421875 30.609375 -1.421875 
Q 18.84375 -1.421875 12.171875 6.21875 
Q 5.515625 13.875 5.515625 27.296875 
Q 5.515625 40.765625 12.171875 48.375 
Q 18.84375 56 30.609375 56 
z
" id="DejaVuSans-6f"/>
      <path d="M 45.40625 27.984375 
Q 45.40625 37.75 41.375 43.109375 
Q 37.359375 48.484375 30.078125 48.484375 
Q 22.859375 48.484375 18.828125 43.109375 
Q 14.796875 37.75 14.796875 27.984375 
Q 14.796875 18.265625 18.828125 12.890625 
Q 22.859375 7.515625 30.078125 7.515625 
Q 37.359375 7.515625 41.375 12.890625 
Q 45.40625 18.265625 45.40625 27.984375 
z
M 54.390625 6.78125 
Q 54.390625 -7.171875 48.1875 -13.984375 
Q 42 -20.796875 29.203125 -20.796875 
Q 24.46875 -20.796875 20.265625 -20.09375 
Q 16.0625 -19.390625 12.109375 -17.921875 
L 12.109375 -9.1875 
Q 16.0625 -11.328125 19.921875 -12.34375 
Q 23.78125 -13.375 27.78125 -13.375 
Q 36.625 -13.375 41.015625 -8.765625 
Q 45.40625 -4.15625 45.40625 5.171875 
L 45.40625 9.625 
Q 42.625 4.78125 38.28125 2.390625 
Q 33.9375 0 27.875 0 
Q 17.828125 0 11.671875 7.65625 
Q 5.515625 15.328125 5.515625 27.984375 
Q 5.515625 40.671875 11.671875 48.328125 
Q 17.828125 56 27.875 56 
Q 33.9375 56 38.28125 53.609375 
Q 42.625 51.21875 45.40625 46.390625 
L 45.40625 54.6875 
L 54.390625 54.6875 
z
" id="DejaVuSans-67"/>
      <path d="M 12.40625 8.296875 
L 28.515625 8.296875 
L 28.515625 63.921875 
L 10.984375 60.40625 
L 10.984375 69.390625 
L 28.421875 72.90625 
L 38.28125 72.90625 
L 38.28125 8.296875 
L 54.390625 8.296875 
L 54.390625 0 
L 12.40625 0 
z
" id="DejaVuSans-31"/>
      <path id="DejaVuSans-20"/>
      <path d="M 37.109375 75.984375 
L 37.109375 68.5 
L 28.515625 68.5 
Q 23.6875 68.5 21.796875 66.546875 
Q 19.921875 64.59375 19.921875 59.515625 
L 19.921875 54.6875 
L 34.71875 54.6875 
L 34.71875 47.703125 
L 19.921875 47.703125 
L 19.921875 0 
L 10.890625 0 
L 10.890625 47.703125 
L 2.296875 47.703125 
L 2.296875 54.6875 
L 10.890625 54.6875 
L 10.890625 58.5 
Q 10.890625 67.625 15.140625 71.796875 
Q 19.390625 75.984375 28.609375 75.984375 
z
" id="DejaVuSans-66"/>
      <path d="M 31 75.875 
Q 24.46875 64.65625 21.28125 53.65625 
Q 18.109375 42.671875 18.109375 31.390625 
Q 18.109375 20.125 21.3125 9.0625 
Q 24.515625 -2 31 -13.1875 
L 23.1875 -13.1875 
Q 15.875 -1.703125 12.234375 9.375 
Q 8.59375 20.453125 8.59375 31.390625 
Q 8.59375 42.28125 12.203125 53.3125 
Q 15.828125 64.359375 23.1875 75.875 
z
" id="DejaVuSans-28"/>
      <path d="M 51.125 44 
L 36.921875 44 
L 32.8125 27.6875 
L 47.125 27.6875 
z
M 43.796875 71.78125 
L 38.71875 51.515625 
L 52.984375 51.515625 
L 58.109375 71.78125 
L 65.921875 71.78125 
L 60.890625 51.515625 
L 76.125 51.515625 
L 76.125 44 
L 58.984375 44 
L 54.984375 27.6875 
L 70.515625 27.6875 
L 70.515625 20.21875 
L 53.078125 20.21875 
L 48 0 
L 40.1875 0 
L 45.21875 20.21875 
L 30.90625 20.21875 
L 25.875 0 
L 18.015625 0 
L 23.09375 20.21875 
L 7.71875 20.21875 
L 7.71875 27.6875 
L 24.90625 27.6875 
L 29 44 
L 13.28125 44 
L 13.28125 51.515625 
L 30.90625 51.515625 
L 35.890625 71.78125 
z
" id="DejaVuSans-23"/>
      <path d="M 4.890625 31.390625 
L 31.203125 31.390625 
L 31.203125 23.390625 
L 4.890625 23.390625 
z
" id="DejaVuSans-2d"/>
      <path d="M 56.203125 29.59375 
L 56.203125 25.203125 
L 14.890625 25.203125 
Q 15.484375 15.921875 20.484375 11.0625 
Q 25.484375 6.203125 34.421875 6.203125 
Q 39.59375 6.203125 44.453125 7.46875 
Q 49.3125 8.734375 54.109375 11.28125 
L 54.109375 2.78125 
Q 49.265625 0.734375 44.1875 -0.34375 
Q 39.109375 -1.421875 33.890625 -1.421875 
Q 20.796875 -1.421875 13.15625 6.1875 
Q 5.515625 13.8125 5.515625 26.8125 
Q 5.515625 40.234375 12.765625 48.109375 
Q 20.015625 56 32.328125 56 
Q 43.359375 56 49.78125 48.890625 
Q 56.203125 41.796875 56.203125 29.59375 
z
M 47.21875 32.234375 
Q 47.125 39.59375 43.09375 43.984375 
Q 39.0625 48.390625 32.421875 48.390625 
Q 24.90625 48.390625 20.390625 44.140625 
Q 15.875 39.890625 15.1875 32.171875 
z
" id="DejaVuSans-65"/>
      <path d="M 2.984375 54.6875 
L 12.5 54.6875 
L 29.59375 8.796875 
L 46.6875 54.6875 
L 56.203125 54.6875 
L 35.6875 0 
L 23.484375 0 
z
" id="DejaVuSans-76"/>
      <path d="M 34.28125 27.484375 
Q 23.390625 27.484375 19.1875 25 
Q 14.984375 22.515625 14.984375 16.5 
Q 14.984375 11.71875 18.140625 8.90625 
Q 21.296875 6.109375 26.703125 6.109375 
Q 34.1875 6.109375 38.703125 11.40625 
Q 43.21875 16.703125 43.21875 25.484375 
L 43.21875 27.484375 
z
M 52.203125 31.203125 
L 52.203125 0 
L 43.21875 0 
L 43.21875 8.296875 
Q 40.140625 3.328125 35.546875 0.953125 
Q 30.953125 -1.421875 24.3125 -1.421875 
Q 15.921875 -1.421875 10.953125 3.296875 
Q 6 8.015625 6 15.921875 
Q 6 25.140625 12.171875 29.828125 
Q 18.359375 34.515625 30.609375 34.515625 
L 43.21875 34.515625 
L 43.21875 35.40625 
Q 43.21875 41.609375 39.140625 45 
Q 35.0625 48.390625 27.6875 48.390625 
Q 23 48.390625 18.546875 47.265625 
Q 14.109375 46.140625 10.015625 43.890625 
L 10.015625 52.203125 
Q 14.9375 54.109375 19.578125 55.046875 
Q 24.21875 56 28.609375 56 
Q 40.484375 56 46.34375 49.84375 
Q 52.203125 43.703125 52.203125 31.203125 
z
" id="DejaVuSans-61"/>
      <path d="M 44.28125 53.078125 
L 44.28125 44.578125 
Q 40.484375 46.53125 36.375 47.5 
Q 32.28125 48.484375 27.875 48.484375 
Q 21.1875 48.484375 17.84375 46.4375 
Q 14.5 44.390625 14.5 40.28125 
Q 14.5 37.15625 16.890625 35.375 
Q 19.28125 33.59375 26.515625 31.984375 
L 29.59375 31.296875 
Q 39.15625 29.25 43.1875 25.515625 
Q 47.21875 21.78125 47.21875 15.09375 
Q 47.21875 7.46875 41.1875 3.015625 
Q 35.15625 -1.421875 24.609375 -1.421875 
Q 20.21875 -1.421875 15.453125 -0.5625 
Q 10.6875 0.296875 5.421875 2 
L 5.421875 11.28125 
Q 10.40625 8.6875 15.234375 7.390625 
Q 20.0625 6.109375 24.8125 6.109375 
Q 31.15625 6.109375 34.5625 8.28125 
Q 37.984375 10.453125 37.984375 14.40625 
Q 37.984375 18.0625 35.515625 20.015625 
Q 33.0625 21.96875 24.703125 23.78125 
L 21.578125 24.515625 
Q 13.234375 26.265625 9.515625 29.90625 
Q 5.8125 33.546875 5.8125 39.890625 
Q 5.8125 47.609375 11.28125 51.796875 
Q 16.75 56 26.8125 56 
Q 31.78125 56 36.171875 55.265625 
Q 40.578125 54.546875 44.28125 53.078125 
z
" id="DejaVuSans-73"/>
      <path d="M 25.390625 72.90625 
L 33.6875 72.90625 
L 8.296875 -9.28125 
L 0 -9.28125 
z
" id="DejaVuSans-2f"/>
      <path d="M 45.40625 46.390625 
L 45.40625 75.984375 
L 54.390625 75.984375 
L 54.390625 0 
L 45.40625 0 
L 45.40625 8.203125 
Q 42.578125 3.328125 38.25 0.953125 
Q 33.9375 -1.421875 27.875 -1.421875 
Q 17.96875 -1.421875 11.734375 6.484375 
Q 5.515625 14.40625 5.515625 27.296875 
Q 5.515625 40.1875 11.734375 48.09375 
Q 17.96875 56 27.875 56 
Q 33.9375 56 38.25 53.625 
Q 42.578125 51.265625 45.40625 46.390625 
z
M 14.796875 27.296875 
Q 14.796875 17.390625 18.875 11.75 
Q 22.953125 6.109375 30.078125 6.109375 
Q 37.203125 6.109375 41.296875 11.75 
Q 45.40625 17.390625 45.40625 27.296875 
Q 45.40625 37.203125 41.296875 42.84375 
Q 37.203125 48.484375 30.078125 48.484375 
Q 22.953125 48.484375 18.875 42.84375 
Q 14.796875 37.203125 14.796875 27.296875 
z
" id="DejaVuSans-64"/>
      <path d="M 9.421875 54.6875 
L 18.40625 54.6875 
L 18.40625 0 
L 9.421875 0 
z
M 9.421875 75.984375 
L 18.40625 75.984375 
L 18.40625 64.59375 
L 9.421875 64.59375 
z
" id="DejaVuSans-69"/>
      <path d="M 52 44.1875 
Q 55.375 50.25 60.0625 53.125 
Q 64.75 56 71.09375 56 
Q 79.640625 56 84.28125 50.015625 
Q 88.921875 44.046875 88.921875 33.015625 
L 88.921875 0 
L 79.890625 0 
L 79.890625 32.71875 
Q 79.890625 40.578125 77.09375 44.375 
Q 74.3125 48.1875 68.609375 48.1875 
Q 61.625 48.1875 57.5625 43.546875 
Q 53.515625 38.921875 53.515625 30.90625 
L 53.515625 0 
L 44.484375 0 
L 44.484375 32.71875 
Q 44.484375 40.625 41.703125 44.40625 
Q 38.921875 48.1875 33.109375 48.1875 
Q 26.21875 48.1875 22.15625 43.53125 
Q 18.109375 38.875 18.109375 30.90625 
L 18.109375 0 
L 9.078125 0 
L 9.078125 54.6875 
L 18.109375 54.6875 
L 18.109375 46.1875 
Q 21.1875 51.21875 25.484375 53.609375 
Q 29.78125 56 35.6875 56 
Q 41.65625 56 45.828125 52.96875 
Q 50 49.953125 52 44.1875 
z
" id="DejaVuSans-6d"/>
      <path d="M 54.890625 33.015625 
L 54.890625 0 
L 45.90625 0 
L 45.90625 32.71875 
Q 45.90625 40.484375 42.875 44.328125 
Q 39.84375 48.1875 33.796875 48.1875 
Q 26.515625 48.1875 22.3125 43.546875 
Q 18.109375 38.921875 18.109375 30.90625 
L 18.109375 0 
L 9.078125 0 
L 9.078125 54.6875 
L 18.109375 54.6875 
L 18.109375 46.1875 
Q 21.34375 51.125 25.703125 53.5625 
Q 30.078125 56 35.796875 56 
Q 45.21875 56 50.046875 50.171875 
Q 54.890625 44.34375 54.890625 33.015625 
z
" id="DejaVuSans-6e"/>
      <path d="M 8.015625 75.875 
L 15.828125 75.875 
Q 23.140625 64.359375 26.78125 53.3125 
Q 30.421875 42.28125 30.421875 31.390625 
Q 30.421875 20.453125 26.78125 9.375 
Q 23.140625 -1.703125 15.828125 -13.1875 
L 8.015625 -13.1875 
Q 14.5 -2 17.703125 9.0625 
Q 20.90625 20.125 20.90625 31.390625 
Q 20.90625 42.671875 17.703125 53.65625 
Q 14.5 64.65625 8.015625 75.875 
z
" id="DejaVuSans-29"/>
     </defs>
     <g transform="translate(107.015156 342.278812)scale(0.18 -0.18)">
      <use xlink:href="#DejaVuSans-6c"/>
      <use x="27.783203" xlink:href="#DejaVuSans-6f"/>
      <use x="88.964844" xlink:href="#DejaVuSans-67"/>
      <use x="152.441406" xlink:href="#DejaVuSans-31"/>
      <use x="216.064453" xlink:href="#DejaVuSans-30"/>
      <use x="279.6875" xlink:href="#DejaVuSans-20"/>
      <use x="311.474609" xlink:href="#DejaVuSans-6f"/>
      <use x="372.65625" xlink:href="#DejaVuSans-66"/>
      <use x="407.861328" xlink:href="#DejaVuSans-20"/>
      <use x="439.648438" xlink:href="#DejaVuSans-28"/>
      <use x="478.662109" xlink:href="#DejaVuSans-23"/>
      <use x="562.451172" xlink:href="#DejaVuSans-20"/>
      <use x="594.238281" xlink:href="#DejaVuSans-66"/>
      <use x="629.365234" xlink:href="#DejaVuSans-2d"/>
      <use x="665.449219" xlink:href="#DejaVuSans-65"/>
      <use x="726.972656" xlink:href="#DejaVuSans-76"/>
      <use x="786.152344" xlink:href="#DejaVuSans-61"/>
      <use x="847.431641" xlink:href="#DejaVuSans-6c"/>
      <use x="875.214844" xlink:href="#DejaVuSans-73"/>
      <use x="927.314453" xlink:href="#DejaVuSans-20"/>
      <use x="959.101562" xlink:href="#DejaVuSans-2f"/>
      <use x="992.792969" xlink:href="#DejaVuSans-20"/>
      <use x="1024.580078" xlink:href="#DejaVuSans-64"/>
      <use x="1088.056641" xlink:href="#DejaVuSans-69"/>
      <use x="1115.839844" xlink:href="#DejaVuSans-6d"/>
      <use x="1213.251953" xlink:href="#DejaVuSans-65"/>
      <use x="1274.775391" xlink:href="#DejaVuSans-6e"/>
      <use x="1338.154297" xlink:href="#DejaVuSans-73"/>
      <use x="1390.253906" xlink:href="#DejaVuSans-69"/>
      <use x="1418.037109" xlink:href="#DejaVuSans-6f"/>
      <use x="1479.21875" xlink:href="#DejaVuSans-6e"/>
      <use x="1542.597656" xlink:href="#DejaVuSans-29"/>
     </g>
    </g>
   </g>
   <g id="matplotlib.axis_2">
    <g id="ytick_1">
     <g id="line2d_11">
      <path clip-path="url(#p418e3a4f30)" d="M 70.8 298.245375 
L 427.92 298.245375 
" style="fill:none;stroke:#b0b0b0;stroke-linecap:square;stroke-width:0.8;"/>
     </g>
     <g id="line2d_12">
      <defs>
       <path d="M 0 0 
L -3.5 0 
" id="mee660655e9" style="stroke:#000000;stroke-width:0.8;"/>
      </defs>
      <g>
       <use style="stroke:#000000;stroke-width:0.8;" x="70.8" xlink:href="#mee660655e9" y="298.245375"/>
      </g>
     </g>
     <g id="text_7">
      <!-- 0.0 -->
      <defs>
       <path d="M 10.6875 12.40625 
L 21 12.40625 
L 21 0 
L 10.6875 0 
z
" id="DejaVuSans-2e"/>
      </defs>
      <g transform="translate(31.99375 305.843812)scale(0.2 -0.2)">
       <use xlink:href="#DejaVuSans-30"/>
       <use x="63.623047" xlink:href="#DejaVuSans-2e"/>
       <use x="95.410156" xlink:href="#DejaVuSans-30"/>
      </g>
     </g>
    </g>
    <g id="ytick_2">
     <g id="line2d_13">
      <path clip-path="url(#p418e3a4f30)" d="M 70.8 245.549929 
L 427.92 245.549929 
" style="fill:none;stroke:#b0b0b0;stroke-linecap:square;stroke-width:0.8;"/>
     </g>
     <g id="line2d_14">
      <g>
       <use style="stroke:#000000;stroke-width:0.8;" x="70.8" xlink:href="#mee660655e9" y="245.549929"/>
      </g>
     </g>
     <g id="text_8">
      <!-- 0.2 -->
      <g transform="translate(31.99375 253.148367)scale(0.2 -0.2)">
       <use xlink:href="#DejaVuSans-30"/>
       <use x="63.623047" xlink:href="#DejaVuSans-2e"/>
       <use x="95.410156" xlink:href="#DejaVuSans-32"/>
      </g>
     </g>
    </g>
    <g id="ytick_3">
     <g id="line2d_15">
      <path clip-path="url(#p418e3a4f30)" d="M 70.8 192.854484 
L 427.92 192.854484 
" style="fill:none;stroke:#b0b0b0;stroke-linecap:square;stroke-width:0.8;"/>
     </g>
     <g id="line2d_16">
      <g>
       <use style="stroke:#000000;stroke-width:0.8;" x="70.8" xlink:href="#mee660655e9" y="192.854484"/>
      </g>
     </g>
     <g id="text_9">
      <!-- 0.4 -->
      <g transform="translate(31.99375 200.452921)scale(0.2 -0.2)">
       <use xlink:href="#DejaVuSans-30"/>
       <use x="63.623047" xlink:href="#DejaVuSans-2e"/>
       <use x="95.410156" xlink:href="#DejaVuSans-34"/>
      </g>
     </g>
    </g>
    <g id="ytick_4">
     <g id="line2d_17">
      <path clip-path="url(#p418e3a4f30)" d="M 70.8 140.159038 
L 427.92 140.159038 
" style="fill:none;stroke:#b0b0b0;stroke-linecap:square;stroke-width:0.8;"/>
     </g>
     <g id="line2d_18">
      <g>
       <use style="stroke:#000000;stroke-width:0.8;" x="70.8" xlink:href="#mee660655e9" y="140.159038"/>
      </g>
     </g>
     <g id="text_10">
      <!-- 0.6 -->
      <g transform="translate(31.99375 147.757476)scale(0.2 -0.2)">
       <use xlink:href="#DejaVuSans-30"/>
       <use x="63.623047" xlink:href="#DejaVuSans-2e"/>
       <use x="95.410156" xlink:href="#DejaVuSans-36"/>
      </g>
     </g>
    </g>
    <g id="ytick_5">
     <g id="line2d_19">
      <path clip-path="url(#p418e3a4f30)" d="M 70.8 87.463593 
L 427.92 87.463593 
" style="fill:none;stroke:#b0b0b0;stroke-linecap:square;stroke-width:0.8;"/>
     </g>
     <g id="line2d_20">
      <g>
       <use style="stroke:#000000;stroke-width:0.8;" x="70.8" xlink:href="#mee660655e9" y="87.463593"/>
      </g>
     </g>
     <g id="text_11">
      <!-- 0.8 -->
      <g transform="translate(31.99375 95.06203)scale(0.2 -0.2)">
       <use xlink:href="#DejaVuSans-30"/>
       <use x="63.623047" xlink:href="#DejaVuSans-2e"/>
       <use x="95.410156" xlink:href="#DejaVuSans-38"/>
      </g>
     </g>
    </g>
    <g id="ytick_6">
     <g id="line2d_21">
      <path clip-path="url(#p418e3a4f30)" d="M 70.8 34.768147 
L 427.92 34.768147 
" style="fill:none;stroke:#b0b0b0;stroke-linecap:square;stroke-width:0.8;"/>
     </g>
     <g id="line2d_22">
      <g>
       <use style="stroke:#000000;stroke-width:0.8;" x="70.8" xlink:href="#mee660655e9" y="34.768147"/>
      </g>
     </g>
     <g id="text_12">
      <!-- 1.0 -->
      <g transform="translate(31.99375 42.366585)scale(0.2 -0.2)">
       <use xlink:href="#DejaVuSans-31"/>
       <use x="63.623047" xlink:href="#DejaVuSans-2e"/>
       <use x="95.410156" xlink:href="#DejaVuSans-30"/>
      </g>
     </g>
    </g>
    <g id="text_13">
     <!-- Proportion of function+target pairs -->
     <defs>
      <path d="M 19.671875 64.796875 
L 19.671875 37.40625 
L 32.078125 37.40625 
Q 38.96875 37.40625 42.71875 40.96875 
Q 46.484375 44.53125 46.484375 51.125 
Q 46.484375 57.671875 42.71875 61.234375 
Q 38.96875 64.796875 32.078125 64.796875 
z
M 9.8125 72.90625 
L 32.078125 72.90625 
Q 44.34375 72.90625 50.609375 67.359375 
Q 56.890625 61.8125 56.890625 51.125 
Q 56.890625 40.328125 50.609375 34.8125 
Q 44.34375 29.296875 32.078125 29.296875 
L 19.671875 29.296875 
L 19.671875 0 
L 9.8125 0 
z
" id="DejaVuSans-50"/>
      <path d="M 41.109375 46.296875 
Q 39.59375 47.171875 37.8125 47.578125 
Q 36.03125 48 33.890625 48 
Q 26.265625 48 22.1875 43.046875 
Q 18.109375 38.09375 18.109375 28.8125 
L 18.109375 0 
L 9.078125 0 
L 9.078125 54.6875 
L 18.109375 54.6875 
L 18.109375 46.1875 
Q 20.953125 51.171875 25.484375 53.578125 
Q 30.03125 56 36.53125 56 
Q 37.453125 56 38.578125 55.875 
Q 39.703125 55.765625 41.0625 55.515625 
z
" id="DejaVuSans-72"/>
      <path d="M 18.109375 8.203125 
L 18.109375 -20.796875 
L 9.078125 -20.796875 
L 9.078125 54.6875 
L 18.109375 54.6875 
L 18.109375 46.390625 
Q 20.953125 51.265625 25.265625 53.625 
Q 29.59375 56 35.59375 56 
Q 45.5625 56 51.78125 48.09375 
Q 58.015625 40.1875 58.015625 27.296875 
Q 58.015625 14.40625 51.78125 6.484375 
Q 45.5625 -1.421875 35.59375 -1.421875 
Q 29.59375 -1.421875 25.265625 0.953125 
Q 20.953125 3.328125 18.109375 8.203125 
z
M 48.6875 27.296875 
Q 48.6875 37.203125 44.609375 42.84375 
Q 40.53125 48.484375 33.40625 48.484375 
Q 26.265625 48.484375 22.1875 42.84375 
Q 18.109375 37.203125 18.109375 27.296875 
Q 18.109375 17.390625 22.1875 11.75 
Q 26.265625 6.109375 33.40625 6.109375 
Q 40.53125 6.109375 44.609375 11.75 
Q 48.6875 17.390625 48.6875 27.296875 
z
" id="DejaVuSans-70"/>
      <path d="M 18.3125 70.21875 
L 18.3125 54.6875 
L 36.8125 54.6875 
L 36.8125 47.703125 
L 18.3125 47.703125 
L 18.3125 18.015625 
Q 18.3125 11.328125 20.140625 9.421875 
Q 21.96875 7.515625 27.59375 7.515625 
L 36.8125 7.515625 
L 36.8125 0 
L 27.59375 0 
Q 17.1875 0 13.234375 3.875 
Q 9.28125 7.765625 9.28125 18.015625 
L 9.28125 47.703125 
L 2.6875 47.703125 
L 2.6875 54.6875 
L 9.28125 54.6875 
L 9.28125 70.21875 
z
" id="DejaVuSans-74"/>
      <path d="M 8.5 21.578125 
L 8.5 54.6875 
L 17.484375 54.6875 
L 17.484375 21.921875 
Q 17.484375 14.15625 20.5 10.265625 
Q 23.53125 6.390625 29.59375 6.390625 
Q 36.859375 6.390625 41.078125 11.03125 
Q 45.3125 15.671875 45.3125 23.6875 
L 45.3125 54.6875 
L 54.296875 54.6875 
L 54.296875 0 
L 45.3125 0 
L 45.3125 8.40625 
Q 42.046875 3.421875 37.71875 1 
Q 33.40625 -1.421875 27.6875 -1.421875 
Q 18.265625 -1.421875 13.375 4.4375 
Q 8.5 10.296875 8.5 21.578125 
z
M 31.109375 56 
z
" id="DejaVuSans-75"/>
      <path d="M 48.78125 52.59375 
L 48.78125 44.1875 
Q 44.96875 46.296875 41.140625 47.34375 
Q 37.3125 48.390625 33.40625 48.390625 
Q 24.65625 48.390625 19.8125 42.84375 
Q 14.984375 37.3125 14.984375 27.296875 
Q 14.984375 17.28125 19.8125 11.734375 
Q 24.65625 6.203125 33.40625 6.203125 
Q 37.3125 6.203125 41.140625 7.25 
Q 44.96875 8.296875 48.78125 10.40625 
L 48.78125 2.09375 
Q 45.015625 0.34375 40.984375 -0.53125 
Q 36.96875 -1.421875 32.421875 -1.421875 
Q 20.0625 -1.421875 12.78125 6.34375 
Q 5.515625 14.109375 5.515625 27.296875 
Q 5.515625 40.671875 12.859375 48.328125 
Q 20.21875 56 33.015625 56 
Q 37.15625 56 41.109375 55.140625 
Q 45.0625 54.296875 48.78125 52.59375 
z
" id="DejaVuSans-63"/>
      <path d="M 46 62.703125 
L 46 35.5 
L 73.1875 35.5 
L 73.1875 27.203125 
L 46 27.203125 
L 46 0 
L 37.796875 0 
L 37.796875 27.203125 
L 10.59375 27.203125 
L 10.59375 35.5 
L 37.796875 35.5 
L 37.796875 62.703125 
z
" id="DejaVuSans-2b"/>
     </defs>
     <g transform="translate(24.250312 323.17875)rotate(-90)scale(0.18 -0.18)">
      <use xlink:href="#DejaVuSans-50"/>
      <use x="60.287109" xlink:href="#DejaVuSans-72"/>
      <use x="101.369141" xlink:href="#DejaVuSans-6f"/>
      <use x="162.550781" xlink:href="#DejaVuSans-70"/>
      <use x="226.027344" xlink:href="#DejaVuSans-6f"/>
      <use x="287.208984" xlink:href="#DejaVuSans-72"/>
      <use x="328.322266" xlink:href="#DejaVuSans-74"/>
      <use x="367.53125" xlink:href="#DejaVuSans-69"/>
      <use x="395.314453" xlink:href="#DejaVuSans-6f"/>
      <use x="456.496094" xlink:href="#DejaVuSans-6e"/>
      <use x="519.875" xlink:href="#DejaVuSans-20"/>
      <use x="551.662109" xlink:href="#DejaVuSans-6f"/>
      <use x="612.84375" xlink:href="#DejaVuSans-66"/>
      <use x="648.048828" xlink:href="#DejaVuSans-20"/>
      <use x="679.835938" xlink:href="#DejaVuSans-66"/>
      <use x="715.041016" xlink:href="#DejaVuSans-75"/>
      <use x="778.419922" xlink:href="#DejaVuSans-6e"/>
      <use x="841.798828" xlink:href="#DejaVuSans-63"/>
      <use x="896.779297" xlink:href="#DejaVuSans-74"/>
      <use x="935.988281" xlink:href="#DejaVuSans-69"/>
      <use x="963.771484" xlink:href="#DejaVuSans-6f"/>
      <use x="1024.953125" xlink:href="#DejaVuSans-6e"/>
      <use x="1088.332031" xlink:href="#DejaVuSans-2b"/>
      <use x="1172.121094" xlink:href="#DejaVuSans-74"/>
      <use x="1211.330078" xlink:href="#DejaVuSans-61"/>
      <use x="1272.609375" xlink:href="#DejaVuSans-72"/>
      <use x="1313.707031" xlink:href="#DejaVuSans-67"/>
      <use x="1377.183594" xlink:href="#DejaVuSans-65"/>
      <use x="1438.707031" xlink:href="#DejaVuSans-74"/>
      <use x="1477.916016" xlink:href="#DejaVuSans-20"/>
      <use x="1509.703125" xlink:href="#DejaVuSans-70"/>
      <use x="1573.179688" xlink:href="#DejaVuSans-61"/>
      <use x="1634.458984" xlink:href="#DejaVuSans-69"/>
      <use x="1662.242188" xlink:href="#DejaVuSans-72"/>
      <use x="1703.355469" xlink:href="#DejaVuSans-73"/>
     </g>
    </g>
   </g>
   <g id="line2d_23">
    <defs>
     <path d="M 0 1.5 
C 0.397805 1.5 0.77937 1.341951 1.06066 1.06066 
C 1.341951 0.77937 1.5 0.397805 1.5 0 
C 1.5 -0.397805 1.341951 -0.77937 1.06066 -1.06066 
C 0.77937 -1.341951 0.397805 -1.5 0 -1.5 
C -0.397805 -1.5 -0.77937 -1.341951 -1.06066 -1.06066 
C -1.341951 -0.77937 -1.5 -0.397805 -1.5 0 
C -1.5 0.397805 -1.341951 0.77937 -1.06066 1.06066 
C -0.77937 1.341951 -0.397805 1.5 0 1.5 
z
" id="mab088f1a23" style="stroke:#00bfbf;"/>
    </defs>
    <g>
     <use style="fill:#00bfbf;stroke:#00bfbf;" x="178.664042" xlink:href="#mab088f1a23" y="34.768147"/>
     <use style="fill:#00bfbf;stroke:#00bfbf;" x="178.664042" xlink:href="#mab088f1a23" y="34.768147"/>
    </g>
   </g>
   <g id="line2d_24">
    <path d="M 58.414766 298.245375 
L 58.414766 297.212131 
L 116.630812 297.212131 
L 116.630812 293.595777 
L 125.19988 293.595777 
L 125.19988 292.562533 
L 125.620325 292.562533 
L 125.620325 291.012667 
L 130.018259 291.012667 
L 130.018259 289.979423 
L 133.809418 289.979423 
L 133.809418 287.396313 
L 134.580824 287.396313 
L 134.580824 286.879691 
L 134.830731 286.879691 
L 134.830731 282.746715 
L 137.371122 282.746715 
L 137.371122 280.680226 
L 139.403779 280.680226 
L 139.403779 277.063872 
L 144.106507 277.063872 
L 144.106507 275.514006 
L 145.111405 275.514006 
L 145.111405 274.997384 
L 145.661236 274.997384 
L 145.661236 274.480762 
L 146.062784 274.480762 
L 146.062784 272.930896 
L 146.194652 272.930896 
L 146.194652 271.897652 
L 146.455505 271.897652 
L 146.455505 268.79792 
L 146.839781 268.79792 
L 146.839781 267.764676 
L 147.091449 267.764676 
L 147.091449 267.248054 
L 147.584393 267.248054 
L 147.584393 265.698188 
L 150.07639 265.698188 
L 150.07639 265.181566 
L 150.597364 265.181566 
L 150.597364 264.148322 
L 151.20312 264.148322 
L 151.20312 263.6317 
L 153.174832 263.6317 
L 153.174832 262.081834 
L 153.957503 262.081834 
L 154.042387 260.015346 
L 155.269513 260.015346 
L 155.269513 258.982102 
L 155.660516 258.982102 
L 155.660516 258.46548 
L 157.97866 258.46548 
L 157.97866 256.398992 
L 158.248372 256.398992 
L 158.248372 254.849126 
L 159.414097 254.849126 
L 159.414097 254.332504 
L 161.427868 254.332504 
L 161.427868 252.782638 
L 163.834815 252.782638 
L 163.834815 251.749394 
L 164.12615 251.749394 
L 164.174247 250.199528 
L 164.880588 250.199528 
L 164.880588 249.682906 
L 165.018567 249.682906 
L 165.018567 248.649662 
L 165.648742 248.649662 
L 165.73698 246.066551 
L 165.780936 246.066551 
L 165.824784 244.000063 
L 165.955687 244.000063 
L 165.999108 242.966819 
L 166.171749 242.966819 
L 166.171749 241.416953 
L 166.596189 241.416953 
L 166.596189 240.383709 
L 166.72158 240.383709 
L 166.804688 237.800599 
L 166.928629 237.800599 
L 167.010781 235.734111 
L 167.133306 235.734111 
L 167.214525 232.117757 
L 167.254996 232.117757 
L 167.254996 229.018025 
L 167.45599 229.018025 
L 167.495918 226.434915 
L 167.575509 226.434915 
L 167.654747 222.301939 
L 167.733635 222.301939 
L 167.733635 221.785317 
L 167.851318 221.785317 
L 167.851318 220.235451 
L 167.968231 220.235451 
L 167.968231 219.718829 
L 168.27631 219.718829 
L 168.314449 217.135719 
L 168.503932 217.135719 
L 168.503932 216.619097 
L 168.691427 216.619097 
L 168.728691 209.90301 
L 168.802987 209.90301 
L 168.913855 207.836522 
L 169.024039 207.836522 
L 169.097119 201.637058 
L 169.169902 201.637058 
L 169.242389 200.603814 
L 169.458103 200.603814 
L 169.529433 195.954216 
L 169.706522 195.954216 
L 169.776869 191.304618 
L 169.881873 191.304618 
L 169.986263 185.621776 
L 170.020925 185.621776 
L 170.020925 185.105154 
L 170.193232 185.105154 
L 170.295825 179.938934 
L 170.465514 179.938934 
L 170.566559 175.289335 
L 170.600114 175.289335 
L 170.600114 173.222847 
L 170.766951 173.222847 
L 170.833252 171.156359 
L 170.899308 171.156359 
L 170.899308 170.639737 
L 171.063387 170.639737 
L 171.128599 167.023383 
L 171.258314 167.023383 
L 171.290596 163.407029 
L 171.387094 163.407029 
L 171.451137 159.790675 
L 171.546774 159.790675 
L 171.546774 157.207565 
L 171.799331 157.207565 
L 171.830651 152.041345 
L 171.924284 152.041345 
L 171.924284 148.941613 
L 172.048368 148.941613 
L 172.110089 147.908369 
L 172.354862 147.908369 
L 172.445794 142.225526 
L 172.566321 142.225526 
L 172.656186 132.92633 
L 172.775307 132.92633 
L 172.86413 129.826598 
L 173.011193 129.826598 
L 173.040461 128.276732 
L 173.127979 128.276732 
L 173.186087 122.59389 
L 173.272895 122.59389 
L 173.359285 112.778072 
L 173.387988 112.778072 
L 173.445258 103.478875 
L 173.587634 103.478875 
L 173.615974 99.345899 
L 173.700724 99.345899 
L 173.785074 96.762789 
L 173.952589 96.762789 
L 173.952589 95.212923 
L 174.090995 95.212923 
L 174.090995 92.629813 
L 174.391766 92.629813 
L 174.391766 89.530081 
L 174.580563 89.530081 
L 174.687558 85.397105 
L 175.109244 85.397105 
L 175.213128 83.330617 
L 175.342141 83.330617 
L 175.393486 80.747507 
L 175.521207 80.747507 
L 175.622731 78.681019 
L 175.648022 78.681019 
L 175.648022 76.097908 
L 175.898983 76.097908 
L 175.923886 71.964932 
L 176.023153 71.964932 
L 176.072581 68.348578 
L 176.171028 68.348578 
L 176.220049 64.732224 
L 176.487286 64.732224 
L 176.583481 62.665736 
L 176.679161 62.665736 
L 176.774331 59.049382 
L 176.845377 59.049382 
L 176.892585 55.94965 
L 176.963163 55.94965 
L 176.963163 50.266808 
L 177.103489 50.266808 
L 177.150021 48.716942 
L 177.334945 48.716942 
L 177.403801 46.133832 
L 177.517975 46.133832 
L 177.517975 44.583966 
L 177.699148 44.583966 
L 177.766618 40.450989 
L 177.989693 40.450989 
L 178.011848 37.867879 
L 178.362645 37.867879 
L 178.362645 35.801391 
L 178.621295 35.801391 
L 178.664042 34.768147 
L 358.8 34.768147 
L 358.8 34.768147 
" style="fill:none;stroke:#00bfbf;stroke-linecap:square;stroke-width:1.5;"/>
   </g>
   <g id="line2d_25">
    <defs>
     <path d="M -6 0 
L 6 0 
M 0 6 
L 0 -6 
" id="m0406819540" style="stroke:#00bfbf;stroke-width:1.5;"/>
    </defs>
    <g>
     <use style="fill:none;stroke:#00bfbf;stroke-width:1.5;" x="165.780936" xlink:href="#m0406819540" y="245.549929"/>
     <use style="fill:none;stroke:#00bfbf;stroke-width:1.5;" x="173.615974" xlink:href="#m0406819540" y="102.445631"/>
     <use style="fill:none;stroke:#00bfbf;stroke-width:1.5;" x="178.664042" xlink:href="#m0406819540" y="35.284769"/>
     <use style="fill:none;stroke:#00bfbf;stroke-width:1.5;" x="178.664042" xlink:href="#m0406819540" y="34.768147"/>
     <use style="fill:none;stroke:#00bfbf;stroke-width:1.5;" x="178.664042" xlink:href="#m0406819540" y="34.768147"/>
     <use style="fill:none;stroke:#00bfbf;stroke-width:1.5;" x="358.8" xlink:href="#m0406819540" y="34.768147"/>
    </g>
   </g>
   <g id="line2d_26"/>
   <g id="line2d_27">
    <defs>
     <path d="M 0 1.5 
C 0.397805 1.5 0.77937 1.341951 1.06066 1.06066 
C 1.341951 0.77937 1.5 0.397805 1.5 0 
C 1.5 -0.397805 1.341951 -0.77937 1.06066 -1.06066 
C 0.77937 -1.341951 0.397805 -1.5 0 -1.5 
C -0.397805 -1.5 -0.77937 -1.341951 -1.06066 -1.06066 
C -1.341951 -0.77937 -1.5 -0.397805 -1.5 0 
C -1.5 0.397805 -1.341951 0.77937 -1.06066 1.06066 
C -0.77937 1.341951 -0.397805 1.5 0 1.5 
z
" id="mcb039c67c2" style="stroke:#008000;"/>
    </defs>
    <g>
     <use style="fill:#008000;stroke:#008000;" x="180.482477" xlink:href="#mcb039c67c2" y="34.768147"/>
     <use style="fill:#008000;stroke:#008000;" x="180.482477" xlink:href="#mcb039c67c2" y="34.768147"/>
    </g>
   </g>
   <g id="line2d_28">
    <path d="M 137.585114 298.245375 
L 137.585114 297.728753 
L 140.937147 297.728753 
L 140.937147 296.178887 
L 147.78584 296.178887 
L 147.78584 294.629021 
L 148.8738 294.629021 
L 148.8738 294.112399 
L 150.459916 294.112399 
L 150.459916 293.595777 
L 152.043367 293.595777 
L 152.043367 289.462801 
L 152.479957 289.462801 
L 152.541466 287.912935 
L 153.263508 287.912935 
L 153.263508 285.846447 
L 154.070592 285.846447 
L 154.070592 285.329825 
L 154.238896 285.329825 
L 154.294647 281.196849 
L 154.350224 281.196849 
L 154.350224 280.163604 
L 154.515927 280.163604 
L 154.515927 279.13036 
L 154.950431 279.13036 
L 155.057426 278.097116 
L 155.426942 278.097116 
L 155.426942 277.580494 
L 156.093549 277.580494 
L 156.093549 276.54725 
L 156.589918 276.54725 
L 156.589918 276.030628 
L 157.356496 276.030628 
L 157.450047 273.447518 
L 157.496639 273.447518 
L 157.496639 271.38103 
L 157.819426 271.38103 
L 157.91059 266.21481 
L 158.04647 266.21481 
L 158.04647 265.181566 
L 158.403845 265.181566 
L 158.403845 264.148322 
L 158.797528 264.148322 
L 158.883847 262.598456 
L 159.683732 262.598456 
L 159.683732 262.081834 
L 160.010099 262.081834 
L 160.010099 260.015346 
L 160.130966 260.015346 
L 160.130966 258.982102 
L 160.251021 258.982102 
L 160.251021 258.46548 
L 160.370275 258.46548 
L 160.40985 257.432236 
L 160.528052 257.432236 
L 160.567279 256.398992 
L 160.916504 256.398992 
L 160.916504 255.365748 
L 161.259034 255.365748 
L 161.259034 254.332504 
L 161.595122 254.332504 
L 161.595122 253.29926 
L 162.67184 253.29926 
L 162.706637 251.232772 
L 163.016795 251.232772 
L 163.118996 249.166284 
L 163.254361 249.166284 
L 163.254361 248.649662 
L 163.720223 248.649662 
L 163.720223 248.13304 
L 165.170637 248.13304 
L 165.170637 247.616418 
L 165.351429 247.616418 
L 165.351429 247.099796 
L 165.500704 247.099796 
L 165.500704 246.583173 
L 166.085637 246.583173 
L 166.085637 246.066551 
L 166.62413 246.066551 
L 166.62413 245.549929 
L 166.901161 245.549929 
L 166.901161 245.033307 
L 167.362474 245.033307 
L 167.362474 241.933575 
L 167.575509 241.933575 
L 167.575509 240.383709 
L 167.733635 240.383709 
L 167.733635 239.867087 
L 168.04575 239.867087 
L 168.04575 239.350465 
L 168.174206 239.350465 
L 168.225331 238.317221 
L 168.377833 238.317221 
L 168.42838 235.734111 
L 168.579166 235.734111 
L 168.604174 234.184245 
L 168.802987 234.184245 
L 168.852346 230.051269 
L 168.926131 230.051269 
L 168.975152 228.501403 
L 169.097119 228.501403 
L 169.194097 226.951537 
L 169.242389 226.951537 
L 169.314583 224.368427 
L 169.362552 224.368427 
L 169.434263 223.335183 
L 169.505688 223.335183 
L 169.600479 221.785317 
L 169.647687 221.785317 
L 169.74173 218.168963 
L 169.788567 218.168963 
L 169.835281 213.002743 
L 170.043996 213.002743 
L 170.067036 210.936254 
L 170.158903 210.936254 
L 170.204661 209.386388 
L 170.273077 209.386388 
L 170.295825 207.3199 
L 170.386526 207.3199 
L 170.476769 204.73679 
L 170.52172 204.73679 
L 170.566559 202.15368 
L 170.700403 202.15368 
L 170.744796 195.954216 
L 170.899308 195.954216 
L 170.965121 190.787996 
L 171.052495 190.787996 
L 171.096023 184.07191 
L 171.225974 184.07191 
L 171.333548 177.355823 
L 171.376398 177.355823 
L 171.461789 174.256091 
L 171.504332 174.256091 
L 171.610249 169.606493 
L 171.736526 169.606493 
L 171.757486 167.023383 
L 171.861917 167.023383 
L 171.88273 164.956895 
L 172.048368 164.956895 
L 172.089539 162.890407 
L 172.212485 162.890407 
L 172.314298 161.857163 
L 172.375109 161.857163 
L 172.435713 158.757431 
L 172.536265 158.757431 
L 172.616302 157.207565 
L 172.656186 157.207565 
L 172.695981 156.174321 
L 172.775307 156.174321 
L 172.834571 155.141077 
L 172.972095 155.141077 
L 173.050207 149.458235 
L 173.127979 149.458235 
L 173.22472 145.841881 
L 173.244006 145.841881 
L 173.301738 141.192282 
L 173.359285 141.192282 
L 173.454785 139.642416 
L 173.492843 139.642416 
L 173.568716 135.50944 
L 173.663107 135.50944 
L 173.663107 134.992818 
L 173.775721 134.992818 
L 173.831764 133.959574 
L 173.924778 133.959574 
L 173.961849 132.92633 
L 174.090995 132.92633 
L 174.146058 127.76011 
L 174.237455 127.76011 
L 174.346519 123.110512 
L 174.364631 123.110512 
L 174.436899 113.811316 
L 174.544755 113.811316 
L 174.63414 111.744828 
L 174.66977 111.744828 
L 174.740816 108.645095 
L 174.793916 108.645095 
L 174.899645 105.028741 
L 175.022209 105.028741 
L 175.03965 102.962253 
L 175.367832 102.962253 
L 175.453203 97.796033 
L 175.521207 97.796033 
L 175.555112 95.212923 
L 175.639595 95.212923 
L 175.740451 92.629813 
L 175.773943 92.629813 
L 175.773943 92.113191 
L 175.907288 92.113191 
L 175.990125 86.946971 
L 176.023153 86.946971 
L 176.023153 86.430349 
L 176.350118 86.430349 
L 176.430933 82.297373 
L 176.591474 82.297373 
L 176.671207 78.681019 
L 176.766419 78.681019 
L 176.829613 77.131153 
L 176.939668 77.131153 
L 176.986628 74.03142 
L 177.06462 74.03142 
L 177.173241 69.381822 
L 177.281206 69.381822 
L 177.373231 66.798712 
L 177.510386 66.798712 
L 177.58613 61.11587 
L 177.736663 61.11587 
L 177.796523 58.53276 
L 177.885938 58.53276 
L 177.974908 55.433028 
L 178.048713 55.433028 
L 178.063437 53.36654 
L 178.195414 53.36654 
L 178.239191 45.61721 
L 178.311914 45.61721 
L 178.340921 43.0341 
L 178.897338 43.0341 
L 178.897338 42.517478 
L 179.065115 42.517478 
L 179.148416 40.967611 
L 179.38235 40.967611 
L 179.38235 39.934367 
L 179.734309 39.934367 
L 179.827894 37.867879 
L 180.131984 37.867879 
L 180.131984 37.351257 
L 180.24958 37.351257 
L 180.24958 35.284769 
L 180.482477 35.284769 
L 180.482477 34.768147 
L 358.8 34.768147 
L 358.8 34.768147 
" style="fill:none;stroke:#008000;stroke-linecap:square;stroke-width:1.5;"/>
   </g>
   <g id="line2d_29">
    <defs>
     <path d="M -0 6 
L 6 -6 
L -6 -6 
z
" id="mf718315568" style="stroke:#008000;stroke-linejoin:miter;stroke-width:1.5;"/>
    </defs>
    <g>
     <use style="fill:none;stroke:#008000;stroke-linejoin:miter;stroke-width:1.5;" x="172.616302" xlink:href="#mf718315568" y="158.240809"/>
     <use style="fill:none;stroke:#008000;stroke-linejoin:miter;stroke-width:1.5;" x="178.311914" xlink:href="#mf718315568" y="45.61721"/>
     <use style="fill:none;stroke:#008000;stroke-linejoin:miter;stroke-width:1.5;" x="180.482477" xlink:href="#mf718315568" y="34.768147"/>
     <use style="fill:none;stroke:#008000;stroke-linejoin:miter;stroke-width:1.5;" x="180.482477" xlink:href="#mf718315568" y="34.768147"/>
     <use style="fill:none;stroke:#008000;stroke-linejoin:miter;stroke-width:1.5;" x="358.8" xlink:href="#mf718315568" y="34.768147"/>
    </g>
   </g>
   <g id="line2d_30"/>
   <g id="line2d_31">
    <defs>
     <path d="M 0 1.5 
C 0.397805 1.5 0.77937 1.341951 1.06066 1.06066 
C 1.341951 0.77937 1.5 0.397805 1.5 0 
C 1.5 -0.397805 1.341951 -0.77937 1.06066 -1.06066 
C 0.77937 -1.341951 0.397805 -1.5 0 -1.5 
C -0.397805 -1.5 -0.77937 -1.341951 -1.06066 -1.06066 
C -1.341951 -0.77937 -1.5 -0.397805 -1.5 0 
C -1.5 0.397805 -1.341951 0.77937 -1.06066 1.06066 
C -0.77937 1.341951 -0.397805 1.5 0 1.5 
z
" id="mead972f826" style="stroke:#0000ff;"/>
    </defs>
    <g>
     <use style="fill:#0000ff;stroke:#0000ff;" x="180.158183" xlink:href="#mead972f826" y="34.768147"/>
     <use style="fill:#0000ff;stroke:#0000ff;" x="180.158183" xlink:href="#mead972f826" y="34.768147"/>
    </g>
   </g>
   <g id="line2d_32">
    <path d="M 150.097524 298.245375 
L 150.097524 297.212131 
L 150.882607 297.212131 
L 150.882607 296.695509 
L 151.321846 296.695509 
L 151.321846 295.662265 
L 152.65165 295.662265 
L 152.65165 295.145643 
L 153.121415 295.145643 
L 153.121415 294.629021 
L 153.923436 294.629021 
L 153.923436 294.112399 
L 154.394562 294.112399 
L 154.394562 293.595777 
L 154.853585 293.595777 
L 154.853585 293.079155 
L 155.582997 293.079155 
L 155.582997 292.562533 
L 156.223937 292.562533 
L 156.223937 291.012667 
L 156.521251 291.012667 
L 156.521251 289.979423 
L 156.638804 289.979423 
L 156.668072 288.946179 
L 156.813698 288.946179 
L 156.813698 287.396313 
L 157.215245 287.396313 
L 157.27188 285.329825 
L 157.496639 285.329825 
L 157.496639 284.296581 
L 157.718606 284.296581 
L 157.801138 282.230093 
L 158.019377 282.230093 
L 158.127505 279.646982 
L 158.181325 279.646982 
L 158.234983 278.613738 
L 158.315169 278.613738 
L 158.341818 277.063872 
L 158.606144 277.063872 
L 158.684685 273.96414 
L 158.84074 273.96414 
L 158.84074 272.414274 
L 159.551497 272.414274 
L 159.650765 269.831164 
L 159.700192 269.831164 
L 159.749484 267.764676 
L 159.823167 267.764676 
L 159.87212 266.21481 
L 159.993921 266.21481 
L 160.018182 264.664944 
L 160.306772 264.664944 
L 160.306772 264.148322 
L 160.567279 264.148322 
L 160.614239 262.081834 
L 161.100004 262.081834 
L 161.100004 261.04859 
L 161.705761 261.04859 
L 161.705761 259.498724 
L 162.163105 259.498724 
L 162.163105 258.982102 
L 162.440466 258.982102 
L 162.440466 258.46548 
L 162.817533 258.46548 
L 162.817533 257.948858 
L 163.408774 257.948858 
L 163.448837 256.398992 
L 164.058595 256.398992 
L 164.058595 254.332504 
L 164.19345 254.332504 
L 164.19345 253.815882 
L 164.441225 253.815882 
L 164.441225 253.29926 
L 164.722914 253.29926 
L 164.722914 251.232772 
L 164.88982 251.232772 
L 165.000231 250.199528 
L 165.23714 250.199528 
L 165.23714 249.166284 
L 165.754575 249.166284 
L 165.754575 248.649662 
L 165.87726 248.649662 
L 165.929583 247.616418 
L 166.016448 247.616418 
L 166.016448 247.099796 
L 166.206077 247.099796 
L 166.206077 246.583173 
L 166.359746 246.583173 
L 166.359746 246.066551 
L 166.512104 246.066551 
L 166.612959 244.516685 
L 166.646451 244.516685 
L 166.646451 244.000063 
L 167.319561 244.000063 
L 167.351755 241.933575 
L 167.575509 241.933575 
L 167.575509 240.900331 
L 167.733635 240.900331 
L 167.827843 239.350465 
L 167.859136 239.350465 
L 167.968231 235.217489 
L 168.230435 235.217489 
L 168.291575 233.151001 
L 168.503932 233.151001 
L 168.594175 229.534647 
L 168.773306 229.534647 
L 168.862202 227.468159 
L 168.891736 227.468159 
L 168.994723 225.401671 
L 169.009387 225.401671 
L 169.038679 224.368427 
L 169.314583 224.368427 
L 169.37213 223.335183 
L 169.472392 223.335183 
L 169.572095 221.268695 
L 169.586293 221.268695 
L 169.657114 218.168963 
L 169.713569 218.168963 
L 169.811939 215.585853 
L 169.993201 215.585853 
L 170.020925 213.519365 
L 170.158903 213.519365 
L 170.268524 211.969498 
L 170.363894 211.969498 
L 170.363894 211.452876 
L 170.539669 211.452876 
L 170.566559 208.869766 
L 170.713732 208.869766 
L 170.793501 205.770034 
L 170.91249 205.770034 
L 170.978254 198.537326 
L 171.043777 198.537326 
L 171.109061 197.504082 
L 171.225974 197.504082 
L 171.31638 195.954216 
L 171.406331 195.954216 
L 171.406331 195.437594 
L 171.534052 195.437594 
L 171.610249 191.304618 
L 171.660867 191.304618 
L 171.749105 185.105154 
L 171.774236 185.105154 
L 171.874408 180.455556 
L 171.899363 180.455556 
L 171.974021 175.289335 
L 172.073082 175.289335 
L 172.085426 172.189603 
L 172.208401 172.189603 
L 172.281781 169.606493 
L 172.39129 169.606493 
L 172.451839 165.990139 
L 172.512184 165.990139 
L 172.596326 163.407029 
L 172.632266 163.407029 
L 172.668134 161.857163 
L 172.858222 161.857163 
L 172.952513 155.141077 
L 173.022906 155.141077 
L 173.116335 151.008101 
L 173.186087 151.008101 
L 173.290207 146.875125 
L 173.508043 146.875125 
L 173.610309 140.67566 
L 173.621636 140.67566 
L 173.711994 136.542684 
L 173.734512 136.542684 
L 173.813102 134.476196 
L 173.857857 134.476196 
L 173.958146 129.309976 
L 174.057875 129.309976 
L 174.113041 127.76011 
L 174.179015 127.76011 
L 174.288434 126.210244 
L 174.342894 126.210244 
L 174.397188 123.110512 
L 174.505283 123.110512 
L 174.569828 120.527402 
L 174.644837 120.527402 
L 174.719532 114.327938 
L 174.815112 114.327938 
L 174.899645 111.744828 
L 174.98378 111.744828 
L 175.07796 106.578607 
L 175.098822 106.578607 
L 175.202767 101.929009 
L 175.213128 101.929009 
L 175.306111 98.312655 
L 175.336998 98.312655 
L 175.378098 94.696301 
L 175.460015 94.696301 
L 175.521207 91.596569 
L 175.612604 91.596569 
L 175.673277 90.046703 
L 175.743803 90.046703 
L 175.854069 88.496837 
L 175.874045 88.496837 
L 175.983513 83.847239 
L 176.013251 83.847239 
L 176.03305 82.297373 
L 176.190653 82.297373 
L 176.23962 80.230885 
L 176.327424 80.230885 
L 176.414799 77.647775 
L 176.511384 77.647775 
L 176.617027 74.03142 
L 176.6266 74.03142 
L 176.731567 69.898444 
L 176.769584 69.898444 
L 176.845377 68.8652 
L 176.94907 68.8652 
L 177.033464 65.765468 
L 177.080178 65.765468 
L 177.182521 62.665736 
L 177.275054 62.665736 
L 177.311934 60.082626 
L 177.394635 60.082626 
L 177.504312 56.466272 
L 177.595198 56.466272 
L 177.685624 54.399784 
L 177.721667 54.399784 
L 177.766618 52.333296 
L 178.025128 52.333296 
L 178.122214 50.78343 
L 178.201257 50.78343 
L 178.297393 48.716942 
L 178.419004 48.716942 
L 178.427659 46.650454 
L 178.582735 46.650454 
L 178.685377 45.100588 
L 178.770463 45.100588 
L 178.846696 43.550722 
L 178.93943 43.550722 
L 179.006572 41.484233 
L 179.148416 41.484233 
L 179.16503 40.450989 
L 179.494102 40.450989 
L 179.494102 39.934367 
L 179.640231 39.934367 
L 179.640231 39.417745 
L 179.944854 39.417745 
L 180.016247 36.318013 
L 180.158183 36.318013 
L 180.158183 34.768147 
L 358.8 34.768147 
L 358.8 34.768147 
" style="fill:none;stroke:#0000ff;stroke-linecap:square;stroke-width:1.5;"/>
   </g>
   <g id="line2d_33">
    <defs>
     <path d="M 0 -6 
L -1.347084 -1.854102 
L -5.706339 -1.854102 
L -2.179628 0.708204 
L -3.526712 4.854102 
L -0 2.291796 
L 3.526712 4.854102 
L 2.179628 0.708204 
L 5.706339 -1.854102 
L 1.347084 -1.854102 
z
" id="m1a3464338b" style="stroke:#0000ff;stroke-linejoin:bevel;stroke-width:1.5;"/>
    </defs>
    <g>
     <use style="fill:none;stroke:#0000ff;stroke-linejoin:bevel;stroke-width:1.5;" x="168.994723" xlink:href="#m1a3464338b" y="225.918293"/>
     <use style="fill:none;stroke:#0000ff;stroke-linejoin:bevel;stroke-width:1.5;" x="174.179015" xlink:href="#m1a3464338b" y="127.76011"/>
     <use style="fill:none;stroke:#0000ff;stroke-linejoin:bevel;stroke-width:1.5;" x="180.158183" xlink:href="#m1a3464338b" y="36.318013"/>
     <use style="fill:none;stroke:#0000ff;stroke-linejoin:bevel;stroke-width:1.5;" x="180.158183" xlink:href="#m1a3464338b" y="34.768147"/>
     <use style="fill:none;stroke:#0000ff;stroke-linejoin:bevel;stroke-width:1.5;" x="358.8" xlink:href="#m1a3464338b" y="34.768147"/>
    </g>
   </g>
   <g id="line2d_34"/>
   <g id="line2d_35">
    <defs>
     <path d="M 0 1.5 
C 0.397805 1.5 0.77937 1.341951 1.06066 1.06066 
C 1.341951 0.77937 1.5 0.397805 1.5 0 
C 1.5 -0.397805 1.341951 -0.77937 1.06066 -1.06066 
C 0.77937 -1.341951 0.397805 -1.5 0 -1.5 
C -0.397805 -1.5 -0.77937 -1.341951 -1.06066 -1.06066 
C -1.341951 -0.77937 -1.5 -0.397805 -1.5 0 
C -1.5 0.397805 -1.341951 0.77937 -1.06066 1.06066 
C -0.77937 1.341951 -0.397805 1.5 0 1.5 
z
" id="m4d7b0b0863" style="stroke:#000000;"/>
    </defs>
    <g>
     <use style="stroke:#000000;" x="180.154256" xlink:href="#m4d7b0b0863" y="34.768147"/>
     <use style="stroke:#000000;" x="180.154256" xlink:href="#m4d7b0b0863" y="34.768147"/>
    </g>
   </g>
   <g id="line2d_36">
    <path d="M 159.072295 298.245375 
L 159.072295 297.728753 
L 159.376441 297.728753 
L 159.376441 297.212131 
L 159.774078 297.212131 
L 159.774078 296.695509 
L 159.896547 296.695509 
L 159.896547 296.178887 
L 160.04241 296.178887 
L 160.04241 295.662265 
L 160.55552 295.662265 
L 160.55552 295.145643 
L 160.684447 295.145643 
L 160.684447 294.112399 
L 161.292929 294.112399 
L 161.292929 293.079155 
L 161.461444 293.079155 
L 161.461444 292.045911 
L 162.206057 292.045911 
L 162.206057 291.529289 
L 162.408682 291.529289 
L 162.408682 291.012667 
L 162.744835 291.012667 
L 162.744835 290.496045 
L 162.889937 290.496045 
L 162.889937 289.462801 
L 163.166491 289.462801 
L 163.166491 288.946179 
L 163.578425 288.946179 
L 163.657707 287.396313 
L 163.795609 287.396313 
L 163.795609 286.363069 
L 163.932455 286.363069 
L 163.932455 285.846447 
L 164.222215 285.846447 
L 164.222215 285.329825 
L 164.469594 285.329825 
L 164.535615 283.779959 
L 164.66693 283.779959 
L 164.66693 283.263337 
L 165.046035 283.263337 
L 165.046035 282.746715 
L 165.27331 282.746715 
L 165.27331 282.230093 
L 165.47988 282.230093 
L 165.542278 280.680226 
L 165.639894 280.680226 
L 165.74578 278.613738 
L 165.824784 278.613738 
L 165.842293 276.54725 
L 165.94699 276.54725 
L 165.981752 274.997384 
L 166.059722 274.997384 
L 166.085637 273.96414 
L 166.214649 273.96414 
L 166.300143 271.897652 
L 166.52053 271.897652 
L 166.52053 271.38103 
L 166.638084 271.38103 
L 166.713248 269.831164 
L 166.846097 269.831164 
L 166.846097 268.79792 
L 167.108868 268.79792 
L 167.108868 268.281298 
L 167.423982 268.281298 
L 167.48794 264.664944 
L 167.583449 264.664944 
L 167.583449 264.148322 
L 167.702122 264.148322 
L 167.772949 263.115078 
L 168.184442 263.115078 
L 168.261031 261.565212 
L 168.337293 261.565212 
L 168.435949 260.015346 
L 168.458639 260.015346 
L 168.519004 258.982102 
L 168.654085 258.982102 
L 168.743575 256.398992 
L 168.780731 256.398992 
L 168.884357 254.332504 
L 168.950658 254.332504 
L 168.950658 253.815882 
L 169.118985 253.815882 
L 169.162637 250.199528 
L 169.408002 250.199528 
L 169.508064 247.099796 
L 169.642972 247.099796 
L 169.713569 245.033307 
L 169.832948 245.033307 
L 169.832948 244.516685 
L 170.013998 244.516685 
L 170.110732 241.933575 
L 170.15203 241.933575 
L 170.23434 239.350465 
L 170.302643 239.350465 
L 170.370686 236.250733 
L 170.418163 236.250733 
L 170.526209 234.700867 
L 170.55984 234.700867 
L 170.613518 233.151001 
L 170.713732 233.151001 
L 170.773592 231.601135 
L 170.879517 231.601135 
L 170.965121 230.051269 
L 171.004492 230.051269 
L 171.076449 228.501403 
L 171.219499 228.501403 
L 171.219499 227.984781 
L 171.342127 227.984781 
L 171.342127 227.468159 
L 171.470306 227.468159 
L 171.57854 224.368427 
L 171.603912 224.368427 
L 171.660867 220.752073 
L 171.749105 220.752073 
L 171.81813 218.168963 
L 171.899363 218.168963 
L 171.911828 217.135719 
L 172.048368 217.135719 
L 172.110089 215.585853 
L 172.287883 215.585853 
L 172.397354 212.48612 
L 172.409476 212.48612 
L 172.469964 210.936254 
L 172.578329 210.936254 
L 172.674105 207.836522 
L 172.739654 207.836522 
L 172.846401 204.73679 
L 172.887742 204.73679 
L 172.928987 200.087192 
L 173.022906 200.087192 
L 173.022906 199.053948 
L 173.151245 199.053948 
L 173.261345 196.98746 
L 173.324779 196.98746 
L 173.382251 195.437594 
L 173.45669 195.437594 
L 173.553567 189.23813 
L 173.655574 189.23813 
L 173.76262 186.65502 
L 173.790683 186.65502 
L 173.880192 182.522044 
L 173.924778 182.522044 
L 174.035761 178.90569 
L 174.063399 178.90569 
L 174.173527 174.256091 
L 174.200953 174.256091 
L 174.29934 170.639737 
L 174.348331 170.639737 
L 174.440504 164.956895 
L 174.462123 164.956895 
L 174.559087 160.307297 
L 174.602013 160.307297 
L 174.698222 157.724187 
L 174.724855 157.724187 
L 174.830992 150.491479 
L 174.836283 150.491479 
L 174.936502 143.775392 
L 174.994269 143.775392 
L 175.093609 141.708904 
L 175.114452 141.708904 
L 175.213128 133.959574 
L 175.233833 133.959574 
L 175.321561 130.34322 
L 175.378098 130.34322 
L 175.485537 125.693622 
L 175.566964 125.693622 
L 175.668229 118.460914 
L 175.718647 118.460914 
L 175.783978 114.327938 
L 175.834071 114.327938 
L 175.943784 108.128473 
L 175.948755 108.128473 
L 176.042941 106.061985 
L 176.067645 106.061985 
L 176.171028 100.895765 
L 176.200457 100.895765 
L 176.303077 96.762789 
L 176.31282 96.762789 
L 176.400266 93.663057 
L 176.424481 93.663057 
L 176.516199 90.563325 
L 176.573885 90.563325 
L 176.650511 84.880483 
L 176.72205 84.880483 
L 176.83119 81.780751 
L 176.845377 81.780751 
L 176.92085 76.614531 
L 176.958467 76.614531 
L 177.066177 75.064664 
L 177.075512 75.064664 
L 177.159313 71.44831 
L 177.210331 71.44831 
L 177.321142 68.348578 
L 177.334945 68.348578 
L 177.334945 66.798712 
L 177.467828 66.798712 
L 177.554357 64.215602 
L 177.631423 64.215602 
L 177.667575 63.182358 
L 177.766618 63.182358 
L 177.789051 59.049382 
L 177.900797 59.049382 
L 178.00742 56.466272 
L 178.157387 56.466272 
L 178.258127 52.849918 
L 178.310462 52.849918 
L 178.397349 49.750186 
L 178.431985 49.750186 
L 178.431985 48.20032 
L 178.552687 48.20032 
L 178.552687 47.167076 
L 178.685377 47.167076 
L 178.706687 46.133832 
L 178.812855 46.133832 
L 178.893123 42.517478 
L 179.094315 42.517478 
L 179.152571 40.967611 
L 179.32621 40.967611 
L 179.371409 39.417745 
L 179.469631 39.417745 
L 179.494102 37.867879 
L 179.599759 37.867879 
L 179.652354 36.318013 
L 179.837226 36.318013 
L 179.837226 35.284769 
L 180.154256 35.284769 
L 180.154256 34.768147 
L 358.8 34.768147 
L 358.8 34.768147 
" style="fill:none;stroke:#000000;stroke-linecap:square;stroke-width:1.5;"/>
   </g>
   <g id="line2d_37">
    <defs>
     <path d="M 0 6 
C 1.591219 6 3.117479 5.367802 4.242641 4.242641 
C 5.367802 3.117479 6 1.591219 6 0 
C 6 -1.591219 5.367802 -3.117479 4.242641 -4.242641 
C 3.117479 -5.367802 1.591219 -6 0 -6 
C -1.591219 -6 -3.117479 -5.367802 -4.242641 -4.242641 
C -5.367802 -3.117479 -6 -1.591219 -6 0 
C -6 1.591219 -5.367802 3.117479 -4.242641 4.242641 
C -3.117479 5.367802 -1.591219 6 0 6 
z
" id="m965e48fff7" style="stroke:#000000;stroke-width:1.5;"/>
    </defs>
    <g>
     <use style="fill:none;stroke:#000000;stroke-width:1.5;" x="173.45669" xlink:href="#m965e48fff7" y="193.887728"/>
     <use style="fill:none;stroke:#000000;stroke-width:1.5;" x="177.066177" xlink:href="#m965e48fff7" y="75.064664"/>
     <use style="fill:none;stroke:#000000;stroke-width:1.5;" x="180.154256" xlink:href="#m965e48fff7" y="35.284769"/>
     <use style="fill:none;stroke:#000000;stroke-width:1.5;" x="180.154256" xlink:href="#m965e48fff7" y="34.768147"/>
     <use style="fill:none;stroke:#000000;stroke-width:1.5;" x="358.8" xlink:href="#m965e48fff7" y="34.768147"/>
    </g>
   </g>
   <g id="line2d_38"/>
   <g id="line2d_39">
    <defs>
     <path d="M 0 1.5 
C 0.397805 1.5 0.77937 1.341951 1.06066 1.06066 
C 1.341951 0.77937 1.5 0.397805 1.5 0 
C 1.5 -0.397805 1.341951 -0.77937 1.06066 -1.06066 
C 0.77937 -1.341951 0.397805 -1.5 0 -1.5 
C -0.397805 -1.5 -0.77937 -1.341951 -1.06066 -1.06066 
C -1.341951 -0.77937 -1.5 -0.397805 -1.5 0 
C -1.5 0.397805 -1.341951 0.77937 -1.06066 1.06066 
C -0.77937 1.341951 -0.397805 1.5 0 1.5 
z
" id="m5b3e0327f6" style="stroke:#ff0000;"/>
    </defs>
    <g>
     <use style="fill:#ff0000;stroke:#ff0000;" x="182.366292" xlink:href="#m5b3e0327f6" y="34.768147"/>
     <use style="fill:#ff0000;stroke:#ff0000;" x="182.366292" xlink:href="#m5b3e0327f6" y="34.768147"/>
    </g>
   </g>
   <g id="line2d_40">
    <path d="M 159.755636 298.245375 
L 159.755636 297.728753 
L 161.31549 297.728753 
L 161.31549 297.212131 
L 161.572912 297.212131 
L 161.572912 296.178887 
L 162.619517 296.178887 
L 162.619517 295.662265 
L 163.008252 295.662265 
L 163.008252 295.145643 
L 163.125789 295.145643 
L 163.125789 294.629021 
L 163.267842 294.629021 
L 163.267842 294.112399 
L 163.538652 294.112399 
L 163.538652 293.595777 
L 163.971363 293.595777 
L 163.971363 292.562533 
L 164.568535 292.562533 
L 164.638872 291.012667 
L 165.059753 291.012667 
L 165.064324 289.979423 
L 165.191824 289.979423 
L 165.209964 288.946179 
L 165.336432 288.946179 
L 165.336432 288.429557 
L 165.662006 288.429557 
L 165.662006 287.912935 
L 166.562603 287.912935 
L 166.667352 286.363069 
L 167.023072 286.363069 
L 167.023072 285.846447 
L 167.250953 285.846447 
L 167.259039 284.296581 
L 167.511865 284.296581 
L 167.591385 282.230093 
L 167.694235 282.230093 
L 167.725762 281.196849 
L 167.952687 281.196849 
L 167.952687 280.163604 
L 168.253387 280.163604 
L 168.344901 279.13036 
L 168.386689 279.13036 
L 168.398069 278.097116 
L 168.605424 278.097116 
L 168.605424 277.580494 
L 168.932266 277.580494 
L 168.932266 277.063872 
L 169.278523 277.063872 
L 169.37931 274.997384 
L 169.468821 274.997384 
L 169.579195 272.414274 
L 169.780379 272.414274 
L 169.780379 271.38103 
L 170.003603 271.38103 
L 170.003603 270.864408 
L 170.499259 270.864408 
L 170.50263 269.314542 
L 170.660355 269.314542 
L 170.660355 268.79792 
L 170.833252 268.79792 
L 170.942114 267.764676 
L 171.232446 267.764676 
L 171.33891 265.181566 
L 171.354986 265.181566 
L 171.396715 263.115078 
L 171.521321 263.115078 
L 171.597572 261.04859 
L 171.905597 261.04859 
L 171.967811 258.46548 
L 172.076169 258.46548 
L 172.100845 256.398992 
L 172.199207 256.398992 
L 172.245129 255.365748 
L 172.42159 255.365748 
L 172.466945 253.815882 
L 172.560314 253.815882 
L 172.64722 251.232772 
L 172.787176 251.232772 
L 172.819774 250.199528 
L 172.937813 250.199528 
L 172.937813 249.682906 
L 173.055077 249.682906 
L 173.148338 247.099796 
L 173.220861 247.099796 
L 173.267121 246.066551 
L 173.465259 246.066551 
L 173.542197 244.000063 
L 173.641441 244.000063 
L 173.742949 241.933575 
L 173.771043 241.933575 
L 173.880192 239.867087 
L 173.885771 239.867087 
L 173.952589 238.317221 
L 174.005309 238.317221 
L 174.049585 236.250733 
L 174.200953 236.250733 
L 174.277523 231.601135 
L 174.326573 231.601135 
L 174.367347 230.567891 
L 174.4378 230.567891 
L 174.521441 227.468159 
L 174.583245 227.468159 
L 174.687558 225.401671 
L 174.743475 225.401671 
L 174.833638 221.785317 
L 174.854786 221.785317 
L 174.939132 218.168963 
L 174.968034 218.168963 
L 174.98378 217.135719 
L 175.080569 217.135719 
L 175.176838 210.936254 
L 175.1924 210.936254 
L 175.202767 209.90301 
L 175.316413 209.90301 
L 175.411422 206.286656 
L 175.460015 206.286656 
L 175.475333 204.73679 
L 175.572041 204.73679 
L 175.678324 198.537326 
L 175.758879 198.537326 
L 175.869053 193.371106 
L 175.871549 193.371106 
L 175.968625 191.82124 
L 175.998388 191.82124 
L 176.089849 189.754752 
L 176.109562 189.754752 
L 176.190653 184.07191 
L 176.227391 184.07191 
L 176.315255 178.90569 
L 176.373592 178.90569 
L 176.436576 175.289335 
L 176.484875 175.289335 
L 176.585879 168.056627 
L 176.607449 168.056627 
L 176.71729 164.956895 
L 176.776703 164.956895 
L 176.871357 160.823919 
L 176.906723 160.823919 
L 176.981937 156.690943 
L 177.028786 156.690943 
L 177.12677 151.524723 
L 177.173241 151.524723 
L 177.217277 149.458235 
L 177.291198 149.458235 
L 177.390051 145.841881 
L 177.406092 145.841881 
L 177.476956 140.67566 
L 177.56117 140.67566 
L 177.672089 134.992818 
L 177.696895 134.992818 
L 177.782324 128.793354 
L 177.838305 128.793354 
L 177.938632 124.143756 
L 177.949745 124.143756 
L 178.056076 118.977536 
L 178.069324 118.977536 
L 178.16617 113.811316 
L 178.203448 113.811316 
L 178.31264 106.061985 
L 178.338747 106.061985 
L 178.41684 101.929009 
L 178.473029 101.929009 
L 178.541943 98.829277 
L 178.599883 98.829277 
L 178.693904 93.146435 
L 178.725844 93.146435 
L 178.817089 87.463593 
L 178.872035 87.463593 
L 178.981424 79.714263 
L 178.98981 79.714263 
L 179.100566 72.481554 
L 179.108897 72.481554 
L 179.214779 68.348578 
L 179.233399 68.348578 
L 179.336493 64.732224 
L 179.375513 64.732224 
L 179.463508 62.665736 
L 179.512434 62.665736 
L 179.599759 59.566004 
L 179.628099 59.566004 
L 179.730957 55.94965 
L 179.771133 55.94965 
L 179.861199 53.36654 
L 180.014268 53.36654 
L 180.116901 51.816674 
L 180.189572 51.816674 
L 180.271706 50.266808 
L 180.332088 50.266808 
L 180.425182 48.716942 
L 180.567758 48.716942 
L 180.619497 47.683698 
L 180.794676 47.683698 
L 180.794676 47.167076 
L 180.928704 47.167076 
L 181.033711 44.067344 
L 181.145539 44.067344 
L 181.214152 42.517478 
L 181.310138 42.517478 
L 181.310138 41.484233 
L 181.425742 41.484233 
L 181.53515 38.901123 
L 181.642085 38.901123 
L 181.714222 37.351257 
L 181.944896 37.351257 
L 181.944896 36.834635 
L 182.09528 36.834635 
L 182.09528 36.318013 
L 182.232174 36.318013 
L 182.232174 35.284769 
L 182.366292 35.284769 
L 182.366292 34.768147 
L 358.8 34.768147 
L 358.8 34.768147 
" style="fill:none;stroke:#ff0000;stroke-linecap:square;stroke-width:1.5;"/>
   </g>
   <g id="line2d_41">
    <defs>
     <path d="M -6 6 
L 6 6 
L 6 -6 
L -6 -6 
z
" id="mecce3ffdac" style="stroke:#ff0000;stroke-linejoin:miter;stroke-width:1.5;"/>
    </defs>
    <g>
     <use style="fill:none;stroke:#ff0000;stroke-linejoin:miter;stroke-width:1.5;" x="178.117812" xlink:href="#mecce3ffdac" y="116.394426"/>
     <use style="fill:none;stroke:#ff0000;stroke-linejoin:miter;stroke-width:1.5;" x="182.366292" xlink:href="#mecce3ffdac" y="35.284769"/>
     <use style="fill:none;stroke:#ff0000;stroke-linejoin:miter;stroke-width:1.5;" x="182.366292" xlink:href="#mecce3ffdac" y="34.768147"/>
     <use style="fill:none;stroke:#ff0000;stroke-linejoin:miter;stroke-width:1.5;" x="182.366292" xlink:href="#mecce3ffdac" y="34.768147"/>
     <use style="fill:none;stroke:#ff0000;stroke-linejoin:miter;stroke-width:1.5;" x="358.8" xlink:href="#mecce3ffdac" y="34.768147"/>
    </g>
   </g>
   <g id="line2d_42"/>
   <g id="line2d_43">
    <defs>
     <path d="M 0 1.5 
C 0.397805 1.5 0.77937 1.341951 1.06066 1.06066 
C 1.341951 0.77937 1.5 0.397805 1.5 0 
C 1.5 -0.397805 1.341951 -0.77937 1.06066 -1.06066 
C 0.77937 -1.341951 0.397805 -1.5 0 -1.5 
C -0.397805 -1.5 -0.77937 -1.341951 -1.06066 -1.06066 
C -1.341951 -0.77937 -1.5 -0.397805 -1.5 0 
C -1.5 0.397805 -1.341951 0.77937 -1.06066 1.06066 
C -0.77937 1.341951 -0.397805 1.5 0 1.5 
z
" id="m2e56b6b6eb" style="stroke:#bf00bf;"/>
    </defs>
    <g>
     <use style="fill:#bf00bf;stroke:#bf00bf;" x="183.747449" xlink:href="#m2e56b6b6eb" y="34.768147"/>
     <use style="fill:#bf00bf;stroke:#bf00bf;" x="183.747449" xlink:href="#m2e56b6b6eb" y="34.768147"/>
    </g>
   </g>
   <g id="line2d_44">
    <path d="M 168.234262 298.245375 
L 168.234262 297.728753 
L 168.462418 297.728753 
L 168.462418 297.212131 
L 168.616665 297.212131 
L 168.665296 295.145643 
L 169.552554 295.145643 
L 169.552554 294.629021 
L 169.713569 294.629021 
L 169.713569 294.112399 
L 170.239472 294.112399 
L 170.333295 293.079155 
L 170.738698 293.079155 
L 170.738698 292.562533 
L 171.076449 292.562533 
L 171.182221 291.012667 
L 171.204921 291.012667 
L 171.209781 289.462801 
L 171.393509 289.462801 
L 171.393509 288.946179 
L 172.053005 288.946179 
L 172.053005 288.429557 
L 172.266519 288.429557 
L 172.266519 287.396313 
L 172.58733 287.396313 
L 172.64722 286.363069 
L 172.758975 286.363069 
L 172.758975 285.846447 
L 172.872988 285.846447 
L 172.911322 284.296581 
L 173.098854 284.296581 
L 173.139616 283.263337 
L 173.220861 283.263337 
L 173.220861 282.746715 
L 173.658399 282.746715 
L 173.658399 282.230093 
L 173.793487 282.230093 
L 173.884376 280.680226 
L 173.951199 280.680226 
L 173.984517 279.646982 
L 174.071682 279.646982 
L 174.071682 279.13036 
L 174.187245 279.13036 
L 174.231073 277.580494 
L 174.34969 277.580494 
L 174.34969 277.063872 
L 174.471574 277.063872 
L 174.509324 275.514006 
L 174.616745 275.514006 
L 174.724855 272.930896 
L 174.809815 272.930896 
L 174.866672 271.38103 
L 174.922032 271.38103 
L 175.02439 269.831164 
L 175.092305 269.831164 
L 175.105336 268.79792 
L 175.268718 268.79792 
L 175.324135 266.21481 
L 175.493187 266.21481 
L 175.596137 263.115078 
L 175.689674 263.115078 
L 175.796515 261.565212 
L 175.875292 261.565212 
L 175.875292 260.015346 
L 175.998388 260.015346 
L 176.077516 257.948858 
L 176.237175 257.948858 
L 176.261612 256.398992 
L 176.386934 256.398992 
L 176.437785 254.849126 
L 176.513792 254.849126 
L 176.620618 248.649662 
L 176.633777 248.649662 
L 176.703001 247.616418 
L 176.747021 247.616418 
L 176.85601 246.066551 
L 176.858371 246.066551 
L 176.932613 243.483441 
L 177.03931 243.483441 
L 177.145373 241.416953 
L 177.155829 241.416953 
L 177.261205 238.833843 
L 177.268131 238.833843 
L 177.330345 236.250733 
L 177.383172 236.250733 
L 177.465545 234.700867 
L 177.500895 234.700867 
L 177.578192 230.051269 
L 177.612188 230.051269 
L 177.711537 226.434915 
L 177.76325 226.434915 
L 177.860649 222.301939 
L 177.879619 222.301939 
L 177.95863 220.752073 
L 178.027341 220.752073 
L 178.136512 216.102475 
L 178.145304 216.102475 
L 178.231902 211.969498 
L 178.262494 211.969498 
L 178.371327 208.869766 
L 178.396265 208.869766 
L 178.506442 205.253412 
L 178.522588 205.253412 
L 178.610592 201.637058 
L 178.661907 201.637058 
L 178.75985 198.020704 
L 178.781071 198.020704 
L 178.835071 194.920972 
L 178.90787 194.920972 
L 179.008666 190.271374 
L 179.036913 190.271374 
L 179.081806 188.204886 
L 179.154648 188.204886 
L 179.255098 181.4888 
L 179.294296 181.4888 
L 179.391917 175.289335 
L 179.412401 175.289335 
L 179.517523 170.639737 
L 179.549041 170.639737 
L 179.643262 168.573249 
L 179.666488 168.573249 
L 179.771133 163.923651 
L 179.784171 163.923651 
L 179.89411 158.240809 
L 179.896103 158.240809 
L 179.960743 153.074589 
L 180.010308 153.074589 
L 180.078483 151.008101 
L 180.121821 151.008101 
L 180.226775 141.708904 
L 180.269755 141.708904 
L 180.362203 135.50944 
L 180.400017 135.50944 
L 180.508168 130.34322 
L 180.516831 130.34322 
L 180.622367 126.210244 
L 180.628105 126.210244 
L 180.728234 122.077268 
L 180.751042 122.077268 
L 180.824967 118.460914 
L 180.864647 118.460914 
L 180.966277 114.84456 
L 180.986909 114.84456 
L 181.094371 110.194961 
L 181.131598 110.194961 
L 181.228028 102.445631 
L 181.253901 102.445631 
L 181.360692 98.829277 
L 181.367116 98.829277 
L 181.472322 92.629813 
L 181.495111 92.629813 
L 181.586885 90.046703 
L 181.638471 90.046703 
L 181.731311 87.980215 
L 181.80667 87.980215 
L 181.902205 83.847239 
L 181.918226 83.847239 
L 182.025553 75.581286 
L 182.040581 75.581286 
L 182.112889 72.481554 
L 182.153325 72.481554 
L 182.252269 67.315334 
L 182.272341 67.315334 
L 182.317639 64.732224 
L 182.402696 64.732224 
L 182.503717 60.599248 
L 182.514906 60.599248 
L 182.621285 55.94965 
L 182.651197 55.94965 
L 182.755071 52.333296 
L 182.83047 52.333296 
L 182.930789 48.716942 
L 182.960188 48.716942 
L 183.054775 45.100588 
L 183.093969 45.100588 
L 183.174589 43.0341 
L 183.241633 43.0341 
L 183.345427 39.934367 
L 183.36677 39.934367 
L 183.36677 37.867879 
L 183.496738 37.867879 
L 183.559341 36.834635 
L 183.615254 36.834635 
L 183.615254 35.801391 
L 183.747449 35.801391 
L 183.747449 34.768147 
L 358.8 34.768147 
L 358.8 34.768147 
" style="fill:none;stroke:#bf00bf;stroke-linecap:square;stroke-width:1.5;"/>
   </g>
   <g id="line2d_45">
    <defs>
     <path d="M -0 8.485281 
L 8.485281 0 
L 0 -8.485281 
L -8.485281 -0 
z
" id="m74a79fe3e8" style="stroke:#bf00bf;stroke-linejoin:miter;stroke-width:1.5;"/>
    </defs>
    <g>
     <use style="fill:none;stroke:#bf00bf;stroke-linejoin:miter;stroke-width:1.5;" x="183.174589" xlink:href="#m74a79fe3e8" y="43.0341"/>
     <use style="fill:none;stroke:#bf00bf;stroke-linejoin:miter;stroke-width:1.5;" x="183.747449" xlink:href="#m74a79fe3e8" y="34.768147"/>
     <use style="fill:none;stroke:#bf00bf;stroke-linejoin:miter;stroke-width:1.5;" x="183.747449" xlink:href="#m74a79fe3e8" y="34.768147"/>
     <use style="fill:none;stroke:#bf00bf;stroke-linejoin:miter;stroke-width:1.5;" x="358.8" xlink:href="#m74a79fe3e8" y="34.768147"/>
    </g>
   </g>
   <g id="line2d_46"/>
   <g id="line2d_47">
    <path d="M 358.8 34.768147 
L 390.48 292.97583 
" style="fill:none;stroke:#bf00bf;stroke-linecap:square;stroke-width:1.5;"/>
    <g>
     <use style="fill:none;stroke:#bf00bf;stroke-linejoin:miter;stroke-width:1.5;" x="358.8" xlink:href="#m74a79fe3e8" y="34.768147"/>
     <use style="fill:none;stroke:#bf00bf;stroke-linejoin:miter;stroke-width:1.5;" x="390.48" xlink:href="#m74a79fe3e8" y="292.97583"/>
    </g>
   </g>
   <g id="line2d_48">
    <path d="M 358.8 34.768147 
L 390.48 242.388203 
" style="fill:none;stroke:#ff0000;stroke-linecap:square;stroke-width:1.5;"/>
    <g>
     <use style="fill:none;stroke:#ff0000;stroke-linejoin:miter;stroke-width:1.5;" x="358.8" xlink:href="#mecce3ffdac" y="34.768147"/>
     <use style="fill:none;stroke:#ff0000;stroke-linejoin:miter;stroke-width:1.5;" x="390.48" xlink:href="#mecce3ffdac" y="242.388203"/>
    </g>
   </g>
   <g id="line2d_49">
    <path d="M 358.8 34.768147 
L 390.48 191.800575 
" style="fill:none;stroke:#008000;stroke-linecap:square;stroke-width:1.5;"/>
    <g>
     <use style="fill:none;stroke:#008000;stroke-linejoin:miter;stroke-width:1.5;" x="358.8" xlink:href="#mf718315568" y="34.768147"/>
     <use style="fill:none;stroke:#008000;stroke-linejoin:miter;stroke-width:1.5;" x="390.48" xlink:href="#mf718315568" y="191.800575"/>
    </g>
   </g>
   <g id="line2d_50">
    <path d="M 358.8 34.768147 
L 390.48 141.212947 
" style="fill:none;stroke:#0000ff;stroke-linecap:square;stroke-width:1.5;"/>
    <g>
     <use style="fill:none;stroke:#0000ff;stroke-linejoin:bevel;stroke-width:1.5;" x="358.8" xlink:href="#m1a3464338b" y="34.768147"/>
     <use style="fill:none;stroke:#0000ff;stroke-linejoin:bevel;stroke-width:1.5;" x="390.48" xlink:href="#m1a3464338b" y="141.212947"/>
    </g>
   </g>
   <g id="line2d_51">
    <path d="M 358.8 34.768147 
L 390.48 90.62532 
" style="fill:none;stroke:#000000;stroke-linecap:square;stroke-width:1.5;"/>
    <g>
     <use style="fill:none;stroke:#000000;stroke-width:1.5;" x="358.8" xlink:href="#m965e48fff7" y="34.768147"/>
     <use style="fill:none;stroke:#000000;stroke-width:1.5;" x="390.48" xlink:href="#m965e48fff7" y="90.62532"/>
    </g>
   </g>
   <g id="line2d_52">
    <path d="M 358.8 34.768147 
L 390.48 40.037692 
" style="fill:none;stroke:#00bfbf;stroke-linecap:square;stroke-width:1.5;"/>
    <g>
     <use style="fill:none;stroke:#00bfbf;stroke-width:1.5;" x="358.8" xlink:href="#m0406819540" y="34.768147"/>
     <use style="fill:none;stroke:#00bfbf;stroke-width:1.5;" x="390.48" xlink:href="#m0406819540" y="40.037692"/>
    </g>
   </g>
   <g id="line2d_53">
    <path d="M 358.8 298.245375 
L 358.8 34.768147 
" style="fill:none;stroke:#000000;stroke-linecap:square;stroke-width:1.5;"/>
   </g>
   <g id="patch_3">
    <path d="M 70.8 298.245375 
L 70.8 32.133375 
" style="fill:none;stroke:#000000;stroke-linecap:square;stroke-linejoin:miter;stroke-width:0.8;"/>
   </g>
   <g id="patch_4">
    <path d="M 427.92 298.245375 
L 427.92 32.133375 
" style="fill:none;stroke:#000000;stroke-linecap:square;stroke-linejoin:miter;stroke-width:0.8;"/>
   </g>
   <g id="patch_5">
    <path d="M 70.8 298.245375 
L 427.92 298.245375 
" style="fill:none;stroke:#000000;stroke-linecap:square;stroke-linejoin:miter;stroke-width:0.8;"/>
   </g>
   <g id="patch_6">
    <path d="M 70.8 32.133375 
L 427.92 32.133375 
" style="fill:none;stroke:#000000;stroke-linecap:square;stroke-linejoin:miter;stroke-width:0.8;"/>
   </g>
   <g id="text_14">
    <!-- 40-D -->
    <defs>
     <path d="M 19.671875 64.796875 
L 19.671875 8.109375 
L 31.59375 8.109375 
Q 46.6875 8.109375 53.6875 14.9375 
Q 60.6875 21.78125 60.6875 36.53125 
Q 60.6875 51.171875 53.6875 57.984375 
Q 46.6875 64.796875 31.59375 64.796875 
z
M 9.8125 72.90625 
L 30.078125 72.90625 
Q 51.265625 72.90625 61.171875 64.09375 
Q 71.09375 55.28125 71.09375 36.53125 
Q 71.09375 17.671875 61.125 8.828125 
Q 51.171875 0 30.078125 0 
L 9.8125 0 
z
" id="DejaVuSans-44"/>
    </defs>
    <g transform="translate(396.24 297.114893)scale(0.15 -0.15)">
     <use xlink:href="#DejaVuSans-34"/>
     <use x="63.623047" xlink:href="#DejaVuSans-30"/>
     <use x="127.246094" xlink:href="#DejaVuSans-2d"/>
     <use x="163.330078" xlink:href="#DejaVuSans-44"/>
    </g>
   </g>
   <g id="text_15">
    <!-- 20-D -->
    <g transform="translate(396.24 246.527265)scale(0.15 -0.15)">
     <use xlink:href="#DejaVuSans-32"/>
     <use x="63.623047" xlink:href="#DejaVuSans-30"/>
     <use x="127.246094" xlink:href="#DejaVuSans-2d"/>
     <use x="163.330078" xlink:href="#DejaVuSans-44"/>
    </g>
   </g>
   <g id="text_16">
    <!-- 3-D -->
    <defs>
     <path d="M 40.578125 39.3125 
Q 47.65625 37.796875 51.625 33 
Q 55.609375 28.21875 55.609375 21.1875 
Q 55.609375 10.40625 48.1875 4.484375 
Q 40.765625 -1.421875 27.09375 -1.421875 
Q 22.515625 -1.421875 17.65625 -0.515625 
Q 12.796875 0.390625 7.625 2.203125 
L 7.625 11.71875 
Q 11.71875 9.328125 16.59375 8.109375 
Q 21.484375 6.890625 26.8125 6.890625 
Q 36.078125 6.890625 40.9375 10.546875 
Q 45.796875 14.203125 45.796875 21.1875 
Q 45.796875 27.640625 41.28125 31.265625 
Q 36.765625 34.90625 28.71875 34.90625 
L 20.21875 34.90625 
L 20.21875 43.015625 
L 29.109375 43.015625 
Q 36.375 43.015625 40.234375 45.921875 
Q 44.09375 48.828125 44.09375 54.296875 
Q 44.09375 59.90625 40.109375 62.90625 
Q 36.140625 65.921875 28.71875 65.921875 
Q 24.65625 65.921875 20.015625 65.03125 
Q 15.375 64.15625 9.8125 62.3125 
L 9.8125 71.09375 
Q 15.4375 72.65625 20.34375 73.4375 
Q 25.25 74.21875 29.59375 74.21875 
Q 40.828125 74.21875 47.359375 69.109375 
Q 53.90625 64.015625 53.90625 55.328125 
Q 53.90625 49.265625 50.4375 45.09375 
Q 46.96875 40.921875 40.578125 39.3125 
z
" id="DejaVuSans-33"/>
    </defs>
    <g transform="translate(396.24 195.939637)scale(0.15 -0.15)">
     <use xlink:href="#DejaVuSans-33"/>
     <use x="63.623047" xlink:href="#DejaVuSans-2d"/>
     <use x="99.707031" xlink:href="#DejaVuSans-44"/>
    </g>
   </g>
   <g id="text_17">
    <!-- 5-D -->
    <defs>
     <path d="M 10.796875 72.90625 
L 49.515625 72.90625 
L 49.515625 64.59375 
L 19.828125 64.59375 
L 19.828125 46.734375 
Q 21.96875 47.46875 24.109375 47.828125 
Q 26.265625 48.1875 28.421875 48.1875 
Q 40.625 48.1875 47.75 41.5 
Q 54.890625 34.8125 54.890625 23.390625 
Q 54.890625 11.625 47.5625 5.09375 
Q 40.234375 -1.421875 26.90625 -1.421875 
Q 22.3125 -1.421875 17.546875 -0.640625 
Q 12.796875 0.140625 7.71875 1.703125 
L 7.71875 11.625 
Q 12.109375 9.234375 16.796875 8.0625 
Q 21.484375 6.890625 26.703125 6.890625 
Q 35.15625 6.890625 40.078125 11.328125 
Q 45.015625 15.765625 45.015625 23.390625 
Q 45.015625 31 40.078125 35.4375 
Q 35.15625 39.890625 26.703125 39.890625 
Q 22.75 39.890625 18.8125 39.015625 
Q 14.890625 38.140625 10.796875 36.28125 
z
" id="DejaVuSans-35"/>
    </defs>
    <g transform="translate(396.24 145.35201)scale(0.15 -0.15)">
     <use xlink:href="#DejaVuSans-35"/>
     <use x="63.623047" xlink:href="#DejaVuSans-2d"/>
     <use x="99.707031" xlink:href="#DejaVuSans-44"/>
    </g>
   </g>
   <g id="text_18">
    <!-- 10-D -->
    <g transform="translate(396.24 94.764382)scale(0.15 -0.15)">
     <use xlink:href="#DejaVuSans-31"/>
     <use x="63.623047" xlink:href="#DejaVuSans-30"/>
     <use x="127.246094" xlink:href="#DejaVuSans-2d"/>
     <use x="163.330078" xlink:href="#DejaVuSans-44"/>
    </g>
   </g>
   <g id="text_19">
    <!-- 2-D -->
    <g transform="translate(396.24 44.176754)scale(0.15 -0.15)">
     <use xlink:href="#DejaVuSans-32"/>
     <use x="63.623047" xlink:href="#DejaVuSans-2d"/>
     <use x="99.707031" xlink:href="#DejaVuSans-44"/>
    </g>
   </g>
   <g id="text_20">
    <!-- bbob - f2 -->
    <defs>
     <path d="M 48.6875 27.296875 
Q 48.6875 37.203125 44.609375 42.84375 
Q 40.53125 48.484375 33.40625 48.484375 
Q 26.265625 48.484375 22.1875 42.84375 
Q 18.109375 37.203125 18.109375 27.296875 
Q 18.109375 17.390625 22.1875 11.75 
Q 26.265625 6.109375 33.40625 6.109375 
Q 40.53125 6.109375 44.609375 11.75 
Q 48.6875 17.390625 48.6875 27.296875 
z
M 18.109375 46.390625 
Q 20.953125 51.265625 25.265625 53.625 
Q 29.59375 56 35.59375 56 
Q 45.5625 56 51.78125 48.09375 
Q 58.015625 40.1875 58.015625 27.296875 
Q 58.015625 14.40625 51.78125 6.484375 
Q 45.5625 -1.421875 35.59375 -1.421875 
Q 29.59375 -1.421875 25.265625 0.953125 
Q 20.953125 3.328125 18.109375 8.203125 
L 18.109375 0 
L 9.078125 0 
L 9.078125 75.984375 
L 18.109375 75.984375 
z
" id="DejaVuSans-62"/>
    </defs>
    <g transform="translate(74.3712 50.114612)scale(0.1666 -0.1666)">
     <use xlink:href="#DejaVuSans-62"/>
     <use x="63.476562" xlink:href="#DejaVuSans-62"/>
     <use x="126.953125" xlink:href="#DejaVuSans-6f"/>
     <use x="188.134766" xlink:href="#DejaVuSans-62"/>
     <use x="251.611328" xlink:href="#DejaVuSans-20"/>
     <use x="283.398438" xlink:href="#DejaVuSans-2d"/>
     <use x="319.482422" xlink:href="#DejaVuSans-20"/>
     <use x="351.269531" xlink:href="#DejaVuSans-66"/>
     <use x="386.474609" xlink:href="#DejaVuSans-32"/>
    </g>
    <!-- 51 targets in 100..1e-08 -->
    <g transform="translate(74.3712 68.770168)scale(0.1666 -0.1666)">
     <use xlink:href="#DejaVuSans-35"/>
     <use x="63.623047" xlink:href="#DejaVuSans-31"/>
     <use x="127.246094" xlink:href="#DejaVuSans-20"/>
     <use x="159.033203" xlink:href="#DejaVuSans-74"/>
     <use x="198.242188" xlink:href="#DejaVuSans-61"/>
     <use x="259.521484" xlink:href="#DejaVuSans-72"/>
     <use x="300.619141" xlink:href="#DejaVuSans-67"/>
     <use x="364.095703" xlink:href="#DejaVuSans-65"/>
     <use x="425.619141" xlink:href="#DejaVuSans-74"/>
     <use x="464.828125" xlink:href="#DejaVuSans-73"/>
     <use x="516.927734" xlink:href="#DejaVuSans-20"/>
     <use x="548.714844" xlink:href="#DejaVuSans-69"/>
     <use x="576.498047" xlink:href="#DejaVuSans-6e"/>
     <use x="639.876953" xlink:href="#DejaVuSans-20"/>
     <use x="671.664062" xlink:href="#DejaVuSans-31"/>
     <use x="735.287109" xlink:href="#DejaVuSans-30"/>
     <use x="798.910156" xlink:href="#DejaVuSans-30"/>
     <use x="862.533203" xlink:href="#DejaVuSans-2e"/>
     <use x="894.320312" xlink:href="#DejaVuSans-2e"/>
     <use x="926.107422" xlink:href="#DejaVuSans-31"/>
     <use x="989.730469" xlink:href="#DejaVuSans-65"/>
     <use x="1051.253906" xlink:href="#DejaVuSans-2d"/>
     <use x="1087.337891" xlink:href="#DejaVuSans-30"/>
     <use x="1150.960938" xlink:href="#DejaVuSans-38"/>
    </g>
    <!-- 15 instances -->
    <g transform="translate(74.3712 87.425723)scale(0.1666 -0.1666)">
     <use xlink:href="#DejaVuSans-31"/>
     <use x="63.623047" xlink:href="#DejaVuSans-35"/>
     <use x="127.246094" xlink:href="#DejaVuSans-20"/>
     <use x="159.033203" xlink:href="#DejaVuSans-69"/>
     <use x="186.816406" xlink:href="#DejaVuSans-6e"/>
     <use x="250.195312" xlink:href="#DejaVuSans-73"/>
     <use x="302.294922" xlink:href="#DejaVuSans-74"/>
     <use x="341.503906" xlink:href="#DejaVuSans-61"/>
     <use x="402.783203" xlink:href="#DejaVuSans-6e"/>
     <use x="466.162109" xlink:href="#DejaVuSans-63"/>
     <use x="521.142578" xlink:href="#DejaVuSans-65"/>
     <use x="582.666016" xlink:href="#DejaVuSans-73"/>
    </g>
   </g>
   <g id="text_21">
    <!-- v2.1 -->
    <g style="fill:#808080;" transform="translate(238.449063 293.504568)scale(0.1 -0.1)">
     <use xlink:href="#DejaVuSans-76"/>
     <use x="59.179688" xlink:href="#DejaVuSans-32"/>
     <use x="122.802734" xlink:href="#DejaVuSans-2e"/>
     <use x="154.589844" xlink:href="#DejaVuSans-31"/>
    </g>
   </g>
   <g id="text_22">
    <!-- 2 Ellipsoid separable -->
    <defs>
     <path d="M 9.8125 72.90625 
L 55.90625 72.90625 
L 55.90625 64.59375 
L 19.671875 64.59375 
L 19.671875 43.015625 
L 54.390625 43.015625 
L 54.390625 34.71875 
L 19.671875 34.71875 
L 19.671875 8.296875 
L 56.78125 8.296875 
L 56.78125 0 
L 9.8125 0 
z
" id="DejaVuSans-45"/>
    </defs>
    <g transform="translate(125.120625 26.133375)scale(0.24 -0.24)">
     <use xlink:href="#DejaVuSans-32"/>
     <use x="63.623047" xlink:href="#DejaVuSans-20"/>
     <use x="95.410156" xlink:href="#DejaVuSans-45"/>
     <use x="158.59375" xlink:href="#DejaVuSans-6c"/>
     <use x="186.376953" xlink:href="#DejaVuSans-6c"/>
     <use x="214.160156" xlink:href="#DejaVuSans-69"/>
     <use x="241.943359" xlink:href="#DejaVuSans-70"/>
     <use x="305.419922" xlink:href="#DejaVuSans-73"/>
     <use x="357.519531" xlink:href="#DejaVuSans-6f"/>
     <use x="418.701172" xlink:href="#DejaVuSans-69"/>
     <use x="446.484375" xlink:href="#DejaVuSans-64"/>
     <use x="509.960938" xlink:href="#DejaVuSans-20"/>
     <use x="541.748047" xlink:href="#DejaVuSans-73"/>
     <use x="593.847656" xlink:href="#DejaVuSans-65"/>
     <use x="655.371094" xlink:href="#DejaVuSans-70"/>
     <use x="718.847656" xlink:href="#DejaVuSans-61"/>
     <use x="780.126953" xlink:href="#DejaVuSans-72"/>
     <use x="821.240234" xlink:href="#DejaVuSans-61"/>
     <use x="882.519531" xlink:href="#DejaVuSans-62"/>
     <use x="945.996094" xlink:href="#DejaVuSans-6c"/>
     <use x="973.779297" xlink:href="#DejaVuSans-65"/>
    </g>
   </g>
  </g>
 </g>
 <defs>
  <clipPath id="p418e3a4f30">
   <rect height="266.112" width="357.12" x="70.8" y="32.133375"/>
  </clipPath>
 </defs>
</svg>
