<?xml version="1.0" encoding="utf-8" standalone="no"?>
<!DOCTYPE svg PUBLIC "-//W3C//DTD SVG 1.1//EN"
  "http://www.w3.org/Graphics/SVG/1.1/DTD/svg11.dtd">
<!-- Created with matplotlib (http://matplotlib.org/) -->
<svg height="353pt" version="1.1" viewBox="0 0 438 353" width="438pt" xmlns="http://www.w3.org/2000/svg" xmlns:xlink="http://www.w3.org/1999/xlink">
 <defs>
  <style type="text/css">
*{stroke-linecap:butt;stroke-linejoin:round;}
  </style>
 </defs>
 <g id="figure_1">
  <g id="patch_1">
   <path d="M 0 353.22225 
L 438.62 353.22225 
L 438.62 0 
L 0 0 
z
" style="fill:#ffffff;"/>
  </g>
  <g id="axes_1">
   <g id="patch_2">
    <path d="M 70.8 298.245375 
L 427.92 298.245375 
L 427.92 32.133375 
L 70.8 32.133375 
z
" style="fill:#ffffff;"/>
   </g>
   <g id="matplotlib.axis_1">
    <g id="xtick_1">
     <g id="line2d_1">
      <path clip-path="url(#p14740217ad)" d="M 70.8 298.245375 
L 70.8 32.133375 
" style="fill:none;stroke:#b0b0b0;stroke-linecap:square;stroke-width:0.8;"/>
     </g>
     <g id="line2d_2">
      <defs>
       <path d="M 0 0 
L 0 3.5 
" id="m92a8a4f331" style="stroke:#000000;stroke-width:0.8;"/>
      </defs>
      <g>
       <use style="stroke:#000000;stroke-width:0.8;" x="70.8" xlink:href="#m92a8a4f331" y="298.245375"/>
      </g>
     </g>
     <g id="text_1">
      <!-- 0 -->
      <defs>
       <path d="M 31.78125 66.40625 
Q 24.171875 66.40625 20.328125 58.90625 
Q 16.5 51.421875 16.5 36.375 
Q 16.5 21.390625 20.328125 13.890625 
Q 24.171875 6.390625 31.78125 6.390625 
Q 39.453125 6.390625 43.28125 13.890625 
Q 47.125 21.390625 47.125 36.375 
Q 47.125 51.421875 43.28125 58.90625 
Q 39.453125 66.40625 31.78125 66.40625 
z
M 31.78125 74.21875 
Q 44.046875 74.21875 50.515625 64.515625 
Q 56.984375 54.828125 56.984375 36.375 
Q 56.984375 17.96875 50.515625 8.265625 
Q 44.046875 -1.421875 31.78125 -1.421875 
Q 19.53125 -1.421875 13.0625 8.265625 
Q 6.59375 17.96875 6.59375 36.375 
Q 6.59375 54.828125 13.0625 64.515625 
Q 19.53125 74.21875 31.78125 74.21875 
z
" id="DejaVuSans-30"/>
      </defs>
      <g transform="translate(64.4375 320.44225)scale(0.2 -0.2)">
       <use xlink:href="#DejaVuSans-30"/>
      </g>
     </g>
    </g>
    <g id="xtick_2">
     <g id="line2d_3">
      <path clip-path="url(#p14740217ad)" d="M 153.085714 298.245375 
L 153.085714 32.133375 
" style="fill:none;stroke:#b0b0b0;stroke-linecap:square;stroke-width:0.8;"/>
     </g>
     <g id="line2d_4">
      <g>
       <use style="stroke:#000000;stroke-width:0.8;" x="153.085714" xlink:href="#m92a8a4f331" y="298.245375"/>
      </g>
     </g>
     <g id="text_2">
      <!-- 2 -->
      <defs>
       <path d="M 19.1875 8.296875 
L 53.609375 8.296875 
L 53.609375 0 
L 7.328125 0 
L 7.328125 8.296875 
Q 12.9375 14.109375 22.625 23.890625 
Q 32.328125 33.6875 34.8125 36.53125 
Q 39.546875 41.84375 41.421875 45.53125 
Q 43.3125 49.21875 43.3125 52.78125 
Q 43.3125 58.59375 39.234375 62.25 
Q 35.15625 65.921875 28.609375 65.921875 
Q 23.96875 65.921875 18.8125 64.3125 
Q 13.671875 62.703125 7.8125 59.421875 
L 7.8125 69.390625 
Q 13.765625 71.78125 18.9375 73 
Q 24.125 74.21875 28.421875 74.21875 
Q 39.75 74.21875 46.484375 68.546875 
Q 53.21875 62.890625 53.21875 53.421875 
Q 53.21875 48.921875 51.53125 44.890625 
Q 49.859375 40.875 45.40625 35.40625 
Q 44.1875 33.984375 37.640625 27.21875 
Q 31.109375 20.453125 19.1875 8.296875 
z
" id="DejaVuSans-32"/>
      </defs>
      <g transform="translate(146.723214 320.44225)scale(0.2 -0.2)">
       <use xlink:href="#DejaVuSans-32"/>
      </g>
     </g>
    </g>
    <g id="xtick_3">
     <g id="line2d_5">
      <path clip-path="url(#p14740217ad)" d="M 235.371429 298.245375 
L 235.371429 32.133375 
" style="fill:none;stroke:#b0b0b0;stroke-linecap:square;stroke-width:0.8;"/>
     </g>
     <g id="line2d_6">
      <g>
       <use style="stroke:#000000;stroke-width:0.8;" x="235.371429" xlink:href="#m92a8a4f331" y="298.245375"/>
      </g>
     </g>
     <g id="text_3">
      <!-- 4 -->
      <defs>
       <path d="M 37.796875 64.3125 
L 12.890625 25.390625 
L 37.796875 25.390625 
z
M 35.203125 72.90625 
L 47.609375 72.90625 
L 47.609375 25.390625 
L 58.015625 25.390625 
L 58.015625 17.1875 
L 47.609375 17.1875 
L 47.609375 0 
L 37.796875 0 
L 37.796875 17.1875 
L 4.890625 17.1875 
L 4.890625 26.703125 
z
" id="DejaVuSans-34"/>
      </defs>
      <g transform="translate(229.008929 320.44225)scale(0.2 -0.2)">
       <use xlink:href="#DejaVuSans-34"/>
      </g>
     </g>
    </g>
    <g id="xtick_4">
     <g id="line2d_7">
      <path clip-path="url(#p14740217ad)" d="M 317.657143 298.245375 
L 317.657143 32.133375 
" style="fill:none;stroke:#b0b0b0;stroke-linecap:square;stroke-width:0.8;"/>
     </g>
     <g id="line2d_8">
      <g>
       <use style="stroke:#000000;stroke-width:0.8;" x="317.657143" xlink:href="#m92a8a4f331" y="298.245375"/>
      </g>
     </g>
     <g id="text_4">
      <!-- 6 -->
      <defs>
       <path d="M 33.015625 40.375 
Q 26.375 40.375 22.484375 35.828125 
Q 18.609375 31.296875 18.609375 23.390625 
Q 18.609375 15.53125 22.484375 10.953125 
Q 26.375 6.390625 33.015625 6.390625 
Q 39.65625 6.390625 43.53125 10.953125 
Q 47.40625 15.53125 47.40625 23.390625 
Q 47.40625 31.296875 43.53125 35.828125 
Q 39.65625 40.375 33.015625 40.375 
z
M 52.59375 71.296875 
L 52.59375 62.3125 
Q 48.875 64.0625 45.09375 64.984375 
Q 41.3125 65.921875 37.59375 65.921875 
Q 27.828125 65.921875 22.671875 59.328125 
Q 17.53125 52.734375 16.796875 39.40625 
Q 19.671875 43.65625 24.015625 45.921875 
Q 28.375 48.1875 33.59375 48.1875 
Q 44.578125 48.1875 50.953125 41.515625 
Q 57.328125 34.859375 57.328125 23.390625 
Q 57.328125 12.15625 50.6875 5.359375 
Q 44.046875 -1.421875 33.015625 -1.421875 
Q 20.359375 -1.421875 13.671875 8.265625 
Q 6.984375 17.96875 6.984375 36.375 
Q 6.984375 53.65625 15.1875 63.9375 
Q 23.390625 74.21875 37.203125 74.21875 
Q 40.921875 74.21875 44.703125 73.484375 
Q 48.484375 72.75 52.59375 71.296875 
z
" id="DejaVuSans-36"/>
      </defs>
      <g transform="translate(311.294643 320.44225)scale(0.2 -0.2)">
       <use xlink:href="#DejaVuSans-36"/>
      </g>
     </g>
    </g>
    <g id="xtick_5">
     <g id="line2d_9">
      <path clip-path="url(#p14740217ad)" d="M 399.942857 298.245375 
L 399.942857 32.133375 
" style="fill:none;stroke:#b0b0b0;stroke-linecap:square;stroke-width:0.8;"/>
     </g>
     <g id="line2d_10">
      <g>
       <use style="stroke:#000000;stroke-width:0.8;" x="399.942857" xlink:href="#m92a8a4f331" y="298.245375"/>
      </g>
     </g>
     <g id="text_5">
      <!-- 8 -->
      <defs>
       <path d="M 31.78125 34.625 
Q 24.75 34.625 20.71875 30.859375 
Q 16.703125 27.09375 16.703125 20.515625 
Q 16.703125 13.921875 20.71875 10.15625 
Q 24.75 6.390625 31.78125 6.390625 
Q 38.8125 6.390625 42.859375 10.171875 
Q 46.921875 13.96875 46.921875 20.515625 
Q 46.921875 27.09375 42.890625 30.859375 
Q 38.875 34.625 31.78125 34.625 
z
M 21.921875 38.8125 
Q 15.578125 40.375 12.03125 44.71875 
Q 8.5 49.078125 8.5 55.328125 
Q 8.5 64.0625 14.71875 69.140625 
Q 20.953125 74.21875 31.78125 74.21875 
Q 42.671875 74.21875 48.875 69.140625 
Q 55.078125 64.0625 55.078125 55.328125 
Q 55.078125 49.078125 51.53125 44.71875 
Q 48 40.375 41.703125 38.8125 
Q 48.828125 37.15625 52.796875 32.3125 
Q 56.78125 27.484375 56.78125 20.515625 
Q 56.78125 9.90625 50.3125 4.234375 
Q 43.84375 -1.421875 31.78125 -1.421875 
Q 19.734375 -1.421875 13.25 4.234375 
Q 6.78125 9.90625 6.78125 20.515625 
Q 6.78125 27.484375 10.78125 32.3125 
Q 14.796875 37.15625 21.921875 38.8125 
z
M 18.3125 54.390625 
Q 18.3125 48.734375 21.84375 45.5625 
Q 25.390625 42.390625 31.78125 42.390625 
Q 38.140625 42.390625 41.71875 45.5625 
Q 45.3125 48.734375 45.3125 54.390625 
Q 45.3125 60.0625 41.71875 63.234375 
Q 38.140625 66.40625 31.78125 66.40625 
Q 25.390625 66.40625 21.84375 63.234375 
Q 18.3125 60.0625 18.3125 54.390625 
z
" id="DejaVuSans-38"/>
      </defs>
      <g transform="translate(393.580357 320.44225)scale(0.2 -0.2)">
       <use xlink:href="#DejaVuSans-38"/>
      </g>
     </g>
    </g>
    <g id="text_6">
     <!-- log10 of (# f-evals / dimension) -->
     <defs>
      <path d="M 9.421875 75.984375 
L 18.40625 75.984375 
L 18.40625 0 
L 9.421875 0 
z
" id="DejaVuSans-6c"/>
      <path d="M 30.609375 48.390625 
Q 23.390625 48.390625 19.1875 42.75 
Q 14.984375 37.109375 14.984375 27.296875 
Q 14.984375 17.484375 19.15625 11.84375 
Q 23.34375 6.203125 30.609375 6.203125 
Q 37.796875 6.203125 41.984375 11.859375 
Q 46.1875 17.53125 46.1875 27.296875 
Q 46.1875 37.015625 41.984375 42.703125 
Q 37.796875 48.390625 30.609375 48.390625 
z
M 30.609375 56 
Q 42.328125 56 49.015625 48.375 
Q 55.71875 40.765625 55.71875 27.296875 
Q 55.71875 13.875 49.015625 6.21875 
Q 42.328125 -1.421875 30.609375 -1.421875 
Q 18.84375 -1.421875 12.171875 6.21875 
Q 5.515625 13.875 5.515625 27.296875 
Q 5.515625 40.765625 12.171875 48.375 
Q 18.84375 56 30.609375 56 
z
" id="DejaVuSans-6f"/>
      <path d="M 45.40625 27.984375 
Q 45.40625 37.75 41.375 43.109375 
Q 37.359375 48.484375 30.078125 48.484375 
Q 22.859375 48.484375 18.828125 43.109375 
Q 14.796875 37.75 14.796875 27.984375 
Q 14.796875 18.265625 18.828125 12.890625 
Q 22.859375 7.515625 30.078125 7.515625 
Q 37.359375 7.515625 41.375 12.890625 
Q 45.40625 18.265625 45.40625 27.984375 
z
M 54.390625 6.78125 
Q 54.390625 -7.171875 48.1875 -13.984375 
Q 42 -20.796875 29.203125 -20.796875 
Q 24.46875 -20.796875 20.265625 -20.09375 
Q 16.0625 -19.390625 12.109375 -17.921875 
L 12.109375 -9.1875 
Q 16.0625 -11.328125 19.921875 -12.34375 
Q 23.78125 -13.375 27.78125 -13.375 
Q 36.625 -13.375 41.015625 -8.765625 
Q 45.40625 -4.15625 45.40625 5.171875 
L 45.40625 9.625 
Q 42.625 4.78125 38.28125 2.390625 
Q 33.9375 0 27.875 0 
Q 17.828125 0 11.671875 7.65625 
Q 5.515625 15.328125 5.515625 27.984375 
Q 5.515625 40.671875 11.671875 48.328125 
Q 17.828125 56 27.875 56 
Q 33.9375 56 38.28125 53.609375 
Q 42.625 51.21875 45.40625 46.390625 
L 45.40625 54.6875 
L 54.390625 54.6875 
z
" id="DejaVuSans-67"/>
      <path d="M 12.40625 8.296875 
L 28.515625 8.296875 
L 28.515625 63.921875 
L 10.984375 60.40625 
L 10.984375 69.390625 
L 28.421875 72.90625 
L 38.28125 72.90625 
L 38.28125 8.296875 
L 54.390625 8.296875 
L 54.390625 0 
L 12.40625 0 
z
" id="DejaVuSans-31"/>
      <path id="DejaVuSans-20"/>
      <path d="M 37.109375 75.984375 
L 37.109375 68.5 
L 28.515625 68.5 
Q 23.6875 68.5 21.796875 66.546875 
Q 19.921875 64.59375 19.921875 59.515625 
L 19.921875 54.6875 
L 34.71875 54.6875 
L 34.71875 47.703125 
L 19.921875 47.703125 
L 19.921875 0 
L 10.890625 0 
L 10.890625 47.703125 
L 2.296875 47.703125 
L 2.296875 54.6875 
L 10.890625 54.6875 
L 10.890625 58.5 
Q 10.890625 67.625 15.140625 71.796875 
Q 19.390625 75.984375 28.609375 75.984375 
z
" id="DejaVuSans-66"/>
      <path d="M 31 75.875 
Q 24.46875 64.65625 21.28125 53.65625 
Q 18.109375 42.671875 18.109375 31.390625 
Q 18.109375 20.125 21.3125 9.0625 
Q 24.515625 -2 31 -13.1875 
L 23.1875 -13.1875 
Q 15.875 -1.703125 12.234375 9.375 
Q 8.59375 20.453125 8.59375 31.390625 
Q 8.59375 42.28125 12.203125 53.3125 
Q 15.828125 64.359375 23.1875 75.875 
z
" id="DejaVuSans-28"/>
      <path d="M 51.125 44 
L 36.921875 44 
L 32.8125 27.6875 
L 47.125 27.6875 
z
M 43.796875 71.78125 
L 38.71875 51.515625 
L 52.984375 51.515625 
L 58.109375 71.78125 
L 65.921875 71.78125 
L 60.890625 51.515625 
L 76.125 51.515625 
L 76.125 44 
L 58.984375 44 
L 54.984375 27.6875 
L 70.515625 27.6875 
L 70.515625 20.21875 
L 53.078125 20.21875 
L 48 0 
L 40.1875 0 
L 45.21875 20.21875 
L 30.90625 20.21875 
L 25.875 0 
L 18.015625 0 
L 23.09375 20.21875 
L 7.71875 20.21875 
L 7.71875 27.6875 
L 24.90625 27.6875 
L 29 44 
L 13.28125 44 
L 13.28125 51.515625 
L 30.90625 51.515625 
L 35.890625 71.78125 
z
" id="DejaVuSans-23"/>
      <path d="M 4.890625 31.390625 
L 31.203125 31.390625 
L 31.203125 23.390625 
L 4.890625 23.390625 
z
" id="DejaVuSans-2d"/>
      <path d="M 56.203125 29.59375 
L 56.203125 25.203125 
L 14.890625 25.203125 
Q 15.484375 15.921875 20.484375 11.0625 
Q 25.484375 6.203125 34.421875 6.203125 
Q 39.59375 6.203125 44.453125 7.46875 
Q 49.3125 8.734375 54.109375 11.28125 
L 54.109375 2.78125 
Q 49.265625 0.734375 44.1875 -0.34375 
Q 39.109375 -1.421875 33.890625 -1.421875 
Q 20.796875 -1.421875 13.15625 6.1875 
Q 5.515625 13.8125 5.515625 26.8125 
Q 5.515625 40.234375 12.765625 48.109375 
Q 20.015625 56 32.328125 56 
Q 43.359375 56 49.78125 48.890625 
Q 56.203125 41.796875 56.203125 29.59375 
z
M 47.21875 32.234375 
Q 47.125 39.59375 43.09375 43.984375 
Q 39.0625 48.390625 32.421875 48.390625 
Q 24.90625 48.390625 20.390625 44.140625 
Q 15.875 39.890625 15.1875 32.171875 
z
" id="DejaVuSans-65"/>
      <path d="M 2.984375 54.6875 
L 12.5 54.6875 
L 29.59375 8.796875 
L 46.6875 54.6875 
L 56.203125 54.6875 
L 35.6875 0 
L 23.484375 0 
z
" id="DejaVuSans-76"/>
      <path d="M 34.28125 27.484375 
Q 23.390625 27.484375 19.1875 25 
Q 14.984375 22.515625 14.984375 16.5 
Q 14.984375 11.71875 18.140625 8.90625 
Q 21.296875 6.109375 26.703125 6.109375 
Q 34.1875 6.109375 38.703125 11.40625 
Q 43.21875 16.703125 43.21875 25.484375 
L 43.21875 27.484375 
z
M 52.203125 31.203125 
L 52.203125 0 
L 43.21875 0 
L 43.21875 8.296875 
Q 40.140625 3.328125 35.546875 0.953125 
Q 30.953125 -1.421875 24.3125 -1.421875 
Q 15.921875 -1.421875 10.953125 3.296875 
Q 6 8.015625 6 15.921875 
Q 6 25.140625 12.171875 29.828125 
Q 18.359375 34.515625 30.609375 34.515625 
L 43.21875 34.515625 
L 43.21875 35.40625 
Q 43.21875 41.609375 39.140625 45 
Q 35.0625 48.390625 27.6875 48.390625 
Q 23 48.390625 18.546875 47.265625 
Q 14.109375 46.140625 10.015625 43.890625 
L 10.015625 52.203125 
Q 14.9375 54.109375 19.578125 55.046875 
Q 24.21875 56 28.609375 56 
Q 40.484375 56 46.34375 49.84375 
Q 52.203125 43.703125 52.203125 31.203125 
z
" id="DejaVuSans-61"/>
      <path d="M 44.28125 53.078125 
L 44.28125 44.578125 
Q 40.484375 46.53125 36.375 47.5 
Q 32.28125 48.484375 27.875 48.484375 
Q 21.1875 48.484375 17.84375 46.4375 
Q 14.5 44.390625 14.5 40.28125 
Q 14.5 37.15625 16.890625 35.375 
Q 19.28125 33.59375 26.515625 31.984375 
L 29.59375 31.296875 
Q 39.15625 29.25 43.1875 25.515625 
Q 47.21875 21.78125 47.21875 15.09375 
Q 47.21875 7.46875 41.1875 3.015625 
Q 35.15625 -1.421875 24.609375 -1.421875 
Q 20.21875 -1.421875 15.453125 -0.5625 
Q 10.6875 0.296875 5.421875 2 
L 5.421875 11.28125 
Q 10.40625 8.6875 15.234375 7.390625 
Q 20.0625 6.109375 24.8125 6.109375 
Q 31.15625 6.109375 34.5625 8.28125 
Q 37.984375 10.453125 37.984375 14.40625 
Q 37.984375 18.0625 35.515625 20.015625 
Q 33.0625 21.96875 24.703125 23.78125 
L 21.578125 24.515625 
Q 13.234375 26.265625 9.515625 29.90625 
Q 5.8125 33.546875 5.8125 39.890625 
Q 5.8125 47.609375 11.28125 51.796875 
Q 16.75 56 26.8125 56 
Q 31.78125 56 36.171875 55.265625 
Q 40.578125 54.546875 44.28125 53.078125 
z
" id="DejaVuSans-73"/>
      <path d="M 25.390625 72.90625 
L 33.6875 72.90625 
L 8.296875 -9.28125 
L 0 -9.28125 
z
" id="DejaVuSans-2f"/>
      <path d="M 45.40625 46.390625 
L 45.40625 75.984375 
L 54.390625 75.984375 
L 54.390625 0 
L 45.40625 0 
L 45.40625 8.203125 
Q 42.578125 3.328125 38.25 0.953125 
Q 33.9375 -1.421875 27.875 -1.421875 
Q 17.96875 -1.421875 11.734375 6.484375 
Q 5.515625 14.40625 5.515625 27.296875 
Q 5.515625 40.1875 11.734375 48.09375 
Q 17.96875 56 27.875 56 
Q 33.9375 56 38.25 53.625 
Q 42.578125 51.265625 45.40625 46.390625 
z
M 14.796875 27.296875 
Q 14.796875 17.390625 18.875 11.75 
Q 22.953125 6.109375 30.078125 6.109375 
Q 37.203125 6.109375 41.296875 11.75 
Q 45.40625 17.390625 45.40625 27.296875 
Q 45.40625 37.203125 41.296875 42.84375 
Q 37.203125 48.484375 30.078125 48.484375 
Q 22.953125 48.484375 18.875 42.84375 
Q 14.796875 37.203125 14.796875 27.296875 
z
" id="DejaVuSans-64"/>
      <path d="M 9.421875 54.6875 
L 18.40625 54.6875 
L 18.40625 0 
L 9.421875 0 
z
M 9.421875 75.984375 
L 18.40625 75.984375 
L 18.40625 64.59375 
L 9.421875 64.59375 
z
" id="DejaVuSans-69"/>
      <path d="M 52 44.1875 
Q 55.375 50.25 60.0625 53.125 
Q 64.75 56 71.09375 56 
Q 79.640625 56 84.28125 50.015625 
Q 88.921875 44.046875 88.921875 33.015625 
L 88.921875 0 
L 79.890625 0 
L 79.890625 32.71875 
Q 79.890625 40.578125 77.09375 44.375 
Q 74.3125 48.1875 68.609375 48.1875 
Q 61.625 48.1875 57.5625 43.546875 
Q 53.515625 38.921875 53.515625 30.90625 
L 53.515625 0 
L 44.484375 0 
L 44.484375 32.71875 
Q 44.484375 40.625 41.703125 44.40625 
Q 38.921875 48.1875 33.109375 48.1875 
Q 26.21875 48.1875 22.15625 43.53125 
Q 18.109375 38.875 18.109375 30.90625 
L 18.109375 0 
L 9.078125 0 
L 9.078125 54.6875 
L 18.109375 54.6875 
L 18.109375 46.1875 
Q 21.1875 51.21875 25.484375 53.609375 
Q 29.78125 56 35.6875 56 
Q 41.65625 56 45.828125 52.96875 
Q 50 49.953125 52 44.1875 
z
" id="DejaVuSans-6d"/>
      <path d="M 54.890625 33.015625 
L 54.890625 0 
L 45.90625 0 
L 45.90625 32.71875 
Q 45.90625 40.484375 42.875 44.328125 
Q 39.84375 48.1875 33.796875 48.1875 
Q 26.515625 48.1875 22.3125 43.546875 
Q 18.109375 38.921875 18.109375 30.90625 
L 18.109375 0 
L 9.078125 0 
L 9.078125 54.6875 
L 18.109375 54.6875 
L 18.109375 46.1875 
Q 21.34375 51.125 25.703125 53.5625 
Q 30.078125 56 35.796875 56 
Q 45.21875 56 50.046875 50.171875 
Q 54.890625 44.34375 54.890625 33.015625 
z
" id="DejaVuSans-6e"/>
      <path d="M 8.015625 75.875 
L 15.828125 75.875 
Q 23.140625 64.359375 26.78125 53.3125 
Q 30.421875 42.28125 30.421875 31.390625 
Q 30.421875 20.453125 26.78125 9.375 
Q 23.140625 -1.703125 15.828125 -13.1875 
L 8.015625 -13.1875 
Q 14.5 -2 17.703125 9.0625 
Q 20.90625 20.125 20.90625 31.390625 
Q 20.90625 42.671875 17.703125 53.65625 
Q 14.5 64.65625 8.015625 75.875 
z
" id="DejaVuSans-29"/>
     </defs>
     <g transform="translate(107.015156 342.278812)scale(0.18 -0.18)">
      <use xlink:href="#DejaVuSans-6c"/>
      <use x="27.783203" xlink:href="#DejaVuSans-6f"/>
      <use x="88.964844" xlink:href="#DejaVuSans-67"/>
      <use x="152.441406" xlink:href="#DejaVuSans-31"/>
      <use x="216.064453" xlink:href="#DejaVuSans-30"/>
      <use x="279.6875" xlink:href="#DejaVuSans-20"/>
      <use x="311.474609" xlink:href="#DejaVuSans-6f"/>
      <use x="372.65625" xlink:href="#DejaVuSans-66"/>
      <use x="407.861328" xlink:href="#DejaVuSans-20"/>
      <use x="439.648438" xlink:href="#DejaVuSans-28"/>
      <use x="478.662109" xlink:href="#DejaVuSans-23"/>
      <use x="562.451172" xlink:href="#DejaVuSans-20"/>
      <use x="594.238281" xlink:href="#DejaVuSans-66"/>
      <use x="629.365234" xlink:href="#DejaVuSans-2d"/>
      <use x="665.449219" xlink:href="#DejaVuSans-65"/>
      <use x="726.972656" xlink:href="#DejaVuSans-76"/>
      <use x="786.152344" xlink:href="#DejaVuSans-61"/>
      <use x="847.431641" xlink:href="#DejaVuSans-6c"/>
      <use x="875.214844" xlink:href="#DejaVuSans-73"/>
      <use x="927.314453" xlink:href="#DejaVuSans-20"/>
      <use x="959.101562" xlink:href="#DejaVuSans-2f"/>
      <use x="992.792969" xlink:href="#DejaVuSans-20"/>
      <use x="1024.580078" xlink:href="#DejaVuSans-64"/>
      <use x="1088.056641" xlink:href="#DejaVuSans-69"/>
      <use x="1115.839844" xlink:href="#DejaVuSans-6d"/>
      <use x="1213.251953" xlink:href="#DejaVuSans-65"/>
      <use x="1274.775391" xlink:href="#DejaVuSans-6e"/>
      <use x="1338.154297" xlink:href="#DejaVuSans-73"/>
      <use x="1390.253906" xlink:href="#DejaVuSans-69"/>
      <use x="1418.037109" xlink:href="#DejaVuSans-6f"/>
      <use x="1479.21875" xlink:href="#DejaVuSans-6e"/>
      <use x="1542.597656" xlink:href="#DejaVuSans-29"/>
     </g>
    </g>
   </g>
   <g id="matplotlib.axis_2">
    <g id="ytick_1">
     <g id="line2d_11">
      <path clip-path="url(#p14740217ad)" d="M 70.8 298.245375 
L 427.92 298.245375 
" style="fill:none;stroke:#b0b0b0;stroke-linecap:square;stroke-width:0.8;"/>
     </g>
     <g id="line2d_12">
      <defs>
       <path d="M 0 0 
L -3.5 0 
" id="m9680c1e90a" style="stroke:#000000;stroke-width:0.8;"/>
      </defs>
      <g>
       <use style="stroke:#000000;stroke-width:0.8;" x="70.8" xlink:href="#m9680c1e90a" y="298.245375"/>
      </g>
     </g>
     <g id="text_7">
      <!-- 0.0 -->
      <defs>
       <path d="M 10.6875 12.40625 
L 21 12.40625 
L 21 0 
L 10.6875 0 
z
" id="DejaVuSans-2e"/>
      </defs>
      <g transform="translate(31.99375 305.843812)scale(0.2 -0.2)">
       <use xlink:href="#DejaVuSans-30"/>
       <use x="63.623047" xlink:href="#DejaVuSans-2e"/>
       <use x="95.410156" xlink:href="#DejaVuSans-30"/>
      </g>
     </g>
    </g>
    <g id="ytick_2">
     <g id="line2d_13">
      <path clip-path="url(#p14740217ad)" d="M 70.8 245.549929 
L 427.92 245.549929 
" style="fill:none;stroke:#b0b0b0;stroke-linecap:square;stroke-width:0.8;"/>
     </g>
     <g id="line2d_14">
      <g>
       <use style="stroke:#000000;stroke-width:0.8;" x="70.8" xlink:href="#m9680c1e90a" y="245.549929"/>
      </g>
     </g>
     <g id="text_8">
      <!-- 0.2 -->
      <g transform="translate(31.99375 253.148367)scale(0.2 -0.2)">
       <use xlink:href="#DejaVuSans-30"/>
       <use x="63.623047" xlink:href="#DejaVuSans-2e"/>
       <use x="95.410156" xlink:href="#DejaVuSans-32"/>
      </g>
     </g>
    </g>
    <g id="ytick_3">
     <g id="line2d_15">
      <path clip-path="url(#p14740217ad)" d="M 70.8 192.854484 
L 427.92 192.854484 
" style="fill:none;stroke:#b0b0b0;stroke-linecap:square;stroke-width:0.8;"/>
     </g>
     <g id="line2d_16">
      <g>
       <use style="stroke:#000000;stroke-width:0.8;" x="70.8" xlink:href="#m9680c1e90a" y="192.854484"/>
      </g>
     </g>
     <g id="text_9">
      <!-- 0.4 -->
      <g transform="translate(31.99375 200.452921)scale(0.2 -0.2)">
       <use xlink:href="#DejaVuSans-30"/>
       <use x="63.623047" xlink:href="#DejaVuSans-2e"/>
       <use x="95.410156" xlink:href="#DejaVuSans-34"/>
      </g>
     </g>
    </g>
    <g id="ytick_4">
     <g id="line2d_17">
      <path clip-path="url(#p14740217ad)" d="M 70.8 140.159038 
L 427.92 140.159038 
" style="fill:none;stroke:#b0b0b0;stroke-linecap:square;stroke-width:0.8;"/>
     </g>
     <g id="line2d_18">
      <g>
       <use style="stroke:#000000;stroke-width:0.8;" x="70.8" xlink:href="#m9680c1e90a" y="140.159038"/>
      </g>
     </g>
     <g id="text_10">
      <!-- 0.6 -->
      <g transform="translate(31.99375 147.757476)scale(0.2 -0.2)">
       <use xlink:href="#DejaVuSans-30"/>
       <use x="63.623047" xlink:href="#DejaVuSans-2e"/>
       <use x="95.410156" xlink:href="#DejaVuSans-36"/>
      </g>
     </g>
    </g>
    <g id="ytick_5">
     <g id="line2d_19">
      <path clip-path="url(#p14740217ad)" d="M 70.8 87.463593 
L 427.92 87.463593 
" style="fill:none;stroke:#b0b0b0;stroke-linecap:square;stroke-width:0.8;"/>
     </g>
     <g id="line2d_20">
      <g>
       <use style="stroke:#000000;stroke-width:0.8;" x="70.8" xlink:href="#m9680c1e90a" y="87.463593"/>
      </g>
     </g>
     <g id="text_11">
      <!-- 0.8 -->
      <g transform="translate(31.99375 95.06203)scale(0.2 -0.2)">
       <use xlink:href="#DejaVuSans-30"/>
       <use x="63.623047" xlink:href="#DejaVuSans-2e"/>
       <use x="95.410156" xlink:href="#DejaVuSans-38"/>
      </g>
     </g>
    </g>
    <g id="ytick_6">
     <g id="line2d_21">
      <path clip-path="url(#p14740217ad)" d="M 70.8 34.768147 
L 427.92 34.768147 
" style="fill:none;stroke:#b0b0b0;stroke-linecap:square;stroke-width:0.8;"/>
     </g>
     <g id="line2d_22">
      <g>
       <use style="stroke:#000000;stroke-width:0.8;" x="70.8" xlink:href="#m9680c1e90a" y="34.768147"/>
      </g>
     </g>
     <g id="text_12">
      <!-- 1.0 -->
      <g transform="translate(31.99375 42.366585)scale(0.2 -0.2)">
       <use xlink:href="#DejaVuSans-31"/>
       <use x="63.623047" xlink:href="#DejaVuSans-2e"/>
       <use x="95.410156" xlink:href="#DejaVuSans-30"/>
      </g>
     </g>
    </g>
    <g id="text_13">
     <!-- Proportion of function+target pairs -->
     <defs>
      <path d="M 19.671875 64.796875 
L 19.671875 37.40625 
L 32.078125 37.40625 
Q 38.96875 37.40625 42.71875 40.96875 
Q 46.484375 44.53125 46.484375 51.125 
Q 46.484375 57.671875 42.71875 61.234375 
Q 38.96875 64.796875 32.078125 64.796875 
z
M 9.8125 72.90625 
L 32.078125 72.90625 
Q 44.34375 72.90625 50.609375 67.359375 
Q 56.890625 61.8125 56.890625 51.125 
Q 56.890625 40.328125 50.609375 34.8125 
Q 44.34375 29.296875 32.078125 29.296875 
L 19.671875 29.296875 
L 19.671875 0 
L 9.8125 0 
z
" id="DejaVuSans-50"/>
      <path d="M 41.109375 46.296875 
Q 39.59375 47.171875 37.8125 47.578125 
Q 36.03125 48 33.890625 48 
Q 26.265625 48 22.1875 43.046875 
Q 18.109375 38.09375 18.109375 28.8125 
L 18.109375 0 
L 9.078125 0 
L 9.078125 54.6875 
L 18.109375 54.6875 
L 18.109375 46.1875 
Q 20.953125 51.171875 25.484375 53.578125 
Q 30.03125 56 36.53125 56 
Q 37.453125 56 38.578125 55.875 
Q 39.703125 55.765625 41.0625 55.515625 
z
" id="DejaVuSans-72"/>
      <path d="M 18.109375 8.203125 
L 18.109375 -20.796875 
L 9.078125 -20.796875 
L 9.078125 54.6875 
L 18.109375 54.6875 
L 18.109375 46.390625 
Q 20.953125 51.265625 25.265625 53.625 
Q 29.59375 56 35.59375 56 
Q 45.5625 56 51.78125 48.09375 
Q 58.015625 40.1875 58.015625 27.296875 
Q 58.015625 14.40625 51.78125 6.484375 
Q 45.5625 -1.421875 35.59375 -1.421875 
Q 29.59375 -1.421875 25.265625 0.953125 
Q 20.953125 3.328125 18.109375 8.203125 
z
M 48.6875 27.296875 
Q 48.6875 37.203125 44.609375 42.84375 
Q 40.53125 48.484375 33.40625 48.484375 
Q 26.265625 48.484375 22.1875 42.84375 
Q 18.109375 37.203125 18.109375 27.296875 
Q 18.109375 17.390625 22.1875 11.75 
Q 26.265625 6.109375 33.40625 6.109375 
Q 40.53125 6.109375 44.609375 11.75 
Q 48.6875 17.390625 48.6875 27.296875 
z
" id="DejaVuSans-70"/>
      <path d="M 18.3125 70.21875 
L 18.3125 54.6875 
L 36.8125 54.6875 
L 36.8125 47.703125 
L 18.3125 47.703125 
L 18.3125 18.015625 
Q 18.3125 11.328125 20.140625 9.421875 
Q 21.96875 7.515625 27.59375 7.515625 
L 36.8125 7.515625 
L 36.8125 0 
L 27.59375 0 
Q 17.1875 0 13.234375 3.875 
Q 9.28125 7.765625 9.28125 18.015625 
L 9.28125 47.703125 
L 2.6875 47.703125 
L 2.6875 54.6875 
L 9.28125 54.6875 
L 9.28125 70.21875 
z
" id="DejaVuSans-74"/>
      <path d="M 8.5 21.578125 
L 8.5 54.6875 
L 17.484375 54.6875 
L 17.484375 21.921875 
Q 17.484375 14.15625 20.5 10.265625 
Q 23.53125 6.390625 29.59375 6.390625 
Q 36.859375 6.390625 41.078125 11.03125 
Q 45.3125 15.671875 45.3125 23.6875 
L 45.3125 54.6875 
L 54.296875 54.6875 
L 54.296875 0 
L 45.3125 0 
L 45.3125 8.40625 
Q 42.046875 3.421875 37.71875 1 
Q 33.40625 -1.421875 27.6875 -1.421875 
Q 18.265625 -1.421875 13.375 4.4375 
Q 8.5 10.296875 8.5 21.578125 
z
M 31.109375 56 
z
" id="DejaVuSans-75"/>
      <path d="M 48.78125 52.59375 
L 48.78125 44.1875 
Q 44.96875 46.296875 41.140625 47.34375 
Q 37.3125 48.390625 33.40625 48.390625 
Q 24.65625 48.390625 19.8125 42.84375 
Q 14.984375 37.3125 14.984375 27.296875 
Q 14.984375 17.28125 19.8125 11.734375 
Q 24.65625 6.203125 33.40625 6.203125 
Q 37.3125 6.203125 41.140625 7.25 
Q 44.96875 8.296875 48.78125 10.40625 
L 48.78125 2.09375 
Q 45.015625 0.34375 40.984375 -0.53125 
Q 36.96875 -1.421875 32.421875 -1.421875 
Q 20.0625 -1.421875 12.78125 6.34375 
Q 5.515625 14.109375 5.515625 27.296875 
Q 5.515625 40.671875 12.859375 48.328125 
Q 20.21875 56 33.015625 56 
Q 37.15625 56 41.109375 55.140625 
Q 45.0625 54.296875 48.78125 52.59375 
z
" id="DejaVuSans-63"/>
      <path d="M 46 62.703125 
L 46 35.5 
L 73.1875 35.5 
L 73.1875 27.203125 
L 46 27.203125 
L 46 0 
L 37.796875 0 
L 37.796875 27.203125 
L 10.59375 27.203125 
L 10.59375 35.5 
L 37.796875 35.5 
L 37.796875 62.703125 
z
" id="DejaVuSans-2b"/>
     </defs>
     <g transform="translate(24.250312 323.17875)rotate(-90)scale(0.18 -0.18)">
      <use xlink:href="#DejaVuSans-50"/>
      <use x="60.287109" xlink:href="#DejaVuSans-72"/>
      <use x="101.369141" xlink:href="#DejaVuSans-6f"/>
      <use x="162.550781" xlink:href="#DejaVuSans-70"/>
      <use x="226.027344" xlink:href="#DejaVuSans-6f"/>
      <use x="287.208984" xlink:href="#DejaVuSans-72"/>
      <use x="328.322266" xlink:href="#DejaVuSans-74"/>
      <use x="367.53125" xlink:href="#DejaVuSans-69"/>
      <use x="395.314453" xlink:href="#DejaVuSans-6f"/>
      <use x="456.496094" xlink:href="#DejaVuSans-6e"/>
      <use x="519.875" xlink:href="#DejaVuSans-20"/>
      <use x="551.662109" xlink:href="#DejaVuSans-6f"/>
      <use x="612.84375" xlink:href="#DejaVuSans-66"/>
      <use x="648.048828" xlink:href="#DejaVuSans-20"/>
      <use x="679.835938" xlink:href="#DejaVuSans-66"/>
      <use x="715.041016" xlink:href="#DejaVuSans-75"/>
      <use x="778.419922" xlink:href="#DejaVuSans-6e"/>
      <use x="841.798828" xlink:href="#DejaVuSans-63"/>
      <use x="896.779297" xlink:href="#DejaVuSans-74"/>
      <use x="935.988281" xlink:href="#DejaVuSans-69"/>
      <use x="963.771484" xlink:href="#DejaVuSans-6f"/>
      <use x="1024.953125" xlink:href="#DejaVuSans-6e"/>
      <use x="1088.332031" xlink:href="#DejaVuSans-2b"/>
      <use x="1172.121094" xlink:href="#DejaVuSans-74"/>
      <use x="1211.330078" xlink:href="#DejaVuSans-61"/>
      <use x="1272.609375" xlink:href="#DejaVuSans-72"/>
      <use x="1313.707031" xlink:href="#DejaVuSans-67"/>
      <use x="1377.183594" xlink:href="#DejaVuSans-65"/>
      <use x="1438.707031" xlink:href="#DejaVuSans-74"/>
      <use x="1477.916016" xlink:href="#DejaVuSans-20"/>
      <use x="1509.703125" xlink:href="#DejaVuSans-70"/>
      <use x="1573.179688" xlink:href="#DejaVuSans-61"/>
      <use x="1634.458984" xlink:href="#DejaVuSans-69"/>
      <use x="1662.242188" xlink:href="#DejaVuSans-72"/>
      <use x="1703.355469" xlink:href="#DejaVuSans-73"/>
     </g>
    </g>
   </g>
   <g id="line2d_23">
    <defs>
     <path d="M 0 1.5 
C 0.397805 1.5 0.77937 1.341951 1.06066 1.06066 
C 1.341951 0.77937 1.5 0.397805 1.5 0 
C 1.5 -0.397805 1.341951 -0.77937 1.06066 -1.06066 
C 0.77937 -1.341951 0.397805 -1.5 0 -1.5 
C -0.397805 -1.5 -0.77937 -1.341951 -1.06066 -1.06066 
C -1.341951 -0.77937 -1.5 -0.397805 -1.5 0 
C -1.5 0.397805 -1.341951 0.77937 -1.06066 1.06066 
C -0.77937 1.341951 -0.397805 1.5 0 1.5 
z
" id="m7726b6b384" style="stroke:#000080;"/>
    </defs>
    <g>
     <use style="fill:#000080;stroke:#000080;" x="274.911736" xlink:href="#m7726b6b384" y="200.087192"/>
     <use style="fill:#000080;stroke:#000080;" x="274.911736" xlink:href="#m7726b6b384" y="200.087192"/>
    </g>
   </g>
   <g id="line2d_24">
    <path d="M 51.169868 298.245375 
L 51.169868 287.396313 
L 63.555102 287.396313 
L 63.555102 285.846447 
L 75.940337 285.846447 
L 75.940337 284.296581 
L 85.939616 284.296581 
L 85.939616 283.263337 
L 88.325571 283.263337 
L 88.325571 282.746715 
L 102.815366 282.746715 
L 102.815366 282.230093 
L 103.781445 282.230093 
L 103.781445 281.713471 
L 116.166679 281.713471 
L 116.166679 281.196849 
L 119.187755 281.196849 
L 119.187755 278.097116 
L 122.111504 278.097116 
L 122.111504 277.063872 
L 122.773362 277.063872 
L 122.773362 276.030628 
L 123.411577 276.030628 
L 123.411577 275.514006 
L 124.02778 275.514006 
L 124.02778 274.997384 
L 125.758304 274.997384 
L 125.758304 274.480762 
L 127.335926 274.480762 
L 127.335926 273.447518 
L 128.315246 273.447518 
L 128.315246 272.930896 
L 128.785487 272.930896 
L 128.785487 272.414274 
L 130.126224 272.414274 
L 130.126224 271.38103 
L 133.455583 271.38103 
L 133.455583 270.347786 
L 134.995416 270.347786 
L 134.995416 269.831164 
L 136.260944 269.831164 
L 136.260944 268.79792 
L 137.585114 268.79792 
L 137.585114 267.764676 
L 138.143538 267.764676 
L 138.143538 267.248054 
L 138.949755 267.248054 
L 138.949755 266.731432 
L 139.467708 266.731432 
L 139.467708 266.21481 
L 139.72116 266.21481 
L 139.72116 265.698188 
L 140.217529 265.698188 
L 140.217529 264.148322 
L 141.853662 264.148322 
L 141.853662 263.6317 
L 142.403494 263.6317 
L 142.403494 263.115078 
L 142.72545 263.115078 
L 142.72545 262.598456 
L 144.25357 262.598456 
L 144.25357 261.04859 
L 144.924302 261.04859 
L 144.924302 260.531968 
L 146.797489 260.531968 
L 146.797489 260.015346 
L 148.260243 260.015346 
L 148.260243 259.498724 
L 149.970348 259.498724 
L 149.970348 258.46548 
L 150.251741 258.46548 
L 150.251741 257.948858 
L 150.869127 257.948858 
L 150.869127 257.432236 
L 153.497847 257.432236 
L 153.497847 256.915614 
L 153.786515 256.915614 
L 153.786515 255.88237 
L 154.070592 255.88237 
L 154.070592 254.332504 
L 154.405629 254.332504 
L 154.460863 253.29926 
L 157.54311 253.29926 
L 157.54311 252.782638 
L 157.819426 252.782638 
L 157.819426 252.266016 
L 160.684447 252.266016 
L 160.684447 251.749394 
L 160.878037 251.749394 
L 160.916504 249.682906 
L 164.617019 249.682906 
L 164.617019 249.166284 
L 165.049085 249.166284 
L 165.049085 248.649662 
L 166.257447 248.649662 
L 166.257447 248.13304 
L 167.254996 248.13304 
L 167.254996 247.099796 
L 168.42838 247.099796 
L 168.42838 246.066551 
L 168.827684 246.066551 
L 168.827684 245.549929 
L 169.600479 245.549929 
L 169.600479 245.033307 
L 171.945024 245.033307 
L 171.945024 244.000063 
L 177.111253 244.000063 
L 177.111253 243.483441 
L 209.968073 243.483441 
L 210.014909 242.450197 
L 210.149801 242.450197 
L 210.222951 240.900331 
L 210.286106 240.900331 
L 210.322441 239.867087 
L 210.447831 239.867087 
L 210.53891 237.800599 
L 210.978138 237.800599 
L 210.987466 236.767355 
L 211.101343 236.767355 
L 211.101343 236.250733 
L 211.239802 236.250733 
L 211.239802 235.734111 
L 211.365788 235.734111 
L 211.447773 234.184245 
L 211.509015 234.184245 
L 211.585838 231.601135 
L 211.894302 231.601135 
L 211.894302 231.084513 
L 222.484876 231.084513 
L 222.577742 230.051269 
L 222.655572 230.051269 
L 222.730649 229.018025 
L 222.819845 229.018025 
L 222.895433 226.951537 
L 223.020706 226.951537 
L 223.116749 225.918293 
L 223.173421 225.918293 
L 223.173421 225.401671 
L 223.297938 225.401671 
L 223.297938 224.885049 
L 229.93078 224.885049 
L 230.015378 223.335183 
L 230.160273 223.335183 
L 230.250141 221.785317 
L 234.959319 221.785317 
L 234.965413 220.235451 
L 235.107422 220.235451 
L 235.171381 219.202207 
L 238.86094 219.202207 
L 238.940134 217.652341 
L 242.124398 217.652341 
L 242.220463 215.585853 
L 242.242372 215.585853 
L 242.242372 215.069231 
L 244.827863 215.069231 
L 244.909772 212.48612 
L 247.173381 212.48612 
L 247.223156 211.452876 
L 249.277634 211.452876 
L 249.355685 209.90301 
L 251.145946 209.90301 
L 251.171793 208.353144 
L 252.837265 208.353144 
L 252.837265 207.836522 
L 254.382243 207.836522 
L 254.382243 207.3199 
L 255.8042 207.3199 
L 255.82412 206.286656 
L 257.119528 206.286656 
L 257.162504 205.253412 
L 258.347927 205.253412 
L 258.347927 204.73679 
L 261.589968 204.73679 
L 261.605752 203.703546 
L 265.175713 203.703546 
L 265.175713 203.186924 
L 265.966919 203.186924 
L 265.966919 202.670302 
L 267.4514 202.670302 
L 267.4514 202.15368 
L 269.469724 202.15368 
L 269.469724 201.637058 
L 270.09483 201.637058 
L 270.09483 201.120436 
L 270.690142 201.120436 
L 270.690142 200.603814 
L 274.911736 200.603814 
L 274.911736 200.087192 
L 358.8 200.087192 
L 358.8 200.087192 
" style="fill:none;stroke:#000080;stroke-linecap:square;stroke-width:1.5;"/>
   </g>
   <g id="line2d_25">
    <defs>
     <path d="M 0 6 
C 1.591219 6 3.117479 5.367802 4.242641 4.242641 
C 5.367802 3.117479 6 1.591219 6 0 
C 6 -1.591219 5.367802 -3.117479 4.242641 -4.242641 
C 3.117479 -5.367802 1.591219 -6 0 -6 
C -1.591219 -6 -3.117479 -5.367802 -4.242641 -4.242641 
C -5.367802 -3.117479 -6 -1.591219 -6 0 
C -6 1.591219 -5.367802 3.117479 -4.242641 4.242641 
C -3.117479 5.367802 -1.591219 6 0 6 
z
" id="m5c61a9455b" style="stroke:#000080;stroke-width:1.5;"/>
    </defs>
    <g>
     <use style="fill:none;stroke:#000080;stroke-width:1.5;" x="88.325571" xlink:href="#m5c61a9455b" y="283.263337"/>
     <use style="fill:none;stroke:#000080;stroke-width:1.5;" x="154.070592" xlink:href="#m5c61a9455b" y="255.88237"/>
     <use style="fill:none;stroke:#000080;stroke-width:1.5;" x="211.509015" xlink:href="#m5c61a9455b" y="234.184245"/>
     <use style="fill:none;stroke:#000080;stroke-width:1.5;" x="265.966919" xlink:href="#m5c61a9455b" y="203.186924"/>
     <use style="fill:none;stroke:#000080;stroke-width:1.5;" x="274.911736" xlink:href="#m5c61a9455b" y="200.087192"/>
     <use style="fill:none;stroke:#000080;stroke-width:1.5;" x="358.8" xlink:href="#m5c61a9455b" y="200.087192"/>
    </g>
   </g>
   <g id="line2d_26"/>
   <g id="line2d_27">
    <path clip-path="url(#p14740217ad)" d="M 209.87403 243.483441 
" style="fill:none;stroke:#000080;stroke-linecap:square;stroke-width:1.5;"/>
    <defs>
     <path d="M -12 12 
L 12 -12 
M -12 -12 
L 12 12 
" id="m0a6e64277b" style="stroke:#000080;stroke-width:3;"/>
    </defs>
    <g clip-path="url(#p14740217ad)">
     <use style="fill:#000080;stroke:#000080;stroke-width:3;" x="209.87403" xlink:href="#m0a6e64277b" y="243.483441"/>
    </g>
   </g>
   <g id="line2d_28">
    <defs>
     <path d="M 0 1.5 
C 0.397805 1.5 0.77937 1.341951 1.06066 1.06066 
C 1.341951 0.77937 1.5 0.397805 1.5 0 
C 1.5 -0.397805 1.341951 -0.77937 1.06066 -1.06066 
C 0.77937 -1.341951 0.397805 -1.5 0 -1.5 
C -0.397805 -1.5 -0.77937 -1.341951 -1.06066 -1.06066 
C -1.341951 -0.77937 -1.5 -0.397805 -1.5 0 
C -1.5 0.397805 -1.341951 0.77937 -1.06066 1.06066 
C -0.77937 1.341951 -0.397805 1.5 0 1.5 
z
" id="m263d585893" style="stroke:#ff00ff;"/>
    </defs>
    <g>
     <use style="fill:#ff00ff;stroke:#ff00ff;" x="261.643302" xlink:href="#m263d585893" y="34.768147"/>
     <use style="fill:#ff00ff;stroke:#ff00ff;" x="261.643302" xlink:href="#m263d585893" y="34.768147"/>
    </g>
   </g>
   <g id="line2d_29">
    <path d="M 51.169868 298.245375 
L 51.169868 225.918293 
L 123.722334 225.918293 
L 123.722334 224.885049 
L 126.564521 224.885049 
L 126.564521 223.335183 
L 146.541617 223.335183 
L 146.541617 222.818561 
L 146.712605 222.818561 
L 146.712605 222.301939 
L 148.024616 222.301939 
L 148.024616 221.785317 
L 151.595842 221.785317 
L 151.595842 221.268695 
L 158.797528 221.268695 
L 158.797528 219.718829 
L 158.969752 219.718829 
L 158.969752 218.685585 
L 161.558089 218.685585 
L 161.558089 218.168963 
L 163.687347 218.168963 
L 163.687347 216.619097 
L 165.140326 216.619097 
L 165.140326 215.585853 
L 165.441143 215.585853 
L 165.441143 215.069231 
L 165.648742 215.069231 
L 165.648742 214.552609 
L 165.912159 214.552609 
L 165.912159 214.035987 
L 166.483987 214.035987 
L 166.568205 210.936254 
L 166.790863 210.936254 
L 166.790863 210.419632 
L 166.928629 210.419632 
L 166.928629 209.90301 
L 167.335665 209.90301 
L 167.362474 207.836522 
L 167.549018 207.836522 
L 167.549018 206.803278 
L 167.759854 206.803278 
L 167.864346 203.186924 
L 167.968231 203.186924 
L 167.968231 202.15368 
L 168.352506 202.15368 
L 168.352506 201.120436 
L 168.802987 201.120436 
L 168.802987 200.087192 
L 169.218259 200.087192 
L 169.218259 199.57057 
L 169.647687 199.57057 
L 169.647687 199.053948 
L 170.273077 199.053948 
L 170.341233 198.020704 
L 171.757486 198.020704 
L 171.778421 196.470838 
L 171.945024 196.470838 
L 172.027747 194.40435 
L 172.476002 194.40435 
L 172.496112 192.854484 
L 172.735688 192.854484 
L 172.735688 192.337862 
L 173.831764 192.337862 
L 173.869028 191.304618 
L 174.987277 191.304618 
L 174.987277 190.787996 
L 175.333569 190.787996 
L 175.333569 190.271374 
L 177.095722 190.271374 
L 177.095722 189.23813 
L 177.235015 189.23813 
L 177.235015 188.721508 
L 178.442075 188.721508 
L 178.442075 188.204886 
L 179.572727 188.204886 
L 179.572727 187.171642 
L 179.761098 187.171642 
L 179.761098 186.65502 
L 180.275608 186.65502 
L 180.275608 186.138398 
L 182.068245 186.138398 
L 182.091756 185.105154 
L 182.895727 185.105154 
L 182.940594 183.038666 
L 184.921499 183.038666 
L 184.921499 182.522044 
L 185.963412 182.522044 
L 186.010644 180.972178 
L 186.929989 180.972178 
L 186.929989 180.455556 
L 187.846952 180.455556 
L 187.846952 179.938934 
L 188.033256 179.938934 
L 188.033256 179.422312 
L 188.944715 179.422312 
L 189.048484 176.839201 
L 189.681811 176.839201 
L 189.681811 175.805957 
L 190.374927 175.805957 
L 190.374927 175.289335 
L 191.02079 175.289335 
L 191.02079 174.256091 
L 191.498989 174.256091 
L 191.498989 173.739469 
L 191.664755 173.739469 
L 191.664755 173.222847 
L 192.112839 173.222847 
L 192.112839 172.706225 
L 193.008557 172.706225 
L 193.008557 171.672981 
L 194.341379 171.672981 
L 194.341379 171.156359 
L 194.785621 171.156359 
L 194.785621 170.639737 
L 195.531883 170.639737 
L 195.565075 169.089871 
L 195.741062 169.089871 
L 195.741062 168.573249 
L 196.28542 168.573249 
L 196.380717 166.506761 
L 196.653198 166.506761 
L 196.653198 165.990139 
L 197.06445 165.990139 
L 197.130394 164.956895 
L 197.261555 164.956895 
L 197.261555 164.440273 
L 198.244292 164.440273 
L 198.244292 163.407029 
L 198.769312 163.407029 
L 198.769312 162.890407 
L 199.012481 162.890407 
L 199.012481 162.373785 
L 199.292807 162.373785 
L 199.292807 161.857163 
L 200.056818 161.857163 
L 200.104037 160.307297 
L 201.309924 160.307297 
L 201.309924 159.790675 
L 202.693531 159.790675 
L 202.693531 159.274053 
L 203.067861 159.274053 
L 203.067861 158.240809 
L 203.835583 158.240809 
L 203.835583 157.724187 
L 204.45444 157.724187 
L 204.45444 157.207565 
L 204.698092 157.207565 
L 204.698092 156.690943 
L 205.136877 156.690943 
L 205.136877 156.174321 
L 205.498702 156.174321 
L 205.603 155.141077 
L 205.719221 155.141077 
L 205.719221 154.624455 
L 205.943236 154.624455 
L 205.943236 153.591211 
L 207.297417 153.591211 
L 207.297417 153.074589 
L 207.598684 153.074589 
L 207.598684 152.557967 
L 207.713862 152.557967 
L 207.713862 151.524723 
L 207.922653 151.524723 
L 207.922653 150.491479 
L 208.327645 150.491479 
L 208.327645 149.974857 
L 208.991568 149.974857 
L 208.991568 149.458235 
L 209.191185 149.458235 
L 209.191185 148.941613 
L 209.500432 148.941613 
L 209.500432 148.424991 
L 210.387657 148.424991 
L 210.452637 147.391747 
L 210.863471 147.391747 
L 210.863471 146.875125 
L 211.301761 146.875125 
L 211.409104 143.25877 
L 211.490891 143.25877 
L 211.583584 137.575928 
L 211.722846 137.575928 
L 211.832145 134.992818 
L 211.894302 134.992818 
L 212.004763 131.376464 
L 212.011369 131.376464 
L 212.110167 128.793354 
L 212.156087 128.793354 
L 212.2454 127.76011 
L 212.712932 127.76011 
L 212.807936 126.210244 
L 212.883577 126.210244 
L 212.883577 125.693622 
L 213.320594 125.693622 
L 213.320594 125.177 
L 213.440904 125.177 
L 213.542232 123.627134 
L 213.651025 123.627134 
L 213.651025 123.110512 
L 214.241711 123.110512 
L 214.241711 122.077268 
L 214.444595 122.077268 
L 214.444595 121.044024 
L 214.698319 121.044024 
L 214.705894 119.494158 
L 215.17493 119.494158 
L 215.211779 118.460914 
L 215.429473 118.460914 
L 215.429473 117.944292 
L 215.789476 117.944292 
L 215.789476 117.42767 
L 216.555133 117.42767 
L 216.555133 116.911048 
L 216.719974 116.911048 
L 216.719974 116.394426 
L 217.374325 116.394426 
L 217.374325 115.877804 
L 217.556042 115.877804 
L 217.641393 114.84456 
L 217.740723 114.84456 
L 217.740723 114.327938 
L 219.06592 114.327938 
L 219.06592 113.811316 
L 220.205189 113.811316 
L 220.25106 112.778072 
L 221.211805 112.778072 
L 221.211805 112.26145 
L 221.82348 112.26145 
L 221.82348 111.744828 
L 222.343431 111.744828 
L 222.343431 111.228206 
L 223.030215 111.228206 
L 223.134478 108.128473 
L 223.211103 108.128473 
L 223.297938 105.028741 
L 223.343533 105.028741 
L 223.356373 102.445631 
L 223.631931 102.445631 
L 223.642268 101.412387 
L 223.887455 101.412387 
L 223.887455 100.895765 
L 224.050934 100.895765 
L 224.136026 98.312655 
L 224.72707 98.312655 
L 224.72707 97.796033 
L 225.460674 97.796033 
L 225.460674 97.279411 
L 225.594998 97.279411 
L 225.596028 95.729545 
L 225.952709 95.729545 
L 225.952709 95.212923 
L 226.162352 95.212923 
L 226.162352 94.696301 
L 226.355759 94.696301 
L 226.355759 94.179679 
L 226.509969 94.179679 
L 226.509969 93.663057 
L 226.704506 93.663057 
L 226.704506 93.146435 
L 226.875881 93.146435 
L 226.875881 92.113191 
L 227.078817 92.113191 
L 227.180839 91.079947 
L 227.301006 91.079947 
L 227.301006 90.563325 
L 227.415722 90.563325 
L 227.415722 90.046703 
L 228.060296 90.046703 
L 228.060296 89.530081 
L 229.380495 89.530081 
L 229.380495 89.013459 
L 229.99849 89.013459 
L 230.065944 85.913727 
L 230.144321 85.913727 
L 230.203275 83.330617 
L 230.297675 83.330617 
L 230.297675 82.813995 
L 230.437954 82.813995 
L 230.437954 82.297373 
L 230.719887 82.297373 
L 230.728385 81.264129 
L 231.202437 81.264129 
L 231.202437 80.747507 
L 231.563542 80.747507 
L 231.563542 80.230885 
L 231.841457 80.230885 
L 231.841457 79.714263 
L 232.141538 79.714263 
L 232.198536 78.681019 
L 232.484331 78.681019 
L 232.586943 77.647775 
L 232.930936 77.647775 
L 232.930936 77.131153 
L 233.435814 77.131153 
L 233.435814 76.614531 
L 233.893206 76.614531 
L 233.893206 76.097908 
L 234.270266 76.097908 
L 234.270266 75.581286 
L 235.052937 75.581286 
L 235.154509 70.931688 
L 235.171381 70.931688 
L 235.201471 68.348578 
L 235.840509 68.348578 
L 235.840509 67.315334 
L 236.18811 67.315334 
L 236.18811 66.798712 
L 236.316807 66.798712 
L 236.425503 65.248846 
L 237.045722 65.248846 
L 237.045722 64.732224 
L 237.216281 64.732224 
L 237.216281 64.215602 
L 237.594715 64.215602 
L 237.594715 63.69898 
L 238.332897 63.69898 
L 238.332897 63.182358 
L 239.017037 63.182358 
L 239.078612 60.599248 
L 239.877026 60.599248 
L 239.97074 59.049382 
L 240.105141 59.049382 
L 240.105141 58.53276 
L 240.236724 58.53276 
L 240.296503 56.982894 
L 240.384449 56.982894 
L 240.384449 55.94965 
L 240.722699 55.94965 
L 240.722699 55.433028 
L 241.182043 55.433028 
L 241.182043 54.916406 
L 241.39206 54.916406 
L 241.39206 54.399784 
L 241.54702 54.399784 
L 241.54702 53.883162 
L 242.154575 53.883162 
L 242.262633 50.78343 
L 242.750428 50.78343 
L 242.750428 50.266808 
L 243.096233 50.266808 
L 243.191071 49.233564 
L 243.236768 49.233564 
L 243.236768 48.716942 
L 243.525513 48.716942 
L 243.530796 47.683698 
L 244.218343 47.683698 
L 244.218343 47.167076 
L 244.335936 47.167076 
L 244.335936 46.650454 
L 244.936992 46.650454 
L 244.946753 45.61721 
L 245.279604 45.61721 
L 245.279604 45.100588 
L 245.765206 45.100588 
L 245.779182 44.067344 
L 247.295116 44.067344 
L 247.295116 43.550722 
L 248.014771 43.550722 
L 248.014771 43.0341 
L 248.555696 43.0341 
L 248.555696 42.517478 
L 249.355957 42.517478 
L 249.355957 42.000855 
L 250.949765 42.000855 
L 250.949765 41.484233 
L 251.563274 41.484233 
L 251.563274 40.967611 
L 251.735715 40.967611 
L 251.800192 39.934367 
L 252.939831 39.934367 
L 252.939831 39.417745 
L 253.404764 39.417745 
L 253.404764 38.901123 
L 254.446256 38.901123 
L 254.512693 37.351257 
L 254.623956 37.351257 
L 254.623956 36.834635 
L 254.781626 36.834635 
L 254.781626 36.318013 
L 255.842312 36.318013 
L 255.842312 35.801391 
L 257.982195 35.801391 
L 257.982195 35.284769 
L 261.643302 35.284769 
L 261.643302 34.768147 
L 358.8 34.768147 
L 358.8 34.768147 
" style="fill:none;stroke:#ff00ff;stroke-linecap:square;stroke-width:1.5;"/>
   </g>
   <g id="line2d_30">
    <defs>
     <path d="M -0 8.485281 
L 5.091169 0 
L 0 -8.485281 
L -5.091169 -0 
z
" id="mcc464f4bc1" style="stroke:#ff00ff;stroke-linejoin:miter;stroke-width:1.5;"/>
    </defs>
    <g>
     <use style="fill:none;stroke:#ff00ff;stroke-linejoin:miter;stroke-width:1.5;" x="51.169868" xlink:href="#mcc464f4bc1" y="225.918293"/>
     <use style="fill:none;stroke:#ff00ff;stroke-linejoin:miter;stroke-width:1.5;" x="191.02079" xlink:href="#mcc464f4bc1" y="174.256091"/>
     <use style="fill:none;stroke:#ff00ff;stroke-linejoin:miter;stroke-width:1.5;" x="226.509969" xlink:href="#mcc464f4bc1" y="94.179679"/>
     <use style="fill:none;stroke:#ff00ff;stroke-linejoin:miter;stroke-width:1.5;" x="261.643302" xlink:href="#mcc464f4bc1" y="34.768147"/>
     <use style="fill:none;stroke:#ff00ff;stroke-linejoin:miter;stroke-width:1.5;" x="261.643302" xlink:href="#mcc464f4bc1" y="34.768147"/>
     <use style="fill:none;stroke:#ff00ff;stroke-linejoin:miter;stroke-width:1.5;" x="358.8" xlink:href="#mcc464f4bc1" y="34.768147"/>
    </g>
   </g>
   <g id="line2d_31"/>
   <g id="line2d_32">
    <path clip-path="url(#p14740217ad)" d="M 209.87403 148.424991 
" style="fill:none;stroke:#ff00ff;stroke-linecap:square;stroke-width:1.5;"/>
    <defs>
     <path d="M -12 12 
L 12 -12 
M -12 -12 
L 12 12 
" id="m0b02870adb" style="stroke:#ff00ff;stroke-width:3;"/>
    </defs>
    <g clip-path="url(#p14740217ad)">
     <use style="fill:#ff00ff;stroke:#ff00ff;stroke-width:3;" x="209.87403" xlink:href="#m0b02870adb" y="148.424991"/>
    </g>
   </g>
   <g id="line2d_33">
    <defs>
     <path d="M 0 1.5 
C 0.397805 1.5 0.77937 1.341951 1.06066 1.06066 
C 1.341951 0.77937 1.5 0.397805 1.5 0 
C 1.5 -0.397805 1.341951 -0.77937 1.06066 -1.06066 
C 0.77937 -1.341951 0.397805 -1.5 0 -1.5 
C -0.397805 -1.5 -0.77937 -1.341951 -1.06066 -1.06066 
C -1.341951 -0.77937 -1.5 -0.397805 -1.5 0 
C -1.5 0.397805 -1.341951 0.77937 -1.06066 1.06066 
C -0.77937 1.341951 -0.397805 1.5 0 1.5 
z
" id="md549d80eb3" style="stroke:#ffa500;"/>
    </defs>
    <g>
     <use style="fill:#ffa500;stroke:#ffa500;" x="295.864446" xlink:href="#md549d80eb3" y="189.754752"/>
     <use style="fill:#ffa500;stroke:#ffa500;" x="295.864446" xlink:href="#md549d80eb3" y="189.754752"/>
    </g>
   </g>
   <g id="line2d_34">
    <path d="M 51.169868 298.245375 
L 51.169868 291.012667 
L 63.555102 291.012667 
L 63.555102 289.979423 
L 70.8 289.979423 
L 70.8 289.462801 
L 75.940337 289.462801 
L 75.940337 288.429557 
L 79.927491 288.429557 
L 79.927491 287.912935 
L 83.185234 287.912935 
L 83.185234 286.363069 
L 92.312726 286.363069 
L 92.312726 285.846447 
L 104.69796 285.846447 
L 104.69796 285.329825 
L 107.195242 285.329825 
L 107.195242 284.813203 
L 110.710085 284.813203 
L 110.710085 283.263337 
L 112.528749 283.263337 
L 112.528749 282.230093 
L 114.179287 282.230093 
L 114.179287 281.713471 
L 116.630812 281.713471 
L 116.630812 281.196849 
L 119.964752 281.196849 
L 119.964752 279.13036 
L 120.709364 279.13036 
L 120.709364 277.580494 
L 123.095319 277.580494 
L 123.095319 277.063872 
L 128.785487 277.063872 
L 128.785487 276.54725 
L 129.243669 276.54725 
L 129.243669 274.997384 
L 130.551676 274.997384 
L 130.551676 274.480762 
L 133.809418 274.480762 
L 133.809418 273.96414 
L 133.983743 273.96414 
L 133.983743 272.930896 
L 136.413014 272.930896 
L 136.413014 271.897652 
L 137.008673 271.897652 
L 137.008673 270.864408 
L 138.416339 270.864408 
L 138.416339 270.347786 
L 138.551193 270.347786 
L 138.551193 269.314542 
L 140.217529 269.314542 
L 140.217529 268.79792 
L 146.368977 268.79792 
L 146.368977 267.764676 
L 148.949035 267.764676 
L 148.949035 267.248054 
L 151.269176 267.248054 
L 151.269176 266.731432 
L 152.1692 266.731432 
L 152.1692 265.698188 
L 152.479957 265.698188 
L 152.479957 264.664944 
L 152.785403 264.664944 
L 152.785403 264.148322 
L 153.900688 264.148322 
L 153.900688 263.6317 
L 154.182971 263.6317 
L 154.182971 262.598456 
L 154.788728 262.598456 
L 154.788728 261.565212 
L 156.343457 261.565212 
L 156.343457 261.04859 
L 157.403332 261.04859 
L 157.403332 259.498724 
L 157.635691 259.498724 
L 157.635691 258.982102 
L 158.359562 258.982102 
L 158.403845 257.432236 
L 160.916504 257.432236 
L 160.916504 255.88237 
L 162.948335 255.88237 
L 162.948335 255.365748 
L 163.254361 255.365748 
L 163.254361 254.849126 
L 173.549778 254.849126 
L 173.549778 253.29926 
L 209.876511 253.29926 
L 209.948315 249.682906 
L 209.990274 249.682906 
L 210.068988 247.099796 
L 210.12535 247.099796 
L 210.191289 245.549929 
L 210.269125 245.549929 
L 210.378011 242.450197 
L 210.455039 242.450197 
L 210.522167 241.416953 
L 210.809392 241.416953 
L 210.849379 239.350465 
L 212.072908 239.350465 
L 212.072908 238.317221 
L 222.264226 238.317221 
L 222.319953 235.217489 
L 222.457903 235.217489 
L 222.548468 233.151001 
L 222.609401 233.151001 
L 222.700414 232.117757 
L 222.905008 232.117757 
L 222.905008 231.601135 
L 229.660626 231.601135 
L 229.766081 229.534647 
L 229.775045 229.534647 
L 229.821421 228.501403 
L 234.663098 228.501403 
L 234.761974 226.434915 
L 234.866434 226.434915 
L 234.970287 224.885049 
L 235.220102 224.885049 
L 235.220102 224.368427 
L 238.677251 224.368427 
L 238.749376 223.335183 
L 238.829065 223.335183 
L 238.892758 221.785317 
L 239.018008 221.785317 
L 239.090224 220.752073 
L 241.955854 220.752073 
L 242.054057 217.652341 
L 242.107247 217.652341 
L 242.107247 217.135719 
L 244.711002 217.135719 
L 244.724416 216.102475 
L 244.827512 216.102475 
L 244.827512 215.585853 
L 247.119455 215.585853 
L 247.15337 214.552609 
L 249.197043 214.552609 
L 249.197043 214.035987 
L 251.06397 214.035987 
L 251.105993 212.48612 
L 251.249358 212.48612 
L 251.249358 211.969498 
L 252.785198 211.969498 
L 252.839057 210.936254 
L 255.741071 210.936254 
L 255.773424 208.353144 
L 257.047258 208.353144 
L 257.092704 206.803278 
L 258.349244 206.803278 
L 258.349244 206.286656 
L 259.47751 206.286656 
L 259.47751 205.770034 
L 260.525925 205.770034 
L 260.540493 204.73679 
L 261.5457 204.73679 
L 261.552306 203.703546 
L 263.425678 203.703546 
L 263.438064 202.15368 
L 264.316396 202.15368 
L 264.316396 201.637058 
L 265.130832 201.637058 
L 265.130832 201.120436 
L 265.923984 201.120436 
L 265.930124 200.087192 
L 266.684453 200.087192 
L 266.684453 199.57057 
L 268.111822 199.57057 
L 268.111822 199.053948 
L 268.790597 199.053948 
L 268.790597 198.537326 
L 269.43444 198.537326 
L 269.450012 195.437594 
L 272.389839 195.437594 
L 272.389839 194.920972 
L 273.924739 194.920972 
L 273.941255 193.887728 
L 274.905415 193.887728 
L 274.905415 193.371106 
L 276.673199 193.371106 
L 276.673199 192.854484 
L 277.50108 192.854484 
L 277.50108 192.337862 
L 278.681474 192.337862 
L 278.681474 191.82124 
L 284.744212 191.82124 
L 284.744212 191.304618 
L 285.017292 191.304618 
L 285.017292 190.787996 
L 287.028999 190.787996 
L 287.028999 190.271374 
L 295.864446 190.271374 
L 295.864446 189.754752 
L 358.8 189.754752 
L 358.8 189.754752 
" style="fill:none;stroke:#ffa500;stroke-linecap:square;stroke-width:1.5;"/>
   </g>
   <g id="line2d_35">
    <defs>
     <path d="M 0 -6 
L -1.347084 -1.854102 
L -5.706339 -1.854102 
L -2.179628 0.708204 
L -3.526712 4.854102 
L -0 2.291796 
L 3.526712 4.854102 
L 2.179628 0.708204 
L 5.706339 -1.854102 
L 1.347084 -1.854102 
z
" id="m67425ec784" style="stroke:#ffa500;stroke-linejoin:bevel;stroke-width:1.5;"/>
    </defs>
    <g>
     <use style="fill:none;stroke:#ffa500;stroke-linejoin:bevel;stroke-width:1.5;" x="156.343457" xlink:href="#m67425ec784" y="261.565212"/>
     <use style="fill:none;stroke:#ffa500;stroke-linejoin:bevel;stroke-width:1.5;" x="222.264226" xlink:href="#m67425ec784" y="238.317221"/>
     <use style="fill:none;stroke:#ffa500;stroke-linejoin:bevel;stroke-width:1.5;" x="272.389839" xlink:href="#m67425ec784" y="194.920972"/>
     <use style="fill:none;stroke:#ffa500;stroke-linejoin:bevel;stroke-width:1.5;" x="295.864446" xlink:href="#m67425ec784" y="189.754752"/>
     <use style="fill:none;stroke:#ffa500;stroke-linejoin:bevel;stroke-width:1.5;" x="295.864446" xlink:href="#m67425ec784" y="189.754752"/>
     <use style="fill:none;stroke:#ffa500;stroke-linejoin:bevel;stroke-width:1.5;" x="358.8" xlink:href="#m67425ec784" y="189.754752"/>
    </g>
   </g>
   <g id="line2d_36"/>
   <g id="line2d_37">
    <path clip-path="url(#p14740217ad)" d="M 209.87403 253.29926 
" style="fill:none;stroke:#ffa500;stroke-linecap:square;stroke-width:1.5;"/>
    <defs>
     <path d="M -12 12 
L 12 -12 
M -12 -12 
L 12 12 
" id="m1abc80fe37" style="stroke:#ffa500;stroke-width:3;"/>
    </defs>
    <g clip-path="url(#p14740217ad)">
     <use style="fill:#ffa500;stroke:#ffa500;stroke-width:3;" x="209.87403" xlink:href="#m1abc80fe37" y="253.29926"/>
    </g>
   </g>
   <g id="line2d_38">
    <defs>
     <path d="M 0 1.5 
C 0.397805 1.5 0.77937 1.341951 1.06066 1.06066 
C 1.341951 0.77937 1.5 0.397805 1.5 0 
C 1.5 -0.397805 1.341951 -0.77937 1.06066 -1.06066 
C 0.77937 -1.341951 0.397805 -1.5 0 -1.5 
C -0.397805 -1.5 -0.77937 -1.341951 -1.06066 -1.06066 
C -1.341951 -0.77937 -1.5 -0.397805 -1.5 0 
C -1.5 0.397805 -1.341951 0.77937 -1.06066 1.06066 
C -0.77937 1.341951 -0.397805 1.5 0 1.5 
z
" id="m1e26e2b832" style="stroke:#6495ed;"/>
    </defs>
    <g>
     <use style="fill:#6495ed;stroke:#6495ed;" x="275.370631" xlink:href="#m1e26e2b832" y="169.089871"/>
     <use style="fill:#6495ed;stroke:#6495ed;" x="275.370631" xlink:href="#m1e26e2b832" y="169.089871"/>
    </g>
   </g>
   <g id="line2d_39">
    <path d="M 51.169868 298.245375 
L 51.169868 270.347786 
L 63.555102 270.347786 
L 63.555102 268.281298 
L 70.8 268.281298 
L 70.8 266.731432 
L 79.927491 266.731432 
L 79.927491 266.21481 
L 97.000681 266.21481 
L 97.000681 265.181566 
L 99.557623 265.181566 
L 99.557623 264.664944 
L 102.815366 264.664944 
L 102.815366 263.6317 
L 104.69796 263.6317 
L 104.69796 263.115078 
L 108.685114 263.115078 
L 108.685114 262.598456 
L 117.524404 262.598456 
L 117.524404 262.081834 
L 126.825374 262.081834 
L 126.825374 261.565212 
L 127.832295 261.565212 
L 127.832295 261.04859 
L 129.909638 261.04859 
L 129.909638 260.531968 
L 132.539068 260.531968 
L 132.539068 259.498724 
L 133.276002 259.498724 
L 133.276002 258.46548 
L 133.633376 258.46548 
L 133.633376 257.948858 
L 137.442737 257.948858 
L 137.442737 256.915614 
L 137.585114 256.915614 
L 137.585114 256.398992 
L 138.280459 256.398992 
L 138.280459 255.88237 
L 139.467708 255.88237 
L 139.467708 255.365748 
L 146.106848 255.365748 
L 146.106848 254.849126 
L 146.712605 254.849126 
L 146.797489 253.815882 
L 147.462426 253.815882 
L 147.462426 252.266016 
L 148.024616 252.266016 
L 148.024616 251.749394 
L 148.338099 251.749394 
L 148.338099 250.71615 
L 153.381062 250.71615 
L 153.43955 249.682906 
L 153.497847 249.682906 
L 153.497847 249.166284 
L 153.671607 249.166284 
L 153.671607 248.649662 
L 154.7345 248.649662 
L 154.7345 248.13304 
L 155.163784 248.13304 
L 155.163784 247.616418 
L 155.634714 247.616418 
L 155.686281 246.066551 
L 157.635691 246.066551 
L 157.635691 245.033307 
L 158.270665 245.033307 
L 158.270665 243.483441 
L 158.448018 243.483441 
L 158.448018 242.450197 
L 158.667261 242.450197 
L 158.667261 241.933575 
L 159.55979 241.933575 
L 159.55979 241.416953 
L 159.724855 241.416953 
L 159.724855 240.900331 
L 160.528052 240.900331 
L 160.567279 239.867087 
L 161.52098 239.867087 
L 161.52098 238.317221 
L 162.461624 238.317221 
L 162.461624 237.800599 
L 162.602043 237.800599 
L 162.706637 236.767355 
L 164.270055 236.767355 
L 164.270055 235.734111 
L 165.648742 235.734111 
L 165.648742 235.217489 
L 167.812177 235.217489 
L 167.812177 234.700867 
L 169.481911 234.700867 
L 169.481911 233.667623 
L 171.88273 233.667623 
L 171.88273 232.634379 
L 176.301453 232.634379 
L 176.301453 231.601135 
L 209.918638 231.601135 
L 209.987808 230.051269 
L 210.07635 230.051269 
L 210.183975 227.984781 
L 210.196164 227.984781 
L 210.205909 226.951537 
L 210.3176 226.951537 
L 210.426192 225.918293 
L 210.431003 225.918293 
L 210.483839 224.885049 
L 210.617629 224.885049 
L 210.617629 224.368427 
L 210.828221 224.368427 
L 210.893964 222.301939 
L 210.968805 222.301939 
L 211.029383 218.685585 
L 211.495424 218.685585 
L 211.558762 217.135719 
L 211.642116 217.135719 
L 211.642116 216.619097 
L 211.772001 216.619097 
L 211.772001 216.102475 
L 212.081682 216.102475 
L 212.081682 215.069231 
L 222.316244 215.069231 
L 222.421057 211.452876 
L 222.45913 211.452876 
L 222.542363 209.386388 
L 222.636146 209.386388 
L 222.662852 207.836522 
L 222.815035 207.836522 
L 222.815035 207.3199 
L 222.942065 207.3199 
L 222.942065 206.286656 
L 223.088346 206.286656 
L 223.088346 205.253412 
L 223.574392 205.253412 
L 223.600883 204.220168 
L 229.538866 204.220168 
L 229.582565 202.670302 
L 229.691755 202.670302 
L 229.788075 201.637058 
L 229.832793 201.637058 
L 229.921895 196.98746 
L 229.962249 196.98746 
L 230.061135 195.437594 
L 230.409672 195.437594 
L 230.409672 194.920972 
L 234.670533 194.920972 
L 234.705806 193.887728 
L 234.891536 193.887728 
L 234.98916 191.304618 
L 235.080806 191.304618 
L 235.138223 189.23813 
L 235.222504 189.23813 
L 235.327897 187.688264 
L 238.694073 187.688264 
L 238.694073 187.171642 
L 238.829556 187.171642 
L 238.907912 185.105154 
L 241.956266 185.105154 
L 242.066755 183.038666 
L 242.119907 183.038666 
L 242.119907 181.4888 
L 242.276803 181.4888 
L 242.276803 180.972178 
L 244.725122 180.972178 
L 244.813473 179.938934 
L 244.841541 179.938934 
L 244.841541 179.422312 
L 245.037486 179.422312 
L 245.037486 178.90569 
L 247.176457 178.90569 
L 247.176457 177.872445 
L 249.288297 177.872445 
L 249.288297 177.355823 
L 252.810128 177.355823 
L 252.846002 175.805957 
L 255.913577 175.805957 
L 255.913577 175.289335 
L 258.312332 175.289335 
L 258.312332 174.772713 
L 259.501757 174.772713 
L 259.501757 174.256091 
L 260.556649 174.256091 
L 260.556649 173.739469 
L 261.596695 173.739469 
L 261.596695 173.222847 
L 265.150305 173.222847 
L 265.168297 172.189603 
L 265.959824 172.189603 
L 265.959824 171.672981 
L 266.701275 171.672981 
L 266.701275 171.156359 
L 271.843648 171.156359 
L 271.843648 170.639737 
L 272.924343 170.639737 
L 272.924343 170.123115 
L 273.943387 170.123115 
L 273.943387 169.606493 
L 275.370631 169.606493 
L 275.370631 169.089871 
L 358.8 169.089871 
L 358.8 169.089871 
" style="fill:none;stroke:#6495ed;stroke-linecap:square;stroke-width:1.5;"/>
   </g>
   <g id="line2d_40">
    <defs>
     <path d="M -0 6 
L 6 -6 
L -6 -6 
z
" id="m07239e727b" style="stroke:#6495ed;stroke-linejoin:miter;stroke-width:1.5;"/>
    </defs>
    <g>
     <use style="fill:none;stroke:#6495ed;stroke-linejoin:miter;stroke-width:1.5;" x="70.8" xlink:href="#m07239e727b" y="268.281298"/>
     <use style="fill:none;stroke:#6495ed;stroke-linejoin:miter;stroke-width:1.5;" x="155.686281" xlink:href="#m07239e727b" y="246.583173"/>
     <use style="fill:none;stroke:#6495ed;stroke-linejoin:miter;stroke-width:1.5;" x="212.081682" xlink:href="#m07239e727b" y="216.102475"/>
     <use style="fill:none;stroke:#6495ed;stroke-linejoin:miter;stroke-width:1.5;" x="271.843648" xlink:href="#m07239e727b" y="171.156359"/>
     <use style="fill:none;stroke:#6495ed;stroke-linejoin:miter;stroke-width:1.5;" x="275.370631" xlink:href="#m07239e727b" y="169.089871"/>
     <use style="fill:none;stroke:#6495ed;stroke-linejoin:miter;stroke-width:1.5;" x="358.8" xlink:href="#m07239e727b" y="169.089871"/>
    </g>
   </g>
   <g id="line2d_41"/>
   <g id="line2d_42">
    <path clip-path="url(#p14740217ad)" d="M 209.87403 231.601135 
" style="fill:none;stroke:#6495ed;stroke-linecap:square;stroke-width:1.5;"/>
    <defs>
     <path d="M -12 12 
L 12 -12 
M -12 -12 
L 12 12 
" id="m4c8d7e61e7" style="stroke:#6495ed;stroke-width:3;"/>
    </defs>
    <g clip-path="url(#p14740217ad)">
     <use style="fill:#6495ed;stroke:#6495ed;stroke-width:3;" x="209.87403" xlink:href="#m4c8d7e61e7" y="231.601135"/>
    </g>
   </g>
   <g id="line2d_43">
    <defs>
     <path d="M 0 1.5 
C 0.397805 1.5 0.77937 1.341951 1.06066 1.06066 
C 1.341951 0.77937 1.5 0.397805 1.5 0 
C 1.5 -0.397805 1.341951 -0.77937 1.06066 -1.06066 
C 0.77937 -1.341951 0.397805 -1.5 0 -1.5 
C -0.397805 -1.5 -0.77937 -1.341951 -1.06066 -1.06066 
C -1.341951 -0.77937 -1.5 -0.397805 -1.5 0 
C -1.5 0.397805 -1.341951 0.77937 -1.06066 1.06066 
C -0.77937 1.341951 -0.397805 1.5 0 1.5 
z
" id="m47c65caefa" style="stroke:#ff0000;"/>
    </defs>
    <g>
     <use style="fill:#ff0000;stroke:#ff0000;" x="278.698822" xlink:href="#m47c65caefa" y="34.768147"/>
     <use style="fill:#ff0000;stroke:#ff0000;" x="278.698822" xlink:href="#m47c65caefa" y="34.768147"/>
    </g>
   </g>
   <g id="line2d_44">
    <path d="M 51.169868 298.245375 
L 51.169868 293.595777 
L 63.555102 293.595777 
L 63.555102 293.079155 
L 100.710805 293.079155 
L 100.710805 292.045911 
L 103.781445 292.045911 
L 103.781445 291.529289 
L 107.955702 291.529289 
L 107.955702 291.012667 
L 109.385915 291.012667 
L 109.385915 289.462801 
L 110.060263 289.462801 
L 110.060263 288.946179 
L 112.528749 288.946179 
L 112.528749 288.429557 
L 113.096039 288.429557 
L 113.096039 287.912935 
L 117.954982 287.912935 
L 117.954982 286.879691 
L 118.786207 286.879691 
L 118.786207 286.363069 
L 119.187755 286.363069 
L 119.187755 285.846447 
L 120.709364 285.846447 
L 120.709364 284.813203 
L 124.328091 284.813203 
L 124.328091 283.779959 
L 128.315246 283.779959 
L 128.315246 283.263337 
L 131.171441 283.263337 
L 131.171441 282.746715 
L 132.158881 282.746715 
L 132.158881 282.230093 
L 133.276002 282.230093 
L 133.276002 281.196849 
L 133.809418 281.196849 
L 133.809418 280.680226 
L 134.995416 280.680226 
L 134.995416 280.163604 
L 135.796811 280.163604 
L 135.796811 279.646982 
L 137.154536 279.646982 
L 137.154536 279.13036 
L 137.442737 279.13036 
L 137.442737 278.097116 
L 139.210608 278.097116 
L 139.210608 277.580494 
L 139.594883 277.580494 
L 139.594883 277.063872 
L 140.217529 277.063872 
L 140.217529 276.030628 
L 143.041708 276.030628 
L 143.041708 275.514006 
L 143.454862 275.514006 
L 143.454862 274.480762 
L 143.958223 274.480762 
L 143.958223 270.864408 
L 145.479832 270.864408 
L 145.479832 269.831164 
L 146.106848 269.831164 
L 146.106848 269.314542 
L 150.801573 269.314542 
L 150.801573 268.79792 
L 151.070271 268.79792 
L 151.070271 268.281298 
L 151.724854 268.281298 
L 151.724854 267.764676 
L 153.843693 267.764676 
L 153.843693 266.731432 
L 154.182971 266.731432 
L 154.182971 265.181566 
L 154.405629 265.181566 
L 154.405629 264.664944 
L 154.7345 264.664944 
L 154.7345 263.6317 
L 155.788972 263.6317 
L 155.788972 262.598456 
L 156.043145 262.598456 
L 156.043145 262.081834 
L 156.293754 262.081834 
L 156.293754 261.04859 
L 157.403332 261.04859 
L 157.403332 258.46548 
L 158.226051 258.46548 
L 158.226051 257.948858 
L 160.40985 257.948858 
L 160.40985 256.915614 
L 161.668957 256.915614 
L 161.668957 256.398992 
L 162.14159 256.398992 
L 162.14159 255.88237 
L 162.284536 255.88237 
L 162.284536 253.815882 
L 164.834358 253.815882 
L 164.895972 250.71615 
L 165.291368 250.71615 
L 165.291368 250.199528 
L 165.470948 250.199528 
L 165.470948 249.682906 
L 165.589674 249.682906 
L 165.589674 249.166284 
L 166.285922 249.166284 
L 166.285922 247.616418 
L 167.681082 247.616418 
L 167.681082 247.099796 
L 167.942316 247.099796 
L 167.994108 246.066551 
L 168.097243 246.066551 
L 168.097243 244.516685 
L 168.926131 244.516685 
L 168.926131 241.933575 
L 169.624099 241.933575 
L 169.624099 240.900331 
L 171.652441 240.900331 
L 171.652441 239.350465 
L 173.089135 239.350465 
L 173.089135 237.283977 
L 173.681925 237.283977 
L 173.681925 234.700867 
L 174.127723 234.700867 
L 174.127723 234.184245 
L 174.29207 234.184245 
L 174.400802 231.601135 
L 175.161262 231.601135 
L 175.161262 231.084513 
L 175.333569 231.084513 
L 175.350708 230.051269 
L 175.470228 230.051269 
L 175.555112 228.501403 
L 209.913687 228.501403 
L 210.019832 227.468159 
L 210.059168 227.468159 
L 210.154687 225.401671 
L 210.213215 225.401671 
L 210.31518 222.818561 
L 210.517381 222.818561 
L 210.5413 221.785317 
L 210.648545 221.785317 
L 210.719686 220.235451 
L 210.832925 220.235451 
L 210.903337 217.652341 
L 210.968805 217.652341 
L 211.078161 211.452876 
L 211.228305 211.452876 
L 211.313211 207.836522 
L 211.420486 207.836522 
L 211.520334 203.186924 
L 211.594855 203.186924 
L 211.594855 202.670302 
L 211.734029 202.670302 
L 211.734029 201.120436 
L 211.978315 201.120436 
L 212.088259 198.537326 
L 212.173549 198.537326 
L 212.173549 198.020704 
L 212.316964 198.020704 
L 212.316964 197.504082 
L 222.279104 197.504082 
L 222.364411 196.470838 
L 222.400143 196.470838 
L 222.509361 194.920972 
L 222.596014 194.920972 
L 222.69315 193.371106 
L 222.727023 193.371106 
L 222.819845 190.787996 
L 222.871471 190.787996 
L 222.871471 189.754752 
L 222.988577 189.754752 
L 223.096635 187.171642 
L 223.10137 187.171642 
L 223.10137 186.65502 
L 223.213455 186.65502 
L 223.281542 185.621776 
L 223.342366 185.621776 
L 223.44599 181.4888 
L 223.508571 181.4888 
L 223.508571 180.455556 
L 229.59409 180.455556 
L 229.61794 178.90569 
L 229.829544 178.90569 
L 229.934011 174.256091 
L 229.959024 174.256091 
L 230.069952 166.506761 
L 230.096376 166.506761 
L 230.192137 163.923651 
L 230.273132 163.923651 
L 230.356127 159.790675 
L 234.755811 159.790675 
L 234.862758 153.074589 
L 234.879908 153.074589 
L 234.986726 148.941613 
L 235.015306 148.941613 
L 235.090489 143.25877 
L 235.127962 143.25877 
L 235.238713 141.708904 
L 235.247711 141.708904 
L 235.28725 139.125794 
L 238.720758 139.125794 
L 238.827593 134.476196 
L 238.85604 134.476196 
L 238.940622 130.34322 
L 238.971325 130.34322 
L 239.081999 125.177 
L 239.112943 125.177 
L 239.147691 120.527402 
L 241.946375 120.527402 
L 242.052828 116.911048 
L 242.095804 116.911048 
L 242.199747 113.811316 
L 242.236694 113.811316 
L 242.320456 110.194961 
L 244.692629 110.194961 
L 244.767064 107.095229 
L 244.805746 107.095229 
L 244.865014 105.545363 
L 244.921643 105.545363 
L 245.013891 103.478875 
L 247.128402 103.478875 
L 247.209037 98.312655 
L 247.242169 98.312655 
L 247.350038 94.179679 
L 247.353998 94.179679 
L 247.353998 93.663057 
L 249.231627 93.663057 
L 249.324887 89.013459 
L 249.350783 89.013459 
L 249.419563 87.463593 
L 251.095867 87.463593 
L 251.203744 83.847239 
L 251.211845 83.847239 
L 251.273834 82.297373 
L 252.80923 82.297373 
L 252.910172 77.647775 
L 252.932923 77.647775 
L 252.953641 76.614531 
L 254.311811 76.614531 
L 254.394366 72.998176 
L 254.437242 72.998176 
L 254.48676 69.898444 
L 255.739166 69.898444 
L 255.843259 65.765468 
L 255.865973 65.765468 
L 255.892624 64.732224 
L 257.129224 64.732224 
L 257.203446 61.632492 
L 258.291536 61.632492 
L 258.376385 58.53276 
L 258.418249 58.53276 
L 258.433492 55.94965 
L 259.47411 55.94965 
L 259.577835 53.883162 
L 260.598789 53.883162 
L 260.651543 51.300052 
L 261.544323 51.300052 
L 261.655345 48.20032 
L 262.509098 48.20032 
L 262.609245 46.650454 
L 263.464294 46.650454 
L 263.481471 45.61721 
L 264.396609 45.61721 
L 264.396609 45.100588 
L 265.156379 45.100588 
L 265.187056 43.0341 
L 265.933786 43.0341 
L 265.964447 42.000855 
L 266.71169 42.000855 
L 266.71169 41.484233 
L 268.123352 41.484233 
L 268.137921 40.450989 
L 268.860661 40.450989 
L 268.860661 39.934367 
L 269.507495 39.934367 
L 269.507495 39.417745 
L 271.856562 39.417745 
L 271.856562 38.901123 
L 272.383986 38.901123 
L 272.384212 37.867879 
L 272.916405 37.867879 
L 272.950392 36.834635 
L 275.366884 36.834635 
L 275.371901 35.801391 
L 278.340811 35.801391 
L 278.340811 35.284769 
L 278.698822 35.284769 
L 278.698822 34.768147 
L 358.8 34.768147 
L 358.8 34.768147 
" style="fill:none;stroke:#ff0000;stroke-linecap:square;stroke-width:1.5;"/>
   </g>
   <g id="line2d_45">
    <defs>
     <path d="M 0 -6 
L -5.196152 -3 
L -5.196152 3 
L -0 6 
L 5.196152 3 
L 5.196152 -3 
z
" id="m5234e8feea" style="stroke:#ff0000;stroke-linejoin:miter;stroke-width:1.5;"/>
    </defs>
    <g>
     <use style="fill:none;stroke:#ff0000;stroke-linejoin:miter;stroke-width:1.5;" x="113.096039" xlink:href="#m5234e8feea" y="287.912935"/>
     <use style="fill:none;stroke:#ff0000;stroke-linejoin:miter;stroke-width:1.5;" x="210.903337" xlink:href="#m5234e8feea" y="217.652341"/>
     <use style="fill:none;stroke:#ff0000;stroke-linejoin:miter;stroke-width:1.5;" x="238.879058" xlink:href="#m5234e8feea" y="133.442952"/>
     <use style="fill:none;stroke:#ff0000;stroke-linejoin:miter;stroke-width:1.5;" x="259.577835" xlink:href="#m5234e8feea" y="54.399784"/>
     <use style="fill:none;stroke:#ff0000;stroke-linejoin:miter;stroke-width:1.5;" x="278.698822" xlink:href="#m5234e8feea" y="34.768147"/>
     <use style="fill:none;stroke:#ff0000;stroke-linejoin:miter;stroke-width:1.5;" x="358.8" xlink:href="#m5234e8feea" y="34.768147"/>
    </g>
   </g>
   <g id="line2d_46"/>
   <g id="line2d_47">
    <path clip-path="url(#p14740217ad)" d="M 209.87403 228.501403 
" style="fill:none;stroke:#ff0000;stroke-linecap:square;stroke-width:1.5;"/>
    <defs>
     <path d="M -12 12 
L 12 -12 
M -12 -12 
L 12 12 
" id="mb0106fc1be" style="stroke:#ff0000;stroke-width:3;"/>
    </defs>
    <g clip-path="url(#p14740217ad)">
     <use style="fill:#ff0000;stroke:#ff0000;stroke-width:3;" x="209.87403" xlink:href="#mb0106fc1be" y="228.501403"/>
    </g>
   </g>
   <g id="line2d_48">
    <path d="M 358.8 200.087192 
L 390.48 292.97583 
" style="fill:none;stroke:#000080;stroke-linecap:square;stroke-width:1.5;"/>
    <g>
     <use style="fill:none;stroke:#000080;stroke-width:1.5;" x="358.8" xlink:href="#m5c61a9455b" y="200.087192"/>
     <use style="fill:none;stroke:#000080;stroke-width:1.5;" x="390.48" xlink:href="#m5c61a9455b" y="292.97583"/>
    </g>
   </g>
   <g id="line2d_49">
    <path d="M 358.8 189.754752 
L 390.48 229.741296 
" style="fill:none;stroke:#ffa500;stroke-linecap:square;stroke-width:1.5;"/>
    <g>
     <use style="fill:none;stroke:#ffa500;stroke-linejoin:bevel;stroke-width:1.5;" x="358.8" xlink:href="#m67425ec784" y="189.754752"/>
     <use style="fill:none;stroke:#ffa500;stroke-linejoin:bevel;stroke-width:1.5;" x="390.48" xlink:href="#m67425ec784" y="229.741296"/>
    </g>
   </g>
   <g id="line2d_50">
    <path d="M 358.8 169.089871 
L 390.48 166.506761 
" style="fill:none;stroke:#6495ed;stroke-linecap:square;stroke-width:1.5;"/>
    <g>
     <use style="fill:none;stroke:#6495ed;stroke-linejoin:miter;stroke-width:1.5;" x="358.8" xlink:href="#m07239e727b" y="169.089871"/>
     <use style="fill:none;stroke:#6495ed;stroke-linejoin:miter;stroke-width:1.5;" x="390.48" xlink:href="#m07239e727b" y="166.506761"/>
    </g>
   </g>
   <g id="line2d_51">
    <path d="M 358.8 34.768147 
L 390.48 103.272226 
" style="fill:none;stroke:#ff0000;stroke-linecap:square;stroke-width:1.5;"/>
    <g>
     <use style="fill:none;stroke:#ff0000;stroke-linejoin:miter;stroke-width:1.5;" x="358.8" xlink:href="#m5234e8feea" y="34.768147"/>
     <use style="fill:none;stroke:#ff0000;stroke-linejoin:miter;stroke-width:1.5;" x="390.48" xlink:href="#m5234e8feea" y="103.272226"/>
    </g>
   </g>
   <g id="line2d_52">
    <path d="M 358.8 34.768147 
L 390.48 40.037692 
" style="fill:none;stroke:#ff00ff;stroke-linecap:square;stroke-width:1.5;"/>
    <g>
     <use style="fill:none;stroke:#ff00ff;stroke-linejoin:miter;stroke-width:1.5;" x="358.8" xlink:href="#mcc464f4bc1" y="34.768147"/>
     <use style="fill:none;stroke:#ff00ff;stroke-linejoin:miter;stroke-width:1.5;" x="390.48" xlink:href="#mcc464f4bc1" y="40.037692"/>
    </g>
   </g>
   <g id="line2d_53">
    <path d="M 358.8 298.245375 
L 358.8 34.768147 
" style="fill:none;stroke:#000000;stroke-linecap:square;stroke-width:1.5;"/>
   </g>
   <g id="patch_3">
    <path d="M 70.8 298.245375 
L 70.8 32.133375 
" style="fill:none;stroke:#000000;stroke-linecap:square;stroke-linejoin:miter;stroke-width:0.8;"/>
   </g>
   <g id="patch_4">
    <path d="M 427.92 298.245375 
L 427.92 32.133375 
" style="fill:none;stroke:#000000;stroke-linecap:square;stroke-linejoin:miter;stroke-width:0.8;"/>
   </g>
   <g id="patch_5">
    <path d="M 70.8 298.245375 
L 427.92 298.245375 
" style="fill:none;stroke:#000000;stroke-linecap:square;stroke-linejoin:miter;stroke-width:0.8;"/>
   </g>
   <g id="patch_6">
    <path d="M 70.8 32.133375 
L 427.92 32.133375 
" style="fill:none;stroke:#000000;stroke-linecap:square;stroke-linejoin:miter;stroke-width:0.8;"/>
   </g>
   <g id="text_14">
    <!-- f18 -->
    <g transform="translate(396.24 297.114893)scale(0.15 -0.15)">
     <use xlink:href="#DejaVuSans-66"/>
     <use x="35.205078" xlink:href="#DejaVuSans-31"/>
     <use x="98.828125" xlink:href="#DejaVuSans-38"/>
    </g>
   </g>
   <g id="text_15">
    <!-- f16 -->
    <g transform="translate(396.24 233.880358)scale(0.15 -0.15)">
     <use xlink:href="#DejaVuSans-66"/>
     <use x="35.205078" xlink:href="#DejaVuSans-31"/>
     <use x="98.828125" xlink:href="#DejaVuSans-36"/>
    </g>
   </g>
   <g id="text_16">
    <!-- f17 -->
    <defs>
     <path d="M 8.203125 72.90625 
L 55.078125 72.90625 
L 55.078125 68.703125 
L 28.609375 0 
L 18.3125 0 
L 43.21875 64.59375 
L 8.203125 64.59375 
z
" id="DejaVuSans-37"/>
    </defs>
    <g transform="translate(396.24 170.645824)scale(0.15 -0.15)">
     <use xlink:href="#DejaVuSans-66"/>
     <use x="35.205078" xlink:href="#DejaVuSans-31"/>
     <use x="98.828125" xlink:href="#DejaVuSans-37"/>
    </g>
   </g>
   <g id="text_17">
    <!-- f15 -->
    <defs>
     <path d="M 10.796875 72.90625 
L 49.515625 72.90625 
L 49.515625 64.59375 
L 19.828125 64.59375 
L 19.828125 46.734375 
Q 21.96875 47.46875 24.109375 47.828125 
Q 26.265625 48.1875 28.421875 48.1875 
Q 40.625 48.1875 47.75 41.5 
Q 54.890625 34.8125 54.890625 23.390625 
Q 54.890625 11.625 47.5625 5.09375 
Q 40.234375 -1.421875 26.90625 -1.421875 
Q 22.3125 -1.421875 17.546875 -0.640625 
Q 12.796875 0.140625 7.71875 1.703125 
L 7.71875 11.625 
Q 12.109375 9.234375 16.796875 8.0625 
Q 21.484375 6.890625 26.703125 6.890625 
Q 35.15625 6.890625 40.078125 11.328125 
Q 45.015625 15.765625 45.015625 23.390625 
Q 45.015625 31 40.078125 35.4375 
Q 35.15625 39.890625 26.703125 39.890625 
Q 22.75 39.890625 18.8125 39.015625 
Q 14.890625 38.140625 10.796875 36.28125 
z
" id="DejaVuSans-35"/>
    </defs>
    <g transform="translate(396.24 107.411289)scale(0.15 -0.15)">
     <use xlink:href="#DejaVuSans-66"/>
     <use x="35.205078" xlink:href="#DejaVuSans-31"/>
     <use x="98.828125" xlink:href="#DejaVuSans-35"/>
    </g>
   </g>
   <g id="text_18">
    <!-- f19 -->
    <defs>
     <path d="M 10.984375 1.515625 
L 10.984375 10.5 
Q 14.703125 8.734375 18.5 7.8125 
Q 22.3125 6.890625 25.984375 6.890625 
Q 35.75 6.890625 40.890625 13.453125 
Q 46.046875 20.015625 46.78125 33.40625 
Q 43.953125 29.203125 39.59375 26.953125 
Q 35.25 24.703125 29.984375 24.703125 
Q 19.046875 24.703125 12.671875 31.3125 
Q 6.296875 37.9375 6.296875 49.421875 
Q 6.296875 60.640625 12.9375 67.421875 
Q 19.578125 74.21875 30.609375 74.21875 
Q 43.265625 74.21875 49.921875 64.515625 
Q 56.59375 54.828125 56.59375 36.375 
Q 56.59375 19.140625 48.40625 8.859375 
Q 40.234375 -1.421875 26.421875 -1.421875 
Q 22.703125 -1.421875 18.890625 -0.6875 
Q 15.09375 0.046875 10.984375 1.515625 
z
M 30.609375 32.421875 
Q 37.25 32.421875 41.125 36.953125 
Q 45.015625 41.5 45.015625 49.421875 
Q 45.015625 57.28125 41.125 61.84375 
Q 37.25 66.40625 30.609375 66.40625 
Q 23.96875 66.40625 20.09375 61.84375 
Q 16.21875 57.28125 16.21875 49.421875 
Q 16.21875 41.5 20.09375 36.953125 
Q 23.96875 32.421875 30.609375 32.421875 
z
" id="DejaVuSans-39"/>
    </defs>
    <g transform="translate(396.24 44.176754)scale(0.15 -0.15)">
     <use xlink:href="#DejaVuSans-66"/>
     <use x="35.205078" xlink:href="#DejaVuSans-31"/>
     <use x="98.828125" xlink:href="#DejaVuSans-39"/>
    </g>
   </g>
   <g id="text_19">
    <!-- bbob -->
    <defs>
     <path d="M 48.6875 27.296875 
Q 48.6875 37.203125 44.609375 42.84375 
Q 40.53125 48.484375 33.40625 48.484375 
Q 26.265625 48.484375 22.1875 42.84375 
Q 18.109375 37.203125 18.109375 27.296875 
Q 18.109375 17.390625 22.1875 11.75 
Q 26.265625 6.109375 33.40625 6.109375 
Q 40.53125 6.109375 44.609375 11.75 
Q 48.6875 17.390625 48.6875 27.296875 
z
M 18.109375 46.390625 
Q 20.953125 51.265625 25.265625 53.625 
Q 29.59375 56 35.59375 56 
Q 45.5625 56 51.78125 48.09375 
Q 58.015625 40.1875 58.015625 27.296875 
Q 58.015625 14.40625 51.78125 6.484375 
Q 45.5625 -1.421875 35.59375 -1.421875 
Q 29.59375 -1.421875 25.265625 0.953125 
Q 20.953125 3.328125 18.109375 8.203125 
L 18.109375 0 
L 9.078125 0 
L 9.078125 75.984375 
L 18.109375 75.984375 
z
" id="DejaVuSans-62"/>
    </defs>
    <g transform="translate(74.3712 50.114612)scale(0.1666 -0.1666)">
     <use xlink:href="#DejaVuSans-62"/>
     <use x="63.476562" xlink:href="#DejaVuSans-62"/>
     <use x="126.953125" xlink:href="#DejaVuSans-6f"/>
     <use x="188.134766" xlink:href="#DejaVuSans-62"/>
    </g>
    <!-- Multi-modal functions, 3-D -->
    <defs>
     <path d="M 9.8125 72.90625 
L 24.515625 72.90625 
L 43.109375 23.296875 
L 61.8125 72.90625 
L 76.515625 72.90625 
L 76.515625 0 
L 66.890625 0 
L 66.890625 64.015625 
L 48.09375 14.015625 
L 38.1875 14.015625 
L 19.390625 64.015625 
L 19.390625 0 
L 9.8125 0 
z
" id="DejaVuSans-4d"/>
     <path d="M 11.71875 12.40625 
L 22.015625 12.40625 
L 22.015625 4 
L 14.015625 -11.625 
L 7.71875 -11.625 
L 11.71875 4 
z
" id="DejaVuSans-2c"/>
     <path d="M 40.578125 39.3125 
Q 47.65625 37.796875 51.625 33 
Q 55.609375 28.21875 55.609375 21.1875 
Q 55.609375 10.40625 48.1875 4.484375 
Q 40.765625 -1.421875 27.09375 -1.421875 
Q 22.515625 -1.421875 17.65625 -0.515625 
Q 12.796875 0.390625 7.625 2.203125 
L 7.625 11.71875 
Q 11.71875 9.328125 16.59375 8.109375 
Q 21.484375 6.890625 26.8125 6.890625 
Q 36.078125 6.890625 40.9375 10.546875 
Q 45.796875 14.203125 45.796875 21.1875 
Q 45.796875 27.640625 41.28125 31.265625 
Q 36.765625 34.90625 28.71875 34.90625 
L 20.21875 34.90625 
L 20.21875 43.015625 
L 29.109375 43.015625 
Q 36.375 43.015625 40.234375 45.921875 
Q 44.09375 48.828125 44.09375 54.296875 
Q 44.09375 59.90625 40.109375 62.90625 
Q 36.140625 65.921875 28.71875 65.921875 
Q 24.65625 65.921875 20.015625 65.03125 
Q 15.375 64.15625 9.8125 62.3125 
L 9.8125 71.09375 
Q 15.4375 72.65625 20.34375 73.4375 
Q 25.25 74.21875 29.59375 74.21875 
Q 40.828125 74.21875 47.359375 69.109375 
Q 53.90625 64.015625 53.90625 55.328125 
Q 53.90625 49.265625 50.4375 45.09375 
Q 46.96875 40.921875 40.578125 39.3125 
z
" id="DejaVuSans-33"/>
     <path d="M 19.671875 64.796875 
L 19.671875 8.109375 
L 31.59375 8.109375 
Q 46.6875 8.109375 53.6875 14.9375 
Q 60.6875 21.78125 60.6875 36.53125 
Q 60.6875 51.171875 53.6875 57.984375 
Q 46.6875 64.796875 31.59375 64.796875 
z
M 9.8125 72.90625 
L 30.078125 72.90625 
Q 51.265625 72.90625 61.171875 64.09375 
Q 71.09375 55.28125 71.09375 36.53125 
Q 71.09375 17.671875 61.125 8.828125 
Q 51.171875 0 30.078125 0 
L 9.8125 0 
z
" id="DejaVuSans-44"/>
    </defs>
    <g transform="translate(74.3712 68.770168)scale(0.1666 -0.1666)">
     <use xlink:href="#DejaVuSans-4d"/>
     <use x="86.279297" xlink:href="#DejaVuSans-75"/>
     <use x="149.658203" xlink:href="#DejaVuSans-6c"/>
     <use x="177.441406" xlink:href="#DejaVuSans-74"/>
     <use x="216.650391" xlink:href="#DejaVuSans-69"/>
     <use x="244.433594" xlink:href="#DejaVuSans-2d"/>
     <use x="280.517578" xlink:href="#DejaVuSans-6d"/>
     <use x="377.929688" xlink:href="#DejaVuSans-6f"/>
     <use x="439.111328" xlink:href="#DejaVuSans-64"/>
     <use x="502.587891" xlink:href="#DejaVuSans-61"/>
     <use x="563.867188" xlink:href="#DejaVuSans-6c"/>
     <use x="591.650391" xlink:href="#DejaVuSans-20"/>
     <use x="623.4375" xlink:href="#DejaVuSans-66"/>
     <use x="658.642578" xlink:href="#DejaVuSans-75"/>
     <use x="722.021484" xlink:href="#DejaVuSans-6e"/>
     <use x="785.400391" xlink:href="#DejaVuSans-63"/>
     <use x="840.380859" xlink:href="#DejaVuSans-74"/>
     <use x="879.589844" xlink:href="#DejaVuSans-69"/>
     <use x="907.373047" xlink:href="#DejaVuSans-6f"/>
     <use x="968.554688" xlink:href="#DejaVuSans-6e"/>
     <use x="1031.933594" xlink:href="#DejaVuSans-73"/>
     <use x="1084.033203" xlink:href="#DejaVuSans-2c"/>
     <use x="1115.820312" xlink:href="#DejaVuSans-20"/>
     <use x="1147.607422" xlink:href="#DejaVuSans-33"/>
     <use x="1211.230469" xlink:href="#DejaVuSans-2d"/>
     <use x="1247.314453" xlink:href="#DejaVuSans-44"/>
    </g>
    <!-- 51 targets in 100..1e-08 -->
    <g transform="translate(74.3712 87.425723)scale(0.1666 -0.1666)">
     <use xlink:href="#DejaVuSans-35"/>
     <use x="63.623047" xlink:href="#DejaVuSans-31"/>
     <use x="127.246094" xlink:href="#DejaVuSans-20"/>
     <use x="159.033203" xlink:href="#DejaVuSans-74"/>
     <use x="198.242188" xlink:href="#DejaVuSans-61"/>
     <use x="259.521484" xlink:href="#DejaVuSans-72"/>
     <use x="300.619141" xlink:href="#DejaVuSans-67"/>
     <use x="364.095703" xlink:href="#DejaVuSans-65"/>
     <use x="425.619141" xlink:href="#DejaVuSans-74"/>
     <use x="464.828125" xlink:href="#DejaVuSans-73"/>
     <use x="516.927734" xlink:href="#DejaVuSans-20"/>
     <use x="548.714844" xlink:href="#DejaVuSans-69"/>
     <use x="576.498047" xlink:href="#DejaVuSans-6e"/>
     <use x="639.876953" xlink:href="#DejaVuSans-20"/>
     <use x="671.664062" xlink:href="#DejaVuSans-31"/>
     <use x="735.287109" xlink:href="#DejaVuSans-30"/>
     <use x="798.910156" xlink:href="#DejaVuSans-30"/>
     <use x="862.533203" xlink:href="#DejaVuSans-2e"/>
     <use x="894.320312" xlink:href="#DejaVuSans-2e"/>
     <use x="926.107422" xlink:href="#DejaVuSans-31"/>
     <use x="989.730469" xlink:href="#DejaVuSans-65"/>
     <use x="1051.253906" xlink:href="#DejaVuSans-2d"/>
     <use x="1087.337891" xlink:href="#DejaVuSans-30"/>
     <use x="1150.960938" xlink:href="#DejaVuSans-38"/>
    </g>
    <!-- 15 instances -->
    <g transform="translate(74.3712 106.081279)scale(0.1666 -0.1666)">
     <use xlink:href="#DejaVuSans-31"/>
     <use x="63.623047" xlink:href="#DejaVuSans-35"/>
     <use x="127.246094" xlink:href="#DejaVuSans-20"/>
     <use x="159.033203" xlink:href="#DejaVuSans-69"/>
     <use x="186.816406" xlink:href="#DejaVuSans-6e"/>
     <use x="250.195312" xlink:href="#DejaVuSans-73"/>
     <use x="302.294922" xlink:href="#DejaVuSans-74"/>
     <use x="341.503906" xlink:href="#DejaVuSans-61"/>
     <use x="402.783203" xlink:href="#DejaVuSans-6e"/>
     <use x="466.162109" xlink:href="#DejaVuSans-63"/>
     <use x="521.142578" xlink:href="#DejaVuSans-65"/>
     <use x="582.666016" xlink:href="#DejaVuSans-73"/>
    </g>
   </g>
   <g id="text_20">
    <!-- v2.1 -->
    <g style="fill:#808080;" transform="translate(238.449063 293.504568)scale(0.1 -0.1)">
     <use xlink:href="#DejaVuSans-76"/>
     <use x="59.179688" xlink:href="#DejaVuSans-32"/>
     <use x="122.802734" xlink:href="#DejaVuSans-2e"/>
     <use x="154.589844" xlink:href="#DejaVuSans-31"/>
    </g>
   </g>
  </g>
 </g>
 <defs>
  <clipPath id="p14740217ad">
   <rect height="266.112" width="357.12" x="70.8" y="32.133375"/>
  </clipPath>
 </defs>
</svg>
