<?xml version="1.0" encoding="utf-8" standalone="no"?>
<!DOCTYPE svg PUBLIC "-//W3C//DTD SVG 1.1//EN"
  "http://www.w3.org/Graphics/SVG/1.1/DTD/svg11.dtd">
<!-- Created with matplotlib (http://matplotlib.org/) -->
<svg height="353pt" version="1.1" viewBox="0 0 443 353" width="443pt" xmlns="http://www.w3.org/2000/svg" xmlns:xlink="http://www.w3.org/1999/xlink">
 <defs>
  <style type="text/css">
*{stroke-linecap:butt;stroke-linejoin:round;}
  </style>
 </defs>
 <g id="figure_1">
  <g id="patch_1">
   <path d="M -0 353.22225 
L 443.7127 353.22225 
L 443.7127 0 
L -0 0 
z
" style="fill:#ffffff;"/>
  </g>
  <g id="axes_1">
   <g id="patch_2">
    <path d="M 73.113325 298.245375 
L 430.233325 298.245375 
L 430.233325 32.133375 
L 73.113325 32.133375 
z
" style="fill:#ffffff;"/>
   </g>
   <g id="matplotlib.axis_1">
    <g id="xtick_1">
     <g id="line2d_1">
      <path clip-path="url(#pe03fff6c3c)" d="M 73.113325 298.245375 
L 73.113325 32.133375 
" style="fill:none;stroke:#b0b0b0;stroke-linecap:square;stroke-width:0.8;"/>
     </g>
     <g id="line2d_2">
      <defs>
       <path d="M 0 0 
L 0 3.5 
" id="m56cc293a39" style="stroke:#000000;stroke-width:0.8;"/>
      </defs>
      <g>
       <use style="stroke:#000000;stroke-width:0.8;" x="73.113325" xlink:href="#m56cc293a39" y="298.245375"/>
      </g>
     </g>
     <g id="text_1">
      <!-- 0 -->
      <defs>
       <path d="M 31.78125 66.40625 
Q 24.171875 66.40625 20.328125 58.90625 
Q 16.5 51.421875 16.5 36.375 
Q 16.5 21.390625 20.328125 13.890625 
Q 24.171875 6.390625 31.78125 6.390625 
Q 39.453125 6.390625 43.28125 13.890625 
Q 47.125 21.390625 47.125 36.375 
Q 47.125 51.421875 43.28125 58.90625 
Q 39.453125 66.40625 31.78125 66.40625 
z
M 31.78125 74.21875 
Q 44.046875 74.21875 50.515625 64.515625 
Q 56.984375 54.828125 56.984375 36.375 
Q 56.984375 17.96875 50.515625 8.265625 
Q 44.046875 -1.421875 31.78125 -1.421875 
Q 19.53125 -1.421875 13.0625 8.265625 
Q 6.59375 17.96875 6.59375 36.375 
Q 6.59375 54.828125 13.0625 64.515625 
Q 19.53125 74.21875 31.78125 74.21875 
z
" id="DejaVuSans-30"/>
      </defs>
      <g transform="translate(66.750825 320.44225)scale(0.2 -0.2)">
       <use xlink:href="#DejaVuSans-30"/>
      </g>
     </g>
    </g>
    <g id="xtick_2">
     <g id="line2d_3">
      <path clip-path="url(#pe03fff6c3c)" d="M 155.39904 298.245375 
L 155.39904 32.133375 
" style="fill:none;stroke:#b0b0b0;stroke-linecap:square;stroke-width:0.8;"/>
     </g>
     <g id="line2d_4">
      <g>
       <use style="stroke:#000000;stroke-width:0.8;" x="155.39904" xlink:href="#m56cc293a39" y="298.245375"/>
      </g>
     </g>
     <g id="text_2">
      <!-- 2 -->
      <defs>
       <path d="M 19.1875 8.296875 
L 53.609375 8.296875 
L 53.609375 0 
L 7.328125 0 
L 7.328125 8.296875 
Q 12.9375 14.109375 22.625 23.890625 
Q 32.328125 33.6875 34.8125 36.53125 
Q 39.546875 41.84375 41.421875 45.53125 
Q 43.3125 49.21875 43.3125 52.78125 
Q 43.3125 58.59375 39.234375 62.25 
Q 35.15625 65.921875 28.609375 65.921875 
Q 23.96875 65.921875 18.8125 64.3125 
Q 13.671875 62.703125 7.8125 59.421875 
L 7.8125 69.390625 
Q 13.765625 71.78125 18.9375 73 
Q 24.125 74.21875 28.421875 74.21875 
Q 39.75 74.21875 46.484375 68.546875 
Q 53.21875 62.890625 53.21875 53.421875 
Q 53.21875 48.921875 51.53125 44.890625 
Q 49.859375 40.875 45.40625 35.40625 
Q 44.1875 33.984375 37.640625 27.21875 
Q 31.109375 20.453125 19.1875 8.296875 
z
" id="DejaVuSans-32"/>
      </defs>
      <g transform="translate(149.03654 320.44225)scale(0.2 -0.2)">
       <use xlink:href="#DejaVuSans-32"/>
      </g>
     </g>
    </g>
    <g id="xtick_3">
     <g id="line2d_5">
      <path clip-path="url(#pe03fff6c3c)" d="M 237.684754 298.245375 
L 237.684754 32.133375 
" style="fill:none;stroke:#b0b0b0;stroke-linecap:square;stroke-width:0.8;"/>
     </g>
     <g id="line2d_6">
      <g>
       <use style="stroke:#000000;stroke-width:0.8;" x="237.684754" xlink:href="#m56cc293a39" y="298.245375"/>
      </g>
     </g>
     <g id="text_3">
      <!-- 4 -->
      <defs>
       <path d="M 37.796875 64.3125 
L 12.890625 25.390625 
L 37.796875 25.390625 
z
M 35.203125 72.90625 
L 47.609375 72.90625 
L 47.609375 25.390625 
L 58.015625 25.390625 
L 58.015625 17.1875 
L 47.609375 17.1875 
L 47.609375 0 
L 37.796875 0 
L 37.796875 17.1875 
L 4.890625 17.1875 
L 4.890625 26.703125 
z
" id="DejaVuSans-34"/>
      </defs>
      <g transform="translate(231.322254 320.44225)scale(0.2 -0.2)">
       <use xlink:href="#DejaVuSans-34"/>
      </g>
     </g>
    </g>
    <g id="xtick_4">
     <g id="line2d_7">
      <path clip-path="url(#pe03fff6c3c)" d="M 319.970468 298.245375 
L 319.970468 32.133375 
" style="fill:none;stroke:#b0b0b0;stroke-linecap:square;stroke-width:0.8;"/>
     </g>
     <g id="line2d_8">
      <g>
       <use style="stroke:#000000;stroke-width:0.8;" x="319.970468" xlink:href="#m56cc293a39" y="298.245375"/>
      </g>
     </g>
     <g id="text_4">
      <!-- 6 -->
      <defs>
       <path d="M 33.015625 40.375 
Q 26.375 40.375 22.484375 35.828125 
Q 18.609375 31.296875 18.609375 23.390625 
Q 18.609375 15.53125 22.484375 10.953125 
Q 26.375 6.390625 33.015625 6.390625 
Q 39.65625 6.390625 43.53125 10.953125 
Q 47.40625 15.53125 47.40625 23.390625 
Q 47.40625 31.296875 43.53125 35.828125 
Q 39.65625 40.375 33.015625 40.375 
z
M 52.59375 71.296875 
L 52.59375 62.3125 
Q 48.875 64.0625 45.09375 64.984375 
Q 41.3125 65.921875 37.59375 65.921875 
Q 27.828125 65.921875 22.671875 59.328125 
Q 17.53125 52.734375 16.796875 39.40625 
Q 19.671875 43.65625 24.015625 45.921875 
Q 28.375 48.1875 33.59375 48.1875 
Q 44.578125 48.1875 50.953125 41.515625 
Q 57.328125 34.859375 57.328125 23.390625 
Q 57.328125 12.15625 50.6875 5.359375 
Q 44.046875 -1.421875 33.015625 -1.421875 
Q 20.359375 -1.421875 13.671875 8.265625 
Q 6.984375 17.96875 6.984375 36.375 
Q 6.984375 53.65625 15.1875 63.9375 
Q 23.390625 74.21875 37.203125 74.21875 
Q 40.921875 74.21875 44.703125 73.484375 
Q 48.484375 72.75 52.59375 71.296875 
z
" id="DejaVuSans-36"/>
      </defs>
      <g transform="translate(313.607968 320.44225)scale(0.2 -0.2)">
       <use xlink:href="#DejaVuSans-36"/>
      </g>
     </g>
    </g>
    <g id="xtick_5">
     <g id="line2d_9">
      <path clip-path="url(#pe03fff6c3c)" d="M 402.256183 298.245375 
L 402.256183 32.133375 
" style="fill:none;stroke:#b0b0b0;stroke-linecap:square;stroke-width:0.8;"/>
     </g>
     <g id="line2d_10">
      <g>
       <use style="stroke:#000000;stroke-width:0.8;" x="402.256183" xlink:href="#m56cc293a39" y="298.245375"/>
      </g>
     </g>
     <g id="text_5">
      <!-- 8 -->
      <defs>
       <path d="M 31.78125 34.625 
Q 24.75 34.625 20.71875 30.859375 
Q 16.703125 27.09375 16.703125 20.515625 
Q 16.703125 13.921875 20.71875 10.15625 
Q 24.75 6.390625 31.78125 6.390625 
Q 38.8125 6.390625 42.859375 10.171875 
Q 46.921875 13.96875 46.921875 20.515625 
Q 46.921875 27.09375 42.890625 30.859375 
Q 38.875 34.625 31.78125 34.625 
z
M 21.921875 38.8125 
Q 15.578125 40.375 12.03125 44.71875 
Q 8.5 49.078125 8.5 55.328125 
Q 8.5 64.0625 14.71875 69.140625 
Q 20.953125 74.21875 31.78125 74.21875 
Q 42.671875 74.21875 48.875 69.140625 
Q 55.078125 64.0625 55.078125 55.328125 
Q 55.078125 49.078125 51.53125 44.71875 
Q 48 40.375 41.703125 38.8125 
Q 48.828125 37.15625 52.796875 32.3125 
Q 56.78125 27.484375 56.78125 20.515625 
Q 56.78125 9.90625 50.3125 4.234375 
Q 43.84375 -1.421875 31.78125 -1.421875 
Q 19.734375 -1.421875 13.25 4.234375 
Q 6.78125 9.90625 6.78125 20.515625 
Q 6.78125 27.484375 10.78125 32.3125 
Q 14.796875 37.15625 21.921875 38.8125 
z
M 18.3125 54.390625 
Q 18.3125 48.734375 21.84375 45.5625 
Q 25.390625 42.390625 31.78125 42.390625 
Q 38.140625 42.390625 41.71875 45.5625 
Q 45.3125 48.734375 45.3125 54.390625 
Q 45.3125 60.0625 41.71875 63.234375 
Q 38.140625 66.40625 31.78125 66.40625 
Q 25.390625 66.40625 21.84375 63.234375 
Q 18.3125 60.0625 18.3125 54.390625 
z
" id="DejaVuSans-38"/>
      </defs>
      <g transform="translate(395.893683 320.44225)scale(0.2 -0.2)">
       <use xlink:href="#DejaVuSans-38"/>
      </g>
     </g>
    </g>
    <g id="text_6">
     <!-- log10 of (# f-evals / dimension) -->
     <defs>
      <path d="M 9.421875 75.984375 
L 18.40625 75.984375 
L 18.40625 0 
L 9.421875 0 
z
" id="DejaVuSans-6c"/>
      <path d="M 30.609375 48.390625 
Q 23.390625 48.390625 19.1875 42.75 
Q 14.984375 37.109375 14.984375 27.296875 
Q 14.984375 17.484375 19.15625 11.84375 
Q 23.34375 6.203125 30.609375 6.203125 
Q 37.796875 6.203125 41.984375 11.859375 
Q 46.1875 17.53125 46.1875 27.296875 
Q 46.1875 37.015625 41.984375 42.703125 
Q 37.796875 48.390625 30.609375 48.390625 
z
M 30.609375 56 
Q 42.328125 56 49.015625 48.375 
Q 55.71875 40.765625 55.71875 27.296875 
Q 55.71875 13.875 49.015625 6.21875 
Q 42.328125 -1.421875 30.609375 -1.421875 
Q 18.84375 -1.421875 12.171875 6.21875 
Q 5.515625 13.875 5.515625 27.296875 
Q 5.515625 40.765625 12.171875 48.375 
Q 18.84375 56 30.609375 56 
z
" id="DejaVuSans-6f"/>
      <path d="M 45.40625 27.984375 
Q 45.40625 37.75 41.375 43.109375 
Q 37.359375 48.484375 30.078125 48.484375 
Q 22.859375 48.484375 18.828125 43.109375 
Q 14.796875 37.75 14.796875 27.984375 
Q 14.796875 18.265625 18.828125 12.890625 
Q 22.859375 7.515625 30.078125 7.515625 
Q 37.359375 7.515625 41.375 12.890625 
Q 45.40625 18.265625 45.40625 27.984375 
z
M 54.390625 6.78125 
Q 54.390625 -7.171875 48.1875 -13.984375 
Q 42 -20.796875 29.203125 -20.796875 
Q 24.46875 -20.796875 20.265625 -20.09375 
Q 16.0625 -19.390625 12.109375 -17.921875 
L 12.109375 -9.1875 
Q 16.0625 -11.328125 19.921875 -12.34375 
Q 23.78125 -13.375 27.78125 -13.375 
Q 36.625 -13.375 41.015625 -8.765625 
Q 45.40625 -4.15625 45.40625 5.171875 
L 45.40625 9.625 
Q 42.625 4.78125 38.28125 2.390625 
Q 33.9375 0 27.875 0 
Q 17.828125 0 11.671875 7.65625 
Q 5.515625 15.328125 5.515625 27.984375 
Q 5.515625 40.671875 11.671875 48.328125 
Q 17.828125 56 27.875 56 
Q 33.9375 56 38.28125 53.609375 
Q 42.625 51.21875 45.40625 46.390625 
L 45.40625 54.6875 
L 54.390625 54.6875 
z
" id="DejaVuSans-67"/>
      <path d="M 12.40625 8.296875 
L 28.515625 8.296875 
L 28.515625 63.921875 
L 10.984375 60.40625 
L 10.984375 69.390625 
L 28.421875 72.90625 
L 38.28125 72.90625 
L 38.28125 8.296875 
L 54.390625 8.296875 
L 54.390625 0 
L 12.40625 0 
z
" id="DejaVuSans-31"/>
      <path id="DejaVuSans-20"/>
      <path d="M 37.109375 75.984375 
L 37.109375 68.5 
L 28.515625 68.5 
Q 23.6875 68.5 21.796875 66.546875 
Q 19.921875 64.59375 19.921875 59.515625 
L 19.921875 54.6875 
L 34.71875 54.6875 
L 34.71875 47.703125 
L 19.921875 47.703125 
L 19.921875 0 
L 10.890625 0 
L 10.890625 47.703125 
L 2.296875 47.703125 
L 2.296875 54.6875 
L 10.890625 54.6875 
L 10.890625 58.5 
Q 10.890625 67.625 15.140625 71.796875 
Q 19.390625 75.984375 28.609375 75.984375 
z
" id="DejaVuSans-66"/>
      <path d="M 31 75.875 
Q 24.46875 64.65625 21.28125 53.65625 
Q 18.109375 42.671875 18.109375 31.390625 
Q 18.109375 20.125 21.3125 9.0625 
Q 24.515625 -2 31 -13.1875 
L 23.1875 -13.1875 
Q 15.875 -1.703125 12.234375 9.375 
Q 8.59375 20.453125 8.59375 31.390625 
Q 8.59375 42.28125 12.203125 53.3125 
Q 15.828125 64.359375 23.1875 75.875 
z
" id="DejaVuSans-28"/>
      <path d="M 51.125 44 
L 36.921875 44 
L 32.8125 27.6875 
L 47.125 27.6875 
z
M 43.796875 71.78125 
L 38.71875 51.515625 
L 52.984375 51.515625 
L 58.109375 71.78125 
L 65.921875 71.78125 
L 60.890625 51.515625 
L 76.125 51.515625 
L 76.125 44 
L 58.984375 44 
L 54.984375 27.6875 
L 70.515625 27.6875 
L 70.515625 20.21875 
L 53.078125 20.21875 
L 48 0 
L 40.1875 0 
L 45.21875 20.21875 
L 30.90625 20.21875 
L 25.875 0 
L 18.015625 0 
L 23.09375 20.21875 
L 7.71875 20.21875 
L 7.71875 27.6875 
L 24.90625 27.6875 
L 29 44 
L 13.28125 44 
L 13.28125 51.515625 
L 30.90625 51.515625 
L 35.890625 71.78125 
z
" id="DejaVuSans-23"/>
      <path d="M 4.890625 31.390625 
L 31.203125 31.390625 
L 31.203125 23.390625 
L 4.890625 23.390625 
z
" id="DejaVuSans-2d"/>
      <path d="M 56.203125 29.59375 
L 56.203125 25.203125 
L 14.890625 25.203125 
Q 15.484375 15.921875 20.484375 11.0625 
Q 25.484375 6.203125 34.421875 6.203125 
Q 39.59375 6.203125 44.453125 7.46875 
Q 49.3125 8.734375 54.109375 11.28125 
L 54.109375 2.78125 
Q 49.265625 0.734375 44.1875 -0.34375 
Q 39.109375 -1.421875 33.890625 -1.421875 
Q 20.796875 -1.421875 13.15625 6.1875 
Q 5.515625 13.8125 5.515625 26.8125 
Q 5.515625 40.234375 12.765625 48.109375 
Q 20.015625 56 32.328125 56 
Q 43.359375 56 49.78125 48.890625 
Q 56.203125 41.796875 56.203125 29.59375 
z
M 47.21875 32.234375 
Q 47.125 39.59375 43.09375 43.984375 
Q 39.0625 48.390625 32.421875 48.390625 
Q 24.90625 48.390625 20.390625 44.140625 
Q 15.875 39.890625 15.1875 32.171875 
z
" id="DejaVuSans-65"/>
      <path d="M 2.984375 54.6875 
L 12.5 54.6875 
L 29.59375 8.796875 
L 46.6875 54.6875 
L 56.203125 54.6875 
L 35.6875 0 
L 23.484375 0 
z
" id="DejaVuSans-76"/>
      <path d="M 34.28125 27.484375 
Q 23.390625 27.484375 19.1875 25 
Q 14.984375 22.515625 14.984375 16.5 
Q 14.984375 11.71875 18.140625 8.90625 
Q 21.296875 6.109375 26.703125 6.109375 
Q 34.1875 6.109375 38.703125 11.40625 
Q 43.21875 16.703125 43.21875 25.484375 
L 43.21875 27.484375 
z
M 52.203125 31.203125 
L 52.203125 0 
L 43.21875 0 
L 43.21875 8.296875 
Q 40.140625 3.328125 35.546875 0.953125 
Q 30.953125 -1.421875 24.3125 -1.421875 
Q 15.921875 -1.421875 10.953125 3.296875 
Q 6 8.015625 6 15.921875 
Q 6 25.140625 12.171875 29.828125 
Q 18.359375 34.515625 30.609375 34.515625 
L 43.21875 34.515625 
L 43.21875 35.40625 
Q 43.21875 41.609375 39.140625 45 
Q 35.0625 48.390625 27.6875 48.390625 
Q 23 48.390625 18.546875 47.265625 
Q 14.109375 46.140625 10.015625 43.890625 
L 10.015625 52.203125 
Q 14.9375 54.109375 19.578125 55.046875 
Q 24.21875 56 28.609375 56 
Q 40.484375 56 46.34375 49.84375 
Q 52.203125 43.703125 52.203125 31.203125 
z
" id="DejaVuSans-61"/>
      <path d="M 44.28125 53.078125 
L 44.28125 44.578125 
Q 40.484375 46.53125 36.375 47.5 
Q 32.28125 48.484375 27.875 48.484375 
Q 21.1875 48.484375 17.84375 46.4375 
Q 14.5 44.390625 14.5 40.28125 
Q 14.5 37.15625 16.890625 35.375 
Q 19.28125 33.59375 26.515625 31.984375 
L 29.59375 31.296875 
Q 39.15625 29.25 43.1875 25.515625 
Q 47.21875 21.78125 47.21875 15.09375 
Q 47.21875 7.46875 41.1875 3.015625 
Q 35.15625 -1.421875 24.609375 -1.421875 
Q 20.21875 -1.421875 15.453125 -0.5625 
Q 10.6875 0.296875 5.421875 2 
L 5.421875 11.28125 
Q 10.40625 8.6875 15.234375 7.390625 
Q 20.0625 6.109375 24.8125 6.109375 
Q 31.15625 6.109375 34.5625 8.28125 
Q 37.984375 10.453125 37.984375 14.40625 
Q 37.984375 18.0625 35.515625 20.015625 
Q 33.0625 21.96875 24.703125 23.78125 
L 21.578125 24.515625 
Q 13.234375 26.265625 9.515625 29.90625 
Q 5.8125 33.546875 5.8125 39.890625 
Q 5.8125 47.609375 11.28125 51.796875 
Q 16.75 56 26.8125 56 
Q 31.78125 56 36.171875 55.265625 
Q 40.578125 54.546875 44.28125 53.078125 
z
" id="DejaVuSans-73"/>
      <path d="M 25.390625 72.90625 
L 33.6875 72.90625 
L 8.296875 -9.28125 
L 0 -9.28125 
z
" id="DejaVuSans-2f"/>
      <path d="M 45.40625 46.390625 
L 45.40625 75.984375 
L 54.390625 75.984375 
L 54.390625 0 
L 45.40625 0 
L 45.40625 8.203125 
Q 42.578125 3.328125 38.25 0.953125 
Q 33.9375 -1.421875 27.875 -1.421875 
Q 17.96875 -1.421875 11.734375 6.484375 
Q 5.515625 14.40625 5.515625 27.296875 
Q 5.515625 40.1875 11.734375 48.09375 
Q 17.96875 56 27.875 56 
Q 33.9375 56 38.25 53.625 
Q 42.578125 51.265625 45.40625 46.390625 
z
M 14.796875 27.296875 
Q 14.796875 17.390625 18.875 11.75 
Q 22.953125 6.109375 30.078125 6.109375 
Q 37.203125 6.109375 41.296875 11.75 
Q 45.40625 17.390625 45.40625 27.296875 
Q 45.40625 37.203125 41.296875 42.84375 
Q 37.203125 48.484375 30.078125 48.484375 
Q 22.953125 48.484375 18.875 42.84375 
Q 14.796875 37.203125 14.796875 27.296875 
z
" id="DejaVuSans-64"/>
      <path d="M 9.421875 54.6875 
L 18.40625 54.6875 
L 18.40625 0 
L 9.421875 0 
z
M 9.421875 75.984375 
L 18.40625 75.984375 
L 18.40625 64.59375 
L 9.421875 64.59375 
z
" id="DejaVuSans-69"/>
      <path d="M 52 44.1875 
Q 55.375 50.25 60.0625 53.125 
Q 64.75 56 71.09375 56 
Q 79.640625 56 84.28125 50.015625 
Q 88.921875 44.046875 88.921875 33.015625 
L 88.921875 0 
L 79.890625 0 
L 79.890625 32.71875 
Q 79.890625 40.578125 77.09375 44.375 
Q 74.3125 48.1875 68.609375 48.1875 
Q 61.625 48.1875 57.5625 43.546875 
Q 53.515625 38.921875 53.515625 30.90625 
L 53.515625 0 
L 44.484375 0 
L 44.484375 32.71875 
Q 44.484375 40.625 41.703125 44.40625 
Q 38.921875 48.1875 33.109375 48.1875 
Q 26.21875 48.1875 22.15625 43.53125 
Q 18.109375 38.875 18.109375 30.90625 
L 18.109375 0 
L 9.078125 0 
L 9.078125 54.6875 
L 18.109375 54.6875 
L 18.109375 46.1875 
Q 21.1875 51.21875 25.484375 53.609375 
Q 29.78125 56 35.6875 56 
Q 41.65625 56 45.828125 52.96875 
Q 50 49.953125 52 44.1875 
z
" id="DejaVuSans-6d"/>
      <path d="M 54.890625 33.015625 
L 54.890625 0 
L 45.90625 0 
L 45.90625 32.71875 
Q 45.90625 40.484375 42.875 44.328125 
Q 39.84375 48.1875 33.796875 48.1875 
Q 26.515625 48.1875 22.3125 43.546875 
Q 18.109375 38.921875 18.109375 30.90625 
L 18.109375 0 
L 9.078125 0 
L 9.078125 54.6875 
L 18.109375 54.6875 
L 18.109375 46.1875 
Q 21.34375 51.125 25.703125 53.5625 
Q 30.078125 56 35.796875 56 
Q 45.21875 56 50.046875 50.171875 
Q 54.890625 44.34375 54.890625 33.015625 
z
" id="DejaVuSans-6e"/>
      <path d="M 8.015625 75.875 
L 15.828125 75.875 
Q 23.140625 64.359375 26.78125 53.3125 
Q 30.421875 42.28125 30.421875 31.390625 
Q 30.421875 20.453125 26.78125 9.375 
Q 23.140625 -1.703125 15.828125 -13.1875 
L 8.015625 -13.1875 
Q 14.5 -2 17.703125 9.0625 
Q 20.90625 20.125 20.90625 31.390625 
Q 20.90625 42.671875 17.703125 53.65625 
Q 14.5 64.65625 8.015625 75.875 
z
" id="DejaVuSans-29"/>
     </defs>
     <g transform="translate(109.328482 342.278812)scale(0.18 -0.18)">
      <use xlink:href="#DejaVuSans-6c"/>
      <use x="27.783203" xlink:href="#DejaVuSans-6f"/>
      <use x="88.964844" xlink:href="#DejaVuSans-67"/>
      <use x="152.441406" xlink:href="#DejaVuSans-31"/>
      <use x="216.064453" xlink:href="#DejaVuSans-30"/>
      <use x="279.6875" xlink:href="#DejaVuSans-20"/>
      <use x="311.474609" xlink:href="#DejaVuSans-6f"/>
      <use x="372.65625" xlink:href="#DejaVuSans-66"/>
      <use x="407.861328" xlink:href="#DejaVuSans-20"/>
      <use x="439.648438" xlink:href="#DejaVuSans-28"/>
      <use x="478.662109" xlink:href="#DejaVuSans-23"/>
      <use x="562.451172" xlink:href="#DejaVuSans-20"/>
      <use x="594.238281" xlink:href="#DejaVuSans-66"/>
      <use x="629.365234" xlink:href="#DejaVuSans-2d"/>
      <use x="665.449219" xlink:href="#DejaVuSans-65"/>
      <use x="726.972656" xlink:href="#DejaVuSans-76"/>
      <use x="786.152344" xlink:href="#DejaVuSans-61"/>
      <use x="847.431641" xlink:href="#DejaVuSans-6c"/>
      <use x="875.214844" xlink:href="#DejaVuSans-73"/>
      <use x="927.314453" xlink:href="#DejaVuSans-20"/>
      <use x="959.101562" xlink:href="#DejaVuSans-2f"/>
      <use x="992.792969" xlink:href="#DejaVuSans-20"/>
      <use x="1024.580078" xlink:href="#DejaVuSans-64"/>
      <use x="1088.056641" xlink:href="#DejaVuSans-69"/>
      <use x="1115.839844" xlink:href="#DejaVuSans-6d"/>
      <use x="1213.251953" xlink:href="#DejaVuSans-65"/>
      <use x="1274.775391" xlink:href="#DejaVuSans-6e"/>
      <use x="1338.154297" xlink:href="#DejaVuSans-73"/>
      <use x="1390.253906" xlink:href="#DejaVuSans-69"/>
      <use x="1418.037109" xlink:href="#DejaVuSans-6f"/>
      <use x="1479.21875" xlink:href="#DejaVuSans-6e"/>
      <use x="1542.597656" xlink:href="#DejaVuSans-29"/>
     </g>
    </g>
   </g>
   <g id="matplotlib.axis_2">
    <g id="ytick_1">
     <g id="line2d_11">
      <path clip-path="url(#pe03fff6c3c)" d="M 73.113325 298.245375 
L 430.233325 298.245375 
" style="fill:none;stroke:#b0b0b0;stroke-linecap:square;stroke-width:0.8;"/>
     </g>
     <g id="line2d_12">
      <defs>
       <path d="M 0 0 
L -3.5 0 
" id="m4ac55fb24b" style="stroke:#000000;stroke-width:0.8;"/>
      </defs>
      <g>
       <use style="stroke:#000000;stroke-width:0.8;" x="73.113325" xlink:href="#m4ac55fb24b" y="298.245375"/>
      </g>
     </g>
     <g id="text_7">
      <!-- 0.0 -->
      <defs>
       <path d="M 10.6875 12.40625 
L 21 12.40625 
L 21 0 
L 10.6875 0 
z
" id="DejaVuSans-2e"/>
      </defs>
      <g transform="translate(34.307075 305.843812)scale(0.2 -0.2)">
       <use xlink:href="#DejaVuSans-30"/>
       <use x="63.623047" xlink:href="#DejaVuSans-2e"/>
       <use x="95.410156" xlink:href="#DejaVuSans-30"/>
      </g>
     </g>
    </g>
    <g id="ytick_2">
     <g id="line2d_13">
      <path clip-path="url(#pe03fff6c3c)" d="M 73.113325 245.549929 
L 430.233325 245.549929 
" style="fill:none;stroke:#b0b0b0;stroke-linecap:square;stroke-width:0.8;"/>
     </g>
     <g id="line2d_14">
      <g>
       <use style="stroke:#000000;stroke-width:0.8;" x="73.113325" xlink:href="#m4ac55fb24b" y="245.549929"/>
      </g>
     </g>
     <g id="text_8">
      <!-- 0.2 -->
      <g transform="translate(34.307075 253.148367)scale(0.2 -0.2)">
       <use xlink:href="#DejaVuSans-30"/>
       <use x="63.623047" xlink:href="#DejaVuSans-2e"/>
       <use x="95.410156" xlink:href="#DejaVuSans-32"/>
      </g>
     </g>
    </g>
    <g id="ytick_3">
     <g id="line2d_15">
      <path clip-path="url(#pe03fff6c3c)" d="M 73.113325 192.854484 
L 430.233325 192.854484 
" style="fill:none;stroke:#b0b0b0;stroke-linecap:square;stroke-width:0.8;"/>
     </g>
     <g id="line2d_16">
      <g>
       <use style="stroke:#000000;stroke-width:0.8;" x="73.113325" xlink:href="#m4ac55fb24b" y="192.854484"/>
      </g>
     </g>
     <g id="text_9">
      <!-- 0.4 -->
      <g transform="translate(34.307075 200.452921)scale(0.2 -0.2)">
       <use xlink:href="#DejaVuSans-30"/>
       <use x="63.623047" xlink:href="#DejaVuSans-2e"/>
       <use x="95.410156" xlink:href="#DejaVuSans-34"/>
      </g>
     </g>
    </g>
    <g id="ytick_4">
     <g id="line2d_17">
      <path clip-path="url(#pe03fff6c3c)" d="M 73.113325 140.159038 
L 430.233325 140.159038 
" style="fill:none;stroke:#b0b0b0;stroke-linecap:square;stroke-width:0.8;"/>
     </g>
     <g id="line2d_18">
      <g>
       <use style="stroke:#000000;stroke-width:0.8;" x="73.113325" xlink:href="#m4ac55fb24b" y="140.159038"/>
      </g>
     </g>
     <g id="text_10">
      <!-- 0.6 -->
      <g transform="translate(34.307075 147.757476)scale(0.2 -0.2)">
       <use xlink:href="#DejaVuSans-30"/>
       <use x="63.623047" xlink:href="#DejaVuSans-2e"/>
       <use x="95.410156" xlink:href="#DejaVuSans-36"/>
      </g>
     </g>
    </g>
    <g id="ytick_5">
     <g id="line2d_19">
      <path clip-path="url(#pe03fff6c3c)" d="M 73.113325 87.463593 
L 430.233325 87.463593 
" style="fill:none;stroke:#b0b0b0;stroke-linecap:square;stroke-width:0.8;"/>
     </g>
     <g id="line2d_20">
      <g>
       <use style="stroke:#000000;stroke-width:0.8;" x="73.113325" xlink:href="#m4ac55fb24b" y="87.463593"/>
      </g>
     </g>
     <g id="text_11">
      <!-- 0.8 -->
      <g transform="translate(34.307075 95.06203)scale(0.2 -0.2)">
       <use xlink:href="#DejaVuSans-30"/>
       <use x="63.623047" xlink:href="#DejaVuSans-2e"/>
       <use x="95.410156" xlink:href="#DejaVuSans-38"/>
      </g>
     </g>
    </g>
    <g id="ytick_6">
     <g id="line2d_21">
      <path clip-path="url(#pe03fff6c3c)" d="M 73.113325 34.768147 
L 430.233325 34.768147 
" style="fill:none;stroke:#b0b0b0;stroke-linecap:square;stroke-width:0.8;"/>
     </g>
     <g id="line2d_22">
      <g>
       <use style="stroke:#000000;stroke-width:0.8;" x="73.113325" xlink:href="#m4ac55fb24b" y="34.768147"/>
      </g>
     </g>
     <g id="text_12">
      <!-- 1.0 -->
      <g transform="translate(34.307075 42.366585)scale(0.2 -0.2)">
       <use xlink:href="#DejaVuSans-31"/>
       <use x="63.623047" xlink:href="#DejaVuSans-2e"/>
       <use x="95.410156" xlink:href="#DejaVuSans-30"/>
      </g>
     </g>
    </g>
    <g id="text_13">
     <!-- Proportion of function+target pairs -->
     <defs>
      <path d="M 19.671875 64.796875 
L 19.671875 37.40625 
L 32.078125 37.40625 
Q 38.96875 37.40625 42.71875 40.96875 
Q 46.484375 44.53125 46.484375 51.125 
Q 46.484375 57.671875 42.71875 61.234375 
Q 38.96875 64.796875 32.078125 64.796875 
z
M 9.8125 72.90625 
L 32.078125 72.90625 
Q 44.34375 72.90625 50.609375 67.359375 
Q 56.890625 61.8125 56.890625 51.125 
Q 56.890625 40.328125 50.609375 34.8125 
Q 44.34375 29.296875 32.078125 29.296875 
L 19.671875 29.296875 
L 19.671875 0 
L 9.8125 0 
z
" id="DejaVuSans-50"/>
      <path d="M 41.109375 46.296875 
Q 39.59375 47.171875 37.8125 47.578125 
Q 36.03125 48 33.890625 48 
Q 26.265625 48 22.1875 43.046875 
Q 18.109375 38.09375 18.109375 28.8125 
L 18.109375 0 
L 9.078125 0 
L 9.078125 54.6875 
L 18.109375 54.6875 
L 18.109375 46.1875 
Q 20.953125 51.171875 25.484375 53.578125 
Q 30.03125 56 36.53125 56 
Q 37.453125 56 38.578125 55.875 
Q 39.703125 55.765625 41.0625 55.515625 
z
" id="DejaVuSans-72"/>
      <path d="M 18.109375 8.203125 
L 18.109375 -20.796875 
L 9.078125 -20.796875 
L 9.078125 54.6875 
L 18.109375 54.6875 
L 18.109375 46.390625 
Q 20.953125 51.265625 25.265625 53.625 
Q 29.59375 56 35.59375 56 
Q 45.5625 56 51.78125 48.09375 
Q 58.015625 40.1875 58.015625 27.296875 
Q 58.015625 14.40625 51.78125 6.484375 
Q 45.5625 -1.421875 35.59375 -1.421875 
Q 29.59375 -1.421875 25.265625 0.953125 
Q 20.953125 3.328125 18.109375 8.203125 
z
M 48.6875 27.296875 
Q 48.6875 37.203125 44.609375 42.84375 
Q 40.53125 48.484375 33.40625 48.484375 
Q 26.265625 48.484375 22.1875 42.84375 
Q 18.109375 37.203125 18.109375 27.296875 
Q 18.109375 17.390625 22.1875 11.75 
Q 26.265625 6.109375 33.40625 6.109375 
Q 40.53125 6.109375 44.609375 11.75 
Q 48.6875 17.390625 48.6875 27.296875 
z
" id="DejaVuSans-70"/>
      <path d="M 18.3125 70.21875 
L 18.3125 54.6875 
L 36.8125 54.6875 
L 36.8125 47.703125 
L 18.3125 47.703125 
L 18.3125 18.015625 
Q 18.3125 11.328125 20.140625 9.421875 
Q 21.96875 7.515625 27.59375 7.515625 
L 36.8125 7.515625 
L 36.8125 0 
L 27.59375 0 
Q 17.1875 0 13.234375 3.875 
Q 9.28125 7.765625 9.28125 18.015625 
L 9.28125 47.703125 
L 2.6875 47.703125 
L 2.6875 54.6875 
L 9.28125 54.6875 
L 9.28125 70.21875 
z
" id="DejaVuSans-74"/>
      <path d="M 8.5 21.578125 
L 8.5 54.6875 
L 17.484375 54.6875 
L 17.484375 21.921875 
Q 17.484375 14.15625 20.5 10.265625 
Q 23.53125 6.390625 29.59375 6.390625 
Q 36.859375 6.390625 41.078125 11.03125 
Q 45.3125 15.671875 45.3125 23.6875 
L 45.3125 54.6875 
L 54.296875 54.6875 
L 54.296875 0 
L 45.3125 0 
L 45.3125 8.40625 
Q 42.046875 3.421875 37.71875 1 
Q 33.40625 -1.421875 27.6875 -1.421875 
Q 18.265625 -1.421875 13.375 4.4375 
Q 8.5 10.296875 8.5 21.578125 
z
M 31.109375 56 
z
" id="DejaVuSans-75"/>
      <path d="M 48.78125 52.59375 
L 48.78125 44.1875 
Q 44.96875 46.296875 41.140625 47.34375 
Q 37.3125 48.390625 33.40625 48.390625 
Q 24.65625 48.390625 19.8125 42.84375 
Q 14.984375 37.3125 14.984375 27.296875 
Q 14.984375 17.28125 19.8125 11.734375 
Q 24.65625 6.203125 33.40625 6.203125 
Q 37.3125 6.203125 41.140625 7.25 
Q 44.96875 8.296875 48.78125 10.40625 
L 48.78125 2.09375 
Q 45.015625 0.34375 40.984375 -0.53125 
Q 36.96875 -1.421875 32.421875 -1.421875 
Q 20.0625 -1.421875 12.78125 6.34375 
Q 5.515625 14.109375 5.515625 27.296875 
Q 5.515625 40.671875 12.859375 48.328125 
Q 20.21875 56 33.015625 56 
Q 37.15625 56 41.109375 55.140625 
Q 45.0625 54.296875 48.78125 52.59375 
z
" id="DejaVuSans-63"/>
      <path d="M 46 62.703125 
L 46 35.5 
L 73.1875 35.5 
L 73.1875 27.203125 
L 46 27.203125 
L 46 0 
L 37.796875 0 
L 37.796875 27.203125 
L 10.59375 27.203125 
L 10.59375 35.5 
L 37.796875 35.5 
L 37.796875 62.703125 
z
" id="DejaVuSans-2b"/>
     </defs>
     <g transform="translate(26.563638 323.17875)rotate(-90)scale(0.18 -0.18)">
      <use xlink:href="#DejaVuSans-50"/>
      <use x="60.287109" xlink:href="#DejaVuSans-72"/>
      <use x="101.369141" xlink:href="#DejaVuSans-6f"/>
      <use x="162.550781" xlink:href="#DejaVuSans-70"/>
      <use x="226.027344" xlink:href="#DejaVuSans-6f"/>
      <use x="287.208984" xlink:href="#DejaVuSans-72"/>
      <use x="328.322266" xlink:href="#DejaVuSans-74"/>
      <use x="367.53125" xlink:href="#DejaVuSans-69"/>
      <use x="395.314453" xlink:href="#DejaVuSans-6f"/>
      <use x="456.496094" xlink:href="#DejaVuSans-6e"/>
      <use x="519.875" xlink:href="#DejaVuSans-20"/>
      <use x="551.662109" xlink:href="#DejaVuSans-6f"/>
      <use x="612.84375" xlink:href="#DejaVuSans-66"/>
      <use x="648.048828" xlink:href="#DejaVuSans-20"/>
      <use x="679.835938" xlink:href="#DejaVuSans-66"/>
      <use x="715.041016" xlink:href="#DejaVuSans-75"/>
      <use x="778.419922" xlink:href="#DejaVuSans-6e"/>
      <use x="841.798828" xlink:href="#DejaVuSans-63"/>
      <use x="896.779297" xlink:href="#DejaVuSans-74"/>
      <use x="935.988281" xlink:href="#DejaVuSans-69"/>
      <use x="963.771484" xlink:href="#DejaVuSans-6f"/>
      <use x="1024.953125" xlink:href="#DejaVuSans-6e"/>
      <use x="1088.332031" xlink:href="#DejaVuSans-2b"/>
      <use x="1172.121094" xlink:href="#DejaVuSans-74"/>
      <use x="1211.330078" xlink:href="#DejaVuSans-61"/>
      <use x="1272.609375" xlink:href="#DejaVuSans-72"/>
      <use x="1313.707031" xlink:href="#DejaVuSans-67"/>
      <use x="1377.183594" xlink:href="#DejaVuSans-65"/>
      <use x="1438.707031" xlink:href="#DejaVuSans-74"/>
      <use x="1477.916016" xlink:href="#DejaVuSans-20"/>
      <use x="1509.703125" xlink:href="#DejaVuSans-70"/>
      <use x="1573.179688" xlink:href="#DejaVuSans-61"/>
      <use x="1634.458984" xlink:href="#DejaVuSans-69"/>
      <use x="1662.242188" xlink:href="#DejaVuSans-72"/>
      <use x="1703.355469" xlink:href="#DejaVuSans-73"/>
     </g>
    </g>
   </g>
   <g id="line2d_23">
    <defs>
     <path d="M 0 1.5 
C 0.397805 1.5 0.77937 1.341951 1.06066 1.06066 
C 1.341951 0.77937 1.5 0.397805 1.5 0 
C 1.5 -0.397805 1.341951 -0.77937 1.06066 -1.06066 
C 0.77937 -1.341951 0.397805 -1.5 0 -1.5 
C -0.397805 -1.5 -0.77937 -1.341951 -1.06066 -1.06066 
C -1.341951 -0.77937 -1.5 -0.397805 -1.5 0 
C -1.5 0.397805 -1.341951 0.77937 -1.06066 1.06066 
C -0.77937 1.341951 -0.397805 1.5 0 1.5 
z
" id="mc78cd2feb2" style="stroke:#00bfbf;"/>
    </defs>
    <g>
     <use style="fill:#00bfbf;stroke:#00bfbf;" x="267.487409" xlink:href="#mc78cd2feb2" y="205.253412"/>
     <use style="fill:#00bfbf;stroke:#00bfbf;" x="267.487409" xlink:href="#mc78cd2feb2" y="205.253412"/>
    </g>
   </g>
   <g id="line2d_24">
    <path d="M 60.728091 298.245375 
L 60.728091 292.562533 
L 73.113325 292.562533 
L 73.113325 291.529289 
L 89.485714 291.529289 
L 89.485714 289.979423 
L 105.128691 289.979423 
L 105.128691 286.879691 
L 112.373589 286.879691 
L 112.373589 284.296581 
L 114.256183 284.296581 
L 114.256183 283.263337 
L 119.618486 283.263337 
L 119.618486 282.230093 
L 120.895323 282.230093 
L 120.895323 281.713471 
L 123.73751 281.713471 
L 123.73751 281.196849 
L 124.758823 281.196849 
L 124.758823 279.646982 
L 129.899159 279.646982 
L 129.899159 279.13036 
L 135.316526 279.13036 
L 135.316526 278.613738 
L 136.122744 278.613738 
L 136.122744 278.097116 
L 137.633625 278.097116 
L 137.633625 276.030628 
L 138.574269 276.030628 
L 138.574269 274.997384 
L 139.248618 274.997384 
L 139.248618 272.414274 
L 140.318885 272.414274 
L 140.318885 271.897652 
L 142.284393 271.897652 
L 142.284393 271.38103 
L 142.652821 271.38103 
L 142.652821 270.347786 
L 144.388954 270.347786 
L 144.388954 268.281298 
L 146.566896 268.281298 
L 146.566896 266.731432 
L 148.376109 266.731432 
L 148.376109 266.21481 
L 149.279383 266.21481 
L 149.279383 265.181566 
L 149.404774 265.181566 
L 149.404774 264.148322 
L 150.612539 264.148322 
L 150.612539 263.6317 
L 150.728944 263.6317 
L 150.728944 262.598456 
L 151.961716 262.598456 
L 151.961716 262.081834 
L 152.495133 262.081834 
L 152.495133 261.04859 
L 153.516446 261.04859 
L 153.516446 260.015346 
L 153.811793 260.015346 
L 153.811793 259.498724 
L 154.576321 259.498724 
L 154.576321 258.46548 
L 154.854791 258.46548 
L 154.854791 257.948858 
L 155.038055 257.948858 
L 155.038055 257.432236 
L 155.84025 257.432236 
L 155.84025 256.915614 
L 156.013728 256.915614 
L 156.09984 254.849126 
L 156.938873 254.849126 
L 156.938873 254.332504 
L 157.896322 254.332504 
L 157.896322 251.749394 
L 163.22983 251.749394 
L 163.22983 251.232772 
L 165.951245 251.232772 
L 165.951245 250.71615 
L 166.867759 250.71615 
L 166.867759 248.649662 
L 212.192317 248.649662 
L 212.288801 245.549929 
L 212.314689 245.549929 
L 212.373721 243.483441 
L 212.436229 243.483441 
L 212.542358 239.350465 
L 212.549654 239.350465 
L 212.647861 237.283977 
L 212.885674 237.283977 
L 212.982056 234.184245 
L 213.024726 234.184245 
L 213.024726 233.151001 
L 213.306619 233.151001 
L 213.306619 232.117757 
L 213.421616 232.117757 
L 213.484032 231.084513 
L 213.549679 231.084513 
L 213.621957 227.984781 
L 224.575691 227.984781 
L 224.583132 226.951537 
L 224.711007 226.951537 
L 224.751587 225.918293 
L 224.931241 225.918293 
L 225.013134 224.368427 
L 225.103688 224.368427 
L 225.103688 223.851805 
L 225.267328 223.851805 
L 225.267328 223.335183 
L 231.937428 223.335183 
L 231.96575 221.785317 
L 232.06269 221.785317 
L 232.06269 221.268695 
L 232.309402 221.268695 
L 232.309402 220.752073 
L 237.138663 220.752073 
L 237.180066 218.685585 
L 237.309177 218.685585 
L 237.309177 218.168963 
L 240.97894 218.168963 
L 241.017534 216.102475 
L 241.242237 216.102475 
L 241.242237 215.585853 
L 244.220082 215.585853 
L 244.277624 214.552609 
L 244.351599 214.552609 
L 244.450983 211.969498 
L 247.159248 211.969498 
L 247.159248 211.452876 
L 251.512429 211.452876 
L 251.613919 210.419632 
L 255.169628 210.419632 
L 255.169628 209.386388 
L 256.652663 209.386388 
L 256.663167 207.836522 
L 259.444312 207.836522 
L 259.444312 207.3199 
L 260.605852 207.3199 
L 260.605852 206.803278 
L 264.878549 206.803278 
L 264.878549 206.286656 
L 265.791153 206.286656 
L 265.791153 205.770034 
L 267.487409 205.770034 
L 267.487409 205.253412 
L 361.113325 205.253412 
L 361.113325 205.253412 
" style="fill:none;stroke:#00bfbf;stroke-linecap:square;stroke-width:1.5;"/>
   </g>
   <g id="line2d_25">
    <defs>
     <path d="M -6 0 
L 6 0 
M 0 6 
L 0 -6 
" id="mf1e874cba2" style="stroke:#00bfbf;stroke-width:1.5;"/>
    </defs>
    <g>
     <use style="fill:none;stroke:#00bfbf;stroke-width:1.5;" x="124.758823" xlink:href="#mf1e874cba2" y="281.196849"/>
     <use style="fill:none;stroke:#00bfbf;stroke-width:1.5;" x="166.867759" xlink:href="#mf1e874cba2" y="250.71615"/>
     <use style="fill:none;stroke:#00bfbf;stroke-width:1.5;" x="232.309402" xlink:href="#mf1e874cba2" y="221.268695"/>
     <use style="fill:none;stroke:#00bfbf;stroke-width:1.5;" x="267.487409" xlink:href="#mf1e874cba2" y="205.770034"/>
     <use style="fill:none;stroke:#00bfbf;stroke-width:1.5;" x="267.487409" xlink:href="#mf1e874cba2" y="205.253412"/>
     <use style="fill:none;stroke:#00bfbf;stroke-width:1.5;" x="361.113325" xlink:href="#mf1e874cba2" y="205.253412"/>
    </g>
   </g>
   <g id="line2d_26"/>
   <g id="line2d_27">
    <path clip-path="url(#pe03fff6c3c)" d="M 212.188596 248.649662 
" style="fill:none;stroke:#00bfbf;stroke-linecap:square;stroke-width:1.5;"/>
    <defs>
     <path d="M -12 12 
L 12 -12 
M -12 -12 
L 12 12 
" id="m565ccf1ad4" style="stroke:#00bfbf;stroke-width:3;"/>
    </defs>
    <g clip-path="url(#pe03fff6c3c)">
     <use style="fill:#00bfbf;stroke:#00bfbf;stroke-width:3;" x="212.188596" xlink:href="#m565ccf1ad4" y="248.649662"/>
    </g>
   </g>
   <g id="line2d_28">
    <defs>
     <path d="M 0 1.5 
C 0.397805 1.5 0.77937 1.341951 1.06066 1.06066 
C 1.341951 0.77937 1.5 0.397805 1.5 0 
C 1.5 -0.397805 1.341951 -0.77937 1.06066 -1.06066 
C 0.77937 -1.341951 0.397805 -1.5 0 -1.5 
C -0.397805 -1.5 -0.77937 -1.341951 -1.06066 -1.06066 
C -1.341951 -0.77937 -1.5 -0.397805 -1.5 0 
C -1.5 0.397805 -1.341951 0.77937 -1.06066 1.06066 
C -0.77937 1.341951 -0.397805 1.5 0 1.5 
z
" id="m315f0a4858" style="stroke:#008000;"/>
    </defs>
    <g>
     <use style="fill:#008000;stroke:#008000;" x="286.523053" xlink:href="#m315f0a4858" y="200.087192"/>
     <use style="fill:#008000;stroke:#008000;" x="286.523053" xlink:href="#m315f0a4858" y="200.087192"/>
    </g>
   </g>
   <g id="line2d_29">
    <path d="M 53.483194 298.245375 
L 53.483194 286.879691 
L 65.868428 286.879691 
L 65.868428 283.779959 
L 73.113325 283.779959 
L 73.113325 282.230093 
L 78.253662 282.230093 
L 78.253662 281.196849 
L 88.252942 281.196849 
L 88.252942 280.680226 
L 99.314006 280.680226 
L 99.314006 280.163604 
L 105.128691 280.163604 
L 105.128691 279.13036 
L 121.50108 279.13036 
L 121.50108 276.54725 
L 125.086687 276.54725 
L 125.086687 275.514006 
L 125.724902 275.514006 
L 125.724902 274.997384 
L 126.341105 274.997384 
L 126.341105 274.480762 
L 129.649252 274.480762 
L 129.649252 273.447518 
L 131.098812 273.447518 
L 131.098812 272.930896 
L 132.43955 272.930896 
L 132.43955 272.414274 
L 135.768908 272.414274 
L 135.768908 271.897652 
L 136.122744 271.897652 
L 136.122744 271.38103 
L 137.308741 271.38103 
L 137.308741 270.864408 
L 137.793878 270.864408 
L 137.793878 270.347786 
L 139.898439 270.347786 
L 139.898439 269.831164 
L 140.456863 269.831164 
L 140.456863 269.314542 
L 141.393983 269.314542 
L 141.393983 268.79792 
L 141.781033 268.79792 
L 141.781033 268.281298 
L 142.034486 268.281298 
L 142.034486 267.248054 
L 142.159876 267.248054 
L 142.159876 266.731432 
L 142.530854 266.731432 
L 142.530854 265.181566 
L 144.824784 265.181566 
L 144.824784 264.664944 
L 145.038776 264.664944 
L 145.038776 263.6317 
L 146.172004 263.6317 
L 146.172004 262.598456 
L 146.566896 262.598456 
L 146.566896 262.081834 
L 147.237628 262.081834 
L 147.237628 261.565212 
L 149.110815 261.565212 
L 149.110815 261.04859 
L 151.0357 261.04859 
L 151.0357 260.531968 
L 151.187126 260.531968 
L 151.187126 257.948858 
L 151.411885 257.948858 
L 151.411885 256.915614 
L 153.182453 256.915614 
L 153.182453 256.398992 
L 155.098728 256.398992 
L 155.098728 255.88237 
L 156.09984 255.88237 
L 156.09984 255.365748 
L 156.270828 255.365748 
L 156.270828 253.815882 
L 156.718955 253.815882 
L 156.774188 252.782638 
L 158.60708 252.782638 
L 158.60708 252.266016 
L 158.854222 252.266016 
L 158.854222 251.749394 
L 159.856435 251.749394 
L 159.856435 251.232772 
L 162.841377 251.232772 
L 162.841377 250.71615 
L 162.997773 250.71615 
L 162.997773 250.199528 
L 163.152812 250.199528 
L 163.22983 249.166284 
L 165.089353 249.166284 
L 165.089353 248.13304 
L 165.295923 248.13304 
L 165.295923 247.616418 
L 166.930345 247.616418 
L 166.930345 247.099796 
L 169.568322 247.099796 
L 169.568322 246.066551 
L 170.741705 246.066551 
L 170.741705 245.549929 
L 171.091581 245.549929 
L 171.141009 243.483441 
L 171.913805 243.483441 
L 171.913805 242.966819 
L 174.25835 242.966819 
L 174.25835 241.933575 
L 175.441304 241.933575 
L 175.441304 241.416953 
L 179.424578 241.416953 
L 179.424578 240.900331 
L 212.298668 240.900331 
L 212.36021 239.350465 
L 212.4973 239.350465 
L 212.546007 237.800599 
L 212.746734 237.800599 
L 212.80196 236.767355 
L 212.890446 236.767355 
L 212.890446 236.250733 
L 213.056662 236.250733 
L 213.056662 235.734111 
L 213.291463 235.734111 
L 213.303123 234.184245 
L 213.437819 234.184245 
L 213.437819 233.151001 
L 213.553127 233.151001 
L 213.553127 232.634379 
L 213.679113 232.634379 
L 213.761098 230.567891 
L 213.822341 230.567891 
L 213.822341 230.051269 
L 224.968898 230.051269 
L 224.968898 229.534647 
L 225.196781 229.534647 
L 225.268522 227.468159 
L 225.430075 227.468159 
L 225.430075 226.951537 
L 225.547939 226.951537 
L 225.611263 225.918293 
L 225.680196 225.918293 
L 225.680196 225.401671 
L 225.946405 225.401671 
L 225.946405 224.885049 
L 232.236028 224.885049 
L 232.328703 223.851805 
L 232.393691 223.851805 
L 232.393691 223.335183 
L 232.516601 223.335183 
L 232.563467 222.301939 
L 237.278739 222.301939 
L 237.380808 220.752073 
L 237.452152 220.752073 
L 237.452152 219.718829 
L 241.171325 219.718829 
L 241.25346 218.168963 
L 241.316272 218.168963 
L 241.341529 217.135719 
L 244.460157 217.135719 
L 244.533788 216.102475 
L 247.206326 216.102475 
L 247.241249 215.069231 
L 249.561317 215.069231 
L 249.576019 214.035987 
L 251.619654 214.035987 
L 251.654844 213.002743 
L 253.459271 213.002743 
L 253.505033 211.969498 
L 255.15059 211.969498 
L 255.174105 209.90301 
L 258.137445 209.90301 
L 258.17173 208.869766 
L 259.432854 208.869766 
L 259.432854 208.353144 
L 260.659606 208.353144 
L 260.67853 206.803278 
L 262.902823 206.803278 
L 262.902823 206.286656 
L 263.919077 206.286656 
L 263.919077 205.770034 
L 264.865673 205.770034 
L 264.865673 204.73679 
L 265.780092 204.73679 
L 265.780092 204.220168 
L 266.661167 204.220168 
L 266.661167 203.703546 
L 267.509361 203.703546 
L 267.509361 203.186924 
L 269.037897 203.186924 
L 269.037897 202.670302 
L 269.754337 202.670302 
L 269.764725 201.637058 
L 270.46314 201.637058 
L 270.46314 201.120436 
L 273.58797 201.120436 
L 273.58797 200.603814 
L 286.523053 200.603814 
L 286.523053 200.087192 
L 361.113325 200.087192 
L 361.113325 200.087192 
" style="fill:none;stroke:#008000;stroke-linecap:square;stroke-width:1.5;"/>
   </g>
   <g id="line2d_30">
    <defs>
     <path d="M -0 6 
L 6 -6 
L -6 -6 
z
" id="me58de00c5e" style="stroke:#008000;stroke-linejoin:miter;stroke-width:1.5;"/>
    </defs>
    <g>
     <use style="fill:none;stroke:#008000;stroke-linejoin:miter;stroke-width:1.5;" x="140.456863" xlink:href="#me58de00c5e" y="269.314542"/>
     <use style="fill:none;stroke:#008000;stroke-linejoin:miter;stroke-width:1.5;" x="212.890446" xlink:href="#me58de00c5e" y="236.250733"/>
     <use style="fill:none;stroke:#008000;stroke-linejoin:miter;stroke-width:1.5;" x="258.137445" xlink:href="#me58de00c5e" y="209.386388"/>
     <use style="fill:none;stroke:#008000;stroke-linejoin:miter;stroke-width:1.5;" x="286.523053" xlink:href="#me58de00c5e" y="200.087192"/>
     <use style="fill:none;stroke:#008000;stroke-linejoin:miter;stroke-width:1.5;" x="286.523053" xlink:href="#me58de00c5e" y="200.087192"/>
     <use style="fill:none;stroke:#008000;stroke-linejoin:miter;stroke-width:1.5;" x="361.113325" xlink:href="#me58de00c5e" y="200.087192"/>
    </g>
   </g>
   <g id="line2d_31"/>
   <g id="line2d_32">
    <path clip-path="url(#pe03fff6c3c)" d="M 212.187355 240.900331 
" style="fill:none;stroke:#008000;stroke-linecap:square;stroke-width:1.5;"/>
    <defs>
     <path d="M -12 12 
L 12 -12 
M -12 -12 
L 12 12 
" id="mc113deb583" style="stroke:#008000;stroke-width:3;"/>
    </defs>
    <g clip-path="url(#pe03fff6c3c)">
     <use style="fill:#008000;stroke:#008000;stroke-width:3;" x="212.187355" xlink:href="#mc113deb583" y="240.900331"/>
    </g>
   </g>
   <g id="line2d_33">
    <defs>
     <path d="M 0 1.5 
C 0.397805 1.5 0.77937 1.341951 1.06066 1.06066 
C 1.341951 0.77937 1.5 0.397805 1.5 0 
C 1.5 -0.397805 1.341951 -0.77937 1.06066 -1.06066 
C 0.77937 -1.341951 0.397805 -1.5 0 -1.5 
C -0.397805 -1.5 -0.77937 -1.341951 -1.06066 -1.06066 
C -1.341951 -0.77937 -1.5 -0.397805 -1.5 0 
C -1.5 0.397805 -1.341951 0.77937 -1.06066 1.06066 
C -0.77937 1.341951 -0.397805 1.5 0 1.5 
z
" id="m5c07844369" style="stroke:#0000ff;"/>
    </defs>
    <g>
     <use style="fill:#0000ff;stroke:#0000ff;" x="287.070301" xlink:href="#m5c07844369" y="184.588532"/>
     <use style="fill:#0000ff;stroke:#0000ff;" x="287.070301" xlink:href="#m5c07844369" y="184.588532"/>
    </g>
   </g>
   <g id="line2d_34">
    <path d="M 44.355702 298.245375 
L 44.355702 291.529289 
L 56.740936 291.529289 
L 56.740936 290.496045 
L 63.985834 290.496045 
L 63.985834 287.396313 
L 69.126171 287.396313 
L 69.126171 286.879691 
L 79.12545 286.879691 
L 79.12545 286.363069 
L 87.201573 286.363069 
L 87.201573 284.813203 
L 101.870948 284.813203 
L 101.870948 284.296581 
L 111.561262 284.296581 
L 111.561262 283.779959 
L 113.52677 283.779959 
L 113.52677 283.263337 
L 117.513925 283.263337 
L 117.513925 281.713471 
L 117.809273 281.713471 
L 117.809273 280.680226 
L 124.758823 280.680226 
L 124.758823 280.163604 
L 128.825215 280.163604 
L 128.825215 279.646982 
L 129.598848 279.646982 
L 129.598848 279.13036 
L 130.047443 279.13036 
L 130.047443 278.613738 
L 133.64647 278.613738 
L 133.64647 278.097116 
L 133.766795 278.097116 
L 133.766795 277.580494 
L 133.886314 277.580494 
L 133.886314 276.54725 
L 134.24015 276.54725 
L 134.24015 275.514006 
L 134.587114 275.514006 
L 134.587114 274.997384 
L 135.261463 274.997384 
L 135.261463 274.480762 
L 136.640696 274.480762 
L 136.640696 273.96414 
L 139.115769 273.96414 
L 139.115769 273.447518 
L 140.4018 273.447518 
L 140.4018 272.414274 
L 140.810699 272.414274 
L 140.810699 271.897652 
L 141.908209 271.897652 
L 141.908209 271.38103 
L 142.579741 271.38103 
L 142.579741 270.864408 
L 146.625384 270.864408 
L 146.625384 270.347786 
L 147.536058 270.347786 
L 147.536058 268.79792 
L 148.507978 268.79792 
L 148.507978 268.281298 
L 148.664946 268.281298 
L 148.664946 267.248054 
L 150.163151 267.248054 
L 150.163151 266.731432 
L 152.326166 266.731432 
L 152.326166 266.21481 
L 153.396926 266.21481 
L 153.396926 265.181566 
L 153.909167 265.181566 
L 153.909167 264.664944 
L 156.270828 264.664944 
L 156.270828 263.6317 
L 158.143209 263.6317 
L 158.143209 263.115078 
L 159.097993 263.115078 
L 159.097993 262.598456 
L 159.500186 262.598456 
L 159.500186 262.081834 
L 160.223916 262.081834 
L 160.223916 261.565212 
L 161.257349 261.565212 
L 161.257349 260.531968 
L 163.390494 260.531968 
L 163.390494 260.015346 
L 164.172838 260.015346 
L 164.172838 259.498724 
L 164.859333 259.498724 
L 164.859333 258.982102 
L 166.040116 258.982102 
L 166.040116 257.948858 
L 167.908915 257.948858 
L 167.908915 257.432236 
L 212.202733 257.432236 
L 212.20422 256.398992 
L 212.365616 256.398992 
L 212.417132 254.332504 
L 212.532869 254.332504 
L 212.624631 252.266016 
L 212.659465 252.266016 
L 212.71737 250.71615 
L 212.839799 250.71615 
L 212.85845 248.13304 
L 212.951413 248.13304 
L 213.035378 246.066551 
L 213.08217 246.066551 
L 213.099154 245.033307 
L 213.207758 245.033307 
L 213.207758 244.516685 
L 213.488185 244.516685 
L 213.56278 242.966819 
L 214.152585 242.966819 
L 214.152585 242.450197 
L 224.580528 242.450197 
L 224.648851 240.900331 
L 224.710268 240.900331 
L 224.809714 239.350465 
L 224.839073 239.350465 
L 224.918833 235.734111 
L 224.958216 235.734111 
L 225.052672 231.601135 
L 225.183358 231.601135 
L 225.192707 230.051269 
L 225.305951 230.051269 
L 225.407119 229.018025 
L 231.92584 229.018025 
L 231.945067 227.468159 
L 232.043344 227.468159 
L 232.043344 226.951537 
L 232.163487 226.951537 
L 232.273156 224.885049 
L 232.28718 224.885049 
L 232.377827 223.851805 
L 237.095133 223.851805 
L 237.198987 220.752073 
L 237.262768 220.752073 
L 237.32778 219.718829 
L 241.083691 219.718829 
L 241.191209 217.135719 
L 241.354921 217.135719 
L 241.354921 216.619097 
L 244.33843 216.619097 
L 244.438621 212.48612 
L 244.449882 212.48612 
L 244.449882 211.452876 
L 247.011327 211.452876 
L 247.103116 209.386388 
L 247.133047 209.386388 
L 247.147993 207.836522 
L 247.250597 207.836522 
L 247.250597 207.3199 
L 249.43062 207.3199 
L 249.510075 204.73679 
L 249.600005 204.73679 
L 249.600005 204.220168 
L 251.525363 204.220168 
L 251.600147 200.603814 
L 253.455181 200.603814 
L 253.478525 199.57057 
L 255.065229 199.57057 
L 255.109757 198.020704 
L 256.651983 198.020704 
L 256.705801 195.954216 
L 258.1269 195.954216 
L 258.176347 193.887728 
L 259.402285 193.887728 
L 259.431407 192.854484 
L 261.820761 192.854484 
L 261.820761 192.337862 
L 263.879276 192.337862 
L 263.901948 190.787996 
L 264.868873 190.787996 
L 264.907 189.754752 
L 265.749928 189.754752 
L 265.749928 189.23813 
L 266.684944 189.23813 
L 266.684944 188.721508 
L 267.474832 188.721508 
L 267.474832 188.204886 
L 269.76148 188.204886 
L 269.784555 187.171642 
L 271.780045 187.171642 
L 271.780045 186.65502 
L 276.762749 186.65502 
L 276.762749 186.138398 
L 279.0036 186.138398 
L 279.0036 185.621776 
L 283.154975 185.621776 
L 283.154975 185.105154 
L 287.070301 185.105154 
L 287.070301 184.588532 
L 361.113325 184.588532 
L 361.113325 184.588532 
" style="fill:none;stroke:#0000ff;stroke-linecap:square;stroke-width:1.5;"/>
   </g>
   <g id="line2d_35">
    <defs>
     <path d="M 0 -6 
L -1.347084 -1.854102 
L -5.706339 -1.854102 
L -2.179628 0.708204 
L -3.526712 4.854102 
L -0 2.291796 
L 3.526712 4.854102 
L 2.179628 0.708204 
L 5.706339 -1.854102 
L 1.347084 -1.854102 
z
" id="m2ee7d9da4a" style="stroke:#0000ff;stroke-linejoin:bevel;stroke-width:1.5;"/>
    </defs>
    <g>
     <use style="fill:none;stroke:#0000ff;stroke-linejoin:bevel;stroke-width:1.5;" x="134.587114" xlink:href="#m2ee7d9da4a" y="274.997384"/>
     <use style="fill:none;stroke:#0000ff;stroke-linejoin:bevel;stroke-width:1.5;" x="167.908915" xlink:href="#m2ee7d9da4a" y="257.432236"/>
     <use style="fill:none;stroke:#0000ff;stroke-linejoin:bevel;stroke-width:1.5;" x="244.438621" xlink:href="#m2ee7d9da4a" y="214.035987"/>
     <use style="fill:none;stroke:#0000ff;stroke-linejoin:bevel;stroke-width:1.5;" x="287.070301" xlink:href="#m2ee7d9da4a" y="185.105154"/>
     <use style="fill:none;stroke:#0000ff;stroke-linejoin:bevel;stroke-width:1.5;" x="287.070301" xlink:href="#m2ee7d9da4a" y="184.588532"/>
     <use style="fill:none;stroke:#0000ff;stroke-linejoin:bevel;stroke-width:1.5;" x="361.113325" xlink:href="#m2ee7d9da4a" y="184.588532"/>
    </g>
   </g>
   <g id="line2d_36"/>
   <g id="line2d_37">
    <path clip-path="url(#pe03fff6c3c)" d="M 212.186363 257.432236 
" style="fill:none;stroke:#0000ff;stroke-linecap:square;stroke-width:1.5;"/>
    <defs>
     <path d="M -12 12 
L 12 -12 
M -12 -12 
L 12 12 
" id="m0be03702a4" style="stroke:#0000ff;stroke-width:3;"/>
    </defs>
    <g clip-path="url(#pe03fff6c3c)">
     <use style="fill:#0000ff;stroke:#0000ff;stroke-width:3;" x="212.186363" xlink:href="#m0be03702a4" y="257.432236"/>
    </g>
   </g>
   <g id="line2d_38">
    <defs>
     <path d="M 0 1.5 
C 0.397805 1.5 0.77937 1.341951 1.06066 1.06066 
C 1.341951 0.77937 1.5 0.397805 1.5 0 
C 1.5 -0.397805 1.341951 -0.77937 1.06066 -1.06066 
C 0.77937 -1.341951 0.397805 -1.5 0 -1.5 
C -0.397805 -1.5 -0.77937 -1.341951 -1.06066 -1.06066 
C -1.341951 -0.77937 -1.5 -0.397805 -1.5 0 
C -1.5 0.397805 -1.341951 0.77937 -1.06066 1.06066 
C -0.77937 1.341951 -0.397805 1.5 0 1.5 
z
" id="m3617e8e871" style="stroke:#000000;"/>
    </defs>
    <g>
     <use style="stroke:#000000;" x="282.459688" xlink:href="#m3617e8e871" y="215.585853"/>
     <use style="stroke:#000000;" x="282.459688" xlink:href="#m3617e8e871" y="215.585853"/>
    </g>
   </g>
   <g id="line2d_39">
    <path d="M 31.970468 298.245375 
L 31.970468 289.979423 
L 44.355702 289.979423 
L 44.355702 289.462801 
L 56.740936 289.462801 
L 56.740936 288.946179 
L 60.728091 288.946179 
L 60.728091 288.429557 
L 63.985834 288.429557 
L 63.985834 287.912935 
L 90.186515 287.912935 
L 90.186515 287.396313 
L 92.1377 287.396313 
L 92.1377 286.879691 
L 96.967279 286.879691 
L 96.967279 286.363069 
L 104.212177 286.363069 
L 104.212177 285.329825 
L 109.586087 285.329825 
L 109.586087 284.813203 
L 118.667107 284.813203 
L 118.667107 284.296581 
L 120.395483 284.296581 
L 120.395483 283.263337 
L 122.76559 283.263337 
L 122.76559 282.746715 
L 123.946496 282.746715 
L 123.946496 282.230093 
L 126.097168 282.230093 
L 126.097168 281.713471 
L 126.280432 281.713471 
L 126.280432 280.680226 
L 127.082627 280.680226 
L 127.082627 279.646982 
L 129.446778 279.646982 
L 129.446778 278.613738 
L 129.598848 278.613738 
L 129.598848 278.097116 
L 129.749634 278.097116 
L 129.749634 277.063872 
L 132.135589 277.063872 
L 132.135589 276.54725 
L 134.24015 276.54725 
L 134.24015 276.030628 
L 135.261463 276.030628 
L 135.261463 275.514006 
L 135.535099 275.514006 
L 135.535099 274.997384 
L 136.742509 274.997384 
L 136.742509 273.96414 
L 137.633625 273.96414 
L 137.633625 272.930896 
L 138.39006 272.930896 
L 138.39006 271.897652 
L 138.574269 271.897652 
L 138.574269 271.38103 
L 138.981924 271.38103 
L 138.981924 270.347786 
L 139.898439 270.347786 
L 139.898439 269.314542 
L 140.151892 269.314542 
L 140.151892 268.79792 
L 141.289338 268.79792 
L 141.289338 268.281298 
L 142.834225 268.281298 
L 142.834225 267.248054 
L 143.783197 267.248054 
L 143.783197 266.731432 
L 144.155816 266.731432 
L 144.155816 266.21481 
L 144.355835 266.21481 
L 144.355835 265.698188 
L 145.134242 265.698188 
L 145.134242 265.181566 
L 146.625384 265.181566 
L 146.625384 264.664944 
L 146.943691 264.664944 
L 146.943691 263.6317 
L 147.86594 263.6317 
L 147.86594 263.115078 
L 149.076909 263.115078 
L 149.076909 262.598456 
L 149.203724 262.598456 
L 149.203724 262.081834 
L 150.821525 262.081834 
L 150.821525 261.565212 
L 155.345355 261.565212 
L 155.345355 260.531968 
L 156.202629 260.531968 
L 156.202629 260.015346 
L 158.790293 260.015346 
L 158.790293 259.498724 
L 160.386848 259.498724 
L 160.386848 258.982102 
L 160.601805 258.982102 
L 160.601805 257.948858 
L 161.024114 257.948858 
L 161.115179 256.398992 
L 162.524418 256.398992 
L 162.524418 255.88237 
L 163.183659 255.88237 
L 163.183659 255.365748 
L 163.707554 255.365748 
L 163.707554 254.332504 
L 164.303581 254.332504 
L 164.303581 253.29926 
L 168.355751 253.29926 
L 168.355751 252.782638 
L 195.272073 252.782638 
L 195.272073 252.266016 
L 212.428886 252.266016 
L 212.531409 250.71615 
L 212.551113 250.71615 
L 212.551113 250.199528 
L 212.667438 250.199528 
L 212.731095 249.166284 
L 212.915715 249.166284 
L 213.006248 248.13304 
L 213.301024 248.13304 
L 213.37083 247.099796 
L 213.429951 247.099796 
L 213.429951 246.583173 
L 213.660386 246.583173 
L 213.660386 246.066551 
L 224.713961 246.066551 
L 224.713961 245.549929 
L 224.83027 245.549929 
L 224.83027 245.033307 
L 225.015313 245.033307 
L 225.106578 242.450197 
L 225.323447 242.450197 
L 225.323447 241.933575 
L 231.999432 241.933575 
L 231.999432 241.416953 
L 232.113282 241.416953 
L 232.12987 239.867087 
L 232.320985 239.867087 
L 232.333766 238.833843 
L 237.094025 238.833843 
L 237.192193 236.767355 
L 237.20633 236.767355 
L 237.20633 236.250733 
L 241.022426 236.250733 
L 241.055452 235.217489 
L 241.171962 235.217489 
L 241.171962 234.700867 
L 244.368202 234.700867 
L 244.414484 233.667623 
L 247.034318 233.667623 
L 247.098791 231.601135 
L 249.406529 231.601135 
L 249.411535 230.051269 
L 251.508308 230.051269 
L 251.508308 229.534647 
L 253.383778 229.534647 
L 253.384669 227.984781 
L 255.081771 227.984781 
L 255.081771 227.468159 
L 258.137312 227.468159 
L 258.137312 226.951537 
L 259.377891 226.951537 
L 259.380757 224.885049 
L 260.60818 224.885049 
L 260.60818 223.851805 
L 261.789445 223.851805 
L 261.789445 223.335183 
L 263.881049 223.335183 
L 263.881049 222.818561 
L 264.826792 222.818561 
L 264.826792 222.301939 
L 265.739821 222.301939 
L 265.739821 221.785317 
L 266.612279 221.785317 
L 266.612279 221.268695 
L 267.442287 221.268695 
L 267.442287 220.752073 
L 268.235058 220.752073 
L 268.250083 219.718829 
L 268.994516 219.718829 
L 269.013403 218.685585 
L 275.21132 218.685585 
L 275.21132 218.168963 
L 276.230861 218.168963 
L 276.230861 217.652341 
L 276.721123 217.652341 
L 276.721123 217.135719 
L 278.121431 217.135719 
L 278.121431 216.619097 
L 278.994716 216.619097 
L 278.994716 216.102475 
L 282.459688 216.102475 
L 282.459688 215.585853 
L 361.113325 215.585853 
L 361.113325 215.585853 
" style="fill:none;stroke:#000000;stroke-linecap:square;stroke-width:1.5;"/>
   </g>
   <g id="line2d_40">
    <defs>
     <path d="M 0 6 
C 1.591219 6 3.117479 5.367802 4.242641 4.242641 
C 5.367802 3.117479 6 1.591219 6 0 
C 6 -1.591219 5.367802 -3.117479 4.242641 -4.242641 
C 3.117479 -5.367802 1.591219 -6 0 -6 
C -1.591219 -6 -3.117479 -5.367802 -4.242641 -4.242641 
C -5.367802 -3.117479 -6 -1.591219 -6 0 
C -6 1.591219 -5.367802 3.117479 -4.242641 4.242641 
C -3.117479 5.367802 -1.591219 6 0 6 
z
" id="m07afc3f19e" style="stroke:#000000;stroke-width:1.5;"/>
    </defs>
    <g>
     <use style="fill:none;stroke:#000000;stroke-width:1.5;" x="129.749634" xlink:href="#m07afc3f19e" y="278.097116"/>
     <use style="fill:none;stroke:#000000;stroke-width:1.5;" x="195.272073" xlink:href="#m07afc3f19e" y="252.266016"/>
     <use style="fill:none;stroke:#000000;stroke-width:1.5;" x="259.380757" xlink:href="#m07afc3f19e" y="224.885049"/>
     <use style="fill:none;stroke:#000000;stroke-width:1.5;" x="282.459688" xlink:href="#m07afc3f19e" y="215.585853"/>
     <use style="fill:none;stroke:#000000;stroke-width:1.5;" x="282.459688" xlink:href="#m07afc3f19e" y="215.585853"/>
     <use style="fill:none;stroke:#000000;stroke-width:1.5;" x="361.113325" xlink:href="#m07afc3f19e" y="215.585853"/>
    </g>
   </g>
   <g id="line2d_41"/>
   <g id="line2d_42">
    <path clip-path="url(#pe03fff6c3c)" d="M 212.185618 252.266016 
" style="fill:none;stroke:#000000;stroke-linecap:square;stroke-width:1.5;"/>
    <defs>
     <path d="M -12 12 
L 12 -12 
M -12 -12 
L 12 12 
" id="m947e404f3b" style="stroke:#000000;stroke-width:3;"/>
    </defs>
    <g clip-path="url(#pe03fff6c3c)">
     <use style="stroke:#000000;stroke-width:3;" x="212.185618" xlink:href="#m947e404f3b" y="252.266016"/>
    </g>
   </g>
   <g id="line2d_43">
    <defs>
     <path d="M 0 1.5 
C 0.397805 1.5 0.77937 1.341951 1.06066 1.06066 
C 1.341951 0.77937 1.5 0.397805 1.5 0 
C 1.5 -0.397805 1.341951 -0.77937 1.06066 -1.06066 
C 0.77937 -1.341951 0.397805 -1.5 0 -1.5 
C -0.397805 -1.5 -0.77937 -1.341951 -1.06066 -1.06066 
C -1.341951 -0.77937 -1.5 -0.397805 -1.5 0 
C -1.5 0.397805 -1.341951 0.77937 -1.06066 1.06066 
C -0.77937 1.341951 -0.397805 1.5 0 1.5 
z
" id="m948a4e39bb" style="stroke:#ff0000;"/>
    </defs>
    <g>
     <use style="fill:#ff0000;stroke:#ff0000;" x="283.145211" xlink:href="#m948a4e39bb" y="236.250733"/>
     <use style="fill:#ff0000;stroke:#ff0000;" x="283.145211" xlink:href="#m948a4e39bb" y="236.250733"/>
    </g>
   </g>
   <g id="line2d_44">
    <path d="M 19.585234 298.245375 
L 19.585234 294.112399 
L 31.970468 294.112399 
L 31.970468 293.079155 
L 39.215366 293.079155 
L 39.215366 292.045911 
L 51.6006 292.045911 
L 51.6006 291.529289 
L 78.475629 291.529289 
L 78.475629 291.012667 
L 90.860863 291.012667 
L 90.860863 289.462801 
L 94.979887 289.462801 
L 94.979887 288.946179 
L 102.224784 288.946179 
L 102.224784 287.912935 
L 104.67631 287.912935 
L 104.67631 287.396313 
L 106.281873 287.396313 
L 106.281873 286.363069 
L 109.352513 286.363069 
L 109.352513 285.329825 
L 115.631331 285.329825 
L 115.631331 284.296581 
L 116.439981 284.296581 
L 116.439981 283.263337 
L 123.73751 283.263337 
L 123.73751 282.230093 
L 129.293402 282.230093 
L 129.293402 281.713471 
L 132.589613 281.713471 
L 132.589613 281.196849 
L 133.37274 281.196849 
L 133.37274 280.680226 
L 135.589327 280.680226 
L 135.589327 279.646982 
L 137.069451 279.646982 
L 137.069451 278.613738 
L 138.665666 278.613738 
L 138.665666 277.580494 
L 139.292682 277.580494 
L 139.292682 276.54725 
L 142.432677 276.54725 
L 142.432677 276.030628 
L 148.082526 276.030628 
L 148.082526 274.997384 
L 149.013163 274.997384 
L 149.013163 273.96414 
L 154.131134 273.96414 
L 154.131134 273.447518 
L 155.970516 273.447518 
L 156.065445 272.414274 
L 163.481659 272.414274 
L 163.481659 271.38103 
L 170.54376 271.38103 
L 170.54376 270.347786 
L 212.357138 270.347786 
L 212.400957 269.314542 
L 212.541994 269.314542 
L 212.567517 268.281298 
L 212.672872 268.281298 
L 212.714118 264.664944 
L 212.865618 264.664944 
L 212.937856 263.6317 
L 213.131664 263.6317 
L 213.131664 262.598456 
L 213.8435 262.598456 
L 213.8435 262.081834 
L 224.703434 262.081834 
L 224.762638 259.498724 
L 224.828986 259.498724 
L 224.913904 256.915614 
L 224.950747 256.915614 
L 225.049954 255.88237 
L 225.146271 255.88237 
L 225.146271 255.365748 
L 231.919303 255.365748 
L 231.919303 254.849126 
L 232.071132 254.849126 
L 232.071132 254.332504 
L 237.033715 254.332504 
L 237.085435 253.29926 
L 237.384927 253.29926 
L 237.384927 251.749394 
L 241.070243 251.749394 
L 241.175416 250.199528 
L 241.28706 250.199528 
L 241.28706 249.682906 
L 244.272496 249.682906 
L 244.36187 247.616418 
L 244.394611 247.616418 
L 244.394611 247.099796 
L 251.575076 247.099796 
L 251.575076 246.583173 
L 253.397318 246.583173 
L 253.444755 244.000063 
L 256.649788 244.000063 
L 256.649788 243.483441 
L 258.149225 243.483441 
L 258.149225 242.966819 
L 260.624173 242.966819 
L 260.637679 241.933575 
L 262.85459 241.933575 
L 262.878141 240.900331 
L 263.873624 240.900331 
L 263.927019 239.867087 
L 264.847904 239.867087 
L 264.847904 239.350465 
L 271.111602 239.350465 
L 271.111602 238.833843 
L 274.165635 238.833843 
L 274.165635 238.317221 
L 278.122853 238.317221 
L 278.122853 237.800599 
L 279.413394 237.800599 
L 279.418002 236.767355 
L 283.145211 236.767355 
L 283.145211 236.250733 
L 361.113325 236.250733 
L 361.113325 236.250733 
" style="fill:none;stroke:#ff0000;stroke-linecap:square;stroke-width:1.5;"/>
   </g>
   <g id="line2d_45">
    <defs>
     <path d="M -6 6 
L 6 6 
L 6 -6 
L -6 -6 
z
" id="m13b18b0d61" style="stroke:#ff0000;stroke-linejoin:miter;stroke-width:1.5;"/>
    </defs>
    <g>
     <use style="fill:none;stroke:#ff0000;stroke-linejoin:miter;stroke-width:1.5;" x="78.475629" xlink:href="#m13b18b0d61" y="291.012667"/>
     <use style="fill:none;stroke:#ff0000;stroke-linejoin:miter;stroke-width:1.5;" x="137.069451" xlink:href="#m13b18b0d61" y="279.646982"/>
     <use style="fill:none;stroke:#ff0000;stroke-linejoin:miter;stroke-width:1.5;" x="225.146271" xlink:href="#m13b18b0d61" y="255.88237"/>
     <use style="fill:none;stroke:#ff0000;stroke-linejoin:miter;stroke-width:1.5;" x="283.145211" xlink:href="#m13b18b0d61" y="236.767355"/>
     <use style="fill:none;stroke:#ff0000;stroke-linejoin:miter;stroke-width:1.5;" x="283.145211" xlink:href="#m13b18b0d61" y="236.250733"/>
     <use style="fill:none;stroke:#ff0000;stroke-linejoin:miter;stroke-width:1.5;" x="361.113325" xlink:href="#m13b18b0d61" y="236.250733"/>
    </g>
   </g>
   <g id="line2d_46"/>
   <g id="line2d_47">
    <path clip-path="url(#pe03fff6c3c)" d="M 212.185246 270.347786 
" style="fill:none;stroke:#ff0000;stroke-linecap:square;stroke-width:1.5;"/>
    <defs>
     <path d="M -12 12 
L 12 -12 
M -12 -12 
L 12 12 
" id="m9aa004c37d" style="stroke:#ff0000;stroke-width:3;"/>
    </defs>
    <g clip-path="url(#pe03fff6c3c)">
     <use style="fill:#ff0000;stroke:#ff0000;stroke-width:3;" x="212.185246" xlink:href="#m9aa004c37d" y="270.347786"/>
    </g>
   </g>
   <g id="line2d_48">
    <defs>
     <path d="M 0 1.5 
C 0.397805 1.5 0.77937 1.341951 1.06066 1.06066 
C 1.341951 0.77937 1.5 0.397805 1.5 0 
C 1.5 -0.397805 1.341951 -0.77937 1.06066 -1.06066 
C 0.77937 -1.341951 0.397805 -1.5 0 -1.5 
C -0.397805 -1.5 -0.77937 -1.341951 -1.06066 -1.06066 
C -1.341951 -0.77937 -1.5 -0.397805 -1.5 0 
C -1.5 0.397805 -1.341951 0.77937 -1.06066 1.06066 
C -0.77937 1.341951 -0.397805 1.5 0 1.5 
z
" id="mff38fdb976" style="stroke:#bf00bf;"/>
    </defs>
    <g>
     <use style="fill:#bf00bf;stroke:#bf00bf;" x="280.620809" xlink:href="#mff38fdb976" y="256.915614"/>
     <use style="fill:#bf00bf;stroke:#bf00bf;" x="280.620809" xlink:href="#mff38fdb976" y="256.915614"/>
    </g>
   </g>
   <g id="line2d_49">
    <path d="M 7.2 298.245375 
L 7.2 293.079155 
L 19.585234 293.079155 
L 19.585234 291.012667 
L 55.587755 291.012667 
L 55.587755 290.496045 
L 70.209418 290.496045 
L 70.209418 289.979423 
L 74.816339 289.979423 
L 74.816339 289.462801 
L 82.855505 289.462801 
L 82.855505 288.946179 
L 87.995842 288.946179 
L 87.995842 288.429557 
L 89.663508 288.429557 
L 89.663508 287.912935 
L 91.669513 287.912935 
L 91.669513 287.396313 
L 96.24766 287.396313 
L 96.24766 286.879691 
L 106.558903 286.879691 
L 106.558903 286.363069 
L 113.480178 286.363069 
L 113.480178 285.846447 
L 115.212855 285.846447 
L 115.212855 284.296581 
L 117.991416 284.296581 
L 117.991416 283.779959 
L 120.584565 283.779959 
L 120.584565 282.746715 
L 122.793314 282.746715 
L 122.793314 282.230093 
L 131.737027 282.230093 
L 131.737027 281.713471 
L 132.20116 281.713471 
L 132.20116 281.196849 
L 134.414474 281.196849 
L 134.414474 280.163604 
L 141.091461 280.163604 
L 141.091461 279.646982 
L 144.28941 279.646982 
L 144.28941 279.13036 
L 144.830165 279.13036 
L 144.830165 277.063872 
L 147.347788 277.063872 
L 147.347788 276.54725 
L 148.149675 276.54725 
L 148.149675 275.514006 
L 148.968405 275.514006 
L 148.968405 274.480762 
L 152.198384 274.480762 
L 152.198384 273.96414 
L 157.061397 273.96414 
L 157.061397 273.447518 
L 157.649915 273.447518 
L 157.649915 272.930896 
L 165.221317 272.930896 
L 165.221317 272.414274 
L 212.529766 272.414274 
L 212.529766 271.897652 
L 212.703635 271.897652 
L 212.703635 270.864408 
L 212.858092 270.864408 
L 212.858092 270.347786 
L 214.118041 270.347786 
L 214.118041 269.831164 
L 224.846863 269.831164 
L 224.846863 269.314542 
L 224.909978 269.314542 
L 224.909978 268.281298 
L 231.987515 268.281298 
L 231.987515 267.764676 
L 232.000046 267.764676 
L 232.000046 267.248054 
L 232.094479 267.248054 
L 232.094479 266.731432 
L 232.240108 266.731432 
L 232.240108 266.21481 
L 237.242541 266.21481 
L 237.242541 265.698188 
L 241.110779 265.698188 
L 241.110779 265.181566 
L 244.293092 265.181566 
L 244.293092 264.664944 
L 244.314373 264.664944 
L 244.314373 264.148322 
L 244.392279 264.148322 
L 244.392279 263.6317 
L 249.484845 263.6317 
L 249.484845 263.115078 
L 249.501292 263.115078 
L 249.501292 262.598456 
L 255.093173 262.598456 
L 255.093173 262.081834 
L 255.135833 262.081834 
L 255.135833 261.565212 
L 256.632053 261.565212 
L 256.632053 261.04859 
L 256.642724 261.04859 
L 256.642724 260.531968 
L 256.681844 260.531968 
L 256.681844 258.982102 
L 258.104676 258.982102 
L 258.104676 258.46548 
L 259.388965 258.46548 
L 259.388965 257.948858 
L 277.675654 257.948858 
L 277.675654 257.432236 
L 280.620809 257.432236 
L 280.620809 256.915614 
L 361.113325 256.915614 
" style="fill:none;stroke:#bf00bf;stroke-linecap:square;stroke-width:1.5;"/>
   </g>
   <g id="line2d_50">
    <defs>
     <path d="M -0 8.485281 
L 8.485281 0 
L 0 -8.485281 
L -8.485281 -0 
z
" id="me3b8382bcd" style="stroke:#bf00bf;stroke-linejoin:miter;stroke-width:1.5;"/>
    </defs>
    <g>
     <use style="fill:none;stroke:#bf00bf;stroke-linejoin:miter;stroke-width:1.5;" x="19.585234" xlink:href="#me3b8382bcd" y="291.012667"/>
     <use style="fill:none;stroke:#bf00bf;stroke-linejoin:miter;stroke-width:1.5;" x="115.212855" xlink:href="#me3b8382bcd" y="285.846447"/>
     <use style="fill:none;stroke:#bf00bf;stroke-linejoin:miter;stroke-width:1.5;" x="165.221317" xlink:href="#me3b8382bcd" y="272.414274"/>
     <use style="fill:none;stroke:#bf00bf;stroke-linejoin:miter;stroke-width:1.5;" x="277.675654" xlink:href="#me3b8382bcd" y="257.948858"/>
     <use style="fill:none;stroke:#bf00bf;stroke-linejoin:miter;stroke-width:1.5;" x="280.620809" xlink:href="#me3b8382bcd" y="256.915614"/>
     <use style="fill:none;stroke:#bf00bf;stroke-linejoin:miter;stroke-width:1.5;" x="361.113325" xlink:href="#me3b8382bcd" y="256.915614"/>
    </g>
   </g>
   <g id="line2d_51"/>
   <g id="line2d_52">
    <path clip-path="url(#pe03fff6c3c)" d="M 212.18506 272.414274 
" style="fill:none;stroke:#bf00bf;stroke-linecap:square;stroke-width:1.5;"/>
    <defs>
     <path d="M -12 12 
L 12 -12 
M -12 -12 
L 12 12 
" id="md4fa697342" style="stroke:#bf00bf;stroke-width:3;"/>
    </defs>
    <g clip-path="url(#pe03fff6c3c)">
     <use style="fill:#bf00bf;stroke:#bf00bf;stroke-width:3;" x="212.18506" xlink:href="#md4fa697342" y="272.414274"/>
    </g>
   </g>
   <g id="line2d_53">
    <path d="M 361.113325 256.915614 
L 392.793325 292.97583 
" style="fill:none;stroke:#bf00bf;stroke-linecap:square;stroke-width:1.5;"/>
    <g>
     <use style="fill:none;stroke:#bf00bf;stroke-linejoin:miter;stroke-width:1.5;" x="361.113325" xlink:href="#me3b8382bcd" y="256.915614"/>
     <use style="fill:none;stroke:#bf00bf;stroke-linejoin:miter;stroke-width:1.5;" x="392.793325" xlink:href="#me3b8382bcd" y="292.97583"/>
    </g>
   </g>
   <g id="line2d_54">
    <path d="M 361.113325 236.250733 
L 392.793325 242.388203 
" style="fill:none;stroke:#ff0000;stroke-linecap:square;stroke-width:1.5;"/>
    <g>
     <use style="fill:none;stroke:#ff0000;stroke-linejoin:miter;stroke-width:1.5;" x="361.113325" xlink:href="#m13b18b0d61" y="236.250733"/>
     <use style="fill:none;stroke:#ff0000;stroke-linejoin:miter;stroke-width:1.5;" x="392.793325" xlink:href="#m13b18b0d61" y="242.388203"/>
    </g>
   </g>
   <g id="line2d_55">
    <path d="M 361.113325 215.585853 
L 392.793325 191.800575 
" style="fill:none;stroke:#000000;stroke-linecap:square;stroke-width:1.5;"/>
    <g>
     <use style="fill:none;stroke:#000000;stroke-width:1.5;" x="361.113325" xlink:href="#m07afc3f19e" y="215.585853"/>
     <use style="fill:none;stroke:#000000;stroke-width:1.5;" x="392.793325" xlink:href="#m07afc3f19e" y="191.800575"/>
    </g>
   </g>
   <g id="line2d_56">
    <path d="M 361.113325 205.253412 
L 392.793325 141.212947 
" style="fill:none;stroke:#00bfbf;stroke-linecap:square;stroke-width:1.5;"/>
    <g>
     <use style="fill:none;stroke:#00bfbf;stroke-width:1.5;" x="361.113325" xlink:href="#mf1e874cba2" y="205.253412"/>
     <use style="fill:none;stroke:#00bfbf;stroke-width:1.5;" x="392.793325" xlink:href="#mf1e874cba2" y="141.212947"/>
    </g>
   </g>
   <g id="line2d_57">
    <path d="M 361.113325 200.087192 
L 392.793325 90.62532 
" style="fill:none;stroke:#008000;stroke-linecap:square;stroke-width:1.5;"/>
    <g>
     <use style="fill:none;stroke:#008000;stroke-linejoin:miter;stroke-width:1.5;" x="361.113325" xlink:href="#me58de00c5e" y="200.087192"/>
     <use style="fill:none;stroke:#008000;stroke-linejoin:miter;stroke-width:1.5;" x="392.793325" xlink:href="#me58de00c5e" y="90.62532"/>
    </g>
   </g>
   <g id="line2d_58">
    <path d="M 361.113325 184.588532 
L 392.793325 40.037692 
" style="fill:none;stroke:#0000ff;stroke-linecap:square;stroke-width:1.5;"/>
    <g>
     <use style="fill:none;stroke:#0000ff;stroke-linejoin:bevel;stroke-width:1.5;" x="361.113325" xlink:href="#m2ee7d9da4a" y="184.588532"/>
     <use style="fill:none;stroke:#0000ff;stroke-linejoin:bevel;stroke-width:1.5;" x="392.793325" xlink:href="#m2ee7d9da4a" y="40.037692"/>
    </g>
   </g>
   <g id="line2d_59">
    <path d="M 361.113325 298.245375 
L 361.113325 34.768147 
" style="fill:none;stroke:#000000;stroke-linecap:square;stroke-width:1.5;"/>
   </g>
   <g id="patch_3">
    <path d="M 73.113325 298.245375 
L 73.113325 32.133375 
" style="fill:none;stroke:#000000;stroke-linecap:square;stroke-linejoin:miter;stroke-width:0.8;"/>
   </g>
   <g id="patch_4">
    <path d="M 430.233325 298.245375 
L 430.233325 32.133375 
" style="fill:none;stroke:#000000;stroke-linecap:square;stroke-linejoin:miter;stroke-width:0.8;"/>
   </g>
   <g id="patch_5">
    <path d="M 73.113325 298.245375 
L 430.233325 298.245375 
" style="fill:none;stroke:#000000;stroke-linecap:square;stroke-linejoin:miter;stroke-width:0.8;"/>
   </g>
   <g id="patch_6">
    <path d="M 73.113325 32.133375 
L 430.233325 32.133375 
" style="fill:none;stroke:#000000;stroke-linecap:square;stroke-linejoin:miter;stroke-width:0.8;"/>
   </g>
   <g id="text_14">
    <!-- 40-D -->
    <defs>
     <path d="M 19.671875 64.796875 
L 19.671875 8.109375 
L 31.59375 8.109375 
Q 46.6875 8.109375 53.6875 14.9375 
Q 60.6875 21.78125 60.6875 36.53125 
Q 60.6875 51.171875 53.6875 57.984375 
Q 46.6875 64.796875 31.59375 64.796875 
z
M 9.8125 72.90625 
L 30.078125 72.90625 
Q 51.265625 72.90625 61.171875 64.09375 
Q 71.09375 55.28125 71.09375 36.53125 
Q 71.09375 17.671875 61.125 8.828125 
Q 51.171875 0 30.078125 0 
L 9.8125 0 
z
" id="DejaVuSans-44"/>
    </defs>
    <g transform="translate(398.553325 297.114893)scale(0.15 -0.15)">
     <use xlink:href="#DejaVuSans-34"/>
     <use x="63.623047" xlink:href="#DejaVuSans-30"/>
     <use x="127.246094" xlink:href="#DejaVuSans-2d"/>
     <use x="163.330078" xlink:href="#DejaVuSans-44"/>
    </g>
   </g>
   <g id="text_15">
    <!-- 20-D -->
    <g transform="translate(398.553325 246.527265)scale(0.15 -0.15)">
     <use xlink:href="#DejaVuSans-32"/>
     <use x="63.623047" xlink:href="#DejaVuSans-30"/>
     <use x="127.246094" xlink:href="#DejaVuSans-2d"/>
     <use x="163.330078" xlink:href="#DejaVuSans-44"/>
    </g>
   </g>
   <g id="text_16">
    <!-- 10-D -->
    <g transform="translate(398.553325 195.939637)scale(0.15 -0.15)">
     <use xlink:href="#DejaVuSans-31"/>
     <use x="63.623047" xlink:href="#DejaVuSans-30"/>
     <use x="127.246094" xlink:href="#DejaVuSans-2d"/>
     <use x="163.330078" xlink:href="#DejaVuSans-44"/>
    </g>
   </g>
   <g id="text_17">
    <!-- 2-D -->
    <g transform="translate(398.553325 145.35201)scale(0.15 -0.15)">
     <use xlink:href="#DejaVuSans-32"/>
     <use x="63.623047" xlink:href="#DejaVuSans-2d"/>
     <use x="99.707031" xlink:href="#DejaVuSans-44"/>
    </g>
   </g>
   <g id="text_18">
    <!-- 3-D -->
    <defs>
     <path d="M 40.578125 39.3125 
Q 47.65625 37.796875 51.625 33 
Q 55.609375 28.21875 55.609375 21.1875 
Q 55.609375 10.40625 48.1875 4.484375 
Q 40.765625 -1.421875 27.09375 -1.421875 
Q 22.515625 -1.421875 17.65625 -0.515625 
Q 12.796875 0.390625 7.625 2.203125 
L 7.625 11.71875 
Q 11.71875 9.328125 16.59375 8.109375 
Q 21.484375 6.890625 26.8125 6.890625 
Q 36.078125 6.890625 40.9375 10.546875 
Q 45.796875 14.203125 45.796875 21.1875 
Q 45.796875 27.640625 41.28125 31.265625 
Q 36.765625 34.90625 28.71875 34.90625 
L 20.21875 34.90625 
L 20.21875 43.015625 
L 29.109375 43.015625 
Q 36.375 43.015625 40.234375 45.921875 
Q 44.09375 48.828125 44.09375 54.296875 
Q 44.09375 59.90625 40.109375 62.90625 
Q 36.140625 65.921875 28.71875 65.921875 
Q 24.65625 65.921875 20.015625 65.03125 
Q 15.375 64.15625 9.8125 62.3125 
L 9.8125 71.09375 
Q 15.4375 72.65625 20.34375 73.4375 
Q 25.25 74.21875 29.59375 74.21875 
Q 40.828125 74.21875 47.359375 69.109375 
Q 53.90625 64.015625 53.90625 55.328125 
Q 53.90625 49.265625 50.4375 45.09375 
Q 46.96875 40.921875 40.578125 39.3125 
z
" id="DejaVuSans-33"/>
    </defs>
    <g transform="translate(398.553325 94.764382)scale(0.15 -0.15)">
     <use xlink:href="#DejaVuSans-33"/>
     <use x="63.623047" xlink:href="#DejaVuSans-2d"/>
     <use x="99.707031" xlink:href="#DejaVuSans-44"/>
    </g>
   </g>
   <g id="text_19">
    <!-- 5-D -->
    <defs>
     <path d="M 10.796875 72.90625 
L 49.515625 72.90625 
L 49.515625 64.59375 
L 19.828125 64.59375 
L 19.828125 46.734375 
Q 21.96875 47.46875 24.109375 47.828125 
Q 26.265625 48.1875 28.421875 48.1875 
Q 40.625 48.1875 47.75 41.5 
Q 54.890625 34.8125 54.890625 23.390625 
Q 54.890625 11.625 47.5625 5.09375 
Q 40.234375 -1.421875 26.90625 -1.421875 
Q 22.3125 -1.421875 17.546875 -0.640625 
Q 12.796875 0.140625 7.71875 1.703125 
L 7.71875 11.625 
Q 12.109375 9.234375 16.796875 8.0625 
Q 21.484375 6.890625 26.703125 6.890625 
Q 35.15625 6.890625 40.078125 11.328125 
Q 45.015625 15.765625 45.015625 23.390625 
Q 45.015625 31 40.078125 35.4375 
Q 35.15625 39.890625 26.703125 39.890625 
Q 22.75 39.890625 18.8125 39.015625 
Q 14.890625 38.140625 10.796875 36.28125 
z
" id="DejaVuSans-35"/>
    </defs>
    <g transform="translate(398.553325 44.176754)scale(0.15 -0.15)">
     <use xlink:href="#DejaVuSans-35"/>
     <use x="63.623047" xlink:href="#DejaVuSans-2d"/>
     <use x="99.707031" xlink:href="#DejaVuSans-44"/>
    </g>
   </g>
   <g id="text_20">
    <!-- bbob - f18 -->
    <defs>
     <path d="M 48.6875 27.296875 
Q 48.6875 37.203125 44.609375 42.84375 
Q 40.53125 48.484375 33.40625 48.484375 
Q 26.265625 48.484375 22.1875 42.84375 
Q 18.109375 37.203125 18.109375 27.296875 
Q 18.109375 17.390625 22.1875 11.75 
Q 26.265625 6.109375 33.40625 6.109375 
Q 40.53125 6.109375 44.609375 11.75 
Q 48.6875 17.390625 48.6875 27.296875 
z
M 18.109375 46.390625 
Q 20.953125 51.265625 25.265625 53.625 
Q 29.59375 56 35.59375 56 
Q 45.5625 56 51.78125 48.09375 
Q 58.015625 40.1875 58.015625 27.296875 
Q 58.015625 14.40625 51.78125 6.484375 
Q 45.5625 -1.421875 35.59375 -1.421875 
Q 29.59375 -1.421875 25.265625 0.953125 
Q 20.953125 3.328125 18.109375 8.203125 
L 18.109375 0 
L 9.078125 0 
L 9.078125 75.984375 
L 18.109375 75.984375 
z
" id="DejaVuSans-62"/>
    </defs>
    <g transform="translate(76.684525 50.114612)scale(0.1666 -0.1666)">
     <use xlink:href="#DejaVuSans-62"/>
     <use x="63.476562" xlink:href="#DejaVuSans-62"/>
     <use x="126.953125" xlink:href="#DejaVuSans-6f"/>
     <use x="188.134766" xlink:href="#DejaVuSans-62"/>
     <use x="251.611328" xlink:href="#DejaVuSans-20"/>
     <use x="283.398438" xlink:href="#DejaVuSans-2d"/>
     <use x="319.482422" xlink:href="#DejaVuSans-20"/>
     <use x="351.269531" xlink:href="#DejaVuSans-66"/>
     <use x="386.474609" xlink:href="#DejaVuSans-31"/>
     <use x="450.097656" xlink:href="#DejaVuSans-38"/>
    </g>
    <!-- 51 targets in 100..1e-08 -->
    <g transform="translate(76.684525 68.770168)scale(0.1666 -0.1666)">
     <use xlink:href="#DejaVuSans-35"/>
     <use x="63.623047" xlink:href="#DejaVuSans-31"/>
     <use x="127.246094" xlink:href="#DejaVuSans-20"/>
     <use x="159.033203" xlink:href="#DejaVuSans-74"/>
     <use x="198.242188" xlink:href="#DejaVuSans-61"/>
     <use x="259.521484" xlink:href="#DejaVuSans-72"/>
     <use x="300.619141" xlink:href="#DejaVuSans-67"/>
     <use x="364.095703" xlink:href="#DejaVuSans-65"/>
     <use x="425.619141" xlink:href="#DejaVuSans-74"/>
     <use x="464.828125" xlink:href="#DejaVuSans-73"/>
     <use x="516.927734" xlink:href="#DejaVuSans-20"/>
     <use x="548.714844" xlink:href="#DejaVuSans-69"/>
     <use x="576.498047" xlink:href="#DejaVuSans-6e"/>
     <use x="639.876953" xlink:href="#DejaVuSans-20"/>
     <use x="671.664062" xlink:href="#DejaVuSans-31"/>
     <use x="735.287109" xlink:href="#DejaVuSans-30"/>
     <use x="798.910156" xlink:href="#DejaVuSans-30"/>
     <use x="862.533203" xlink:href="#DejaVuSans-2e"/>
     <use x="894.320312" xlink:href="#DejaVuSans-2e"/>
     <use x="926.107422" xlink:href="#DejaVuSans-31"/>
     <use x="989.730469" xlink:href="#DejaVuSans-65"/>
     <use x="1051.253906" xlink:href="#DejaVuSans-2d"/>
     <use x="1087.337891" xlink:href="#DejaVuSans-30"/>
     <use x="1150.960938" xlink:href="#DejaVuSans-38"/>
    </g>
    <!-- 15 instances -->
    <g transform="translate(76.684525 87.425723)scale(0.1666 -0.1666)">
     <use xlink:href="#DejaVuSans-31"/>
     <use x="63.623047" xlink:href="#DejaVuSans-35"/>
     <use x="127.246094" xlink:href="#DejaVuSans-20"/>
     <use x="159.033203" xlink:href="#DejaVuSans-69"/>
     <use x="186.816406" xlink:href="#DejaVuSans-6e"/>
     <use x="250.195312" xlink:href="#DejaVuSans-73"/>
     <use x="302.294922" xlink:href="#DejaVuSans-74"/>
     <use x="341.503906" xlink:href="#DejaVuSans-61"/>
     <use x="402.783203" xlink:href="#DejaVuSans-6e"/>
     <use x="466.162109" xlink:href="#DejaVuSans-63"/>
     <use x="521.142578" xlink:href="#DejaVuSans-65"/>
     <use x="582.666016" xlink:href="#DejaVuSans-73"/>
    </g>
   </g>
   <g id="text_21">
    <!-- v2.1 -->
    <g style="fill:#808080;" transform="translate(240.762388 293.504568)scale(0.1 -0.1)">
     <use xlink:href="#DejaVuSans-76"/>
     <use x="59.179688" xlink:href="#DejaVuSans-32"/>
     <use x="122.802734" xlink:href="#DejaVuSans-2e"/>
     <use x="154.589844" xlink:href="#DejaVuSans-31"/>
    </g>
   </g>
   <g id="text_22">
    <!-- 18 Schaffer F7, condition 1000 -->
    <defs>
     <path d="M 53.515625 70.515625 
L 53.515625 60.890625 
Q 47.90625 63.578125 42.921875 64.890625 
Q 37.9375 66.21875 33.296875 66.21875 
Q 25.25 66.21875 20.875 63.09375 
Q 16.5 59.96875 16.5 54.203125 
Q 16.5 49.359375 19.40625 46.890625 
Q 22.3125 44.4375 30.421875 42.921875 
L 36.375 41.703125 
Q 47.40625 39.59375 52.65625 34.296875 
Q 57.90625 29 57.90625 20.125 
Q 57.90625 9.515625 50.796875 4.046875 
Q 43.703125 -1.421875 29.984375 -1.421875 
Q 24.8125 -1.421875 18.96875 -0.25 
Q 13.140625 0.921875 6.890625 3.21875 
L 6.890625 13.375 
Q 12.890625 10.015625 18.65625 8.296875 
Q 24.421875 6.59375 29.984375 6.59375 
Q 38.421875 6.59375 43.015625 9.90625 
Q 47.609375 13.234375 47.609375 19.390625 
Q 47.609375 24.75 44.3125 27.78125 
Q 41.015625 30.8125 33.5 32.328125 
L 27.484375 33.5 
Q 16.453125 35.6875 11.515625 40.375 
Q 6.59375 45.0625 6.59375 53.421875 
Q 6.59375 63.09375 13.40625 68.65625 
Q 20.21875 74.21875 32.171875 74.21875 
Q 37.3125 74.21875 42.625 73.28125 
Q 47.953125 72.359375 53.515625 70.515625 
z
" id="DejaVuSans-53"/>
     <path d="M 54.890625 33.015625 
L 54.890625 0 
L 45.90625 0 
L 45.90625 32.71875 
Q 45.90625 40.484375 42.875 44.328125 
Q 39.84375 48.1875 33.796875 48.1875 
Q 26.515625 48.1875 22.3125 43.546875 
Q 18.109375 38.921875 18.109375 30.90625 
L 18.109375 0 
L 9.078125 0 
L 9.078125 75.984375 
L 18.109375 75.984375 
L 18.109375 46.1875 
Q 21.34375 51.125 25.703125 53.5625 
Q 30.078125 56 35.796875 56 
Q 45.21875 56 50.046875 50.171875 
Q 54.890625 44.34375 54.890625 33.015625 
z
" id="DejaVuSans-68"/>
     <path d="M 9.8125 72.90625 
L 51.703125 72.90625 
L 51.703125 64.59375 
L 19.671875 64.59375 
L 19.671875 43.109375 
L 48.578125 43.109375 
L 48.578125 34.8125 
L 19.671875 34.8125 
L 19.671875 0 
L 9.8125 0 
z
" id="DejaVuSans-46"/>
     <path d="M 8.203125 72.90625 
L 55.078125 72.90625 
L 55.078125 68.703125 
L 28.609375 0 
L 18.3125 0 
L 43.21875 64.59375 
L 8.203125 64.59375 
z
" id="DejaVuSans-37"/>
     <path d="M 11.71875 12.40625 
L 22.015625 12.40625 
L 22.015625 4 
L 14.015625 -11.625 
L 7.71875 -11.625 
L 11.71875 4 
z
" id="DejaVuSans-2c"/>
    </defs>
    <g transform="translate(66.83395 26.133375)scale(0.24 -0.24)">
     <use xlink:href="#DejaVuSans-31"/>
     <use x="63.623047" xlink:href="#DejaVuSans-38"/>
     <use x="127.246094" xlink:href="#DejaVuSans-20"/>
     <use x="159.033203" xlink:href="#DejaVuSans-53"/>
     <use x="222.509766" xlink:href="#DejaVuSans-63"/>
     <use x="277.490234" xlink:href="#DejaVuSans-68"/>
     <use x="340.869141" xlink:href="#DejaVuSans-61"/>
     <use x="402.148438" xlink:href="#DejaVuSans-66"/>
     <use x="437.353516" xlink:href="#DejaVuSans-66"/>
     <use x="472.558594" xlink:href="#DejaVuSans-65"/>
     <use x="534.082031" xlink:href="#DejaVuSans-72"/>
     <use x="575.195312" xlink:href="#DejaVuSans-20"/>
     <use x="606.982422" xlink:href="#DejaVuSans-46"/>
     <use x="664.501953" xlink:href="#DejaVuSans-37"/>
     <use x="728.125" xlink:href="#DejaVuSans-2c"/>
     <use x="759.912109" xlink:href="#DejaVuSans-20"/>
     <use x="791.699219" xlink:href="#DejaVuSans-63"/>
     <use x="846.679688" xlink:href="#DejaVuSans-6f"/>
     <use x="907.861328" xlink:href="#DejaVuSans-6e"/>
     <use x="971.240234" xlink:href="#DejaVuSans-64"/>
     <use x="1034.716797" xlink:href="#DejaVuSans-69"/>
     <use x="1062.5" xlink:href="#DejaVuSans-74"/>
     <use x="1101.708984" xlink:href="#DejaVuSans-69"/>
     <use x="1129.492188" xlink:href="#DejaVuSans-6f"/>
     <use x="1190.673828" xlink:href="#DejaVuSans-6e"/>
     <use x="1254.052734" xlink:href="#DejaVuSans-20"/>
     <use x="1285.839844" xlink:href="#DejaVuSans-31"/>
     <use x="1349.462891" xlink:href="#DejaVuSans-30"/>
     <use x="1413.085938" xlink:href="#DejaVuSans-30"/>
     <use x="1476.708984" xlink:href="#DejaVuSans-30"/>
    </g>
   </g>
  </g>
 </g>
 <defs>
  <clipPath id="pe03fff6c3c">
   <rect height="266.112" width="357.12" x="73.113325" y="32.133375"/>
  </clipPath>
 </defs>
</svg>
