<?xml version="1.0" encoding="utf-8" standalone="no"?>
<!DOCTYPE svg PUBLIC "-//W3C//DTD SVG 1.1//EN"
  "http://www.w3.org/Graphics/SVG/1.1/DTD/svg11.dtd">
<!-- Created with matplotlib (http://matplotlib.org/) -->
<svg height="353pt" version="1.1" viewBox="0 0 441 353" width="441pt" xmlns="http://www.w3.org/2000/svg" xmlns:xlink="http://www.w3.org/1999/xlink">
 <defs>
  <style type="text/css">
*{stroke-linecap:butt;stroke-linejoin:round;}
  </style>
 </defs>
 <g id="figure_1">
  <g id="patch_1">
   <path d="M -0 353.22225 
L 441.802544 353.22225 
L 441.802544 0 
L -0 0 
z
" style="fill:#ffffff;"/>
  </g>
  <g id="axes_1">
   <g id="patch_2">
    <path d="M 73.113325 298.245375 
L 430.233325 298.245375 
L 430.233325 32.133375 
L 73.113325 32.133375 
z
" style="fill:#ffffff;"/>
   </g>
   <g id="matplotlib.axis_1">
    <g id="xtick_1">
     <g id="line2d_1">
      <path clip-path="url(#p6a8594befe)" d="M 73.113325 298.245375 
L 73.113325 32.133375 
" style="fill:none;stroke:#b0b0b0;stroke-linecap:square;stroke-width:0.8;"/>
     </g>
     <g id="line2d_2">
      <defs>
       <path d="M 0 0 
L 0 3.5 
" id="m072f05e08d" style="stroke:#000000;stroke-width:0.8;"/>
      </defs>
      <g>
       <use style="stroke:#000000;stroke-width:0.8;" x="73.113325" xlink:href="#m072f05e08d" y="298.245375"/>
      </g>
     </g>
     <g id="text_1">
      <!-- 0 -->
      <defs>
       <path d="M 31.78125 66.40625 
Q 24.171875 66.40625 20.328125 58.90625 
Q 16.5 51.421875 16.5 36.375 
Q 16.5 21.390625 20.328125 13.890625 
Q 24.171875 6.390625 31.78125 6.390625 
Q 39.453125 6.390625 43.28125 13.890625 
Q 47.125 21.390625 47.125 36.375 
Q 47.125 51.421875 43.28125 58.90625 
Q 39.453125 66.40625 31.78125 66.40625 
z
M 31.78125 74.21875 
Q 44.046875 74.21875 50.515625 64.515625 
Q 56.984375 54.828125 56.984375 36.375 
Q 56.984375 17.96875 50.515625 8.265625 
Q 44.046875 -1.421875 31.78125 -1.421875 
Q 19.53125 -1.421875 13.0625 8.265625 
Q 6.59375 17.96875 6.59375 36.375 
Q 6.59375 54.828125 13.0625 64.515625 
Q 19.53125 74.21875 31.78125 74.21875 
z
" id="DejaVuSans-30"/>
      </defs>
      <g transform="translate(66.750825 320.44225)scale(0.2 -0.2)">
       <use xlink:href="#DejaVuSans-30"/>
      </g>
     </g>
    </g>
    <g id="xtick_2">
     <g id="line2d_3">
      <path clip-path="url(#p6a8594befe)" d="M 155.39904 298.245375 
L 155.39904 32.133375 
" style="fill:none;stroke:#b0b0b0;stroke-linecap:square;stroke-width:0.8;"/>
     </g>
     <g id="line2d_4">
      <g>
       <use style="stroke:#000000;stroke-width:0.8;" x="155.39904" xlink:href="#m072f05e08d" y="298.245375"/>
      </g>
     </g>
     <g id="text_2">
      <!-- 2 -->
      <defs>
       <path d="M 19.1875 8.296875 
L 53.609375 8.296875 
L 53.609375 0 
L 7.328125 0 
L 7.328125 8.296875 
Q 12.9375 14.109375 22.625 23.890625 
Q 32.328125 33.6875 34.8125 36.53125 
Q 39.546875 41.84375 41.421875 45.53125 
Q 43.3125 49.21875 43.3125 52.78125 
Q 43.3125 58.59375 39.234375 62.25 
Q 35.15625 65.921875 28.609375 65.921875 
Q 23.96875 65.921875 18.8125 64.3125 
Q 13.671875 62.703125 7.8125 59.421875 
L 7.8125 69.390625 
Q 13.765625 71.78125 18.9375 73 
Q 24.125 74.21875 28.421875 74.21875 
Q 39.75 74.21875 46.484375 68.546875 
Q 53.21875 62.890625 53.21875 53.421875 
Q 53.21875 48.921875 51.53125 44.890625 
Q 49.859375 40.875 45.40625 35.40625 
Q 44.1875 33.984375 37.640625 27.21875 
Q 31.109375 20.453125 19.1875 8.296875 
z
" id="DejaVuSans-32"/>
      </defs>
      <g transform="translate(149.03654 320.44225)scale(0.2 -0.2)">
       <use xlink:href="#DejaVuSans-32"/>
      </g>
     </g>
    </g>
    <g id="xtick_3">
     <g id="line2d_5">
      <path clip-path="url(#p6a8594befe)" d="M 237.684754 298.245375 
L 237.684754 32.133375 
" style="fill:none;stroke:#b0b0b0;stroke-linecap:square;stroke-width:0.8;"/>
     </g>
     <g id="line2d_6">
      <g>
       <use style="stroke:#000000;stroke-width:0.8;" x="237.684754" xlink:href="#m072f05e08d" y="298.245375"/>
      </g>
     </g>
     <g id="text_3">
      <!-- 4 -->
      <defs>
       <path d="M 37.796875 64.3125 
L 12.890625 25.390625 
L 37.796875 25.390625 
z
M 35.203125 72.90625 
L 47.609375 72.90625 
L 47.609375 25.390625 
L 58.015625 25.390625 
L 58.015625 17.1875 
L 47.609375 17.1875 
L 47.609375 0 
L 37.796875 0 
L 37.796875 17.1875 
L 4.890625 17.1875 
L 4.890625 26.703125 
z
" id="DejaVuSans-34"/>
      </defs>
      <g transform="translate(231.322254 320.44225)scale(0.2 -0.2)">
       <use xlink:href="#DejaVuSans-34"/>
      </g>
     </g>
    </g>
    <g id="xtick_4">
     <g id="line2d_7">
      <path clip-path="url(#p6a8594befe)" d="M 319.970468 298.245375 
L 319.970468 32.133375 
" style="fill:none;stroke:#b0b0b0;stroke-linecap:square;stroke-width:0.8;"/>
     </g>
     <g id="line2d_8">
      <g>
       <use style="stroke:#000000;stroke-width:0.8;" x="319.970468" xlink:href="#m072f05e08d" y="298.245375"/>
      </g>
     </g>
     <g id="text_4">
      <!-- 6 -->
      <defs>
       <path d="M 33.015625 40.375 
Q 26.375 40.375 22.484375 35.828125 
Q 18.609375 31.296875 18.609375 23.390625 
Q 18.609375 15.53125 22.484375 10.953125 
Q 26.375 6.390625 33.015625 6.390625 
Q 39.65625 6.390625 43.53125 10.953125 
Q 47.40625 15.53125 47.40625 23.390625 
Q 47.40625 31.296875 43.53125 35.828125 
Q 39.65625 40.375 33.015625 40.375 
z
M 52.59375 71.296875 
L 52.59375 62.3125 
Q 48.875 64.0625 45.09375 64.984375 
Q 41.3125 65.921875 37.59375 65.921875 
Q 27.828125 65.921875 22.671875 59.328125 
Q 17.53125 52.734375 16.796875 39.40625 
Q 19.671875 43.65625 24.015625 45.921875 
Q 28.375 48.1875 33.59375 48.1875 
Q 44.578125 48.1875 50.953125 41.515625 
Q 57.328125 34.859375 57.328125 23.390625 
Q 57.328125 12.15625 50.6875 5.359375 
Q 44.046875 -1.421875 33.015625 -1.421875 
Q 20.359375 -1.421875 13.671875 8.265625 
Q 6.984375 17.96875 6.984375 36.375 
Q 6.984375 53.65625 15.1875 63.9375 
Q 23.390625 74.21875 37.203125 74.21875 
Q 40.921875 74.21875 44.703125 73.484375 
Q 48.484375 72.75 52.59375 71.296875 
z
" id="DejaVuSans-36"/>
      </defs>
      <g transform="translate(313.607968 320.44225)scale(0.2 -0.2)">
       <use xlink:href="#DejaVuSans-36"/>
      </g>
     </g>
    </g>
    <g id="xtick_5">
     <g id="line2d_9">
      <path clip-path="url(#p6a8594befe)" d="M 402.256183 298.245375 
L 402.256183 32.133375 
" style="fill:none;stroke:#b0b0b0;stroke-linecap:square;stroke-width:0.8;"/>
     </g>
     <g id="line2d_10">
      <g>
       <use style="stroke:#000000;stroke-width:0.8;" x="402.256183" xlink:href="#m072f05e08d" y="298.245375"/>
      </g>
     </g>
     <g id="text_5">
      <!-- 8 -->
      <defs>
       <path d="M 31.78125 34.625 
Q 24.75 34.625 20.71875 30.859375 
Q 16.703125 27.09375 16.703125 20.515625 
Q 16.703125 13.921875 20.71875 10.15625 
Q 24.75 6.390625 31.78125 6.390625 
Q 38.8125 6.390625 42.859375 10.171875 
Q 46.921875 13.96875 46.921875 20.515625 
Q 46.921875 27.09375 42.890625 30.859375 
Q 38.875 34.625 31.78125 34.625 
z
M 21.921875 38.8125 
Q 15.578125 40.375 12.03125 44.71875 
Q 8.5 49.078125 8.5 55.328125 
Q 8.5 64.0625 14.71875 69.140625 
Q 20.953125 74.21875 31.78125 74.21875 
Q 42.671875 74.21875 48.875 69.140625 
Q 55.078125 64.0625 55.078125 55.328125 
Q 55.078125 49.078125 51.53125 44.71875 
Q 48 40.375 41.703125 38.8125 
Q 48.828125 37.15625 52.796875 32.3125 
Q 56.78125 27.484375 56.78125 20.515625 
Q 56.78125 9.90625 50.3125 4.234375 
Q 43.84375 -1.421875 31.78125 -1.421875 
Q 19.734375 -1.421875 13.25 4.234375 
Q 6.78125 9.90625 6.78125 20.515625 
Q 6.78125 27.484375 10.78125 32.3125 
Q 14.796875 37.15625 21.921875 38.8125 
z
M 18.3125 54.390625 
Q 18.3125 48.734375 21.84375 45.5625 
Q 25.390625 42.390625 31.78125 42.390625 
Q 38.140625 42.390625 41.71875 45.5625 
Q 45.3125 48.734375 45.3125 54.390625 
Q 45.3125 60.0625 41.71875 63.234375 
Q 38.140625 66.40625 31.78125 66.40625 
Q 25.390625 66.40625 21.84375 63.234375 
Q 18.3125 60.0625 18.3125 54.390625 
z
" id="DejaVuSans-38"/>
      </defs>
      <g transform="translate(395.893683 320.44225)scale(0.2 -0.2)">
       <use xlink:href="#DejaVuSans-38"/>
      </g>
     </g>
    </g>
    <g id="text_6">
     <!-- log10 of (# f-evals / dimension) -->
     <defs>
      <path d="M 9.421875 75.984375 
L 18.40625 75.984375 
L 18.40625 0 
L 9.421875 0 
z
" id="DejaVuSans-6c"/>
      <path d="M 30.609375 48.390625 
Q 23.390625 48.390625 19.1875 42.75 
Q 14.984375 37.109375 14.984375 27.296875 
Q 14.984375 17.484375 19.15625 11.84375 
Q 23.34375 6.203125 30.609375 6.203125 
Q 37.796875 6.203125 41.984375 11.859375 
Q 46.1875 17.53125 46.1875 27.296875 
Q 46.1875 37.015625 41.984375 42.703125 
Q 37.796875 48.390625 30.609375 48.390625 
z
M 30.609375 56 
Q 42.328125 56 49.015625 48.375 
Q 55.71875 40.765625 55.71875 27.296875 
Q 55.71875 13.875 49.015625 6.21875 
Q 42.328125 -1.421875 30.609375 -1.421875 
Q 18.84375 -1.421875 12.171875 6.21875 
Q 5.515625 13.875 5.515625 27.296875 
Q 5.515625 40.765625 12.171875 48.375 
Q 18.84375 56 30.609375 56 
z
" id="DejaVuSans-6f"/>
      <path d="M 45.40625 27.984375 
Q 45.40625 37.75 41.375 43.109375 
Q 37.359375 48.484375 30.078125 48.484375 
Q 22.859375 48.484375 18.828125 43.109375 
Q 14.796875 37.75 14.796875 27.984375 
Q 14.796875 18.265625 18.828125 12.890625 
Q 22.859375 7.515625 30.078125 7.515625 
Q 37.359375 7.515625 41.375 12.890625 
Q 45.40625 18.265625 45.40625 27.984375 
z
M 54.390625 6.78125 
Q 54.390625 -7.171875 48.1875 -13.984375 
Q 42 -20.796875 29.203125 -20.796875 
Q 24.46875 -20.796875 20.265625 -20.09375 
Q 16.0625 -19.390625 12.109375 -17.921875 
L 12.109375 -9.1875 
Q 16.0625 -11.328125 19.921875 -12.34375 
Q 23.78125 -13.375 27.78125 -13.375 
Q 36.625 -13.375 41.015625 -8.765625 
Q 45.40625 -4.15625 45.40625 5.171875 
L 45.40625 9.625 
Q 42.625 4.78125 38.28125 2.390625 
Q 33.9375 0 27.875 0 
Q 17.828125 0 11.671875 7.65625 
Q 5.515625 15.328125 5.515625 27.984375 
Q 5.515625 40.671875 11.671875 48.328125 
Q 17.828125 56 27.875 56 
Q 33.9375 56 38.28125 53.609375 
Q 42.625 51.21875 45.40625 46.390625 
L 45.40625 54.6875 
L 54.390625 54.6875 
z
" id="DejaVuSans-67"/>
      <path d="M 12.40625 8.296875 
L 28.515625 8.296875 
L 28.515625 63.921875 
L 10.984375 60.40625 
L 10.984375 69.390625 
L 28.421875 72.90625 
L 38.28125 72.90625 
L 38.28125 8.296875 
L 54.390625 8.296875 
L 54.390625 0 
L 12.40625 0 
z
" id="DejaVuSans-31"/>
      <path id="DejaVuSans-20"/>
      <path d="M 37.109375 75.984375 
L 37.109375 68.5 
L 28.515625 68.5 
Q 23.6875 68.5 21.796875 66.546875 
Q 19.921875 64.59375 19.921875 59.515625 
L 19.921875 54.6875 
L 34.71875 54.6875 
L 34.71875 47.703125 
L 19.921875 47.703125 
L 19.921875 0 
L 10.890625 0 
L 10.890625 47.703125 
L 2.296875 47.703125 
L 2.296875 54.6875 
L 10.890625 54.6875 
L 10.890625 58.5 
Q 10.890625 67.625 15.140625 71.796875 
Q 19.390625 75.984375 28.609375 75.984375 
z
" id="DejaVuSans-66"/>
      <path d="M 31 75.875 
Q 24.46875 64.65625 21.28125 53.65625 
Q 18.109375 42.671875 18.109375 31.390625 
Q 18.109375 20.125 21.3125 9.0625 
Q 24.515625 -2 31 -13.1875 
L 23.1875 -13.1875 
Q 15.875 -1.703125 12.234375 9.375 
Q 8.59375 20.453125 8.59375 31.390625 
Q 8.59375 42.28125 12.203125 53.3125 
Q 15.828125 64.359375 23.1875 75.875 
z
" id="DejaVuSans-28"/>
      <path d="M 51.125 44 
L 36.921875 44 
L 32.8125 27.6875 
L 47.125 27.6875 
z
M 43.796875 71.78125 
L 38.71875 51.515625 
L 52.984375 51.515625 
L 58.109375 71.78125 
L 65.921875 71.78125 
L 60.890625 51.515625 
L 76.125 51.515625 
L 76.125 44 
L 58.984375 44 
L 54.984375 27.6875 
L 70.515625 27.6875 
L 70.515625 20.21875 
L 53.078125 20.21875 
L 48 0 
L 40.1875 0 
L 45.21875 20.21875 
L 30.90625 20.21875 
L 25.875 0 
L 18.015625 0 
L 23.09375 20.21875 
L 7.71875 20.21875 
L 7.71875 27.6875 
L 24.90625 27.6875 
L 29 44 
L 13.28125 44 
L 13.28125 51.515625 
L 30.90625 51.515625 
L 35.890625 71.78125 
z
" id="DejaVuSans-23"/>
      <path d="M 4.890625 31.390625 
L 31.203125 31.390625 
L 31.203125 23.390625 
L 4.890625 23.390625 
z
" id="DejaVuSans-2d"/>
      <path d="M 56.203125 29.59375 
L 56.203125 25.203125 
L 14.890625 25.203125 
Q 15.484375 15.921875 20.484375 11.0625 
Q 25.484375 6.203125 34.421875 6.203125 
Q 39.59375 6.203125 44.453125 7.46875 
Q 49.3125 8.734375 54.109375 11.28125 
L 54.109375 2.78125 
Q 49.265625 0.734375 44.1875 -0.34375 
Q 39.109375 -1.421875 33.890625 -1.421875 
Q 20.796875 -1.421875 13.15625 6.1875 
Q 5.515625 13.8125 5.515625 26.8125 
Q 5.515625 40.234375 12.765625 48.109375 
Q 20.015625 56 32.328125 56 
Q 43.359375 56 49.78125 48.890625 
Q 56.203125 41.796875 56.203125 29.59375 
z
M 47.21875 32.234375 
Q 47.125 39.59375 43.09375 43.984375 
Q 39.0625 48.390625 32.421875 48.390625 
Q 24.90625 48.390625 20.390625 44.140625 
Q 15.875 39.890625 15.1875 32.171875 
z
" id="DejaVuSans-65"/>
      <path d="M 2.984375 54.6875 
L 12.5 54.6875 
L 29.59375 8.796875 
L 46.6875 54.6875 
L 56.203125 54.6875 
L 35.6875 0 
L 23.484375 0 
z
" id="DejaVuSans-76"/>
      <path d="M 34.28125 27.484375 
Q 23.390625 27.484375 19.1875 25 
Q 14.984375 22.515625 14.984375 16.5 
Q 14.984375 11.71875 18.140625 8.90625 
Q 21.296875 6.109375 26.703125 6.109375 
Q 34.1875 6.109375 38.703125 11.40625 
Q 43.21875 16.703125 43.21875 25.484375 
L 43.21875 27.484375 
z
M 52.203125 31.203125 
L 52.203125 0 
L 43.21875 0 
L 43.21875 8.296875 
Q 40.140625 3.328125 35.546875 0.953125 
Q 30.953125 -1.421875 24.3125 -1.421875 
Q 15.921875 -1.421875 10.953125 3.296875 
Q 6 8.015625 6 15.921875 
Q 6 25.140625 12.171875 29.828125 
Q 18.359375 34.515625 30.609375 34.515625 
L 43.21875 34.515625 
L 43.21875 35.40625 
Q 43.21875 41.609375 39.140625 45 
Q 35.0625 48.390625 27.6875 48.390625 
Q 23 48.390625 18.546875 47.265625 
Q 14.109375 46.140625 10.015625 43.890625 
L 10.015625 52.203125 
Q 14.9375 54.109375 19.578125 55.046875 
Q 24.21875 56 28.609375 56 
Q 40.484375 56 46.34375 49.84375 
Q 52.203125 43.703125 52.203125 31.203125 
z
" id="DejaVuSans-61"/>
      <path d="M 44.28125 53.078125 
L 44.28125 44.578125 
Q 40.484375 46.53125 36.375 47.5 
Q 32.28125 48.484375 27.875 48.484375 
Q 21.1875 48.484375 17.84375 46.4375 
Q 14.5 44.390625 14.5 40.28125 
Q 14.5 37.15625 16.890625 35.375 
Q 19.28125 33.59375 26.515625 31.984375 
L 29.59375 31.296875 
Q 39.15625 29.25 43.1875 25.515625 
Q 47.21875 21.78125 47.21875 15.09375 
Q 47.21875 7.46875 41.1875 3.015625 
Q 35.15625 -1.421875 24.609375 -1.421875 
Q 20.21875 -1.421875 15.453125 -0.5625 
Q 10.6875 0.296875 5.421875 2 
L 5.421875 11.28125 
Q 10.40625 8.6875 15.234375 7.390625 
Q 20.0625 6.109375 24.8125 6.109375 
Q 31.15625 6.109375 34.5625 8.28125 
Q 37.984375 10.453125 37.984375 14.40625 
Q 37.984375 18.0625 35.515625 20.015625 
Q 33.0625 21.96875 24.703125 23.78125 
L 21.578125 24.515625 
Q 13.234375 26.265625 9.515625 29.90625 
Q 5.8125 33.546875 5.8125 39.890625 
Q 5.8125 47.609375 11.28125 51.796875 
Q 16.75 56 26.8125 56 
Q 31.78125 56 36.171875 55.265625 
Q 40.578125 54.546875 44.28125 53.078125 
z
" id="DejaVuSans-73"/>
      <path d="M 25.390625 72.90625 
L 33.6875 72.90625 
L 8.296875 -9.28125 
L 0 -9.28125 
z
" id="DejaVuSans-2f"/>
      <path d="M 45.40625 46.390625 
L 45.40625 75.984375 
L 54.390625 75.984375 
L 54.390625 0 
L 45.40625 0 
L 45.40625 8.203125 
Q 42.578125 3.328125 38.25 0.953125 
Q 33.9375 -1.421875 27.875 -1.421875 
Q 17.96875 -1.421875 11.734375 6.484375 
Q 5.515625 14.40625 5.515625 27.296875 
Q 5.515625 40.1875 11.734375 48.09375 
Q 17.96875 56 27.875 56 
Q 33.9375 56 38.25 53.625 
Q 42.578125 51.265625 45.40625 46.390625 
z
M 14.796875 27.296875 
Q 14.796875 17.390625 18.875 11.75 
Q 22.953125 6.109375 30.078125 6.109375 
Q 37.203125 6.109375 41.296875 11.75 
Q 45.40625 17.390625 45.40625 27.296875 
Q 45.40625 37.203125 41.296875 42.84375 
Q 37.203125 48.484375 30.078125 48.484375 
Q 22.953125 48.484375 18.875 42.84375 
Q 14.796875 37.203125 14.796875 27.296875 
z
" id="DejaVuSans-64"/>
      <path d="M 9.421875 54.6875 
L 18.40625 54.6875 
L 18.40625 0 
L 9.421875 0 
z
M 9.421875 75.984375 
L 18.40625 75.984375 
L 18.40625 64.59375 
L 9.421875 64.59375 
z
" id="DejaVuSans-69"/>
      <path d="M 52 44.1875 
Q 55.375 50.25 60.0625 53.125 
Q 64.75 56 71.09375 56 
Q 79.640625 56 84.28125 50.015625 
Q 88.921875 44.046875 88.921875 33.015625 
L 88.921875 0 
L 79.890625 0 
L 79.890625 32.71875 
Q 79.890625 40.578125 77.09375 44.375 
Q 74.3125 48.1875 68.609375 48.1875 
Q 61.625 48.1875 57.5625 43.546875 
Q 53.515625 38.921875 53.515625 30.90625 
L 53.515625 0 
L 44.484375 0 
L 44.484375 32.71875 
Q 44.484375 40.625 41.703125 44.40625 
Q 38.921875 48.1875 33.109375 48.1875 
Q 26.21875 48.1875 22.15625 43.53125 
Q 18.109375 38.875 18.109375 30.90625 
L 18.109375 0 
L 9.078125 0 
L 9.078125 54.6875 
L 18.109375 54.6875 
L 18.109375 46.1875 
Q 21.1875 51.21875 25.484375 53.609375 
Q 29.78125 56 35.6875 56 
Q 41.65625 56 45.828125 52.96875 
Q 50 49.953125 52 44.1875 
z
" id="DejaVuSans-6d"/>
      <path d="M 54.890625 33.015625 
L 54.890625 0 
L 45.90625 0 
L 45.90625 32.71875 
Q 45.90625 40.484375 42.875 44.328125 
Q 39.84375 48.1875 33.796875 48.1875 
Q 26.515625 48.1875 22.3125 43.546875 
Q 18.109375 38.921875 18.109375 30.90625 
L 18.109375 0 
L 9.078125 0 
L 9.078125 54.6875 
L 18.109375 54.6875 
L 18.109375 46.1875 
Q 21.34375 51.125 25.703125 53.5625 
Q 30.078125 56 35.796875 56 
Q 45.21875 56 50.046875 50.171875 
Q 54.890625 44.34375 54.890625 33.015625 
z
" id="DejaVuSans-6e"/>
      <path d="M 8.015625 75.875 
L 15.828125 75.875 
Q 23.140625 64.359375 26.78125 53.3125 
Q 30.421875 42.28125 30.421875 31.390625 
Q 30.421875 20.453125 26.78125 9.375 
Q 23.140625 -1.703125 15.828125 -13.1875 
L 8.015625 -13.1875 
Q 14.5 -2 17.703125 9.0625 
Q 20.90625 20.125 20.90625 31.390625 
Q 20.90625 42.671875 17.703125 53.65625 
Q 14.5 64.65625 8.015625 75.875 
z
" id="DejaVuSans-29"/>
     </defs>
     <g transform="translate(109.328482 342.278812)scale(0.18 -0.18)">
      <use xlink:href="#DejaVuSans-6c"/>
      <use x="27.783203" xlink:href="#DejaVuSans-6f"/>
      <use x="88.964844" xlink:href="#DejaVuSans-67"/>
      <use x="152.441406" xlink:href="#DejaVuSans-31"/>
      <use x="216.064453" xlink:href="#DejaVuSans-30"/>
      <use x="279.6875" xlink:href="#DejaVuSans-20"/>
      <use x="311.474609" xlink:href="#DejaVuSans-6f"/>
      <use x="372.65625" xlink:href="#DejaVuSans-66"/>
      <use x="407.861328" xlink:href="#DejaVuSans-20"/>
      <use x="439.648438" xlink:href="#DejaVuSans-28"/>
      <use x="478.662109" xlink:href="#DejaVuSans-23"/>
      <use x="562.451172" xlink:href="#DejaVuSans-20"/>
      <use x="594.238281" xlink:href="#DejaVuSans-66"/>
      <use x="629.365234" xlink:href="#DejaVuSans-2d"/>
      <use x="665.449219" xlink:href="#DejaVuSans-65"/>
      <use x="726.972656" xlink:href="#DejaVuSans-76"/>
      <use x="786.152344" xlink:href="#DejaVuSans-61"/>
      <use x="847.431641" xlink:href="#DejaVuSans-6c"/>
      <use x="875.214844" xlink:href="#DejaVuSans-73"/>
      <use x="927.314453" xlink:href="#DejaVuSans-20"/>
      <use x="959.101562" xlink:href="#DejaVuSans-2f"/>
      <use x="992.792969" xlink:href="#DejaVuSans-20"/>
      <use x="1024.580078" xlink:href="#DejaVuSans-64"/>
      <use x="1088.056641" xlink:href="#DejaVuSans-69"/>
      <use x="1115.839844" xlink:href="#DejaVuSans-6d"/>
      <use x="1213.251953" xlink:href="#DejaVuSans-65"/>
      <use x="1274.775391" xlink:href="#DejaVuSans-6e"/>
      <use x="1338.154297" xlink:href="#DejaVuSans-73"/>
      <use x="1390.253906" xlink:href="#DejaVuSans-69"/>
      <use x="1418.037109" xlink:href="#DejaVuSans-6f"/>
      <use x="1479.21875" xlink:href="#DejaVuSans-6e"/>
      <use x="1542.597656" xlink:href="#DejaVuSans-29"/>
     </g>
    </g>
   </g>
   <g id="matplotlib.axis_2">
    <g id="ytick_1">
     <g id="line2d_11">
      <path clip-path="url(#p6a8594befe)" d="M 73.113325 298.245375 
L 430.233325 298.245375 
" style="fill:none;stroke:#b0b0b0;stroke-linecap:square;stroke-width:0.8;"/>
     </g>
     <g id="line2d_12">
      <defs>
       <path d="M 0 0 
L -3.5 0 
" id="m047ca04cb5" style="stroke:#000000;stroke-width:0.8;"/>
      </defs>
      <g>
       <use style="stroke:#000000;stroke-width:0.8;" x="73.113325" xlink:href="#m047ca04cb5" y="298.245375"/>
      </g>
     </g>
     <g id="text_7">
      <!-- 0.0 -->
      <defs>
       <path d="M 10.6875 12.40625 
L 21 12.40625 
L 21 0 
L 10.6875 0 
z
" id="DejaVuSans-2e"/>
      </defs>
      <g transform="translate(34.307075 305.843812)scale(0.2 -0.2)">
       <use xlink:href="#DejaVuSans-30"/>
       <use x="63.623047" xlink:href="#DejaVuSans-2e"/>
       <use x="95.410156" xlink:href="#DejaVuSans-30"/>
      </g>
     </g>
    </g>
    <g id="ytick_2">
     <g id="line2d_13">
      <path clip-path="url(#p6a8594befe)" d="M 73.113325 245.549929 
L 430.233325 245.549929 
" style="fill:none;stroke:#b0b0b0;stroke-linecap:square;stroke-width:0.8;"/>
     </g>
     <g id="line2d_14">
      <g>
       <use style="stroke:#000000;stroke-width:0.8;" x="73.113325" xlink:href="#m047ca04cb5" y="245.549929"/>
      </g>
     </g>
     <g id="text_8">
      <!-- 0.2 -->
      <g transform="translate(34.307075 253.148367)scale(0.2 -0.2)">
       <use xlink:href="#DejaVuSans-30"/>
       <use x="63.623047" xlink:href="#DejaVuSans-2e"/>
       <use x="95.410156" xlink:href="#DejaVuSans-32"/>
      </g>
     </g>
    </g>
    <g id="ytick_3">
     <g id="line2d_15">
      <path clip-path="url(#p6a8594befe)" d="M 73.113325 192.854484 
L 430.233325 192.854484 
" style="fill:none;stroke:#b0b0b0;stroke-linecap:square;stroke-width:0.8;"/>
     </g>
     <g id="line2d_16">
      <g>
       <use style="stroke:#000000;stroke-width:0.8;" x="73.113325" xlink:href="#m047ca04cb5" y="192.854484"/>
      </g>
     </g>
     <g id="text_9">
      <!-- 0.4 -->
      <g transform="translate(34.307075 200.452921)scale(0.2 -0.2)">
       <use xlink:href="#DejaVuSans-30"/>
       <use x="63.623047" xlink:href="#DejaVuSans-2e"/>
       <use x="95.410156" xlink:href="#DejaVuSans-34"/>
      </g>
     </g>
    </g>
    <g id="ytick_4">
     <g id="line2d_17">
      <path clip-path="url(#p6a8594befe)" d="M 73.113325 140.159038 
L 430.233325 140.159038 
" style="fill:none;stroke:#b0b0b0;stroke-linecap:square;stroke-width:0.8;"/>
     </g>
     <g id="line2d_18">
      <g>
       <use style="stroke:#000000;stroke-width:0.8;" x="73.113325" xlink:href="#m047ca04cb5" y="140.159038"/>
      </g>
     </g>
     <g id="text_10">
      <!-- 0.6 -->
      <g transform="translate(34.307075 147.757476)scale(0.2 -0.2)">
       <use xlink:href="#DejaVuSans-30"/>
       <use x="63.623047" xlink:href="#DejaVuSans-2e"/>
       <use x="95.410156" xlink:href="#DejaVuSans-36"/>
      </g>
     </g>
    </g>
    <g id="ytick_5">
     <g id="line2d_19">
      <path clip-path="url(#p6a8594befe)" d="M 73.113325 87.463593 
L 430.233325 87.463593 
" style="fill:none;stroke:#b0b0b0;stroke-linecap:square;stroke-width:0.8;"/>
     </g>
     <g id="line2d_20">
      <g>
       <use style="stroke:#000000;stroke-width:0.8;" x="73.113325" xlink:href="#m047ca04cb5" y="87.463593"/>
      </g>
     </g>
     <g id="text_11">
      <!-- 0.8 -->
      <g transform="translate(34.307075 95.06203)scale(0.2 -0.2)">
       <use xlink:href="#DejaVuSans-30"/>
       <use x="63.623047" xlink:href="#DejaVuSans-2e"/>
       <use x="95.410156" xlink:href="#DejaVuSans-38"/>
      </g>
     </g>
    </g>
    <g id="ytick_6">
     <g id="line2d_21">
      <path clip-path="url(#p6a8594befe)" d="M 73.113325 34.768147 
L 430.233325 34.768147 
" style="fill:none;stroke:#b0b0b0;stroke-linecap:square;stroke-width:0.8;"/>
     </g>
     <g id="line2d_22">
      <g>
       <use style="stroke:#000000;stroke-width:0.8;" x="73.113325" xlink:href="#m047ca04cb5" y="34.768147"/>
      </g>
     </g>
     <g id="text_12">
      <!-- 1.0 -->
      <g transform="translate(34.307075 42.366585)scale(0.2 -0.2)">
       <use xlink:href="#DejaVuSans-31"/>
       <use x="63.623047" xlink:href="#DejaVuSans-2e"/>
       <use x="95.410156" xlink:href="#DejaVuSans-30"/>
      </g>
     </g>
    </g>
    <g id="text_13">
     <!-- Proportion of function+target pairs -->
     <defs>
      <path d="M 19.671875 64.796875 
L 19.671875 37.40625 
L 32.078125 37.40625 
Q 38.96875 37.40625 42.71875 40.96875 
Q 46.484375 44.53125 46.484375 51.125 
Q 46.484375 57.671875 42.71875 61.234375 
Q 38.96875 64.796875 32.078125 64.796875 
z
M 9.8125 72.90625 
L 32.078125 72.90625 
Q 44.34375 72.90625 50.609375 67.359375 
Q 56.890625 61.8125 56.890625 51.125 
Q 56.890625 40.328125 50.609375 34.8125 
Q 44.34375 29.296875 32.078125 29.296875 
L 19.671875 29.296875 
L 19.671875 0 
L 9.8125 0 
z
" id="DejaVuSans-50"/>
      <path d="M 41.109375 46.296875 
Q 39.59375 47.171875 37.8125 47.578125 
Q 36.03125 48 33.890625 48 
Q 26.265625 48 22.1875 43.046875 
Q 18.109375 38.09375 18.109375 28.8125 
L 18.109375 0 
L 9.078125 0 
L 9.078125 54.6875 
L 18.109375 54.6875 
L 18.109375 46.1875 
Q 20.953125 51.171875 25.484375 53.578125 
Q 30.03125 56 36.53125 56 
Q 37.453125 56 38.578125 55.875 
Q 39.703125 55.765625 41.0625 55.515625 
z
" id="DejaVuSans-72"/>
      <path d="M 18.109375 8.203125 
L 18.109375 -20.796875 
L 9.078125 -20.796875 
L 9.078125 54.6875 
L 18.109375 54.6875 
L 18.109375 46.390625 
Q 20.953125 51.265625 25.265625 53.625 
Q 29.59375 56 35.59375 56 
Q 45.5625 56 51.78125 48.09375 
Q 58.015625 40.1875 58.015625 27.296875 
Q 58.015625 14.40625 51.78125 6.484375 
Q 45.5625 -1.421875 35.59375 -1.421875 
Q 29.59375 -1.421875 25.265625 0.953125 
Q 20.953125 3.328125 18.109375 8.203125 
z
M 48.6875 27.296875 
Q 48.6875 37.203125 44.609375 42.84375 
Q 40.53125 48.484375 33.40625 48.484375 
Q 26.265625 48.484375 22.1875 42.84375 
Q 18.109375 37.203125 18.109375 27.296875 
Q 18.109375 17.390625 22.1875 11.75 
Q 26.265625 6.109375 33.40625 6.109375 
Q 40.53125 6.109375 44.609375 11.75 
Q 48.6875 17.390625 48.6875 27.296875 
z
" id="DejaVuSans-70"/>
      <path d="M 18.3125 70.21875 
L 18.3125 54.6875 
L 36.8125 54.6875 
L 36.8125 47.703125 
L 18.3125 47.703125 
L 18.3125 18.015625 
Q 18.3125 11.328125 20.140625 9.421875 
Q 21.96875 7.515625 27.59375 7.515625 
L 36.8125 7.515625 
L 36.8125 0 
L 27.59375 0 
Q 17.1875 0 13.234375 3.875 
Q 9.28125 7.765625 9.28125 18.015625 
L 9.28125 47.703125 
L 2.6875 47.703125 
L 2.6875 54.6875 
L 9.28125 54.6875 
L 9.28125 70.21875 
z
" id="DejaVuSans-74"/>
      <path d="M 8.5 21.578125 
L 8.5 54.6875 
L 17.484375 54.6875 
L 17.484375 21.921875 
Q 17.484375 14.15625 20.5 10.265625 
Q 23.53125 6.390625 29.59375 6.390625 
Q 36.859375 6.390625 41.078125 11.03125 
Q 45.3125 15.671875 45.3125 23.6875 
L 45.3125 54.6875 
L 54.296875 54.6875 
L 54.296875 0 
L 45.3125 0 
L 45.3125 8.40625 
Q 42.046875 3.421875 37.71875 1 
Q 33.40625 -1.421875 27.6875 -1.421875 
Q 18.265625 -1.421875 13.375 4.4375 
Q 8.5 10.296875 8.5 21.578125 
z
M 31.109375 56 
z
" id="DejaVuSans-75"/>
      <path d="M 48.78125 52.59375 
L 48.78125 44.1875 
Q 44.96875 46.296875 41.140625 47.34375 
Q 37.3125 48.390625 33.40625 48.390625 
Q 24.65625 48.390625 19.8125 42.84375 
Q 14.984375 37.3125 14.984375 27.296875 
Q 14.984375 17.28125 19.8125 11.734375 
Q 24.65625 6.203125 33.40625 6.203125 
Q 37.3125 6.203125 41.140625 7.25 
Q 44.96875 8.296875 48.78125 10.40625 
L 48.78125 2.09375 
Q 45.015625 0.34375 40.984375 -0.53125 
Q 36.96875 -1.421875 32.421875 -1.421875 
Q 20.0625 -1.421875 12.78125 6.34375 
Q 5.515625 14.109375 5.515625 27.296875 
Q 5.515625 40.671875 12.859375 48.328125 
Q 20.21875 56 33.015625 56 
Q 37.15625 56 41.109375 55.140625 
Q 45.0625 54.296875 48.78125 52.59375 
z
" id="DejaVuSans-63"/>
      <path d="M 46 62.703125 
L 46 35.5 
L 73.1875 35.5 
L 73.1875 27.203125 
L 46 27.203125 
L 46 0 
L 37.796875 0 
L 37.796875 27.203125 
L 10.59375 27.203125 
L 10.59375 35.5 
L 37.796875 35.5 
L 37.796875 62.703125 
z
" id="DejaVuSans-2b"/>
     </defs>
     <g transform="translate(26.563638 323.17875)rotate(-90)scale(0.18 -0.18)">
      <use xlink:href="#DejaVuSans-50"/>
      <use x="60.287109" xlink:href="#DejaVuSans-72"/>
      <use x="101.369141" xlink:href="#DejaVuSans-6f"/>
      <use x="162.550781" xlink:href="#DejaVuSans-70"/>
      <use x="226.027344" xlink:href="#DejaVuSans-6f"/>
      <use x="287.208984" xlink:href="#DejaVuSans-72"/>
      <use x="328.322266" xlink:href="#DejaVuSans-74"/>
      <use x="367.53125" xlink:href="#DejaVuSans-69"/>
      <use x="395.314453" xlink:href="#DejaVuSans-6f"/>
      <use x="456.496094" xlink:href="#DejaVuSans-6e"/>
      <use x="519.875" xlink:href="#DejaVuSans-20"/>
      <use x="551.662109" xlink:href="#DejaVuSans-6f"/>
      <use x="612.84375" xlink:href="#DejaVuSans-66"/>
      <use x="648.048828" xlink:href="#DejaVuSans-20"/>
      <use x="679.835938" xlink:href="#DejaVuSans-66"/>
      <use x="715.041016" xlink:href="#DejaVuSans-75"/>
      <use x="778.419922" xlink:href="#DejaVuSans-6e"/>
      <use x="841.798828" xlink:href="#DejaVuSans-63"/>
      <use x="896.779297" xlink:href="#DejaVuSans-74"/>
      <use x="935.988281" xlink:href="#DejaVuSans-69"/>
      <use x="963.771484" xlink:href="#DejaVuSans-6f"/>
      <use x="1024.953125" xlink:href="#DejaVuSans-6e"/>
      <use x="1088.332031" xlink:href="#DejaVuSans-2b"/>
      <use x="1172.121094" xlink:href="#DejaVuSans-74"/>
      <use x="1211.330078" xlink:href="#DejaVuSans-61"/>
      <use x="1272.609375" xlink:href="#DejaVuSans-72"/>
      <use x="1313.707031" xlink:href="#DejaVuSans-67"/>
      <use x="1377.183594" xlink:href="#DejaVuSans-65"/>
      <use x="1438.707031" xlink:href="#DejaVuSans-74"/>
      <use x="1477.916016" xlink:href="#DejaVuSans-20"/>
      <use x="1509.703125" xlink:href="#DejaVuSans-70"/>
      <use x="1573.179688" xlink:href="#DejaVuSans-61"/>
      <use x="1634.458984" xlink:href="#DejaVuSans-69"/>
      <use x="1662.242188" xlink:href="#DejaVuSans-72"/>
      <use x="1703.355469" xlink:href="#DejaVuSans-73"/>
     </g>
    </g>
   </g>
   <g id="line2d_23">
    <defs>
     <path d="M 0 1.5 
C 0.397805 1.5 0.77937 1.341951 1.06066 1.06066 
C 1.341951 0.77937 1.5 0.397805 1.5 0 
C 1.5 -0.397805 1.341951 -0.77937 1.06066 -1.06066 
C 0.77937 -1.341951 0.397805 -1.5 0 -1.5 
C -0.397805 -1.5 -0.77937 -1.341951 -1.06066 -1.06066 
C -1.341951 -0.77937 -1.5 -0.397805 -1.5 0 
C -1.5 0.397805 -1.341951 0.77937 -1.06066 1.06066 
C -0.77937 1.341951 -0.397805 1.5 0 1.5 
z
" id="ma28394325c" style="stroke:#00bfbf;"/>
    </defs>
    <g>
     <use style="fill:#00bfbf;stroke:#00bfbf;" x="262.813218" xlink:href="#ma28394325c" y="34.768147"/>
     <use style="fill:#00bfbf;stroke:#00bfbf;" x="262.813218" xlink:href="#ma28394325c" y="34.768147"/>
    </g>
   </g>
   <g id="line2d_24">
    <path d="M 60.728091 298.245375 
L 60.728091 270.864408 
L 73.113325 270.864408 
L 73.113325 267.248054 
L 80.358223 267.248054 
L 80.358223 264.664944 
L 85.498559 264.664944 
L 85.498559 264.148322 
L 89.485714 264.148322 
L 89.485714 262.598456 
L 92.743457 262.598456 
L 92.743457 262.081834 
L 99.988354 262.081834 
L 99.988354 261.04859 
L 101.870948 261.04859 
L 101.870948 258.982102 
L 105.128691 258.982102 
L 105.128691 255.365748 
L 106.558903 255.365748 
L 106.558903 253.29926 
L 107.883073 253.29926 
L 107.883073 252.782638 
L 109.115846 252.782638 
L 109.115846 252.266016 
L 112.373589 252.266016 
L 112.373589 250.199528 
L 113.339668 250.199528 
L 113.339668 249.682906 
L 115.127971 249.682906 
L 115.127971 248.649662 
L 116.753465 248.649662 
L 116.753465 248.13304 
L 117.513925 248.13304 
L 117.513925 246.583173 
L 118.243337 246.583173 
L 118.243337 245.549929 
L 119.618486 245.549929 
L 119.618486 242.450197 
L 120.268307 242.450197 
L 120.268307 241.416953 
L 122.654262 241.416953 
L 122.654262 240.900331 
L 124.255462 240.900331 
L 124.255462 237.800599 
L 125.248391 237.800599 
L 125.248391 233.667623 
L 126.189035 233.667623 
L 126.189035 233.151001 
L 126.641417 233.151001 
L 126.641417 232.634379 
L 127.513205 232.634379 
L 127.513205 231.084513 
L 130.267587 231.084513 
L 130.267587 230.567891 
L 135.316526 230.567891 
L 135.316526 229.534647 
L 136.640696 229.534647 
L 136.640696 229.018025 
L 139.684447 229.018025 
L 139.684447 225.401671 
L 140.109898 225.401671 
L 140.109898 223.335183 
L 140.931566 223.335183 
L 140.931566 220.235451 
L 141.131212 220.235451 
L 141.131212 219.202207 
L 142.284393 219.202207 
L 142.284393 216.102475 
L 143.013806 216.102475 
L 143.013806 214.552609 
L 143.714606 214.552609 
L 143.714606 214.035987 
L 144.388954 214.035987 
L 144.388954 208.869766 
L 147.284587 208.869766 
L 147.284587 203.703546 
L 147.838682 203.703546 
L 147.838682 202.15368 
L 148.897843 202.15368 
L 148.897843 200.603814 
L 150.139183 200.603814 
L 150.139183 199.053948 
L 151.523213 199.053948 
L 151.523213 198.537326 
L 152.069681 198.537326 
L 152.069681 194.40435 
L 152.599931 194.40435 
L 152.599931 193.887728 
L 153.416902 193.887728 
L 153.416902 192.337862 
L 154.198146 192.337862 
L 154.293443 191.304618 
L 154.762449 191.304618 
L 154.762449 190.787996 
L 155.219459 190.787996 
L 155.309475 189.23813 
L 155.752875 189.23813 
L 155.752875 187.688264 
L 156.774188 187.688264 
L 156.774188 181.4888 
L 162.222073 181.4888 
L 162.222073 179.938934 
L 162.584277 179.938934 
L 162.584277 179.422312 
L 162.939285 179.422312 
L 162.939285 178.389067 
L 164.019086 178.389067 
L 164.019086 176.839201 
L 166.726135 176.839201 
L 166.726135 175.805957 
L 212.196038 175.805957 
L 212.303599 165.990139 
L 212.307297 165.990139 
L 212.333158 159.790675 
L 212.428886 159.790675 
L 212.516799 152.557967 
L 212.542358 152.557967 
L 212.58609 146.358503 
L 212.655114 146.358503 
L 212.734705 137.059306 
L 212.777969 137.059306 
L 212.871351 131.893086 
L 212.910712 131.893086 
L 212.974934 125.177 
L 213.24358 125.177 
L 213.268121 122.59389 
L 213.355496 122.59389 
L 213.355496 122.077268 
L 213.53933 122.077268 
L 213.53933 121.044024 
L 224.577551 121.044024 
L 224.646257 111.228206 
L 224.694379 111.228206 
L 224.773682 104.512119 
L 224.808612 104.512119 
L 224.90386 96.246167 
L 224.929417 96.246167 
L 224.971324 91.596569 
L 225.109107 91.596569 
L 225.109107 91.079947 
L 225.261957 91.079947 
L 225.261957 90.563325 
L 231.837326 90.563325 
L 231.947284 83.847239 
L 231.95221 83.847239 
L 232.039423 78.681019 
L 232.070031 78.681019 
L 232.070031 78.164397 
L 232.185864 78.164397 
L 232.280411 77.131153 
L 236.960925 77.131153 
L 237.05927 68.348578 
L 237.07684 68.348578 
L 237.158917 64.732224 
L 237.235121 64.732224 
L 237.30644 63.69898 
L 240.947707 63.69898 
L 241.040502 56.982894 
L 241.078963 56.982894 
L 241.167405 53.36654 
L 244.2238 53.36654 
L 244.326975 47.683698 
L 246.976943 47.683698 
L 247.015673 43.550722 
L 247.15767 43.550722 
L 247.15767 43.0341 
L 249.394471 43.0341 
L 249.48286 42.000855 
L 251.53302 42.000855 
L 251.53302 41.484233 
L 253.336663 41.484233 
L 253.411662 38.384501 
L 256.601287 38.384501 
L 256.68354 37.351257 
L 259.344109 37.351257 
L 259.362442 36.318013 
L 260.585032 36.318013 
L 260.650384 35.284769 
L 262.813218 35.284769 
L 262.813218 34.768147 
L 361.113325 34.768147 
L 361.113325 34.768147 
" style="fill:none;stroke:#00bfbf;stroke-linecap:square;stroke-width:1.5;"/>
   </g>
   <g id="line2d_25">
    <defs>
     <path d="M -6 0 
L 6 0 
M 0 6 
L 0 -6 
" id="m06c4467c21" style="stroke:#00bfbf;stroke-width:1.5;"/>
    </defs>
    <g>
     <use style="fill:none;stroke:#00bfbf;stroke-width:1.5;" x="135.316526" xlink:href="#m06c4467c21" y="230.567891"/>
     <use style="fill:none;stroke:#00bfbf;stroke-width:1.5;" x="166.726135" xlink:href="#m06c4467c21" y="176.839201"/>
     <use style="fill:none;stroke:#00bfbf;stroke-width:1.5;" x="232.070031" xlink:href="#m06c4467c21" y="78.164397"/>
     <use style="fill:none;stroke:#00bfbf;stroke-width:1.5;" x="262.813218" xlink:href="#m06c4467c21" y="35.284769"/>
     <use style="fill:none;stroke:#00bfbf;stroke-width:1.5;" x="262.813218" xlink:href="#m06c4467c21" y="34.768147"/>
     <use style="fill:none;stroke:#00bfbf;stroke-width:1.5;" x="361.113325" xlink:href="#m06c4467c21" y="34.768147"/>
    </g>
   </g>
   <g id="line2d_26"/>
   <g id="line2d_27">
    <path clip-path="url(#p6a8594befe)" d="M 212.188596 175.805957 
" style="fill:none;stroke:#00bfbf;stroke-linecap:square;stroke-width:1.5;"/>
    <defs>
     <path d="M -12 12 
L 12 -12 
M -12 -12 
L 12 12 
" id="m4185acff51" style="stroke:#00bfbf;stroke-width:3;"/>
    </defs>
    <g clip-path="url(#p6a8594befe)">
     <use style="fill:#00bfbf;stroke:#00bfbf;stroke-width:3;" x="212.188596" xlink:href="#m4185acff51" y="175.805957"/>
    </g>
   </g>
   <g id="line2d_28">
    <defs>
     <path d="M 0 1.5 
C 0.397805 1.5 0.77937 1.341951 1.06066 1.06066 
C 1.341951 0.77937 1.5 0.397805 1.5 0 
C 1.5 -0.397805 1.341951 -0.77937 1.06066 -1.06066 
C 0.77937 -1.341951 0.397805 -1.5 0 -1.5 
C -0.397805 -1.5 -0.77937 -1.341951 -1.06066 -1.06066 
C -1.341951 -0.77937 -1.5 -0.397805 -1.5 0 
C -1.5 0.397805 -1.341951 0.77937 -1.06066 1.06066 
C -0.77937 1.341951 -0.397805 1.5 0 1.5 
z
" id="mfb53173d50" style="stroke:#008000;"/>
    </defs>
    <g>
     <use style="fill:#008000;stroke:#008000;" x="263.842637" xlink:href="#mfb53173d50" y="34.768147"/>
     <use style="fill:#008000;stroke:#008000;" x="263.842637" xlink:href="#mfb53173d50" y="34.768147"/>
    </g>
   </g>
   <g id="line2d_29">
    <path d="M 53.483194 298.245375 
L 53.483194 277.063872 
L 65.868428 277.063872 
L 65.868428 274.997384 
L 73.113325 274.997384 
L 73.113325 273.447518 
L 78.253662 273.447518 
L 78.253662 272.414274 
L 85.498559 272.414274 
L 85.498559 271.897652 
L 88.252942 271.897652 
L 88.252942 271.38103 
L 92.743457 271.38103 
L 92.743457 270.864408 
L 94.626051 270.864408 
L 94.626051 267.248054 
L 97.883794 267.248054 
L 97.883794 265.698188 
L 99.314006 265.698188 
L 99.314006 265.181566 
L 101.870948 265.181566 
L 101.870948 264.664944 
L 103.02413 264.664944 
L 103.02413 264.148322 
L 105.128691 264.148322 
L 105.128691 263.115078 
L 106.09477 263.115078 
L 106.09477 262.598456 
L 113.650426 262.598456 
L 113.650426 261.565212 
L 114.256183 261.565212 
L 114.256183 261.04859 
L 115.959196 261.04859 
L 115.959196 260.531968 
L 119.83773 260.531968 
L 119.83773 258.982102 
L 121.099532 258.982102 
L 121.099532 257.948858 
L 122.654262 257.948858 
L 122.654262 257.432236 
L 125.408644 257.432236 
L 125.408644 254.849126 
L 126.341105 254.849126 
L 126.341105 254.332504 
L 129.649252 254.332504 
L 129.649252 252.782638 
L 130.865239 252.782638 
L 130.865239 252.266016 
L 132.222964 252.266016 
L 132.222964 251.749394 
L 134.472206 251.749394 
L 134.472206 251.232772 
L 134.852393 251.232772 
L 134.852393 249.166284 
L 135.224659 249.166284 
L 135.224659 248.649662 
L 136.122744 248.649662 
L 136.122744 244.000063 
L 136.640696 244.000063 
L 136.640696 242.966819 
L 136.810064 242.966819 
L 136.810064 241.933575 
L 137.144057 241.933575 
L 137.144057 240.900331 
L 138.110136 240.900331 
L 138.110136 239.350465 
L 138.420894 239.350465 
L 138.420894 237.800599 
L 139.898439 237.800599 
L 139.898439 236.250733 
L 140.03969 236.250733 
L 140.03969 235.734111 
L 141.393983 235.734111 
L 141.393983 231.601135 
L 141.523933 231.601135 
L 141.523933 229.534647 
L 142.408049 229.534647 
L 142.408049 228.501403 
L 143.132531 228.501403 
L 143.132531 227.984781 
L 146.370541 227.984781 
L 146.370541 226.434915 
L 147.793158 226.434915 
L 147.793158 224.885049 
L 150.018859 224.885049 
L 150.018859 223.851805 
L 150.573568 223.851805 
L 150.651425 219.718829 
L 151.187126 219.718829 
L 151.187126 217.135719 
L 152.979018 217.135719 
L 152.979018 216.619097 
L 154.166267 216.619097 
L 154.166267 215.585853 
L 155.038055 215.585853 
L 155.038055 212.48612 
L 155.458501 212.48612 
L 155.517765 210.936254 
L 157.896322 210.936254 
L 157.896322 210.419632 
L 158.153422 210.419632 
L 158.153422 207.836522 
L 158.356471 207.836522 
L 158.356471 205.770034 
L 159.097993 205.770034 
L 159.097993 205.253412 
L 159.242675 205.253412 
L 159.242675 203.186924 
L 160.04112 203.186924 
L 160.04112 202.670302 
L 160.805408 202.670302 
L 160.805408 202.15368 
L 161.914525 202.15368 
L 161.914525 201.637058 
L 162.404093 201.637058 
L 162.404093 200.603814 
L 162.762663 200.603814 
L 162.762663 198.537326 
L 163.268214 198.537326 
L 163.268214 198.020704 
L 165.26166 198.020704 
L 165.26166 196.98746 
L 165.466259 196.98746 
L 165.466259 196.470838 
L 212.197278 196.470838 
L 212.288801 191.304618 
L 212.362667 191.304618 
L 212.472897 178.90569 
L 212.499738 178.90569 
L 212.52654 172.706225 
L 212.630926 172.706225 
L 212.739517 167.540005 
L 212.749138 167.540005 
L 212.765962 164.440273 
L 212.868962 164.440273 
L 212.899986 162.890407 
L 213.011699 162.890407 
L 213.087361 153.074589 
L 213.167403 153.074589 
L 213.22837 152.041345 
L 213.449384 152.041345 
L 213.449384 151.008101 
L 224.587471 151.008101 
L 224.688833 148.424991 
L 224.698691 148.424991 
L 224.795751 138.609172 
L 224.814121 138.609172 
L 224.916643 128.793354 
L 224.933673 128.793354 
L 225.028258 121.560646 
L 225.069332 121.560646 
L 225.141584 118.460914 
L 225.207561 118.460914 
L 225.207561 117.944292 
L 231.825756 117.944292 
L 231.931265 108.645095 
L 231.96657 108.645095 
L 232.065545 101.412387 
L 232.096515 101.412387 
L 232.188294 97.796033 
L 232.248143 97.796033 
L 232.248143 97.279411 
L 236.961545 97.279411 
L 237.043225 89.530081 
L 237.09501 89.530081 
L 237.197519 79.197641 
L 240.967792 79.197641 
L 241.058757 75.064664 
L 241.083396 75.064664 
L 241.117833 72.481554 
L 241.204616 72.481554 
L 241.204616 71.964932 
L 244.207683 71.964932 
L 244.318143 62.665736 
L 244.323895 62.665736 
L 244.355905 59.566004 
L 246.960647 59.566004 
L 247.061016 55.433028 
L 247.080741 55.433028 
L 247.142943 52.849918 
L 249.346779 52.849918 
L 249.451288 45.61721 
L 251.475718 45.61721 
L 251.543855 43.550722 
L 253.364174 43.550722 
L 253.402768 41.484233 
L 255.05622 41.484233 
L 255.112003 39.417745 
L 256.625343 39.417745 
L 256.695363 38.384501 
L 258.044488 38.384501 
L 258.118475 36.318013 
L 259.418741 36.318013 
L 259.418741 35.801391 
L 260.596106 35.801391 
L 260.596106 35.284769 
L 263.842637 35.284769 
L 263.842637 34.768147 
L 361.113325 34.768147 
L 361.113325 34.768147 
" style="fill:none;stroke:#008000;stroke-linecap:square;stroke-width:1.5;"/>
   </g>
   <g id="line2d_30">
    <defs>
     <path d="M -0 6 
L 6 -6 
L -6 -6 
z
" id="m8e08650243" style="stroke:#008000;stroke-linejoin:miter;stroke-width:1.5;"/>
    </defs>
    <g>
     <use style="fill:none;stroke:#008000;stroke-linejoin:miter;stroke-width:1.5;" x="138.420894" xlink:href="#m8e08650243" y="239.350465"/>
     <use style="fill:none;stroke:#008000;stroke-linejoin:miter;stroke-width:1.5;" x="212.674442" xlink:href="#m8e08650243" y="169.606493"/>
     <use style="fill:none;stroke:#008000;stroke-linejoin:miter;stroke-width:1.5;" x="237.170567" xlink:href="#m8e08650243" y="82.297373"/>
     <use style="fill:none;stroke:#008000;stroke-linejoin:miter;stroke-width:1.5;" x="263.842637" xlink:href="#m8e08650243" y="34.768147"/>
     <use style="fill:none;stroke:#008000;stroke-linejoin:miter;stroke-width:1.5;" x="263.842637" xlink:href="#m8e08650243" y="34.768147"/>
     <use style="fill:none;stroke:#008000;stroke-linejoin:miter;stroke-width:1.5;" x="361.113325" xlink:href="#m8e08650243" y="34.768147"/>
    </g>
   </g>
   <g id="line2d_31"/>
   <g id="line2d_32">
    <path clip-path="url(#p6a8594befe)" d="M 212.187355 196.470838 
" style="fill:none;stroke:#008000;stroke-linecap:square;stroke-width:1.5;"/>
    <defs>
     <path d="M -12 12 
L 12 -12 
M -12 -12 
L 12 12 
" id="md30f04868a" style="stroke:#008000;stroke-width:3;"/>
    </defs>
    <g clip-path="url(#p6a8594befe)">
     <use style="fill:#008000;stroke:#008000;stroke-width:3;" x="212.187355" xlink:href="#md30f04868a" y="196.470838"/>
    </g>
   </g>
   <g id="line2d_33">
    <defs>
     <path d="M 0 1.5 
C 0.397805 1.5 0.77937 1.341951 1.06066 1.06066 
C 1.341951 0.77937 1.5 0.397805 1.5 0 
C 1.5 -0.397805 1.341951 -0.77937 1.06066 -1.06066 
C 0.77937 -1.341951 0.397805 -1.5 0 -1.5 
C -0.397805 -1.5 -0.77937 -1.341951 -1.06066 -1.06066 
C -1.341951 -0.77937 -1.5 -0.397805 -1.5 0 
C -1.5 0.397805 -1.341951 0.77937 -1.06066 1.06066 
C -0.77937 1.341951 -0.397805 1.5 0 1.5 
z
" id="m78a237214e" style="stroke:#0000ff;"/>
    </defs>
    <g>
     <use style="fill:#0000ff;stroke:#0000ff;" x="271.1124" xlink:href="#m78a237214e" y="34.768147"/>
     <use style="fill:#0000ff;stroke:#0000ff;" x="271.1124" xlink:href="#m78a237214e" y="34.768147"/>
    </g>
   </g>
   <g id="line2d_34">
    <path d="M 44.355702 298.245375 
L 44.355702 286.363069 
L 63.985834 286.363069 
L 63.985834 285.846447 
L 69.126171 285.846447 
L 69.126171 285.329825 
L 73.113325 285.329825 
L 73.113325 284.813203 
L 88.756302 284.813203 
L 88.756302 284.296581 
L 93.896639 284.296581 
L 93.896639 283.263337 
L 96.0012 283.263337 
L 96.0012 282.746715 
L 101.141536 282.746715 
L 101.141536 282.230093 
L 102.571749 282.230093 
L 102.571749 281.196849 
L 103.246097 281.196849 
L 103.246097 280.680226 
L 105.714583 280.680226 
L 105.714583 280.163604 
L 107.883073 280.163604 
L 107.883073 279.13036 
L 108.386434 279.13036 
L 108.386434 278.097116 
L 108.876002 278.097116 
L 108.876002 277.580494 
L 110.710238 277.580494 
L 110.710238 276.54725 
L 111.561262 276.54725 
L 111.561262 276.030628 
L 112.373589 276.030628 
L 112.373589 275.514006 
L 114.610018 275.514006 
L 114.610018 274.480762 
L 114.956983 274.480762 
L 114.956983 273.447518 
L 115.297338 273.447518 
L 115.297338 272.414274 
L 118.099818 272.414274 
L 118.099818 271.897652 
L 119.750355 271.897652 
L 119.750355 270.864408 
L 120.011208 270.864408 
L 120.011208 269.314542 
L 120.52176 269.314542 
L 120.52176 268.281298 
L 121.737747 268.281298 
L 121.737747 267.764676 
L 123.095472 267.764676 
L 123.095472 267.248054 
L 124.956262 267.248054 
L 124.956262 266.21481 
L 125.912004 266.21481 
L 125.912004 265.698188 
L 126.81921 265.698188 
L 126.81921 264.664944 
L 126.995252 264.664944 
L 126.995252 263.6317 
L 129.598848 263.6317 
L 129.598848 263.115078 
L 129.749634 263.115078 
L 129.749634 262.598456 
L 129.899159 262.598456 
L 129.899159 261.565212 
L 136.435313 261.565212 
L 136.435313 261.04859 
L 138.756598 261.04859 
L 138.756598 260.015346 
L 139.204444 260.015346 
L 139.204444 259.498724 
L 139.467861 259.498724 
L 139.467861 258.46548 
L 140.067806 258.46548 
L 140.067806 257.948858 
L 141.21045 257.948858 
L 141.21045 257.432236 
L 141.678637 257.432236 
L 141.678637 256.915614 
L 142.284393 256.915614 
L 142.284393 256.398992 
L 142.870286 256.398992 
L 142.870286 255.365748 
L 143.226947 255.365748 
L 143.226947 253.29926 
L 143.714606 253.29926 
L 143.714606 252.782638 
L 145.229201 252.782638 
L 145.229201 252.266016 
L 145.665791 252.266016 
L 145.665791 251.232772 
L 146.031704 251.232772 
L 146.031704 250.71615 
L 146.33101 250.71615 
L 146.33101 248.649662 
L 147.143337 248.649662 
L 147.143337 247.616418 
L 147.368805 247.616418 
L 147.368805 246.066551 
L 147.920334 246.066551 
L 147.920334 245.549929 
L 148.716964 245.549929 
L 148.716964 245.033307 
L 148.872115 245.033307 
L 148.872115 244.000063 
L 149.178433 244.000063 
L 149.178433 240.383709 
L 150.115183 240.383709 
L 150.115183 236.767355 
L 150.867636 236.767355 
L 150.867636 233.667623 
L 154.817911 233.667623 
L 154.817911 232.634379 
L 155.183325 232.634379 
L 155.183325 231.601135 
L 155.43474 231.601135 
L 155.43474 230.567891 
L 155.752875 230.567891 
L 155.752875 229.018025 
L 155.996456 229.018025 
L 156.065445 227.468159 
L 156.473877 227.468159 
L 156.473877 226.951537 
L 157.42401 226.951537 
L 157.42401 226.434915 
L 157.645977 226.434915 
L 157.645977 225.918293 
L 158.477202 225.918293 
L 158.477202 225.401671 
L 159.242675 225.401671 
L 159.242675 224.885049 
L 159.357583 224.885049 
L 159.357583 223.335183 
L 160.004336 223.335183 
L 160.031931 220.752073 
L 160.734852 220.752073 
L 160.734852 220.235451 
L 212.22206 220.235451 
L 212.310993 214.035987 
L 212.339063 214.035987 
L 212.442101 211.452876 
L 212.461171 211.452876 
L 212.569339 203.186924 
L 212.602826 203.186924 
L 212.704358 194.40435 
L 212.731817 194.40435 
L 212.838364 190.271374 
L 212.84841 190.271374 
L 212.939997 186.138398 
L 212.95997 186.138398 
L 213.04957 183.555288 
L 213.092079 183.555288 
L 213.126014 181.4888 
L 213.221815 181.4888 
L 213.245685 179.938934 
L 224.59912 179.938934 
L 224.699923 173.739469 
L 224.710268 173.739469 
L 224.814855 162.890407 
L 224.828069 162.890407 
L 224.928322 158.240809 
L 224.940723 158.240809 
L 225.047599 149.974857 
L 225.070779 149.974857 
L 225.109107 148.941613 
L 231.829393 148.941613 
L 231.939153 142.742148 
L 231.941618 142.742148 
L 232.039913 133.442952 
L 232.05657 133.442952 
L 232.150827 125.693622 
L 232.168354 125.693622 
L 232.176625 124.143756 
L 236.969854 124.143756 
L 237.078874 113.811316 
L 237.094763 113.811316 
L 237.196417 103.478875 
L 240.974333 103.478875 
L 241.059151 91.596569 
L 241.087532 91.596569 
L 241.157403 85.913727 
L 244.250547 85.913727 
L 244.35123 75.581286 
L 244.368202 75.581286 
L 244.378524 73.514798 
L 246.990959 73.514798 
L 247.098897 67.831956 
L 249.372561 67.831956 
L 249.462259 60.082626 
L 251.473736 60.082626 
L 251.550381 53.36654 
L 253.354959 53.36654 
L 253.408105 48.716942 
L 255.03927 48.716942 
L 255.117168 46.133832 
L 256.599613 46.133832 
L 256.663723 42.000855 
L 258.045556 42.000855 
L 258.045556 41.484233 
L 259.376299 41.484233 
L 259.408113 39.934367 
L 260.599906 39.934367 
L 260.612588 38.384501 
L 261.74339 38.384501 
L 261.789908 36.318013 
L 263.853353 36.318013 
L 263.853353 35.801391 
L 265.740713 35.801391 
L 265.740713 35.284769 
L 271.1124 35.284769 
L 271.1124 34.768147 
L 361.113325 34.768147 
L 361.113325 34.768147 
" style="fill:none;stroke:#0000ff;stroke-linecap:square;stroke-width:1.5;"/>
   </g>
   <g id="line2d_35">
    <defs>
     <path d="M 0 -6 
L -1.347084 -1.854102 
L -5.706339 -1.854102 
L -2.179628 0.708204 
L -3.526712 4.854102 
L -0 2.291796 
L 3.526712 4.854102 
L 2.179628 0.708204 
L 5.706339 -1.854102 
L 1.347084 -1.854102 
z
" id="m8bd709358d" style="stroke:#0000ff;stroke-linejoin:bevel;stroke-width:1.5;"/>
    </defs>
    <g>
     <use style="fill:none;stroke:#0000ff;stroke-linejoin:bevel;stroke-width:1.5;" x="93.896639" xlink:href="#m8bd709358d" y="284.296581"/>
     <use style="fill:none;stroke:#0000ff;stroke-linejoin:bevel;stroke-width:1.5;" x="158.477202" xlink:href="#m8bd709358d" y="225.918293"/>
     <use style="fill:none;stroke:#0000ff;stroke-linejoin:bevel;stroke-width:1.5;" x="231.913998" xlink:href="#m8bd709358d" y="145.841881"/>
     <use style="fill:none;stroke:#0000ff;stroke-linejoin:bevel;stroke-width:1.5;" x="256.616096" xlink:href="#m8bd709358d" y="44.583966"/>
     <use style="fill:none;stroke:#0000ff;stroke-linejoin:bevel;stroke-width:1.5;" x="271.1124" xlink:href="#m8bd709358d" y="34.768147"/>
     <use style="fill:none;stroke:#0000ff;stroke-linejoin:bevel;stroke-width:1.5;" x="361.113325" xlink:href="#m8bd709358d" y="34.768147"/>
    </g>
   </g>
   <g id="line2d_36"/>
   <g id="line2d_37">
    <path clip-path="url(#p6a8594befe)" d="M 212.186363 220.235451 
" style="fill:none;stroke:#0000ff;stroke-linecap:square;stroke-width:1.5;"/>
    <defs>
     <path d="M -12 12 
L 12 -12 
M -12 -12 
L 12 12 
" id="m6647247d4b" style="stroke:#0000ff;stroke-width:3;"/>
    </defs>
    <g clip-path="url(#p6a8594befe)">
     <use style="fill:#0000ff;stroke:#0000ff;stroke-width:3;" x="212.186363" xlink:href="#m6647247d4b" y="220.235451"/>
    </g>
   </g>
   <g id="line2d_38">
    <defs>
     <path d="M 0 1.5 
C 0.397805 1.5 0.77937 1.341951 1.06066 1.06066 
C 1.341951 0.77937 1.5 0.397805 1.5 0 
C 1.5 -0.397805 1.341951 -0.77937 1.06066 -1.06066 
C 0.77937 -1.341951 0.397805 -1.5 0 -1.5 
C -0.397805 -1.5 -0.77937 -1.341951 -1.06066 -1.06066 
C -1.341951 -0.77937 -1.5 -0.397805 -1.5 0 
C -1.5 0.397805 -1.341951 0.77937 -1.06066 1.06066 
C -0.77937 1.341951 -0.397805 1.5 0 1.5 
z
" id="m272d8a2c5e" style="stroke:#000000;"/>
    </defs>
    <g>
     <use style="stroke:#000000;" x="283.791629" xlink:href="#m272d8a2c5e" y="34.768147"/>
     <use style="stroke:#000000;" x="283.791629" xlink:href="#m272d8a2c5e" y="34.768147"/>
    </g>
   </g>
   <g id="line2d_39">
    <path d="M 31.970468 298.245375 
L 31.970468 293.079155 
L 51.6006 293.079155 
L 51.6006 292.562533 
L 76.371068 292.562533 
L 76.371068 291.012667 
L 80.358223 291.012667 
L 80.358223 290.496045 
L 84.582045 290.496045 
L 84.582045 289.979423 
L 95.497839 289.979423 
L 95.497839 288.946179 
L 98.755582 288.946179 
L 98.755582 287.912935 
L 101.870948 287.912935 
L 101.870948 287.396313 
L 103.246097 287.396313 
L 103.246097 286.363069 
L 104.212177 286.363069 
L 104.212177 285.329825 
L 104.522934 285.329825 
L 104.522934 284.813203 
L 106.000479 284.813203 
L 106.000479 282.746715 
L 106.831704 282.746715 
L 106.831704 282.230093 
L 110.926824 282.230093 
L 110.926824 281.713471 
L 111.352275 281.713471 
L 111.352275 281.196849 
L 111.972041 281.196849 
L 111.972041 280.163604 
L 112.571028 280.163604 
L 112.571028 279.646982 
L 113.895198 279.646982 
L 113.895198 278.613738 
L 114.433976 278.613738 
L 114.433976 278.097116 
L 114.610018 278.097116 
L 114.610018 277.580494 
L 117.3644 277.580494 
L 117.3644 277.063872 
L 118.944138 277.063872 
L 118.944138 276.54725 
L 119.351793 276.54725 
L 119.351793 276.030628 
L 120.14022 276.030628 
L 120.14022 275.514006 
L 121.140096 275.514006 
L 121.140096 274.480762 
L 122.876229 274.480762 
L 122.876229 272.414274 
L 123.419374 272.414274 
L 123.419374 271.897652 
L 124.153066 271.897652 
L 124.153066 271.38103 
L 124.559177 271.38103 
L 124.559177 270.864408 
L 125.344715 270.864408 
L 125.344715 269.831164 
L 126.280432 269.831164 
L 126.280432 269.314542 
L 129.138699 269.314542 
L 129.138699 268.281298 
L 129.899159 268.281298 
L 129.899159 267.248054 
L 131.870871 267.248054 
L 131.870871 266.21481 
L 132.069776 266.21481 
L 132.069776 265.181566 
L 132.906994 265.181566 
L 132.906994 264.664944 
L 137.243049 264.664944 
L 137.243049 263.6317 
L 138.528395 263.6317 
L 138.528395 263.115078 
L 138.937086 263.115078 
L 138.937086 262.598456 
L 141.601452 262.598456 
L 141.601452 262.081834 
L 141.717104 262.081834 
L 141.717104 261.565212 
L 142.358689 261.565212 
L 142.358689 260.531968 
L 143.191599 260.531968 
L 143.297432 254.849126 
L 144.45501 254.849126 
L 144.45501 254.332504 
L 145.102477 254.332504 
L 145.102477 253.815882 
L 145.229201 253.815882 
L 145.229201 253.29926 
L 145.355034 253.29926 
L 145.355034 252.782638 
L 145.604071 252.782638 
L 145.604071 252.266016 
L 145.757974 252.266016 
L 145.757974 251.232772 
L 146.449342 251.232772 
L 146.449342 250.199528 
L 147.143337 250.199528 
L 147.143337 249.166284 
L 148.001614 249.166284 
L 148.001614 248.13304 
L 148.24326 248.13304 
L 148.349618 246.066551 
L 149.677575 246.066551 
L 149.677575 245.549929 
L 149.897719 245.549929 
L 149.897719 244.516685 
L 151.254851 244.516685 
L 151.254851 243.483441 
L 151.787604 243.483441 
L 151.787604 242.450197 
L 152.026573 242.450197 
L 152.026573 241.933575 
L 152.766341 241.933575 
L 152.766341 240.900331 
L 154.236326 240.900331 
L 154.236326 240.383709 
L 154.854791 240.383709 
L 154.854791 239.350465 
L 155.183325 239.350465 
L 155.183325 238.317221 
L 160.018139 238.317221 
L 160.018139 237.283977 
L 212.225775 237.283977 
L 212.323556 231.084513 
L 212.356032 231.084513 
L 212.453105 222.818561 
L 212.480221 222.818561 
L 212.562051 218.168963 
L 212.614459 218.168963 
L 212.724595 212.48612 
L 212.746974 212.48612 
L 212.816818 207.3199 
L 212.869918 207.3199 
L 212.906422 205.253412 
L 213.050279 205.253412 
L 213.050279 204.73679 
L 224.602464 204.73679 
L 224.705096 194.920972 
L 224.739791 194.920972 
L 224.831004 186.65502 
L 224.853735 186.65502 
L 224.934889 178.90569 
L 225.008413 178.90569 
L 225.008413 177.355823 
L 231.852192 177.355823 
L 231.959843 167.023383 
L 231.974607 167.023383 
L 232.059263 161.340541 
L 232.108644 161.340541 
L 232.134258 160.307297 
L 236.978221 160.307297 
L 237.086636 148.941613 
L 237.103072 148.941613 
L 237.139032 144.292014 
L 240.958273 144.292014 
L 241.066103 130.34322 
L 241.071277 130.34322 
L 241.119553 127.243488 
L 244.216859 127.243488 
L 244.320937 113.811316 
L 246.968974 113.811316 
L 247.057386 96.762789 
L 249.354995 96.762789 
L 249.433027 87.463593 
L 251.458037 87.463593 
L 251.501217 79.197641 
L 253.340532 79.197641 
L 253.38927 73.514798 
L 255.040149 73.514798 
L 255.095803 67.831956 
L 256.596265 67.831956 
L 256.633677 65.248846 
L 258.023244 65.248846 
L 258.061786 60.599248 
L 259.364992 60.599248 
L 259.379642 59.049382 
L 260.585826 59.049382 
L 260.606149 55.94965 
L 261.743251 55.94965 
L 261.772467 53.36654 
L 262.830023 53.36654 
L 262.836321 51.816674 
L 263.840212 51.816674 
L 263.866773 46.650454 
L 264.816071 46.650454 
L 264.834458 45.61721 
L 266.590035 45.61721 
L 266.590035 45.100588 
L 267.433026 45.100588 
L 267.44053 44.067344 
L 268.219762 44.067344 
L 268.219762 43.550722 
L 268.987203 43.550722 
L 268.987203 43.0341 
L 269.71667 43.0341 
L 269.71667 42.517478 
L 270.406302 42.517478 
L 270.414888 41.484233 
L 271.085992 41.484233 
L 271.090015 40.450989 
L 271.730141 40.450989 
L 271.752084 38.384501 
L 272.370144 38.384501 
L 272.370144 37.867879 
L 275.20911 37.867879 
L 275.20911 37.351257 
L 276.22679 37.351257 
L 276.22679 36.834635 
L 276.716076 36.834635 
L 276.718046 35.801391 
L 282.094702 35.801391 
L 282.094702 35.284769 
L 283.791629 35.284769 
L 283.791629 34.768147 
L 361.113325 34.768147 
L 361.113325 34.768147 
" style="fill:none;stroke:#000000;stroke-linecap:square;stroke-width:1.5;"/>
   </g>
   <g id="line2d_40">
    <defs>
     <path d="M 0 6 
C 1.591219 6 3.117479 5.367802 4.242641 4.242641 
C 5.367802 3.117479 6 1.591219 6 0 
C 6 -1.591219 5.367802 -3.117479 4.242641 -4.242641 
C 3.117479 -5.367802 1.591219 -6 0 -6 
C -1.591219 -6 -3.117479 -5.367802 -4.242641 -4.242641 
C -5.367802 -3.117479 -6 -1.591219 -6 0 
C -6 1.591219 -5.367802 3.117479 -4.242641 4.242641 
C -3.117479 5.367802 -1.591219 6 0 6 
z
" id="m8917196c52" style="stroke:#000000;stroke-width:1.5;"/>
    </defs>
    <g>
     <use style="fill:none;stroke:#000000;stroke-width:1.5;" x="160.018139" xlink:href="#m8917196c52" y="238.317221"/>
     <use style="fill:none;stroke:#000000;stroke-width:1.5;" x="224.632908" xlink:href="#m8917196c52" y="202.670302"/>
     <use style="fill:none;stroke:#000000;stroke-width:1.5;" x="256.633677" xlink:href="#m8917196c52" y="65.765468"/>
     <use style="fill:none;stroke:#000000;stroke-width:1.5;" x="283.791629" xlink:href="#m8917196c52" y="34.768147"/>
     <use style="fill:none;stroke:#000000;stroke-width:1.5;" x="283.791629" xlink:href="#m8917196c52" y="34.768147"/>
     <use style="fill:none;stroke:#000000;stroke-width:1.5;" x="361.113325" xlink:href="#m8917196c52" y="34.768147"/>
    </g>
   </g>
   <g id="line2d_41"/>
   <g id="line2d_42">
    <path clip-path="url(#p6a8594befe)" d="M 212.185618 237.283977 
" style="fill:none;stroke:#000000;stroke-linecap:square;stroke-width:1.5;"/>
    <defs>
     <path d="M -12 12 
L 12 -12 
M -12 -12 
L 12 12 
" id="m5be9968854" style="stroke:#000000;stroke-width:3;"/>
    </defs>
    <g clip-path="url(#p6a8594befe)">
     <use style="stroke:#000000;stroke-width:3;" x="212.185618" xlink:href="#m5be9968854" y="237.283977"/>
    </g>
   </g>
   <g id="line2d_43">
    <defs>
     <path d="M 0 1.5 
C 0.397805 1.5 0.77937 1.341951 1.06066 1.06066 
C 1.341951 0.77937 1.5 0.397805 1.5 0 
C 1.5 -0.397805 1.341951 -0.77937 1.06066 -1.06066 
C 0.77937 -1.341951 0.397805 -1.5 0 -1.5 
C -0.397805 -1.5 -0.77937 -1.341951 -1.06066 -1.06066 
C -1.341951 -0.77937 -1.5 -0.397805 -1.5 0 
C -1.5 0.397805 -1.341951 0.77937 -1.06066 1.06066 
C -0.77937 1.341951 -0.397805 1.5 0 1.5 
z
" id="mbd5568a122" style="stroke:#ff0000;"/>
    </defs>
    <g>
     <use style="fill:#ff0000;stroke:#ff0000;" x="293.373072" xlink:href="#mbd5568a122" y="34.768147"/>
     <use style="fill:#ff0000;stroke:#ff0000;" x="293.373072" xlink:href="#mbd5568a122" y="34.768147"/>
    </g>
   </g>
   <g id="line2d_44">
    <path d="M 19.585234 298.245375 
L 19.585234 293.079155 
L 77.80128 293.079155 
L 77.80128 292.562533 
L 96.730612 292.562533 
L 96.730612 292.045911 
L 100.381076 292.045911 
L 100.381076 291.529289 
L 102.742737 291.529289 
L 102.742737 290.496045 
L 102.912104 290.496045 
L 102.912104 288.946179 
L 103.079881 288.946179 
L 103.079881 287.396313 
L 104.368231 287.396313 
L 104.368231 286.879691 
L 105.858103 286.879691 
L 105.858103 286.363069 
L 106.558903 286.363069 
L 106.558903 285.846447 
L 107.625974 285.846447 
L 107.625974 285.329825 
L 108.632894 285.329825 
L 108.632894 284.296581 
L 108.876002 284.296581 
L 108.876002 283.779959 
L 110.044269 283.779959 
L 110.044269 283.263337 
L 110.710238 283.263337 
L 110.710238 282.746715 
L 112.274045 282.746715 
L 112.274045 281.713471 
L 112.472581 281.713471 
L 112.472581 279.646982 
L 113.055289 279.646982 
L 113.055289 278.613738 
L 114.697393 278.613738 
L 114.697393 278.097116 
L 116.040231 278.097116 
L 116.040231 277.580494 
L 116.518869 277.580494 
L 116.518869 277.063872 
L 117.588221 277.063872 
L 117.588221 276.54725 
L 118.099818 276.54725 
L 118.099818 276.030628 
L 118.597173 276.030628 
L 118.597173 275.514006 
L 119.284493 275.514006 
L 119.284493 274.997384 
L 120.07583 274.997384 
L 120.07583 273.96414 
L 120.204378 273.96414 
L 120.204378 272.930896 
L 120.956831 272.930896 
L 120.956831 272.414274 
L 121.079216 272.414274 
L 121.079216 271.897652 
L 121.737747 271.897652 
L 121.737747 271.38103 
L 122.144519 271.38103 
L 122.144519 270.864408 
L 122.485958 270.864408 
L 122.485958 270.347786 
L 124.458511 270.347786 
L 124.508915 269.314542 
L 124.70912 269.314542 
L 124.70912 268.281298 
L 125.440523 268.281298 
L 125.440523 267.764676 
L 126.189035 267.764676 
L 126.189035 267.248054 
L 126.506901 267.248054 
L 126.506901 266.731432 
L 127.427915 266.731432 
L 127.427915 266.21481 
L 127.766658 266.21481 
L 127.766658 265.698188 
L 128.864703 265.698188 
L 128.864703 265.181566 
L 130.52104 265.181566 
L 130.556956 264.148322 
L 131.937419 264.148322 
L 131.937419 262.081834 
L 132.299068 262.081834 
L 132.299068 260.531968 
L 135.095247 260.531968 
L 135.095247 260.015346 
L 135.453448 260.015346 
L 135.453448 259.498724 
L 136.383597 259.498724 
L 136.383597 258.982102 
L 138.528395 258.982102 
L 138.528395 258.46548 
L 139.791763 258.46548 
L 139.791763 257.948858 
L 140.130907 257.948858 
L 140.130907 257.432236 
L 141.717104 257.432236 
L 141.717104 256.915614 
L 143.120694 256.915614 
L 143.173899 255.88237 
L 144.602749 255.88237 
L 144.602749 254.849126 
L 147.100743 254.849126 
L 147.100743 254.332504 
L 148.59971 254.332504 
L 148.59971 253.815882 
L 149.051438 253.815882 
L 149.127743 252.782638 
L 151.175813 252.782638 
L 151.175813 252.266016 
L 151.961716 252.266016 
L 151.961716 251.232772 
L 152.516142 251.232772 
L 152.516142 250.71615 
L 153.556109 250.71615 
L 153.625307 249.682906 
L 154.340901 249.682906 
L 154.340901 249.166284 
L 154.641687 249.166284 
L 154.641687 248.649662 
L 156.194086 248.649662 
L 156.194086 248.13304 
L 156.566175 248.13304 
L 156.566175 247.616418 
L 162.632021 247.616418 
L 162.632021 247.099796 
L 212.231716 247.099796 
L 212.336111 242.450197 
L 212.344229 242.450197 
L 212.388448 237.800599 
L 212.493398 237.800599 
L 212.568975 234.184245 
L 212.642419 234.184245 
L 212.740841 231.084513 
L 212.76356 231.084513 
L 212.8735 228.501403 
L 212.895693 228.501403 
L 212.924289 224.368427 
L 213.267771 224.368427 
L 213.267771 223.851805 
L 224.619549 223.851805 
L 224.715992 219.718829 
L 224.772762 219.718829 
L 224.874973 216.102475 
L 224.895454 216.102475 
L 224.963497 209.386388 
L 231.859248 209.386388 
L 231.969441 205.253412 
L 232.018948 205.253412 
L 232.078347 200.603814 
L 236.995593 200.603814 
L 237.102057 191.82124 
L 237.10824 191.82124 
L 237.135992 187.688264 
L 240.96452 187.688264 
L 241.073569 179.938934 
L 241.078815 179.938934 
L 241.093143 177.872445 
L 244.236807 177.872445 
L 244.326359 170.123115 
L 246.981404 170.123115 
L 247.062461 163.407029 
L 249.368101 163.407029 
L 249.435342 153.591211 
L 251.466053 153.591211 
L 251.533596 145.841881 
L 253.349829 145.841881 
L 253.403398 140.159038 
L 255.050868 140.159038 
L 255.10322 133.959574 
L 256.607981 133.959574 
L 256.648614 125.693622 
L 258.032773 125.693622 
L 258.075832 116.394426 
L 259.353438 116.394426 
L 259.394042 112.26145 
L 260.58533 112.26145 
L 260.619718 109.161717 
L 261.739764 109.161717 
L 261.769984 104.512119 
L 262.828054 104.512119 
L 262.856119 98.312655 
L 263.845503 98.312655 
L 263.874841 92.113191 
L 264.814212 92.113191 
L 264.834927 89.530081 
L 265.738762 89.530081 
L 265.746102 87.463593 
L 266.602205 87.463593 
L 266.60934 84.363861 
L 267.432654 84.363861 
L 267.448149 80.747507 
L 268.222172 80.747507 
L 268.241102 78.681019 
L 268.980135 78.681019 
L 268.990364 74.548042 
L 269.71484 74.548042 
L 269.732253 70.931688 
L 270.411512 70.931688 
L 270.420853 69.381822 
L 271.08449 69.381822 
L 271.102051 67.831956 
L 271.737264 67.831956 
L 271.750929 64.732224 
L 272.365848 64.732224 
L 272.375991 62.149114 
L 272.968791 62.149114 
L 272.980196 60.599248 
L 273.553551 60.599248 
L 273.564553 58.016138 
L 274.118209 58.016138 
L 274.132726 55.433028 
L 274.675421 55.433028 
L 274.685315 54.399784 
L 275.208312 54.399784 
L 275.215968 51.816674 
L 275.719444 51.816674 
L 275.729934 49.750186 
L 276.223359 49.750186 
L 276.235417 47.683698 
L 276.723263 47.683698 
L 276.723263 47.167076 
L 277.195785 47.167076 
L 277.200004 46.133832 
L 277.652316 46.133832 
L 277.652316 45.61721 
L 279.809451 45.61721 
L 279.809451 45.100588 
L 280.215668 45.100588 
L 280.215668 44.583966 
L 280.611069 44.583966 
L 280.611069 44.067344 
L 281.364788 44.067344 
L 281.364788 43.550722 
L 282.453767 43.550722 
L 282.453767 43.0341 
L 282.793182 43.0341 
L 282.793182 42.517478 
L 283.471322 42.517478 
L 283.474085 41.484233 
L 283.797989 41.484233 
L 283.797989 40.967611 
L 284.750203 40.967611 
L 284.750716 39.934367 
L 285.642733 39.934367 
L 285.64449 38.901123 
L 286.503885 38.901123 
L 286.503885 38.384501 
L 286.784049 38.384501 
L 286.784049 37.867879 
L 288.856084 37.867879 
L 288.856084 37.351257 
L 290.710795 37.351257 
L 290.710795 36.834635 
L 291.575958 36.834635 
L 291.575958 36.318013 
L 291.990938 36.318013 
L 291.990938 35.801391 
L 293.373072 35.801391 
L 293.373072 34.768147 
L 361.113325 34.768147 
L 361.113325 34.768147 
" style="fill:none;stroke:#ff0000;stroke-linecap:square;stroke-width:1.5;"/>
   </g>
   <g id="line2d_45">
    <defs>
     <path d="M -6 6 
L 6 6 
L 6 -6 
L -6 -6 
z
" id="m13adba3a03" style="stroke:#ff0000;stroke-linejoin:miter;stroke-width:1.5;"/>
    </defs>
    <g>
     <use style="fill:none;stroke:#ff0000;stroke-linejoin:miter;stroke-width:1.5;" x="110.044269" xlink:href="#m13adba3a03" y="283.263337"/>
     <use style="fill:none;stroke:#ff0000;stroke-linejoin:miter;stroke-width:1.5;" x="162.632021" xlink:href="#m13adba3a03" y="247.616418"/>
     <use style="fill:none;stroke:#ff0000;stroke-linejoin:miter;stroke-width:1.5;" x="244.326359" xlink:href="#m13adba3a03" y="171.156359"/>
     <use style="fill:none;stroke:#ff0000;stroke-linejoin:miter;stroke-width:1.5;" x="274.685315" xlink:href="#m13adba3a03" y="54.399784"/>
     <use style="fill:none;stroke:#ff0000;stroke-linejoin:miter;stroke-width:1.5;" x="293.373072" xlink:href="#m13adba3a03" y="34.768147"/>
     <use style="fill:none;stroke:#ff0000;stroke-linejoin:miter;stroke-width:1.5;" x="361.113325" xlink:href="#m13adba3a03" y="34.768147"/>
    </g>
   </g>
   <g id="line2d_46"/>
   <g id="line2d_47">
    <path clip-path="url(#p6a8594befe)" d="M 212.185246 247.099796 
" style="fill:none;stroke:#ff0000;stroke-linecap:square;stroke-width:1.5;"/>
    <defs>
     <path d="M -12 12 
L 12 -12 
M -12 -12 
L 12 12 
" id="m3d7122aee1" style="stroke:#ff0000;stroke-width:3;"/>
    </defs>
    <g clip-path="url(#p6a8594befe)">
     <use style="fill:#ff0000;stroke:#ff0000;stroke-width:3;" x="212.185246" xlink:href="#m3d7122aee1" y="247.099796"/>
    </g>
   </g>
   <g id="line2d_48">
    <defs>
     <path d="M 0 1.5 
C 0.397805 1.5 0.77937 1.341951 1.06066 1.06066 
C 1.341951 0.77937 1.5 0.397805 1.5 0 
C 1.5 -0.397805 1.341951 -0.77937 1.06066 -1.06066 
C 0.77937 -1.341951 0.397805 -1.5 0 -1.5 
C -0.397805 -1.5 -0.77937 -1.341951 -1.06066 -1.06066 
C -1.341951 -0.77937 -1.5 -0.397805 -1.5 0 
C -1.5 0.397805 -1.341951 0.77937 -1.06066 1.06066 
C -0.77937 1.341951 -0.397805 1.5 0 1.5 
z
" id="m805a816b07" style="stroke:#bf00bf;"/>
    </defs>
    <g>
     <use style="fill:#bf00bf;stroke:#bf00bf;" x="255.076675" xlink:href="#m805a816b07" y="34.768147"/>
     <use style="fill:#bf00bf;stroke:#bf00bf;" x="255.076675" xlink:href="#m805a816b07" y="34.768147"/>
    </g>
   </g>
   <g id="line2d_49">
    <path d="M 7.2 298.245375 
L 7.2 293.079155 
L 96.611092 293.079155 
L 96.611092 292.045911 
L 98.325004 292.045911 
L 98.325004 291.529289 
L 99.176028 291.529289 
L 99.176028 291.012667 
L 99.88881 291.012667 
L 99.88881 290.496045 
L 100.477923 290.496045 
L 100.477923 289.979423 
L 103.735665 289.979423 
L 103.735665 289.462801 
L 103.895918 289.462801 
L 103.895918 288.946179 
L 104.67631 288.946179 
L 104.67631 288.429557 
L 106.000479 288.429557 
L 106.000479 287.912935 
L 106.558903 287.912935 
L 106.558903 286.363069 
L 106.763894 286.363069 
L 106.763894 285.846447 
L 107.033606 285.846447 
L 107.033606 284.813203 
L 107.299308 284.813203 
L 107.299308 283.779959 
L 107.625974 283.779959 
L 107.625974 283.263337 
L 108.386434 283.263337 
L 108.448368 281.713471 
L 108.571597 281.713471 
L 108.571597 280.163604 
L 109.469682 280.163604 
L 109.469682 278.613738 
L 109.816646 278.613738 
L 109.816646 277.580494 
L 111.087558 277.580494 
L 111.087558 277.063872 
L 111.819103 277.063872 
L 111.819103 276.54725 
L 111.972041 276.54725 
L 111.972041 276.030628 
L 112.521873 276.030628 
L 112.521873 275.514006 
L 113.198044 275.514006 
L 113.292585 274.480762 
L 113.619592 274.480762 
L 113.619592 273.96414 
L 113.895198 273.96414 
L 113.895198 273.447518 
L 114.121667 273.447518 
L 114.121667 272.930896 
L 115.33943 272.930896 
L 115.33943 271.897652 
L 117.061544 271.897652 
L 117.061544 271.38103 
L 117.401899 271.38103 
L 117.439319 270.347786 
L 117.809273 270.347786 
L 117.809273 269.831164 
L 117.955136 269.831164 
L 117.955136 268.79792 
L 118.171722 268.79792 
L 118.171722 268.281298 
L 119.149128 268.281298 
L 119.149128 267.764676 
L 119.684542 267.764676 
L 119.684542 267.248054 
L 119.815926 267.248054 
L 119.815926 266.21481 
L 120.584565 266.21481 
L 120.584565 265.698188 
L 120.833602 265.698188 
L 120.833602 264.664944 
L 121.796427 264.664944 
L 121.796427 264.148322 
L 122.05813 264.148322 
L 122.144519 262.081834 
L 123.095472 262.081834 
L 123.095472 261.565212 
L 123.258157 261.565212 
L 123.338948 260.015346 
L 123.632093 260.015346 
L 123.632093 259.498724 
L 124.808388 259.498724 
L 124.808388 258.982102 
L 125.464395 258.982102 
L 125.464395 258.46548 
L 125.701376 258.46548 
L 125.701376 257.948858 
L 126.506901 257.948858 
L 126.551852 256.398992 
L 126.774927 256.398992 
L 126.885429 254.332504 
L 127.038993 254.332504 
L 127.126155 252.266016 
L 127.234512 252.266016 
L 127.234512 251.749394 
L 127.640381 251.749394 
L 127.661489 250.71615 
L 127.954415 250.71615 
L 127.954415 250.199528 
L 128.60646 250.199528 
L 128.60646 249.682906 
L 129.099813 249.682906 
L 129.177501 248.13304 
L 129.712057 248.13304 
L 129.712057 247.099796 
L 129.843234 247.099796 
L 129.843234 246.583173 
L 131.346544 246.583173 
L 131.346544 246.066551 
L 131.635982 246.066551 
L 131.635982 245.549929 
L 131.920805 245.549929 
L 131.920805 244.000063 
L 132.18479 244.000063 
L 132.18479 243.483441 
L 132.605616 243.483441 
L 132.605616 242.966819 
L 133.218837 242.966819 
L 133.218837 241.933575 
L 133.403363 241.933575 
L 133.449198 239.350465 
L 133.766795 239.350465 
L 133.766795 238.833843 
L 133.930929 238.833843 
L 133.930929 237.283977 
L 134.515384 237.283977 
L 134.515384 236.250733 
L 134.800595 236.250733 
L 134.800595 235.217489 
L 135.467082 235.217489 
L 135.507924 234.184245 
L 135.61638 234.184245 
L 135.61638 233.667623 
L 136.109601 233.667623 
L 136.109601 233.151001 
L 136.969489 233.151001 
L 136.969489 232.117757 
L 137.267712 232.117757 
L 137.267712 231.601135 
L 137.753949 231.601135 
L 137.753949 231.084513 
L 137.909169 231.084513 
L 137.909169 230.567891 
L 138.157096 230.567891 
L 138.250646 229.534647 
L 138.273958 229.534647 
L 138.3669 227.984781 
L 139.149074 227.984781 
L 139.149074 227.468159 
L 139.467861 227.468159 
L 139.467861 226.951537 
L 139.80246 226.951537 
L 139.80246 226.434915 
L 140.204245 226.434915 
L 140.204245 225.401671 
L 140.36039 225.401671 
L 140.36039 224.885049 
L 140.749957 224.885049 
L 140.749957 224.368427 
L 140.871234 224.368427 
L 140.871234 223.851805 
L 141.021683 223.851805 
L 141.021683 223.335183 
L 141.377672 223.335183 
L 141.377672 222.818561 
L 141.553042 222.818561 
L 141.553042 221.785317 
L 142.367955 221.785317 
L 142.367955 220.752073 
L 142.570585 220.752073 
L 142.570585 220.235451 
L 142.798091 220.235451 
L 142.798091 219.718829 
L 143.102924 219.718829 
L 143.102924 219.202207 
L 143.559305 219.202207 
L 143.662989 217.135719 
L 144.553639 217.135719 
L 144.61909 215.585853 
L 144.773582 215.585853 
L 144.773582 214.552609 
L 145.252863 214.552609 
L 145.300091 211.452876 
L 146.016606 211.452876 
L 146.016606 210.419632 
L 146.478803 210.419632 
L 146.478803 209.386388 
L 146.785246 209.386388 
L 146.785246 208.353144 
L 146.922167 208.353144 
L 146.922167 207.836522 
L 147.12915 207.836522 
L 147.12915 207.3199 
L 147.256426 207.3199 
L 147.256426 206.803278 
L 147.494391 206.803278 
L 147.494391 206.286656 
L 148.395952 206.286656 
L 148.422374 203.186924 
L 148.580093 203.186924 
L 148.580093 202.670302 
L 148.820548 202.670302 
L 148.852795 201.120436 
L 149.310813 201.120436 
L 149.310813 200.087192 
L 149.787986 200.087192 
L 149.787986 199.053948 
L 150.282511 199.053948 
L 150.282511 198.537326 
L 150.418797 198.537326 
L 150.460069 196.470838 
L 150.699914 196.470838 
L 150.699914 195.954216 
L 150.815753 195.954216 
L 150.884897 194.40435 
L 150.976676 194.40435 
L 150.976676 193.887728 
L 151.198431 193.887728 
L 151.198431 193.371106 
L 151.639366 193.371106 
L 151.716384 190.787996 
L 151.874872 190.787996 
L 151.880313 189.23813 
L 152.230415 189.23813 
L 152.241079 188.204886 
L 152.352672 188.204886 
L 152.352672 187.688264 
L 152.724884 187.688264 
L 152.724884 187.171642 
L 152.864418 187.171642 
L 152.864418 186.138398 
L 153.341878 186.138398 
L 153.341878 185.621776 
L 153.605564 185.621776 
L 153.699153 183.555288 
L 153.797141 183.555288 
L 153.797141 182.522044 
L 154.355114 182.522044 
L 154.45429 181.4888 
L 154.664974 181.4888 
L 154.664974 180.972178 
L 154.932908 180.972178 
L 155.019813 177.872445 
L 155.156177 177.872445 
L 155.156177 176.839201 
L 155.514807 176.839201 
L 155.514807 176.322579 
L 155.822809 176.322579 
L 155.9272 175.289335 
L 156.168432 175.289335 
L 156.168432 174.772713 
L 156.691274 174.772713 
L 156.691274 173.739469 
L 156.959352 173.739469 
L 156.959352 173.222847 
L 212.241923 173.222847 
L 212.332419 168.056627 
L 212.353819 168.056627 
L 212.452922 163.923651 
L 212.465019 163.923651 
L 212.565513 153.591211 
L 212.591185 153.591211 
L 212.694592 147.391747 
L 212.706889 147.391747 
L 212.80208 139.642416 
L 212.819692 139.642416 
L 212.922682 130.34322 
L 212.931252 130.34322 
L 212.979564 128.793354 
L 224.624931 128.793354 
L 224.736011 114.84456 
L 224.740989 114.84456 
L 224.850437 103.478875 
L 224.869757 103.478875 
L 224.966046 94.179679 
L 231.857082 94.179679 
L 231.961751 83.847239 
L 231.972762 83.847239 
L 232.067523 71.964932 
L 236.986955 71.964932 
L 237.095825 62.665736 
L 237.105887 62.665736 
L 237.131569 58.53276 
L 240.977268 58.53276 
L 241.085021 52.333296 
L 241.095395 52.333296 
L 241.095395 51.816674 
L 244.247391 51.816674 
L 244.320197 45.61721 
L 246.98005 45.61721 
L 247.059422 41.484233 
L 249.367985 41.484233 
L 249.432356 37.351257 
L 251.485625 37.351257 
L 251.510863 36.318013 
L 253.359363 36.318013 
L 253.399431 35.284769 
L 255.076675 35.284769 
L 255.076675 34.768147 
L 361.113325 34.768147 
L 361.113325 34.768147 
" style="fill:none;stroke:#bf00bf;stroke-linecap:square;stroke-width:1.5;"/>
   </g>
   <g id="line2d_50">
    <defs>
     <path d="M -0 8.485281 
L 8.485281 0 
L 0 -8.485281 
L -8.485281 -0 
z
" id="m15fcd180a0" style="stroke:#bf00bf;stroke-linejoin:miter;stroke-width:1.5;"/>
    </defs>
    <g>
     <use style="fill:none;stroke:#bf00bf;stroke-linejoin:miter;stroke-width:1.5;" x="131.635982" xlink:href="#m15fcd180a0" y="245.549929"/>
     <use style="fill:none;stroke:#bf00bf;stroke-linejoin:miter;stroke-width:1.5;" x="156.959352" xlink:href="#m15fcd180a0" y="173.222847"/>
     <use style="fill:none;stroke:#bf00bf;stroke-linejoin:miter;stroke-width:1.5;" x="244.261401" xlink:href="#m15fcd180a0" y="50.78343"/>
     <use style="fill:none;stroke:#bf00bf;stroke-linejoin:miter;stroke-width:1.5;" x="255.076675" xlink:href="#m15fcd180a0" y="34.768147"/>
     <use style="fill:none;stroke:#bf00bf;stroke-linejoin:miter;stroke-width:1.5;" x="255.076675" xlink:href="#m15fcd180a0" y="34.768147"/>
     <use style="fill:none;stroke:#bf00bf;stroke-linejoin:miter;stroke-width:1.5;" x="361.113325" xlink:href="#m15fcd180a0" y="34.768147"/>
    </g>
   </g>
   <g id="line2d_51"/>
   <g id="line2d_52">
    <path clip-path="url(#p6a8594befe)" d="M 212.18506 173.222847 
" style="fill:none;stroke:#bf00bf;stroke-linecap:square;stroke-width:1.5;"/>
    <defs>
     <path d="M -12 12 
L 12 -12 
M -12 -12 
L 12 12 
" id="m55c9058ba4" style="stroke:#bf00bf;stroke-width:3;"/>
    </defs>
    <g clip-path="url(#p6a8594befe)">
     <use style="fill:#bf00bf;stroke:#bf00bf;stroke-width:3;" x="212.18506" xlink:href="#m55c9058ba4" y="173.222847"/>
    </g>
   </g>
   <g id="line2d_53">
    <path d="M 361.113325 34.768147 
L 392.793325 292.97583 
" style="fill:none;stroke:#ff0000;stroke-linecap:square;stroke-width:1.5;"/>
    <g>
     <use style="fill:none;stroke:#ff0000;stroke-linejoin:miter;stroke-width:1.5;" x="361.113325" xlink:href="#m13adba3a03" y="34.768147"/>
     <use style="fill:none;stroke:#ff0000;stroke-linejoin:miter;stroke-width:1.5;" x="392.793325" xlink:href="#m13adba3a03" y="292.97583"/>
    </g>
   </g>
   <g id="line2d_54">
    <path d="M 361.113325 34.768147 
L 392.793325 242.388203 
" style="fill:none;stroke:#000000;stroke-linecap:square;stroke-width:1.5;"/>
    <g>
     <use style="fill:none;stroke:#000000;stroke-width:1.5;" x="361.113325" xlink:href="#m8917196c52" y="34.768147"/>
     <use style="fill:none;stroke:#000000;stroke-width:1.5;" x="392.793325" xlink:href="#m8917196c52" y="242.388203"/>
    </g>
   </g>
   <g id="line2d_55">
    <path d="M 361.113325 34.768147 
L 392.793325 191.800575 
" style="fill:none;stroke:#0000ff;stroke-linecap:square;stroke-width:1.5;"/>
    <g>
     <use style="fill:none;stroke:#0000ff;stroke-linejoin:bevel;stroke-width:1.5;" x="361.113325" xlink:href="#m8bd709358d" y="34.768147"/>
     <use style="fill:none;stroke:#0000ff;stroke-linejoin:bevel;stroke-width:1.5;" x="392.793325" xlink:href="#m8bd709358d" y="191.800575"/>
    </g>
   </g>
   <g id="line2d_56">
    <path d="M 361.113325 34.768147 
L 392.793325 141.212947 
" style="fill:none;stroke:#008000;stroke-linecap:square;stroke-width:1.5;"/>
    <g>
     <use style="fill:none;stroke:#008000;stroke-linejoin:miter;stroke-width:1.5;" x="361.113325" xlink:href="#m8e08650243" y="34.768147"/>
     <use style="fill:none;stroke:#008000;stroke-linejoin:miter;stroke-width:1.5;" x="392.793325" xlink:href="#m8e08650243" y="141.212947"/>
    </g>
   </g>
   <g id="line2d_57">
    <path d="M 361.113325 34.768147 
L 392.793325 90.62532 
" style="fill:none;stroke:#00bfbf;stroke-linecap:square;stroke-width:1.5;"/>
    <g>
     <use style="fill:none;stroke:#00bfbf;stroke-width:1.5;" x="361.113325" xlink:href="#m06c4467c21" y="34.768147"/>
     <use style="fill:none;stroke:#00bfbf;stroke-width:1.5;" x="392.793325" xlink:href="#m06c4467c21" y="90.62532"/>
    </g>
   </g>
   <g id="line2d_58">
    <path d="M 361.113325 34.768147 
L 392.793325 40.037692 
" style="fill:none;stroke:#bf00bf;stroke-linecap:square;stroke-width:1.5;"/>
    <g>
     <use style="fill:none;stroke:#bf00bf;stroke-linejoin:miter;stroke-width:1.5;" x="361.113325" xlink:href="#m15fcd180a0" y="34.768147"/>
     <use style="fill:none;stroke:#bf00bf;stroke-linejoin:miter;stroke-width:1.5;" x="392.793325" xlink:href="#m15fcd180a0" y="40.037692"/>
    </g>
   </g>
   <g id="line2d_59">
    <path d="M 361.113325 298.245375 
L 361.113325 34.768147 
" style="fill:none;stroke:#000000;stroke-linecap:square;stroke-width:1.5;"/>
   </g>
   <g id="patch_3">
    <path d="M 73.113325 298.245375 
L 73.113325 32.133375 
" style="fill:none;stroke:#000000;stroke-linecap:square;stroke-linejoin:miter;stroke-width:0.8;"/>
   </g>
   <g id="patch_4">
    <path d="M 430.233325 298.245375 
L 430.233325 32.133375 
" style="fill:none;stroke:#000000;stroke-linecap:square;stroke-linejoin:miter;stroke-width:0.8;"/>
   </g>
   <g id="patch_5">
    <path d="M 73.113325 298.245375 
L 430.233325 298.245375 
" style="fill:none;stroke:#000000;stroke-linecap:square;stroke-linejoin:miter;stroke-width:0.8;"/>
   </g>
   <g id="patch_6">
    <path d="M 73.113325 32.133375 
L 430.233325 32.133375 
" style="fill:none;stroke:#000000;stroke-linecap:square;stroke-linejoin:miter;stroke-width:0.8;"/>
   </g>
   <g id="text_14">
    <!-- 20-D -->
    <defs>
     <path d="M 19.671875 64.796875 
L 19.671875 8.109375 
L 31.59375 8.109375 
Q 46.6875 8.109375 53.6875 14.9375 
Q 60.6875 21.78125 60.6875 36.53125 
Q 60.6875 51.171875 53.6875 57.984375 
Q 46.6875 64.796875 31.59375 64.796875 
z
M 9.8125 72.90625 
L 30.078125 72.90625 
Q 51.265625 72.90625 61.171875 64.09375 
Q 71.09375 55.28125 71.09375 36.53125 
Q 71.09375 17.671875 61.125 8.828125 
Q 51.171875 0 30.078125 0 
L 9.8125 0 
z
" id="DejaVuSans-44"/>
    </defs>
    <g transform="translate(398.553325 297.114893)scale(0.15 -0.15)">
     <use xlink:href="#DejaVuSans-32"/>
     <use x="63.623047" xlink:href="#DejaVuSans-30"/>
     <use x="127.246094" xlink:href="#DejaVuSans-2d"/>
     <use x="163.330078" xlink:href="#DejaVuSans-44"/>
    </g>
   </g>
   <g id="text_15">
    <!-- 10-D -->
    <g transform="translate(398.553325 246.527265)scale(0.15 -0.15)">
     <use xlink:href="#DejaVuSans-31"/>
     <use x="63.623047" xlink:href="#DejaVuSans-30"/>
     <use x="127.246094" xlink:href="#DejaVuSans-2d"/>
     <use x="163.330078" xlink:href="#DejaVuSans-44"/>
    </g>
   </g>
   <g id="text_16">
    <!-- 5-D -->
    <defs>
     <path d="M 10.796875 72.90625 
L 49.515625 72.90625 
L 49.515625 64.59375 
L 19.828125 64.59375 
L 19.828125 46.734375 
Q 21.96875 47.46875 24.109375 47.828125 
Q 26.265625 48.1875 28.421875 48.1875 
Q 40.625 48.1875 47.75 41.5 
Q 54.890625 34.8125 54.890625 23.390625 
Q 54.890625 11.625 47.5625 5.09375 
Q 40.234375 -1.421875 26.90625 -1.421875 
Q 22.3125 -1.421875 17.546875 -0.640625 
Q 12.796875 0.140625 7.71875 1.703125 
L 7.71875 11.625 
Q 12.109375 9.234375 16.796875 8.0625 
Q 21.484375 6.890625 26.703125 6.890625 
Q 35.15625 6.890625 40.078125 11.328125 
Q 45.015625 15.765625 45.015625 23.390625 
Q 45.015625 31 40.078125 35.4375 
Q 35.15625 39.890625 26.703125 39.890625 
Q 22.75 39.890625 18.8125 39.015625 
Q 14.890625 38.140625 10.796875 36.28125 
z
" id="DejaVuSans-35"/>
    </defs>
    <g transform="translate(398.553325 195.939637)scale(0.15 -0.15)">
     <use xlink:href="#DejaVuSans-35"/>
     <use x="63.623047" xlink:href="#DejaVuSans-2d"/>
     <use x="99.707031" xlink:href="#DejaVuSans-44"/>
    </g>
   </g>
   <g id="text_17">
    <!-- 3-D -->
    <defs>
     <path d="M 40.578125 39.3125 
Q 47.65625 37.796875 51.625 33 
Q 55.609375 28.21875 55.609375 21.1875 
Q 55.609375 10.40625 48.1875 4.484375 
Q 40.765625 -1.421875 27.09375 -1.421875 
Q 22.515625 -1.421875 17.65625 -0.515625 
Q 12.796875 0.390625 7.625 2.203125 
L 7.625 11.71875 
Q 11.71875 9.328125 16.59375 8.109375 
Q 21.484375 6.890625 26.8125 6.890625 
Q 36.078125 6.890625 40.9375 10.546875 
Q 45.796875 14.203125 45.796875 21.1875 
Q 45.796875 27.640625 41.28125 31.265625 
Q 36.765625 34.90625 28.71875 34.90625 
L 20.21875 34.90625 
L 20.21875 43.015625 
L 29.109375 43.015625 
Q 36.375 43.015625 40.234375 45.921875 
Q 44.09375 48.828125 44.09375 54.296875 
Q 44.09375 59.90625 40.109375 62.90625 
Q 36.140625 65.921875 28.71875 65.921875 
Q 24.65625 65.921875 20.015625 65.03125 
Q 15.375 64.15625 9.8125 62.3125 
L 9.8125 71.09375 
Q 15.4375 72.65625 20.34375 73.4375 
Q 25.25 74.21875 29.59375 74.21875 
Q 40.828125 74.21875 47.359375 69.109375 
Q 53.90625 64.015625 53.90625 55.328125 
Q 53.90625 49.265625 50.4375 45.09375 
Q 46.96875 40.921875 40.578125 39.3125 
z
" id="DejaVuSans-33"/>
    </defs>
    <g transform="translate(398.553325 145.35201)scale(0.15 -0.15)">
     <use xlink:href="#DejaVuSans-33"/>
     <use x="63.623047" xlink:href="#DejaVuSans-2d"/>
     <use x="99.707031" xlink:href="#DejaVuSans-44"/>
    </g>
   </g>
   <g id="text_18">
    <!-- 2-D -->
    <g transform="translate(398.553325 94.764382)scale(0.15 -0.15)">
     <use xlink:href="#DejaVuSans-32"/>
     <use x="63.623047" xlink:href="#DejaVuSans-2d"/>
     <use x="99.707031" xlink:href="#DejaVuSans-44"/>
    </g>
   </g>
   <g id="text_19">
    <!-- 40-D -->
    <g transform="translate(398.553325 44.176754)scale(0.15 -0.15)">
     <use xlink:href="#DejaVuSans-34"/>
     <use x="63.623047" xlink:href="#DejaVuSans-30"/>
     <use x="127.246094" xlink:href="#DejaVuSans-2d"/>
     <use x="163.330078" xlink:href="#DejaVuSans-44"/>
    </g>
   </g>
   <g id="text_20">
    <!-- bbob - f21 -->
    <defs>
     <path d="M 48.6875 27.296875 
Q 48.6875 37.203125 44.609375 42.84375 
Q 40.53125 48.484375 33.40625 48.484375 
Q 26.265625 48.484375 22.1875 42.84375 
Q 18.109375 37.203125 18.109375 27.296875 
Q 18.109375 17.390625 22.1875 11.75 
Q 26.265625 6.109375 33.40625 6.109375 
Q 40.53125 6.109375 44.609375 11.75 
Q 48.6875 17.390625 48.6875 27.296875 
z
M 18.109375 46.390625 
Q 20.953125 51.265625 25.265625 53.625 
Q 29.59375 56 35.59375 56 
Q 45.5625 56 51.78125 48.09375 
Q 58.015625 40.1875 58.015625 27.296875 
Q 58.015625 14.40625 51.78125 6.484375 
Q 45.5625 -1.421875 35.59375 -1.421875 
Q 29.59375 -1.421875 25.265625 0.953125 
Q 20.953125 3.328125 18.109375 8.203125 
L 18.109375 0 
L 9.078125 0 
L 9.078125 75.984375 
L 18.109375 75.984375 
z
" id="DejaVuSans-62"/>
    </defs>
    <g transform="translate(76.684525 50.114612)scale(0.1666 -0.1666)">
     <use xlink:href="#DejaVuSans-62"/>
     <use x="63.476562" xlink:href="#DejaVuSans-62"/>
     <use x="126.953125" xlink:href="#DejaVuSans-6f"/>
     <use x="188.134766" xlink:href="#DejaVuSans-62"/>
     <use x="251.611328" xlink:href="#DejaVuSans-20"/>
     <use x="283.398438" xlink:href="#DejaVuSans-2d"/>
     <use x="319.482422" xlink:href="#DejaVuSans-20"/>
     <use x="351.269531" xlink:href="#DejaVuSans-66"/>
     <use x="386.474609" xlink:href="#DejaVuSans-32"/>
     <use x="450.097656" xlink:href="#DejaVuSans-31"/>
    </g>
    <!-- 51 targets in 100..1e-08 -->
    <g transform="translate(76.684525 68.770168)scale(0.1666 -0.1666)">
     <use xlink:href="#DejaVuSans-35"/>
     <use x="63.623047" xlink:href="#DejaVuSans-31"/>
     <use x="127.246094" xlink:href="#DejaVuSans-20"/>
     <use x="159.033203" xlink:href="#DejaVuSans-74"/>
     <use x="198.242188" xlink:href="#DejaVuSans-61"/>
     <use x="259.521484" xlink:href="#DejaVuSans-72"/>
     <use x="300.619141" xlink:href="#DejaVuSans-67"/>
     <use x="364.095703" xlink:href="#DejaVuSans-65"/>
     <use x="425.619141" xlink:href="#DejaVuSans-74"/>
     <use x="464.828125" xlink:href="#DejaVuSans-73"/>
     <use x="516.927734" xlink:href="#DejaVuSans-20"/>
     <use x="548.714844" xlink:href="#DejaVuSans-69"/>
     <use x="576.498047" xlink:href="#DejaVuSans-6e"/>
     <use x="639.876953" xlink:href="#DejaVuSans-20"/>
     <use x="671.664062" xlink:href="#DejaVuSans-31"/>
     <use x="735.287109" xlink:href="#DejaVuSans-30"/>
     <use x="798.910156" xlink:href="#DejaVuSans-30"/>
     <use x="862.533203" xlink:href="#DejaVuSans-2e"/>
     <use x="894.320312" xlink:href="#DejaVuSans-2e"/>
     <use x="926.107422" xlink:href="#DejaVuSans-31"/>
     <use x="989.730469" xlink:href="#DejaVuSans-65"/>
     <use x="1051.253906" xlink:href="#DejaVuSans-2d"/>
     <use x="1087.337891" xlink:href="#DejaVuSans-30"/>
     <use x="1150.960938" xlink:href="#DejaVuSans-38"/>
    </g>
    <!-- 15 instances -->
    <g transform="translate(76.684525 87.425723)scale(0.1666 -0.1666)">
     <use xlink:href="#DejaVuSans-31"/>
     <use x="63.623047" xlink:href="#DejaVuSans-35"/>
     <use x="127.246094" xlink:href="#DejaVuSans-20"/>
     <use x="159.033203" xlink:href="#DejaVuSans-69"/>
     <use x="186.816406" xlink:href="#DejaVuSans-6e"/>
     <use x="250.195312" xlink:href="#DejaVuSans-73"/>
     <use x="302.294922" xlink:href="#DejaVuSans-74"/>
     <use x="341.503906" xlink:href="#DejaVuSans-61"/>
     <use x="402.783203" xlink:href="#DejaVuSans-6e"/>
     <use x="466.162109" xlink:href="#DejaVuSans-63"/>
     <use x="521.142578" xlink:href="#DejaVuSans-65"/>
     <use x="582.666016" xlink:href="#DejaVuSans-73"/>
    </g>
   </g>
   <g id="text_21">
    <!-- v2.1 -->
    <g style="fill:#808080;" transform="translate(240.762388 293.504568)scale(0.1 -0.1)">
     <use xlink:href="#DejaVuSans-76"/>
     <use x="59.179688" xlink:href="#DejaVuSans-32"/>
     <use x="122.802734" xlink:href="#DejaVuSans-2e"/>
     <use x="154.589844" xlink:href="#DejaVuSans-31"/>
    </g>
   </g>
   <g id="text_22">
    <!-- 21 Gallagher 101 peaks -->
    <defs>
     <path d="M 59.515625 10.40625 
L 59.515625 29.984375 
L 43.40625 29.984375 
L 43.40625 38.09375 
L 69.28125 38.09375 
L 69.28125 6.78125 
Q 63.578125 2.734375 56.6875 0.65625 
Q 49.8125 -1.421875 42 -1.421875 
Q 24.90625 -1.421875 15.25 8.5625 
Q 5.609375 18.5625 5.609375 36.375 
Q 5.609375 54.25 15.25 64.234375 
Q 24.90625 74.21875 42 74.21875 
Q 49.125 74.21875 55.546875 72.453125 
Q 61.96875 70.703125 67.390625 67.28125 
L 67.390625 56.78125 
Q 61.921875 61.421875 55.765625 63.765625 
Q 49.609375 66.109375 42.828125 66.109375 
Q 29.4375 66.109375 22.71875 58.640625 
Q 16.015625 51.171875 16.015625 36.375 
Q 16.015625 21.625 22.71875 14.15625 
Q 29.4375 6.6875 42.828125 6.6875 
Q 48.046875 6.6875 52.140625 7.59375 
Q 56.25 8.5 59.515625 10.40625 
z
" id="DejaVuSans-47"/>
     <path d="M 54.890625 33.015625 
L 54.890625 0 
L 45.90625 0 
L 45.90625 32.71875 
Q 45.90625 40.484375 42.875 44.328125 
Q 39.84375 48.1875 33.796875 48.1875 
Q 26.515625 48.1875 22.3125 43.546875 
Q 18.109375 38.921875 18.109375 30.90625 
L 18.109375 0 
L 9.078125 0 
L 9.078125 75.984375 
L 18.109375 75.984375 
L 18.109375 46.1875 
Q 21.34375 51.125 25.703125 53.5625 
Q 30.078125 56 35.796875 56 
Q 45.21875 56 50.046875 50.171875 
Q 54.890625 44.34375 54.890625 33.015625 
z
" id="DejaVuSans-68"/>
     <path d="M 9.078125 75.984375 
L 18.109375 75.984375 
L 18.109375 31.109375 
L 44.921875 54.6875 
L 56.390625 54.6875 
L 27.390625 29.109375 
L 57.625 0 
L 45.90625 0 
L 18.109375 26.703125 
L 18.109375 0 
L 9.078125 0 
z
" id="DejaVuSans-6b"/>
    </defs>
    <g transform="translate(108.288325 26.133375)scale(0.24 -0.24)">
     <use xlink:href="#DejaVuSans-32"/>
     <use x="63.623047" xlink:href="#DejaVuSans-31"/>
     <use x="127.246094" xlink:href="#DejaVuSans-20"/>
     <use x="159.033203" xlink:href="#DejaVuSans-47"/>
     <use x="236.523438" xlink:href="#DejaVuSans-61"/>
     <use x="297.802734" xlink:href="#DejaVuSans-6c"/>
     <use x="325.585938" xlink:href="#DejaVuSans-6c"/>
     <use x="353.369141" xlink:href="#DejaVuSans-61"/>
     <use x="414.648438" xlink:href="#DejaVuSans-67"/>
     <use x="478.125" xlink:href="#DejaVuSans-68"/>
     <use x="541.503906" xlink:href="#DejaVuSans-65"/>
     <use x="603.027344" xlink:href="#DejaVuSans-72"/>
     <use x="644.140625" xlink:href="#DejaVuSans-20"/>
     <use x="675.927734" xlink:href="#DejaVuSans-31"/>
     <use x="739.550781" xlink:href="#DejaVuSans-30"/>
     <use x="803.173828" xlink:href="#DejaVuSans-31"/>
     <use x="866.796875" xlink:href="#DejaVuSans-20"/>
     <use x="898.583984" xlink:href="#DejaVuSans-70"/>
     <use x="962.060547" xlink:href="#DejaVuSans-65"/>
     <use x="1023.583984" xlink:href="#DejaVuSans-61"/>
     <use x="1084.863281" xlink:href="#DejaVuSans-6b"/>
     <use x="1142.773438" xlink:href="#DejaVuSans-73"/>
    </g>
   </g>
  </g>
 </g>
 <defs>
  <clipPath id="p6a8594befe">
   <rect height="266.112" width="357.12" x="73.113325" y="32.133375"/>
  </clipPath>
 </defs>
</svg>
