<?xml version="1.0" encoding="utf-8" standalone="no"?>
<!DOCTYPE svg PUBLIC "-//W3C//DTD SVG 1.1//EN"
  "http://www.w3.org/Graphics/SVG/1.1/DTD/svg11.dtd">
<!-- Created with matplotlib (http://matplotlib.org/) -->
<svg height="353pt" version="1.1" viewBox="0 0 438 353" width="438pt" xmlns="http://www.w3.org/2000/svg" xmlns:xlink="http://www.w3.org/1999/xlink">
 <defs>
  <style type="text/css">
*{stroke-linecap:butt;stroke-linejoin:round;}
  </style>
 </defs>
 <g id="figure_1">
  <g id="patch_1">
   <path d="M 0 353.22225 
L 438.62 353.22225 
L 438.62 0 
L 0 0 
z
" style="fill:#ffffff;"/>
  </g>
  <g id="axes_1">
   <g id="patch_2">
    <path d="M 70.8 298.245375 
L 427.92 298.245375 
L 427.92 32.133375 
L 70.8 32.133375 
z
" style="fill:#ffffff;"/>
   </g>
   <g id="matplotlib.axis_1">
    <g id="xtick_1">
     <g id="line2d_1">
      <path clip-path="url(#paccbc62825)" d="M 70.8 298.245375 
L 70.8 32.133375 
" style="fill:none;stroke:#b0b0b0;stroke-linecap:square;stroke-width:0.8;"/>
     </g>
     <g id="line2d_2">
      <defs>
       <path d="M 0 0 
L 0 3.5 
" id="m7b63b48d1c" style="stroke:#000000;stroke-width:0.8;"/>
      </defs>
      <g>
       <use style="stroke:#000000;stroke-width:0.8;" x="70.8" xlink:href="#m7b63b48d1c" y="298.245375"/>
      </g>
     </g>
     <g id="text_1">
      <!-- 0 -->
      <defs>
       <path d="M 31.78125 66.40625 
Q 24.171875 66.40625 20.328125 58.90625 
Q 16.5 51.421875 16.5 36.375 
Q 16.5 21.390625 20.328125 13.890625 
Q 24.171875 6.390625 31.78125 6.390625 
Q 39.453125 6.390625 43.28125 13.890625 
Q 47.125 21.390625 47.125 36.375 
Q 47.125 51.421875 43.28125 58.90625 
Q 39.453125 66.40625 31.78125 66.40625 
z
M 31.78125 74.21875 
Q 44.046875 74.21875 50.515625 64.515625 
Q 56.984375 54.828125 56.984375 36.375 
Q 56.984375 17.96875 50.515625 8.265625 
Q 44.046875 -1.421875 31.78125 -1.421875 
Q 19.53125 -1.421875 13.0625 8.265625 
Q 6.59375 17.96875 6.59375 36.375 
Q 6.59375 54.828125 13.0625 64.515625 
Q 19.53125 74.21875 31.78125 74.21875 
z
" id="DejaVuSans-30"/>
      </defs>
      <g transform="translate(64.4375 320.44225)scale(0.2 -0.2)">
       <use xlink:href="#DejaVuSans-30"/>
      </g>
     </g>
    </g>
    <g id="xtick_2">
     <g id="line2d_3">
      <path clip-path="url(#paccbc62825)" d="M 153.085714 298.245375 
L 153.085714 32.133375 
" style="fill:none;stroke:#b0b0b0;stroke-linecap:square;stroke-width:0.8;"/>
     </g>
     <g id="line2d_4">
      <g>
       <use style="stroke:#000000;stroke-width:0.8;" x="153.085714" xlink:href="#m7b63b48d1c" y="298.245375"/>
      </g>
     </g>
     <g id="text_2">
      <!-- 2 -->
      <defs>
       <path d="M 19.1875 8.296875 
L 53.609375 8.296875 
L 53.609375 0 
L 7.328125 0 
L 7.328125 8.296875 
Q 12.9375 14.109375 22.625 23.890625 
Q 32.328125 33.6875 34.8125 36.53125 
Q 39.546875 41.84375 41.421875 45.53125 
Q 43.3125 49.21875 43.3125 52.78125 
Q 43.3125 58.59375 39.234375 62.25 
Q 35.15625 65.921875 28.609375 65.921875 
Q 23.96875 65.921875 18.8125 64.3125 
Q 13.671875 62.703125 7.8125 59.421875 
L 7.8125 69.390625 
Q 13.765625 71.78125 18.9375 73 
Q 24.125 74.21875 28.421875 74.21875 
Q 39.75 74.21875 46.484375 68.546875 
Q 53.21875 62.890625 53.21875 53.421875 
Q 53.21875 48.921875 51.53125 44.890625 
Q 49.859375 40.875 45.40625 35.40625 
Q 44.1875 33.984375 37.640625 27.21875 
Q 31.109375 20.453125 19.1875 8.296875 
z
" id="DejaVuSans-32"/>
      </defs>
      <g transform="translate(146.723214 320.44225)scale(0.2 -0.2)">
       <use xlink:href="#DejaVuSans-32"/>
      </g>
     </g>
    </g>
    <g id="xtick_3">
     <g id="line2d_5">
      <path clip-path="url(#paccbc62825)" d="M 235.371429 298.245375 
L 235.371429 32.133375 
" style="fill:none;stroke:#b0b0b0;stroke-linecap:square;stroke-width:0.8;"/>
     </g>
     <g id="line2d_6">
      <g>
       <use style="stroke:#000000;stroke-width:0.8;" x="235.371429" xlink:href="#m7b63b48d1c" y="298.245375"/>
      </g>
     </g>
     <g id="text_3">
      <!-- 4 -->
      <defs>
       <path d="M 37.796875 64.3125 
L 12.890625 25.390625 
L 37.796875 25.390625 
z
M 35.203125 72.90625 
L 47.609375 72.90625 
L 47.609375 25.390625 
L 58.015625 25.390625 
L 58.015625 17.1875 
L 47.609375 17.1875 
L 47.609375 0 
L 37.796875 0 
L 37.796875 17.1875 
L 4.890625 17.1875 
L 4.890625 26.703125 
z
" id="DejaVuSans-34"/>
      </defs>
      <g transform="translate(229.008929 320.44225)scale(0.2 -0.2)">
       <use xlink:href="#DejaVuSans-34"/>
      </g>
     </g>
    </g>
    <g id="xtick_4">
     <g id="line2d_7">
      <path clip-path="url(#paccbc62825)" d="M 317.657143 298.245375 
L 317.657143 32.133375 
" style="fill:none;stroke:#b0b0b0;stroke-linecap:square;stroke-width:0.8;"/>
     </g>
     <g id="line2d_8">
      <g>
       <use style="stroke:#000000;stroke-width:0.8;" x="317.657143" xlink:href="#m7b63b48d1c" y="298.245375"/>
      </g>
     </g>
     <g id="text_4">
      <!-- 6 -->
      <defs>
       <path d="M 33.015625 40.375 
Q 26.375 40.375 22.484375 35.828125 
Q 18.609375 31.296875 18.609375 23.390625 
Q 18.609375 15.53125 22.484375 10.953125 
Q 26.375 6.390625 33.015625 6.390625 
Q 39.65625 6.390625 43.53125 10.953125 
Q 47.40625 15.53125 47.40625 23.390625 
Q 47.40625 31.296875 43.53125 35.828125 
Q 39.65625 40.375 33.015625 40.375 
z
M 52.59375 71.296875 
L 52.59375 62.3125 
Q 48.875 64.0625 45.09375 64.984375 
Q 41.3125 65.921875 37.59375 65.921875 
Q 27.828125 65.921875 22.671875 59.328125 
Q 17.53125 52.734375 16.796875 39.40625 
Q 19.671875 43.65625 24.015625 45.921875 
Q 28.375 48.1875 33.59375 48.1875 
Q 44.578125 48.1875 50.953125 41.515625 
Q 57.328125 34.859375 57.328125 23.390625 
Q 57.328125 12.15625 50.6875 5.359375 
Q 44.046875 -1.421875 33.015625 -1.421875 
Q 20.359375 -1.421875 13.671875 8.265625 
Q 6.984375 17.96875 6.984375 36.375 
Q 6.984375 53.65625 15.1875 63.9375 
Q 23.390625 74.21875 37.203125 74.21875 
Q 40.921875 74.21875 44.703125 73.484375 
Q 48.484375 72.75 52.59375 71.296875 
z
" id="DejaVuSans-36"/>
      </defs>
      <g transform="translate(311.294643 320.44225)scale(0.2 -0.2)">
       <use xlink:href="#DejaVuSans-36"/>
      </g>
     </g>
    </g>
    <g id="xtick_5">
     <g id="line2d_9">
      <path clip-path="url(#paccbc62825)" d="M 399.942857 298.245375 
L 399.942857 32.133375 
" style="fill:none;stroke:#b0b0b0;stroke-linecap:square;stroke-width:0.8;"/>
     </g>
     <g id="line2d_10">
      <g>
       <use style="stroke:#000000;stroke-width:0.8;" x="399.942857" xlink:href="#m7b63b48d1c" y="298.245375"/>
      </g>
     </g>
     <g id="text_5">
      <!-- 8 -->
      <defs>
       <path d="M 31.78125 34.625 
Q 24.75 34.625 20.71875 30.859375 
Q 16.703125 27.09375 16.703125 20.515625 
Q 16.703125 13.921875 20.71875 10.15625 
Q 24.75 6.390625 31.78125 6.390625 
Q 38.8125 6.390625 42.859375 10.171875 
Q 46.921875 13.96875 46.921875 20.515625 
Q 46.921875 27.09375 42.890625 30.859375 
Q 38.875 34.625 31.78125 34.625 
z
M 21.921875 38.8125 
Q 15.578125 40.375 12.03125 44.71875 
Q 8.5 49.078125 8.5 55.328125 
Q 8.5 64.0625 14.71875 69.140625 
Q 20.953125 74.21875 31.78125 74.21875 
Q 42.671875 74.21875 48.875 69.140625 
Q 55.078125 64.0625 55.078125 55.328125 
Q 55.078125 49.078125 51.53125 44.71875 
Q 48 40.375 41.703125 38.8125 
Q 48.828125 37.15625 52.796875 32.3125 
Q 56.78125 27.484375 56.78125 20.515625 
Q 56.78125 9.90625 50.3125 4.234375 
Q 43.84375 -1.421875 31.78125 -1.421875 
Q 19.734375 -1.421875 13.25 4.234375 
Q 6.78125 9.90625 6.78125 20.515625 
Q 6.78125 27.484375 10.78125 32.3125 
Q 14.796875 37.15625 21.921875 38.8125 
z
M 18.3125 54.390625 
Q 18.3125 48.734375 21.84375 45.5625 
Q 25.390625 42.390625 31.78125 42.390625 
Q 38.140625 42.390625 41.71875 45.5625 
Q 45.3125 48.734375 45.3125 54.390625 
Q 45.3125 60.0625 41.71875 63.234375 
Q 38.140625 66.40625 31.78125 66.40625 
Q 25.390625 66.40625 21.84375 63.234375 
Q 18.3125 60.0625 18.3125 54.390625 
z
" id="DejaVuSans-38"/>
      </defs>
      <g transform="translate(393.580357 320.44225)scale(0.2 -0.2)">
       <use xlink:href="#DejaVuSans-38"/>
      </g>
     </g>
    </g>
    <g id="text_6">
     <!-- log10 of (# f-evals / dimension) -->
     <defs>
      <path d="M 9.421875 75.984375 
L 18.40625 75.984375 
L 18.40625 0 
L 9.421875 0 
z
" id="DejaVuSans-6c"/>
      <path d="M 30.609375 48.390625 
Q 23.390625 48.390625 19.1875 42.75 
Q 14.984375 37.109375 14.984375 27.296875 
Q 14.984375 17.484375 19.15625 11.84375 
Q 23.34375 6.203125 30.609375 6.203125 
Q 37.796875 6.203125 41.984375 11.859375 
Q 46.1875 17.53125 46.1875 27.296875 
Q 46.1875 37.015625 41.984375 42.703125 
Q 37.796875 48.390625 30.609375 48.390625 
z
M 30.609375 56 
Q 42.328125 56 49.015625 48.375 
Q 55.71875 40.765625 55.71875 27.296875 
Q 55.71875 13.875 49.015625 6.21875 
Q 42.328125 -1.421875 30.609375 -1.421875 
Q 18.84375 -1.421875 12.171875 6.21875 
Q 5.515625 13.875 5.515625 27.296875 
Q 5.515625 40.765625 12.171875 48.375 
Q 18.84375 56 30.609375 56 
z
" id="DejaVuSans-6f"/>
      <path d="M 45.40625 27.984375 
Q 45.40625 37.75 41.375 43.109375 
Q 37.359375 48.484375 30.078125 48.484375 
Q 22.859375 48.484375 18.828125 43.109375 
Q 14.796875 37.75 14.796875 27.984375 
Q 14.796875 18.265625 18.828125 12.890625 
Q 22.859375 7.515625 30.078125 7.515625 
Q 37.359375 7.515625 41.375 12.890625 
Q 45.40625 18.265625 45.40625 27.984375 
z
M 54.390625 6.78125 
Q 54.390625 -7.171875 48.1875 -13.984375 
Q 42 -20.796875 29.203125 -20.796875 
Q 24.46875 -20.796875 20.265625 -20.09375 
Q 16.0625 -19.390625 12.109375 -17.921875 
L 12.109375 -9.1875 
Q 16.0625 -11.328125 19.921875 -12.34375 
Q 23.78125 -13.375 27.78125 -13.375 
Q 36.625 -13.375 41.015625 -8.765625 
Q 45.40625 -4.15625 45.40625 5.171875 
L 45.40625 9.625 
Q 42.625 4.78125 38.28125 2.390625 
Q 33.9375 0 27.875 0 
Q 17.828125 0 11.671875 7.65625 
Q 5.515625 15.328125 5.515625 27.984375 
Q 5.515625 40.671875 11.671875 48.328125 
Q 17.828125 56 27.875 56 
Q 33.9375 56 38.28125 53.609375 
Q 42.625 51.21875 45.40625 46.390625 
L 45.40625 54.6875 
L 54.390625 54.6875 
z
" id="DejaVuSans-67"/>
      <path d="M 12.40625 8.296875 
L 28.515625 8.296875 
L 28.515625 63.921875 
L 10.984375 60.40625 
L 10.984375 69.390625 
L 28.421875 72.90625 
L 38.28125 72.90625 
L 38.28125 8.296875 
L 54.390625 8.296875 
L 54.390625 0 
L 12.40625 0 
z
" id="DejaVuSans-31"/>
      <path id="DejaVuSans-20"/>
      <path d="M 37.109375 75.984375 
L 37.109375 68.5 
L 28.515625 68.5 
Q 23.6875 68.5 21.796875 66.546875 
Q 19.921875 64.59375 19.921875 59.515625 
L 19.921875 54.6875 
L 34.71875 54.6875 
L 34.71875 47.703125 
L 19.921875 47.703125 
L 19.921875 0 
L 10.890625 0 
L 10.890625 47.703125 
L 2.296875 47.703125 
L 2.296875 54.6875 
L 10.890625 54.6875 
L 10.890625 58.5 
Q 10.890625 67.625 15.140625 71.796875 
Q 19.390625 75.984375 28.609375 75.984375 
z
" id="DejaVuSans-66"/>
      <path d="M 31 75.875 
Q 24.46875 64.65625 21.28125 53.65625 
Q 18.109375 42.671875 18.109375 31.390625 
Q 18.109375 20.125 21.3125 9.0625 
Q 24.515625 -2 31 -13.1875 
L 23.1875 -13.1875 
Q 15.875 -1.703125 12.234375 9.375 
Q 8.59375 20.453125 8.59375 31.390625 
Q 8.59375 42.28125 12.203125 53.3125 
Q 15.828125 64.359375 23.1875 75.875 
z
" id="DejaVuSans-28"/>
      <path d="M 51.125 44 
L 36.921875 44 
L 32.8125 27.6875 
L 47.125 27.6875 
z
M 43.796875 71.78125 
L 38.71875 51.515625 
L 52.984375 51.515625 
L 58.109375 71.78125 
L 65.921875 71.78125 
L 60.890625 51.515625 
L 76.125 51.515625 
L 76.125 44 
L 58.984375 44 
L 54.984375 27.6875 
L 70.515625 27.6875 
L 70.515625 20.21875 
L 53.078125 20.21875 
L 48 0 
L 40.1875 0 
L 45.21875 20.21875 
L 30.90625 20.21875 
L 25.875 0 
L 18.015625 0 
L 23.09375 20.21875 
L 7.71875 20.21875 
L 7.71875 27.6875 
L 24.90625 27.6875 
L 29 44 
L 13.28125 44 
L 13.28125 51.515625 
L 30.90625 51.515625 
L 35.890625 71.78125 
z
" id="DejaVuSans-23"/>
      <path d="M 4.890625 31.390625 
L 31.203125 31.390625 
L 31.203125 23.390625 
L 4.890625 23.390625 
z
" id="DejaVuSans-2d"/>
      <path d="M 56.203125 29.59375 
L 56.203125 25.203125 
L 14.890625 25.203125 
Q 15.484375 15.921875 20.484375 11.0625 
Q 25.484375 6.203125 34.421875 6.203125 
Q 39.59375 6.203125 44.453125 7.46875 
Q 49.3125 8.734375 54.109375 11.28125 
L 54.109375 2.78125 
Q 49.265625 0.734375 44.1875 -0.34375 
Q 39.109375 -1.421875 33.890625 -1.421875 
Q 20.796875 -1.421875 13.15625 6.1875 
Q 5.515625 13.8125 5.515625 26.8125 
Q 5.515625 40.234375 12.765625 48.109375 
Q 20.015625 56 32.328125 56 
Q 43.359375 56 49.78125 48.890625 
Q 56.203125 41.796875 56.203125 29.59375 
z
M 47.21875 32.234375 
Q 47.125 39.59375 43.09375 43.984375 
Q 39.0625 48.390625 32.421875 48.390625 
Q 24.90625 48.390625 20.390625 44.140625 
Q 15.875 39.890625 15.1875 32.171875 
z
" id="DejaVuSans-65"/>
      <path d="M 2.984375 54.6875 
L 12.5 54.6875 
L 29.59375 8.796875 
L 46.6875 54.6875 
L 56.203125 54.6875 
L 35.6875 0 
L 23.484375 0 
z
" id="DejaVuSans-76"/>
      <path d="M 34.28125 27.484375 
Q 23.390625 27.484375 19.1875 25 
Q 14.984375 22.515625 14.984375 16.5 
Q 14.984375 11.71875 18.140625 8.90625 
Q 21.296875 6.109375 26.703125 6.109375 
Q 34.1875 6.109375 38.703125 11.40625 
Q 43.21875 16.703125 43.21875 25.484375 
L 43.21875 27.484375 
z
M 52.203125 31.203125 
L 52.203125 0 
L 43.21875 0 
L 43.21875 8.296875 
Q 40.140625 3.328125 35.546875 0.953125 
Q 30.953125 -1.421875 24.3125 -1.421875 
Q 15.921875 -1.421875 10.953125 3.296875 
Q 6 8.015625 6 15.921875 
Q 6 25.140625 12.171875 29.828125 
Q 18.359375 34.515625 30.609375 34.515625 
L 43.21875 34.515625 
L 43.21875 35.40625 
Q 43.21875 41.609375 39.140625 45 
Q 35.0625 48.390625 27.6875 48.390625 
Q 23 48.390625 18.546875 47.265625 
Q 14.109375 46.140625 10.015625 43.890625 
L 10.015625 52.203125 
Q 14.9375 54.109375 19.578125 55.046875 
Q 24.21875 56 28.609375 56 
Q 40.484375 56 46.34375 49.84375 
Q 52.203125 43.703125 52.203125 31.203125 
z
" id="DejaVuSans-61"/>
      <path d="M 44.28125 53.078125 
L 44.28125 44.578125 
Q 40.484375 46.53125 36.375 47.5 
Q 32.28125 48.484375 27.875 48.484375 
Q 21.1875 48.484375 17.84375 46.4375 
Q 14.5 44.390625 14.5 40.28125 
Q 14.5 37.15625 16.890625 35.375 
Q 19.28125 33.59375 26.515625 31.984375 
L 29.59375 31.296875 
Q 39.15625 29.25 43.1875 25.515625 
Q 47.21875 21.78125 47.21875 15.09375 
Q 47.21875 7.46875 41.1875 3.015625 
Q 35.15625 -1.421875 24.609375 -1.421875 
Q 20.21875 -1.421875 15.453125 -0.5625 
Q 10.6875 0.296875 5.421875 2 
L 5.421875 11.28125 
Q 10.40625 8.6875 15.234375 7.390625 
Q 20.0625 6.109375 24.8125 6.109375 
Q 31.15625 6.109375 34.5625 8.28125 
Q 37.984375 10.453125 37.984375 14.40625 
Q 37.984375 18.0625 35.515625 20.015625 
Q 33.0625 21.96875 24.703125 23.78125 
L 21.578125 24.515625 
Q 13.234375 26.265625 9.515625 29.90625 
Q 5.8125 33.546875 5.8125 39.890625 
Q 5.8125 47.609375 11.28125 51.796875 
Q 16.75 56 26.8125 56 
Q 31.78125 56 36.171875 55.265625 
Q 40.578125 54.546875 44.28125 53.078125 
z
" id="DejaVuSans-73"/>
      <path d="M 25.390625 72.90625 
L 33.6875 72.90625 
L 8.296875 -9.28125 
L 0 -9.28125 
z
" id="DejaVuSans-2f"/>
      <path d="M 45.40625 46.390625 
L 45.40625 75.984375 
L 54.390625 75.984375 
L 54.390625 0 
L 45.40625 0 
L 45.40625 8.203125 
Q 42.578125 3.328125 38.25 0.953125 
Q 33.9375 -1.421875 27.875 -1.421875 
Q 17.96875 -1.421875 11.734375 6.484375 
Q 5.515625 14.40625 5.515625 27.296875 
Q 5.515625 40.1875 11.734375 48.09375 
Q 17.96875 56 27.875 56 
Q 33.9375 56 38.25 53.625 
Q 42.578125 51.265625 45.40625 46.390625 
z
M 14.796875 27.296875 
Q 14.796875 17.390625 18.875 11.75 
Q 22.953125 6.109375 30.078125 6.109375 
Q 37.203125 6.109375 41.296875 11.75 
Q 45.40625 17.390625 45.40625 27.296875 
Q 45.40625 37.203125 41.296875 42.84375 
Q 37.203125 48.484375 30.078125 48.484375 
Q 22.953125 48.484375 18.875 42.84375 
Q 14.796875 37.203125 14.796875 27.296875 
z
" id="DejaVuSans-64"/>
      <path d="M 9.421875 54.6875 
L 18.40625 54.6875 
L 18.40625 0 
L 9.421875 0 
z
M 9.421875 75.984375 
L 18.40625 75.984375 
L 18.40625 64.59375 
L 9.421875 64.59375 
z
" id="DejaVuSans-69"/>
      <path d="M 52 44.1875 
Q 55.375 50.25 60.0625 53.125 
Q 64.75 56 71.09375 56 
Q 79.640625 56 84.28125 50.015625 
Q 88.921875 44.046875 88.921875 33.015625 
L 88.921875 0 
L 79.890625 0 
L 79.890625 32.71875 
Q 79.890625 40.578125 77.09375 44.375 
Q 74.3125 48.1875 68.609375 48.1875 
Q 61.625 48.1875 57.5625 43.546875 
Q 53.515625 38.921875 53.515625 30.90625 
L 53.515625 0 
L 44.484375 0 
L 44.484375 32.71875 
Q 44.484375 40.625 41.703125 44.40625 
Q 38.921875 48.1875 33.109375 48.1875 
Q 26.21875 48.1875 22.15625 43.53125 
Q 18.109375 38.875 18.109375 30.90625 
L 18.109375 0 
L 9.078125 0 
L 9.078125 54.6875 
L 18.109375 54.6875 
L 18.109375 46.1875 
Q 21.1875 51.21875 25.484375 53.609375 
Q 29.78125 56 35.6875 56 
Q 41.65625 56 45.828125 52.96875 
Q 50 49.953125 52 44.1875 
z
" id="DejaVuSans-6d"/>
      <path d="M 54.890625 33.015625 
L 54.890625 0 
L 45.90625 0 
L 45.90625 32.71875 
Q 45.90625 40.484375 42.875 44.328125 
Q 39.84375 48.1875 33.796875 48.1875 
Q 26.515625 48.1875 22.3125 43.546875 
Q 18.109375 38.921875 18.109375 30.90625 
L 18.109375 0 
L 9.078125 0 
L 9.078125 54.6875 
L 18.109375 54.6875 
L 18.109375 46.1875 
Q 21.34375 51.125 25.703125 53.5625 
Q 30.078125 56 35.796875 56 
Q 45.21875 56 50.046875 50.171875 
Q 54.890625 44.34375 54.890625 33.015625 
z
" id="DejaVuSans-6e"/>
      <path d="M 8.015625 75.875 
L 15.828125 75.875 
Q 23.140625 64.359375 26.78125 53.3125 
Q 30.421875 42.28125 30.421875 31.390625 
Q 30.421875 20.453125 26.78125 9.375 
Q 23.140625 -1.703125 15.828125 -13.1875 
L 8.015625 -13.1875 
Q 14.5 -2 17.703125 9.0625 
Q 20.90625 20.125 20.90625 31.390625 
Q 20.90625 42.671875 17.703125 53.65625 
Q 14.5 64.65625 8.015625 75.875 
z
" id="DejaVuSans-29"/>
     </defs>
     <g transform="translate(107.015156 342.278812)scale(0.18 -0.18)">
      <use xlink:href="#DejaVuSans-6c"/>
      <use x="27.783203" xlink:href="#DejaVuSans-6f"/>
      <use x="88.964844" xlink:href="#DejaVuSans-67"/>
      <use x="152.441406" xlink:href="#DejaVuSans-31"/>
      <use x="216.064453" xlink:href="#DejaVuSans-30"/>
      <use x="279.6875" xlink:href="#DejaVuSans-20"/>
      <use x="311.474609" xlink:href="#DejaVuSans-6f"/>
      <use x="372.65625" xlink:href="#DejaVuSans-66"/>
      <use x="407.861328" xlink:href="#DejaVuSans-20"/>
      <use x="439.648438" xlink:href="#DejaVuSans-28"/>
      <use x="478.662109" xlink:href="#DejaVuSans-23"/>
      <use x="562.451172" xlink:href="#DejaVuSans-20"/>
      <use x="594.238281" xlink:href="#DejaVuSans-66"/>
      <use x="629.365234" xlink:href="#DejaVuSans-2d"/>
      <use x="665.449219" xlink:href="#DejaVuSans-65"/>
      <use x="726.972656" xlink:href="#DejaVuSans-76"/>
      <use x="786.152344" xlink:href="#DejaVuSans-61"/>
      <use x="847.431641" xlink:href="#DejaVuSans-6c"/>
      <use x="875.214844" xlink:href="#DejaVuSans-73"/>
      <use x="927.314453" xlink:href="#DejaVuSans-20"/>
      <use x="959.101562" xlink:href="#DejaVuSans-2f"/>
      <use x="992.792969" xlink:href="#DejaVuSans-20"/>
      <use x="1024.580078" xlink:href="#DejaVuSans-64"/>
      <use x="1088.056641" xlink:href="#DejaVuSans-69"/>
      <use x="1115.839844" xlink:href="#DejaVuSans-6d"/>
      <use x="1213.251953" xlink:href="#DejaVuSans-65"/>
      <use x="1274.775391" xlink:href="#DejaVuSans-6e"/>
      <use x="1338.154297" xlink:href="#DejaVuSans-73"/>
      <use x="1390.253906" xlink:href="#DejaVuSans-69"/>
      <use x="1418.037109" xlink:href="#DejaVuSans-6f"/>
      <use x="1479.21875" xlink:href="#DejaVuSans-6e"/>
      <use x="1542.597656" xlink:href="#DejaVuSans-29"/>
     </g>
    </g>
   </g>
   <g id="matplotlib.axis_2">
    <g id="ytick_1">
     <g id="line2d_11">
      <path clip-path="url(#paccbc62825)" d="M 70.8 298.245375 
L 427.92 298.245375 
" style="fill:none;stroke:#b0b0b0;stroke-linecap:square;stroke-width:0.8;"/>
     </g>
     <g id="line2d_12">
      <defs>
       <path d="M 0 0 
L -3.5 0 
" id="maca11e4955" style="stroke:#000000;stroke-width:0.8;"/>
      </defs>
      <g>
       <use style="stroke:#000000;stroke-width:0.8;" x="70.8" xlink:href="#maca11e4955" y="298.245375"/>
      </g>
     </g>
     <g id="text_7">
      <!-- 0.0 -->
      <defs>
       <path d="M 10.6875 12.40625 
L 21 12.40625 
L 21 0 
L 10.6875 0 
z
" id="DejaVuSans-2e"/>
      </defs>
      <g transform="translate(31.99375 305.843812)scale(0.2 -0.2)">
       <use xlink:href="#DejaVuSans-30"/>
       <use x="63.623047" xlink:href="#DejaVuSans-2e"/>
       <use x="95.410156" xlink:href="#DejaVuSans-30"/>
      </g>
     </g>
    </g>
    <g id="ytick_2">
     <g id="line2d_13">
      <path clip-path="url(#paccbc62825)" d="M 70.8 245.549929 
L 427.92 245.549929 
" style="fill:none;stroke:#b0b0b0;stroke-linecap:square;stroke-width:0.8;"/>
     </g>
     <g id="line2d_14">
      <g>
       <use style="stroke:#000000;stroke-width:0.8;" x="70.8" xlink:href="#maca11e4955" y="245.549929"/>
      </g>
     </g>
     <g id="text_8">
      <!-- 0.2 -->
      <g transform="translate(31.99375 253.148367)scale(0.2 -0.2)">
       <use xlink:href="#DejaVuSans-30"/>
       <use x="63.623047" xlink:href="#DejaVuSans-2e"/>
       <use x="95.410156" xlink:href="#DejaVuSans-32"/>
      </g>
     </g>
    </g>
    <g id="ytick_3">
     <g id="line2d_15">
      <path clip-path="url(#paccbc62825)" d="M 70.8 192.854484 
L 427.92 192.854484 
" style="fill:none;stroke:#b0b0b0;stroke-linecap:square;stroke-width:0.8;"/>
     </g>
     <g id="line2d_16">
      <g>
       <use style="stroke:#000000;stroke-width:0.8;" x="70.8" xlink:href="#maca11e4955" y="192.854484"/>
      </g>
     </g>
     <g id="text_9">
      <!-- 0.4 -->
      <g transform="translate(31.99375 200.452921)scale(0.2 -0.2)">
       <use xlink:href="#DejaVuSans-30"/>
       <use x="63.623047" xlink:href="#DejaVuSans-2e"/>
       <use x="95.410156" xlink:href="#DejaVuSans-34"/>
      </g>
     </g>
    </g>
    <g id="ytick_4">
     <g id="line2d_17">
      <path clip-path="url(#paccbc62825)" d="M 70.8 140.159038 
L 427.92 140.159038 
" style="fill:none;stroke:#b0b0b0;stroke-linecap:square;stroke-width:0.8;"/>
     </g>
     <g id="line2d_18">
      <g>
       <use style="stroke:#000000;stroke-width:0.8;" x="70.8" xlink:href="#maca11e4955" y="140.159038"/>
      </g>
     </g>
     <g id="text_10">
      <!-- 0.6 -->
      <g transform="translate(31.99375 147.757476)scale(0.2 -0.2)">
       <use xlink:href="#DejaVuSans-30"/>
       <use x="63.623047" xlink:href="#DejaVuSans-2e"/>
       <use x="95.410156" xlink:href="#DejaVuSans-36"/>
      </g>
     </g>
    </g>
    <g id="ytick_5">
     <g id="line2d_19">
      <path clip-path="url(#paccbc62825)" d="M 70.8 87.463593 
L 427.92 87.463593 
" style="fill:none;stroke:#b0b0b0;stroke-linecap:square;stroke-width:0.8;"/>
     </g>
     <g id="line2d_20">
      <g>
       <use style="stroke:#000000;stroke-width:0.8;" x="70.8" xlink:href="#maca11e4955" y="87.463593"/>
      </g>
     </g>
     <g id="text_11">
      <!-- 0.8 -->
      <g transform="translate(31.99375 95.06203)scale(0.2 -0.2)">
       <use xlink:href="#DejaVuSans-30"/>
       <use x="63.623047" xlink:href="#DejaVuSans-2e"/>
       <use x="95.410156" xlink:href="#DejaVuSans-38"/>
      </g>
     </g>
    </g>
    <g id="ytick_6">
     <g id="line2d_21">
      <path clip-path="url(#paccbc62825)" d="M 70.8 34.768147 
L 427.92 34.768147 
" style="fill:none;stroke:#b0b0b0;stroke-linecap:square;stroke-width:0.8;"/>
     </g>
     <g id="line2d_22">
      <g>
       <use style="stroke:#000000;stroke-width:0.8;" x="70.8" xlink:href="#maca11e4955" y="34.768147"/>
      </g>
     </g>
     <g id="text_12">
      <!-- 1.0 -->
      <g transform="translate(31.99375 42.366585)scale(0.2 -0.2)">
       <use xlink:href="#DejaVuSans-31"/>
       <use x="63.623047" xlink:href="#DejaVuSans-2e"/>
       <use x="95.410156" xlink:href="#DejaVuSans-30"/>
      </g>
     </g>
    </g>
    <g id="text_13">
     <!-- Proportion of function+target pairs -->
     <defs>
      <path d="M 19.671875 64.796875 
L 19.671875 37.40625 
L 32.078125 37.40625 
Q 38.96875 37.40625 42.71875 40.96875 
Q 46.484375 44.53125 46.484375 51.125 
Q 46.484375 57.671875 42.71875 61.234375 
Q 38.96875 64.796875 32.078125 64.796875 
z
M 9.8125 72.90625 
L 32.078125 72.90625 
Q 44.34375 72.90625 50.609375 67.359375 
Q 56.890625 61.8125 56.890625 51.125 
Q 56.890625 40.328125 50.609375 34.8125 
Q 44.34375 29.296875 32.078125 29.296875 
L 19.671875 29.296875 
L 19.671875 0 
L 9.8125 0 
z
" id="DejaVuSans-50"/>
      <path d="M 41.109375 46.296875 
Q 39.59375 47.171875 37.8125 47.578125 
Q 36.03125 48 33.890625 48 
Q 26.265625 48 22.1875 43.046875 
Q 18.109375 38.09375 18.109375 28.8125 
L 18.109375 0 
L 9.078125 0 
L 9.078125 54.6875 
L 18.109375 54.6875 
L 18.109375 46.1875 
Q 20.953125 51.171875 25.484375 53.578125 
Q 30.03125 56 36.53125 56 
Q 37.453125 56 38.578125 55.875 
Q 39.703125 55.765625 41.0625 55.515625 
z
" id="DejaVuSans-72"/>
      <path d="M 18.109375 8.203125 
L 18.109375 -20.796875 
L 9.078125 -20.796875 
L 9.078125 54.6875 
L 18.109375 54.6875 
L 18.109375 46.390625 
Q 20.953125 51.265625 25.265625 53.625 
Q 29.59375 56 35.59375 56 
Q 45.5625 56 51.78125 48.09375 
Q 58.015625 40.1875 58.015625 27.296875 
Q 58.015625 14.40625 51.78125 6.484375 
Q 45.5625 -1.421875 35.59375 -1.421875 
Q 29.59375 -1.421875 25.265625 0.953125 
Q 20.953125 3.328125 18.109375 8.203125 
z
M 48.6875 27.296875 
Q 48.6875 37.203125 44.609375 42.84375 
Q 40.53125 48.484375 33.40625 48.484375 
Q 26.265625 48.484375 22.1875 42.84375 
Q 18.109375 37.203125 18.109375 27.296875 
Q 18.109375 17.390625 22.1875 11.75 
Q 26.265625 6.109375 33.40625 6.109375 
Q 40.53125 6.109375 44.609375 11.75 
Q 48.6875 17.390625 48.6875 27.296875 
z
" id="DejaVuSans-70"/>
      <path d="M 18.3125 70.21875 
L 18.3125 54.6875 
L 36.8125 54.6875 
L 36.8125 47.703125 
L 18.3125 47.703125 
L 18.3125 18.015625 
Q 18.3125 11.328125 20.140625 9.421875 
Q 21.96875 7.515625 27.59375 7.515625 
L 36.8125 7.515625 
L 36.8125 0 
L 27.59375 0 
Q 17.1875 0 13.234375 3.875 
Q 9.28125 7.765625 9.28125 18.015625 
L 9.28125 47.703125 
L 2.6875 47.703125 
L 2.6875 54.6875 
L 9.28125 54.6875 
L 9.28125 70.21875 
z
" id="DejaVuSans-74"/>
      <path d="M 8.5 21.578125 
L 8.5 54.6875 
L 17.484375 54.6875 
L 17.484375 21.921875 
Q 17.484375 14.15625 20.5 10.265625 
Q 23.53125 6.390625 29.59375 6.390625 
Q 36.859375 6.390625 41.078125 11.03125 
Q 45.3125 15.671875 45.3125 23.6875 
L 45.3125 54.6875 
L 54.296875 54.6875 
L 54.296875 0 
L 45.3125 0 
L 45.3125 8.40625 
Q 42.046875 3.421875 37.71875 1 
Q 33.40625 -1.421875 27.6875 -1.421875 
Q 18.265625 -1.421875 13.375 4.4375 
Q 8.5 10.296875 8.5 21.578125 
z
M 31.109375 56 
z
" id="DejaVuSans-75"/>
      <path d="M 48.78125 52.59375 
L 48.78125 44.1875 
Q 44.96875 46.296875 41.140625 47.34375 
Q 37.3125 48.390625 33.40625 48.390625 
Q 24.65625 48.390625 19.8125 42.84375 
Q 14.984375 37.3125 14.984375 27.296875 
Q 14.984375 17.28125 19.8125 11.734375 
Q 24.65625 6.203125 33.40625 6.203125 
Q 37.3125 6.203125 41.140625 7.25 
Q 44.96875 8.296875 48.78125 10.40625 
L 48.78125 2.09375 
Q 45.015625 0.34375 40.984375 -0.53125 
Q 36.96875 -1.421875 32.421875 -1.421875 
Q 20.0625 -1.421875 12.78125 6.34375 
Q 5.515625 14.109375 5.515625 27.296875 
Q 5.515625 40.671875 12.859375 48.328125 
Q 20.21875 56 33.015625 56 
Q 37.15625 56 41.109375 55.140625 
Q 45.0625 54.296875 48.78125 52.59375 
z
" id="DejaVuSans-63"/>
      <path d="M 46 62.703125 
L 46 35.5 
L 73.1875 35.5 
L 73.1875 27.203125 
L 46 27.203125 
L 46 0 
L 37.796875 0 
L 37.796875 27.203125 
L 10.59375 27.203125 
L 10.59375 35.5 
L 37.796875 35.5 
L 37.796875 62.703125 
z
" id="DejaVuSans-2b"/>
     </defs>
     <g transform="translate(24.250312 323.17875)rotate(-90)scale(0.18 -0.18)">
      <use xlink:href="#DejaVuSans-50"/>
      <use x="60.287109" xlink:href="#DejaVuSans-72"/>
      <use x="101.369141" xlink:href="#DejaVuSans-6f"/>
      <use x="162.550781" xlink:href="#DejaVuSans-70"/>
      <use x="226.027344" xlink:href="#DejaVuSans-6f"/>
      <use x="287.208984" xlink:href="#DejaVuSans-72"/>
      <use x="328.322266" xlink:href="#DejaVuSans-74"/>
      <use x="367.53125" xlink:href="#DejaVuSans-69"/>
      <use x="395.314453" xlink:href="#DejaVuSans-6f"/>
      <use x="456.496094" xlink:href="#DejaVuSans-6e"/>
      <use x="519.875" xlink:href="#DejaVuSans-20"/>
      <use x="551.662109" xlink:href="#DejaVuSans-6f"/>
      <use x="612.84375" xlink:href="#DejaVuSans-66"/>
      <use x="648.048828" xlink:href="#DejaVuSans-20"/>
      <use x="679.835938" xlink:href="#DejaVuSans-66"/>
      <use x="715.041016" xlink:href="#DejaVuSans-75"/>
      <use x="778.419922" xlink:href="#DejaVuSans-6e"/>
      <use x="841.798828" xlink:href="#DejaVuSans-63"/>
      <use x="896.779297" xlink:href="#DejaVuSans-74"/>
      <use x="935.988281" xlink:href="#DejaVuSans-69"/>
      <use x="963.771484" xlink:href="#DejaVuSans-6f"/>
      <use x="1024.953125" xlink:href="#DejaVuSans-6e"/>
      <use x="1088.332031" xlink:href="#DejaVuSans-2b"/>
      <use x="1172.121094" xlink:href="#DejaVuSans-74"/>
      <use x="1211.330078" xlink:href="#DejaVuSans-61"/>
      <use x="1272.609375" xlink:href="#DejaVuSans-72"/>
      <use x="1313.707031" xlink:href="#DejaVuSans-67"/>
      <use x="1377.183594" xlink:href="#DejaVuSans-65"/>
      <use x="1438.707031" xlink:href="#DejaVuSans-74"/>
      <use x="1477.916016" xlink:href="#DejaVuSans-20"/>
      <use x="1509.703125" xlink:href="#DejaVuSans-70"/>
      <use x="1573.179688" xlink:href="#DejaVuSans-61"/>
      <use x="1634.458984" xlink:href="#DejaVuSans-69"/>
      <use x="1662.242188" xlink:href="#DejaVuSans-72"/>
      <use x="1703.355469" xlink:href="#DejaVuSans-73"/>
     </g>
    </g>
   </g>
   <g id="line2d_23">
    <defs>
     <path d="M 0 1.5 
C 0.397805 1.5 0.77937 1.341951 1.06066 1.06066 
C 1.341951 0.77937 1.5 0.397805 1.5 0 
C 1.5 -0.397805 1.341951 -0.77937 1.06066 -1.06066 
C 0.77937 -1.341951 0.397805 -1.5 0 -1.5 
C -0.397805 -1.5 -0.77937 -1.341951 -1.06066 -1.06066 
C -1.341951 -0.77937 -1.5 -0.397805 -1.5 0 
C -1.5 0.397805 -1.341951 0.77937 -1.06066 1.06066 
C -0.77937 1.341951 -0.397805 1.5 0 1.5 
z
" id="m7135f5a3d6" style="stroke:#000080;"/>
    </defs>
    <g>
     <use style="fill:#000080;stroke:#000080;" x="283.924471" xlink:href="#m7135f5a3d6" y="184.588532"/>
     <use style="fill:#000080;stroke:#000080;" x="283.924471" xlink:href="#m7135f5a3d6" y="184.588532"/>
    </g>
   </g>
   <g id="line2d_24">
    <path d="M 42.042377 298.245375 
L 42.042377 288.429557 
L 54.427611 288.429557 
L 54.427611 286.879691 
L 61.672509 286.879691 
L 61.672509 285.329825 
L 70.8 285.329825 
L 70.8 284.813203 
L 76.812125 284.813203 
L 76.812125 283.779959 
L 79.198079 283.779959 
L 79.198079 283.263337 
L 84.888247 283.263337 
L 84.888247 282.746715 
L 86.442977 282.746715 
L 86.442977 282.230093 
L 103.401258 282.230093 
L 103.401258 281.713471 
L 109.247936 281.713471 
L 109.247936 281.196849 
L 111.581873 281.196849 
L 111.581873 280.680226 
L 115.2006 280.680226 
L 115.2006 279.646982 
L 118.458343 279.646982 
L 118.458343 279.13036 
L 127.285522 279.13036 
L 127.285522 278.613738 
L 129.152967 278.613738 
L 129.152967 278.097116 
L 130.083117 278.097116 
L 130.083117 277.580494 
L 131.333145 277.580494 
L 131.333145 277.063872 
L 132.948138 277.063872 
L 132.948138 276.54725 
L 134.830731 276.54725 
L 134.830731 274.997384 
L 135.512432 274.997384 
L 135.512432 274.480762 
L 136.169077 274.480762 
L 136.169077 273.96414 
L 136.623761 273.96414 
L 136.623761 273.447518 
L 138.088474 273.447518 
L 138.088474 272.930896 
L 138.738295 272.930896 
L 138.738295 271.38103 
L 140.266416 271.38103 
L 140.266416 270.347786 
L 142.009328 270.347786 
L 142.075629 269.314542 
L 142.915876 269.314542 
L 142.915876 268.79792 
L 143.041708 268.79792 
L 143.041708 268.281298 
L 143.838703 268.281298 
L 143.838703 267.764676 
L 144.312059 267.764676 
L 144.312059 267.248054 
L 146.194652 267.248054 
L 146.194652 266.731432 
L 147.314958 266.731432 
L 147.314958 265.698188 
L 147.849826 265.698188 
L 147.849826 265.181566 
L 148.600303 265.181566 
L 148.600303 264.148322 
L 151.20312 264.148322 
L 151.20312 263.6317 
L 151.595842 263.6317 
L 151.595842 263.115078 
L 153.957503 263.115078 
L 154.059315 262.081834 
L 155.551895 262.081834 
L 155.551895 261.565212 
L 157.91059 261.565212 
L 157.91059 261.04859 
L 159.250342 261.04859 
L 159.250342 260.531968 
L 162.033625 260.531968 
L 162.120049 259.498724 
L 162.546008 259.498724 
L 162.546008 258.982102 
L 163.726791 258.982102 
L 163.726791 258.46548 
L 164.760139 258.46548 
L 164.760139 257.432236 
L 171.431948 257.432236 
L 171.431948 256.915614 
L 209.936945 256.915614 
L 210.040494 255.365748 
L 210.059659 255.365748 
L 210.166896 252.782638 
L 210.232681 252.782638 
L 210.322925 250.199528 
L 210.346139 250.199528 
L 210.404045 247.616418 
L 210.464644 247.616418 
L 210.569485 244.516685 
L 210.707849 244.516685 
L 210.722052 242.966819 
L 210.822574 242.966819 
L 210.894433 240.383709 
L 211.066559 240.383709 
L 211.066559 239.867087 
L 211.249454 239.867087 
L 211.312753 238.317221 
L 211.506751 238.317221 
L 211.506751 237.800599 
L 222.267202 237.800599 
L 222.351826 235.734111 
L 222.432364 235.734111 
L 222.525748 232.117757 
L 222.590169 232.117757 
L 222.687821 229.534647 
L 222.739347 229.534647 
L 222.767586 228.501403 
L 222.864996 228.501403 
L 222.95973 227.468159 
L 222.992626 227.468159 
L 222.992626 226.951537 
L 223.268414 226.951537 
L 223.268414 226.434915 
L 229.573998 226.434915 
L 229.610048 225.401671 
L 229.730018 225.401671 
L 229.735408 224.368427 
L 229.84432 224.368427 
L 229.850162 223.335183 
L 230.182902 223.335183 
L 230.182902 222.818561 
L 234.696654 222.818561 
L 234.723725 221.785317 
L 234.820179 221.785317 
L 234.838965 220.752073 
L 234.956759 220.752073 
L 235.014455 219.202207 
L 238.813451 219.202207 
L 238.898723 216.619097 
L 241.941923 216.619097 
L 242.030275 214.035987 
L 242.091961 214.035987 
L 242.125295 213.002743 
L 244.732107 213.002743 
L 244.822459 210.936254 
L 247.114146 210.936254 
L 247.206703 208.353144 
L 247.241311 208.353144 
L 247.241311 207.836522 
L 249.212038 207.836522 
L 249.291577 204.73679 
L 251.082324 204.73679 
L 251.139934 203.186924 
L 252.779308 203.186924 
L 252.854691 200.603814 
L 254.338657 200.603814 
L 254.338657 200.087192 
L 255.77061 200.087192 
L 255.863022 198.537326 
L 257.090019 198.537326 
L 257.175869 197.504082 
L 258.344865 197.504082 
L 258.398823 195.437594 
L 259.543409 195.437594 
L 259.543409 194.920972 
L 260.56933 194.920972 
L 260.585199 193.371106 
L 261.633634 193.371106 
L 261.633634 192.854484 
L 263.440169 192.854484 
L 263.453609 191.82124 
L 264.340921 191.82124 
L 264.340921 191.304618 
L 265.94328 191.304618 
L 265.94328 190.787996 
L 267.43028 190.787996 
L 267.47123 189.23813 
L 270.091895 189.23813 
L 270.091895 188.721508 
L 271.275427 188.721508 
L 271.275427 188.204886 
L 271.837552 188.204886 
L 271.837552 187.688264 
L 274.433813 187.688264 
L 274.433813 187.171642 
L 275.820091 187.171642 
L 275.820091 186.138398 
L 277.103025 186.138398 
L 277.103025 185.621776 
L 279.070421 185.621776 
L 279.070421 185.105154 
L 283.924471 185.105154 
L 283.924471 184.588532 
L 358.8 184.588532 
L 358.8 184.588532 
" style="fill:none;stroke:#000080;stroke-linecap:square;stroke-width:1.5;"/>
   </g>
   <g id="line2d_25">
    <defs>
     <path d="M 0 6 
C 1.591219 6 3.117479 5.367802 4.242641 4.242641 
C 5.367802 3.117479 6 1.591219 6 0 
C 6 -1.591219 5.367802 -3.117479 4.242641 -4.242641 
C 3.117479 -5.367802 1.591219 -6 0 -6 
C -1.591219 -6 -3.117479 -5.367802 -4.242641 -4.242641 
C -5.367802 -3.117479 -6 -1.591219 -6 0 
C -6 1.591219 -5.367802 3.117479 -4.242641 4.242641 
C -3.117479 5.367802 -1.591219 6 0 6 
z
" id="m44b4b2b045" style="stroke:#000080;stroke-width:1.5;"/>
    </defs>
    <g>
     <use style="fill:none;stroke:#000080;stroke-width:1.5;" x="61.672509" xlink:href="#m44b4b2b045" y="286.879691"/>
     <use style="fill:none;stroke:#000080;stroke-width:1.5;" x="157.91059" xlink:href="#m44b4b2b045" y="261.04859"/>
     <use style="fill:none;stroke:#000080;stroke-width:1.5;" x="222.458149" xlink:href="#m44b4b2b045" y="234.184245"/>
     <use style="fill:none;stroke:#000080;stroke-width:1.5;" x="257.090019" xlink:href="#m44b4b2b045" y="198.537326"/>
     <use style="fill:none;stroke:#000080;stroke-width:1.5;" x="283.924471" xlink:href="#m44b4b2b045" y="184.588532"/>
     <use style="fill:none;stroke:#000080;stroke-width:1.5;" x="358.8" xlink:href="#m44b4b2b045" y="184.588532"/>
    </g>
   </g>
   <g id="line2d_26"/>
   <g id="line2d_27">
    <path clip-path="url(#paccbc62825)" d="M 209.873037 256.915614 
" style="fill:none;stroke:#000080;stroke-linecap:square;stroke-width:1.5;"/>
    <defs>
     <path d="M -12 12 
L 12 -12 
M -12 -12 
L 12 12 
" id="m0492de703f" style="stroke:#000080;stroke-width:3;"/>
    </defs>
    <g clip-path="url(#paccbc62825)">
     <use style="fill:#000080;stroke:#000080;stroke-width:3;" x="209.873037" xlink:href="#m0492de703f" y="256.915614"/>
    </g>
   </g>
   <g id="line2d_28">
    <defs>
     <path d="M 0 1.5 
C 0.397805 1.5 0.77937 1.341951 1.06066 1.06066 
C 1.341951 0.77937 1.5 0.397805 1.5 0 
C 1.5 -0.397805 1.341951 -0.77937 1.06066 -1.06066 
C 0.77937 -1.341951 0.397805 -1.5 0 -1.5 
C -0.397805 -1.5 -0.77937 -1.341951 -1.06066 -1.06066 
C -1.341951 -0.77937 -1.5 -0.397805 -1.5 0 
C -1.5 0.397805 -1.341951 0.77937 -1.06066 1.06066 
C -0.77937 1.341951 -0.397805 1.5 0 1.5 
z
" id="m7d8ec8d808" style="stroke:#ff00ff;"/>
    </defs>
    <g>
     <use style="fill:#ff00ff;stroke:#ff00ff;" x="259.221432" xlink:href="#m7d8ec8d808" y="205.253412"/>
     <use style="fill:#ff00ff;stroke:#ff00ff;" x="259.221432" xlink:href="#m7d8ec8d808" y="205.253412"/>
    </g>
   </g>
   <g id="line2d_29">
    <path d="M 42.042377 298.245375 
L 42.042377 225.918293 
L 159.625999 225.918293 
L 159.625999 225.401671 
L 167.447993 225.401671 
L 167.447993 224.885049 
L 175.561886 224.885049 
L 175.561886 224.368427 
L 182.440754 224.368427 
L 182.440754 223.851805 
L 184.975563 223.851805 
L 184.975563 223.335183 
L 190.357184 223.335183 
L 190.357184 222.818561 
L 197.070548 222.818561 
L 197.070548 222.301939 
L 206.089808 222.301939 
L 206.089808 221.785317 
L 210.652347 221.785317 
L 210.652347 221.268695 
L 210.878959 221.268695 
L 210.878959 220.752073 
L 211.360765 220.752073 
L 211.360765 220.235451 
L 220.656513 220.235451 
L 220.656513 219.718829 
L 222.787111 219.718829 
L 222.787111 219.202207 
L 222.870032 219.202207 
L 222.870032 218.168963 
L 223.017615 218.168963 
L 223.017615 217.652341 
L 223.521986 217.652341 
L 223.521986 217.135719 
L 224.348765 217.135719 
L 224.348765 216.619097 
L 228.328899 216.619097 
L 228.328899 216.102475 
L 228.451439 216.102475 
L 228.451439 215.585853 
L 229.857462 215.585853 
L 229.857462 215.069231 
L 230.355496 215.069231 
L 230.355496 214.552609 
L 230.923643 214.552609 
L 230.923643 214.035987 
L 233.770116 214.035987 
L 233.770116 213.519365 
L 233.860568 213.519365 
L 233.860568 213.002743 
L 238.789265 213.002743 
L 238.789265 212.48612 
L 238.960219 212.48612 
L 238.960219 211.969498 
L 239.14692 211.969498 
L 239.14692 211.452876 
L 240.296141 211.452876 
L 240.296141 210.936254 
L 241.310913 210.936254 
L 241.310913 210.419632 
L 241.370275 210.419632 
L 241.370275 209.90301 
L 244.790002 209.90301 
L 244.790002 209.386388 
L 244.819722 209.386388 
L 244.819722 208.869766 
L 245.18432 208.869766 
L 245.18432 208.353144 
L 246.597381 208.353144 
L 246.597381 207.836522 
L 248.087711 207.836522 
L 248.087711 207.3199 
L 249.271069 207.3199 
L 249.271069 206.803278 
L 249.619448 206.803278 
L 249.619448 206.286656 
L 254.377063 206.286656 
L 254.377063 205.770034 
L 259.221432 205.770034 
L 259.221432 205.253412 
L 358.8 205.253412 
" style="fill:none;stroke:#ff00ff;stroke-linecap:square;stroke-width:1.5;"/>
   </g>
   <g id="line2d_30">
    <defs>
     <path d="M -0 8.485281 
L 5.091169 0 
L 0 -8.485281 
L -5.091169 -0 
z
" id="md8b31fdcf8" style="stroke:#ff00ff;stroke-linejoin:miter;stroke-width:1.5;"/>
    </defs>
    <g>
     <use style="fill:none;stroke:#ff00ff;stroke-linejoin:miter;stroke-width:1.5;" x="42.042377" xlink:href="#md8b31fdcf8" y="298.245375"/>
     <use style="fill:none;stroke:#ff00ff;stroke-linejoin:miter;stroke-width:1.5;" x="42.042377" xlink:href="#md8b31fdcf8" y="298.245375"/>
     <use style="fill:none;stroke:#ff00ff;stroke-linejoin:miter;stroke-width:1.5;" x="184.975563" xlink:href="#md8b31fdcf8" y="223.851805"/>
     <use style="fill:none;stroke:#ff00ff;stroke-linejoin:miter;stroke-width:1.5;" x="241.370275" xlink:href="#md8b31fdcf8" y="209.90301"/>
     <use style="fill:none;stroke:#ff00ff;stroke-linejoin:miter;stroke-width:1.5;" x="259.221432" xlink:href="#md8b31fdcf8" y="205.253412"/>
     <use style="fill:none;stroke:#ff00ff;stroke-linejoin:miter;stroke-width:1.5;" x="358.8" xlink:href="#md8b31fdcf8" y="205.253412"/>
    </g>
   </g>
   <g id="line2d_31"/>
   <g id="line2d_32">
    <path clip-path="url(#paccbc62825)" d="M 209.873037 221.785317 
" style="fill:none;stroke:#ff00ff;stroke-linecap:square;stroke-width:1.5;"/>
    <defs>
     <path d="M -12 12 
L 12 -12 
M -12 -12 
L 12 12 
" id="m17158af079" style="stroke:#ff00ff;stroke-width:3;"/>
    </defs>
    <g clip-path="url(#paccbc62825)">
     <use style="fill:#ff00ff;stroke:#ff00ff;stroke-width:3;" x="209.873037" xlink:href="#m17158af079" y="221.785317"/>
    </g>
   </g>
   <g id="line2d_33">
    <defs>
     <path d="M 0 1.5 
C 0.397805 1.5 0.77937 1.341951 1.06066 1.06066 
C 1.341951 0.77937 1.5 0.397805 1.5 0 
C 1.5 -0.397805 1.341951 -0.77937 1.06066 -1.06066 
C 0.77937 -1.341951 0.397805 -1.5 0 -1.5 
C -0.397805 -1.5 -0.77937 -1.341951 -1.06066 -1.06066 
C -1.341951 -0.77937 -1.5 -0.397805 -1.5 0 
C -1.5 0.397805 -1.341951 0.77937 -1.06066 1.06066 
C -0.77937 1.341951 -0.397805 1.5 0 1.5 
z
" id="m4371ca34b0" style="stroke:#ffa500;"/>
    </defs>
    <g>
     <use style="fill:#ffa500;stroke:#ffa500;" x="274.424174" xlink:href="#m4371ca34b0" y="200.087192"/>
     <use style="fill:#ffa500;stroke:#ffa500;" x="274.424174" xlink:href="#m4371ca34b0" y="200.087192"/>
    </g>
   </g>
   <g id="line2d_34">
    <path d="M 42.042377 298.245375 
L 42.042377 293.079155 
L 54.427611 293.079155 
L 54.427611 292.045911 
L 61.672509 292.045911 
L 61.672509 289.462801 
L 70.8 289.462801 
L 70.8 288.429557 
L 74.057743 288.429557 
L 74.057743 287.912935 
L 79.198079 287.912935 
L 79.198079 287.396313 
L 81.30264 287.396313 
L 81.30264 286.363069 
L 83.185234 286.363069 
L 83.185234 285.846447 
L 84.888247 285.846447 
L 84.888247 285.329825 
L 86.442977 285.329825 
L 86.442977 283.263337 
L 90.430132 283.263337 
L 90.430132 282.230093 
L 94.653954 282.230093 
L 94.653954 281.713471 
L 96.442257 281.713471 
L 96.442257 281.196849 
L 99.557623 281.196849 
L 99.557623 280.163604 
L 101.582593 280.163604 
L 101.582593 278.613738 
L 104.518379 278.613738 
L 104.518379 278.097116 
L 105.569748 278.097116 
L 105.569748 277.580494 
L 107.955702 277.580494 
L 107.955702 276.54725 
L 108.396913 276.54725 
L 108.396913 272.930896 
L 109.247936 272.930896 
L 109.247936 272.414274 
L 112.296693 272.414274 
L 112.296693 271.897652 
L 112.643657 271.897652 
L 112.643657 270.347786 
L 113.318006 270.347786 
L 113.318006 269.314542 
L 114.594843 269.314542 
L 114.594843 268.281298 
L 118.947911 268.281298 
L 118.947911 267.248054 
L 119.424422 267.248054 
L 119.424422 266.731432 
L 124.856251 266.731432 
L 124.856251 266.21481 
L 128.457622 266.21481 
L 128.457622 265.181566 
L 129.423702 265.181566 
L 129.423702 264.148322 
L 130.083117 264.148322 
L 130.083117 263.115078 
L 131.926824 263.115078 
L 131.926824 261.04859 
L 133.058096 261.04859 
L 133.058096 260.531968 
L 133.597959 260.531968 
L 133.597959 260.015346 
L 134.929724 260.015346 
L 134.929724 259.498724 
L 135.416624 259.498724 
L 135.416624 258.982102 
L 135.796811 258.982102 
L 135.796811 258.46548 
L 137.067161 258.46548 
L 137.067161 257.948858 
L 137.838566 257.948858 
L 137.838566 256.915614 
L 139.054554 256.915614 
L 139.054554 256.398992 
L 139.746309 256.398992 
L 139.746309 255.365748 
L 140.628864 255.365748 
L 140.628864 254.849126 
L 140.77181 254.849126 
L 140.842856 252.782638 
L 141.40128 252.782638 
L 141.40128 252.266016 
L 143.413974 252.266016 
L 143.413974 251.232772 
L 144.428464 251.232772 
L 144.428464 249.682906 
L 145.661236 249.682906 
L 145.661236 249.166284 
L 145.929935 249.166284 
L 145.983193 248.13304 
L 146.610209 248.13304 
L 146.610209 247.616418 
L 147.166263 247.616418 
L 147.166263 246.583173 
L 147.36425 246.583173 
L 147.36425 245.549929 
L 149.756356 245.549929 
L 149.756356 245.033307 
L 152.906134 245.033307 
L 152.906134 244.516685 
L 153.75212 244.516685 
L 153.75212 242.966819 
L 156.343457 242.966819 
L 156.343457 242.450197 
L 157.5802 242.450197 
L 157.5802 241.933575 
L 160.066605 241.933575 
L 160.066605 241.416953 
L 160.731101 241.416953 
L 160.731101 240.900331 
L 160.870333 240.900331 
L 160.870333 240.383709 
L 162.270292 240.383709 
L 162.270292 239.867087 
L 163.825022 239.867087 
L 163.825022 238.833843 
L 209.994711 238.833843 
L 209.994711 238.317221 
L 210.147846 238.317221 
L 210.256014 233.151001 
L 210.301133 233.151001 
L 210.383799 231.084513 
L 210.418492 231.084513 
L 210.450234 230.051269 
L 210.543691 230.051269 
L 210.543691 229.534647 
L 210.677984 229.534647 
L 210.744755 228.501403 
L 210.942179 228.501403 
L 210.988398 226.951537 
L 211.067952 226.951537 
L 211.076306 225.918293 
L 211.397715 225.918293 
L 211.397715 225.401671 
L 222.351826 225.401671 
L 222.396204 223.335183 
L 222.473601 223.335183 
L 222.502264 222.301939 
L 222.629585 222.301939 
L 222.730649 220.752073 
L 222.820326 220.752073 
L 222.820326 220.235451 
L 223.036868 220.235451 
L 223.036868 219.202207 
L 229.610048 219.202207 
L 229.704518 216.619097 
L 229.771623 216.619097 
L 229.879829 215.069231 
L 229.913328 215.069231 
L 229.913328 214.552609 
L 234.751495 214.552609 
L 234.79473 211.969498 
L 234.865454 211.969498 
L 234.926742 210.419632 
L 238.737244 210.419632 
L 238.811977 209.386388 
L 241.950827 209.386388 
L 241.989361 208.353144 
L 242.077726 208.353144 
L 242.077726 207.836522 
L 244.721734 207.836522 
L 244.805184 205.770034 
L 247.095429 205.770034 
L 247.095429 205.253412 
L 249.184181 205.253412 
L 249.234259 204.220168 
L 249.433504 204.220168 
L 249.433504 203.703546 
L 251.129728 203.703546 
L 251.129728 203.186924 
L 252.801552 203.186924 
L 252.801552 202.670302 
L 255.772435 202.670302 
L 255.772435 202.15368 
L 257.066158 202.15368 
L 257.066158 201.637058 
L 263.458136 201.637058 
L 263.458136 200.603814 
L 274.424174 200.603814 
L 274.424174 200.087192 
L 358.8 200.087192 
L 358.8 200.087192 
" style="fill:none;stroke:#ffa500;stroke-linecap:square;stroke-width:1.5;"/>
   </g>
   <g id="line2d_35">
    <defs>
     <path d="M 0 -6 
L -1.347084 -1.854102 
L -5.706339 -1.854102 
L -2.179628 0.708204 
L -3.526712 4.854102 
L -0 2.291796 
L 3.526712 4.854102 
L 2.179628 0.708204 
L 5.706339 -1.854102 
L 1.347084 -1.854102 
z
" id="m93c47c017e" style="stroke:#ffa500;stroke-linejoin:bevel;stroke-width:1.5;"/>
    </defs>
    <g>
     <use style="fill:none;stroke:#ffa500;stroke-linejoin:bevel;stroke-width:1.5;" x="81.30264" xlink:href="#m93c47c017e" y="286.363069"/>
     <use style="fill:none;stroke:#ffa500;stroke-linejoin:bevel;stroke-width:1.5;" x="137.067161" xlink:href="#m93c47c017e" y="257.948858"/>
     <use style="fill:none;stroke:#ffa500;stroke-linejoin:bevel;stroke-width:1.5;" x="210.543691" xlink:href="#m93c47c017e" y="229.534647"/>
     <use style="fill:none;stroke:#ffa500;stroke-linejoin:bevel;stroke-width:1.5;" x="257.066158" xlink:href="#m93c47c017e" y="201.637058"/>
     <use style="fill:none;stroke:#ffa500;stroke-linejoin:bevel;stroke-width:1.5;" x="274.424174" xlink:href="#m93c47c017e" y="200.087192"/>
     <use style="fill:none;stroke:#ffa500;stroke-linejoin:bevel;stroke-width:1.5;" x="358.8" xlink:href="#m93c47c017e" y="200.087192"/>
    </g>
   </g>
   <g id="line2d_36"/>
   <g id="line2d_37">
    <path clip-path="url(#paccbc62825)" d="M 209.873037 238.833843 
" style="fill:none;stroke:#ffa500;stroke-linecap:square;stroke-width:1.5;"/>
    <defs>
     <path d="M -12 12 
L 12 -12 
M -12 -12 
L 12 12 
" id="m19320f277e" style="stroke:#ffa500;stroke-width:3;"/>
    </defs>
    <g clip-path="url(#paccbc62825)">
     <use style="fill:#ffa500;stroke:#ffa500;stroke-width:3;" x="209.873037" xlink:href="#m19320f277e" y="238.833843"/>
    </g>
   </g>
   <g id="line2d_38">
    <defs>
     <path d="M 0 1.5 
C 0.397805 1.5 0.77937 1.341951 1.06066 1.06066 
C 1.341951 0.77937 1.5 0.397805 1.5 0 
C 1.5 -0.397805 1.341951 -0.77937 1.06066 -1.06066 
C 0.77937 -1.341951 0.397805 -1.5 0 -1.5 
C -0.397805 -1.5 -0.77937 -1.341951 -1.06066 -1.06066 
C -1.341951 -0.77937 -1.5 -0.397805 -1.5 0 
C -1.5 0.397805 -1.341951 0.77937 -1.06066 1.06066 
C -0.77937 1.341951 -0.397805 1.5 0 1.5 
z
" id="m8ea3bffd20" style="stroke:#6495ed;"/>
    </defs>
    <g>
     <use style="fill:#6495ed;stroke:#6495ed;" x="270.695686" xlink:href="#m8ea3bffd20" y="174.256091"/>
     <use style="fill:#6495ed;stroke:#6495ed;" x="270.695686" xlink:href="#m8ea3bffd20" y="174.256091"/>
    </g>
   </g>
   <g id="line2d_39">
    <path d="M 42.042377 298.245375 
L 42.042377 276.54725 
L 54.427611 276.54725 
L 54.427611 274.480762 
L 61.672509 274.480762 
L 61.672509 273.96414 
L 66.812845 273.96414 
L 66.812845 272.414274 
L 70.8 272.414274 
L 70.8 270.347786 
L 74.057743 270.347786 
L 74.057743 269.831164 
L 79.198079 269.831164 
L 79.198079 269.314542 
L 89.197359 269.314542 
L 89.197359 268.281298 
L 90.430132 268.281298 
L 90.430132 267.248054 
L 105.051795 267.248054 
L 105.051795 266.731432 
L 110.060263 266.731432 
L 110.060263 266.21481 
L 110.452985 266.21481 
L 110.452985 265.698188 
L 112.296693 265.698188 
L 112.296693 265.181566 
L 114.594843 265.181566 
L 114.594843 264.664944 
L 115.2006 264.664944 
L 115.2006 264.148322 
L 116.072388 264.148322 
L 116.072388 263.6317 
L 118.458343 263.6317 
L 118.458343 262.598456 
L 123.783843 262.598456 
L 123.783843 261.565212 
L 124.856251 261.565212 
L 124.856251 261.04859 
L 125.19988 261.04859 
L 125.19988 260.531968 
L 126.192808 260.531968 
L 126.192808 260.015346 
L 127.881181 260.015346 
L 127.881181 259.498724 
L 129.152967 259.498724 
L 129.152967 258.46548 
L 130.593669 258.46548 
L 130.593669 257.432236 
L 132.043229 257.432236 
L 132.043229 256.398992 
L 132.726171 256.398992 
L 132.726171 255.365748 
L 132.948138 255.365748 
L 132.948138 254.849126 
L 137.838566 254.849126 
L 137.838566 254.332504 
L 138.005559 254.332504 
L 138.005559 253.815882 
L 138.738295 253.815882 
L 138.738295 253.29926 
L 139.365311 253.29926 
L 139.365311 252.266016 
L 139.594883 252.266016 
L 139.594883 251.749394 
L 143.838703 251.749394 
L 143.838703 251.232772 
L 144.370356 251.232772 
L 144.370356 250.71615 
L 145.44333 250.71615 
L 145.44333 249.682906 
L 146.247129 249.682906 
L 146.247129 249.166284 
L 146.403639 249.166284 
L 146.403639 248.13304 
L 147.801858 248.13304 
L 147.801858 247.616418 
L 152.206777 247.616418 
L 152.206777 247.099796 
L 152.797513 247.099796 
L 152.797513 246.583173 
L 153.157044 246.583173 
L 153.157044 246.066551 
L 155.675979 246.066551 
L 155.675979 245.549929 
L 156.073405 245.549929 
L 156.073405 245.033307 
L 156.283797 245.033307 
L 156.283797 243.483441 
L 156.668072 243.483441 
L 156.668072 242.966819 
L 157.186861 242.966819 
L 157.186861 241.933575 
L 157.992242 241.933575 
L 157.992242 241.416953 
L 159.823167 241.416953 
L 159.823167 240.900331 
L 162.858942 240.900331 
L 162.858942 239.867087 
L 163.125789 239.867087 
L 163.125789 239.350465 
L 163.766148 239.350465 
L 163.766148 238.833843 
L 165.219027 238.833843 
L 165.23714 236.767355 
L 165.506649 236.767355 
L 165.506649 235.734111 
L 166.171749 235.734111 
L 166.171749 235.217489 
L 166.663174 235.217489 
L 166.663174 234.184245 
L 168.534064 234.184245 
L 168.534064 233.151001 
L 172.257355 233.151001 
L 172.257355 232.634379 
L 172.596326 232.634379 
L 172.596326 231.084513 
L 176.655289 231.084513 
L 176.655289 230.567891 
L 209.959185 230.567891 
L 210.053764 229.018025 
L 210.089103 229.018025 
L 210.187388 227.468159 
L 210.203473 227.468159 
L 210.285136 225.401671 
L 210.324376 225.401671 
L 210.392479 223.335183 
L 210.444467 223.335183 
L 210.444467 222.818561 
L 210.568053 222.818561 
L 210.605248 220.752073 
L 210.760346 220.752073 
L 210.826809 218.685585 
L 210.923938 218.685585 
L 210.989797 216.619097 
L 211.102733 216.619097 
L 211.133283 215.069231 
L 211.283884 215.069231 
L 211.358025 214.035987 
L 211.423672 214.035987 
L 211.446864 212.48612 
L 211.596207 212.48612 
L 211.596207 211.969498 
L 211.964193 211.969498 
L 211.964193 210.936254 
L 222.262737 210.936254 
L 222.355528 208.869766 
L 222.376987 208.869766 
L 222.376987 208.353144 
L 222.606968 208.353144 
L 222.697993 206.803278 
L 222.720495 206.803278 
L 222.792892 205.253412 
L 222.899503 205.253412 
L 222.899503 204.73679 
L 223.036868 204.73679 
L 223.120769 203.703546 
L 223.158326 203.703546 
L 223.158326 203.186924 
L 223.314787 203.186924 
L 223.314787 202.670302 
L 229.736388 202.670302 
L 229.797516 201.120436 
L 229.985935 201.120436 
L 230.096216 199.053948 
L 230.20248 199.053948 
L 230.20248 198.020704 
L 234.754084 198.020704 
L 234.819442 196.470838 
L 234.912082 196.470838 
L 235.012632 193.887728 
L 235.043961 193.887728 
L 235.043961 193.371106 
L 238.886105 193.371106 
L 238.926569 189.754752 
L 242.005886 189.754752 
L 242.104714 188.204886 
L 242.180553 188.204886 
L 242.180553 187.688264 
L 244.690366 187.688264 
L 244.748819 186.138398 
L 247.18882 186.138398 
L 247.258039 185.105154 
L 249.231956 185.105154 
L 249.298299 182.522044 
L 251.071195 182.522044 
L 251.174351 180.972178 
L 251.292169 180.972178 
L 251.292169 180.455556 
L 252.83722 180.455556 
L 252.83722 179.938934 
L 255.825864 179.938934 
L 255.825864 179.422312 
L 257.12443 179.422312 
L 257.12443 178.90569 
L 259.481683 178.90569 
L 259.52409 177.872445 
L 261.590929 177.872445 
L 261.590929 177.355823 
L 265.963157 177.355823 
L 265.963157 176.839201 
L 266.704039 176.839201 
L 266.704039 176.322579 
L 267.440437 176.322579 
L 267.440437 175.805957 
L 268.818601 175.805957 
L 268.818601 175.289335 
L 269.459827 175.289335 
L 269.459827 174.772713 
L 270.695686 174.772713 
L 270.695686 174.256091 
L 358.8 174.256091 
L 358.8 174.256091 
" style="fill:none;stroke:#6495ed;stroke-linecap:square;stroke-width:1.5;"/>
   </g>
   <g id="line2d_40">
    <defs>
     <path d="M -0 6 
L 6 -6 
L -6 -6 
z
" id="mdfcec32fb4" style="stroke:#6495ed;stroke-linejoin:miter;stroke-width:1.5;"/>
    </defs>
    <g>
     <use style="fill:none;stroke:#6495ed;stroke-linejoin:miter;stroke-width:1.5;" x="89.197359" xlink:href="#mdfcec32fb4" y="268.281298"/>
     <use style="fill:none;stroke:#6495ed;stroke-linejoin:miter;stroke-width:1.5;" x="163.125789" xlink:href="#mdfcec32fb4" y="239.867087"/>
     <use style="fill:none;stroke:#6495ed;stroke-linejoin:miter;stroke-width:1.5;" x="235.012632" xlink:href="#mdfcec32fb4" y="193.887728"/>
     <use style="fill:none;stroke:#6495ed;stroke-linejoin:miter;stroke-width:1.5;" x="270.695686" xlink:href="#mdfcec32fb4" y="174.772713"/>
     <use style="fill:none;stroke:#6495ed;stroke-linejoin:miter;stroke-width:1.5;" x="270.695686" xlink:href="#mdfcec32fb4" y="174.256091"/>
     <use style="fill:none;stroke:#6495ed;stroke-linejoin:miter;stroke-width:1.5;" x="358.8" xlink:href="#mdfcec32fb4" y="174.256091"/>
    </g>
   </g>
   <g id="line2d_41"/>
   <g id="line2d_42">
    <path clip-path="url(#paccbc62825)" d="M 209.873037 230.567891 
" style="fill:none;stroke:#6495ed;stroke-linecap:square;stroke-width:1.5;"/>
    <defs>
     <path d="M -12 12 
L 12 -12 
M -12 -12 
L 12 12 
" id="m3bf2d5e20f" style="stroke:#6495ed;stroke-width:3;"/>
    </defs>
    <g clip-path="url(#paccbc62825)">
     <use style="fill:#6495ed;stroke:#6495ed;stroke-width:3;" x="209.873037" xlink:href="#m3bf2d5e20f" y="230.567891"/>
    </g>
   </g>
   <g id="line2d_43">
    <defs>
     <path d="M 0 1.5 
C 0.397805 1.5 0.77937 1.341951 1.06066 1.06066 
C 1.341951 0.77937 1.5 0.397805 1.5 0 
C 1.5 -0.397805 1.341951 -0.77937 1.06066 -1.06066 
C 0.77937 -1.341951 0.397805 -1.5 0 -1.5 
C -0.397805 -1.5 -0.77937 -1.341951 -1.06066 -1.06066 
C -1.341951 -0.77937 -1.5 -0.397805 -1.5 0 
C -1.5 0.397805 -1.341951 0.77937 -1.06066 1.06066 
C -0.77937 1.341951 -0.397805 1.5 0 1.5 
z
" id="mc3604834df" style="stroke:#ff0000;"/>
    </defs>
    <g>
     <use style="fill:#ff0000;stroke:#ff0000;" x="292.348555" xlink:href="#mc3604834df" y="241.416953"/>
     <use style="fill:#ff0000;stroke:#ff0000;" x="292.348555" xlink:href="#mc3604834df" y="241.416953"/>
    </g>
   </g>
   <g id="line2d_44">
    <path d="M 42.042377 298.245375 
L 42.042377 297.212131 
L 54.427611 297.212131 
L 54.427611 296.178887 
L 61.672509 296.178887 
L 61.672509 295.145643 
L 83.185234 295.145643 
L 83.185234 294.112399 
L 89.197359 294.112399 
L 89.197359 293.595777 
L 93.687874 293.595777 
L 93.687874 293.079155 
L 101.582593 293.079155 
L 101.582593 292.562533 
L 105.569748 292.562533 
L 105.569748 292.045911 
L 106.073108 292.045911 
L 106.073108 291.529289 
L 110.452985 291.529289 
L 110.452985 291.012667 
L 111.581873 291.012667 
L 111.581873 289.979423 
L 113.318006 289.979423 
L 113.318006 289.462801 
L 117.437029 289.462801 
L 117.437029 288.946179 
L 125.369247 288.946179 
L 125.369247 287.912935 
L 131.090037 287.912935 
L 131.090037 287.396313 
L 131.212004 287.396313 
L 131.212004 286.879691 
L 133.914217 286.879691 
L 133.914217 286.363069 
L 135.223453 286.363069 
L 135.223453 285.329825 
L 135.512432 285.329825 
L 135.607728 283.779959 
L 136.443273 283.779959 
L 136.443273 282.746715 
L 137.499824 282.746715 
L 137.585114 281.713471 
L 139.670757 281.713471 
L 139.670757 280.680226 
L 139.896462 280.680226 
L 139.896462 279.646982 
L 147.166263 279.646982 
L 147.166263 278.613738 
L 152.761158 278.613738 
L 152.761158 278.097116 
L 156.491741 278.097116 
L 156.491741 277.580494 
L 157.412685 277.580494 
L 157.412685 277.063872 
L 158.100534 277.063872 
L 158.100534 276.030628 
L 158.710789 276.030628 
L 158.710789 274.480762 
L 158.918259 274.480762 
L 158.918259 273.96414 
L 160.330612 273.96414 
L 160.330612 273.447518 
L 161.815719 273.447518 
L 161.815719 272.930896 
L 209.877503 272.930896 
L 209.982876 271.38103 
L 210.084689 271.38103 
L 210.163966 268.79792 
L 210.638087 268.79792 
L 210.638087 268.281298 
L 210.751843 268.281298 
L 210.751843 267.248054 
L 210.894433 267.248054 
L 210.968805 266.21481 
L 211.047051 266.21481 
L 211.047051 265.698188 
L 211.363505 265.698188 
L 211.363505 265.181566 
L 222.394726 265.181566 
L 222.394726 264.664944 
L 222.703076 264.664944 
L 222.808058 262.081834 
L 223.019042 262.081834 
L 223.019042 261.565212 
L 229.800933 261.565212 
L 229.800933 260.531968 
L 230.013931 260.531968 
L 230.013931 260.015346 
L 230.39756 260.015346 
L 230.39756 259.498724 
L 234.776636 259.498724 
L 234.867292 258.46548 
L 234.90438 258.46548 
L 234.944319 257.432236 
L 238.809913 257.432236 
L 238.855256 255.365748 
L 242.089507 255.365748 
L 242.145609 254.332504 
L 244.815298 254.332504 
L 244.815298 253.815882 
L 247.140983 253.815882 
L 247.140983 253.29926 
L 249.249715 253.29926 
L 249.267621 251.749394 
L 251.127213 251.749394 
L 251.128545 250.71615 
L 252.821347 250.71615 
L 252.821347 250.199528 
L 254.348544 250.199528 
L 254.348544 249.682906 
L 255.796948 249.682906 
L 255.796948 249.166284 
L 257.138704 249.166284 
L 257.138704 248.649662 
L 258.364119 248.649662 
L 258.364119 248.13304 
L 260.568458 248.13304 
L 260.588423 247.099796 
L 263.47868 247.099796 
L 263.47868 246.583173 
L 265.174657 246.583173 
L 265.174657 246.066551 
L 265.946896 246.066551 
L 265.947477 245.033307 
L 269.453567 245.033307 
L 269.453567 244.516685 
L 270.082063 244.516685 
L 270.082063 244.000063 
L 273.435044 244.000063 
L 273.435044 243.483441 
L 274.426102 243.483441 
L 274.426102 242.966819 
L 275.814592 242.966819 
L 275.814592 242.450197 
L 282.141995 242.450197 
L 282.141995 241.933575 
L 292.348555 241.933575 
L 292.348555 241.416953 
L 358.8 241.416953 
L 358.8 241.416953 
" style="fill:none;stroke:#ff0000;stroke-linecap:square;stroke-width:1.5;"/>
   </g>
   <g id="line2d_45">
    <defs>
     <path d="M 0 -6 
L -5.196152 -3 
L -5.196152 3 
L -0 6 
L 5.196152 3 
L 5.196152 -3 
z
" id="mf30dabf567" style="stroke:#ff0000;stroke-linejoin:miter;stroke-width:1.5;"/>
    </defs>
    <g>
     <use style="fill:none;stroke:#ff0000;stroke-linejoin:miter;stroke-width:1.5;" x="131.212004" xlink:href="#mf30dabf567" y="287.396313"/>
     <use style="fill:none;stroke:#ff0000;stroke-linejoin:miter;stroke-width:1.5;" x="161.815719" xlink:href="#mf30dabf567" y="272.930896"/>
     <use style="fill:none;stroke:#ff0000;stroke-linejoin:miter;stroke-width:1.5;" x="260.588423" xlink:href="#mf30dabf567" y="247.616418"/>
     <use style="fill:none;stroke:#ff0000;stroke-linejoin:miter;stroke-width:1.5;" x="292.348555" xlink:href="#mf30dabf567" y="241.416953"/>
     <use style="fill:none;stroke:#ff0000;stroke-linejoin:miter;stroke-width:1.5;" x="292.348555" xlink:href="#mf30dabf567" y="241.416953"/>
     <use style="fill:none;stroke:#ff0000;stroke-linejoin:miter;stroke-width:1.5;" x="358.8" xlink:href="#mf30dabf567" y="241.416953"/>
    </g>
   </g>
   <g id="line2d_46"/>
   <g id="line2d_47">
    <path clip-path="url(#paccbc62825)" d="M 209.873037 272.930896 
" style="fill:none;stroke:#ff0000;stroke-linecap:square;stroke-width:1.5;"/>
    <defs>
     <path d="M -12 12 
L 12 -12 
M -12 -12 
L 12 12 
" id="m8629bd4bc7" style="stroke:#ff0000;stroke-width:3;"/>
    </defs>
    <g clip-path="url(#paccbc62825)">
     <use style="fill:#ff0000;stroke:#ff0000;stroke-width:3;" x="209.873037" xlink:href="#m8629bd4bc7" y="272.930896"/>
    </g>
   </g>
   <g id="line2d_48">
    <path d="M 358.8 241.416953 
L 390.48 292.97583 
" style="fill:none;stroke:#ff0000;stroke-linecap:square;stroke-width:1.5;"/>
    <g>
     <use style="fill:none;stroke:#ff0000;stroke-linejoin:miter;stroke-width:1.5;" x="358.8" xlink:href="#mf30dabf567" y="241.416953"/>
     <use style="fill:none;stroke:#ff0000;stroke-linejoin:miter;stroke-width:1.5;" x="390.48" xlink:href="#mf30dabf567" y="292.97583"/>
    </g>
   </g>
   <g id="line2d_49">
    <path d="M 358.8 205.253412 
L 390.48 229.741296 
" style="fill:none;stroke:#ff00ff;stroke-linecap:square;stroke-width:1.5;"/>
    <g>
     <use style="fill:none;stroke:#ff00ff;stroke-linejoin:miter;stroke-width:1.5;" x="358.8" xlink:href="#md8b31fdcf8" y="205.253412"/>
     <use style="fill:none;stroke:#ff00ff;stroke-linejoin:miter;stroke-width:1.5;" x="390.48" xlink:href="#md8b31fdcf8" y="229.741296"/>
    </g>
   </g>
   <g id="line2d_50">
    <path d="M 358.8 200.087192 
L 390.48 166.506761 
" style="fill:none;stroke:#ffa500;stroke-linecap:square;stroke-width:1.5;"/>
    <g>
     <use style="fill:none;stroke:#ffa500;stroke-linejoin:bevel;stroke-width:1.5;" x="358.8" xlink:href="#m93c47c017e" y="200.087192"/>
     <use style="fill:none;stroke:#ffa500;stroke-linejoin:bevel;stroke-width:1.5;" x="390.48" xlink:href="#m93c47c017e" y="166.506761"/>
    </g>
   </g>
   <g id="line2d_51">
    <path d="M 358.8 184.588532 
L 390.48 103.272226 
" style="fill:none;stroke:#000080;stroke-linecap:square;stroke-width:1.5;"/>
    <g>
     <use style="fill:none;stroke:#000080;stroke-width:1.5;" x="358.8" xlink:href="#m44b4b2b045" y="184.588532"/>
     <use style="fill:none;stroke:#000080;stroke-width:1.5;" x="390.48" xlink:href="#m44b4b2b045" y="103.272226"/>
    </g>
   </g>
   <g id="line2d_52">
    <path d="M 358.8 174.256091 
L 390.48 40.037692 
" style="fill:none;stroke:#6495ed;stroke-linecap:square;stroke-width:1.5;"/>
    <g>
     <use style="fill:none;stroke:#6495ed;stroke-linejoin:miter;stroke-width:1.5;" x="358.8" xlink:href="#mdfcec32fb4" y="174.256091"/>
     <use style="fill:none;stroke:#6495ed;stroke-linejoin:miter;stroke-width:1.5;" x="390.48" xlink:href="#mdfcec32fb4" y="40.037692"/>
    </g>
   </g>
   <g id="line2d_53">
    <path d="M 358.8 298.245375 
L 358.8 34.768147 
" style="fill:none;stroke:#000000;stroke-linecap:square;stroke-width:1.5;"/>
   </g>
   <g id="patch_3">
    <path d="M 70.8 298.245375 
L 70.8 32.133375 
" style="fill:none;stroke:#000000;stroke-linecap:square;stroke-linejoin:miter;stroke-width:0.8;"/>
   </g>
   <g id="patch_4">
    <path d="M 427.92 298.245375 
L 427.92 32.133375 
" style="fill:none;stroke:#000000;stroke-linecap:square;stroke-linejoin:miter;stroke-width:0.8;"/>
   </g>
   <g id="patch_5">
    <path d="M 70.8 298.245375 
L 427.92 298.245375 
" style="fill:none;stroke:#000000;stroke-linecap:square;stroke-linejoin:miter;stroke-width:0.8;"/>
   </g>
   <g id="patch_6">
    <path d="M 70.8 32.133375 
L 427.92 32.133375 
" style="fill:none;stroke:#000000;stroke-linecap:square;stroke-linejoin:miter;stroke-width:0.8;"/>
   </g>
   <g id="text_14">
    <!-- f15 -->
    <defs>
     <path d="M 10.796875 72.90625 
L 49.515625 72.90625 
L 49.515625 64.59375 
L 19.828125 64.59375 
L 19.828125 46.734375 
Q 21.96875 47.46875 24.109375 47.828125 
Q 26.265625 48.1875 28.421875 48.1875 
Q 40.625 48.1875 47.75 41.5 
Q 54.890625 34.8125 54.890625 23.390625 
Q 54.890625 11.625 47.5625 5.09375 
Q 40.234375 -1.421875 26.90625 -1.421875 
Q 22.3125 -1.421875 17.546875 -0.640625 
Q 12.796875 0.140625 7.71875 1.703125 
L 7.71875 11.625 
Q 12.109375 9.234375 16.796875 8.0625 
Q 21.484375 6.890625 26.703125 6.890625 
Q 35.15625 6.890625 40.078125 11.328125 
Q 45.015625 15.765625 45.015625 23.390625 
Q 45.015625 31 40.078125 35.4375 
Q 35.15625 39.890625 26.703125 39.890625 
Q 22.75 39.890625 18.8125 39.015625 
Q 14.890625 38.140625 10.796875 36.28125 
z
" id="DejaVuSans-35"/>
    </defs>
    <g transform="translate(396.24 297.114893)scale(0.15 -0.15)">
     <use xlink:href="#DejaVuSans-66"/>
     <use x="35.205078" xlink:href="#DejaVuSans-31"/>
     <use x="98.828125" xlink:href="#DejaVuSans-35"/>
    </g>
   </g>
   <g id="text_15">
    <!-- f19 -->
    <defs>
     <path d="M 10.984375 1.515625 
L 10.984375 10.5 
Q 14.703125 8.734375 18.5 7.8125 
Q 22.3125 6.890625 25.984375 6.890625 
Q 35.75 6.890625 40.890625 13.453125 
Q 46.046875 20.015625 46.78125 33.40625 
Q 43.953125 29.203125 39.59375 26.953125 
Q 35.25 24.703125 29.984375 24.703125 
Q 19.046875 24.703125 12.671875 31.3125 
Q 6.296875 37.9375 6.296875 49.421875 
Q 6.296875 60.640625 12.9375 67.421875 
Q 19.578125 74.21875 30.609375 74.21875 
Q 43.265625 74.21875 49.921875 64.515625 
Q 56.59375 54.828125 56.59375 36.375 
Q 56.59375 19.140625 48.40625 8.859375 
Q 40.234375 -1.421875 26.421875 -1.421875 
Q 22.703125 -1.421875 18.890625 -0.6875 
Q 15.09375 0.046875 10.984375 1.515625 
z
M 30.609375 32.421875 
Q 37.25 32.421875 41.125 36.953125 
Q 45.015625 41.5 45.015625 49.421875 
Q 45.015625 57.28125 41.125 61.84375 
Q 37.25 66.40625 30.609375 66.40625 
Q 23.96875 66.40625 20.09375 61.84375 
Q 16.21875 57.28125 16.21875 49.421875 
Q 16.21875 41.5 20.09375 36.953125 
Q 23.96875 32.421875 30.609375 32.421875 
z
" id="DejaVuSans-39"/>
    </defs>
    <g transform="translate(396.24 233.880358)scale(0.15 -0.15)">
     <use xlink:href="#DejaVuSans-66"/>
     <use x="35.205078" xlink:href="#DejaVuSans-31"/>
     <use x="98.828125" xlink:href="#DejaVuSans-39"/>
    </g>
   </g>
   <g id="text_16">
    <!-- f16 -->
    <g transform="translate(396.24 170.645824)scale(0.15 -0.15)">
     <use xlink:href="#DejaVuSans-66"/>
     <use x="35.205078" xlink:href="#DejaVuSans-31"/>
     <use x="98.828125" xlink:href="#DejaVuSans-36"/>
    </g>
   </g>
   <g id="text_17">
    <!-- f18 -->
    <g transform="translate(396.24 107.411289)scale(0.15 -0.15)">
     <use xlink:href="#DejaVuSans-66"/>
     <use x="35.205078" xlink:href="#DejaVuSans-31"/>
     <use x="98.828125" xlink:href="#DejaVuSans-38"/>
    </g>
   </g>
   <g id="text_18">
    <!-- f17 -->
    <defs>
     <path d="M 8.203125 72.90625 
L 55.078125 72.90625 
L 55.078125 68.703125 
L 28.609375 0 
L 18.3125 0 
L 43.21875 64.59375 
L 8.203125 64.59375 
z
" id="DejaVuSans-37"/>
    </defs>
    <g transform="translate(396.24 44.176754)scale(0.15 -0.15)">
     <use xlink:href="#DejaVuSans-66"/>
     <use x="35.205078" xlink:href="#DejaVuSans-31"/>
     <use x="98.828125" xlink:href="#DejaVuSans-37"/>
    </g>
   </g>
   <g id="text_19">
    <!-- bbob -->
    <defs>
     <path d="M 48.6875 27.296875 
Q 48.6875 37.203125 44.609375 42.84375 
Q 40.53125 48.484375 33.40625 48.484375 
Q 26.265625 48.484375 22.1875 42.84375 
Q 18.109375 37.203125 18.109375 27.296875 
Q 18.109375 17.390625 22.1875 11.75 
Q 26.265625 6.109375 33.40625 6.109375 
Q 40.53125 6.109375 44.609375 11.75 
Q 48.6875 17.390625 48.6875 27.296875 
z
M 18.109375 46.390625 
Q 20.953125 51.265625 25.265625 53.625 
Q 29.59375 56 35.59375 56 
Q 45.5625 56 51.78125 48.09375 
Q 58.015625 40.1875 58.015625 27.296875 
Q 58.015625 14.40625 51.78125 6.484375 
Q 45.5625 -1.421875 35.59375 -1.421875 
Q 29.59375 -1.421875 25.265625 0.953125 
Q 20.953125 3.328125 18.109375 8.203125 
L 18.109375 0 
L 9.078125 0 
L 9.078125 75.984375 
L 18.109375 75.984375 
z
" id="DejaVuSans-62"/>
    </defs>
    <g transform="translate(74.3712 50.114612)scale(0.1666 -0.1666)">
     <use xlink:href="#DejaVuSans-62"/>
     <use x="63.476562" xlink:href="#DejaVuSans-62"/>
     <use x="126.953125" xlink:href="#DejaVuSans-6f"/>
     <use x="188.134766" xlink:href="#DejaVuSans-62"/>
    </g>
    <!-- Multi-modal functions, 5-D -->
    <defs>
     <path d="M 9.8125 72.90625 
L 24.515625 72.90625 
L 43.109375 23.296875 
L 61.8125 72.90625 
L 76.515625 72.90625 
L 76.515625 0 
L 66.890625 0 
L 66.890625 64.015625 
L 48.09375 14.015625 
L 38.1875 14.015625 
L 19.390625 64.015625 
L 19.390625 0 
L 9.8125 0 
z
" id="DejaVuSans-4d"/>
     <path d="M 11.71875 12.40625 
L 22.015625 12.40625 
L 22.015625 4 
L 14.015625 -11.625 
L 7.71875 -11.625 
L 11.71875 4 
z
" id="DejaVuSans-2c"/>
     <path d="M 19.671875 64.796875 
L 19.671875 8.109375 
L 31.59375 8.109375 
Q 46.6875 8.109375 53.6875 14.9375 
Q 60.6875 21.78125 60.6875 36.53125 
Q 60.6875 51.171875 53.6875 57.984375 
Q 46.6875 64.796875 31.59375 64.796875 
z
M 9.8125 72.90625 
L 30.078125 72.90625 
Q 51.265625 72.90625 61.171875 64.09375 
Q 71.09375 55.28125 71.09375 36.53125 
Q 71.09375 17.671875 61.125 8.828125 
Q 51.171875 0 30.078125 0 
L 9.8125 0 
z
" id="DejaVuSans-44"/>
    </defs>
    <g transform="translate(74.3712 68.770168)scale(0.1666 -0.1666)">
     <use xlink:href="#DejaVuSans-4d"/>
     <use x="86.279297" xlink:href="#DejaVuSans-75"/>
     <use x="149.658203" xlink:href="#DejaVuSans-6c"/>
     <use x="177.441406" xlink:href="#DejaVuSans-74"/>
     <use x="216.650391" xlink:href="#DejaVuSans-69"/>
     <use x="244.433594" xlink:href="#DejaVuSans-2d"/>
     <use x="280.517578" xlink:href="#DejaVuSans-6d"/>
     <use x="377.929688" xlink:href="#DejaVuSans-6f"/>
     <use x="439.111328" xlink:href="#DejaVuSans-64"/>
     <use x="502.587891" xlink:href="#DejaVuSans-61"/>
     <use x="563.867188" xlink:href="#DejaVuSans-6c"/>
     <use x="591.650391" xlink:href="#DejaVuSans-20"/>
     <use x="623.4375" xlink:href="#DejaVuSans-66"/>
     <use x="658.642578" xlink:href="#DejaVuSans-75"/>
     <use x="722.021484" xlink:href="#DejaVuSans-6e"/>
     <use x="785.400391" xlink:href="#DejaVuSans-63"/>
     <use x="840.380859" xlink:href="#DejaVuSans-74"/>
     <use x="879.589844" xlink:href="#DejaVuSans-69"/>
     <use x="907.373047" xlink:href="#DejaVuSans-6f"/>
     <use x="968.554688" xlink:href="#DejaVuSans-6e"/>
     <use x="1031.933594" xlink:href="#DejaVuSans-73"/>
     <use x="1084.033203" xlink:href="#DejaVuSans-2c"/>
     <use x="1115.820312" xlink:href="#DejaVuSans-20"/>
     <use x="1147.607422" xlink:href="#DejaVuSans-35"/>
     <use x="1211.230469" xlink:href="#DejaVuSans-2d"/>
     <use x="1247.314453" xlink:href="#DejaVuSans-44"/>
    </g>
    <!-- 51 targets in 100..1e-08 -->
    <g transform="translate(74.3712 87.425723)scale(0.1666 -0.1666)">
     <use xlink:href="#DejaVuSans-35"/>
     <use x="63.623047" xlink:href="#DejaVuSans-31"/>
     <use x="127.246094" xlink:href="#DejaVuSans-20"/>
     <use x="159.033203" xlink:href="#DejaVuSans-74"/>
     <use x="198.242188" xlink:href="#DejaVuSans-61"/>
     <use x="259.521484" xlink:href="#DejaVuSans-72"/>
     <use x="300.619141" xlink:href="#DejaVuSans-67"/>
     <use x="364.095703" xlink:href="#DejaVuSans-65"/>
     <use x="425.619141" xlink:href="#DejaVuSans-74"/>
     <use x="464.828125" xlink:href="#DejaVuSans-73"/>
     <use x="516.927734" xlink:href="#DejaVuSans-20"/>
     <use x="548.714844" xlink:href="#DejaVuSans-69"/>
     <use x="576.498047" xlink:href="#DejaVuSans-6e"/>
     <use x="639.876953" xlink:href="#DejaVuSans-20"/>
     <use x="671.664062" xlink:href="#DejaVuSans-31"/>
     <use x="735.287109" xlink:href="#DejaVuSans-30"/>
     <use x="798.910156" xlink:href="#DejaVuSans-30"/>
     <use x="862.533203" xlink:href="#DejaVuSans-2e"/>
     <use x="894.320312" xlink:href="#DejaVuSans-2e"/>
     <use x="926.107422" xlink:href="#DejaVuSans-31"/>
     <use x="989.730469" xlink:href="#DejaVuSans-65"/>
     <use x="1051.253906" xlink:href="#DejaVuSans-2d"/>
     <use x="1087.337891" xlink:href="#DejaVuSans-30"/>
     <use x="1150.960938" xlink:href="#DejaVuSans-38"/>
    </g>
    <!-- 15 instances -->
    <g transform="translate(74.3712 106.081279)scale(0.1666 -0.1666)">
     <use xlink:href="#DejaVuSans-31"/>
     <use x="63.623047" xlink:href="#DejaVuSans-35"/>
     <use x="127.246094" xlink:href="#DejaVuSans-20"/>
     <use x="159.033203" xlink:href="#DejaVuSans-69"/>
     <use x="186.816406" xlink:href="#DejaVuSans-6e"/>
     <use x="250.195312" xlink:href="#DejaVuSans-73"/>
     <use x="302.294922" xlink:href="#DejaVuSans-74"/>
     <use x="341.503906" xlink:href="#DejaVuSans-61"/>
     <use x="402.783203" xlink:href="#DejaVuSans-6e"/>
     <use x="466.162109" xlink:href="#DejaVuSans-63"/>
     <use x="521.142578" xlink:href="#DejaVuSans-65"/>
     <use x="582.666016" xlink:href="#DejaVuSans-73"/>
    </g>
   </g>
   <g id="text_20">
    <!-- v2.1 -->
    <g style="fill:#808080;" transform="translate(238.449063 293.504568)scale(0.1 -0.1)">
     <use xlink:href="#DejaVuSans-76"/>
     <use x="59.179688" xlink:href="#DejaVuSans-32"/>
     <use x="122.802734" xlink:href="#DejaVuSans-2e"/>
     <use x="154.589844" xlink:href="#DejaVuSans-31"/>
    </g>
   </g>
  </g>
 </g>
 <defs>
  <clipPath id="paccbc62825">
   <rect height="266.112" width="357.12" x="70.8" y="32.133375"/>
  </clipPath>
 </defs>
</svg>
