<?xml version="1.0" encoding="utf-8" standalone="no"?>
<!DOCTYPE svg PUBLIC "-//W3C//DTD SVG 1.1//EN"
  "http://www.w3.org/Graphics/SVG/1.1/DTD/svg11.dtd">
<!-- Created with matplotlib (http://matplotlib.org/) -->
<svg height="353pt" version="1.1" viewBox="0 0 439 353" width="439pt" xmlns="http://www.w3.org/2000/svg" xmlns:xlink="http://www.w3.org/1999/xlink">
 <defs>
  <style type="text/css">
*{stroke-linecap:butt;stroke-linejoin:round;}
  </style>
 </defs>
 <g id="figure_1">
  <g id="patch_1">
   <path d="M 0 353.22225 
L 439.489219 353.22225 
L 439.489219 0 
L 0 0 
z
" style="fill:#ffffff;"/>
  </g>
  <g id="axes_1">
   <g id="patch_2">
    <path d="M 70.8 298.245375 
L 427.92 298.245375 
L 427.92 32.133375 
L 70.8 32.133375 
z
" style="fill:#ffffff;"/>
   </g>
   <g id="matplotlib.axis_1">
    <g id="xtick_1">
     <g id="line2d_1">
      <path clip-path="url(#pcf2e744428)" d="M 70.8 298.245375 
L 70.8 32.133375 
" style="fill:none;stroke:#b0b0b0;stroke-linecap:square;stroke-width:0.8;"/>
     </g>
     <g id="line2d_2">
      <defs>
       <path d="M 0 0 
L 0 3.5 
" id="m420538447b" style="stroke:#000000;stroke-width:0.8;"/>
      </defs>
      <g>
       <use style="stroke:#000000;stroke-width:0.8;" x="70.8" xlink:href="#m420538447b" y="298.245375"/>
      </g>
     </g>
     <g id="text_1">
      <!-- 0 -->
      <defs>
       <path d="M 31.78125 66.40625 
Q 24.171875 66.40625 20.328125 58.90625 
Q 16.5 51.421875 16.5 36.375 
Q 16.5 21.390625 20.328125 13.890625 
Q 24.171875 6.390625 31.78125 6.390625 
Q 39.453125 6.390625 43.28125 13.890625 
Q 47.125 21.390625 47.125 36.375 
Q 47.125 51.421875 43.28125 58.90625 
Q 39.453125 66.40625 31.78125 66.40625 
z
M 31.78125 74.21875 
Q 44.046875 74.21875 50.515625 64.515625 
Q 56.984375 54.828125 56.984375 36.375 
Q 56.984375 17.96875 50.515625 8.265625 
Q 44.046875 -1.421875 31.78125 -1.421875 
Q 19.53125 -1.421875 13.0625 8.265625 
Q 6.59375 17.96875 6.59375 36.375 
Q 6.59375 54.828125 13.0625 64.515625 
Q 19.53125 74.21875 31.78125 74.21875 
z
" id="DejaVuSans-30"/>
      </defs>
      <g transform="translate(64.4375 320.44225)scale(0.2 -0.2)">
       <use xlink:href="#DejaVuSans-30"/>
      </g>
     </g>
    </g>
    <g id="xtick_2">
     <g id="line2d_3">
      <path clip-path="url(#pcf2e744428)" d="M 153.085714 298.245375 
L 153.085714 32.133375 
" style="fill:none;stroke:#b0b0b0;stroke-linecap:square;stroke-width:0.8;"/>
     </g>
     <g id="line2d_4">
      <g>
       <use style="stroke:#000000;stroke-width:0.8;" x="153.085714" xlink:href="#m420538447b" y="298.245375"/>
      </g>
     </g>
     <g id="text_2">
      <!-- 2 -->
      <defs>
       <path d="M 19.1875 8.296875 
L 53.609375 8.296875 
L 53.609375 0 
L 7.328125 0 
L 7.328125 8.296875 
Q 12.9375 14.109375 22.625 23.890625 
Q 32.328125 33.6875 34.8125 36.53125 
Q 39.546875 41.84375 41.421875 45.53125 
Q 43.3125 49.21875 43.3125 52.78125 
Q 43.3125 58.59375 39.234375 62.25 
Q 35.15625 65.921875 28.609375 65.921875 
Q 23.96875 65.921875 18.8125 64.3125 
Q 13.671875 62.703125 7.8125 59.421875 
L 7.8125 69.390625 
Q 13.765625 71.78125 18.9375 73 
Q 24.125 74.21875 28.421875 74.21875 
Q 39.75 74.21875 46.484375 68.546875 
Q 53.21875 62.890625 53.21875 53.421875 
Q 53.21875 48.921875 51.53125 44.890625 
Q 49.859375 40.875 45.40625 35.40625 
Q 44.1875 33.984375 37.640625 27.21875 
Q 31.109375 20.453125 19.1875 8.296875 
z
" id="DejaVuSans-32"/>
      </defs>
      <g transform="translate(146.723214 320.44225)scale(0.2 -0.2)">
       <use xlink:href="#DejaVuSans-32"/>
      </g>
     </g>
    </g>
    <g id="xtick_3">
     <g id="line2d_5">
      <path clip-path="url(#pcf2e744428)" d="M 235.371429 298.245375 
L 235.371429 32.133375 
" style="fill:none;stroke:#b0b0b0;stroke-linecap:square;stroke-width:0.8;"/>
     </g>
     <g id="line2d_6">
      <g>
       <use style="stroke:#000000;stroke-width:0.8;" x="235.371429" xlink:href="#m420538447b" y="298.245375"/>
      </g>
     </g>
     <g id="text_3">
      <!-- 4 -->
      <defs>
       <path d="M 37.796875 64.3125 
L 12.890625 25.390625 
L 37.796875 25.390625 
z
M 35.203125 72.90625 
L 47.609375 72.90625 
L 47.609375 25.390625 
L 58.015625 25.390625 
L 58.015625 17.1875 
L 47.609375 17.1875 
L 47.609375 0 
L 37.796875 0 
L 37.796875 17.1875 
L 4.890625 17.1875 
L 4.890625 26.703125 
z
" id="DejaVuSans-34"/>
      </defs>
      <g transform="translate(229.008929 320.44225)scale(0.2 -0.2)">
       <use xlink:href="#DejaVuSans-34"/>
      </g>
     </g>
    </g>
    <g id="xtick_4">
     <g id="line2d_7">
      <path clip-path="url(#pcf2e744428)" d="M 317.657143 298.245375 
L 317.657143 32.133375 
" style="fill:none;stroke:#b0b0b0;stroke-linecap:square;stroke-width:0.8;"/>
     </g>
     <g id="line2d_8">
      <g>
       <use style="stroke:#000000;stroke-width:0.8;" x="317.657143" xlink:href="#m420538447b" y="298.245375"/>
      </g>
     </g>
     <g id="text_4">
      <!-- 6 -->
      <defs>
       <path d="M 33.015625 40.375 
Q 26.375 40.375 22.484375 35.828125 
Q 18.609375 31.296875 18.609375 23.390625 
Q 18.609375 15.53125 22.484375 10.953125 
Q 26.375 6.390625 33.015625 6.390625 
Q 39.65625 6.390625 43.53125 10.953125 
Q 47.40625 15.53125 47.40625 23.390625 
Q 47.40625 31.296875 43.53125 35.828125 
Q 39.65625 40.375 33.015625 40.375 
z
M 52.59375 71.296875 
L 52.59375 62.3125 
Q 48.875 64.0625 45.09375 64.984375 
Q 41.3125 65.921875 37.59375 65.921875 
Q 27.828125 65.921875 22.671875 59.328125 
Q 17.53125 52.734375 16.796875 39.40625 
Q 19.671875 43.65625 24.015625 45.921875 
Q 28.375 48.1875 33.59375 48.1875 
Q 44.578125 48.1875 50.953125 41.515625 
Q 57.328125 34.859375 57.328125 23.390625 
Q 57.328125 12.15625 50.6875 5.359375 
Q 44.046875 -1.421875 33.015625 -1.421875 
Q 20.359375 -1.421875 13.671875 8.265625 
Q 6.984375 17.96875 6.984375 36.375 
Q 6.984375 53.65625 15.1875 63.9375 
Q 23.390625 74.21875 37.203125 74.21875 
Q 40.921875 74.21875 44.703125 73.484375 
Q 48.484375 72.75 52.59375 71.296875 
z
" id="DejaVuSans-36"/>
      </defs>
      <g transform="translate(311.294643 320.44225)scale(0.2 -0.2)">
       <use xlink:href="#DejaVuSans-36"/>
      </g>
     </g>
    </g>
    <g id="xtick_5">
     <g id="line2d_9">
      <path clip-path="url(#pcf2e744428)" d="M 399.942857 298.245375 
L 399.942857 32.133375 
" style="fill:none;stroke:#b0b0b0;stroke-linecap:square;stroke-width:0.8;"/>
     </g>
     <g id="line2d_10">
      <g>
       <use style="stroke:#000000;stroke-width:0.8;" x="399.942857" xlink:href="#m420538447b" y="298.245375"/>
      </g>
     </g>
     <g id="text_5">
      <!-- 8 -->
      <defs>
       <path d="M 31.78125 34.625 
Q 24.75 34.625 20.71875 30.859375 
Q 16.703125 27.09375 16.703125 20.515625 
Q 16.703125 13.921875 20.71875 10.15625 
Q 24.75 6.390625 31.78125 6.390625 
Q 38.8125 6.390625 42.859375 10.171875 
Q 46.921875 13.96875 46.921875 20.515625 
Q 46.921875 27.09375 42.890625 30.859375 
Q 38.875 34.625 31.78125 34.625 
z
M 21.921875 38.8125 
Q 15.578125 40.375 12.03125 44.71875 
Q 8.5 49.078125 8.5 55.328125 
Q 8.5 64.0625 14.71875 69.140625 
Q 20.953125 74.21875 31.78125 74.21875 
Q 42.671875 74.21875 48.875 69.140625 
Q 55.078125 64.0625 55.078125 55.328125 
Q 55.078125 49.078125 51.53125 44.71875 
Q 48 40.375 41.703125 38.8125 
Q 48.828125 37.15625 52.796875 32.3125 
Q 56.78125 27.484375 56.78125 20.515625 
Q 56.78125 9.90625 50.3125 4.234375 
Q 43.84375 -1.421875 31.78125 -1.421875 
Q 19.734375 -1.421875 13.25 4.234375 
Q 6.78125 9.90625 6.78125 20.515625 
Q 6.78125 27.484375 10.78125 32.3125 
Q 14.796875 37.15625 21.921875 38.8125 
z
M 18.3125 54.390625 
Q 18.3125 48.734375 21.84375 45.5625 
Q 25.390625 42.390625 31.78125 42.390625 
Q 38.140625 42.390625 41.71875 45.5625 
Q 45.3125 48.734375 45.3125 54.390625 
Q 45.3125 60.0625 41.71875 63.234375 
Q 38.140625 66.40625 31.78125 66.40625 
Q 25.390625 66.40625 21.84375 63.234375 
Q 18.3125 60.0625 18.3125 54.390625 
z
" id="DejaVuSans-38"/>
      </defs>
      <g transform="translate(393.580357 320.44225)scale(0.2 -0.2)">
       <use xlink:href="#DejaVuSans-38"/>
      </g>
     </g>
    </g>
    <g id="text_6">
     <!-- log10 of (# f-evals / dimension) -->
     <defs>
      <path d="M 9.421875 75.984375 
L 18.40625 75.984375 
L 18.40625 0 
L 9.421875 0 
z
" id="DejaVuSans-6c"/>
      <path d="M 30.609375 48.390625 
Q 23.390625 48.390625 19.1875 42.75 
Q 14.984375 37.109375 14.984375 27.296875 
Q 14.984375 17.484375 19.15625 11.84375 
Q 23.34375 6.203125 30.609375 6.203125 
Q 37.796875 6.203125 41.984375 11.859375 
Q 46.1875 17.53125 46.1875 27.296875 
Q 46.1875 37.015625 41.984375 42.703125 
Q 37.796875 48.390625 30.609375 48.390625 
z
M 30.609375 56 
Q 42.328125 56 49.015625 48.375 
Q 55.71875 40.765625 55.71875 27.296875 
Q 55.71875 13.875 49.015625 6.21875 
Q 42.328125 -1.421875 30.609375 -1.421875 
Q 18.84375 -1.421875 12.171875 6.21875 
Q 5.515625 13.875 5.515625 27.296875 
Q 5.515625 40.765625 12.171875 48.375 
Q 18.84375 56 30.609375 56 
z
" id="DejaVuSans-6f"/>
      <path d="M 45.40625 27.984375 
Q 45.40625 37.75 41.375 43.109375 
Q 37.359375 48.484375 30.078125 48.484375 
Q 22.859375 48.484375 18.828125 43.109375 
Q 14.796875 37.75 14.796875 27.984375 
Q 14.796875 18.265625 18.828125 12.890625 
Q 22.859375 7.515625 30.078125 7.515625 
Q 37.359375 7.515625 41.375 12.890625 
Q 45.40625 18.265625 45.40625 27.984375 
z
M 54.390625 6.78125 
Q 54.390625 -7.171875 48.1875 -13.984375 
Q 42 -20.796875 29.203125 -20.796875 
Q 24.46875 -20.796875 20.265625 -20.09375 
Q 16.0625 -19.390625 12.109375 -17.921875 
L 12.109375 -9.1875 
Q 16.0625 -11.328125 19.921875 -12.34375 
Q 23.78125 -13.375 27.78125 -13.375 
Q 36.625 -13.375 41.015625 -8.765625 
Q 45.40625 -4.15625 45.40625 5.171875 
L 45.40625 9.625 
Q 42.625 4.78125 38.28125 2.390625 
Q 33.9375 0 27.875 0 
Q 17.828125 0 11.671875 7.65625 
Q 5.515625 15.328125 5.515625 27.984375 
Q 5.515625 40.671875 11.671875 48.328125 
Q 17.828125 56 27.875 56 
Q 33.9375 56 38.28125 53.609375 
Q 42.625 51.21875 45.40625 46.390625 
L 45.40625 54.6875 
L 54.390625 54.6875 
z
" id="DejaVuSans-67"/>
      <path d="M 12.40625 8.296875 
L 28.515625 8.296875 
L 28.515625 63.921875 
L 10.984375 60.40625 
L 10.984375 69.390625 
L 28.421875 72.90625 
L 38.28125 72.90625 
L 38.28125 8.296875 
L 54.390625 8.296875 
L 54.390625 0 
L 12.40625 0 
z
" id="DejaVuSans-31"/>
      <path id="DejaVuSans-20"/>
      <path d="M 37.109375 75.984375 
L 37.109375 68.5 
L 28.515625 68.5 
Q 23.6875 68.5 21.796875 66.546875 
Q 19.921875 64.59375 19.921875 59.515625 
L 19.921875 54.6875 
L 34.71875 54.6875 
L 34.71875 47.703125 
L 19.921875 47.703125 
L 19.921875 0 
L 10.890625 0 
L 10.890625 47.703125 
L 2.296875 47.703125 
L 2.296875 54.6875 
L 10.890625 54.6875 
L 10.890625 58.5 
Q 10.890625 67.625 15.140625 71.796875 
Q 19.390625 75.984375 28.609375 75.984375 
z
" id="DejaVuSans-66"/>
      <path d="M 31 75.875 
Q 24.46875 64.65625 21.28125 53.65625 
Q 18.109375 42.671875 18.109375 31.390625 
Q 18.109375 20.125 21.3125 9.0625 
Q 24.515625 -2 31 -13.1875 
L 23.1875 -13.1875 
Q 15.875 -1.703125 12.234375 9.375 
Q 8.59375 20.453125 8.59375 31.390625 
Q 8.59375 42.28125 12.203125 53.3125 
Q 15.828125 64.359375 23.1875 75.875 
z
" id="DejaVuSans-28"/>
      <path d="M 51.125 44 
L 36.921875 44 
L 32.8125 27.6875 
L 47.125 27.6875 
z
M 43.796875 71.78125 
L 38.71875 51.515625 
L 52.984375 51.515625 
L 58.109375 71.78125 
L 65.921875 71.78125 
L 60.890625 51.515625 
L 76.125 51.515625 
L 76.125 44 
L 58.984375 44 
L 54.984375 27.6875 
L 70.515625 27.6875 
L 70.515625 20.21875 
L 53.078125 20.21875 
L 48 0 
L 40.1875 0 
L 45.21875 20.21875 
L 30.90625 20.21875 
L 25.875 0 
L 18.015625 0 
L 23.09375 20.21875 
L 7.71875 20.21875 
L 7.71875 27.6875 
L 24.90625 27.6875 
L 29 44 
L 13.28125 44 
L 13.28125 51.515625 
L 30.90625 51.515625 
L 35.890625 71.78125 
z
" id="DejaVuSans-23"/>
      <path d="M 4.890625 31.390625 
L 31.203125 31.390625 
L 31.203125 23.390625 
L 4.890625 23.390625 
z
" id="DejaVuSans-2d"/>
      <path d="M 56.203125 29.59375 
L 56.203125 25.203125 
L 14.890625 25.203125 
Q 15.484375 15.921875 20.484375 11.0625 
Q 25.484375 6.203125 34.421875 6.203125 
Q 39.59375 6.203125 44.453125 7.46875 
Q 49.3125 8.734375 54.109375 11.28125 
L 54.109375 2.78125 
Q 49.265625 0.734375 44.1875 -0.34375 
Q 39.109375 -1.421875 33.890625 -1.421875 
Q 20.796875 -1.421875 13.15625 6.1875 
Q 5.515625 13.8125 5.515625 26.8125 
Q 5.515625 40.234375 12.765625 48.109375 
Q 20.015625 56 32.328125 56 
Q 43.359375 56 49.78125 48.890625 
Q 56.203125 41.796875 56.203125 29.59375 
z
M 47.21875 32.234375 
Q 47.125 39.59375 43.09375 43.984375 
Q 39.0625 48.390625 32.421875 48.390625 
Q 24.90625 48.390625 20.390625 44.140625 
Q 15.875 39.890625 15.1875 32.171875 
z
" id="DejaVuSans-65"/>
      <path d="M 2.984375 54.6875 
L 12.5 54.6875 
L 29.59375 8.796875 
L 46.6875 54.6875 
L 56.203125 54.6875 
L 35.6875 0 
L 23.484375 0 
z
" id="DejaVuSans-76"/>
      <path d="M 34.28125 27.484375 
Q 23.390625 27.484375 19.1875 25 
Q 14.984375 22.515625 14.984375 16.5 
Q 14.984375 11.71875 18.140625 8.90625 
Q 21.296875 6.109375 26.703125 6.109375 
Q 34.1875 6.109375 38.703125 11.40625 
Q 43.21875 16.703125 43.21875 25.484375 
L 43.21875 27.484375 
z
M 52.203125 31.203125 
L 52.203125 0 
L 43.21875 0 
L 43.21875 8.296875 
Q 40.140625 3.328125 35.546875 0.953125 
Q 30.953125 -1.421875 24.3125 -1.421875 
Q 15.921875 -1.421875 10.953125 3.296875 
Q 6 8.015625 6 15.921875 
Q 6 25.140625 12.171875 29.828125 
Q 18.359375 34.515625 30.609375 34.515625 
L 43.21875 34.515625 
L 43.21875 35.40625 
Q 43.21875 41.609375 39.140625 45 
Q 35.0625 48.390625 27.6875 48.390625 
Q 23 48.390625 18.546875 47.265625 
Q 14.109375 46.140625 10.015625 43.890625 
L 10.015625 52.203125 
Q 14.9375 54.109375 19.578125 55.046875 
Q 24.21875 56 28.609375 56 
Q 40.484375 56 46.34375 49.84375 
Q 52.203125 43.703125 52.203125 31.203125 
z
" id="DejaVuSans-61"/>
      <path d="M 44.28125 53.078125 
L 44.28125 44.578125 
Q 40.484375 46.53125 36.375 47.5 
Q 32.28125 48.484375 27.875 48.484375 
Q 21.1875 48.484375 17.84375 46.4375 
Q 14.5 44.390625 14.5 40.28125 
Q 14.5 37.15625 16.890625 35.375 
Q 19.28125 33.59375 26.515625 31.984375 
L 29.59375 31.296875 
Q 39.15625 29.25 43.1875 25.515625 
Q 47.21875 21.78125 47.21875 15.09375 
Q 47.21875 7.46875 41.1875 3.015625 
Q 35.15625 -1.421875 24.609375 -1.421875 
Q 20.21875 -1.421875 15.453125 -0.5625 
Q 10.6875 0.296875 5.421875 2 
L 5.421875 11.28125 
Q 10.40625 8.6875 15.234375 7.390625 
Q 20.0625 6.109375 24.8125 6.109375 
Q 31.15625 6.109375 34.5625 8.28125 
Q 37.984375 10.453125 37.984375 14.40625 
Q 37.984375 18.0625 35.515625 20.015625 
Q 33.0625 21.96875 24.703125 23.78125 
L 21.578125 24.515625 
Q 13.234375 26.265625 9.515625 29.90625 
Q 5.8125 33.546875 5.8125 39.890625 
Q 5.8125 47.609375 11.28125 51.796875 
Q 16.75 56 26.8125 56 
Q 31.78125 56 36.171875 55.265625 
Q 40.578125 54.546875 44.28125 53.078125 
z
" id="DejaVuSans-73"/>
      <path d="M 25.390625 72.90625 
L 33.6875 72.90625 
L 8.296875 -9.28125 
L 0 -9.28125 
z
" id="DejaVuSans-2f"/>
      <path d="M 45.40625 46.390625 
L 45.40625 75.984375 
L 54.390625 75.984375 
L 54.390625 0 
L 45.40625 0 
L 45.40625 8.203125 
Q 42.578125 3.328125 38.25 0.953125 
Q 33.9375 -1.421875 27.875 -1.421875 
Q 17.96875 -1.421875 11.734375 6.484375 
Q 5.515625 14.40625 5.515625 27.296875 
Q 5.515625 40.1875 11.734375 48.09375 
Q 17.96875 56 27.875 56 
Q 33.9375 56 38.25 53.625 
Q 42.578125 51.265625 45.40625 46.390625 
z
M 14.796875 27.296875 
Q 14.796875 17.390625 18.875 11.75 
Q 22.953125 6.109375 30.078125 6.109375 
Q 37.203125 6.109375 41.296875 11.75 
Q 45.40625 17.390625 45.40625 27.296875 
Q 45.40625 37.203125 41.296875 42.84375 
Q 37.203125 48.484375 30.078125 48.484375 
Q 22.953125 48.484375 18.875 42.84375 
Q 14.796875 37.203125 14.796875 27.296875 
z
" id="DejaVuSans-64"/>
      <path d="M 9.421875 54.6875 
L 18.40625 54.6875 
L 18.40625 0 
L 9.421875 0 
z
M 9.421875 75.984375 
L 18.40625 75.984375 
L 18.40625 64.59375 
L 9.421875 64.59375 
z
" id="DejaVuSans-69"/>
      <path d="M 52 44.1875 
Q 55.375 50.25 60.0625 53.125 
Q 64.75 56 71.09375 56 
Q 79.640625 56 84.28125 50.015625 
Q 88.921875 44.046875 88.921875 33.015625 
L 88.921875 0 
L 79.890625 0 
L 79.890625 32.71875 
Q 79.890625 40.578125 77.09375 44.375 
Q 74.3125 48.1875 68.609375 48.1875 
Q 61.625 48.1875 57.5625 43.546875 
Q 53.515625 38.921875 53.515625 30.90625 
L 53.515625 0 
L 44.484375 0 
L 44.484375 32.71875 
Q 44.484375 40.625 41.703125 44.40625 
Q 38.921875 48.1875 33.109375 48.1875 
Q 26.21875 48.1875 22.15625 43.53125 
Q 18.109375 38.875 18.109375 30.90625 
L 18.109375 0 
L 9.078125 0 
L 9.078125 54.6875 
L 18.109375 54.6875 
L 18.109375 46.1875 
Q 21.1875 51.21875 25.484375 53.609375 
Q 29.78125 56 35.6875 56 
Q 41.65625 56 45.828125 52.96875 
Q 50 49.953125 52 44.1875 
z
" id="DejaVuSans-6d"/>
      <path d="M 54.890625 33.015625 
L 54.890625 0 
L 45.90625 0 
L 45.90625 32.71875 
Q 45.90625 40.484375 42.875 44.328125 
Q 39.84375 48.1875 33.796875 48.1875 
Q 26.515625 48.1875 22.3125 43.546875 
Q 18.109375 38.921875 18.109375 30.90625 
L 18.109375 0 
L 9.078125 0 
L 9.078125 54.6875 
L 18.109375 54.6875 
L 18.109375 46.1875 
Q 21.34375 51.125 25.703125 53.5625 
Q 30.078125 56 35.796875 56 
Q 45.21875 56 50.046875 50.171875 
Q 54.890625 44.34375 54.890625 33.015625 
z
" id="DejaVuSans-6e"/>
      <path d="M 8.015625 75.875 
L 15.828125 75.875 
Q 23.140625 64.359375 26.78125 53.3125 
Q 30.421875 42.28125 30.421875 31.390625 
Q 30.421875 20.453125 26.78125 9.375 
Q 23.140625 -1.703125 15.828125 -13.1875 
L 8.015625 -13.1875 
Q 14.5 -2 17.703125 9.0625 
Q 20.90625 20.125 20.90625 31.390625 
Q 20.90625 42.671875 17.703125 53.65625 
Q 14.5 64.65625 8.015625 75.875 
z
" id="DejaVuSans-29"/>
     </defs>
     <g transform="translate(107.015156 342.278812)scale(0.18 -0.18)">
      <use xlink:href="#DejaVuSans-6c"/>
      <use x="27.783203" xlink:href="#DejaVuSans-6f"/>
      <use x="88.964844" xlink:href="#DejaVuSans-67"/>
      <use x="152.441406" xlink:href="#DejaVuSans-31"/>
      <use x="216.064453" xlink:href="#DejaVuSans-30"/>
      <use x="279.6875" xlink:href="#DejaVuSans-20"/>
      <use x="311.474609" xlink:href="#DejaVuSans-6f"/>
      <use x="372.65625" xlink:href="#DejaVuSans-66"/>
      <use x="407.861328" xlink:href="#DejaVuSans-20"/>
      <use x="439.648438" xlink:href="#DejaVuSans-28"/>
      <use x="478.662109" xlink:href="#DejaVuSans-23"/>
      <use x="562.451172" xlink:href="#DejaVuSans-20"/>
      <use x="594.238281" xlink:href="#DejaVuSans-66"/>
      <use x="629.365234" xlink:href="#DejaVuSans-2d"/>
      <use x="665.449219" xlink:href="#DejaVuSans-65"/>
      <use x="726.972656" xlink:href="#DejaVuSans-76"/>
      <use x="786.152344" xlink:href="#DejaVuSans-61"/>
      <use x="847.431641" xlink:href="#DejaVuSans-6c"/>
      <use x="875.214844" xlink:href="#DejaVuSans-73"/>
      <use x="927.314453" xlink:href="#DejaVuSans-20"/>
      <use x="959.101562" xlink:href="#DejaVuSans-2f"/>
      <use x="992.792969" xlink:href="#DejaVuSans-20"/>
      <use x="1024.580078" xlink:href="#DejaVuSans-64"/>
      <use x="1088.056641" xlink:href="#DejaVuSans-69"/>
      <use x="1115.839844" xlink:href="#DejaVuSans-6d"/>
      <use x="1213.251953" xlink:href="#DejaVuSans-65"/>
      <use x="1274.775391" xlink:href="#DejaVuSans-6e"/>
      <use x="1338.154297" xlink:href="#DejaVuSans-73"/>
      <use x="1390.253906" xlink:href="#DejaVuSans-69"/>
      <use x="1418.037109" xlink:href="#DejaVuSans-6f"/>
      <use x="1479.21875" xlink:href="#DejaVuSans-6e"/>
      <use x="1542.597656" xlink:href="#DejaVuSans-29"/>
     </g>
    </g>
   </g>
   <g id="matplotlib.axis_2">
    <g id="ytick_1">
     <g id="line2d_11">
      <path clip-path="url(#pcf2e744428)" d="M 70.8 298.245375 
L 427.92 298.245375 
" style="fill:none;stroke:#b0b0b0;stroke-linecap:square;stroke-width:0.8;"/>
     </g>
     <g id="line2d_12">
      <defs>
       <path d="M 0 0 
L -3.5 0 
" id="m01c3f54db7" style="stroke:#000000;stroke-width:0.8;"/>
      </defs>
      <g>
       <use style="stroke:#000000;stroke-width:0.8;" x="70.8" xlink:href="#m01c3f54db7" y="298.245375"/>
      </g>
     </g>
     <g id="text_7">
      <!-- 0.0 -->
      <defs>
       <path d="M 10.6875 12.40625 
L 21 12.40625 
L 21 0 
L 10.6875 0 
z
" id="DejaVuSans-2e"/>
      </defs>
      <g transform="translate(31.99375 305.843812)scale(0.2 -0.2)">
       <use xlink:href="#DejaVuSans-30"/>
       <use x="63.623047" xlink:href="#DejaVuSans-2e"/>
       <use x="95.410156" xlink:href="#DejaVuSans-30"/>
      </g>
     </g>
    </g>
    <g id="ytick_2">
     <g id="line2d_13">
      <path clip-path="url(#pcf2e744428)" d="M 70.8 245.549929 
L 427.92 245.549929 
" style="fill:none;stroke:#b0b0b0;stroke-linecap:square;stroke-width:0.8;"/>
     </g>
     <g id="line2d_14">
      <g>
       <use style="stroke:#000000;stroke-width:0.8;" x="70.8" xlink:href="#m01c3f54db7" y="245.549929"/>
      </g>
     </g>
     <g id="text_8">
      <!-- 0.2 -->
      <g transform="translate(31.99375 253.148367)scale(0.2 -0.2)">
       <use xlink:href="#DejaVuSans-30"/>
       <use x="63.623047" xlink:href="#DejaVuSans-2e"/>
       <use x="95.410156" xlink:href="#DejaVuSans-32"/>
      </g>
     </g>
    </g>
    <g id="ytick_3">
     <g id="line2d_15">
      <path clip-path="url(#pcf2e744428)" d="M 70.8 192.854484 
L 427.92 192.854484 
" style="fill:none;stroke:#b0b0b0;stroke-linecap:square;stroke-width:0.8;"/>
     </g>
     <g id="line2d_16">
      <g>
       <use style="stroke:#000000;stroke-width:0.8;" x="70.8" xlink:href="#m01c3f54db7" y="192.854484"/>
      </g>
     </g>
     <g id="text_9">
      <!-- 0.4 -->
      <g transform="translate(31.99375 200.452921)scale(0.2 -0.2)">
       <use xlink:href="#DejaVuSans-30"/>
       <use x="63.623047" xlink:href="#DejaVuSans-2e"/>
       <use x="95.410156" xlink:href="#DejaVuSans-34"/>
      </g>
     </g>
    </g>
    <g id="ytick_4">
     <g id="line2d_17">
      <path clip-path="url(#pcf2e744428)" d="M 70.8 140.159038 
L 427.92 140.159038 
" style="fill:none;stroke:#b0b0b0;stroke-linecap:square;stroke-width:0.8;"/>
     </g>
     <g id="line2d_18">
      <g>
       <use style="stroke:#000000;stroke-width:0.8;" x="70.8" xlink:href="#m01c3f54db7" y="140.159038"/>
      </g>
     </g>
     <g id="text_10">
      <!-- 0.6 -->
      <g transform="translate(31.99375 147.757476)scale(0.2 -0.2)">
       <use xlink:href="#DejaVuSans-30"/>
       <use x="63.623047" xlink:href="#DejaVuSans-2e"/>
       <use x="95.410156" xlink:href="#DejaVuSans-36"/>
      </g>
     </g>
    </g>
    <g id="ytick_5">
     <g id="line2d_19">
      <path clip-path="url(#pcf2e744428)" d="M 70.8 87.463593 
L 427.92 87.463593 
" style="fill:none;stroke:#b0b0b0;stroke-linecap:square;stroke-width:0.8;"/>
     </g>
     <g id="line2d_20">
      <g>
       <use style="stroke:#000000;stroke-width:0.8;" x="70.8" xlink:href="#m01c3f54db7" y="87.463593"/>
      </g>
     </g>
     <g id="text_11">
      <!-- 0.8 -->
      <g transform="translate(31.99375 95.06203)scale(0.2 -0.2)">
       <use xlink:href="#DejaVuSans-30"/>
       <use x="63.623047" xlink:href="#DejaVuSans-2e"/>
       <use x="95.410156" xlink:href="#DejaVuSans-38"/>
      </g>
     </g>
    </g>
    <g id="ytick_6">
     <g id="line2d_21">
      <path clip-path="url(#pcf2e744428)" d="M 70.8 34.768147 
L 427.92 34.768147 
" style="fill:none;stroke:#b0b0b0;stroke-linecap:square;stroke-width:0.8;"/>
     </g>
     <g id="line2d_22">
      <g>
       <use style="stroke:#000000;stroke-width:0.8;" x="70.8" xlink:href="#m01c3f54db7" y="34.768147"/>
      </g>
     </g>
     <g id="text_12">
      <!-- 1.0 -->
      <g transform="translate(31.99375 42.366585)scale(0.2 -0.2)">
       <use xlink:href="#DejaVuSans-31"/>
       <use x="63.623047" xlink:href="#DejaVuSans-2e"/>
       <use x="95.410156" xlink:href="#DejaVuSans-30"/>
      </g>
     </g>
    </g>
    <g id="text_13">
     <!-- Proportion of function+target pairs -->
     <defs>
      <path d="M 19.671875 64.796875 
L 19.671875 37.40625 
L 32.078125 37.40625 
Q 38.96875 37.40625 42.71875 40.96875 
Q 46.484375 44.53125 46.484375 51.125 
Q 46.484375 57.671875 42.71875 61.234375 
Q 38.96875 64.796875 32.078125 64.796875 
z
M 9.8125 72.90625 
L 32.078125 72.90625 
Q 44.34375 72.90625 50.609375 67.359375 
Q 56.890625 61.8125 56.890625 51.125 
Q 56.890625 40.328125 50.609375 34.8125 
Q 44.34375 29.296875 32.078125 29.296875 
L 19.671875 29.296875 
L 19.671875 0 
L 9.8125 0 
z
" id="DejaVuSans-50"/>
      <path d="M 41.109375 46.296875 
Q 39.59375 47.171875 37.8125 47.578125 
Q 36.03125 48 33.890625 48 
Q 26.265625 48 22.1875 43.046875 
Q 18.109375 38.09375 18.109375 28.8125 
L 18.109375 0 
L 9.078125 0 
L 9.078125 54.6875 
L 18.109375 54.6875 
L 18.109375 46.1875 
Q 20.953125 51.171875 25.484375 53.578125 
Q 30.03125 56 36.53125 56 
Q 37.453125 56 38.578125 55.875 
Q 39.703125 55.765625 41.0625 55.515625 
z
" id="DejaVuSans-72"/>
      <path d="M 18.109375 8.203125 
L 18.109375 -20.796875 
L 9.078125 -20.796875 
L 9.078125 54.6875 
L 18.109375 54.6875 
L 18.109375 46.390625 
Q 20.953125 51.265625 25.265625 53.625 
Q 29.59375 56 35.59375 56 
Q 45.5625 56 51.78125 48.09375 
Q 58.015625 40.1875 58.015625 27.296875 
Q 58.015625 14.40625 51.78125 6.484375 
Q 45.5625 -1.421875 35.59375 -1.421875 
Q 29.59375 -1.421875 25.265625 0.953125 
Q 20.953125 3.328125 18.109375 8.203125 
z
M 48.6875 27.296875 
Q 48.6875 37.203125 44.609375 42.84375 
Q 40.53125 48.484375 33.40625 48.484375 
Q 26.265625 48.484375 22.1875 42.84375 
Q 18.109375 37.203125 18.109375 27.296875 
Q 18.109375 17.390625 22.1875 11.75 
Q 26.265625 6.109375 33.40625 6.109375 
Q 40.53125 6.109375 44.609375 11.75 
Q 48.6875 17.390625 48.6875 27.296875 
z
" id="DejaVuSans-70"/>
      <path d="M 18.3125 70.21875 
L 18.3125 54.6875 
L 36.8125 54.6875 
L 36.8125 47.703125 
L 18.3125 47.703125 
L 18.3125 18.015625 
Q 18.3125 11.328125 20.140625 9.421875 
Q 21.96875 7.515625 27.59375 7.515625 
L 36.8125 7.515625 
L 36.8125 0 
L 27.59375 0 
Q 17.1875 0 13.234375 3.875 
Q 9.28125 7.765625 9.28125 18.015625 
L 9.28125 47.703125 
L 2.6875 47.703125 
L 2.6875 54.6875 
L 9.28125 54.6875 
L 9.28125 70.21875 
z
" id="DejaVuSans-74"/>
      <path d="M 8.5 21.578125 
L 8.5 54.6875 
L 17.484375 54.6875 
L 17.484375 21.921875 
Q 17.484375 14.15625 20.5 10.265625 
Q 23.53125 6.390625 29.59375 6.390625 
Q 36.859375 6.390625 41.078125 11.03125 
Q 45.3125 15.671875 45.3125 23.6875 
L 45.3125 54.6875 
L 54.296875 54.6875 
L 54.296875 0 
L 45.3125 0 
L 45.3125 8.40625 
Q 42.046875 3.421875 37.71875 1 
Q 33.40625 -1.421875 27.6875 -1.421875 
Q 18.265625 -1.421875 13.375 4.4375 
Q 8.5 10.296875 8.5 21.578125 
z
M 31.109375 56 
z
" id="DejaVuSans-75"/>
      <path d="M 48.78125 52.59375 
L 48.78125 44.1875 
Q 44.96875 46.296875 41.140625 47.34375 
Q 37.3125 48.390625 33.40625 48.390625 
Q 24.65625 48.390625 19.8125 42.84375 
Q 14.984375 37.3125 14.984375 27.296875 
Q 14.984375 17.28125 19.8125 11.734375 
Q 24.65625 6.203125 33.40625 6.203125 
Q 37.3125 6.203125 41.140625 7.25 
Q 44.96875 8.296875 48.78125 10.40625 
L 48.78125 2.09375 
Q 45.015625 0.34375 40.984375 -0.53125 
Q 36.96875 -1.421875 32.421875 -1.421875 
Q 20.0625 -1.421875 12.78125 6.34375 
Q 5.515625 14.109375 5.515625 27.296875 
Q 5.515625 40.671875 12.859375 48.328125 
Q 20.21875 56 33.015625 56 
Q 37.15625 56 41.109375 55.140625 
Q 45.0625 54.296875 48.78125 52.59375 
z
" id="DejaVuSans-63"/>
      <path d="M 46 62.703125 
L 46 35.5 
L 73.1875 35.5 
L 73.1875 27.203125 
L 46 27.203125 
L 46 0 
L 37.796875 0 
L 37.796875 27.203125 
L 10.59375 27.203125 
L 10.59375 35.5 
L 37.796875 35.5 
L 37.796875 62.703125 
z
" id="DejaVuSans-2b"/>
     </defs>
     <g transform="translate(24.250312 323.17875)rotate(-90)scale(0.18 -0.18)">
      <use xlink:href="#DejaVuSans-50"/>
      <use x="60.287109" xlink:href="#DejaVuSans-72"/>
      <use x="101.369141" xlink:href="#DejaVuSans-6f"/>
      <use x="162.550781" xlink:href="#DejaVuSans-70"/>
      <use x="226.027344" xlink:href="#DejaVuSans-6f"/>
      <use x="287.208984" xlink:href="#DejaVuSans-72"/>
      <use x="328.322266" xlink:href="#DejaVuSans-74"/>
      <use x="367.53125" xlink:href="#DejaVuSans-69"/>
      <use x="395.314453" xlink:href="#DejaVuSans-6f"/>
      <use x="456.496094" xlink:href="#DejaVuSans-6e"/>
      <use x="519.875" xlink:href="#DejaVuSans-20"/>
      <use x="551.662109" xlink:href="#DejaVuSans-6f"/>
      <use x="612.84375" xlink:href="#DejaVuSans-66"/>
      <use x="648.048828" xlink:href="#DejaVuSans-20"/>
      <use x="679.835938" xlink:href="#DejaVuSans-66"/>
      <use x="715.041016" xlink:href="#DejaVuSans-75"/>
      <use x="778.419922" xlink:href="#DejaVuSans-6e"/>
      <use x="841.798828" xlink:href="#DejaVuSans-63"/>
      <use x="896.779297" xlink:href="#DejaVuSans-74"/>
      <use x="935.988281" xlink:href="#DejaVuSans-69"/>
      <use x="963.771484" xlink:href="#DejaVuSans-6f"/>
      <use x="1024.953125" xlink:href="#DejaVuSans-6e"/>
      <use x="1088.332031" xlink:href="#DejaVuSans-2b"/>
      <use x="1172.121094" xlink:href="#DejaVuSans-74"/>
      <use x="1211.330078" xlink:href="#DejaVuSans-61"/>
      <use x="1272.609375" xlink:href="#DejaVuSans-72"/>
      <use x="1313.707031" xlink:href="#DejaVuSans-67"/>
      <use x="1377.183594" xlink:href="#DejaVuSans-65"/>
      <use x="1438.707031" xlink:href="#DejaVuSans-74"/>
      <use x="1477.916016" xlink:href="#DejaVuSans-20"/>
      <use x="1509.703125" xlink:href="#DejaVuSans-70"/>
      <use x="1573.179688" xlink:href="#DejaVuSans-61"/>
      <use x="1634.458984" xlink:href="#DejaVuSans-69"/>
      <use x="1662.242188" xlink:href="#DejaVuSans-72"/>
      <use x="1703.355469" xlink:href="#DejaVuSans-73"/>
     </g>
    </g>
   </g>
   <g id="line2d_23">
    <defs>
     <path d="M 0 1.5 
C 0.397805 1.5 0.77937 1.341951 1.06066 1.06066 
C 1.341951 0.77937 1.5 0.397805 1.5 0 
C 1.5 -0.397805 1.341951 -0.77937 1.06066 -1.06066 
C 0.77937 -1.341951 0.397805 -1.5 0 -1.5 
C -0.397805 -1.5 -0.77937 -1.341951 -1.06066 -1.06066 
C -1.341951 -0.77937 -1.5 -0.397805 -1.5 0 
C -1.5 0.397805 -1.341951 0.77937 -1.06066 1.06066 
C -0.77937 1.341951 -0.397805 1.5 0 1.5 
z
" id="mf10d95b89b" style="stroke:#00bfbf;"/>
    </defs>
    <g>
     <use style="fill:#00bfbf;stroke:#00bfbf;" x="265.90388" xlink:href="#mf10d95b89b" y="34.768147"/>
     <use style="fill:#00bfbf;stroke:#00bfbf;" x="265.90388" xlink:href="#mf10d95b89b" y="34.768147"/>
    </g>
   </g>
   <g id="line2d_24">
    <path d="M 58.414766 298.245375 
L 58.414766 289.462801 
L 70.8 289.462801 
L 70.8 287.396313 
L 93.184514 287.396313 
L 93.184514 286.363069 
L 97.675029 286.363069 
L 97.675029 285.846447 
L 99.557623 285.846447 
L 99.557623 285.329825 
L 110.060263 285.329825 
L 110.060263 284.296581 
L 111.942857 284.296581 
L 111.942857 277.063872 
L 116.630812 277.063872 
L 116.630812 276.54725 
L 120.890768 276.54725 
L 120.890768 276.030628 
L 122.445497 276.030628 
L 122.445497 275.514006 
L 124.769302 275.514006 
L 124.769302 274.480762 
L 126.031105 274.480762 
L 126.031105 273.96414 
L 126.432652 273.96414 
L 126.432652 273.447518 
L 126.825374 273.447518 
L 126.825374 272.930896 
L 127.954262 272.930896 
L 127.954262 271.38103 
L 128.669082 271.38103 
L 128.669082 270.864408 
L 129.016046 270.864408 
L 129.016046 268.79792 
L 130.018259 268.79792 
L 130.018259 268.281298 
L 131.868336 268.281298 
L 131.868336 267.248054 
L 132.726171 267.248054 
L 132.726171 266.731432 
L 133.544701 266.731432 
L 133.544701 265.698188 
L 134.327371 265.698188 
L 134.327371 265.181566 
L 136.488566 265.181566 
L 136.488566 264.664944 
L 137.154536 264.664944 
L 137.154536 263.6317 
L 140.156232 263.6317 
L 140.156232 263.115078 
L 140.878274 263.115078 
L 140.878274 262.081834 
L 142.884279 262.081834 
L 142.884279 259.498724 
L 143.808698 259.498724 
L 143.808698 258.982102 
L 145.250457 258.982102 
L 145.250457 258.46548 
L 147.584393 258.46548 
L 147.584393 257.948858 
L 150.597364 257.948858 
L 150.597364 256.915614 
L 151.103576 256.915614 
L 151.103576 255.88237 
L 151.692688 255.88237 
L 151.692688 255.365748 
L 152.815662 255.365748 
L 152.815662 254.332504 
L 153.351746 254.332504 
L 153.351746 253.815882 
L 153.957503 253.815882 
L 153.957503 253.29926 
L 154.12687 253.29926 
L 154.12687 252.782638 
L 154.294647 252.782638 
L 154.294647 251.232772 
L 154.625547 251.232772 
L 154.625547 250.199528 
L 155.030737 250.199528 
L 155.030737 249.166284 
L 157.5663 249.166284 
L 157.5663 246.583173 
L 158.579887 246.583173 
L 158.579887 244.000063 
L 159.663134 244.000063 
L 159.663134 243.483441 
L 160.800853 243.483441 
L 160.800853 242.966819 
L 161.031412 242.966819 
L 161.031412 242.450197 
L 161.483794 242.450197 
L 161.483794 241.416953 
L 161.925004 241.416953 
L 161.925004 238.317221 
L 162.408682 238.317221 
L 162.408682 237.800599 
L 162.982598 237.800599 
L 162.982598 235.734111 
L 164.077923 235.734111 
L 164.077923 234.700867 
L 165.955687 234.700867 
L 165.955687 233.667623 
L 166.085637 233.667623 
L 166.085637 230.567891 
L 166.72158 230.567891 
L 166.72158 229.534647 
L 168.122934 229.534647 
L 168.122934 223.335183 
L 168.390483 223.335183 
L 168.390483 222.818561 
L 170.431704 222.818561 
L 170.431704 222.301939 
L 170.700403 222.301939 
L 170.700403 220.235451 
L 209.878992 220.235451 
L 209.986575 215.585853 
L 209.990274 215.585853 
L 210.064078 211.969498 
L 210.177877 211.969498 
L 210.254556 208.869766 
L 210.290955 208.869766 
L 210.349039 206.803278 
L 210.41777 206.803278 
L 210.41777 205.770034 
L 210.529345 205.770034 
L 210.593812 204.220168 
L 210.647357 204.220168 
L 210.753969 199.57057 
L 210.792901 199.57057 
L 210.859949 194.40435 
L 211.000284 194.40435 
L 211.087437 186.138398 
L 211.125651 186.138398 
L 211.219101 179.938934 
L 211.349802 179.938934 
L 211.40455 177.872445 
L 211.503353 177.872445 
L 211.537297 173.222847 
L 211.739618 173.222847 
L 211.773117 171.156359 
L 222.297683 171.156359 
L 222.405066 168.573249 
L 222.447471 168.573249 
L 222.533813 165.990139 
L 222.601492 165.990139 
L 222.705255 159.790675 
L 222.72521 159.790675 
L 222.831864 157.207565 
L 222.83727 157.207565 
L 222.936094 148.941613 
L 223.009408 148.941613 
L 223.103737 142.742148 
L 223.231089 142.742148 
L 223.231089 141.192282 
L 229.530196 141.192282 
L 229.640116 139.642416 
L 229.664725 139.642416 
L 229.768934 136.542684 
L 229.803129 136.542684 
L 229.907749 130.34322 
L 229.958621 130.34322 
L 230.069551 125.693622 
L 230.071955 125.693622 
L 230.15828 123.627134 
L 234.664338 123.627134 
L 234.664338 122.59389 
L 234.811515 122.59389 
L 234.897042 115.877804 
L 234.933702 115.877804 
L 235.024114 110.194961 
L 235.072328 110.194961 
L 235.13762 109.161717 
L 238.647774 109.161717 
L 238.647774 108.645095 
L 238.788527 108.645095 
L 238.890067 99.345899 
L 238.906202 99.345899 
L 238.980087 94.179679 
L 239.027476 94.179679 
L 239.027476 92.629813 
L 241.903038 92.629813 
L 242.005023 90.563325 
L 242.020425 90.563325 
L 242.105204 84.880483 
L 242.145609 84.880483 
L 242.220057 80.747507 
L 244.655649 80.747507 
L 244.758437 77.647775 
L 244.779029 77.647775 
L 244.89003 72.481554 
L 247.040275 72.481554 
L 247.143202 69.898444 
L 247.175535 69.898444 
L 247.278606 64.732224 
L 249.143802 64.732224 
L 249.239851 63.182358 
L 249.270658 63.182358 
L 249.326388 57.499516 
L 251.025569 57.499516 
L 251.113521 54.399784 
L 251.136828 54.399784 
L 251.189988 52.333296 
L 252.727906 52.333296 
L 252.829083 50.266808 
L 252.843538 50.266808 
L 252.901577 48.716942 
L 254.333155 48.716942 
L 254.421355 45.61721 
L 255.758968 45.61721 
L 255.799739 44.067344 
L 257.064513 44.067344 
L 257.172177 42.000855 
L 258.325689 42.000855 
L 258.377782 40.967611 
L 260.545807 40.967611 
L 260.61685 37.351257 
L 261.605958 37.351257 
L 261.631251 36.318013 
L 262.540048 36.318013 
L 262.540048 35.801391 
L 263.451122 35.801391 
L 263.451122 35.284769 
L 265.90388 35.284769 
L 265.90388 34.768147 
L 358.8 34.768147 
L 358.8 34.768147 
" style="fill:none;stroke:#00bfbf;stroke-linecap:square;stroke-width:1.5;"/>
   </g>
   <g id="line2d_25">
    <defs>
     <path d="M -6 0 
L 6 0 
M 0 6 
L 0 -6 
" id="m73f884cc7f" style="stroke:#00bfbf;stroke-width:1.5;"/>
    </defs>
    <g>
     <use style="fill:none;stroke:#00bfbf;stroke-width:1.5;" x="126.432652" xlink:href="#m73f884cc7f" y="273.447518"/>
     <use style="fill:none;stroke:#00bfbf;stroke-width:1.5;" x="168.122934" xlink:href="#m73f884cc7f" y="229.534647"/>
     <use style="fill:none;stroke:#00bfbf;stroke-width:1.5;" x="223.231089" xlink:href="#m73f884cc7f" y="141.192282"/>
     <use style="fill:none;stroke:#00bfbf;stroke-width:1.5;" x="254.421355" xlink:href="#m73f884cc7f" y="46.133832"/>
     <use style="fill:none;stroke:#00bfbf;stroke-width:1.5;" x="265.90388" xlink:href="#m73f884cc7f" y="34.768147"/>
     <use style="fill:none;stroke:#00bfbf;stroke-width:1.5;" x="358.8" xlink:href="#m73f884cc7f" y="34.768147"/>
    </g>
   </g>
   <g id="line2d_26"/>
   <g id="line2d_27">
    <path clip-path="url(#pcf2e744428)" d="M 209.87527 220.235451 
" style="fill:none;stroke:#00bfbf;stroke-linecap:square;stroke-width:1.5;"/>
    <defs>
     <path d="M -12 12 
L 12 -12 
M -12 -12 
L 12 12 
" id="mdd79097a67" style="stroke:#00bfbf;stroke-width:3;"/>
    </defs>
    <g clip-path="url(#pcf2e744428)">
     <use style="fill:#00bfbf;stroke:#00bfbf;stroke-width:3;" x="209.87527" xlink:href="#mdd79097a67" y="220.235451"/>
    </g>
   </g>
   <g id="line2d_28">
    <defs>
     <path d="M 0 1.5 
C 0.397805 1.5 0.77937 1.341951 1.06066 1.06066 
C 1.341951 0.77937 1.5 0.397805 1.5 0 
C 1.5 -0.397805 1.341951 -0.77937 1.06066 -1.06066 
C 0.77937 -1.341951 0.397805 -1.5 0 -1.5 
C -0.397805 -1.5 -0.77937 -1.341951 -1.06066 -1.06066 
C -1.341951 -0.77937 -1.5 -0.397805 -1.5 0 
C -1.5 0.397805 -1.341951 0.77937 -1.06066 1.06066 
C -0.77937 1.341951 -0.397805 1.5 0 1.5 
z
" id="mf7015e3c15" style="stroke:#008000;"/>
    </defs>
    <g>
     <use style="fill:#008000;stroke:#008000;" x="281.197475" xlink:href="#mf7015e3c15" y="34.768147"/>
     <use style="fill:#008000;stroke:#008000;" x="281.197475" xlink:href="#mf7015e3c15" y="34.768147"/>
    </g>
   </g>
   <g id="line2d_29">
    <path d="M 51.169868 298.245375 
L 51.169868 295.145643 
L 63.555102 295.145643 
L 63.555102 294.629021 
L 79.927491 294.629021 
L 79.927491 294.112399 
L 99.557623 294.112399 
L 99.557623 293.595777 
L 100.710805 293.595777 
L 100.710805 291.529289 
L 107.955702 291.529289 
L 107.955702 291.012667 
L 109.385915 291.012667 
L 109.385915 289.979423 
L 113.096039 289.979423 
L 113.096039 289.462801 
L 115.2006 289.462801 
L 115.2006 287.396313 
L 117.954982 287.396313 
L 117.954982 286.879691 
L 119.964752 286.879691 
L 119.964752 285.846447 
L 124.02778 285.846447 
L 124.02778 285.329825 
L 124.328091 285.329825 
L 124.328091 284.296581 
L 127.832295 284.296581 
L 127.832295 283.263337 
L 128.315246 283.263337 
L 128.315246 281.713471 
L 128.785487 281.713471 
L 128.785487 281.196849 
L 131.171441 281.196849 
L 131.171441 280.680226 
L 132.158881 280.680226 
L 132.158881 280.163604 
L 134.995416 280.163604 
L 134.995416 279.646982 
L 135.796811 279.646982 
L 135.796811 277.580494 
L 137.442737 277.580494 
L 137.442737 277.063872 
L 139.594883 277.063872 
L 139.594883 276.54725 
L 140.217529 276.54725 
L 140.217529 276.030628 
L 143.041708 276.030628 
L 143.041708 275.514006 
L 143.454862 275.514006 
L 143.454862 274.997384 
L 143.958223 274.997384 
L 143.958223 273.447518 
L 145.479832 273.447518 
L 145.479832 272.930896 
L 146.106848 272.930896 
L 146.106848 272.414274 
L 149.53977 272.414274 
L 149.612257 270.864408 
L 150.801573 270.864408 
L 150.801573 270.347786 
L 151.724854 270.347786 
L 151.724854 269.831164 
L 154.182971 269.831164 
L 154.182971 268.79792 
L 154.515927 268.79792 
L 154.515927 268.281298 
L 156.043145 268.281298 
L 156.043145 267.764676 
L 158.091535 267.764676 
L 158.091535 267.248054 
L 158.226051 267.248054 
L 158.226051 266.731432 
L 159.393187 266.731432 
L 159.393187 266.21481 
L 160.40985 266.21481 
L 160.40985 265.698188 
L 160.528052 265.698188 
L 160.528052 263.6317 
L 160.684447 263.6317 
L 160.684447 262.081834 
L 161.668957 262.081834 
L 161.668957 261.565212 
L 162.284536 261.565212 
L 162.284536 257.948858 
L 164.142196 257.948858 
L 164.142196 257.432236 
L 164.460143 257.432236 
L 164.460143 256.398992 
L 164.834358 256.398992 
L 164.895972 255.365748 
L 166.285922 255.365748 
L 166.285922 252.782638 
L 166.652027 252.782638 
L 166.652027 251.232772 
L 166.928629 251.232772 
L 166.928629 250.71615 
L 167.092558 250.71615 
L 167.092558 250.199528 
L 167.942316 250.199528 
L 167.942316 249.682906 
L 168.097243 249.682906 
L 168.097243 248.13304 
L 168.926131 248.13304 
L 168.926131 247.099796 
L 170.386526 247.099796 
L 170.386526 246.583173 
L 171.652441 246.583173 
L 171.757486 244.516685 
L 173.089135 244.516685 
L 173.089135 242.966819 
L 174.400802 242.966819 
L 174.400802 241.933575 
L 175.333569 241.933575 
L 175.333569 240.900331 
L 175.555112 240.900331 
L 175.555112 240.383709 
L 209.876511 240.383709 
L 209.985343 238.833843 
L 210.083708 238.833843 
L 210.181536 236.250733 
L 210.213215 236.250733 
L 210.31518 233.667623 
L 210.370772 233.667623 
L 210.370772 233.151001 
L 210.517381 233.151001 
L 210.526952 231.601135 
L 210.648545 231.601135 
L 210.743337 224.368427 
L 210.797615 224.368427 
L 210.903337 222.301939 
L 211.010765 222.301939 
L 211.094391 219.202207 
L 211.228305 219.202207 
L 211.228305 218.685585 
L 211.36807 218.685585 
L 211.434135 215.069231 
L 211.48409 215.069231 
L 211.594855 210.419632 
L 211.734029 210.419632 
L 211.734029 209.90301 
L 211.863251 209.90301 
L 211.863251 208.869766 
L 212.140793 208.869766 
L 212.173549 204.73679 
L 212.288806 204.73679 
L 212.316964 202.670302 
L 222.429661 202.670302 
L 222.4812 201.120436 
L 222.583835 201.120436 
L 222.69315 197.504082 
L 222.745143 197.504082 
L 222.815035 195.437594 
L 222.871471 195.437594 
L 222.965932 189.754752 
L 222.988577 189.754752 
L 222.988577 188.721508 
L 223.10137 188.721508 
L 223.140384 186.65502 
L 223.213455 186.65502 
L 223.213455 185.621776 
L 223.400655 185.621776 
L 223.508571 183.038666 
L 223.522448 183.038666 
L 223.522448 182.005422 
L 229.652425 182.005422 
L 229.729365 179.938934 
L 229.766081 179.938934 
L 229.876589 177.355823 
L 229.914621 177.355823 
L 230.016181 173.739469 
L 230.039475 173.739469 
L 230.145916 167.540005 
L 230.233474 167.540005 
L 230.304004 166.506761 
L 230.345873 166.506761 
L 230.356127 163.407029 
L 234.697149 163.407029 
L 234.769984 161.340541 
L 234.844978 161.340541 
L 234.953223 156.174321 
L 235.001326 156.174321 
L 235.090489 152.041345 
L 235.127962 152.041345 
L 235.20568 147.908369 
L 235.284258 147.908369 
L 235.284258 146.875125 
L 238.720758 146.875125 
L 238.827593 143.775392 
L 238.85604 143.775392 
L 238.940622 137.059306 
L 238.973272 137.059306 
L 239.081999 131.376464 
L 239.096995 131.376464 
L 239.147691 127.76011 
L 241.973151 127.76011 
L 242.07658 125.693622 
L 242.122357 125.693622 
L 242.213154 121.560646 
L 242.236694 121.560646 
L 242.318437 116.911048 
L 244.740641 116.911048 
L 244.820845 111.744828 
L 244.869565 111.744828 
L 244.943617 109.678339 
L 244.99096 109.678339 
L 245.009724 107.095229 
L 247.139195 107.095229 
L 247.244008 100.379143 
L 247.254119 100.379143 
L 247.350343 97.279411 
L 249.183851 97.279411 
L 249.293217 94.696301 
L 249.314519 94.696301 
L 249.422819 89.530081 
L 251.061495 89.530081 
L 251.172039 85.913727 
L 251.179172 85.913727 
L 251.256949 83.330617 
L 252.760458 83.330617 
L 252.861003 78.681019 
L 252.875992 78.681019 
L 252.951191 76.614531 
L 254.316556 76.614531 
L 254.424534 71.964932 
L 254.449123 71.964932 
L 254.49146 70.931688 
L 255.757065 70.931688 
L 255.865973 67.315334 
L 255.875806 67.315334 
L 255.902632 64.732224 
L 257.060886 64.732224 
L 257.157578 62.149114 
L 258.291536 62.149114 
L 258.401515 59.566004 
L 258.413165 59.566004 
L 258.433329 58.53276 
L 259.457409 58.53276 
L 259.566767 55.433028 
L 260.556067 55.433028 
L 260.651543 52.333296 
L 261.643165 52.333296 
L 261.655345 51.300052 
L 262.551046 51.300052 
L 262.605224 50.266808 
L 263.449452 50.266808 
L 263.524404 46.650454 
L 264.333127 46.650454 
L 264.367012 44.583966 
L 265.149855 44.583966 
L 265.149855 44.067344 
L 265.918812 44.067344 
L 265.940568 43.0341 
L 266.69591 43.0341 
L 266.699315 42.000855 
L 267.473739 42.000855 
L 267.473739 41.484233 
L 268.147246 41.484233 
L 268.147246 40.967611 
L 268.83688 40.967611 
L 268.842188 39.934367 
L 270.092526 39.934367 
L 270.092526 39.417745 
L 270.676274 39.417745 
L 270.678586 38.384501 
L 273.447918 38.384501 
L 273.447918 37.867879 
L 273.931072 37.867879 
L 273.931072 37.351257 
L 274.424817 37.351257 
L 274.424817 36.834635 
L 276.693436 36.834635 
L 276.693436 36.318013 
L 277.512743 36.318013 
L 277.512743 35.801391 
L 279.436552 35.801391 
L 279.436552 35.284769 
L 281.197475 35.284769 
L 281.197475 34.768147 
L 358.8 34.768147 
L 358.8 34.768147 
" style="fill:none;stroke:#008000;stroke-linecap:square;stroke-width:1.5;"/>
   </g>
   <g id="line2d_30">
    <defs>
     <path d="M -0 6 
L 6 -6 
L -6 -6 
z
" id="m767eb1b667" style="stroke:#008000;stroke-linejoin:miter;stroke-width:1.5;"/>
    </defs>
    <g>
     <use style="fill:none;stroke:#008000;stroke-linejoin:miter;stroke-width:1.5;" x="164.895972" xlink:href="#m767eb1b667" y="255.365748"/>
     <use style="fill:none;stroke:#008000;stroke-linejoin:miter;stroke-width:1.5;" x="234.769984" xlink:href="#m767eb1b667" y="161.340541"/>
     <use style="fill:none;stroke:#008000;stroke-linejoin:miter;stroke-width:1.5;" x="257.060886" xlink:href="#m767eb1b667" y="64.732224"/>
     <use style="fill:none;stroke:#008000;stroke-linejoin:miter;stroke-width:1.5;" x="281.197475" xlink:href="#m767eb1b667" y="34.768147"/>
     <use style="fill:none;stroke:#008000;stroke-linejoin:miter;stroke-width:1.5;" x="281.197475" xlink:href="#m767eb1b667" y="34.768147"/>
     <use style="fill:none;stroke:#008000;stroke-linejoin:miter;stroke-width:1.5;" x="358.8" xlink:href="#m767eb1b667" y="34.768147"/>
    </g>
   </g>
   <g id="line2d_31"/>
   <g id="line2d_32">
    <path clip-path="url(#pcf2e744428)" d="M 209.87403 240.383709 
" style="fill:none;stroke:#008000;stroke-linecap:square;stroke-width:1.5;"/>
    <defs>
     <path d="M -12 12 
L 12 -12 
M -12 -12 
L 12 12 
" id="mb1f944adc4" style="stroke:#008000;stroke-width:3;"/>
    </defs>
    <g clip-path="url(#pcf2e744428)">
     <use style="fill:#008000;stroke:#008000;stroke-width:3;" x="209.87403" xlink:href="#mb1f944adc4" y="240.383709"/>
    </g>
   </g>
   <g id="line2d_33">
    <defs>
     <path d="M 0 1.5 
C 0.397805 1.5 0.77937 1.341951 1.06066 1.06066 
C 1.341951 0.77937 1.5 0.397805 1.5 0 
C 1.5 -0.397805 1.341951 -0.77937 1.06066 -1.06066 
C 0.77937 -1.341951 0.397805 -1.5 0 -1.5 
C -0.397805 -1.5 -0.77937 -1.341951 -1.06066 -1.06066 
C -1.341951 -0.77937 -1.5 -0.397805 -1.5 0 
C -1.5 0.397805 -1.341951 0.77937 -1.06066 1.06066 
C -0.77937 1.341951 -0.397805 1.5 0 1.5 
z
" id="me144030898" style="stroke:#0000ff;"/>
    </defs>
    <g>
     <use style="fill:#0000ff;stroke:#0000ff;" x="288.626583" xlink:href="#me144030898" y="241.416953"/>
     <use style="fill:#0000ff;stroke:#0000ff;" x="288.626583" xlink:href="#me144030898" y="241.416953"/>
    </g>
   </g>
   <g id="line2d_34">
    <path d="M 42.042377 298.245375 
L 42.042377 297.212131 
L 61.672509 297.212131 
L 61.672509 296.695509 
L 89.197359 296.695509 
L 89.197359 295.662265 
L 90.430132 295.662265 
L 90.430132 294.629021 
L 106.073108 294.629021 
L 106.073108 292.562533 
L 110.452985 292.562533 
L 110.452985 291.529289 
L 111.581873 291.529289 
L 111.581873 291.012667 
L 114.900288 291.012667 
L 114.900288 289.462801 
L 118.947911 289.462801 
L 118.947911 288.946179 
L 123.222494 288.946179 
L 123.222494 288.429557 
L 126.669319 288.429557 
L 126.669319 287.396313 
L 127.436309 287.396313 
L 127.436309 286.879691 
L 129.152967 286.879691 
L 129.152967 286.363069 
L 130.71906 286.363069 
L 130.71906 285.329825 
L 131.212004 285.329825 
L 131.212004 283.779959 
L 131.926824 283.779959 
L 131.926824 282.230093 
L 133.704001 282.230093 
L 133.704001 281.713471 
L 135.223453 281.713471 
L 135.223453 281.196849 
L 135.512432 281.196849 
L 135.607728 280.163604 
L 138.897124 280.163604 
L 138.897124 279.13036 
L 139.670757 279.13036 
L 139.670757 278.613738 
L 139.896462 278.613738 
L 139.896462 278.097116 
L 147.560066 278.097116 
L 147.560066 277.580494 
L 152.018094 277.580494 
L 152.018094 277.063872 
L 152.761158 277.063872 
L 152.761158 276.54725 
L 156.491741 276.54725 
L 156.491741 275.514006 
L 157.412685 275.514006 
L 157.412685 274.480762 
L 158.154435 274.480762 
L 158.154435 273.96414 
L 158.710789 273.96414 
L 158.710789 272.930896 
L 158.918259 272.930896 
L 158.918259 271.897652 
L 160.330612 271.897652 
L 160.330612 271.38103 
L 160.543753 271.38103 
L 160.543753 270.347786 
L 161.815719 270.347786 
L 161.815719 269.831164 
L 166.24034 269.831164 
L 166.24034 269.314542 
L 176.443829 269.314542 
L 176.443829 268.79792 
L 210.030166 268.79792 
L 210.030166 268.281298 
L 210.163966 268.281298 
L 210.163966 267.248054 
L 210.427154 267.248054 
L 210.427154 266.731432 
L 210.751843 266.731432 
L 210.797143 265.698188 
L 210.968805 265.698188 
L 211.047051 264.664944 
L 212.432163 264.664944 
L 212.432163 264.148322 
L 222.342937 264.148322 
L 222.342937 263.6317 
L 222.605508 263.6317 
L 222.605508 263.115078 
L 222.761073 263.115078 
L 222.854919 261.565212 
L 229.800933 261.565212 
L 229.850162 260.531968 
L 234.716683 260.531968 
L 234.716683 260.015346 
L 234.90438 260.015346 
L 234.920513 258.982102 
L 235.027939 258.982102 
L 235.027939 258.46548 
L 238.855256 258.46548 
L 238.871715 257.432236 
L 242.037905 257.432236 
L 242.089507 255.365748 
L 244.863473 255.365748 
L 244.863473 254.849126 
L 247.169442 254.849126 
L 247.169442 254.332504 
L 249.256945 254.332504 
L 249.256945 253.815882 
L 251.105746 253.815882 
L 251.170662 251.749394 
L 252.828881 251.749394 
L 252.828881 251.232772 
L 254.374472 251.232772 
L 254.374472 250.71615 
L 255.789541 250.71615 
L 255.82302 249.166284 
L 257.108556 249.166284 
L 257.108556 248.649662 
L 258.335081 248.649662 
L 258.335081 248.13304 
L 260.568458 248.13304 
L 260.588423 247.099796 
L 261.568508 247.099796 
L 261.568508 246.583173 
L 263.456875 246.583173 
L 263.456875 246.066551 
L 264.330606 246.066551 
L 264.330606 245.549929 
L 266.723521 245.549929 
L 266.723521 245.033307 
L 267.450351 245.033307 
L 267.450351 244.516685 
L 268.135693 244.516685 
L 268.135693 244.000063 
L 269.456538 244.000063 
L 269.456538 243.483441 
L 271.271019 243.483441 
L 271.271019 242.966819 
L 273.935132 242.966819 
L 273.935132 242.450197 
L 279.076459 242.450197 
L 279.076459 241.933575 
L 288.626583 241.933575 
L 288.626583 241.416953 
L 358.8 241.416953 
L 358.8 241.416953 
" style="fill:none;stroke:#0000ff;stroke-linecap:square;stroke-width:1.5;"/>
   </g>
   <g id="line2d_35">
    <defs>
     <path d="M 0 -6 
L -1.347084 -1.854102 
L -5.706339 -1.854102 
L -2.179628 0.708204 
L -3.526712 4.854102 
L -0 2.291796 
L 3.526712 4.854102 
L 2.179628 0.708204 
L 5.706339 -1.854102 
L 1.347084 -1.854102 
z
" id="mc8b3dd7133" style="stroke:#0000ff;stroke-linejoin:bevel;stroke-width:1.5;"/>
    </defs>
    <g>
     <use style="fill:none;stroke:#0000ff;stroke-linejoin:bevel;stroke-width:1.5;" x="90.430132" xlink:href="#mc8b3dd7133" y="294.629021"/>
     <use style="fill:none;stroke:#0000ff;stroke-linejoin:bevel;stroke-width:1.5;" x="161.815719" xlink:href="#mc8b3dd7133" y="270.347786"/>
     <use style="fill:none;stroke:#0000ff;stroke-linejoin:bevel;stroke-width:1.5;" x="251.105746" xlink:href="#mc8b3dd7133" y="253.29926"/>
     <use style="fill:none;stroke:#0000ff;stroke-linejoin:bevel;stroke-width:1.5;" x="288.626583" xlink:href="#mc8b3dd7133" y="241.416953"/>
     <use style="fill:none;stroke:#0000ff;stroke-linejoin:bevel;stroke-width:1.5;" x="288.626583" xlink:href="#mc8b3dd7133" y="241.416953"/>
     <use style="fill:none;stroke:#0000ff;stroke-linejoin:bevel;stroke-width:1.5;" x="358.8" xlink:href="#mc8b3dd7133" y="241.416953"/>
    </g>
   </g>
   <g id="line2d_36"/>
   <g id="line2d_37">
    <path clip-path="url(#pcf2e744428)" d="M 209.873037 268.79792 
" style="fill:none;stroke:#0000ff;stroke-linecap:square;stroke-width:1.5;"/>
    <defs>
     <path d="M -12 12 
L 12 -12 
M -12 -12 
L 12 12 
" id="m63e13c5934" style="stroke:#0000ff;stroke-width:3;"/>
    </defs>
    <g clip-path="url(#pcf2e744428)">
     <use style="fill:#0000ff;stroke:#0000ff;stroke-width:3;" x="209.873037" xlink:href="#m63e13c5934" y="268.79792"/>
    </g>
   </g>
   <g id="line2d_38">
    <defs>
     <path d="M 0 1.5 
C 0.397805 1.5 0.77937 1.341951 1.06066 1.06066 
C 1.341951 0.77937 1.5 0.397805 1.5 0 
C 1.5 -0.397805 1.341951 -0.77937 1.06066 -1.06066 
C 0.77937 -1.341951 0.397805 -1.5 0 -1.5 
C -0.397805 -1.5 -0.77937 -1.341951 -1.06066 -1.06066 
C -1.341951 -0.77937 -1.5 -0.397805 -1.5 0 
C -1.5 0.397805 -1.341951 0.77937 -1.06066 1.06066 
C -0.77937 1.341951 -0.397805 1.5 0 1.5 
z
" id="m4da9f659e7" style="stroke:#000000;"/>
    </defs>
    <g>
     <use style="stroke:#000000;" x="257.112632" xlink:href="#m4da9f659e7" y="272.414274"/>
     <use style="stroke:#000000;" x="257.112632" xlink:href="#m4da9f659e7" y="272.414274"/>
    </g>
   </g>
   <g id="line2d_39">
    <path d="M 116.903613 298.245375 
L 116.903613 297.728753 
L 123.691501 297.728753 
L 123.691501 297.212131 
L 125.867924 297.212131 
L 125.867924 296.695509 
L 126.747517 296.695509 
L 126.747517 295.662265 
L 127.056929 295.662265 
L 127.056929 295.145643 
L 129.557546 295.145643 
L 129.557546 294.629021 
L 137.499824 294.629021 
L 137.499824 294.112399 
L 143.166661 294.112399 
L 143.166661 293.079155 
L 146.377649 293.079155 
L 146.377649 292.562533 
L 151.341557 292.562533 
L 151.341557 292.045911 
L 153.889304 292.045911 
L 153.889304 291.529289 
L 155.783851 291.529289 
L 155.783851 291.012667 
L 157.91059 291.012667 
L 157.91059 290.496045 
L 158.087034 290.496045 
L 158.087034 289.462801 
L 158.579887 289.462801 
L 158.579887 288.429557 
L 163.398744 288.429557 
L 163.398744 287.396313 
L 163.687347 287.396313 
L 163.687347 286.879691 
L 164.308234 286.879691 
L 164.308234 286.363069 
L 210.099397 286.363069 
L 210.099397 285.846447 
L 210.180804 285.846447 
L 210.180804 285.329825 
L 210.294591 285.329825 
L 210.294591 284.813203 
L 210.553726 284.813203 
L 210.553726 284.296581 
L 210.641653 284.296581 
L 210.641653 283.263337 
L 210.717792 283.263337 
L 210.717792 282.746715 
L 210.831043 282.746715 
L 210.831043 282.230093 
L 211.094391 282.230093 
L 211.094391 281.713471 
L 222.469923 281.713471 
L 222.469923 281.196849 
L 222.846637 281.196849 
L 222.846637 280.680226 
L 222.941826 280.680226 
L 222.941826 280.163604 
L 229.703537 280.163604 
L 229.703537 279.646982 
L 229.827757 279.646982 
L 229.827757 279.13036 
L 229.897315 279.13036 
L 229.897315 278.613738 
L 229.987384 278.613738 
L 229.987384 277.580494 
L 234.850927 277.580494 
L 234.850927 277.063872 
L 234.887314 277.063872 
L 234.887314 276.030628 
L 235.007709 276.030628 
L 235.007709 275.514006 
L 238.867896 275.514006 
L 238.867896 274.997384 
L 238.922468 274.997384 
L 238.922468 274.480762 
L 242.051065 274.480762 
L 242.051065 273.96414 
L 249.265158 273.96414 
L 249.265158 273.447518 
L 251.162025 273.447518 
L 251.162025 272.930896 
L 257.112632 272.930896 
L 257.112632 272.414274 
L 358.8 272.414274 
" style="fill:none;stroke:#000000;stroke-linecap:square;stroke-width:1.5;"/>
   </g>
   <g id="line2d_40">
    <defs>
     <path d="M 0 6 
C 1.591219 6 3.117479 5.367802 4.242641 4.242641 
C 5.367802 3.117479 6 1.591219 6 0 
C 6 -1.591219 5.367802 -3.117479 4.242641 -4.242641 
C 3.117479 -5.367802 1.591219 -6 0 -6 
C -1.591219 -6 -3.117479 -5.367802 -4.242641 -4.242641 
C -5.367802 -3.117479 -6 -1.591219 -6 0 
C -6 1.591219 -5.367802 3.117479 -4.242641 4.242641 
C -3.117479 5.367802 -1.591219 6 0 6 
z
" id="m92aea168fe" style="stroke:#000000;stroke-width:1.5;"/>
    </defs>
    <g>
     <use style="fill:none;stroke:#000000;stroke-width:1.5;" x="211.094391" xlink:href="#m92aea168fe" y="281.713471"/>
     <use style="fill:none;stroke:#000000;stroke-width:1.5;" x="257.112632" xlink:href="#m92aea168fe" y="272.930896"/>
     <use style="fill:none;stroke:#000000;stroke-width:1.5;" x="257.112632" xlink:href="#m92aea168fe" y="272.414274"/>
     <use style="fill:none;stroke:#000000;stroke-width:1.5;" x="257.112632" xlink:href="#m92aea168fe" y="272.414274"/>
     <use style="fill:none;stroke:#000000;stroke-width:1.5;" x="358.8" xlink:href="#m92aea168fe" y="272.414274"/>
    </g>
   </g>
   <g id="line2d_41"/>
   <g id="line2d_42">
    <path clip-path="url(#pcf2e744428)" d="M 209.872293 286.363069 
" style="fill:none;stroke:#000000;stroke-linecap:square;stroke-width:1.5;"/>
    <defs>
     <path d="M -12 12 
L 12 -12 
M -12 -12 
L 12 12 
" id="me61bea266c" style="stroke:#000000;stroke-width:3;"/>
    </defs>
    <g clip-path="url(#pcf2e744428)">
     <use style="stroke:#000000;stroke-width:3;" x="209.872293" xlink:href="#me61bea266c" y="286.363069"/>
    </g>
   </g>
   <g id="line2d_43">
    <defs>
     <path d="M 0 1.5 
C 0.397805 1.5 0.77937 1.341951 1.06066 1.06066 
C 1.341951 0.77937 1.5 0.397805 1.5 0 
C 1.5 -0.397805 1.341951 -0.77937 1.06066 -1.06066 
C 0.77937 -1.341951 0.397805 -1.5 0 -1.5 
C -0.397805 -1.5 -0.77937 -1.341951 -1.06066 -1.06066 
C -1.341951 -0.77937 -1.5 -0.397805 -1.5 0 
C -1.5 0.397805 -1.341951 0.77937 -1.06066 1.06066 
C -0.77937 1.341951 -0.397805 1.5 0 1.5 
z
" id="m3aca6ae8fe" style="stroke:#ff0000;"/>
    </defs>
    <g>
     <use style="fill:#ff0000;stroke:#ff0000;" x="263.452124" xlink:href="#m3aca6ae8fe" y="282.746715"/>
     <use style="fill:#ff0000;stroke:#ff0000;" x="263.452124" xlink:href="#m3aca6ae8fe" y="282.746715"/>
    </g>
   </g>
   <g id="line2d_44">
    <path d="M 146.009763 298.245375 
L 146.009763 297.728753 
L 146.62304 297.728753 
L 146.62304 297.212131 
L 147.717603 297.212131 
L 147.717603 296.695509 
L 148.485099 296.695509 
L 148.485099 295.662265 
L 150.432299 295.662265 
L 150.432299 294.629021 
L 154.821186 294.629021 
L 154.821186 294.112399 
L 155.014705 294.112399 
L 155.014705 293.595777 
L 155.99766 293.595777 
L 155.99766 293.079155 
L 157.54543 293.079155 
L 157.54543 292.562533 
L 157.594089 292.562533 
L 157.594089 292.045911 
L 157.766796 292.045911 
L 157.766796 291.529289 
L 157.876458 291.529289 
L 157.876458 291.012667 
L 159.123347 291.012667 
L 159.123347 289.462801 
L 210.886346 289.462801 
L 210.886346 288.946179 
L 222.542607 288.946179 
L 222.542607 288.429557 
L 222.687639 288.429557 
L 222.687639 287.912935 
L 222.728655 287.912935 
L 222.728655 287.396313 
L 222.737354 287.396313 
L 222.737354 286.879691 
L 229.846633 286.879691 
L 229.846633 286.363069 
L 234.785685 286.363069 
L 234.785685 285.846447 
L 234.901445 285.846447 
L 234.901445 285.329825 
L 238.802984 285.329825 
L 238.802984 284.813203 
L 242.099749 284.813203 
L 242.099749 284.296581 
L 244.79016 284.296581 
L 244.79016 283.263337 
L 263.452124 283.263337 
L 263.452124 282.746715 
L 358.8 282.746715 
" style="fill:none;stroke:#ff0000;stroke-linecap:square;stroke-width:1.5;"/>
   </g>
   <g id="line2d_45">
    <defs>
     <path d="M -6 6 
L 6 6 
L 6 -6 
L -6 -6 
z
" id="m96d6b4cd77" style="stroke:#ff0000;stroke-linejoin:miter;stroke-width:1.5;"/>
    </defs>
    <g>
     <use style="fill:none;stroke:#ff0000;stroke-linejoin:miter;stroke-width:1.5;" x="159.123347" xlink:href="#m96d6b4cd77" y="289.462801"/>
     <use style="fill:none;stroke:#ff0000;stroke-linejoin:miter;stroke-width:1.5;" x="244.79016" xlink:href="#m96d6b4cd77" y="284.296581"/>
     <use style="fill:none;stroke:#ff0000;stroke-linejoin:miter;stroke-width:1.5;" x="263.452124" xlink:href="#m96d6b4cd77" y="282.746715"/>
     <use style="fill:none;stroke:#ff0000;stroke-linejoin:miter;stroke-width:1.5;" x="263.452124" xlink:href="#m96d6b4cd77" y="282.746715"/>
     <use style="fill:none;stroke:#ff0000;stroke-linejoin:miter;stroke-width:1.5;" x="358.8" xlink:href="#m96d6b4cd77" y="282.746715"/>
    </g>
   </g>
   <g id="line2d_46"/>
   <g id="line2d_47">
    <path clip-path="url(#pcf2e744428)" d="M 209.87192 289.462801 
" style="fill:none;stroke:#ff0000;stroke-linecap:square;stroke-width:1.5;"/>
    <defs>
     <path d="M -12 12 
L 12 -12 
M -12 -12 
L 12 12 
" id="mf5e72d95a7" style="stroke:#ff0000;stroke-width:3;"/>
    </defs>
    <g clip-path="url(#pcf2e744428)">
     <use style="fill:#ff0000;stroke:#ff0000;stroke-width:3;" x="209.87192" xlink:href="#mf5e72d95a7" y="289.462801"/>
    </g>
   </g>
   <g id="line2d_48">
    <path clip-path="url(#pcf2e744428)" d="M 70.8 298.245375 
L 70.8 298.245375 
L 70.8 298.245375 
L 70.8 298.245375 
L 427.92 298.245375 
" style="fill:none;stroke:#bf00bf;stroke-linecap:square;stroke-width:1.5;"/>
   </g>
   <g id="line2d_49">
    <defs>
     <path d="M -0 8.485281 
L 8.485281 0 
L 0 -8.485281 
L -8.485281 -0 
z
" id="m7c81d0b038" style="stroke:#bf00bf;stroke-linejoin:miter;stroke-width:1.5;"/>
    </defs>
    <g clip-path="url(#pcf2e744428)">
     <use style="fill:none;stroke:#bf00bf;stroke-linejoin:miter;stroke-width:1.5;" x="70.8" xlink:href="#m7c81d0b038" y="298.245375"/>
     <use style="fill:none;stroke:#bf00bf;stroke-linejoin:miter;stroke-width:1.5;" x="70.8" xlink:href="#m7c81d0b038" y="298.245375"/>
     <use style="fill:none;stroke:#bf00bf;stroke-linejoin:miter;stroke-width:1.5;" x="111.942857" xlink:href="#m7c81d0b038" y="298.245375"/>
     <use style="fill:none;stroke:#bf00bf;stroke-linejoin:miter;stroke-width:1.5;" x="153.085714" xlink:href="#m7c81d0b038" y="298.245375"/>
     <use style="fill:none;stroke:#bf00bf;stroke-linejoin:miter;stroke-width:1.5;" x="194.228571" xlink:href="#m7c81d0b038" y="298.245375"/>
     <use style="fill:none;stroke:#bf00bf;stroke-linejoin:miter;stroke-width:1.5;" x="235.371429" xlink:href="#m7c81d0b038" y="298.245375"/>
     <use style="fill:none;stroke:#bf00bf;stroke-linejoin:miter;stroke-width:1.5;" x="276.514286" xlink:href="#m7c81d0b038" y="298.245375"/>
     <use style="fill:none;stroke:#bf00bf;stroke-linejoin:miter;stroke-width:1.5;" x="317.657143" xlink:href="#m7c81d0b038" y="298.245375"/>
     <use style="fill:none;stroke:#bf00bf;stroke-linejoin:miter;stroke-width:1.5;" x="358.8" xlink:href="#m7c81d0b038" y="298.245375"/>
     <use style="fill:none;stroke:#bf00bf;stroke-linejoin:miter;stroke-width:1.5;" x="399.942857" xlink:href="#m7c81d0b038" y="298.245375"/>
    </g>
   </g>
   <g id="line2d_50"/>
   <g id="line2d_51">
    <path d="M 358.8 298.245375 
L 390.48 292.97583 
" style="fill:none;stroke:#bf00bf;stroke-linecap:square;stroke-width:1.5;"/>
    <g>
     <use style="fill:none;stroke:#bf00bf;stroke-linejoin:miter;stroke-width:1.5;" x="358.8" xlink:href="#m7c81d0b038" y="298.245375"/>
     <use style="fill:none;stroke:#bf00bf;stroke-linejoin:miter;stroke-width:1.5;" x="390.48" xlink:href="#m7c81d0b038" y="292.97583"/>
    </g>
   </g>
   <g id="line2d_52">
    <path d="M 358.8 282.746715 
L 390.48 242.388203 
" style="fill:none;stroke:#ff0000;stroke-linecap:square;stroke-width:1.5;"/>
    <g>
     <use style="fill:none;stroke:#ff0000;stroke-linejoin:miter;stroke-width:1.5;" x="358.8" xlink:href="#m96d6b4cd77" y="282.746715"/>
     <use style="fill:none;stroke:#ff0000;stroke-linejoin:miter;stroke-width:1.5;" x="390.48" xlink:href="#m96d6b4cd77" y="242.388203"/>
    </g>
   </g>
   <g id="line2d_53">
    <path d="M 358.8 272.414274 
L 390.48 191.800575 
" style="fill:none;stroke:#000000;stroke-linecap:square;stroke-width:1.5;"/>
    <g>
     <use style="fill:none;stroke:#000000;stroke-width:1.5;" x="358.8" xlink:href="#m92aea168fe" y="272.414274"/>
     <use style="fill:none;stroke:#000000;stroke-width:1.5;" x="390.48" xlink:href="#m92aea168fe" y="191.800575"/>
    </g>
   </g>
   <g id="line2d_54">
    <path d="M 358.8 241.416953 
L 390.48 141.212947 
" style="fill:none;stroke:#0000ff;stroke-linecap:square;stroke-width:1.5;"/>
    <g>
     <use style="fill:none;stroke:#0000ff;stroke-linejoin:bevel;stroke-width:1.5;" x="358.8" xlink:href="#mc8b3dd7133" y="241.416953"/>
     <use style="fill:none;stroke:#0000ff;stroke-linejoin:bevel;stroke-width:1.5;" x="390.48" xlink:href="#mc8b3dd7133" y="141.212947"/>
    </g>
   </g>
   <g id="line2d_55">
    <path d="M 358.8 34.768147 
L 390.48 90.62532 
" style="fill:none;stroke:#008000;stroke-linecap:square;stroke-width:1.5;"/>
    <g>
     <use style="fill:none;stroke:#008000;stroke-linejoin:miter;stroke-width:1.5;" x="358.8" xlink:href="#m767eb1b667" y="34.768147"/>
     <use style="fill:none;stroke:#008000;stroke-linejoin:miter;stroke-width:1.5;" x="390.48" xlink:href="#m767eb1b667" y="90.62532"/>
    </g>
   </g>
   <g id="line2d_56">
    <path d="M 358.8 34.768147 
L 390.48 40.037692 
" style="fill:none;stroke:#00bfbf;stroke-linecap:square;stroke-width:1.5;"/>
    <g>
     <use style="fill:none;stroke:#00bfbf;stroke-width:1.5;" x="358.8" xlink:href="#m73f884cc7f" y="34.768147"/>
     <use style="fill:none;stroke:#00bfbf;stroke-width:1.5;" x="390.48" xlink:href="#m73f884cc7f" y="40.037692"/>
    </g>
   </g>
   <g id="line2d_57">
    <path d="M 358.8 298.245375 
L 358.8 34.768147 
" style="fill:none;stroke:#000000;stroke-linecap:square;stroke-width:1.5;"/>
   </g>
   <g id="patch_3">
    <path d="M 70.8 298.245375 
L 70.8 32.133375 
" style="fill:none;stroke:#000000;stroke-linecap:square;stroke-linejoin:miter;stroke-width:0.8;"/>
   </g>
   <g id="patch_4">
    <path d="M 427.92 298.245375 
L 427.92 32.133375 
" style="fill:none;stroke:#000000;stroke-linecap:square;stroke-linejoin:miter;stroke-width:0.8;"/>
   </g>
   <g id="patch_5">
    <path d="M 70.8 298.245375 
L 427.92 298.245375 
" style="fill:none;stroke:#000000;stroke-linecap:square;stroke-linejoin:miter;stroke-width:0.8;"/>
   </g>
   <g id="patch_6">
    <path d="M 70.8 32.133375 
L 427.92 32.133375 
" style="fill:none;stroke:#000000;stroke-linecap:square;stroke-linejoin:miter;stroke-width:0.8;"/>
   </g>
   <g id="text_14">
    <!-- 40-D -->
    <defs>
     <path d="M 19.671875 64.796875 
L 19.671875 8.109375 
L 31.59375 8.109375 
Q 46.6875 8.109375 53.6875 14.9375 
Q 60.6875 21.78125 60.6875 36.53125 
Q 60.6875 51.171875 53.6875 57.984375 
Q 46.6875 64.796875 31.59375 64.796875 
z
M 9.8125 72.90625 
L 30.078125 72.90625 
Q 51.265625 72.90625 61.171875 64.09375 
Q 71.09375 55.28125 71.09375 36.53125 
Q 71.09375 17.671875 61.125 8.828125 
Q 51.171875 0 30.078125 0 
L 9.8125 0 
z
" id="DejaVuSans-44"/>
    </defs>
    <g transform="translate(396.24 297.114893)scale(0.15 -0.15)">
     <use xlink:href="#DejaVuSans-34"/>
     <use x="63.623047" xlink:href="#DejaVuSans-30"/>
     <use x="127.246094" xlink:href="#DejaVuSans-2d"/>
     <use x="163.330078" xlink:href="#DejaVuSans-44"/>
    </g>
   </g>
   <g id="text_15">
    <!-- 20-D -->
    <g transform="translate(396.24 246.527265)scale(0.15 -0.15)">
     <use xlink:href="#DejaVuSans-32"/>
     <use x="63.623047" xlink:href="#DejaVuSans-30"/>
     <use x="127.246094" xlink:href="#DejaVuSans-2d"/>
     <use x="163.330078" xlink:href="#DejaVuSans-44"/>
    </g>
   </g>
   <g id="text_16">
    <!-- 10-D -->
    <g transform="translate(396.24 195.939637)scale(0.15 -0.15)">
     <use xlink:href="#DejaVuSans-31"/>
     <use x="63.623047" xlink:href="#DejaVuSans-30"/>
     <use x="127.246094" xlink:href="#DejaVuSans-2d"/>
     <use x="163.330078" xlink:href="#DejaVuSans-44"/>
    </g>
   </g>
   <g id="text_17">
    <!-- 5-D -->
    <defs>
     <path d="M 10.796875 72.90625 
L 49.515625 72.90625 
L 49.515625 64.59375 
L 19.828125 64.59375 
L 19.828125 46.734375 
Q 21.96875 47.46875 24.109375 47.828125 
Q 26.265625 48.1875 28.421875 48.1875 
Q 40.625 48.1875 47.75 41.5 
Q 54.890625 34.8125 54.890625 23.390625 
Q 54.890625 11.625 47.5625 5.09375 
Q 40.234375 -1.421875 26.90625 -1.421875 
Q 22.3125 -1.421875 17.546875 -0.640625 
Q 12.796875 0.140625 7.71875 1.703125 
L 7.71875 11.625 
Q 12.109375 9.234375 16.796875 8.0625 
Q 21.484375 6.890625 26.703125 6.890625 
Q 35.15625 6.890625 40.078125 11.328125 
Q 45.015625 15.765625 45.015625 23.390625 
Q 45.015625 31 40.078125 35.4375 
Q 35.15625 39.890625 26.703125 39.890625 
Q 22.75 39.890625 18.8125 39.015625 
Q 14.890625 38.140625 10.796875 36.28125 
z
" id="DejaVuSans-35"/>
    </defs>
    <g transform="translate(396.24 145.35201)scale(0.15 -0.15)">
     <use xlink:href="#DejaVuSans-35"/>
     <use x="63.623047" xlink:href="#DejaVuSans-2d"/>
     <use x="99.707031" xlink:href="#DejaVuSans-44"/>
    </g>
   </g>
   <g id="text_18">
    <!-- 3-D -->
    <defs>
     <path d="M 40.578125 39.3125 
Q 47.65625 37.796875 51.625 33 
Q 55.609375 28.21875 55.609375 21.1875 
Q 55.609375 10.40625 48.1875 4.484375 
Q 40.765625 -1.421875 27.09375 -1.421875 
Q 22.515625 -1.421875 17.65625 -0.515625 
Q 12.796875 0.390625 7.625 2.203125 
L 7.625 11.71875 
Q 11.71875 9.328125 16.59375 8.109375 
Q 21.484375 6.890625 26.8125 6.890625 
Q 36.078125 6.890625 40.9375 10.546875 
Q 45.796875 14.203125 45.796875 21.1875 
Q 45.796875 27.640625 41.28125 31.265625 
Q 36.765625 34.90625 28.71875 34.90625 
L 20.21875 34.90625 
L 20.21875 43.015625 
L 29.109375 43.015625 
Q 36.375 43.015625 40.234375 45.921875 
Q 44.09375 48.828125 44.09375 54.296875 
Q 44.09375 59.90625 40.109375 62.90625 
Q 36.140625 65.921875 28.71875 65.921875 
Q 24.65625 65.921875 20.015625 65.03125 
Q 15.375 64.15625 9.8125 62.3125 
L 9.8125 71.09375 
Q 15.4375 72.65625 20.34375 73.4375 
Q 25.25 74.21875 29.59375 74.21875 
Q 40.828125 74.21875 47.359375 69.109375 
Q 53.90625 64.015625 53.90625 55.328125 
Q 53.90625 49.265625 50.4375 45.09375 
Q 46.96875 40.921875 40.578125 39.3125 
z
" id="DejaVuSans-33"/>
    </defs>
    <g transform="translate(396.24 94.764382)scale(0.15 -0.15)">
     <use xlink:href="#DejaVuSans-33"/>
     <use x="63.623047" xlink:href="#DejaVuSans-2d"/>
     <use x="99.707031" xlink:href="#DejaVuSans-44"/>
    </g>
   </g>
   <g id="text_19">
    <!-- 2-D -->
    <g transform="translate(396.24 44.176754)scale(0.15 -0.15)">
     <use xlink:href="#DejaVuSans-32"/>
     <use x="63.623047" xlink:href="#DejaVuSans-2d"/>
     <use x="99.707031" xlink:href="#DejaVuSans-44"/>
    </g>
   </g>
   <g id="text_20">
    <!-- bbob - f15 -->
    <defs>
     <path d="M 48.6875 27.296875 
Q 48.6875 37.203125 44.609375 42.84375 
Q 40.53125 48.484375 33.40625 48.484375 
Q 26.265625 48.484375 22.1875 42.84375 
Q 18.109375 37.203125 18.109375 27.296875 
Q 18.109375 17.390625 22.1875 11.75 
Q 26.265625 6.109375 33.40625 6.109375 
Q 40.53125 6.109375 44.609375 11.75 
Q 48.6875 17.390625 48.6875 27.296875 
z
M 18.109375 46.390625 
Q 20.953125 51.265625 25.265625 53.625 
Q 29.59375 56 35.59375 56 
Q 45.5625 56 51.78125 48.09375 
Q 58.015625 40.1875 58.015625 27.296875 
Q 58.015625 14.40625 51.78125 6.484375 
Q 45.5625 -1.421875 35.59375 -1.421875 
Q 29.59375 -1.421875 25.265625 0.953125 
Q 20.953125 3.328125 18.109375 8.203125 
L 18.109375 0 
L 9.078125 0 
L 9.078125 75.984375 
L 18.109375 75.984375 
z
" id="DejaVuSans-62"/>
    </defs>
    <g transform="translate(74.3712 50.114612)scale(0.1666 -0.1666)">
     <use xlink:href="#DejaVuSans-62"/>
     <use x="63.476562" xlink:href="#DejaVuSans-62"/>
     <use x="126.953125" xlink:href="#DejaVuSans-6f"/>
     <use x="188.134766" xlink:href="#DejaVuSans-62"/>
     <use x="251.611328" xlink:href="#DejaVuSans-20"/>
     <use x="283.398438" xlink:href="#DejaVuSans-2d"/>
     <use x="319.482422" xlink:href="#DejaVuSans-20"/>
     <use x="351.269531" xlink:href="#DejaVuSans-66"/>
     <use x="386.474609" xlink:href="#DejaVuSans-31"/>
     <use x="450.097656" xlink:href="#DejaVuSans-35"/>
    </g>
    <!-- 51 targets in 100..1e-08 -->
    <g transform="translate(74.3712 68.770168)scale(0.1666 -0.1666)">
     <use xlink:href="#DejaVuSans-35"/>
     <use x="63.623047" xlink:href="#DejaVuSans-31"/>
     <use x="127.246094" xlink:href="#DejaVuSans-20"/>
     <use x="159.033203" xlink:href="#DejaVuSans-74"/>
     <use x="198.242188" xlink:href="#DejaVuSans-61"/>
     <use x="259.521484" xlink:href="#DejaVuSans-72"/>
     <use x="300.619141" xlink:href="#DejaVuSans-67"/>
     <use x="364.095703" xlink:href="#DejaVuSans-65"/>
     <use x="425.619141" xlink:href="#DejaVuSans-74"/>
     <use x="464.828125" xlink:href="#DejaVuSans-73"/>
     <use x="516.927734" xlink:href="#DejaVuSans-20"/>
     <use x="548.714844" xlink:href="#DejaVuSans-69"/>
     <use x="576.498047" xlink:href="#DejaVuSans-6e"/>
     <use x="639.876953" xlink:href="#DejaVuSans-20"/>
     <use x="671.664062" xlink:href="#DejaVuSans-31"/>
     <use x="735.287109" xlink:href="#DejaVuSans-30"/>
     <use x="798.910156" xlink:href="#DejaVuSans-30"/>
     <use x="862.533203" xlink:href="#DejaVuSans-2e"/>
     <use x="894.320312" xlink:href="#DejaVuSans-2e"/>
     <use x="926.107422" xlink:href="#DejaVuSans-31"/>
     <use x="989.730469" xlink:href="#DejaVuSans-65"/>
     <use x="1051.253906" xlink:href="#DejaVuSans-2d"/>
     <use x="1087.337891" xlink:href="#DejaVuSans-30"/>
     <use x="1150.960938" xlink:href="#DejaVuSans-38"/>
    </g>
    <!-- 15 instances -->
    <g transform="translate(74.3712 87.425723)scale(0.1666 -0.1666)">
     <use xlink:href="#DejaVuSans-31"/>
     <use x="63.623047" xlink:href="#DejaVuSans-35"/>
     <use x="127.246094" xlink:href="#DejaVuSans-20"/>
     <use x="159.033203" xlink:href="#DejaVuSans-69"/>
     <use x="186.816406" xlink:href="#DejaVuSans-6e"/>
     <use x="250.195312" xlink:href="#DejaVuSans-73"/>
     <use x="302.294922" xlink:href="#DejaVuSans-74"/>
     <use x="341.503906" xlink:href="#DejaVuSans-61"/>
     <use x="402.783203" xlink:href="#DejaVuSans-6e"/>
     <use x="466.162109" xlink:href="#DejaVuSans-63"/>
     <use x="521.142578" xlink:href="#DejaVuSans-65"/>
     <use x="582.666016" xlink:href="#DejaVuSans-73"/>
    </g>
   </g>
   <g id="text_21">
    <!-- v2.1 -->
    <g style="fill:#808080;" transform="translate(238.449063 293.504568)scale(0.1 -0.1)">
     <use xlink:href="#DejaVuSans-76"/>
     <use x="59.179688" xlink:href="#DejaVuSans-32"/>
     <use x="122.802734" xlink:href="#DejaVuSans-2e"/>
     <use x="154.589844" xlink:href="#DejaVuSans-31"/>
    </g>
   </g>
   <g id="text_22">
    <!-- 15 Rastrigin -->
    <defs>
     <path d="M 44.390625 34.1875 
Q 47.5625 33.109375 50.5625 29.59375 
Q 53.5625 26.078125 56.59375 19.921875 
L 66.609375 0 
L 56 0 
L 46.6875 18.703125 
Q 43.0625 26.03125 39.671875 28.421875 
Q 36.28125 30.8125 30.421875 30.8125 
L 19.671875 30.8125 
L 19.671875 0 
L 9.8125 0 
L 9.8125 72.90625 
L 32.078125 72.90625 
Q 44.578125 72.90625 50.734375 67.671875 
Q 56.890625 62.453125 56.890625 51.90625 
Q 56.890625 45.015625 53.6875 40.46875 
Q 50.484375 35.9375 44.390625 34.1875 
z
M 19.671875 64.796875 
L 19.671875 38.921875 
L 32.078125 38.921875 
Q 39.203125 38.921875 42.84375 42.21875 
Q 46.484375 45.515625 46.484375 51.90625 
Q 46.484375 58.296875 42.84375 61.546875 
Q 39.203125 64.796875 32.078125 64.796875 
z
" id="DejaVuSans-52"/>
    </defs>
    <g transform="translate(176.80875 26.133375)scale(0.24 -0.24)">
     <use xlink:href="#DejaVuSans-31"/>
     <use x="63.623047" xlink:href="#DejaVuSans-35"/>
     <use x="127.246094" xlink:href="#DejaVuSans-20"/>
     <use x="159.033203" xlink:href="#DejaVuSans-52"/>
     <use x="228.484375" xlink:href="#DejaVuSans-61"/>
     <use x="289.763672" xlink:href="#DejaVuSans-73"/>
     <use x="341.863281" xlink:href="#DejaVuSans-74"/>
     <use x="381.072266" xlink:href="#DejaVuSans-72"/>
     <use x="422.185547" xlink:href="#DejaVuSans-69"/>
     <use x="449.96875" xlink:href="#DejaVuSans-67"/>
     <use x="513.445312" xlink:href="#DejaVuSans-69"/>
     <use x="541.228516" xlink:href="#DejaVuSans-6e"/>
    </g>
   </g>
  </g>
 </g>
 <defs>
  <clipPath id="pcf2e744428">
   <rect height="266.112" width="357.12" x="70.8" y="32.133375"/>
  </clipPath>
 </defs>
</svg>
