<?xml version="1.0" encoding="utf-8" standalone="no"?>
<!DOCTYPE svg PUBLIC "-//W3C//DTD SVG 1.1//EN"
  "http://www.w3.org/Graphics/SVG/1.1/DTD/svg11.dtd">
<!-- Created with matplotlib (http://matplotlib.org/) -->
<svg height="334pt" version="1.1" viewBox="0 0 397 334" width="397pt" xmlns="http://www.w3.org/2000/svg" xmlns:xlink="http://www.w3.org/1999/xlink">
 <defs>
  <style type="text/css">
*{stroke-linecap:butt;stroke-linejoin:round;}
  </style>
 </defs>
 <g id="figure_1">
  <g id="patch_1">
   <path d="M 0 334.97575 
L 397.29 334.97575 
L 397.29 0 
L 0 0 
z
" style="fill:#ffffff;"/>
  </g>
  <g id="axes_1">
   <g id="patch_2">
    <path d="M 29.47 297.54825 
L 386.59 297.54825 
L 386.59 31.43625 
L 29.47 31.43625 
z
" style="fill:#ffffff;"/>
   </g>
   <g id="line2d_1">
    <path clip-path="url(#p8ac5e2d3be)" d="M 41.159282 217.1954 
L 86.143838 212.54018 
L 142.817676 208.583631 
L 219.719282 199.769516 
L 296.620888 191.235606 
L 373.522494 179.422391 
" style="fill:none;stroke:#f5deb3;stroke-linecap:square;stroke-width:10;"/>
    <defs>
     <path d="M -0 17.67767 
L 10.606602 0 
L 0 -17.67767 
L -10.606602 -0 
z
" id="me9893e1007" style="stroke:#000000;stroke-linejoin:miter;"/>
    </defs>
    <g clip-path="url(#p8ac5e2d3be)">
     <use style="fill:#f5deb3;stroke:#000000;stroke-linejoin:miter;" x="41.159282" xlink:href="#me9893e1007" y="217.1954"/>
     <use style="fill:#f5deb3;stroke:#000000;stroke-linejoin:miter;" x="86.143838" xlink:href="#me9893e1007" y="212.54018"/>
     <use style="fill:#f5deb3;stroke:#000000;stroke-linejoin:miter;" x="142.817676" xlink:href="#me9893e1007" y="208.583631"/>
     <use style="fill:#f5deb3;stroke:#000000;stroke-linejoin:miter;" x="219.719282" xlink:href="#me9893e1007" y="199.769516"/>
     <use style="fill:#f5deb3;stroke:#000000;stroke-linejoin:miter;" x="296.620888" xlink:href="#me9893e1007" y="191.235606"/>
     <use style="fill:#f5deb3;stroke:#000000;stroke-linejoin:miter;" x="373.522494" xlink:href="#me9893e1007" y="179.422391"/>
    </g>
   </g>
   <g id="line2d_2">
    <defs>
     <path d="M -15 0 
L 15 0 
M 0 15 
L 0 -15 
" id="me8e9583201" style="stroke:#ff0000;stroke-width:5;"/>
    </defs>
    <g clip-path="url(#p8ac5e2d3be)">
     <use style="fill:#ff0000;stroke:#ff0000;stroke-width:5;" x="41.159282" xlink:href="#me8e9583201" y="155.511368"/>
    </g>
   </g>
   <g id="line2d_3">
    <g clip-path="url(#p8ac5e2d3be)">
     <use style="fill:#ff0000;stroke:#ff0000;stroke-width:5;" x="86.143838" xlink:href="#me8e9583201" y="151.697123"/>
    </g>
   </g>
   <g id="line2d_4">
    <defs>
     <path d="M -15 0 
L 15 0 
M 0 15 
L 0 -15 
" id="ma80048355c" style="stroke:#bfbf00;stroke-width:5;"/>
    </defs>
    <g clip-path="url(#p8ac5e2d3be)">
     <use style="fill:#bfbf00;stroke:#bfbf00;stroke-width:5;" x="142.817676" xlink:href="#ma80048355c" y="148.765047"/>
    </g>
   </g>
   <g id="line2d_5">
    <defs>
     <path d="M -15 0 
L 15 0 
M 0 15 
L 0 -15 
" id="m244da994e6" style="stroke:#00bfbf;stroke-width:5;"/>
    </defs>
    <g clip-path="url(#p8ac5e2d3be)">
     <use style="fill:#00bfbf;stroke:#00bfbf;stroke-width:5;" x="373.522494" xlink:href="#m244da994e6" y="145.564439"/>
    </g>
   </g>
   <g id="line2d_6">
    <g clip-path="url(#p8ac5e2d3be)">
     <use style="fill:#00bfbf;stroke:#00bfbf;stroke-width:5;" x="219.719282" xlink:href="#m244da994e6" y="146.771123"/>
    </g>
   </g>
   <g id="line2d_7">
    <g clip-path="url(#p8ac5e2d3be)">
     <use style="fill:#00bfbf;stroke:#00bfbf;stroke-width:5;" x="296.620888" xlink:href="#m244da994e6" y="162.470023"/>
    </g>
   </g>
   <g id="matplotlib.axis_1">
    <g id="xtick_1">
     <g id="line2d_8">
      <defs>
       <path d="M 0 0 
L 0 3.5 
" id="m5cd563f2f8" style="stroke:#000000;stroke-width:0.8;"/>
      </defs>
      <g>
       <use style="stroke:#000000;stroke-width:0.8;" x="41.159282" xlink:href="#m5cd563f2f8" y="297.54825"/>
      </g>
     </g>
     <g id="text_1">
      <!-- 2 -->
      <defs>
       <path d="M 19.1875 8.296875 
L 53.609375 8.296875 
L 53.609375 0 
L 7.328125 0 
L 7.328125 8.296875 
Q 12.9375 14.109375 22.625 23.890625 
Q 32.328125 33.6875 34.8125 36.53125 
Q 39.546875 41.84375 41.421875 45.53125 
Q 43.3125 49.21875 43.3125 52.78125 
Q 43.3125 58.59375 39.234375 62.25 
Q 35.15625 65.921875 28.609375 65.921875 
Q 23.96875 65.921875 18.8125 64.3125 
Q 13.671875 62.703125 7.8125 59.421875 
L 7.8125 69.390625 
Q 13.765625 71.78125 18.9375 73 
Q 24.125 74.21875 28.421875 74.21875 
Q 39.75 74.21875 46.484375 68.546875 
Q 53.21875 62.890625 53.21875 53.421875 
Q 53.21875 48.921875 51.53125 44.890625 
Q 49.859375 40.875 45.40625 35.40625 
Q 44.1875 33.984375 37.640625 27.21875 
Q 31.109375 20.453125 19.1875 8.296875 
z
" id="DejaVuSans-32"/>
      </defs>
      <g transform="translate(33.524282 322.7845)scale(0.24 -0.24)">
       <use xlink:href="#DejaVuSans-32"/>
      </g>
     </g>
    </g>
    <g id="xtick_2">
     <g id="line2d_9">
      <g>
       <use style="stroke:#000000;stroke-width:0.8;" x="86.143838" xlink:href="#m5cd563f2f8" y="297.54825"/>
      </g>
     </g>
     <g id="text_2">
      <!-- 3 -->
      <defs>
       <path d="M 40.578125 39.3125 
Q 47.65625 37.796875 51.625 33 
Q 55.609375 28.21875 55.609375 21.1875 
Q 55.609375 10.40625 48.1875 4.484375 
Q 40.765625 -1.421875 27.09375 -1.421875 
Q 22.515625 -1.421875 17.65625 -0.515625 
Q 12.796875 0.390625 7.625 2.203125 
L 7.625 11.71875 
Q 11.71875 9.328125 16.59375 8.109375 
Q 21.484375 6.890625 26.8125 6.890625 
Q 36.078125 6.890625 40.9375 10.546875 
Q 45.796875 14.203125 45.796875 21.1875 
Q 45.796875 27.640625 41.28125 31.265625 
Q 36.765625 34.90625 28.71875 34.90625 
L 20.21875 34.90625 
L 20.21875 43.015625 
L 29.109375 43.015625 
Q 36.375 43.015625 40.234375 45.921875 
Q 44.09375 48.828125 44.09375 54.296875 
Q 44.09375 59.90625 40.109375 62.90625 
Q 36.140625 65.921875 28.71875 65.921875 
Q 24.65625 65.921875 20.015625 65.03125 
Q 15.375 64.15625 9.8125 62.3125 
L 9.8125 71.09375 
Q 15.4375 72.65625 20.34375 73.4375 
Q 25.25 74.21875 29.59375 74.21875 
Q 40.828125 74.21875 47.359375 69.109375 
Q 53.90625 64.015625 53.90625 55.328125 
Q 53.90625 49.265625 50.4375 45.09375 
Q 46.96875 40.921875 40.578125 39.3125 
z
" id="DejaVuSans-33"/>
      </defs>
      <g transform="translate(78.508838 322.7845)scale(0.24 -0.24)">
       <use xlink:href="#DejaVuSans-33"/>
      </g>
     </g>
    </g>
    <g id="xtick_3">
     <g id="line2d_10">
      <g>
       <use style="stroke:#000000;stroke-width:0.8;" x="142.817676" xlink:href="#m5cd563f2f8" y="297.54825"/>
      </g>
     </g>
     <g id="text_3">
      <!-- 5 -->
      <defs>
       <path d="M 10.796875 72.90625 
L 49.515625 72.90625 
L 49.515625 64.59375 
L 19.828125 64.59375 
L 19.828125 46.734375 
Q 21.96875 47.46875 24.109375 47.828125 
Q 26.265625 48.1875 28.421875 48.1875 
Q 40.625 48.1875 47.75 41.5 
Q 54.890625 34.8125 54.890625 23.390625 
Q 54.890625 11.625 47.5625 5.09375 
Q 40.234375 -1.421875 26.90625 -1.421875 
Q 22.3125 -1.421875 17.546875 -0.640625 
Q 12.796875 0.140625 7.71875 1.703125 
L 7.71875 11.625 
Q 12.109375 9.234375 16.796875 8.0625 
Q 21.484375 6.890625 26.703125 6.890625 
Q 35.15625 6.890625 40.078125 11.328125 
Q 45.015625 15.765625 45.015625 23.390625 
Q 45.015625 31 40.078125 35.4375 
Q 35.15625 39.890625 26.703125 39.890625 
Q 22.75 39.890625 18.8125 39.015625 
Q 14.890625 38.140625 10.796875 36.28125 
z
" id="DejaVuSans-35"/>
      </defs>
      <g transform="translate(135.182676 322.7845)scale(0.24 -0.24)">
       <use xlink:href="#DejaVuSans-35"/>
      </g>
     </g>
    </g>
    <g id="xtick_4">
     <g id="line2d_11">
      <g>
       <use style="stroke:#000000;stroke-width:0.8;" x="219.719282" xlink:href="#m5cd563f2f8" y="297.54825"/>
      </g>
     </g>
     <g id="text_4">
      <!-- 10 -->
      <defs>
       <path d="M 12.40625 8.296875 
L 28.515625 8.296875 
L 28.515625 63.921875 
L 10.984375 60.40625 
L 10.984375 69.390625 
L 28.421875 72.90625 
L 38.28125 72.90625 
L 38.28125 8.296875 
L 54.390625 8.296875 
L 54.390625 0 
L 12.40625 0 
z
" id="DejaVuSans-31"/>
       <path d="M 31.78125 66.40625 
Q 24.171875 66.40625 20.328125 58.90625 
Q 16.5 51.421875 16.5 36.375 
Q 16.5 21.390625 20.328125 13.890625 
Q 24.171875 6.390625 31.78125 6.390625 
Q 39.453125 6.390625 43.28125 13.890625 
Q 47.125 21.390625 47.125 36.375 
Q 47.125 51.421875 43.28125 58.90625 
Q 39.453125 66.40625 31.78125 66.40625 
z
M 31.78125 74.21875 
Q 44.046875 74.21875 50.515625 64.515625 
Q 56.984375 54.828125 56.984375 36.375 
Q 56.984375 17.96875 50.515625 8.265625 
Q 44.046875 -1.421875 31.78125 -1.421875 
Q 19.53125 -1.421875 13.0625 8.265625 
Q 6.59375 17.96875 6.59375 36.375 
Q 6.59375 54.828125 13.0625 64.515625 
Q 19.53125 74.21875 31.78125 74.21875 
z
" id="DejaVuSans-30"/>
      </defs>
      <g transform="translate(204.449282 322.7845)scale(0.24 -0.24)">
       <use xlink:href="#DejaVuSans-31"/>
       <use x="63.623047" xlink:href="#DejaVuSans-30"/>
      </g>
     </g>
    </g>
    <g id="xtick_5">
     <g id="line2d_12">
      <g>
       <use style="stroke:#000000;stroke-width:0.8;" x="296.620888" xlink:href="#m5cd563f2f8" y="297.54825"/>
      </g>
     </g>
     <g id="text_5">
      <!-- 20 -->
      <g transform="translate(281.350888 322.7845)scale(0.24 -0.24)">
       <use xlink:href="#DejaVuSans-32"/>
       <use x="63.623047" xlink:href="#DejaVuSans-30"/>
      </g>
     </g>
    </g>
    <g id="xtick_6">
     <g id="line2d_13">
      <g>
       <use style="stroke:#000000;stroke-width:0.8;" x="373.522494" xlink:href="#m5cd563f2f8" y="297.54825"/>
      </g>
     </g>
     <g id="text_6">
      <!-- 40 -->
      <defs>
       <path d="M 37.796875 64.3125 
L 12.890625 25.390625 
L 37.796875 25.390625 
z
M 35.203125 72.90625 
L 47.609375 72.90625 
L 47.609375 25.390625 
L 58.015625 25.390625 
L 58.015625 17.1875 
L 47.609375 17.1875 
L 47.609375 0 
L 37.796875 0 
L 37.796875 17.1875 
L 4.890625 17.1875 
L 4.890625 26.703125 
z
" id="DejaVuSans-34"/>
      </defs>
      <g transform="translate(358.252494 322.7845)scale(0.24 -0.24)">
       <use xlink:href="#DejaVuSans-34"/>
       <use x="63.623047" xlink:href="#DejaVuSans-30"/>
      </g>
     </g>
    </g>
    <g id="xtick_7">
     <g id="line2d_14">
      <defs>
       <path d="M 0 0 
L 0 2 
" id="mfbeb875633" style="stroke:#000000;stroke-width:0.6;"/>
      </defs>
      <g>
       <use style="stroke:#000000;stroke-width:0.6;" x="41.159282" xlink:href="#mfbeb875633" y="297.54825"/>
      </g>
     </g>
    </g>
    <g id="xtick_8">
     <g id="line2d_15">
      <g>
       <use style="stroke:#000000;stroke-width:0.6;" x="86.143838" xlink:href="#mfbeb875633" y="297.54825"/>
      </g>
     </g>
    </g>
    <g id="xtick_9">
     <g id="line2d_16">
      <g>
       <use style="stroke:#000000;stroke-width:0.6;" x="118.060888" xlink:href="#mfbeb875633" y="297.54825"/>
      </g>
     </g>
    </g>
    <g id="xtick_10">
     <g id="line2d_17">
      <g>
       <use style="stroke:#000000;stroke-width:0.6;" x="142.817676" xlink:href="#mfbeb875633" y="297.54825"/>
      </g>
     </g>
    </g>
    <g id="xtick_11">
     <g id="line2d_18">
      <g>
       <use style="stroke:#000000;stroke-width:0.6;" x="163.045444" xlink:href="#mfbeb875633" y="297.54825"/>
      </g>
     </g>
    </g>
    <g id="xtick_12">
     <g id="line2d_19">
      <g>
       <use style="stroke:#000000;stroke-width:0.6;" x="180.147779" xlink:href="#mfbeb875633" y="297.54825"/>
      </g>
     </g>
    </g>
    <g id="xtick_13">
     <g id="line2d_20">
      <g>
       <use style="stroke:#000000;stroke-width:0.6;" x="194.962494" xlink:href="#mfbeb875633" y="297.54825"/>
      </g>
     </g>
    </g>
    <g id="xtick_14">
     <g id="line2d_21">
      <g>
       <use style="stroke:#000000;stroke-width:0.6;" x="208.03" xlink:href="#mfbeb875633" y="297.54825"/>
      </g>
     </g>
    </g>
    <g id="xtick_15">
     <g id="line2d_22">
      <g>
       <use style="stroke:#000000;stroke-width:0.6;" x="296.620888" xlink:href="#mfbeb875633" y="297.54825"/>
      </g>
     </g>
    </g>
    <g id="xtick_16">
     <g id="line2d_23">
      <g>
       <use style="stroke:#000000;stroke-width:0.6;" x="341.605444" xlink:href="#mfbeb875633" y="297.54825"/>
      </g>
     </g>
    </g>
    <g id="xtick_17">
     <g id="line2d_24">
      <g>
       <use style="stroke:#000000;stroke-width:0.6;" x="373.522494" xlink:href="#mfbeb875633" y="297.54825"/>
      </g>
     </g>
    </g>
   </g>
   <g id="matplotlib.axis_2">
    <g id="ytick_1">
     <g id="line2d_25">
      <path clip-path="url(#p8ac5e2d3be)" d="M 29.47 288.963993 
L 386.59 288.963993 
" style="fill:none;stroke:#b0b0b0;stroke-linecap:square;stroke-width:0.8;"/>
     </g>
     <g id="line2d_26">
      <defs>
       <path d="M 0 0 
L -3.5 0 
" id="mc0be0069e7" style="stroke:#000000;stroke-width:0.8;"/>
      </defs>
      <g>
       <use style="stroke:#000000;stroke-width:0.8;" x="29.47" xlink:href="#mc0be0069e7" y="288.963993"/>
      </g>
     </g>
     <g id="text_7">
      <!-- 0 -->
      <g transform="translate(7.2 298.082118)scale(0.24 -0.24)">
       <use xlink:href="#DejaVuSans-30"/>
      </g>
     </g>
    </g>
    <g id="ytick_2">
     <g id="line2d_27">
      <path clip-path="url(#p8ac5e2d3be)" d="M 29.47 246.042705 
L 386.59 246.042705 
" style="fill:none;stroke:#b0b0b0;stroke-linecap:square;stroke-width:0.8;"/>
     </g>
     <g id="line2d_28">
      <g>
       <use style="stroke:#000000;stroke-width:0.8;" x="29.47" xlink:href="#mc0be0069e7" y="246.042705"/>
      </g>
     </g>
     <g id="text_8">
      <!-- 1 -->
      <g transform="translate(7.2 255.16083)scale(0.24 -0.24)">
       <use xlink:href="#DejaVuSans-31"/>
      </g>
     </g>
    </g>
    <g id="ytick_3">
     <g id="line2d_29">
      <path clip-path="url(#p8ac5e2d3be)" d="M 29.47 203.121418 
L 386.59 203.121418 
" style="fill:none;stroke:#b0b0b0;stroke-linecap:square;stroke-width:0.8;"/>
     </g>
     <g id="line2d_30">
      <g>
       <use style="stroke:#000000;stroke-width:0.8;" x="29.47" xlink:href="#mc0be0069e7" y="203.121418"/>
      </g>
     </g>
     <g id="text_9">
      <!-- 2 -->
      <g transform="translate(7.2 212.239543)scale(0.24 -0.24)">
       <use xlink:href="#DejaVuSans-32"/>
      </g>
     </g>
    </g>
    <g id="ytick_4">
     <g id="line2d_31">
      <path clip-path="url(#p8ac5e2d3be)" d="M 29.47 160.200131 
L 386.59 160.200131 
" style="fill:none;stroke:#b0b0b0;stroke-linecap:square;stroke-width:0.8;"/>
     </g>
     <g id="line2d_32">
      <g>
       <use style="stroke:#000000;stroke-width:0.8;" x="29.47" xlink:href="#mc0be0069e7" y="160.200131"/>
      </g>
     </g>
     <g id="text_10">
      <!-- 3 -->
      <g transform="translate(7.2 169.318256)scale(0.24 -0.24)">
       <use xlink:href="#DejaVuSans-33"/>
      </g>
     </g>
    </g>
    <g id="ytick_5">
     <g id="line2d_33">
      <path clip-path="url(#p8ac5e2d3be)" d="M 29.47 117.278843 
L 386.59 117.278843 
" style="fill:none;stroke:#b0b0b0;stroke-linecap:square;stroke-width:0.8;"/>
     </g>
     <g id="line2d_34">
      <g>
       <use style="stroke:#000000;stroke-width:0.8;" x="29.47" xlink:href="#mc0be0069e7" y="117.278843"/>
      </g>
     </g>
     <g id="text_11">
      <!-- 4 -->
      <g transform="translate(7.2 126.396968)scale(0.24 -0.24)">
       <use xlink:href="#DejaVuSans-34"/>
      </g>
     </g>
    </g>
    <g id="ytick_6">
     <g id="line2d_35">
      <path clip-path="url(#p8ac5e2d3be)" d="M 29.47 74.357556 
L 386.59 74.357556 
" style="fill:none;stroke:#b0b0b0;stroke-linecap:square;stroke-width:0.8;"/>
     </g>
     <g id="line2d_36">
      <g>
       <use style="stroke:#000000;stroke-width:0.8;" x="29.47" xlink:href="#mc0be0069e7" y="74.357556"/>
      </g>
     </g>
     <g id="text_12">
      <!-- 5 -->
      <g transform="translate(7.2 83.475681)scale(0.24 -0.24)">
       <use xlink:href="#DejaVuSans-35"/>
      </g>
     </g>
    </g>
    <g id="ytick_7">
     <g id="line2d_37">
      <path clip-path="url(#p8ac5e2d3be)" d="M 29.47 31.436269 
L 386.59 31.436269 
" style="fill:none;stroke:#b0b0b0;stroke-linecap:square;stroke-width:0.8;"/>
     </g>
     <g id="line2d_38">
      <g>
       <use style="stroke:#000000;stroke-width:0.8;" x="29.47" xlink:href="#mc0be0069e7" y="31.436269"/>
      </g>
     </g>
     <g id="text_13">
      <!-- 6 -->
      <defs>
       <path d="M 33.015625 40.375 
Q 26.375 40.375 22.484375 35.828125 
Q 18.609375 31.296875 18.609375 23.390625 
Q 18.609375 15.53125 22.484375 10.953125 
Q 26.375 6.390625 33.015625 6.390625 
Q 39.65625 6.390625 43.53125 10.953125 
Q 47.40625 15.53125 47.40625 23.390625 
Q 47.40625 31.296875 43.53125 35.828125 
Q 39.65625 40.375 33.015625 40.375 
z
M 52.59375 71.296875 
L 52.59375 62.3125 
Q 48.875 64.0625 45.09375 64.984375 
Q 41.3125 65.921875 37.59375 65.921875 
Q 27.828125 65.921875 22.671875 59.328125 
Q 17.53125 52.734375 16.796875 39.40625 
Q 19.671875 43.65625 24.015625 45.921875 
Q 28.375 48.1875 33.59375 48.1875 
Q 44.578125 48.1875 50.953125 41.515625 
Q 57.328125 34.859375 57.328125 23.390625 
Q 57.328125 12.15625 50.6875 5.359375 
Q 44.046875 -1.421875 33.015625 -1.421875 
Q 20.359375 -1.421875 13.671875 8.265625 
Q 6.984375 17.96875 6.984375 36.375 
Q 6.984375 53.65625 15.1875 63.9375 
Q 23.390625 74.21875 37.203125 74.21875 
Q 40.921875 74.21875 44.703125 73.484375 
Q 48.484375 72.75 52.59375 71.296875 
z
" id="DejaVuSans-36"/>
      </defs>
      <g transform="translate(7.2 40.554394)scale(0.24 -0.24)">
       <use xlink:href="#DejaVuSans-36"/>
      </g>
     </g>
    </g>
   </g>
   <g id="line2d_39">
    <path clip-path="url(#p8ac5e2d3be)" d="M 38.515722 301.884587 
L 40.366214 301.884587 
L 38.515722 301.884587 
L 43.802842 301.884587 
L 41.95235 301.884587 
L 43.802842 301.884587 
L 38.515722 301.884587 
" style="fill:none;stroke:#000000;stroke-linecap:square;"/>
   </g>
   <g id="line2d_40">
    <path clip-path="url(#p8ac5e2d3be)" d="M 38.515722 301.884587 
L 43.802842 301.884587 
L 43.802842 301.884587 
L 38.515722 301.884587 
L 38.515722 301.884587 
" style="fill:none;"/>
    <defs>
     <path d="M 0 3 
C 0.795609 3 1.55874 2.683901 2.12132 2.12132 
C 2.683901 1.55874 3 0.795609 3 0 
C 3 -0.795609 2.683901 -1.55874 2.12132 -2.12132 
C 1.55874 -2.683901 0.795609 -3 0 -3 
C -0.795609 -3 -1.55874 -2.683901 -2.12132 -2.12132 
C -2.683901 -1.55874 -3 -0.795609 -3 0 
C -3 0.795609 -2.683901 1.55874 -2.12132 2.12132 
C -1.55874 2.683901 -0.795609 3 0 3 
z
" id="ma6a0522bab" style="stroke:#000000;stroke-width:2;"/>
    </defs>
    <g clip-path="url(#p8ac5e2d3be)">
     <use style="stroke:#000000;stroke-width:2;" x="38.515722" xlink:href="#ma6a0522bab" y="301.884587"/>
     <use style="stroke:#000000;stroke-width:2;" x="43.802842" xlink:href="#ma6a0522bab" y="301.884587"/>
     <use style="stroke:#000000;stroke-width:2;" x="43.802842" xlink:href="#ma6a0522bab" y="301.884587"/>
     <use style="stroke:#000000;stroke-width:2;" x="38.515722" xlink:href="#ma6a0522bab" y="301.884587"/>
     <use style="stroke:#000000;stroke-width:2;" x="38.515722" xlink:href="#ma6a0522bab" y="301.884587"/>
    </g>
   </g>
   <g id="line2d_41">
    <path clip-path="url(#p8ac5e2d3be)" d="M 38.515722 301.884587 
L 43.802842 301.884587 
" style="fill:none;stroke:#000000;stroke-linecap:square;stroke-width:2;"/>
   </g>
   <g id="line2d_42">
    <path clip-path="url(#p8ac5e2d3be)" d="M 83.500277 279.441959 
L 85.35077 273.169955 
L 83.500277 264.744736 
L 88.787398 264.744736 
L 86.936906 273.169955 
L 88.787398 279.441959 
L 83.500277 279.441959 
" style="fill:none;stroke:#000000;stroke-linecap:square;"/>
   </g>
   <g id="line2d_43">
    <path clip-path="url(#p8ac5e2d3be)" d="M 83.500277 279.441959 
L 88.787398 279.441959 
L 88.787398 264.744736 
L 83.500277 264.744736 
L 83.500277 279.441959 
" style="fill:none;"/>
    <g clip-path="url(#p8ac5e2d3be)">
     <use style="stroke:#000000;stroke-width:2;" x="83.500277" xlink:href="#ma6a0522bab" y="279.441959"/>
     <use style="stroke:#000000;stroke-width:2;" x="88.787398" xlink:href="#ma6a0522bab" y="279.441959"/>
     <use style="stroke:#000000;stroke-width:2;" x="88.787398" xlink:href="#ma6a0522bab" y="264.744736"/>
     <use style="stroke:#000000;stroke-width:2;" x="83.500277" xlink:href="#ma6a0522bab" y="264.744736"/>
     <use style="stroke:#000000;stroke-width:2;" x="83.500277" xlink:href="#ma6a0522bab" y="279.441959"/>
    </g>
   </g>
   <g id="line2d_44">
    <path clip-path="url(#p8ac5e2d3be)" d="M 83.500277 273.169955 
L 88.787398 273.169955 
" style="fill:none;stroke:#000000;stroke-linecap:square;stroke-width:2;"/>
   </g>
   <g id="line2d_45">
    <path clip-path="url(#p8ac5e2d3be)" d="M 140.174115 271.152802 
L 142.024608 263.122803 
L 140.174115 249.292736 
L 145.461236 249.292736 
L 143.610744 263.122803 
L 145.461236 271.152802 
L 140.174115 271.152802 
" style="fill:none;stroke:#000000;stroke-linecap:square;"/>
   </g>
   <g id="line2d_46">
    <path clip-path="url(#p8ac5e2d3be)" d="M 140.174115 271.152802 
L 145.461236 271.152802 
L 145.461236 249.292736 
L 140.174115 249.292736 
L 140.174115 271.152802 
" style="fill:none;"/>
    <g clip-path="url(#p8ac5e2d3be)">
     <use style="stroke:#000000;stroke-width:2;" x="140.174115" xlink:href="#ma6a0522bab" y="271.152802"/>
     <use style="stroke:#000000;stroke-width:2;" x="145.461236" xlink:href="#ma6a0522bab" y="271.152802"/>
     <use style="stroke:#000000;stroke-width:2;" x="145.461236" xlink:href="#ma6a0522bab" y="249.292736"/>
     <use style="stroke:#000000;stroke-width:2;" x="140.174115" xlink:href="#ma6a0522bab" y="249.292736"/>
     <use style="stroke:#000000;stroke-width:2;" x="140.174115" xlink:href="#ma6a0522bab" y="271.152802"/>
    </g>
   </g>
   <g id="line2d_47">
    <path clip-path="url(#p8ac5e2d3be)" d="M 140.174115 263.122803 
L 145.461236 263.122803 
" style="fill:none;stroke:#000000;stroke-linecap:square;stroke-width:2;"/>
   </g>
   <g id="line2d_48">
    <path clip-path="url(#p8ac5e2d3be)" d="M 217.075722 229.187646 
L 218.926214 228.52052 
L 217.075722 226.520178 
L 222.362842 226.520178 
L 220.51235 228.52052 
L 222.362842 229.187646 
L 217.075722 229.187646 
" style="fill:none;stroke:#000000;stroke-linecap:square;"/>
   </g>
   <g id="line2d_49">
    <path clip-path="url(#p8ac5e2d3be)" d="M 217.075722 229.187646 
L 222.362842 229.187646 
L 222.362842 226.520178 
L 217.075722 226.520178 
L 217.075722 229.187646 
" style="fill:none;"/>
    <g clip-path="url(#p8ac5e2d3be)">
     <use style="stroke:#000000;stroke-width:2;" x="217.075722" xlink:href="#ma6a0522bab" y="229.187646"/>
     <use style="stroke:#000000;stroke-width:2;" x="222.362842" xlink:href="#ma6a0522bab" y="229.187646"/>
     <use style="stroke:#000000;stroke-width:2;" x="222.362842" xlink:href="#ma6a0522bab" y="226.520178"/>
     <use style="stroke:#000000;stroke-width:2;" x="217.075722" xlink:href="#ma6a0522bab" y="226.520178"/>
     <use style="stroke:#000000;stroke-width:2;" x="217.075722" xlink:href="#ma6a0522bab" y="229.187646"/>
    </g>
   </g>
   <g id="line2d_50">
    <path clip-path="url(#p8ac5e2d3be)" d="M 217.075722 228.52052 
L 222.362842 228.52052 
" style="fill:none;stroke:#000000;stroke-linecap:square;stroke-width:2;"/>
   </g>
   <g id="line2d_51">
    <path clip-path="url(#p8ac5e2d3be)" d="M 293.977328 170.124131 
L 295.82782 167.662442 
L 293.977328 162.651976 
L 299.264449 162.651976 
L 297.413956 167.662442 
L 299.264449 170.124131 
L 293.977328 170.124131 
" style="fill:none;stroke:#000000;stroke-linecap:square;"/>
   </g>
   <g id="line2d_52">
    <path clip-path="url(#p8ac5e2d3be)" d="M 293.977328 170.124131 
L 299.264449 170.124131 
L 299.264449 162.651976 
L 293.977328 162.651976 
L 293.977328 170.124131 
" style="fill:none;"/>
    <g clip-path="url(#p8ac5e2d3be)">
     <use style="stroke:#000000;stroke-width:2;" x="293.977328" xlink:href="#ma6a0522bab" y="170.124131"/>
     <use style="stroke:#000000;stroke-width:2;" x="299.264449" xlink:href="#ma6a0522bab" y="170.124131"/>
     <use style="stroke:#000000;stroke-width:2;" x="299.264449" xlink:href="#ma6a0522bab" y="162.651976"/>
     <use style="stroke:#000000;stroke-width:2;" x="293.977328" xlink:href="#ma6a0522bab" y="162.651976"/>
     <use style="stroke:#000000;stroke-width:2;" x="293.977328" xlink:href="#ma6a0522bab" y="170.124131"/>
    </g>
   </g>
   <g id="line2d_53">
    <path clip-path="url(#p8ac5e2d3be)" d="M 293.977328 167.662442 
L 299.264449 167.662442 
" style="fill:none;stroke:#000000;stroke-linecap:square;stroke-width:2;"/>
   </g>
   <g id="line2d_54">
    <path clip-path="url(#p8ac5e2d3be)" d="M 370.878934 136.448509 
L 372.729426 132.764789 
L 370.878934 124.592784 
L 376.166055 124.592784 
L 374.315563 132.764789 
L 376.166055 136.448509 
L 370.878934 136.448509 
" style="fill:none;stroke:#000000;stroke-linecap:square;"/>
   </g>
   <g id="line2d_55">
    <path clip-path="url(#p8ac5e2d3be)" d="M 370.878934 136.448509 
L 376.166055 136.448509 
L 376.166055 124.592784 
L 370.878934 124.592784 
L 370.878934 136.448509 
" style="fill:none;"/>
    <g clip-path="url(#p8ac5e2d3be)">
     <use style="stroke:#000000;stroke-width:2;" x="370.878934" xlink:href="#ma6a0522bab" y="136.448509"/>
     <use style="stroke:#000000;stroke-width:2;" x="376.166055" xlink:href="#ma6a0522bab" y="136.448509"/>
     <use style="stroke:#000000;stroke-width:2;" x="376.166055" xlink:href="#ma6a0522bab" y="124.592784"/>
     <use style="stroke:#000000;stroke-width:2;" x="370.878934" xlink:href="#ma6a0522bab" y="124.592784"/>
     <use style="stroke:#000000;stroke-width:2;" x="370.878934" xlink:href="#ma6a0522bab" y="136.448509"/>
    </g>
   </g>
   <g id="line2d_56">
    <path clip-path="url(#p8ac5e2d3be)" d="M 370.878934 132.764789 
L 376.166055 132.764789 
" style="fill:none;stroke:#000000;stroke-linecap:square;stroke-width:2;"/>
   </g>
   <g id="line2d_57">
    <path clip-path="url(#p8ac5e2d3be)" d="M 41.159282 301.884587 
L 86.143838 270.220584 
" style="fill:none;stroke:#000000;stroke-linecap:square;stroke-width:4;"/>
   </g>
   <g id="line2d_58">
    <path clip-path="url(#p8ac5e2d3be)" d="M 86.143838 270.220584 
L 142.817676 256.939775 
" style="fill:none;stroke:#000000;stroke-linecap:square;stroke-width:4;"/>
   </g>
   <g id="line2d_59">
    <path clip-path="url(#p8ac5e2d3be)" d="M 142.817676 256.939775 
L 219.719282 229.329054 
" style="fill:none;stroke:#000000;stroke-linecap:square;stroke-width:4;"/>
   </g>
   <g id="line2d_60">
    <path clip-path="url(#p8ac5e2d3be)" d="M 219.719282 229.329054 
L 296.620888 166.244292 
" style="fill:none;stroke:#000000;stroke-linecap:square;stroke-width:4;"/>
   </g>
   <g id="line2d_61">
    <path clip-path="url(#p8ac5e2d3be)" d="M 296.620888 166.244292 
L 373.522494 126.163431 
" style="fill:none;stroke:#000000;stroke-linecap:square;stroke-width:4;"/>
   </g>
   <g id="line2d_62">
    <path clip-path="url(#p8ac5e2d3be)" d="M 41.159282 301.884587 
L 86.143838 270.220584 
L 142.817676 256.939775 
L 219.719282 229.329054 
L 296.620888 166.244292 
L 373.522494 126.163431 
" style="fill:none;"/>
    <defs>
     <path d="M 0 10 
C 2.652031 10 5.195799 8.946337 7.071068 7.071068 
C 8.946337 5.195799 10 2.652031 10 0 
C 10 -2.652031 8.946337 -5.195799 7.071068 -7.071068 
C 5.195799 -8.946337 2.652031 -10 0 -10 
C -2.652031 -10 -5.195799 -8.946337 -7.071068 -7.071068 
C -8.946337 -5.195799 -10 -2.652031 -10 0 
C -10 2.652031 -8.946337 5.195799 -7.071068 7.071068 
C -5.195799 8.946337 -2.652031 10 0 10 
z
" id="m3108cc92f7" style="stroke:#000000;stroke-width:2;"/>
    </defs>
    <g clip-path="url(#p8ac5e2d3be)">
     <use style="stroke:#000000;stroke-width:2;" x="41.159282" xlink:href="#m3108cc92f7" y="301.884587"/>
     <use style="stroke:#000000;stroke-width:2;" x="86.143838" xlink:href="#m3108cc92f7" y="270.220584"/>
     <use style="stroke:#000000;stroke-width:2;" x="142.817676" xlink:href="#m3108cc92f7" y="256.939775"/>
     <use style="stroke:#000000;stroke-width:2;" x="219.719282" xlink:href="#m3108cc92f7" y="229.329054"/>
     <use style="stroke:#000000;stroke-width:2;" x="296.620888" xlink:href="#m3108cc92f7" y="166.244292"/>
     <use style="stroke:#000000;stroke-width:2;" x="373.522494" xlink:href="#m3108cc92f7" y="126.163431"/>
    </g>
   </g>
   <g id="line2d_63">
    <path clip-path="url(#p8ac5e2d3be)" d="M 37.634535 288.963993 
L 40.101858 273.847865 
L 37.634535 271.883895 
L 44.684029 271.883895 
L 42.216706 273.847865 
L 44.684029 288.963993 
L 37.634535 288.963993 
" style="fill:none;stroke:#0000ff;stroke-linecap:square;"/>
   </g>
   <g id="line2d_64">
    <path clip-path="url(#p8ac5e2d3be)" d="M 37.634535 288.963993 
L 44.684029 288.963993 
L 44.684029 271.883895 
L 37.634535 271.883895 
L 37.634535 288.963993 
" style="fill:none;"/>
    <defs>
     <path d="M 0 1.5 
C 0.397805 1.5 0.77937 1.341951 1.06066 1.06066 
C 1.341951 0.77937 1.5 0.397805 1.5 0 
C 1.5 -0.397805 1.341951 -0.77937 1.06066 -1.06066 
C 0.77937 -1.341951 0.397805 -1.5 0 -1.5 
C -0.397805 -1.5 -0.77937 -1.341951 -1.06066 -1.06066 
C -1.341951 -0.77937 -1.5 -0.397805 -1.5 0 
C -1.5 0.397805 -1.341951 0.77937 -1.06066 1.06066 
C -0.77937 1.341951 -0.397805 1.5 0 1.5 
z
" id="m62bf7ebb39" style="stroke:#0000ff;"/>
    </defs>
    <g clip-path="url(#p8ac5e2d3be)">
     <use style="fill:#0000ff;stroke:#0000ff;" x="37.634535" xlink:href="#m62bf7ebb39" y="288.963993"/>
     <use style="fill:#0000ff;stroke:#0000ff;" x="44.684029" xlink:href="#m62bf7ebb39" y="288.963993"/>
     <use style="fill:#0000ff;stroke:#0000ff;" x="44.684029" xlink:href="#m62bf7ebb39" y="271.883895"/>
     <use style="fill:#0000ff;stroke:#0000ff;" x="37.634535" xlink:href="#m62bf7ebb39" y="271.883895"/>
     <use style="fill:#0000ff;stroke:#0000ff;" x="37.634535" xlink:href="#m62bf7ebb39" y="288.963993"/>
    </g>
   </g>
   <g id="line2d_65">
    <path clip-path="url(#p8ac5e2d3be)" d="M 37.634535 273.847865 
L 44.684029 273.847865 
" style="fill:none;stroke:#0000ff;stroke-linecap:square;stroke-width:2;"/>
   </g>
   <g id="line2d_66">
    <path clip-path="url(#p8ac5e2d3be)" d="M 82.619091 244.839676 
L 85.086414 242.644144 
L 82.619091 234.744044 
L 89.668585 234.744044 
L 87.201262 242.644144 
L 89.668585 244.839676 
L 82.619091 244.839676 
" style="fill:none;stroke:#0000ff;stroke-linecap:square;"/>
   </g>
   <g id="line2d_67">
    <path clip-path="url(#p8ac5e2d3be)" d="M 82.619091 244.839676 
L 89.668585 244.839676 
L 89.668585 234.744044 
L 82.619091 234.744044 
L 82.619091 244.839676 
" style="fill:none;"/>
    <g clip-path="url(#p8ac5e2d3be)">
     <use style="fill:#0000ff;stroke:#0000ff;" x="82.619091" xlink:href="#m62bf7ebb39" y="244.839676"/>
     <use style="fill:#0000ff;stroke:#0000ff;" x="89.668585" xlink:href="#m62bf7ebb39" y="244.839676"/>
     <use style="fill:#0000ff;stroke:#0000ff;" x="89.668585" xlink:href="#m62bf7ebb39" y="234.744044"/>
     <use style="fill:#0000ff;stroke:#0000ff;" x="82.619091" xlink:href="#m62bf7ebb39" y="234.744044"/>
     <use style="fill:#0000ff;stroke:#0000ff;" x="82.619091" xlink:href="#m62bf7ebb39" y="244.839676"/>
    </g>
   </g>
   <g id="line2d_68">
    <path clip-path="url(#p8ac5e2d3be)" d="M 82.619091 242.644144 
L 89.668585 242.644144 
" style="fill:none;stroke:#0000ff;stroke-linecap:square;stroke-width:2;"/>
   </g>
   <g id="line2d_69">
    <path clip-path="url(#p8ac5e2d3be)" d="M 139.292929 225.440189 
L 141.760252 207.969189 
L 139.292929 202.176474 
L 146.342423 202.176474 
L 143.8751 207.969189 
L 146.342423 225.440189 
L 139.292929 225.440189 
" style="fill:none;stroke:#0000ff;stroke-linecap:square;"/>
   </g>
   <g id="line2d_70">
    <path clip-path="url(#p8ac5e2d3be)" d="M 139.292929 225.440189 
L 146.342423 225.440189 
L 146.342423 202.176474 
L 139.292929 202.176474 
L 139.292929 225.440189 
" style="fill:none;"/>
    <g clip-path="url(#p8ac5e2d3be)">
     <use style="fill:#0000ff;stroke:#0000ff;" x="139.292929" xlink:href="#m62bf7ebb39" y="225.440189"/>
     <use style="fill:#0000ff;stroke:#0000ff;" x="146.342423" xlink:href="#m62bf7ebb39" y="225.440189"/>
     <use style="fill:#0000ff;stroke:#0000ff;" x="146.342423" xlink:href="#m62bf7ebb39" y="202.176474"/>
     <use style="fill:#0000ff;stroke:#0000ff;" x="139.292929" xlink:href="#m62bf7ebb39" y="202.176474"/>
     <use style="fill:#0000ff;stroke:#0000ff;" x="139.292929" xlink:href="#m62bf7ebb39" y="225.440189"/>
    </g>
   </g>
   <g id="line2d_71">
    <path clip-path="url(#p8ac5e2d3be)" d="M 139.292929 207.969189 
L 146.342423 207.969189 
" style="fill:none;stroke:#0000ff;stroke-linecap:square;stroke-width:2;"/>
   </g>
   <g id="line2d_72">
    <path clip-path="url(#p8ac5e2d3be)" d="M 216.194535 182.88038 
L 218.661858 164.341002 
L 216.194535 158.22293 
L 223.244029 158.22293 
L 220.776706 164.341002 
L 223.244029 182.88038 
L 216.194535 182.88038 
" style="fill:none;stroke:#0000ff;stroke-linecap:square;"/>
   </g>
   <g id="line2d_73">
    <path clip-path="url(#p8ac5e2d3be)" d="M 216.194535 182.88038 
L 223.244029 182.88038 
L 223.244029 158.22293 
L 216.194535 158.22293 
L 216.194535 182.88038 
" style="fill:none;"/>
    <g clip-path="url(#p8ac5e2d3be)">
     <use style="fill:#0000ff;stroke:#0000ff;" x="216.194535" xlink:href="#m62bf7ebb39" y="182.88038"/>
     <use style="fill:#0000ff;stroke:#0000ff;" x="223.244029" xlink:href="#m62bf7ebb39" y="182.88038"/>
     <use style="fill:#0000ff;stroke:#0000ff;" x="223.244029" xlink:href="#m62bf7ebb39" y="158.22293"/>
     <use style="fill:#0000ff;stroke:#0000ff;" x="216.194535" xlink:href="#m62bf7ebb39" y="158.22293"/>
     <use style="fill:#0000ff;stroke:#0000ff;" x="216.194535" xlink:href="#m62bf7ebb39" y="182.88038"/>
    </g>
   </g>
   <g id="line2d_74">
    <path clip-path="url(#p8ac5e2d3be)" d="M 216.194535 164.341002 
L 223.244029 164.341002 
" style="fill:none;stroke:#0000ff;stroke-linecap:square;stroke-width:2;"/>
   </g>
   <g id="line2d_75">
    <path clip-path="url(#p8ac5e2d3be)" d="M 293.096141 147.074227 
L 295.563464 132.4885 
L 293.096141 120.524325 
L 300.145636 120.524325 
L 297.678312 132.4885 
L 300.145636 147.074227 
L 293.096141 147.074227 
" style="fill:none;stroke:#0000ff;stroke-linecap:square;"/>
   </g>
   <g id="line2d_76">
    <path clip-path="url(#p8ac5e2d3be)" d="M 293.096141 147.074227 
L 300.145636 147.074227 
L 300.145636 120.524325 
L 293.096141 120.524325 
L 293.096141 147.074227 
" style="fill:none;"/>
    <g clip-path="url(#p8ac5e2d3be)">
     <use style="fill:#0000ff;stroke:#0000ff;" x="293.096141" xlink:href="#m62bf7ebb39" y="147.074227"/>
     <use style="fill:#0000ff;stroke:#0000ff;" x="300.145636" xlink:href="#m62bf7ebb39" y="147.074227"/>
     <use style="fill:#0000ff;stroke:#0000ff;" x="300.145636" xlink:href="#m62bf7ebb39" y="120.524325"/>
     <use style="fill:#0000ff;stroke:#0000ff;" x="293.096141" xlink:href="#m62bf7ebb39" y="120.524325"/>
     <use style="fill:#0000ff;stroke:#0000ff;" x="293.096141" xlink:href="#m62bf7ebb39" y="147.074227"/>
    </g>
   </g>
   <g id="line2d_77">
    <path clip-path="url(#p8ac5e2d3be)" d="M 293.096141 132.4885 
L 300.145636 132.4885 
" style="fill:none;stroke:#0000ff;stroke-linecap:square;stroke-width:2;"/>
   </g>
   <g id="line2d_78">
    <path clip-path="url(#p8ac5e2d3be)" d="M 369.997747 147.330868 
L 372.46507 128.095968 
L 369.997747 119.501739 
L 377.047242 119.501739 
L 374.579919 128.095968 
L 377.047242 147.330868 
L 369.997747 147.330868 
" style="fill:none;stroke:#0000ff;stroke-linecap:square;"/>
   </g>
   <g id="line2d_79">
    <path clip-path="url(#p8ac5e2d3be)" d="M 369.997747 147.330868 
L 377.047242 147.330868 
L 377.047242 119.501739 
L 369.997747 119.501739 
L 369.997747 147.330868 
" style="fill:none;"/>
    <g clip-path="url(#p8ac5e2d3be)">
     <use style="fill:#0000ff;stroke:#0000ff;" x="369.997747" xlink:href="#m62bf7ebb39" y="147.330868"/>
     <use style="fill:#0000ff;stroke:#0000ff;" x="377.047242" xlink:href="#m62bf7ebb39" y="147.330868"/>
     <use style="fill:#0000ff;stroke:#0000ff;" x="377.047242" xlink:href="#m62bf7ebb39" y="119.501739"/>
     <use style="fill:#0000ff;stroke:#0000ff;" x="369.997747" xlink:href="#m62bf7ebb39" y="119.501739"/>
     <use style="fill:#0000ff;stroke:#0000ff;" x="369.997747" xlink:href="#m62bf7ebb39" y="147.330868"/>
    </g>
   </g>
   <g id="line2d_80">
    <path clip-path="url(#p8ac5e2d3be)" d="M 369.997747 128.095968 
L 377.047242 128.095968 
" style="fill:none;stroke:#0000ff;stroke-linecap:square;stroke-width:2;"/>
   </g>
   <g id="line2d_81">
    <path clip-path="url(#p8ac5e2d3be)" d="M 41.159282 268.485334 
L 86.143838 246.717547 
" style="fill:none;stroke:#0000ff;stroke-linecap:square;stroke-width:4;"/>
   </g>
   <g id="line2d_82">
    <path clip-path="url(#p8ac5e2d3be)" d="M 86.143838 246.717547 
L 142.817676 207.531132 
" style="fill:none;stroke:#0000ff;stroke-linecap:square;stroke-width:4;"/>
   </g>
   <g id="line2d_83">
    <path clip-path="url(#p8ac5e2d3be)" d="M 142.817676 207.531132 
L 219.719282 168.423847 
" style="fill:none;stroke:#0000ff;stroke-linecap:square;stroke-width:4;"/>
   </g>
   <g id="line2d_84">
    <path clip-path="url(#p8ac5e2d3be)" d="M 219.719282 168.423847 
L 296.620888 122.310173 
" style="fill:none;stroke:#0000ff;stroke-linecap:square;stroke-width:4;"/>
   </g>
   <g id="line2d_85">
    <path clip-path="url(#p8ac5e2d3be)" d="M 296.620888 122.310173 
L 373.522494 120.727666 
" style="fill:none;stroke:#0000ff;stroke-linecap:square;stroke-width:4;"/>
   </g>
   <g id="line2d_86">
    <path clip-path="url(#p8ac5e2d3be)" d="M 41.159282 268.485334 
L 86.143838 246.717547 
L 142.817676 207.531132 
L 219.719282 168.423847 
L 296.620888 122.310173 
L 373.522494 120.727666 
" style="fill:none;"/>
    <defs>
     <path d="M 0 5 
C 1.326016 5 2.597899 4.473168 3.535534 3.535534 
C 4.473168 2.597899 5 1.326016 5 0 
C 5 -1.326016 4.473168 -2.597899 3.535534 -3.535534 
C 2.597899 -4.473168 1.326016 -5 0 -5 
C -1.326016 -5 -2.597899 -4.473168 -3.535534 -3.535534 
C -4.473168 -2.597899 -5 -1.326016 -5 0 
C -5 1.326016 -4.473168 2.597899 -3.535534 3.535534 
C -2.597899 4.473168 -1.326016 5 0 5 
z
" id="mb73bd125b7" style="stroke:#0000ff;"/>
    </defs>
    <g clip-path="url(#p8ac5e2d3be)">
     <use style="fill:#0000ff;stroke:#0000ff;" x="41.159282" xlink:href="#mb73bd125b7" y="268.485334"/>
     <use style="fill:#0000ff;stroke:#0000ff;" x="86.143838" xlink:href="#mb73bd125b7" y="246.717547"/>
     <use style="fill:#0000ff;stroke:#0000ff;" x="142.817676" xlink:href="#mb73bd125b7" y="207.531132"/>
     <use style="fill:#0000ff;stroke:#0000ff;" x="219.719282" xlink:href="#mb73bd125b7" y="168.423847"/>
     <use style="fill:#0000ff;stroke:#0000ff;" x="296.620888" xlink:href="#mb73bd125b7" y="122.310173"/>
     <use style="fill:#0000ff;stroke:#0000ff;" x="373.522494" xlink:href="#mb73bd125b7" y="120.727666"/>
    </g>
   </g>
   <g id="line2d_87">
    <path clip-path="url(#p8ac5e2d3be)" d="M 36.753348 241.15211 
L 39.837502 234.828967 
L 36.753348 216.229356 
L 45.565216 216.229356 
L 42.481062 234.828967 
L 45.565216 241.15211 
L 36.753348 241.15211 
" style="fill:none;stroke:#00bfbf;stroke-linecap:square;"/>
   </g>
   <g id="line2d_88">
    <path clip-path="url(#p8ac5e2d3be)" d="M 36.753348 241.15211 
L 45.565216 241.15211 
L 45.565216 216.229356 
L 36.753348 216.229356 
L 36.753348 241.15211 
" style="fill:none;"/>
    <defs>
     <path d="M -0 3 
L 3 -3 
L -3 -3 
z
" id="mf7074ce46f" style="stroke:#00bfbf;stroke-linejoin:miter;stroke-width:2;"/>
    </defs>
    <g clip-path="url(#p8ac5e2d3be)">
     <use style="fill:#00bfbf;stroke:#00bfbf;stroke-linejoin:miter;stroke-width:2;" x="36.753348" xlink:href="#mf7074ce46f" y="241.15211"/>
     <use style="fill:#00bfbf;stroke:#00bfbf;stroke-linejoin:miter;stroke-width:2;" x="45.565216" xlink:href="#mf7074ce46f" y="241.15211"/>
     <use style="fill:#00bfbf;stroke:#00bfbf;stroke-linejoin:miter;stroke-width:2;" x="45.565216" xlink:href="#mf7074ce46f" y="216.229356"/>
     <use style="fill:#00bfbf;stroke:#00bfbf;stroke-linejoin:miter;stroke-width:2;" x="36.753348" xlink:href="#mf7074ce46f" y="216.229356"/>
     <use style="fill:#00bfbf;stroke:#00bfbf;stroke-linejoin:miter;stroke-width:2;" x="36.753348" xlink:href="#mf7074ce46f" y="241.15211"/>
    </g>
   </g>
   <g id="line2d_89">
    <path clip-path="url(#p8ac5e2d3be)" d="M 36.753348 234.828967 
L 45.565216 234.828967 
" style="fill:none;stroke:#00bfbf;stroke-linecap:square;stroke-width:2;"/>
   </g>
   <g id="line2d_90">
    <path clip-path="url(#p8ac5e2d3be)" d="M 81.737904 217.731854 
L 84.822058 202.69147 
L 81.737904 191.654063 
L 90.549772 191.654063 
L 87.465618 202.69147 
L 90.549772 217.731854 
L 81.737904 217.731854 
" style="fill:none;stroke:#00bfbf;stroke-linecap:square;"/>
   </g>
   <g id="line2d_91">
    <path clip-path="url(#p8ac5e2d3be)" d="M 81.737904 217.731854 
L 90.549772 217.731854 
L 90.549772 191.654063 
L 81.737904 191.654063 
L 81.737904 217.731854 
" style="fill:none;"/>
    <g clip-path="url(#p8ac5e2d3be)">
     <use style="fill:#00bfbf;stroke:#00bfbf;stroke-linejoin:miter;stroke-width:2;" x="81.737904" xlink:href="#mf7074ce46f" y="217.731854"/>
     <use style="fill:#00bfbf;stroke:#00bfbf;stroke-linejoin:miter;stroke-width:2;" x="90.549772" xlink:href="#mf7074ce46f" y="217.731854"/>
     <use style="fill:#00bfbf;stroke:#00bfbf;stroke-linejoin:miter;stroke-width:2;" x="90.549772" xlink:href="#mf7074ce46f" y="191.654063"/>
     <use style="fill:#00bfbf;stroke:#00bfbf;stroke-linejoin:miter;stroke-width:2;" x="81.737904" xlink:href="#mf7074ce46f" y="191.654063"/>
     <use style="fill:#00bfbf;stroke:#00bfbf;stroke-linejoin:miter;stroke-width:2;" x="81.737904" xlink:href="#mf7074ce46f" y="217.731854"/>
    </g>
   </g>
   <g id="line2d_92">
    <path clip-path="url(#p8ac5e2d3be)" d="M 81.737904 202.69147 
L 90.549772 202.69147 
" style="fill:none;stroke:#00bfbf;stroke-linecap:square;stroke-width:2;"/>
   </g>
   <g id="line2d_93">
    <path clip-path="url(#p8ac5e2d3be)" d="M 138.411742 163.194506 
L 141.495896 161.21522 
L 138.411742 158.454031 
L 147.22361 158.454031 
L 144.139456 161.21522 
L 147.22361 163.194506 
L 138.411742 163.194506 
" style="fill:none;stroke:#00bfbf;stroke-linecap:square;"/>
   </g>
   <g id="line2d_94">
    <path clip-path="url(#p8ac5e2d3be)" d="M 138.411742 163.194506 
L 147.22361 163.194506 
L 147.22361 158.454031 
L 138.411742 158.454031 
L 138.411742 163.194506 
" style="fill:none;"/>
    <g clip-path="url(#p8ac5e2d3be)">
     <use style="fill:#00bfbf;stroke:#00bfbf;stroke-linejoin:miter;stroke-width:2;" x="138.411742" xlink:href="#mf7074ce46f" y="163.194506"/>
     <use style="fill:#00bfbf;stroke:#00bfbf;stroke-linejoin:miter;stroke-width:2;" x="147.22361" xlink:href="#mf7074ce46f" y="163.194506"/>
     <use style="fill:#00bfbf;stroke:#00bfbf;stroke-linejoin:miter;stroke-width:2;" x="147.22361" xlink:href="#mf7074ce46f" y="158.454031"/>
     <use style="fill:#00bfbf;stroke:#00bfbf;stroke-linejoin:miter;stroke-width:2;" x="138.411742" xlink:href="#mf7074ce46f" y="158.454031"/>
     <use style="fill:#00bfbf;stroke:#00bfbf;stroke-linejoin:miter;stroke-width:2;" x="138.411742" xlink:href="#mf7074ce46f" y="163.194506"/>
    </g>
   </g>
   <g id="line2d_95">
    <path clip-path="url(#p8ac5e2d3be)" d="M 138.411742 161.21522 
L 147.22361 161.21522 
" style="fill:none;stroke:#00bfbf;stroke-linecap:square;stroke-width:2;"/>
   </g>
   <g id="line2d_96">
    <path clip-path="url(#p8ac5e2d3be)" d="M 215.313348 146.620275 
L 218.397502 145.604436 
L 215.313348 134.489883 
L 224.125216 134.489883 
L 221.041062 145.604436 
L 224.125216 146.620275 
L 215.313348 146.620275 
" style="fill:none;stroke:#00bfbf;stroke-linecap:square;"/>
   </g>
   <g id="line2d_97">
    <path clip-path="url(#p8ac5e2d3be)" d="M 215.313348 146.620275 
L 224.125216 146.620275 
L 224.125216 134.489883 
L 215.313348 134.489883 
L 215.313348 146.620275 
" style="fill:none;"/>
    <g clip-path="url(#p8ac5e2d3be)">
     <use style="fill:#00bfbf;stroke:#00bfbf;stroke-linejoin:miter;stroke-width:2;" x="215.313348" xlink:href="#mf7074ce46f" y="146.620275"/>
     <use style="fill:#00bfbf;stroke:#00bfbf;stroke-linejoin:miter;stroke-width:2;" x="224.125216" xlink:href="#mf7074ce46f" y="146.620275"/>
     <use style="fill:#00bfbf;stroke:#00bfbf;stroke-linejoin:miter;stroke-width:2;" x="224.125216" xlink:href="#mf7074ce46f" y="134.489883"/>
     <use style="fill:#00bfbf;stroke:#00bfbf;stroke-linejoin:miter;stroke-width:2;" x="215.313348" xlink:href="#mf7074ce46f" y="134.489883"/>
     <use style="fill:#00bfbf;stroke:#00bfbf;stroke-linejoin:miter;stroke-width:2;" x="215.313348" xlink:href="#mf7074ce46f" y="146.620275"/>
    </g>
   </g>
   <g id="line2d_98">
    <path clip-path="url(#p8ac5e2d3be)" d="M 215.313348 145.604436 
L 224.125216 145.604436 
" style="fill:none;stroke:#00bfbf;stroke-linecap:square;stroke-width:2;"/>
   </g>
   <g id="line2d_99">
    <path clip-path="url(#p8ac5e2d3be)" d="M 292.214954 120.673677 
L 295.299108 96.996348 
L 292.214954 91.655312 
L 301.026822 91.655312 
L 297.942668 96.996348 
L 301.026822 120.673677 
L 292.214954 120.673677 
" style="fill:none;stroke:#00bfbf;stroke-linecap:square;"/>
   </g>
   <g id="line2d_100">
    <path clip-path="url(#p8ac5e2d3be)" d="M 292.214954 120.673677 
L 301.026822 120.673677 
L 301.026822 91.655312 
L 292.214954 91.655312 
L 292.214954 120.673677 
" style="fill:none;"/>
    <g clip-path="url(#p8ac5e2d3be)">
     <use style="fill:#00bfbf;stroke:#00bfbf;stroke-linejoin:miter;stroke-width:2;" x="292.214954" xlink:href="#mf7074ce46f" y="120.673677"/>
     <use style="fill:#00bfbf;stroke:#00bfbf;stroke-linejoin:miter;stroke-width:2;" x="301.026822" xlink:href="#mf7074ce46f" y="120.673677"/>
     <use style="fill:#00bfbf;stroke:#00bfbf;stroke-linejoin:miter;stroke-width:2;" x="301.026822" xlink:href="#mf7074ce46f" y="91.655312"/>
     <use style="fill:#00bfbf;stroke:#00bfbf;stroke-linejoin:miter;stroke-width:2;" x="292.214954" xlink:href="#mf7074ce46f" y="91.655312"/>
     <use style="fill:#00bfbf;stroke:#00bfbf;stroke-linejoin:miter;stroke-width:2;" x="292.214954" xlink:href="#mf7074ce46f" y="120.673677"/>
    </g>
   </g>
   <g id="line2d_101">
    <path clip-path="url(#p8ac5e2d3be)" d="M 292.214954 96.996348 
L 301.026822 96.996348 
" style="fill:none;stroke:#00bfbf;stroke-linecap:square;stroke-width:2;"/>
   </g>
   <g id="line2d_102">
    <path clip-path="url(#p8ac5e2d3be)" d="M 369.11656 97.695572 
L 372.200714 95.485032 
L 369.11656 83.943902 
L 377.928429 83.943902 
L 374.844275 95.485032 
L 377.928429 97.695572 
L 369.11656 97.695572 
" style="fill:none;stroke:#00bfbf;stroke-linecap:square;"/>
   </g>
   <g id="line2d_103">
    <path clip-path="url(#p8ac5e2d3be)" d="M 369.11656 97.695572 
L 377.928429 97.695572 
L 377.928429 83.943902 
L 369.11656 83.943902 
L 369.11656 97.695572 
" style="fill:none;"/>
    <g clip-path="url(#p8ac5e2d3be)">
     <use style="fill:#00bfbf;stroke:#00bfbf;stroke-linejoin:miter;stroke-width:2;" x="369.11656" xlink:href="#mf7074ce46f" y="97.695572"/>
     <use style="fill:#00bfbf;stroke:#00bfbf;stroke-linejoin:miter;stroke-width:2;" x="377.928429" xlink:href="#mf7074ce46f" y="97.695572"/>
     <use style="fill:#00bfbf;stroke:#00bfbf;stroke-linejoin:miter;stroke-width:2;" x="377.928429" xlink:href="#mf7074ce46f" y="83.943902"/>
     <use style="fill:#00bfbf;stroke:#00bfbf;stroke-linejoin:miter;stroke-width:2;" x="369.11656" xlink:href="#mf7074ce46f" y="83.943902"/>
     <use style="fill:#00bfbf;stroke:#00bfbf;stroke-linejoin:miter;stroke-width:2;" x="369.11656" xlink:href="#mf7074ce46f" y="97.695572"/>
    </g>
   </g>
   <g id="line2d_104">
    <path clip-path="url(#p8ac5e2d3be)" d="M 369.11656 95.485032 
L 377.928429 95.485032 
" style="fill:none;stroke:#00bfbf;stroke-linecap:square;stroke-width:2;"/>
   </g>
   <g id="line2d_105">
    <path clip-path="url(#p8ac5e2d3be)" d="M 41.159282 207.46042 
L 86.143838 180.960514 
" style="fill:none;stroke:#00bfbf;stroke-linecap:square;stroke-width:4;"/>
   </g>
   <g id="line2d_106">
    <path clip-path="url(#p8ac5e2d3be)" d="M 86.143838 180.960514 
L 142.817676 163.359546 
" style="fill:none;stroke:#00bfbf;stroke-linecap:square;stroke-width:4;"/>
   </g>
   <g id="line2d_107">
    <path clip-path="url(#p8ac5e2d3be)" d="M 142.817676 163.359546 
L 219.719282 144.539697 
" style="fill:none;stroke:#00bfbf;stroke-linecap:square;stroke-width:4;"/>
   </g>
   <g id="line2d_108">
    <path clip-path="url(#p8ac5e2d3be)" d="M 219.719282 144.539697 
L 296.620888 107.960343 
" style="fill:none;stroke:#00bfbf;stroke-linecap:square;stroke-width:4;"/>
   </g>
   <g id="line2d_109">
    <path clip-path="url(#p8ac5e2d3be)" d="M 296.620888 107.960343 
L 373.522494 93.509064 
" style="fill:none;stroke:#00bfbf;stroke-linecap:square;stroke-width:4;"/>
   </g>
   <g id="line2d_110">
    <path clip-path="url(#p8ac5e2d3be)" d="M 41.159282 207.46042 
L 86.143838 180.960514 
L 142.817676 163.359546 
L 219.719282 144.539697 
L 296.620888 107.960343 
L 373.522494 93.509064 
" style="fill:none;"/>
    <defs>
     <path d="M -0 10 
L 10 -10 
L -10 -10 
z
" id="m945751d1e4" style="stroke:#000000;stroke-linejoin:miter;stroke-width:2;"/>
    </defs>
    <g clip-path="url(#p8ac5e2d3be)">
     <use style="fill:#00bfbf;stroke:#000000;stroke-linejoin:miter;stroke-width:2;" x="41.159282" xlink:href="#m945751d1e4" y="207.46042"/>
     <use style="fill:#00bfbf;stroke:#000000;stroke-linejoin:miter;stroke-width:2;" x="86.143838" xlink:href="#m945751d1e4" y="180.960514"/>
     <use style="fill:#00bfbf;stroke:#000000;stroke-linejoin:miter;stroke-width:2;" x="142.817676" xlink:href="#m945751d1e4" y="163.359546"/>
     <use style="fill:#00bfbf;stroke:#000000;stroke-linejoin:miter;stroke-width:2;" x="219.719282" xlink:href="#m945751d1e4" y="144.539697"/>
     <use style="fill:#00bfbf;stroke:#000000;stroke-linejoin:miter;stroke-width:2;" x="296.620888" xlink:href="#m945751d1e4" y="107.960343"/>
     <use style="fill:#00bfbf;stroke:#000000;stroke-linejoin:miter;stroke-width:2;" x="373.522494" xlink:href="#m945751d1e4" y="93.509064"/>
    </g>
   </g>
   <g id="line2d_111">
    <path clip-path="url(#p8ac5e2d3be)" d="M 35.872161 186.04132 
L 39.573146 180.227602 
L 35.872161 173.345764 
L 46.446403 173.345764 
L 42.745418 180.227602 
L 46.446403 186.04132 
L 35.872161 186.04132 
" style="fill:none;stroke:#008000;stroke-linecap:square;"/>
   </g>
   <g id="line2d_112">
    <path clip-path="url(#p8ac5e2d3be)" d="M 35.872161 186.04132 
L 46.446403 186.04132 
L 46.446403 173.345764 
L 35.872161 173.345764 
L 35.872161 186.04132 
" style="fill:none;"/>
    <defs>
     <path d="M 0 1.5 
C 0.397805 1.5 0.77937 1.341951 1.06066 1.06066 
C 1.341951 0.77937 1.5 0.397805 1.5 0 
C 1.5 -0.397805 1.341951 -0.77937 1.06066 -1.06066 
C 0.77937 -1.341951 0.397805 -1.5 0 -1.5 
C -0.397805 -1.5 -0.77937 -1.341951 -1.06066 -1.06066 
C -1.341951 -0.77937 -1.5 -0.397805 -1.5 0 
C -1.5 0.397805 -1.341951 0.77937 -1.06066 1.06066 
C -0.77937 1.341951 -0.397805 1.5 0 1.5 
z
" id="me49de37e10" style="stroke:#008000;"/>
    </defs>
    <g clip-path="url(#p8ac5e2d3be)">
     <use style="fill:#008000;stroke:#008000;" x="35.872161" xlink:href="#me49de37e10" y="186.04132"/>
     <use style="fill:#008000;stroke:#008000;" x="46.446403" xlink:href="#me49de37e10" y="186.04132"/>
     <use style="fill:#008000;stroke:#008000;" x="46.446403" xlink:href="#me49de37e10" y="173.345764"/>
     <use style="fill:#008000;stroke:#008000;" x="35.872161" xlink:href="#me49de37e10" y="173.345764"/>
     <use style="fill:#008000;stroke:#008000;" x="35.872161" xlink:href="#me49de37e10" y="186.04132"/>
    </g>
   </g>
   <g id="line2d_113">
    <path clip-path="url(#p8ac5e2d3be)" d="M 35.872161 180.227602 
L 46.446403 180.227602 
" style="fill:none;stroke:#008000;stroke-linecap:square;stroke-width:2;"/>
   </g>
   <g id="line2d_114">
    <path clip-path="url(#p8ac5e2d3be)" d="M 80.856717 166.151801 
L 84.557702 154.057282 
L 80.856717 126.216738 
L 91.430959 126.216738 
L 87.729974 154.057282 
L 91.430959 166.151801 
L 80.856717 166.151801 
" style="fill:none;stroke:#008000;stroke-linecap:square;"/>
   </g>
   <g id="line2d_115">
    <path clip-path="url(#p8ac5e2d3be)" d="M 80.856717 166.151801 
L 91.430959 166.151801 
L 91.430959 126.216738 
L 80.856717 126.216738 
L 80.856717 166.151801 
" style="fill:none;"/>
    <g clip-path="url(#p8ac5e2d3be)">
     <use style="fill:#008000;stroke:#008000;" x="80.856717" xlink:href="#me49de37e10" y="166.151801"/>
     <use style="fill:#008000;stroke:#008000;" x="91.430959" xlink:href="#me49de37e10" y="166.151801"/>
     <use style="fill:#008000;stroke:#008000;" x="91.430959" xlink:href="#me49de37e10" y="126.216738"/>
     <use style="fill:#008000;stroke:#008000;" x="80.856717" xlink:href="#me49de37e10" y="126.216738"/>
     <use style="fill:#008000;stroke:#008000;" x="80.856717" xlink:href="#me49de37e10" y="166.151801"/>
    </g>
   </g>
   <g id="line2d_116">
    <path clip-path="url(#p8ac5e2d3be)" d="M 80.856717 154.057282 
L 91.430959 154.057282 
" style="fill:none;stroke:#008000;stroke-linecap:square;stroke-width:2;"/>
   </g>
   <g id="line2d_117">
    <path clip-path="url(#p8ac5e2d3be)" d="M 137.530555 150.140866 
L 141.23154 138.155025 
L 137.530555 126.430528 
L 148.104797 126.430528 
L 144.403812 138.155025 
L 148.104797 150.140866 
L 137.530555 150.140866 
" style="fill:none;stroke:#008000;stroke-linecap:square;"/>
   </g>
   <g id="line2d_118">
    <path clip-path="url(#p8ac5e2d3be)" d="M 137.530555 150.140866 
L 148.104797 150.140866 
L 148.104797 126.430528 
L 137.530555 126.430528 
L 137.530555 150.140866 
" style="fill:none;"/>
    <g clip-path="url(#p8ac5e2d3be)">
     <use style="fill:#008000;stroke:#008000;" x="137.530555" xlink:href="#me49de37e10" y="150.140866"/>
     <use style="fill:#008000;stroke:#008000;" x="148.104797" xlink:href="#me49de37e10" y="150.140866"/>
     <use style="fill:#008000;stroke:#008000;" x="148.104797" xlink:href="#me49de37e10" y="126.430528"/>
     <use style="fill:#008000;stroke:#008000;" x="137.530555" xlink:href="#me49de37e10" y="126.430528"/>
     <use style="fill:#008000;stroke:#008000;" x="137.530555" xlink:href="#me49de37e10" y="150.140866"/>
    </g>
   </g>
   <g id="line2d_119">
    <path clip-path="url(#p8ac5e2d3be)" d="M 137.530555 138.155025 
L 148.104797 138.155025 
" style="fill:none;stroke:#008000;stroke-linecap:square;stroke-width:2;"/>
   </g>
   <g id="line2d_120">
    <path clip-path="url(#p8ac5e2d3be)" d="M 41.159282 169.917878 
L 86.143838 149.002494 
" style="fill:none;stroke:#008000;stroke-linecap:square;stroke-width:4;"/>
   </g>
   <g id="line2d_121">
    <path clip-path="url(#p8ac5e2d3be)" d="M 86.143838 149.002494 
L 142.817676 121.22267 
" style="fill:none;stroke:#008000;stroke-linecap:square;stroke-width:4;"/>
   </g>
   <g id="line2d_122">
    <path clip-path="url(#p8ac5e2d3be)" d="M 41.159282 169.917878 
L 86.143838 149.002494 
L 142.817676 121.22267 
" style="fill:none;"/>
    <defs>
     <path d="M 0 5 
C 1.326016 5 2.597899 4.473168 3.535534 3.535534 
C 4.473168 2.597899 5 1.326016 5 0 
C 5 -1.326016 4.473168 -2.597899 3.535534 -3.535534 
C 2.597899 -4.473168 1.326016 -5 0 -5 
C -1.326016 -5 -2.597899 -4.473168 -3.535534 -3.535534 
C -4.473168 -2.597899 -5 -1.326016 -5 0 
C -5 1.326016 -4.473168 2.597899 -3.535534 3.535534 
C -2.597899 4.473168 -1.326016 5 0 5 
z
" id="ma00e442fb2" style="stroke:#008000;"/>
    </defs>
    <g clip-path="url(#p8ac5e2d3be)">
     <use style="fill:#008000;stroke:#008000;" x="41.159282" xlink:href="#ma00e442fb2" y="169.917878"/>
     <use style="fill:#008000;stroke:#008000;" x="86.143838" xlink:href="#ma00e442fb2" y="149.002494"/>
     <use style="fill:#008000;stroke:#008000;" x="142.817676" xlink:href="#ma00e442fb2" y="121.22267"/>
    </g>
   </g>
   <g id="line2d_123">
    <path clip-path="url(#p8ac5e2d3be)" d="M 34.990974 172.751595 
L 39.30879 166.181752 
L 34.990974 153.519877 
L 47.32759 153.519877 
L 43.009774 166.181752 
L 47.32759 172.751595 
L 34.990974 172.751595 
" style="fill:none;stroke:#bfbf00;stroke-linecap:square;"/>
   </g>
   <g id="line2d_124">
    <path clip-path="url(#p8ac5e2d3be)" d="M 34.990974 172.751595 
L 47.32759 172.751595 
L 47.32759 153.519877 
L 34.990974 153.519877 
L 34.990974 172.751595 
" style="fill:none;"/>
    <defs>
     <path d="M 0 -3 
L -3 3 
L 3 3 
z
" id="m3e4c42eae4" style="stroke:#bfbf00;stroke-linejoin:miter;stroke-width:2;"/>
    </defs>
    <g clip-path="url(#p8ac5e2d3be)">
     <use style="fill:#bfbf00;stroke:#bfbf00;stroke-linejoin:miter;stroke-width:2;" x="34.990974" xlink:href="#m3e4c42eae4" y="172.751595"/>
     <use style="fill:#bfbf00;stroke:#bfbf00;stroke-linejoin:miter;stroke-width:2;" x="47.32759" xlink:href="#m3e4c42eae4" y="172.751595"/>
     <use style="fill:#bfbf00;stroke:#bfbf00;stroke-linejoin:miter;stroke-width:2;" x="47.32759" xlink:href="#m3e4c42eae4" y="153.519877"/>
     <use style="fill:#bfbf00;stroke:#bfbf00;stroke-linejoin:miter;stroke-width:2;" x="34.990974" xlink:href="#m3e4c42eae4" y="153.519877"/>
     <use style="fill:#bfbf00;stroke:#bfbf00;stroke-linejoin:miter;stroke-width:2;" x="34.990974" xlink:href="#m3e4c42eae4" y="172.751595"/>
    </g>
   </g>
   <g id="line2d_125">
    <path clip-path="url(#p8ac5e2d3be)" d="M 34.990974 166.181752 
L 47.32759 166.181752 
" style="fill:none;stroke:#bfbf00;stroke-linecap:square;stroke-width:2;"/>
   </g>
   <g id="line2d_126">
    <path clip-path="url(#p8ac5e2d3be)" d="M 79.97553 156.915833 
L 84.293346 148.343899 
L 79.97553 136.456287 
L 92.312146 136.456287 
L 87.99433 148.343899 
L 92.312146 156.915833 
L 79.97553 156.915833 
" style="fill:none;stroke:#bfbf00;stroke-linecap:square;"/>
   </g>
   <g id="line2d_127">
    <path clip-path="url(#p8ac5e2d3be)" d="M 79.97553 156.915833 
L 92.312146 156.915833 
L 92.312146 136.456287 
L 79.97553 136.456287 
L 79.97553 156.915833 
" style="fill:none;"/>
    <g clip-path="url(#p8ac5e2d3be)">
     <use style="fill:#bfbf00;stroke:#bfbf00;stroke-linejoin:miter;stroke-width:2;" x="79.97553" xlink:href="#m3e4c42eae4" y="156.915833"/>
     <use style="fill:#bfbf00;stroke:#bfbf00;stroke-linejoin:miter;stroke-width:2;" x="92.312146" xlink:href="#m3e4c42eae4" y="156.915833"/>
     <use style="fill:#bfbf00;stroke:#bfbf00;stroke-linejoin:miter;stroke-width:2;" x="92.312146" xlink:href="#m3e4c42eae4" y="136.456287"/>
     <use style="fill:#bfbf00;stroke:#bfbf00;stroke-linejoin:miter;stroke-width:2;" x="79.97553" xlink:href="#m3e4c42eae4" y="136.456287"/>
     <use style="fill:#bfbf00;stroke:#bfbf00;stroke-linejoin:miter;stroke-width:2;" x="79.97553" xlink:href="#m3e4c42eae4" y="156.915833"/>
    </g>
   </g>
   <g id="line2d_128">
    <path clip-path="url(#p8ac5e2d3be)" d="M 79.97553 148.343899 
L 92.312146 148.343899 
" style="fill:none;stroke:#bfbf00;stroke-linecap:square;stroke-width:2;"/>
   </g>
   <g id="line2d_129">
    <path clip-path="url(#p8ac5e2d3be)" d="M 136.649368 124.891417 
L 140.967184 102.372249 
L 136.649368 84.050747 
L 148.985984 84.050747 
L 144.668168 102.372249 
L 148.985984 124.891417 
L 136.649368 124.891417 
" style="fill:none;stroke:#bfbf00;stroke-linecap:square;"/>
   </g>
   <g id="line2d_130">
    <path clip-path="url(#p8ac5e2d3be)" d="M 136.649368 124.891417 
L 148.985984 124.891417 
L 148.985984 84.050747 
L 136.649368 84.050747 
L 136.649368 124.891417 
" style="fill:none;"/>
    <g clip-path="url(#p8ac5e2d3be)">
     <use style="fill:#bfbf00;stroke:#bfbf00;stroke-linejoin:miter;stroke-width:2;" x="136.649368" xlink:href="#m3e4c42eae4" y="124.891417"/>
     <use style="fill:#bfbf00;stroke:#bfbf00;stroke-linejoin:miter;stroke-width:2;" x="148.985984" xlink:href="#m3e4c42eae4" y="124.891417"/>
     <use style="fill:#bfbf00;stroke:#bfbf00;stroke-linejoin:miter;stroke-width:2;" x="148.985984" xlink:href="#m3e4c42eae4" y="84.050747"/>
     <use style="fill:#bfbf00;stroke:#bfbf00;stroke-linejoin:miter;stroke-width:2;" x="136.649368" xlink:href="#m3e4c42eae4" y="84.050747"/>
     <use style="fill:#bfbf00;stroke:#bfbf00;stroke-linejoin:miter;stroke-width:2;" x="136.649368" xlink:href="#m3e4c42eae4" y="124.891417"/>
    </g>
   </g>
   <g id="line2d_131">
    <path clip-path="url(#p8ac5e2d3be)" d="M 136.649368 102.372249 
L 148.985984 102.372249 
" style="fill:none;stroke:#bfbf00;stroke-linecap:square;stroke-width:2;"/>
   </g>
   <g id="line2d_132">
    <path clip-path="url(#p8ac5e2d3be)" d="M 41.159282 152.852598 
L 86.143838 134.414946 
" style="fill:none;stroke:#bfbf00;stroke-linecap:square;stroke-width:4;"/>
   </g>
   <g id="line2d_133">
    <path clip-path="url(#p8ac5e2d3be)" d="M 86.143838 134.414946 
L 142.817676 93.688817 
" style="fill:none;stroke:#bfbf00;stroke-linecap:square;stroke-width:4;"/>
   </g>
   <g id="line2d_134">
    <path clip-path="url(#p8ac5e2d3be)" d="M 41.159282 152.852598 
L 86.143838 134.414946 
L 142.817676 93.688817 
" style="fill:none;"/>
    <defs>
     <path d="M 0 -10 
L -10 10 
L 10 10 
z
" id="m1abe5700ce" style="stroke:#000000;stroke-linejoin:miter;stroke-width:2;"/>
    </defs>
    <g clip-path="url(#p8ac5e2d3be)">
     <use style="fill:#bfbf00;stroke:#000000;stroke-linejoin:miter;stroke-width:2;" x="41.159282" xlink:href="#m1abe5700ce" y="152.852598"/>
     <use style="fill:#bfbf00;stroke:#000000;stroke-linejoin:miter;stroke-width:2;" x="86.143838" xlink:href="#m1abe5700ce" y="134.414946"/>
     <use style="fill:#bfbf00;stroke:#000000;stroke-linejoin:miter;stroke-width:2;" x="142.817676" xlink:href="#m1abe5700ce" y="93.688817"/>
    </g>
   </g>
   <g id="line2d_135">
    <path clip-path="url(#p8ac5e2d3be)" d="M 34.109787 150.546217 
L 39.044434 140.620462 
L 34.109787 119.493025 
L 48.208777 119.493025 
L 43.27413 140.620462 
L 48.208777 150.546217 
L 34.109787 150.546217 
" style="fill:none;stroke:#bf00bf;stroke-linecap:square;"/>
   </g>
   <g id="line2d_136">
    <path clip-path="url(#p8ac5e2d3be)" d="M 34.109787 150.546217 
L 48.208777 150.546217 
L 48.208777 119.493025 
L 34.109787 119.493025 
L 34.109787 150.546217 
" style="fill:none;"/>
    <defs>
     <path d="M 0 1.5 
C 0.397805 1.5 0.77937 1.341951 1.06066 1.06066 
C 1.341951 0.77937 1.5 0.397805 1.5 0 
C 1.5 -0.397805 1.341951 -0.77937 1.06066 -1.06066 
C 0.77937 -1.341951 0.397805 -1.5 0 -1.5 
C -0.397805 -1.5 -0.77937 -1.341951 -1.06066 -1.06066 
C -1.341951 -0.77937 -1.5 -0.397805 -1.5 0 
C -1.5 0.397805 -1.341951 0.77937 -1.06066 1.06066 
C -0.77937 1.341951 -0.397805 1.5 0 1.5 
z
" id="m6dc611e97f" style="stroke:#bf00bf;"/>
    </defs>
    <g clip-path="url(#p8ac5e2d3be)">
     <use style="fill:#bf00bf;stroke:#bf00bf;" x="34.109787" xlink:href="#m6dc611e97f" y="150.546217"/>
     <use style="fill:#bf00bf;stroke:#bf00bf;" x="48.208777" xlink:href="#m6dc611e97f" y="150.546217"/>
     <use style="fill:#bf00bf;stroke:#bf00bf;" x="48.208777" xlink:href="#m6dc611e97f" y="119.493025"/>
     <use style="fill:#bf00bf;stroke:#bf00bf;" x="34.109787" xlink:href="#m6dc611e97f" y="119.493025"/>
     <use style="fill:#bf00bf;stroke:#bf00bf;" x="34.109787" xlink:href="#m6dc611e97f" y="150.546217"/>
    </g>
   </g>
   <g id="line2d_137">
    <path clip-path="url(#p8ac5e2d3be)" d="M 34.109787 140.620462 
L 48.208777 140.620462 
" style="fill:none;stroke:#bf00bf;stroke-linecap:square;stroke-width:2;"/>
   </g>
   <g id="line2d_138">
    <path clip-path="url(#p8ac5e2d3be)" d="M 79.094343 138.433203 
L 84.02899 128.618714 
L 79.094343 118.426943 
L 93.193332 118.426943 
L 88.258686 128.618714 
L 93.193332 138.433203 
L 79.094343 138.433203 
" style="fill:none;stroke:#bf00bf;stroke-linecap:square;"/>
   </g>
   <g id="line2d_139">
    <path clip-path="url(#p8ac5e2d3be)" d="M 79.094343 138.433203 
L 93.193332 138.433203 
L 93.193332 118.426943 
L 79.094343 118.426943 
L 79.094343 138.433203 
" style="fill:none;"/>
    <g clip-path="url(#p8ac5e2d3be)">
     <use style="fill:#bf00bf;stroke:#bf00bf;" x="79.094343" xlink:href="#m6dc611e97f" y="138.433203"/>
     <use style="fill:#bf00bf;stroke:#bf00bf;" x="93.193332" xlink:href="#m6dc611e97f" y="138.433203"/>
     <use style="fill:#bf00bf;stroke:#bf00bf;" x="93.193332" xlink:href="#m6dc611e97f" y="118.426943"/>
     <use style="fill:#bf00bf;stroke:#bf00bf;" x="79.094343" xlink:href="#m6dc611e97f" y="118.426943"/>
     <use style="fill:#bf00bf;stroke:#bf00bf;" x="79.094343" xlink:href="#m6dc611e97f" y="138.433203"/>
    </g>
   </g>
   <g id="line2d_140">
    <path clip-path="url(#p8ac5e2d3be)" d="M 79.094343 128.618714 
L 93.193332 128.618714 
" style="fill:none;stroke:#bf00bf;stroke-linecap:square;stroke-width:2;"/>
   </g>
   <g id="line2d_141">
    <path clip-path="url(#p8ac5e2d3be)" d="M 41.159282 133.251125 
L 86.143838 115.332217 
" style="fill:none;stroke:#bf00bf;stroke-linecap:square;stroke-width:4;"/>
   </g>
   <g id="line2d_142">
    <path clip-path="url(#p8ac5e2d3be)" d="M 41.159282 133.251125 
L 86.143838 115.332217 
" style="fill:none;"/>
    <defs>
     <path d="M 0 5 
C 1.326016 5 2.597899 4.473168 3.535534 3.535534 
C 4.473168 2.597899 5 1.326016 5 0 
C 5 -1.326016 4.473168 -2.597899 3.535534 -3.535534 
C 2.597899 -4.473168 1.326016 -5 0 -5 
C -1.326016 -5 -2.597899 -4.473168 -3.535534 -3.535534 
C -4.473168 -2.597899 -5 -1.326016 -5 0 
C -5 1.326016 -4.473168 2.597899 -3.535534 3.535534 
C -2.597899 4.473168 -1.326016 5 0 5 
z
" id="mb9f9ee9f19" style="stroke:#bf00bf;"/>
    </defs>
    <g clip-path="url(#p8ac5e2d3be)">
     <use style="fill:#bf00bf;stroke:#bf00bf;" x="41.159282" xlink:href="#mb9f9ee9f19" y="133.251125"/>
     <use style="fill:#bf00bf;stroke:#bf00bf;" x="86.143838" xlink:href="#mb9f9ee9f19" y="115.332217"/>
    </g>
   </g>
   <g id="line2d_143">
    <path clip-path="url(#p8ac5e2d3be)" d="M 33.228601 133.478339 
L 38.780078 124.600513 
L 33.228601 120.335706 
L 49.089963 120.335706 
L 43.538486 124.600513 
L 49.089963 133.478339 
L 33.228601 133.478339 
" style="fill:none;stroke:#ff0000;stroke-linecap:square;"/>
   </g>
   <g id="line2d_144">
    <path clip-path="url(#p8ac5e2d3be)" d="M 33.228601 133.478339 
L 49.089963 133.478339 
L 49.089963 120.335706 
L 33.228601 120.335706 
L 33.228601 133.478339 
" style="fill:none;"/>
    <defs>
     <path d="M 0 3 
C 0.795609 3 1.55874 2.683901 2.12132 2.12132 
C 2.683901 1.55874 3 0.795609 3 0 
C 3 -0.795609 2.683901 -1.55874 2.12132 -2.12132 
C 1.55874 -2.683901 0.795609 -3 0 -3 
C -0.795609 -3 -1.55874 -2.683901 -2.12132 -2.12132 
C -2.683901 -1.55874 -3 -0.795609 -3 0 
C -3 0.795609 -2.683901 1.55874 -2.12132 2.12132 
C -1.55874 2.683901 -0.795609 3 0 3 
z
" id="md99a16c526" style="stroke:#ff0000;stroke-width:2;"/>
    </defs>
    <g clip-path="url(#p8ac5e2d3be)">
     <use style="fill:#ff0000;stroke:#ff0000;stroke-width:2;" x="33.228601" xlink:href="#md99a16c526" y="133.478339"/>
     <use style="fill:#ff0000;stroke:#ff0000;stroke-width:2;" x="49.089963" xlink:href="#md99a16c526" y="133.478339"/>
     <use style="fill:#ff0000;stroke:#ff0000;stroke-width:2;" x="49.089963" xlink:href="#md99a16c526" y="120.335706"/>
     <use style="fill:#ff0000;stroke:#ff0000;stroke-width:2;" x="33.228601" xlink:href="#md99a16c526" y="120.335706"/>
     <use style="fill:#ff0000;stroke:#ff0000;stroke-width:2;" x="33.228601" xlink:href="#md99a16c526" y="133.478339"/>
    </g>
   </g>
   <g id="line2d_145">
    <path clip-path="url(#p8ac5e2d3be)" d="M 33.228601 124.600513 
L 49.089963 124.600513 
" style="fill:none;stroke:#ff0000;stroke-linecap:square;stroke-width:2;"/>
   </g>
   <g id="line2d_146">
    <path clip-path="url(#p8ac5e2d3be)" d="M 78.213157 134.460184 
L 83.764633 98.915619 
L 78.213157 71.084567 
L 94.074519 71.084567 
L 88.523042 98.915619 
L 94.074519 134.460184 
L 78.213157 134.460184 
" style="fill:none;stroke:#ff0000;stroke-linecap:square;"/>
   </g>
   <g id="line2d_147">
    <path clip-path="url(#p8ac5e2d3be)" d="M 78.213157 134.460184 
L 94.074519 134.460184 
L 94.074519 71.084567 
L 78.213157 71.084567 
L 78.213157 134.460184 
" style="fill:none;"/>
    <g clip-path="url(#p8ac5e2d3be)">
     <use style="fill:#ff0000;stroke:#ff0000;stroke-width:2;" x="78.213157" xlink:href="#md99a16c526" y="134.460184"/>
     <use style="fill:#ff0000;stroke:#ff0000;stroke-width:2;" x="94.074519" xlink:href="#md99a16c526" y="134.460184"/>
     <use style="fill:#ff0000;stroke:#ff0000;stroke-width:2;" x="94.074519" xlink:href="#md99a16c526" y="71.084567"/>
     <use style="fill:#ff0000;stroke:#ff0000;stroke-width:2;" x="78.213157" xlink:href="#md99a16c526" y="71.084567"/>
     <use style="fill:#ff0000;stroke:#ff0000;stroke-width:2;" x="78.213157" xlink:href="#md99a16c526" y="134.460184"/>
    </g>
   </g>
   <g id="line2d_148">
    <path clip-path="url(#p8ac5e2d3be)" d="M 78.213157 98.915619 
L 94.074519 98.915619 
" style="fill:none;stroke:#ff0000;stroke-linecap:square;stroke-width:2;"/>
   </g>
   <g id="line2d_149">
    <path clip-path="url(#p8ac5e2d3be)" d="M 41.159282 116.017654 
L 86.143838 93.82971 
" style="fill:none;stroke:#ff0000;stroke-linecap:square;stroke-width:4;"/>
   </g>
   <g id="line2d_150">
    <path clip-path="url(#p8ac5e2d3be)" d="M 41.159282 116.017654 
L 86.143838 93.82971 
" style="fill:none;"/>
    <defs>
     <path d="M 0 10 
C 2.652031 10 5.195799 8.946337 7.071068 7.071068 
C 8.946337 5.195799 10 2.652031 10 0 
C 10 -2.652031 8.946337 -5.195799 7.071068 -7.071068 
C 5.195799 -8.946337 2.652031 -10 0 -10 
C -2.652031 -10 -5.195799 -8.946337 -7.071068 -7.071068 
C -8.946337 -5.195799 -10 -2.652031 -10 0 
C -10 2.652031 -8.946337 5.195799 -7.071068 7.071068 
C -5.195799 8.946337 -2.652031 10 0 10 
z
" id="md4fae2360f" style="stroke:#000000;stroke-width:2;"/>
    </defs>
    <g clip-path="url(#p8ac5e2d3be)">
     <use style="fill:#ff0000;stroke:#000000;stroke-width:2;" x="41.159282" xlink:href="#md4fae2360f" y="116.017654"/>
     <use style="fill:#ff0000;stroke:#000000;stroke-width:2;" x="86.143838" xlink:href="#md4fae2360f" y="93.82971"/>
    </g>
   </g>
   <g id="line2d_151"/>
   <g id="line2d_152"/>
   <g id="line2d_153"/>
   <g id="line2d_154"/>
   <g id="line2d_155"/>
   <g id="line2d_156"/>
   <g id="line2d_157"/>
   <g id="line2d_158">
    <defs>
     <path d="M -10 10 
L 10 -10 
M -10 -10 
L 10 10 
" id="mda4ccd243c" style="stroke:#ff0000;"/>
    </defs>
    <g clip-path="url(#p8ac5e2d3be)">
     <use style="fill:#ff0000;stroke:#ff0000;" x="41.159282" xlink:href="#mda4ccd243c" y="143.877092"/>
     <use style="fill:#ff0000;stroke:#ff0000;" x="86.143838" xlink:href="#mda4ccd243c" y="143.878386"/>
     <use style="fill:#ff0000;stroke:#ff0000;" x="142.817676" xlink:href="#mda4ccd243c" y="143.879421"/>
     <use style="fill:#ff0000;stroke:#ff0000;" x="219.719282" xlink:href="#mda4ccd243c" y="143.880198"/>
     <use style="fill:#ff0000;stroke:#ff0000;" x="296.620888" xlink:href="#mda4ccd243c" y="143.880586"/>
     <use style="fill:#ff0000;stroke:#ff0000;" x="373.522494" xlink:href="#mda4ccd243c" y="143.88078"/>
    </g>
   </g>
   <g id="line2d_159">
    <path clip-path="url(#p8ac5e2d3be)" d="M 16.813366 335.97575 
L 398.29 271.882094 
" style="fill:none;stroke:#000000;stroke-dasharray:0.5,0.825;stroke-dashoffset:0;stroke-width:0.5;"/>
   </g>
   <g id="line2d_160">
    <path clip-path="url(#p8ac5e2d3be)" d="M -1 253.126081 
L 398.29 186.03952 
" style="fill:none;stroke:#000000;stroke-dasharray:0.5,0.825;stroke-dashoffset:0;stroke-width:0.5;"/>
   </g>
   <g id="line2d_161">
    <path clip-path="url(#p8ac5e2d3be)" d="M -1 167.283507 
L 398.29 100.196945 
" style="fill:none;stroke:#000000;stroke-dasharray:0.5,0.825;stroke-dashoffset:0;stroke-width:0.5;"/>
   </g>
   <g id="line2d_162">
    <path clip-path="url(#p8ac5e2d3be)" d="M -1 81.440932 
L 398.29 14.35437 
" style="fill:none;stroke:#000000;stroke-dasharray:0.5,0.825;stroke-dashoffset:0;stroke-width:0.5;"/>
   </g>
   <g id="line2d_163">
    <path clip-path="url(#p8ac5e2d3be)" style="fill:none;stroke:#000000;stroke-dasharray:0.5,0.825;stroke-dashoffset:0;stroke-width:0.5;"/>
   </g>
   <g id="patch_3">
    <path d="M 29.47 297.54825 
L 29.47 31.43625 
" style="fill:none;stroke:#000000;stroke-linecap:square;stroke-linejoin:miter;stroke-width:0.8;"/>
   </g>
   <g id="patch_4">
    <path d="M 386.59 297.54825 
L 386.59 31.43625 
" style="fill:none;stroke:#000000;stroke-linecap:square;stroke-linejoin:miter;stroke-width:0.8;"/>
   </g>
   <g id="patch_5">
    <path d="M 29.47 297.54825 
L 386.59 297.54825 
" style="fill:none;stroke:#000000;stroke-linecap:square;stroke-linejoin:miter;stroke-width:0.8;"/>
   </g>
   <g id="patch_6">
    <path d="M 29.47 31.43625 
L 386.59 31.43625 
" style="fill:none;stroke:#000000;stroke-linecap:square;stroke-linejoin:miter;stroke-width:0.8;"/>
   </g>
   <g id="text_14">
    <!-- 3 -->
    <g transform="translate(34.669532 104.217028)scale(0.204 -0.204)">
     <use xlink:href="#DejaVuSans-33"/>
    </g>
   </g>
   <g id="text_15">
    <!-- 1 -->
    <g transform="translate(79.654088 82.029084)scale(0.204 -0.204)">
     <use xlink:href="#DejaVuSans-31"/>
    </g>
   </g>
   <g id="text_16">
    <!-- 1 -->
    <g transform="translate(136.327926 81.888191)scale(0.204 -0.204)">
     <use xlink:href="#DejaVuSans-31"/>
    </g>
   </g>
   <g id="text_17">
    <!-- 1 -->
    <g transform="translate(367.032744 81.708438)scale(0.204 -0.204)">
     <use xlink:href="#DejaVuSans-31"/>
    </g>
   </g>
   <g id="text_18">
    <!-- 13 -->
    <g transform="translate(206.739782 132.739071)scale(0.204 -0.204)">
     <use xlink:href="#DejaVuSans-31"/>
     <use x="63.623047" xlink:href="#DejaVuSans-33"/>
    </g>
   </g>
   <g id="text_19">
    <!-- 2 -->
    <g transform="translate(290.131138 96.159717)scale(0.204 -0.204)">
     <use xlink:href="#DejaVuSans-32"/>
    </g>
   </g>
   <g id="text_20">
    <!-- 15 instances -->
    <defs>
     <path id="DejaVuSans-20"/>
     <path d="M 9.421875 54.6875 
L 18.40625 54.6875 
L 18.40625 0 
L 9.421875 0 
z
M 9.421875 75.984375 
L 18.40625 75.984375 
L 18.40625 64.59375 
L 9.421875 64.59375 
z
" id="DejaVuSans-69"/>
     <path d="M 54.890625 33.015625 
L 54.890625 0 
L 45.90625 0 
L 45.90625 32.71875 
Q 45.90625 40.484375 42.875 44.328125 
Q 39.84375 48.1875 33.796875 48.1875 
Q 26.515625 48.1875 22.3125 43.546875 
Q 18.109375 38.921875 18.109375 30.90625 
L 18.109375 0 
L 9.078125 0 
L 9.078125 54.6875 
L 18.109375 54.6875 
L 18.109375 46.1875 
Q 21.34375 51.125 25.703125 53.5625 
Q 30.078125 56 35.796875 56 
Q 45.21875 56 50.046875 50.171875 
Q 54.890625 44.34375 54.890625 33.015625 
z
" id="DejaVuSans-6e"/>
     <path d="M 44.28125 53.078125 
L 44.28125 44.578125 
Q 40.484375 46.53125 36.375 47.5 
Q 32.28125 48.484375 27.875 48.484375 
Q 21.1875 48.484375 17.84375 46.4375 
Q 14.5 44.390625 14.5 40.28125 
Q 14.5 37.15625 16.890625 35.375 
Q 19.28125 33.59375 26.515625 31.984375 
L 29.59375 31.296875 
Q 39.15625 29.25 43.1875 25.515625 
Q 47.21875 21.78125 47.21875 15.09375 
Q 47.21875 7.46875 41.1875 3.015625 
Q 35.15625 -1.421875 24.609375 -1.421875 
Q 20.21875 -1.421875 15.453125 -0.5625 
Q 10.6875 0.296875 5.421875 2 
L 5.421875 11.28125 
Q 10.40625 8.6875 15.234375 7.390625 
Q 20.0625 6.109375 24.8125 6.109375 
Q 31.15625 6.109375 34.5625 8.28125 
Q 37.984375 10.453125 37.984375 14.40625 
Q 37.984375 18.0625 35.515625 20.015625 
Q 33.0625 21.96875 24.703125 23.78125 
L 21.578125 24.515625 
Q 13.234375 26.265625 9.515625 29.90625 
Q 5.8125 33.546875 5.8125 39.890625 
Q 5.8125 47.609375 11.28125 51.796875 
Q 16.75 56 26.8125 56 
Q 31.78125 56 36.171875 55.265625 
Q 40.578125 54.546875 44.28125 53.078125 
z
" id="DejaVuSans-73"/>
     <path d="M 18.3125 70.21875 
L 18.3125 54.6875 
L 36.8125 54.6875 
L 36.8125 47.703125 
L 18.3125 47.703125 
L 18.3125 18.015625 
Q 18.3125 11.328125 20.140625 9.421875 
Q 21.96875 7.515625 27.59375 7.515625 
L 36.8125 7.515625 
L 36.8125 0 
L 27.59375 0 
Q 17.1875 0 13.234375 3.875 
Q 9.28125 7.765625 9.28125 18.015625 
L 9.28125 47.703125 
L 2.6875 47.703125 
L 2.6875 54.6875 
L 9.28125 54.6875 
L 9.28125 70.21875 
z
" id="DejaVuSans-74"/>
     <path d="M 34.28125 27.484375 
Q 23.390625 27.484375 19.1875 25 
Q 14.984375 22.515625 14.984375 16.5 
Q 14.984375 11.71875 18.140625 8.90625 
Q 21.296875 6.109375 26.703125 6.109375 
Q 34.1875 6.109375 38.703125 11.40625 
Q 43.21875 16.703125 43.21875 25.484375 
L 43.21875 27.484375 
z
M 52.203125 31.203125 
L 52.203125 0 
L 43.21875 0 
L 43.21875 8.296875 
Q 40.140625 3.328125 35.546875 0.953125 
Q 30.953125 -1.421875 24.3125 -1.421875 
Q 15.921875 -1.421875 10.953125 3.296875 
Q 6 8.015625 6 15.921875 
Q 6 25.140625 12.171875 29.828125 
Q 18.359375 34.515625 30.609375 34.515625 
L 43.21875 34.515625 
L 43.21875 35.40625 
Q 43.21875 41.609375 39.140625 45 
Q 35.0625 48.390625 27.6875 48.390625 
Q 23 48.390625 18.546875 47.265625 
Q 14.109375 46.140625 10.015625 43.890625 
L 10.015625 52.203125 
Q 14.9375 54.109375 19.578125 55.046875 
Q 24.21875 56 28.609375 56 
Q 40.484375 56 46.34375 49.84375 
Q 52.203125 43.703125 52.203125 31.203125 
z
" id="DejaVuSans-61"/>
     <path d="M 48.78125 52.59375 
L 48.78125 44.1875 
Q 44.96875 46.296875 41.140625 47.34375 
Q 37.3125 48.390625 33.40625 48.390625 
Q 24.65625 48.390625 19.8125 42.84375 
Q 14.984375 37.3125 14.984375 27.296875 
Q 14.984375 17.28125 19.8125 11.734375 
Q 24.65625 6.203125 33.40625 6.203125 
Q 37.3125 6.203125 41.140625 7.25 
Q 44.96875 8.296875 48.78125 10.40625 
L 48.78125 2.09375 
Q 45.015625 0.34375 40.984375 -0.53125 
Q 36.96875 -1.421875 32.421875 -1.421875 
Q 20.0625 -1.421875 12.78125 6.34375 
Q 5.515625 14.109375 5.515625 27.296875 
Q 5.515625 40.671875 12.859375 48.328125 
Q 20.21875 56 33.015625 56 
Q 37.15625 56 41.109375 55.140625 
Q 45.0625 54.296875 48.78125 52.59375 
z
" id="DejaVuSans-63"/>
     <path d="M 56.203125 29.59375 
L 56.203125 25.203125 
L 14.890625 25.203125 
Q 15.484375 15.921875 20.484375 11.0625 
Q 25.484375 6.203125 34.421875 6.203125 
Q 39.59375 6.203125 44.453125 7.46875 
Q 49.3125 8.734375 54.109375 11.28125 
L 54.109375 2.78125 
Q 49.265625 0.734375 44.1875 -0.34375 
Q 39.109375 -1.421875 33.890625 -1.421875 
Q 20.796875 -1.421875 13.15625 6.1875 
Q 5.515625 13.8125 5.515625 26.8125 
Q 5.515625 40.234375 12.765625 48.109375 
Q 20.015625 56 32.328125 56 
Q 43.359375 56 49.78125 48.890625 
Q 56.203125 41.796875 56.203125 29.59375 
z
M 47.21875 32.234375 
Q 47.125 39.59375 43.09375 43.984375 
Q 39.0625 48.390625 32.421875 48.390625 
Q 24.90625 48.390625 20.390625 44.140625 
Q 15.875 39.890625 15.1875 32.171875 
z
" id="DejaVuSans-65"/>
    </defs>
    <g transform="translate(29.47 278.95975)scale(0.14 -0.14)">
     <use xlink:href="#DejaVuSans-31"/>
     <use x="63.623047" xlink:href="#DejaVuSans-35"/>
     <use x="127.246094" xlink:href="#DejaVuSans-20"/>
     <use x="159.033203" xlink:href="#DejaVuSans-69"/>
     <use x="186.816406" xlink:href="#DejaVuSans-6e"/>
     <use x="250.195312" xlink:href="#DejaVuSans-73"/>
     <use x="302.294922" xlink:href="#DejaVuSans-74"/>
     <use x="341.503906" xlink:href="#DejaVuSans-61"/>
     <use x="402.783203" xlink:href="#DejaVuSans-6e"/>
     <use x="466.162109" xlink:href="#DejaVuSans-63"/>
     <use x="521.142578" xlink:href="#DejaVuSans-65"/>
     <use x="582.666016" xlink:href="#DejaVuSans-73"/>
    </g>
    <!-- absolute targets -->
    <defs>
     <path d="M 48.6875 27.296875 
Q 48.6875 37.203125 44.609375 42.84375 
Q 40.53125 48.484375 33.40625 48.484375 
Q 26.265625 48.484375 22.1875 42.84375 
Q 18.109375 37.203125 18.109375 27.296875 
Q 18.109375 17.390625 22.1875 11.75 
Q 26.265625 6.109375 33.40625 6.109375 
Q 40.53125 6.109375 44.609375 11.75 
Q 48.6875 17.390625 48.6875 27.296875 
z
M 18.109375 46.390625 
Q 20.953125 51.265625 25.265625 53.625 
Q 29.59375 56 35.59375 56 
Q 45.5625 56 51.78125 48.09375 
Q 58.015625 40.1875 58.015625 27.296875 
Q 58.015625 14.40625 51.78125 6.484375 
Q 45.5625 -1.421875 35.59375 -1.421875 
Q 29.59375 -1.421875 25.265625 0.953125 
Q 20.953125 3.328125 18.109375 8.203125 
L 18.109375 0 
L 9.078125 0 
L 9.078125 75.984375 
L 18.109375 75.984375 
z
" id="DejaVuSans-62"/>
     <path d="M 30.609375 48.390625 
Q 23.390625 48.390625 19.1875 42.75 
Q 14.984375 37.109375 14.984375 27.296875 
Q 14.984375 17.484375 19.15625 11.84375 
Q 23.34375 6.203125 30.609375 6.203125 
Q 37.796875 6.203125 41.984375 11.859375 
Q 46.1875 17.53125 46.1875 27.296875 
Q 46.1875 37.015625 41.984375 42.703125 
Q 37.796875 48.390625 30.609375 48.390625 
z
M 30.609375 56 
Q 42.328125 56 49.015625 48.375 
Q 55.71875 40.765625 55.71875 27.296875 
Q 55.71875 13.875 49.015625 6.21875 
Q 42.328125 -1.421875 30.609375 -1.421875 
Q 18.84375 -1.421875 12.171875 6.21875 
Q 5.515625 13.875 5.515625 27.296875 
Q 5.515625 40.765625 12.171875 48.375 
Q 18.84375 56 30.609375 56 
z
" id="DejaVuSans-6f"/>
     <path d="M 9.421875 75.984375 
L 18.40625 75.984375 
L 18.40625 0 
L 9.421875 0 
z
" id="DejaVuSans-6c"/>
     <path d="M 8.5 21.578125 
L 8.5 54.6875 
L 17.484375 54.6875 
L 17.484375 21.921875 
Q 17.484375 14.15625 20.5 10.265625 
Q 23.53125 6.390625 29.59375 6.390625 
Q 36.859375 6.390625 41.078125 11.03125 
Q 45.3125 15.671875 45.3125 23.6875 
L 45.3125 54.6875 
L 54.296875 54.6875 
L 54.296875 0 
L 45.3125 0 
L 45.3125 8.40625 
Q 42.046875 3.421875 37.71875 1 
Q 33.40625 -1.421875 27.6875 -1.421875 
Q 18.265625 -1.421875 13.375 4.4375 
Q 8.5 10.296875 8.5 21.578125 
z
M 31.109375 56 
z
" id="DejaVuSans-75"/>
     <path d="M 41.109375 46.296875 
Q 39.59375 47.171875 37.8125 47.578125 
Q 36.03125 48 33.890625 48 
Q 26.265625 48 22.1875 43.046875 
Q 18.109375 38.09375 18.109375 28.8125 
L 18.109375 0 
L 9.078125 0 
L 9.078125 54.6875 
L 18.109375 54.6875 
L 18.109375 46.1875 
Q 20.953125 51.171875 25.484375 53.578125 
Q 30.03125 56 36.53125 56 
Q 37.453125 56 38.578125 55.875 
Q 39.703125 55.765625 41.0625 55.515625 
z
" id="DejaVuSans-72"/>
     <path d="M 45.40625 27.984375 
Q 45.40625 37.75 41.375 43.109375 
Q 37.359375 48.484375 30.078125 48.484375 
Q 22.859375 48.484375 18.828125 43.109375 
Q 14.796875 37.75 14.796875 27.984375 
Q 14.796875 18.265625 18.828125 12.890625 
Q 22.859375 7.515625 30.078125 7.515625 
Q 37.359375 7.515625 41.375 12.890625 
Q 45.40625 18.265625 45.40625 27.984375 
z
M 54.390625 6.78125 
Q 54.390625 -7.171875 48.1875 -13.984375 
Q 42 -20.796875 29.203125 -20.796875 
Q 24.46875 -20.796875 20.265625 -20.09375 
Q 16.0625 -19.390625 12.109375 -17.921875 
L 12.109375 -9.1875 
Q 16.0625 -11.328125 19.921875 -12.34375 
Q 23.78125 -13.375 27.78125 -13.375 
Q 36.625 -13.375 41.015625 -8.765625 
Q 45.40625 -4.15625 45.40625 5.171875 
L 45.40625 9.625 
Q 42.625 4.78125 38.28125 2.390625 
Q 33.9375 0 27.875 0 
Q 17.828125 0 11.671875 7.65625 
Q 5.515625 15.328125 5.515625 27.984375 
Q 5.515625 40.671875 11.671875 48.328125 
Q 17.828125 56 27.875 56 
Q 33.9375 56 38.28125 53.609375 
Q 42.625 51.21875 45.40625 46.390625 
L 45.40625 54.6875 
L 54.390625 54.6875 
z
" id="DejaVuSans-67"/>
    </defs>
    <g transform="translate(29.47 294.636687)scale(0.14 -0.14)">
     <use xlink:href="#DejaVuSans-61"/>
     <use x="61.279297" xlink:href="#DejaVuSans-62"/>
     <use x="124.755859" xlink:href="#DejaVuSans-73"/>
     <use x="176.855469" xlink:href="#DejaVuSans-6f"/>
     <use x="238.037109" xlink:href="#DejaVuSans-6c"/>
     <use x="265.820312" xlink:href="#DejaVuSans-75"/>
     <use x="329.199219" xlink:href="#DejaVuSans-74"/>
     <use x="368.408203" xlink:href="#DejaVuSans-65"/>
     <use x="429.931641" xlink:href="#DejaVuSans-20"/>
     <use x="461.71875" xlink:href="#DejaVuSans-74"/>
     <use x="500.927734" xlink:href="#DejaVuSans-61"/>
     <use x="562.207031" xlink:href="#DejaVuSans-72"/>
     <use x="603.304688" xlink:href="#DejaVuSans-67"/>
     <use x="666.78125" xlink:href="#DejaVuSans-65"/>
     <use x="728.304688" xlink:href="#DejaVuSans-74"/>
     <use x="767.513672" xlink:href="#DejaVuSans-73"/>
    </g>
   </g>
   <g id="text_21">
    <!-- v2.1 -->
    <defs>
     <path d="M 2.984375 54.6875 
L 12.5 54.6875 
L 29.59375 8.796875 
L 46.6875 54.6875 
L 56.203125 54.6875 
L 35.6875 0 
L 23.484375 0 
z
" id="DejaVuSans-76"/>
     <path d="M 10.6875 12.40625 
L 21 12.40625 
L 21 0 
L 10.6875 0 
z
" id="DejaVuSans-2e"/>
    </defs>
    <g style="fill:#808080;" transform="translate(197.119063 292.807442)scale(0.1 -0.1)">
     <use xlink:href="#DejaVuSans-76"/>
     <use x="59.179688" xlink:href="#DejaVuSans-32"/>
     <use x="122.802734" xlink:href="#DejaVuSans-2e"/>
     <use x="154.589844" xlink:href="#DejaVuSans-31"/>
    </g>
   </g>
   <g id="text_22">
    <!-- 9 Rosenbrock rotated -->
    <defs>
     <path d="M 10.984375 1.515625 
L 10.984375 10.5 
Q 14.703125 8.734375 18.5 7.8125 
Q 22.3125 6.890625 25.984375 6.890625 
Q 35.75 6.890625 40.890625 13.453125 
Q 46.046875 20.015625 46.78125 33.40625 
Q 43.953125 29.203125 39.59375 26.953125 
Q 35.25 24.703125 29.984375 24.703125 
Q 19.046875 24.703125 12.671875 31.3125 
Q 6.296875 37.9375 6.296875 49.421875 
Q 6.296875 60.640625 12.9375 67.421875 
Q 19.578125 74.21875 30.609375 74.21875 
Q 43.265625 74.21875 49.921875 64.515625 
Q 56.59375 54.828125 56.59375 36.375 
Q 56.59375 19.140625 48.40625 8.859375 
Q 40.234375 -1.421875 26.421875 -1.421875 
Q 22.703125 -1.421875 18.890625 -0.6875 
Q 15.09375 0.046875 10.984375 1.515625 
z
M 30.609375 32.421875 
Q 37.25 32.421875 41.125 36.953125 
Q 45.015625 41.5 45.015625 49.421875 
Q 45.015625 57.28125 41.125 61.84375 
Q 37.25 66.40625 30.609375 66.40625 
Q 23.96875 66.40625 20.09375 61.84375 
Q 16.21875 57.28125 16.21875 49.421875 
Q 16.21875 41.5 20.09375 36.953125 
Q 23.96875 32.421875 30.609375 32.421875 
z
" id="DejaVuSans-39"/>
     <path d="M 44.390625 34.1875 
Q 47.5625 33.109375 50.5625 29.59375 
Q 53.5625 26.078125 56.59375 19.921875 
L 66.609375 0 
L 56 0 
L 46.6875 18.703125 
Q 43.0625 26.03125 39.671875 28.421875 
Q 36.28125 30.8125 30.421875 30.8125 
L 19.671875 30.8125 
L 19.671875 0 
L 9.8125 0 
L 9.8125 72.90625 
L 32.078125 72.90625 
Q 44.578125 72.90625 50.734375 67.671875 
Q 56.890625 62.453125 56.890625 51.90625 
Q 56.890625 45.015625 53.6875 40.46875 
Q 50.484375 35.9375 44.390625 34.1875 
z
M 19.671875 64.796875 
L 19.671875 38.921875 
L 32.078125 38.921875 
Q 39.203125 38.921875 42.84375 42.21875 
Q 46.484375 45.515625 46.484375 51.90625 
Q 46.484375 58.296875 42.84375 61.546875 
Q 39.203125 64.796875 32.078125 64.796875 
z
" id="DejaVuSans-52"/>
     <path d="M 9.078125 75.984375 
L 18.109375 75.984375 
L 18.109375 31.109375 
L 44.921875 54.6875 
L 56.390625 54.6875 
L 27.390625 29.109375 
L 57.625 0 
L 45.90625 0 
L 18.109375 26.703125 
L 18.109375 0 
L 9.078125 0 
z
" id="DejaVuSans-6b"/>
     <path d="M 45.40625 46.390625 
L 45.40625 75.984375 
L 54.390625 75.984375 
L 54.390625 0 
L 45.40625 0 
L 45.40625 8.203125 
Q 42.578125 3.328125 38.25 0.953125 
Q 33.9375 -1.421875 27.875 -1.421875 
Q 17.96875 -1.421875 11.734375 6.484375 
Q 5.515625 14.40625 5.515625 27.296875 
Q 5.515625 40.1875 11.734375 48.09375 
Q 17.96875 56 27.875 56 
Q 33.9375 56 38.25 53.625 
Q 42.578125 51.265625 45.40625 46.390625 
z
M 14.796875 27.296875 
Q 14.796875 17.390625 18.875 11.75 
Q 22.953125 6.109375 30.078125 6.109375 
Q 37.203125 6.109375 41.296875 11.75 
Q 45.40625 17.390625 45.40625 27.296875 
Q 45.40625 37.203125 41.296875 42.84375 
Q 37.203125 48.484375 30.078125 48.484375 
Q 22.953125 48.484375 18.875 42.84375 
Q 14.796875 37.203125 14.796875 27.296875 
z
" id="DejaVuSans-64"/>
    </defs>
    <g transform="translate(78.38125 25.43625)scale(0.24 -0.24)">
     <use xlink:href="#DejaVuSans-39"/>
     <use x="63.623047" xlink:href="#DejaVuSans-20"/>
     <use x="95.410156" xlink:href="#DejaVuSans-52"/>
     <use x="164.830078" xlink:href="#DejaVuSans-6f"/>
     <use x="226.011719" xlink:href="#DejaVuSans-73"/>
     <use x="278.111328" xlink:href="#DejaVuSans-65"/>
     <use x="339.634766" xlink:href="#DejaVuSans-6e"/>
     <use x="403.013672" xlink:href="#DejaVuSans-62"/>
     <use x="466.490234" xlink:href="#DejaVuSans-72"/>
     <use x="507.572266" xlink:href="#DejaVuSans-6f"/>
     <use x="568.753906" xlink:href="#DejaVuSans-63"/>
     <use x="623.734375" xlink:href="#DejaVuSans-6b"/>
     <use x="681.644531" xlink:href="#DejaVuSans-20"/>
     <use x="713.431641" xlink:href="#DejaVuSans-72"/>
     <use x="754.513672" xlink:href="#DejaVuSans-6f"/>
     <use x="815.695312" xlink:href="#DejaVuSans-74"/>
     <use x="854.904297" xlink:href="#DejaVuSans-61"/>
     <use x="916.183594" xlink:href="#DejaVuSans-74"/>
     <use x="955.392578" xlink:href="#DejaVuSans-65"/>
     <use x="1016.916016" xlink:href="#DejaVuSans-64"/>
    </g>
   </g>
  </g>
 </g>
 <defs>
  <clipPath id="p8ac5e2d3be">
   <rect height="266.112" width="357.12" x="29.47" y="31.43625"/>
  </clipPath>
 </defs>
</svg>
