<?xml version="1.0" encoding="utf-8" standalone="no"?>
<!DOCTYPE svg PUBLIC "-//W3C//DTD SVG 1.1//EN"
  "http://www.w3.org/Graphics/SVG/1.1/DTD/svg11.dtd">
<!-- Created with matplotlib (http://matplotlib.org/) -->
<svg height="333pt" version="1.1" viewBox="0 0 378 333" width="378pt" xmlns="http://www.w3.org/2000/svg" xmlns:xlink="http://www.w3.org/1999/xlink">
 <defs>
  <style type="text/css">
*{stroke-linecap:butt;stroke-linejoin:round;}
  </style>
 </defs>
 <g id="figure_1">
  <g id="patch_1">
   <path d="M 0 333.7245 
L 378.52 333.7245 
L 378.52 0 
L 0 0 
z
" style="fill:#ffffff;"/>
  </g>
  <g id="axes_1">
   <g id="patch_2">
    <path d="M 10.7 276.812 
L 367.82 276.812 
L 367.82 10.7 
L 10.7 10.7 
z
" style="fill:#ffffff;"/>
   </g>
   <g id="matplotlib.axis_1">
    <g id="xtick_1">
     <g id="line2d_1">
      <path clip-path="url(#p62f8047596)" d="M 10.61381 276.812 
L 10.61381 10.7 
" style="fill:none;stroke:#b0b0b0;stroke-linecap:square;stroke-width:0.8;"/>
     </g>
     <g id="line2d_2">
      <defs>
       <path d="M 0 0 
L 0 3.5 
" id="m24e99aa0cb" style="stroke:#000000;stroke-width:0.8;"/>
      </defs>
      <g>
       <use style="stroke:#000000;stroke-width:0.8;" x="10.61381" xlink:href="#m24e99aa0cb" y="276.812"/>
      </g>
     </g>
    </g>
    <g id="xtick_2">
     <g id="line2d_3">
      <path clip-path="url(#p62f8047596)" d="M 90.394305 276.812 
L 90.394305 10.7 
" style="fill:none;stroke:#b0b0b0;stroke-linecap:square;stroke-width:0.8;"/>
     </g>
     <g id="line2d_4">
      <g>
       <use style="stroke:#000000;stroke-width:0.8;" x="90.394305" xlink:href="#m24e99aa0cb" y="276.812"/>
      </g>
     </g>
     <g id="text_1">
      <!-- -4 -->
      <defs>
       <path d="M 4.890625 31.390625 
L 31.203125 31.390625 
L 31.203125 23.390625 
L 4.890625 23.390625 
z
" id="DejaVuSans-2d"/>
       <path d="M 37.796875 64.3125 
L 12.890625 25.390625 
L 37.796875 25.390625 
z
M 35.203125 72.90625 
L 47.609375 72.90625 
L 47.609375 25.390625 
L 58.015625 25.390625 
L 58.015625 17.1875 
L 47.609375 17.1875 
L 47.609375 0 
L 37.796875 0 
L 37.796875 17.1875 
L 4.890625 17.1875 
L 4.890625 26.703125 
z
" id="DejaVuSans-34"/>
      </defs>
      <g transform="translate(80.423992 299.008875)scale(0.2 -0.2)">
       <use xlink:href="#DejaVuSans-2d"/>
       <use x="36.083984" xlink:href="#DejaVuSans-34"/>
      </g>
     </g>
    </g>
    <g id="xtick_3">
     <g id="line2d_5">
      <path clip-path="url(#p62f8047596)" d="M 170.1748 276.812 
L 170.1748 10.7 
" style="fill:none;stroke:#b0b0b0;stroke-linecap:square;stroke-width:0.8;"/>
     </g>
     <g id="line2d_6">
      <g>
       <use style="stroke:#000000;stroke-width:0.8;" x="170.1748" xlink:href="#m24e99aa0cb" y="276.812"/>
      </g>
     </g>
     <g id="text_2">
      <!-- 0 -->
      <defs>
       <path d="M 31.78125 66.40625 
Q 24.171875 66.40625 20.328125 58.90625 
Q 16.5 51.421875 16.5 36.375 
Q 16.5 21.390625 20.328125 13.890625 
Q 24.171875 6.390625 31.78125 6.390625 
Q 39.453125 6.390625 43.28125 13.890625 
Q 47.125 21.390625 47.125 36.375 
Q 47.125 51.421875 43.28125 58.90625 
Q 39.453125 66.40625 31.78125 66.40625 
z
M 31.78125 74.21875 
Q 44.046875 74.21875 50.515625 64.515625 
Q 56.984375 54.828125 56.984375 36.375 
Q 56.984375 17.96875 50.515625 8.265625 
Q 44.046875 -1.421875 31.78125 -1.421875 
Q 19.53125 -1.421875 13.0625 8.265625 
Q 6.59375 17.96875 6.59375 36.375 
Q 6.59375 54.828125 13.0625 64.515625 
Q 19.53125 74.21875 31.78125 74.21875 
z
" id="DejaVuSans-30"/>
      </defs>
      <g transform="translate(163.8123 299.008875)scale(0.2 -0.2)">
       <use xlink:href="#DejaVuSans-30"/>
      </g>
     </g>
    </g>
    <g id="xtick_4">
     <g id="line2d_7">
      <path clip-path="url(#p62f8047596)" d="M 249.955295 276.812 
L 249.955295 10.7 
" style="fill:none;stroke:#b0b0b0;stroke-linecap:square;stroke-width:0.8;"/>
     </g>
     <g id="line2d_8">
      <g>
       <use style="stroke:#000000;stroke-width:0.8;" x="249.955295" xlink:href="#m24e99aa0cb" y="276.812"/>
      </g>
     </g>
     <g id="text_3">
      <!-- 4 -->
      <g transform="translate(243.592795 299.008875)scale(0.2 -0.2)">
       <use xlink:href="#DejaVuSans-34"/>
      </g>
     </g>
    </g>
    <g id="xtick_5">
     <g id="line2d_9">
      <path clip-path="url(#p62f8047596)" d="M 329.73579 276.812 
L 329.73579 10.7 
" style="fill:none;stroke:#b0b0b0;stroke-linecap:square;stroke-width:0.8;"/>
     </g>
     <g id="line2d_10">
      <g>
       <use style="stroke:#000000;stroke-width:0.8;" x="329.73579" xlink:href="#m24e99aa0cb" y="276.812"/>
      </g>
     </g>
     <g id="text_4">
      <!-- 8 -->
      <defs>
       <path d="M 31.78125 34.625 
Q 24.75 34.625 20.71875 30.859375 
Q 16.703125 27.09375 16.703125 20.515625 
Q 16.703125 13.921875 20.71875 10.15625 
Q 24.75 6.390625 31.78125 6.390625 
Q 38.8125 6.390625 42.859375 10.171875 
Q 46.921875 13.96875 46.921875 20.515625 
Q 46.921875 27.09375 42.890625 30.859375 
Q 38.875 34.625 31.78125 34.625 
z
M 21.921875 38.8125 
Q 15.578125 40.375 12.03125 44.71875 
Q 8.5 49.078125 8.5 55.328125 
Q 8.5 64.0625 14.71875 69.140625 
Q 20.953125 74.21875 31.78125 74.21875 
Q 42.671875 74.21875 48.875 69.140625 
Q 55.078125 64.0625 55.078125 55.328125 
Q 55.078125 49.078125 51.53125 44.71875 
Q 48 40.375 41.703125 38.8125 
Q 48.828125 37.15625 52.796875 32.3125 
Q 56.78125 27.484375 56.78125 20.515625 
Q 56.78125 9.90625 50.3125 4.234375 
Q 43.84375 -1.421875 31.78125 -1.421875 
Q 19.734375 -1.421875 13.25 4.234375 
Q 6.78125 9.90625 6.78125 20.515625 
Q 6.78125 27.484375 10.78125 32.3125 
Q 14.796875 37.15625 21.921875 38.8125 
z
M 18.3125 54.390625 
Q 18.3125 48.734375 21.84375 45.5625 
Q 25.390625 42.390625 31.78125 42.390625 
Q 38.140625 42.390625 41.71875 45.5625 
Q 45.3125 48.734375 45.3125 54.390625 
Q 45.3125 60.0625 41.71875 63.234375 
Q 38.140625 66.40625 31.78125 66.40625 
Q 25.390625 66.40625 21.84375 63.234375 
Q 18.3125 60.0625 18.3125 54.390625 
z
" id="DejaVuSans-38"/>
      </defs>
      <g transform="translate(323.37329 299.008875)scale(0.2 -0.2)">
       <use xlink:href="#DejaVuSans-38"/>
      </g>
     </g>
    </g>
    <g id="text_5">
     <!-- log10 of Df -->
     <defs>
      <path d="M 9.421875 75.984375 
L 18.40625 75.984375 
L 18.40625 0 
L 9.421875 0 
z
" id="DejaVuSans-6c"/>
      <path d="M 30.609375 48.390625 
Q 23.390625 48.390625 19.1875 42.75 
Q 14.984375 37.109375 14.984375 27.296875 
Q 14.984375 17.484375 19.15625 11.84375 
Q 23.34375 6.203125 30.609375 6.203125 
Q 37.796875 6.203125 41.984375 11.859375 
Q 46.1875 17.53125 46.1875 27.296875 
Q 46.1875 37.015625 41.984375 42.703125 
Q 37.796875 48.390625 30.609375 48.390625 
z
M 30.609375 56 
Q 42.328125 56 49.015625 48.375 
Q 55.71875 40.765625 55.71875 27.296875 
Q 55.71875 13.875 49.015625 6.21875 
Q 42.328125 -1.421875 30.609375 -1.421875 
Q 18.84375 -1.421875 12.171875 6.21875 
Q 5.515625 13.875 5.515625 27.296875 
Q 5.515625 40.765625 12.171875 48.375 
Q 18.84375 56 30.609375 56 
z
" id="DejaVuSans-6f"/>
      <path d="M 45.40625 27.984375 
Q 45.40625 37.75 41.375 43.109375 
Q 37.359375 48.484375 30.078125 48.484375 
Q 22.859375 48.484375 18.828125 43.109375 
Q 14.796875 37.75 14.796875 27.984375 
Q 14.796875 18.265625 18.828125 12.890625 
Q 22.859375 7.515625 30.078125 7.515625 
Q 37.359375 7.515625 41.375 12.890625 
Q 45.40625 18.265625 45.40625 27.984375 
z
M 54.390625 6.78125 
Q 54.390625 -7.171875 48.1875 -13.984375 
Q 42 -20.796875 29.203125 -20.796875 
Q 24.46875 -20.796875 20.265625 -20.09375 
Q 16.0625 -19.390625 12.109375 -17.921875 
L 12.109375 -9.1875 
Q 16.0625 -11.328125 19.921875 -12.34375 
Q 23.78125 -13.375 27.78125 -13.375 
Q 36.625 -13.375 41.015625 -8.765625 
Q 45.40625 -4.15625 45.40625 5.171875 
L 45.40625 9.625 
Q 42.625 4.78125 38.28125 2.390625 
Q 33.9375 0 27.875 0 
Q 17.828125 0 11.671875 7.65625 
Q 5.515625 15.328125 5.515625 27.984375 
Q 5.515625 40.671875 11.671875 48.328125 
Q 17.828125 56 27.875 56 
Q 33.9375 56 38.28125 53.609375 
Q 42.625 51.21875 45.40625 46.390625 
L 45.40625 54.6875 
L 54.390625 54.6875 
z
" id="DejaVuSans-67"/>
      <path d="M 12.40625 8.296875 
L 28.515625 8.296875 
L 28.515625 63.921875 
L 10.984375 60.40625 
L 10.984375 69.390625 
L 28.421875 72.90625 
L 38.28125 72.90625 
L 38.28125 8.296875 
L 54.390625 8.296875 
L 54.390625 0 
L 12.40625 0 
z
" id="DejaVuSans-31"/>
      <path id="DejaVuSans-20"/>
      <path d="M 37.109375 75.984375 
L 37.109375 68.5 
L 28.515625 68.5 
Q 23.6875 68.5 21.796875 66.546875 
Q 19.921875 64.59375 19.921875 59.515625 
L 19.921875 54.6875 
L 34.71875 54.6875 
L 34.71875 47.703125 
L 19.921875 47.703125 
L 19.921875 0 
L 10.890625 0 
L 10.890625 47.703125 
L 2.296875 47.703125 
L 2.296875 54.6875 
L 10.890625 54.6875 
L 10.890625 58.5 
Q 10.890625 67.625 15.140625 71.796875 
Q 19.390625 75.984375 28.609375 75.984375 
z
" id="DejaVuSans-66"/>
      <path d="M 19.671875 64.796875 
L 19.671875 8.109375 
L 31.59375 8.109375 
Q 46.6875 8.109375 53.6875 14.9375 
Q 60.6875 21.78125 60.6875 36.53125 
Q 60.6875 51.171875 53.6875 57.984375 
Q 46.6875 64.796875 31.59375 64.796875 
z
M 9.8125 72.90625 
L 30.078125 72.90625 
Q 51.265625 72.90625 61.171875 64.09375 
Q 71.09375 55.28125 71.09375 36.53125 
Q 71.09375 17.671875 61.125 8.828125 
Q 51.171875 0 30.078125 0 
L 9.8125 0 
z
" id="DejaVuSans-44"/>
     </defs>
     <g transform="translate(134.074063 322.365125)scale(0.2 -0.2)">
      <use xlink:href="#DejaVuSans-6c"/>
      <use x="27.783203" xlink:href="#DejaVuSans-6f"/>
      <use x="88.964844" xlink:href="#DejaVuSans-67"/>
      <use x="152.441406" xlink:href="#DejaVuSans-31"/>
      <use x="216.064453" xlink:href="#DejaVuSans-30"/>
      <use x="279.6875" xlink:href="#DejaVuSans-20"/>
      <use x="311.474609" xlink:href="#DejaVuSans-6f"/>
      <use x="372.65625" xlink:href="#DejaVuSans-66"/>
      <use x="407.861328" xlink:href="#DejaVuSans-20"/>
      <use x="439.648438" xlink:href="#DejaVuSans-44"/>
      <use x="516.650391" xlink:href="#DejaVuSans-66"/>
     </g>
    </g>
   </g>
   <g id="matplotlib.axis_2">
    <g id="ytick_1">
     <g id="line2d_11">
      <path clip-path="url(#p62f8047596)" d="M 10.7 276.812 
L 367.82 276.812 
" style="fill:none;stroke:#b0b0b0;stroke-linecap:square;stroke-width:0.8;"/>
     </g>
     <g id="line2d_12">
      <defs>
       <path d="M 0 0 
L -3.5 0 
" id="m5c00e2772d" style="stroke:#000000;stroke-width:0.8;"/>
      </defs>
      <g>
       <use style="stroke:#000000;stroke-width:0.8;" x="10.7" xlink:href="#m5c00e2772d" y="276.812"/>
      </g>
     </g>
    </g>
    <g id="ytick_2">
     <g id="line2d_13">
      <path clip-path="url(#p62f8047596)" d="M 10.7 224.116554 
L 367.82 224.116554 
" style="fill:none;stroke:#b0b0b0;stroke-linecap:square;stroke-width:0.8;"/>
     </g>
     <g id="line2d_14">
      <g>
       <use style="stroke:#000000;stroke-width:0.8;" x="10.7" xlink:href="#m5c00e2772d" y="224.116554"/>
      </g>
     </g>
    </g>
    <g id="ytick_3">
     <g id="line2d_15">
      <path clip-path="url(#p62f8047596)" d="M 10.7 171.421109 
L 367.82 171.421109 
" style="fill:none;stroke:#b0b0b0;stroke-linecap:square;stroke-width:0.8;"/>
     </g>
     <g id="line2d_16">
      <g>
       <use style="stroke:#000000;stroke-width:0.8;" x="10.7" xlink:href="#m5c00e2772d" y="171.421109"/>
      </g>
     </g>
    </g>
    <g id="ytick_4">
     <g id="line2d_17">
      <path clip-path="url(#p62f8047596)" d="M 10.7 118.725663 
L 367.82 118.725663 
" style="fill:none;stroke:#b0b0b0;stroke-linecap:square;stroke-width:0.8;"/>
     </g>
     <g id="line2d_18">
      <g>
       <use style="stroke:#000000;stroke-width:0.8;" x="10.7" xlink:href="#m5c00e2772d" y="118.725663"/>
      </g>
     </g>
    </g>
    <g id="ytick_5">
     <g id="line2d_19">
      <path clip-path="url(#p62f8047596)" d="M 10.7 66.030218 
L 367.82 66.030218 
" style="fill:none;stroke:#b0b0b0;stroke-linecap:square;stroke-width:0.8;"/>
     </g>
     <g id="line2d_20">
      <g>
       <use style="stroke:#000000;stroke-width:0.8;" x="10.7" xlink:href="#m5c00e2772d" y="66.030218"/>
      </g>
     </g>
    </g>
    <g id="ytick_6">
     <g id="line2d_21">
      <path clip-path="url(#p62f8047596)" d="M 10.7 13.334772 
L 367.82 13.334772 
" style="fill:none;stroke:#b0b0b0;stroke-linecap:square;stroke-width:0.8;"/>
     </g>
     <g id="line2d_22">
      <g>
       <use style="stroke:#000000;stroke-width:0.8;" x="10.7" xlink:href="#m5c00e2772d" y="13.334772"/>
      </g>
     </g>
    </g>
   </g>
   <g id="line2d_23">
    <path clip-path="url(#p62f8047596)" d="M -1 243.877347 
L 10.61381 243.877347 
L 10.61381 232.899129 
L 22.576523 232.899129 
L 22.576523 232.167248 
L 48.670597 232.167248 
L 48.670597 231.435366 
L 73.021407 231.435366 
L 73.021407 230.703485 
L 88.609669 230.703485 
L 88.609669 229.971604 
L 89.150345 229.971604 
L 89.150345 229.239723 
L 89.822062 229.239723 
L 89.822062 228.507842 
L 89.959148 228.507842 
L 89.959148 227.77596 
L 90.225085 227.77596 
L 90.225085 227.044079 
L 90.95451 227.044079 
L 90.95451 226.312198 
L 91.440965 226.312198 
L 91.440965 225.580317 
L 91.636731 225.580317 
L 91.636731 224.848436 
L 91.751583 224.848436 
L 91.842691 223.384673 
L 93.050507 223.384673 
L 93.050507 222.652792 
L 93.226114 222.652792 
L 93.226114 221.920911 
L 93.458175 221.920911 
L 93.465373 220.457149 
L 95.179279 220.457149 
L 95.179279 219.725267 
L 105.790208 219.725267 
L 105.790208 218.993386 
L 108.406808 218.993386 
L 108.406808 218.261505 
L 112.766324 218.261505 
L 112.766324 217.529624 
L 114.684128 217.529624 
L 114.684128 216.797743 
L 115.690126 216.797743 
L 115.735344 215.33398 
L 116.283578 215.33398 
L 116.285908 213.870218 
L 121.17772 213.870218 
L 121.17772 213.138337 
L 121.752218 213.138337 
L 121.752218 212.406455 
L 124.207762 212.406455 
L 124.207762 211.674574 
L 131.981998 211.674574 
L 131.981998 210.942693 
L 132.597084 210.942693 
L 132.597084 210.210812 
L 136.274708 210.210812 
L 136.274708 209.478931 
L 140.961882 209.478931 
L 140.961882 208.74705 
L 142.253375 208.74705 
L 142.253375 208.015168 
L 143.500475 208.015168 
L 143.500475 207.283287 
L 145.717002 207.283287 
L 145.717002 206.551406 
L 147.316894 206.551406 
L 147.316894 205.819525 
L 151.711285 205.819525 
L 151.711285 205.087644 
L 152.207861 205.087644 
L 152.207861 204.355762 
L 152.804962 204.355762 
L 152.804962 203.623881 
L 154.729986 203.623881 
L 154.729986 202.892 
L 155.231696 202.892 
L 155.231696 202.160119 
L 155.805939 202.160119 
L 155.805939 201.428238 
L 155.933764 201.428238 
L 155.933764 200.696356 
L 158.179579 200.696356 
L 158.18043 188.986257 
L 161.026002 188.986257 
L 161.026002 188.254376 
L 161.556137 188.254376 
L 161.556137 187.522495 
L 162.978386 187.522495 
L 162.978386 186.790614 
L 163.194873 186.790614 
L 163.194873 186.058733 
L 163.534104 186.058733 
L 163.534104 185.326851 
L 165.030889 185.326851 
L 165.030889 184.59497 
L 165.168217 184.59497 
L 165.263318 183.131208 
L 165.895103 183.131208 
L 165.895103 182.399327 
L 166.318862 182.399327 
L 166.318862 181.667446 
L 166.983905 181.667446 
L 166.983905 178.739921 
L 167.76763 178.739921 
L 167.76763 178.00804 
L 168.427552 178.00804 
L 168.427552 177.276158 
L 169.546164 177.276158 
L 169.546164 176.544277 
L 169.835767 176.544277 
L 169.920829 175.080515 
L 169.955123 175.080515 
L 169.955123 174.348634 
L 170.158889 174.348634 
L 170.158889 173.616752 
L 171.063394 173.616752 
L 171.125842 172.15299 
L 171.571885 172.15299 
L 171.571885 171.421109 
L 172.392698 171.421109 
L 172.466258 169.957347 
L 172.628559 169.957347 
L 172.628559 169.225465 
L 172.814845 169.225465 
L 172.814845 168.493584 
L 173.706926 168.493584 
L 173.746937 167.029822 
L 173.913555 167.029822 
L 173.913555 166.297941 
L 174.04339 166.297941 
L 174.113365 164.834178 
L 174.293806 164.834178 
L 174.293806 164.102297 
L 174.456865 164.102297 
L 174.456865 163.370416 
L 174.590265 163.370416 
L 174.657926 161.906653 
L 174.859618 161.906653 
L 174.859618 161.174772 
L 175.280759 161.174772 
L 175.362631 158.247248 
L 175.403666 158.247248 
L 175.47544 156.783485 
L 175.548858 156.783485 
L 175.577138 155.319723 
L 175.749518 155.319723 
L 175.801992 153.85596 
L 175.978791 153.85596 
L 175.986465 150.928436 
L 176.365943 150.928436 
L 176.447328 148.732792 
L 176.570626 148.732792 
L 176.570626 148.000911 
L 177.277402 148.000911 
L 177.277402 147.26903 
L 177.511504 147.26903 
L 177.511504 146.537149 
L 177.657185 146.537149 
L 177.707408 144.341505 
L 177.822621 144.341505 
L 177.822621 143.609624 
L 178.419946 143.609624 
L 178.419946 142.145861 
L 178.644605 142.145861 
L 178.736711 139.950218 
L 178.844263 139.950218 
L 178.927966 138.486455 
L 179.065949 138.486455 
L 179.065949 137.754574 
L 179.63197 137.754574 
L 179.654289 136.290812 
L 179.746929 136.290812 
L 179.746929 135.558931 
L 180.194521 135.558931 
L 180.194521 134.82705 
L 181.360016 134.82705 
L 181.360016 134.095168 
L 181.933764 134.095168 
L 181.933764 133.363287 
L 182.097784 133.363287 
L 182.160106 131.899525 
L 182.290114 131.899525 
L 182.290114 131.167644 
L 183.322723 131.167644 
L 183.322723 130.435762 
L 183.47002 130.435762 
L 183.47002 129.703881 
L 183.605128 129.703881 
L 183.646249 127.508238 
L 184.075752 127.508238 
L 184.075752 126.776356 
L 184.223854 126.776356 
L 184.223854 125.312594 
L 184.666745 125.312594 
L 184.666745 124.580713 
L 184.797009 124.580713 
L 184.797009 123.848832 
L 184.923683 123.848832 
L 185.011359 121.653188 
L 185.067449 121.653188 
L 185.161678 120.189426 
L 185.315334 120.189426 
L 185.315334 119.457545 
L 185.678315 119.457545 
L 185.679346 117.993782 
L 186.349372 117.993782 
L 186.404574 116.53002 
L 187.044107 116.53002 
L 187.044107 115.798139 
L 187.414686 115.798139 
L 187.414686 115.066257 
L 187.563522 115.066257 
L 187.563522 114.334376 
L 187.678467 114.334376 
L 187.678467 113.602495 
L 187.797026 113.602495 
L 187.874335 112.138733 
L 188.22896 112.138733 
L 188.233011 110.67497 
L 188.395562 110.67497 
L 188.395562 109.943089 
L 188.956087 109.943089 
L 188.956087 107.747446 
L 189.171213 107.747446 
L 189.171213 107.015564 
L 189.428262 107.015564 
L 189.428262 106.283683 
L 189.709016 106.283683 
L 189.788779 104.08804 
L 190.441802 104.08804 
L 190.441802 103.356158 
L 190.925392 103.356158 
L 190.925392 102.624277 
L 191.126783 102.624277 
L 191.126783 101.892396 
L 191.242126 101.892396 
L 191.242126 101.160515 
L 191.450164 101.160515 
L 191.482761 99.696752 
L 191.648786 99.696752 
L 191.754888 98.23299 
L 192.009618 98.23299 
L 192.115351 96.037347 
L 192.295103 96.037347 
L 192.295103 95.305465 
L 192.442001 95.305465 
L 192.442719 93.841703 
L 192.560097 93.841703 
L 192.560097 93.109822 
L 193.204045 93.109822 
L 193.204045 92.377941 
L 193.388963 92.377941 
L 193.492969 90.182297 
L 194.641363 90.182297 
L 194.641363 89.450416 
L 195.170466 89.450416 
L 195.170466 88.718535 
L 196.062029 88.718535 
L 196.062029 87.986653 
L 196.342308 87.986653 
L 196.342308 87.254772 
L 196.862316 87.254772 
L 196.924093 85.059129 
L 197.670952 85.059129 
L 197.685294 83.595366 
L 198.48498 83.595366 
L 198.48498 82.863485 
L 198.679737 82.863485 
L 198.679737 82.131604 
L 199.665198 82.131604 
L 199.665198 81.399723 
L 200.676549 81.399723 
L 200.676549 80.667842 
L 200.829247 80.667842 
L 200.829247 79.93596 
L 201.282092 79.93596 
L 201.282092 79.204079 
L 201.642009 79.204079 
L 201.642009 78.472198 
L 202.506916 78.472198 
L 202.506916 77.740317 
L 202.787329 77.740317 
L 202.787329 77.008436 
L 203.104536 77.008436 
L 203.104536 76.276554 
L 204.06095 76.276554 
L 204.06095 75.544673 
L 204.29146 75.544673 
L 204.356878 74.080911 
L 204.412618 74.080911 
L 204.412618 73.34903 
L 204.998823 73.34903 
L 204.998823 72.617149 
L 205.739605 72.617149 
L 205.76447 71.153386 
L 205.946696 71.153386 
L 205.946696 70.421505 
L 206.28978 70.421505 
L 206.304622 68.957743 
L 206.422017 68.957743 
L 206.457876 66.762099 
L 206.552267 66.762099 
L 206.552267 66.030218 
L 206.680606 66.030218 
L 206.680606 65.298337 
L 207.05456 65.298337 
L 207.05456 64.566455 
L 207.229291 64.566455 
L 207.2952 62.370812 
L 207.413044 62.370812 
L 207.413044 61.638931 
L 207.529314 61.638931 
L 207.529314 60.90705 
L 207.707122 60.90705 
L 207.707122 60.175168 
L 207.869053 60.175168 
L 207.979402 57.979525 
L 208.152549 57.979525 
L 208.152549 57.247644 
L 208.30225 57.247644 
L 208.407229 55.783881 
L 208.510985 55.783881 
L 208.510985 55.052 
L 208.814936 55.052 
L 208.92233 52.856356 
L 208.9966 52.856356 
L 208.9966 52.124475 
L 209.204303 52.124475 
L 209.298973 50.660713 
L 209.645663 50.660713 
L 209.645663 49.928832 
L 209.77126 49.928832 
L 209.77126 49.19695 
L 210.021239 49.19695 
L 210.107416 47.733188 
L 210.232069 47.733188 
L 210.310886 46.269426 
L 210.388985 46.269426 
L 210.388985 45.537545 
L 210.539051 45.537545 
L 210.585545 44.073782 
L 210.788355 44.073782 
L 210.846808 42.61002 
L 211.002877 42.61002 
L 211.079887 40.414376 
L 211.306825 40.414376 
L 211.306825 39.682495 
L 211.528024 39.682495 
L 211.634833 36.75497 
L 211.720312 36.75497 
L 211.829888 34.559327 
L 212.702096 34.559327 
L 212.702096 33.827446 
L 212.992877 33.827446 
L 212.992877 33.095564 
L 213.649262 33.095564 
L 213.649262 32.363683 
L 213.928472 32.363683 
L 213.928472 31.631802 
L 215.255817 31.631802 
L 215.255817 30.899921 
L 215.392735 30.899921 
L 215.392735 30.16804 
L 216.025247 30.16804 
L 216.025277 28.704277 
L 216.529993 28.704277 
L 216.529993 27.972396 
L 216.670304 27.972396 
L 216.670304 27.240515 
L 217.778467 27.240515 
L 217.888588 25.776752 
L 218.560388 25.776752 
L 218.656801 24.31299 
L 218.752168 24.31299 
L 218.752168 23.581109 
L 220.177258 23.581109 
L 220.177258 22.849228 
L 221.853681 22.849228 
L 221.853681 22.117347 
L 223.112334 22.117347 
L 223.112334 21.385465 
L 223.363214 21.385465 
L 223.363214 20.653584 
L 223.766148 20.653584 
L 223.766148 19.921703 
L 224.120099 19.921703 
L 224.188114 18.457941 
L 224.243785 18.457941 
L 224.243785 17.726059 
L 224.766399 17.726059 
L 224.766399 16.994178 
L 225.092712 16.994178 
L 225.092712 16.262297 
L 227.233958 16.262297 
L 227.233958 15.530416 
L 228.847514 15.530416 
L 228.847514 14.798535 
L 232.682837 14.798535 
L 232.682837 14.066653 
L 233.717319 14.066653 
L 233.717319 13.334772 
L 233.717319 13.334772 
L 367.82 13.334772 
L 367.82 13.334772 
" style="fill:none;stroke:#ff0000;stroke-linecap:square;stroke-width:3;"/>
   </g>
   <g id="line2d_24">
    <path clip-path="url(#p62f8047596)" d="M 158.179579 276.812 
L 158.179579 276.080119 
L 158.179579 276.080119 
L 158.179579 276.080119 
L 158.179579 275.348238 
L 158.179579 275.348238 
L 158.179579 275.348238 
L 158.179579 274.616356 
L 158.179579 274.616356 
L 158.179579 274.616356 
L 158.179579 273.884475 
L 158.179579 273.884475 
L 158.179579 273.884475 
L 158.179579 273.152594 
L 158.179579 273.152594 
L 158.179579 273.152594 
L 158.179579 272.420713 
L 158.179579 272.420713 
L 158.179579 272.420713 
L 158.179579 271.688832 
L 158.179579 271.688832 
L 158.179579 271.688832 
L 158.179579 270.95695 
L 158.179579 270.95695 
L 158.179579 270.95695 
L 158.179579 270.225069 
L 158.179579 270.225069 
L 158.179579 270.225069 
L 158.179579 269.493188 
L 158.179579 269.493188 
L 158.179579 269.493188 
L 158.179579 268.761307 
L 158.179579 268.761307 
L 158.179579 268.761307 
L 158.179579 268.029426 
L 158.179579 268.029426 
L 158.179579 268.029426 
L 158.179579 267.297545 
L 158.179579 267.297545 
L 158.179579 267.297545 
L 158.179579 266.565663 
L 158.179579 266.565663 
L 158.179579 266.565663 
L 158.179579 265.833782 
L 185.634022 265.833782 
L 185.634022 265.101901 
L 186.216267 265.101901 
L 186.216267 264.37002 
L 186.379036 264.37002 
L 186.47397 262.906257 
L 187.445597 262.906257 
L 187.539852 261.442495 
L 188.083609 261.442495 
L 188.083609 260.710614 
L 188.720648 260.710614 
L 188.720648 259.978733 
L 188.934033 259.978733 
L 188.934033 259.246851 
L 189.202613 259.246851 
L 189.29056 257.051208 
L 189.748344 257.051208 
L 189.748344 256.319327 
L 189.862568 256.319327 
L 189.862568 255.587446 
L 190.576737 255.587446 
L 190.595798 254.123683 
L 191.143726 254.123683 
L 191.188783 252.659921 
L 191.763783 252.659921 
L 191.860461 250.464277 
L 192.11367 250.464277 
L 192.130667 249.000515 
L 192.227204 249.000515 
L 192.227204 248.268634 
L 192.892989 248.268634 
L 192.892989 247.536752 
L 194.855508 247.536752 
L 194.855508 246.804871 
L 195.4559 246.804871 
L 195.4559 246.07299 
L 196.232237 246.07299 
L 196.274805 244.609228 
L 198.780732 244.609228 
L 198.780732 243.877347 
L 199.183138 243.877347 
L 199.183138 243.145465 
L 199.919702 243.145465 
L 199.99859 241.681703 
L 201.092851 241.681703 
L 201.146439 239.486059 
L 201.401378 239.486059 
L 201.502142 238.022297 
L 201.616307 238.022297 
L 201.616307 237.290416 
L 201.797178 237.290416 
L 201.852921 235.094772 
L 203.000933 235.094772 
L 203.000933 234.362891 
L 203.178392 234.362891 
L 203.271388 232.167248 
L 203.455337 232.167248 
L 203.512492 230.703485 
L 203.569583 230.703485 
L 203.67144 229.239723 
L 203.722599 229.239723 
L 203.783043 226.312198 
L 204.180169 226.312198 
L 204.180169 225.580317 
L 204.293261 225.580317 
L 204.359982 224.116554 
L 204.530274 224.116554 
L 204.612552 222.652792 
L 204.676448 222.652792 
L 204.761657 220.457149 
L 204.860679 220.457149 
L 204.860679 219.725267 
L 205.482179 219.725267 
L 205.515901 218.261505 
L 206.15021 218.261505 
L 206.208656 216.797743 
L 206.32323 216.797743 
L 206.32323 216.065861 
L 206.508111 216.065861 
L 206.528591 214.602099 
L 206.802491 214.602099 
L 206.870037 213.138337 
L 207.138101 213.138337 
L 207.173977 211.674574 
L 207.351938 211.674574 
L 207.450809 209.478931 
L 207.466661 209.478931 
L 207.574466 208.015168 
L 207.623423 208.015168 
L 207.717711 205.819525 
L 207.737963 205.819525 
L 207.84457 203.623881 
L 207.880653 203.623881 
L 207.972926 202.160119 
L 207.992437 202.160119 
L 208.094604 198.500713 
L 208.150929 198.500713 
L 208.152814 197.03695 
L 208.314244 197.03695 
L 208.406958 191.913782 
L 208.44771 191.913782 
L 208.455465 190.45002 
L 208.573569 190.45002 
L 208.573569 189.718139 
L 209.12184 189.718139 
L 209.136451 188.254376 
L 209.843652 188.254376 
L 209.853148 186.790614 
L 210.036654 186.790614 
L 210.036654 186.058733 
L 210.265385 186.058733 
L 210.277669 184.59497 
L 210.426761 184.59497 
L 210.426761 183.863089 
L 210.710032 183.863089 
L 210.710032 183.131208 
L 211.009956 183.131208 
L 211.029851 181.667446 
L 211.802884 181.667446 
L 211.893356 169.225465 
L 212.905832 169.225465 
L 212.905832 168.493584 
L 213.084948 168.493584 
L 213.084948 167.761703 
L 214.372867 167.761703 
L 214.372867 167.029822 
L 217.34324 167.029822 
L 217.34324 166.297941 
L 217.684759 166.297941 
L 217.684759 165.566059 
L 218.220491 165.566059 
L 218.325073 164.102297 
L 218.437241 164.102297 
L 218.437241 163.370416 
L 218.583857 163.370416 
L 218.583857 162.638535 
L 218.933409 162.638535 
L 219.039369 160.442891 
L 219.093068 160.442891 
L 219.116405 158.979129 
L 219.407442 158.979129 
L 219.407442 158.247248 
L 219.604279 158.247248 
L 219.604279 157.515366 
L 219.841823 157.515366 
L 219.841823 156.783485 
L 220.087899 156.783485 
L 220.087899 156.051604 
L 220.261204 156.051604 
L 220.261204 155.319723 
L 221.794672 155.319723 
L 221.896952 150.196554 
L 221.913851 150.196554 
L 221.996858 143.609624 
L 222.332794 143.609624 
L 222.332794 142.877743 
L 223.421069 142.877743 
L 223.421069 142.145861 
L 223.955517 142.145861 
L 223.955517 141.41398 
L 224.312249 141.41398 
L 224.318338 139.950218 
L 224.585391 139.950218 
L 224.683439 136.290812 
L 224.759354 136.290812 
L 224.759354 135.558931 
L 225.087455 135.558931 
L 225.087455 134.82705 
L 225.395612 134.82705 
L 225.48857 132.631406 
L 225.819191 132.631406 
L 225.884753 130.435762 
L 226.047636 130.435762 
L 226.062138 128.972 
L 226.174101 128.972 
L 226.276769 126.044475 
L 226.539025 126.044475 
L 226.643694 123.11695 
L 226.744166 123.11695 
L 226.845384 120.921307 
L 226.893266 120.921307 
L 226.940966 119.457545 
L 227.01747 119.457545 
L 227.088808 117.993782 
L 227.354346 117.993782 
L 227.354346 117.261901 
L 227.565521 117.261901 
L 227.674616 115.066257 
L 227.70406 115.066257 
L 227.796082 112.870614 
L 227.875553 112.870614 
L 227.980918 111.406851 
L 228.062501 111.406851 
L 228.062501 110.67497 
L 228.256394 110.67497 
L 228.360061 109.211208 
L 228.441275 109.211208 
L 228.441275 108.479327 
L 228.638809 108.479327 
L 228.638809 107.747446 
L 228.759709 107.747446 
L 228.759709 107.015564 
L 229.084197 107.015564 
L 229.084197 106.283683 
L 229.615841 106.283683 
L 229.615841 105.551802 
L 229.786533 105.551802 
L 229.815998 104.08804 
L 230.543835 104.08804 
L 230.543835 103.356158 
L 231.097827 103.356158 
L 231.097827 102.624277 
L 234.04617 102.624277 
L 234.04617 101.892396 
L 234.193568 101.892396 
L 234.193568 101.160515 
L 234.320815 101.160515 
L 234.320815 100.428634 
L 234.626921 100.428634 
L 234.626921 99.696752 
L 234.94886 99.696752 
L 234.94886 98.964871 
L 235.193766 98.964871 
L 235.299614 97.501109 
L 235.35386 97.501109 
L 235.35386 96.769228 
L 235.597295 96.769228 
L 235.597295 96.037347 
L 235.747927 96.037347 
L 235.764966 94.573584 
L 235.884352 94.573584 
L 235.884352 93.841703 
L 236.267485 93.841703 
L 236.267485 93.109822 
L 236.683256 93.109822 
L 236.683256 92.377941 
L 237.069751 92.377941 
L 237.069751 91.646059 
L 237.488296 91.646059 
L 237.488296 90.914178 
L 237.601382 90.914178 
L 237.601382 90.182297 
L 238.219599 90.182297 
L 238.219599 89.450416 
L 250.637147 89.450416 
L 250.637147 88.718535 
L 251.510551 88.718535 
L 251.510551 87.986653 
L 252.057754 87.986653 
L 252.164424 85.79101 
L 252.356269 85.79101 
L 252.356269 85.059129 
L 252.494875 85.059129 
L 252.494875 84.327248 
L 252.807879 84.327248 
L 252.807879 83.595366 
L 253.142127 83.595366 
L 253.142127 82.863485 
L 253.268622 82.863485 
L 253.268622 82.131604 
L 253.517459 82.131604 
L 253.517459 81.399723 
L 253.710038 81.399723 
L 253.744164 79.93596 
L 254.104892 79.93596 
L 254.104892 79.204079 
L 254.677708 79.204079 
L 254.677708 78.472198 
L 255.02017 78.472198 
L 255.02017 77.740317 
L 256.534237 77.740317 
L 256.534237 77.008436 
L 257.328707 77.008436 
L 257.328707 76.276554 
L 257.558373 76.276554 
L 257.558373 75.544673 
L 258.7732 75.544673 
L 258.7732 74.812792 
L 259.021855 74.812792 
L 259.021855 74.080911 
L 260.539701 74.080911 
L 260.539701 73.34903 
L 261.674196 73.34903 
L 261.674196 72.617149 
L 262.952467 72.617149 
L 262.952467 71.885267 
L 263.225357 71.885267 
L 263.225357 71.153386 
L 263.503513 71.153386 
L 263.503513 70.421505 
L 263.90864 70.421505 
L 263.997909 68.957743 
L 265.410747 68.957743 
L 265.410747 68.225861 
L 265.651351 68.225861 
L 265.651351 67.49398 
L 266.793981 67.49398 
L 266.793981 66.762099 
L 267.177111 66.762099 
L 267.177111 66.030218 
L 271.365506 66.030218 
L 271.365506 65.298337 
L 276.24253 65.298337 
L 276.24253 64.566455 
L 279.698345 64.566455 
L 279.734904 63.102693 
L 280.860702 63.102693 
L 280.860702 62.370812 
L 281.236514 62.370812 
L 281.236514 61.638931 
L 283.119778 61.638931 
L 283.119778 60.90705 
L 284.424772 60.90705 
L 284.424772 60.175168 
L 284.600356 60.175168 
L 284.600356 59.443287 
L 285.184604 59.443287 
L 285.2387 57.979525 
L 285.586636 57.979525 
L 285.666502 56.515762 
L 286.42118 56.515762 
L 286.42118 55.783881 
L 287.137126 55.783881 
L 287.137126 55.052 
L 289.199859 55.052 
L 289.199859 54.320119 
L 290.104922 54.320119 
L 290.104922 53.588238 
L 291.426166 53.588238 
L 291.426166 52.856356 
L 295.162676 52.856356 
L 295.162676 52.124475 
L 295.685426 52.124475 
L 295.685426 51.392594 
L 295.884834 51.392594 
L 295.915141 49.928832 
L 296.867529 49.928832 
L 296.867529 49.19695 
L 297.433195 49.19695 
L 297.433195 48.465069 
L 298.869038 48.465069 
L 298.869038 47.733188 
L 301.122839 47.733188 
L 301.122839 47.001307 
L 301.783841 47.001307 
L 301.850999 45.537545 
L 302.640521 45.537545 
L 302.640521 44.805663 
L 303.748742 44.805663 
L 303.748742 44.073782 
L 304.262912 44.073782 
L 304.262912 43.341901 
L 305.151459 43.341901 
L 305.151459 42.61002 
L 306.230043 42.61002 
L 306.230043 41.878139 
L 306.759732 41.878139 
L 306.858357 39.682495 
L 307.192823 39.682495 
L 307.28027 38.218733 
L 307.775945 38.218733 
L 307.775945 37.486851 
L 308.017183 37.486851 
L 308.017183 36.75497 
L 308.417337 36.75497 
L 308.417337 36.023089 
L 308.815287 36.023089 
L 308.815287 35.291208 
L 309.394086 35.291208 
L 309.394086 34.559327 
L 309.642084 34.559327 
L 309.642084 33.827446 
L 309.928289 33.827446 
L 309.928289 33.095564 
L 310.15106 33.095564 
L 310.15106 32.363683 
L 310.35112 32.363683 
L 310.35112 31.631802 
L 311.643302 31.631802 
L 311.643302 30.899921 
L 312.130297 30.899921 
L 312.182728 29.436158 
L 313.452117 29.436158 
L 313.452117 28.704277 
L 314.489228 28.704277 
L 314.489228 27.972396 
L 314.879795 27.972396 
L 314.879795 27.240515 
L 315.422882 27.240515 
L 315.422882 26.508634 
L 315.670202 26.508634 
L 315.670202 25.776752 
L 316.737092 25.776752 
L 316.737092 25.044871 
L 316.8713 25.044871 
L 316.8713 24.31299 
L 327.399037 24.31299 
L 327.399037 23.581109 
L 330.208246 23.581109 
L 330.208246 22.849228 
L 330.75552 22.849228 
L 330.75552 22.117347 
L 330.876158 22.117347 
L 330.876158 21.385465 
L 332.468669 21.385465 
L 332.468669 20.653584 
L 332.807809 20.653584 
L 332.807809 19.921703 
L 333.022922 19.921703 
L 333.022922 19.189822 
L 337.582776 19.189822 
L 337.582776 18.457941 
L 338.764018 18.457941 
L 338.764018 17.726059 
L 339.391706 17.726059 
L 339.391706 16.994178 
L 340.196681 16.994178 
L 340.265962 15.530416 
L 340.460618 15.530416 
L 340.460618 14.798535 
L 340.711479 14.798535 
L 340.711479 14.066653 
L 344.684711 14.066653 
L 344.684711 13.334772 
L 344.684711 13.334772 
L 367.82 13.334772 
L 367.82 13.334772 
" style="fill:none;stroke:#00bfbf;stroke-linecap:square;stroke-width:1.5;"/>
   </g>
   <g id="line2d_25">
    <path clip-path="url(#p62f8047596)" d="M 158.179579 276.812 
L 158.179579 276.080119 
L 158.179579 276.080119 
L 158.179579 276.080119 
L 158.179579 275.348238 
L 158.179579 275.348238 
L 158.179579 275.348238 
L 158.179579 274.616356 
L 158.179579 274.616356 
L 158.179579 274.616356 
L 158.179579 273.884475 
L 158.179579 273.884475 
L 158.179579 273.884475 
L 158.179579 273.152594 
L 158.179579 273.152594 
L 158.179579 273.152594 
L 158.179579 272.420713 
L 158.179579 272.420713 
L 158.179579 272.420713 
L 158.179579 271.688832 
L 158.179579 271.688832 
L 158.179579 271.688832 
L 158.179579 270.95695 
L 158.179579 270.95695 
L 158.179579 270.95695 
L 158.179579 270.225069 
L 158.179579 270.225069 
L 158.179579 270.225069 
L 158.179579 269.493188 
L 158.179579 269.493188 
L 158.179579 269.493188 
L 158.179579 268.761307 
L 158.179579 268.761307 
L 158.179579 268.761307 
L 158.179579 268.029426 
L 158.179579 268.029426 
L 158.179579 268.029426 
L 158.179579 267.297545 
L 158.179579 267.297545 
L 158.179579 267.297545 
L 158.179579 266.565663 
L 158.179579 266.565663 
L 158.179579 266.565663 
L 158.179579 265.833782 
L 183.731342 265.833782 
L 183.731342 265.101901 
L 184.782377 265.101901 
L 184.882861 262.906257 
L 185.313796 262.906257 
L 185.313796 262.174376 
L 185.634022 262.174376 
L 185.634022 261.442495 
L 186.165131 261.442495 
L 186.165131 260.710614 
L 186.31327 260.710614 
L 186.379036 259.246851 
L 186.65107 259.246851 
L 186.65107 258.51497 
L 187.810184 258.51497 
L 187.810184 257.783089 
L 188.083609 257.783089 
L 188.083609 257.051208 
L 188.908448 257.051208 
L 188.991293 255.587446 
L 189.230902 255.587446 
L 189.246193 254.123683 
L 189.740214 254.123683 
L 189.832859 252.659921 
L 190.369497 252.659921 
L 190.369497 251.92804 
L 190.563161 251.92804 
L 190.576737 250.464277 
L 190.684723 250.464277 
L 190.684723 249.732396 
L 191.714009 249.732396 
L 191.763783 248.268634 
L 192.130667 248.268634 
L 192.130667 247.536752 
L 193.09789 247.536752 
L 193.09789 246.804871 
L 194.715185 246.804871 
L 194.715185 246.07299 
L 195.076974 246.07299 
L 195.076974 245.341109 
L 195.428502 245.341109 
L 195.428502 244.609228 
L 196.832655 244.609228 
L 196.832655 243.877347 
L 197.406431 243.877347 
L 197.406431 243.145465 
L 198.2763 243.145465 
L 198.352291 241.681703 
L 199.631065 241.681703 
L 199.631065 240.949822 
L 199.747416 240.949822 
L 199.780405 239.486059 
L 200.215911 239.486059 
L 200.215911 238.754178 
L 200.506543 238.754178 
L 200.596708 236.558535 
L 201.146439 236.558535 
L 201.146439 235.826653 
L 201.280755 235.826653 
L 201.323045 234.362891 
L 201.401159 234.362891 
L 201.401159 233.63101 
L 201.791518 233.63101 
L 201.852865 231.435366 
L 202.014294 231.435366 
L 202.114282 229.971604 
L 202.274944 229.971604 
L 202.275166 228.507842 
L 202.576582 228.507842 
L 202.58324 227.044079 
L 202.951613 227.044079 
L 203.000933 225.580317 
L 203.1567 225.580317 
L 203.198651 224.116554 
L 203.348559 224.116554 
L 203.348559 223.384673 
L 203.489914 223.384673 
L 203.569583 221.18903 
L 203.933731 221.18903 
L 203.933731 220.457149 
L 204.05839 220.457149 
L 204.157076 218.993386 
L 204.286076 218.993386 
L 204.286076 218.261505 
L 204.688951 218.261505 
L 204.688951 217.529624 
L 205.065454 217.529624 
L 205.149311 216.065861 
L 205.485012 216.065861 
L 205.485012 215.33398 
L 205.630172 215.33398 
L 205.630172 214.602099 
L 205.747398 214.602099 
L 205.747398 213.870218 
L 206.271215 213.870218 
L 206.355589 211.674574 
L 206.722594 211.674574 
L 206.722594 210.942693 
L 206.961427 210.942693 
L 207.069667 208.74705 
L 207.334242 208.74705 
L 207.34164 207.283287 
L 207.450284 207.283287 
L 207.505041 205.087644 
L 207.578114 205.087644 
L 207.626958 203.623881 
L 207.745055 203.623881 
L 207.840426 200.696356 
L 207.915954 200.696356 
L 207.969199 197.768832 
L 208.150929 197.768832 
L 208.256421 194.841307 
L 208.266572 194.841307 
L 208.377234 189.718139 
L 208.503483 189.718139 
L 208.503483 188.986257 
L 208.872123 188.986257 
L 208.872123 188.254376 
L 208.99621 188.254376 
L 208.99621 187.522495 
L 209.177737 187.522495 
L 209.229229 186.058733 
L 209.476559 186.058733 
L 209.476559 185.326851 
L 209.63866 185.326851 
L 209.63866 184.59497 
L 209.87195 184.59497 
L 209.87195 183.863089 
L 210.443174 183.863089 
L 210.5008 182.399327 
L 210.657647 182.399327 
L 210.657647 181.667446 
L 211.1253 181.667446 
L 211.1253 180.935564 
L 211.63442 180.935564 
L 211.63442 180.203683 
L 211.893356 180.203683 
L 211.893356 169.225465 
L 212.235437 169.225465 
L 212.235437 168.493584 
L 212.503586 168.493584 
L 212.503586 167.761703 
L 214.101104 167.761703 
L 214.15292 166.297941 
L 217.304084 166.297941 
L 217.34324 164.834178 
L 217.454564 164.834178 
L 217.454564 164.102297 
L 217.684759 164.102297 
L 217.684759 163.370416 
L 218.00632 163.370416 
L 218.00632 162.638535 
L 218.181123 162.638535 
L 218.220491 161.174772 
L 218.325073 161.174772 
L 218.406836 159.71101 
L 218.437241 159.71101 
L 218.437241 158.979129 
L 218.583857 158.979129 
L 218.594547 157.515366 
L 218.893641 157.515366 
L 218.973717 156.051604 
L 219.015468 156.051604 
L 219.015468 155.319723 
L 221.126321 155.319723 
L 221.126321 154.587842 
L 221.425557 154.587842 
L 221.425557 153.85596 
L 221.640029 153.85596 
L 221.706962 148.732792 
L 221.753996 148.732792 
L 221.84148 142.877743 
L 222.80381 142.877743 
L 222.80381 142.145861 
L 223.740438 142.145861 
L 223.740438 141.41398 
L 223.914566 141.41398 
L 224.024537 138.486455 
L 224.234132 138.486455 
L 224.344843 135.558931 
L 224.351821 135.558931 
L 224.412673 134.095168 
L 224.852586 134.095168 
L 224.946236 131.899525 
L 225.260886 131.899525 
L 225.309644 130.435762 
L 225.411677 130.435762 
L 225.491742 128.972 
L 225.583377 128.972 
L 225.635947 127.508238 
L 225.713378 127.508238 
L 225.792233 123.11695 
L 226.011033 123.11695 
L 226.080015 120.921307 
L 226.337309 120.921307 
L 226.337309 120.189426 
L 226.613042 120.189426 
L 226.674886 118.725663 
L 226.744166 118.725663 
L 226.85373 116.53002 
L 226.940966 116.53002 
L 227.01747 115.066257 
L 227.072858 115.066257 
L 227.103123 113.602495 
L 227.473301 113.602495 
L 227.583812 111.406851 
L 227.685095 111.406851 
L 227.685095 110.67497 
L 227.814332 110.67497 
L 227.900236 107.747446 
L 228.219224 107.747446 
L 228.256394 106.283683 
L 228.399444 106.283683 
L 228.399444 105.551802 
L 228.553393 105.551802 
L 228.553393 104.819921 
L 228.678954 104.819921 
L 228.678954 104.08804 
L 229.462879 104.08804 
L 229.569193 102.624277 
L 229.621461 102.624277 
L 229.621461 101.892396 
L 233.751026 101.892396 
L 233.763236 100.428634 
L 233.898928 100.428634 
L 233.898928 99.696752 
L 234.626921 99.696752 
L 234.737321 97.501109 
L 234.776416 97.501109 
L 234.776416 96.769228 
L 235.014656 96.769228 
L 235.014656 96.037347 
L 235.30626 96.037347 
L 235.30626 95.305465 
L 235.490066 95.305465 
L 235.542521 93.109822 
L 236.06118 93.109822 
L 236.06118 92.377941 
L 236.372697 92.377941 
L 236.419586 90.914178 
L 237.108181 90.914178 
L 237.125162 89.450416 
L 237.518158 89.450416 
L 237.518158 88.718535 
L 237.704743 88.718535 
L 237.704743 87.986653 
L 243.98923 87.986653 
L 243.98923 87.254772 
L 246.203011 87.254772 
L 246.203011 86.522891 
L 246.934052 86.522891 
L 246.934052 85.79101 
L 247.519691 85.79101 
L 247.519691 85.059129 
L 248.022284 85.059129 
L 248.022284 84.327248 
L 248.888562 84.327248 
L 248.888562 83.595366 
L 250.298482 83.595366 
L 250.298482 82.863485 
L 250.773049 82.863485 
L 250.773049 82.131604 
L 250.885621 82.131604 
L 250.926677 79.93596 
L 251.217706 79.93596 
L 251.217706 79.204079 
L 251.385872 79.204079 
L 251.39571 77.740317 
L 252.04488 77.740317 
L 252.04488 77.008436 
L 252.724007 77.008436 
L 252.724007 76.276554 
L 254.934859 76.276554 
L 254.934859 75.544673 
L 255.275362 75.544673 
L 255.275362 74.812792 
L 255.761327 74.812792 
L 255.761327 74.080911 
L 256.430646 74.080911 
L 256.430646 73.34903 
L 257.425353 73.34903 
L 257.425353 72.617149 
L 259.951456 72.617149 
L 259.951456 71.885267 
L 260.642305 71.885267 
L 260.642305 71.153386 
L 261.871046 71.153386 
L 261.871046 70.421505 
L 262.421708 70.421505 
L 262.421708 69.689624 
L 262.64252 69.689624 
L 262.64252 68.957743 
L 264.330131 68.957743 
L 264.330131 68.225861 
L 265.055228 68.225861 
L 265.055228 67.49398 
L 265.548311 67.49398 
L 265.548311 66.762099 
L 265.754623 66.762099 
L 265.754623 66.030218 
L 266.95504 66.030218 
L 266.95504 65.298337 
L 268.75421 65.298337 
L 268.75421 64.566455 
L 275.398267 64.566455 
L 275.398267 63.834574 
L 278.805766 63.834574 
L 278.805766 63.102693 
L 280.301436 63.102693 
L 280.399805 61.638931 
L 282.544728 61.638931 
L 282.544728 60.90705 
L 283.119778 60.90705 
L 283.119778 60.175168 
L 284.373748 60.175168 
L 284.373748 59.443287 
L 284.600356 59.443287 
L 284.600356 58.711406 
L 285.069146 58.711406 
L 285.072796 57.247644 
L 285.191869 57.247644 
L 285.191869 56.515762 
L 285.345255 56.515762 
L 285.345255 55.783881 
L 285.699446 55.783881 
L 285.699446 55.052 
L 286.940131 55.052 
L 286.940131 54.320119 
L 287.339625 54.320119 
L 287.339625 53.588238 
L 287.531237 53.588238 
L 287.566063 52.124475 
L 289.447314 52.124475 
L 289.451649 50.660713 
L 293.800792 50.660713 
L 293.800792 49.928832 
L 295.459271 49.928832 
L 295.459271 49.19695 
L 296.282425 49.19695 
L 296.282425 48.465069 
L 296.76394 48.465069 
L 296.76394 47.733188 
L 298.86141 47.733188 
L 298.86141 47.001307 
L 299.076626 47.001307 
L 299.076626 46.269426 
L 299.192751 46.269426 
L 299.192751 45.537545 
L 299.92461 45.537545 
L 299.92461 44.805663 
L 300.272801 44.805663 
L 300.272801 44.073782 
L 302.354784 44.073782 
L 302.354784 43.341901 
L 303.461268 43.341901 
L 303.461268 42.61002 
L 304.571927 42.61002 
L 304.658582 40.414376 
L 305.034748 40.414376 
L 305.034748 39.682495 
L 305.79145 39.682495 
L 305.829091 38.218733 
L 305.919432 38.218733 
L 305.919432 37.486851 
L 306.452847 37.486851 
L 306.452847 36.75497 
L 307.459275 36.75497 
L 307.532151 35.291208 
L 307.775945 35.291208 
L 307.775945 34.559327 
L 308.154175 34.559327 
L 308.154175 33.827446 
L 308.303034 33.827446 
L 308.303034 33.095564 
L 308.884897 33.095564 
L 308.884897 32.363683 
L 309.372234 32.363683 
L 309.372234 31.631802 
L 310.362146 31.631802 
L 310.408983 30.16804 
L 310.473637 30.16804 
L 310.473637 29.436158 
L 312.200023 29.436158 
L 312.200023 28.704277 
L 313.1233 28.704277 
L 313.1233 27.972396 
L 314.039661 27.972396 
L 314.039661 27.240515 
L 314.429085 27.240515 
L 314.429085 26.508634 
L 314.604315 26.508634 
L 314.604315 25.776752 
L 314.784444 25.776752 
L 314.784444 25.044871 
L 314.970922 25.044871 
L 314.970922 24.31299 
L 323.659783 24.31299 
L 323.659783 23.581109 
L 329.644729 23.581109 
L 329.644729 22.849228 
L 329.93328 22.849228 
L 329.995344 21.385465 
L 331.115803 21.385465 
L 331.115803 20.653584 
L 331.722128 20.653584 
L 331.722128 19.921703 
L 331.963891 19.921703 
L 331.963891 19.189822 
L 336.81598 19.189822 
L 336.81598 18.457941 
L 337.462691 18.457941 
L 337.462691 17.726059 
L 337.783648 17.726059 
L 337.783648 16.994178 
L 338.169496 16.994178 
L 338.169496 16.262297 
L 339.205843 16.262297 
L 339.210026 14.798535 
L 340.196332 14.798535 
L 340.196332 14.066653 
L 342.989668 14.066653 
L 342.989668 13.334772 
L 342.989668 13.334772 
L 367.82 13.334772 
L 367.82 13.334772 
" style="fill:none;stroke:#bf00bf;stroke-linecap:square;stroke-width:1.5;"/>
   </g>
   <g id="line2d_26">
    <path clip-path="url(#p62f8047596)" d="M 158.179579 276.812 
L 158.179579 276.080119 
L 158.179579 276.080119 
L 158.179579 276.080119 
L 158.179579 275.348238 
L 158.179579 275.348238 
L 158.179579 275.348238 
L 158.179579 274.616356 
L 158.179579 274.616356 
L 158.179579 274.616356 
L 158.179579 273.884475 
L 158.179579 273.884475 
L 158.179579 273.884475 
L 158.179579 273.152594 
L 158.179579 273.152594 
L 158.179579 273.152594 
L 158.179579 272.420713 
L 158.179579 272.420713 
L 158.179579 272.420713 
L 158.179579 271.688832 
L 158.179579 271.688832 
L 158.179579 271.688832 
L 158.179579 270.95695 
L 158.179579 270.95695 
L 158.179579 270.95695 
L 158.179579 270.225069 
L 158.179579 270.225069 
L 158.179579 270.225069 
L 158.179579 269.493188 
L 158.179579 269.493188 
L 158.179579 269.493188 
L 158.179579 268.761307 
L 158.179579 268.761307 
L 158.179579 268.761307 
L 158.179579 268.029426 
L 158.179579 268.029426 
L 158.179579 268.029426 
L 158.179579 267.297545 
L 158.179579 267.297545 
L 158.179579 267.297545 
L 158.179579 266.565663 
L 158.179579 266.565663 
L 158.179579 266.565663 
L 158.179579 265.833782 
L 180.561397 265.833782 
L 180.561397 265.101901 
L 182.598579 265.101901 
L 182.598579 264.37002 
L 183.731342 264.37002 
L 183.731342 263.638139 
L 184.264936 263.638139 
L 184.264936 262.906257 
L 184.619942 262.906257 
L 184.619942 262.174376 
L 184.782377 262.174376 
L 184.852924 260.710614 
L 185.313796 260.710614 
L 185.313796 259.978733 
L 185.634022 259.978733 
L 185.686855 258.51497 
L 186.31327 258.51497 
L 186.379036 257.051208 
L 186.528848 257.051208 
L 186.528848 256.319327 
L 186.923264 256.319327 
L 186.923264 255.587446 
L 187.323619 255.587446 
L 187.323619 254.855564 
L 187.474993 254.855564 
L 187.474993 254.123683 
L 188.676396 254.123683 
L 188.676396 253.391802 
L 188.889283 253.391802 
L 188.889283 252.659921 
L 189.246193 252.659921 
L 189.246193 251.92804 
L 189.818198 251.92804 
L 189.818198 251.196158 
L 190.270749 251.196158 
L 190.270749 250.464277 
L 190.576737 250.464277 
L 190.576737 249.732396 
L 190.983389 249.732396 
L 190.983389 249.000515 
L 191.350315 249.000515 
L 191.350315 248.268634 
L 191.476125 248.268634 
L 191.476125 247.536752 
L 192.236034 247.536752 
L 192.236034 246.804871 
L 192.748798 246.804871 
L 192.837947 245.341109 
L 194.432769 245.341109 
L 194.432769 244.609228 
L 195.156442 244.609228 
L 195.156442 243.877347 
L 196.040187 243.877347 
L 196.107751 242.413584 
L 196.446052 242.413584 
L 196.446052 241.681703 
L 196.827611 241.681703 
L 196.827611 240.949822 
L 197.406431 240.949822 
L 197.406431 240.217941 
L 197.928593 240.217941 
L 197.958196 238.754178 
L 198.193488 238.754178 
L 198.214286 237.290416 
L 198.380084 237.290416 
L 198.380084 236.558535 
L 198.569171 236.558535 
L 198.569171 235.826653 
L 198.881484 235.826653 
L 198.881484 235.094772 
L 199.150877 235.094772 
L 199.150877 234.362891 
L 199.619226 234.362891 
L 199.669226 232.899129 
L 199.754999 232.899129 
L 199.754999 232.167248 
L 200.002483 232.167248 
L 200.002483 231.435366 
L 200.457422 231.435366 
L 200.514399 229.239723 
L 200.576997 229.239723 
L 200.619842 227.77596 
L 200.813741 227.77596 
L 200.813741 227.044079 
L 201.241908 227.044079 
L 201.241908 226.312198 
L 201.715092 226.312198 
L 201.750426 224.848436 
L 201.878946 224.848436 
L 201.878946 224.116554 
L 202.011321 224.116554 
L 202.06233 222.652792 
L 202.266032 222.652792 
L 202.322627 220.457149 
L 202.503015 220.457149 
L 202.588344 218.261505 
L 202.821358 218.261505 
L 202.821358 217.529624 
L 202.944879 217.529624 
L 203.05409 215.33398 
L 203.135341 215.33398 
L 203.135341 214.602099 
L 203.423363 214.602099 
L 203.423363 213.870218 
L 204.372768 213.870218 
L 204.435008 212.406455 
L 204.512387 212.406455 
L 204.512387 211.674574 
L 204.787504 211.674574 
L 204.787504 210.942693 
L 205.188477 210.942693 
L 205.248634 208.74705 
L 206.451104 208.74705 
L 206.451104 208.015168 
L 206.77721 208.015168 
L 206.847654 206.551406 
L 206.959192 206.551406 
L 207.059479 204.355762 
L 207.073443 204.355762 
L 207.156996 202.892 
L 207.228394 202.892 
L 207.293453 197.03695 
L 207.375615 197.03695 
L 207.375615 196.305069 
L 207.496048 196.305069 
L 207.605702 194.109426 
L 207.618572 194.109426 
L 207.63355 191.181901 
L 207.848878 191.181901 
L 207.918188 188.986257 
L 207.964001 188.986257 
L 208.063695 186.058733 
L 208.137368 186.058733 
L 208.234124 184.59497 
L 208.355591 184.59497 
L 208.355591 183.863089 
L 208.825804 183.863089 
L 208.890423 182.399327 
L 208.940644 182.399327 
L 208.940644 181.667446 
L 209.480211 181.667446 
L 209.480211 180.935564 
L 209.734154 180.935564 
L 209.812433 179.471802 
L 210.102067 179.471802 
L 210.102067 178.739921 
L 210.698386 178.739921 
L 210.698386 178.00804 
L 211.139352 178.00804 
L 211.139352 177.276158 
L 211.893356 177.276158 
L 211.893356 166.297941 
L 212.034654 166.297941 
L 212.034654 165.566059 
L 212.815776 165.566059 
L 212.815776 164.834178 
L 214.101104 164.834178 
L 214.101104 164.102297 
L 217.096918 164.102297 
L 217.096918 163.370416 
L 217.265378 163.370416 
L 217.34324 161.174772 
L 217.490521 161.174772 
L 217.490521 160.442891 
L 217.657782 160.442891 
L 217.684759 158.979129 
L 217.857041 158.979129 
L 217.857041 158.247248 
L 217.997293 158.247248 
L 218.00632 156.783485 
L 218.206026 156.783485 
L 218.249692 155.319723 
L 218.406836 155.319723 
L 218.406836 154.587842 
L 218.780579 154.587842 
L 218.780579 153.85596 
L 218.973717 153.85596 
L 218.973717 153.124079 
L 219.756691 153.124079 
L 219.807671 151.660317 
L 220.630125 151.660317 
L 220.630125 150.928436 
L 220.832328 150.928436 
L 220.832328 150.196554 
L 220.956627 150.196554 
L 221.066502 148.000911 
L 221.071042 148.000911 
L 221.13026 145.805267 
L 221.222051 145.805267 
L 221.332974 141.41398 
L 221.353394 141.41398 
L 221.425988 139.218337 
L 222.254721 139.218337 
L 222.254721 138.486455 
L 222.436977 138.486455 
L 222.436977 137.754574 
L 222.764661 137.754574 
L 222.764661 137.022693 
L 222.9077 137.022693 
L 222.9077 136.290812 
L 223.029003 136.290812 
L 223.029003 135.558931 
L 223.167833 135.558931 
L 223.251002 133.363287 
L 223.458755 133.363287 
L 223.501528 131.167644 
L 223.637884 131.167644 
L 223.713621 128.972 
L 223.798379 128.972 
L 223.798379 128.240119 
L 223.914566 128.240119 
L 223.914566 127.508238 
L 224.059898 127.508238 
L 224.100569 125.312594 
L 224.3221 125.312594 
L 224.384689 123.848832 
L 224.463986 123.848832 
L 224.52375 120.921307 
L 224.618547 120.921307 
L 224.618547 120.189426 
L 224.838562 120.189426 
L 224.838562 119.457545 
L 224.960006 119.457545 
L 224.99814 117.261901 
L 225.257203 117.261901 
L 225.343201 114.334376 
L 225.52407 114.334376 
L 225.52407 113.602495 
L 225.733671 113.602495 
L 225.790263 111.406851 
L 225.850536 111.406851 
L 225.940962 108.479327 
L 225.989177 108.479327 
L 226.042268 106.283683 
L 226.178268 106.283683 
L 226.178268 105.551802 
L 226.328169 105.551802 
L 226.328169 104.819921 
L 226.575082 104.819921 
L 226.575082 104.08804 
L 226.713308 104.08804 
L 226.713308 103.356158 
L 226.945017 103.356158 
L 226.993095 101.892396 
L 227.106696 101.892396 
L 227.215299 100.428634 
L 227.2349 100.428634 
L 227.2349 99.696752 
L 227.691036 99.696752 
L 227.691036 98.964871 
L 228.142294 98.964871 
L 228.142294 98.23299 
L 228.87712 98.23299 
L 228.87712 97.501109 
L 230.523766 97.501109 
L 230.523766 96.769228 
L 231.81205 96.769228 
L 231.81205 96.037347 
L 232.048701 96.037347 
L 232.082429 94.573584 
L 232.3341 94.573584 
L 232.3341 93.841703 
L 232.8236 93.841703 
L 232.8236 93.109822 
L 233.1918 93.109822 
L 233.1918 92.377941 
L 233.435907 92.377941 
L 233.435907 91.646059 
L 233.764951 91.646059 
L 233.791695 89.450416 
L 234.203673 89.450416 
L 234.203673 88.718535 
L 234.392554 88.718535 
L 234.469309 85.79101 
L 234.75191 85.79101 
L 234.75191 85.059129 
L 235.391277 85.059129 
L 235.391277 84.327248 
L 235.514505 84.327248 
L 235.612809 82.131604 
L 235.844515 82.131604 
L 235.844515 81.399723 
L 236.24272 81.399723 
L 236.24272 80.667842 
L 236.506138 80.667842 
L 236.506138 79.93596 
L 238.615966 79.93596 
L 238.615966 79.204079 
L 239.940685 79.204079 
L 239.940685 78.472198 
L 240.180432 78.472198 
L 240.180432 77.740317 
L 241.260075 77.740317 
L 241.260075 77.008436 
L 241.396211 77.008436 
L 241.418528 75.544673 
L 243.541647 75.544673 
L 243.541647 74.812792 
L 244.625203 74.812792 
L 244.625203 74.080911 
L 248.136901 74.080911 
L 248.136901 73.34903 
L 249.666994 73.34903 
L 249.666994 72.617149 
L 250.909618 72.617149 
L 250.909618 71.885267 
L 251.934483 71.885267 
L 252.027889 69.689624 
L 252.421848 69.689624 
L 252.455433 68.225861 
L 256.22425 68.225861 
L 256.22425 67.49398 
L 256.874358 67.49398 
L 256.874358 66.762099 
L 258.435788 66.762099 
L 258.435788 66.030218 
L 258.803507 66.030218 
L 258.814885 64.566455 
L 258.972827 64.566455 
L 258.972827 63.834574 
L 260.673896 63.834574 
L 260.673896 63.102693 
L 260.832658 63.102693 
L 260.832658 62.370812 
L 262.287869 62.370812 
L 262.287869 61.638931 
L 262.505629 61.638931 
L 262.505629 60.90705 
L 272.505858 60.90705 
L 272.505858 60.175168 
L 276.353404 60.175168 
L 276.353404 59.443287 
L 278.456155 59.443287 
L 278.456155 58.711406 
L 278.954935 58.711406 
L 278.954935 57.979525 
L 279.682388 57.979525 
L 279.682388 57.247644 
L 279.839579 57.247644 
L 279.839579 56.515762 
L 280.525662 56.515762 
L 280.525662 55.783881 
L 281.39538 55.783881 
L 281.39538 55.052 
L 283.354132 55.052 
L 283.354132 54.320119 
L 283.827693 54.320119 
L 283.827693 53.588238 
L 284.507682 53.588238 
L 284.507682 52.856356 
L 284.847784 52.856356 
L 284.847784 52.124475 
L 285.057153 52.124475 
L 285.057153 51.392594 
L 285.349531 51.392594 
L 285.349531 50.660713 
L 286.551003 50.660713 
L 286.551003 49.928832 
L 288.367611 49.928832 
L 288.367611 49.19695 
L 289.928915 49.19695 
L 289.928915 48.465069 
L 293.190587 48.465069 
L 293.190587 47.733188 
L 293.447885 47.733188 
L 293.447885 47.001307 
L 293.634861 47.001307 
L 293.693374 45.537545 
L 294.237237 45.537545 
L 294.327689 43.341901 
L 294.964179 43.341901 
L 294.964179 42.61002 
L 295.569933 42.61002 
L 295.569933 41.878139 
L 296.073831 41.878139 
L 296.073831 41.146257 
L 297.977089 41.146257 
L 297.977089 40.414376 
L 298.603469 40.414376 
L 298.603469 39.682495 
L 298.877314 39.682495 
L 298.877314 38.950614 
L 300.010823 38.950614 
L 300.010823 38.218733 
L 300.31675 38.218733 
L 300.31675 37.486851 
L 300.638678 37.486851 
L 300.638678 36.75497 
L 301.729187 36.75497 
L 301.729187 36.023089 
L 301.987272 36.023089 
L 302.014342 34.559327 
L 302.209906 34.559327 
L 302.209906 33.827446 
L 303.542586 33.827446 
L 303.542586 33.095564 
L 304.887804 33.095564 
L 304.955358 31.631802 
L 306.045961 31.631802 
L 306.045961 30.899921 
L 307.084442 30.899921 
L 307.084442 30.16804 
L 307.758488 30.16804 
L 307.758488 29.436158 
L 308.067415 29.436158 
L 308.067415 28.704277 
L 308.699232 28.704277 
L 308.699232 27.972396 
L 309.407955 27.972396 
L 309.407955 27.240515 
L 309.810278 27.240515 
L 309.810278 26.508634 
L 310.234961 26.508634 
L 310.234961 25.776752 
L 311.227276 25.776752 
L 311.227276 25.044871 
L 313.008813 25.044871 
L 313.008813 24.31299 
L 320.962881 24.31299 
L 320.962881 23.581109 
L 327.469786 23.581109 
L 327.469786 22.849228 
L 327.992882 22.849228 
L 327.992882 22.117347 
L 328.472637 22.117347 
L 328.472637 21.385465 
L 328.85215 21.385465 
L 328.85215 20.653584 
L 329.152655 20.653584 
L 329.152655 19.921703 
L 330.203962 19.921703 
L 330.203962 19.189822 
L 332.433253 19.189822 
L 332.433253 18.457941 
L 332.691858 18.457941 
L 332.691858 17.726059 
L 333.053655 17.726059 
L 333.053655 16.994178 
L 333.447198 16.994178 
L 333.447198 16.262297 
L 333.739568 16.262297 
L 333.739568 15.530416 
L 335.168115 15.530416 
L 335.168115 14.798535 
L 336.7405 14.798535 
L 336.7405 14.066653 
L 339.463486 14.066653 
L 339.463486 13.334772 
L 339.463486 13.334772 
L 367.82 13.334772 
L 367.82 13.334772 
" style="fill:none;stroke:#000000;stroke-linecap:square;stroke-width:1.5;"/>
   </g>
   <g id="line2d_27">
    <path clip-path="url(#p62f8047596)" d="M 158.179579 276.812 
L 158.179579 276.080119 
L 158.179579 276.080119 
L 158.179579 276.080119 
L 158.179579 275.348238 
L 158.179579 275.348238 
L 158.179579 275.348238 
L 158.179579 274.616356 
L 158.179579 274.616356 
L 158.179579 274.616356 
L 158.179579 273.884475 
L 158.179579 273.884475 
L 158.179579 273.884475 
L 158.179579 273.152594 
L 158.179579 273.152594 
L 158.179579 273.152594 
L 158.179579 272.420713 
L 158.179579 272.420713 
L 158.179579 272.420713 
L 158.179579 271.688832 
L 158.179579 271.688832 
L 158.179579 271.688832 
L 158.179579 270.95695 
L 158.179579 270.95695 
L 158.179579 270.95695 
L 158.179579 270.225069 
L 158.179579 270.225069 
L 158.179579 270.225069 
L 158.179579 269.493188 
L 158.179579 269.493188 
L 158.179579 269.493188 
L 158.179579 268.761307 
L 158.179579 268.761307 
L 158.179579 268.761307 
L 158.179579 268.029426 
L 158.179579 268.029426 
L 158.179579 268.029426 
L 158.179579 267.297545 
L 158.179579 267.297545 
L 158.179579 267.297545 
L 158.179579 266.565663 
L 158.179579 266.565663 
L 158.179579 266.565663 
L 158.179579 265.833782 
L 178.931586 265.833782 
L 178.931586 265.101901 
L 180.176772 265.101901 
L 180.176772 264.37002 
L 180.561397 264.37002 
L 180.561397 263.638139 
L 180.834861 263.638139 
L 180.834861 262.906257 
L 181.034157 262.906257 
L 181.119723 261.442495 
L 181.303277 261.442495 
L 181.303277 260.710614 
L 181.504897 260.710614 
L 181.504897 259.978733 
L 181.739595 259.978733 
L 181.739595 259.246851 
L 181.979129 259.246851 
L 182.004824 257.783089 
L 182.104249 257.783089 
L 182.106076 256.319327 
L 182.244353 256.319327 
L 182.244353 255.587446 
L 182.411703 255.587446 
L 182.411703 254.855564 
L 182.536379 254.855564 
L 182.598579 252.659921 
L 182.79114 252.659921 
L 182.79114 251.92804 
L 182.958398 251.92804 
L 182.958398 251.196158 
L 183.070724 251.196158 
L 183.070724 250.464277 
L 183.213832 250.464277 
L 183.213832 249.732396 
L 183.731342 249.732396 
L 183.753285 248.268634 
L 184.024218 248.268634 
L 184.024218 247.536752 
L 184.186472 247.536752 
L 184.264936 244.609228 
L 184.317791 244.609228 
L 184.317791 243.877347 
L 184.553114 243.877347 
L 184.553114 243.145465 
L 184.797206 243.145465 
L 184.897479 241.681703 
L 184.967235 241.681703 
L 184.967235 240.949822 
L 185.180883 240.949822 
L 185.180883 240.217941 
L 185.672651 240.217941 
L 185.672651 239.486059 
L 185.855937 239.486059 
L 185.855937 238.754178 
L 186.451379 238.754178 
L 186.451379 238.022297 
L 187.067468 238.022297 
L 187.067468 237.290416 
L 187.289967 237.290416 
L 187.289967 236.558535 
L 187.612829 236.558535 
L 187.66254 234.362891 
L 187.887086 234.362891 
L 187.895218 232.899129 
L 188.046121 232.899129 
L 188.156465 230.703485 
L 188.159202 230.703485 
L 188.236045 228.507842 
L 188.508734 228.507842 
L 188.508734 227.77596 
L 188.66774 227.77596 
L 188.676396 226.312198 
L 188.784206 226.312198 
L 188.784206 225.580317 
L 189.036966 225.580317 
L 189.099211 223.384673 
L 189.164377 223.384673 
L 189.164377 222.652792 
L 189.28049 222.652792 
L 189.335539 221.18903 
L 189.792727 221.18903 
L 189.792727 220.457149 
L 190.5866 220.457149 
L 190.5866 219.725267 
L 192.332312 219.725267 
L 192.332312 218.993386 
L 192.547205 218.993386 
L 192.621586 216.797743 
L 192.68517 216.797743 
L 192.68517 216.065861 
L 192.935099 216.065861 
L 192.967101 214.602099 
L 193.342261 214.602099 
L 193.342261 213.870218 
L 193.709428 213.870218 
L 193.709428 213.138337 
L 194.509685 213.138337 
L 194.509685 212.406455 
L 194.977453 212.406455 
L 194.977453 211.674574 
L 195.681893 211.674574 
L 195.74068 210.210812 
L 195.881372 210.210812 
L 195.988522 208.74705 
L 196.05295 208.74705 
L 196.075786 207.283287 
L 196.261346 207.283287 
L 196.332418 205.819525 
L 196.387812 205.819525 
L 196.47913 204.355762 
L 196.63327 204.355762 
L 196.720419 202.892 
L 196.755424 202.892 
L 196.755424 202.160119 
L 197.162686 202.160119 
L 197.162686 201.428238 
L 197.406431 201.428238 
L 197.502281 199.232594 
L 197.553143 199.232594 
L 197.634556 197.03695 
L 197.666249 197.03695 
L 197.739395 194.841307 
L 198.193488 194.841307 
L 198.223274 192.645663 
L 198.398281 192.645663 
L 198.398281 191.913782 
L 198.827799 191.913782 
L 198.855271 190.45002 
L 199.046802 190.45002 
L 199.046802 189.718139 
L 199.709132 189.718139 
L 199.709132 188.986257 
L 200.163862 188.986257 
L 200.163862 188.254376 
L 200.373697 188.254376 
L 200.373697 187.522495 
L 200.556716 187.522495 
L 200.556716 186.790614 
L 200.668588 186.790614 
L 200.748618 184.59497 
L 200.823548 184.59497 
L 200.912148 183.131208 
L 201.03794 183.131208 
L 201.03794 182.399327 
L 201.397558 182.399327 
L 201.494617 180.203683 
L 201.631524 180.203683 
L 201.728959 176.544277 
L 201.900701 176.544277 
L 201.900701 175.812396 
L 202.089615 175.812396 
L 202.089615 175.080515 
L 202.258639 175.080515 
L 202.258639 174.348634 
L 202.376367 174.348634 
L 202.384858 172.884871 
L 202.956833 172.884871 
L 202.956833 172.15299 
L 203.718564 172.15299 
L 203.783844 169.957347 
L 204.007271 169.957347 
L 204.050649 168.493584 
L 204.235053 168.493584 
L 204.235053 167.761703 
L 206.24562 167.761703 
L 206.24562 167.029822 
L 206.455261 167.029822 
L 206.455261 166.297941 
L 206.669017 166.297941 
L 206.76556 164.834178 
L 207.71259 164.834178 
L 207.71259 164.102297 
L 207.919946 164.102297 
L 207.919946 163.370416 
L 208.12622 163.370416 
L 208.12622 162.638535 
L 208.584131 162.638535 
L 208.584131 161.906653 
L 209.190182 161.906653 
L 209.190182 161.174772 
L 209.315493 161.174772 
L 209.381941 159.71101 
L 209.44275 159.71101 
L 209.520612 158.247248 
L 209.659525 158.247248 
L 209.747073 155.319723 
L 209.951405 155.319723 
L 210.007307 153.85596 
L 210.287707 153.85596 
L 210.36949 150.928436 
L 210.470822 150.928436 
L 210.470822 150.196554 
L 210.673765 150.196554 
L 210.673765 149.464673 
L 210.82787 149.464673 
L 210.82787 148.732792 
L 211.124176 148.732792 
L 211.124176 148.000911 
L 211.625022 148.000911 
L 211.655741 145.805267 
L 211.803261 145.805267 
L 211.897936 140.682099 
L 212.035835 140.682099 
L 212.035835 139.950218 
L 212.512982 139.950218 
L 212.512982 139.218337 
L 212.9188 139.218337 
L 212.992877 137.754574 
L 213.123689 137.754574 
L 213.123689 137.022693 
L 213.534022 137.022693 
L 213.543135 135.558931 
L 213.649262 135.558931 
L 213.649262 134.82705 
L 214.71447 134.82705 
L 214.790969 133.363287 
L 215.368425 133.363287 
L 215.443483 131.899525 
L 215.612191 131.899525 
L 215.625713 130.435762 
L 215.847365 130.435762 
L 215.922272 128.972 
L 216.036613 128.972 
L 216.066969 126.776356 
L 216.363006 126.776356 
L 216.473872 125.312594 
L 216.54129 125.312594 
L 216.54129 124.580713 
L 216.6876 124.580713 
L 216.796851 123.11695 
L 216.882005 123.11695 
L 216.96779 120.189426 
L 217.096918 120.189426 
L 217.096918 119.457545 
L 217.265378 119.457545 
L 217.34324 117.261901 
L 217.416364 117.261901 
L 217.445225 115.798139 
L 217.662572 115.798139 
L 217.692125 114.334376 
L 217.789803 114.334376 
L 217.789803 113.602495 
L 217.998575 113.602495 
L 218.086404 111.406851 
L 218.563893 111.406851 
L 218.672312 108.479327 
L 218.844231 108.479327 
L 218.907789 107.015564 
L 219.751363 107.015564 
L 219.827898 105.551802 
L 219.89834 105.551802 
L 219.89834 104.819921 
L 220.024333 104.819921 
L 220.076611 103.356158 
L 220.147049 103.356158 
L 220.147049 102.624277 
L 220.321095 102.624277 
L 220.406217 101.160515 
L 220.437131 101.160515 
L 220.437131 100.428634 
L 220.598181 100.428634 
L 220.598181 99.696752 
L 220.73316 99.696752 
L 220.807597 98.23299 
L 220.849447 98.23299 
L 220.849447 97.501109 
L 221.041407 97.501109 
L 221.06662 96.037347 
L 221.443718 96.037347 
L 221.482866 93.841703 
L 221.696461 93.841703 
L 221.696461 93.109822 
L 221.884493 93.109822 
L 221.987383 90.914178 
L 222.138984 90.914178 
L 222.215401 87.986653 
L 222.586695 87.986653 
L 222.692426 85.059129 
L 222.742043 85.059129 
L 222.772822 82.863485 
L 223.036832 82.863485 
L 223.038355 81.399723 
L 223.378717 81.399723 
L 223.480947 79.93596 
L 223.536252 79.93596 
L 223.569962 78.472198 
L 223.726316 78.472198 
L 223.726316 77.740317 
L 223.847172 77.740317 
L 223.847172 77.008436 
L 224.089389 77.008436 
L 224.089389 76.276554 
L 224.704729 76.276554 
L 224.704729 75.544673 
L 225.539428 75.544673 
L 225.539428 74.812792 
L 225.687896 74.812792 
L 225.687896 74.080911 
L 226.101617 74.080911 
L 226.150487 72.617149 
L 226.392925 72.617149 
L 226.392925 71.885267 
L 226.525602 71.885267 
L 226.525602 71.153386 
L 227.231037 71.153386 
L 227.231037 70.421505 
L 227.579105 70.421505 
L 227.579105 69.689624 
L 227.708455 69.689624 
L 227.78943 67.49398 
L 228.032413 67.49398 
L 228.032413 66.762099 
L 228.602109 66.762099 
L 228.602109 66.030218 
L 228.750419 66.030218 
L 228.843835 64.566455 
L 229.488459 64.566455 
L 229.488459 63.834574 
L 230.021477 63.834574 
L 230.094774 62.370812 
L 230.825486 62.370812 
L 230.825486 61.638931 
L 232.067901 61.638931 
L 232.067901 60.90705 
L 232.798695 60.90705 
L 232.798695 60.175168 
L 236.528858 60.175168 
L 236.528858 59.443287 
L 239.54539 59.443287 
L 239.54539 58.711406 
L 240.646756 58.711406 
L 240.646756 57.979525 
L 241.113942 57.979525 
L 241.113942 57.247644 
L 241.36211 57.247644 
L 241.36211 56.515762 
L 241.511139 56.515762 
L 241.511139 55.783881 
L 242.659602 55.783881 
L 242.659602 55.052 
L 243.744178 55.052 
L 243.744178 54.320119 
L 244.690237 54.320119 
L 244.690237 53.588238 
L 247.01269 53.588238 
L 247.01269 52.856356 
L 247.787156 52.856356 
L 247.787156 52.124475 
L 250.797287 52.124475 
L 250.797287 51.392594 
L 255.474161 51.392594 
L 255.474161 50.660713 
L 256.148685 50.660713 
L 256.148685 49.928832 
L 258.398651 49.928832 
L 258.398651 49.19695 
L 263.753159 49.19695 
L 263.753159 48.465069 
L 264.860544 48.465069 
L 264.860544 47.733188 
L 266.721433 47.733188 
L 266.721433 47.001307 
L 268.838833 47.001307 
L 268.838833 46.269426 
L 269.723294 46.269426 
L 269.723294 45.537545 
L 270.783461 45.537545 
L 270.783461 44.805663 
L 271.760987 44.805663 
L 271.760987 44.073782 
L 272.406063 44.073782 
L 272.479368 42.61002 
L 273.216207 42.61002 
L 273.216207 41.878139 
L 273.528664 41.878139 
L 273.528664 41.146257 
L 273.68469 41.146257 
L 273.778799 39.682495 
L 274.908002 39.682495 
L 274.908002 38.950614 
L 276.019226 38.950614 
L 276.019226 38.218733 
L 279.120778 38.218733 
L 279.229968 36.75497 
L 279.362115 36.75497 
L 279.362115 36.023089 
L 279.710425 36.023089 
L 279.710425 35.291208 
L 280.430814 35.291208 
L 280.430814 34.559327 
L 281.183156 34.559327 
L 281.205593 33.095564 
L 281.43017 33.095564 
L 281.43017 32.363683 
L 281.785963 32.363683 
L 281.785963 31.631802 
L 282.992765 31.631802 
L 282.992765 30.899921 
L 284.548636 30.899921 
L 284.548636 30.16804 
L 284.72196 30.16804 
L 284.72196 29.436158 
L 285.252071 29.436158 
L 285.252071 28.704277 
L 286.758412 28.704277 
L 286.758412 27.972396 
L 286.909152 27.972396 
L 286.909152 27.240515 
L 287.060817 27.240515 
L 287.060817 26.508634 
L 287.307234 26.508634 
L 287.307234 25.776752 
L 288.359013 25.776752 
L 288.359013 25.044871 
L 292.264578 25.044871 
L 292.264578 24.31299 
L 306.008353 24.31299 
L 306.008353 23.581109 
L 309.139782 23.581109 
L 309.139782 22.849228 
L 311.061838 22.849228 
L 311.061838 22.117347 
L 312.359036 22.117347 
L 312.362608 20.653584 
L 312.665998 20.653584 
L 312.665998 19.921703 
L 313.333243 19.921703 
L 313.333243 19.189822 
L 315.12759 19.189822 
L 315.12759 18.457941 
L 317.512286 18.457941 
L 317.512286 17.726059 
L 317.681 17.726059 
L 317.681 16.994178 
L 318.923426 16.994178 
L 318.923426 16.262297 
L 321.252577 16.262297 
L 321.252577 15.530416 
L 321.650298 15.530416 
L 321.650298 14.798535 
L 323.469475 14.798535 
L 323.469475 14.066653 
L 323.811322 14.066653 
L 323.811322 13.334772 
L 323.811322 13.334772 
L 367.82 13.334772 
L 367.82 13.334772 
" style="fill:none;stroke:#00bfbf;stroke-linecap:square;stroke-width:1.5;"/>
   </g>
   <g id="line2d_28">
    <path clip-path="url(#p62f8047596)" d="M 10.61381 276.812 
L 10.61381 276.080119 
L 10.61381 276.080119 
L 10.61381 276.080119 
L 10.61381 275.348238 
L 10.61381 275.348238 
L 10.61381 275.348238 
L 10.61381 274.616356 
L 10.61381 274.616356 
L 10.61381 274.616356 
L 10.61381 273.884475 
L 10.61381 273.884475 
L 10.61381 273.884475 
L 10.61381 273.152594 
L 10.61381 273.152594 
L 10.61381 273.152594 
L 10.61381 272.420713 
L 10.61381 272.420713 
L 10.61381 272.420713 
L 10.61381 271.688832 
L 10.61381 271.688832 
L 10.61381 271.688832 
L 10.61381 270.95695 
L 10.61381 270.95695 
L 10.61381 270.95695 
L 10.61381 270.225069 
L 10.61381 270.225069 
L 10.61381 270.225069 
L 10.61381 269.493188 
L 10.61381 269.493188 
L 10.61381 269.493188 
L 10.61381 268.761307 
L 10.61381 268.761307 
L 10.61381 268.761307 
L 10.61381 268.029426 
L 10.61381 268.029426 
L 10.61381 268.029426 
L 10.61381 267.297545 
L 10.61381 267.297545 
L 10.61381 267.297545 
L 10.61381 266.565663 
L 10.61381 266.565663 
L 10.61381 266.565663 
L 10.61381 265.833782 
L 23.901037 265.833782 
L 23.901037 265.101901 
L 25.508644 265.101901 
L 25.508644 264.37002 
L 32.41538 264.37002 
L 32.41538 263.638139 
L 37.266096 263.638139 
L 37.266096 262.906257 
L 38.166688 262.906257 
L 38.166688 262.174376 
L 38.691516 262.174376 
L 38.691516 261.442495 
L 42.245543 261.442495 
L 42.245543 260.710614 
L 45.348248 260.710614 
L 45.348248 259.978733 
L 46.158097 259.978733 
L 46.158097 259.246851 
L 47.643495 259.246851 
L 47.643495 258.51497 
L 51.494982 258.51497 
L 51.494982 257.783089 
L 52.197076 257.783089 
L 52.197076 257.051208 
L 56.202293 257.051208 
L 56.202293 256.319327 
L 68.06837 256.319327 
L 68.169073 254.855564 
L 70.559795 254.855564 
L 70.559795 254.123683 
L 121.16496 254.123683 
L 121.16496 253.391802 
L 121.604228 253.391802 
L 121.604228 252.659921 
L 122.382414 252.659921 
L 122.382414 251.92804 
L 122.493845 251.92804 
L 122.493845 251.196158 
L 122.905828 251.196158 
L 122.905828 250.464277 
L 123.052703 250.464277 
L 123.052703 249.732396 
L 123.249815 249.732396 
L 123.249815 249.000515 
L 123.738864 249.000515 
L 123.738864 248.268634 
L 124.105793 248.268634 
L 124.105793 247.536752 
L 125.006186 247.536752 
L 125.006186 246.804871 
L 125.302868 246.804871 
L 125.302868 246.07299 
L 125.748315 246.07299 
L 125.748315 245.341109 
L 126.714807 245.341109 
L 126.787615 243.877347 
L 127.105222 243.877347 
L 127.105222 243.145465 
L 155.525951 243.145465 
L 155.525951 242.413584 
L 158.179579 242.413584 
L 158.179579 231.435366 
L 162.701781 231.435366 
L 162.701781 230.703485 
L 164.799699 230.703485 
L 164.799699 229.971604 
L 166.129149 229.971604 
L 166.129149 229.239723 
L 166.983918 229.239723 
L 166.986191 227.044079 
L 169.546212 227.044079 
L 169.546212 226.312198 
L 170.581714 226.312198 
L 170.581714 225.580317 
L 170.721679 225.580317 
L 170.721679 224.848436 
L 170.842158 224.848436 
L 170.842158 224.116554 
L 171.293734 224.116554 
L 171.293734 223.384673 
L 171.67503 223.384673 
L 171.74972 221.920911 
L 172.124989 221.920911 
L 172.124989 221.18903 
L 172.466401 221.18903 
L 172.466401 220.457149 
L 172.772491 220.457149 
L 172.772491 219.725267 
L 172.994313 219.725267 
L 172.994313 218.993386 
L 173.278959 218.993386 
L 173.278959 218.261505 
L 173.787203 218.261505 
L 173.787203 217.529624 
L 173.922318 217.529624 
L 173.922318 216.797743 
L 174.0434 216.797743 
L 174.0434 216.065861 
L 174.416801 216.065861 
L 174.5258 213.870218 
L 174.658176 213.870218 
L 174.68545 212.406455 
L 174.789227 212.406455 
L 174.860893 210.942693 
L 175.277207 210.942693 
L 175.298779 208.015168 
L 175.45477 208.015168 
L 175.45477 207.283287 
L 175.577258 207.283287 
L 175.577258 206.551406 
L 175.837145 206.551406 
L 175.837145 205.819525 
L 175.981753 205.819525 
L 175.982911 203.623881 
L 176.365943 203.623881 
L 176.447553 200.696356 
L 176.570826 200.696356 
L 176.570826 199.964475 
L 177.089916 199.964475 
L 177.099448 198.500713 
L 177.27741 198.500713 
L 177.27741 197.768832 
L 177.598889 197.768832 
L 177.598889 197.03695 
L 177.814957 197.03695 
L 177.814957 196.305069 
L 177.969861 196.305069 
L 177.969861 195.573188 
L 178.398254 195.573188 
L 178.419952 193.377545 
L 178.625897 193.377545 
L 178.625897 192.645663 
L 178.968648 192.645663 
L 179.001579 191.181901 
L 179.097172 191.181901 
L 179.172396 189.718139 
L 179.27572 189.718139 
L 179.27572 188.986257 
L 179.707893 188.986257 
L 179.78753 186.790614 
L 180.077135 186.790614 
L 180.077135 186.058733 
L 180.399721 186.058733 
L 180.399721 185.326851 
L 180.561397 185.326851 
L 180.583704 183.863089 
L 180.759292 183.863089 
L 180.759292 183.131208 
L 181.060905 183.131208 
L 181.060905 182.399327 
L 181.352594 182.399327 
L 181.352594 181.667446 
L 181.549071 181.667446 
L 181.549071 180.935564 
L 181.694007 180.935564 
L 181.730057 179.471802 
L 181.918786 179.471802 
L 181.955298 178.00804 
L 182.210919 178.00804 
L 182.264408 176.544277 
L 182.518861 176.544277 
L 182.536467 174.348634 
L 182.950931 174.348634 
L 183.011692 172.15299 
L 183.210904 172.15299 
L 183.210904 171.421109 
L 183.605131 171.421109 
L 183.708128 169.225465 
L 183.777719 169.225465 
L 183.790923 167.761703 
L 184.224225 167.761703 
L 184.283382 166.297941 
L 184.379356 166.297941 
L 184.379356 165.566059 
L 184.723891 165.566059 
L 184.781334 164.102297 
L 185.15856 164.102297 
L 185.226228 161.906653 
L 185.401918 161.906653 
L 185.401918 161.174772 
L 185.631954 161.174772 
L 185.631954 160.442891 
L 185.745934 160.442891 
L 185.745934 159.71101 
L 186.160289 159.71101 
L 186.160289 158.979129 
L 186.418677 158.979129 
L 186.430539 157.515366 
L 186.600323 157.515366 
L 186.69145 156.051604 
L 186.76362 156.051604 
L 186.76362 155.319723 
L 186.969999 155.319723 
L 187.045641 153.85596 
L 187.229389 153.85596 
L 187.23427 152.392198 
L 187.414687 152.392198 
L 187.414687 151.660317 
L 187.582398 151.660317 
L 187.582398 150.928436 
L 187.874335 150.928436 
L 187.874335 150.196554 
L 188.050226 150.196554 
L 188.050226 149.464673 
L 188.172121 149.464673 
L 188.172121 148.732792 
L 188.343652 148.732792 
L 188.437216 147.26903 
L 188.714944 147.26903 
L 188.714944 146.537149 
L 188.882489 146.537149 
L 188.970306 144.341505 
L 189.171213 144.341505 
L 189.247859 142.877743 
L 189.690987 142.877743 
L 189.788779 140.682099 
L 189.865901 140.682099 
L 189.865901 139.950218 
L 190.007284 139.950218 
L 190.007284 139.218337 
L 190.856359 139.218337 
L 190.925409 137.754574 
L 190.983107 137.754574 
L 190.983107 137.022693 
L 191.268697 137.022693 
L 191.268697 136.290812 
L 191.482761 136.290812 
L 191.482761 135.558931 
L 191.649449 135.558931 
L 191.754888 134.095168 
L 191.99463 134.095168 
L 191.99463 133.363287 
L 192.115351 133.363287 
L 192.115351 132.631406 
L 192.295264 132.631406 
L 192.330572 131.167644 
L 192.442001 131.167644 
L 192.542442 128.972 
L 192.660389 128.972 
L 192.660389 128.240119 
L 192.848898 128.240119 
L 192.855554 126.776356 
L 193.045954 126.776356 
L 193.111778 125.312594 
L 193.263723 125.312594 
L 193.263723 124.580713 
L 193.388964 124.580713 
L 193.42965 123.11695 
L 193.781951 123.11695 
L 193.876143 120.921307 
L 193.974032 120.921307 
L 194.068208 119.457545 
L 194.153944 119.457545 
L 194.153944 118.725663 
L 194.335276 118.725663 
L 194.416972 116.53002 
L 194.545708 116.53002 
L 194.545708 115.798139 
L 194.831163 115.798139 
L 194.871902 113.602495 
L 195.07755 113.602495 
L 195.141825 112.138733 
L 195.29965 112.138733 
L 195.355092 109.943089 
L 195.839524 109.943089 
L 195.904663 108.479327 
L 195.999674 108.479327 
L 196.06203 107.015564 
L 196.346475 107.015564 
L 196.346475 106.283683 
L 196.862316 106.283683 
L 196.924093 104.08804 
L 197.110464 104.08804 
L 197.110464 103.356158 
L 197.670956 103.356158 
L 197.670956 102.624277 
L 198.098561 102.624277 
L 198.098561 101.892396 
L 198.577605 101.892396 
L 198.577605 101.160515 
L 199.033092 101.160515 
L 199.033092 100.428634 
L 200.147024 100.428634 
L 200.147024 99.696752 
L 201.461107 99.696752 
L 201.461107 98.964871 
L 203.666204 98.964871 
L 203.666204 98.23299 
L 204.18022 98.23299 
L 204.18022 97.501109 
L 204.722922 97.501109 
L 204.722922 96.769228 
L 205.471403 96.769228 
L 205.471403 96.037347 
L 205.946699 96.037347 
L 205.946699 95.305465 
L 206.411536 95.305465 
L 206.412575 93.841703 
L 206.823283 93.841703 
L 206.823283 93.109822 
L 207.077737 93.109822 
L 207.178119 90.914178 
L 207.409255 90.914178 
L 207.496305 87.986653 
L 207.558087 87.986653 
L 207.622632 86.522891 
L 207.761393 86.522891 
L 207.772249 85.059129 
L 207.881725 85.059129 
L 207.988265 82.131604 
L 208.159065 82.131604 
L 208.159065 81.399723 
L 208.306284 81.399723 
L 208.306284 80.667842 
L 208.479716 80.667842 
L 208.479716 79.93596 
L 208.828981 79.93596 
L 208.904566 77.740317 
L 209.028291 77.740317 
L 209.028291 77.008436 
L 209.348798 77.008436 
L 209.352062 75.544673 
L 209.542647 75.544673 
L 209.542647 74.812792 
L 210.051224 74.812792 
L 210.051224 74.080911 
L 210.199594 74.080911 
L 210.266157 72.617149 
L 210.310886 72.617149 
L 210.310886 71.885267 
L 210.85032 71.885267 
L 210.893555 70.421505 
L 210.978532 70.421505 
L 211.080483 67.49398 
L 211.097508 67.49398 
L 211.097508 66.762099 
L 211.317273 66.762099 
L 211.317273 66.030218 
L 211.529046 66.030218 
L 211.625022 63.834574 
L 211.803261 63.834574 
L 211.842014 61.638931 
L 211.94239 61.638931 
L 211.959112 60.175168 
L 212.525169 60.175168 
L 212.627208 57.979525 
L 212.702096 57.979525 
L 212.702096 57.247644 
L 212.940665 57.247644 
L 212.992877 55.783881 
L 213.543135 55.783881 
L 213.649262 53.588238 
L 213.703277 53.588238 
L 213.735424 52.124475 
L 213.929936 52.124475 
L 213.929936 51.392594 
L 214.180168 51.392594 
L 214.204171 49.928832 
L 214.405687 49.928832 
L 214.405687 49.19695 
L 214.523386 49.19695 
L 214.579941 47.001307 
L 214.669432 47.001307 
L 214.669432 46.269426 
L 214.858756 46.269426 
L 214.858756 45.537545 
L 215.182215 45.537545 
L 215.282627 43.341901 
L 216.025336 43.341901 
L 216.034354 41.878139 
L 216.196616 41.878139 
L 216.196616 41.146257 
L 216.530782 41.146257 
L 216.530782 40.414376 
L 216.96779 40.414376 
L 216.96779 39.682495 
L 217.778467 39.682495 
L 217.888761 38.218733 
L 218.560457 38.218733 
L 218.656852 36.75497 
L 218.755074 36.75497 
L 218.755074 36.023089 
L 220.177261 36.023089 
L 220.177261 35.291208 
L 222.588596 35.291208 
L 222.588596 34.559327 
L 227.204625 34.559327 
L 227.204625 33.827446 
L 230.748168 33.827446 
L 230.829137 32.363683 
L 233.394806 32.363683 
L 233.394806 31.631802 
L 234.370628 31.631802 
L 234.370628 30.899921 
L 234.99251 30.899921 
L 234.99251 30.16804 
L 236.283773 30.16804 
L 236.283773 29.436158 
L 236.478686 29.436158 
L 236.478686 28.704277 
L 237.470683 28.704277 
L 237.470683 27.972396 
L 237.745379 27.972396 
L 237.745379 27.240515 
L 240.21092 27.240515 
L 240.21092 26.508634 
L 240.701089 26.508634 
L 240.701089 25.776752 
L 241.486653 25.776752 
L 241.486653 25.044871 
L 242.655663 25.044871 
L 242.655663 24.31299 
L 244.061839 24.31299 
L 244.061839 23.581109 
L 244.922202 23.581109 
L 244.922202 22.849228 
L 245.902128 22.849228 
L 245.902128 22.117347 
L 247.454963 22.117347 
L 247.454963 21.385465 
L 250.670068 21.385465 
L 250.670068 20.653584 
L 252.124286 20.653584 
L 252.124286 19.921703 
L 253.491885 19.921703 
L 253.491885 19.189822 
L 254.315124 19.189822 
L 254.315124 18.457941 
L 256.584626 18.457941 
L 256.584626 17.726059 
L 256.723962 17.726059 
L 256.723962 16.994178 
L 256.84237 16.994178 
L 256.84237 16.262297 
L 258.557199 16.262297 
L 258.557199 15.530416 
L 258.973127 15.530416 
L 258.973127 14.798535 
L 260.263818 14.798535 
L 260.263818 14.066653 
L 261.145111 14.066653 
L 261.145111 13.334772 
L 261.145111 13.334772 
L 367.82 13.334772 
L 367.82 13.334772 
" style="fill:none;stroke:#bf00bf;stroke-linecap:square;stroke-width:1.5;"/>
   </g>
   <g id="line2d_29">
    <path clip-path="url(#p62f8047596)" d="M -1 246.07299 
L 10.61381 246.07299 
L 10.61381 235.094772 
L 30.518307 235.094772 
L 30.518307 234.362891 
L 41.395806 234.362891 
L 41.395806 233.63101 
L 61.530512 233.63101 
L 61.530512 232.899129 
L 68.176394 232.899129 
L 68.176394 232.167248 
L 95.123372 232.167248 
L 95.123372 231.435366 
L 96.229213 231.435366 
L 96.331432 229.239723 
L 96.429496 229.239723 
L 96.429496 228.507842 
L 96.750478 228.507842 
L 96.750478 227.77596 
L 96.938763 227.77596 
L 96.938763 227.044079 
L 97.192557 227.044079 
L 97.192557 226.312198 
L 97.865328 226.312198 
L 97.865328 225.580317 
L 98.199442 225.580317 
L 98.199442 224.848436 
L 98.717613 224.848436 
L 98.717613 224.116554 
L 98.840703 224.116554 
L 98.89914 222.652792 
L 99.495867 222.652792 
L 99.562901 221.18903 
L 111.469109 221.18903 
L 111.469109 220.457149 
L 121.752218 220.457149 
L 121.752218 219.725267 
L 132.597084 219.725267 
L 132.597084 218.993386 
L 142.268266 218.993386 
L 142.268266 218.261505 
L 143.51176 218.261505 
L 143.51176 217.529624 
L 145.362584 217.529624 
L 145.362584 216.797743 
L 146.880802 216.797743 
L 146.880802 216.065861 
L 147.316894 216.065861 
L 147.316894 215.33398 
L 151.247924 215.33398 
L 151.247924 214.602099 
L 151.722867 214.602099 
L 151.722867 213.870218 
L 152.207861 213.870218 
L 152.207861 213.138337 
L 152.804964 213.138337 
L 152.804964 212.406455 
L 154.729986 212.406455 
L 154.729986 211.674574 
L 155.247081 211.674574 
L 155.247081 210.942693 
L 155.8187 210.942693 
L 155.8187 210.210812 
L 158.179579 210.210812 
L 158.18043 198.500713 
L 161.026002 198.500713 
L 161.026002 197.768832 
L 161.556137 197.768832 
L 161.556137 197.03695 
L 162.978386 197.03695 
L 162.978386 196.305069 
L 163.534104 196.305069 
L 163.534104 195.573188 
L 165.046409 195.573188 
L 165.046409 194.841307 
L 165.168217 194.841307 
L 165.168217 194.109426 
L 165.895103 194.109426 
L 165.895103 193.377545 
L 166.318862 193.377545 
L 166.318862 192.645663 
L 166.983905 192.645663 
L 166.983905 189.718139 
L 167.76763 189.718139 
L 167.76763 188.986257 
L 168.427552 188.986257 
L 168.427552 188.254376 
L 169.546164 188.254376 
L 169.546164 187.522495 
L 169.835767 187.522495 
L 169.920831 186.058733 
L 169.955127 186.058733 
L 169.955127 185.326851 
L 170.158889 185.326851 
L 170.158889 184.59497 
L 171.125842 184.59497 
L 171.125842 183.863089 
L 171.571885 183.863089 
L 171.571885 183.131208 
L 171.976356 183.131208 
L 171.976356 182.399327 
L 172.392698 182.399327 
L 172.466258 180.935564 
L 172.64245 180.935564 
L 172.64245 180.203683 
L 172.814845 180.203683 
L 172.814845 179.471802 
L 173.746937 179.471802 
L 173.799126 178.00804 
L 173.913555 178.00804 
L 173.913555 177.276158 
L 174.04339 177.276158 
L 174.113365 175.812396 
L 174.293806 175.812396 
L 174.293806 175.080515 
L 174.471432 175.080515 
L 174.471432 174.348634 
L 174.590265 174.348634 
L 174.657926 172.884871 
L 174.859618 172.884871 
L 174.859618 172.15299 
L 175.280759 172.15299 
L 175.362642 169.225465 
L 175.416548 169.225465 
L 175.47544 167.761703 
L 175.548858 167.761703 
L 175.577138 166.297941 
L 175.751899 166.297941 
L 175.801992 164.834178 
L 175.978791 164.834178 
L 175.981753 162.638535 
L 176.365943 162.638535 
L 176.447328 160.442891 
L 176.570626 160.442891 
L 176.570626 159.71101 
L 177.277402 159.71101 
L 177.277402 158.979129 
L 177.456051 158.979129 
L 177.511504 157.515366 
L 178.419946 157.515366 
L 178.419946 156.051604 
L 178.644605 156.051604 
L 178.699972 154.587842 
L 178.844263 154.587842 
L 178.927966 153.124079 
L 179.658243 153.124079 
L 179.746929 151.660317 
L 180.194521 151.660317 
L 180.194521 150.928436 
L 180.8511 150.928436 
L 180.8511 150.196554 
L 181.360017 150.196554 
L 181.360017 149.464673 
L 181.948406 149.464673 
L 181.948406 148.732792 
L 182.097784 148.732792 
L 182.097784 148.000911 
L 182.306035 148.000911 
L 182.306035 147.26903 
L 182.88222 147.26903 
L 182.965593 145.805267 
L 183.092894 145.805267 
L 183.147835 144.341505 
L 183.47002 144.341505 
L 183.47002 143.609624 
L 183.605128 143.609624 
L 183.660117 141.41398 
L 184.10494 141.41398 
L 184.10494 140.682099 
L 184.223854 140.682099 
L 184.232649 138.486455 
L 184.668145 138.486455 
L 184.668145 137.754574 
L 184.802929 137.754574 
L 184.802929 137.022693 
L 184.938356 137.022693 
L 185.044358 134.095168 
L 185.067449 134.095168 
L 185.161678 132.631406 
L 185.181123 132.631406 
L 185.19096 131.167644 
L 185.332083 131.167644 
L 185.332083 130.435762 
L 185.678584 130.435762 
L 185.680421 128.972 
L 185.927102 128.972 
L 185.927102 128.240119 
L 186.090028 128.240119 
L 186.090028 127.508238 
L 186.349372 127.508238 
L 186.413993 126.044475 
L 187.044107 126.044475 
L 187.044107 125.312594 
L 187.414686 125.312594 
L 187.414686 124.580713 
L 187.563522 124.580713 
L 187.563522 123.848832 
L 187.678467 123.848832 
L 187.783888 121.653188 
L 187.797026 121.653188 
L 187.874335 119.457545 
L 188.228961 119.457545 
L 188.228961 118.725663 
L 188.481226 118.725663 
L 188.481226 117.993782 
L 188.603374 117.993782 
L 188.603374 117.261901 
L 188.956087 117.261901 
L 188.956087 115.066257 
L 189.171213 115.066257 
L 189.171213 114.334376 
L 189.289533 114.334376 
L 189.289533 113.602495 
L 189.496959 113.602495 
L 189.591097 111.406851 
L 189.624235 111.406851 
L 189.724557 109.211208 
L 189.7873 109.211208 
L 189.876787 106.283683 
L 190.441802 106.283683 
L 190.441802 105.551802 
L 190.925392 105.551802 
L 190.925392 104.819921 
L 191.126903 104.819921 
L 191.126903 104.08804 
L 191.242126 104.08804 
L 191.242126 103.356158 
L 191.450164 103.356158 
L 191.482761 101.892396 
L 191.648786 101.892396 
L 191.754888 100.428634 
L 192.015434 100.428634 
L 192.115351 98.23299 
L 192.295103 98.23299 
L 192.295103 97.501109 
L 192.442001 97.501109 
L 192.442719 96.037347 
L 192.560097 96.037347 
L 192.560097 95.305465 
L 193.206094 95.305465 
L 193.206094 94.573584 
L 193.388963 94.573584 
L 193.492969 92.377941 
L 193.67298 92.377941 
L 193.67298 91.646059 
L 194.652414 91.646059 
L 194.652414 90.914178 
L 195.170466 90.914178 
L 195.170466 90.182297 
L 196.062029 90.182297 
L 196.062029 89.450416 
L 196.342308 89.450416 
L 196.342308 88.718535 
L 196.862316 88.718535 
L 196.924093 86.522891 
L 197.670952 86.522891 
L 197.670952 85.79101 
L 197.795714 85.79101 
L 197.795714 85.059129 
L 198.491646 85.059129 
L 198.491646 84.327248 
L 198.679737 84.327248 
L 198.679737 83.595366 
L 199.665198 83.595366 
L 199.665198 82.863485 
L 200.676549 82.863485 
L 200.676549 82.131604 
L 200.844401 82.131604 
L 200.844401 81.399723 
L 201.282092 81.399723 
L 201.282092 80.667842 
L 201.642009 80.667842 
L 201.642009 79.93596 
L 202.506916 79.93596 
L 202.506916 79.204079 
L 203.104536 79.204079 
L 203.104536 78.472198 
L 204.06095 78.472198 
L 204.06095 77.740317 
L 204.29146 77.740317 
L 204.356878 76.276554 
L 204.998823 76.276554 
L 204.998823 75.544673 
L 205.739605 75.544673 
L 205.76447 74.080911 
L 205.946696 74.080911 
L 205.946696 73.34903 
L 206.28978 73.34903 
L 206.304622 71.885267 
L 206.422017 71.885267 
L 206.457876 69.689624 
L 206.552267 69.689624 
L 206.552267 68.957743 
L 206.680606 68.957743 
L 206.688237 67.49398 
L 206.857471 67.49398 
L 206.874764 66.030218 
L 207.05456 66.030218 
L 207.05456 65.298337 
L 207.229291 65.298337 
L 207.2952 63.102693 
L 207.413044 63.102693 
L 207.413044 62.370812 
L 207.529314 62.370812 
L 207.529314 61.638931 
L 207.707122 61.638931 
L 207.707122 60.90705 
L 207.869053 60.90705 
L 207.979402 58.711406 
L 208.152549 58.711406 
L 208.152549 57.979525 
L 208.30225 57.979525 
L 208.407229 56.515762 
L 208.510985 56.515762 
L 208.510985 55.783881 
L 208.814936 55.783881 
L 208.92233 52.856356 
L 209.204303 52.856356 
L 209.298973 51.392594 
L 209.77126 51.392594 
L 209.77126 50.660713 
L 210.021239 50.660713 
L 210.107416 49.19695 
L 210.232069 49.19695 
L 210.310886 47.733188 
L 210.539051 47.733188 
L 210.585545 46.269426 
L 210.700919 46.269426 
L 210.788355 44.805663 
L 210.846808 44.805663 
L 210.846808 44.073782 
L 211.002877 44.073782 
L 211.079887 41.878139 
L 211.306825 41.878139 
L 211.306825 41.146257 
L 211.528024 41.146257 
L 211.634833 38.218733 
L 211.803261 38.218733 
L 211.829888 36.023089 
L 212.702096 36.023089 
L 212.702096 35.291208 
L 212.992877 35.291208 
L 212.992877 34.559327 
L 213.543135 34.559327 
L 213.649262 33.095564 
L 213.928472 33.095564 
L 213.928472 32.363683 
L 215.255817 32.363683 
L 215.255817 31.631802 
L 216.025247 31.631802 
L 216.025277 30.16804 
L 216.529993 30.16804 
L 216.529993 29.436158 
L 216.96779 29.436158 
L 216.96779 28.704277 
L 217.778467 28.704277 
L 217.888588 27.240515 
L 218.560388 27.240515 
L 218.656801 25.776752 
L 218.752168 25.776752 
L 218.752168 25.044871 
L 219.38184 25.044871 
L 219.38184 24.31299 
L 220.177258 24.31299 
L 220.177258 23.581109 
L 224.669201 23.581109 
L 224.669201 22.849228 
L 226.920234 22.849228 
L 226.920234 22.117347 
L 228.753929 22.117347 
L 228.753929 21.385465 
L 229.268764 21.385465 
L 229.268764 20.653584 
L 229.484154 20.653584 
L 229.484154 19.921703 
L 229.911485 19.921703 
L 229.911485 19.189822 
L 230.205669 19.189822 
L 230.205669 18.457941 
L 231.227117 18.457941 
L 231.227117 17.726059 
L 232.074171 17.726059 
L 232.074171 16.994178 
L 233.120348 16.994178 
L 233.120348 16.262297 
L 233.847482 16.262297 
L 233.847482 15.530416 
L 234.356177 15.530416 
L 234.356177 14.798535 
L 241.753011 14.798535 
L 241.753011 14.066653 
L 242.75007 14.066653 
L 242.75007 13.334772 
L 242.75007 13.334772 
L 367.82 13.334772 
L 367.82 13.334772 
" style="fill:none;stroke:#000000;stroke-linecap:square;stroke-width:1.5;"/>
   </g>
   <g id="patch_3">
    <path d="M 10.7 276.812 
L 10.7 10.7 
" style="fill:none;stroke:#000000;stroke-linecap:square;stroke-linejoin:miter;stroke-width:0.8;"/>
   </g>
   <g id="patch_4">
    <path d="M 367.82 276.812 
L 367.82 10.7 
" style="fill:none;stroke:#000000;stroke-linecap:square;stroke-linejoin:miter;stroke-width:0.8;"/>
   </g>
   <g id="patch_5">
    <path d="M 10.7 276.812 
L 367.82 276.812 
" style="fill:none;stroke:#000000;stroke-linecap:square;stroke-linejoin:miter;stroke-width:0.8;"/>
   </g>
   <g id="patch_6">
    <path d="M 10.7 10.7 
L 367.82 10.7 
" style="fill:none;stroke:#000000;stroke-linecap:square;stroke-linejoin:miter;stroke-width:0.8;"/>
   </g>
   <g id="text_6">
    <!-- {f1-f24}, 20-D -->
    <defs>
     <path d="M 51.125 -9.28125 
L 51.125 -16.3125 
L 48.09375 -16.3125 
Q 35.9375 -16.3125 31.8125 -12.6875 
Q 27.6875 -9.078125 27.6875 1.703125 
L 27.6875 13.375 
Q 27.6875 20.75 25.046875 23.578125 
Q 22.40625 26.421875 15.484375 26.421875 
L 12.5 26.421875 
L 12.5 33.40625 
L 15.484375 33.40625 
Q 22.46875 33.40625 25.078125 36.203125 
Q 27.6875 39.015625 27.6875 46.296875 
L 27.6875 58.015625 
Q 27.6875 68.796875 31.8125 72.390625 
Q 35.9375 75.984375 48.09375 75.984375 
L 51.125 75.984375 
L 51.125 69 
L 47.796875 69 
Q 40.921875 69 38.8125 66.84375 
Q 36.71875 64.703125 36.71875 57.8125 
L 36.71875 45.703125 
Q 36.71875 38.03125 34.5 34.5625 
Q 32.28125 31.109375 26.90625 29.890625 
Q 32.328125 28.5625 34.515625 25.09375 
Q 36.71875 21.625 36.71875 14.015625 
L 36.71875 1.90625 
Q 36.71875 -4.984375 38.8125 -7.125 
Q 40.921875 -9.28125 47.796875 -9.28125 
z
" id="DejaVuSans-7b"/>
     <path d="M 19.1875 8.296875 
L 53.609375 8.296875 
L 53.609375 0 
L 7.328125 0 
L 7.328125 8.296875 
Q 12.9375 14.109375 22.625 23.890625 
Q 32.328125 33.6875 34.8125 36.53125 
Q 39.546875 41.84375 41.421875 45.53125 
Q 43.3125 49.21875 43.3125 52.78125 
Q 43.3125 58.59375 39.234375 62.25 
Q 35.15625 65.921875 28.609375 65.921875 
Q 23.96875 65.921875 18.8125 64.3125 
Q 13.671875 62.703125 7.8125 59.421875 
L 7.8125 69.390625 
Q 13.765625 71.78125 18.9375 73 
Q 24.125 74.21875 28.421875 74.21875 
Q 39.75 74.21875 46.484375 68.546875 
Q 53.21875 62.890625 53.21875 53.421875 
Q 53.21875 48.921875 51.53125 44.890625 
Q 49.859375 40.875 45.40625 35.40625 
Q 44.1875 33.984375 37.640625 27.21875 
Q 31.109375 20.453125 19.1875 8.296875 
z
" id="DejaVuSans-32"/>
     <path d="M 12.5 -9.28125 
L 15.921875 -9.28125 
Q 22.75 -9.28125 24.828125 -7.171875 
Q 26.90625 -5.078125 26.90625 1.90625 
L 26.90625 14.015625 
Q 26.90625 21.625 29.09375 25.09375 
Q 31.296875 28.5625 36.71875 29.890625 
Q 31.296875 31.109375 29.09375 34.5625 
Q 26.90625 38.03125 26.90625 45.703125 
L 26.90625 57.8125 
Q 26.90625 64.75 24.828125 66.875 
Q 22.75 69 15.921875 69 
L 12.5 69 
L 12.5 75.984375 
L 15.578125 75.984375 
Q 27.734375 75.984375 31.8125 72.390625 
Q 35.890625 68.796875 35.890625 58.015625 
L 35.890625 46.296875 
Q 35.890625 39.015625 38.515625 36.203125 
Q 41.15625 33.40625 48.09375 33.40625 
L 51.125 33.40625 
L 51.125 26.421875 
L 48.09375 26.421875 
Q 41.15625 26.421875 38.515625 23.578125 
Q 35.890625 20.75 35.890625 13.375 
L 35.890625 1.703125 
Q 35.890625 -9.078125 31.8125 -12.6875 
Q 27.734375 -16.3125 15.578125 -16.3125 
L 12.5 -16.3125 
z
" id="DejaVuSans-7d"/>
     <path d="M 11.71875 12.40625 
L 22.015625 12.40625 
L 22.015625 4 
L 14.015625 -11.625 
L 7.71875 -11.625 
L 11.71875 4 
z
" id="DejaVuSans-2c"/>
    </defs>
    <g transform="translate(214.9776 271.48976)scale(0.2 -0.2)">
     <use xlink:href="#DejaVuSans-7b"/>
     <use x="63.623047" xlink:href="#DejaVuSans-66"/>
     <use x="98.828125" xlink:href="#DejaVuSans-31"/>
     <use x="162.451172" xlink:href="#DejaVuSans-2d"/>
     <use x="198.535156" xlink:href="#DejaVuSans-66"/>
     <use x="233.740234" xlink:href="#DejaVuSans-32"/>
     <use x="297.363281" xlink:href="#DejaVuSans-34"/>
     <use x="360.986328" xlink:href="#DejaVuSans-7d"/>
     <use x="424.609375" xlink:href="#DejaVuSans-2c"/>
     <use x="456.396484" xlink:href="#DejaVuSans-20"/>
     <use x="488.183594" xlink:href="#DejaVuSans-32"/>
     <use x="551.806641" xlink:href="#DejaVuSans-30"/>
     <use x="615.429688" xlink:href="#DejaVuSans-2d"/>
     <use x="651.513672" xlink:href="#DejaVuSans-44"/>
    </g>
   </g>
   <g id="text_7">
    <!-- v2.1 -->
    <defs>
     <path d="M 2.984375 54.6875 
L 12.5 54.6875 
L 29.59375 8.796875 
L 46.6875 54.6875 
L 56.203125 54.6875 
L 35.6875 0 
L 23.484375 0 
z
" id="DejaVuSans-76"/>
     <path d="M 10.6875 12.40625 
L 21 12.40625 
L 21 0 
L 10.6875 0 
z
" id="DejaVuSans-2e"/>
    </defs>
    <g style="fill:#808080;" transform="translate(178.349063 272.071193)scale(0.1 -0.1)">
     <use xlink:href="#DejaVuSans-76"/>
     <use x="59.179688" xlink:href="#DejaVuSans-32"/>
     <use x="122.802734" xlink:href="#DejaVuSans-2e"/>
     <use x="154.589844" xlink:href="#DejaVuSans-31"/>
    </g>
   </g>
  </g>
 </g>
 <defs>
  <clipPath id="p62f8047596">
   <rect height="266.112" width="357.12" x="10.7" y="10.7"/>
  </clipPath>
 </defs>
</svg>
