<?xml version="1.0" encoding="utf-8" standalone="no"?>
<!DOCTYPE svg PUBLIC "-//W3C//DTD SVG 1.1//EN"
  "http://www.w3.org/Graphics/SVG/1.1/DTD/svg11.dtd">
<!-- Created with matplotlib (http://matplotlib.org/) -->
<svg height="333pt" version="1.1" viewBox="0 0 378 333" width="378pt" xmlns="http://www.w3.org/2000/svg" xmlns:xlink="http://www.w3.org/1999/xlink">
 <defs>
  <style type="text/css">
*{stroke-linecap:butt;stroke-linejoin:round;}
  </style>
 </defs>
 <g id="figure_1">
  <g id="patch_1">
   <path d="M 0 333.7245 
L 378.52 333.7245 
L 378.52 0 
L 0 0 
z
" style="fill:#ffffff;"/>
  </g>
  <g id="axes_1">
   <g id="patch_2">
    <path d="M 10.7 276.812 
L 367.82 276.812 
L 367.82 10.7 
L 10.7 10.7 
z
" style="fill:#ffffff;"/>
   </g>
   <g id="matplotlib.axis_1">
    <g id="xtick_1">
     <g id="line2d_1">
      <path clip-path="url(#p99cf5212c2)" d="M 10.61381 276.812 
L 10.61381 10.7 
" style="fill:none;stroke:#b0b0b0;stroke-linecap:square;stroke-width:0.8;"/>
     </g>
     <g id="line2d_2">
      <defs>
       <path d="M 0 0 
L 0 3.5 
" id="mffda10495e" style="stroke:#000000;stroke-width:0.8;"/>
      </defs>
      <g>
       <use style="stroke:#000000;stroke-width:0.8;" x="10.61381" xlink:href="#mffda10495e" y="276.812"/>
      </g>
     </g>
    </g>
    <g id="xtick_2">
     <g id="line2d_3">
      <path clip-path="url(#p99cf5212c2)" d="M 90.394305 276.812 
L 90.394305 10.7 
" style="fill:none;stroke:#b0b0b0;stroke-linecap:square;stroke-width:0.8;"/>
     </g>
     <g id="line2d_4">
      <g>
       <use style="stroke:#000000;stroke-width:0.8;" x="90.394305" xlink:href="#mffda10495e" y="276.812"/>
      </g>
     </g>
     <g id="text_1">
      <!-- -4 -->
      <defs>
       <path d="M 4.890625 31.390625 
L 31.203125 31.390625 
L 31.203125 23.390625 
L 4.890625 23.390625 
z
" id="DejaVuSans-2d"/>
       <path d="M 37.796875 64.3125 
L 12.890625 25.390625 
L 37.796875 25.390625 
z
M 35.203125 72.90625 
L 47.609375 72.90625 
L 47.609375 25.390625 
L 58.015625 25.390625 
L 58.015625 17.1875 
L 47.609375 17.1875 
L 47.609375 0 
L 37.796875 0 
L 37.796875 17.1875 
L 4.890625 17.1875 
L 4.890625 26.703125 
z
" id="DejaVuSans-34"/>
      </defs>
      <g transform="translate(80.423992 299.008875)scale(0.2 -0.2)">
       <use xlink:href="#DejaVuSans-2d"/>
       <use x="36.083984" xlink:href="#DejaVuSans-34"/>
      </g>
     </g>
    </g>
    <g id="xtick_3">
     <g id="line2d_5">
      <path clip-path="url(#p99cf5212c2)" d="M 170.1748 276.812 
L 170.1748 10.7 
" style="fill:none;stroke:#b0b0b0;stroke-linecap:square;stroke-width:0.8;"/>
     </g>
     <g id="line2d_6">
      <g>
       <use style="stroke:#000000;stroke-width:0.8;" x="170.1748" xlink:href="#mffda10495e" y="276.812"/>
      </g>
     </g>
     <g id="text_2">
      <!-- 0 -->
      <defs>
       <path d="M 31.78125 66.40625 
Q 24.171875 66.40625 20.328125 58.90625 
Q 16.5 51.421875 16.5 36.375 
Q 16.5 21.390625 20.328125 13.890625 
Q 24.171875 6.390625 31.78125 6.390625 
Q 39.453125 6.390625 43.28125 13.890625 
Q 47.125 21.390625 47.125 36.375 
Q 47.125 51.421875 43.28125 58.90625 
Q 39.453125 66.40625 31.78125 66.40625 
z
M 31.78125 74.21875 
Q 44.046875 74.21875 50.515625 64.515625 
Q 56.984375 54.828125 56.984375 36.375 
Q 56.984375 17.96875 50.515625 8.265625 
Q 44.046875 -1.421875 31.78125 -1.421875 
Q 19.53125 -1.421875 13.0625 8.265625 
Q 6.59375 17.96875 6.59375 36.375 
Q 6.59375 54.828125 13.0625 64.515625 
Q 19.53125 74.21875 31.78125 74.21875 
z
" id="DejaVuSans-30"/>
      </defs>
      <g transform="translate(163.8123 299.008875)scale(0.2 -0.2)">
       <use xlink:href="#DejaVuSans-30"/>
      </g>
     </g>
    </g>
    <g id="xtick_4">
     <g id="line2d_7">
      <path clip-path="url(#p99cf5212c2)" d="M 249.955295 276.812 
L 249.955295 10.7 
" style="fill:none;stroke:#b0b0b0;stroke-linecap:square;stroke-width:0.8;"/>
     </g>
     <g id="line2d_8">
      <g>
       <use style="stroke:#000000;stroke-width:0.8;" x="249.955295" xlink:href="#mffda10495e" y="276.812"/>
      </g>
     </g>
     <g id="text_3">
      <!-- 4 -->
      <g transform="translate(243.592795 299.008875)scale(0.2 -0.2)">
       <use xlink:href="#DejaVuSans-34"/>
      </g>
     </g>
    </g>
    <g id="xtick_5">
     <g id="line2d_9">
      <path clip-path="url(#p99cf5212c2)" d="M 329.73579 276.812 
L 329.73579 10.7 
" style="fill:none;stroke:#b0b0b0;stroke-linecap:square;stroke-width:0.8;"/>
     </g>
     <g id="line2d_10">
      <g>
       <use style="stroke:#000000;stroke-width:0.8;" x="329.73579" xlink:href="#mffda10495e" y="276.812"/>
      </g>
     </g>
     <g id="text_4">
      <!-- 8 -->
      <defs>
       <path d="M 31.78125 34.625 
Q 24.75 34.625 20.71875 30.859375 
Q 16.703125 27.09375 16.703125 20.515625 
Q 16.703125 13.921875 20.71875 10.15625 
Q 24.75 6.390625 31.78125 6.390625 
Q 38.8125 6.390625 42.859375 10.171875 
Q 46.921875 13.96875 46.921875 20.515625 
Q 46.921875 27.09375 42.890625 30.859375 
Q 38.875 34.625 31.78125 34.625 
z
M 21.921875 38.8125 
Q 15.578125 40.375 12.03125 44.71875 
Q 8.5 49.078125 8.5 55.328125 
Q 8.5 64.0625 14.71875 69.140625 
Q 20.953125 74.21875 31.78125 74.21875 
Q 42.671875 74.21875 48.875 69.140625 
Q 55.078125 64.0625 55.078125 55.328125 
Q 55.078125 49.078125 51.53125 44.71875 
Q 48 40.375 41.703125 38.8125 
Q 48.828125 37.15625 52.796875 32.3125 
Q 56.78125 27.484375 56.78125 20.515625 
Q 56.78125 9.90625 50.3125 4.234375 
Q 43.84375 -1.421875 31.78125 -1.421875 
Q 19.734375 -1.421875 13.25 4.234375 
Q 6.78125 9.90625 6.78125 20.515625 
Q 6.78125 27.484375 10.78125 32.3125 
Q 14.796875 37.15625 21.921875 38.8125 
z
M 18.3125 54.390625 
Q 18.3125 48.734375 21.84375 45.5625 
Q 25.390625 42.390625 31.78125 42.390625 
Q 38.140625 42.390625 41.71875 45.5625 
Q 45.3125 48.734375 45.3125 54.390625 
Q 45.3125 60.0625 41.71875 63.234375 
Q 38.140625 66.40625 31.78125 66.40625 
Q 25.390625 66.40625 21.84375 63.234375 
Q 18.3125 60.0625 18.3125 54.390625 
z
" id="DejaVuSans-38"/>
      </defs>
      <g transform="translate(323.37329 299.008875)scale(0.2 -0.2)">
       <use xlink:href="#DejaVuSans-38"/>
      </g>
     </g>
    </g>
    <g id="text_5">
     <!-- log10 of Df -->
     <defs>
      <path d="M 9.421875 75.984375 
L 18.40625 75.984375 
L 18.40625 0 
L 9.421875 0 
z
" id="DejaVuSans-6c"/>
      <path d="M 30.609375 48.390625 
Q 23.390625 48.390625 19.1875 42.75 
Q 14.984375 37.109375 14.984375 27.296875 
Q 14.984375 17.484375 19.15625 11.84375 
Q 23.34375 6.203125 30.609375 6.203125 
Q 37.796875 6.203125 41.984375 11.859375 
Q 46.1875 17.53125 46.1875 27.296875 
Q 46.1875 37.015625 41.984375 42.703125 
Q 37.796875 48.390625 30.609375 48.390625 
z
M 30.609375 56 
Q 42.328125 56 49.015625 48.375 
Q 55.71875 40.765625 55.71875 27.296875 
Q 55.71875 13.875 49.015625 6.21875 
Q 42.328125 -1.421875 30.609375 -1.421875 
Q 18.84375 -1.421875 12.171875 6.21875 
Q 5.515625 13.875 5.515625 27.296875 
Q 5.515625 40.765625 12.171875 48.375 
Q 18.84375 56 30.609375 56 
z
" id="DejaVuSans-6f"/>
      <path d="M 45.40625 27.984375 
Q 45.40625 37.75 41.375 43.109375 
Q 37.359375 48.484375 30.078125 48.484375 
Q 22.859375 48.484375 18.828125 43.109375 
Q 14.796875 37.75 14.796875 27.984375 
Q 14.796875 18.265625 18.828125 12.890625 
Q 22.859375 7.515625 30.078125 7.515625 
Q 37.359375 7.515625 41.375 12.890625 
Q 45.40625 18.265625 45.40625 27.984375 
z
M 54.390625 6.78125 
Q 54.390625 -7.171875 48.1875 -13.984375 
Q 42 -20.796875 29.203125 -20.796875 
Q 24.46875 -20.796875 20.265625 -20.09375 
Q 16.0625 -19.390625 12.109375 -17.921875 
L 12.109375 -9.1875 
Q 16.0625 -11.328125 19.921875 -12.34375 
Q 23.78125 -13.375 27.78125 -13.375 
Q 36.625 -13.375 41.015625 -8.765625 
Q 45.40625 -4.15625 45.40625 5.171875 
L 45.40625 9.625 
Q 42.625 4.78125 38.28125 2.390625 
Q 33.9375 0 27.875 0 
Q 17.828125 0 11.671875 7.65625 
Q 5.515625 15.328125 5.515625 27.984375 
Q 5.515625 40.671875 11.671875 48.328125 
Q 17.828125 56 27.875 56 
Q 33.9375 56 38.28125 53.609375 
Q 42.625 51.21875 45.40625 46.390625 
L 45.40625 54.6875 
L 54.390625 54.6875 
z
" id="DejaVuSans-67"/>
      <path d="M 12.40625 8.296875 
L 28.515625 8.296875 
L 28.515625 63.921875 
L 10.984375 60.40625 
L 10.984375 69.390625 
L 28.421875 72.90625 
L 38.28125 72.90625 
L 38.28125 8.296875 
L 54.390625 8.296875 
L 54.390625 0 
L 12.40625 0 
z
" id="DejaVuSans-31"/>
      <path id="DejaVuSans-20"/>
      <path d="M 37.109375 75.984375 
L 37.109375 68.5 
L 28.515625 68.5 
Q 23.6875 68.5 21.796875 66.546875 
Q 19.921875 64.59375 19.921875 59.515625 
L 19.921875 54.6875 
L 34.71875 54.6875 
L 34.71875 47.703125 
L 19.921875 47.703125 
L 19.921875 0 
L 10.890625 0 
L 10.890625 47.703125 
L 2.296875 47.703125 
L 2.296875 54.6875 
L 10.890625 54.6875 
L 10.890625 58.5 
Q 10.890625 67.625 15.140625 71.796875 
Q 19.390625 75.984375 28.609375 75.984375 
z
" id="DejaVuSans-66"/>
      <path d="M 19.671875 64.796875 
L 19.671875 8.109375 
L 31.59375 8.109375 
Q 46.6875 8.109375 53.6875 14.9375 
Q 60.6875 21.78125 60.6875 36.53125 
Q 60.6875 51.171875 53.6875 57.984375 
Q 46.6875 64.796875 31.59375 64.796875 
z
M 9.8125 72.90625 
L 30.078125 72.90625 
Q 51.265625 72.90625 61.171875 64.09375 
Q 71.09375 55.28125 71.09375 36.53125 
Q 71.09375 17.671875 61.125 8.828125 
Q 51.171875 0 30.078125 0 
L 9.8125 0 
z
" id="DejaVuSans-44"/>
     </defs>
     <g transform="translate(134.074063 322.365125)scale(0.2 -0.2)">
      <use xlink:href="#DejaVuSans-6c"/>
      <use x="27.783203" xlink:href="#DejaVuSans-6f"/>
      <use x="88.964844" xlink:href="#DejaVuSans-67"/>
      <use x="152.441406" xlink:href="#DejaVuSans-31"/>
      <use x="216.064453" xlink:href="#DejaVuSans-30"/>
      <use x="279.6875" xlink:href="#DejaVuSans-20"/>
      <use x="311.474609" xlink:href="#DejaVuSans-6f"/>
      <use x="372.65625" xlink:href="#DejaVuSans-66"/>
      <use x="407.861328" xlink:href="#DejaVuSans-20"/>
      <use x="439.648438" xlink:href="#DejaVuSans-44"/>
      <use x="516.650391" xlink:href="#DejaVuSans-66"/>
     </g>
    </g>
   </g>
   <g id="matplotlib.axis_2">
    <g id="ytick_1">
     <g id="line2d_11">
      <path clip-path="url(#p99cf5212c2)" d="M 10.7 276.812 
L 367.82 276.812 
" style="fill:none;stroke:#b0b0b0;stroke-linecap:square;stroke-width:0.8;"/>
     </g>
     <g id="line2d_12">
      <defs>
       <path d="M 0 0 
L -3.5 0 
" id="m17405697fc" style="stroke:#000000;stroke-width:0.8;"/>
      </defs>
      <g>
       <use style="stroke:#000000;stroke-width:0.8;" x="10.7" xlink:href="#m17405697fc" y="276.812"/>
      </g>
     </g>
    </g>
    <g id="ytick_2">
     <g id="line2d_13">
      <path clip-path="url(#p99cf5212c2)" d="M 10.7 224.116554 
L 367.82 224.116554 
" style="fill:none;stroke:#b0b0b0;stroke-linecap:square;stroke-width:0.8;"/>
     </g>
     <g id="line2d_14">
      <g>
       <use style="stroke:#000000;stroke-width:0.8;" x="10.7" xlink:href="#m17405697fc" y="224.116554"/>
      </g>
     </g>
    </g>
    <g id="ytick_3">
     <g id="line2d_15">
      <path clip-path="url(#p99cf5212c2)" d="M 10.7 171.421109 
L 367.82 171.421109 
" style="fill:none;stroke:#b0b0b0;stroke-linecap:square;stroke-width:0.8;"/>
     </g>
     <g id="line2d_16">
      <g>
       <use style="stroke:#000000;stroke-width:0.8;" x="10.7" xlink:href="#m17405697fc" y="171.421109"/>
      </g>
     </g>
    </g>
    <g id="ytick_4">
     <g id="line2d_17">
      <path clip-path="url(#p99cf5212c2)" d="M 10.7 118.725663 
L 367.82 118.725663 
" style="fill:none;stroke:#b0b0b0;stroke-linecap:square;stroke-width:0.8;"/>
     </g>
     <g id="line2d_18">
      <g>
       <use style="stroke:#000000;stroke-width:0.8;" x="10.7" xlink:href="#m17405697fc" y="118.725663"/>
      </g>
     </g>
    </g>
    <g id="ytick_5">
     <g id="line2d_19">
      <path clip-path="url(#p99cf5212c2)" d="M 10.7 66.030218 
L 367.82 66.030218 
" style="fill:none;stroke:#b0b0b0;stroke-linecap:square;stroke-width:0.8;"/>
     </g>
     <g id="line2d_20">
      <g>
       <use style="stroke:#000000;stroke-width:0.8;" x="10.7" xlink:href="#m17405697fc" y="66.030218"/>
      </g>
     </g>
    </g>
    <g id="ytick_6">
     <g id="line2d_21">
      <path clip-path="url(#p99cf5212c2)" d="M 10.7 13.334772 
L 367.82 13.334772 
" style="fill:none;stroke:#b0b0b0;stroke-linecap:square;stroke-width:0.8;"/>
     </g>
     <g id="line2d_22">
      <g>
       <use style="stroke:#000000;stroke-width:0.8;" x="10.7" xlink:href="#m17405697fc" y="13.334772"/>
      </g>
     </g>
    </g>
   </g>
   <g id="line2d_23">
    <path clip-path="url(#p99cf5212c2)" d="M -1 273.29897 
L 152.207861 273.29897 
L 152.207861 269.785941 
L 154.729986 269.785941 
L 154.729986 266.272911 
L 158.18043 266.272911 
L 158.18043 262.759881 
L 165.168217 262.759881 
L 165.263318 255.733822 
L 166.318862 255.733822 
L 166.318862 252.220792 
L 166.983905 252.220792 
L 166.983905 238.168673 
L 169.546164 238.168673 
L 169.546164 234.655644 
L 169.835767 234.655644 
L 169.835767 231.142614 
L 169.955123 231.142614 
L 169.955123 227.629584 
L 170.158889 227.629584 
L 170.158889 224.116554 
L 171.063394 224.116554 
L 171.063394 220.603525 
L 171.571885 220.603525 
L 171.571885 217.090495 
L 172.392698 217.090495 
L 172.466258 210.064436 
L 173.746937 210.064436 
L 173.746937 206.551406 
L 173.913555 206.551406 
L 173.913555 203.038376 
L 174.04339 203.038376 
L 174.04339 199.525347 
L 174.293806 199.525347 
L 174.293806 196.012317 
L 174.657926 196.012317 
L 174.657926 192.499287 
L 174.859618 192.499287 
L 174.859618 188.986257 
L 175.280759 188.986257 
L 175.362631 174.934139 
L 175.577138 174.934139 
L 175.577138 171.421109 
L 175.749518 171.421109 
L 175.801992 164.39505 
L 175.978791 164.39505 
L 175.981753 153.85596 
L 176.365943 153.85596 
L 176.447328 143.316871 
L 176.570626 143.316871 
L 176.570626 139.803842 
L 177.277402 139.803842 
L 177.277402 136.290812 
L 177.511504 136.290812 
L 177.511504 132.777782 
L 178.419946 132.777782 
L 178.419946 125.751723 
L 183.605128 125.751723 
L 183.605128 118.725663 
L 184.223854 118.725663 
L 184.223854 111.699604 
L 187.044107 111.699604 
L 187.044107 108.186574 
L 187.414686 108.186574 
L 187.414686 104.673545 
L 188.956087 104.673545 
L 188.956087 94.134455 
L 190.925392 94.134455 
L 190.925392 90.621426 
L 192.295103 90.621426 
L 192.295103 87.108396 
L 193.388963 87.108396 
L 193.388963 83.595366 
L 196.062029 83.595366 
L 196.062029 80.082337 
L 196.862316 80.082337 
L 196.862316 73.056277 
L 197.670952 73.056277 
L 197.670952 69.543248 
L 201.282092 69.543248 
L 201.282092 66.030218 
L 201.642009 66.030218 
L 201.642009 62.517188 
L 204.29146 62.517188 
L 204.29146 59.004158 
L 205.76447 59.004158 
L 205.76447 55.491129 
L 205.946696 55.491129 
L 205.946696 51.978099 
L 206.304622 51.978099 
L 206.304622 48.465069 
L 206.457876 48.465069 
L 206.457876 44.95204 
L 207.229291 44.95204 
L 207.229291 41.43901 
L 208.152549 41.43901 
L 208.152549 37.92598 
L 208.92233 37.92598 
L 208.92233 34.41295 
L 209.77126 34.41295 
L 209.77126 30.899921 
L 210.232069 30.899921 
L 210.232069 27.386891 
L 210.539051 27.386891 
L 210.585545 20.360832 
L 210.788355 20.360832 
L 210.788355 16.847802 
L 211.634833 16.847802 
L 211.634833 13.334772 
L 211.634833 13.334772 
L 367.82 13.334772 
L 367.82 13.334772 
" style="fill:none;stroke:#ff0000;stroke-linecap:square;stroke-width:3;"/>
   </g>
   <g id="line2d_24">
    <path clip-path="url(#p99cf5212c2)" d="M 185.634022 276.812 
L 185.634022 273.29897 
L 186.216267 273.29897 
L 186.216267 269.785941 
L 186.379036 269.785941 
L 186.47397 262.759881 
L 187.445597 262.759881 
L 187.539852 255.733822 
L 188.083609 255.733822 
L 188.083609 252.220792 
L 188.720648 252.220792 
L 188.720648 248.707762 
L 188.934033 248.707762 
L 188.934033 245.194733 
L 189.202613 245.194733 
L 189.202613 241.681703 
L 189.862568 241.681703 
L 189.862568 238.168673 
L 190.595798 238.168673 
L 190.595798 234.655644 
L 191.143726 234.655644 
L 191.143726 231.142614 
L 191.856 231.142614 
L 191.856 227.629584 
L 192.892989 227.629584 
L 192.892989 224.116554 
L 206.870037 224.116554 
L 206.870037 220.603525 
L 207.138101 220.603525 
L 207.173977 213.577465 
L 207.351938 213.577465 
L 207.450809 206.551406 
L 207.574466 206.551406 
L 207.661591 196.012317 
L 207.717711 196.012317 
L 207.763975 185.473228 
L 207.84457 185.473228 
L 207.880653 178.447168 
L 207.972926 178.447168 
L 208.070844 160.88202 
L 208.094604 160.88202 
L 208.150929 153.85596 
L 208.314244 153.85596 
L 208.406958 129.264752 
L 208.44771 129.264752 
L 208.455465 122.238693 
L 208.573569 122.238693 
L 208.573569 118.725663 
L 217.34324 118.725663 
L 217.34324 115.212634 
L 217.684759 115.212634 
L 217.684759 111.699604 
L 218.220491 111.699604 
L 218.325073 104.673545 
L 218.437241 104.673545 
L 218.437241 101.160515 
L 218.583857 101.160515 
L 218.583857 97.647485 
L 218.933409 97.647485 
L 219.039369 87.108396 
L 219.093068 87.108396 
L 219.116405 80.082337 
L 219.407442 80.082337 
L 219.407442 76.569307 
L 219.604279 76.569307 
L 219.604279 73.056277 
L 219.841823 73.056277 
L 219.841823 69.543248 
L 220.087899 69.543248 
L 220.087899 66.030218 
L 250.637147 66.030218 
L 250.637147 62.517188 
L 251.510551 62.517188 
L 251.510551 59.004158 
L 252.057754 59.004158 
L 252.164424 48.465069 
L 252.356269 48.465069 
L 252.356269 44.95204 
L 252.494875 44.95204 
L 252.494875 41.43901 
L 252.807879 41.43901 
L 252.807879 37.92598 
L 253.142127 37.92598 
L 253.142127 34.41295 
L 253.268622 34.41295 
L 253.268622 30.899921 
L 253.517459 30.899921 
L 253.517459 27.386891 
L 253.710038 27.386891 
L 253.744164 20.360832 
L 254.104892 20.360832 
L 254.104892 16.847802 
L 254.677708 16.847802 
L 254.677708 13.334772 
L 254.677708 13.334772 
L 367.82 13.334772 
L 367.82 13.334772 
" style="fill:none;stroke:#00bfbf;stroke-linecap:square;stroke-width:1.5;"/>
   </g>
   <g id="line2d_25">
    <path clip-path="url(#p99cf5212c2)" d="M 183.731342 276.812 
L 183.731342 273.29897 
L 184.782377 273.29897 
L 184.882861 262.759881 
L 185.313796 262.759881 
L 185.313796 259.246851 
L 185.634022 259.246851 
L 185.634022 255.733822 
L 186.165131 255.733822 
L 186.165131 252.220792 
L 186.31327 252.220792 
L 186.379036 245.194733 
L 186.65107 245.194733 
L 186.65107 241.681703 
L 187.810184 241.681703 
L 187.810184 238.168673 
L 188.083609 238.168673 
L 188.083609 234.655644 
L 188.908448 234.655644 
L 188.991293 227.629584 
L 190.369497 227.629584 
L 190.369497 224.116554 
L 206.271215 224.116554 
L 206.271215 220.603525 
L 206.722594 220.603525 
L 206.722594 217.090495 
L 206.963093 217.090495 
L 207.069667 210.064436 
L 207.334242 210.064436 
L 207.34164 203.038376 
L 207.450284 203.038376 
L 207.505041 192.499287 
L 207.578114 192.499287 
L 207.626958 185.473228 
L 207.745055 185.473228 
L 207.840426 171.421109 
L 207.915954 171.421109 
L 207.969199 157.36899 
L 208.150929 157.36899 
L 208.256421 143.316871 
L 208.266572 143.316871 
L 208.377234 122.238693 
L 208.503483 122.238693 
L 208.503483 118.725663 
L 217.304084 118.725663 
L 217.34324 111.699604 
L 217.454564 111.699604 
L 217.454564 108.186574 
L 217.684759 108.186574 
L 217.684759 104.673545 
L 218.00632 104.673545 
L 218.00632 101.160515 
L 218.181123 101.160515 
L 218.220491 94.134455 
L 218.325073 94.134455 
L 218.406836 87.108396 
L 218.437241 87.108396 
L 218.437241 83.595366 
L 218.583857 83.595366 
L 218.594547 76.569307 
L 218.893641 76.569307 
L 218.973717 69.543248 
L 219.015468 69.543248 
L 219.015468 66.030218 
L 243.98923 66.030218 
L 243.98923 62.517188 
L 246.203011 62.517188 
L 246.203011 59.004158 
L 246.934052 59.004158 
L 246.934052 55.491129 
L 247.519691 55.491129 
L 247.519691 51.978099 
L 248.022284 51.978099 
L 248.022284 48.465069 
L 248.888562 48.465069 
L 248.888562 44.95204 
L 250.298482 44.95204 
L 250.298482 41.43901 
L 250.773049 41.43901 
L 250.773049 37.92598 
L 250.885621 37.92598 
L 250.926677 27.386891 
L 251.217706 27.386891 
L 251.217706 23.873861 
L 251.385872 23.873861 
L 251.39571 16.847802 
L 252.04488 16.847802 
L 252.04488 13.334772 
L 252.04488 13.334772 
L 367.82 13.334772 
L 367.82 13.334772 
" style="fill:none;stroke:#bf00bf;stroke-linecap:square;stroke-width:1.5;"/>
   </g>
   <g id="line2d_26">
    <path clip-path="url(#p99cf5212c2)" d="M 180.561397 276.812 
L 180.561397 273.29897 
L 182.598579 273.29897 
L 182.598579 269.785941 
L 183.731342 269.785941 
L 183.731342 266.272911 
L 184.264936 266.272911 
L 184.264936 262.759881 
L 184.619942 262.759881 
L 184.619942 259.246851 
L 184.782377 259.246851 
L 184.852924 252.220792 
L 185.313796 252.220792 
L 185.313796 248.707762 
L 185.634022 248.707762 
L 185.686855 241.681703 
L 186.31327 241.681703 
L 186.379036 234.655644 
L 186.528848 234.655644 
L 186.528848 231.142614 
L 186.923264 231.142614 
L 186.923264 227.629584 
L 187.474993 227.629584 
L 187.474993 224.116554 
L 203.05409 224.116554 
L 203.05409 220.603525 
L 204.787504 220.603525 
L 204.787504 217.090495 
L 205.188477 217.090495 
L 205.188477 213.577465 
L 206.451104 213.577465 
L 206.451104 210.064436 
L 206.847654 210.064436 
L 206.847654 206.551406 
L 206.959192 206.551406 
L 207.059479 196.012317 
L 207.073443 196.012317 
L 207.156996 188.986257 
L 207.232386 188.986257 
L 207.293453 167.908079 
L 207.375615 167.908079 
L 207.375615 164.39505 
L 207.496048 164.39505 
L 207.576128 157.36899 
L 207.618572 157.36899 
L 207.63355 146.829901 
L 207.859729 146.829901 
L 207.964001 136.290812 
L 208.01537 136.290812 
L 208.063695 129.264752 
L 208.137368 129.264752 
L 208.234124 122.238693 
L 208.355591 122.238693 
L 208.355591 118.725663 
L 217.096918 118.725663 
L 217.096918 115.212634 
L 217.265378 115.212634 
L 217.34324 104.673545 
L 217.490521 104.673545 
L 217.490521 101.160515 
L 217.657782 101.160515 
L 217.684759 94.134455 
L 217.857041 94.134455 
L 217.857041 90.621426 
L 217.997293 90.621426 
L 218.00632 83.595366 
L 218.206026 83.595366 
L 218.249692 76.569307 
L 218.406836 76.569307 
L 218.406836 73.056277 
L 218.780579 73.056277 
L 218.780579 69.543248 
L 218.973717 69.543248 
L 218.973717 66.030218 
L 225.324773 66.030218 
L 225.324773 62.517188 
L 226.713308 62.517188 
L 226.713308 59.004158 
L 230.523766 59.004158 
L 230.523766 55.491129 
L 232.048701 55.491129 
L 232.048701 51.978099 
L 233.1918 51.978099 
L 233.1918 48.465069 
L 235.612809 48.465069 
L 235.612809 44.95204 
L 235.844515 44.95204 
L 235.844515 41.43901 
L 238.615966 41.43901 
L 238.615966 37.92598 
L 239.940685 37.92598 
L 239.940685 34.41295 
L 240.180432 34.41295 
L 240.180432 30.899921 
L 241.260075 30.899921 
L 241.260075 27.386891 
L 241.396211 27.386891 
L 241.418528 20.360832 
L 243.541647 20.360832 
L 243.541647 16.847802 
L 244.625203 16.847802 
L 244.625203 13.334772 
L 244.625203 13.334772 
L 367.82 13.334772 
L 367.82 13.334772 
" style="fill:none;stroke:#000000;stroke-linecap:square;stroke-width:1.5;"/>
   </g>
   <g id="line2d_27">
    <path clip-path="url(#p99cf5212c2)" d="M 180.176772 276.812 
L 180.176772 273.29897 
L 180.561397 273.29897 
L 180.561397 269.785941 
L 180.834861 269.785941 
L 180.834861 266.272911 
L 181.034157 266.272911 
L 181.119723 259.246851 
L 181.303277 259.246851 
L 181.303277 255.733822 
L 181.504897 255.733822 
L 181.504897 252.220792 
L 181.739595 252.220792 
L 181.739595 248.707762 
L 181.979129 248.707762 
L 182.004824 241.681703 
L 182.104249 241.681703 
L 182.106076 234.655644 
L 182.536379 234.655644 
L 182.598579 224.116554 
L 182.79114 224.116554 
L 182.79114 220.603525 
L 183.070724 220.603525 
L 183.070724 217.090495 
L 183.213832 217.090495 
L 183.213832 213.577465 
L 183.731342 213.577465 
L 183.753285 206.551406 
L 184.186472 206.551406 
L 184.264936 196.012317 
L 184.317791 196.012317 
L 184.317791 192.499287 
L 184.553114 192.499287 
L 184.553114 188.986257 
L 184.897479 188.986257 
L 184.897479 185.473228 
L 185.180883 185.473228 
L 185.180883 181.960198 
L 185.672651 181.960198 
L 185.672651 178.447168 
L 185.855937 178.447168 
L 185.855937 174.934139 
L 186.451379 174.934139 
L 186.451379 171.421109 
L 187.067468 171.421109 
L 187.067468 167.908079 
L 188.159202 167.908079 
L 188.159202 164.39505 
L 188.784206 164.39505 
L 188.784206 160.88202 
L 192.935099 160.88202 
L 192.935099 157.36899 
L 196.05295 157.36899 
L 196.05295 153.85596 
L 196.261346 153.85596 
L 196.261346 150.342931 
L 196.63327 150.342931 
L 196.63327 146.829901 
L 197.162686 146.829901 
L 197.162686 143.316871 
L 197.634556 143.316871 
L 197.666249 136.290812 
L 198.196975 136.290812 
L 198.196975 132.777782 
L 198.827799 132.777782 
L 198.827799 129.264752 
L 199.709132 129.264752 
L 199.709132 125.751723 
L 200.163862 125.751723 
L 200.163862 122.238693 
L 200.373697 122.238693 
L 200.373697 118.725663 
L 200.912148 118.725663 
L 200.912148 115.212634 
L 201.03794 115.212634 
L 201.03794 111.699604 
L 201.44824 111.699604 
L 201.494617 104.673545 
L 201.650336 104.673545 
L 201.728959 94.134455 
L 202.376367 94.134455 
L 202.376367 90.621426 
L 202.956833 90.621426 
L 202.956833 87.108396 
L 203.718564 87.108396 
L 203.783844 76.569307 
L 204.007271 76.569307 
L 204.050649 69.543248 
L 206.76556 69.543248 
L 206.76556 66.030218 
L 216.036613 66.030218 
L 216.060447 59.004158 
L 216.54129 59.004158 
L 216.54129 55.491129 
L 216.796851 55.491129 
L 216.882005 48.465069 
L 216.952659 48.465069 
L 216.952659 44.95204 
L 217.096918 44.95204 
L 217.096918 41.43901 
L 217.265378 41.43901 
L 217.34324 30.899921 
L 217.445225 30.899921 
L 217.445225 27.386891 
L 217.789803 27.386891 
L 217.789803 23.873861 
L 217.998575 23.873861 
L 218.086404 13.334772 
L 218.086404 13.334772 
L 367.82 13.334772 
L 367.82 13.334772 
" style="fill:none;stroke:#00bfbf;stroke-linecap:square;stroke-width:1.5;"/>
   </g>
   <g id="line2d_28">
    <path clip-path="url(#p99cf5212c2)" d="M 23.901037 276.812 
L 23.901037 273.29897 
L 166.983918 273.29897 
L 166.986191 262.759881 
L 169.546212 262.759881 
L 169.546212 259.246851 
L 172.466401 259.246851 
L 172.466401 255.733822 
L 173.787203 255.733822 
L 173.787203 252.220792 
L 173.922318 252.220792 
L 173.922318 248.707762 
L 174.0434 248.707762 
L 174.0434 245.194733 
L 174.5258 245.194733 
L 174.5258 241.681703 
L 174.658176 241.681703 
L 174.68545 234.655644 
L 174.860893 234.655644 
L 174.860893 231.142614 
L 175.28076 231.142614 
L 175.298779 220.603525 
L 175.577258 220.603525 
L 175.577258 217.090495 
L 175.837145 217.090495 
L 175.837145 213.577465 
L 175.981753 213.577465 
L 175.982911 203.038376 
L 176.365943 203.038376 
L 176.447553 192.499287 
L 176.570826 192.499287 
L 176.570826 188.986257 
L 177.27741 188.986257 
L 177.27741 185.473228 
L 178.419948 185.473228 
L 178.419952 178.447168 
L 178.625897 178.447168 
L 178.625897 174.934139 
L 179.27572 174.934139 
L 179.27572 171.421109 
L 179.707893 171.421109 
L 179.78753 160.88202 
L 180.399721 160.88202 
L 180.399721 157.36899 
L 180.561397 157.36899 
L 180.583704 150.342931 
L 181.549071 150.342931 
L 181.549071 146.829901 
L 181.694007 146.829901 
L 181.694007 143.316871 
L 181.918786 143.316871 
L 181.955298 136.290812 
L 182.518861 136.290812 
L 182.534514 129.264752 
L 183.011692 129.264752 
L 183.011692 125.751723 
L 183.605131 125.751723 
L 183.60539 118.725663 
L 184.224225 118.725663 
L 184.283382 111.699604 
L 187.045641 111.699604 
L 187.045641 108.186574 
L 187.414687 108.186574 
L 187.414687 104.673545 
L 188.956088 104.673545 
L 188.970306 97.647485 
L 189.247859 97.647485 
L 189.247859 94.134455 
L 190.925409 94.134455 
L 190.925409 90.621426 
L 192.295264 90.621426 
L 192.295264 87.108396 
L 193.388964 87.108396 
L 193.388964 83.595366 
L 196.06203 83.595366 
L 196.06203 80.082337 
L 196.862316 80.082337 
L 196.862765 73.056277 
L 197.670956 73.056277 
L 197.670956 69.543248 
L 205.946699 69.543248 
L 205.946699 66.030218 
L 209.348798 66.030218 
L 209.348798 62.517188 
L 210.266157 62.517188 
L 210.266157 59.004158 
L 210.893555 59.004158 
L 210.978532 51.978099 
L 212.618305 51.978099 
L 212.618305 48.465069 
L 213.735424 48.465069 
L 213.735424 44.95204 
L 214.204171 44.95204 
L 214.204171 41.43901 
L 214.523386 41.43901 
L 214.579941 30.899921 
L 214.669432 30.899921 
L 214.669432 27.386891 
L 214.858756 27.386891 
L 214.858756 23.873861 
L 215.182215 23.873861 
L 215.282627 16.847802 
L 216.196616 16.847802 
L 216.196616 13.334772 
L 216.196616 13.334772 
L 367.82 13.334772 
L 367.82 13.334772 
" style="fill:none;stroke:#bf00bf;stroke-linecap:square;stroke-width:1.5;"/>
   </g>
   <g id="line2d_29">
    <path clip-path="url(#p99cf5212c2)" d="M -1 273.29897 
L 152.207861 273.29897 
L 152.207861 269.785941 
L 154.729986 269.785941 
L 154.729986 266.272911 
L 158.18043 266.272911 
L 158.18043 262.759881 
L 165.168217 262.759881 
L 165.168217 259.246851 
L 166.318862 259.246851 
L 166.318862 255.733822 
L 166.983905 255.733822 
L 166.983905 241.681703 
L 169.546164 241.681703 
L 169.546164 238.168673 
L 169.835767 238.168673 
L 169.835767 234.655644 
L 169.955127 234.655644 
L 169.955127 231.142614 
L 170.158889 231.142614 
L 170.158889 227.629584 
L 171.571885 227.629584 
L 171.571885 224.116554 
L 172.392698 224.116554 
L 172.466258 217.090495 
L 173.746937 217.090495 
L 173.746937 213.577465 
L 173.913555 213.577465 
L 173.913555 210.064436 
L 174.04339 210.064436 
L 174.04339 206.551406 
L 174.293806 206.551406 
L 174.293806 203.038376 
L 174.657926 203.038376 
L 174.657926 199.525347 
L 174.859618 199.525347 
L 174.859618 196.012317 
L 175.280759 196.012317 
L 175.362642 181.960198 
L 175.577138 181.960198 
L 175.577138 178.447168 
L 175.751899 178.447168 
L 175.801992 171.421109 
L 175.978791 171.421109 
L 175.981753 160.88202 
L 176.365943 160.88202 
L 176.447328 150.342931 
L 176.570626 150.342931 
L 176.570626 146.829901 
L 177.277402 146.829901 
L 177.277402 143.316871 
L 177.456051 143.316871 
L 177.511504 136.290812 
L 178.419946 136.290812 
L 178.419946 129.264752 
L 180.8511 129.264752 
L 180.8511 125.751723 
L 183.605128 125.751723 
L 183.605128 118.725663 
L 184.223854 118.725663 
L 184.223854 111.699604 
L 187.044107 111.699604 
L 187.044107 108.186574 
L 187.414686 108.186574 
L 187.414686 104.673545 
L 188.956087 104.673545 
L 188.956087 94.134455 
L 190.925392 94.134455 
L 190.925392 90.621426 
L 192.295103 90.621426 
L 192.295103 87.108396 
L 193.388963 87.108396 
L 193.388963 83.595366 
L 196.062029 83.595366 
L 196.062029 80.082337 
L 196.862316 80.082337 
L 196.862316 73.056277 
L 197.670952 73.056277 
L 197.670952 69.543248 
L 201.282092 69.543248 
L 201.282092 66.030218 
L 201.642009 66.030218 
L 201.642009 62.517188 
L 204.29146 62.517188 
L 204.29146 59.004158 
L 205.76447 59.004158 
L 205.76447 55.491129 
L 205.946696 55.491129 
L 205.946696 51.978099 
L 206.304622 51.978099 
L 206.304622 48.465069 
L 206.457876 48.465069 
L 206.457876 44.95204 
L 207.229291 44.95204 
L 207.229291 41.43901 
L 208.152549 41.43901 
L 208.152549 37.92598 
L 208.92233 37.92598 
L 208.92233 34.41295 
L 209.77126 34.41295 
L 209.77126 30.899921 
L 210.232069 30.899921 
L 210.232069 27.386891 
L 210.539051 27.386891 
L 210.585545 20.360832 
L 210.788355 20.360832 
L 210.788355 16.847802 
L 211.634833 16.847802 
L 211.634833 13.334772 
L 211.634833 13.334772 
L 367.82 13.334772 
L 367.82 13.334772 
" style="fill:none;stroke:#000000;stroke-linecap:square;stroke-width:1.5;"/>
   </g>
   <g id="patch_3">
    <path d="M 10.7 276.812 
L 10.7 10.7 
" style="fill:none;stroke:#000000;stroke-linecap:square;stroke-linejoin:miter;stroke-width:0.8;"/>
   </g>
   <g id="patch_4">
    <path d="M 367.82 276.812 
L 367.82 10.7 
" style="fill:none;stroke:#000000;stroke-linecap:square;stroke-linejoin:miter;stroke-width:0.8;"/>
   </g>
   <g id="patch_5">
    <path d="M 10.7 276.812 
L 367.82 276.812 
" style="fill:none;stroke:#000000;stroke-linecap:square;stroke-linejoin:miter;stroke-width:0.8;"/>
   </g>
   <g id="patch_6">
    <path d="M 10.7 10.7 
L 367.82 10.7 
" style="fill:none;stroke:#000000;stroke-linecap:square;stroke-linejoin:miter;stroke-width:0.8;"/>
   </g>
   <g id="text_6">
    <!-- {f20-f24}, 20-D -->
    <defs>
     <path d="M 51.125 -9.28125 
L 51.125 -16.3125 
L 48.09375 -16.3125 
Q 35.9375 -16.3125 31.8125 -12.6875 
Q 27.6875 -9.078125 27.6875 1.703125 
L 27.6875 13.375 
Q 27.6875 20.75 25.046875 23.578125 
Q 22.40625 26.421875 15.484375 26.421875 
L 12.5 26.421875 
L 12.5 33.40625 
L 15.484375 33.40625 
Q 22.46875 33.40625 25.078125 36.203125 
Q 27.6875 39.015625 27.6875 46.296875 
L 27.6875 58.015625 
Q 27.6875 68.796875 31.8125 72.390625 
Q 35.9375 75.984375 48.09375 75.984375 
L 51.125 75.984375 
L 51.125 69 
L 47.796875 69 
Q 40.921875 69 38.8125 66.84375 
Q 36.71875 64.703125 36.71875 57.8125 
L 36.71875 45.703125 
Q 36.71875 38.03125 34.5 34.5625 
Q 32.28125 31.109375 26.90625 29.890625 
Q 32.328125 28.5625 34.515625 25.09375 
Q 36.71875 21.625 36.71875 14.015625 
L 36.71875 1.90625 
Q 36.71875 -4.984375 38.8125 -7.125 
Q 40.921875 -9.28125 47.796875 -9.28125 
z
" id="DejaVuSans-7b"/>
     <path d="M 19.1875 8.296875 
L 53.609375 8.296875 
L 53.609375 0 
L 7.328125 0 
L 7.328125 8.296875 
Q 12.9375 14.109375 22.625 23.890625 
Q 32.328125 33.6875 34.8125 36.53125 
Q 39.546875 41.84375 41.421875 45.53125 
Q 43.3125 49.21875 43.3125 52.78125 
Q 43.3125 58.59375 39.234375 62.25 
Q 35.15625 65.921875 28.609375 65.921875 
Q 23.96875 65.921875 18.8125 64.3125 
Q 13.671875 62.703125 7.8125 59.421875 
L 7.8125 69.390625 
Q 13.765625 71.78125 18.9375 73 
Q 24.125 74.21875 28.421875 74.21875 
Q 39.75 74.21875 46.484375 68.546875 
Q 53.21875 62.890625 53.21875 53.421875 
Q 53.21875 48.921875 51.53125 44.890625 
Q 49.859375 40.875 45.40625 35.40625 
Q 44.1875 33.984375 37.640625 27.21875 
Q 31.109375 20.453125 19.1875 8.296875 
z
" id="DejaVuSans-32"/>
     <path d="M 12.5 -9.28125 
L 15.921875 -9.28125 
Q 22.75 -9.28125 24.828125 -7.171875 
Q 26.90625 -5.078125 26.90625 1.90625 
L 26.90625 14.015625 
Q 26.90625 21.625 29.09375 25.09375 
Q 31.296875 28.5625 36.71875 29.890625 
Q 31.296875 31.109375 29.09375 34.5625 
Q 26.90625 38.03125 26.90625 45.703125 
L 26.90625 57.8125 
Q 26.90625 64.75 24.828125 66.875 
Q 22.75 69 15.921875 69 
L 12.5 69 
L 12.5 75.984375 
L 15.578125 75.984375 
Q 27.734375 75.984375 31.8125 72.390625 
Q 35.890625 68.796875 35.890625 58.015625 
L 35.890625 46.296875 
Q 35.890625 39.015625 38.515625 36.203125 
Q 41.15625 33.40625 48.09375 33.40625 
L 51.125 33.40625 
L 51.125 26.421875 
L 48.09375 26.421875 
Q 41.15625 26.421875 38.515625 23.578125 
Q 35.890625 20.75 35.890625 13.375 
L 35.890625 1.703125 
Q 35.890625 -9.078125 31.8125 -12.6875 
Q 27.734375 -16.3125 15.578125 -16.3125 
L 12.5 -16.3125 
z
" id="DejaVuSans-7d"/>
     <path d="M 11.71875 12.40625 
L 22.015625 12.40625 
L 22.015625 4 
L 14.015625 -11.625 
L 7.71875 -11.625 
L 11.71875 4 
z
" id="DejaVuSans-2c"/>
    </defs>
    <g transform="translate(202.2526 271.48976)scale(0.2 -0.2)">
     <use xlink:href="#DejaVuSans-7b"/>
     <use x="63.623047" xlink:href="#DejaVuSans-66"/>
     <use x="98.828125" xlink:href="#DejaVuSans-32"/>
     <use x="162.451172" xlink:href="#DejaVuSans-30"/>
     <use x="226.074219" xlink:href="#DejaVuSans-2d"/>
     <use x="262.158203" xlink:href="#DejaVuSans-66"/>
     <use x="297.363281" xlink:href="#DejaVuSans-32"/>
     <use x="360.986328" xlink:href="#DejaVuSans-34"/>
     <use x="424.609375" xlink:href="#DejaVuSans-7d"/>
     <use x="488.232422" xlink:href="#DejaVuSans-2c"/>
     <use x="520.019531" xlink:href="#DejaVuSans-20"/>
     <use x="551.806641" xlink:href="#DejaVuSans-32"/>
     <use x="615.429688" xlink:href="#DejaVuSans-30"/>
     <use x="679.052734" xlink:href="#DejaVuSans-2d"/>
     <use x="715.136719" xlink:href="#DejaVuSans-44"/>
    </g>
   </g>
   <g id="text_7">
    <!-- v2.1 -->
    <defs>
     <path d="M 2.984375 54.6875 
L 12.5 54.6875 
L 29.59375 8.796875 
L 46.6875 54.6875 
L 56.203125 54.6875 
L 35.6875 0 
L 23.484375 0 
z
" id="DejaVuSans-76"/>
     <path d="M 10.6875 12.40625 
L 21 12.40625 
L 21 0 
L 10.6875 0 
z
" id="DejaVuSans-2e"/>
    </defs>
    <g style="fill:#808080;" transform="translate(178.349063 272.071193)scale(0.1 -0.1)">
     <use xlink:href="#DejaVuSans-76"/>
     <use x="59.179688" xlink:href="#DejaVuSans-32"/>
     <use x="122.802734" xlink:href="#DejaVuSans-2e"/>
     <use x="154.589844" xlink:href="#DejaVuSans-31"/>
    </g>
   </g>
  </g>
 </g>
 <defs>
  <clipPath id="p99cf5212c2">
   <rect height="266.112" width="357.12" x="10.7" y="10.7"/>
  </clipPath>
 </defs>
</svg>
