<?xml version="1.0" encoding="utf-8" standalone="no"?>
<!DOCTYPE svg PUBLIC "-//W3C//DTD SVG 1.1//EN"
  "http://www.w3.org/Graphics/SVG/1.1/DTD/svg11.dtd">
<!-- Created with matplotlib (http://matplotlib.org/) -->
<svg height="333pt" version="1.1" viewBox="0 0 378 333" width="378pt" xmlns="http://www.w3.org/2000/svg" xmlns:xlink="http://www.w3.org/1999/xlink">
 <defs>
  <style type="text/css">
*{stroke-linecap:butt;stroke-linejoin:round;}
  </style>
 </defs>
 <g id="figure_1">
  <g id="patch_1">
   <path d="M 0 333.7245 
L 378.52 333.7245 
L 378.52 0 
L 0 0 
z
" style="fill:#ffffff;"/>
  </g>
  <g id="axes_1">
   <g id="patch_2">
    <path d="M 10.7 276.812 
L 367.82 276.812 
L 367.82 10.7 
L 10.7 10.7 
z
" style="fill:#ffffff;"/>
   </g>
   <g id="matplotlib.axis_1">
    <g id="xtick_1">
     <g id="line2d_1">
      <path clip-path="url(#p08d204dd7e)" d="M 10.61312 276.812 
L 10.61312 10.7 
" style="fill:none;stroke:#b0b0b0;stroke-linecap:square;stroke-width:0.8;"/>
     </g>
     <g id="line2d_2">
      <defs>
       <path d="M 0 0 
L 0 3.5 
" id="m36c7ca704c" style="stroke:#000000;stroke-width:0.8;"/>
      </defs>
      <g>
       <use style="stroke:#000000;stroke-width:0.8;" x="10.61312" xlink:href="#m36c7ca704c" y="276.812"/>
      </g>
     </g>
    </g>
    <g id="xtick_2">
     <g id="line2d_3">
      <path clip-path="url(#p08d204dd7e)" d="M 91.032378 276.812 
L 91.032378 10.7 
" style="fill:none;stroke:#b0b0b0;stroke-linecap:square;stroke-width:0.8;"/>
     </g>
     <g id="line2d_4">
      <g>
       <use style="stroke:#000000;stroke-width:0.8;" x="91.032378" xlink:href="#m36c7ca704c" y="276.812"/>
      </g>
     </g>
     <g id="text_1">
      <!-- -4 -->
      <defs>
       <path d="M 4.890625 31.390625 
L 31.203125 31.390625 
L 31.203125 23.390625 
L 4.890625 23.390625 
z
" id="DejaVuSans-2d"/>
       <path d="M 37.796875 64.3125 
L 12.890625 25.390625 
L 37.796875 25.390625 
z
M 35.203125 72.90625 
L 47.609375 72.90625 
L 47.609375 25.390625 
L 58.015625 25.390625 
L 58.015625 17.1875 
L 47.609375 17.1875 
L 47.609375 0 
L 37.796875 0 
L 37.796875 17.1875 
L 4.890625 17.1875 
L 4.890625 26.703125 
z
" id="DejaVuSans-34"/>
      </defs>
      <g transform="translate(81.062066 299.008875)scale(0.2 -0.2)">
       <use xlink:href="#DejaVuSans-2d"/>
       <use x="36.083984" xlink:href="#DejaVuSans-34"/>
      </g>
     </g>
    </g>
    <g id="xtick_3">
     <g id="line2d_5">
      <path clip-path="url(#p08d204dd7e)" d="M 171.451637 276.812 
L 171.451637 10.7 
" style="fill:none;stroke:#b0b0b0;stroke-linecap:square;stroke-width:0.8;"/>
     </g>
     <g id="line2d_6">
      <g>
       <use style="stroke:#000000;stroke-width:0.8;" x="171.451637" xlink:href="#m36c7ca704c" y="276.812"/>
      </g>
     </g>
     <g id="text_2">
      <!-- 0 -->
      <defs>
       <path d="M 31.78125 66.40625 
Q 24.171875 66.40625 20.328125 58.90625 
Q 16.5 51.421875 16.5 36.375 
Q 16.5 21.390625 20.328125 13.890625 
Q 24.171875 6.390625 31.78125 6.390625 
Q 39.453125 6.390625 43.28125 13.890625 
Q 47.125 21.390625 47.125 36.375 
Q 47.125 51.421875 43.28125 58.90625 
Q 39.453125 66.40625 31.78125 66.40625 
z
M 31.78125 74.21875 
Q 44.046875 74.21875 50.515625 64.515625 
Q 56.984375 54.828125 56.984375 36.375 
Q 56.984375 17.96875 50.515625 8.265625 
Q 44.046875 -1.421875 31.78125 -1.421875 
Q 19.53125 -1.421875 13.0625 8.265625 
Q 6.59375 17.96875 6.59375 36.375 
Q 6.59375 54.828125 13.0625 64.515625 
Q 19.53125 74.21875 31.78125 74.21875 
z
" id="DejaVuSans-30"/>
      </defs>
      <g transform="translate(165.089137 299.008875)scale(0.2 -0.2)">
       <use xlink:href="#DejaVuSans-30"/>
      </g>
     </g>
    </g>
    <g id="xtick_4">
     <g id="line2d_7">
      <path clip-path="url(#p08d204dd7e)" d="M 251.870895 276.812 
L 251.870895 10.7 
" style="fill:none;stroke:#b0b0b0;stroke-linecap:square;stroke-width:0.8;"/>
     </g>
     <g id="line2d_8">
      <g>
       <use style="stroke:#000000;stroke-width:0.8;" x="251.870895" xlink:href="#m36c7ca704c" y="276.812"/>
      </g>
     </g>
     <g id="text_3">
      <!-- 4 -->
      <g transform="translate(245.508395 299.008875)scale(0.2 -0.2)">
       <use xlink:href="#DejaVuSans-34"/>
      </g>
     </g>
    </g>
    <g id="xtick_5">
     <g id="line2d_9">
      <path clip-path="url(#p08d204dd7e)" d="M 332.290153 276.812 
L 332.290153 10.7 
" style="fill:none;stroke:#b0b0b0;stroke-linecap:square;stroke-width:0.8;"/>
     </g>
     <g id="line2d_10">
      <g>
       <use style="stroke:#000000;stroke-width:0.8;" x="332.290153" xlink:href="#m36c7ca704c" y="276.812"/>
      </g>
     </g>
     <g id="text_4">
      <!-- 8 -->
      <defs>
       <path d="M 31.78125 34.625 
Q 24.75 34.625 20.71875 30.859375 
Q 16.703125 27.09375 16.703125 20.515625 
Q 16.703125 13.921875 20.71875 10.15625 
Q 24.75 6.390625 31.78125 6.390625 
Q 38.8125 6.390625 42.859375 10.171875 
Q 46.921875 13.96875 46.921875 20.515625 
Q 46.921875 27.09375 42.890625 30.859375 
Q 38.875 34.625 31.78125 34.625 
z
M 21.921875 38.8125 
Q 15.578125 40.375 12.03125 44.71875 
Q 8.5 49.078125 8.5 55.328125 
Q 8.5 64.0625 14.71875 69.140625 
Q 20.953125 74.21875 31.78125 74.21875 
Q 42.671875 74.21875 48.875 69.140625 
Q 55.078125 64.0625 55.078125 55.328125 
Q 55.078125 49.078125 51.53125 44.71875 
Q 48 40.375 41.703125 38.8125 
Q 48.828125 37.15625 52.796875 32.3125 
Q 56.78125 27.484375 56.78125 20.515625 
Q 56.78125 9.90625 50.3125 4.234375 
Q 43.84375 -1.421875 31.78125 -1.421875 
Q 19.734375 -1.421875 13.25 4.234375 
Q 6.78125 9.90625 6.78125 20.515625 
Q 6.78125 27.484375 10.78125 32.3125 
Q 14.796875 37.15625 21.921875 38.8125 
z
M 18.3125 54.390625 
Q 18.3125 48.734375 21.84375 45.5625 
Q 25.390625 42.390625 31.78125 42.390625 
Q 38.140625 42.390625 41.71875 45.5625 
Q 45.3125 48.734375 45.3125 54.390625 
Q 45.3125 60.0625 41.71875 63.234375 
Q 38.140625 66.40625 31.78125 66.40625 
Q 25.390625 66.40625 21.84375 63.234375 
Q 18.3125 60.0625 18.3125 54.390625 
z
" id="DejaVuSans-38"/>
      </defs>
      <g transform="translate(325.927653 299.008875)scale(0.2 -0.2)">
       <use xlink:href="#DejaVuSans-38"/>
      </g>
     </g>
    </g>
    <g id="text_5">
     <!-- log10 of Df -->
     <defs>
      <path d="M 9.421875 75.984375 
L 18.40625 75.984375 
L 18.40625 0 
L 9.421875 0 
z
" id="DejaVuSans-6c"/>
      <path d="M 30.609375 48.390625 
Q 23.390625 48.390625 19.1875 42.75 
Q 14.984375 37.109375 14.984375 27.296875 
Q 14.984375 17.484375 19.15625 11.84375 
Q 23.34375 6.203125 30.609375 6.203125 
Q 37.796875 6.203125 41.984375 11.859375 
Q 46.1875 17.53125 46.1875 27.296875 
Q 46.1875 37.015625 41.984375 42.703125 
Q 37.796875 48.390625 30.609375 48.390625 
z
M 30.609375 56 
Q 42.328125 56 49.015625 48.375 
Q 55.71875 40.765625 55.71875 27.296875 
Q 55.71875 13.875 49.015625 6.21875 
Q 42.328125 -1.421875 30.609375 -1.421875 
Q 18.84375 -1.421875 12.171875 6.21875 
Q 5.515625 13.875 5.515625 27.296875 
Q 5.515625 40.765625 12.171875 48.375 
Q 18.84375 56 30.609375 56 
z
" id="DejaVuSans-6f"/>
      <path d="M 45.40625 27.984375 
Q 45.40625 37.75 41.375 43.109375 
Q 37.359375 48.484375 30.078125 48.484375 
Q 22.859375 48.484375 18.828125 43.109375 
Q 14.796875 37.75 14.796875 27.984375 
Q 14.796875 18.265625 18.828125 12.890625 
Q 22.859375 7.515625 30.078125 7.515625 
Q 37.359375 7.515625 41.375 12.890625 
Q 45.40625 18.265625 45.40625 27.984375 
z
M 54.390625 6.78125 
Q 54.390625 -7.171875 48.1875 -13.984375 
Q 42 -20.796875 29.203125 -20.796875 
Q 24.46875 -20.796875 20.265625 -20.09375 
Q 16.0625 -19.390625 12.109375 -17.921875 
L 12.109375 -9.1875 
Q 16.0625 -11.328125 19.921875 -12.34375 
Q 23.78125 -13.375 27.78125 -13.375 
Q 36.625 -13.375 41.015625 -8.765625 
Q 45.40625 -4.15625 45.40625 5.171875 
L 45.40625 9.625 
Q 42.625 4.78125 38.28125 2.390625 
Q 33.9375 0 27.875 0 
Q 17.828125 0 11.671875 7.65625 
Q 5.515625 15.328125 5.515625 27.984375 
Q 5.515625 40.671875 11.671875 48.328125 
Q 17.828125 56 27.875 56 
Q 33.9375 56 38.28125 53.609375 
Q 42.625 51.21875 45.40625 46.390625 
L 45.40625 54.6875 
L 54.390625 54.6875 
z
" id="DejaVuSans-67"/>
      <path d="M 12.40625 8.296875 
L 28.515625 8.296875 
L 28.515625 63.921875 
L 10.984375 60.40625 
L 10.984375 69.390625 
L 28.421875 72.90625 
L 38.28125 72.90625 
L 38.28125 8.296875 
L 54.390625 8.296875 
L 54.390625 0 
L 12.40625 0 
z
" id="DejaVuSans-31"/>
      <path id="DejaVuSans-20"/>
      <path d="M 37.109375 75.984375 
L 37.109375 68.5 
L 28.515625 68.5 
Q 23.6875 68.5 21.796875 66.546875 
Q 19.921875 64.59375 19.921875 59.515625 
L 19.921875 54.6875 
L 34.71875 54.6875 
L 34.71875 47.703125 
L 19.921875 47.703125 
L 19.921875 0 
L 10.890625 0 
L 10.890625 47.703125 
L 2.296875 47.703125 
L 2.296875 54.6875 
L 10.890625 54.6875 
L 10.890625 58.5 
Q 10.890625 67.625 15.140625 71.796875 
Q 19.390625 75.984375 28.609375 75.984375 
z
" id="DejaVuSans-66"/>
      <path d="M 19.671875 64.796875 
L 19.671875 8.109375 
L 31.59375 8.109375 
Q 46.6875 8.109375 53.6875 14.9375 
Q 60.6875 21.78125 60.6875 36.53125 
Q 60.6875 51.171875 53.6875 57.984375 
Q 46.6875 64.796875 31.59375 64.796875 
z
M 9.8125 72.90625 
L 30.078125 72.90625 
Q 51.265625 72.90625 61.171875 64.09375 
Q 71.09375 55.28125 71.09375 36.53125 
Q 71.09375 17.671875 61.125 8.828125 
Q 51.171875 0 30.078125 0 
L 9.8125 0 
z
" id="DejaVuSans-44"/>
     </defs>
     <g transform="translate(134.074063 322.365125)scale(0.2 -0.2)">
      <use xlink:href="#DejaVuSans-6c"/>
      <use x="27.783203" xlink:href="#DejaVuSans-6f"/>
      <use x="88.964844" xlink:href="#DejaVuSans-67"/>
      <use x="152.441406" xlink:href="#DejaVuSans-31"/>
      <use x="216.064453" xlink:href="#DejaVuSans-30"/>
      <use x="279.6875" xlink:href="#DejaVuSans-20"/>
      <use x="311.474609" xlink:href="#DejaVuSans-6f"/>
      <use x="372.65625" xlink:href="#DejaVuSans-66"/>
      <use x="407.861328" xlink:href="#DejaVuSans-20"/>
      <use x="439.648438" xlink:href="#DejaVuSans-44"/>
      <use x="516.650391" xlink:href="#DejaVuSans-66"/>
     </g>
    </g>
   </g>
   <g id="matplotlib.axis_2">
    <g id="ytick_1">
     <g id="line2d_11">
      <path clip-path="url(#p08d204dd7e)" d="M 10.7 276.812 
L 367.82 276.812 
" style="fill:none;stroke:#b0b0b0;stroke-linecap:square;stroke-width:0.8;"/>
     </g>
     <g id="line2d_12">
      <defs>
       <path d="M 0 0 
L -3.5 0 
" id="m1d922450ca" style="stroke:#000000;stroke-width:0.8;"/>
      </defs>
      <g>
       <use style="stroke:#000000;stroke-width:0.8;" x="10.7" xlink:href="#m1d922450ca" y="276.812"/>
      </g>
     </g>
    </g>
    <g id="ytick_2">
     <g id="line2d_13">
      <path clip-path="url(#p08d204dd7e)" d="M 10.7 224.116554 
L 367.82 224.116554 
" style="fill:none;stroke:#b0b0b0;stroke-linecap:square;stroke-width:0.8;"/>
     </g>
     <g id="line2d_14">
      <g>
       <use style="stroke:#000000;stroke-width:0.8;" x="10.7" xlink:href="#m1d922450ca" y="224.116554"/>
      </g>
     </g>
    </g>
    <g id="ytick_3">
     <g id="line2d_15">
      <path clip-path="url(#p08d204dd7e)" d="M 10.7 171.421109 
L 367.82 171.421109 
" style="fill:none;stroke:#b0b0b0;stroke-linecap:square;stroke-width:0.8;"/>
     </g>
     <g id="line2d_16">
      <g>
       <use style="stroke:#000000;stroke-width:0.8;" x="10.7" xlink:href="#m1d922450ca" y="171.421109"/>
      </g>
     </g>
    </g>
    <g id="ytick_4">
     <g id="line2d_17">
      <path clip-path="url(#p08d204dd7e)" d="M 10.7 118.725663 
L 367.82 118.725663 
" style="fill:none;stroke:#b0b0b0;stroke-linecap:square;stroke-width:0.8;"/>
     </g>
     <g id="line2d_18">
      <g>
       <use style="stroke:#000000;stroke-width:0.8;" x="10.7" xlink:href="#m1d922450ca" y="118.725663"/>
      </g>
     </g>
    </g>
    <g id="ytick_5">
     <g id="line2d_19">
      <path clip-path="url(#p08d204dd7e)" d="M 10.7 66.030218 
L 367.82 66.030218 
" style="fill:none;stroke:#b0b0b0;stroke-linecap:square;stroke-width:0.8;"/>
     </g>
     <g id="line2d_20">
      <g>
       <use style="stroke:#000000;stroke-width:0.8;" x="10.7" xlink:href="#m1d922450ca" y="66.030218"/>
      </g>
     </g>
    </g>
    <g id="ytick_6">
     <g id="line2d_21">
      <path clip-path="url(#p08d204dd7e)" d="M 10.7 13.334772 
L 367.82 13.334772 
" style="fill:none;stroke:#b0b0b0;stroke-linecap:square;stroke-width:0.8;"/>
     </g>
     <g id="line2d_22">
      <g>
       <use style="stroke:#000000;stroke-width:0.8;" x="10.7" xlink:href="#m1d922450ca" y="13.334772"/>
      </g>
     </g>
    </g>
   </g>
   <g id="line2d_23">
    <path clip-path="url(#p08d204dd7e)" d="M 75.578783 276.812 
L 75.578783 273.29897 
L 78.20315 273.29897 
L 78.20315 269.785941 
L 79.138789 269.785941 
L 79.138789 266.272911 
L 85.872552 266.272911 
L 85.872552 262.759881 
L 86.579046 262.759881 
L 86.579046 259.246851 
L 87.683851 259.246851 
L 87.683851 255.733822 
L 89.765488 255.733822 
L 89.765488 252.220792 
L 91.826558 252.220792 
L 91.866311 245.194733 
L 93.713303 245.194733 
L 93.713303 241.681703 
L 94.54019 241.681703 
L 94.54019 238.168673 
L 94.840462 238.168673 
L 94.840462 234.655644 
L 95.552049 234.655644 
L 95.552049 231.142614 
L 95.709341 231.142614 
L 95.709341 227.629584 
L 96.206811 227.629584 
L 96.206811 224.116554 
L 142.60496 224.116554 
L 142.60496 220.603525 
L 144.072313 220.603525 
L 144.072313 217.090495 
L 147.279483 217.090495 
L 147.279483 213.577465 
L 150.151483 213.577465 
L 150.151483 210.064436 
L 155.97351 210.064436 
L 155.97351 206.551406 
L 157.526654 206.551406 
L 157.526654 203.038376 
L 163.567468 203.038376 
L 163.567468 199.525347 
L 170.662468 199.525347 
L 170.662468 196.012317 
L 171.187315 196.012317 
L 171.187315 192.499287 
L 171.728294 192.499287 
L 171.728294 188.986257 
L 172.533675 188.986257 
L 172.533675 185.473228 
L 175.304039 185.473228 
L 175.304039 181.960198 
L 175.662949 181.960198 
L 175.662949 178.447168 
L 180.015688 178.447168 
L 180.015688 174.934139 
L 180.258181 174.934139 
L 180.258181 171.421109 
L 182.400843 171.421109 
L 182.400843 167.908079 
L 182.586548 167.908079 
L 182.586548 164.39505 
L 182.852475 164.39505 
L 182.852475 160.88202 
L 183.47201 160.88202 
L 183.47201 157.36899 
L 184.450976 157.36899 
L 184.450976 153.85596 
L 186.391449 153.85596 
L 186.391449 150.342931 
L 186.925076 150.342931 
L 186.925076 146.829901 
L 188.185113 146.829901 
L 188.185113 143.316871 
L 188.35694 143.316871 
L 188.35694 139.803842 
L 189.451934 139.803842 
L 189.451934 136.290812 
L 189.701549 136.290812 
L 189.739601 129.264752 
L 190.076625 129.264752 
L 190.076625 125.751723 
L 190.69688 125.751723 
L 190.69688 122.238693 
L 191.210288 122.238693 
L 191.210288 118.725663 
L 192.177862 118.725663 
L 192.177862 115.212634 
L 193.386786 115.212634 
L 193.386786 111.699604 
L 194.058812 111.699604 
L 194.058812 108.186574 
L 194.709881 108.186574 
L 194.709881 104.673545 
L 195.5408 104.673545 
L 195.5408 101.160515 
L 195.751504 101.160515 
L 195.751504 97.647485 
L 196.036477 97.647485 
L 196.04601 90.621426 
L 196.222828 90.621426 
L 196.222828 87.108396 
L 196.347457 87.108396 
L 196.347457 83.595366 
L 196.499017 83.595366 
L 196.499017 80.082337 
L 198.394548 80.082337 
L 198.394548 76.569307 
L 198.82668 76.569307 
L 198.82668 73.056277 
L 199.517911 73.056277 
L 199.517911 69.543248 
L 199.91327 69.543248 
L 199.91327 66.030218 
L 200.442876 66.030218 
L 200.442876 62.517188 
L 202.298241 62.517188 
L 202.298241 59.004158 
L 202.445898 59.004158 
L 202.445898 55.491129 
L 203.368431 55.491129 
L 203.368431 51.978099 
L 204.413807 51.978099 
L 204.413807 48.465069 
L 205.479103 48.465069 
L 205.479103 44.95204 
L 209.764718 44.95204 
L 209.764718 41.43901 
L 210.461763 41.43901 
L 210.461763 37.92598 
L 210.674663 37.92598 
L 210.674663 34.41295 
L 212.925767 34.41295 
L 212.925767 30.899921 
L 216.339377 30.899921 
L 216.339377 27.386891 
L 216.90744 27.386891 
L 216.90744 23.873861 
L 219.150897 23.873861 
L 219.150897 20.360832 
L 221.266865 20.360832 
L 221.266865 16.847802 
L 226.296252 16.847802 
L 226.296252 13.334772 
L 226.296252 13.334772 
L 367.82 13.334772 
L 367.82 13.334772 
" style="fill:none;stroke:#ff0000;stroke-linecap:square;stroke-width:3;"/>
   </g>
   <g id="line2d_24">
    <path clip-path="url(#p08d204dd7e)" d="M 185.514395 276.812 
L 185.514395 273.29897 
L 186.542566 273.29897 
L 186.542566 269.785941 
L 188.885178 269.785941 
L 188.885178 266.272911 
L 192.204615 266.272911 
L 192.204615 262.759881 
L 193.94995 262.759881 
L 193.94995 259.246851 
L 197.632861 259.246851 
L 197.632861 255.733822 
L 198.201983 255.733822 
L 198.201983 252.220792 
L 198.904552 252.220792 
L 198.904552 248.707762 
L 199.866288 248.707762 
L 199.866288 245.194733 
L 200.781475 245.194733 
L 200.781475 241.681703 
L 201.667199 241.681703 
L 201.667199 238.168673 
L 201.831472 238.168673 
L 201.831472 234.655644 
L 203.588331 234.655644 
L 203.588331 231.142614 
L 204.507264 231.142614 
L 204.507264 227.629584 
L 206.557591 227.629584 
L 206.557591 224.116554 
L 226.538164 224.116554 
L 226.538164 220.603525 
L 229.227367 220.603525 
L 229.227367 217.090495 
L 229.647968 217.090495 
L 229.647968 213.577465 
L 229.998135 213.577465 
L 230.08721 206.551406 
L 230.409768 206.551406 
L 230.409768 203.038376 
L 231.356643 203.038376 
L 231.356643 199.525347 
L 231.814847 199.525347 
L 231.814847 196.012317 
L 232.069812 196.012317 
L 232.17641 188.986257 
L 233.107644 188.986257 
L 233.186774 181.960198 
L 233.811683 181.960198 
L 233.811683 178.447168 
L 234.601144 178.447168 
L 234.601144 174.934139 
L 234.792664 174.934139 
L 234.792664 171.421109 
L 236.893911 171.421109 
L 236.893911 167.908079 
L 260.804422 167.908079 
L 260.804422 164.39505 
L 261.220756 164.39505 
L 261.220756 160.88202 
L 264.407861 160.88202 
L 264.407861 157.36899 
L 269.765535 157.36899 
L 269.765535 153.85596 
L 270.317086 153.85596 
L 270.317086 150.342931 
L 274.962053 150.342931 
L 274.962053 146.829901 
L 287.60983 146.829901 
L 287.60983 143.316871 
L 288.324654 143.316871 
L 288.324654 139.803842 
L 288.552817 139.803842 
L 288.552817 136.290812 
L 298.333976 136.290812 
L 298.333976 132.777782 
L 299.549326 132.777782 
L 299.549326 129.264752 
L 303.409256 129.264752 
L 303.409256 125.751723 
L 304.987429 125.751723 
L 305.087257 118.725663 
L 305.615005 118.725663 
L 305.615005 115.212634 
L 305.773047 115.212634 
L 305.773047 111.699604 
L 306.453634 111.699604 
L 306.453634 108.186574 
L 306.878731 108.186574 
L 306.902977 101.160515 
L 307.602853 101.160515 
L 307.602853 97.647485 
L 307.778675 97.647485 
L 307.778675 94.134455 
L 308.705448 94.134455 
L 308.705448 90.621426 
L 309.634614 90.621426 
L 309.634614 87.108396 
L 314.458142 87.108396 
L 314.458142 83.595366 
L 315.024631 83.595366 
L 315.024631 80.082337 
L 316.384917 80.082337 
L 316.450882 73.056277 
L 316.697645 73.056277 
L 316.697645 69.543248 
L 316.831687 69.543248 
L 316.831687 66.030218 
L 318.270195 66.030218 
L 318.270195 62.517188 
L 319.792059 62.517188 
L 319.792059 59.004158 
L 322.545766 59.004158 
L 322.545766 55.491129 
L 323.094992 55.491129 
L 323.094992 51.978099 
L 324.489925 51.978099 
L 324.489925 48.465069 
L 324.911556 48.465069 
L 324.911556 44.95204 
L 326.047952 44.95204 
L 326.047952 41.43901 
L 327.990369 41.43901 
L 328.054892 34.41295 
L 334.363387 34.41295 
L 334.470266 27.386891 
L 334.547595 27.386891 
L 334.547595 23.873861 
L 335.961935 23.873861 
L 335.961935 20.360832 
L 343.739188 20.360832 
L 343.739188 16.847802 
L 344.635635 16.847802 
L 344.635635 13.334772 
L 344.635635 13.334772 
L 367.82 13.334772 
L 367.82 13.334772 
" style="fill:none;stroke:#00bfbf;stroke-linecap:square;stroke-width:1.5;"/>
   </g>
   <g id="line2d_25">
    <path clip-path="url(#p08d204dd7e)" d="M 184.941497 276.812 
L 184.941497 273.29897 
L 186.457331 273.29897 
L 186.457331 269.785941 
L 188.885178 269.785941 
L 188.885178 266.272911 
L 192.073768 266.272911 
L 192.073768 262.759881 
L 193.94995 262.759881 
L 193.94995 259.246851 
L 195.340161 259.246851 
L 195.340161 255.733822 
L 196.657963 255.733822 
L 196.657963 252.220792 
L 198.118389 252.220792 
L 198.118389 248.707762 
L 198.904552 248.707762 
L 198.904552 245.194733 
L 199.73483 245.194733 
L 199.73483 241.681703 
L 201.081122 241.681703 
L 201.081122 238.168673 
L 201.250234 238.168673 
L 201.250234 234.655644 
L 202.708326 234.655644 
L 202.708326 231.142614 
L 203.414287 231.142614 
L 203.414287 227.629584 
L 205.698211 227.629584 
L 205.698211 224.116554 
L 225.660174 224.116554 
L 225.660174 220.603525 
L 229.227367 220.603525 
L 229.25747 210.064436 
L 230.08721 210.064436 
L 230.08721 206.551406 
L 230.409768 206.551406 
L 230.409768 203.038376 
L 231.356643 203.038376 
L 231.356643 199.525347 
L 231.814847 199.525347 
L 231.867572 188.986257 
L 232.938553 188.986257 
L 232.938553 185.473228 
L 233.107644 185.473228 
L 233.144731 178.447168 
L 233.795539 178.447168 
L 233.795539 174.934139 
L 234.640208 174.934139 
L 234.640208 171.421109 
L 236.893911 171.421109 
L 236.893911 167.908079 
L 254.992501 167.908079 
L 254.992501 164.39505 
L 260.804422 164.39505 
L 260.804422 160.88202 
L 261.220756 160.88202 
L 261.220756 157.36899 
L 264.407861 157.36899 
L 264.407861 153.85596 
L 265.745762 153.85596 
L 265.745762 150.342931 
L 269.765535 150.342931 
L 269.765535 146.829901 
L 278.984347 146.829901 
L 278.984347 143.316871 
L 287.60983 143.316871 
L 287.60983 139.803842 
L 288.324654 139.803842 
L 288.324654 136.290812 
L 294.258557 136.290812 
L 294.258557 132.777782 
L 297.61042 132.777782 
L 297.61042 129.264752 
L 300.835457 129.264752 
L 300.835457 125.751723 
L 303.772699 125.751723 
L 303.772699 122.238693 
L 304.007939 122.238693 
L 304.007939 118.725663 
L 304.263676 118.725663 
L 304.263676 115.212634 
L 304.49427 115.212634 
L 304.49427 111.699604 
L 305.242557 111.699604 
L 305.242557 108.186574 
L 305.615005 108.186574 
L 305.615005 104.673545 
L 305.810388 104.673545 
L 305.810388 101.160515 
L 306.185647 101.160515 
L 306.185647 97.647485 
L 306.360327 97.647485 
L 306.360327 94.134455 
L 308.682901 94.134455 
L 308.784945 87.108396 
L 311.526054 87.108396 
L 311.526054 83.595366 
L 314.2743 83.595366 
L 314.2743 80.082337 
L 314.613924 80.082337 
L 314.613924 76.569307 
L 314.977848 76.569307 
L 314.977848 73.056277 
L 316.273268 73.056277 
L 316.273268 69.543248 
L 316.479651 69.543248 
L 316.479651 66.030218 
L 318.012251 66.030218 
L 318.012251 62.517188 
L 319.792059 62.517188 
L 319.792059 59.004158 
L 321.981361 59.004158 
L 321.981361 55.491129 
L 323.094992 55.491129 
L 323.094992 51.978099 
L 323.768056 51.978099 
L 323.768056 48.465069 
L 324.200161 48.465069 
L 324.200161 44.95204 
L 325.084346 44.95204 
L 325.084346 41.43901 
L 327.116088 41.43901 
L 327.116088 37.92598 
L 327.95763 37.92598 
L 327.95763 34.41295 
L 332.887845 34.41295 
L 332.887845 30.899921 
L 333.039289 30.899921 
L 333.039289 27.386891 
L 333.297935 27.386891 
L 333.297935 23.873861 
L 335.275581 23.873861 
L 335.275581 20.360832 
L 342.672222 20.360832 
L 342.672222 16.847802 
L 343.739188 16.847802 
L 343.739188 13.334772 
L 343.739188 13.334772 
L 367.82 13.334772 
L 367.82 13.334772 
" style="fill:none;stroke:#bf00bf;stroke-linecap:square;stroke-width:1.5;"/>
   </g>
   <g id="line2d_26">
    <path clip-path="url(#p08d204dd7e)" d="M 182.421567 276.812 
L 182.421567 273.29897 
L 186.155891 273.29897 
L 186.155891 269.785941 
L 187.366127 269.785941 
L 187.366127 266.272911 
L 190.620145 266.272911 
L 190.620145 262.759881 
L 193.099104 262.759881 
L 193.099104 259.246851 
L 193.27792 259.246851 
L 193.27792 255.733822 
L 194.786198 255.733822 
L 194.786198 252.220792 
L 194.9339 252.220792 
L 194.9339 248.707762 
L 195.46037 248.707762 
L 195.46037 245.194733 
L 198.75804 245.194733 
L 198.75804 241.681703 
L 199.895911 241.681703 
L 199.895911 238.168673 
L 200.84379 238.168673 
L 200.84379 234.655644 
L 202.042226 234.655644 
L 202.149931 227.629584 
L 203.425202 227.629584 
L 203.425202 224.116554 
L 207.702693 224.116554 
L 207.702693 220.603525 
L 225.660174 220.603525 
L 225.660174 217.090495 
L 228.226479 217.090495 
L 228.226479 213.577465 
L 228.771539 213.577465 
L 228.771539 210.064436 
L 228.892988 210.064436 
L 228.892988 206.551406 
L 229.453148 206.551406 
L 229.453148 203.038376 
L 231.070258 203.038376 
L 231.170032 196.012317 
L 231.393984 196.012317 
L 231.393984 192.499287 
L 231.793262 192.499287 
L 231.793262 188.986257 
L 232.293131 188.986257 
L 232.293131 185.473228 
L 232.732331 185.473228 
L 232.732331 181.960198 
L 232.997158 181.960198 
L 233.033826 174.934139 
L 233.93865 174.934139 
L 233.93865 171.421109 
L 236.270671 171.421109 
L 236.270671 167.908079 
L 241.247573 167.908079 
L 241.247573 164.39505 
L 243.7342 164.39505 
L 243.7342 160.88202 
L 250.720617 160.88202 
L 250.720617 157.36899 
L 251.996792 157.36899 
L 251.996792 153.85596 
L 255.634257 153.85596 
L 255.634257 150.342931 
L 263.582938 150.342931 
L 263.582938 146.829901 
L 278.441711 146.829901 
L 278.441711 143.316871 
L 278.984347 143.316871 
L 278.984347 139.803842 
L 287.60983 139.803842 
L 287.60983 136.290812 
L 289.950199 136.290812 
L 289.950199 132.777782 
L 294.077204 132.777782 
L 294.077204 129.264752 
L 298.830451 129.264752 
L 298.830451 125.751723 
L 300.167985 125.751723 
L 300.167985 122.238693 
L 300.367241 122.238693 
L 300.367241 118.725663 
L 302.004945 118.725663 
L 302.004945 115.212634 
L 302.702987 115.212634 
L 302.702987 111.699604 
L 303.031716 111.699604 
L 303.031716 108.186574 
L 303.315194 108.186574 
L 303.383749 101.160515 
L 304.769465 101.160515 
L 304.769465 97.647485 
L 305.66269 97.647485 
L 305.66269 94.134455 
L 306.029876 94.134455 
L 306.029876 90.621426 
L 306.204121 90.621426 
L 306.204121 87.108396 
L 310.888315 87.108396 
L 310.888315 83.595366 
L 312.846339 83.595366 
L 312.846339 80.082337 
L 313.588908 80.082337 
L 313.588908 76.569307 
L 314.120134 76.569307 
L 314.120134 73.056277 
L 314.750751 73.056277 
L 314.750751 69.543248 
L 315.158334 69.543248 
L 315.158334 66.030218 
L 316.794583 66.030218 
L 316.794583 62.517188 
L 318.665432 62.517188 
L 318.665432 59.004158 
L 321.383596 59.004158 
L 321.383596 55.491129 
L 321.746208 55.491129 
L 321.746208 51.978099 
L 321.870677 51.978099 
L 321.870677 48.465069 
L 322.219168 48.465069 
L 322.219168 44.95204 
L 322.890602 44.95204 
L 322.890602 41.43901 
L 325.087275 41.43901 
L 325.087275 37.92598 
L 326.050291 37.92598 
L 326.050291 34.41295 
L 329.22729 34.41295 
L 329.333788 27.386891 
L 330.639414 27.386891 
L 330.639414 23.873861 
L 332.065995 23.873861 
L 332.065995 20.360832 
L 339.650591 20.360832 
L 339.650591 16.847802 
L 342.890628 16.847802 
L 342.890628 13.334772 
L 342.890628 13.334772 
L 367.82 13.334772 
L 367.82 13.334772 
" style="fill:none;stroke:#000000;stroke-linecap:square;stroke-width:1.5;"/>
   </g>
   <g id="line2d_27">
    <path clip-path="url(#p08d204dd7e)" d="M 176.366442 276.812 
L 176.366442 273.29897 
L 178.875024 273.29897 
L 178.875024 269.785941 
L 182.45516 269.785941 
L 182.45516 266.272911 
L 183.138607 266.272911 
L 183.138607 262.759881 
L 183.415042 262.759881 
L 183.415042 259.246851 
L 184.164541 259.246851 
L 184.164541 255.733822 
L 185.93756 255.733822 
L 185.93756 252.220792 
L 186.386114 252.220792 
L 186.386114 248.707762 
L 187.723304 248.707762 
L 187.723304 245.194733 
L 187.8767 245.194733 
L 187.8767 241.681703 
L 190.507601 241.681703 
L 190.507601 238.168673 
L 190.811505 238.168673 
L 190.903093 231.142614 
L 194.37208 231.142614 
L 194.37208 227.629584 
L 195.445978 227.629584 
L 195.445978 224.116554 
L 198.009304 224.116554 
L 198.009304 220.603525 
L 200.493301 220.603525 
L 200.493301 217.090495 
L 203.368431 217.090495 
L 203.368431 213.577465 
L 205.828679 213.577465 
L 205.828679 210.064436 
L 206.594951 210.064436 
L 206.594951 206.551406 
L 217.704436 206.551406 
L 217.704436 203.038376 
L 221.050372 203.038376 
L 221.050372 199.525347 
L 221.164407 199.525347 
L 221.164407 196.012317 
L 221.344231 196.012317 
L 221.344231 192.499287 
L 223.011251 192.499287 
L 223.011251 188.986257 
L 223.75033 188.986257 
L 223.75033 185.473228 
L 224.879903 185.473228 
L 224.879903 181.960198 
L 225.000282 181.960198 
L 225.000282 178.447168 
L 227.400567 178.447168 
L 227.400567 174.934139 
L 227.673202 174.934139 
L 227.673202 171.421109 
L 227.984267 171.421109 
L 227.984267 167.908079 
L 228.925812 167.908079 
L 228.925812 164.39505 
L 229.277227 164.39505 
L 229.283095 157.36899 
L 229.429894 157.36899 
L 229.429894 153.85596 
L 230.018059 153.85596 
L 230.018059 150.342931 
L 231.37898 150.342931 
L 231.37898 146.829901 
L 244.700497 146.829901 
L 244.700497 143.316871 
L 248.449077 143.316871 
L 248.449077 139.803842 
L 256.110781 139.803842 
L 256.110781 136.290812 
L 263.626473 136.290812 
L 263.626473 132.777782 
L 264.876914 132.777782 
L 264.876914 129.264752 
L 265.000643 129.264752 
L 265.000643 125.751723 
L 266.806779 125.751723 
L 266.806779 122.238693 
L 268.157538 122.238693 
L 268.157538 118.725663 
L 270.614992 118.725663 
L 270.614992 115.212634 
L 272.868287 115.212634 
L 272.868287 111.699604 
L 275.397655 111.699604 
L 275.397655 108.186574 
L 275.924238 108.186574 
L 275.924238 104.673545 
L 280.768529 104.673545 
L 280.768529 101.160515 
L 284.152277 101.160515 
L 284.152277 97.647485 
L 285.653204 97.647485 
L 285.653204 94.134455 
L 285.948654 94.134455 
L 285.948654 90.621426 
L 288.673928 90.621426 
L 288.673928 87.108396 
L 289.401973 87.108396 
L 289.401973 83.595366 
L 291.810579 83.595366 
L 291.810579 80.082337 
L 295.819439 80.082337 
L 295.819439 76.569307 
L 298.019569 76.569307 
L 298.019569 73.056277 
L 299.05422 73.056277 
L 299.05422 69.543248 
L 301.308504 69.543248 
L 301.308504 66.030218 
L 301.827059 66.030218 
L 301.827059 62.517188 
L 308.249893 62.517188 
L 308.249893 59.004158 
L 308.829374 59.004158 
L 308.829374 55.491129 
L 309.485058 55.491129 
L 309.485058 51.978099 
L 310.158282 51.978099 
L 310.158282 48.465069 
L 311.003409 48.465069 
L 311.003409 44.95204 
L 312.572952 44.95204 
L 312.594822 37.92598 
L 313.332306 37.92598 
L 313.332306 34.41295 
L 314.004122 34.41295 
L 314.004122 30.899921 
L 315.167169 30.899921 
L 315.167169 27.386891 
L 316.912616 27.386891 
L 316.912616 23.873861 
L 317.722082 23.873861 
L 317.722082 20.360832 
L 329.7647 20.360832 
L 329.7647 16.847802 
L 336.863987 16.847802 
L 336.863987 13.334772 
L 336.863987 13.334772 
L 367.82 13.334772 
L 367.82 13.334772 
" style="fill:none;stroke:#00bfbf;stroke-linecap:square;stroke-width:1.5;"/>
   </g>
   <g id="line2d_28">
    <path clip-path="url(#p08d204dd7e)" d="M 109.779025 276.812 
L 109.779025 273.29897 
L 112.441553 273.29897 
L 112.441553 269.785941 
L 114.397214 269.785941 
L 114.397214 266.272911 
L 117.926165 266.272911 
L 117.926165 262.759881 
L 119.351159 262.759881 
L 119.351159 259.246851 
L 120.373042 259.246851 
L 120.373042 255.733822 
L 121.905366 255.733822 
L 121.92991 248.707762 
L 124.277643 248.707762 
L 124.277643 245.194733 
L 125.037538 245.194733 
L 125.037538 241.681703 
L 126.1805 241.681703 
L 126.1805 238.168673 
L 127.269042 238.168673 
L 127.269042 234.655644 
L 127.906716 234.655644 
L 127.906716 231.142614 
L 132.869574 231.142614 
L 132.924886 224.116554 
L 174.475015 224.116554 
L 174.475015 220.603525 
L 177.903836 220.603525 
L 177.988358 213.577465 
L 178.113332 213.577465 
L 178.113332 210.064436 
L 178.355153 210.064436 
L 178.365739 203.038376 
L 180.598785 203.038376 
L 180.598785 199.525347 
L 183.339232 199.525347 
L 183.339232 196.012317 
L 184.367048 196.012317 
L 184.367048 192.499287 
L 184.572912 192.499287 
L 184.572912 188.986257 
L 186.640519 188.986257 
L 186.640519 185.473228 
L 190.076625 185.473228 
L 190.076625 181.960198 
L 191.023309 181.960198 
L 191.023309 178.447168 
L 191.966993 178.447168 
L 191.966993 174.934139 
L 193.764404 174.934139 
L 193.764404 171.421109 
L 194.039083 171.421109 
L 194.039083 167.908079 
L 194.908353 167.908079 
L 194.941721 160.88202 
L 195.5408 160.88202 
L 195.5408 157.36899 
L 196.036477 157.36899 
L 196.036477 153.85596 
L 197.988361 153.85596 
L 198.032097 146.829901 
L 198.489612 146.829901 
L 198.489612 143.316871 
L 199.517911 143.316871 
L 199.590903 136.290812 
L 200.442876 136.290812 
L 200.442876 132.777782 
L 201.437285 132.777782 
L 201.437285 129.264752 
L 201.627304 129.264752 
L 201.627304 125.751723 
L 202.299787 125.751723 
L 202.299787 122.238693 
L 202.862257 122.238693 
L 202.862257 118.725663 
L 203.368431 118.725663 
L 203.368431 115.212634 
L 203.49862 115.212634 
L 203.49862 111.699604 
L 204.236811 111.699604 
L 204.236811 108.186574 
L 204.686818 108.186574 
L 204.686818 104.673545 
L 205.616671 104.673545 
L 205.709861 97.647485 
L 206.281626 97.647485 
L 206.281626 94.134455 
L 206.594902 94.134455 
L 206.594902 90.621426 
L 206.938294 90.621426 
L 206.938294 87.108396 
L 208.7647 87.108396 
L 208.7647 83.595366 
L 208.970359 83.595366 
L 208.970359 80.082337 
L 209.215751 80.082337 
L 209.215751 76.569307 
L 211.823412 76.569307 
L 211.823412 73.056277 
L 213.396916 73.056277 
L 213.396916 69.543248 
L 217.672362 69.543248 
L 217.672362 66.030218 
L 218.360247 66.030218 
L 218.360247 62.517188 
L 220.393034 62.517188 
L 220.393034 59.004158 
L 225.408504 59.004158 
L 225.408504 55.491129 
L 226.738515 55.491129 
L 226.738515 51.978099 
L 226.968065 51.978099 
L 226.968065 48.465069 
L 228.062095 48.465069 
L 228.062095 44.95204 
L 228.836341 44.95204 
L 228.836341 41.43901 
L 229.657331 41.43901 
L 229.657331 37.92598 
L 231.604849 37.92598 
L 231.604849 34.41295 
L 237.861807 34.41295 
L 237.861807 30.899921 
L 239.353524 30.899921 
L 239.353524 27.386891 
L 240.686629 27.386891 
L 240.686629 23.873861 
L 242.872486 23.873861 
L 242.872486 20.360832 
L 243.19282 20.360832 
L 243.19282 16.847802 
L 247.172164 16.847802 
L 247.172164 13.334772 
L 247.172164 13.334772 
L 367.82 13.334772 
L 367.82 13.334772 
" style="fill:none;stroke:#bf00bf;stroke-linecap:square;stroke-width:1.5;"/>
   </g>
   <g id="line2d_29">
    <path clip-path="url(#p08d204dd7e)" d="M 83.301871 276.812 
L 83.301871 273.29897 
L 83.762264 273.29897 
L 83.762264 269.785941 
L 85.910445 269.785941 
L 85.910445 266.272911 
L 86.237396 266.272911 
L 86.237396 262.759881 
L 92.193421 262.759881 
L 92.193421 259.246851 
L 92.900724 259.246851 
L 92.900724 255.733822 
L 93.074003 255.733822 
L 93.074003 252.220792 
L 96.461135 252.220792 
L 96.461135 248.707762 
L 97.779763 248.707762 
L 97.779763 245.194733 
L 97.96267 245.194733 
L 97.96267 241.681703 
L 99.452974 241.681703 
L 99.452974 238.168673 
L 99.818146 238.168673 
L 99.818146 234.655644 
L 100.948969 234.655644 
L 101.000711 227.629584 
L 102.277973 227.629584 
L 102.277973 224.116554 
L 142.60496 224.116554 
L 142.60496 220.603525 
L 144.072313 220.603525 
L 144.072313 217.090495 
L 147.295363 217.090495 
L 147.295363 213.577465 
L 150.176809 213.577465 
L 150.176809 210.064436 
L 155.97351 210.064436 
L 155.97351 206.551406 
L 157.541123 206.551406 
L 157.541123 203.038376 
L 163.567468 203.038376 
L 163.567468 199.525347 
L 170.662468 199.525347 
L 170.662468 196.012317 
L 171.728294 196.012317 
L 171.728294 192.499287 
L 172.547919 192.499287 
L 172.547919 188.986257 
L 175.304039 188.986257 
L 175.304039 185.473228 
L 175.685098 185.473228 
L 175.685098 181.960198 
L 176.845266 181.960198 
L 176.845266 178.447168 
L 180.037768 178.447168 
L 180.037768 174.934139 
L 180.285981 174.934139 
L 180.285981 171.421109 
L 182.400843 171.421109 
L 182.400843 167.908079 
L 182.604743 167.908079 
L 182.604743 164.39505 
L 182.852475 164.39505 
L 182.852475 160.88202 
L 184.450976 160.88202 
L 184.450976 157.36899 
L 186.391449 157.36899 
L 186.391449 153.85596 
L 186.97333 153.85596 
L 186.97333 150.342931 
L 188.20039 150.342931 
L 188.20039 146.829901 
L 188.880503 146.829901 
L 188.880503 143.316871 
L 189.451934 143.316871 
L 189.451934 139.803842 
L 189.718803 139.803842 
L 189.718803 136.290812 
L 190.076625 136.290812 
L 190.076625 132.777782 
L 190.69688 132.777782 
L 190.69688 129.264752 
L 191.023309 129.264752 
L 191.023309 125.751723 
L 191.236127 125.751723 
L 191.236127 122.238693 
L 193.386786 122.238693 
L 193.386786 118.725663 
L 194.080878 118.725663 
L 194.080878 115.212634 
L 194.908353 115.212634 
L 194.908353 111.699604 
L 195.5408 111.699604 
L 195.5408 108.186574 
L 196.036477 108.186574 
L 196.036477 104.673545 
L 196.193664 104.673545 
L 196.238197 97.647485 
L 196.937105 97.647485 
L 196.937105 94.134455 
L 198.533092 94.134455 
L 198.533092 90.621426 
L 199.056965 90.621426 
L 199.056965 87.108396 
L 199.517911 87.108396 
L 199.517911 83.595366 
L 199.91327 83.595366 
L 199.91327 80.082337 
L 200.442876 80.082337 
L 200.442876 76.569307 
L 200.871793 76.569307 
L 200.871793 73.056277 
L 202.445898 73.056277 
L 202.445898 69.543248 
L 203.368431 69.543248 
L 203.368431 66.030218 
L 203.493868 66.030218 
L 203.493868 62.517188 
L 204.428015 62.517188 
L 204.428015 59.004158 
L 205.853456 59.004158 
L 205.853456 55.491129 
L 207.738777 55.491129 
L 207.738777 51.978099 
L 207.991411 51.978099 
L 207.991411 48.465069 
L 211.170594 48.465069 
L 211.170594 44.95204 
L 212.909038 44.95204 
L 212.909038 41.43901 
L 213.587134 41.43901 
L 213.587134 37.92598 
L 215.752879 37.92598 
L 215.752879 34.41295 
L 216.1553 34.41295 
L 216.1553 30.899921 
L 218.976533 30.899921 
L 218.976533 27.386891 
L 221.993144 27.386891 
L 221.993144 23.873861 
L 222.140565 23.873861 
L 222.140565 20.360832 
L 224.642349 20.360832 
L 224.642349 16.847802 
L 233.329382 16.847802 
L 233.329382 13.334772 
L 233.329382 13.334772 
L 367.82 13.334772 
L 367.82 13.334772 
" style="fill:none;stroke:#000000;stroke-linecap:square;stroke-width:1.5;"/>
   </g>
   <g id="patch_3">
    <path d="M 10.7 276.812 
L 10.7 10.7 
" style="fill:none;stroke:#000000;stroke-linecap:square;stroke-linejoin:miter;stroke-width:0.8;"/>
   </g>
   <g id="patch_4">
    <path d="M 367.82 276.812 
L 367.82 10.7 
" style="fill:none;stroke:#000000;stroke-linecap:square;stroke-linejoin:miter;stroke-width:0.8;"/>
   </g>
   <g id="patch_5">
    <path d="M 10.7 276.812 
L 367.82 276.812 
" style="fill:none;stroke:#000000;stroke-linecap:square;stroke-linejoin:miter;stroke-width:0.8;"/>
   </g>
   <g id="patch_6">
    <path d="M 10.7 10.7 
L 367.82 10.7 
" style="fill:none;stroke:#000000;stroke-linecap:square;stroke-linejoin:miter;stroke-width:0.8;"/>
   </g>
   <g id="text_6">
    <!-- {f10-f14}, 5-D -->
    <defs>
     <path d="M 51.125 -9.28125 
L 51.125 -16.3125 
L 48.09375 -16.3125 
Q 35.9375 -16.3125 31.8125 -12.6875 
Q 27.6875 -9.078125 27.6875 1.703125 
L 27.6875 13.375 
Q 27.6875 20.75 25.046875 23.578125 
Q 22.40625 26.421875 15.484375 26.421875 
L 12.5 26.421875 
L 12.5 33.40625 
L 15.484375 33.40625 
Q 22.46875 33.40625 25.078125 36.203125 
Q 27.6875 39.015625 27.6875 46.296875 
L 27.6875 58.015625 
Q 27.6875 68.796875 31.8125 72.390625 
Q 35.9375 75.984375 48.09375 75.984375 
L 51.125 75.984375 
L 51.125 69 
L 47.796875 69 
Q 40.921875 69 38.8125 66.84375 
Q 36.71875 64.703125 36.71875 57.8125 
L 36.71875 45.703125 
Q 36.71875 38.03125 34.5 34.5625 
Q 32.28125 31.109375 26.90625 29.890625 
Q 32.328125 28.5625 34.515625 25.09375 
Q 36.71875 21.625 36.71875 14.015625 
L 36.71875 1.90625 
Q 36.71875 -4.984375 38.8125 -7.125 
Q 40.921875 -9.28125 47.796875 -9.28125 
z
" id="DejaVuSans-7b"/>
     <path d="M 12.5 -9.28125 
L 15.921875 -9.28125 
Q 22.75 -9.28125 24.828125 -7.171875 
Q 26.90625 -5.078125 26.90625 1.90625 
L 26.90625 14.015625 
Q 26.90625 21.625 29.09375 25.09375 
Q 31.296875 28.5625 36.71875 29.890625 
Q 31.296875 31.109375 29.09375 34.5625 
Q 26.90625 38.03125 26.90625 45.703125 
L 26.90625 57.8125 
Q 26.90625 64.75 24.828125 66.875 
Q 22.75 69 15.921875 69 
L 12.5 69 
L 12.5 75.984375 
L 15.578125 75.984375 
Q 27.734375 75.984375 31.8125 72.390625 
Q 35.890625 68.796875 35.890625 58.015625 
L 35.890625 46.296875 
Q 35.890625 39.015625 38.515625 36.203125 
Q 41.15625 33.40625 48.09375 33.40625 
L 51.125 33.40625 
L 51.125 26.421875 
L 48.09375 26.421875 
Q 41.15625 26.421875 38.515625 23.578125 
Q 35.890625 20.75 35.890625 13.375 
L 35.890625 1.703125 
Q 35.890625 -9.078125 31.8125 -12.6875 
Q 27.734375 -16.3125 15.578125 -16.3125 
L 12.5 -16.3125 
z
" id="DejaVuSans-7d"/>
     <path d="M 11.71875 12.40625 
L 22.015625 12.40625 
L 22.015625 4 
L 14.015625 -11.625 
L 7.71875 -11.625 
L 11.71875 4 
z
" id="DejaVuSans-2c"/>
     <path d="M 10.796875 72.90625 
L 49.515625 72.90625 
L 49.515625 64.59375 
L 19.828125 64.59375 
L 19.828125 46.734375 
Q 21.96875 47.46875 24.109375 47.828125 
Q 26.265625 48.1875 28.421875 48.1875 
Q 40.625 48.1875 47.75 41.5 
Q 54.890625 34.8125 54.890625 23.390625 
Q 54.890625 11.625 47.5625 5.09375 
Q 40.234375 -1.421875 26.90625 -1.421875 
Q 22.3125 -1.421875 17.546875 -0.640625 
Q 12.796875 0.140625 7.71875 1.703125 
L 7.71875 11.625 
Q 12.109375 9.234375 16.796875 8.0625 
Q 21.484375 6.890625 26.703125 6.890625 
Q 35.15625 6.890625 40.078125 11.328125 
Q 45.015625 15.765625 45.015625 23.390625 
Q 45.015625 31 40.078125 35.4375 
Q 35.15625 39.890625 26.703125 39.890625 
Q 22.75 39.890625 18.8125 39.015625 
Q 14.890625 38.140625 10.796875 36.28125 
z
" id="DejaVuSans-35"/>
    </defs>
    <g transform="translate(214.9776 271.48976)scale(0.2 -0.2)">
     <use xlink:href="#DejaVuSans-7b"/>
     <use x="63.623047" xlink:href="#DejaVuSans-66"/>
     <use x="98.828125" xlink:href="#DejaVuSans-31"/>
     <use x="162.451172" xlink:href="#DejaVuSans-30"/>
     <use x="226.074219" xlink:href="#DejaVuSans-2d"/>
     <use x="262.158203" xlink:href="#DejaVuSans-66"/>
     <use x="297.363281" xlink:href="#DejaVuSans-31"/>
     <use x="360.986328" xlink:href="#DejaVuSans-34"/>
     <use x="424.609375" xlink:href="#DejaVuSans-7d"/>
     <use x="488.232422" xlink:href="#DejaVuSans-2c"/>
     <use x="520.019531" xlink:href="#DejaVuSans-20"/>
     <use x="551.806641" xlink:href="#DejaVuSans-35"/>
     <use x="615.429688" xlink:href="#DejaVuSans-2d"/>
     <use x="651.513672" xlink:href="#DejaVuSans-44"/>
    </g>
   </g>
   <g id="text_7">
    <!-- v2.1 -->
    <defs>
     <path d="M 2.984375 54.6875 
L 12.5 54.6875 
L 29.59375 8.796875 
L 46.6875 54.6875 
L 56.203125 54.6875 
L 35.6875 0 
L 23.484375 0 
z
" id="DejaVuSans-76"/>
     <path d="M 19.1875 8.296875 
L 53.609375 8.296875 
L 53.609375 0 
L 7.328125 0 
L 7.328125 8.296875 
Q 12.9375 14.109375 22.625 23.890625 
Q 32.328125 33.6875 34.8125 36.53125 
Q 39.546875 41.84375 41.421875 45.53125 
Q 43.3125 49.21875 43.3125 52.78125 
Q 43.3125 58.59375 39.234375 62.25 
Q 35.15625 65.921875 28.609375 65.921875 
Q 23.96875 65.921875 18.8125 64.3125 
Q 13.671875 62.703125 7.8125 59.421875 
L 7.8125 69.390625 
Q 13.765625 71.78125 18.9375 73 
Q 24.125 74.21875 28.421875 74.21875 
Q 39.75 74.21875 46.484375 68.546875 
Q 53.21875 62.890625 53.21875 53.421875 
Q 53.21875 48.921875 51.53125 44.890625 
Q 49.859375 40.875 45.40625 35.40625 
Q 44.1875 33.984375 37.640625 27.21875 
Q 31.109375 20.453125 19.1875 8.296875 
z
" id="DejaVuSans-32"/>
     <path d="M 10.6875 12.40625 
L 21 12.40625 
L 21 0 
L 10.6875 0 
z
" id="DejaVuSans-2e"/>
    </defs>
    <g style="fill:#808080;" transform="translate(178.349063 272.071193)scale(0.1 -0.1)">
     <use xlink:href="#DejaVuSans-76"/>
     <use x="59.179688" xlink:href="#DejaVuSans-32"/>
     <use x="122.802734" xlink:href="#DejaVuSans-2e"/>
     <use x="154.589844" xlink:href="#DejaVuSans-31"/>
    </g>
   </g>
  </g>
 </g>
 <defs>
  <clipPath id="p08d204dd7e">
   <rect height="266.112" width="357.12" x="10.7" y="10.7"/>
  </clipPath>
 </defs>
</svg>
