<?xml version="1.0" encoding="utf-8" standalone="no"?>
<!DOCTYPE svg PUBLIC "-//W3C//DTD SVG 1.1//EN"
  "http://www.w3.org/Graphics/SVG/1.1/DTD/svg11.dtd">
<!-- Created with matplotlib (http://matplotlib.org/) -->
<svg height="333pt" version="1.1" viewBox="0 0 378 333" width="378pt" xmlns="http://www.w3.org/2000/svg" xmlns:xlink="http://www.w3.org/1999/xlink">
 <defs>
  <style type="text/css">
*{stroke-linecap:butt;stroke-linejoin:round;}
  </style>
 </defs>
 <g id="figure_1">
  <g id="patch_1">
   <path d="M 0 333.7245 
L 378.52 333.7245 
L 378.52 0 
L 0 0 
z
" style="fill:#ffffff;"/>
  </g>
  <g id="axes_1">
   <g id="patch_2">
    <path d="M 10.7 276.812 
L 367.82 276.812 
L 367.82 10.7 
L 10.7 10.7 
z
" style="fill:#ffffff;"/>
   </g>
   <g id="matplotlib.axis_1">
    <g id="xtick_1">
     <g id="line2d_1">
      <path clip-path="url(#pb9a0a13c7f)" d="M 10.61312 276.812 
L 10.61312 10.7 
" style="fill:none;stroke:#b0b0b0;stroke-linecap:square;stroke-width:0.8;"/>
     </g>
     <g id="line2d_2">
      <defs>
       <path d="M 0 0 
L 0 3.5 
" id="me04a585930" style="stroke:#000000;stroke-width:0.8;"/>
      </defs>
      <g>
       <use style="stroke:#000000;stroke-width:0.8;" x="10.61312" xlink:href="#me04a585930" y="276.812"/>
      </g>
     </g>
    </g>
    <g id="xtick_2">
     <g id="line2d_3">
      <path clip-path="url(#pb9a0a13c7f)" d="M 91.032378 276.812 
L 91.032378 10.7 
" style="fill:none;stroke:#b0b0b0;stroke-linecap:square;stroke-width:0.8;"/>
     </g>
     <g id="line2d_4">
      <g>
       <use style="stroke:#000000;stroke-width:0.8;" x="91.032378" xlink:href="#me04a585930" y="276.812"/>
      </g>
     </g>
     <g id="text_1">
      <!-- -4 -->
      <defs>
       <path d="M 4.890625 31.390625 
L 31.203125 31.390625 
L 31.203125 23.390625 
L 4.890625 23.390625 
z
" id="DejaVuSans-2d"/>
       <path d="M 37.796875 64.3125 
L 12.890625 25.390625 
L 37.796875 25.390625 
z
M 35.203125 72.90625 
L 47.609375 72.90625 
L 47.609375 25.390625 
L 58.015625 25.390625 
L 58.015625 17.1875 
L 47.609375 17.1875 
L 47.609375 0 
L 37.796875 0 
L 37.796875 17.1875 
L 4.890625 17.1875 
L 4.890625 26.703125 
z
" id="DejaVuSans-34"/>
      </defs>
      <g transform="translate(81.062066 299.008875)scale(0.2 -0.2)">
       <use xlink:href="#DejaVuSans-2d"/>
       <use x="36.083984" xlink:href="#DejaVuSans-34"/>
      </g>
     </g>
    </g>
    <g id="xtick_3">
     <g id="line2d_5">
      <path clip-path="url(#pb9a0a13c7f)" d="M 171.451637 276.812 
L 171.451637 10.7 
" style="fill:none;stroke:#b0b0b0;stroke-linecap:square;stroke-width:0.8;"/>
     </g>
     <g id="line2d_6">
      <g>
       <use style="stroke:#000000;stroke-width:0.8;" x="171.451637" xlink:href="#me04a585930" y="276.812"/>
      </g>
     </g>
     <g id="text_2">
      <!-- 0 -->
      <defs>
       <path d="M 31.78125 66.40625 
Q 24.171875 66.40625 20.328125 58.90625 
Q 16.5 51.421875 16.5 36.375 
Q 16.5 21.390625 20.328125 13.890625 
Q 24.171875 6.390625 31.78125 6.390625 
Q 39.453125 6.390625 43.28125 13.890625 
Q 47.125 21.390625 47.125 36.375 
Q 47.125 51.421875 43.28125 58.90625 
Q 39.453125 66.40625 31.78125 66.40625 
z
M 31.78125 74.21875 
Q 44.046875 74.21875 50.515625 64.515625 
Q 56.984375 54.828125 56.984375 36.375 
Q 56.984375 17.96875 50.515625 8.265625 
Q 44.046875 -1.421875 31.78125 -1.421875 
Q 19.53125 -1.421875 13.0625 8.265625 
Q 6.59375 17.96875 6.59375 36.375 
Q 6.59375 54.828125 13.0625 64.515625 
Q 19.53125 74.21875 31.78125 74.21875 
z
" id="DejaVuSans-30"/>
      </defs>
      <g transform="translate(165.089137 299.008875)scale(0.2 -0.2)">
       <use xlink:href="#DejaVuSans-30"/>
      </g>
     </g>
    </g>
    <g id="xtick_4">
     <g id="line2d_7">
      <path clip-path="url(#pb9a0a13c7f)" d="M 251.870895 276.812 
L 251.870895 10.7 
" style="fill:none;stroke:#b0b0b0;stroke-linecap:square;stroke-width:0.8;"/>
     </g>
     <g id="line2d_8">
      <g>
       <use style="stroke:#000000;stroke-width:0.8;" x="251.870895" xlink:href="#me04a585930" y="276.812"/>
      </g>
     </g>
     <g id="text_3">
      <!-- 4 -->
      <g transform="translate(245.508395 299.008875)scale(0.2 -0.2)">
       <use xlink:href="#DejaVuSans-34"/>
      </g>
     </g>
    </g>
    <g id="xtick_5">
     <g id="line2d_9">
      <path clip-path="url(#pb9a0a13c7f)" d="M 332.290153 276.812 
L 332.290153 10.7 
" style="fill:none;stroke:#b0b0b0;stroke-linecap:square;stroke-width:0.8;"/>
     </g>
     <g id="line2d_10">
      <g>
       <use style="stroke:#000000;stroke-width:0.8;" x="332.290153" xlink:href="#me04a585930" y="276.812"/>
      </g>
     </g>
     <g id="text_4">
      <!-- 8 -->
      <defs>
       <path d="M 31.78125 34.625 
Q 24.75 34.625 20.71875 30.859375 
Q 16.703125 27.09375 16.703125 20.515625 
Q 16.703125 13.921875 20.71875 10.15625 
Q 24.75 6.390625 31.78125 6.390625 
Q 38.8125 6.390625 42.859375 10.171875 
Q 46.921875 13.96875 46.921875 20.515625 
Q 46.921875 27.09375 42.890625 30.859375 
Q 38.875 34.625 31.78125 34.625 
z
M 21.921875 38.8125 
Q 15.578125 40.375 12.03125 44.71875 
Q 8.5 49.078125 8.5 55.328125 
Q 8.5 64.0625 14.71875 69.140625 
Q 20.953125 74.21875 31.78125 74.21875 
Q 42.671875 74.21875 48.875 69.140625 
Q 55.078125 64.0625 55.078125 55.328125 
Q 55.078125 49.078125 51.53125 44.71875 
Q 48 40.375 41.703125 38.8125 
Q 48.828125 37.15625 52.796875 32.3125 
Q 56.78125 27.484375 56.78125 20.515625 
Q 56.78125 9.90625 50.3125 4.234375 
Q 43.84375 -1.421875 31.78125 -1.421875 
Q 19.734375 -1.421875 13.25 4.234375 
Q 6.78125 9.90625 6.78125 20.515625 
Q 6.78125 27.484375 10.78125 32.3125 
Q 14.796875 37.15625 21.921875 38.8125 
z
M 18.3125 54.390625 
Q 18.3125 48.734375 21.84375 45.5625 
Q 25.390625 42.390625 31.78125 42.390625 
Q 38.140625 42.390625 41.71875 45.5625 
Q 45.3125 48.734375 45.3125 54.390625 
Q 45.3125 60.0625 41.71875 63.234375 
Q 38.140625 66.40625 31.78125 66.40625 
Q 25.390625 66.40625 21.84375 63.234375 
Q 18.3125 60.0625 18.3125 54.390625 
z
" id="DejaVuSans-38"/>
      </defs>
      <g transform="translate(325.927653 299.008875)scale(0.2 -0.2)">
       <use xlink:href="#DejaVuSans-38"/>
      </g>
     </g>
    </g>
    <g id="text_5">
     <!-- log10 of Df -->
     <defs>
      <path d="M 9.421875 75.984375 
L 18.40625 75.984375 
L 18.40625 0 
L 9.421875 0 
z
" id="DejaVuSans-6c"/>
      <path d="M 30.609375 48.390625 
Q 23.390625 48.390625 19.1875 42.75 
Q 14.984375 37.109375 14.984375 27.296875 
Q 14.984375 17.484375 19.15625 11.84375 
Q 23.34375 6.203125 30.609375 6.203125 
Q 37.796875 6.203125 41.984375 11.859375 
Q 46.1875 17.53125 46.1875 27.296875 
Q 46.1875 37.015625 41.984375 42.703125 
Q 37.796875 48.390625 30.609375 48.390625 
z
M 30.609375 56 
Q 42.328125 56 49.015625 48.375 
Q 55.71875 40.765625 55.71875 27.296875 
Q 55.71875 13.875 49.015625 6.21875 
Q 42.328125 -1.421875 30.609375 -1.421875 
Q 18.84375 -1.421875 12.171875 6.21875 
Q 5.515625 13.875 5.515625 27.296875 
Q 5.515625 40.765625 12.171875 48.375 
Q 18.84375 56 30.609375 56 
z
" id="DejaVuSans-6f"/>
      <path d="M 45.40625 27.984375 
Q 45.40625 37.75 41.375 43.109375 
Q 37.359375 48.484375 30.078125 48.484375 
Q 22.859375 48.484375 18.828125 43.109375 
Q 14.796875 37.75 14.796875 27.984375 
Q 14.796875 18.265625 18.828125 12.890625 
Q 22.859375 7.515625 30.078125 7.515625 
Q 37.359375 7.515625 41.375 12.890625 
Q 45.40625 18.265625 45.40625 27.984375 
z
M 54.390625 6.78125 
Q 54.390625 -7.171875 48.1875 -13.984375 
Q 42 -20.796875 29.203125 -20.796875 
Q 24.46875 -20.796875 20.265625 -20.09375 
Q 16.0625 -19.390625 12.109375 -17.921875 
L 12.109375 -9.1875 
Q 16.0625 -11.328125 19.921875 -12.34375 
Q 23.78125 -13.375 27.78125 -13.375 
Q 36.625 -13.375 41.015625 -8.765625 
Q 45.40625 -4.15625 45.40625 5.171875 
L 45.40625 9.625 
Q 42.625 4.78125 38.28125 2.390625 
Q 33.9375 0 27.875 0 
Q 17.828125 0 11.671875 7.65625 
Q 5.515625 15.328125 5.515625 27.984375 
Q 5.515625 40.671875 11.671875 48.328125 
Q 17.828125 56 27.875 56 
Q 33.9375 56 38.28125 53.609375 
Q 42.625 51.21875 45.40625 46.390625 
L 45.40625 54.6875 
L 54.390625 54.6875 
z
" id="DejaVuSans-67"/>
      <path d="M 12.40625 8.296875 
L 28.515625 8.296875 
L 28.515625 63.921875 
L 10.984375 60.40625 
L 10.984375 69.390625 
L 28.421875 72.90625 
L 38.28125 72.90625 
L 38.28125 8.296875 
L 54.390625 8.296875 
L 54.390625 0 
L 12.40625 0 
z
" id="DejaVuSans-31"/>
      <path id="DejaVuSans-20"/>
      <path d="M 37.109375 75.984375 
L 37.109375 68.5 
L 28.515625 68.5 
Q 23.6875 68.5 21.796875 66.546875 
Q 19.921875 64.59375 19.921875 59.515625 
L 19.921875 54.6875 
L 34.71875 54.6875 
L 34.71875 47.703125 
L 19.921875 47.703125 
L 19.921875 0 
L 10.890625 0 
L 10.890625 47.703125 
L 2.296875 47.703125 
L 2.296875 54.6875 
L 10.890625 54.6875 
L 10.890625 58.5 
Q 10.890625 67.625 15.140625 71.796875 
Q 19.390625 75.984375 28.609375 75.984375 
z
" id="DejaVuSans-66"/>
      <path d="M 19.671875 64.796875 
L 19.671875 8.109375 
L 31.59375 8.109375 
Q 46.6875 8.109375 53.6875 14.9375 
Q 60.6875 21.78125 60.6875 36.53125 
Q 60.6875 51.171875 53.6875 57.984375 
Q 46.6875 64.796875 31.59375 64.796875 
z
M 9.8125 72.90625 
L 30.078125 72.90625 
Q 51.265625 72.90625 61.171875 64.09375 
Q 71.09375 55.28125 71.09375 36.53125 
Q 71.09375 17.671875 61.125 8.828125 
Q 51.171875 0 30.078125 0 
L 9.8125 0 
z
" id="DejaVuSans-44"/>
     </defs>
     <g transform="translate(134.074063 322.365125)scale(0.2 -0.2)">
      <use xlink:href="#DejaVuSans-6c"/>
      <use x="27.783203" xlink:href="#DejaVuSans-6f"/>
      <use x="88.964844" xlink:href="#DejaVuSans-67"/>
      <use x="152.441406" xlink:href="#DejaVuSans-31"/>
      <use x="216.064453" xlink:href="#DejaVuSans-30"/>
      <use x="279.6875" xlink:href="#DejaVuSans-20"/>
      <use x="311.474609" xlink:href="#DejaVuSans-6f"/>
      <use x="372.65625" xlink:href="#DejaVuSans-66"/>
      <use x="407.861328" xlink:href="#DejaVuSans-20"/>
      <use x="439.648438" xlink:href="#DejaVuSans-44"/>
      <use x="516.650391" xlink:href="#DejaVuSans-66"/>
     </g>
    </g>
   </g>
   <g id="matplotlib.axis_2">
    <g id="ytick_1">
     <g id="line2d_11">
      <path clip-path="url(#pb9a0a13c7f)" d="M 10.7 276.812 
L 367.82 276.812 
" style="fill:none;stroke:#b0b0b0;stroke-linecap:square;stroke-width:0.8;"/>
     </g>
     <g id="line2d_12">
      <defs>
       <path d="M 0 0 
L -3.5 0 
" id="me6b0d500e7" style="stroke:#000000;stroke-width:0.8;"/>
      </defs>
      <g>
       <use style="stroke:#000000;stroke-width:0.8;" x="10.7" xlink:href="#me6b0d500e7" y="276.812"/>
      </g>
     </g>
    </g>
    <g id="ytick_2">
     <g id="line2d_13">
      <path clip-path="url(#pb9a0a13c7f)" d="M 10.7 224.116554 
L 367.82 224.116554 
" style="fill:none;stroke:#b0b0b0;stroke-linecap:square;stroke-width:0.8;"/>
     </g>
     <g id="line2d_14">
      <g>
       <use style="stroke:#000000;stroke-width:0.8;" x="10.7" xlink:href="#me6b0d500e7" y="224.116554"/>
      </g>
     </g>
    </g>
    <g id="ytick_3">
     <g id="line2d_15">
      <path clip-path="url(#pb9a0a13c7f)" d="M 10.7 171.421109 
L 367.82 171.421109 
" style="fill:none;stroke:#b0b0b0;stroke-linecap:square;stroke-width:0.8;"/>
     </g>
     <g id="line2d_16">
      <g>
       <use style="stroke:#000000;stroke-width:0.8;" x="10.7" xlink:href="#me6b0d500e7" y="171.421109"/>
      </g>
     </g>
    </g>
    <g id="ytick_4">
     <g id="line2d_17">
      <path clip-path="url(#pb9a0a13c7f)" d="M 10.7 118.725663 
L 367.82 118.725663 
" style="fill:none;stroke:#b0b0b0;stroke-linecap:square;stroke-width:0.8;"/>
     </g>
     <g id="line2d_18">
      <g>
       <use style="stroke:#000000;stroke-width:0.8;" x="10.7" xlink:href="#me6b0d500e7" y="118.725663"/>
      </g>
     </g>
    </g>
    <g id="ytick_5">
     <g id="line2d_19">
      <path clip-path="url(#pb9a0a13c7f)" d="M 10.7 66.030218 
L 367.82 66.030218 
" style="fill:none;stroke:#b0b0b0;stroke-linecap:square;stroke-width:0.8;"/>
     </g>
     <g id="line2d_20">
      <g>
       <use style="stroke:#000000;stroke-width:0.8;" x="10.7" xlink:href="#me6b0d500e7" y="66.030218"/>
      </g>
     </g>
    </g>
    <g id="ytick_6">
     <g id="line2d_21">
      <path clip-path="url(#pb9a0a13c7f)" d="M 10.7 13.334772 
L 367.82 13.334772 
" style="fill:none;stroke:#b0b0b0;stroke-linecap:square;stroke-width:0.8;"/>
     </g>
     <g id="line2d_22">
      <g>
       <use style="stroke:#000000;stroke-width:0.8;" x="10.7" xlink:href="#me6b0d500e7" y="13.334772"/>
      </g>
     </g>
    </g>
   </g>
   <g id="line2d_23">
    <path clip-path="url(#pb9a0a13c7f)" d="M -1 210.942693 
L 101.163827 210.942693 
L 101.163827 206.551406 
L 111.267098 206.551406 
L 111.267098 202.160119 
L 123.839987 202.160119 
L 123.839987 197.768832 
L 126.291018 197.768832 
L 126.291018 193.377545 
L 127.101233 193.377545 
L 127.101233 188.986257 
L 128.85378 188.986257 
L 128.85378 184.59497 
L 131.355875 184.59497 
L 131.355875 180.203683 
L 133.724145 180.203683 
L 133.724145 175.812396 
L 134.082864 175.812396 
L 134.082864 171.421109 
L 134.461382 171.421109 
L 134.461382 167.029822 
L 134.556335 167.029822 
L 134.556335 162.638535 
L 134.614968 162.638535 
L 134.614968 158.247248 
L 135.175176 158.247248 
L 135.175176 153.85596 
L 135.591476 153.85596 
L 135.591476 149.464673 
L 135.718671 149.464673 
L 135.718671 145.073386 
L 136.719269 145.073386 
L 136.719269 140.682099 
L 136.722612 140.682099 
L 136.722612 136.290812 
L 137.380407 136.290812 
L 137.380407 131.899525 
L 137.479087 131.899525 
L 137.479087 127.508238 
L 137.734966 127.508238 
L 137.734966 123.11695 
L 137.823555 123.11695 
L 137.823555 118.725663 
L 138.399072 118.725663 
L 138.399072 114.334376 
L 138.427315 114.334376 
L 138.427315 109.943089 
L 139.03696 109.943089 
L 139.03696 105.551802 
L 140.158131 105.551802 
L 140.158131 101.160515 
L 143.039235 101.160515 
L 143.039235 96.769228 
L 144.313263 96.769228 
L 144.313263 92.377941 
L 153.674699 92.377941 
L 153.674699 87.986653 
L 161.99966 87.986653 
L 161.99966 83.595366 
L 162.014252 83.595366 
L 162.014252 79.204079 
L 162.91963 79.204079 
L 162.91963 74.812792 
L 165.811931 74.812792 
L 165.811931 70.421505 
L 171.173571 70.421505 
L 171.173571 66.030218 
L 171.856882 66.030218 
L 171.856882 61.638931 
L 174.676661 61.638931 
L 174.676661 57.247644 
L 176.66553 57.247644 
L 176.66553 52.856356 
L 179.979817 52.856356 
L 179.979817 48.465069 
L 180.013599 48.465069 
L 180.013599 44.073782 
L 181.840978 44.073782 
L 181.840978 39.682495 
L 182.040247 39.682495 
L 182.040247 35.291208 
L 183.454174 35.291208 
L 183.454174 30.899921 
L 183.463491 30.899921 
L 183.463491 26.508634 
L 184.571893 26.508634 
L 184.571893 22.117347 
L 184.698997 22.117347 
L 184.698997 17.726059 
L 186.890885 17.726059 
L 186.890885 13.334772 
L 186.890885 13.334772 
L 186.890885 13.334772 
L 367.82 13.334772 
" style="fill:none;stroke:#ff0000;stroke-linecap:square;stroke-width:3;"/>
   </g>
   <g id="line2d_24">
    <path clip-path="url(#pb9a0a13c7f)" d="M 193.924254 276.812 
L 193.924254 272.420713 
L 199.899413 272.420713 
L 199.899413 268.029426 
L 199.899413 268.029426 
L 199.899413 263.638139 
L 199.899413 263.638139 
L 199.899413 259.246851 
L 199.899413 259.246851 
L 199.899413 254.855564 
L 199.899413 254.855564 
L 199.899413 250.464277 
L 199.899413 250.464277 
L 199.899413 246.07299 
L 199.899413 246.07299 
L 199.899413 241.681703 
L 199.899413 241.681703 
L 199.899413 237.290416 
L 199.899413 237.290416 
L 199.899413 232.899129 
L 199.899413 232.899129 
L 199.899413 228.507842 
L 199.899413 228.507842 
L 199.899413 224.116554 
L 199.899413 224.116554 
L 199.899413 219.725267 
L 199.899413 219.725267 
L 199.899413 215.33398 
L 199.899413 215.33398 
L 199.899413 210.942693 
L 199.899413 210.942693 
L 199.899413 206.551406 
L 201.210694 206.551406 
L 201.210694 202.160119 
L 206.589706 202.160119 
L 206.589706 197.768832 
L 209.962617 197.768832 
L 209.962617 193.377545 
L 213.196834 193.377545 
L 213.196834 188.986257 
L 215.030593 188.986257 
L 215.030593 184.59497 
L 215.495905 184.59497 
L 215.495905 180.203683 
L 223.646186 180.203683 
L 223.646186 175.812396 
L 225.20559 175.812396 
L 225.20559 171.421109 
L 227.011212 171.421109 
L 227.011212 167.029822 
L 228.148917 167.029822 
L 228.148917 162.638535 
L 229.053998 162.638535 
L 229.053998 158.247248 
L 230.405063 158.247248 
L 230.405063 153.85596 
L 231.037887 153.85596 
L 231.037887 149.464673 
L 231.307781 149.464673 
L 231.307781 145.073386 
L 232.692318 145.073386 
L 232.692318 140.682099 
L 235.517691 140.682099 
L 235.517691 136.290812 
L 238.254355 136.290812 
L 238.254355 131.899525 
L 240.702765 131.899525 
L 240.702765 127.508238 
L 247.292958 127.508238 
L 247.292958 123.11695 
L 247.970347 123.11695 
L 247.970347 118.725663 
L 248.395551 118.725663 
L 248.395551 114.334376 
L 248.65706 114.334376 
L 248.65706 109.943089 
L 248.668272 109.943089 
L 248.668272 105.551802 
L 250.251919 105.551802 
L 250.251919 101.160515 
L 253.068251 101.160515 
L 253.068251 96.769228 
L 254.848429 96.769228 
L 254.848429 92.377941 
L 255.673622 92.377941 
L 255.673622 87.986653 
L 257.126869 87.986653 
L 257.126869 83.595366 
L 257.489605 83.595366 
L 257.489605 79.204079 
L 258.316231 79.204079 
L 258.316231 74.812792 
L 259.196227 74.812792 
L 259.196227 70.421505 
L 259.965124 70.421505 
L 259.965124 66.030218 
L 264.796898 66.030218 
L 264.796898 61.638931 
L 266.766221 61.638931 
L 266.766221 57.247644 
L 267.766855 57.247644 
L 267.766855 52.856356 
L 269.025019 52.856356 
L 269.025019 48.465069 
L 272.39064 48.465069 
L 272.39064 44.073782 
L 272.496183 44.073782 
L 272.496183 39.682495 
L 274.423791 39.682495 
L 274.423791 35.291208 
L 276.159228 35.291208 
L 276.159228 30.899921 
L 277.313169 30.899921 
L 277.313169 26.508634 
L 280.297626 26.508634 
L 280.297626 22.117347 
L 284.511244 22.117347 
L 284.511244 17.726059 
L 287.124206 17.726059 
L 287.124206 13.334772 
L 287.124206 13.334772 
L 287.124206 13.334772 
L 367.82 13.334772 
" style="fill:none;stroke:#00bfbf;stroke-linecap:square;stroke-width:1.5;"/>
   </g>
   <g id="line2d_25">
    <path clip-path="url(#pb9a0a13c7f)" d="M 188.445532 276.812 
L 188.445532 272.420713 
L 194.953434 272.420713 
L 194.953434 268.029426 
L 196.093004 268.029426 
L 196.093004 263.638139 
L 196.674263 263.638139 
L 196.674263 259.246851 
L 197.321272 259.246851 
L 197.321272 254.855564 
L 198.811266 254.855564 
L 198.811266 250.464277 
L 199.137759 250.464277 
L 199.137759 246.07299 
L 199.189795 246.07299 
L 199.189795 241.681703 
L 199.202183 241.681703 
L 199.202183 237.290416 
L 199.537614 237.290416 
L 199.537614 232.899129 
L 199.899413 232.899129 
L 199.899413 228.507842 
L 199.899413 228.507842 
L 199.899413 224.116554 
L 199.899413 224.116554 
L 199.899413 219.725267 
L 199.899413 219.725267 
L 199.899413 215.33398 
L 199.899413 215.33398 
L 199.899413 210.942693 
L 199.899413 210.942693 
L 199.899413 206.551406 
L 201.210694 206.551406 
L 201.210694 202.160119 
L 206.589706 202.160119 
L 206.589706 197.768832 
L 206.715906 197.768832 
L 206.715906 193.377545 
L 209.962617 193.377545 
L 209.962617 188.986257 
L 210.603055 188.986257 
L 210.603055 184.59497 
L 211.414542 184.59497 
L 211.414542 180.203683 
L 215.495905 180.203683 
L 215.495905 175.812396 
L 223.646186 175.812396 
L 223.646186 171.421109 
L 225.20559 171.421109 
L 225.20559 167.029822 
L 225.612909 167.029822 
L 225.612909 162.638535 
L 225.983632 162.638535 
L 225.983632 158.247248 
L 227.516883 158.247248 
L 227.516883 153.85596 
L 229.203362 153.85596 
L 229.203362 149.464673 
L 229.793604 149.464673 
L 229.793604 145.073386 
L 230.383947 145.073386 
L 230.383947 140.682099 
L 232.475544 140.682099 
L 232.475544 136.290812 
L 237.586406 136.290812 
L 237.586406 131.899525 
L 237.745938 131.899525 
L 237.745938 127.508238 
L 244.393347 127.508238 
L 244.393347 123.11695 
L 245.343609 123.11695 
L 245.343609 118.725663 
L 245.600646 118.725663 
L 245.600646 114.334376 
L 245.924937 114.334376 
L 245.924937 109.943089 
L 246.306716 109.943089 
L 246.306716 105.551802 
L 246.567718 105.551802 
L 246.567718 101.160515 
L 250.766247 101.160515 
L 250.766247 96.769228 
L 253.076064 96.769228 
L 253.076064 92.377941 
L 253.647368 92.377941 
L 253.647368 87.986653 
L 255.673622 87.986653 
L 255.673622 83.595366 
L 255.930576 83.595366 
L 255.930576 79.204079 
L 257.839725 79.204079 
L 257.839725 74.812792 
L 257.948245 74.812792 
L 257.948245 70.421505 
L 259.811923 70.421505 
L 259.811923 66.030218 
L 261.736147 66.030218 
L 261.736147 61.638931 
L 264.843932 61.638931 
L 264.843932 57.247644 
L 267.159653 57.247644 
L 267.159653 52.856356 
L 268.172098 52.856356 
L 268.172098 48.465069 
L 271.501587 48.465069 
L 271.501587 44.073782 
L 272.201409 44.073782 
L 272.201409 39.682495 
L 273.302921 39.682495 
L 273.302921 35.291208 
L 275.253434 35.291208 
L 275.253434 30.899921 
L 276.755523 30.899921 
L 276.755523 26.508634 
L 280.154402 26.508634 
L 280.154402 22.117347 
L 283.055377 22.117347 
L 283.055377 17.726059 
L 287.124206 17.726059 
L 287.124206 13.334772 
L 287.124206 13.334772 
L 287.124206 13.334772 
L 367.82 13.334772 
" style="fill:none;stroke:#bf00bf;stroke-linecap:square;stroke-width:1.5;"/>
   </g>
   <g id="line2d_26">
    <path clip-path="url(#pb9a0a13c7f)" d="M 185.504735 276.812 
L 185.504735 272.420713 
L 187.399821 272.420713 
L 187.399821 268.029426 
L 188.039936 268.029426 
L 188.039936 263.638139 
L 190.495448 263.638139 
L 190.495448 259.246851 
L 191.400592 259.246851 
L 191.400592 254.855564 
L 193.061607 254.855564 
L 193.061607 250.464277 
L 194.953434 250.464277 
L 194.953434 246.07299 
L 195.376078 246.07299 
L 195.376078 241.681703 
L 196.093004 241.681703 
L 196.093004 237.290416 
L 196.674263 237.290416 
L 196.674263 232.899129 
L 197.232211 232.899129 
L 197.232211 228.507842 
L 198.208084 228.507842 
L 198.208084 224.116554 
L 198.553146 224.116554 
L 198.553146 219.725267 
L 198.708224 219.725267 
L 198.708224 215.33398 
L 199.202183 215.33398 
L 199.202183 210.942693 
L 199.899413 210.942693 
L 199.899413 206.551406 
L 201.210694 206.551406 
L 201.210694 202.160119 
L 206.362109 202.160119 
L 206.362109 197.768832 
L 206.715906 197.768832 
L 206.715906 193.377545 
L 206.950896 193.377545 
L 206.950896 188.986257 
L 210.026556 188.986257 
L 210.026556 184.59497 
L 210.603055 184.59497 
L 210.603055 180.203683 
L 215.495905 180.203683 
L 215.495905 175.812396 
L 219.967129 175.812396 
L 219.967129 171.421109 
L 223.136075 171.421109 
L 223.136075 167.029822 
L 224.237703 167.029822 
L 224.237703 162.638535 
L 225.251652 162.638535 
L 225.251652 158.247248 
L 225.278307 158.247248 
L 225.278307 153.85596 
L 226.735389 153.85596 
L 226.735389 149.464673 
L 228.875474 149.464673 
L 228.875474 145.073386 
L 229.203362 145.073386 
L 229.203362 140.682099 
L 229.832662 140.682099 
L 229.832662 136.290812 
L 231.851109 136.290812 
L 231.851109 131.899525 
L 237.29355 131.899525 
L 237.29355 127.508238 
L 240.571886 127.508238 
L 240.571886 123.11695 
L 241.908499 123.11695 
L 241.908499 118.725663 
L 242.17475 118.725663 
L 242.17475 114.334376 
L 244.272262 114.334376 
L 244.272262 109.943089 
L 244.905246 109.943089 
L 244.905246 105.551802 
L 245.004074 105.551802 
L 245.004074 101.160515 
L 248.549376 101.160515 
L 248.549376 96.769228 
L 251.644366 96.769228 
L 251.644366 92.377941 
L 251.956958 92.377941 
L 251.956958 87.986653 
L 252.24234 87.986653 
L 252.24234 83.595366 
L 252.689118 83.595366 
L 252.689118 79.204079 
L 252.895223 79.204079 
L 252.895223 74.812792 
L 255.952246 74.812792 
L 255.952246 70.421505 
L 257.380051 70.421505 
L 257.380051 66.030218 
L 258.842989 66.030218 
L 258.842989 61.638931 
L 262.59879 61.638931 
L 262.59879 57.247644 
L 265.045179 57.247644 
L 265.045179 52.856356 
L 267.979348 52.856356 
L 267.979348 48.465069 
L 268.899161 48.465069 
L 268.899161 44.073782 
L 270.078301 44.073782 
L 270.078301 39.682495 
L 272.965206 39.682495 
L 272.965206 35.291208 
L 274.103503 35.291208 
L 274.103503 30.899921 
L 276.755523 30.899921 
L 276.755523 26.508634 
L 278.122471 26.508634 
L 278.122471 22.117347 
L 280.997763 22.117347 
L 280.997763 17.726059 
L 286.802917 17.726059 
L 286.802917 13.334772 
L 286.802917 13.334772 
L 286.802917 13.334772 
L 367.82 13.334772 
" style="fill:none;stroke:#000000;stroke-linecap:square;stroke-width:1.5;"/>
   </g>
   <g id="line2d_27">
    <path clip-path="url(#pb9a0a13c7f)" d="M 178.196777 276.812 
L 178.196777 272.420713 
L 178.807377 272.420713 
L 178.807377 268.029426 
L 181.453642 268.029426 
L 181.453642 263.638139 
L 183.680112 263.638139 
L 183.680112 259.246851 
L 184.541675 259.246851 
L 184.541675 254.855564 
L 184.805375 254.855564 
L 184.805375 250.464277 
L 184.876145 250.464277 
L 184.876145 246.07299 
L 185.251578 246.07299 
L 185.251578 241.681703 
L 185.385833 241.681703 
L 185.385833 237.290416 
L 185.669635 237.290416 
L 185.669635 232.899129 
L 185.762208 232.899129 
L 185.762208 228.507842 
L 185.934607 228.507842 
L 185.934607 224.116554 
L 186.964494 224.116554 
L 186.964494 219.725267 
L 187.078275 219.725267 
L 187.078275 215.33398 
L 187.2794 215.33398 
L 187.2794 210.942693 
L 188.039338 210.942693 
L 188.039338 206.551406 
L 192.693275 206.551406 
L 192.693275 202.160119 
L 196.674263 202.160119 
L 196.674263 197.768832 
L 198.956869 197.768832 
L 198.956869 193.377545 
L 201.756012 193.377545 
L 201.756012 188.986257 
L 204.882059 188.986257 
L 204.882059 184.59497 
L 205.960429 184.59497 
L 205.960429 180.203683 
L 206.201765 180.203683 
L 206.201765 175.812396 
L 206.769318 175.812396 
L 206.769318 171.421109 
L 207.342433 171.421109 
L 207.342433 167.029822 
L 207.741696 167.029822 
L 207.741696 162.638535 
L 208.031554 162.638535 
L 208.031554 158.247248 
L 209.372785 158.247248 
L 209.372785 153.85596 
L 209.917746 153.85596 
L 209.917746 149.464673 
L 211.454736 149.464673 
L 211.454736 145.073386 
L 216.507228 145.073386 
L 216.507228 140.682099 
L 217.18708 140.682099 
L 217.18708 136.290812 
L 218.0322 136.290812 
L 218.0322 131.899525 
L 218.942674 131.899525 
L 218.942674 127.508238 
L 223.43778 127.508238 
L 223.43778 123.11695 
L 224.001296 123.11695 
L 224.001296 118.725663 
L 224.695229 118.725663 
L 224.695229 114.334376 
L 225.352277 114.334376 
L 225.352277 109.943089 
L 225.373192 109.943089 
L 225.373192 105.551802 
L 227.008148 105.551802 
L 227.008148 101.160515 
L 227.535085 101.160515 
L 227.535085 96.769228 
L 231.150967 96.769228 
L 231.150967 92.377941 
L 232.112198 92.377941 
L 232.112198 87.986653 
L 232.500564 87.986653 
L 232.500564 83.595366 
L 233.594232 83.595366 
L 233.594232 79.204079 
L 233.609645 79.204079 
L 233.609645 74.812792 
L 236.056709 74.812792 
L 236.056709 70.421505 
L 238.504207 70.421505 
L 238.504207 66.030218 
L 240.091705 66.030218 
L 240.091705 61.638931 
L 242.980283 61.638931 
L 242.980283 57.247644 
L 245.223369 57.247644 
L 245.223369 52.856356 
L 245.70883 52.856356 
L 245.70883 48.465069 
L 251.400987 48.465069 
L 251.400987 44.073782 
L 254.421683 44.073782 
L 254.421683 39.682495 
L 260.291067 39.682495 
L 260.291067 35.291208 
L 266.732071 35.291208 
L 266.732071 30.899921 
L 267.965168 30.899921 
L 267.965168 26.508634 
L 272.97094 26.508634 
L 272.97094 22.117347 
L 273.641888 22.117347 
L 273.641888 17.726059 
L 281.424028 17.726059 
L 281.424028 13.334772 
L 281.424028 13.334772 
L 281.424028 13.334772 
L 367.82 13.334772 
" style="fill:none;stroke:#00bfbf;stroke-linecap:square;stroke-width:1.5;"/>
   </g>
   <g id="line2d_28">
    <path clip-path="url(#pb9a0a13c7f)" d="M 132.54693 276.812 
L 132.54693 272.420713 
L 151.849084 272.420713 
L 151.849084 268.029426 
L 153.674699 268.029426 
L 153.674699 263.638139 
L 155.495423 263.638139 
L 155.495423 259.246851 
L 158.31748 259.246851 
L 158.31748 254.855564 
L 158.691889 254.855564 
L 158.691889 250.464277 
L 159.862116 250.464277 
L 159.862116 246.07299 
L 159.864845 246.07299 
L 159.864845 241.681703 
L 160.334082 241.681703 
L 160.334082 237.290416 
L 161.945833 237.290416 
L 161.945833 232.899129 
L 161.99966 232.899129 
L 161.99966 228.507842 
L 162.014252 228.507842 
L 162.014252 224.116554 
L 162.123709 224.116554 
L 162.123709 219.725267 
L 162.725629 219.725267 
L 162.725629 215.33398 
L 164.012978 215.33398 
L 164.012978 210.942693 
L 166.776302 210.942693 
L 166.776302 206.551406 
L 167.177139 206.551406 
L 167.177139 202.160119 
L 167.913571 202.160119 
L 167.913571 197.768832 
L 168.167665 197.768832 
L 168.167665 193.377545 
L 168.74041 193.377545 
L 168.74041 188.986257 
L 168.872412 188.986257 
L 168.872412 184.59497 
L 169.017091 184.59497 
L 169.017091 180.203683 
L 169.040897 180.203683 
L 169.040897 175.812396 
L 169.175026 175.812396 
L 169.175026 171.421109 
L 169.532087 171.421109 
L 169.532087 167.029822 
L 170.93403 167.029822 
L 170.93403 162.638535 
L 171.173571 162.638535 
L 171.173571 158.247248 
L 171.709494 158.247248 
L 171.709494 153.85596 
L 172.981822 153.85596 
L 172.981822 149.464673 
L 174.263151 149.464673 
L 174.263151 145.073386 
L 174.676661 145.073386 
L 174.676661 140.682099 
L 175.012405 140.682099 
L 175.012405 136.290812 
L 176.045938 136.290812 
L 176.045938 131.899525 
L 176.66553 131.899525 
L 176.66553 127.508238 
L 176.680857 127.508238 
L 176.680857 123.11695 
L 177.518226 123.11695 
L 177.518226 118.725663 
L 178.593874 118.725663 
L 178.593874 114.334376 
L 179.238017 114.334376 
L 179.238017 109.943089 
L 179.26402 109.943089 
L 179.26402 105.551802 
L 179.32616 105.551802 
L 179.32616 101.160515 
L 179.772225 101.160515 
L 179.772225 96.769228 
L 179.979817 96.769228 
L 179.979817 92.377941 
L 180.013599 92.377941 
L 180.013599 87.986653 
L 180.090739 87.986653 
L 180.090739 83.595366 
L 180.238861 83.595366 
L 180.238861 79.204079 
L 180.458697 79.204079 
L 180.458697 74.812792 
L 180.577518 74.812792 
L 180.577518 70.421505 
L 180.584849 70.421505 
L 180.584849 66.030218 
L 180.73949 66.030218 
L 180.73949 61.638931 
L 181.840978 61.638931 
L 181.840978 57.247644 
L 181.964503 57.247644 
L 181.964503 52.856356 
L 182.040247 52.856356 
L 182.040247 48.465069 
L 184.318106 48.465069 
L 184.318106 44.073782 
L 184.571893 44.073782 
L 184.571893 39.682495 
L 184.780417 39.682495 
L 184.780417 35.291208 
L 184.921781 35.291208 
L 184.921781 30.899921 
L 187.379349 30.899921 
L 187.379349 26.508634 
L 188.883275 26.508634 
L 188.883275 22.117347 
L 189.276716 22.117347 
L 189.276716 17.726059 
L 193.083933 17.726059 
L 193.083933 13.334772 
L 193.083933 13.334772 
L 193.083933 13.334772 
L 367.82 13.334772 
" style="fill:none;stroke:#bf00bf;stroke-linecap:square;stroke-width:1.5;"/>
   </g>
   <g id="line2d_29">
    <path clip-path="url(#pb9a0a13c7f)" d="M -1 210.942693 
L 129.439356 210.942693 
L 129.439356 206.551406 
L 139.067823 206.551406 
L 139.067823 202.160119 
L 140.013571 202.160119 
L 140.013571 197.768832 
L 144.945167 197.768832 
L 144.945167 193.377545 
L 145.53161 193.377545 
L 145.53161 188.986257 
L 145.825016 188.986257 
L 145.825016 184.59497 
L 146.708957 184.59497 
L 146.708957 180.203683 
L 147.574984 180.203683 
L 147.574984 175.812396 
L 148.992 175.812396 
L 148.992 171.421109 
L 149.333041 171.421109 
L 149.333041 167.029822 
L 150.289844 167.029822 
L 150.289844 162.638535 
L 150.773379 162.638535 
L 150.773379 158.247248 
L 151.601335 158.247248 
L 151.601335 153.85596 
L 152.878335 153.85596 
L 152.878335 149.464673 
L 152.922682 149.464673 
L 152.922682 145.073386 
L 153.491957 145.073386 
L 153.491957 140.682099 
L 153.674699 140.682099 
L 153.674699 136.290812 
L 154.738318 136.290812 
L 154.738318 131.899525 
L 154.753292 131.899525 
L 154.753292 127.508238 
L 154.887763 127.508238 
L 154.887763 123.11695 
L 155.2796 123.11695 
L 155.2796 118.725663 
L 157.034864 118.725663 
L 157.034864 114.334376 
L 157.850195 114.334376 
L 157.850195 109.943089 
L 157.970256 109.943089 
L 157.970256 105.551802 
L 158.051729 105.551802 
L 158.051729 101.160515 
L 158.467293 101.160515 
L 158.467293 96.769228 
L 158.68491 96.769228 
L 158.68491 92.377941 
L 158.798223 92.377941 
L 158.798223 87.986653 
L 161.99966 87.986653 
L 161.99966 83.595366 
L 162.014252 83.595366 
L 162.014252 79.204079 
L 162.91963 79.204079 
L 162.91963 74.812792 
L 165.811931 74.812792 
L 165.811931 70.421505 
L 171.173571 70.421505 
L 171.173571 66.030218 
L 171.856882 66.030218 
L 171.856882 61.638931 
L 174.676661 61.638931 
L 174.676661 57.247644 
L 176.66553 57.247644 
L 176.66553 52.856356 
L 179.979817 52.856356 
L 179.979817 48.465069 
L 180.013599 48.465069 
L 180.013599 44.073782 
L 181.840978 44.073782 
L 181.840978 39.682495 
L 182.040247 39.682495 
L 182.040247 35.291208 
L 183.783345 35.291208 
L 183.783345 30.899921 
L 183.930265 30.899921 
L 183.930265 26.508634 
L 184.571893 26.508634 
L 184.571893 22.117347 
L 185.820545 22.117347 
L 185.820545 17.726059 
L 186.890885 17.726059 
L 186.890885 13.334772 
L 186.890885 13.334772 
L 186.890885 13.334772 
L 367.82 13.334772 
" style="fill:none;stroke:#000000;stroke-linecap:square;stroke-width:1.5;"/>
   </g>
   <g id="patch_3">
    <path d="M 10.7 276.812 
L 10.7 10.7 
" style="fill:none;stroke:#000000;stroke-linecap:square;stroke-linejoin:miter;stroke-width:0.8;"/>
   </g>
   <g id="patch_4">
    <path d="M 367.82 276.812 
L 367.82 10.7 
" style="fill:none;stroke:#000000;stroke-linecap:square;stroke-linejoin:miter;stroke-width:0.8;"/>
   </g>
   <g id="patch_5">
    <path d="M 10.7 276.812 
L 367.82 276.812 
" style="fill:none;stroke:#000000;stroke-linecap:square;stroke-linejoin:miter;stroke-width:0.8;"/>
   </g>
   <g id="patch_6">
    <path d="M 10.7 10.7 
L 367.82 10.7 
" style="fill:none;stroke:#000000;stroke-linecap:square;stroke-linejoin:miter;stroke-width:0.8;"/>
   </g>
   <g id="text_6">
    <!-- {f6-f9}, 5-D -->
    <defs>
     <path d="M 51.125 -9.28125 
L 51.125 -16.3125 
L 48.09375 -16.3125 
Q 35.9375 -16.3125 31.8125 -12.6875 
Q 27.6875 -9.078125 27.6875 1.703125 
L 27.6875 13.375 
Q 27.6875 20.75 25.046875 23.578125 
Q 22.40625 26.421875 15.484375 26.421875 
L 12.5 26.421875 
L 12.5 33.40625 
L 15.484375 33.40625 
Q 22.46875 33.40625 25.078125 36.203125 
Q 27.6875 39.015625 27.6875 46.296875 
L 27.6875 58.015625 
Q 27.6875 68.796875 31.8125 72.390625 
Q 35.9375 75.984375 48.09375 75.984375 
L 51.125 75.984375 
L 51.125 69 
L 47.796875 69 
Q 40.921875 69 38.8125 66.84375 
Q 36.71875 64.703125 36.71875 57.8125 
L 36.71875 45.703125 
Q 36.71875 38.03125 34.5 34.5625 
Q 32.28125 31.109375 26.90625 29.890625 
Q 32.328125 28.5625 34.515625 25.09375 
Q 36.71875 21.625 36.71875 14.015625 
L 36.71875 1.90625 
Q 36.71875 -4.984375 38.8125 -7.125 
Q 40.921875 -9.28125 47.796875 -9.28125 
z
" id="DejaVuSans-7b"/>
     <path d="M 33.015625 40.375 
Q 26.375 40.375 22.484375 35.828125 
Q 18.609375 31.296875 18.609375 23.390625 
Q 18.609375 15.53125 22.484375 10.953125 
Q 26.375 6.390625 33.015625 6.390625 
Q 39.65625 6.390625 43.53125 10.953125 
Q 47.40625 15.53125 47.40625 23.390625 
Q 47.40625 31.296875 43.53125 35.828125 
Q 39.65625 40.375 33.015625 40.375 
z
M 52.59375 71.296875 
L 52.59375 62.3125 
Q 48.875 64.0625 45.09375 64.984375 
Q 41.3125 65.921875 37.59375 65.921875 
Q 27.828125 65.921875 22.671875 59.328125 
Q 17.53125 52.734375 16.796875 39.40625 
Q 19.671875 43.65625 24.015625 45.921875 
Q 28.375 48.1875 33.59375 48.1875 
Q 44.578125 48.1875 50.953125 41.515625 
Q 57.328125 34.859375 57.328125 23.390625 
Q 57.328125 12.15625 50.6875 5.359375 
Q 44.046875 -1.421875 33.015625 -1.421875 
Q 20.359375 -1.421875 13.671875 8.265625 
Q 6.984375 17.96875 6.984375 36.375 
Q 6.984375 53.65625 15.1875 63.9375 
Q 23.390625 74.21875 37.203125 74.21875 
Q 40.921875 74.21875 44.703125 73.484375 
Q 48.484375 72.75 52.59375 71.296875 
z
" id="DejaVuSans-36"/>
     <path d="M 10.984375 1.515625 
L 10.984375 10.5 
Q 14.703125 8.734375 18.5 7.8125 
Q 22.3125 6.890625 25.984375 6.890625 
Q 35.75 6.890625 40.890625 13.453125 
Q 46.046875 20.015625 46.78125 33.40625 
Q 43.953125 29.203125 39.59375 26.953125 
Q 35.25 24.703125 29.984375 24.703125 
Q 19.046875 24.703125 12.671875 31.3125 
Q 6.296875 37.9375 6.296875 49.421875 
Q 6.296875 60.640625 12.9375 67.421875 
Q 19.578125 74.21875 30.609375 74.21875 
Q 43.265625 74.21875 49.921875 64.515625 
Q 56.59375 54.828125 56.59375 36.375 
Q 56.59375 19.140625 48.40625 8.859375 
Q 40.234375 -1.421875 26.421875 -1.421875 
Q 22.703125 -1.421875 18.890625 -0.6875 
Q 15.09375 0.046875 10.984375 1.515625 
z
M 30.609375 32.421875 
Q 37.25 32.421875 41.125 36.953125 
Q 45.015625 41.5 45.015625 49.421875 
Q 45.015625 57.28125 41.125 61.84375 
Q 37.25 66.40625 30.609375 66.40625 
Q 23.96875 66.40625 20.09375 61.84375 
Q 16.21875 57.28125 16.21875 49.421875 
Q 16.21875 41.5 20.09375 36.953125 
Q 23.96875 32.421875 30.609375 32.421875 
z
" id="DejaVuSans-39"/>
     <path d="M 12.5 -9.28125 
L 15.921875 -9.28125 
Q 22.75 -9.28125 24.828125 -7.171875 
Q 26.90625 -5.078125 26.90625 1.90625 
L 26.90625 14.015625 
Q 26.90625 21.625 29.09375 25.09375 
Q 31.296875 28.5625 36.71875 29.890625 
Q 31.296875 31.109375 29.09375 34.5625 
Q 26.90625 38.03125 26.90625 45.703125 
L 26.90625 57.8125 
Q 26.90625 64.75 24.828125 66.875 
Q 22.75 69 15.921875 69 
L 12.5 69 
L 12.5 75.984375 
L 15.578125 75.984375 
Q 27.734375 75.984375 31.8125 72.390625 
Q 35.890625 68.796875 35.890625 58.015625 
L 35.890625 46.296875 
Q 35.890625 39.015625 38.515625 36.203125 
Q 41.15625 33.40625 48.09375 33.40625 
L 51.125 33.40625 
L 51.125 26.421875 
L 48.09375 26.421875 
Q 41.15625 26.421875 38.515625 23.578125 
Q 35.890625 20.75 35.890625 13.375 
L 35.890625 1.703125 
Q 35.890625 -9.078125 31.8125 -12.6875 
Q 27.734375 -16.3125 15.578125 -16.3125 
L 12.5 -16.3125 
z
" id="DejaVuSans-7d"/>
     <path d="M 11.71875 12.40625 
L 22.015625 12.40625 
L 22.015625 4 
L 14.015625 -11.625 
L 7.71875 -11.625 
L 11.71875 4 
z
" id="DejaVuSans-2c"/>
     <path d="M 10.796875 72.90625 
L 49.515625 72.90625 
L 49.515625 64.59375 
L 19.828125 64.59375 
L 19.828125 46.734375 
Q 21.96875 47.46875 24.109375 47.828125 
Q 26.265625 48.1875 28.421875 48.1875 
Q 40.625 48.1875 47.75 41.5 
Q 54.890625 34.8125 54.890625 23.390625 
Q 54.890625 11.625 47.5625 5.09375 
Q 40.234375 -1.421875 26.90625 -1.421875 
Q 22.3125 -1.421875 17.546875 -0.640625 
Q 12.796875 0.140625 7.71875 1.703125 
L 7.71875 11.625 
Q 12.109375 9.234375 16.796875 8.0625 
Q 21.484375 6.890625 26.703125 6.890625 
Q 35.15625 6.890625 40.078125 11.328125 
Q 45.015625 15.765625 45.015625 23.390625 
Q 45.015625 31 40.078125 35.4375 
Q 35.15625 39.890625 26.703125 39.890625 
Q 22.75 39.890625 18.8125 39.015625 
Q 14.890625 38.140625 10.796875 36.28125 
z
" id="DejaVuSans-35"/>
    </defs>
    <g transform="translate(240.4276 271.48976)scale(0.2 -0.2)">
     <use xlink:href="#DejaVuSans-7b"/>
     <use x="63.623047" xlink:href="#DejaVuSans-66"/>
     <use x="98.828125" xlink:href="#DejaVuSans-36"/>
     <use x="162.451172" xlink:href="#DejaVuSans-2d"/>
     <use x="198.535156" xlink:href="#DejaVuSans-66"/>
     <use x="233.740234" xlink:href="#DejaVuSans-39"/>
     <use x="297.363281" xlink:href="#DejaVuSans-7d"/>
     <use x="360.986328" xlink:href="#DejaVuSans-2c"/>
     <use x="392.773438" xlink:href="#DejaVuSans-20"/>
     <use x="424.560547" xlink:href="#DejaVuSans-35"/>
     <use x="488.183594" xlink:href="#DejaVuSans-2d"/>
     <use x="524.267578" xlink:href="#DejaVuSans-44"/>
    </g>
   </g>
   <g id="text_7">
    <!-- v2.1 -->
    <defs>
     <path d="M 2.984375 54.6875 
L 12.5 54.6875 
L 29.59375 8.796875 
L 46.6875 54.6875 
L 56.203125 54.6875 
L 35.6875 0 
L 23.484375 0 
z
" id="DejaVuSans-76"/>
     <path d="M 19.1875 8.296875 
L 53.609375 8.296875 
L 53.609375 0 
L 7.328125 0 
L 7.328125 8.296875 
Q 12.9375 14.109375 22.625 23.890625 
Q 32.328125 33.6875 34.8125 36.53125 
Q 39.546875 41.84375 41.421875 45.53125 
Q 43.3125 49.21875 43.3125 52.78125 
Q 43.3125 58.59375 39.234375 62.25 
Q 35.15625 65.921875 28.609375 65.921875 
Q 23.96875 65.921875 18.8125 64.3125 
Q 13.671875 62.703125 7.8125 59.421875 
L 7.8125 69.390625 
Q 13.765625 71.78125 18.9375 73 
Q 24.125 74.21875 28.421875 74.21875 
Q 39.75 74.21875 46.484375 68.546875 
Q 53.21875 62.890625 53.21875 53.421875 
Q 53.21875 48.921875 51.53125 44.890625 
Q 49.859375 40.875 45.40625 35.40625 
Q 44.1875 33.984375 37.640625 27.21875 
Q 31.109375 20.453125 19.1875 8.296875 
z
" id="DejaVuSans-32"/>
     <path d="M 10.6875 12.40625 
L 21 12.40625 
L 21 0 
L 10.6875 0 
z
" id="DejaVuSans-2e"/>
    </defs>
    <g style="fill:#808080;" transform="translate(178.349063 272.071193)scale(0.1 -0.1)">
     <use xlink:href="#DejaVuSans-76"/>
     <use x="59.179688" xlink:href="#DejaVuSans-32"/>
     <use x="122.802734" xlink:href="#DejaVuSans-2e"/>
     <use x="154.589844" xlink:href="#DejaVuSans-31"/>
    </g>
   </g>
  </g>
 </g>
 <defs>
  <clipPath id="pb9a0a13c7f">
   <rect height="266.112" width="357.12" x="10.7" y="10.7"/>
  </clipPath>
 </defs>
</svg>
