<?xml version="1.0" encoding="utf-8" standalone="no"?>
<!DOCTYPE svg PUBLIC "-//W3C//DTD SVG 1.1//EN"
  "http://www.w3.org/Graphics/SVG/1.1/DTD/svg11.dtd">
<!-- Created with matplotlib (http://matplotlib.org/) -->
<svg height="333pt" version="1.1" viewBox="0 0 378 333" width="378pt" xmlns="http://www.w3.org/2000/svg" xmlns:xlink="http://www.w3.org/1999/xlink">
 <defs>
  <style type="text/css">
*{stroke-linecap:butt;stroke-linejoin:round;}
  </style>
 </defs>
 <g id="figure_1">
  <g id="patch_1">
   <path d="M 0 333.7245 
L 378.52 333.7245 
L 378.52 0 
L 0 0 
z
" style="fill:#ffffff;"/>
  </g>
  <g id="axes_1">
   <g id="patch_2">
    <path d="M 10.7 276.812 
L 367.82 276.812 
L 367.82 10.7 
L 10.7 10.7 
z
" style="fill:#ffffff;"/>
   </g>
   <g id="matplotlib.axis_1">
    <g id="xtick_1">
     <g id="line2d_1">
      <path clip-path="url(#p34f4c6e4ab)" d="M 10.61312 276.812 
L 10.61312 10.7 
" style="fill:none;stroke:#b0b0b0;stroke-linecap:square;stroke-width:0.8;"/>
     </g>
     <g id="line2d_2">
      <defs>
       <path d="M 0 0 
L 0 3.5 
" id="m692ec5152c" style="stroke:#000000;stroke-width:0.8;"/>
      </defs>
      <g>
       <use style="stroke:#000000;stroke-width:0.8;" x="10.61312" xlink:href="#m692ec5152c" y="276.812"/>
      </g>
     </g>
    </g>
    <g id="xtick_2">
     <g id="line2d_3">
      <path clip-path="url(#p34f4c6e4ab)" d="M 91.032378 276.812 
L 91.032378 10.7 
" style="fill:none;stroke:#b0b0b0;stroke-linecap:square;stroke-width:0.8;"/>
     </g>
     <g id="line2d_4">
      <g>
       <use style="stroke:#000000;stroke-width:0.8;" x="91.032378" xlink:href="#m692ec5152c" y="276.812"/>
      </g>
     </g>
     <g id="text_1">
      <!-- -4 -->
      <defs>
       <path d="M 4.890625 31.390625 
L 31.203125 31.390625 
L 31.203125 23.390625 
L 4.890625 23.390625 
z
" id="DejaVuSans-2d"/>
       <path d="M 37.796875 64.3125 
L 12.890625 25.390625 
L 37.796875 25.390625 
z
M 35.203125 72.90625 
L 47.609375 72.90625 
L 47.609375 25.390625 
L 58.015625 25.390625 
L 58.015625 17.1875 
L 47.609375 17.1875 
L 47.609375 0 
L 37.796875 0 
L 37.796875 17.1875 
L 4.890625 17.1875 
L 4.890625 26.703125 
z
" id="DejaVuSans-34"/>
      </defs>
      <g transform="translate(81.062066 299.008875)scale(0.2 -0.2)">
       <use xlink:href="#DejaVuSans-2d"/>
       <use x="36.083984" xlink:href="#DejaVuSans-34"/>
      </g>
     </g>
    </g>
    <g id="xtick_3">
     <g id="line2d_5">
      <path clip-path="url(#p34f4c6e4ab)" d="M 171.451637 276.812 
L 171.451637 10.7 
" style="fill:none;stroke:#b0b0b0;stroke-linecap:square;stroke-width:0.8;"/>
     </g>
     <g id="line2d_6">
      <g>
       <use style="stroke:#000000;stroke-width:0.8;" x="171.451637" xlink:href="#m692ec5152c" y="276.812"/>
      </g>
     </g>
     <g id="text_2">
      <!-- 0 -->
      <defs>
       <path d="M 31.78125 66.40625 
Q 24.171875 66.40625 20.328125 58.90625 
Q 16.5 51.421875 16.5 36.375 
Q 16.5 21.390625 20.328125 13.890625 
Q 24.171875 6.390625 31.78125 6.390625 
Q 39.453125 6.390625 43.28125 13.890625 
Q 47.125 21.390625 47.125 36.375 
Q 47.125 51.421875 43.28125 58.90625 
Q 39.453125 66.40625 31.78125 66.40625 
z
M 31.78125 74.21875 
Q 44.046875 74.21875 50.515625 64.515625 
Q 56.984375 54.828125 56.984375 36.375 
Q 56.984375 17.96875 50.515625 8.265625 
Q 44.046875 -1.421875 31.78125 -1.421875 
Q 19.53125 -1.421875 13.0625 8.265625 
Q 6.59375 17.96875 6.59375 36.375 
Q 6.59375 54.828125 13.0625 64.515625 
Q 19.53125 74.21875 31.78125 74.21875 
z
" id="DejaVuSans-30"/>
      </defs>
      <g transform="translate(165.089137 299.008875)scale(0.2 -0.2)">
       <use xlink:href="#DejaVuSans-30"/>
      </g>
     </g>
    </g>
    <g id="xtick_4">
     <g id="line2d_7">
      <path clip-path="url(#p34f4c6e4ab)" d="M 251.870895 276.812 
L 251.870895 10.7 
" style="fill:none;stroke:#b0b0b0;stroke-linecap:square;stroke-width:0.8;"/>
     </g>
     <g id="line2d_8">
      <g>
       <use style="stroke:#000000;stroke-width:0.8;" x="251.870895" xlink:href="#m692ec5152c" y="276.812"/>
      </g>
     </g>
     <g id="text_3">
      <!-- 4 -->
      <g transform="translate(245.508395 299.008875)scale(0.2 -0.2)">
       <use xlink:href="#DejaVuSans-34"/>
      </g>
     </g>
    </g>
    <g id="xtick_5">
     <g id="line2d_9">
      <path clip-path="url(#p34f4c6e4ab)" d="M 332.290153 276.812 
L 332.290153 10.7 
" style="fill:none;stroke:#b0b0b0;stroke-linecap:square;stroke-width:0.8;"/>
     </g>
     <g id="line2d_10">
      <g>
       <use style="stroke:#000000;stroke-width:0.8;" x="332.290153" xlink:href="#m692ec5152c" y="276.812"/>
      </g>
     </g>
     <g id="text_4">
      <!-- 8 -->
      <defs>
       <path d="M 31.78125 34.625 
Q 24.75 34.625 20.71875 30.859375 
Q 16.703125 27.09375 16.703125 20.515625 
Q 16.703125 13.921875 20.71875 10.15625 
Q 24.75 6.390625 31.78125 6.390625 
Q 38.8125 6.390625 42.859375 10.171875 
Q 46.921875 13.96875 46.921875 20.515625 
Q 46.921875 27.09375 42.890625 30.859375 
Q 38.875 34.625 31.78125 34.625 
z
M 21.921875 38.8125 
Q 15.578125 40.375 12.03125 44.71875 
Q 8.5 49.078125 8.5 55.328125 
Q 8.5 64.0625 14.71875 69.140625 
Q 20.953125 74.21875 31.78125 74.21875 
Q 42.671875 74.21875 48.875 69.140625 
Q 55.078125 64.0625 55.078125 55.328125 
Q 55.078125 49.078125 51.53125 44.71875 
Q 48 40.375 41.703125 38.8125 
Q 48.828125 37.15625 52.796875 32.3125 
Q 56.78125 27.484375 56.78125 20.515625 
Q 56.78125 9.90625 50.3125 4.234375 
Q 43.84375 -1.421875 31.78125 -1.421875 
Q 19.734375 -1.421875 13.25 4.234375 
Q 6.78125 9.90625 6.78125 20.515625 
Q 6.78125 27.484375 10.78125 32.3125 
Q 14.796875 37.15625 21.921875 38.8125 
z
M 18.3125 54.390625 
Q 18.3125 48.734375 21.84375 45.5625 
Q 25.390625 42.390625 31.78125 42.390625 
Q 38.140625 42.390625 41.71875 45.5625 
Q 45.3125 48.734375 45.3125 54.390625 
Q 45.3125 60.0625 41.71875 63.234375 
Q 38.140625 66.40625 31.78125 66.40625 
Q 25.390625 66.40625 21.84375 63.234375 
Q 18.3125 60.0625 18.3125 54.390625 
z
" id="DejaVuSans-38"/>
      </defs>
      <g transform="translate(325.927653 299.008875)scale(0.2 -0.2)">
       <use xlink:href="#DejaVuSans-38"/>
      </g>
     </g>
    </g>
    <g id="text_5">
     <!-- log10 of Df -->
     <defs>
      <path d="M 9.421875 75.984375 
L 18.40625 75.984375 
L 18.40625 0 
L 9.421875 0 
z
" id="DejaVuSans-6c"/>
      <path d="M 30.609375 48.390625 
Q 23.390625 48.390625 19.1875 42.75 
Q 14.984375 37.109375 14.984375 27.296875 
Q 14.984375 17.484375 19.15625 11.84375 
Q 23.34375 6.203125 30.609375 6.203125 
Q 37.796875 6.203125 41.984375 11.859375 
Q 46.1875 17.53125 46.1875 27.296875 
Q 46.1875 37.015625 41.984375 42.703125 
Q 37.796875 48.390625 30.609375 48.390625 
z
M 30.609375 56 
Q 42.328125 56 49.015625 48.375 
Q 55.71875 40.765625 55.71875 27.296875 
Q 55.71875 13.875 49.015625 6.21875 
Q 42.328125 -1.421875 30.609375 -1.421875 
Q 18.84375 -1.421875 12.171875 6.21875 
Q 5.515625 13.875 5.515625 27.296875 
Q 5.515625 40.765625 12.171875 48.375 
Q 18.84375 56 30.609375 56 
z
" id="DejaVuSans-6f"/>
      <path d="M 45.40625 27.984375 
Q 45.40625 37.75 41.375 43.109375 
Q 37.359375 48.484375 30.078125 48.484375 
Q 22.859375 48.484375 18.828125 43.109375 
Q 14.796875 37.75 14.796875 27.984375 
Q 14.796875 18.265625 18.828125 12.890625 
Q 22.859375 7.515625 30.078125 7.515625 
Q 37.359375 7.515625 41.375 12.890625 
Q 45.40625 18.265625 45.40625 27.984375 
z
M 54.390625 6.78125 
Q 54.390625 -7.171875 48.1875 -13.984375 
Q 42 -20.796875 29.203125 -20.796875 
Q 24.46875 -20.796875 20.265625 -20.09375 
Q 16.0625 -19.390625 12.109375 -17.921875 
L 12.109375 -9.1875 
Q 16.0625 -11.328125 19.921875 -12.34375 
Q 23.78125 -13.375 27.78125 -13.375 
Q 36.625 -13.375 41.015625 -8.765625 
Q 45.40625 -4.15625 45.40625 5.171875 
L 45.40625 9.625 
Q 42.625 4.78125 38.28125 2.390625 
Q 33.9375 0 27.875 0 
Q 17.828125 0 11.671875 7.65625 
Q 5.515625 15.328125 5.515625 27.984375 
Q 5.515625 40.671875 11.671875 48.328125 
Q 17.828125 56 27.875 56 
Q 33.9375 56 38.28125 53.609375 
Q 42.625 51.21875 45.40625 46.390625 
L 45.40625 54.6875 
L 54.390625 54.6875 
z
" id="DejaVuSans-67"/>
      <path d="M 12.40625 8.296875 
L 28.515625 8.296875 
L 28.515625 63.921875 
L 10.984375 60.40625 
L 10.984375 69.390625 
L 28.421875 72.90625 
L 38.28125 72.90625 
L 38.28125 8.296875 
L 54.390625 8.296875 
L 54.390625 0 
L 12.40625 0 
z
" id="DejaVuSans-31"/>
      <path id="DejaVuSans-20"/>
      <path d="M 37.109375 75.984375 
L 37.109375 68.5 
L 28.515625 68.5 
Q 23.6875 68.5 21.796875 66.546875 
Q 19.921875 64.59375 19.921875 59.515625 
L 19.921875 54.6875 
L 34.71875 54.6875 
L 34.71875 47.703125 
L 19.921875 47.703125 
L 19.921875 0 
L 10.890625 0 
L 10.890625 47.703125 
L 2.296875 47.703125 
L 2.296875 54.6875 
L 10.890625 54.6875 
L 10.890625 58.5 
Q 10.890625 67.625 15.140625 71.796875 
Q 19.390625 75.984375 28.609375 75.984375 
z
" id="DejaVuSans-66"/>
      <path d="M 19.671875 64.796875 
L 19.671875 8.109375 
L 31.59375 8.109375 
Q 46.6875 8.109375 53.6875 14.9375 
Q 60.6875 21.78125 60.6875 36.53125 
Q 60.6875 51.171875 53.6875 57.984375 
Q 46.6875 64.796875 31.59375 64.796875 
z
M 9.8125 72.90625 
L 30.078125 72.90625 
Q 51.265625 72.90625 61.171875 64.09375 
Q 71.09375 55.28125 71.09375 36.53125 
Q 71.09375 17.671875 61.125 8.828125 
Q 51.171875 0 30.078125 0 
L 9.8125 0 
z
" id="DejaVuSans-44"/>
     </defs>
     <g transform="translate(134.074063 322.365125)scale(0.2 -0.2)">
      <use xlink:href="#DejaVuSans-6c"/>
      <use x="27.783203" xlink:href="#DejaVuSans-6f"/>
      <use x="88.964844" xlink:href="#DejaVuSans-67"/>
      <use x="152.441406" xlink:href="#DejaVuSans-31"/>
      <use x="216.064453" xlink:href="#DejaVuSans-30"/>
      <use x="279.6875" xlink:href="#DejaVuSans-20"/>
      <use x="311.474609" xlink:href="#DejaVuSans-6f"/>
      <use x="372.65625" xlink:href="#DejaVuSans-66"/>
      <use x="407.861328" xlink:href="#DejaVuSans-20"/>
      <use x="439.648438" xlink:href="#DejaVuSans-44"/>
      <use x="516.650391" xlink:href="#DejaVuSans-66"/>
     </g>
    </g>
   </g>
   <g id="matplotlib.axis_2">
    <g id="ytick_1">
     <g id="line2d_11">
      <path clip-path="url(#p34f4c6e4ab)" d="M 10.7 276.812 
L 367.82 276.812 
" style="fill:none;stroke:#b0b0b0;stroke-linecap:square;stroke-width:0.8;"/>
     </g>
     <g id="line2d_12">
      <defs>
       <path d="M 0 0 
L -3.5 0 
" id="m6712d01a47" style="stroke:#000000;stroke-width:0.8;"/>
      </defs>
      <g>
       <use style="stroke:#000000;stroke-width:0.8;" x="10.7" xlink:href="#m6712d01a47" y="276.812"/>
      </g>
     </g>
    </g>
    <g id="ytick_2">
     <g id="line2d_13">
      <path clip-path="url(#p34f4c6e4ab)" d="M 10.7 224.116554 
L 367.82 224.116554 
" style="fill:none;stroke:#b0b0b0;stroke-linecap:square;stroke-width:0.8;"/>
     </g>
     <g id="line2d_14">
      <g>
       <use style="stroke:#000000;stroke-width:0.8;" x="10.7" xlink:href="#m6712d01a47" y="224.116554"/>
      </g>
     </g>
    </g>
    <g id="ytick_3">
     <g id="line2d_15">
      <path clip-path="url(#p34f4c6e4ab)" d="M 10.7 171.421109 
L 367.82 171.421109 
" style="fill:none;stroke:#b0b0b0;stroke-linecap:square;stroke-width:0.8;"/>
     </g>
     <g id="line2d_16">
      <g>
       <use style="stroke:#000000;stroke-width:0.8;" x="10.7" xlink:href="#m6712d01a47" y="171.421109"/>
      </g>
     </g>
    </g>
    <g id="ytick_4">
     <g id="line2d_17">
      <path clip-path="url(#p34f4c6e4ab)" d="M 10.7 118.725663 
L 367.82 118.725663 
" style="fill:none;stroke:#b0b0b0;stroke-linecap:square;stroke-width:0.8;"/>
     </g>
     <g id="line2d_18">
      <g>
       <use style="stroke:#000000;stroke-width:0.8;" x="10.7" xlink:href="#m6712d01a47" y="118.725663"/>
      </g>
     </g>
    </g>
    <g id="ytick_5">
     <g id="line2d_19">
      <path clip-path="url(#p34f4c6e4ab)" d="M 10.7 66.030218 
L 367.82 66.030218 
" style="fill:none;stroke:#b0b0b0;stroke-linecap:square;stroke-width:0.8;"/>
     </g>
     <g id="line2d_20">
      <g>
       <use style="stroke:#000000;stroke-width:0.8;" x="10.7" xlink:href="#m6712d01a47" y="66.030218"/>
      </g>
     </g>
    </g>
    <g id="ytick_6">
     <g id="line2d_21">
      <path clip-path="url(#p34f4c6e4ab)" d="M 10.7 13.334772 
L 367.82 13.334772 
" style="fill:none;stroke:#b0b0b0;stroke-linecap:square;stroke-width:0.8;"/>
     </g>
     <g id="line2d_22">
      <g>
       <use style="stroke:#000000;stroke-width:0.8;" x="10.7" xlink:href="#m6712d01a47" y="13.334772"/>
      </g>
     </g>
    </g>
   </g>
   <g id="line2d_23">
    <path clip-path="url(#p34f4c6e4ab)" d="M -1 269.785941 
L 10.61312 269.785941 
L 10.61312 259.246851 
L 158.421617 259.246851 
L 158.421617 255.733822 
L 163.784308 255.733822 
L 163.784308 252.220792 
L 164.477278 252.220792 
L 164.477278 248.707762 
L 165.450929 248.707762 
L 165.450929 245.194733 
L 165.943002 245.194733 
L 165.943002 241.681703 
L 166.682177 241.681703 
L 166.682177 238.168673 
L 167.969955 238.168673 
L 167.969955 234.655644 
L 168.235194 234.655644 
L 168.235194 231.142614 
L 169.208787 231.142614 
L 169.208787 227.629584 
L 169.57898 227.629584 
L 169.57898 224.116554 
L 169.825507 224.116554 
L 169.825507 220.603525 
L 170.609274 220.603525 
L 170.609274 217.090495 
L 171.307272 217.090495 
L 171.307272 213.577465 
L 171.719971 213.577465 
L 171.719971 210.064436 
L 172.633219 210.064436 
L 172.737015 199.525347 
L 172.929671 199.525347 
L 172.929671 196.012317 
L 173.248721 196.012317 
L 173.248721 192.499287 
L 173.366791 192.499287 
L 173.366791 188.986257 
L 173.492886 188.986257 
L 173.492886 185.473228 
L 174.631028 185.473228 
L 174.631028 181.960198 
L 174.993351 181.960198 
L 174.993351 174.934139 
L 175.220088 174.934139 
L 175.220088 171.421109 
L 175.657041 171.421109 
L 175.657041 167.908079 
L 176.401923 167.908079 
L 176.401923 164.39505 
L 176.8611 164.39505 
L 176.8611 160.88202 
L 177.03318 160.88202 
L 177.03318 157.36899 
L 177.227662 157.36899 
L 177.305083 146.829901 
L 177.69235 146.829901 
L 177.69235 143.316871 
L 177.898387 143.316871 
L 177.898387 139.803842 
L 178.379938 139.803842 
L 178.379938 136.290812 
L 178.703319 136.290812 
L 178.703319 132.777782 
L 179.090001 132.777782 
L 179.090001 129.264752 
L 179.357242 129.264752 
L 179.357242 125.751723 
L 179.762798 125.751723 
L 179.762798 118.725663 
L 182.810912 118.725663 
L 182.810912 115.212634 
L 185.613175 115.212634 
L 185.613175 111.699604 
L 186.005025 111.699604 
L 186.005025 108.186574 
L 188.456008 108.186574 
L 188.456008 104.673545 
L 188.774583 104.673545 
L 188.774583 97.647485 
L 189.367379 97.647485 
L 189.389141 90.621426 
L 189.741843 90.621426 
L 189.741843 87.108396 
L 190.043473 87.108396 
L 190.043473 83.595366 
L 190.383297 83.595366 
L 190.383297 80.082337 
L 190.931645 80.082337 
L 190.931645 76.569307 
L 191.495509 76.569307 
L 191.495509 73.056277 
L 192.159541 73.056277 
L 192.159541 69.543248 
L 193.287779 69.543248 
L 193.287779 66.030218 
L 193.441335 66.030218 
L 193.536713 59.004158 
L 194.331358 59.004158 
L 194.331358 55.491129 
L 194.717912 55.491129 
L 194.717912 51.978099 
L 194.851665 51.978099 
L 194.851665 48.465069 
L 195.272052 48.465069 
L 195.347205 41.43901 
L 196.175293 41.43901 
L 196.175293 37.92598 
L 196.702715 37.92598 
L 196.702715 34.41295 
L 196.930446 34.41295 
L 196.930446 30.899921 
L 197.24581 30.899921 
L 197.24581 27.386891 
L 198.11118 27.386891 
L 198.11118 23.873861 
L 199.72197 23.873861 
L 199.72197 20.360832 
L 199.914617 20.360832 
L 199.914617 16.847802 
L 205.637625 16.847802 
L 205.637625 13.334772 
L 205.637625 13.334772 
L 367.82 13.334772 
L 367.82 13.334772 
" style="fill:none;stroke:#ff0000;stroke-linecap:square;stroke-width:3;"/>
   </g>
   <g id="line2d_24">
    <path clip-path="url(#p34f4c6e4ab)" d="M 187.275496 276.812 
L 187.275496 273.29897 
L 188.081765 273.29897 
L 188.081765 269.785941 
L 188.29137 269.785941 
L 188.29137 266.272911 
L 191.315229 266.272911 
L 191.315229 262.759881 
L 191.650513 262.759881 
L 191.650513 259.246851 
L 192.084009 259.246851 
L 192.084009 255.733822 
L 192.695156 255.733822 
L 192.695156 252.220792 
L 193.441059 252.220792 
L 193.441059 248.707762 
L 194.264829 248.707762 
L 194.264829 245.194733 
L 195.436165 245.194733 
L 195.436165 241.681703 
L 195.856134 241.681703 
L 195.856134 238.168673 
L 196.847628 238.168673 
L 196.847628 234.655644 
L 197.178439 234.655644 
L 197.178439 231.142614 
L 197.691322 231.142614 
L 197.737546 224.116554 
L 199.06911 224.116554 
L 199.06911 220.603525 
L 199.60205 220.603525 
L 199.60205 217.090495 
L 200.117997 217.090495 
L 200.117997 213.577465 
L 202.380528 213.577465 
L 202.380528 210.064436 
L 203.852101 210.064436 
L 203.852101 206.551406 
L 204.100479 206.551406 
L 204.111214 199.525347 
L 204.554953 199.525347 
L 204.615885 192.499287 
L 205.041944 192.499287 
L 205.041944 188.986257 
L 205.169638 188.986257 
L 205.169638 185.473228 
L 205.734405 185.473228 
L 205.734405 181.960198 
L 206.045496 181.960198 
L 206.045496 178.447168 
L 206.348345 178.447168 
L 206.356131 171.421109 
L 206.56344 171.421109 
L 206.56344 167.908079 
L 206.897967 167.908079 
L 207.003175 160.88202 
L 207.176512 160.88202 
L 207.205195 153.85596 
L 207.675297 153.85596 
L 207.704156 146.829901 
L 207.990872 146.829901 
L 208.101237 136.290812 
L 208.122576 136.290812 
L 208.154634 129.264752 
L 208.346914 129.264752 
L 208.402969 122.238693 
L 208.470549 122.238693 
L 208.472736 115.212634 
L 208.680301 115.212634 
L 208.708863 108.186574 
L 208.913317 108.186574 
L 209.014457 97.647485 
L 209.085755 97.647485 
L 209.085755 94.134455 
L 209.362116 94.134455 
L 209.375378 87.108396 
L 209.775083 87.108396 
L 209.802204 80.082337 
L 210.535388 80.082337 
L 210.6266 73.056277 
L 210.652404 73.056277 
L 210.652404 69.543248 
L 211.246977 69.543248 
L 211.246977 66.030218 
L 243.089185 66.030218 
L 243.089185 62.517188 
L 244.492066 62.517188 
L 244.492066 59.004158 
L 245.601203 59.004158 
L 245.601203 55.491129 
L 246.849919 55.491129 
L 246.849919 51.978099 
L 247.342161 51.978099 
L 247.342161 48.465069 
L 247.951037 48.465069 
L 247.951037 44.95204 
L 248.233136 44.95204 
L 248.233136 13.334772 
L 248.233136 13.334772 
L 367.82 13.334772 
L 367.82 13.334772 
" style="fill:none;stroke:#00bfbf;stroke-linecap:square;stroke-width:1.5;"/>
   </g>
   <g id="line2d_25">
    <path clip-path="url(#p34f4c6e4ab)" d="M 187.275496 276.812 
L 187.275496 273.29897 
L 188.081765 273.29897 
L 188.081765 269.785941 
L 188.29137 269.785941 
L 188.29137 266.272911 
L 190.038351 266.272911 
L 190.038351 262.759881 
L 190.280398 262.759881 
L 190.280398 259.246851 
L 190.550044 259.246851 
L 190.550044 255.733822 
L 190.804857 255.733822 
L 190.804857 252.220792 
L 191.105216 252.220792 
L 191.105216 248.707762 
L 191.650513 248.707762 
L 191.650513 245.194733 
L 192.029378 245.194733 
L 192.084009 238.168673 
L 193.066272 238.168673 
L 193.066272 234.655644 
L 193.441059 234.655644 
L 193.441059 231.142614 
L 194.350426 231.142614 
L 194.350426 227.629584 
L 195.856134 227.629584 
L 195.856134 224.116554 
L 197.691322 224.116554 
L 197.691322 220.603525 
L 199.509384 220.603525 
L 199.60205 213.577465 
L 200.117997 213.577465 
L 200.117997 210.064436 
L 202.182318 210.064436 
L 202.182318 206.551406 
L 202.380528 206.551406 
L 202.380528 203.038376 
L 203.451858 203.038376 
L 203.55382 196.012317 
L 203.852101 196.012317 
L 203.879037 188.986257 
L 204.527064 188.986257 
L 204.585003 181.960198 
L 204.990391 181.960198 
L 205.041944 174.934139 
L 205.169638 174.934139 
L 205.169638 171.421109 
L 205.655746 171.421109 
L 205.726396 164.39505 
L 205.840838 164.39505 
L 205.936061 157.36899 
L 206.215073 157.36899 
L 206.215073 153.85596 
L 206.348345 153.85596 
L 206.348345 150.342931 
L 206.678722 150.342931 
L 206.718042 143.316871 
L 207.056096 143.316871 
L 207.056096 139.803842 
L 207.236245 139.803842 
L 207.236245 136.290812 
L 207.370174 136.290812 
L 207.370174 132.777782 
L 207.595979 132.777782 
L 207.675297 125.751723 
L 207.92001 125.751723 
L 208.015744 115.212634 
L 208.075353 115.212634 
L 208.144756 97.647485 
L 208.294548 97.647485 
L 208.346914 90.621426 
L 208.41965 90.621426 
L 208.517931 83.595366 
L 208.562866 83.595366 
L 208.562866 80.082337 
L 208.680301 80.082337 
L 208.680301 76.569307 
L 208.96323 76.569307 
L 208.96323 73.056277 
L 209.085755 73.056277 
L 209.085755 69.543248 
L 209.669501 69.543248 
L 209.669501 66.030218 
L 238.043844 66.030218 
L 238.043844 62.517188 
L 239.593398 62.517188 
L 239.593398 59.004158 
L 241.144476 59.004158 
L 241.144476 55.491129 
L 242.990583 55.491129 
L 243.089185 48.465069 
L 244.492066 48.465069 
L 244.492066 44.95204 
L 244.648602 44.95204 
L 244.663327 37.92598 
L 245.27043 37.92598 
L 245.27043 34.41295 
L 245.601203 34.41295 
L 245.664697 27.386891 
L 246.81472 27.386891 
L 246.81472 23.873861 
L 247.766429 23.873861 
L 247.875279 16.847802 
L 248.233136 16.847802 
L 248.233136 13.334772 
L 248.233136 13.334772 
L 367.82 13.334772 
L 367.82 13.334772 
" style="fill:none;stroke:#bf00bf;stroke-linecap:square;stroke-width:1.5;"/>
   </g>
   <g id="line2d_26">
    <path clip-path="url(#p34f4c6e4ab)" d="M 183.659123 276.812 
L 183.659123 273.29897 
L 184.901241 273.29897 
L 184.901241 269.785941 
L 187.130601 269.785941 
L 187.130601 266.272911 
L 188.081765 266.272911 
L 188.081765 262.759881 
L 188.29137 262.759881 
L 188.29137 259.246851 
L 188.646204 259.246851 
L 188.673758 252.220792 
L 189.274933 252.220792 
L 189.274933 248.707762 
L 190.038351 248.707762 
L 190.040947 241.681703 
L 191.105216 241.681703 
L 191.105216 238.168673 
L 191.650513 238.168673 
L 191.650513 234.655644 
L 192.084009 234.655644 
L 192.084009 231.142614 
L 192.558725 231.142614 
L 192.558725 227.629584 
L 193.066272 227.629584 
L 193.066272 224.116554 
L 195.987784 224.116554 
L 195.987784 220.603525 
L 196.288912 220.603525 
L 196.288912 217.090495 
L 196.839513 217.090495 
L 196.839513 213.577465 
L 197.47597 213.577465 
L 197.47597 210.064436 
L 198.937663 210.064436 
L 198.937663 206.551406 
L 199.472436 206.551406 
L 199.472436 203.038376 
L 200.231515 203.038376 
L 200.231515 199.525347 
L 200.718307 199.525347 
L 200.718307 196.012317 
L 201.451511 196.012317 
L 201.451511 192.499287 
L 203.108716 192.499287 
L 203.184494 185.473228 
L 203.649038 185.473228 
L 203.649038 181.960198 
L 203.852101 181.960198 
L 203.879037 174.934139 
L 204.153132 174.934139 
L 204.211984 164.39505 
L 204.71554 164.39505 
L 204.71554 160.88202 
L 205.041944 160.88202 
L 205.042144 153.85596 
L 205.726396 153.85596 
L 205.742058 146.829901 
L 205.840838 146.829901 
L 205.936061 136.290812 
L 206.071501 136.290812 
L 206.083064 129.264752 
L 206.34814 129.264752 
L 206.34814 125.751723 
L 206.475037 125.751723 
L 206.475037 122.238693 
L 206.718042 122.238693 
L 206.800837 115.212634 
L 206.895851 115.212634 
L 206.93782 108.186574 
L 207.071313 108.186574 
L 207.071313 104.673545 
L 207.428095 104.673545 
L 207.436161 97.647485 
L 207.589599 97.647485 
L 207.589599 94.134455 
L 208.001871 94.134455 
L 208.102046 80.082337 
L 208.529953 80.082337 
L 208.562866 73.056277 
L 208.825622 73.056277 
L 208.88031 66.030218 
L 209.376838 66.030218 
L 209.376838 62.517188 
L 231.164168 62.517188 
L 231.164168 59.004158 
L 231.646179 59.004158 
L 231.646179 55.491129 
L 232.591684 55.491129 
L 232.591684 51.978099 
L 235.065828 51.978099 
L 235.153365 44.95204 
L 235.34916 44.95204 
L 235.34916 41.43901 
L 236.157853 41.43901 
L 236.157853 37.92598 
L 237.393852 37.92598 
L 237.393852 34.41295 
L 238.71648 34.41295 
L 238.71648 30.899921 
L 239.697907 30.899921 
L 239.697907 27.386891 
L 240.585227 27.386891 
L 240.585227 23.873861 
L 242.489352 23.873861 
L 242.489352 20.360832 
L 243.777243 20.360832 
L 243.777243 16.847802 
L 244.664533 16.847802 
L 244.664533 13.334772 
L 244.664533 13.334772 
L 367.82 13.334772 
L 367.82 13.334772 
" style="fill:none;stroke:#000000;stroke-linecap:square;stroke-width:1.5;"/>
   </g>
   <g id="line2d_27">
    <path clip-path="url(#p34f4c6e4ab)" d="M 175.654643 276.812 
L 175.654643 273.29897 
L 177.578805 273.29897 
L 177.578805 269.785941 
L 177.718618 269.785941 
L 177.718618 266.272911 
L 178.838121 266.272911 
L 178.838121 262.759881 
L 179.799032 262.759881 
L 179.799032 259.246851 
L 180.216552 259.246851 
L 180.216552 255.733822 
L 181.072296 255.733822 
L 181.072296 252.220792 
L 181.226107 252.220792 
L 181.28565 234.655644 
L 181.556146 234.655644 
L 181.556146 231.142614 
L 182.488746 231.142614 
L 182.488746 227.629584 
L 182.731479 227.629584 
L 182.731479 224.116554 
L 183.167901 224.116554 
L 183.167901 220.603525 
L 183.58565 220.603525 
L 183.659123 213.577465 
L 183.705848 213.577465 
L 183.713799 206.551406 
L 183.832659 206.551406 
L 183.832659 203.038376 
L 184.508962 203.038376 
L 184.518674 196.012317 
L 184.648578 196.012317 
L 184.648578 192.499287 
L 184.793795 192.499287 
L 184.793795 188.986257 
L 185.639635 188.986257 
L 185.674099 181.960198 
L 185.785727 181.960198 
L 185.785727 178.447168 
L 186.141796 178.447168 
L 186.141796 174.934139 
L 186.77828 174.934139 
L 186.77828 171.421109 
L 188.503114 171.421109 
L 188.503114 167.908079 
L 188.702292 167.908079 
L 188.702292 164.39505 
L 188.848835 164.39505 
L 188.848835 160.88202 
L 190.963389 160.88202 
L 190.963389 157.36899 
L 191.285657 157.36899 
L 191.285657 153.85596 
L 191.603586 153.85596 
L 191.603586 150.342931 
L 194.265412 150.342931 
L 194.29285 139.803842 
L 195.688482 139.803842 
L 195.688482 136.290812 
L 197.669144 136.290812 
L 197.669144 132.777782 
L 198.135649 132.777782 
L 198.135649 129.264752 
L 199.464485 129.264752 
L 199.464485 125.751723 
L 199.937781 125.751723 
L 199.937781 122.238693 
L 200.24126 122.238693 
L 200.24126 118.725663 
L 202.205317 118.725663 
L 202.205317 115.212634 
L 202.441255 115.212634 
L 202.441255 111.699604 
L 202.594243 111.699604 
L 202.594243 108.186574 
L 202.793104 108.186574 
L 202.793104 104.673545 
L 203.184494 104.673545 
L 203.184494 101.160515 
L 203.317211 101.160515 
L 203.317211 97.647485 
L 203.476659 97.647485 
L 203.530981 90.621426 
L 203.676973 90.621426 
L 203.676973 87.108396 
L 203.80387 87.108396 
L 203.852101 76.569307 
L 204.017091 76.569307 
L 204.043105 69.543248 
L 204.224287 69.543248 
L 204.224287 66.030218 
L 204.415009 66.030218 
L 204.505154 55.491129 
L 204.81847 55.491129 
L 204.904134 48.465069 
L 205.258002 48.465069 
L 205.258002 44.95204 
L 205.48881 44.95204 
L 205.540769 37.92598 
L 205.907769 37.92598 
L 205.907769 34.41295 
L 206.045805 34.41295 
L 206.045805 30.899921 
L 206.557076 30.899921 
L 206.557076 27.386891 
L 207.714533 27.386891 
L 207.714533 23.873861 
L 208.158465 23.873861 
L 208.190732 16.847802 
L 212.322484 16.847802 
L 212.322484 13.334772 
L 212.322484 13.334772 
L 367.82 13.334772 
L 367.82 13.334772 
" style="fill:none;stroke:#00bfbf;stroke-linecap:square;stroke-width:1.5;"/>
   </g>
   <g id="line2d_28">
    <path clip-path="url(#p34f4c6e4ab)" d="M 19.922835 276.812 
L 19.922835 273.29897 
L 67.112242 273.29897 
L 67.112242 269.785941 
L 78.619985 269.785941 
L 78.619985 266.272911 
L 137.351894 266.272911 
L 137.351894 262.759881 
L 142.953328 262.759881 
L 142.953328 259.246851 
L 168.242067 259.246851 
L 168.242067 255.733822 
L 169.861649 255.733822 
L 169.861649 252.220792 
L 171.086113 252.220792 
L 171.086113 248.707762 
L 171.67207 248.707762 
L 171.67207 245.194733 
L 172.295478 245.194733 
L 172.295478 241.681703 
L 172.9783 241.681703 
L 172.9783 238.168673 
L 173.201256 238.168673 
L 173.201256 234.655644 
L 173.366811 234.655644 
L 173.366811 231.142614 
L 173.755985 231.142614 
L 173.755985 227.629584 
L 174.497579 227.629584 
L 174.497579 224.116554 
L 174.979333 224.116554 
L 175.041904 217.090495 
L 175.238077 217.090495 
L 175.251575 210.064436 
L 175.460874 210.064436 
L 175.460874 206.551406 
L 175.654643 206.551406 
L 175.67993 199.525347 
L 177.230673 199.525347 
L 177.326389 185.473228 
L 177.692353 185.473228 
L 177.692353 181.960198 
L 177.90981 181.960198 
L 177.930651 174.934139 
L 178.071062 174.934139 
L 178.132503 167.908079 
L 178.703319 167.908079 
L 178.703319 164.39505 
L 178.839878 164.39505 
L 178.861692 157.36899 
L 179.02367 157.36899 
L 179.090001 150.342931 
L 179.357459 150.342931 
L 179.357459 146.829901 
L 179.976197 146.829901 
L 179.983639 139.803842 
L 180.234125 139.803842 
L 180.234125 136.290812 
L 180.638447 136.290812 
L 180.66345 129.264752 
L 182.476962 129.264752 
L 182.476962 125.751723 
L 182.614978 125.751723 
L 182.614978 122.238693 
L 185.643862 122.238693 
L 185.643862 118.725663 
L 188.456069 118.725663 
L 188.456069 115.212634 
L 188.776072 115.212634 
L 188.776072 111.699604 
L 189.209892 111.699604 
L 189.209892 108.186574 
L 189.367379 108.186574 
L 189.367379 104.673545 
L 189.741929 104.673545 
L 189.741929 101.160515 
L 190.171466 101.160515 
L 190.171466 97.647485 
L 190.981699 97.647485 
L 190.981699 94.134455 
L 191.835115 94.134455 
L 191.835115 90.621426 
L 193.289936 90.621426 
L 193.289936 87.108396 
L 193.691455 87.108396 
L 193.691455 83.595366 
L 194.8551 83.595366 
L 194.8551 80.082337 
L 195.650958 80.082337 
L 195.650958 76.569307 
L 196.063298 76.569307 
L 196.080848 69.543248 
L 196.391608 69.543248 
L 196.391608 66.030218 
L 197.245811 66.030218 
L 197.336377 59.004158 
L 197.644449 59.004158 
L 197.693061 51.978099 
L 198.363378 51.978099 
L 198.363378 48.465069 
L 199.107275 48.465069 
L 199.107275 44.95204 
L 199.578127 44.95204 
L 199.6577 37.92598 
L 199.700104 37.92598 
L 199.745023 30.899921 
L 200.193851 30.899921 
L 200.193851 27.386891 
L 201.026295 27.386891 
L 201.026295 23.873861 
L 201.817476 23.873861 
L 201.817476 20.360832 
L 201.936319 20.360832 
L 201.936319 16.847802 
L 205.637663 16.847802 
L 205.637663 13.334772 
L 205.637663 13.334772 
L 367.82 13.334772 
L 367.82 13.334772 
" style="fill:none;stroke:#bf00bf;stroke-linecap:square;stroke-width:1.5;"/>
   </g>
   <g id="line2d_29">
    <path clip-path="url(#p34f4c6e4ab)" d="M -1 273.29897 
L 10.61312 273.29897 
L 10.61312 262.759881 
L 15.80418 262.759881 
L 15.80418 259.246851 
L 158.421617 259.246851 
L 158.421617 255.733822 
L 163.784308 255.733822 
L 163.784308 252.220792 
L 164.477304 252.220792 
L 164.477304 248.707762 
L 165.450929 248.707762 
L 165.450929 245.194733 
L 165.958127 245.194733 
L 165.958127 241.681703 
L 167.969955 241.681703 
L 167.969955 238.168673 
L 168.235194 238.168673 
L 168.235194 234.655644 
L 169.208787 234.655644 
L 169.208787 231.142614 
L 169.57898 231.142614 
L 169.57898 227.629584 
L 169.825507 227.629584 
L 169.825507 224.116554 
L 170.609274 224.116554 
L 170.609274 220.603525 
L 171.308888 220.603525 
L 171.308888 217.090495 
L 171.719971 217.090495 
L 171.719971 213.577465 
L 172.633219 213.577465 
L 172.633219 206.551406 
L 172.929671 206.551406 
L 172.929671 203.038376 
L 173.248721 203.038376 
L 173.317794 196.012317 
L 173.366791 196.012317 
L 173.366791 192.499287 
L 173.492886 192.499287 
L 173.492886 188.986257 
L 174.993351 188.986257 
L 174.993351 181.960198 
L 175.220088 181.960198 
L 175.220088 178.447168 
L 175.657041 178.447168 
L 175.657041 174.934139 
L 175.770887 174.934139 
L 175.770887 171.421109 
L 175.915256 171.421109 
L 175.915256 167.908079 
L 176.402032 167.908079 
L 176.402032 164.39505 
L 176.8611 164.39505 
L 176.8611 160.88202 
L 177.03318 160.88202 
L 177.03318 157.36899 
L 177.227662 157.36899 
L 177.305083 146.829901 
L 177.69235 146.829901 
L 177.69235 143.316871 
L 177.898387 143.316871 
L 177.898387 139.803842 
L 178.379938 139.803842 
L 178.379938 136.290812 
L 178.703319 136.290812 
L 178.703319 132.777782 
L 179.090001 132.777782 
L 179.090001 129.264752 
L 179.357242 129.264752 
L 179.357242 125.751723 
L 179.762798 125.751723 
L 179.762798 118.725663 
L 182.810912 118.725663 
L 182.810912 115.212634 
L 185.613175 115.212634 
L 185.613175 111.699604 
L 186.005025 111.699604 
L 186.005025 108.186574 
L 188.456008 108.186574 
L 188.456008 104.673545 
L 188.774583 104.673545 
L 188.774591 97.647485 
L 189.367379 97.647485 
L 189.389141 90.621426 
L 189.741843 90.621426 
L 189.741843 87.108396 
L 190.043473 87.108396 
L 190.043473 83.595366 
L 190.383297 83.595366 
L 190.383297 80.082337 
L 190.931645 80.082337 
L 190.931645 76.569307 
L 191.495509 76.569307 
L 191.495509 73.056277 
L 192.160074 73.056277 
L 192.160074 69.543248 
L 193.287779 69.543248 
L 193.287779 66.030218 
L 193.441335 66.030218 
L 193.536713 59.004158 
L 194.335105 59.004158 
L 194.335105 55.491129 
L 194.717912 55.491129 
L 194.717912 51.978099 
L 194.851665 51.978099 
L 194.851665 48.465069 
L 195.272052 48.465069 
L 195.347207 41.43901 
L 196.175293 41.43901 
L 196.175293 37.92598 
L 196.702715 37.92598 
L 196.702715 34.41295 
L 196.930446 34.41295 
L 196.930446 30.899921 
L 197.24581 30.899921 
L 197.24581 27.386891 
L 198.111234 27.386891 
L 198.111234 23.873861 
L 199.72197 23.873861 
L 199.72197 20.360832 
L 199.914617 20.360832 
L 199.914617 16.847802 
L 205.637625 16.847802 
L 205.637625 13.334772 
L 205.637625 13.334772 
L 367.82 13.334772 
L 367.82 13.334772 
" style="fill:none;stroke:#000000;stroke-linecap:square;stroke-width:1.5;"/>
   </g>
   <g id="patch_3">
    <path d="M 10.7 276.812 
L 10.7 10.7 
" style="fill:none;stroke:#000000;stroke-linecap:square;stroke-linejoin:miter;stroke-width:0.8;"/>
   </g>
   <g id="patch_4">
    <path d="M 367.82 276.812 
L 367.82 10.7 
" style="fill:none;stroke:#000000;stroke-linecap:square;stroke-linejoin:miter;stroke-width:0.8;"/>
   </g>
   <g id="patch_5">
    <path d="M 10.7 276.812 
L 367.82 276.812 
" style="fill:none;stroke:#000000;stroke-linecap:square;stroke-linejoin:miter;stroke-width:0.8;"/>
   </g>
   <g id="patch_6">
    <path d="M 10.7 10.7 
L 367.82 10.7 
" style="fill:none;stroke:#000000;stroke-linecap:square;stroke-linejoin:miter;stroke-width:0.8;"/>
   </g>
   <g id="text_6">
    <!-- {f20-f24}, 5-D -->
    <defs>
     <path d="M 51.125 -9.28125 
L 51.125 -16.3125 
L 48.09375 -16.3125 
Q 35.9375 -16.3125 31.8125 -12.6875 
Q 27.6875 -9.078125 27.6875 1.703125 
L 27.6875 13.375 
Q 27.6875 20.75 25.046875 23.578125 
Q 22.40625 26.421875 15.484375 26.421875 
L 12.5 26.421875 
L 12.5 33.40625 
L 15.484375 33.40625 
Q 22.46875 33.40625 25.078125 36.203125 
Q 27.6875 39.015625 27.6875 46.296875 
L 27.6875 58.015625 
Q 27.6875 68.796875 31.8125 72.390625 
Q 35.9375 75.984375 48.09375 75.984375 
L 51.125 75.984375 
L 51.125 69 
L 47.796875 69 
Q 40.921875 69 38.8125 66.84375 
Q 36.71875 64.703125 36.71875 57.8125 
L 36.71875 45.703125 
Q 36.71875 38.03125 34.5 34.5625 
Q 32.28125 31.109375 26.90625 29.890625 
Q 32.328125 28.5625 34.515625 25.09375 
Q 36.71875 21.625 36.71875 14.015625 
L 36.71875 1.90625 
Q 36.71875 -4.984375 38.8125 -7.125 
Q 40.921875 -9.28125 47.796875 -9.28125 
z
" id="DejaVuSans-7b"/>
     <path d="M 19.1875 8.296875 
L 53.609375 8.296875 
L 53.609375 0 
L 7.328125 0 
L 7.328125 8.296875 
Q 12.9375 14.109375 22.625 23.890625 
Q 32.328125 33.6875 34.8125 36.53125 
Q 39.546875 41.84375 41.421875 45.53125 
Q 43.3125 49.21875 43.3125 52.78125 
Q 43.3125 58.59375 39.234375 62.25 
Q 35.15625 65.921875 28.609375 65.921875 
Q 23.96875 65.921875 18.8125 64.3125 
Q 13.671875 62.703125 7.8125 59.421875 
L 7.8125 69.390625 
Q 13.765625 71.78125 18.9375 73 
Q 24.125 74.21875 28.421875 74.21875 
Q 39.75 74.21875 46.484375 68.546875 
Q 53.21875 62.890625 53.21875 53.421875 
Q 53.21875 48.921875 51.53125 44.890625 
Q 49.859375 40.875 45.40625 35.40625 
Q 44.1875 33.984375 37.640625 27.21875 
Q 31.109375 20.453125 19.1875 8.296875 
z
" id="DejaVuSans-32"/>
     <path d="M 12.5 -9.28125 
L 15.921875 -9.28125 
Q 22.75 -9.28125 24.828125 -7.171875 
Q 26.90625 -5.078125 26.90625 1.90625 
L 26.90625 14.015625 
Q 26.90625 21.625 29.09375 25.09375 
Q 31.296875 28.5625 36.71875 29.890625 
Q 31.296875 31.109375 29.09375 34.5625 
Q 26.90625 38.03125 26.90625 45.703125 
L 26.90625 57.8125 
Q 26.90625 64.75 24.828125 66.875 
Q 22.75 69 15.921875 69 
L 12.5 69 
L 12.5 75.984375 
L 15.578125 75.984375 
Q 27.734375 75.984375 31.8125 72.390625 
Q 35.890625 68.796875 35.890625 58.015625 
L 35.890625 46.296875 
Q 35.890625 39.015625 38.515625 36.203125 
Q 41.15625 33.40625 48.09375 33.40625 
L 51.125 33.40625 
L 51.125 26.421875 
L 48.09375 26.421875 
Q 41.15625 26.421875 38.515625 23.578125 
Q 35.890625 20.75 35.890625 13.375 
L 35.890625 1.703125 
Q 35.890625 -9.078125 31.8125 -12.6875 
Q 27.734375 -16.3125 15.578125 -16.3125 
L 12.5 -16.3125 
z
" id="DejaVuSans-7d"/>
     <path d="M 11.71875 12.40625 
L 22.015625 12.40625 
L 22.015625 4 
L 14.015625 -11.625 
L 7.71875 -11.625 
L 11.71875 4 
z
" id="DejaVuSans-2c"/>
     <path d="M 10.796875 72.90625 
L 49.515625 72.90625 
L 49.515625 64.59375 
L 19.828125 64.59375 
L 19.828125 46.734375 
Q 21.96875 47.46875 24.109375 47.828125 
Q 26.265625 48.1875 28.421875 48.1875 
Q 40.625 48.1875 47.75 41.5 
Q 54.890625 34.8125 54.890625 23.390625 
Q 54.890625 11.625 47.5625 5.09375 
Q 40.234375 -1.421875 26.90625 -1.421875 
Q 22.3125 -1.421875 17.546875 -0.640625 
Q 12.796875 0.140625 7.71875 1.703125 
L 7.71875 11.625 
Q 12.109375 9.234375 16.796875 8.0625 
Q 21.484375 6.890625 26.703125 6.890625 
Q 35.15625 6.890625 40.078125 11.328125 
Q 45.015625 15.765625 45.015625 23.390625 
Q 45.015625 31 40.078125 35.4375 
Q 35.15625 39.890625 26.703125 39.890625 
Q 22.75 39.890625 18.8125 39.015625 
Q 14.890625 38.140625 10.796875 36.28125 
z
" id="DejaVuSans-35"/>
    </defs>
    <g transform="translate(214.9776 271.48976)scale(0.2 -0.2)">
     <use xlink:href="#DejaVuSans-7b"/>
     <use x="63.623047" xlink:href="#DejaVuSans-66"/>
     <use x="98.828125" xlink:href="#DejaVuSans-32"/>
     <use x="162.451172" xlink:href="#DejaVuSans-30"/>
     <use x="226.074219" xlink:href="#DejaVuSans-2d"/>
     <use x="262.158203" xlink:href="#DejaVuSans-66"/>
     <use x="297.363281" xlink:href="#DejaVuSans-32"/>
     <use x="360.986328" xlink:href="#DejaVuSans-34"/>
     <use x="424.609375" xlink:href="#DejaVuSans-7d"/>
     <use x="488.232422" xlink:href="#DejaVuSans-2c"/>
     <use x="520.019531" xlink:href="#DejaVuSans-20"/>
     <use x="551.806641" xlink:href="#DejaVuSans-35"/>
     <use x="615.429688" xlink:href="#DejaVuSans-2d"/>
     <use x="651.513672" xlink:href="#DejaVuSans-44"/>
    </g>
   </g>
   <g id="text_7">
    <!-- v2.1 -->
    <defs>
     <path d="M 2.984375 54.6875 
L 12.5 54.6875 
L 29.59375 8.796875 
L 46.6875 54.6875 
L 56.203125 54.6875 
L 35.6875 0 
L 23.484375 0 
z
" id="DejaVuSans-76"/>
     <path d="M 10.6875 12.40625 
L 21 12.40625 
L 21 0 
L 10.6875 0 
z
" id="DejaVuSans-2e"/>
    </defs>
    <g style="fill:#808080;" transform="translate(178.349063 272.071193)scale(0.1 -0.1)">
     <use xlink:href="#DejaVuSans-76"/>
     <use x="59.179688" xlink:href="#DejaVuSans-32"/>
     <use x="122.802734" xlink:href="#DejaVuSans-2e"/>
     <use x="154.589844" xlink:href="#DejaVuSans-31"/>
    </g>
   </g>
  </g>
 </g>
 <defs>
  <clipPath id="p34f4c6e4ab">
   <rect height="266.112" width="357.12" x="10.7" y="10.7"/>
  </clipPath>
 </defs>
</svg>
