<?xml version="1.0" encoding="utf-8" standalone="no"?>
<!DOCTYPE svg PUBLIC "-//W3C//DTD SVG 1.1//EN"
  "http://www.w3.org/Graphics/SVG/1.1/DTD/svg11.dtd">
<!-- Created with matplotlib (http://matplotlib.org/) -->
<svg height="333pt" version="1.1" viewBox="0 0 378 333" width="378pt" xmlns="http://www.w3.org/2000/svg" xmlns:xlink="http://www.w3.org/1999/xlink">
 <defs>
  <style type="text/css">
*{stroke-linecap:butt;stroke-linejoin:round;}
  </style>
 </defs>
 <g id="figure_1">
  <g id="patch_1">
   <path d="M 0 333.7245 
L 378.52 333.7245 
L 378.52 0 
L 0 0 
z
" style="fill:#ffffff;"/>
  </g>
  <g id="axes_1">
   <g id="patch_2">
    <path d="M 10.7 276.812 
L 367.82 276.812 
L 367.82 10.7 
L 10.7 10.7 
z
" style="fill:#ffffff;"/>
   </g>
   <g id="matplotlib.axis_1">
    <g id="xtick_1">
     <g id="line2d_1">
      <path clip-path="url(#pa589d52bc1)" d="M 10.61381 276.812 
L 10.61381 10.7 
" style="fill:none;stroke:#b0b0b0;stroke-linecap:square;stroke-width:0.8;"/>
     </g>
     <g id="line2d_2">
      <defs>
       <path d="M 0 0 
L 0 3.5 
" id="m2c02774cf0" style="stroke:#000000;stroke-width:0.8;"/>
      </defs>
      <g>
       <use style="stroke:#000000;stroke-width:0.8;" x="10.61381" xlink:href="#m2c02774cf0" y="276.812"/>
      </g>
     </g>
    </g>
    <g id="xtick_2">
     <g id="line2d_3">
      <path clip-path="url(#pa589d52bc1)" d="M 90.394305 276.812 
L 90.394305 10.7 
" style="fill:none;stroke:#b0b0b0;stroke-linecap:square;stroke-width:0.8;"/>
     </g>
     <g id="line2d_4">
      <g>
       <use style="stroke:#000000;stroke-width:0.8;" x="90.394305" xlink:href="#m2c02774cf0" y="276.812"/>
      </g>
     </g>
     <g id="text_1">
      <!-- -4 -->
      <defs>
       <path d="M 4.890625 31.390625 
L 31.203125 31.390625 
L 31.203125 23.390625 
L 4.890625 23.390625 
z
" id="DejaVuSans-2d"/>
       <path d="M 37.796875 64.3125 
L 12.890625 25.390625 
L 37.796875 25.390625 
z
M 35.203125 72.90625 
L 47.609375 72.90625 
L 47.609375 25.390625 
L 58.015625 25.390625 
L 58.015625 17.1875 
L 47.609375 17.1875 
L 47.609375 0 
L 37.796875 0 
L 37.796875 17.1875 
L 4.890625 17.1875 
L 4.890625 26.703125 
z
" id="DejaVuSans-34"/>
      </defs>
      <g transform="translate(80.423992 299.008875)scale(0.2 -0.2)">
       <use xlink:href="#DejaVuSans-2d"/>
       <use x="36.083984" xlink:href="#DejaVuSans-34"/>
      </g>
     </g>
    </g>
    <g id="xtick_3">
     <g id="line2d_5">
      <path clip-path="url(#pa589d52bc1)" d="M 170.1748 276.812 
L 170.1748 10.7 
" style="fill:none;stroke:#b0b0b0;stroke-linecap:square;stroke-width:0.8;"/>
     </g>
     <g id="line2d_6">
      <g>
       <use style="stroke:#000000;stroke-width:0.8;" x="170.1748" xlink:href="#m2c02774cf0" y="276.812"/>
      </g>
     </g>
     <g id="text_2">
      <!-- 0 -->
      <defs>
       <path d="M 31.78125 66.40625 
Q 24.171875 66.40625 20.328125 58.90625 
Q 16.5 51.421875 16.5 36.375 
Q 16.5 21.390625 20.328125 13.890625 
Q 24.171875 6.390625 31.78125 6.390625 
Q 39.453125 6.390625 43.28125 13.890625 
Q 47.125 21.390625 47.125 36.375 
Q 47.125 51.421875 43.28125 58.90625 
Q 39.453125 66.40625 31.78125 66.40625 
z
M 31.78125 74.21875 
Q 44.046875 74.21875 50.515625 64.515625 
Q 56.984375 54.828125 56.984375 36.375 
Q 56.984375 17.96875 50.515625 8.265625 
Q 44.046875 -1.421875 31.78125 -1.421875 
Q 19.53125 -1.421875 13.0625 8.265625 
Q 6.59375 17.96875 6.59375 36.375 
Q 6.59375 54.828125 13.0625 64.515625 
Q 19.53125 74.21875 31.78125 74.21875 
z
" id="DejaVuSans-30"/>
      </defs>
      <g transform="translate(163.8123 299.008875)scale(0.2 -0.2)">
       <use xlink:href="#DejaVuSans-30"/>
      </g>
     </g>
    </g>
    <g id="xtick_4">
     <g id="line2d_7">
      <path clip-path="url(#pa589d52bc1)" d="M 249.955295 276.812 
L 249.955295 10.7 
" style="fill:none;stroke:#b0b0b0;stroke-linecap:square;stroke-width:0.8;"/>
     </g>
     <g id="line2d_8">
      <g>
       <use style="stroke:#000000;stroke-width:0.8;" x="249.955295" xlink:href="#m2c02774cf0" y="276.812"/>
      </g>
     </g>
     <g id="text_3">
      <!-- 4 -->
      <g transform="translate(243.592795 299.008875)scale(0.2 -0.2)">
       <use xlink:href="#DejaVuSans-34"/>
      </g>
     </g>
    </g>
    <g id="xtick_5">
     <g id="line2d_9">
      <path clip-path="url(#pa589d52bc1)" d="M 329.73579 276.812 
L 329.73579 10.7 
" style="fill:none;stroke:#b0b0b0;stroke-linecap:square;stroke-width:0.8;"/>
     </g>
     <g id="line2d_10">
      <g>
       <use style="stroke:#000000;stroke-width:0.8;" x="329.73579" xlink:href="#m2c02774cf0" y="276.812"/>
      </g>
     </g>
     <g id="text_4">
      <!-- 8 -->
      <defs>
       <path d="M 31.78125 34.625 
Q 24.75 34.625 20.71875 30.859375 
Q 16.703125 27.09375 16.703125 20.515625 
Q 16.703125 13.921875 20.71875 10.15625 
Q 24.75 6.390625 31.78125 6.390625 
Q 38.8125 6.390625 42.859375 10.171875 
Q 46.921875 13.96875 46.921875 20.515625 
Q 46.921875 27.09375 42.890625 30.859375 
Q 38.875 34.625 31.78125 34.625 
z
M 21.921875 38.8125 
Q 15.578125 40.375 12.03125 44.71875 
Q 8.5 49.078125 8.5 55.328125 
Q 8.5 64.0625 14.71875 69.140625 
Q 20.953125 74.21875 31.78125 74.21875 
Q 42.671875 74.21875 48.875 69.140625 
Q 55.078125 64.0625 55.078125 55.328125 
Q 55.078125 49.078125 51.53125 44.71875 
Q 48 40.375 41.703125 38.8125 
Q 48.828125 37.15625 52.796875 32.3125 
Q 56.78125 27.484375 56.78125 20.515625 
Q 56.78125 9.90625 50.3125 4.234375 
Q 43.84375 -1.421875 31.78125 -1.421875 
Q 19.734375 -1.421875 13.25 4.234375 
Q 6.78125 9.90625 6.78125 20.515625 
Q 6.78125 27.484375 10.78125 32.3125 
Q 14.796875 37.15625 21.921875 38.8125 
z
M 18.3125 54.390625 
Q 18.3125 48.734375 21.84375 45.5625 
Q 25.390625 42.390625 31.78125 42.390625 
Q 38.140625 42.390625 41.71875 45.5625 
Q 45.3125 48.734375 45.3125 54.390625 
Q 45.3125 60.0625 41.71875 63.234375 
Q 38.140625 66.40625 31.78125 66.40625 
Q 25.390625 66.40625 21.84375 63.234375 
Q 18.3125 60.0625 18.3125 54.390625 
z
" id="DejaVuSans-38"/>
      </defs>
      <g transform="translate(323.37329 299.008875)scale(0.2 -0.2)">
       <use xlink:href="#DejaVuSans-38"/>
      </g>
     </g>
    </g>
    <g id="text_5">
     <!-- log10 of Df -->
     <defs>
      <path d="M 9.421875 75.984375 
L 18.40625 75.984375 
L 18.40625 0 
L 9.421875 0 
z
" id="DejaVuSans-6c"/>
      <path d="M 30.609375 48.390625 
Q 23.390625 48.390625 19.1875 42.75 
Q 14.984375 37.109375 14.984375 27.296875 
Q 14.984375 17.484375 19.15625 11.84375 
Q 23.34375 6.203125 30.609375 6.203125 
Q 37.796875 6.203125 41.984375 11.859375 
Q 46.1875 17.53125 46.1875 27.296875 
Q 46.1875 37.015625 41.984375 42.703125 
Q 37.796875 48.390625 30.609375 48.390625 
z
M 30.609375 56 
Q 42.328125 56 49.015625 48.375 
Q 55.71875 40.765625 55.71875 27.296875 
Q 55.71875 13.875 49.015625 6.21875 
Q 42.328125 -1.421875 30.609375 -1.421875 
Q 18.84375 -1.421875 12.171875 6.21875 
Q 5.515625 13.875 5.515625 27.296875 
Q 5.515625 40.765625 12.171875 48.375 
Q 18.84375 56 30.609375 56 
z
" id="DejaVuSans-6f"/>
      <path d="M 45.40625 27.984375 
Q 45.40625 37.75 41.375 43.109375 
Q 37.359375 48.484375 30.078125 48.484375 
Q 22.859375 48.484375 18.828125 43.109375 
Q 14.796875 37.75 14.796875 27.984375 
Q 14.796875 18.265625 18.828125 12.890625 
Q 22.859375 7.515625 30.078125 7.515625 
Q 37.359375 7.515625 41.375 12.890625 
Q 45.40625 18.265625 45.40625 27.984375 
z
M 54.390625 6.78125 
Q 54.390625 -7.171875 48.1875 -13.984375 
Q 42 -20.796875 29.203125 -20.796875 
Q 24.46875 -20.796875 20.265625 -20.09375 
Q 16.0625 -19.390625 12.109375 -17.921875 
L 12.109375 -9.1875 
Q 16.0625 -11.328125 19.921875 -12.34375 
Q 23.78125 -13.375 27.78125 -13.375 
Q 36.625 -13.375 41.015625 -8.765625 
Q 45.40625 -4.15625 45.40625 5.171875 
L 45.40625 9.625 
Q 42.625 4.78125 38.28125 2.390625 
Q 33.9375 0 27.875 0 
Q 17.828125 0 11.671875 7.65625 
Q 5.515625 15.328125 5.515625 27.984375 
Q 5.515625 40.671875 11.671875 48.328125 
Q 17.828125 56 27.875 56 
Q 33.9375 56 38.28125 53.609375 
Q 42.625 51.21875 45.40625 46.390625 
L 45.40625 54.6875 
L 54.390625 54.6875 
z
" id="DejaVuSans-67"/>
      <path d="M 12.40625 8.296875 
L 28.515625 8.296875 
L 28.515625 63.921875 
L 10.984375 60.40625 
L 10.984375 69.390625 
L 28.421875 72.90625 
L 38.28125 72.90625 
L 38.28125 8.296875 
L 54.390625 8.296875 
L 54.390625 0 
L 12.40625 0 
z
" id="DejaVuSans-31"/>
      <path id="DejaVuSans-20"/>
      <path d="M 37.109375 75.984375 
L 37.109375 68.5 
L 28.515625 68.5 
Q 23.6875 68.5 21.796875 66.546875 
Q 19.921875 64.59375 19.921875 59.515625 
L 19.921875 54.6875 
L 34.71875 54.6875 
L 34.71875 47.703125 
L 19.921875 47.703125 
L 19.921875 0 
L 10.890625 0 
L 10.890625 47.703125 
L 2.296875 47.703125 
L 2.296875 54.6875 
L 10.890625 54.6875 
L 10.890625 58.5 
Q 10.890625 67.625 15.140625 71.796875 
Q 19.390625 75.984375 28.609375 75.984375 
z
" id="DejaVuSans-66"/>
      <path d="M 19.671875 64.796875 
L 19.671875 8.109375 
L 31.59375 8.109375 
Q 46.6875 8.109375 53.6875 14.9375 
Q 60.6875 21.78125 60.6875 36.53125 
Q 60.6875 51.171875 53.6875 57.984375 
Q 46.6875 64.796875 31.59375 64.796875 
z
M 9.8125 72.90625 
L 30.078125 72.90625 
Q 51.265625 72.90625 61.171875 64.09375 
Q 71.09375 55.28125 71.09375 36.53125 
Q 71.09375 17.671875 61.125 8.828125 
Q 51.171875 0 30.078125 0 
L 9.8125 0 
z
" id="DejaVuSans-44"/>
     </defs>
     <g transform="translate(134.074063 322.365125)scale(0.2 -0.2)">
      <use xlink:href="#DejaVuSans-6c"/>
      <use x="27.783203" xlink:href="#DejaVuSans-6f"/>
      <use x="88.964844" xlink:href="#DejaVuSans-67"/>
      <use x="152.441406" xlink:href="#DejaVuSans-31"/>
      <use x="216.064453" xlink:href="#DejaVuSans-30"/>
      <use x="279.6875" xlink:href="#DejaVuSans-20"/>
      <use x="311.474609" xlink:href="#DejaVuSans-6f"/>
      <use x="372.65625" xlink:href="#DejaVuSans-66"/>
      <use x="407.861328" xlink:href="#DejaVuSans-20"/>
      <use x="439.648438" xlink:href="#DejaVuSans-44"/>
      <use x="516.650391" xlink:href="#DejaVuSans-66"/>
     </g>
    </g>
   </g>
   <g id="matplotlib.axis_2">
    <g id="ytick_1">
     <g id="line2d_11">
      <path clip-path="url(#pa589d52bc1)" d="M 10.7 276.812 
L 367.82 276.812 
" style="fill:none;stroke:#b0b0b0;stroke-linecap:square;stroke-width:0.8;"/>
     </g>
     <g id="line2d_12">
      <defs>
       <path d="M 0 0 
L -3.5 0 
" id="ma5151fdcf3" style="stroke:#000000;stroke-width:0.8;"/>
      </defs>
      <g>
       <use style="stroke:#000000;stroke-width:0.8;" x="10.7" xlink:href="#ma5151fdcf3" y="276.812"/>
      </g>
     </g>
    </g>
    <g id="ytick_2">
     <g id="line2d_13">
      <path clip-path="url(#pa589d52bc1)" d="M 10.7 224.116554 
L 367.82 224.116554 
" style="fill:none;stroke:#b0b0b0;stroke-linecap:square;stroke-width:0.8;"/>
     </g>
     <g id="line2d_14">
      <g>
       <use style="stroke:#000000;stroke-width:0.8;" x="10.7" xlink:href="#ma5151fdcf3" y="224.116554"/>
      </g>
     </g>
    </g>
    <g id="ytick_3">
     <g id="line2d_15">
      <path clip-path="url(#pa589d52bc1)" d="M 10.7 171.421109 
L 367.82 171.421109 
" style="fill:none;stroke:#b0b0b0;stroke-linecap:square;stroke-width:0.8;"/>
     </g>
     <g id="line2d_16">
      <g>
       <use style="stroke:#000000;stroke-width:0.8;" x="10.7" xlink:href="#ma5151fdcf3" y="171.421109"/>
      </g>
     </g>
    </g>
    <g id="ytick_4">
     <g id="line2d_17">
      <path clip-path="url(#pa589d52bc1)" d="M 10.7 118.725663 
L 367.82 118.725663 
" style="fill:none;stroke:#b0b0b0;stroke-linecap:square;stroke-width:0.8;"/>
     </g>
     <g id="line2d_18">
      <g>
       <use style="stroke:#000000;stroke-width:0.8;" x="10.7" xlink:href="#ma5151fdcf3" y="118.725663"/>
      </g>
     </g>
    </g>
    <g id="ytick_5">
     <g id="line2d_19">
      <path clip-path="url(#pa589d52bc1)" d="M 10.7 66.030218 
L 367.82 66.030218 
" style="fill:none;stroke:#b0b0b0;stroke-linecap:square;stroke-width:0.8;"/>
     </g>
     <g id="line2d_20">
      <g>
       <use style="stroke:#000000;stroke-width:0.8;" x="10.7" xlink:href="#ma5151fdcf3" y="66.030218"/>
      </g>
     </g>
    </g>
    <g id="ytick_6">
     <g id="line2d_21">
      <path clip-path="url(#pa589d52bc1)" d="M 10.7 13.334772 
L 367.82 13.334772 
" style="fill:none;stroke:#b0b0b0;stroke-linecap:square;stroke-width:0.8;"/>
     </g>
     <g id="line2d_22">
      <g>
       <use style="stroke:#000000;stroke-width:0.8;" x="10.7" xlink:href="#ma5151fdcf3" y="13.334772"/>
      </g>
     </g>
    </g>
   </g>
   <g id="line2d_23">
    <path clip-path="url(#pa589d52bc1)" d="M 88.609669 276.812 
L 88.609669 273.29897 
L 89.150345 273.29897 
L 89.150345 269.785941 
L 89.822062 269.785941 
L 89.822062 266.272911 
L 89.959148 266.272911 
L 89.959148 262.759881 
L 90.225085 262.759881 
L 90.225085 259.246851 
L 90.95451 259.246851 
L 90.95451 255.733822 
L 91.440965 255.733822 
L 91.440965 252.220792 
L 91.636731 252.220792 
L 91.636731 248.707762 
L 91.751583 248.707762 
L 91.842691 241.681703 
L 93.050507 241.681703 
L 93.050507 238.168673 
L 93.226114 238.168673 
L 93.226114 234.655644 
L 93.458175 234.655644 
L 93.465373 227.629584 
L 95.179279 227.629584 
L 95.179279 224.116554 
L 121.752218 224.116554 
L 121.752218 220.603525 
L 132.597084 220.603525 
L 132.597084 217.090495 
L 142.253375 217.090495 
L 142.253375 213.577465 
L 143.500475 213.577465 
L 143.500475 210.064436 
L 147.316894 210.064436 
L 147.316894 206.551406 
L 151.711285 206.551406 
L 151.711285 203.038376 
L 155.231696 203.038376 
L 155.231696 199.525347 
L 155.805939 199.525347 
L 155.805939 196.012317 
L 161.026002 196.012317 
L 161.026002 192.499287 
L 162.978386 192.499287 
L 162.978386 188.986257 
L 163.534104 188.986257 
L 163.534104 185.473228 
L 165.030889 185.473228 
L 165.030889 181.960198 
L 167.76763 181.960198 
L 167.76763 178.447168 
L 172.628559 178.447168 
L 172.628559 174.934139 
L 172.814845 174.934139 
L 172.814845 171.421109 
L 174.113365 171.421109 
L 174.113365 167.908079 
L 174.456865 167.908079 
L 174.456865 164.39505 
L 175.403666 164.39505 
L 175.47544 157.36899 
L 181.933764 157.36899 
L 181.933764 153.85596 
L 182.290114 153.85596 
L 182.290114 150.342931 
L 183.646249 150.342931 
L 183.646249 146.829901 
L 184.923683 146.829901 
L 184.923683 143.316871 
L 189.709016 143.316871 
L 189.709016 139.803842 
L 190.441802 139.803842 
L 190.441802 136.290812 
L 192.442719 136.290812 
L 192.442719 132.777782 
L 199.665198 132.777782 
L 199.665198 129.264752 
L 200.829247 129.264752 
L 200.829247 125.751723 
L 202.787329 125.751723 
L 202.787329 122.238693 
L 204.06095 122.238693 
L 204.06095 118.725663 
L 204.412618 118.725663 
L 204.412618 115.212634 
L 207.707122 115.212634 
L 207.707122 111.699604 
L 207.919946 111.699604 
L 207.919946 108.186574 
L 208.828981 108.186574 
L 208.828981 104.673545 
L 208.9966 104.673545 
L 208.9966 101.160515 
L 209.645663 101.160515 
L 209.645663 97.647485 
L 210.310886 97.647485 
L 210.388985 90.621426 
L 211.625022 90.621426 
L 211.720312 83.595366 
L 211.829888 83.595366 
L 211.829888 80.082337 
L 212.702096 80.082337 
L 212.702096 76.569307 
L 212.992877 76.569307 
L 212.992877 73.056277 
L 213.649262 73.056277 
L 213.649262 69.543248 
L 215.392735 69.543248 
L 215.392735 66.030218 
L 216.670304 66.030218 
L 216.670304 62.517188 
L 217.778467 62.517188 
L 217.778467 59.004158 
L 221.853681 59.004158 
L 221.853681 55.491129 
L 223.112334 55.491129 
L 223.112334 51.978099 
L 223.363214 51.978099 
L 223.363214 48.465069 
L 223.766148 48.465069 
L 223.766148 44.95204 
L 224.120099 44.95204 
L 224.188114 37.92598 
L 224.243785 37.92598 
L 224.243785 34.41295 
L 224.766399 34.41295 
L 224.766399 30.899921 
L 225.092712 30.899921 
L 225.092712 27.386891 
L 227.233958 27.386891 
L 227.233958 23.873861 
L 228.847514 23.873861 
L 228.847514 20.360832 
L 232.682837 20.360832 
L 232.682837 16.847802 
L 233.717319 16.847802 
L 233.717319 13.334772 
L 233.717319 13.334772 
L 367.82 13.334772 
L 367.82 13.334772 
" style="fill:none;stroke:#ff0000;stroke-linecap:square;stroke-width:3;"/>
   </g>
   <g id="line2d_24">
    <path clip-path="url(#pa589d52bc1)" d="M 195.4559 276.812 
L 195.4559 273.29897 
L 196.274805 273.29897 
L 196.274805 269.785941 
L 198.780732 269.785941 
L 198.780732 266.272911 
L 199.919702 266.272911 
L 199.99859 259.246851 
L 201.401378 259.246851 
L 201.401378 255.733822 
L 201.616307 255.733822 
L 201.616307 252.220792 
L 203.271388 252.220792 
L 203.271388 248.707762 
L 203.455337 248.707762 
L 203.512492 241.681703 
L 203.67144 241.681703 
L 203.67144 238.168673 
L 203.783043 238.168673 
L 203.783043 234.655644 
L 204.180169 234.655644 
L 204.180169 231.142614 
L 206.208656 231.142614 
L 206.208656 227.629584 
L 210.426761 227.629584 
L 210.426761 224.116554 
L 220.261204 224.116554 
L 220.261204 220.603525 
L 234.193568 220.603525 
L 234.193568 217.090495 
L 234.320815 217.090495 
L 234.320815 213.577465 
L 234.626921 213.577465 
L 234.626921 210.064436 
L 234.94886 210.064436 
L 234.94886 206.551406 
L 235.193766 206.551406 
L 235.299614 199.525347 
L 235.35386 199.525347 
L 235.35386 196.012317 
L 235.597295 196.012317 
L 235.597295 192.499287 
L 235.747927 192.499287 
L 235.764966 185.473228 
L 235.884352 185.473228 
L 235.884352 181.960198 
L 236.267485 181.960198 
L 236.267485 178.447168 
L 236.683256 178.447168 
L 236.683256 174.934139 
L 237.488296 174.934139 
L 237.488296 171.421109 
L 237.601382 171.421109 
L 237.601382 167.908079 
L 258.7732 167.908079 
L 258.7732 164.39505 
L 263.997909 164.39505 
L 263.997909 160.88202 
L 279.698345 160.88202 
L 279.698345 157.36899 
L 285.666502 157.36899 
L 285.666502 153.85596 
L 291.426166 153.85596 
L 291.426166 150.342931 
L 295.162676 150.342931 
L 295.162676 146.829901 
L 295.685426 146.829901 
L 295.685426 143.316871 
L 295.884834 143.316871 
L 295.915141 136.290812 
L 297.433195 136.290812 
L 297.433195 132.777782 
L 301.122839 132.777782 
L 301.122839 129.264752 
L 301.783841 129.264752 
L 301.850999 122.238693 
L 302.640521 122.238693 
L 302.640521 118.725663 
L 305.151459 118.725663 
L 305.151459 115.212634 
L 306.230043 115.212634 
L 306.230043 111.699604 
L 306.759732 111.699604 
L 306.858357 101.160515 
L 307.192823 101.160515 
L 307.192823 97.647485 
L 308.815287 97.647485 
L 308.815287 94.134455 
L 309.394086 94.134455 
L 309.394086 90.621426 
L 309.642084 90.621426 
L 309.642084 87.108396 
L 309.928289 87.108396 
L 309.928289 83.595366 
L 311.643302 83.595366 
L 311.643302 80.082337 
L 314.489228 80.082337 
L 314.489228 76.569307 
L 315.422882 76.569307 
L 315.422882 73.056277 
L 315.670202 73.056277 
L 315.670202 69.543248 
L 316.8713 69.543248 
L 316.8713 66.030218 
L 327.399037 66.030218 
L 327.399037 62.517188 
L 330.208246 62.517188 
L 330.208246 59.004158 
L 330.75552 59.004158 
L 330.75552 55.491129 
L 330.876158 55.491129 
L 330.876158 51.978099 
L 332.468669 51.978099 
L 332.468669 48.465069 
L 332.807809 48.465069 
L 332.807809 44.95204 
L 333.022922 44.95204 
L 333.022922 41.43901 
L 337.582776 41.43901 
L 337.582776 37.92598 
L 338.764018 37.92598 
L 338.764018 34.41295 
L 339.391706 34.41295 
L 339.391706 30.899921 
L 340.196681 30.899921 
L 340.265962 23.873861 
L 340.460618 23.873861 
L 340.460618 20.360832 
L 340.711479 20.360832 
L 340.711479 16.847802 
L 344.684711 16.847802 
L 344.684711 13.334772 
L 344.684711 13.334772 
L 367.82 13.334772 
L 367.82 13.334772 
" style="fill:none;stroke:#00bfbf;stroke-linecap:square;stroke-width:1.5;"/>
   </g>
   <g id="line2d_25">
    <path clip-path="url(#pa589d52bc1)" d="M 194.715185 276.812 
L 194.715185 273.29897 
L 195.076974 273.29897 
L 195.076974 269.785941 
L 196.832655 269.785941 
L 196.832655 266.272911 
L 198.2763 266.272911 
L 198.352291 259.246851 
L 200.215911 259.246851 
L 200.215911 255.733822 
L 200.512031 255.733822 
L 200.596708 248.707762 
L 201.791518 248.707762 
L 201.852865 241.681703 
L 202.014294 241.681703 
L 202.014294 238.168673 
L 203.348559 238.168673 
L 203.348559 234.655644 
L 203.508066 234.655644 
L 203.508066 231.142614 
L 204.688951 231.142614 
L 204.688951 227.629584 
L 208.99621 227.629584 
L 208.99621 224.116554 
L 214.101104 224.116554 
L 214.101104 220.603525 
L 226.851007 220.603525 
L 226.851007 217.090495 
L 233.751026 217.090495 
L 233.751026 213.577465 
L 233.898928 213.577465 
L 233.898928 210.064436 
L 234.626921 210.064436 
L 234.737321 199.525347 
L 234.776416 199.525347 
L 234.776416 196.012317 
L 235.014656 196.012317 
L 235.014656 192.499287 
L 235.30626 192.499287 
L 235.30626 188.986257 
L 235.490066 188.986257 
L 235.542521 178.447168 
L 236.06118 178.447168 
L 236.06118 174.934139 
L 236.419586 174.934139 
L 236.419586 171.421109 
L 237.108181 171.421109 
L 237.125162 164.39505 
L 237.518158 164.39505 
L 237.518158 160.88202 
L 266.95504 160.88202 
L 266.95504 157.36899 
L 284.373748 157.36899 
L 284.373748 153.85596 
L 286.940131 153.85596 
L 286.940131 150.342931 
L 287.339625 150.342931 
L 287.339625 146.829901 
L 287.531237 146.829901 
L 287.531237 143.316871 
L 289.447314 143.316871 
L 289.447314 139.803842 
L 293.800792 139.803842 
L 293.800792 136.290812 
L 295.459271 136.290812 
L 295.459271 132.777782 
L 298.86141 132.777782 
L 298.86141 129.264752 
L 299.076626 129.264752 
L 299.076626 125.751723 
L 299.192751 125.751723 
L 299.192751 122.238693 
L 299.92461 122.238693 
L 299.92461 118.725663 
L 303.461268 118.725663 
L 303.461268 115.212634 
L 304.571927 115.212634 
L 304.658582 104.673545 
L 305.829091 104.673545 
L 305.919432 97.647485 
L 307.459275 97.647485 
L 307.532151 90.621426 
L 308.154175 90.621426 
L 308.154175 87.108396 
L 308.303034 87.108396 
L 308.303034 83.595366 
L 310.473637 83.595366 
L 310.473637 80.082337 
L 313.1233 80.082337 
L 313.1233 76.569307 
L 314.429085 76.569307 
L 314.429085 73.056277 
L 314.604315 73.056277 
L 314.604315 69.543248 
L 314.970922 69.543248 
L 314.970922 66.030218 
L 323.659783 66.030218 
L 323.659783 62.517188 
L 329.644729 62.517188 
L 329.644729 59.004158 
L 329.93328 59.004158 
L 329.995344 51.978099 
L 331.115803 51.978099 
L 331.115803 48.465069 
L 331.722128 48.465069 
L 331.722128 44.95204 
L 331.963891 44.95204 
L 331.963891 41.43901 
L 336.81598 41.43901 
L 336.81598 37.92598 
L 337.462691 37.92598 
L 337.462691 34.41295 
L 337.783648 34.41295 
L 337.783648 30.899921 
L 338.169496 30.899921 
L 338.169496 27.386891 
L 339.205843 27.386891 
L 339.210026 20.360832 
L 340.196332 20.360832 
L 340.196332 16.847802 
L 342.989668 16.847802 
L 342.989668 13.334772 
L 342.989668 13.334772 
L 367.82 13.334772 
L 367.82 13.334772 
" style="fill:none;stroke:#bf00bf;stroke-linecap:square;stroke-width:1.5;"/>
   </g>
   <g id="line2d_26">
    <path clip-path="url(#pa589d52bc1)" d="M 192.236034 276.812 
L 192.236034 273.29897 
L 192.837947 273.29897 
L 192.837947 269.785941 
L 194.432769 269.785941 
L 194.432769 266.272911 
L 196.040187 266.272911 
L 196.040187 262.759881 
L 196.827611 262.759881 
L 196.827611 259.246851 
L 197.928593 259.246851 
L 197.958196 252.220792 
L 198.214286 252.220792 
L 198.214286 248.707762 
L 198.380084 248.707762 
L 198.380084 245.194733 
L 198.881484 245.194733 
L 198.881484 241.681703 
L 199.150877 241.681703 
L 199.150877 238.168673 
L 199.669226 238.168673 
L 199.669226 234.655644 
L 200.002483 234.655644 
L 200.002483 231.142614 
L 201.750426 231.142614 
L 201.750426 227.629584 
L 205.233832 227.629584 
L 205.233832 224.116554 
L 210.102067 224.116554 
L 210.102067 220.603525 
L 212.034654 220.603525 
L 212.034654 217.090495 
L 212.815776 217.090495 
L 212.815776 213.577465 
L 214.101104 213.577465 
L 214.101104 210.064436 
L 220.832328 210.064436 
L 220.832328 206.551406 
L 224.9809 206.551406 
L 224.9809 203.038376 
L 231.81205 203.038376 
L 231.81205 199.525347 
L 232.3341 199.525347 
L 232.3341 196.012317 
L 232.8236 196.012317 
L 232.8236 192.499287 
L 233.435907 192.499287 
L 233.435907 188.986257 
L 233.764951 188.986257 
L 233.791695 178.447168 
L 234.203673 178.447168 
L 234.203673 174.934139 
L 234.392554 174.934139 
L 234.469309 164.39505 
L 234.75191 164.39505 
L 234.75191 160.88202 
L 235.391277 160.88202 
L 235.391277 157.36899 
L 235.58812 157.36899 
L 235.58812 153.85596 
L 236.24272 153.85596 
L 236.24272 150.342931 
L 236.506138 150.342931 
L 236.506138 146.829901 
L 251.989011 146.829901 
L 251.989011 143.316871 
L 252.455433 143.316871 
L 252.455433 139.803842 
L 281.39538 139.803842 
L 281.39538 136.290812 
L 288.367611 136.290812 
L 288.367611 132.777782 
L 293.190587 132.777782 
L 293.190587 129.264752 
L 293.447885 129.264752 
L 293.447885 125.751723 
L 293.634861 125.751723 
L 293.634861 122.238693 
L 294.237237 122.238693 
L 294.327689 111.699604 
L 295.569933 111.699604 
L 295.569933 108.186574 
L 296.073831 108.186574 
L 296.073831 104.673545 
L 300.010823 104.673545 
L 300.010823 101.160515 
L 300.31675 101.160515 
L 300.31675 97.647485 
L 301.987272 97.647485 
L 301.987272 94.134455 
L 303.542586 94.134455 
L 303.542586 90.621426 
L 304.887804 90.621426 
L 304.887804 87.108396 
L 306.045961 87.108396 
L 306.045961 83.595366 
L 307.084442 83.595366 
L 307.084442 80.082337 
L 308.699232 80.082337 
L 308.699232 76.569307 
L 309.810278 76.569307 
L 309.810278 73.056277 
L 311.227276 73.056277 
L 311.227276 69.543248 
L 313.008813 69.543248 
L 313.008813 66.030218 
L 320.962881 66.030218 
L 320.962881 62.517188 
L 327.469786 62.517188 
L 327.469786 59.004158 
L 327.992882 59.004158 
L 327.992882 55.491129 
L 328.472637 55.491129 
L 328.472637 51.978099 
L 328.85215 51.978099 
L 328.85215 48.465069 
L 329.152655 48.465069 
L 329.152655 44.95204 
L 330.203962 44.95204 
L 330.203962 41.43901 
L 332.433253 41.43901 
L 332.433253 37.92598 
L 332.691858 37.92598 
L 332.691858 34.41295 
L 333.053655 34.41295 
L 333.053655 30.899921 
L 333.447198 30.899921 
L 333.447198 27.386891 
L 333.739568 27.386891 
L 333.739568 23.873861 
L 335.168115 23.873861 
L 335.168115 20.360832 
L 336.7405 20.360832 
L 336.7405 16.847802 
L 339.463486 16.847802 
L 339.463486 13.334772 
L 339.463486 13.334772 
L 367.82 13.334772 
L 367.82 13.334772 
" style="fill:none;stroke:#000000;stroke-linecap:square;stroke-width:1.5;"/>
   </g>
   <g id="line2d_27">
    <path clip-path="url(#pa589d52bc1)" d="M 178.931586 276.812 
L 178.931586 273.29897 
L 182.244353 273.29897 
L 182.244353 269.785941 
L 182.411703 269.785941 
L 182.411703 266.272911 
L 182.958398 266.272911 
L 182.958398 262.759881 
L 184.024218 262.759881 
L 184.024218 259.246851 
L 184.797206 259.246851 
L 184.797206 255.733822 
L 184.967235 255.733822 
L 184.967235 252.220792 
L 187.887086 252.220792 
L 187.895218 245.194733 
L 188.079249 245.194733 
L 188.156465 238.168673 
L 189.164377 238.168673 
L 189.164377 234.655644 
L 189.28049 234.655644 
L 189.335539 227.629584 
L 192.562931 227.629584 
L 192.562931 224.116554 
L 207.919946 224.116554 
L 207.919946 220.603525 
L 209.520612 220.603525 
L 209.520612 217.090495 
L 209.747073 217.090495 
L 209.747073 213.577465 
L 210.310886 213.577465 
L 210.310886 210.064436 
L 210.82787 210.064436 
L 210.82787 206.551406 
L 211.625022 206.551406 
L 211.625022 203.038376 
L 211.803261 203.038376 
L 211.8903 196.012317 
L 212.9188 196.012317 
L 212.992877 188.986257 
L 213.543135 188.986257 
L 213.649262 181.960198 
L 216.066969 181.960198 
L 216.066969 178.447168 
L 216.96779 178.447168 
L 216.96779 174.934139 
L 223.847172 174.934139 
L 223.847172 171.421109 
L 225.687896 171.421109 
L 225.687896 167.908079 
L 226.101617 167.908079 
L 226.150487 160.88202 
L 226.392925 160.88202 
L 226.392925 157.36899 
L 226.525602 157.36899 
L 226.525602 153.85596 
L 227.231037 153.85596 
L 227.231037 150.342931 
L 227.579105 150.342931 
L 227.579105 146.829901 
L 227.78943 146.829901 
L 227.78943 143.316871 
L 228.032413 143.316871 
L 228.032413 139.803842 
L 228.602109 139.803842 
L 228.602109 136.290812 
L 228.843835 136.290812 
L 228.843835 132.777782 
L 229.488459 132.777782 
L 229.488459 129.264752 
L 230.021477 129.264752 
L 230.094774 122.238693 
L 230.825486 122.238693 
L 230.825486 118.725663 
L 270.783461 118.725663 
L 270.783461 115.212634 
L 272.406063 115.212634 
L 272.479368 108.186574 
L 273.216207 108.186574 
L 273.216207 104.673545 
L 273.68469 104.673545 
L 273.68469 101.160515 
L 279.120778 101.160515 
L 279.120778 97.647485 
L 279.362115 97.647485 
L 279.362115 94.134455 
L 280.430814 94.134455 
L 280.430814 90.621426 
L 281.183156 90.621426 
L 281.205593 83.595366 
L 281.785963 83.595366 
L 281.785963 80.082337 
L 282.992765 80.082337 
L 282.992765 76.569307 
L 284.72196 76.569307 
L 284.72196 73.056277 
L 286.758412 73.056277 
L 286.758412 69.543248 
L 286.909152 69.543248 
L 286.909152 66.030218 
L 306.008353 66.030218 
L 306.008353 62.517188 
L 309.139782 62.517188 
L 309.139782 59.004158 
L 311.061838 59.004158 
L 311.061838 55.491129 
L 312.359036 55.491129 
L 312.362608 48.465069 
L 312.665998 48.465069 
L 312.665998 44.95204 
L 313.333243 44.95204 
L 313.333243 41.43901 
L 315.12759 41.43901 
L 315.12759 37.92598 
L 317.512286 37.92598 
L 317.512286 34.41295 
L 317.681 34.41295 
L 317.681 30.899921 
L 318.923426 30.899921 
L 318.923426 27.386891 
L 321.252577 27.386891 
L 321.252577 23.873861 
L 321.650298 23.873861 
L 321.650298 20.360832 
L 323.469475 20.360832 
L 323.469475 16.847802 
L 323.811322 16.847802 
L 323.811322 13.334772 
L 323.811322 13.334772 
L 367.82 13.334772 
L 367.82 13.334772 
" style="fill:none;stroke:#00bfbf;stroke-linecap:square;stroke-width:1.5;"/>
   </g>
   <g id="line2d_28">
    <path clip-path="url(#pa589d52bc1)" d="M 121.16496 276.812 
L 121.16496 273.29897 
L 121.604228 273.29897 
L 121.604228 269.785941 
L 122.382414 269.785941 
L 122.382414 266.272911 
L 122.493845 266.272911 
L 122.493845 262.759881 
L 122.905828 262.759881 
L 122.905828 259.246851 
L 123.052703 259.246851 
L 123.052703 255.733822 
L 123.249815 255.733822 
L 123.249815 252.220792 
L 123.738864 252.220792 
L 123.738864 248.707762 
L 124.105793 248.707762 
L 124.105793 245.194733 
L 125.006186 245.194733 
L 125.006186 241.681703 
L 125.302868 241.681703 
L 125.302868 238.168673 
L 125.748315 238.168673 
L 125.748315 234.655644 
L 126.714807 234.655644 
L 126.787615 227.629584 
L 127.105222 227.629584 
L 127.105222 224.116554 
L 162.701781 224.116554 
L 162.701781 220.603525 
L 164.799699 220.603525 
L 164.799699 217.090495 
L 170.581714 217.090495 
L 170.581714 213.577465 
L 170.721679 213.577465 
L 170.721679 210.064436 
L 170.842158 210.064436 
L 170.842158 206.551406 
L 171.293734 206.551406 
L 171.293734 203.038376 
L 171.67503 203.038376 
L 171.74972 196.012317 
L 172.772491 196.012317 
L 172.772491 192.499287 
L 173.278959 192.499287 
L 173.278959 188.986257 
L 174.420275 188.986257 
L 174.420275 185.473228 
L 174.789227 185.473228 
L 174.789227 181.960198 
L 176.443903 181.960198 
L 176.443903 178.447168 
L 177.089916 178.447168 
L 177.089916 174.934139 
L 177.814957 174.934139 
L 177.814957 171.421109 
L 177.969861 171.421109 
L 177.969861 167.908079 
L 180.077135 167.908079 
L 180.077135 164.39505 
L 182.950931 164.39505 
L 182.950931 160.88202 
L 183.210904 160.88202 
L 183.210904 157.36899 
L 183.790923 157.36899 
L 183.790923 153.85596 
L 185.401918 153.85596 
L 185.401918 150.342931 
L 186.969999 150.342931 
L 186.969999 146.829901 
L 187.229389 146.829901 
L 187.229389 143.316871 
L 189.865901 143.316871 
L 189.865901 139.803842 
L 190.983107 139.803842 
L 190.983107 136.290812 
L 192.660389 136.290812 
L 192.660389 132.777782 
L 200.147024 132.777782 
L 200.147024 129.264752 
L 201.461107 129.264752 
L 201.461107 125.751723 
L 204.18022 125.751723 
L 204.18022 122.238693 
L 207.772249 122.238693 
L 207.772249 118.725663 
L 207.919946 118.725663 
L 207.919946 115.212634 
L 208.479716 115.212634 
L 208.479716 111.699604 
L 208.828981 111.699604 
L 208.904566 104.673545 
L 210.310886 104.673545 
L 210.310886 101.160515 
L 211.625022 101.160515 
L 211.625022 97.647485 
L 211.803261 97.647485 
L 211.829888 90.621426 
L 212.702096 90.621426 
L 212.702096 87.108396 
L 212.992877 87.108396 
L 212.992877 83.595366 
L 213.543135 83.595366 
L 213.649262 73.056277 
L 216.96779 73.056277 
L 216.96779 69.543248 
L 217.778467 69.543248 
L 217.778467 66.030218 
L 240.21092 66.030218 
L 240.21092 62.517188 
L 244.922202 62.517188 
L 244.922202 59.004158 
L 245.902128 59.004158 
L 245.902128 55.491129 
L 247.454963 55.491129 
L 247.454963 51.978099 
L 250.670068 51.978099 
L 250.670068 48.465069 
L 252.124286 48.465069 
L 252.124286 44.95204 
L 253.491885 44.95204 
L 253.491885 41.43901 
L 254.315124 41.43901 
L 254.315124 37.92598 
L 256.584626 37.92598 
L 256.584626 34.41295 
L 256.723962 34.41295 
L 256.723962 30.899921 
L 256.84237 30.899921 
L 256.84237 27.386891 
L 258.557199 27.386891 
L 258.557199 23.873861 
L 258.973127 23.873861 
L 258.973127 20.360832 
L 260.263818 20.360832 
L 260.263818 16.847802 
L 261.145111 16.847802 
L 261.145111 13.334772 
L 261.145111 13.334772 
L 367.82 13.334772 
L 367.82 13.334772 
" style="fill:none;stroke:#bf00bf;stroke-linecap:square;stroke-width:1.5;"/>
   </g>
   <g id="line2d_29">
    <path clip-path="url(#pa589d52bc1)" d="M 95.123372 276.812 
L 95.123372 273.29897 
L 96.229213 273.29897 
L 96.331432 262.759881 
L 96.429496 262.759881 
L 96.429496 259.246851 
L 96.750478 259.246851 
L 96.750478 255.733822 
L 96.938763 255.733822 
L 96.938763 252.220792 
L 97.192557 252.220792 
L 97.192557 248.707762 
L 97.865328 248.707762 
L 97.865328 245.194733 
L 98.199442 245.194733 
L 98.199442 241.681703 
L 98.717613 241.681703 
L 98.717613 238.168673 
L 98.840703 238.168673 
L 98.89914 231.142614 
L 99.495867 231.142614 
L 99.562901 224.116554 
L 121.752218 224.116554 
L 121.752218 220.603525 
L 132.597084 220.603525 
L 132.597084 217.090495 
L 142.268266 217.090495 
L 142.268266 213.577465 
L 143.51176 213.577465 
L 143.51176 210.064436 
L 147.316894 210.064436 
L 147.316894 206.551406 
L 151.722867 206.551406 
L 151.722867 203.038376 
L 155.247081 203.038376 
L 155.247081 199.525347 
L 155.8187 199.525347 
L 155.8187 196.012317 
L 161.026002 196.012317 
L 161.026002 192.499287 
L 162.978386 192.499287 
L 162.978386 188.986257 
L 163.534104 188.986257 
L 163.534104 185.473228 
L 165.046409 185.473228 
L 165.046409 181.960198 
L 167.76763 181.960198 
L 167.76763 178.447168 
L 172.64245 178.447168 
L 172.64245 174.934139 
L 172.814845 174.934139 
L 172.814845 171.421109 
L 174.113365 171.421109 
L 174.113365 167.908079 
L 174.471432 167.908079 
L 174.471432 164.39505 
L 175.416548 164.39505 
L 175.47544 157.36899 
L 181.948406 157.36899 
L 181.948406 153.85596 
L 182.306035 153.85596 
L 182.306035 150.342931 
L 183.660117 150.342931 
L 183.660117 146.829901 
L 184.938356 146.829901 
L 184.938356 143.316871 
L 189.724557 143.316871 
L 189.724557 139.803842 
L 190.441802 139.803842 
L 190.441802 136.290812 
L 192.442719 136.290812 
L 192.442719 132.777782 
L 199.665198 132.777782 
L 199.665198 129.264752 
L 200.844401 129.264752 
L 200.844401 125.751723 
L 204.06095 125.751723 
L 204.06095 122.238693 
L 206.857471 122.238693 
L 206.857471 118.725663 
L 207.707122 118.725663 
L 207.707122 115.212634 
L 207.919946 115.212634 
L 207.919946 111.699604 
L 208.828981 111.699604 
L 208.904566 104.673545 
L 210.310886 104.673545 
L 210.310886 101.160515 
L 210.700919 101.160515 
L 210.700919 97.647485 
L 211.625022 97.647485 
L 211.625022 94.134455 
L 211.803261 94.134455 
L 211.829888 87.108396 
L 212.702096 87.108396 
L 212.702096 83.595366 
L 212.992877 83.595366 
L 212.992877 80.082337 
L 213.543135 80.082337 
L 213.649262 73.056277 
L 216.96779 73.056277 
L 216.96779 69.543248 
L 217.778467 69.543248 
L 217.778467 66.030218 
L 219.38184 66.030218 
L 219.38184 62.517188 
L 224.669201 62.517188 
L 224.669201 59.004158 
L 226.920234 59.004158 
L 226.920234 55.491129 
L 228.753929 55.491129 
L 228.753929 51.978099 
L 229.268764 51.978099 
L 229.268764 48.465069 
L 229.484154 48.465069 
L 229.484154 44.95204 
L 229.911485 44.95204 
L 229.911485 41.43901 
L 230.205669 41.43901 
L 230.205669 37.92598 
L 231.227117 37.92598 
L 231.227117 34.41295 
L 232.074171 34.41295 
L 232.074171 30.899921 
L 233.120348 30.899921 
L 233.120348 27.386891 
L 233.847482 27.386891 
L 233.847482 23.873861 
L 234.356177 23.873861 
L 234.356177 20.360832 
L 241.753011 20.360832 
L 241.753011 16.847802 
L 242.75007 16.847802 
L 242.75007 13.334772 
L 242.75007 13.334772 
L 367.82 13.334772 
L 367.82 13.334772 
" style="fill:none;stroke:#000000;stroke-linecap:square;stroke-width:1.5;"/>
   </g>
   <g id="patch_3">
    <path d="M 10.7 276.812 
L 10.7 10.7 
" style="fill:none;stroke:#000000;stroke-linecap:square;stroke-linejoin:miter;stroke-width:0.8;"/>
   </g>
   <g id="patch_4">
    <path d="M 367.82 276.812 
L 367.82 10.7 
" style="fill:none;stroke:#000000;stroke-linecap:square;stroke-linejoin:miter;stroke-width:0.8;"/>
   </g>
   <g id="patch_5">
    <path d="M 10.7 276.812 
L 367.82 276.812 
" style="fill:none;stroke:#000000;stroke-linecap:square;stroke-linejoin:miter;stroke-width:0.8;"/>
   </g>
   <g id="patch_6">
    <path d="M 10.7 10.7 
L 367.82 10.7 
" style="fill:none;stroke:#000000;stroke-linecap:square;stroke-linejoin:miter;stroke-width:0.8;"/>
   </g>
   <g id="text_6">
    <!-- {f10-f14}, 20-D -->
    <defs>
     <path d="M 51.125 -9.28125 
L 51.125 -16.3125 
L 48.09375 -16.3125 
Q 35.9375 -16.3125 31.8125 -12.6875 
Q 27.6875 -9.078125 27.6875 1.703125 
L 27.6875 13.375 
Q 27.6875 20.75 25.046875 23.578125 
Q 22.40625 26.421875 15.484375 26.421875 
L 12.5 26.421875 
L 12.5 33.40625 
L 15.484375 33.40625 
Q 22.46875 33.40625 25.078125 36.203125 
Q 27.6875 39.015625 27.6875 46.296875 
L 27.6875 58.015625 
Q 27.6875 68.796875 31.8125 72.390625 
Q 35.9375 75.984375 48.09375 75.984375 
L 51.125 75.984375 
L 51.125 69 
L 47.796875 69 
Q 40.921875 69 38.8125 66.84375 
Q 36.71875 64.703125 36.71875 57.8125 
L 36.71875 45.703125 
Q 36.71875 38.03125 34.5 34.5625 
Q 32.28125 31.109375 26.90625 29.890625 
Q 32.328125 28.5625 34.515625 25.09375 
Q 36.71875 21.625 36.71875 14.015625 
L 36.71875 1.90625 
Q 36.71875 -4.984375 38.8125 -7.125 
Q 40.921875 -9.28125 47.796875 -9.28125 
z
" id="DejaVuSans-7b"/>
     <path d="M 12.5 -9.28125 
L 15.921875 -9.28125 
Q 22.75 -9.28125 24.828125 -7.171875 
Q 26.90625 -5.078125 26.90625 1.90625 
L 26.90625 14.015625 
Q 26.90625 21.625 29.09375 25.09375 
Q 31.296875 28.5625 36.71875 29.890625 
Q 31.296875 31.109375 29.09375 34.5625 
Q 26.90625 38.03125 26.90625 45.703125 
L 26.90625 57.8125 
Q 26.90625 64.75 24.828125 66.875 
Q 22.75 69 15.921875 69 
L 12.5 69 
L 12.5 75.984375 
L 15.578125 75.984375 
Q 27.734375 75.984375 31.8125 72.390625 
Q 35.890625 68.796875 35.890625 58.015625 
L 35.890625 46.296875 
Q 35.890625 39.015625 38.515625 36.203125 
Q 41.15625 33.40625 48.09375 33.40625 
L 51.125 33.40625 
L 51.125 26.421875 
L 48.09375 26.421875 
Q 41.15625 26.421875 38.515625 23.578125 
Q 35.890625 20.75 35.890625 13.375 
L 35.890625 1.703125 
Q 35.890625 -9.078125 31.8125 -12.6875 
Q 27.734375 -16.3125 15.578125 -16.3125 
L 12.5 -16.3125 
z
" id="DejaVuSans-7d"/>
     <path d="M 11.71875 12.40625 
L 22.015625 12.40625 
L 22.015625 4 
L 14.015625 -11.625 
L 7.71875 -11.625 
L 11.71875 4 
z
" id="DejaVuSans-2c"/>
     <path d="M 19.1875 8.296875 
L 53.609375 8.296875 
L 53.609375 0 
L 7.328125 0 
L 7.328125 8.296875 
Q 12.9375 14.109375 22.625 23.890625 
Q 32.328125 33.6875 34.8125 36.53125 
Q 39.546875 41.84375 41.421875 45.53125 
Q 43.3125 49.21875 43.3125 52.78125 
Q 43.3125 58.59375 39.234375 62.25 
Q 35.15625 65.921875 28.609375 65.921875 
Q 23.96875 65.921875 18.8125 64.3125 
Q 13.671875 62.703125 7.8125 59.421875 
L 7.8125 69.390625 
Q 13.765625 71.78125 18.9375 73 
Q 24.125 74.21875 28.421875 74.21875 
Q 39.75 74.21875 46.484375 68.546875 
Q 53.21875 62.890625 53.21875 53.421875 
Q 53.21875 48.921875 51.53125 44.890625 
Q 49.859375 40.875 45.40625 35.40625 
Q 44.1875 33.984375 37.640625 27.21875 
Q 31.109375 20.453125 19.1875 8.296875 
z
" id="DejaVuSans-32"/>
    </defs>
    <g transform="translate(202.2526 271.48976)scale(0.2 -0.2)">
     <use xlink:href="#DejaVuSans-7b"/>
     <use x="63.623047" xlink:href="#DejaVuSans-66"/>
     <use x="98.828125" xlink:href="#DejaVuSans-31"/>
     <use x="162.451172" xlink:href="#DejaVuSans-30"/>
     <use x="226.074219" xlink:href="#DejaVuSans-2d"/>
     <use x="262.158203" xlink:href="#DejaVuSans-66"/>
     <use x="297.363281" xlink:href="#DejaVuSans-31"/>
     <use x="360.986328" xlink:href="#DejaVuSans-34"/>
     <use x="424.609375" xlink:href="#DejaVuSans-7d"/>
     <use x="488.232422" xlink:href="#DejaVuSans-2c"/>
     <use x="520.019531" xlink:href="#DejaVuSans-20"/>
     <use x="551.806641" xlink:href="#DejaVuSans-32"/>
     <use x="615.429688" xlink:href="#DejaVuSans-30"/>
     <use x="679.052734" xlink:href="#DejaVuSans-2d"/>
     <use x="715.136719" xlink:href="#DejaVuSans-44"/>
    </g>
   </g>
   <g id="text_7">
    <!-- v2.1 -->
    <defs>
     <path d="M 2.984375 54.6875 
L 12.5 54.6875 
L 29.59375 8.796875 
L 46.6875 54.6875 
L 56.203125 54.6875 
L 35.6875 0 
L 23.484375 0 
z
" id="DejaVuSans-76"/>
     <path d="M 10.6875 12.40625 
L 21 12.40625 
L 21 0 
L 10.6875 0 
z
" id="DejaVuSans-2e"/>
    </defs>
    <g style="fill:#808080;" transform="translate(178.349063 272.071193)scale(0.1 -0.1)">
     <use xlink:href="#DejaVuSans-76"/>
     <use x="59.179688" xlink:href="#DejaVuSans-32"/>
     <use x="122.802734" xlink:href="#DejaVuSans-2e"/>
     <use x="154.589844" xlink:href="#DejaVuSans-31"/>
    </g>
   </g>
  </g>
 </g>
 <defs>
  <clipPath id="pa589d52bc1">
   <rect height="266.112" width="357.12" x="10.7" y="10.7"/>
  </clipPath>
 </defs>
</svg>
