<?xml version="1.0" encoding="utf-8" standalone="no"?>
<!DOCTYPE svg PUBLIC "-//W3C//DTD SVG 1.1//EN"
  "http://www.w3.org/Graphics/SVG/1.1/DTD/svg11.dtd">
<!-- Created with matplotlib (http://matplotlib.org/) -->
<svg height="333pt" version="1.1" viewBox="0 0 378 333" width="378pt" xmlns="http://www.w3.org/2000/svg" xmlns:xlink="http://www.w3.org/1999/xlink">
 <defs>
  <style type="text/css">
*{stroke-linecap:butt;stroke-linejoin:round;}
  </style>
 </defs>
 <g id="figure_1">
  <g id="patch_1">
   <path d="M 0 333.7245 
L 378.52 333.7245 
L 378.52 0 
L 0 0 
z
" style="fill:#ffffff;"/>
  </g>
  <g id="axes_1">
   <g id="patch_2">
    <path d="M 10.7 276.812 
L 367.82 276.812 
L 367.82 10.7 
L 10.7 10.7 
z
" style="fill:#ffffff;"/>
   </g>
   <g id="matplotlib.axis_1">
    <g id="xtick_1">
     <g id="line2d_1">
      <path clip-path="url(#pc9ea438c5c)" d="M 10.61312 276.812 
L 10.61312 10.7 
" style="fill:none;stroke:#b0b0b0;stroke-linecap:square;stroke-width:0.8;"/>
     </g>
     <g id="line2d_2">
      <defs>
       <path d="M 0 0 
L 0 3.5 
" id="m43ce61e7ee" style="stroke:#000000;stroke-width:0.8;"/>
      </defs>
      <g>
       <use style="stroke:#000000;stroke-width:0.8;" x="10.61312" xlink:href="#m43ce61e7ee" y="276.812"/>
      </g>
     </g>
    </g>
    <g id="xtick_2">
     <g id="line2d_3">
      <path clip-path="url(#pc9ea438c5c)" d="M 91.032378 276.812 
L 91.032378 10.7 
" style="fill:none;stroke:#b0b0b0;stroke-linecap:square;stroke-width:0.8;"/>
     </g>
     <g id="line2d_4">
      <g>
       <use style="stroke:#000000;stroke-width:0.8;" x="91.032378" xlink:href="#m43ce61e7ee" y="276.812"/>
      </g>
     </g>
     <g id="text_1">
      <!-- -4 -->
      <defs>
       <path d="M 4.890625 31.390625 
L 31.203125 31.390625 
L 31.203125 23.390625 
L 4.890625 23.390625 
z
" id="DejaVuSans-2d"/>
       <path d="M 37.796875 64.3125 
L 12.890625 25.390625 
L 37.796875 25.390625 
z
M 35.203125 72.90625 
L 47.609375 72.90625 
L 47.609375 25.390625 
L 58.015625 25.390625 
L 58.015625 17.1875 
L 47.609375 17.1875 
L 47.609375 0 
L 37.796875 0 
L 37.796875 17.1875 
L 4.890625 17.1875 
L 4.890625 26.703125 
z
" id="DejaVuSans-34"/>
      </defs>
      <g transform="translate(81.062066 299.008875)scale(0.2 -0.2)">
       <use xlink:href="#DejaVuSans-2d"/>
       <use x="36.083984" xlink:href="#DejaVuSans-34"/>
      </g>
     </g>
    </g>
    <g id="xtick_3">
     <g id="line2d_5">
      <path clip-path="url(#pc9ea438c5c)" d="M 171.451637 276.812 
L 171.451637 10.7 
" style="fill:none;stroke:#b0b0b0;stroke-linecap:square;stroke-width:0.8;"/>
     </g>
     <g id="line2d_6">
      <g>
       <use style="stroke:#000000;stroke-width:0.8;" x="171.451637" xlink:href="#m43ce61e7ee" y="276.812"/>
      </g>
     </g>
     <g id="text_2">
      <!-- 0 -->
      <defs>
       <path d="M 31.78125 66.40625 
Q 24.171875 66.40625 20.328125 58.90625 
Q 16.5 51.421875 16.5 36.375 
Q 16.5 21.390625 20.328125 13.890625 
Q 24.171875 6.390625 31.78125 6.390625 
Q 39.453125 6.390625 43.28125 13.890625 
Q 47.125 21.390625 47.125 36.375 
Q 47.125 51.421875 43.28125 58.90625 
Q 39.453125 66.40625 31.78125 66.40625 
z
M 31.78125 74.21875 
Q 44.046875 74.21875 50.515625 64.515625 
Q 56.984375 54.828125 56.984375 36.375 
Q 56.984375 17.96875 50.515625 8.265625 
Q 44.046875 -1.421875 31.78125 -1.421875 
Q 19.53125 -1.421875 13.0625 8.265625 
Q 6.59375 17.96875 6.59375 36.375 
Q 6.59375 54.828125 13.0625 64.515625 
Q 19.53125 74.21875 31.78125 74.21875 
z
" id="DejaVuSans-30"/>
      </defs>
      <g transform="translate(165.089137 299.008875)scale(0.2 -0.2)">
       <use xlink:href="#DejaVuSans-30"/>
      </g>
     </g>
    </g>
    <g id="xtick_4">
     <g id="line2d_7">
      <path clip-path="url(#pc9ea438c5c)" d="M 251.870895 276.812 
L 251.870895 10.7 
" style="fill:none;stroke:#b0b0b0;stroke-linecap:square;stroke-width:0.8;"/>
     </g>
     <g id="line2d_8">
      <g>
       <use style="stroke:#000000;stroke-width:0.8;" x="251.870895" xlink:href="#m43ce61e7ee" y="276.812"/>
      </g>
     </g>
     <g id="text_3">
      <!-- 4 -->
      <g transform="translate(245.508395 299.008875)scale(0.2 -0.2)">
       <use xlink:href="#DejaVuSans-34"/>
      </g>
     </g>
    </g>
    <g id="xtick_5">
     <g id="line2d_9">
      <path clip-path="url(#pc9ea438c5c)" d="M 332.290153 276.812 
L 332.290153 10.7 
" style="fill:none;stroke:#b0b0b0;stroke-linecap:square;stroke-width:0.8;"/>
     </g>
     <g id="line2d_10">
      <g>
       <use style="stroke:#000000;stroke-width:0.8;" x="332.290153" xlink:href="#m43ce61e7ee" y="276.812"/>
      </g>
     </g>
     <g id="text_4">
      <!-- 8 -->
      <defs>
       <path d="M 31.78125 34.625 
Q 24.75 34.625 20.71875 30.859375 
Q 16.703125 27.09375 16.703125 20.515625 
Q 16.703125 13.921875 20.71875 10.15625 
Q 24.75 6.390625 31.78125 6.390625 
Q 38.8125 6.390625 42.859375 10.171875 
Q 46.921875 13.96875 46.921875 20.515625 
Q 46.921875 27.09375 42.890625 30.859375 
Q 38.875 34.625 31.78125 34.625 
z
M 21.921875 38.8125 
Q 15.578125 40.375 12.03125 44.71875 
Q 8.5 49.078125 8.5 55.328125 
Q 8.5 64.0625 14.71875 69.140625 
Q 20.953125 74.21875 31.78125 74.21875 
Q 42.671875 74.21875 48.875 69.140625 
Q 55.078125 64.0625 55.078125 55.328125 
Q 55.078125 49.078125 51.53125 44.71875 
Q 48 40.375 41.703125 38.8125 
Q 48.828125 37.15625 52.796875 32.3125 
Q 56.78125 27.484375 56.78125 20.515625 
Q 56.78125 9.90625 50.3125 4.234375 
Q 43.84375 -1.421875 31.78125 -1.421875 
Q 19.734375 -1.421875 13.25 4.234375 
Q 6.78125 9.90625 6.78125 20.515625 
Q 6.78125 27.484375 10.78125 32.3125 
Q 14.796875 37.15625 21.921875 38.8125 
z
M 18.3125 54.390625 
Q 18.3125 48.734375 21.84375 45.5625 
Q 25.390625 42.390625 31.78125 42.390625 
Q 38.140625 42.390625 41.71875 45.5625 
Q 45.3125 48.734375 45.3125 54.390625 
Q 45.3125 60.0625 41.71875 63.234375 
Q 38.140625 66.40625 31.78125 66.40625 
Q 25.390625 66.40625 21.84375 63.234375 
Q 18.3125 60.0625 18.3125 54.390625 
z
" id="DejaVuSans-38"/>
      </defs>
      <g transform="translate(325.927653 299.008875)scale(0.2 -0.2)">
       <use xlink:href="#DejaVuSans-38"/>
      </g>
     </g>
    </g>
    <g id="text_5">
     <!-- log10 of Df -->
     <defs>
      <path d="M 9.421875 75.984375 
L 18.40625 75.984375 
L 18.40625 0 
L 9.421875 0 
z
" id="DejaVuSans-6c"/>
      <path d="M 30.609375 48.390625 
Q 23.390625 48.390625 19.1875 42.75 
Q 14.984375 37.109375 14.984375 27.296875 
Q 14.984375 17.484375 19.15625 11.84375 
Q 23.34375 6.203125 30.609375 6.203125 
Q 37.796875 6.203125 41.984375 11.859375 
Q 46.1875 17.53125 46.1875 27.296875 
Q 46.1875 37.015625 41.984375 42.703125 
Q 37.796875 48.390625 30.609375 48.390625 
z
M 30.609375 56 
Q 42.328125 56 49.015625 48.375 
Q 55.71875 40.765625 55.71875 27.296875 
Q 55.71875 13.875 49.015625 6.21875 
Q 42.328125 -1.421875 30.609375 -1.421875 
Q 18.84375 -1.421875 12.171875 6.21875 
Q 5.515625 13.875 5.515625 27.296875 
Q 5.515625 40.765625 12.171875 48.375 
Q 18.84375 56 30.609375 56 
z
" id="DejaVuSans-6f"/>
      <path d="M 45.40625 27.984375 
Q 45.40625 37.75 41.375 43.109375 
Q 37.359375 48.484375 30.078125 48.484375 
Q 22.859375 48.484375 18.828125 43.109375 
Q 14.796875 37.75 14.796875 27.984375 
Q 14.796875 18.265625 18.828125 12.890625 
Q 22.859375 7.515625 30.078125 7.515625 
Q 37.359375 7.515625 41.375 12.890625 
Q 45.40625 18.265625 45.40625 27.984375 
z
M 54.390625 6.78125 
Q 54.390625 -7.171875 48.1875 -13.984375 
Q 42 -20.796875 29.203125 -20.796875 
Q 24.46875 -20.796875 20.265625 -20.09375 
Q 16.0625 -19.390625 12.109375 -17.921875 
L 12.109375 -9.1875 
Q 16.0625 -11.328125 19.921875 -12.34375 
Q 23.78125 -13.375 27.78125 -13.375 
Q 36.625 -13.375 41.015625 -8.765625 
Q 45.40625 -4.15625 45.40625 5.171875 
L 45.40625 9.625 
Q 42.625 4.78125 38.28125 2.390625 
Q 33.9375 0 27.875 0 
Q 17.828125 0 11.671875 7.65625 
Q 5.515625 15.328125 5.515625 27.984375 
Q 5.515625 40.671875 11.671875 48.328125 
Q 17.828125 56 27.875 56 
Q 33.9375 56 38.28125 53.609375 
Q 42.625 51.21875 45.40625 46.390625 
L 45.40625 54.6875 
L 54.390625 54.6875 
z
" id="DejaVuSans-67"/>
      <path d="M 12.40625 8.296875 
L 28.515625 8.296875 
L 28.515625 63.921875 
L 10.984375 60.40625 
L 10.984375 69.390625 
L 28.421875 72.90625 
L 38.28125 72.90625 
L 38.28125 8.296875 
L 54.390625 8.296875 
L 54.390625 0 
L 12.40625 0 
z
" id="DejaVuSans-31"/>
      <path id="DejaVuSans-20"/>
      <path d="M 37.109375 75.984375 
L 37.109375 68.5 
L 28.515625 68.5 
Q 23.6875 68.5 21.796875 66.546875 
Q 19.921875 64.59375 19.921875 59.515625 
L 19.921875 54.6875 
L 34.71875 54.6875 
L 34.71875 47.703125 
L 19.921875 47.703125 
L 19.921875 0 
L 10.890625 0 
L 10.890625 47.703125 
L 2.296875 47.703125 
L 2.296875 54.6875 
L 10.890625 54.6875 
L 10.890625 58.5 
Q 10.890625 67.625 15.140625 71.796875 
Q 19.390625 75.984375 28.609375 75.984375 
z
" id="DejaVuSans-66"/>
      <path d="M 19.671875 64.796875 
L 19.671875 8.109375 
L 31.59375 8.109375 
Q 46.6875 8.109375 53.6875 14.9375 
Q 60.6875 21.78125 60.6875 36.53125 
Q 60.6875 51.171875 53.6875 57.984375 
Q 46.6875 64.796875 31.59375 64.796875 
z
M 9.8125 72.90625 
L 30.078125 72.90625 
Q 51.265625 72.90625 61.171875 64.09375 
Q 71.09375 55.28125 71.09375 36.53125 
Q 71.09375 17.671875 61.125 8.828125 
Q 51.171875 0 30.078125 0 
L 9.8125 0 
z
" id="DejaVuSans-44"/>
     </defs>
     <g transform="translate(134.074063 322.365125)scale(0.2 -0.2)">
      <use xlink:href="#DejaVuSans-6c"/>
      <use x="27.783203" xlink:href="#DejaVuSans-6f"/>
      <use x="88.964844" xlink:href="#DejaVuSans-67"/>
      <use x="152.441406" xlink:href="#DejaVuSans-31"/>
      <use x="216.064453" xlink:href="#DejaVuSans-30"/>
      <use x="279.6875" xlink:href="#DejaVuSans-20"/>
      <use x="311.474609" xlink:href="#DejaVuSans-6f"/>
      <use x="372.65625" xlink:href="#DejaVuSans-66"/>
      <use x="407.861328" xlink:href="#DejaVuSans-20"/>
      <use x="439.648438" xlink:href="#DejaVuSans-44"/>
      <use x="516.650391" xlink:href="#DejaVuSans-66"/>
     </g>
    </g>
   </g>
   <g id="matplotlib.axis_2">
    <g id="ytick_1">
     <g id="line2d_11">
      <path clip-path="url(#pc9ea438c5c)" d="M 10.7 276.812 
L 367.82 276.812 
" style="fill:none;stroke:#b0b0b0;stroke-linecap:square;stroke-width:0.8;"/>
     </g>
     <g id="line2d_12">
      <defs>
       <path d="M 0 0 
L -3.5 0 
" id="mb4876fe4e1" style="stroke:#000000;stroke-width:0.8;"/>
      </defs>
      <g>
       <use style="stroke:#000000;stroke-width:0.8;" x="10.7" xlink:href="#mb4876fe4e1" y="276.812"/>
      </g>
     </g>
    </g>
    <g id="ytick_2">
     <g id="line2d_13">
      <path clip-path="url(#pc9ea438c5c)" d="M 10.7 224.116554 
L 367.82 224.116554 
" style="fill:none;stroke:#b0b0b0;stroke-linecap:square;stroke-width:0.8;"/>
     </g>
     <g id="line2d_14">
      <g>
       <use style="stroke:#000000;stroke-width:0.8;" x="10.7" xlink:href="#mb4876fe4e1" y="224.116554"/>
      </g>
     </g>
    </g>
    <g id="ytick_3">
     <g id="line2d_15">
      <path clip-path="url(#pc9ea438c5c)" d="M 10.7 171.421109 
L 367.82 171.421109 
" style="fill:none;stroke:#b0b0b0;stroke-linecap:square;stroke-width:0.8;"/>
     </g>
     <g id="line2d_16">
      <g>
       <use style="stroke:#000000;stroke-width:0.8;" x="10.7" xlink:href="#mb4876fe4e1" y="171.421109"/>
      </g>
     </g>
    </g>
    <g id="ytick_4">
     <g id="line2d_17">
      <path clip-path="url(#pc9ea438c5c)" d="M 10.7 118.725663 
L 367.82 118.725663 
" style="fill:none;stroke:#b0b0b0;stroke-linecap:square;stroke-width:0.8;"/>
     </g>
     <g id="line2d_18">
      <g>
       <use style="stroke:#000000;stroke-width:0.8;" x="10.7" xlink:href="#mb4876fe4e1" y="118.725663"/>
      </g>
     </g>
    </g>
    <g id="ytick_5">
     <g id="line2d_19">
      <path clip-path="url(#pc9ea438c5c)" d="M 10.7 66.030218 
L 367.82 66.030218 
" style="fill:none;stroke:#b0b0b0;stroke-linecap:square;stroke-width:0.8;"/>
     </g>
     <g id="line2d_20">
      <g>
       <use style="stroke:#000000;stroke-width:0.8;" x="10.7" xlink:href="#mb4876fe4e1" y="66.030218"/>
      </g>
     </g>
    </g>
    <g id="ytick_6">
     <g id="line2d_21">
      <path clip-path="url(#pc9ea438c5c)" d="M 10.7 13.334772 
L 367.82 13.334772 
" style="fill:none;stroke:#b0b0b0;stroke-linecap:square;stroke-width:0.8;"/>
     </g>
     <g id="line2d_22">
      <g>
       <use style="stroke:#000000;stroke-width:0.8;" x="10.7" xlink:href="#mb4876fe4e1" y="13.334772"/>
      </g>
     </g>
    </g>
   </g>
   <g id="line2d_23">
    <path clip-path="url(#pc9ea438c5c)" d="M 10.61312 276.812 
L 10.61312 273.29897 
L 10.61312 273.29897 
L 10.61312 273.29897 
L 10.61312 269.785941 
L 10.61312 269.785941 
L 10.61312 269.785941 
L 10.61312 266.272911 
L 10.61312 266.272911 
L 10.61312 266.272911 
L 10.61312 262.759881 
L 10.61312 262.759881 
L 10.61312 262.759881 
L 10.61312 259.246851 
L 10.61312 259.246851 
L 10.61312 259.246851 
L 10.61312 255.733822 
L 10.61312 255.733822 
L 10.61312 255.733822 
L 10.61312 252.220792 
L 10.61312 252.220792 
L 10.61312 252.220792 
L 10.61312 248.707762 
L 10.61312 248.707762 
L 10.61312 248.707762 
L 10.61312 245.194733 
L 10.61312 245.194733 
L 10.61312 245.194733 
L 10.61312 241.681703 
L 10.61312 241.681703 
L 10.61312 241.681703 
L 10.61312 238.168673 
L 10.61312 238.168673 
L 10.61312 238.168673 
L 10.61312 234.655644 
L 10.61312 234.655644 
L 10.61312 234.655644 
L 10.61312 231.142614 
L 10.61312 231.142614 
L 10.61312 231.142614 
L 10.61312 227.629584 
L 10.61312 227.629584 
L 10.61312 227.629584 
L 10.61312 224.116554 
L 10.61312 224.116554 
L 10.61312 224.116554 
L 10.61312 220.603525 
L 10.61312 220.603525 
L 10.61312 220.603525 
L 10.61312 217.090495 
L 10.61312 217.090495 
L 10.61312 217.090495 
L 10.61312 213.577465 
L 10.61312 213.577465 
L 10.61312 213.577465 
L 10.61312 210.064436 
L 10.61312 210.064436 
L 10.61312 210.064436 
L 10.61312 206.551406 
L 10.61312 206.551406 
L 10.61312 206.551406 
L 10.61312 203.038376 
L 10.61312 203.038376 
L 10.61312 203.038376 
L 10.61312 199.525347 
L 10.61312 199.525347 
L 10.61312 199.525347 
L 10.61312 196.012317 
L 10.61312 196.012317 
L 10.61312 196.012317 
L 10.61312 192.499287 
L 10.61312 192.499287 
L 10.61312 192.499287 
L 10.61312 188.986257 
L 10.61312 188.986257 
L 10.61312 188.986257 
L 10.61312 185.473228 
L 10.61312 185.473228 
L 10.61312 185.473228 
L 10.61312 181.960198 
L 10.61312 181.960198 
L 10.61312 181.960198 
L 10.61312 178.447168 
L 10.61312 178.447168 
L 10.61312 178.447168 
L 10.61312 174.934139 
L 10.61312 174.934139 
L 10.61312 174.934139 
L 10.61312 171.421109 
L 10.61312 171.421109 
L 10.61312 171.421109 
L 10.61312 167.908079 
L 10.61312 167.908079 
L 10.61312 167.908079 
L 10.61312 164.39505 
L 10.61312 164.39505 
L 10.61312 164.39505 
L 10.61312 160.88202 
L 10.61312 160.88202 
L 10.61312 160.88202 
L 10.61312 157.36899 
L 10.61312 157.36899 
L 10.61312 157.36899 
L 10.61312 153.85596 
L 10.61312 153.85596 
L 10.61312 153.85596 
L 10.61312 150.342931 
L 10.61312 150.342931 
L 10.61312 150.342931 
L 10.61312 146.829901 
L 10.61312 146.829901 
L 10.61312 146.829901 
L 10.61312 143.316871 
L 10.61312 143.316871 
L 10.61312 143.316871 
L 10.61312 139.803842 
L 10.61312 139.803842 
L 10.61312 139.803842 
L 10.61312 136.290812 
L 10.61312 136.290812 
L 10.61312 136.290812 
L 10.61312 132.777782 
L 10.61312 132.777782 
L 10.61312 132.777782 
L 10.61312 129.264752 
L 10.61312 129.264752 
L 10.61312 129.264752 
L 10.61312 125.751723 
L 10.61312 125.751723 
L 10.61312 125.751723 
L 10.61312 122.238693 
L 10.61312 122.238693 
L 10.61312 122.238693 
L 10.61312 118.725663 
L 177.459663 118.725663 
L 177.459663 115.212634 
L 188.398044 115.212634 
L 188.398044 111.699604 
L 188.692757 111.699604 
L 188.692757 108.186574 
L 189.563962 108.186574 
L 189.563962 104.673545 
L 190.59237 104.673545 
L 190.59237 101.160515 
L 191.132359 101.160515 
L 191.132359 97.647485 
L 191.512316 97.647485 
L 191.512316 94.134455 
L 192.344509 94.134455 
L 192.344509 90.621426 
L 193.104227 90.621426 
L 193.104227 87.108396 
L 193.803125 87.108396 
L 193.803125 80.082337 
L 194.863132 80.082337 
L 194.863132 76.569307 
L 195.052587 76.569307 
L 195.052587 69.543248 
L 195.6161 69.543248 
L 195.6161 66.030218 
L 197.568134 66.030218 
L 197.568134 62.517188 
L 198.396644 62.517188 
L 198.396644 59.004158 
L 200.502275 59.004158 
L 200.502275 55.491129 
L 201.390988 55.491129 
L 201.391022 48.465069 
L 202.935848 48.465069 
L 202.935881 37.92598 
L 204.836892 37.92598 
L 204.836892 34.41295 
L 205.024661 34.41295 
L 205.024661 30.899921 
L 207.720282 30.899921 
L 207.720282 27.386891 
L 207.988999 27.386891 
L 207.988999 23.873861 
L 208.502803 23.873861 
L 208.502803 20.360832 
L 209.884261 20.360832 
L 209.884261 16.847802 
L 210.697104 16.847802 
L 210.697104 13.334772 
L 210.697104 13.334772 
L 367.82 13.334772 
L 367.82 13.334772 
" style="fill:none;stroke:#ff0000;stroke-linecap:square;stroke-width:3;"/>
   </g>
   <g id="line2d_24">
    <path clip-path="url(#pc9ea438c5c)" d="M 191.807118 276.812 
L 191.807118 273.29897 
L 191.979194 273.29897 
L 191.979194 269.785941 
L 193.795431 269.785941 
L 193.795431 266.272911 
L 196.328387 266.272911 
L 196.328387 262.759881 
L 198.091372 262.759881 
L 198.091372 259.246851 
L 198.266093 259.246851 
L 198.266093 255.733822 
L 198.952756 255.733822 
L 198.952756 252.220792 
L 199.449969 252.220792 
L 199.449969 248.707762 
L 199.933515 248.707762 
L 199.933515 245.194733 
L 200.359972 245.194733 
L 200.359972 241.681703 
L 201.121431 241.681703 
L 201.121431 238.168673 
L 201.432863 238.168673 
L 201.432863 234.655644 
L 202.299237 234.655644 
L 202.299237 231.142614 
L 203.253443 231.142614 
L 203.253443 227.629584 
L 206.051743 227.629584 
L 206.051743 224.116554 
L 207.931051 224.116554 
L 207.931051 220.603525 
L 210.507467 220.603525 
L 210.507467 217.090495 
L 211.985874 217.090495 
L 211.985874 213.577465 
L 212.115119 213.577465 
L 212.214892 203.038376 
L 212.227089 203.038376 
L 212.318668 160.88202 
L 212.455865 160.88202 
L 212.466124 153.85596 
L 213.120559 153.85596 
L 213.200483 146.829901 
L 213.438569 146.829901 
L 213.438569 143.316871 
L 213.754192 143.316871 
L 213.754192 139.803842 
L 214.447856 139.803842 
L 214.447856 136.290812 
L 214.581986 136.290812 
L 214.581986 132.777782 
L 214.725696 132.777782 
L 214.811287 125.751723 
L 214.851327 125.751723 
L 214.851327 122.238693 
L 215.22189 122.238693 
L 215.240814 115.212634 
L 217.113858 115.212634 
L 217.113858 111.699604 
L 217.351709 111.699604 
L 217.351709 108.186574 
L 217.579582 108.186574 
L 217.634907 97.647485 
L 218.326073 97.647485 
L 218.326073 94.134455 
L 219.111492 94.134455 
L 219.111492 90.621426 
L 219.404319 90.621426 
L 219.404319 87.108396 
L 219.578751 87.108396 
L 219.578751 83.595366 
L 219.969742 83.595366 
L 219.969742 80.082337 
L 220.334372 80.082337 
L 220.334372 76.569307 
L 224.400846 76.569307 
L 224.400846 73.056277 
L 224.536918 73.056277 
L 224.536918 69.543248 
L 225.932525 69.543248 
L 225.932525 66.030218 
L 254.682044 66.030218 
L 254.682044 62.517188 
L 267.313507 62.517188 
L 267.313507 59.004158 
L 272.648649 59.004158 
L 272.648649 55.491129 
L 272.921206 55.491129 
L 272.921206 51.978099 
L 280.20854 51.978099 
L 280.20854 48.465069 
L 284.431177 48.465069 
L 284.431177 44.95204 
L 288.69774 44.95204 
L 288.69774 41.43901 
L 298.357883 41.43901 
L 298.357883 37.92598 
L 300.78834 37.92598 
L 300.78834 34.41295 
L 302.123433 34.41295 
L 302.123433 30.899921 
L 304.72627 30.899921 
L 304.72627 27.386891 
L 306.954812 27.386891 
L 306.954812 23.873861 
L 311.489524 23.873861 
L 311.489524 20.360832 
L 313.378376 20.360832 
L 313.378376 16.847802 
L 313.730277 16.847802 
L 313.730277 13.334772 
L 313.730277 13.334772 
L 367.82 13.334772 
L 367.82 13.334772 
" style="fill:none;stroke:#00bfbf;stroke-linecap:square;stroke-width:1.5;"/>
   </g>
   <g id="line2d_25">
    <path clip-path="url(#pc9ea438c5c)" d="M 190.762341 276.812 
L 190.762341 273.29897 
L 191.3235 273.29897 
L 191.3235 269.785941 
L 191.979194 269.785941 
L 191.979194 266.272911 
L 196.328387 266.272911 
L 196.328387 262.759881 
L 196.963916 262.759881 
L 196.963916 259.246851 
L 197.4865 259.246851 
L 197.4865 255.733822 
L 198.328458 255.733822 
L 198.328458 252.220792 
L 199.384362 252.220792 
L 199.384362 248.707762 
L 199.51821 248.707762 
L 199.51821 245.194733 
L 199.70453 245.194733 
L 199.70453 241.681703 
L 201.032129 241.681703 
L 201.032129 238.168673 
L 201.167437 238.168673 
L 201.167437 234.655644 
L 201.593119 234.655644 
L 201.593119 231.142614 
L 202.904847 231.142614 
L 202.904847 227.629584 
L 205.708068 227.629584 
L 205.708068 224.116554 
L 207.931051 224.116554 
L 207.931051 220.603525 
L 208.59265 220.603525 
L 208.59265 217.090495 
L 210.412325 217.090495 
L 210.423452 210.064436 
L 211.390322 210.064436 
L 211.390322 206.551406 
L 211.846289 206.551406 
L 211.955239 199.525347 
L 211.985874 199.525347 
L 212.08916 181.960198 
L 212.101396 181.960198 
L 212.182134 160.88202 
L 212.213127 160.88202 
L 212.292419 146.829901 
L 212.446534 146.829901 
L 212.446534 143.316871 
L 212.594664 143.316871 
L 212.594664 139.803842 
L 212.842774 139.803842 
L 212.842774 136.290812 
L 213.354255 136.290812 
L 213.354255 132.777782 
L 213.785917 132.777782 
L 213.785917 129.264752 
L 214.338683 129.264752 
L 214.346111 122.238693 
L 214.568496 122.238693 
L 214.568496 118.725663 
L 215.240814 118.725663 
L 215.240814 115.212634 
L 215.368059 115.212634 
L 215.368059 111.699604 
L 215.91161 111.699604 
L 215.91161 108.186574 
L 216.763474 108.186574 
L 216.763474 104.673545 
L 217.388749 104.673545 
L 217.388749 101.160515 
L 217.579582 101.160515 
L 217.579582 97.647485 
L 217.922581 97.647485 
L 217.922581 94.134455 
L 218.214965 94.134455 
L 218.326073 87.108396 
L 219.111492 87.108396 
L 219.134817 80.082337 
L 220.303224 80.082337 
L 220.303224 76.569307 
L 222.944276 76.569307 
L 222.944276 73.056277 
L 223.596587 73.056277 
L 223.596587 69.543248 
L 225.575818 69.543248 
L 225.575818 66.030218 
L 253.049399 66.030218 
L 253.049399 62.517188 
L 267.313507 62.517188 
L 267.313507 59.004158 
L 270.008517 59.004158 
L 270.008517 55.491129 
L 270.203255 55.491129 
L 270.203255 51.978099 
L 279.573696 51.978099 
L 279.573696 48.465069 
L 282.337646 48.465069 
L 282.337646 44.95204 
L 283.30046 44.95204 
L 283.30046 41.43901 
L 298.357883 41.43901 
L 298.357883 37.92598 
L 299.944099 37.92598 
L 299.944099 34.41295 
L 300.464432 34.41295 
L 300.464432 30.899921 
L 303.882062 30.899921 
L 303.882062 27.386891 
L 306.049701 27.386891 
L 306.049701 23.873861 
L 310.967212 23.873861 
L 310.967212 20.360832 
L 311.311244 20.360832 
L 311.311244 16.847802 
L 313.103706 16.847802 
L 313.103706 13.334772 
L 313.103706 13.334772 
L 367.82 13.334772 
L 367.82 13.334772 
" style="fill:none;stroke:#bf00bf;stroke-linecap:square;stroke-width:1.5;"/>
   </g>
   <g id="line2d_26">
    <path clip-path="url(#pc9ea438c5c)" d="M 189.493974 276.812 
L 189.493974 273.29897 
L 190.227771 273.29897 
L 190.227771 269.785941 
L 190.80469 269.785941 
L 190.80469 266.272911 
L 194.392925 266.272911 
L 194.392925 262.759881 
L 195.631257 262.759881 
L 195.631257 259.246851 
L 196.184144 259.246851 
L 196.184144 255.733822 
L 197.175504 255.733822 
L 197.175504 252.220792 
L 197.887475 252.220792 
L 197.887475 248.707762 
L 198.347162 248.707762 
L 198.347162 245.194733 
L 198.853287 245.194733 
L 198.853287 241.681703 
L 199.934078 241.681703 
L 199.998175 234.655644 
L 200.573484 234.655644 
L 200.573484 231.142614 
L 202.253523 231.142614 
L 202.253523 227.629584 
L 205.516748 227.629584 
L 205.516748 224.116554 
L 207.931051 224.116554 
L 207.931051 220.603525 
L 208.59265 220.603525 
L 208.59265 217.090495 
L 209.787253 217.090495 
L 209.787253 213.577465 
L 210.223594 213.577465 
L 210.223594 210.064436 
L 210.423452 210.064436 
L 210.423452 206.551406 
L 211.162117 206.551406 
L 211.162117 203.038376 
L 211.591493 203.038376 
L 211.591493 199.525347 
L 211.727496 199.525347 
L 211.811713 181.960198 
L 211.840447 181.960198 
L 211.875523 164.39505 
L 211.958973 164.39505 
L 212.014346 150.342931 
L 212.073773 150.342931 
L 212.073773 146.829901 
L 212.205492 146.829901 
L 212.205492 143.316871 
L 212.408325 143.316871 
L 212.446534 136.290812 
L 212.588994 136.290812 
L 212.588994 132.777782 
L 212.715217 132.777782 
L 212.715217 129.264752 
L 212.862115 129.264752 
L 212.936307 122.238693 
L 213.50683 122.238693 
L 213.50683 118.725663 
L 214.737498 118.725663 
L 214.78273 111.699604 
L 215.518106 111.699604 
L 215.518106 108.186574 
L 215.91161 108.186574 
L 215.91161 104.673545 
L 216.078256 104.673545 
L 216.078256 101.160515 
L 216.973454 101.160515 
L 216.973454 97.647485 
L 217.369539 97.647485 
L 217.369539 94.134455 
L 217.579582 94.134455 
L 217.579582 90.621426 
L 217.754867 90.621426 
L 217.82653 83.595366 
L 218.052967 83.595366 
L 218.052967 80.082337 
L 218.479254 80.082337 
L 218.479254 76.569307 
L 220.894173 76.569307 
L 220.894173 73.056277 
L 222.714233 73.056277 
L 222.714233 69.543248 
L 223.867084 69.543248 
L 223.867084 66.030218 
L 246.468686 66.030218 
L 246.468686 62.517188 
L 253.049399 62.517188 
L 253.049399 59.004158 
L 262.978571 59.004158 
L 262.978571 55.491129 
L 265.335302 55.491129 
L 265.335302 51.978099 
L 268.035904 51.978099 
L 268.035904 48.465069 
L 278.906856 48.465069 
L 278.906856 44.95204 
L 283.30046 44.95204 
L 283.30046 41.43901 
L 289.364268 41.43901 
L 289.364268 37.92598 
L 298.451391 37.92598 
L 298.451391 34.41295 
L 299.530499 34.41295 
L 299.530499 30.899921 
L 300.455182 30.899921 
L 300.455182 27.386891 
L 304.084749 27.386891 
L 304.084749 23.873861 
L 309.634196 23.873861 
L 309.634196 20.360832 
L 310.524695 20.360832 
L 310.524695 16.847802 
L 310.874564 16.847802 
L 310.874564 13.334772 
L 310.874564 13.334772 
L 367.82 13.334772 
L 367.82 13.334772 
" style="fill:none;stroke:#000000;stroke-linecap:square;stroke-width:1.5;"/>
   </g>
   <g id="line2d_27">
    <path clip-path="url(#pc9ea438c5c)" d="M 176.84508 276.812 
L 176.84508 273.29897 
L 181.375314 273.29897 
L 181.375314 269.785941 
L 181.495543 269.785941 
L 181.495543 266.272911 
L 183.615247 266.272911 
L 183.615247 262.759881 
L 184.35129 262.759881 
L 184.35129 259.246851 
L 186.946433 259.246851 
L 187.032679 252.220792 
L 189.623046 252.220792 
L 189.623046 248.707762 
L 190.614507 248.707762 
L 190.614507 245.194733 
L 192.115308 245.194733 
L 192.115308 241.681703 
L 193.431035 241.681703 
L 193.431035 238.168673 
L 194.644874 238.168673 
L 194.644874 234.655644 
L 196.488078 234.655644 
L 196.488078 231.142614 
L 197.936732 231.142614 
L 197.936732 227.629584 
L 201.931532 227.629584 
L 201.931532 224.116554 
L 204.246464 224.116554 
L 204.246464 220.603525 
L 204.674466 220.603525 
L 204.674466 217.090495 
L 205.326835 217.090495 
L 205.326835 213.577465 
L 206.014247 213.577465 
L 206.014247 210.064436 
L 207.023978 210.064436 
L 207.086793 203.038376 
L 207.604314 203.038376 
L 207.673447 192.499287 
L 207.91751 192.499287 
L 208.016018 185.473228 
L 208.266269 185.473228 
L 208.266269 181.960198 
L 208.52327 181.960198 
L 208.599102 171.421109 
L 209.042246 171.421109 
L 209.042246 167.908079 
L 209.241754 167.908079 
L 209.241754 164.39505 
L 209.366982 164.39505 
L 209.366982 160.88202 
L 209.522203 160.88202 
L 209.554666 153.85596 
L 209.754146 153.85596 
L 209.821285 146.829901 
L 210.009616 146.829901 
L 210.098669 139.803842 
L 210.320108 139.803842 
L 210.364603 129.264752 
L 210.5497 129.264752 
L 210.5497 125.751723 
L 210.739051 125.751723 
L 210.739051 122.238693 
L 210.972482 122.238693 
L 210.972482 118.725663 
L 211.287828 118.725663 
L 211.287828 115.212634 
L 211.81038 115.212634 
L 211.81038 111.699604 
L 211.958973 111.699604 
L 211.958973 108.186574 
L 212.587139 108.186574 
L 212.587139 104.673545 
L 213.055603 104.673545 
L 213.055603 101.160515 
L 213.228173 101.160515 
L 213.228173 97.647485 
L 213.480751 97.647485 
L 213.480751 94.134455 
L 213.76928 94.134455 
L 213.807339 87.108396 
L 215.268676 87.108396 
L 215.268676 83.595366 
L 215.73999 83.595366 
L 215.73999 80.082337 
L 215.90692 80.082337 
L 215.90692 76.569307 
L 216.519872 76.569307 
L 216.616498 69.543248 
L 217.808539 69.543248 
L 217.808539 66.030218 
L 234.32404 66.030218 
L 234.32404 62.517188 
L 237.395717 62.517188 
L 237.395717 59.004158 
L 239.882958 59.004158 
L 239.882958 55.491129 
L 248.190129 55.491129 
L 248.190129 51.978099 
L 251.571573 51.978099 
L 251.571573 48.465069 
L 260.195022 48.465069 
L 260.195022 44.95204 
L 271.995535 44.95204 
L 271.995535 41.43901 
L 272.575358 41.43901 
L 272.575358 37.92598 
L 274.475737 37.92598 
L 274.475737 34.41295 
L 275.655175 34.41295 
L 275.655175 30.899921 
L 284.550222 30.899921 
L 284.550222 27.386891 
L 285.261132 27.386891 
L 285.261132 23.873861 
L 285.775631 23.873861 
L 285.775631 20.360832 
L 286.619974 20.360832 
L 286.619974 16.847802 
L 304.557521 16.847802 
L 304.557521 13.334772 
L 304.557521 13.334772 
L 367.82 13.334772 
L 367.82 13.334772 
" style="fill:none;stroke:#00bfbf;stroke-linecap:square;stroke-width:1.5;"/>
   </g>
   <g id="line2d_28">
    <path clip-path="url(#pc9ea438c5c)" d="M 10.61312 276.812 
L 10.61312 273.29897 
L 10.61312 273.29897 
L 10.61312 273.29897 
L 10.61312 269.785941 
L 10.61312 269.785941 
L 10.61312 269.785941 
L 10.61312 266.272911 
L 10.61312 266.272911 
L 10.61312 266.272911 
L 10.61312 262.759881 
L 10.61312 262.759881 
L 10.61312 262.759881 
L 10.61312 259.246851 
L 10.61312 259.246851 
L 10.61312 259.246851 
L 10.61312 255.733822 
L 10.61312 255.733822 
L 10.61312 255.733822 
L 10.61312 252.220792 
L 10.61312 252.220792 
L 10.61312 252.220792 
L 10.61312 248.707762 
L 10.61312 248.707762 
L 10.61312 248.707762 
L 10.61312 245.194733 
L 10.61312 245.194733 
L 10.61312 245.194733 
L 10.61312 241.681703 
L 10.61312 241.681703 
L 10.61312 241.681703 
L 10.61312 238.168673 
L 10.61312 238.168673 
L 10.61312 238.168673 
L 10.61312 234.655644 
L 10.61312 234.655644 
L 10.61312 234.655644 
L 10.61312 231.142614 
L 10.61312 231.142614 
L 10.61312 231.142614 
L 10.61312 227.629584 
L 10.61312 227.629584 
L 10.61312 227.629584 
L 10.61312 224.116554 
L 46.865171 224.116554 
L 46.865171 220.603525 
L 53.157161 220.603525 
L 53.157161 217.090495 
L 71.172038 217.090495 
L 71.172038 213.577465 
L 72.276891 213.577465 
L 72.276891 210.064436 
L 75.637506 210.064436 
L 75.637506 206.551406 
L 76.146506 206.551406 
L 76.146506 203.038376 
L 76.393544 203.038376 
L 76.393544 199.525347 
L 79.118612 199.525347 
L 79.179909 192.499287 
L 80.00801 192.499287 
L 80.00801 188.986257 
L 84.996954 188.986257 
L 84.996954 185.473228 
L 90.890209 185.473228 
L 90.890209 181.960198 
L 95.79841 181.960198 
L 95.79841 178.447168 
L 97.088967 178.447168 
L 97.088967 174.934139 
L 97.311117 174.934139 
L 97.311117 171.421109 
L 178.127428 171.421109 
L 178.127428 167.908079 
L 188.692757 167.908079 
L 188.692757 164.39505 
L 191.129744 164.39505 
L 191.129744 160.88202 
L 194.822291 160.88202 
L 194.926146 150.342931 
L 195.052996 150.342931 
L 195.074055 143.316871 
L 195.199164 143.316871 
L 195.199164 139.803842 
L 196.246201 139.803842 
L 196.246201 136.290812 
L 196.377019 136.290812 
L 196.482636 129.264752 
L 197.568134 129.264752 
L 197.568134 125.751723 
L 198.102529 125.751723 
L 198.102529 122.238693 
L 198.791214 122.238693 
L 198.791214 118.725663 
L 199.508925 118.725663 
L 199.508925 115.212634 
L 199.898249 115.212634 
L 199.898249 111.699604 
L 200.503632 111.699604 
L 200.503632 108.186574 
L 201.391671 108.186574 
L 201.391671 104.673545 
L 202.166805 104.673545 
L 202.166805 101.160515 
L 202.936292 101.160515 
L 202.959693 94.134455 
L 203.137754 94.134455 
L 203.14966 87.108396 
L 204.208757 87.108396 
L 204.208757 83.595366 
L 204.837061 83.595366 
L 204.837061 80.082337 
L 205.142246 80.082337 
L 205.142246 76.569307 
L 206.765078 76.569307 
L 206.765078 73.056277 
L 207.720488 73.056277 
L 207.720488 69.543248 
L 207.989175 69.543248 
L 207.989175 66.030218 
L 208.502842 66.030218 
L 208.502842 62.517188 
L 209.884348 62.517188 
L 209.884348 59.004158 
L 210.697278 59.004158 
L 210.697278 55.491129 
L 215.731825 55.491129 
L 215.731825 51.978099 
L 216.191845 51.978099 
L 216.191845 48.465069 
L 217.393994 48.465069 
L 217.421677 41.43901 
L 217.541344 41.43901 
L 217.541344 37.92598 
L 221.088909 37.92598 
L 221.088909 34.41295 
L 222.242648 34.41295 
L 222.242648 30.899921 
L 224.203274 30.899921 
L 224.203274 27.386891 
L 233.368281 27.386891 
L 233.368281 23.873861 
L 239.528987 23.873861 
L 239.528987 20.360832 
L 244.059535 20.360832 
L 244.059535 16.847802 
L 250.888495 16.847802 
L 250.888495 13.334772 
L 250.888495 13.334772 
L 367.82 13.334772 
L 367.82 13.334772 
" style="fill:none;stroke:#bf00bf;stroke-linecap:square;stroke-width:1.5;"/>
   </g>
   <g id="line2d_29">
    <path clip-path="url(#pc9ea438c5c)" d="M 10.61312 276.812 
L 10.61312 273.29897 
L 10.61312 273.29897 
L 10.61312 273.29897 
L 10.61312 269.785941 
L 10.61312 269.785941 
L 10.61312 269.785941 
L 10.61312 266.272911 
L 10.61312 266.272911 
L 10.61312 266.272911 
L 10.61312 262.759881 
L 10.61312 262.759881 
L 10.61312 262.759881 
L 10.61312 259.246851 
L 10.61312 259.246851 
L 10.61312 259.246851 
L 10.61312 255.733822 
L 10.61312 255.733822 
L 10.61312 255.733822 
L 10.61312 252.220792 
L 10.61312 252.220792 
L 10.61312 252.220792 
L 10.61312 248.707762 
L 10.61312 248.707762 
L 10.61312 248.707762 
L 10.61312 245.194733 
L 10.61312 245.194733 
L 10.61312 245.194733 
L 10.61312 241.681703 
L 10.61312 241.681703 
L 10.61312 241.681703 
L 10.61312 238.168673 
L 10.61312 238.168673 
L 10.61312 238.168673 
L 10.61312 234.655644 
L 10.61312 234.655644 
L 10.61312 234.655644 
L 10.61312 231.142614 
L 10.61312 231.142614 
L 10.61312 231.142614 
L 10.61312 227.629584 
L 10.61312 227.629584 
L 10.61312 227.629584 
L 10.61312 224.116554 
L 10.61312 224.116554 
L 10.61312 224.116554 
L 10.61312 220.603525 
L 10.61312 220.603525 
L 10.61312 220.603525 
L 10.61312 217.090495 
L 10.61312 217.090495 
L 10.61312 217.090495 
L 10.61312 213.577465 
L 10.61312 213.577465 
L 10.61312 213.577465 
L 10.61312 210.064436 
L 10.61312 210.064436 
L 10.61312 210.064436 
L 10.61312 206.551406 
L 10.61312 206.551406 
L 10.61312 206.551406 
L 10.61312 203.038376 
L 10.61312 203.038376 
L 10.61312 203.038376 
L 10.61312 199.525347 
L 10.61312 199.525347 
L 10.61312 199.525347 
L 10.61312 196.012317 
L 10.61312 196.012317 
L 10.61312 196.012317 
L 10.61312 192.499287 
L 10.61312 192.499287 
L 10.61312 192.499287 
L 10.61312 188.986257 
L 10.61312 188.986257 
L 10.61312 188.986257 
L 10.61312 185.473228 
L 10.61312 185.473228 
L 10.61312 185.473228 
L 10.61312 181.960198 
L 10.61312 181.960198 
L 10.61312 181.960198 
L 10.61312 178.447168 
L 10.61312 178.447168 
L 10.61312 178.447168 
L 10.61312 174.934139 
L 10.61312 174.934139 
L 10.61312 174.934139 
L 10.61312 171.421109 
L 10.61312 171.421109 
L 10.61312 171.421109 
L 10.61312 167.908079 
L 10.61312 167.908079 
L 10.61312 167.908079 
L 10.61312 164.39505 
L 10.61312 164.39505 
L 10.61312 164.39505 
L 10.61312 160.88202 
L 10.61312 160.88202 
L 10.61312 160.88202 
L 10.61312 157.36899 
L 10.61312 157.36899 
L 10.61312 157.36899 
L 10.61312 153.85596 
L 10.61312 153.85596 
L 10.61312 153.85596 
L 10.61312 150.342931 
L 10.61312 150.342931 
L 10.61312 150.342931 
L 10.61312 146.829901 
L 10.61312 146.829901 
L 10.61312 146.829901 
L 10.61312 143.316871 
L 10.61312 143.316871 
L 10.61312 143.316871 
L 10.61312 139.803842 
L 10.61312 139.803842 
L 10.61312 139.803842 
L 10.61312 136.290812 
L 10.61312 136.290812 
L 10.61312 136.290812 
L 10.61312 132.777782 
L 10.61312 132.777782 
L 10.61312 132.777782 
L 10.61312 129.264752 
L 10.61312 129.264752 
L 10.61312 129.264752 
L 10.61312 125.751723 
L 10.61312 125.751723 
L 10.61312 125.751723 
L 10.61312 122.238693 
L 10.61312 122.238693 
L 10.61312 122.238693 
L 10.61312 118.725663 
L 177.459663 118.725663 
L 177.459663 115.212634 
L 188.398044 115.212634 
L 188.398044 111.699604 
L 188.692757 111.699604 
L 188.692757 108.186574 
L 189.563962 108.186574 
L 189.563962 104.673545 
L 190.59237 104.673545 
L 190.59237 101.160515 
L 191.132359 101.160515 
L 191.132359 97.647485 
L 191.512316 97.647485 
L 191.512316 94.134455 
L 192.344509 94.134455 
L 192.344509 90.621426 
L 193.104227 90.621426 
L 193.104227 87.108396 
L 193.803125 87.108396 
L 193.803125 80.082337 
L 194.863132 80.082337 
L 194.863132 76.569307 
L 195.052587 76.569307 
L 195.052587 69.543248 
L 195.6161 69.543248 
L 195.6161 66.030218 
L 197.568134 66.030218 
L 197.568134 62.517188 
L 198.396644 62.517188 
L 198.396644 59.004158 
L 200.502275 59.004158 
L 200.502275 55.491129 
L 201.390988 55.491129 
L 201.391022 48.465069 
L 202.935848 48.465069 
L 202.935881 37.92598 
L 204.836892 37.92598 
L 204.836892 34.41295 
L 205.024661 34.41295 
L 205.024661 30.899921 
L 207.720282 30.899921 
L 207.720282 27.386891 
L 207.988999 27.386891 
L 207.988999 23.873861 
L 208.502803 23.873861 
L 208.502803 20.360832 
L 209.884261 20.360832 
L 209.884261 16.847802 
L 210.697104 16.847802 
L 210.697104 13.334772 
L 210.697104 13.334772 
L 367.82 13.334772 
L 367.82 13.334772 
" style="fill:none;stroke:#000000;stroke-linecap:square;stroke-width:1.5;"/>
   </g>
   <g id="patch_3">
    <path d="M 10.7 276.812 
L 10.7 10.7 
" style="fill:none;stroke:#000000;stroke-linecap:square;stroke-linejoin:miter;stroke-width:0.8;"/>
   </g>
   <g id="patch_4">
    <path d="M 367.82 276.812 
L 367.82 10.7 
" style="fill:none;stroke:#000000;stroke-linecap:square;stroke-linejoin:miter;stroke-width:0.8;"/>
   </g>
   <g id="patch_5">
    <path d="M 10.7 276.812 
L 367.82 276.812 
" style="fill:none;stroke:#000000;stroke-linecap:square;stroke-linejoin:miter;stroke-width:0.8;"/>
   </g>
   <g id="patch_6">
    <path d="M 10.7 10.7 
L 367.82 10.7 
" style="fill:none;stroke:#000000;stroke-linecap:square;stroke-linejoin:miter;stroke-width:0.8;"/>
   </g>
   <g id="text_6">
    <!-- {f1-f5}, 5-D -->
    <defs>
     <path d="M 51.125 -9.28125 
L 51.125 -16.3125 
L 48.09375 -16.3125 
Q 35.9375 -16.3125 31.8125 -12.6875 
Q 27.6875 -9.078125 27.6875 1.703125 
L 27.6875 13.375 
Q 27.6875 20.75 25.046875 23.578125 
Q 22.40625 26.421875 15.484375 26.421875 
L 12.5 26.421875 
L 12.5 33.40625 
L 15.484375 33.40625 
Q 22.46875 33.40625 25.078125 36.203125 
Q 27.6875 39.015625 27.6875 46.296875 
L 27.6875 58.015625 
Q 27.6875 68.796875 31.8125 72.390625 
Q 35.9375 75.984375 48.09375 75.984375 
L 51.125 75.984375 
L 51.125 69 
L 47.796875 69 
Q 40.921875 69 38.8125 66.84375 
Q 36.71875 64.703125 36.71875 57.8125 
L 36.71875 45.703125 
Q 36.71875 38.03125 34.5 34.5625 
Q 32.28125 31.109375 26.90625 29.890625 
Q 32.328125 28.5625 34.515625 25.09375 
Q 36.71875 21.625 36.71875 14.015625 
L 36.71875 1.90625 
Q 36.71875 -4.984375 38.8125 -7.125 
Q 40.921875 -9.28125 47.796875 -9.28125 
z
" id="DejaVuSans-7b"/>
     <path d="M 10.796875 72.90625 
L 49.515625 72.90625 
L 49.515625 64.59375 
L 19.828125 64.59375 
L 19.828125 46.734375 
Q 21.96875 47.46875 24.109375 47.828125 
Q 26.265625 48.1875 28.421875 48.1875 
Q 40.625 48.1875 47.75 41.5 
Q 54.890625 34.8125 54.890625 23.390625 
Q 54.890625 11.625 47.5625 5.09375 
Q 40.234375 -1.421875 26.90625 -1.421875 
Q 22.3125 -1.421875 17.546875 -0.640625 
Q 12.796875 0.140625 7.71875 1.703125 
L 7.71875 11.625 
Q 12.109375 9.234375 16.796875 8.0625 
Q 21.484375 6.890625 26.703125 6.890625 
Q 35.15625 6.890625 40.078125 11.328125 
Q 45.015625 15.765625 45.015625 23.390625 
Q 45.015625 31 40.078125 35.4375 
Q 35.15625 39.890625 26.703125 39.890625 
Q 22.75 39.890625 18.8125 39.015625 
Q 14.890625 38.140625 10.796875 36.28125 
z
" id="DejaVuSans-35"/>
     <path d="M 12.5 -9.28125 
L 15.921875 -9.28125 
Q 22.75 -9.28125 24.828125 -7.171875 
Q 26.90625 -5.078125 26.90625 1.90625 
L 26.90625 14.015625 
Q 26.90625 21.625 29.09375 25.09375 
Q 31.296875 28.5625 36.71875 29.890625 
Q 31.296875 31.109375 29.09375 34.5625 
Q 26.90625 38.03125 26.90625 45.703125 
L 26.90625 57.8125 
Q 26.90625 64.75 24.828125 66.875 
Q 22.75 69 15.921875 69 
L 12.5 69 
L 12.5 75.984375 
L 15.578125 75.984375 
Q 27.734375 75.984375 31.8125 72.390625 
Q 35.890625 68.796875 35.890625 58.015625 
L 35.890625 46.296875 
Q 35.890625 39.015625 38.515625 36.203125 
Q 41.15625 33.40625 48.09375 33.40625 
L 51.125 33.40625 
L 51.125 26.421875 
L 48.09375 26.421875 
Q 41.15625 26.421875 38.515625 23.578125 
Q 35.890625 20.75 35.890625 13.375 
L 35.890625 1.703125 
Q 35.890625 -9.078125 31.8125 -12.6875 
Q 27.734375 -16.3125 15.578125 -16.3125 
L 12.5 -16.3125 
z
" id="DejaVuSans-7d"/>
     <path d="M 11.71875 12.40625 
L 22.015625 12.40625 
L 22.015625 4 
L 14.015625 -11.625 
L 7.71875 -11.625 
L 11.71875 4 
z
" id="DejaVuSans-2c"/>
    </defs>
    <g transform="translate(240.4276 271.48976)scale(0.2 -0.2)">
     <use xlink:href="#DejaVuSans-7b"/>
     <use x="63.623047" xlink:href="#DejaVuSans-66"/>
     <use x="98.828125" xlink:href="#DejaVuSans-31"/>
     <use x="162.451172" xlink:href="#DejaVuSans-2d"/>
     <use x="198.535156" xlink:href="#DejaVuSans-66"/>
     <use x="233.740234" xlink:href="#DejaVuSans-35"/>
     <use x="297.363281" xlink:href="#DejaVuSans-7d"/>
     <use x="360.986328" xlink:href="#DejaVuSans-2c"/>
     <use x="392.773438" xlink:href="#DejaVuSans-20"/>
     <use x="424.560547" xlink:href="#DejaVuSans-35"/>
     <use x="488.183594" xlink:href="#DejaVuSans-2d"/>
     <use x="524.267578" xlink:href="#DejaVuSans-44"/>
    </g>
   </g>
   <g id="text_7">
    <!-- v2.1 -->
    <defs>
     <path d="M 2.984375 54.6875 
L 12.5 54.6875 
L 29.59375 8.796875 
L 46.6875 54.6875 
L 56.203125 54.6875 
L 35.6875 0 
L 23.484375 0 
z
" id="DejaVuSans-76"/>
     <path d="M 19.1875 8.296875 
L 53.609375 8.296875 
L 53.609375 0 
L 7.328125 0 
L 7.328125 8.296875 
Q 12.9375 14.109375 22.625 23.890625 
Q 32.328125 33.6875 34.8125 36.53125 
Q 39.546875 41.84375 41.421875 45.53125 
Q 43.3125 49.21875 43.3125 52.78125 
Q 43.3125 58.59375 39.234375 62.25 
Q 35.15625 65.921875 28.609375 65.921875 
Q 23.96875 65.921875 18.8125 64.3125 
Q 13.671875 62.703125 7.8125 59.421875 
L 7.8125 69.390625 
Q 13.765625 71.78125 18.9375 73 
Q 24.125 74.21875 28.421875 74.21875 
Q 39.75 74.21875 46.484375 68.546875 
Q 53.21875 62.890625 53.21875 53.421875 
Q 53.21875 48.921875 51.53125 44.890625 
Q 49.859375 40.875 45.40625 35.40625 
Q 44.1875 33.984375 37.640625 27.21875 
Q 31.109375 20.453125 19.1875 8.296875 
z
" id="DejaVuSans-32"/>
     <path d="M 10.6875 12.40625 
L 21 12.40625 
L 21 0 
L 10.6875 0 
z
" id="DejaVuSans-2e"/>
    </defs>
    <g style="fill:#808080;" transform="translate(178.349063 272.071193)scale(0.1 -0.1)">
     <use xlink:href="#DejaVuSans-76"/>
     <use x="59.179688" xlink:href="#DejaVuSans-32"/>
     <use x="122.802734" xlink:href="#DejaVuSans-2e"/>
     <use x="154.589844" xlink:href="#DejaVuSans-31"/>
    </g>
   </g>
  </g>
 </g>
 <defs>
  <clipPath id="pc9ea438c5c">
   <rect height="266.112" width="357.12" x="10.7" y="10.7"/>
  </clipPath>
 </defs>
</svg>
