<?xml version="1.0" encoding="utf-8" standalone="no"?>
<!DOCTYPE svg PUBLIC "-//W3C//DTD SVG 1.1//EN"
  "http://www.w3.org/Graphics/SVG/1.1/DTD/svg11.dtd">
<!-- Created with matplotlib (http://matplotlib.org/) -->
<svg height="333pt" version="1.1" viewBox="0 0 378 333" width="378pt" xmlns="http://www.w3.org/2000/svg" xmlns:xlink="http://www.w3.org/1999/xlink">
 <defs>
  <style type="text/css">
*{stroke-linecap:butt;stroke-linejoin:round;}
  </style>
 </defs>
 <g id="figure_1">
  <g id="patch_1">
   <path d="M 0 333.7245 
L 378.52 333.7245 
L 378.52 0 
L 0 0 
z
" style="fill:#ffffff;"/>
  </g>
  <g id="axes_1">
   <g id="patch_2">
    <path d="M 10.7 276.812 
L 367.82 276.812 
L 367.82 10.7 
L 10.7 10.7 
z
" style="fill:#ffffff;"/>
   </g>
   <g id="matplotlib.axis_1">
    <g id="xtick_1">
     <g id="line2d_1">
      <path clip-path="url(#pf2076b87ac)" d="M 10.61312 276.812 
L 10.61312 10.7 
" style="fill:none;stroke:#b0b0b0;stroke-linecap:square;stroke-width:0.8;"/>
     </g>
     <g id="line2d_2">
      <defs>
       <path d="M 0 0 
L 0 3.5 
" id="me0ed4d0e77" style="stroke:#000000;stroke-width:0.8;"/>
      </defs>
      <g>
       <use style="stroke:#000000;stroke-width:0.8;" x="10.61312" xlink:href="#me0ed4d0e77" y="276.812"/>
      </g>
     </g>
    </g>
    <g id="xtick_2">
     <g id="line2d_3">
      <path clip-path="url(#pf2076b87ac)" d="M 91.032378 276.812 
L 91.032378 10.7 
" style="fill:none;stroke:#b0b0b0;stroke-linecap:square;stroke-width:0.8;"/>
     </g>
     <g id="line2d_4">
      <g>
       <use style="stroke:#000000;stroke-width:0.8;" x="91.032378" xlink:href="#me0ed4d0e77" y="276.812"/>
      </g>
     </g>
     <g id="text_1">
      <!-- -4 -->
      <defs>
       <path d="M 4.890625 31.390625 
L 31.203125 31.390625 
L 31.203125 23.390625 
L 4.890625 23.390625 
z
" id="DejaVuSans-2d"/>
       <path d="M 37.796875 64.3125 
L 12.890625 25.390625 
L 37.796875 25.390625 
z
M 35.203125 72.90625 
L 47.609375 72.90625 
L 47.609375 25.390625 
L 58.015625 25.390625 
L 58.015625 17.1875 
L 47.609375 17.1875 
L 47.609375 0 
L 37.796875 0 
L 37.796875 17.1875 
L 4.890625 17.1875 
L 4.890625 26.703125 
z
" id="DejaVuSans-34"/>
      </defs>
      <g transform="translate(81.062066 299.008875)scale(0.2 -0.2)">
       <use xlink:href="#DejaVuSans-2d"/>
       <use x="36.083984" xlink:href="#DejaVuSans-34"/>
      </g>
     </g>
    </g>
    <g id="xtick_3">
     <g id="line2d_5">
      <path clip-path="url(#pf2076b87ac)" d="M 171.451637 276.812 
L 171.451637 10.7 
" style="fill:none;stroke:#b0b0b0;stroke-linecap:square;stroke-width:0.8;"/>
     </g>
     <g id="line2d_6">
      <g>
       <use style="stroke:#000000;stroke-width:0.8;" x="171.451637" xlink:href="#me0ed4d0e77" y="276.812"/>
      </g>
     </g>
     <g id="text_2">
      <!-- 0 -->
      <defs>
       <path d="M 31.78125 66.40625 
Q 24.171875 66.40625 20.328125 58.90625 
Q 16.5 51.421875 16.5 36.375 
Q 16.5 21.390625 20.328125 13.890625 
Q 24.171875 6.390625 31.78125 6.390625 
Q 39.453125 6.390625 43.28125 13.890625 
Q 47.125 21.390625 47.125 36.375 
Q 47.125 51.421875 43.28125 58.90625 
Q 39.453125 66.40625 31.78125 66.40625 
z
M 31.78125 74.21875 
Q 44.046875 74.21875 50.515625 64.515625 
Q 56.984375 54.828125 56.984375 36.375 
Q 56.984375 17.96875 50.515625 8.265625 
Q 44.046875 -1.421875 31.78125 -1.421875 
Q 19.53125 -1.421875 13.0625 8.265625 
Q 6.59375 17.96875 6.59375 36.375 
Q 6.59375 54.828125 13.0625 64.515625 
Q 19.53125 74.21875 31.78125 74.21875 
z
" id="DejaVuSans-30"/>
      </defs>
      <g transform="translate(165.089137 299.008875)scale(0.2 -0.2)">
       <use xlink:href="#DejaVuSans-30"/>
      </g>
     </g>
    </g>
    <g id="xtick_4">
     <g id="line2d_7">
      <path clip-path="url(#pf2076b87ac)" d="M 251.870895 276.812 
L 251.870895 10.7 
" style="fill:none;stroke:#b0b0b0;stroke-linecap:square;stroke-width:0.8;"/>
     </g>
     <g id="line2d_8">
      <g>
       <use style="stroke:#000000;stroke-width:0.8;" x="251.870895" xlink:href="#me0ed4d0e77" y="276.812"/>
      </g>
     </g>
     <g id="text_3">
      <!-- 4 -->
      <g transform="translate(245.508395 299.008875)scale(0.2 -0.2)">
       <use xlink:href="#DejaVuSans-34"/>
      </g>
     </g>
    </g>
    <g id="xtick_5">
     <g id="line2d_9">
      <path clip-path="url(#pf2076b87ac)" d="M 332.290153 276.812 
L 332.290153 10.7 
" style="fill:none;stroke:#b0b0b0;stroke-linecap:square;stroke-width:0.8;"/>
     </g>
     <g id="line2d_10">
      <g>
       <use style="stroke:#000000;stroke-width:0.8;" x="332.290153" xlink:href="#me0ed4d0e77" y="276.812"/>
      </g>
     </g>
     <g id="text_4">
      <!-- 8 -->
      <defs>
       <path d="M 31.78125 34.625 
Q 24.75 34.625 20.71875 30.859375 
Q 16.703125 27.09375 16.703125 20.515625 
Q 16.703125 13.921875 20.71875 10.15625 
Q 24.75 6.390625 31.78125 6.390625 
Q 38.8125 6.390625 42.859375 10.171875 
Q 46.921875 13.96875 46.921875 20.515625 
Q 46.921875 27.09375 42.890625 30.859375 
Q 38.875 34.625 31.78125 34.625 
z
M 21.921875 38.8125 
Q 15.578125 40.375 12.03125 44.71875 
Q 8.5 49.078125 8.5 55.328125 
Q 8.5 64.0625 14.71875 69.140625 
Q 20.953125 74.21875 31.78125 74.21875 
Q 42.671875 74.21875 48.875 69.140625 
Q 55.078125 64.0625 55.078125 55.328125 
Q 55.078125 49.078125 51.53125 44.71875 
Q 48 40.375 41.703125 38.8125 
Q 48.828125 37.15625 52.796875 32.3125 
Q 56.78125 27.484375 56.78125 20.515625 
Q 56.78125 9.90625 50.3125 4.234375 
Q 43.84375 -1.421875 31.78125 -1.421875 
Q 19.734375 -1.421875 13.25 4.234375 
Q 6.78125 9.90625 6.78125 20.515625 
Q 6.78125 27.484375 10.78125 32.3125 
Q 14.796875 37.15625 21.921875 38.8125 
z
M 18.3125 54.390625 
Q 18.3125 48.734375 21.84375 45.5625 
Q 25.390625 42.390625 31.78125 42.390625 
Q 38.140625 42.390625 41.71875 45.5625 
Q 45.3125 48.734375 45.3125 54.390625 
Q 45.3125 60.0625 41.71875 63.234375 
Q 38.140625 66.40625 31.78125 66.40625 
Q 25.390625 66.40625 21.84375 63.234375 
Q 18.3125 60.0625 18.3125 54.390625 
z
" id="DejaVuSans-38"/>
      </defs>
      <g transform="translate(325.927653 299.008875)scale(0.2 -0.2)">
       <use xlink:href="#DejaVuSans-38"/>
      </g>
     </g>
    </g>
    <g id="text_5">
     <!-- log10 of Df -->
     <defs>
      <path d="M 9.421875 75.984375 
L 18.40625 75.984375 
L 18.40625 0 
L 9.421875 0 
z
" id="DejaVuSans-6c"/>
      <path d="M 30.609375 48.390625 
Q 23.390625 48.390625 19.1875 42.75 
Q 14.984375 37.109375 14.984375 27.296875 
Q 14.984375 17.484375 19.15625 11.84375 
Q 23.34375 6.203125 30.609375 6.203125 
Q 37.796875 6.203125 41.984375 11.859375 
Q 46.1875 17.53125 46.1875 27.296875 
Q 46.1875 37.015625 41.984375 42.703125 
Q 37.796875 48.390625 30.609375 48.390625 
z
M 30.609375 56 
Q 42.328125 56 49.015625 48.375 
Q 55.71875 40.765625 55.71875 27.296875 
Q 55.71875 13.875 49.015625 6.21875 
Q 42.328125 -1.421875 30.609375 -1.421875 
Q 18.84375 -1.421875 12.171875 6.21875 
Q 5.515625 13.875 5.515625 27.296875 
Q 5.515625 40.765625 12.171875 48.375 
Q 18.84375 56 30.609375 56 
z
" id="DejaVuSans-6f"/>
      <path d="M 45.40625 27.984375 
Q 45.40625 37.75 41.375 43.109375 
Q 37.359375 48.484375 30.078125 48.484375 
Q 22.859375 48.484375 18.828125 43.109375 
Q 14.796875 37.75 14.796875 27.984375 
Q 14.796875 18.265625 18.828125 12.890625 
Q 22.859375 7.515625 30.078125 7.515625 
Q 37.359375 7.515625 41.375 12.890625 
Q 45.40625 18.265625 45.40625 27.984375 
z
M 54.390625 6.78125 
Q 54.390625 -7.171875 48.1875 -13.984375 
Q 42 -20.796875 29.203125 -20.796875 
Q 24.46875 -20.796875 20.265625 -20.09375 
Q 16.0625 -19.390625 12.109375 -17.921875 
L 12.109375 -9.1875 
Q 16.0625 -11.328125 19.921875 -12.34375 
Q 23.78125 -13.375 27.78125 -13.375 
Q 36.625 -13.375 41.015625 -8.765625 
Q 45.40625 -4.15625 45.40625 5.171875 
L 45.40625 9.625 
Q 42.625 4.78125 38.28125 2.390625 
Q 33.9375 0 27.875 0 
Q 17.828125 0 11.671875 7.65625 
Q 5.515625 15.328125 5.515625 27.984375 
Q 5.515625 40.671875 11.671875 48.328125 
Q 17.828125 56 27.875 56 
Q 33.9375 56 38.28125 53.609375 
Q 42.625 51.21875 45.40625 46.390625 
L 45.40625 54.6875 
L 54.390625 54.6875 
z
" id="DejaVuSans-67"/>
      <path d="M 12.40625 8.296875 
L 28.515625 8.296875 
L 28.515625 63.921875 
L 10.984375 60.40625 
L 10.984375 69.390625 
L 28.421875 72.90625 
L 38.28125 72.90625 
L 38.28125 8.296875 
L 54.390625 8.296875 
L 54.390625 0 
L 12.40625 0 
z
" id="DejaVuSans-31"/>
      <path id="DejaVuSans-20"/>
      <path d="M 37.109375 75.984375 
L 37.109375 68.5 
L 28.515625 68.5 
Q 23.6875 68.5 21.796875 66.546875 
Q 19.921875 64.59375 19.921875 59.515625 
L 19.921875 54.6875 
L 34.71875 54.6875 
L 34.71875 47.703125 
L 19.921875 47.703125 
L 19.921875 0 
L 10.890625 0 
L 10.890625 47.703125 
L 2.296875 47.703125 
L 2.296875 54.6875 
L 10.890625 54.6875 
L 10.890625 58.5 
Q 10.890625 67.625 15.140625 71.796875 
Q 19.390625 75.984375 28.609375 75.984375 
z
" id="DejaVuSans-66"/>
      <path d="M 19.671875 64.796875 
L 19.671875 8.109375 
L 31.59375 8.109375 
Q 46.6875 8.109375 53.6875 14.9375 
Q 60.6875 21.78125 60.6875 36.53125 
Q 60.6875 51.171875 53.6875 57.984375 
Q 46.6875 64.796875 31.59375 64.796875 
z
M 9.8125 72.90625 
L 30.078125 72.90625 
Q 51.265625 72.90625 61.171875 64.09375 
Q 71.09375 55.28125 71.09375 36.53125 
Q 71.09375 17.671875 61.125 8.828125 
Q 51.171875 0 30.078125 0 
L 9.8125 0 
z
" id="DejaVuSans-44"/>
     </defs>
     <g transform="translate(134.074063 322.365125)scale(0.2 -0.2)">
      <use xlink:href="#DejaVuSans-6c"/>
      <use x="27.783203" xlink:href="#DejaVuSans-6f"/>
      <use x="88.964844" xlink:href="#DejaVuSans-67"/>
      <use x="152.441406" xlink:href="#DejaVuSans-31"/>
      <use x="216.064453" xlink:href="#DejaVuSans-30"/>
      <use x="279.6875" xlink:href="#DejaVuSans-20"/>
      <use x="311.474609" xlink:href="#DejaVuSans-6f"/>
      <use x="372.65625" xlink:href="#DejaVuSans-66"/>
      <use x="407.861328" xlink:href="#DejaVuSans-20"/>
      <use x="439.648438" xlink:href="#DejaVuSans-44"/>
      <use x="516.650391" xlink:href="#DejaVuSans-66"/>
     </g>
    </g>
   </g>
   <g id="matplotlib.axis_2">
    <g id="ytick_1">
     <g id="line2d_11">
      <path clip-path="url(#pf2076b87ac)" d="M 10.7 276.812 
L 367.82 276.812 
" style="fill:none;stroke:#b0b0b0;stroke-linecap:square;stroke-width:0.8;"/>
     </g>
     <g id="line2d_12">
      <defs>
       <path d="M 0 0 
L -3.5 0 
" id="m389d51b17a" style="stroke:#000000;stroke-width:0.8;"/>
      </defs>
      <g>
       <use style="stroke:#000000;stroke-width:0.8;" x="10.7" xlink:href="#m389d51b17a" y="276.812"/>
      </g>
     </g>
    </g>
    <g id="ytick_2">
     <g id="line2d_13">
      <path clip-path="url(#pf2076b87ac)" d="M 10.7 224.116554 
L 367.82 224.116554 
" style="fill:none;stroke:#b0b0b0;stroke-linecap:square;stroke-width:0.8;"/>
     </g>
     <g id="line2d_14">
      <g>
       <use style="stroke:#000000;stroke-width:0.8;" x="10.7" xlink:href="#m389d51b17a" y="224.116554"/>
      </g>
     </g>
    </g>
    <g id="ytick_3">
     <g id="line2d_15">
      <path clip-path="url(#pf2076b87ac)" d="M 10.7 171.421109 
L 367.82 171.421109 
" style="fill:none;stroke:#b0b0b0;stroke-linecap:square;stroke-width:0.8;"/>
     </g>
     <g id="line2d_16">
      <g>
       <use style="stroke:#000000;stroke-width:0.8;" x="10.7" xlink:href="#m389d51b17a" y="171.421109"/>
      </g>
     </g>
    </g>
    <g id="ytick_4">
     <g id="line2d_17">
      <path clip-path="url(#pf2076b87ac)" d="M 10.7 118.725663 
L 367.82 118.725663 
" style="fill:none;stroke:#b0b0b0;stroke-linecap:square;stroke-width:0.8;"/>
     </g>
     <g id="line2d_18">
      <g>
       <use style="stroke:#000000;stroke-width:0.8;" x="10.7" xlink:href="#m389d51b17a" y="118.725663"/>
      </g>
     </g>
    </g>
    <g id="ytick_5">
     <g id="line2d_19">
      <path clip-path="url(#pf2076b87ac)" d="M 10.7 66.030218 
L 367.82 66.030218 
" style="fill:none;stroke:#b0b0b0;stroke-linecap:square;stroke-width:0.8;"/>
     </g>
     <g id="line2d_20">
      <g>
       <use style="stroke:#000000;stroke-width:0.8;" x="10.7" xlink:href="#m389d51b17a" y="66.030218"/>
      </g>
     </g>
    </g>
    <g id="ytick_6">
     <g id="line2d_21">
      <path clip-path="url(#pf2076b87ac)" d="M 10.7 13.334772 
L 367.82 13.334772 
" style="fill:none;stroke:#b0b0b0;stroke-linecap:square;stroke-width:0.8;"/>
     </g>
     <g id="line2d_22">
      <g>
       <use style="stroke:#000000;stroke-width:0.8;" x="10.7" xlink:href="#m389d51b17a" y="13.334772"/>
      </g>
     </g>
    </g>
   </g>
   <g id="line2d_23">
    <path clip-path="url(#pf2076b87ac)" d="M 118.197962 276.812 
L 118.197962 273.29897 
L 123.808996 273.29897 
L 123.808996 269.785941 
L 124.97433 269.785941 
L 124.97433 266.272911 
L 131.315838 266.272911 
L 131.315838 262.759881 
L 135.650905 262.759881 
L 135.650905 259.246851 
L 140.52069 259.246851 
L 140.52069 255.733822 
L 141.758794 255.733822 
L 141.758794 252.220792 
L 141.938207 252.220792 
L 141.938207 248.707762 
L 144.208767 248.707762 
L 144.208767 245.194733 
L 145.446179 245.194733 
L 145.446179 241.681703 
L 146.955012 241.681703 
L 146.955012 238.168673 
L 150.053542 238.168673 
L 150.053542 234.655644 
L 151.094361 234.655644 
L 151.094361 231.142614 
L 151.296528 231.142614 
L 151.296528 227.629584 
L 152.667843 227.629584 
L 152.667843 224.116554 
L 154.742432 224.116554 
L 154.841895 217.090495 
L 155.216882 217.090495 
L 155.216882 213.577465 
L 156.121666 213.577465 
L 156.121666 210.064436 
L 158.251941 210.064436 
L 158.322613 203.038376 
L 158.79691 203.038376 
L 158.79691 199.525347 
L 159.095529 199.525347 
L 159.095529 196.012317 
L 159.271808 196.012317 
L 159.360375 171.421109 
L 161.984918 171.421109 
L 161.984918 167.908079 
L 162.573535 167.908079 
L 162.573535 164.39505 
L 164.732207 164.39505 
L 164.732207 160.88202 
L 167.234649 160.88202 
L 167.234649 157.36899 
L 169.005701 157.36899 
L 169.005701 153.85596 
L 171.407511 153.85596 
L 171.407511 150.342931 
L 171.565376 150.342931 
L 171.565376 146.829901 
L 174.919125 146.829901 
L 174.919125 143.316871 
L 175.737564 143.316871 
L 175.737564 139.803842 
L 179.735659 139.803842 
L 179.735659 136.290812 
L 180.281408 136.290812 
L 180.281408 132.777782 
L 180.937382 132.777782 
L 180.999945 125.751723 
L 182.133373 125.751723 
L 182.179886 118.725663 
L 182.571261 118.725663 
L 182.571261 115.212634 
L 184.545247 115.212634 
L 184.545247 111.699604 
L 184.975257 111.699604 
L 184.975257 108.186574 
L 185.880175 108.186574 
L 185.880175 104.673545 
L 187.05209 104.673545 
L 187.05209 101.160515 
L 187.182248 101.160515 
L 187.182248 97.647485 
L 188.398044 97.647485 
L 188.398044 90.621426 
L 189.220436 90.621426 
L 189.220436 87.108396 
L 189.563962 87.108396 
L 189.563962 80.082337 
L 190.320402 80.082337 
L 190.320402 76.569307 
L 190.59237 76.569307 
L 190.59237 73.056277 
L 191.520901 73.056277 
L 191.520901 69.543248 
L 193.988242 69.543248 
L 193.988242 66.030218 
L 194.131384 66.030218 
L 194.131384 62.517188 
L 194.450193 62.517188 
L 194.450193 59.004158 
L 194.939755 59.004158 
L 194.939755 55.491129 
L 195.316963 55.491129 
L 195.420081 48.465069 
L 195.6161 48.465069 
L 195.6161 44.95204 
L 196.145448 44.95204 
L 196.145448 41.43901 
L 196.680349 41.43901 
L 196.680349 37.92598 
L 197.116596 37.92598 
L 197.116596 34.41295 
L 197.564451 34.41295 
L 197.564451 30.899921 
L 200.392487 30.899921 
L 200.392487 27.386891 
L 202.524445 27.386891 
L 202.524445 23.873861 
L 203.353413 23.873861 
L 203.353413 20.360832 
L 209.105173 20.360832 
L 209.105173 16.847802 
L 209.447622 16.847802 
L 209.447622 13.334772 
L 209.447622 13.334772 
L 367.82 13.334772 
L 367.82 13.334772 
" style="fill:none;stroke:#ff0000;stroke-linecap:square;stroke-width:3;"/>
   </g>
   <g id="line2d_24">
    <path clip-path="url(#pf2076b87ac)" d="M 159.360375 276.812 
L 159.360375 273.29897 
L 159.360375 273.29897 
L 159.360375 273.29897 
L 159.360375 269.785941 
L 159.360375 269.785941 
L 159.360375 269.785941 
L 159.360375 266.272911 
L 159.360375 266.272911 
L 159.360375 266.272911 
L 159.360375 262.759881 
L 159.360375 262.759881 
L 159.360375 262.759881 
L 159.360375 259.246851 
L 159.360375 259.246851 
L 159.360375 259.246851 
L 159.360375 255.733822 
L 159.360375 255.733822 
L 159.360375 255.733822 
L 159.360375 252.220792 
L 159.360375 252.220792 
L 159.360375 252.220792 
L 159.360375 248.707762 
L 159.360375 248.707762 
L 159.360375 248.707762 
L 159.360375 245.194733 
L 159.360375 245.194733 
L 159.360375 245.194733 
L 159.360375 241.681703 
L 159.360375 241.681703 
L 159.360375 241.681703 
L 159.360375 238.168673 
L 159.360375 238.168673 
L 159.360375 238.168673 
L 159.360375 234.655644 
L 159.360375 234.655644 
L 159.360375 234.655644 
L 159.360375 231.142614 
L 159.360375 231.142614 
L 159.360375 231.142614 
L 159.360375 227.629584 
L 159.360375 227.629584 
L 159.360375 227.629584 
L 159.360375 224.116554 
L 185.522122 224.116554 
L 185.522122 220.603525 
L 188.810791 220.603525 
L 188.810791 217.090495 
L 189.10732 217.090495 
L 189.10732 213.577465 
L 190.077836 213.577465 
L 190.077836 210.064436 
L 192.442965 210.064436 
L 192.442965 206.551406 
L 194.173169 206.551406 
L 194.173169 203.038376 
L 194.662443 203.038376 
L 194.662443 199.525347 
L 194.994852 199.525347 
L 194.994852 196.012317 
L 195.594414 196.012317 
L 195.594414 192.499287 
L 196.132402 192.499287 
L 196.132402 188.986257 
L 196.69143 188.986257 
L 196.69143 185.473228 
L 197.173504 185.473228 
L 197.173504 181.960198 
L 199.860789 181.960198 
L 199.860789 178.447168 
L 200.266236 178.447168 
L 200.266236 174.934139 
L 200.580098 174.934139 
L 200.651088 167.908079 
L 201.454811 167.908079 
L 201.482487 157.36899 
L 201.58113 157.36899 
L 201.58113 153.85596 
L 202.216423 153.85596 
L 202.216423 150.342931 
L 204.333877 150.342931 
L 204.333877 146.829901 
L 204.753464 146.829901 
L 204.753464 143.316871 
L 205.041382 143.316871 
L 205.118962 136.290812 
L 205.251843 136.290812 
L 205.251843 132.777782 
L 205.664307 132.777782 
L 205.664307 129.264752 
L 206.010145 129.264752 
L 206.010145 125.751723 
L 207.053498 125.751723 
L 207.053498 122.238693 
L 207.672177 122.238693 
L 207.771323 115.212634 
L 208.08064 115.212634 
L 208.08064 111.699604 
L 208.995863 111.699604 
L 208.995863 108.186574 
L 209.378048 108.186574 
L 209.378048 104.673545 
L 209.682243 104.673545 
L 209.682243 101.160515 
L 210.036974 101.160515 
L 210.036974 97.647485 
L 210.150395 97.647485 
L 210.150395 94.134455 
L 210.312653 94.134455 
L 210.312653 90.621426 
L 210.43253 90.621426 
L 210.43253 87.108396 
L 210.642767 87.108396 
L 210.642767 83.595366 
L 210.906898 83.595366 
L 210.906898 80.082337 
L 211.185901 80.082337 
L 211.185901 76.569307 
L 211.386671 76.569307 
L 211.386671 73.056277 
L 211.659033 73.056277 
L 211.659033 69.543248 
L 213.294384 69.543248 
L 213.294384 66.030218 
L 213.462811 66.030218 
L 213.462811 62.517188 
L 214.179546 62.517188 
L 214.179546 59.004158 
L 214.476689 59.004158 
L 214.564436 51.978099 
L 214.731726 51.978099 
L 214.731726 48.465069 
L 214.918475 48.465069 
L 214.918475 44.95204 
L 215.266282 44.95204 
L 215.266282 41.43901 
L 215.88764 41.43901 
L 215.88764 37.92598 
L 216.276654 37.92598 
L 216.276654 34.41295 
L 217.388236 34.41295 
L 217.388236 30.899921 
L 218.358017 30.899921 
L 218.420286 23.873861 
L 219.119626 23.873861 
L 219.144243 16.847802 
L 223.393884 16.847802 
L 223.393884 13.334772 
L 223.393884 13.334772 
L 367.82 13.334772 
L 367.82 13.334772 
" style="fill:none;stroke:#00bfbf;stroke-linecap:square;stroke-width:1.5;"/>
   </g>
   <g id="line2d_25">
    <path clip-path="url(#pf2076b87ac)" d="M 159.360375 276.812 
L 159.360375 273.29897 
L 159.360375 273.29897 
L 159.360375 273.29897 
L 159.360375 269.785941 
L 159.360375 269.785941 
L 159.360375 269.785941 
L 159.360375 266.272911 
L 159.360375 266.272911 
L 159.360375 266.272911 
L 159.360375 262.759881 
L 159.360375 262.759881 
L 159.360375 262.759881 
L 159.360375 259.246851 
L 159.360375 259.246851 
L 159.360375 259.246851 
L 159.360375 255.733822 
L 159.360375 255.733822 
L 159.360375 255.733822 
L 159.360375 252.220792 
L 159.360375 252.220792 
L 159.360375 252.220792 
L 159.360375 248.707762 
L 159.360375 248.707762 
L 159.360375 248.707762 
L 159.360375 245.194733 
L 159.360375 245.194733 
L 159.360375 245.194733 
L 159.360375 241.681703 
L 159.360375 241.681703 
L 159.360375 241.681703 
L 159.360375 238.168673 
L 159.360375 238.168673 
L 159.360375 238.168673 
L 159.360375 234.655644 
L 159.360375 234.655644 
L 159.360375 234.655644 
L 159.360375 231.142614 
L 159.360375 231.142614 
L 159.360375 231.142614 
L 159.360375 227.629584 
L 159.360375 227.629584 
L 159.360375 227.629584 
L 159.360375 224.116554 
L 183.417265 224.116554 
L 183.417265 220.603525 
L 186.487344 220.603525 
L 186.487344 217.090495 
L 186.773959 217.090495 
L 186.773959 213.577465 
L 189.558732 213.577465 
L 189.558732 210.064436 
L 190.077836 210.064436 
L 190.077836 206.551406 
L 190.294383 206.551406 
L 190.294383 203.038376 
L 191.102453 203.038376 
L 191.102453 199.525347 
L 192.442965 199.525347 
L 192.442965 196.012317 
L 194.173169 196.012317 
L 194.173169 192.499287 
L 194.685416 192.499287 
L 194.685416 188.986257 
L 195.205953 188.986257 
L 195.205953 185.473228 
L 195.464216 185.473228 
L 195.464216 181.960198 
L 196.313644 181.960198 
L 196.313644 178.447168 
L 196.629932 178.447168 
L 196.629932 174.934139 
L 196.886714 174.934139 
L 196.886714 171.421109 
L 199.196822 171.421109 
L 199.196822 167.908079 
L 199.347989 167.908079 
L 199.347989 164.39505 
L 200.266236 164.39505 
L 200.266236 160.88202 
L 200.580098 160.88202 
L 200.580098 157.36899 
L 200.925269 157.36899 
L 200.925269 153.85596 
L 201.454811 153.85596 
L 201.461824 146.829901 
L 202.18434 146.829901 
L 202.216423 139.803842 
L 203.088266 139.803842 
L 203.088266 136.290812 
L 203.785347 136.290812 
L 203.785347 132.777782 
L 204.919774 132.777782 
L 204.919774 129.264752 
L 205.041382 129.264752 
L 205.118962 122.238693 
L 205.177501 122.238693 
L 205.177501 118.725663 
L 205.686628 118.725663 
L 205.686628 115.212634 
L 206.051863 115.212634 
L 206.051863 111.699604 
L 206.615627 111.699604 
L 206.615627 108.186574 
L 206.770619 108.186574 
L 206.770619 104.673545 
L 207.053498 104.673545 
L 207.072854 97.647485 
L 207.609515 97.647485 
L 207.672177 90.621426 
L 208.0479 90.621426 
L 208.0479 87.108396 
L 208.524005 87.108396 
L 208.524005 83.595366 
L 208.699156 83.595366 
L 208.794425 76.569307 
L 209.249973 76.569307 
L 209.249973 73.056277 
L 209.880054 73.056277 
L 209.880054 69.543248 
L 211.126685 69.543248 
L 211.126685 66.030218 
L 211.386671 66.030218 
L 211.450687 59.004158 
L 211.630809 59.004158 
L 211.630809 55.491129 
L 212.922779 55.491129 
L 212.922779 51.978099 
L 213.462811 51.978099 
L 213.462811 48.465069 
L 214.382459 48.465069 
L 214.382459 44.95204 
L 214.502768 44.95204 
L 214.502768 41.43901 
L 214.731726 41.43901 
L 214.731726 37.92598 
L 215.87523 37.92598 
L 215.87523 34.41295 
L 216.276654 34.41295 
L 216.276654 30.899921 
L 217.641993 30.899921 
L 217.641993 27.386891 
L 217.924299 27.386891 
L 217.924299 23.873861 
L 218.358017 23.873861 
L 218.358017 20.360832 
L 218.558996 20.360832 
L 218.558996 16.847802 
L 222.37004 16.847802 
L 222.37004 13.334772 
L 222.37004 13.334772 
L 367.82 13.334772 
L 367.82 13.334772 
" style="fill:none;stroke:#bf00bf;stroke-linecap:square;stroke-width:1.5;"/>
   </g>
   <g id="line2d_26">
    <path clip-path="url(#pf2076b87ac)" d="M 159.360375 276.812 
L 159.360375 273.29897 
L 159.360375 273.29897 
L 159.360375 273.29897 
L 159.360375 269.785941 
L 159.360375 269.785941 
L 159.360375 269.785941 
L 159.360375 266.272911 
L 159.360375 266.272911 
L 159.360375 266.272911 
L 159.360375 262.759881 
L 159.360375 262.759881 
L 159.360375 262.759881 
L 159.360375 259.246851 
L 159.360375 259.246851 
L 159.360375 259.246851 
L 159.360375 255.733822 
L 159.360375 255.733822 
L 159.360375 255.733822 
L 159.360375 252.220792 
L 159.360375 252.220792 
L 159.360375 252.220792 
L 159.360375 248.707762 
L 159.360375 248.707762 
L 159.360375 248.707762 
L 159.360375 245.194733 
L 159.360375 245.194733 
L 159.360375 245.194733 
L 159.360375 241.681703 
L 159.360375 241.681703 
L 159.360375 241.681703 
L 159.360375 238.168673 
L 159.360375 238.168673 
L 159.360375 238.168673 
L 159.360375 234.655644 
L 159.360375 234.655644 
L 159.360375 234.655644 
L 159.360375 231.142614 
L 159.360375 231.142614 
L 159.360375 231.142614 
L 159.360375 227.629584 
L 159.360375 227.629584 
L 159.360375 227.629584 
L 159.360375 224.116554 
L 181.869319 224.116554 
L 181.869319 220.603525 
L 183.417265 220.603525 
L 183.417265 217.090495 
L 186.487344 217.090495 
L 186.487344 213.577465 
L 188.229028 213.577465 
L 188.229028 210.064436 
L 189.394254 210.064436 
L 189.394254 206.551406 
L 189.558732 206.551406 
L 189.558732 203.038376 
L 190.459785 203.038376 
L 190.459785 199.525347 
L 190.680915 199.525347 
L 190.680915 196.012317 
L 190.830918 196.012317 
L 190.830918 192.499287 
L 191.102453 192.499287 
L 191.102453 188.986257 
L 192.356882 188.986257 
L 192.356882 185.473228 
L 193.558744 185.473228 
L 193.558744 181.960198 
L 193.846491 181.960198 
L 193.846491 178.447168 
L 195.04635 178.447168 
L 195.04635 174.934139 
L 195.205953 174.934139 
L 195.205953 171.421109 
L 195.915404 171.421109 
L 195.915404 167.908079 
L 196.313644 167.908079 
L 196.313644 164.39505 
L 196.860907 164.39505 
L 196.886714 157.36899 
L 197.205906 157.36899 
L 197.205906 153.85596 
L 197.514259 153.85596 
L 197.514259 150.342931 
L 198.165552 150.342931 
L 198.165552 146.829901 
L 199.166582 146.829901 
L 199.166582 143.316871 
L 199.279393 143.316871 
L 199.279393 139.803842 
L 199.48332 139.803842 
L 199.548609 132.777782 
L 200.185142 132.777782 
L 200.185142 129.264752 
L 200.73063 129.264752 
L 200.808648 118.725663 
L 201.045912 118.725663 
L 201.045912 115.212634 
L 202.054317 115.212634 
L 202.120936 108.186574 
L 203.282995 108.186574 
L 203.282995 104.673545 
L 204.444562 104.673545 
L 204.444562 101.160515 
L 204.600104 101.160515 
L 204.600104 97.647485 
L 204.837987 97.647485 
L 204.837987 94.134455 
L 204.980242 94.134455 
L 204.980242 90.621426 
L 205.686628 90.621426 
L 205.686628 87.108396 
L 206.022151 87.108396 
L 206.022151 83.595366 
L 206.227778 83.595366 
L 206.227778 80.082337 
L 207.672177 80.082337 
L 207.672177 76.569307 
L 208.302065 76.569307 
L 208.302065 73.056277 
L 208.524005 73.056277 
L 208.524005 69.543248 
L 209.249973 69.543248 
L 209.249973 66.030218 
L 209.853612 66.030218 
L 209.853612 62.517188 
L 210.031057 62.517188 
L 210.031057 59.004158 
L 211.068719 59.004158 
L 211.068719 55.491129 
L 211.386671 55.491129 
L 211.450687 48.465069 
L 211.726338 48.465069 
L 211.726338 44.95204 
L 214.22311 44.95204 
L 214.22311 41.43901 
L 214.731726 41.43901 
L 214.731726 37.92598 
L 215.460662 37.92598 
L 215.460662 34.41295 
L 215.811005 34.41295 
L 215.811005 30.899921 
L 216.623612 30.899921 
L 216.623612 27.386891 
L 217.331148 27.386891 
L 217.331148 23.873861 
L 217.718206 23.873861 
L 217.718206 20.360832 
L 217.924299 20.360832 
L 217.924299 16.847802 
L 220.479185 16.847802 
L 220.479185 13.334772 
L 220.479185 13.334772 
L 367.82 13.334772 
L 367.82 13.334772 
" style="fill:none;stroke:#000000;stroke-linecap:square;stroke-width:1.5;"/>
   </g>
   <g id="line2d_27">
    <path clip-path="url(#pf2076b87ac)" d="M 159.360375 276.812 
L 159.360375 273.29897 
L 159.360375 273.29897 
L 159.360375 273.29897 
L 159.360375 269.785941 
L 159.360375 269.785941 
L 159.360375 269.785941 
L 159.360375 266.272911 
L 159.360375 266.272911 
L 159.360375 266.272911 
L 159.360375 262.759881 
L 159.360375 262.759881 
L 159.360375 262.759881 
L 159.360375 259.246851 
L 159.360375 259.246851 
L 159.360375 259.246851 
L 159.360375 255.733822 
L 159.360375 255.733822 
L 159.360375 255.733822 
L 159.360375 252.220792 
L 159.360375 252.220792 
L 159.360375 252.220792 
L 159.360375 248.707762 
L 159.360375 248.707762 
L 159.360375 248.707762 
L 159.360375 245.194733 
L 159.360375 245.194733 
L 159.360375 245.194733 
L 159.360375 241.681703 
L 159.360375 241.681703 
L 159.360375 241.681703 
L 159.360375 238.168673 
L 159.360375 238.168673 
L 159.360375 238.168673 
L 159.360375 234.655644 
L 159.360375 234.655644 
L 159.360375 234.655644 
L 159.360375 231.142614 
L 159.360375 231.142614 
L 159.360375 231.142614 
L 159.360375 227.629584 
L 159.360375 227.629584 
L 159.360375 227.629584 
L 159.360375 224.116554 
L 177.638621 224.116554 
L 177.638621 220.603525 
L 179.641941 220.603525 
L 179.641941 217.090495 
L 179.792558 217.090495 
L 179.792558 213.577465 
L 181.568742 213.577465 
L 181.568742 210.064436 
L 182.235689 210.064436 
L 182.235689 206.551406 
L 183.229086 206.551406 
L 183.229086 203.038376 
L 186.432772 203.038376 
L 186.432772 199.525347 
L 188.032144 199.525347 
L 188.032144 196.012317 
L 188.229028 196.012317 
L 188.229028 192.499287 
L 188.353661 192.499287 
L 188.353661 188.986257 
L 188.780518 188.986257 
L 188.882285 181.960198 
L 189.157254 181.960198 
L 189.157254 178.447168 
L 190.275502 178.447168 
L 190.275502 174.934139 
L 190.680915 174.934139 
L 190.680915 171.421109 
L 191.638623 171.421109 
L 191.638623 167.908079 
L 192.617205 167.908079 
L 192.666414 160.88202 
L 193.90468 160.88202 
L 193.90468 157.36899 
L 194.554277 157.36899 
L 194.554277 153.85596 
L 195.436493 153.85596 
L 195.436493 150.342931 
L 195.673653 150.342931 
L 195.673653 146.829901 
L 196.163848 146.829901 
L 196.163848 143.316871 
L 196.724225 143.316871 
L 196.724225 139.803842 
L 197.224532 139.803842 
L 197.224532 136.290812 
L 197.445098 136.290812 
L 197.445098 132.777782 
L 197.663886 132.777782 
L 197.663886 129.264752 
L 198.267913 129.264752 
L 198.287595 122.238693 
L 199.48332 122.238693 
L 199.48332 118.725663 
L 200.185142 118.725663 
L 200.185142 115.212634 
L 200.311254 115.212634 
L 200.359027 108.186574 
L 200.774776 108.186574 
L 200.774776 104.673545 
L 201.508821 104.673545 
L 201.508821 101.160515 
L 201.829758 101.160515 
L 201.829758 97.647485 
L 203.324328 97.647485 
L 203.324328 94.134455 
L 203.636012 94.134455 
L 203.636012 90.621426 
L 204.22663 90.621426 
L 204.275452 83.595366 
L 204.600104 83.595366 
L 204.600104 80.082337 
L 205.305854 80.082337 
L 205.305854 76.569307 
L 205.686628 76.569307 
L 205.738324 69.543248 
L 206.814426 69.543248 
L 206.848537 62.517188 
L 207.672177 62.517188 
L 207.708417 55.491129 
L 208.390099 55.491129 
L 208.390099 51.978099 
L 208.732833 51.978099 
L 208.732833 48.465069 
L 209.550991 48.465069 
L 209.550991 44.95204 
L 210.165545 44.95204 
L 210.165545 41.43901 
L 210.503661 41.43901 
L 210.503661 37.92598 
L 211.386671 37.92598 
L 211.386671 34.41295 
L 212.68952 34.41295 
L 212.68952 30.899921 
L 213.167094 30.899921 
L 213.167094 27.386891 
L 215.659993 27.386891 
L 215.731285 20.360832 
L 216.607375 20.360832 
L 216.607375 16.847802 
L 216.889264 16.847802 
L 216.889264 13.334772 
L 216.889264 13.334772 
L 367.82 13.334772 
L 367.82 13.334772 
" style="fill:none;stroke:#00bfbf;stroke-linecap:square;stroke-width:1.5;"/>
   </g>
   <g id="line2d_28">
    <path clip-path="url(#pf2076b87ac)" d="M 143.266331 276.812 
L 143.266331 273.29897 
L 145.172777 273.29897 
L 145.172777 269.785941 
L 146.103731 269.785941 
L 146.103731 266.272911 
L 149.091565 266.272911 
L 149.091565 262.759881 
L 152.292652 262.759881 
L 152.292652 259.246851 
L 152.644276 259.246851 
L 152.644276 255.733822 
L 157.12147 255.733822 
L 157.12147 252.220792 
L 158.100435 252.220792 
L 158.106634 245.194733 
L 158.900607 245.194733 
L 158.900607 241.681703 
L 159.208665 241.681703 
L 159.208665 238.168673 
L 159.360375 238.168673 
L 159.360375 196.012317 
L 164.285268 196.012317 
L 164.289356 188.986257 
L 167.49987 188.986257 
L 167.49987 185.473228 
L 169.130479 185.473228 
L 169.130479 181.960198 
L 169.68399 181.960198 
L 169.68399 178.447168 
L 170.62478 178.447168 
L 170.62478 174.934139 
L 170.876937 174.934139 
L 170.876937 171.421109 
L 171.136049 171.421109 
L 171.136049 167.908079 
L 172.884305 167.908079 
L 172.884305 164.39505 
L 173.241682 164.39505 
L 173.241682 160.88202 
L 175.473891 160.88202 
L 175.473891 157.36899 
L 176.664469 157.36899 
L 176.664469 153.85596 
L 177.39799 153.85596 
L 177.39799 150.342931 
L 177.519904 150.342931 
L 177.519904 146.829901 
L 180.281408 146.829901 
L 180.281408 143.316871 
L 181.847063 143.316871 
L 181.847063 139.803842 
L 183.30396 139.803842 
L 183.30396 136.290812 
L 183.994347 136.290812 
L 183.994347 132.777782 
L 184.656026 132.777782 
L 184.656026 129.264752 
L 184.95586 129.264752 
L 184.975257 122.238693 
L 185.256364 122.238693 
L 185.256364 118.725663 
L 185.591621 118.725663 
L 185.591621 115.212634 
L 185.880282 115.212634 
L 185.880282 111.699604 
L 187.182287 111.699604 
L 187.182287 108.186574 
L 189.230935 108.186574 
L 189.230935 104.673545 
L 189.966514 104.673545 
L 189.966514 101.160515 
L 190.320459 101.160515 
L 190.320459 97.647485 
L 191.865259 97.647485 
L 191.865259 94.134455 
L 192.219935 94.134455 
L 192.219935 90.621426 
L 192.47635 90.621426 
L 192.47635 87.108396 
L 192.661442 87.108396 
L 192.661442 83.595366 
L 193.968204 83.595366 
L 193.968204 80.082337 
L 194.148334 80.082337 
L 194.148334 76.569307 
L 194.450927 76.569307 
L 194.450927 73.056277 
L 194.744953 73.056277 
L 194.744953 69.543248 
L 195.443586 69.543248 
L 195.443586 66.030218 
L 196.260175 66.030218 
L 196.260175 62.517188 
L 196.442493 62.517188 
L 196.442493 59.004158 
L 197.119808 59.004158 
L 197.168685 48.465069 
L 197.291488 48.465069 
L 197.291488 44.95204 
L 197.567339 44.95204 
L 197.567339 41.43901 
L 197.960839 41.43901 
L 197.960839 37.92598 
L 199.524595 37.92598 
L 199.524595 34.41295 
L 199.792167 34.41295 
L 199.792167 30.899921 
L 200.392487 30.899921 
L 200.392487 27.386891 
L 202.526542 27.386891 
L 202.526542 23.873861 
L 203.353526 23.873861 
L 203.353526 20.360832 
L 209.106424 20.360832 
L 209.106424 16.847802 
L 209.464211 16.847802 
L 209.464211 13.334772 
L 209.464211 13.334772 
L 367.82 13.334772 
L 367.82 13.334772 
" style="fill:none;stroke:#bf00bf;stroke-linecap:square;stroke-width:1.5;"/>
   </g>
   <g id="line2d_29">
    <path clip-path="url(#pf2076b87ac)" d="M 118.204677 276.812 
L 118.204677 273.29897 
L 123.808996 273.29897 
L 123.808996 269.785941 
L 124.97433 269.785941 
L 124.97433 266.272911 
L 131.315838 266.272911 
L 131.315838 262.759881 
L 135.650906 262.759881 
L 135.650906 259.246851 
L 140.52069 259.246851 
L 140.52069 255.733822 
L 141.811068 255.733822 
L 141.811068 252.220792 
L 144.208767 252.220792 
L 144.208767 248.707762 
L 145.446181 248.707762 
L 145.446181 245.194733 
L 147.84457 245.194733 
L 147.84457 241.681703 
L 148.77605 241.681703 
L 148.77605 238.168673 
L 150.053542 238.168673 
L 150.053542 234.655644 
L 151.259296 234.655644 
L 151.296528 227.629584 
L 152.733379 227.629584 
L 152.733379 224.116554 
L 154.742432 224.116554 
L 154.843404 217.090495 
L 155.216882 217.090495 
L 155.216882 213.577465 
L 156.121666 213.577465 
L 156.121666 210.064436 
L 158.251941 210.064436 
L 158.343151 203.038376 
L 158.79691 203.038376 
L 158.79691 199.525347 
L 159.095529 199.525347 
L 159.095529 196.012317 
L 159.271808 196.012317 
L 159.360375 171.421109 
L 161.984919 171.421109 
L 161.984919 167.908079 
L 162.573535 167.908079 
L 162.573535 164.39505 
L 164.732218 164.39505 
L 164.732218 160.88202 
L 167.234649 160.88202 
L 167.234649 157.36899 
L 169.005701 157.36899 
L 169.005701 153.85596 
L 171.407511 153.85596 
L 171.407511 150.342931 
L 171.565379 150.342931 
L 171.565379 146.829901 
L 174.919125 146.829901 
L 174.919125 143.316871 
L 175.737564 143.316871 
L 175.737564 139.803842 
L 179.735659 139.803842 
L 179.735659 136.290812 
L 180.281408 136.290812 
L 180.281408 132.777782 
L 180.937382 132.777782 
L 180.999945 125.751723 
L 182.133373 125.751723 
L 182.179887 118.725663 
L 182.571263 118.725663 
L 182.571263 115.212634 
L 184.545261 115.212634 
L 184.545261 111.699604 
L 184.975257 111.699604 
L 184.975257 108.186574 
L 185.880175 108.186574 
L 185.880175 104.673545 
L 187.05209 104.673545 
L 187.05209 101.160515 
L 187.182248 101.160515 
L 187.182248 97.647485 
L 188.398044 97.647485 
L 188.398044 90.621426 
L 189.220521 90.621426 
L 189.220521 87.108396 
L 189.563962 87.108396 
L 189.563962 80.082337 
L 190.320402 80.082337 
L 190.320402 76.569307 
L 190.59237 76.569307 
L 190.59237 73.056277 
L 191.520901 73.056277 
L 191.520901 69.543248 
L 193.988242 69.543248 
L 193.988242 66.030218 
L 194.131384 66.030218 
L 194.131384 62.517188 
L 194.450193 62.517188 
L 194.450193 59.004158 
L 194.940074 59.004158 
L 194.940074 55.491129 
L 195.316963 55.491129 
L 195.420081 48.465069 
L 195.6161 48.465069 
L 195.6161 44.95204 
L 196.145448 44.95204 
L 196.145448 41.43901 
L 196.680349 41.43901 
L 196.680349 37.92598 
L 197.116596 37.92598 
L 197.116596 34.41295 
L 197.564451 34.41295 
L 197.564451 30.899921 
L 200.392487 30.899921 
L 200.392487 27.386891 
L 202.524445 27.386891 
L 202.524445 23.873861 
L 203.353413 23.873861 
L 203.353413 20.360832 
L 209.105173 20.360832 
L 209.105173 16.847802 
L 209.447622 16.847802 
L 209.447622 13.334772 
L 209.447622 13.334772 
L 367.82 13.334772 
L 367.82 13.334772 
" style="fill:none;stroke:#000000;stroke-linecap:square;stroke-width:1.5;"/>
   </g>
   <g id="patch_3">
    <path d="M 10.7 276.812 
L 10.7 10.7 
" style="fill:none;stroke:#000000;stroke-linecap:square;stroke-linejoin:miter;stroke-width:0.8;"/>
   </g>
   <g id="patch_4">
    <path d="M 367.82 276.812 
L 367.82 10.7 
" style="fill:none;stroke:#000000;stroke-linecap:square;stroke-linejoin:miter;stroke-width:0.8;"/>
   </g>
   <g id="patch_5">
    <path d="M 10.7 276.812 
L 367.82 276.812 
" style="fill:none;stroke:#000000;stroke-linecap:square;stroke-linejoin:miter;stroke-width:0.8;"/>
   </g>
   <g id="patch_6">
    <path d="M 10.7 10.7 
L 367.82 10.7 
" style="fill:none;stroke:#000000;stroke-linecap:square;stroke-linejoin:miter;stroke-width:0.8;"/>
   </g>
   <g id="text_6">
    <!-- {f15-f19}, 5-D -->
    <defs>
     <path d="M 51.125 -9.28125 
L 51.125 -16.3125 
L 48.09375 -16.3125 
Q 35.9375 -16.3125 31.8125 -12.6875 
Q 27.6875 -9.078125 27.6875 1.703125 
L 27.6875 13.375 
Q 27.6875 20.75 25.046875 23.578125 
Q 22.40625 26.421875 15.484375 26.421875 
L 12.5 26.421875 
L 12.5 33.40625 
L 15.484375 33.40625 
Q 22.46875 33.40625 25.078125 36.203125 
Q 27.6875 39.015625 27.6875 46.296875 
L 27.6875 58.015625 
Q 27.6875 68.796875 31.8125 72.390625 
Q 35.9375 75.984375 48.09375 75.984375 
L 51.125 75.984375 
L 51.125 69 
L 47.796875 69 
Q 40.921875 69 38.8125 66.84375 
Q 36.71875 64.703125 36.71875 57.8125 
L 36.71875 45.703125 
Q 36.71875 38.03125 34.5 34.5625 
Q 32.28125 31.109375 26.90625 29.890625 
Q 32.328125 28.5625 34.515625 25.09375 
Q 36.71875 21.625 36.71875 14.015625 
L 36.71875 1.90625 
Q 36.71875 -4.984375 38.8125 -7.125 
Q 40.921875 -9.28125 47.796875 -9.28125 
z
" id="DejaVuSans-7b"/>
     <path d="M 10.796875 72.90625 
L 49.515625 72.90625 
L 49.515625 64.59375 
L 19.828125 64.59375 
L 19.828125 46.734375 
Q 21.96875 47.46875 24.109375 47.828125 
Q 26.265625 48.1875 28.421875 48.1875 
Q 40.625 48.1875 47.75 41.5 
Q 54.890625 34.8125 54.890625 23.390625 
Q 54.890625 11.625 47.5625 5.09375 
Q 40.234375 -1.421875 26.90625 -1.421875 
Q 22.3125 -1.421875 17.546875 -0.640625 
Q 12.796875 0.140625 7.71875 1.703125 
L 7.71875 11.625 
Q 12.109375 9.234375 16.796875 8.0625 
Q 21.484375 6.890625 26.703125 6.890625 
Q 35.15625 6.890625 40.078125 11.328125 
Q 45.015625 15.765625 45.015625 23.390625 
Q 45.015625 31 40.078125 35.4375 
Q 35.15625 39.890625 26.703125 39.890625 
Q 22.75 39.890625 18.8125 39.015625 
Q 14.890625 38.140625 10.796875 36.28125 
z
" id="DejaVuSans-35"/>
     <path d="M 10.984375 1.515625 
L 10.984375 10.5 
Q 14.703125 8.734375 18.5 7.8125 
Q 22.3125 6.890625 25.984375 6.890625 
Q 35.75 6.890625 40.890625 13.453125 
Q 46.046875 20.015625 46.78125 33.40625 
Q 43.953125 29.203125 39.59375 26.953125 
Q 35.25 24.703125 29.984375 24.703125 
Q 19.046875 24.703125 12.671875 31.3125 
Q 6.296875 37.9375 6.296875 49.421875 
Q 6.296875 60.640625 12.9375 67.421875 
Q 19.578125 74.21875 30.609375 74.21875 
Q 43.265625 74.21875 49.921875 64.515625 
Q 56.59375 54.828125 56.59375 36.375 
Q 56.59375 19.140625 48.40625 8.859375 
Q 40.234375 -1.421875 26.421875 -1.421875 
Q 22.703125 -1.421875 18.890625 -0.6875 
Q 15.09375 0.046875 10.984375 1.515625 
z
M 30.609375 32.421875 
Q 37.25 32.421875 41.125 36.953125 
Q 45.015625 41.5 45.015625 49.421875 
Q 45.015625 57.28125 41.125 61.84375 
Q 37.25 66.40625 30.609375 66.40625 
Q 23.96875 66.40625 20.09375 61.84375 
Q 16.21875 57.28125 16.21875 49.421875 
Q 16.21875 41.5 20.09375 36.953125 
Q 23.96875 32.421875 30.609375 32.421875 
z
" id="DejaVuSans-39"/>
     <path d="M 12.5 -9.28125 
L 15.921875 -9.28125 
Q 22.75 -9.28125 24.828125 -7.171875 
Q 26.90625 -5.078125 26.90625 1.90625 
L 26.90625 14.015625 
Q 26.90625 21.625 29.09375 25.09375 
Q 31.296875 28.5625 36.71875 29.890625 
Q 31.296875 31.109375 29.09375 34.5625 
Q 26.90625 38.03125 26.90625 45.703125 
L 26.90625 57.8125 
Q 26.90625 64.75 24.828125 66.875 
Q 22.75 69 15.921875 69 
L 12.5 69 
L 12.5 75.984375 
L 15.578125 75.984375 
Q 27.734375 75.984375 31.8125 72.390625 
Q 35.890625 68.796875 35.890625 58.015625 
L 35.890625 46.296875 
Q 35.890625 39.015625 38.515625 36.203125 
Q 41.15625 33.40625 48.09375 33.40625 
L 51.125 33.40625 
L 51.125 26.421875 
L 48.09375 26.421875 
Q 41.15625 26.421875 38.515625 23.578125 
Q 35.890625 20.75 35.890625 13.375 
L 35.890625 1.703125 
Q 35.890625 -9.078125 31.8125 -12.6875 
Q 27.734375 -16.3125 15.578125 -16.3125 
L 12.5 -16.3125 
z
" id="DejaVuSans-7d"/>
     <path d="M 11.71875 12.40625 
L 22.015625 12.40625 
L 22.015625 4 
L 14.015625 -11.625 
L 7.71875 -11.625 
L 11.71875 4 
z
" id="DejaVuSans-2c"/>
    </defs>
    <g transform="translate(214.9776 271.48976)scale(0.2 -0.2)">
     <use xlink:href="#DejaVuSans-7b"/>
     <use x="63.623047" xlink:href="#DejaVuSans-66"/>
     <use x="98.828125" xlink:href="#DejaVuSans-31"/>
     <use x="162.451172" xlink:href="#DejaVuSans-35"/>
     <use x="226.074219" xlink:href="#DejaVuSans-2d"/>
     <use x="262.158203" xlink:href="#DejaVuSans-66"/>
     <use x="297.363281" xlink:href="#DejaVuSans-31"/>
     <use x="360.986328" xlink:href="#DejaVuSans-39"/>
     <use x="424.609375" xlink:href="#DejaVuSans-7d"/>
     <use x="488.232422" xlink:href="#DejaVuSans-2c"/>
     <use x="520.019531" xlink:href="#DejaVuSans-20"/>
     <use x="551.806641" xlink:href="#DejaVuSans-35"/>
     <use x="615.429688" xlink:href="#DejaVuSans-2d"/>
     <use x="651.513672" xlink:href="#DejaVuSans-44"/>
    </g>
   </g>
   <g id="text_7">
    <!-- v2.1 -->
    <defs>
     <path d="M 2.984375 54.6875 
L 12.5 54.6875 
L 29.59375 8.796875 
L 46.6875 54.6875 
L 56.203125 54.6875 
L 35.6875 0 
L 23.484375 0 
z
" id="DejaVuSans-76"/>
     <path d="M 19.1875 8.296875 
L 53.609375 8.296875 
L 53.609375 0 
L 7.328125 0 
L 7.328125 8.296875 
Q 12.9375 14.109375 22.625 23.890625 
Q 32.328125 33.6875 34.8125 36.53125 
Q 39.546875 41.84375 41.421875 45.53125 
Q 43.3125 49.21875 43.3125 52.78125 
Q 43.3125 58.59375 39.234375 62.25 
Q 35.15625 65.921875 28.609375 65.921875 
Q 23.96875 65.921875 18.8125 64.3125 
Q 13.671875 62.703125 7.8125 59.421875 
L 7.8125 69.390625 
Q 13.765625 71.78125 18.9375 73 
Q 24.125 74.21875 28.421875 74.21875 
Q 39.75 74.21875 46.484375 68.546875 
Q 53.21875 62.890625 53.21875 53.421875 
Q 53.21875 48.921875 51.53125 44.890625 
Q 49.859375 40.875 45.40625 35.40625 
Q 44.1875 33.984375 37.640625 27.21875 
Q 31.109375 20.453125 19.1875 8.296875 
z
" id="DejaVuSans-32"/>
     <path d="M 10.6875 12.40625 
L 21 12.40625 
L 21 0 
L 10.6875 0 
z
" id="DejaVuSans-2e"/>
    </defs>
    <g style="fill:#808080;" transform="translate(178.349063 272.071193)scale(0.1 -0.1)">
     <use xlink:href="#DejaVuSans-76"/>
     <use x="59.179688" xlink:href="#DejaVuSans-32"/>
     <use x="122.802734" xlink:href="#DejaVuSans-2e"/>
     <use x="154.589844" xlink:href="#DejaVuSans-31"/>
    </g>
   </g>
  </g>
 </g>
 <defs>
  <clipPath id="pf2076b87ac">
   <rect height="266.112" width="357.12" x="10.7" y="10.7"/>
  </clipPath>
 </defs>
</svg>
