<?xml version="1.0" encoding="utf-8" standalone="no"?>
<!DOCTYPE svg PUBLIC "-//W3C//DTD SVG 1.1//EN"
  "http://www.w3.org/Graphics/SVG/1.1/DTD/svg11.dtd">
<!-- Created with matplotlib (http://matplotlib.org/) -->
<svg height="333pt" version="1.1" viewBox="0 0 378 333" width="378pt" xmlns="http://www.w3.org/2000/svg" xmlns:xlink="http://www.w3.org/1999/xlink">
 <defs>
  <style type="text/css">
*{stroke-linecap:butt;stroke-linejoin:round;}
  </style>
 </defs>
 <g id="figure_1">
  <g id="patch_1">
   <path d="M 0 333.7245 
L 378.52 333.7245 
L 378.52 0 
L 0 0 
z
" style="fill:#ffffff;"/>
  </g>
  <g id="axes_1">
   <g id="patch_2">
    <path d="M 10.7 276.812 
L 367.82 276.812 
L 367.82 10.7 
L 10.7 10.7 
z
" style="fill:#ffffff;"/>
   </g>
   <g id="matplotlib.axis_1">
    <g id="xtick_1">
     <g id="line2d_1">
      <path clip-path="url(#p4ed5b799bc)" d="M 10.61381 276.812 
L 10.61381 10.7 
" style="fill:none;stroke:#b0b0b0;stroke-linecap:square;stroke-width:0.8;"/>
     </g>
     <g id="line2d_2">
      <defs>
       <path d="M 0 0 
L 0 3.5 
" id="m33dff28e62" style="stroke:#000000;stroke-width:0.8;"/>
      </defs>
      <g>
       <use style="stroke:#000000;stroke-width:0.8;" x="10.61381" xlink:href="#m33dff28e62" y="276.812"/>
      </g>
     </g>
    </g>
    <g id="xtick_2">
     <g id="line2d_3">
      <path clip-path="url(#p4ed5b799bc)" d="M 90.394305 276.812 
L 90.394305 10.7 
" style="fill:none;stroke:#b0b0b0;stroke-linecap:square;stroke-width:0.8;"/>
     </g>
     <g id="line2d_4">
      <g>
       <use style="stroke:#000000;stroke-width:0.8;" x="90.394305" xlink:href="#m33dff28e62" y="276.812"/>
      </g>
     </g>
     <g id="text_1">
      <!-- -4 -->
      <defs>
       <path d="M 4.890625 31.390625 
L 31.203125 31.390625 
L 31.203125 23.390625 
L 4.890625 23.390625 
z
" id="DejaVuSans-2d"/>
       <path d="M 37.796875 64.3125 
L 12.890625 25.390625 
L 37.796875 25.390625 
z
M 35.203125 72.90625 
L 47.609375 72.90625 
L 47.609375 25.390625 
L 58.015625 25.390625 
L 58.015625 17.1875 
L 47.609375 17.1875 
L 47.609375 0 
L 37.796875 0 
L 37.796875 17.1875 
L 4.890625 17.1875 
L 4.890625 26.703125 
z
" id="DejaVuSans-34"/>
      </defs>
      <g transform="translate(80.423992 299.008875)scale(0.2 -0.2)">
       <use xlink:href="#DejaVuSans-2d"/>
       <use x="36.083984" xlink:href="#DejaVuSans-34"/>
      </g>
     </g>
    </g>
    <g id="xtick_3">
     <g id="line2d_5">
      <path clip-path="url(#p4ed5b799bc)" d="M 170.1748 276.812 
L 170.1748 10.7 
" style="fill:none;stroke:#b0b0b0;stroke-linecap:square;stroke-width:0.8;"/>
     </g>
     <g id="line2d_6">
      <g>
       <use style="stroke:#000000;stroke-width:0.8;" x="170.1748" xlink:href="#m33dff28e62" y="276.812"/>
      </g>
     </g>
     <g id="text_2">
      <!-- 0 -->
      <defs>
       <path d="M 31.78125 66.40625 
Q 24.171875 66.40625 20.328125 58.90625 
Q 16.5 51.421875 16.5 36.375 
Q 16.5 21.390625 20.328125 13.890625 
Q 24.171875 6.390625 31.78125 6.390625 
Q 39.453125 6.390625 43.28125 13.890625 
Q 47.125 21.390625 47.125 36.375 
Q 47.125 51.421875 43.28125 58.90625 
Q 39.453125 66.40625 31.78125 66.40625 
z
M 31.78125 74.21875 
Q 44.046875 74.21875 50.515625 64.515625 
Q 56.984375 54.828125 56.984375 36.375 
Q 56.984375 17.96875 50.515625 8.265625 
Q 44.046875 -1.421875 31.78125 -1.421875 
Q 19.53125 -1.421875 13.0625 8.265625 
Q 6.59375 17.96875 6.59375 36.375 
Q 6.59375 54.828125 13.0625 64.515625 
Q 19.53125 74.21875 31.78125 74.21875 
z
" id="DejaVuSans-30"/>
      </defs>
      <g transform="translate(163.8123 299.008875)scale(0.2 -0.2)">
       <use xlink:href="#DejaVuSans-30"/>
      </g>
     </g>
    </g>
    <g id="xtick_4">
     <g id="line2d_7">
      <path clip-path="url(#p4ed5b799bc)" d="M 249.955295 276.812 
L 249.955295 10.7 
" style="fill:none;stroke:#b0b0b0;stroke-linecap:square;stroke-width:0.8;"/>
     </g>
     <g id="line2d_8">
      <g>
       <use style="stroke:#000000;stroke-width:0.8;" x="249.955295" xlink:href="#m33dff28e62" y="276.812"/>
      </g>
     </g>
     <g id="text_3">
      <!-- 4 -->
      <g transform="translate(243.592795 299.008875)scale(0.2 -0.2)">
       <use xlink:href="#DejaVuSans-34"/>
      </g>
     </g>
    </g>
    <g id="xtick_5">
     <g id="line2d_9">
      <path clip-path="url(#p4ed5b799bc)" d="M 329.73579 276.812 
L 329.73579 10.7 
" style="fill:none;stroke:#b0b0b0;stroke-linecap:square;stroke-width:0.8;"/>
     </g>
     <g id="line2d_10">
      <g>
       <use style="stroke:#000000;stroke-width:0.8;" x="329.73579" xlink:href="#m33dff28e62" y="276.812"/>
      </g>
     </g>
     <g id="text_4">
      <!-- 8 -->
      <defs>
       <path d="M 31.78125 34.625 
Q 24.75 34.625 20.71875 30.859375 
Q 16.703125 27.09375 16.703125 20.515625 
Q 16.703125 13.921875 20.71875 10.15625 
Q 24.75 6.390625 31.78125 6.390625 
Q 38.8125 6.390625 42.859375 10.171875 
Q 46.921875 13.96875 46.921875 20.515625 
Q 46.921875 27.09375 42.890625 30.859375 
Q 38.875 34.625 31.78125 34.625 
z
M 21.921875 38.8125 
Q 15.578125 40.375 12.03125 44.71875 
Q 8.5 49.078125 8.5 55.328125 
Q 8.5 64.0625 14.71875 69.140625 
Q 20.953125 74.21875 31.78125 74.21875 
Q 42.671875 74.21875 48.875 69.140625 
Q 55.078125 64.0625 55.078125 55.328125 
Q 55.078125 49.078125 51.53125 44.71875 
Q 48 40.375 41.703125 38.8125 
Q 48.828125 37.15625 52.796875 32.3125 
Q 56.78125 27.484375 56.78125 20.515625 
Q 56.78125 9.90625 50.3125 4.234375 
Q 43.84375 -1.421875 31.78125 -1.421875 
Q 19.734375 -1.421875 13.25 4.234375 
Q 6.78125 9.90625 6.78125 20.515625 
Q 6.78125 27.484375 10.78125 32.3125 
Q 14.796875 37.15625 21.921875 38.8125 
z
M 18.3125 54.390625 
Q 18.3125 48.734375 21.84375 45.5625 
Q 25.390625 42.390625 31.78125 42.390625 
Q 38.140625 42.390625 41.71875 45.5625 
Q 45.3125 48.734375 45.3125 54.390625 
Q 45.3125 60.0625 41.71875 63.234375 
Q 38.140625 66.40625 31.78125 66.40625 
Q 25.390625 66.40625 21.84375 63.234375 
Q 18.3125 60.0625 18.3125 54.390625 
z
" id="DejaVuSans-38"/>
      </defs>
      <g transform="translate(323.37329 299.008875)scale(0.2 -0.2)">
       <use xlink:href="#DejaVuSans-38"/>
      </g>
     </g>
    </g>
    <g id="text_5">
     <!-- log10 of Df -->
     <defs>
      <path d="M 9.421875 75.984375 
L 18.40625 75.984375 
L 18.40625 0 
L 9.421875 0 
z
" id="DejaVuSans-6c"/>
      <path d="M 30.609375 48.390625 
Q 23.390625 48.390625 19.1875 42.75 
Q 14.984375 37.109375 14.984375 27.296875 
Q 14.984375 17.484375 19.15625 11.84375 
Q 23.34375 6.203125 30.609375 6.203125 
Q 37.796875 6.203125 41.984375 11.859375 
Q 46.1875 17.53125 46.1875 27.296875 
Q 46.1875 37.015625 41.984375 42.703125 
Q 37.796875 48.390625 30.609375 48.390625 
z
M 30.609375 56 
Q 42.328125 56 49.015625 48.375 
Q 55.71875 40.765625 55.71875 27.296875 
Q 55.71875 13.875 49.015625 6.21875 
Q 42.328125 -1.421875 30.609375 -1.421875 
Q 18.84375 -1.421875 12.171875 6.21875 
Q 5.515625 13.875 5.515625 27.296875 
Q 5.515625 40.765625 12.171875 48.375 
Q 18.84375 56 30.609375 56 
z
" id="DejaVuSans-6f"/>
      <path d="M 45.40625 27.984375 
Q 45.40625 37.75 41.375 43.109375 
Q 37.359375 48.484375 30.078125 48.484375 
Q 22.859375 48.484375 18.828125 43.109375 
Q 14.796875 37.75 14.796875 27.984375 
Q 14.796875 18.265625 18.828125 12.890625 
Q 22.859375 7.515625 30.078125 7.515625 
Q 37.359375 7.515625 41.375 12.890625 
Q 45.40625 18.265625 45.40625 27.984375 
z
M 54.390625 6.78125 
Q 54.390625 -7.171875 48.1875 -13.984375 
Q 42 -20.796875 29.203125 -20.796875 
Q 24.46875 -20.796875 20.265625 -20.09375 
Q 16.0625 -19.390625 12.109375 -17.921875 
L 12.109375 -9.1875 
Q 16.0625 -11.328125 19.921875 -12.34375 
Q 23.78125 -13.375 27.78125 -13.375 
Q 36.625 -13.375 41.015625 -8.765625 
Q 45.40625 -4.15625 45.40625 5.171875 
L 45.40625 9.625 
Q 42.625 4.78125 38.28125 2.390625 
Q 33.9375 0 27.875 0 
Q 17.828125 0 11.671875 7.65625 
Q 5.515625 15.328125 5.515625 27.984375 
Q 5.515625 40.671875 11.671875 48.328125 
Q 17.828125 56 27.875 56 
Q 33.9375 56 38.28125 53.609375 
Q 42.625 51.21875 45.40625 46.390625 
L 45.40625 54.6875 
L 54.390625 54.6875 
z
" id="DejaVuSans-67"/>
      <path d="M 12.40625 8.296875 
L 28.515625 8.296875 
L 28.515625 63.921875 
L 10.984375 60.40625 
L 10.984375 69.390625 
L 28.421875 72.90625 
L 38.28125 72.90625 
L 38.28125 8.296875 
L 54.390625 8.296875 
L 54.390625 0 
L 12.40625 0 
z
" id="DejaVuSans-31"/>
      <path id="DejaVuSans-20"/>
      <path d="M 37.109375 75.984375 
L 37.109375 68.5 
L 28.515625 68.5 
Q 23.6875 68.5 21.796875 66.546875 
Q 19.921875 64.59375 19.921875 59.515625 
L 19.921875 54.6875 
L 34.71875 54.6875 
L 34.71875 47.703125 
L 19.921875 47.703125 
L 19.921875 0 
L 10.890625 0 
L 10.890625 47.703125 
L 2.296875 47.703125 
L 2.296875 54.6875 
L 10.890625 54.6875 
L 10.890625 58.5 
Q 10.890625 67.625 15.140625 71.796875 
Q 19.390625 75.984375 28.609375 75.984375 
z
" id="DejaVuSans-66"/>
      <path d="M 19.671875 64.796875 
L 19.671875 8.109375 
L 31.59375 8.109375 
Q 46.6875 8.109375 53.6875 14.9375 
Q 60.6875 21.78125 60.6875 36.53125 
Q 60.6875 51.171875 53.6875 57.984375 
Q 46.6875 64.796875 31.59375 64.796875 
z
M 9.8125 72.90625 
L 30.078125 72.90625 
Q 51.265625 72.90625 61.171875 64.09375 
Q 71.09375 55.28125 71.09375 36.53125 
Q 71.09375 17.671875 61.125 8.828125 
Q 51.171875 0 30.078125 0 
L 9.8125 0 
z
" id="DejaVuSans-44"/>
     </defs>
     <g transform="translate(134.074063 322.365125)scale(0.2 -0.2)">
      <use xlink:href="#DejaVuSans-6c"/>
      <use x="27.783203" xlink:href="#DejaVuSans-6f"/>
      <use x="88.964844" xlink:href="#DejaVuSans-67"/>
      <use x="152.441406" xlink:href="#DejaVuSans-31"/>
      <use x="216.064453" xlink:href="#DejaVuSans-30"/>
      <use x="279.6875" xlink:href="#DejaVuSans-20"/>
      <use x="311.474609" xlink:href="#DejaVuSans-6f"/>
      <use x="372.65625" xlink:href="#DejaVuSans-66"/>
      <use x="407.861328" xlink:href="#DejaVuSans-20"/>
      <use x="439.648438" xlink:href="#DejaVuSans-44"/>
      <use x="516.650391" xlink:href="#DejaVuSans-66"/>
     </g>
    </g>
   </g>
   <g id="matplotlib.axis_2">
    <g id="ytick_1">
     <g id="line2d_11">
      <path clip-path="url(#p4ed5b799bc)" d="M 10.7 276.812 
L 367.82 276.812 
" style="fill:none;stroke:#b0b0b0;stroke-linecap:square;stroke-width:0.8;"/>
     </g>
     <g id="line2d_12">
      <defs>
       <path d="M 0 0 
L -3.5 0 
" id="mc15f3164e7" style="stroke:#000000;stroke-width:0.8;"/>
      </defs>
      <g>
       <use style="stroke:#000000;stroke-width:0.8;" x="10.7" xlink:href="#mc15f3164e7" y="276.812"/>
      </g>
     </g>
    </g>
    <g id="ytick_2">
     <g id="line2d_13">
      <path clip-path="url(#p4ed5b799bc)" d="M 10.7 224.116554 
L 367.82 224.116554 
" style="fill:none;stroke:#b0b0b0;stroke-linecap:square;stroke-width:0.8;"/>
     </g>
     <g id="line2d_14">
      <g>
       <use style="stroke:#000000;stroke-width:0.8;" x="10.7" xlink:href="#mc15f3164e7" y="224.116554"/>
      </g>
     </g>
    </g>
    <g id="ytick_3">
     <g id="line2d_15">
      <path clip-path="url(#p4ed5b799bc)" d="M 10.7 171.421109 
L 367.82 171.421109 
" style="fill:none;stroke:#b0b0b0;stroke-linecap:square;stroke-width:0.8;"/>
     </g>
     <g id="line2d_16">
      <g>
       <use style="stroke:#000000;stroke-width:0.8;" x="10.7" xlink:href="#mc15f3164e7" y="171.421109"/>
      </g>
     </g>
    </g>
    <g id="ytick_4">
     <g id="line2d_17">
      <path clip-path="url(#p4ed5b799bc)" d="M 10.7 118.725663 
L 367.82 118.725663 
" style="fill:none;stroke:#b0b0b0;stroke-linecap:square;stroke-width:0.8;"/>
     </g>
     <g id="line2d_18">
      <g>
       <use style="stroke:#000000;stroke-width:0.8;" x="10.7" xlink:href="#mc15f3164e7" y="118.725663"/>
      </g>
     </g>
    </g>
    <g id="ytick_5">
     <g id="line2d_19">
      <path clip-path="url(#p4ed5b799bc)" d="M 10.7 66.030218 
L 367.82 66.030218 
" style="fill:none;stroke:#b0b0b0;stroke-linecap:square;stroke-width:0.8;"/>
     </g>
     <g id="line2d_20">
      <g>
       <use style="stroke:#000000;stroke-width:0.8;" x="10.7" xlink:href="#mc15f3164e7" y="66.030218"/>
      </g>
     </g>
    </g>
    <g id="ytick_6">
     <g id="line2d_21">
      <path clip-path="url(#p4ed5b799bc)" d="M 10.7 13.334772 
L 367.82 13.334772 
" style="fill:none;stroke:#b0b0b0;stroke-linecap:square;stroke-width:0.8;"/>
     </g>
     <g id="line2d_22">
      <g>
       <use style="stroke:#000000;stroke-width:0.8;" x="10.7" xlink:href="#mc15f3164e7" y="13.334772"/>
      </g>
     </g>
    </g>
   </g>
   <g id="line2d_23">
    <path clip-path="url(#p4ed5b799bc)" d="M -1 171.421109 
L 10.61381 171.421109 
L 10.61381 118.725663 
L 203.104536 118.725663 
L 203.104536 115.212634 
L 204.998823 115.212634 
L 204.998823 111.699604 
L 206.422028 111.699604 
L 206.422028 108.186574 
L 207.05456 108.186574 
L 207.05456 104.673545 
L 207.2952 104.673545 
L 207.2952 101.160515 
L 207.413044 101.160515 
L 207.413044 97.647485 
L 207.869053 97.647485 
L 207.979402 90.621426 
L 208.814936 90.621426 
L 208.814936 87.108396 
L 209.204303 87.108396 
L 209.298973 80.082337 
L 210.021239 80.082337 
L 210.107416 73.056277 
L 210.846808 73.056277 
L 210.846808 69.543248 
L 211.002877 69.543248 
L 211.079887 59.004158 
L 211.306825 59.004158 
L 211.306825 55.491129 
L 211.528024 55.491129 
L 211.60049 48.465069 
L 213.928472 48.465069 
L 213.928472 44.95204 
L 215.255817 44.95204 
L 215.255817 41.43901 
L 216.025247 41.43901 
L 216.025277 34.41295 
L 216.529993 34.41295 
L 216.529993 30.899921 
L 217.888588 30.899921 
L 217.888588 27.386891 
L 218.560388 27.386891 
L 218.656801 20.360832 
L 218.752168 20.360832 
L 218.752168 16.847802 
L 220.177258 16.847802 
L 220.177258 13.334772 
L 220.177258 13.334772 
L 367.82 13.334772 
L 367.82 13.334772 
" style="fill:none;stroke:#ff0000;stroke-linecap:square;stroke-width:3;"/>
   </g>
   <g id="line2d_24">
    <path clip-path="url(#p4ed5b799bc)" d="M 206.508111 276.812 
L 206.508111 273.29897 
L 206.508111 273.29897 
L 206.508111 273.29897 
L 206.528591 273.29897 
L 206.528591 269.785941 
L 207.466661 269.785941 
L 207.466661 266.272911 
L 209.12184 266.272911 
L 209.12184 262.759881 
L 209.843652 262.759881 
L 209.853148 255.733822 
L 210.036654 255.733822 
L 210.036654 252.220792 
L 210.265385 252.220792 
L 210.277669 245.194733 
L 210.710032 245.194733 
L 210.710032 241.681703 
L 211.009956 241.681703 
L 211.029851 234.655644 
L 211.802884 234.655644 
L 211.868295 227.629584 
L 213.084948 227.629584 
L 213.084948 224.116554 
L 221.794672 224.116554 
L 221.896952 199.525347 
L 221.913851 199.525347 
L 221.996858 167.908079 
L 222.332794 167.908079 
L 222.332794 164.39505 
L 223.421069 164.39505 
L 223.421069 160.88202 
L 223.955517 160.88202 
L 223.955517 157.36899 
L 224.318338 157.36899 
L 224.318338 153.85596 
L 224.585391 153.85596 
L 224.661649 143.316871 
L 224.759354 143.316871 
L 224.759354 139.803842 
L 225.087455 139.803842 
L 225.087455 136.290812 
L 225.395612 136.290812 
L 225.395612 132.777782 
L 225.874197 132.777782 
L 225.884753 125.751723 
L 226.047636 125.751723 
L 226.062138 118.725663 
L 226.240899 118.725663 
L 226.240899 115.212634 
L 226.598711 115.212634 
L 226.643694 108.186574 
L 226.744166 108.186574 
L 226.744166 104.673545 
L 226.893266 104.673545 
L 226.940966 97.647485 
L 227.088808 97.647485 
L 227.088808 94.134455 
L 227.565521 94.134455 
L 227.565521 90.621426 
L 227.70406 90.621426 
L 227.70406 87.108396 
L 227.875553 87.108396 
L 227.980918 80.082337 
L 228.062501 80.082337 
L 228.062501 76.569307 
L 228.256394 76.569307 
L 228.256394 73.056277 
L 228.441275 73.056277 
L 228.441275 69.543248 
L 229.786533 69.543248 
L 229.786533 66.030218 
L 296.867529 66.030218 
L 296.867529 62.517188 
L 298.869038 62.517188 
L 298.869038 59.004158 
L 303.748742 59.004158 
L 303.748742 55.491129 
L 304.262912 55.491129 
L 304.262912 51.978099 
L 307.28027 51.978099 
L 307.28027 48.465069 
L 307.775945 48.465069 
L 307.775945 44.95204 
L 308.017183 44.95204 
L 308.017183 41.43901 
L 308.417337 41.43901 
L 308.417337 37.92598 
L 310.15106 37.92598 
L 310.15106 34.41295 
L 310.35112 34.41295 
L 310.35112 30.899921 
L 312.130297 30.899921 
L 312.182728 23.873861 
L 313.452117 23.873861 
L 313.452117 20.360832 
L 314.879795 20.360832 
L 314.879795 16.847802 
L 316.737092 16.847802 
L 316.737092 13.334772 
L 316.737092 13.334772 
L 367.82 13.334772 
L 367.82 13.334772 
" style="fill:none;stroke:#00bfbf;stroke-linecap:square;stroke-width:1.5;"/>
   </g>
   <g id="line2d_25">
    <path clip-path="url(#p4ed5b799bc)" d="M 205.149311 276.812 
L 205.149311 273.29897 
L 206.355589 273.29897 
L 206.355589 269.785941 
L 206.961427 269.785941 
L 206.961427 266.272911 
L 208.329241 266.272911 
L 208.329241 262.759881 
L 209.177737 262.759881 
L 209.229229 255.733822 
L 209.476559 255.733822 
L 209.476559 252.220792 
L 209.63866 252.220792 
L 209.63866 248.707762 
L 209.87195 248.707762 
L 209.87195 245.194733 
L 210.443174 245.194733 
L 210.5008 238.168673 
L 210.657647 238.168673 
L 210.657647 234.655644 
L 211.1253 234.655644 
L 211.1253 231.142614 
L 211.63442 231.142614 
L 211.63442 227.629584 
L 212.503586 227.629584 
L 212.503586 224.116554 
L 221.126321 224.116554 
L 221.126321 220.603525 
L 221.425557 220.603525 
L 221.425557 217.090495 
L 221.640029 217.090495 
L 221.706962 192.499287 
L 221.753996 192.499287 
L 221.84148 164.39505 
L 222.80381 164.39505 
L 222.80381 160.88202 
L 223.740438 160.88202 
L 223.740438 157.36899 
L 223.914566 157.36899 
L 224.024537 146.829901 
L 224.318338 146.829901 
L 224.412673 136.290812 
L 224.892626 136.290812 
L 224.946236 129.264752 
L 225.309644 129.264752 
L 225.309644 125.751723 
L 225.583377 125.751723 
L 225.583377 122.238693 
L 225.713378 122.238693 
L 225.746684 111.699604 
L 226.011033 111.699604 
L 226.041878 104.673545 
L 226.613042 104.673545 
L 226.674886 97.647485 
L 226.744166 97.647485 
L 226.744166 94.134455 
L 226.940966 94.134455 
L 226.940966 90.621426 
L 227.473301 90.621426 
L 227.542211 83.595366 
L 227.685095 83.595366 
L 227.685095 80.082337 
L 227.814332 80.082337 
L 227.850456 73.056277 
L 228.256394 73.056277 
L 228.256394 69.543248 
L 228.553393 69.543248 
L 228.553393 66.030218 
L 296.282425 66.030218 
L 296.282425 62.517188 
L 296.76394 62.517188 
L 296.76394 59.004158 
L 300.272801 59.004158 
L 300.272801 55.491129 
L 302.354784 55.491129 
L 302.354784 51.978099 
L 305.034748 51.978099 
L 305.034748 48.465069 
L 305.79145 48.465069 
L 305.79145 44.95204 
L 306.452847 44.95204 
L 306.452847 41.43901 
L 307.775945 41.43901 
L 307.775945 37.92598 
L 308.884897 37.92598 
L 308.884897 34.41295 
L 309.372234 34.41295 
L 309.372234 30.899921 
L 310.362146 30.899921 
L 310.408983 23.873861 
L 312.200023 23.873861 
L 312.200023 20.360832 
L 314.039661 20.360832 
L 314.039661 16.847802 
L 314.784444 16.847802 
L 314.784444 13.334772 
L 314.784444 13.334772 
L 367.82 13.334772 
L 367.82 13.334772 
" style="fill:none;stroke:#bf00bf;stroke-linecap:square;stroke-width:1.5;"/>
   </g>
   <g id="line2d_26">
    <path clip-path="url(#p4ed5b799bc)" d="M 202.011321 276.812 
L 202.011321 273.29897 
L 204.372768 273.29897 
L 204.372768 269.785941 
L 204.512387 269.785941 
L 204.512387 266.272911 
L 207.228394 266.272911 
L 207.293362 259.246851 
L 207.605702 259.246851 
L 207.621295 252.220792 
L 207.848878 252.220792 
L 207.848878 248.707762 
L 207.981954 248.707762 
L 207.981954 245.194733 
L 208.825804 245.194733 
L 208.890423 238.168673 
L 209.480211 238.168673 
L 209.480211 234.655644 
L 209.734154 234.655644 
L 209.812433 227.629584 
L 210.698386 227.629584 
L 210.698386 224.116554 
L 219.807671 224.116554 
L 219.807671 220.603525 
L 220.630125 220.603525 
L 220.630125 217.090495 
L 220.956627 217.090495 
L 221.066502 206.551406 
L 221.071042 206.551406 
L 221.13026 196.012317 
L 221.222051 196.012317 
L 221.332974 174.934139 
L 221.353394 174.934139 
L 221.425988 164.39505 
L 222.254721 164.39505 
L 222.254721 160.88202 
L 222.436977 160.88202 
L 222.436977 157.36899 
L 223.193756 157.36899 
L 223.193756 153.85596 
L 223.458755 153.85596 
L 223.501528 146.829901 
L 223.703573 146.829901 
L 223.798379 139.803842 
L 223.914566 139.803842 
L 223.914566 136.290812 
L 224.059898 136.290812 
L 224.0688 129.264752 
L 224.3221 129.264752 
L 224.3221 125.751723 
L 224.52375 125.751723 
L 224.618547 118.725663 
L 224.838562 118.725663 
L 224.838562 115.212634 
L 224.99814 115.212634 
L 224.99814 111.699604 
L 225.257203 111.699604 
L 225.321185 104.673545 
L 225.776842 104.673545 
L 225.850536 94.134455 
L 225.931557 94.134455 
L 226.042268 80.082337 
L 226.328169 80.082337 
L 226.328169 76.569307 
L 226.945017 76.569307 
L 226.945017 73.056277 
L 227.106696 73.056277 
L 227.106696 69.543248 
L 227.2349 69.543248 
L 227.2349 66.030218 
L 289.928915 66.030218 
L 289.928915 62.517188 
L 293.693374 62.517188 
L 293.693374 59.004158 
L 294.964179 59.004158 
L 294.964179 55.491129 
L 297.977089 55.491129 
L 297.977089 51.978099 
L 298.603469 51.978099 
L 298.603469 48.465069 
L 298.877314 48.465069 
L 298.877314 44.95204 
L 300.638678 44.95204 
L 300.638678 41.43901 
L 301.729187 41.43901 
L 301.729187 37.92598 
L 302.014342 37.92598 
L 302.014342 34.41295 
L 302.209906 34.41295 
L 302.209906 30.899921 
L 304.955358 30.899921 
L 304.955358 27.386891 
L 307.758488 27.386891 
L 307.758488 23.873861 
L 308.067415 23.873861 
L 308.067415 20.360832 
L 309.407955 20.360832 
L 309.407955 16.847802 
L 310.234961 16.847802 
L 310.234961 13.334772 
L 310.234961 13.334772 
L 367.82 13.334772 
L 367.82 13.334772 
" style="fill:none;stroke:#000000;stroke-linecap:square;stroke-width:1.5;"/>
   </g>
   <g id="line2d_27">
    <path clip-path="url(#p4ed5b799bc)" d="M 187.66254 276.812 
L 187.66254 273.29897 
L 188.66774 273.29897 
L 188.66774 269.785941 
L 190.5866 269.785941 
L 190.5866 266.272911 
L 192.332312 266.272911 
L 192.332312 262.759881 
L 192.621586 262.759881 
L 192.68517 255.733822 
L 193.342261 255.733822 
L 193.342261 252.220792 
L 194.977453 252.220792 
L 194.977453 248.707762 
L 195.681893 248.707762 
L 195.681893 245.194733 
L 195.988522 245.194733 
L 196.075786 238.168673 
L 196.387812 238.168673 
L 196.387812 234.655644 
L 196.720419 234.655644 
L 196.720419 231.142614 
L 198.223274 231.142614 
L 198.223274 227.629584 
L 199.046802 227.629584 
L 199.046802 224.116554 
L 208.584131 224.116554 
L 208.584131 220.603525 
L 209.315493 220.603525 
L 209.315493 217.090495 
L 209.44275 217.090495 
L 209.44275 213.577465 
L 210.007307 213.577465 
L 210.007307 210.064436 
L 211.124176 210.064436 
L 211.124176 206.551406 
L 211.655741 206.551406 
L 211.655741 203.038376 
L 213.123689 203.038376 
L 213.123689 199.525347 
L 214.790969 199.525347 
L 214.790969 196.012317 
L 215.368425 196.012317 
L 215.443483 188.986257 
L 215.612191 188.986257 
L 215.625713 181.960198 
L 215.847365 181.960198 
L 215.922272 174.934139 
L 216.6876 174.934139 
L 216.6876 171.421109 
L 216.925316 171.421109 
L 216.925316 167.908079 
L 217.662572 167.908079 
L 217.662572 164.39505 
L 218.563893 164.39505 
L 218.669717 153.85596 
L 219.827898 153.85596 
L 219.89834 146.829901 
L 220.076611 146.829901 
L 220.147049 139.803842 
L 220.406217 139.803842 
L 220.406217 136.290812 
L 220.598181 136.290812 
L 220.598181 132.777782 
L 220.849447 132.777782 
L 220.849447 129.264752 
L 221.06662 129.264752 
L 221.06662 125.751723 
L 221.46385 125.751723 
L 221.46385 122.238693 
L 221.967253 122.238693 
L 221.987383 115.212634 
L 222.138984 115.212634 
L 222.215401 101.160515 
L 222.586695 101.160515 
L 222.692426 90.621426 
L 222.742043 90.621426 
L 222.744522 83.595366 
L 223.036832 83.595366 
L 223.038355 76.569307 
L 223.726316 76.569307 
L 223.726316 73.056277 
L 224.089389 73.056277 
L 224.089389 69.543248 
L 224.704729 69.543248 
L 224.704729 66.030218 
L 268.838833 66.030218 
L 268.838833 62.517188 
L 271.760987 62.517188 
L 271.760987 59.004158 
L 273.528664 59.004158 
L 273.528664 55.491129 
L 273.778799 55.491129 
L 273.778799 51.978099 
L 274.908002 51.978099 
L 274.908002 48.465069 
L 276.019226 48.465069 
L 276.019226 44.95204 
L 279.229968 44.95204 
L 279.229968 41.43901 
L 279.710425 41.43901 
L 279.710425 37.92598 
L 281.43017 37.92598 
L 281.43017 34.41295 
L 284.548636 34.41295 
L 284.548636 30.899921 
L 285.252071 30.899921 
L 285.252071 27.386891 
L 287.060817 27.386891 
L 287.060817 23.873861 
L 287.307234 23.873861 
L 287.307234 20.360832 
L 288.359013 20.360832 
L 288.359013 16.847802 
L 292.264578 16.847802 
L 292.264578 13.334772 
L 292.264578 13.334772 
L 367.82 13.334772 
L 367.82 13.334772 
" style="fill:none;stroke:#00bfbf;stroke-linecap:square;stroke-width:1.5;"/>
   </g>
   <g id="line2d_28">
    <path clip-path="url(#p4ed5b799bc)" d="M 10.61381 276.812 
L 10.61381 273.29897 
L 10.61381 273.29897 
L 10.61381 273.29897 
L 10.61381 269.785941 
L 10.61381 269.785941 
L 10.61381 269.785941 
L 10.61381 266.272911 
L 10.61381 266.272911 
L 10.61381 266.272911 
L 10.61381 262.759881 
L 10.61381 262.759881 
L 10.61381 262.759881 
L 10.61381 259.246851 
L 10.61381 259.246851 
L 10.61381 259.246851 
L 10.61381 255.733822 
L 10.61381 255.733822 
L 10.61381 255.733822 
L 10.61381 252.220792 
L 10.61381 252.220792 
L 10.61381 252.220792 
L 10.61381 248.707762 
L 10.61381 248.707762 
L 10.61381 248.707762 
L 10.61381 245.194733 
L 10.61381 245.194733 
L 10.61381 245.194733 
L 10.61381 241.681703 
L 10.61381 241.681703 
L 10.61381 241.681703 
L 10.61381 238.168673 
L 10.61381 238.168673 
L 10.61381 238.168673 
L 10.61381 234.655644 
L 10.61381 234.655644 
L 10.61381 234.655644 
L 10.61381 231.142614 
L 10.61381 231.142614 
L 10.61381 231.142614 
L 10.61381 227.629584 
L 10.61381 227.629584 
L 10.61381 227.629584 
L 10.61381 224.116554 
L 25.508644 224.116554 
L 25.508644 220.603525 
L 32.41538 220.603525 
L 32.41538 217.090495 
L 37.266096 217.090495 
L 37.266096 213.577465 
L 38.166688 213.577465 
L 38.166688 210.064436 
L 38.691516 210.064436 
L 38.691516 206.551406 
L 42.245543 206.551406 
L 42.245543 203.038376 
L 45.348248 203.038376 
L 45.348248 199.525347 
L 46.158097 199.525347 
L 46.158097 196.012317 
L 47.643495 196.012317 
L 47.643495 192.499287 
L 51.494982 192.499287 
L 51.494982 188.986257 
L 52.197076 188.986257 
L 52.197076 185.473228 
L 56.202293 185.473228 
L 56.202293 181.960198 
L 68.06837 181.960198 
L 68.169073 174.934139 
L 70.559795 174.934139 
L 70.559795 171.421109 
L 203.666204 171.421109 
L 203.666204 167.908079 
L 205.471403 167.908079 
L 205.471403 164.39505 
L 207.077737 164.39505 
L 207.077737 160.88202 
L 207.409255 160.88202 
L 207.465615 153.85596 
L 207.761393 153.85596 
L 207.761393 150.342931 
L 207.881725 150.342931 
L 207.988265 143.316871 
L 209.028291 143.316871 
L 209.028291 139.803842 
L 209.352062 139.803842 
L 209.352062 136.290812 
L 209.542647 136.290812 
L 209.542647 132.777782 
L 210.051224 132.777782 
L 210.051224 129.264752 
L 210.199594 129.264752 
L 210.199594 125.751723 
L 210.85032 125.751723 
L 210.85032 122.238693 
L 211.003415 122.238693 
L 211.080483 111.699604 
L 211.317273 111.699604 
L 211.317273 108.186574 
L 211.529046 108.186574 
L 211.600694 101.160515 
L 213.929936 101.160515 
L 213.929936 97.647485 
L 215.260572 97.647485 
L 215.260572 94.134455 
L 216.025336 94.134455 
L 216.034354 87.108396 
L 216.530782 87.108396 
L 216.530782 83.595366 
L 217.888761 83.595366 
L 217.888761 80.082337 
L 218.560457 80.082337 
L 218.656852 73.056277 
L 218.755074 73.056277 
L 218.755074 69.543248 
L 220.177261 69.543248 
L 220.177261 66.030218 
L 222.588596 66.030218 
L 222.588596 62.517188 
L 227.204625 62.517188 
L 227.204625 59.004158 
L 230.748168 59.004158 
L 230.829137 51.978099 
L 233.394806 51.978099 
L 233.394806 48.465069 
L 234.370628 48.465069 
L 234.370628 44.95204 
L 234.99251 44.95204 
L 234.99251 41.43901 
L 236.283773 41.43901 
L 236.283773 37.92598 
L 236.478686 37.92598 
L 236.478686 34.41295 
L 237.470683 34.41295 
L 237.470683 30.899921 
L 237.745379 30.899921 
L 237.745379 27.386891 
L 240.701089 27.386891 
L 240.701089 23.873861 
L 241.486653 23.873861 
L 241.486653 20.360832 
L 242.655663 20.360832 
L 242.655663 16.847802 
L 244.061839 16.847802 
L 244.061839 13.334772 
L 244.061839 13.334772 
L 367.82 13.334772 
L 367.82 13.334772 
" style="fill:none;stroke:#bf00bf;stroke-linecap:square;stroke-width:1.5;"/>
   </g>
   <g id="line2d_29">
    <path clip-path="url(#p4ed5b799bc)" d="M -1 171.421109 
L 10.61381 171.421109 
L 10.61381 118.725663 
L 203.104536 118.725663 
L 203.104536 115.212634 
L 204.998823 115.212634 
L 204.998823 111.699604 
L 206.422028 111.699604 
L 206.422028 108.186574 
L 207.05456 108.186574 
L 207.05456 104.673545 
L 207.2952 104.673545 
L 207.2952 101.160515 
L 207.413044 101.160515 
L 207.413044 97.647485 
L 207.869053 97.647485 
L 207.979402 90.621426 
L 208.814936 90.621426 
L 208.814936 87.108396 
L 209.204303 87.108396 
L 209.298973 80.082337 
L 210.021239 80.082337 
L 210.107416 73.056277 
L 210.846808 73.056277 
L 210.846808 69.543248 
L 211.002877 69.543248 
L 211.079887 59.004158 
L 211.306825 59.004158 
L 211.306825 55.491129 
L 211.528024 55.491129 
L 211.60049 48.465069 
L 213.928472 48.465069 
L 213.928472 44.95204 
L 215.255817 44.95204 
L 215.255817 41.43901 
L 216.025247 41.43901 
L 216.025277 34.41295 
L 216.529993 34.41295 
L 216.529993 30.899921 
L 217.888588 30.899921 
L 217.888588 27.386891 
L 218.560388 27.386891 
L 218.656801 20.360832 
L 218.752168 20.360832 
L 218.752168 16.847802 
L 220.177258 16.847802 
L 220.177258 13.334772 
L 220.177258 13.334772 
L 367.82 13.334772 
L 367.82 13.334772 
" style="fill:none;stroke:#000000;stroke-linecap:square;stroke-width:1.5;"/>
   </g>
   <g id="patch_3">
    <path d="M 10.7 276.812 
L 10.7 10.7 
" style="fill:none;stroke:#000000;stroke-linecap:square;stroke-linejoin:miter;stroke-width:0.8;"/>
   </g>
   <g id="patch_4">
    <path d="M 367.82 276.812 
L 367.82 10.7 
" style="fill:none;stroke:#000000;stroke-linecap:square;stroke-linejoin:miter;stroke-width:0.8;"/>
   </g>
   <g id="patch_5">
    <path d="M 10.7 276.812 
L 367.82 276.812 
" style="fill:none;stroke:#000000;stroke-linecap:square;stroke-linejoin:miter;stroke-width:0.8;"/>
   </g>
   <g id="patch_6">
    <path d="M 10.7 10.7 
L 367.82 10.7 
" style="fill:none;stroke:#000000;stroke-linecap:square;stroke-linejoin:miter;stroke-width:0.8;"/>
   </g>
   <g id="text_6">
    <!-- {f1-f5}, 20-D -->
    <defs>
     <path d="M 51.125 -9.28125 
L 51.125 -16.3125 
L 48.09375 -16.3125 
Q 35.9375 -16.3125 31.8125 -12.6875 
Q 27.6875 -9.078125 27.6875 1.703125 
L 27.6875 13.375 
Q 27.6875 20.75 25.046875 23.578125 
Q 22.40625 26.421875 15.484375 26.421875 
L 12.5 26.421875 
L 12.5 33.40625 
L 15.484375 33.40625 
Q 22.46875 33.40625 25.078125 36.203125 
Q 27.6875 39.015625 27.6875 46.296875 
L 27.6875 58.015625 
Q 27.6875 68.796875 31.8125 72.390625 
Q 35.9375 75.984375 48.09375 75.984375 
L 51.125 75.984375 
L 51.125 69 
L 47.796875 69 
Q 40.921875 69 38.8125 66.84375 
Q 36.71875 64.703125 36.71875 57.8125 
L 36.71875 45.703125 
Q 36.71875 38.03125 34.5 34.5625 
Q 32.28125 31.109375 26.90625 29.890625 
Q 32.328125 28.5625 34.515625 25.09375 
Q 36.71875 21.625 36.71875 14.015625 
L 36.71875 1.90625 
Q 36.71875 -4.984375 38.8125 -7.125 
Q 40.921875 -9.28125 47.796875 -9.28125 
z
" id="DejaVuSans-7b"/>
     <path d="M 10.796875 72.90625 
L 49.515625 72.90625 
L 49.515625 64.59375 
L 19.828125 64.59375 
L 19.828125 46.734375 
Q 21.96875 47.46875 24.109375 47.828125 
Q 26.265625 48.1875 28.421875 48.1875 
Q 40.625 48.1875 47.75 41.5 
Q 54.890625 34.8125 54.890625 23.390625 
Q 54.890625 11.625 47.5625 5.09375 
Q 40.234375 -1.421875 26.90625 -1.421875 
Q 22.3125 -1.421875 17.546875 -0.640625 
Q 12.796875 0.140625 7.71875 1.703125 
L 7.71875 11.625 
Q 12.109375 9.234375 16.796875 8.0625 
Q 21.484375 6.890625 26.703125 6.890625 
Q 35.15625 6.890625 40.078125 11.328125 
Q 45.015625 15.765625 45.015625 23.390625 
Q 45.015625 31 40.078125 35.4375 
Q 35.15625 39.890625 26.703125 39.890625 
Q 22.75 39.890625 18.8125 39.015625 
Q 14.890625 38.140625 10.796875 36.28125 
z
" id="DejaVuSans-35"/>
     <path d="M 12.5 -9.28125 
L 15.921875 -9.28125 
Q 22.75 -9.28125 24.828125 -7.171875 
Q 26.90625 -5.078125 26.90625 1.90625 
L 26.90625 14.015625 
Q 26.90625 21.625 29.09375 25.09375 
Q 31.296875 28.5625 36.71875 29.890625 
Q 31.296875 31.109375 29.09375 34.5625 
Q 26.90625 38.03125 26.90625 45.703125 
L 26.90625 57.8125 
Q 26.90625 64.75 24.828125 66.875 
Q 22.75 69 15.921875 69 
L 12.5 69 
L 12.5 75.984375 
L 15.578125 75.984375 
Q 27.734375 75.984375 31.8125 72.390625 
Q 35.890625 68.796875 35.890625 58.015625 
L 35.890625 46.296875 
Q 35.890625 39.015625 38.515625 36.203125 
Q 41.15625 33.40625 48.09375 33.40625 
L 51.125 33.40625 
L 51.125 26.421875 
L 48.09375 26.421875 
Q 41.15625 26.421875 38.515625 23.578125 
Q 35.890625 20.75 35.890625 13.375 
L 35.890625 1.703125 
Q 35.890625 -9.078125 31.8125 -12.6875 
Q 27.734375 -16.3125 15.578125 -16.3125 
L 12.5 -16.3125 
z
" id="DejaVuSans-7d"/>
     <path d="M 11.71875 12.40625 
L 22.015625 12.40625 
L 22.015625 4 
L 14.015625 -11.625 
L 7.71875 -11.625 
L 11.71875 4 
z
" id="DejaVuSans-2c"/>
     <path d="M 19.1875 8.296875 
L 53.609375 8.296875 
L 53.609375 0 
L 7.328125 0 
L 7.328125 8.296875 
Q 12.9375 14.109375 22.625 23.890625 
Q 32.328125 33.6875 34.8125 36.53125 
Q 39.546875 41.84375 41.421875 45.53125 
Q 43.3125 49.21875 43.3125 52.78125 
Q 43.3125 58.59375 39.234375 62.25 
Q 35.15625 65.921875 28.609375 65.921875 
Q 23.96875 65.921875 18.8125 64.3125 
Q 13.671875 62.703125 7.8125 59.421875 
L 7.8125 69.390625 
Q 13.765625 71.78125 18.9375 73 
Q 24.125 74.21875 28.421875 74.21875 
Q 39.75 74.21875 46.484375 68.546875 
Q 53.21875 62.890625 53.21875 53.421875 
Q 53.21875 48.921875 51.53125 44.890625 
Q 49.859375 40.875 45.40625 35.40625 
Q 44.1875 33.984375 37.640625 27.21875 
Q 31.109375 20.453125 19.1875 8.296875 
z
" id="DejaVuSans-32"/>
    </defs>
    <g transform="translate(227.7026 271.48976)scale(0.2 -0.2)">
     <use xlink:href="#DejaVuSans-7b"/>
     <use x="63.623047" xlink:href="#DejaVuSans-66"/>
     <use x="98.828125" xlink:href="#DejaVuSans-31"/>
     <use x="162.451172" xlink:href="#DejaVuSans-2d"/>
     <use x="198.535156" xlink:href="#DejaVuSans-66"/>
     <use x="233.740234" xlink:href="#DejaVuSans-35"/>
     <use x="297.363281" xlink:href="#DejaVuSans-7d"/>
     <use x="360.986328" xlink:href="#DejaVuSans-2c"/>
     <use x="392.773438" xlink:href="#DejaVuSans-20"/>
     <use x="424.560547" xlink:href="#DejaVuSans-32"/>
     <use x="488.183594" xlink:href="#DejaVuSans-30"/>
     <use x="551.806641" xlink:href="#DejaVuSans-2d"/>
     <use x="587.890625" xlink:href="#DejaVuSans-44"/>
    </g>
   </g>
   <g id="text_7">
    <!-- v2.1 -->
    <defs>
     <path d="M 2.984375 54.6875 
L 12.5 54.6875 
L 29.59375 8.796875 
L 46.6875 54.6875 
L 56.203125 54.6875 
L 35.6875 0 
L 23.484375 0 
z
" id="DejaVuSans-76"/>
     <path d="M 10.6875 12.40625 
L 21 12.40625 
L 21 0 
L 10.6875 0 
z
" id="DejaVuSans-2e"/>
    </defs>
    <g style="fill:#808080;" transform="translate(178.349063 272.071193)scale(0.1 -0.1)">
     <use xlink:href="#DejaVuSans-76"/>
     <use x="59.179688" xlink:href="#DejaVuSans-32"/>
     <use x="122.802734" xlink:href="#DejaVuSans-2e"/>
     <use x="154.589844" xlink:href="#DejaVuSans-31"/>
    </g>
   </g>
  </g>
 </g>
 <defs>
  <clipPath id="p4ed5b799bc">
   <rect height="266.112" width="357.12" x="10.7" y="10.7"/>
  </clipPath>
 </defs>
</svg>
