<?xml version="1.0" encoding="utf-8" standalone="no"?>
<!DOCTYPE svg PUBLIC "-//W3C//DTD SVG 1.1//EN"
  "http://www.w3.org/Graphics/SVG/1.1/DTD/svg11.dtd">
<!-- Created with matplotlib (http://matplotlib.org/) -->
<svg height="333pt" version="1.1" viewBox="0 0 378 333" width="378pt" xmlns="http://www.w3.org/2000/svg" xmlns:xlink="http://www.w3.org/1999/xlink">
 <defs>
  <style type="text/css">
*{stroke-linecap:butt;stroke-linejoin:round;}
  </style>
 </defs>
 <g id="figure_1">
  <g id="patch_1">
   <path d="M 0 333.7245 
L 378.52 333.7245 
L 378.52 0 
L 0 0 
z
" style="fill:#ffffff;"/>
  </g>
  <g id="axes_1">
   <g id="patch_2">
    <path d="M 10.7 276.812 
L 367.82 276.812 
L 367.82 10.7 
L 10.7 10.7 
z
" style="fill:#ffffff;"/>
   </g>
   <g id="matplotlib.axis_1">
    <g id="xtick_1">
     <g id="line2d_1">
      <path clip-path="url(#pa979d72b9f)" d="M 10.61381 276.812 
L 10.61381 10.7 
" style="fill:none;stroke:#b0b0b0;stroke-linecap:square;stroke-width:0.8;"/>
     </g>
     <g id="line2d_2">
      <defs>
       <path d="M 0 0 
L 0 3.5 
" id="mf1763cbdd5" style="stroke:#000000;stroke-width:0.8;"/>
      </defs>
      <g>
       <use style="stroke:#000000;stroke-width:0.8;" x="10.61381" xlink:href="#mf1763cbdd5" y="276.812"/>
      </g>
     </g>
    </g>
    <g id="xtick_2">
     <g id="line2d_3">
      <path clip-path="url(#pa979d72b9f)" d="M 90.394305 276.812 
L 90.394305 10.7 
" style="fill:none;stroke:#b0b0b0;stroke-linecap:square;stroke-width:0.8;"/>
     </g>
     <g id="line2d_4">
      <g>
       <use style="stroke:#000000;stroke-width:0.8;" x="90.394305" xlink:href="#mf1763cbdd5" y="276.812"/>
      </g>
     </g>
     <g id="text_1">
      <!-- -4 -->
      <defs>
       <path d="M 4.890625 31.390625 
L 31.203125 31.390625 
L 31.203125 23.390625 
L 4.890625 23.390625 
z
" id="DejaVuSans-2d"/>
       <path d="M 37.796875 64.3125 
L 12.890625 25.390625 
L 37.796875 25.390625 
z
M 35.203125 72.90625 
L 47.609375 72.90625 
L 47.609375 25.390625 
L 58.015625 25.390625 
L 58.015625 17.1875 
L 47.609375 17.1875 
L 47.609375 0 
L 37.796875 0 
L 37.796875 17.1875 
L 4.890625 17.1875 
L 4.890625 26.703125 
z
" id="DejaVuSans-34"/>
      </defs>
      <g transform="translate(80.423992 299.008875)scale(0.2 -0.2)">
       <use xlink:href="#DejaVuSans-2d"/>
       <use x="36.083984" xlink:href="#DejaVuSans-34"/>
      </g>
     </g>
    </g>
    <g id="xtick_3">
     <g id="line2d_5">
      <path clip-path="url(#pa979d72b9f)" d="M 170.1748 276.812 
L 170.1748 10.7 
" style="fill:none;stroke:#b0b0b0;stroke-linecap:square;stroke-width:0.8;"/>
     </g>
     <g id="line2d_6">
      <g>
       <use style="stroke:#000000;stroke-width:0.8;" x="170.1748" xlink:href="#mf1763cbdd5" y="276.812"/>
      </g>
     </g>
     <g id="text_2">
      <!-- 0 -->
      <defs>
       <path d="M 31.78125 66.40625 
Q 24.171875 66.40625 20.328125 58.90625 
Q 16.5 51.421875 16.5 36.375 
Q 16.5 21.390625 20.328125 13.890625 
Q 24.171875 6.390625 31.78125 6.390625 
Q 39.453125 6.390625 43.28125 13.890625 
Q 47.125 21.390625 47.125 36.375 
Q 47.125 51.421875 43.28125 58.90625 
Q 39.453125 66.40625 31.78125 66.40625 
z
M 31.78125 74.21875 
Q 44.046875 74.21875 50.515625 64.515625 
Q 56.984375 54.828125 56.984375 36.375 
Q 56.984375 17.96875 50.515625 8.265625 
Q 44.046875 -1.421875 31.78125 -1.421875 
Q 19.53125 -1.421875 13.0625 8.265625 
Q 6.59375 17.96875 6.59375 36.375 
Q 6.59375 54.828125 13.0625 64.515625 
Q 19.53125 74.21875 31.78125 74.21875 
z
" id="DejaVuSans-30"/>
      </defs>
      <g transform="translate(163.8123 299.008875)scale(0.2 -0.2)">
       <use xlink:href="#DejaVuSans-30"/>
      </g>
     </g>
    </g>
    <g id="xtick_4">
     <g id="line2d_7">
      <path clip-path="url(#pa979d72b9f)" d="M 249.955295 276.812 
L 249.955295 10.7 
" style="fill:none;stroke:#b0b0b0;stroke-linecap:square;stroke-width:0.8;"/>
     </g>
     <g id="line2d_8">
      <g>
       <use style="stroke:#000000;stroke-width:0.8;" x="249.955295" xlink:href="#mf1763cbdd5" y="276.812"/>
      </g>
     </g>
     <g id="text_3">
      <!-- 4 -->
      <g transform="translate(243.592795 299.008875)scale(0.2 -0.2)">
       <use xlink:href="#DejaVuSans-34"/>
      </g>
     </g>
    </g>
    <g id="xtick_5">
     <g id="line2d_9">
      <path clip-path="url(#pa979d72b9f)" d="M 329.73579 276.812 
L 329.73579 10.7 
" style="fill:none;stroke:#b0b0b0;stroke-linecap:square;stroke-width:0.8;"/>
     </g>
     <g id="line2d_10">
      <g>
       <use style="stroke:#000000;stroke-width:0.8;" x="329.73579" xlink:href="#mf1763cbdd5" y="276.812"/>
      </g>
     </g>
     <g id="text_4">
      <!-- 8 -->
      <defs>
       <path d="M 31.78125 34.625 
Q 24.75 34.625 20.71875 30.859375 
Q 16.703125 27.09375 16.703125 20.515625 
Q 16.703125 13.921875 20.71875 10.15625 
Q 24.75 6.390625 31.78125 6.390625 
Q 38.8125 6.390625 42.859375 10.171875 
Q 46.921875 13.96875 46.921875 20.515625 
Q 46.921875 27.09375 42.890625 30.859375 
Q 38.875 34.625 31.78125 34.625 
z
M 21.921875 38.8125 
Q 15.578125 40.375 12.03125 44.71875 
Q 8.5 49.078125 8.5 55.328125 
Q 8.5 64.0625 14.71875 69.140625 
Q 20.953125 74.21875 31.78125 74.21875 
Q 42.671875 74.21875 48.875 69.140625 
Q 55.078125 64.0625 55.078125 55.328125 
Q 55.078125 49.078125 51.53125 44.71875 
Q 48 40.375 41.703125 38.8125 
Q 48.828125 37.15625 52.796875 32.3125 
Q 56.78125 27.484375 56.78125 20.515625 
Q 56.78125 9.90625 50.3125 4.234375 
Q 43.84375 -1.421875 31.78125 -1.421875 
Q 19.734375 -1.421875 13.25 4.234375 
Q 6.78125 9.90625 6.78125 20.515625 
Q 6.78125 27.484375 10.78125 32.3125 
Q 14.796875 37.15625 21.921875 38.8125 
z
M 18.3125 54.390625 
Q 18.3125 48.734375 21.84375 45.5625 
Q 25.390625 42.390625 31.78125 42.390625 
Q 38.140625 42.390625 41.71875 45.5625 
Q 45.3125 48.734375 45.3125 54.390625 
Q 45.3125 60.0625 41.71875 63.234375 
Q 38.140625 66.40625 31.78125 66.40625 
Q 25.390625 66.40625 21.84375 63.234375 
Q 18.3125 60.0625 18.3125 54.390625 
z
" id="DejaVuSans-38"/>
      </defs>
      <g transform="translate(323.37329 299.008875)scale(0.2 -0.2)">
       <use xlink:href="#DejaVuSans-38"/>
      </g>
     </g>
    </g>
    <g id="text_5">
     <!-- log10 of Df -->
     <defs>
      <path d="M 9.421875 75.984375 
L 18.40625 75.984375 
L 18.40625 0 
L 9.421875 0 
z
" id="DejaVuSans-6c"/>
      <path d="M 30.609375 48.390625 
Q 23.390625 48.390625 19.1875 42.75 
Q 14.984375 37.109375 14.984375 27.296875 
Q 14.984375 17.484375 19.15625 11.84375 
Q 23.34375 6.203125 30.609375 6.203125 
Q 37.796875 6.203125 41.984375 11.859375 
Q 46.1875 17.53125 46.1875 27.296875 
Q 46.1875 37.015625 41.984375 42.703125 
Q 37.796875 48.390625 30.609375 48.390625 
z
M 30.609375 56 
Q 42.328125 56 49.015625 48.375 
Q 55.71875 40.765625 55.71875 27.296875 
Q 55.71875 13.875 49.015625 6.21875 
Q 42.328125 -1.421875 30.609375 -1.421875 
Q 18.84375 -1.421875 12.171875 6.21875 
Q 5.515625 13.875 5.515625 27.296875 
Q 5.515625 40.765625 12.171875 48.375 
Q 18.84375 56 30.609375 56 
z
" id="DejaVuSans-6f"/>
      <path d="M 45.40625 27.984375 
Q 45.40625 37.75 41.375 43.109375 
Q 37.359375 48.484375 30.078125 48.484375 
Q 22.859375 48.484375 18.828125 43.109375 
Q 14.796875 37.75 14.796875 27.984375 
Q 14.796875 18.265625 18.828125 12.890625 
Q 22.859375 7.515625 30.078125 7.515625 
Q 37.359375 7.515625 41.375 12.890625 
Q 45.40625 18.265625 45.40625 27.984375 
z
M 54.390625 6.78125 
Q 54.390625 -7.171875 48.1875 -13.984375 
Q 42 -20.796875 29.203125 -20.796875 
Q 24.46875 -20.796875 20.265625 -20.09375 
Q 16.0625 -19.390625 12.109375 -17.921875 
L 12.109375 -9.1875 
Q 16.0625 -11.328125 19.921875 -12.34375 
Q 23.78125 -13.375 27.78125 -13.375 
Q 36.625 -13.375 41.015625 -8.765625 
Q 45.40625 -4.15625 45.40625 5.171875 
L 45.40625 9.625 
Q 42.625 4.78125 38.28125 2.390625 
Q 33.9375 0 27.875 0 
Q 17.828125 0 11.671875 7.65625 
Q 5.515625 15.328125 5.515625 27.984375 
Q 5.515625 40.671875 11.671875 48.328125 
Q 17.828125 56 27.875 56 
Q 33.9375 56 38.28125 53.609375 
Q 42.625 51.21875 45.40625 46.390625 
L 45.40625 54.6875 
L 54.390625 54.6875 
z
" id="DejaVuSans-67"/>
      <path d="M 12.40625 8.296875 
L 28.515625 8.296875 
L 28.515625 63.921875 
L 10.984375 60.40625 
L 10.984375 69.390625 
L 28.421875 72.90625 
L 38.28125 72.90625 
L 38.28125 8.296875 
L 54.390625 8.296875 
L 54.390625 0 
L 12.40625 0 
z
" id="DejaVuSans-31"/>
      <path id="DejaVuSans-20"/>
      <path d="M 37.109375 75.984375 
L 37.109375 68.5 
L 28.515625 68.5 
Q 23.6875 68.5 21.796875 66.546875 
Q 19.921875 64.59375 19.921875 59.515625 
L 19.921875 54.6875 
L 34.71875 54.6875 
L 34.71875 47.703125 
L 19.921875 47.703125 
L 19.921875 0 
L 10.890625 0 
L 10.890625 47.703125 
L 2.296875 47.703125 
L 2.296875 54.6875 
L 10.890625 54.6875 
L 10.890625 58.5 
Q 10.890625 67.625 15.140625 71.796875 
Q 19.390625 75.984375 28.609375 75.984375 
z
" id="DejaVuSans-66"/>
      <path d="M 19.671875 64.796875 
L 19.671875 8.109375 
L 31.59375 8.109375 
Q 46.6875 8.109375 53.6875 14.9375 
Q 60.6875 21.78125 60.6875 36.53125 
Q 60.6875 51.171875 53.6875 57.984375 
Q 46.6875 64.796875 31.59375 64.796875 
z
M 9.8125 72.90625 
L 30.078125 72.90625 
Q 51.265625 72.90625 61.171875 64.09375 
Q 71.09375 55.28125 71.09375 36.53125 
Q 71.09375 17.671875 61.125 8.828125 
Q 51.171875 0 30.078125 0 
L 9.8125 0 
z
" id="DejaVuSans-44"/>
     </defs>
     <g transform="translate(134.074063 322.365125)scale(0.2 -0.2)">
      <use xlink:href="#DejaVuSans-6c"/>
      <use x="27.783203" xlink:href="#DejaVuSans-6f"/>
      <use x="88.964844" xlink:href="#DejaVuSans-67"/>
      <use x="152.441406" xlink:href="#DejaVuSans-31"/>
      <use x="216.064453" xlink:href="#DejaVuSans-30"/>
      <use x="279.6875" xlink:href="#DejaVuSans-20"/>
      <use x="311.474609" xlink:href="#DejaVuSans-6f"/>
      <use x="372.65625" xlink:href="#DejaVuSans-66"/>
      <use x="407.861328" xlink:href="#DejaVuSans-20"/>
      <use x="439.648438" xlink:href="#DejaVuSans-44"/>
      <use x="516.650391" xlink:href="#DejaVuSans-66"/>
     </g>
    </g>
   </g>
   <g id="matplotlib.axis_2">
    <g id="ytick_1">
     <g id="line2d_11">
      <path clip-path="url(#pa979d72b9f)" d="M 10.7 276.812 
L 367.82 276.812 
" style="fill:none;stroke:#b0b0b0;stroke-linecap:square;stroke-width:0.8;"/>
     </g>
     <g id="line2d_12">
      <defs>
       <path d="M 0 0 
L -3.5 0 
" id="md055e14629" style="stroke:#000000;stroke-width:0.8;"/>
      </defs>
      <g>
       <use style="stroke:#000000;stroke-width:0.8;" x="10.7" xlink:href="#md055e14629" y="276.812"/>
      </g>
     </g>
    </g>
    <g id="ytick_2">
     <g id="line2d_13">
      <path clip-path="url(#pa979d72b9f)" d="M 10.7 224.116554 
L 367.82 224.116554 
" style="fill:none;stroke:#b0b0b0;stroke-linecap:square;stroke-width:0.8;"/>
     </g>
     <g id="line2d_14">
      <g>
       <use style="stroke:#000000;stroke-width:0.8;" x="10.7" xlink:href="#md055e14629" y="224.116554"/>
      </g>
     </g>
    </g>
    <g id="ytick_3">
     <g id="line2d_15">
      <path clip-path="url(#pa979d72b9f)" d="M 10.7 171.421109 
L 367.82 171.421109 
" style="fill:none;stroke:#b0b0b0;stroke-linecap:square;stroke-width:0.8;"/>
     </g>
     <g id="line2d_16">
      <g>
       <use style="stroke:#000000;stroke-width:0.8;" x="10.7" xlink:href="#md055e14629" y="171.421109"/>
      </g>
     </g>
    </g>
    <g id="ytick_4">
     <g id="line2d_17">
      <path clip-path="url(#pa979d72b9f)" d="M 10.7 118.725663 
L 367.82 118.725663 
" style="fill:none;stroke:#b0b0b0;stroke-linecap:square;stroke-width:0.8;"/>
     </g>
     <g id="line2d_18">
      <g>
       <use style="stroke:#000000;stroke-width:0.8;" x="10.7" xlink:href="#md055e14629" y="118.725663"/>
      </g>
     </g>
    </g>
    <g id="ytick_5">
     <g id="line2d_19">
      <path clip-path="url(#pa979d72b9f)" d="M 10.7 66.030218 
L 367.82 66.030218 
" style="fill:none;stroke:#b0b0b0;stroke-linecap:square;stroke-width:0.8;"/>
     </g>
     <g id="line2d_20">
      <g>
       <use style="stroke:#000000;stroke-width:0.8;" x="10.7" xlink:href="#md055e14629" y="66.030218"/>
      </g>
     </g>
    </g>
    <g id="ytick_6">
     <g id="line2d_21">
      <path clip-path="url(#pa979d72b9f)" d="M 10.7 13.334772 
L 367.82 13.334772 
" style="fill:none;stroke:#b0b0b0;stroke-linecap:square;stroke-width:0.8;"/>
     </g>
     <g id="line2d_22">
      <g>
       <use style="stroke:#000000;stroke-width:0.8;" x="10.7" xlink:href="#md055e14629" y="13.334772"/>
      </g>
     </g>
    </g>
   </g>
   <g id="line2d_23">
    <path clip-path="url(#pa979d72b9f)" d="M 152.804962 276.812 
L 152.804962 273.29897 
L 158.179579 273.29897 
L 158.179579 220.603525 
L 161.556137 220.603525 
L 161.556137 217.090495 
L 165.895103 217.090495 
L 165.895103 213.577465 
L 168.427552 213.577465 
L 168.427552 210.064436 
L 169.920829 210.064436 
L 169.920829 206.551406 
L 171.125842 206.551406 
L 171.125842 203.038376 
L 174.590265 203.038376 
L 174.590265 199.525347 
L 175.548858 199.525347 
L 175.548858 196.012317 
L 178.644605 196.012317 
L 178.699921 188.986257 
L 178.844263 188.986257 
L 178.927966 181.960198 
L 179.654289 181.960198 
L 179.746929 174.934139 
L 180.194521 174.934139 
L 180.194521 171.421109 
L 181.360016 171.421109 
L 181.360016 167.908079 
L 183.47002 167.908079 
L 183.47002 164.39505 
L 184.075752 164.39505 
L 184.075752 160.88202 
L 184.666745 160.88202 
L 184.666745 157.36899 
L 184.797009 157.36899 
L 184.797009 153.85596 
L 185.006771 153.85596 
L 185.067449 143.316871 
L 185.315334 143.316871 
L 185.315334 139.803842 
L 185.678315 139.803842 
L 185.679346 132.777782 
L 186.349372 132.777782 
L 186.404574 125.751723 
L 187.678467 125.751723 
L 187.678467 122.238693 
L 187.797026 122.238693 
L 187.797026 118.725663 
L 188.22896 118.725663 
L 188.22896 115.212634 
L 188.395562 115.212634 
L 188.395562 111.699604 
L 189.428262 111.699604 
L 189.428262 108.186574 
L 191.126783 108.186574 
L 191.126783 104.673545 
L 191.450164 104.673545 
L 191.450164 101.160515 
L 192.009618 101.160515 
L 192.010206 94.134455 
L 192.560097 94.134455 
L 192.560097 90.621426 
L 193.204045 90.621426 
L 193.204045 87.108396 
L 193.417711 87.108396 
L 193.492969 80.082337 
L 194.641363 80.082337 
L 194.641363 76.569307 
L 195.170466 76.569307 
L 195.170466 73.056277 
L 197.685294 73.056277 
L 197.685294 69.543248 
L 198.48498 69.543248 
L 198.48498 66.030218 
L 198.679737 66.030218 
L 198.679737 62.517188 
L 200.676549 62.517188 
L 200.676549 59.004158 
L 202.506916 59.004158 
L 202.506916 55.491129 
L 204.356878 55.491129 
L 204.356878 51.978099 
L 205.739605 51.978099 
L 205.739605 48.465069 
L 206.28978 48.465069 
L 206.28978 44.95204 
L 206.422017 44.95204 
L 206.422017 41.43901 
L 206.552267 41.43901 
L 206.552267 37.92598 
L 206.680606 37.92598 
L 206.680606 34.41295 
L 207.295189 34.41295 
L 207.295189 30.899921 
L 207.529314 30.899921 
L 207.529314 27.386891 
L 208.30225 27.386891 
L 208.407229 20.360832 
L 208.510985 20.360832 
L 208.510985 16.847802 
L 211.814393 16.847802 
L 211.814393 13.334772 
L 211.814393 13.334772 
L 367.82 13.334772 
L 367.82 13.334772 
" style="fill:none;stroke:#ff0000;stroke-linecap:square;stroke-width:3;"/>
   </g>
   <g id="line2d_24">
    <path clip-path="url(#pa979d72b9f)" d="M 158.179579 276.812 
L 158.179579 273.29897 
L 158.179579 273.29897 
L 158.179579 273.29897 
L 158.179579 269.785941 
L 158.179579 269.785941 
L 158.179579 269.785941 
L 158.179579 266.272911 
L 158.179579 266.272911 
L 158.179579 266.272911 
L 158.179579 262.759881 
L 158.179579 262.759881 
L 158.179579 262.759881 
L 158.179579 259.246851 
L 158.179579 259.246851 
L 158.179579 259.246851 
L 158.179579 255.733822 
L 158.179579 255.733822 
L 158.179579 255.733822 
L 158.179579 252.220792 
L 158.179579 252.220792 
L 158.179579 252.220792 
L 158.179579 248.707762 
L 158.179579 248.707762 
L 158.179579 248.707762 
L 158.179579 245.194733 
L 158.179579 245.194733 
L 158.179579 245.194733 
L 158.179579 241.681703 
L 158.179579 241.681703 
L 158.179579 241.681703 
L 158.179579 238.168673 
L 158.179579 238.168673 
L 158.179579 238.168673 
L 158.179579 234.655644 
L 158.179579 234.655644 
L 158.179579 234.655644 
L 158.179579 231.142614 
L 158.179579 231.142614 
L 158.179579 231.142614 
L 158.179579 227.629584 
L 158.179579 227.629584 
L 158.179579 227.629584 
L 158.179579 224.116554 
L 189.230902 224.116554 
L 189.29056 217.090495 
L 189.748344 217.090495 
L 189.748344 213.577465 
L 190.576737 213.577465 
L 190.576737 210.064436 
L 191.188783 210.064436 
L 191.188783 206.551406 
L 191.763783 206.551406 
L 191.860461 199.525347 
L 192.11367 199.525347 
L 192.130667 192.499287 
L 192.227204 192.499287 
L 192.227204 188.986257 
L 194.855508 188.986257 
L 194.855508 185.473228 
L 196.232237 185.473228 
L 196.232237 181.960198 
L 199.183138 181.960198 
L 199.183138 178.447168 
L 201.092851 178.447168 
L 201.146439 167.908079 
L 201.502142 167.908079 
L 201.502142 164.39505 
L 201.797178 164.39505 
L 201.852921 153.85596 
L 203.000933 153.85596 
L 203.000933 150.342931 
L 203.178392 150.342931 
L 203.198651 143.316871 
L 203.569583 143.316871 
L 203.569583 139.803842 
L 203.722599 139.803842 
L 203.770064 129.264752 
L 204.293261 129.264752 
L 204.359982 122.238693 
L 204.530274 122.238693 
L 204.612552 115.212634 
L 204.676448 115.212634 
L 204.761657 104.673545 
L 204.860679 104.673545 
L 204.860679 101.160515 
L 205.482179 101.160515 
L 205.515901 94.134455 
L 206.15021 94.134455 
L 206.15021 90.621426 
L 206.32323 90.621426 
L 206.32323 87.108396 
L 206.802491 87.108396 
L 206.802491 83.595366 
L 207.423172 83.595366 
L 207.423172 80.082337 
L 208.152814 80.082337 
L 208.152814 76.569307 
L 209.136451 76.569307 
L 209.136451 73.056277 
L 212.905832 73.056277 
L 212.905832 69.543248 
L 214.372867 69.543248 
L 214.372867 66.030218 
L 224.647459 66.030218 
L 224.647459 62.517188 
L 225.44248 62.517188 
L 225.44248 59.004158 
L 225.819191 59.004158 
L 225.819191 55.491129 
L 226.249014 55.491129 
L 226.276769 48.465069 
L 226.539025 48.465069 
L 226.616232 41.43901 
L 226.760986 41.43901 
L 226.845384 34.41295 
L 227.01747 34.41295 
L 227.01747 30.899921 
L 227.613925 30.899921 
L 227.613925 27.386891 
L 228.360061 27.386891 
L 228.360061 23.873861 
L 228.638809 23.873861 
L 228.638809 20.360832 
L 229.084197 20.360832 
L 229.084197 16.847802 
L 231.097827 16.847802 
L 231.097827 13.334772 
L 231.097827 13.334772 
L 367.82 13.334772 
L 367.82 13.334772 
" style="fill:none;stroke:#00bfbf;stroke-linecap:square;stroke-width:1.5;"/>
   </g>
   <g id="line2d_25">
    <path clip-path="url(#pa979d72b9f)" d="M 158.179579 276.812 
L 158.179579 273.29897 
L 158.179579 273.29897 
L 158.179579 273.29897 
L 158.179579 269.785941 
L 158.179579 269.785941 
L 158.179579 269.785941 
L 158.179579 266.272911 
L 158.179579 266.272911 
L 158.179579 266.272911 
L 158.179579 262.759881 
L 158.179579 262.759881 
L 158.179579 262.759881 
L 158.179579 259.246851 
L 158.179579 259.246851 
L 158.179579 259.246851 
L 158.179579 255.733822 
L 158.179579 255.733822 
L 158.179579 255.733822 
L 158.179579 252.220792 
L 158.179579 252.220792 
L 158.179579 252.220792 
L 158.179579 248.707762 
L 158.179579 248.707762 
L 158.179579 248.707762 
L 158.179579 245.194733 
L 158.179579 245.194733 
L 158.179579 245.194733 
L 158.179579 241.681703 
L 158.179579 241.681703 
L 158.179579 241.681703 
L 158.179579 238.168673 
L 158.179579 238.168673 
L 158.179579 238.168673 
L 158.179579 234.655644 
L 158.179579 234.655644 
L 158.179579 234.655644 
L 158.179579 231.142614 
L 158.179579 231.142614 
L 158.179579 231.142614 
L 158.179579 227.629584 
L 158.179579 227.629584 
L 158.179579 227.629584 
L 158.179579 224.116554 
L 189.230902 224.116554 
L 189.246193 217.090495 
L 189.740214 217.090495 
L 189.832859 210.064436 
L 190.563161 210.064436 
L 190.576737 203.038376 
L 190.684723 203.038376 
L 190.684723 199.525347 
L 191.714009 199.525347 
L 191.763783 192.499287 
L 192.130667 192.499287 
L 192.130667 188.986257 
L 193.09789 188.986257 
L 193.09789 185.473228 
L 195.428502 185.473228 
L 195.428502 181.960198 
L 197.406431 181.960198 
L 197.406431 178.447168 
L 199.631065 178.447168 
L 199.631065 174.934139 
L 199.747416 174.934139 
L 199.780405 167.908079 
L 200.506543 167.908079 
L 200.506543 164.39505 
L 201.146439 164.39505 
L 201.146439 160.88202 
L 201.280755 160.88202 
L 201.323045 153.85596 
L 201.401159 153.85596 
L 201.401159 150.342931 
L 201.799295 150.342931 
L 201.799295 146.829901 
L 202.114282 146.829901 
L 202.114282 143.316871 
L 202.274944 143.316871 
L 202.275166 136.290812 
L 202.576582 136.290812 
L 202.58324 129.264752 
L 202.951613 129.264752 
L 203.000933 122.238693 
L 203.1567 122.238693 
L 203.198651 115.212634 
L 203.489914 115.212634 
L 203.569583 108.186574 
L 203.933731 108.186574 
L 203.933731 104.673545 
L 204.05839 104.673545 
L 204.157076 97.647485 
L 204.286076 97.647485 
L 204.286076 94.134455 
L 205.065454 94.134455 
L 205.065454 90.621426 
L 205.485012 90.621426 
L 205.485012 87.108396 
L 205.630172 87.108396 
L 205.630172 83.595366 
L 205.747398 83.595366 
L 205.747398 80.082337 
L 206.321143 80.082337 
L 206.321143 76.569307 
L 208.872123 76.569307 
L 208.872123 73.056277 
L 212.235437 73.056277 
L 212.235437 69.543248 
L 214.15292 69.543248 
L 214.15292 66.030218 
L 224.341287 66.030218 
L 224.341287 62.517188 
L 225.260886 62.517188 
L 225.260886 59.004158 
L 225.411677 59.004158 
L 225.491742 51.978099 
L 225.635947 51.978099 
L 225.635947 48.465069 
L 225.750298 48.465069 
L 225.792233 41.43901 
L 226.080015 41.43901 
L 226.080015 37.92598 
L 226.337309 37.92598 
L 226.337309 34.41295 
L 227.01747 34.41295 
L 227.072858 27.386891 
L 227.883628 27.386891 
L 227.900236 20.360832 
L 228.678954 20.360832 
L 228.678954 16.847802 
L 229.462879 16.847802 
L 229.462879 13.334772 
L 229.462879 13.334772 
L 367.82 13.334772 
L 367.82 13.334772 
" style="fill:none;stroke:#bf00bf;stroke-linecap:square;stroke-width:1.5;"/>
   </g>
   <g id="line2d_26">
    <path clip-path="url(#pa979d72b9f)" d="M 158.179579 276.812 
L 158.179579 273.29897 
L 158.179579 273.29897 
L 158.179579 273.29897 
L 158.179579 269.785941 
L 158.179579 269.785941 
L 158.179579 269.785941 
L 158.179579 266.272911 
L 158.179579 266.272911 
L 158.179579 266.272911 
L 158.179579 262.759881 
L 158.179579 262.759881 
L 158.179579 262.759881 
L 158.179579 259.246851 
L 158.179579 259.246851 
L 158.179579 259.246851 
L 158.179579 255.733822 
L 158.179579 255.733822 
L 158.179579 255.733822 
L 158.179579 252.220792 
L 158.179579 252.220792 
L 158.179579 252.220792 
L 158.179579 248.707762 
L 158.179579 248.707762 
L 158.179579 248.707762 
L 158.179579 245.194733 
L 158.179579 245.194733 
L 158.179579 245.194733 
L 158.179579 241.681703 
L 158.179579 241.681703 
L 158.179579 241.681703 
L 158.179579 238.168673 
L 158.179579 238.168673 
L 158.179579 238.168673 
L 158.179579 234.655644 
L 158.179579 234.655644 
L 158.179579 234.655644 
L 158.179579 231.142614 
L 158.179579 231.142614 
L 158.179579 231.142614 
L 158.179579 227.629584 
L 158.179579 227.629584 
L 158.179579 227.629584 
L 158.179579 224.116554 
L 187.323619 224.116554 
L 187.323619 220.603525 
L 188.676396 220.603525 
L 188.676396 217.090495 
L 188.889283 217.090495 
L 188.889283 213.577465 
L 189.246193 213.577465 
L 189.246193 210.064436 
L 189.818198 210.064436 
L 189.818198 206.551406 
L 190.270749 206.551406 
L 190.270749 203.038376 
L 190.576737 203.038376 
L 190.576737 199.525347 
L 190.983389 199.525347 
L 190.983389 196.012317 
L 191.350315 196.012317 
L 191.350315 192.499287 
L 191.476125 192.499287 
L 191.476125 188.986257 
L 192.748798 188.986257 
L 192.748798 185.473228 
L 195.156442 185.473228 
L 195.156442 181.960198 
L 196.107751 181.960198 
L 196.107751 178.447168 
L 196.446052 178.447168 
L 196.446052 174.934139 
L 197.406431 174.934139 
L 197.406431 171.421109 
L 198.193488 171.421109 
L 198.193488 167.908079 
L 198.569171 167.908079 
L 198.569171 164.39505 
L 199.619226 164.39505 
L 199.619226 160.88202 
L 199.754999 160.88202 
L 199.754999 157.36899 
L 200.457422 157.36899 
L 200.514399 146.829901 
L 200.576997 146.829901 
L 200.619842 139.803842 
L 200.813741 139.803842 
L 200.813741 136.290812 
L 201.241908 136.290812 
L 201.241908 132.777782 
L 201.715092 132.777782 
L 201.715092 129.264752 
L 201.878946 129.264752 
L 201.878946 125.751723 
L 202.06233 125.751723 
L 202.06233 122.238693 
L 202.266032 122.238693 
L 202.322627 111.699604 
L 202.503015 111.699604 
L 202.588344 101.160515 
L 202.821358 101.160515 
L 202.821358 97.647485 
L 202.944879 97.647485 
L 203.048346 90.621426 
L 203.135341 90.621426 
L 203.135341 87.108396 
L 203.423363 87.108396 
L 203.423363 83.595366 
L 204.435008 83.595366 
L 204.435008 80.082337 
L 205.248634 80.082337 
L 205.248634 76.569307 
L 206.77721 76.569307 
L 206.77721 73.056277 
L 208.940644 73.056277 
L 208.940644 69.543248 
L 211.139352 69.543248 
L 211.139352 66.030218 
L 223.480472 66.030218 
L 223.480472 62.517188 
L 223.637884 62.517188 
L 223.713621 55.491129 
L 224.100569 55.491129 
L 224.100569 51.978099 
L 224.384689 51.978099 
L 224.384689 48.465069 
L 224.50441 48.465069 
L 224.508648 41.43901 
L 224.960006 41.43901 
L 224.960006 37.92598 
L 225.343201 37.92598 
L 225.343201 34.41295 
L 225.52407 34.41295 
L 225.52407 30.899921 
L 225.892274 30.899921 
L 225.892274 27.386891 
L 226.024475 27.386891 
L 226.024475 23.873861 
L 226.993095 23.873861 
L 226.993095 20.360832 
L 227.691036 20.360832 
L 227.691036 16.847802 
L 228.87712 16.847802 
L 228.87712 13.334772 
L 228.87712 13.334772 
L 367.82 13.334772 
L 367.82 13.334772 
" style="fill:none;stroke:#000000;stroke-linecap:square;stroke-width:1.5;"/>
   </g>
   <g id="line2d_27">
    <path clip-path="url(#pa979d72b9f)" d="M 158.179579 276.812 
L 158.179579 273.29897 
L 158.179579 273.29897 
L 158.179579 273.29897 
L 158.179579 269.785941 
L 158.179579 269.785941 
L 158.179579 269.785941 
L 158.179579 266.272911 
L 158.179579 266.272911 
L 158.179579 266.272911 
L 158.179579 262.759881 
L 158.179579 262.759881 
L 158.179579 262.759881 
L 158.179579 259.246851 
L 158.179579 259.246851 
L 158.179579 259.246851 
L 158.179579 255.733822 
L 158.179579 255.733822 
L 158.179579 255.733822 
L 158.179579 252.220792 
L 158.179579 252.220792 
L 158.179579 252.220792 
L 158.179579 248.707762 
L 158.179579 248.707762 
L 158.179579 248.707762 
L 158.179579 245.194733 
L 158.179579 245.194733 
L 158.179579 245.194733 
L 158.179579 241.681703 
L 158.179579 241.681703 
L 158.179579 241.681703 
L 158.179579 238.168673 
L 158.179579 238.168673 
L 158.179579 238.168673 
L 158.179579 234.655644 
L 158.179579 234.655644 
L 158.179579 234.655644 
L 158.179579 231.142614 
L 158.179579 231.142614 
L 158.179579 231.142614 
L 158.179579 227.629584 
L 158.179579 227.629584 
L 158.179579 227.629584 
L 158.179579 224.116554 
L 184.264098 224.116554 
L 184.264098 220.603525 
L 187.289967 220.603525 
L 187.289967 217.090495 
L 187.612829 217.090495 
L 187.614529 210.064436 
L 188.046121 210.064436 
L 188.046121 206.551406 
L 188.169496 206.551406 
L 188.236045 199.525347 
L 188.508734 199.525347 
L 188.508734 196.012317 
L 188.676396 196.012317 
L 188.676396 192.499287 
L 189.036966 192.499287 
L 189.099211 181.960198 
L 189.792727 181.960198 
L 189.792727 178.447168 
L 192.547205 178.447168 
L 192.547205 174.934139 
L 192.967101 174.934139 
L 192.967101 171.421109 
L 193.709428 171.421109 
L 193.709428 167.908079 
L 194.509685 167.908079 
L 194.509685 164.39505 
L 195.74068 164.39505 
L 195.74068 160.88202 
L 195.881372 160.88202 
L 195.881372 157.36899 
L 196.332418 157.36899 
L 196.332418 153.85596 
L 196.47913 153.85596 
L 196.47913 150.342931 
L 196.755424 150.342931 
L 196.755424 146.829901 
L 197.406431 146.829901 
L 197.502281 136.290812 
L 197.553143 136.290812 
L 197.61052 129.264752 
L 197.738935 129.264752 
L 197.739395 122.238693 
L 198.193488 122.238693 
L 198.193488 118.725663 
L 198.398281 118.725663 
L 198.398281 115.212634 
L 198.855271 115.212634 
L 198.855271 111.699604 
L 200.556716 111.699604 
L 200.556716 108.186574 
L 200.668588 108.186574 
L 200.748618 97.647485 
L 200.823548 97.647485 
L 200.823548 94.134455 
L 201.397558 94.134455 
L 201.397558 90.621426 
L 201.631524 90.621426 
L 201.715092 83.595366 
L 201.900701 83.595366 
L 201.900701 80.082337 
L 202.089615 80.082337 
L 202.089615 76.569307 
L 202.258639 76.569307 
L 202.258639 73.056277 
L 202.384858 73.056277 
L 202.384858 69.543248 
L 206.24562 69.543248 
L 206.24562 66.030218 
L 219.751363 66.030218 
L 219.751363 62.517188 
L 220.024333 62.517188 
L 220.024333 59.004158 
L 220.321095 59.004158 
L 220.321095 55.491129 
L 220.437131 55.491129 
L 220.437131 51.978099 
L 220.73316 51.978099 
L 220.807597 44.95204 
L 221.041407 44.95204 
L 221.041407 41.43901 
L 221.443718 41.43901 
L 221.482866 34.41295 
L 221.696461 34.41295 
L 221.696461 30.899921 
L 221.884493 30.899921 
L 221.884493 27.386891 
L 222.654666 27.386891 
L 222.654666 23.873861 
L 223.378717 23.873861 
L 223.480947 16.847802 
L 223.536252 16.847802 
L 223.536252 13.334772 
L 223.536252 13.334772 
L 367.82 13.334772 
L 367.82 13.334772 
" style="fill:none;stroke:#00bfbf;stroke-linecap:square;stroke-width:1.5;"/>
   </g>
   <g id="line2d_28">
    <path clip-path="url(#pa979d72b9f)" d="M 155.525951 276.812 
L 155.525951 273.29897 
L 158.179579 273.29897 
L 158.179579 220.603525 
L 166.129149 220.603525 
L 166.129149 217.090495 
L 172.124989 217.090495 
L 172.124989 213.577465 
L 174.416801 213.577465 
L 174.416801 210.064436 
L 175.277207 210.064436 
L 175.277207 206.551406 
L 177.099448 206.551406 
L 177.099448 203.038376 
L 177.598889 203.038376 
L 177.598889 199.525347 
L 178.398254 199.525347 
L 178.398254 196.012317 
L 178.968648 196.012317 
L 179.001579 188.986257 
L 179.097172 188.986257 
L 179.172396 181.960198 
L 180.759292 181.960198 
L 180.759292 178.447168 
L 181.060905 178.447168 
L 181.060905 174.934139 
L 182.264408 174.934139 
L 182.264408 171.421109 
L 182.536467 171.421109 
L 182.536467 167.908079 
L 184.379356 167.908079 
L 184.379356 164.39505 
L 184.723891 164.39505 
L 184.781334 157.36899 
L 185.15856 157.36899 
L 185.226228 150.342931 
L 185.631954 150.342931 
L 185.631954 146.829901 
L 185.745934 146.829901 
L 185.745934 143.316871 
L 186.160289 143.316871 
L 186.160289 139.803842 
L 186.430539 139.803842 
L 186.430539 136.290812 
L 186.600323 136.290812 
L 186.600323 132.777782 
L 187.23427 132.777782 
L 187.23427 129.264752 
L 188.172121 129.264752 
L 188.172121 125.751723 
L 188.343652 125.751723 
L 188.437216 118.725663 
L 188.714944 118.725663 
L 188.714944 115.212634 
L 188.882489 115.212634 
L 188.882489 111.699604 
L 190.007284 111.699604 
L 190.007284 108.186574 
L 191.99463 108.186574 
L 191.99463 104.673545 
L 192.330572 104.673545 
L 192.330572 101.160515 
L 192.542442 101.160515 
L 192.542442 97.647485 
L 192.855554 97.647485 
L 192.855554 94.134455 
L 193.263723 94.134455 
L 193.263723 90.621426 
L 193.827118 90.621426 
L 193.876143 83.595366 
L 195.141825 83.595366 
L 195.141825 80.082337 
L 195.29965 80.082337 
L 195.355092 73.056277 
L 198.098561 73.056277 
L 198.098561 69.543248 
L 198.577605 69.543248 
L 198.577605 66.030218 
L 204.722922 66.030218 
L 204.722922 62.517188 
L 206.823283 62.517188 
L 206.823283 59.004158 
L 207.448434 59.004158 
L 207.558087 48.465069 
L 208.159065 48.465069 
L 208.159065 44.95204 
L 208.8608 44.95204 
L 208.8608 41.43901 
L 211.097508 41.43901 
L 211.097508 37.92598 
L 211.842014 37.92598 
L 211.842014 34.41295 
L 211.959112 34.41295 
L 211.959112 30.899921 
L 212.627208 30.899921 
L 212.627208 27.386891 
L 212.940665 27.386891 
L 212.940665 23.873861 
L 213.703277 23.873861 
L 213.703277 20.360832 
L 214.180168 20.360832 
L 214.180168 16.847802 
L 214.405687 16.847802 
L 214.405687 13.334772 
L 214.405687 13.334772 
L 367.82 13.334772 
L 367.82 13.334772 
" style="fill:none;stroke:#bf00bf;stroke-linecap:square;stroke-width:1.5;"/>
   </g>
   <g id="line2d_29">
    <path clip-path="url(#pa979d72b9f)" d="M 152.804964 276.812 
L 152.804964 273.29897 
L 158.179579 273.29897 
L 158.179579 220.603525 
L 161.556137 220.603525 
L 161.556137 217.090495 
L 165.895103 217.090495 
L 165.895103 213.577465 
L 168.427552 213.577465 
L 168.427552 210.064436 
L 169.920831 210.064436 
L 169.920831 206.551406 
L 171.125842 206.551406 
L 171.125842 203.038376 
L 174.590265 203.038376 
L 174.590265 199.525347 
L 175.548858 199.525347 
L 175.548858 196.012317 
L 178.644605 196.012317 
L 178.699972 188.986257 
L 178.844263 188.986257 
L 178.927966 181.960198 
L 179.658243 181.960198 
L 179.746929 174.934139 
L 180.194521 174.934139 
L 180.194521 171.421109 
L 181.360017 171.421109 
L 181.360017 167.908079 
L 183.47002 167.908079 
L 183.47002 164.39505 
L 184.10494 164.39505 
L 184.10494 160.88202 
L 184.668145 160.88202 
L 184.668145 157.36899 
L 184.802929 157.36899 
L 184.802929 153.85596 
L 185.006773 153.85596 
L 185.067449 143.316871 
L 185.332083 143.316871 
L 185.332083 139.803842 
L 185.678584 139.803842 
L 185.680421 132.777782 
L 186.349372 132.777782 
L 186.413993 125.751723 
L 187.678467 125.751723 
L 187.678467 122.238693 
L 187.797026 122.238693 
L 187.797026 118.725663 
L 188.228961 118.725663 
L 188.228961 115.212634 
L 188.481226 115.212634 
L 188.481226 111.699604 
L 189.624235 111.699604 
L 189.624235 108.186574 
L 191.126903 108.186574 
L 191.126903 104.673545 
L 191.450164 104.673545 
L 191.450164 101.160515 
L 192.015434 101.160515 
L 192.053573 94.134455 
L 192.560097 94.134455 
L 192.560097 90.621426 
L 193.206094 90.621426 
L 193.206094 87.108396 
L 193.450807 87.108396 
L 193.492969 80.082337 
L 194.652414 80.082337 
L 194.652414 76.569307 
L 195.170466 76.569307 
L 195.170466 73.056277 
L 197.795714 73.056277 
L 197.795714 69.543248 
L 198.491646 69.543248 
L 198.491646 66.030218 
L 198.679737 66.030218 
L 198.679737 62.517188 
L 200.676549 62.517188 
L 200.676549 59.004158 
L 202.506916 59.004158 
L 202.506916 55.491129 
L 204.356878 55.491129 
L 204.356878 51.978099 
L 205.739605 51.978099 
L 205.739605 48.465069 
L 206.28978 48.465069 
L 206.28978 44.95204 
L 206.422017 44.95204 
L 206.422017 41.43901 
L 206.552267 41.43901 
L 206.552267 37.92598 
L 206.680606 37.92598 
L 206.680606 34.41295 
L 207.295189 34.41295 
L 207.295189 30.899921 
L 207.529314 30.899921 
L 207.529314 27.386891 
L 208.30225 27.386891 
L 208.407229 20.360832 
L 208.510985 20.360832 
L 208.510985 16.847802 
L 211.814393 16.847802 
L 211.814393 13.334772 
L 211.814393 13.334772 
L 367.82 13.334772 
L 367.82 13.334772 
" style="fill:none;stroke:#000000;stroke-linecap:square;stroke-width:1.5;"/>
   </g>
   <g id="patch_3">
    <path d="M 10.7 276.812 
L 10.7 10.7 
" style="fill:none;stroke:#000000;stroke-linecap:square;stroke-linejoin:miter;stroke-width:0.8;"/>
   </g>
   <g id="patch_4">
    <path d="M 367.82 276.812 
L 367.82 10.7 
" style="fill:none;stroke:#000000;stroke-linecap:square;stroke-linejoin:miter;stroke-width:0.8;"/>
   </g>
   <g id="patch_5">
    <path d="M 10.7 276.812 
L 367.82 276.812 
" style="fill:none;stroke:#000000;stroke-linecap:square;stroke-linejoin:miter;stroke-width:0.8;"/>
   </g>
   <g id="patch_6">
    <path d="M 10.7 10.7 
L 367.82 10.7 
" style="fill:none;stroke:#000000;stroke-linecap:square;stroke-linejoin:miter;stroke-width:0.8;"/>
   </g>
   <g id="text_6">
    <!-- {f15-f19}, 20-D -->
    <defs>
     <path d="M 51.125 -9.28125 
L 51.125 -16.3125 
L 48.09375 -16.3125 
Q 35.9375 -16.3125 31.8125 -12.6875 
Q 27.6875 -9.078125 27.6875 1.703125 
L 27.6875 13.375 
Q 27.6875 20.75 25.046875 23.578125 
Q 22.40625 26.421875 15.484375 26.421875 
L 12.5 26.421875 
L 12.5 33.40625 
L 15.484375 33.40625 
Q 22.46875 33.40625 25.078125 36.203125 
Q 27.6875 39.015625 27.6875 46.296875 
L 27.6875 58.015625 
Q 27.6875 68.796875 31.8125 72.390625 
Q 35.9375 75.984375 48.09375 75.984375 
L 51.125 75.984375 
L 51.125 69 
L 47.796875 69 
Q 40.921875 69 38.8125 66.84375 
Q 36.71875 64.703125 36.71875 57.8125 
L 36.71875 45.703125 
Q 36.71875 38.03125 34.5 34.5625 
Q 32.28125 31.109375 26.90625 29.890625 
Q 32.328125 28.5625 34.515625 25.09375 
Q 36.71875 21.625 36.71875 14.015625 
L 36.71875 1.90625 
Q 36.71875 -4.984375 38.8125 -7.125 
Q 40.921875 -9.28125 47.796875 -9.28125 
z
" id="DejaVuSans-7b"/>
     <path d="M 10.796875 72.90625 
L 49.515625 72.90625 
L 49.515625 64.59375 
L 19.828125 64.59375 
L 19.828125 46.734375 
Q 21.96875 47.46875 24.109375 47.828125 
Q 26.265625 48.1875 28.421875 48.1875 
Q 40.625 48.1875 47.75 41.5 
Q 54.890625 34.8125 54.890625 23.390625 
Q 54.890625 11.625 47.5625 5.09375 
Q 40.234375 -1.421875 26.90625 -1.421875 
Q 22.3125 -1.421875 17.546875 -0.640625 
Q 12.796875 0.140625 7.71875 1.703125 
L 7.71875 11.625 
Q 12.109375 9.234375 16.796875 8.0625 
Q 21.484375 6.890625 26.703125 6.890625 
Q 35.15625 6.890625 40.078125 11.328125 
Q 45.015625 15.765625 45.015625 23.390625 
Q 45.015625 31 40.078125 35.4375 
Q 35.15625 39.890625 26.703125 39.890625 
Q 22.75 39.890625 18.8125 39.015625 
Q 14.890625 38.140625 10.796875 36.28125 
z
" id="DejaVuSans-35"/>
     <path d="M 10.984375 1.515625 
L 10.984375 10.5 
Q 14.703125 8.734375 18.5 7.8125 
Q 22.3125 6.890625 25.984375 6.890625 
Q 35.75 6.890625 40.890625 13.453125 
Q 46.046875 20.015625 46.78125 33.40625 
Q 43.953125 29.203125 39.59375 26.953125 
Q 35.25 24.703125 29.984375 24.703125 
Q 19.046875 24.703125 12.671875 31.3125 
Q 6.296875 37.9375 6.296875 49.421875 
Q 6.296875 60.640625 12.9375 67.421875 
Q 19.578125 74.21875 30.609375 74.21875 
Q 43.265625 74.21875 49.921875 64.515625 
Q 56.59375 54.828125 56.59375 36.375 
Q 56.59375 19.140625 48.40625 8.859375 
Q 40.234375 -1.421875 26.421875 -1.421875 
Q 22.703125 -1.421875 18.890625 -0.6875 
Q 15.09375 0.046875 10.984375 1.515625 
z
M 30.609375 32.421875 
Q 37.25 32.421875 41.125 36.953125 
Q 45.015625 41.5 45.015625 49.421875 
Q 45.015625 57.28125 41.125 61.84375 
Q 37.25 66.40625 30.609375 66.40625 
Q 23.96875 66.40625 20.09375 61.84375 
Q 16.21875 57.28125 16.21875 49.421875 
Q 16.21875 41.5 20.09375 36.953125 
Q 23.96875 32.421875 30.609375 32.421875 
z
" id="DejaVuSans-39"/>
     <path d="M 12.5 -9.28125 
L 15.921875 -9.28125 
Q 22.75 -9.28125 24.828125 -7.171875 
Q 26.90625 -5.078125 26.90625 1.90625 
L 26.90625 14.015625 
Q 26.90625 21.625 29.09375 25.09375 
Q 31.296875 28.5625 36.71875 29.890625 
Q 31.296875 31.109375 29.09375 34.5625 
Q 26.90625 38.03125 26.90625 45.703125 
L 26.90625 57.8125 
Q 26.90625 64.75 24.828125 66.875 
Q 22.75 69 15.921875 69 
L 12.5 69 
L 12.5 75.984375 
L 15.578125 75.984375 
Q 27.734375 75.984375 31.8125 72.390625 
Q 35.890625 68.796875 35.890625 58.015625 
L 35.890625 46.296875 
Q 35.890625 39.015625 38.515625 36.203125 
Q 41.15625 33.40625 48.09375 33.40625 
L 51.125 33.40625 
L 51.125 26.421875 
L 48.09375 26.421875 
Q 41.15625 26.421875 38.515625 23.578125 
Q 35.890625 20.75 35.890625 13.375 
L 35.890625 1.703125 
Q 35.890625 -9.078125 31.8125 -12.6875 
Q 27.734375 -16.3125 15.578125 -16.3125 
L 12.5 -16.3125 
z
" id="DejaVuSans-7d"/>
     <path d="M 11.71875 12.40625 
L 22.015625 12.40625 
L 22.015625 4 
L 14.015625 -11.625 
L 7.71875 -11.625 
L 11.71875 4 
z
" id="DejaVuSans-2c"/>
     <path d="M 19.1875 8.296875 
L 53.609375 8.296875 
L 53.609375 0 
L 7.328125 0 
L 7.328125 8.296875 
Q 12.9375 14.109375 22.625 23.890625 
Q 32.328125 33.6875 34.8125 36.53125 
Q 39.546875 41.84375 41.421875 45.53125 
Q 43.3125 49.21875 43.3125 52.78125 
Q 43.3125 58.59375 39.234375 62.25 
Q 35.15625 65.921875 28.609375 65.921875 
Q 23.96875 65.921875 18.8125 64.3125 
Q 13.671875 62.703125 7.8125 59.421875 
L 7.8125 69.390625 
Q 13.765625 71.78125 18.9375 73 
Q 24.125 74.21875 28.421875 74.21875 
Q 39.75 74.21875 46.484375 68.546875 
Q 53.21875 62.890625 53.21875 53.421875 
Q 53.21875 48.921875 51.53125 44.890625 
Q 49.859375 40.875 45.40625 35.40625 
Q 44.1875 33.984375 37.640625 27.21875 
Q 31.109375 20.453125 19.1875 8.296875 
z
" id="DejaVuSans-32"/>
    </defs>
    <g transform="translate(202.2526 271.48976)scale(0.2 -0.2)">
     <use xlink:href="#DejaVuSans-7b"/>
     <use x="63.623047" xlink:href="#DejaVuSans-66"/>
     <use x="98.828125" xlink:href="#DejaVuSans-31"/>
     <use x="162.451172" xlink:href="#DejaVuSans-35"/>
     <use x="226.074219" xlink:href="#DejaVuSans-2d"/>
     <use x="262.158203" xlink:href="#DejaVuSans-66"/>
     <use x="297.363281" xlink:href="#DejaVuSans-31"/>
     <use x="360.986328" xlink:href="#DejaVuSans-39"/>
     <use x="424.609375" xlink:href="#DejaVuSans-7d"/>
     <use x="488.232422" xlink:href="#DejaVuSans-2c"/>
     <use x="520.019531" xlink:href="#DejaVuSans-20"/>
     <use x="551.806641" xlink:href="#DejaVuSans-32"/>
     <use x="615.429688" xlink:href="#DejaVuSans-30"/>
     <use x="679.052734" xlink:href="#DejaVuSans-2d"/>
     <use x="715.136719" xlink:href="#DejaVuSans-44"/>
    </g>
   </g>
   <g id="text_7">
    <!-- v2.1 -->
    <defs>
     <path d="M 2.984375 54.6875 
L 12.5 54.6875 
L 29.59375 8.796875 
L 46.6875 54.6875 
L 56.203125 54.6875 
L 35.6875 0 
L 23.484375 0 
z
" id="DejaVuSans-76"/>
     <path d="M 10.6875 12.40625 
L 21 12.40625 
L 21 0 
L 10.6875 0 
z
" id="DejaVuSans-2e"/>
    </defs>
    <g style="fill:#808080;" transform="translate(178.349063 272.071193)scale(0.1 -0.1)">
     <use xlink:href="#DejaVuSans-76"/>
     <use x="59.179688" xlink:href="#DejaVuSans-32"/>
     <use x="122.802734" xlink:href="#DejaVuSans-2e"/>
     <use x="154.589844" xlink:href="#DejaVuSans-31"/>
    </g>
   </g>
  </g>
 </g>
 <defs>
  <clipPath id="pa979d72b9f">
   <rect height="266.112" width="357.12" x="10.7" y="10.7"/>
  </clipPath>
 </defs>
</svg>
