<?xml version="1.0" encoding="utf-8" standalone="no"?>
<!DOCTYPE svg PUBLIC "-//W3C//DTD SVG 1.1//EN"
  "http://www.w3.org/Graphics/SVG/1.1/DTD/svg11.dtd">
<!-- Created with matplotlib (http://matplotlib.org/) -->
<svg height="333pt" version="1.1" viewBox="0 0 378 333" width="378pt" xmlns="http://www.w3.org/2000/svg" xmlns:xlink="http://www.w3.org/1999/xlink">
 <defs>
  <style type="text/css">
*{stroke-linecap:butt;stroke-linejoin:round;}
  </style>
 </defs>
 <g id="figure_1">
  <g id="patch_1">
   <path d="M 0 333.7245 
L 378.52 333.7245 
L 378.52 0 
L 0 0 
z
" style="fill:#ffffff;"/>
  </g>
  <g id="axes_1">
   <g id="patch_2">
    <path d="M 10.7 276.812 
L 367.82 276.812 
L 367.82 10.7 
L 10.7 10.7 
z
" style="fill:#ffffff;"/>
   </g>
   <g id="matplotlib.axis_1">
    <g id="xtick_1">
     <g id="line2d_1">
      <path clip-path="url(#p2a969924a8)" d="M 10.61381 276.812 
L 10.61381 10.7 
" style="fill:none;stroke:#b0b0b0;stroke-linecap:square;stroke-width:0.8;"/>
     </g>
     <g id="line2d_2">
      <defs>
       <path d="M 0 0 
L 0 3.5 
" id="m16e85c3a2a" style="stroke:#000000;stroke-width:0.8;"/>
      </defs>
      <g>
       <use style="stroke:#000000;stroke-width:0.8;" x="10.61381" xlink:href="#m16e85c3a2a" y="276.812"/>
      </g>
     </g>
    </g>
    <g id="xtick_2">
     <g id="line2d_3">
      <path clip-path="url(#p2a969924a8)" d="M 90.394305 276.812 
L 90.394305 10.7 
" style="fill:none;stroke:#b0b0b0;stroke-linecap:square;stroke-width:0.8;"/>
     </g>
     <g id="line2d_4">
      <g>
       <use style="stroke:#000000;stroke-width:0.8;" x="90.394305" xlink:href="#m16e85c3a2a" y="276.812"/>
      </g>
     </g>
     <g id="text_1">
      <!-- -4 -->
      <defs>
       <path d="M 4.890625 31.390625 
L 31.203125 31.390625 
L 31.203125 23.390625 
L 4.890625 23.390625 
z
" id="DejaVuSans-2d"/>
       <path d="M 37.796875 64.3125 
L 12.890625 25.390625 
L 37.796875 25.390625 
z
M 35.203125 72.90625 
L 47.609375 72.90625 
L 47.609375 25.390625 
L 58.015625 25.390625 
L 58.015625 17.1875 
L 47.609375 17.1875 
L 47.609375 0 
L 37.796875 0 
L 37.796875 17.1875 
L 4.890625 17.1875 
L 4.890625 26.703125 
z
" id="DejaVuSans-34"/>
      </defs>
      <g transform="translate(80.423992 299.008875)scale(0.2 -0.2)">
       <use xlink:href="#DejaVuSans-2d"/>
       <use x="36.083984" xlink:href="#DejaVuSans-34"/>
      </g>
     </g>
    </g>
    <g id="xtick_3">
     <g id="line2d_5">
      <path clip-path="url(#p2a969924a8)" d="M 170.1748 276.812 
L 170.1748 10.7 
" style="fill:none;stroke:#b0b0b0;stroke-linecap:square;stroke-width:0.8;"/>
     </g>
     <g id="line2d_6">
      <g>
       <use style="stroke:#000000;stroke-width:0.8;" x="170.1748" xlink:href="#m16e85c3a2a" y="276.812"/>
      </g>
     </g>
     <g id="text_2">
      <!-- 0 -->
      <defs>
       <path d="M 31.78125 66.40625 
Q 24.171875 66.40625 20.328125 58.90625 
Q 16.5 51.421875 16.5 36.375 
Q 16.5 21.390625 20.328125 13.890625 
Q 24.171875 6.390625 31.78125 6.390625 
Q 39.453125 6.390625 43.28125 13.890625 
Q 47.125 21.390625 47.125 36.375 
Q 47.125 51.421875 43.28125 58.90625 
Q 39.453125 66.40625 31.78125 66.40625 
z
M 31.78125 74.21875 
Q 44.046875 74.21875 50.515625 64.515625 
Q 56.984375 54.828125 56.984375 36.375 
Q 56.984375 17.96875 50.515625 8.265625 
Q 44.046875 -1.421875 31.78125 -1.421875 
Q 19.53125 -1.421875 13.0625 8.265625 
Q 6.59375 17.96875 6.59375 36.375 
Q 6.59375 54.828125 13.0625 64.515625 
Q 19.53125 74.21875 31.78125 74.21875 
z
" id="DejaVuSans-30"/>
      </defs>
      <g transform="translate(163.8123 299.008875)scale(0.2 -0.2)">
       <use xlink:href="#DejaVuSans-30"/>
      </g>
     </g>
    </g>
    <g id="xtick_4">
     <g id="line2d_7">
      <path clip-path="url(#p2a969924a8)" d="M 249.955295 276.812 
L 249.955295 10.7 
" style="fill:none;stroke:#b0b0b0;stroke-linecap:square;stroke-width:0.8;"/>
     </g>
     <g id="line2d_8">
      <g>
       <use style="stroke:#000000;stroke-width:0.8;" x="249.955295" xlink:href="#m16e85c3a2a" y="276.812"/>
      </g>
     </g>
     <g id="text_3">
      <!-- 4 -->
      <g transform="translate(243.592795 299.008875)scale(0.2 -0.2)">
       <use xlink:href="#DejaVuSans-34"/>
      </g>
     </g>
    </g>
    <g id="xtick_5">
     <g id="line2d_9">
      <path clip-path="url(#p2a969924a8)" d="M 329.73579 276.812 
L 329.73579 10.7 
" style="fill:none;stroke:#b0b0b0;stroke-linecap:square;stroke-width:0.8;"/>
     </g>
     <g id="line2d_10">
      <g>
       <use style="stroke:#000000;stroke-width:0.8;" x="329.73579" xlink:href="#m16e85c3a2a" y="276.812"/>
      </g>
     </g>
     <g id="text_4">
      <!-- 8 -->
      <defs>
       <path d="M 31.78125 34.625 
Q 24.75 34.625 20.71875 30.859375 
Q 16.703125 27.09375 16.703125 20.515625 
Q 16.703125 13.921875 20.71875 10.15625 
Q 24.75 6.390625 31.78125 6.390625 
Q 38.8125 6.390625 42.859375 10.171875 
Q 46.921875 13.96875 46.921875 20.515625 
Q 46.921875 27.09375 42.890625 30.859375 
Q 38.875 34.625 31.78125 34.625 
z
M 21.921875 38.8125 
Q 15.578125 40.375 12.03125 44.71875 
Q 8.5 49.078125 8.5 55.328125 
Q 8.5 64.0625 14.71875 69.140625 
Q 20.953125 74.21875 31.78125 74.21875 
Q 42.671875 74.21875 48.875 69.140625 
Q 55.078125 64.0625 55.078125 55.328125 
Q 55.078125 49.078125 51.53125 44.71875 
Q 48 40.375 41.703125 38.8125 
Q 48.828125 37.15625 52.796875 32.3125 
Q 56.78125 27.484375 56.78125 20.515625 
Q 56.78125 9.90625 50.3125 4.234375 
Q 43.84375 -1.421875 31.78125 -1.421875 
Q 19.734375 -1.421875 13.25 4.234375 
Q 6.78125 9.90625 6.78125 20.515625 
Q 6.78125 27.484375 10.78125 32.3125 
Q 14.796875 37.15625 21.921875 38.8125 
z
M 18.3125 54.390625 
Q 18.3125 48.734375 21.84375 45.5625 
Q 25.390625 42.390625 31.78125 42.390625 
Q 38.140625 42.390625 41.71875 45.5625 
Q 45.3125 48.734375 45.3125 54.390625 
Q 45.3125 60.0625 41.71875 63.234375 
Q 38.140625 66.40625 31.78125 66.40625 
Q 25.390625 66.40625 21.84375 63.234375 
Q 18.3125 60.0625 18.3125 54.390625 
z
" id="DejaVuSans-38"/>
      </defs>
      <g transform="translate(323.37329 299.008875)scale(0.2 -0.2)">
       <use xlink:href="#DejaVuSans-38"/>
      </g>
     </g>
    </g>
    <g id="text_5">
     <!-- log10 of Df -->
     <defs>
      <path d="M 9.421875 75.984375 
L 18.40625 75.984375 
L 18.40625 0 
L 9.421875 0 
z
" id="DejaVuSans-6c"/>
      <path d="M 30.609375 48.390625 
Q 23.390625 48.390625 19.1875 42.75 
Q 14.984375 37.109375 14.984375 27.296875 
Q 14.984375 17.484375 19.15625 11.84375 
Q 23.34375 6.203125 30.609375 6.203125 
Q 37.796875 6.203125 41.984375 11.859375 
Q 46.1875 17.53125 46.1875 27.296875 
Q 46.1875 37.015625 41.984375 42.703125 
Q 37.796875 48.390625 30.609375 48.390625 
z
M 30.609375 56 
Q 42.328125 56 49.015625 48.375 
Q 55.71875 40.765625 55.71875 27.296875 
Q 55.71875 13.875 49.015625 6.21875 
Q 42.328125 -1.421875 30.609375 -1.421875 
Q 18.84375 -1.421875 12.171875 6.21875 
Q 5.515625 13.875 5.515625 27.296875 
Q 5.515625 40.765625 12.171875 48.375 
Q 18.84375 56 30.609375 56 
z
" id="DejaVuSans-6f"/>
      <path d="M 45.40625 27.984375 
Q 45.40625 37.75 41.375 43.109375 
Q 37.359375 48.484375 30.078125 48.484375 
Q 22.859375 48.484375 18.828125 43.109375 
Q 14.796875 37.75 14.796875 27.984375 
Q 14.796875 18.265625 18.828125 12.890625 
Q 22.859375 7.515625 30.078125 7.515625 
Q 37.359375 7.515625 41.375 12.890625 
Q 45.40625 18.265625 45.40625 27.984375 
z
M 54.390625 6.78125 
Q 54.390625 -7.171875 48.1875 -13.984375 
Q 42 -20.796875 29.203125 -20.796875 
Q 24.46875 -20.796875 20.265625 -20.09375 
Q 16.0625 -19.390625 12.109375 -17.921875 
L 12.109375 -9.1875 
Q 16.0625 -11.328125 19.921875 -12.34375 
Q 23.78125 -13.375 27.78125 -13.375 
Q 36.625 -13.375 41.015625 -8.765625 
Q 45.40625 -4.15625 45.40625 5.171875 
L 45.40625 9.625 
Q 42.625 4.78125 38.28125 2.390625 
Q 33.9375 0 27.875 0 
Q 17.828125 0 11.671875 7.65625 
Q 5.515625 15.328125 5.515625 27.984375 
Q 5.515625 40.671875 11.671875 48.328125 
Q 17.828125 56 27.875 56 
Q 33.9375 56 38.28125 53.609375 
Q 42.625 51.21875 45.40625 46.390625 
L 45.40625 54.6875 
L 54.390625 54.6875 
z
" id="DejaVuSans-67"/>
      <path d="M 12.40625 8.296875 
L 28.515625 8.296875 
L 28.515625 63.921875 
L 10.984375 60.40625 
L 10.984375 69.390625 
L 28.421875 72.90625 
L 38.28125 72.90625 
L 38.28125 8.296875 
L 54.390625 8.296875 
L 54.390625 0 
L 12.40625 0 
z
" id="DejaVuSans-31"/>
      <path id="DejaVuSans-20"/>
      <path d="M 37.109375 75.984375 
L 37.109375 68.5 
L 28.515625 68.5 
Q 23.6875 68.5 21.796875 66.546875 
Q 19.921875 64.59375 19.921875 59.515625 
L 19.921875 54.6875 
L 34.71875 54.6875 
L 34.71875 47.703125 
L 19.921875 47.703125 
L 19.921875 0 
L 10.890625 0 
L 10.890625 47.703125 
L 2.296875 47.703125 
L 2.296875 54.6875 
L 10.890625 54.6875 
L 10.890625 58.5 
Q 10.890625 67.625 15.140625 71.796875 
Q 19.390625 75.984375 28.609375 75.984375 
z
" id="DejaVuSans-66"/>
      <path d="M 19.671875 64.796875 
L 19.671875 8.109375 
L 31.59375 8.109375 
Q 46.6875 8.109375 53.6875 14.9375 
Q 60.6875 21.78125 60.6875 36.53125 
Q 60.6875 51.171875 53.6875 57.984375 
Q 46.6875 64.796875 31.59375 64.796875 
z
M 9.8125 72.90625 
L 30.078125 72.90625 
Q 51.265625 72.90625 61.171875 64.09375 
Q 71.09375 55.28125 71.09375 36.53125 
Q 71.09375 17.671875 61.125 8.828125 
Q 51.171875 0 30.078125 0 
L 9.8125 0 
z
" id="DejaVuSans-44"/>
     </defs>
     <g transform="translate(134.074063 322.365125)scale(0.2 -0.2)">
      <use xlink:href="#DejaVuSans-6c"/>
      <use x="27.783203" xlink:href="#DejaVuSans-6f"/>
      <use x="88.964844" xlink:href="#DejaVuSans-67"/>
      <use x="152.441406" xlink:href="#DejaVuSans-31"/>
      <use x="216.064453" xlink:href="#DejaVuSans-30"/>
      <use x="279.6875" xlink:href="#DejaVuSans-20"/>
      <use x="311.474609" xlink:href="#DejaVuSans-6f"/>
      <use x="372.65625" xlink:href="#DejaVuSans-66"/>
      <use x="407.861328" xlink:href="#DejaVuSans-20"/>
      <use x="439.648438" xlink:href="#DejaVuSans-44"/>
      <use x="516.650391" xlink:href="#DejaVuSans-66"/>
     </g>
    </g>
   </g>
   <g id="matplotlib.axis_2">
    <g id="ytick_1">
     <g id="line2d_11">
      <path clip-path="url(#p2a969924a8)" d="M 10.7 276.812 
L 367.82 276.812 
" style="fill:none;stroke:#b0b0b0;stroke-linecap:square;stroke-width:0.8;"/>
     </g>
     <g id="line2d_12">
      <defs>
       <path d="M 0 0 
L -3.5 0 
" id="mc9d4e0e39f" style="stroke:#000000;stroke-width:0.8;"/>
      </defs>
      <g>
       <use style="stroke:#000000;stroke-width:0.8;" x="10.7" xlink:href="#mc9d4e0e39f" y="276.812"/>
      </g>
     </g>
    </g>
    <g id="ytick_2">
     <g id="line2d_13">
      <path clip-path="url(#p2a969924a8)" d="M 10.7 224.116554 
L 367.82 224.116554 
" style="fill:none;stroke:#b0b0b0;stroke-linecap:square;stroke-width:0.8;"/>
     </g>
     <g id="line2d_14">
      <g>
       <use style="stroke:#000000;stroke-width:0.8;" x="10.7" xlink:href="#mc9d4e0e39f" y="224.116554"/>
      </g>
     </g>
    </g>
    <g id="ytick_3">
     <g id="line2d_15">
      <path clip-path="url(#p2a969924a8)" d="M 10.7 171.421109 
L 367.82 171.421109 
" style="fill:none;stroke:#b0b0b0;stroke-linecap:square;stroke-width:0.8;"/>
     </g>
     <g id="line2d_16">
      <g>
       <use style="stroke:#000000;stroke-width:0.8;" x="10.7" xlink:href="#mc9d4e0e39f" y="171.421109"/>
      </g>
     </g>
    </g>
    <g id="ytick_4">
     <g id="line2d_17">
      <path clip-path="url(#p2a969924a8)" d="M 10.7 118.725663 
L 367.82 118.725663 
" style="fill:none;stroke:#b0b0b0;stroke-linecap:square;stroke-width:0.8;"/>
     </g>
     <g id="line2d_18">
      <g>
       <use style="stroke:#000000;stroke-width:0.8;" x="10.7" xlink:href="#mc9d4e0e39f" y="118.725663"/>
      </g>
     </g>
    </g>
    <g id="ytick_5">
     <g id="line2d_19">
      <path clip-path="url(#p2a969924a8)" d="M 10.7 66.030218 
L 367.82 66.030218 
" style="fill:none;stroke:#b0b0b0;stroke-linecap:square;stroke-width:0.8;"/>
     </g>
     <g id="line2d_20">
      <g>
       <use style="stroke:#000000;stroke-width:0.8;" x="10.7" xlink:href="#mc9d4e0e39f" y="66.030218"/>
      </g>
     </g>
    </g>
    <g id="ytick_6">
     <g id="line2d_21">
      <path clip-path="url(#p2a969924a8)" d="M 10.7 13.334772 
L 367.82 13.334772 
" style="fill:none;stroke:#b0b0b0;stroke-linecap:square;stroke-width:0.8;"/>
     </g>
     <g id="line2d_22">
      <g>
       <use style="stroke:#000000;stroke-width:0.8;" x="10.7" xlink:href="#mc9d4e0e39f" y="13.334772"/>
      </g>
     </g>
    </g>
   </g>
   <g id="line2d_23">
    <path clip-path="url(#p2a969924a8)" d="M -1 215.33398 
L 22.576523 215.33398 
L 22.576523 210.942693 
L 48.670597 210.942693 
L 48.670597 206.551406 
L 73.021407 206.551406 
L 73.021407 202.160119 
L 105.790208 202.160119 
L 105.790208 197.768832 
L 108.406808 197.768832 
L 108.406808 193.377545 
L 112.766324 193.377545 
L 112.766324 188.986257 
L 114.684128 188.986257 
L 114.684128 184.59497 
L 115.690126 184.59497 
L 115.690126 180.203683 
L 115.735344 180.203683 
L 115.735344 175.812396 
L 116.283578 175.812396 
L 116.283578 171.421109 
L 116.285908 171.421109 
L 116.285908 167.029822 
L 121.17772 167.029822 
L 121.17772 162.638535 
L 124.207762 162.638535 
L 124.207762 158.247248 
L 131.981998 158.247248 
L 131.981998 153.85596 
L 136.274708 153.85596 
L 136.274708 149.464673 
L 140.961882 149.464673 
L 140.961882 145.073386 
L 145.717002 145.073386 
L 145.717002 140.682099 
L 155.933764 140.682099 
L 155.933764 136.290812 
L 163.194873 136.290812 
L 163.194873 131.899525 
L 173.706926 131.899525 
L 173.706926 127.508238 
L 175.986465 127.508238 
L 175.986465 123.11695 
L 177.657185 123.11695 
L 177.657185 118.725663 
L 177.706006 118.725663 
L 177.706006 114.334376 
L 177.707408 114.334376 
L 177.707408 109.943089 
L 177.822621 109.943089 
L 177.822621 105.551802 
L 178.736711 105.551802 
L 178.736711 101.160515 
L 179.065949 101.160515 
L 179.065949 96.769228 
L 179.63197 96.769228 
L 179.63197 92.377941 
L 182.097784 92.377941 
L 182.097784 87.986653 
L 182.160106 87.986653 
L 182.160106 83.595366 
L 183.322723 83.595366 
L 183.322723 79.204079 
L 185.161678 79.204079 
L 185.161678 74.812792 
L 187.563522 74.812792 
L 187.563522 70.421505 
L 187.874335 70.421505 
L 187.874335 66.030218 
L 188.233011 66.030218 
L 188.233011 61.638931 
L 189.171213 61.638931 
L 189.171213 57.247644 
L 189.7873 57.247644 
L 189.7873 52.856356 
L 189.788779 52.856356 
L 189.788779 48.465069 
L 191.242126 48.465069 
L 191.242126 44.073782 
L 191.482761 44.073782 
L 191.482761 39.682495 
L 191.648786 39.682495 
L 191.648786 35.291208 
L 191.754888 35.291208 
L 191.754888 30.899921 
L 192.115351 30.899921 
L 192.115351 26.508634 
L 192.442001 26.508634 
L 192.442001 22.117347 
L 196.342308 22.117347 
L 196.342308 17.726059 
L 196.924093 17.726059 
L 196.924093 13.334772 
L 196.924093 13.334772 
L 196.924093 13.334772 
L 367.82 13.334772 
" style="fill:none;stroke:#ff0000;stroke-linecap:square;stroke-width:3;"/>
   </g>
   <g id="line2d_24">
    <path clip-path="url(#p2a969924a8)" d="M 211.893356 276.812 
L 211.893356 272.420713 
L 211.893356 272.420713 
L 211.893356 268.029426 
L 211.893356 268.029426 
L 211.893356 263.638139 
L 211.893356 263.638139 
L 211.893356 259.246851 
L 211.893356 259.246851 
L 211.893356 254.855564 
L 211.893356 254.855564 
L 211.893356 250.464277 
L 211.893356 250.464277 
L 211.893356 246.07299 
L 211.893356 246.07299 
L 211.893356 241.681703 
L 211.893356 241.681703 
L 211.893356 237.290416 
L 211.893356 237.290416 
L 211.893356 232.899129 
L 211.893356 232.899129 
L 211.893356 228.507842 
L 211.893356 228.507842 
L 211.893356 224.116554 
L 211.893356 224.116554 
L 211.893356 219.725267 
L 211.893356 219.725267 
L 211.893356 215.33398 
L 211.893356 215.33398 
L 211.893356 210.942693 
L 224.312249 210.942693 
L 224.312249 206.551406 
L 224.683439 206.551406 
L 224.683439 202.160119 
L 225.48857 202.160119 
L 225.48857 197.768832 
L 226.174101 197.768832 
L 226.174101 193.377545 
L 227.354346 193.377545 
L 227.354346 188.986257 
L 227.674616 188.986257 
L 227.674616 184.59497 
L 227.704323 184.59497 
L 227.704323 180.203683 
L 227.796082 180.203683 
L 227.796082 175.812396 
L 228.759709 175.812396 
L 228.759709 171.421109 
L 229.615841 171.421109 
L 229.615841 167.029822 
L 229.815998 167.029822 
L 229.815998 162.638535 
L 230.543835 162.638535 
L 230.543835 158.247248 
L 234.04617 158.247248 
L 234.04617 153.85596 
L 237.069751 153.85596 
L 237.069751 149.464673 
L 238.219599 149.464673 
L 238.219599 145.073386 
L 255.02017 145.073386 
L 255.02017 140.682099 
L 256.534237 140.682099 
L 256.534237 136.290812 
L 257.328707 136.290812 
L 257.328707 131.899525 
L 257.558373 131.899525 
L 257.558373 127.508238 
L 259.021855 127.508238 
L 259.021855 123.11695 
L 260.539701 123.11695 
L 260.539701 118.725663 
L 261.674196 118.725663 
L 261.674196 114.334376 
L 262.952467 114.334376 
L 262.952467 109.943089 
L 263.225357 109.943089 
L 263.225357 105.551802 
L 263.503513 105.551802 
L 263.503513 101.160515 
L 263.90864 101.160515 
L 263.90864 96.769228 
L 265.410747 96.769228 
L 265.410747 92.377941 
L 265.651351 92.377941 
L 265.651351 87.986653 
L 266.793981 87.986653 
L 266.793981 83.595366 
L 267.177111 83.595366 
L 267.177111 79.204079 
L 271.365506 79.204079 
L 271.365506 74.812792 
L 276.24253 74.812792 
L 276.24253 70.421505 
L 279.734904 70.421505 
L 279.734904 66.030218 
L 280.860702 66.030218 
L 280.860702 61.638931 
L 281.236514 61.638931 
L 281.236514 57.247644 
L 283.119778 57.247644 
L 283.119778 52.856356 
L 284.424772 52.856356 
L 284.424772 48.465069 
L 284.600356 48.465069 
L 284.600356 44.073782 
L 285.184604 44.073782 
L 285.184604 39.682495 
L 285.2387 39.682495 
L 285.2387 35.291208 
L 285.586636 35.291208 
L 285.586636 30.899921 
L 286.42118 30.899921 
L 286.42118 26.508634 
L 287.137126 26.508634 
L 287.137126 22.117347 
L 289.199859 22.117347 
L 289.199859 17.726059 
L 290.104922 17.726059 
L 290.104922 13.334772 
L 290.104922 13.334772 
L 290.104922 13.334772 
L 367.82 13.334772 
" style="fill:none;stroke:#00bfbf;stroke-linecap:square;stroke-width:1.5;"/>
   </g>
   <g id="line2d_25">
    <path clip-path="url(#p2a969924a8)" d="M 211.893356 276.812 
L 211.893356 272.420713 
L 211.893356 272.420713 
L 211.893356 268.029426 
L 211.893356 268.029426 
L 211.893356 263.638139 
L 211.893356 263.638139 
L 211.893356 259.246851 
L 211.893356 259.246851 
L 211.893356 254.855564 
L 211.893356 254.855564 
L 211.893356 250.464277 
L 211.893356 250.464277 
L 211.893356 246.07299 
L 211.893356 246.07299 
L 211.893356 241.681703 
L 211.893356 241.681703 
L 211.893356 237.290416 
L 211.893356 237.290416 
L 211.893356 232.899129 
L 211.893356 232.899129 
L 211.893356 228.507842 
L 211.893356 228.507842 
L 211.893356 224.116554 
L 211.893356 224.116554 
L 211.893356 219.725267 
L 211.893356 219.725267 
L 211.893356 215.33398 
L 211.893356 215.33398 
L 211.893356 210.942693 
L 223.96643 210.942693 
L 223.96643 206.551406 
L 224.234132 206.551406 
L 224.234132 202.160119 
L 224.351821 202.160119 
L 224.351821 197.768832 
L 224.852586 197.768832 
L 224.852586 193.377545 
L 225.752768 193.377545 
L 225.752768 188.986257 
L 226.85373 188.986257 
L 226.85373 184.59497 
L 227.103123 184.59497 
L 227.103123 180.203683 
L 227.583812 180.203683 
L 227.583812 175.812396 
L 228.219224 175.812396 
L 228.219224 171.421109 
L 228.399444 171.421109 
L 228.399444 167.029822 
L 229.569193 167.029822 
L 229.569193 162.638535 
L 229.621461 162.638535 
L 229.621461 158.247248 
L 233.763236 158.247248 
L 233.763236 153.85596 
L 236.372697 153.85596 
L 236.372697 149.464673 
L 237.704743 149.464673 
L 237.704743 145.073386 
L 252.724007 145.073386 
L 252.724007 140.682099 
L 254.934859 140.682099 
L 254.934859 136.290812 
L 255.275362 136.290812 
L 255.275362 131.899525 
L 255.761327 131.899525 
L 255.761327 127.508238 
L 256.430646 127.508238 
L 256.430646 123.11695 
L 257.425353 123.11695 
L 257.425353 118.725663 
L 259.951456 118.725663 
L 259.951456 114.334376 
L 260.642305 114.334376 
L 260.642305 109.943089 
L 261.871046 109.943089 
L 261.871046 105.551802 
L 262.421708 105.551802 
L 262.421708 101.160515 
L 262.64252 101.160515 
L 262.64252 96.769228 
L 264.330131 96.769228 
L 264.330131 92.377941 
L 265.055228 92.377941 
L 265.055228 87.986653 
L 265.548311 87.986653 
L 265.548311 83.595366 
L 265.754623 83.595366 
L 265.754623 79.204079 
L 268.75421 79.204079 
L 268.75421 74.812792 
L 275.398267 74.812792 
L 275.398267 70.421505 
L 278.805766 70.421505 
L 278.805766 66.030218 
L 280.301436 66.030218 
L 280.301436 61.638931 
L 280.399805 61.638931 
L 280.399805 57.247644 
L 282.544728 57.247644 
L 282.544728 52.856356 
L 283.119778 52.856356 
L 283.119778 48.465069 
L 284.600356 48.465069 
L 284.600356 44.073782 
L 285.069146 44.073782 
L 285.069146 39.682495 
L 285.072796 39.682495 
L 285.072796 35.291208 
L 285.191869 35.291208 
L 285.191869 30.899921 
L 285.345255 30.899921 
L 285.345255 26.508634 
L 285.699446 26.508634 
L 285.699446 22.117347 
L 287.566063 22.117347 
L 287.566063 17.726059 
L 289.451649 17.726059 
L 289.451649 13.334772 
L 289.451649 13.334772 
L 289.451649 13.334772 
L 367.82 13.334772 
" style="fill:none;stroke:#bf00bf;stroke-linecap:square;stroke-width:1.5;"/>
   </g>
   <g id="line2d_26">
    <path clip-path="url(#p2a969924a8)" d="M 211.893356 276.812 
L 211.893356 272.420713 
L 211.893356 272.420713 
L 211.893356 268.029426 
L 211.893356 268.029426 
L 211.893356 263.638139 
L 211.893356 263.638139 
L 211.893356 259.246851 
L 211.893356 259.246851 
L 211.893356 254.855564 
L 211.893356 254.855564 
L 211.893356 250.464277 
L 211.893356 250.464277 
L 211.893356 246.07299 
L 211.893356 246.07299 
L 211.893356 241.681703 
L 211.893356 241.681703 
L 211.893356 237.290416 
L 211.893356 237.290416 
L 211.893356 232.899129 
L 211.893356 232.899129 
L 211.893356 228.507842 
L 211.893356 228.507842 
L 211.893356 224.116554 
L 211.893356 224.116554 
L 211.893356 219.725267 
L 211.893356 219.725267 
L 211.893356 215.33398 
L 211.893356 215.33398 
L 211.893356 210.942693 
L 219.756691 210.942693 
L 219.756691 206.551406 
L 222.764661 206.551406 
L 222.764661 202.160119 
L 222.9077 202.160119 
L 222.9077 197.768832 
L 223.029003 197.768832 
L 223.029003 193.377545 
L 223.167833 193.377545 
L 223.167833 188.986257 
L 223.251002 188.986257 
L 223.251002 184.59497 
L 224.463986 184.59497 
L 224.463986 180.203683 
L 225.733671 180.203683 
L 225.733671 175.812396 
L 226.178268 175.812396 
L 226.178268 171.421109 
L 226.575082 171.421109 
L 226.575082 167.029822 
L 227.215299 167.029822 
L 227.215299 162.638535 
L 228.142294 162.638535 
L 228.142294 158.247248 
L 232.082429 158.247248 
L 232.082429 153.85596 
L 234.441357 153.85596 
L 234.441357 149.464673 
L 235.514505 149.464673 
L 235.514505 145.073386 
L 248.136901 145.073386 
L 248.136901 140.682099 
L 249.666994 140.682099 
L 249.666994 136.290812 
L 250.909618 136.290812 
L 250.909618 131.899525 
L 251.934483 131.899525 
L 251.934483 127.508238 
L 252.027889 127.508238 
L 252.027889 123.11695 
L 252.421848 123.11695 
L 252.421848 118.725663 
L 256.22425 118.725663 
L 256.22425 114.334376 
L 256.874358 114.334376 
L 256.874358 109.943089 
L 258.435788 109.943089 
L 258.435788 105.551802 
L 258.803507 105.551802 
L 258.803507 101.160515 
L 258.814885 101.160515 
L 258.814885 96.769228 
L 258.972827 96.769228 
L 258.972827 92.377941 
L 260.673896 92.377941 
L 260.673896 87.986653 
L 260.832658 87.986653 
L 260.832658 83.595366 
L 262.287869 83.595366 
L 262.287869 79.204079 
L 262.505629 79.204079 
L 262.505629 74.812792 
L 272.505858 74.812792 
L 272.505858 70.421505 
L 276.353404 70.421505 
L 276.353404 66.030218 
L 278.456155 66.030218 
L 278.456155 61.638931 
L 278.954935 61.638931 
L 278.954935 57.247644 
L 279.682388 57.247644 
L 279.682388 52.856356 
L 279.839579 52.856356 
L 279.839579 48.465069 
L 280.525662 48.465069 
L 280.525662 44.073782 
L 283.354132 44.073782 
L 283.354132 39.682495 
L 283.827693 39.682495 
L 283.827693 35.291208 
L 284.507682 35.291208 
L 284.507682 30.899921 
L 284.847784 30.899921 
L 284.847784 26.508634 
L 285.057153 26.508634 
L 285.057153 22.117347 
L 285.349531 22.117347 
L 285.349531 17.726059 
L 286.551003 17.726059 
L 286.551003 13.334772 
L 286.551003 13.334772 
L 286.551003 13.334772 
L 367.82 13.334772 
" style="fill:none;stroke:#000000;stroke-linecap:square;stroke-width:1.5;"/>
   </g>
   <g id="line2d_27">
    <path clip-path="url(#p2a969924a8)" d="M 204.235053 276.812 
L 204.235053 272.420713 
L 206.455261 272.420713 
L 206.455261 268.029426 
L 206.669017 268.029426 
L 206.669017 263.638139 
L 207.71259 263.638139 
L 207.71259 259.246851 
L 208.12622 259.246851 
L 208.12622 254.855564 
L 209.190182 254.855564 
L 209.190182 250.464277 
L 209.381941 250.464277 
L 209.381941 246.07299 
L 209.659525 246.07299 
L 209.659525 241.681703 
L 209.680159 241.681703 
L 209.680159 237.290416 
L 209.720901 237.290416 
L 209.720901 232.899129 
L 209.951405 232.899129 
L 209.951405 228.507842 
L 210.287707 228.507842 
L 210.287707 224.116554 
L 210.322852 224.116554 
L 210.322852 219.725267 
L 210.36949 219.725267 
L 210.36949 215.33398 
L 210.470822 215.33398 
L 210.470822 210.942693 
L 210.673765 210.942693 
L 210.673765 206.551406 
L 211.631186 206.551406 
L 211.631186 202.160119 
L 211.869999 202.160119 
L 211.869999 197.768832 
L 211.893356 197.768832 
L 211.893356 193.377545 
L 211.893356 193.377545 
L 211.893356 188.986257 
L 211.893356 188.986257 
L 211.893356 184.59497 
L 211.897936 184.59497 
L 211.897936 180.203683 
L 212.035835 180.203683 
L 212.035835 175.812396 
L 212.512982 175.812396 
L 212.512982 171.421109 
L 213.534022 171.421109 
L 213.534022 167.029822 
L 214.71447 167.029822 
L 214.71447 162.638535 
L 216.363006 162.638535 
L 216.363006 158.247248 
L 216.473872 158.247248 
L 216.473872 153.85596 
L 217.416364 153.85596 
L 217.416364 149.464673 
L 217.692125 149.464673 
L 217.692125 145.073386 
L 218.672312 145.073386 
L 218.672312 140.682099 
L 218.844231 140.682099 
L 218.844231 136.290812 
L 218.907789 136.290812 
L 218.907789 131.899525 
L 222.772822 131.899525 
L 222.772822 127.508238 
L 223.569962 127.508238 
L 223.569962 123.11695 
L 225.539428 123.11695 
L 225.539428 118.725663 
L 227.708455 118.725663 
L 227.708455 114.334376 
L 227.733948 114.334376 
L 227.733948 109.943089 
L 228.750419 109.943089 
L 228.750419 105.551802 
L 232.067901 105.551802 
L 232.067901 101.160515 
L 232.798695 101.160515 
L 232.798695 96.769228 
L 236.528858 96.769228 
L 236.528858 92.377941 
L 239.54539 92.377941 
L 239.54539 87.986653 
L 240.646756 87.986653 
L 240.646756 83.595366 
L 241.113942 83.595366 
L 241.113942 79.204079 
L 241.36211 79.204079 
L 241.36211 74.812792 
L 241.511139 74.812792 
L 241.511139 70.421505 
L 242.659602 70.421505 
L 242.659602 66.030218 
L 243.744178 66.030218 
L 243.744178 61.638931 
L 244.690237 61.638931 
L 244.690237 57.247644 
L 247.01269 57.247644 
L 247.01269 52.856356 
L 247.787156 52.856356 
L 247.787156 48.465069 
L 250.797287 48.465069 
L 250.797287 44.073782 
L 255.474161 44.073782 
L 255.474161 39.682495 
L 256.148685 39.682495 
L 256.148685 35.291208 
L 258.398651 35.291208 
L 258.398651 30.899921 
L 263.753159 30.899921 
L 263.753159 26.508634 
L 264.860544 26.508634 
L 264.860544 22.117347 
L 266.721433 22.117347 
L 266.721433 17.726059 
L 269.723294 17.726059 
L 269.723294 13.334772 
L 269.723294 13.334772 
L 269.723294 13.334772 
L 367.82 13.334772 
" style="fill:none;stroke:#00bfbf;stroke-linecap:square;stroke-width:1.5;"/>
   </g>
   <g id="line2d_28">
    <path clip-path="url(#p2a969924a8)" d="M 172.994313 276.812 
L 172.994313 272.420713 
L 175.45477 272.420713 
L 175.45477 268.029426 
L 181.352594 268.029426 
L 181.352594 263.638139 
L 181.730057 263.638139 
L 181.730057 259.246851 
L 182.210919 259.246851 
L 182.210919 254.855564 
L 182.953943 254.855564 
L 182.953943 250.464277 
L 183.708128 250.464277 
L 183.708128 246.07299 
L 183.777719 246.07299 
L 183.777719 241.681703 
L 185.167402 241.681703 
L 185.167402 237.290416 
L 186.418677 237.290416 
L 186.418677 232.899129 
L 186.69145 232.899129 
L 186.69145 228.507842 
L 186.76362 228.507842 
L 186.76362 224.116554 
L 187.582398 224.116554 
L 187.582398 219.725267 
L 187.874335 219.725267 
L 187.874335 215.33398 
L 188.050226 215.33398 
L 188.050226 210.942693 
L 189.171213 210.942693 
L 189.171213 206.551406 
L 189.690987 206.551406 
L 189.690987 202.160119 
L 189.7873 202.160119 
L 189.7873 197.768832 
L 189.788779 197.768832 
L 189.788779 193.377545 
L 190.856359 193.377545 
L 190.856359 188.986257 
L 191.268697 188.986257 
L 191.268697 184.59497 
L 191.482761 184.59497 
L 191.482761 180.203683 
L 191.649449 180.203683 
L 191.649449 175.812396 
L 191.754888 175.812396 
L 191.754888 171.421109 
L 192.115351 171.421109 
L 192.115351 167.029822 
L 192.442001 167.029822 
L 192.442001 162.638535 
L 192.475764 162.638535 
L 192.475764 158.247248 
L 192.848898 158.247248 
L 192.848898 153.85596 
L 193.045954 153.85596 
L 193.045954 149.464673 
L 193.111778 149.464673 
L 193.111778 145.073386 
L 193.42965 145.073386 
L 193.42965 140.682099 
L 193.781951 140.682099 
L 193.781951 136.290812 
L 193.974032 136.290812 
L 193.974032 131.899525 
L 194.068208 131.899525 
L 194.068208 127.508238 
L 194.153944 127.508238 
L 194.153944 123.11695 
L 194.335276 123.11695 
L 194.335276 118.725663 
L 194.391985 118.725663 
L 194.391985 114.334376 
L 194.416972 114.334376 
L 194.416972 109.943089 
L 194.545708 109.943089 
L 194.545708 105.551802 
L 194.831163 105.551802 
L 194.831163 101.160515 
L 194.832027 101.160515 
L 194.832027 96.769228 
L 194.871902 96.769228 
L 194.871902 92.377941 
L 195.07755 92.377941 
L 195.07755 87.986653 
L 195.345064 87.986653 
L 195.345064 83.595366 
L 195.839524 83.595366 
L 195.839524 79.204079 
L 195.904663 79.204079 
L 195.904663 74.812792 
L 195.999674 74.812792 
L 195.999674 70.421505 
L 196.346475 70.421505 
L 196.346475 66.030218 
L 196.924093 66.030218 
L 196.924093 61.638931 
L 197.110464 61.638931 
L 197.110464 57.247644 
L 199.033092 57.247644 
L 199.033092 52.856356 
L 206.411536 52.856356 
L 206.411536 48.465069 
L 206.412575 48.465069 
L 206.412575 44.073782 
L 207.176466 44.073782 
L 207.176466 39.682495 
L 207.178119 39.682495 
L 207.178119 35.291208 
L 207.622632 35.291208 
L 207.622632 30.899921 
L 207.93015 30.899921 
L 207.93015 26.508634 
L 208.306284 26.508634 
L 208.306284 22.117347 
L 211.94239 22.117347 
L 211.94239 17.726059 
L 212.525169 17.726059 
L 212.525169 13.334772 
L 212.525169 13.334772 
L 212.525169 13.334772 
L 367.82 13.334772 
" style="fill:none;stroke:#bf00bf;stroke-linecap:square;stroke-width:1.5;"/>
   </g>
   <g id="line2d_29">
    <path clip-path="url(#p2a969924a8)" d="M -1 228.507842 
L 30.518307 228.507842 
L 30.518307 224.116554 
L 41.395806 224.116554 
L 41.395806 219.725267 
L 61.530512 219.725267 
L 61.530512 215.33398 
L 68.176394 215.33398 
L 68.176394 210.942693 
L 111.469109 210.942693 
L 111.469109 206.551406 
L 145.362584 206.551406 
L 145.362584 202.160119 
L 146.880802 202.160119 
L 146.880802 197.768832 
L 151.247924 197.768832 
L 151.247924 193.377545 
L 171.976356 193.377545 
L 171.976356 188.986257 
L 173.799126 188.986257 
L 173.799126 184.59497 
L 182.097784 184.59497 
L 182.097784 180.203683 
L 182.88222 180.203683 
L 182.88222 175.812396 
L 182.965593 175.812396 
L 182.965593 171.421109 
L 183.092894 171.421109 
L 183.092894 167.029822 
L 183.147835 167.029822 
L 183.147835 162.638535 
L 184.232649 162.638535 
L 184.232649 158.247248 
L 185.044358 158.247248 
L 185.044358 153.85596 
L 185.161678 153.85596 
L 185.161678 149.464673 
L 185.181123 149.464673 
L 185.181123 145.073386 
L 185.19096 145.073386 
L 185.19096 140.682099 
L 185.927102 140.682099 
L 185.927102 136.290812 
L 186.090028 136.290812 
L 186.090028 131.899525 
L 187.563522 131.899525 
L 187.563522 127.508238 
L 187.740335 127.508238 
L 187.740335 123.11695 
L 187.783888 123.11695 
L 187.783888 118.725663 
L 187.841989 118.725663 
L 187.841989 114.334376 
L 187.874335 114.334376 
L 187.874335 109.943089 
L 188.603374 109.943089 
L 188.603374 105.551802 
L 189.171213 105.551802 
L 189.171213 101.160515 
L 189.289533 101.160515 
L 189.289533 96.769228 
L 189.496959 96.769228 
L 189.496959 92.377941 
L 189.578241 92.377941 
L 189.578241 87.986653 
L 189.591097 87.986653 
L 189.591097 83.595366 
L 189.688504 83.595366 
L 189.688504 79.204079 
L 189.7873 79.204079 
L 189.7873 74.812792 
L 189.788779 74.812792 
L 189.788779 70.421505 
L 189.791624 70.421505 
L 189.791624 66.030218 
L 189.876787 66.030218 
L 189.876787 61.638931 
L 191.242126 61.638931 
L 191.242126 57.247644 
L 191.482761 57.247644 
L 191.482761 52.856356 
L 191.648786 52.856356 
L 191.648786 48.465069 
L 191.754888 48.465069 
L 191.754888 44.073782 
L 192.115351 44.073782 
L 192.115351 39.682495 
L 192.442001 39.682495 
L 192.442001 35.291208 
L 193.67298 35.291208 
L 193.67298 30.899921 
L 196.342308 30.899921 
L 196.342308 26.508634 
L 196.924093 26.508634 
L 196.924093 22.117347 
L 206.688237 22.117347 
L 206.688237 17.726059 
L 206.874764 17.726059 
L 206.874764 13.334772 
L 206.874764 13.334772 
L 206.874764 13.334772 
L 367.82 13.334772 
" style="fill:none;stroke:#000000;stroke-linecap:square;stroke-width:1.5;"/>
   </g>
   <g id="patch_3">
    <path d="M 10.7 276.812 
L 10.7 10.7 
" style="fill:none;stroke:#000000;stroke-linecap:square;stroke-linejoin:miter;stroke-width:0.8;"/>
   </g>
   <g id="patch_4">
    <path d="M 367.82 276.812 
L 367.82 10.7 
" style="fill:none;stroke:#000000;stroke-linecap:square;stroke-linejoin:miter;stroke-width:0.8;"/>
   </g>
   <g id="patch_5">
    <path d="M 10.7 276.812 
L 367.82 276.812 
" style="fill:none;stroke:#000000;stroke-linecap:square;stroke-linejoin:miter;stroke-width:0.8;"/>
   </g>
   <g id="patch_6">
    <path d="M 10.7 10.7 
L 367.82 10.7 
" style="fill:none;stroke:#000000;stroke-linecap:square;stroke-linejoin:miter;stroke-width:0.8;"/>
   </g>
   <g id="text_6">
    <!-- {f6-f9}, 20-D -->
    <defs>
     <path d="M 51.125 -9.28125 
L 51.125 -16.3125 
L 48.09375 -16.3125 
Q 35.9375 -16.3125 31.8125 -12.6875 
Q 27.6875 -9.078125 27.6875 1.703125 
L 27.6875 13.375 
Q 27.6875 20.75 25.046875 23.578125 
Q 22.40625 26.421875 15.484375 26.421875 
L 12.5 26.421875 
L 12.5 33.40625 
L 15.484375 33.40625 
Q 22.46875 33.40625 25.078125 36.203125 
Q 27.6875 39.015625 27.6875 46.296875 
L 27.6875 58.015625 
Q 27.6875 68.796875 31.8125 72.390625 
Q 35.9375 75.984375 48.09375 75.984375 
L 51.125 75.984375 
L 51.125 69 
L 47.796875 69 
Q 40.921875 69 38.8125 66.84375 
Q 36.71875 64.703125 36.71875 57.8125 
L 36.71875 45.703125 
Q 36.71875 38.03125 34.5 34.5625 
Q 32.28125 31.109375 26.90625 29.890625 
Q 32.328125 28.5625 34.515625 25.09375 
Q 36.71875 21.625 36.71875 14.015625 
L 36.71875 1.90625 
Q 36.71875 -4.984375 38.8125 -7.125 
Q 40.921875 -9.28125 47.796875 -9.28125 
z
" id="DejaVuSans-7b"/>
     <path d="M 33.015625 40.375 
Q 26.375 40.375 22.484375 35.828125 
Q 18.609375 31.296875 18.609375 23.390625 
Q 18.609375 15.53125 22.484375 10.953125 
Q 26.375 6.390625 33.015625 6.390625 
Q 39.65625 6.390625 43.53125 10.953125 
Q 47.40625 15.53125 47.40625 23.390625 
Q 47.40625 31.296875 43.53125 35.828125 
Q 39.65625 40.375 33.015625 40.375 
z
M 52.59375 71.296875 
L 52.59375 62.3125 
Q 48.875 64.0625 45.09375 64.984375 
Q 41.3125 65.921875 37.59375 65.921875 
Q 27.828125 65.921875 22.671875 59.328125 
Q 17.53125 52.734375 16.796875 39.40625 
Q 19.671875 43.65625 24.015625 45.921875 
Q 28.375 48.1875 33.59375 48.1875 
Q 44.578125 48.1875 50.953125 41.515625 
Q 57.328125 34.859375 57.328125 23.390625 
Q 57.328125 12.15625 50.6875 5.359375 
Q 44.046875 -1.421875 33.015625 -1.421875 
Q 20.359375 -1.421875 13.671875 8.265625 
Q 6.984375 17.96875 6.984375 36.375 
Q 6.984375 53.65625 15.1875 63.9375 
Q 23.390625 74.21875 37.203125 74.21875 
Q 40.921875 74.21875 44.703125 73.484375 
Q 48.484375 72.75 52.59375 71.296875 
z
" id="DejaVuSans-36"/>
     <path d="M 10.984375 1.515625 
L 10.984375 10.5 
Q 14.703125 8.734375 18.5 7.8125 
Q 22.3125 6.890625 25.984375 6.890625 
Q 35.75 6.890625 40.890625 13.453125 
Q 46.046875 20.015625 46.78125 33.40625 
Q 43.953125 29.203125 39.59375 26.953125 
Q 35.25 24.703125 29.984375 24.703125 
Q 19.046875 24.703125 12.671875 31.3125 
Q 6.296875 37.9375 6.296875 49.421875 
Q 6.296875 60.640625 12.9375 67.421875 
Q 19.578125 74.21875 30.609375 74.21875 
Q 43.265625 74.21875 49.921875 64.515625 
Q 56.59375 54.828125 56.59375 36.375 
Q 56.59375 19.140625 48.40625 8.859375 
Q 40.234375 -1.421875 26.421875 -1.421875 
Q 22.703125 -1.421875 18.890625 -0.6875 
Q 15.09375 0.046875 10.984375 1.515625 
z
M 30.609375 32.421875 
Q 37.25 32.421875 41.125 36.953125 
Q 45.015625 41.5 45.015625 49.421875 
Q 45.015625 57.28125 41.125 61.84375 
Q 37.25 66.40625 30.609375 66.40625 
Q 23.96875 66.40625 20.09375 61.84375 
Q 16.21875 57.28125 16.21875 49.421875 
Q 16.21875 41.5 20.09375 36.953125 
Q 23.96875 32.421875 30.609375 32.421875 
z
" id="DejaVuSans-39"/>
     <path d="M 12.5 -9.28125 
L 15.921875 -9.28125 
Q 22.75 -9.28125 24.828125 -7.171875 
Q 26.90625 -5.078125 26.90625 1.90625 
L 26.90625 14.015625 
Q 26.90625 21.625 29.09375 25.09375 
Q 31.296875 28.5625 36.71875 29.890625 
Q 31.296875 31.109375 29.09375 34.5625 
Q 26.90625 38.03125 26.90625 45.703125 
L 26.90625 57.8125 
Q 26.90625 64.75 24.828125 66.875 
Q 22.75 69 15.921875 69 
L 12.5 69 
L 12.5 75.984375 
L 15.578125 75.984375 
Q 27.734375 75.984375 31.8125 72.390625 
Q 35.890625 68.796875 35.890625 58.015625 
L 35.890625 46.296875 
Q 35.890625 39.015625 38.515625 36.203125 
Q 41.15625 33.40625 48.09375 33.40625 
L 51.125 33.40625 
L 51.125 26.421875 
L 48.09375 26.421875 
Q 41.15625 26.421875 38.515625 23.578125 
Q 35.890625 20.75 35.890625 13.375 
L 35.890625 1.703125 
Q 35.890625 -9.078125 31.8125 -12.6875 
Q 27.734375 -16.3125 15.578125 -16.3125 
L 12.5 -16.3125 
z
" id="DejaVuSans-7d"/>
     <path d="M 11.71875 12.40625 
L 22.015625 12.40625 
L 22.015625 4 
L 14.015625 -11.625 
L 7.71875 -11.625 
L 11.71875 4 
z
" id="DejaVuSans-2c"/>
     <path d="M 19.1875 8.296875 
L 53.609375 8.296875 
L 53.609375 0 
L 7.328125 0 
L 7.328125 8.296875 
Q 12.9375 14.109375 22.625 23.890625 
Q 32.328125 33.6875 34.8125 36.53125 
Q 39.546875 41.84375 41.421875 45.53125 
Q 43.3125 49.21875 43.3125 52.78125 
Q 43.3125 58.59375 39.234375 62.25 
Q 35.15625 65.921875 28.609375 65.921875 
Q 23.96875 65.921875 18.8125 64.3125 
Q 13.671875 62.703125 7.8125 59.421875 
L 7.8125 69.390625 
Q 13.765625 71.78125 18.9375 73 
Q 24.125 74.21875 28.421875 74.21875 
Q 39.75 74.21875 46.484375 68.546875 
Q 53.21875 62.890625 53.21875 53.421875 
Q 53.21875 48.921875 51.53125 44.890625 
Q 49.859375 40.875 45.40625 35.40625 
Q 44.1875 33.984375 37.640625 27.21875 
Q 31.109375 20.453125 19.1875 8.296875 
z
" id="DejaVuSans-32"/>
    </defs>
    <g transform="translate(227.7026 271.48976)scale(0.2 -0.2)">
     <use xlink:href="#DejaVuSans-7b"/>
     <use x="63.623047" xlink:href="#DejaVuSans-66"/>
     <use x="98.828125" xlink:href="#DejaVuSans-36"/>
     <use x="162.451172" xlink:href="#DejaVuSans-2d"/>
     <use x="198.535156" xlink:href="#DejaVuSans-66"/>
     <use x="233.740234" xlink:href="#DejaVuSans-39"/>
     <use x="297.363281" xlink:href="#DejaVuSans-7d"/>
     <use x="360.986328" xlink:href="#DejaVuSans-2c"/>
     <use x="392.773438" xlink:href="#DejaVuSans-20"/>
     <use x="424.560547" xlink:href="#DejaVuSans-32"/>
     <use x="488.183594" xlink:href="#DejaVuSans-30"/>
     <use x="551.806641" xlink:href="#DejaVuSans-2d"/>
     <use x="587.890625" xlink:href="#DejaVuSans-44"/>
    </g>
   </g>
   <g id="text_7">
    <!-- v2.1 -->
    <defs>
     <path d="M 2.984375 54.6875 
L 12.5 54.6875 
L 29.59375 8.796875 
L 46.6875 54.6875 
L 56.203125 54.6875 
L 35.6875 0 
L 23.484375 0 
z
" id="DejaVuSans-76"/>
     <path d="M 10.6875 12.40625 
L 21 12.40625 
L 21 0 
L 10.6875 0 
z
" id="DejaVuSans-2e"/>
    </defs>
    <g style="fill:#808080;" transform="translate(178.349063 272.071193)scale(0.1 -0.1)">
     <use xlink:href="#DejaVuSans-76"/>
     <use x="59.179688" xlink:href="#DejaVuSans-32"/>
     <use x="122.802734" xlink:href="#DejaVuSans-2e"/>
     <use x="154.589844" xlink:href="#DejaVuSans-31"/>
    </g>
   </g>
  </g>
 </g>
 <defs>
  <clipPath id="p2a969924a8">
   <rect height="266.112" width="357.12" x="10.7" y="10.7"/>
  </clipPath>
 </defs>
</svg>
