<?xml version="1.0" encoding="utf-8" standalone="no"?>
<!DOCTYPE svg PUBLIC "-//W3C//DTD SVG 1.1//EN"
  "http://www.w3.org/Graphics/SVG/1.1/DTD/svg11.dtd">
<!-- Created with matplotlib (http://matplotlib.org/) -->
<svg height="335pt" version="1.1" viewBox="0 0 437 335" width="437pt" xmlns="http://www.w3.org/2000/svg" xmlns:xlink="http://www.w3.org/1999/xlink">
 <defs>
  <style type="text/css">
*{stroke-linecap:butt;stroke-linejoin:round;}
  </style>
 </defs>
 <g id="figure_1">
  <g id="patch_1">
   <path d="M 0 335.188165 
L 437.1825 335.188165 
L 437.1825 0 
L 0 0 
z
" style="fill:#ffffff;"/>
  </g>
  <g id="axes_1">
   <g id="patch_2">
    <path d="M 69.3625 278.275665 
L 426.4825 278.275665 
L 426.4825 12.163665 
L 69.3625 12.163665 
z
" style="fill:#ffffff;"/>
   </g>
   <g id="line2d_1">
    <path clip-path="url(#pddc93cb080)" d="M 199.762405 278.275665 
L 199.762405 274.762636 
L 199.762405 274.762636 
L 199.762405 271.249606 
L 199.762405 271.249606 
L 199.762405 267.736576 
L 199.762405 267.736576 
L 199.762405 264.223546 
L 199.762405 264.223546 
L 199.762405 260.710517 
L 199.762405 260.710517 
L 199.762405 257.197487 
L 199.762405 257.197487 
L 199.762405 253.684457 
L 199.762405 253.684457 
L 199.762405 250.171428 
L 199.762405 250.171428 
L 199.762405 246.658398 
L 199.762405 246.658398 
L 199.762405 243.145368 
L 199.762405 243.145368 
L 199.762405 239.632338 
L 199.762405 239.632338 
L 199.762405 236.119309 
L 199.762405 236.119309 
L 199.762405 232.606279 
L 199.762405 232.606279 
L 199.762405 229.093249 
L 199.762405 229.093249 
L 199.762405 225.58022 
L 205.062503 225.58022 
L 205.062503 222.06719 
L 207.499351 222.06719 
L 207.499351 218.55416 
L 207.499351 218.55416 
L 207.499351 215.041131 
L 209.813278 215.041131 
L 209.813278 211.528101 
L 209.813278 211.528101 
L 209.813278 208.015071 
L 209.813278 208.015071 
L 209.813278 204.502041 
L 209.813278 204.502041 
L 209.813278 200.989012 
L 212.016094 200.989012 
L 212.016094 197.475982 
L 212.016094 197.475982 
L 212.016094 193.962952 
L 212.016094 193.962952 
L 212.016094 190.449923 
L 214.117981 190.449923 
L 214.117981 186.936893 
L 214.117981 186.936893 
L 214.117981 183.423863 
L 214.117981 183.423863 
L 214.117981 179.910834 
L 214.117981 179.910834 
L 214.117981 176.397804 
L 216.127784 176.397804 
L 216.127784 172.884774 
L 352.453438 172.884774 
L 352.453438 169.371744 
L 353.252585 169.371744 
L 353.252585 165.858715 
L 353.842941 165.858715 
L 353.842941 162.345685 
L 354.135295 162.345685 
L 354.135295 158.832655 
L 354.425798 158.832655 
L 354.425798 155.319626 
L 355.475511 155.319626 
L 355.475511 151.806596 
L 385.874283 151.806596 
L 385.874283 148.293566 
L 386.261758 148.293566 
L 386.261758 144.780537 
L 386.645988 144.780537 
L 386.645988 141.267507 
L 403.779715 141.267507 
L 403.779715 137.754477 
L 405.776884 137.754477 
L 405.776884 134.241447 
L 405.832389 134.241447 
L 405.832389 130.728418 
L 416.269289 130.728418 
L 416.269289 127.215388 
L 416.269289 127.215388 
L 416.269289 127.215388 
L 426.4825 127.215388 
" style="fill:none;stroke:#f5deb3;stroke-linecap:square;stroke-width:1.5;"/>
   </g>
   <g id="line2d_2">
    <path clip-path="url(#pddc93cb080)" d="M 350.512767 278.275665 
L 350.512767 267.736576 
L 350.512767 267.736576 
L 350.512767 257.197487 
L 350.517773 257.197487 
L 350.517773 246.658398 
L 350.517773 246.658398 
L 350.517773 236.119309 
L 350.517773 236.119309 
L 350.517773 225.58022 
L 438.1825 225.58022 
" style="fill:none;stroke:#f5deb3;stroke-linecap:square;stroke-width:1.5;"/>
   </g>
   <g id="line2d_3">
    <path clip-path="url(#pddc93cb080)" d="M 182.019748 278.275665 
L 182.019748 274.762636 
L 182.019748 274.762636 
L 182.019748 271.249606 
L 182.019748 271.249606 
L 182.019748 267.736576 
L 182.019748 267.736576 
L 182.019748 264.223546 
L 182.21625 264.223546 
L 182.21625 260.710517 
L 182.411914 260.710517 
L 182.411914 257.197487 
L 182.411914 257.197487 
L 182.411914 253.684457 
L 182.411914 253.684457 
L 182.411914 250.171428 
L 182.411914 250.171428 
L 182.411914 246.658398 
L 182.411914 246.658398 
L 182.411914 243.145368 
L 182.411914 243.145368 
L 182.411914 239.632338 
L 182.411914 239.632338 
L 182.411914 236.119309 
L 182.411914 236.119309 
L 182.411914 232.606279 
L 182.411914 232.606279 
L 182.411914 229.093249 
L 182.606747 229.093249 
L 182.606747 225.58022 
L 182.800757 225.58022 
L 182.800757 222.06719 
L 183.186332 222.06719 
L 183.186332 218.55416 
L 185.067053 218.55416 
L 185.067053 215.041131 
L 185.798275 215.041131 
L 185.798275 211.528101 
L 187.22666 211.528101 
L 187.22666 208.015071 
L 187.22666 208.015071 
L 187.22666 204.502041 
L 187.751045 204.502041 
L 187.751045 200.989012 
L 187.924517 200.989012 
L 187.924517 197.475982 
L 188.097335 197.475982 
L 188.097335 193.962952 
L 188.951795 193.962952 
L 188.951795 190.449923 
L 189.120794 190.449923 
L 189.120794 186.936893 
L 189.624088 186.936893 
L 189.624088 183.423863 
L 191.10167 183.423863 
L 191.10167 179.910834 
L 193.616446 179.910834 
L 193.616446 176.397804 
L 195.562844 176.397804 
L 195.562844 172.884774 
L 195.562844 172.884774 
L 195.562844 172.884774 
L 426.4825 172.884774 
" style="fill:none;stroke:#f5deb3;stroke-linecap:square;stroke-width:1.5;"/>
   </g>
   <g id="line2d_4">
    <path clip-path="url(#pddc93cb080)" d="M 148.816358 278.275665 
L 148.816358 274.762636 
L 149.621346 274.762636 
L 149.621346 271.249606 
L 150.802953 271.249606 
L 150.802953 267.736576 
L 152.332534 267.736576 
L 152.332534 264.223546 
L 153.812764 264.223546 
L 153.812764 260.710517 
L 158.973612 260.710517 
L 158.973612 257.197487 
L 158.973612 257.197487 
L 158.973612 253.684457 
L 159.297876 253.684457 
L 159.297876 250.171428 
L 161.50574 250.171428 
L 161.50574 246.658398 
L 161.50574 246.658398 
L 161.50574 243.145368 
L 164.19673 243.145368 
L 164.19673 239.632338 
L 167.284836 239.632338 
L 167.284836 236.119309 
L 167.824645 236.119309 
L 167.824645 232.606279 
L 168.885575 232.606279 
L 168.885575 229.093249 
L 187.22666 229.093249 
L 187.22666 225.58022 
L 270.595543 225.58022 
L 270.595543 222.06719 
L 272.662451 222.06719 
L 272.662451 218.55416 
L 272.961897 218.55416 
L 272.961897 215.041131 
L 273.313287 215.041131 
L 273.313287 211.528101 
L 273.822064 211.528101 
L 273.822064 208.015071 
L 275.005024 208.015071 
L 275.005024 204.502041 
L 275.160473 204.502041 
L 275.160473 200.989012 
L 275.238 200.989012 
L 275.238 197.475982 
L 275.315396 197.475982 
L 275.315396 193.962952 
L 275.598072 193.962952 
L 275.598072 190.449923 
L 275.751527 190.449923 
L 275.751527 186.936893 
L 275.802565 186.936893 
L 275.802565 183.423863 
L 276.961038 183.423863 
L 276.961038 179.910834 
L 277.15956 179.910834 
L 277.15956 176.397804 
L 277.381874 176.397804 
L 277.381874 172.884774 
L 377.582848 172.884774 
L 377.582848 169.371744 
L 377.585623 169.371744 
L 377.585623 165.858715 
L 378.13176 165.858715 
L 378.13176 162.345685 
L 379.0681 162.345685 
L 379.0681 158.832655 
L 379.541168 158.832655 
L 379.541168 155.319626 
L 379.998879 155.319626 
L 379.998879 151.806596 
L 380.040981 151.806596 
L 380.040981 148.293566 
L 380.159186 148.293566 
L 380.159186 144.780537 
L 380.190656 144.780537 
L 380.190656 141.267507 
L 380.258767 141.267507 
L 380.258767 137.754477 
L 380.342457 137.754477 
L 380.342457 134.241447 
L 380.965315 134.241447 
L 380.965315 130.728418 
L 381.432076 130.728418 
L 381.432076 127.215388 
L 381.833471 127.215388 
L 381.833471 123.702358 
L 382.923241 123.702358 
L 382.923241 120.189329 
L 382.923241 120.189329 
L 382.923241 120.189329 
L 426.4825 120.189329 
" style="fill:none;stroke:#f5deb3;stroke-linecap:square;stroke-width:1.5;"/>
   </g>
   <g id="line2d_5">
    <path clip-path="url(#pddc93cb080)" d="M 232.884772 278.275665 
L 232.884772 274.762636 
L 232.884772 274.762636 
L 232.884772 271.249606 
L 236.085033 271.249606 
L 236.085033 267.736576 
L 237.399485 267.736576 
L 237.399485 264.223546 
L 239.133312 264.223546 
L 239.133312 260.710517 
L 248.071823 260.710517 
L 248.071823 257.197487 
L 252.643962 257.197487 
L 252.643962 253.684457 
L 252.686192 253.684457 
L 252.686192 250.171428 
L 252.93876 250.171428 
L 252.93876 246.658398 
L 254.870536 246.658398 
L 254.870536 243.145368 
L 258.095142 243.145368 
L 258.095142 239.632338 
L 262.594295 239.632338 
L 262.594295 236.119309 
L 266.03346 236.119309 
L 266.03346 232.606279 
L 266.379275 232.606279 
L 266.379275 229.093249 
L 270.020559 229.093249 
L 270.020559 225.58022 
L 281.750528 225.58022 
L 281.750528 222.06719 
L 285.34725 222.06719 
L 285.34725 218.55416 
L 285.533305 218.55416 
L 285.533305 215.041131 
L 285.739152 215.041131 
L 285.739152 211.528101 
L 285.862218 211.528101 
L 285.862218 208.015071 
L 285.984955 208.015071 
L 285.984955 204.502041 
L 285.984955 204.502041 
L 285.984955 200.989012 
L 286.127735 200.989012 
L 286.127735 197.475982 
L 286.432203 197.475982 
L 286.432203 193.962952 
L 286.5736 193.962952 
L 286.5736 190.449923 
L 286.774842 190.449923 
L 286.774842 186.936893 
L 287.787669 186.936893 
L 287.787669 183.423863 
L 287.826936 183.423863 
L 287.826936 179.910834 
L 288.217766 179.910834 
L 288.217766 176.397804 
L 289.046944 176.397804 
L 289.046944 172.884774 
L 438.1825 172.884774 
" style="fill:none;stroke:#f5deb3;stroke-linecap:square;stroke-width:1.5;"/>
   </g>
   <g id="line2d_6"/>
   <g id="line2d_7">
    <path clip-path="url(#pddc93cb080)" d="M 181.024412 278.275665 
L 181.024412 274.762636 
L 190.450834 274.762636 
L 190.450834 271.249606 
L 191.262947 271.249606 
L 191.262947 267.736576 
L 191.902444 267.736576 
L 191.902444 264.223546 
L 192.060935 264.223546 
L 192.060935 260.710517 
L 192.533151 260.710517 
L 192.533151 257.197487 
L 193.309534 257.197487 
L 193.309534 253.684457 
L 193.309534 253.684457 
L 193.309534 250.171428 
L 193.616446 250.171428 
L 193.616446 246.658398 
L 197.710654 246.658398 
L 197.710654 243.145368 
L 199.088631 243.145368 
L 199.088631 239.632338 
L 200.29439 239.632338 
L 200.29439 236.119309 
L 201.469272 236.119309 
L 201.469272 232.606279 
L 207.949189 232.606279 
L 207.949189 229.093249 
L 207.949189 229.093249 
L 207.949189 225.58022 
L 293.574436 225.58022 
L 293.574436 222.06719 
L 294.142283 222.06719 
L 294.142283 218.55416 
L 295.290689 218.55416 
L 295.290689 215.041131 
L 295.573355 215.041131 
L 295.573355 211.528101 
L 295.705774 211.528101 
L 295.705774 208.015071 
L 295.920143 208.015071 
L 295.920143 204.502041 
L 296.035159 204.502041 
L 296.035159 200.989012 
L 296.329598 200.989012 
L 296.329598 197.475982 
L 296.3459 197.475982 
L 296.3459 193.962952 
L 297.025423 193.962952 
L 297.025423 190.449923 
L 297.472912 190.449923 
L 297.472912 186.936893 
L 297.900324 186.936893 
L 297.900324 183.423863 
L 299.021 183.423863 
L 299.021 179.910834 
L 299.434296 179.910834 
L 299.434296 176.397804 
L 299.647141 176.397804 
L 299.647141 172.884774 
L 387.935014 172.884774 
L 387.935014 169.371744 
L 388.347257 169.371744 
L 388.347257 165.858715 
L 389.909278 165.858715 
L 389.909278 162.345685 
L 390.220036 162.345685 
L 390.220036 158.832655 
L 390.685391 158.832655 
L 390.685391 155.319626 
L 390.939131 155.319626 
L 390.939131 151.806596 
L 391.094425 151.806596 
L 391.094425 148.293566 
L 391.573547 148.293566 
L 391.573547 144.780537 
L 392.720989 144.780537 
L 392.720989 141.267507 
L 393.118283 141.267507 
L 393.118283 137.754477 
L 395.279822 137.754477 
L 395.279822 134.241447 
L 438.1825 134.241447 
" style="fill:none;stroke:#f5deb3;stroke-linecap:square;stroke-width:1.5;"/>
   </g>
   <g id="line2d_8">
    <path clip-path="url(#pddc93cb080)" d="M 364.849661 278.275665 
L 364.849661 274.762636 
L 366.277541 274.762636 
L 366.281091 267.736576 
L 366.532448 267.736576 
L 366.532448 264.223546 
L 368.097726 264.223546 
L 368.097726 260.710517 
L 368.80202 260.710517 
L 368.80202 257.197487 
L 370.077786 257.197487 
L 370.077786 253.684457 
L 370.461802 253.684457 
L 370.461802 250.171428 
L 370.849058 250.171428 
L 370.849058 246.658398 
L 371.591774 246.658398 
L 371.591774 243.145368 
L 373.753416 243.145368 
L 373.753416 239.632338 
L 374.587379 239.632338 
L 374.587379 236.119309 
L 375.725412 236.119309 
L 375.725412 232.606279 
L 376.067986 232.606279 
L 376.067986 229.093249 
L 379.551803 229.093249 
L 379.551803 225.58022 
L 438.1825 225.58022 
L 438.1825 225.58022 
" style="fill:none;stroke:#f5deb3;stroke-linecap:square;stroke-width:1.5;"/>
   </g>
   <g id="line2d_9">
    <path clip-path="url(#pddc93cb080)" d="M 176.368671 278.275665 
L 176.368671 274.762636 
L 177.901903 274.762636 
L 177.901903 271.249606 
L 180.822727 271.249606 
L 180.822727 267.736576 
L 181.624201 267.736576 
L 181.624201 264.223546 
L 181.8224 264.223546 
L 181.8224 260.710517 
L 182.411914 260.710517 
L 182.411914 257.197487 
L 183.568694 257.197487 
L 183.568694 253.684457 
L 183.758687 253.684457 
L 183.758687 250.171428 
L 184.882413 250.171428 
L 184.882413 246.658398 
L 188.441031 246.658398 
L 188.441031 243.145368 
L 189.289173 243.145368 
L 189.289173 239.632338 
L 192.533151 239.632338 
L 192.533151 236.119309 
L 193.616446 236.119309 
L 193.616446 232.606279 
L 195.562844 232.606279 
L 195.562844 229.093249 
L 197.147663 229.093249 
L 197.147663 225.58022 
L 290.680104 225.58022 
L 290.680104 222.06719 
L 293.087053 222.06719 
L 293.087053 218.55416 
L 293.383581 218.55416 
L 293.383581 215.041131 
L 293.816199 215.041131 
L 293.816199 211.528101 
L 294.005267 211.528101 
L 294.005267 208.015071 
L 294.770713 208.015071 
L 294.770713 204.502041 
L 294.821292 204.502041 
L 294.821292 200.989012 
L 295.257319 200.989012 
L 295.257319 197.475982 
L 295.606495 197.475982 
L 295.606495 193.962952 
L 296.067968 193.962952 
L 296.067968 190.449923 
L 296.296975 190.449923 
L 296.296975 186.936893 
L 296.68692 186.936893 
L 296.68692 183.423863 
L 297.281665 183.423863 
L 297.281665 179.910834 
L 297.345503 179.910834 
L 297.345503 176.397804 
L 300.174973 176.397804 
L 300.174973 172.884774 
L 383.292257 172.884774 
L 383.292257 169.371744 
L 383.348578 169.371744 
L 383.348578 165.858715 
L 384.448772 165.858715 
L 384.448772 162.345685 
L 384.575228 162.345685 
L 384.575228 158.832655 
L 384.682324 158.832655 
L 384.682324 155.319626 
L 385.256358 155.319626 
L 385.256358 151.806596 
L 385.291558 151.806596 
L 385.291558 148.293566 
L 385.751362 148.293566 
L 385.751362 144.780537 
L 385.834892 144.780537 
L 385.834892 141.267507 
L 386.089182 141.267507 
L 386.089182 137.754477 
L 387.184864 137.754477 
L 387.184864 134.241447 
L 387.225363 134.241447 
L 387.225363 130.728418 
L 387.380279 130.728418 
L 387.380279 127.215388 
L 387.666282 127.215388 
L 387.666282 123.702358 
L 387.841913 123.702358 
L 387.841913 120.189329 
L 387.841913 120.189329 
L 387.841913 120.189329 
L 426.4825 120.189329 
" style="fill:none;stroke:#f5deb3;stroke-linecap:square;stroke-width:1.5;"/>
   </g>
   <g id="line2d_10">
    <path clip-path="url(#pddc93cb080)" d="M 211.189348 278.275665 
L 211.189348 274.762636 
L 212.626522 274.762636 
L 212.626522 271.249606 
L 218.942472 271.249606 
L 218.942472 267.736576 
L 218.942472 267.736576 
L 218.942472 264.223546 
L 222.33649 264.223546 
L 222.33649 260.710517 
L 227.658889 260.710517 
L 227.658889 257.197487 
L 231.297876 257.197487 
L 231.297876 253.684457 
L 355.869169 253.684457 
L 355.869169 250.171428 
L 355.98039 250.171428 
L 355.98039 246.658398 
L 356.144504 246.658398 
L 356.144504 243.145368 
L 356.316856 243.145368 
L 356.316856 239.632338 
L 356.330087 239.632338 
L 356.330087 236.119309 
L 356.938981 236.119309 
L 356.938981 232.606279 
L 357.449617 232.606279 
L 357.449617 229.093249 
L 387.592717 229.093249 
L 387.592717 225.58022 
L 438.1825 225.58022 
" style="fill:none;stroke:#f5deb3;stroke-linecap:square;stroke-width:1.5;"/>
   </g>
   <g id="line2d_11">
    <path clip-path="url(#pddc93cb080)" d="M 141.335582 278.275665 
L 141.335582 274.762636 
L 148.408504 274.762636 
L 148.408504 271.249606 
L 149.621346 271.249606 
L 149.621346 267.736576 
L 150.412455 267.736576 
L 150.412455 264.223546 
L 151.574117 264.223546 
L 151.574117 260.710517 
L 152.707092 260.710517 
L 152.707092 257.197487 
L 155.598327 257.197487 
L 155.598327 253.684457 
L 158.64704 253.684457 
L 158.64704 250.171428 
L 158.973612 250.171428 
L 158.973612 246.658398 
L 160.885687 246.658398 
L 160.885687 243.145368 
L 164.773884 243.145368 
L 164.773884 239.632338 
L 168.885575 239.632338 
L 168.885575 236.119309 
L 169.147018 236.119309 
L 169.147018 232.606279 
L 177.032054 232.606279 
L 177.032054 229.093249 
L 183.758687 229.093249 
L 183.758687 225.58022 
L 262.526219 225.58022 
L 262.526219 222.06719 
L 263.168899 222.06719 
L 263.168899 218.55416 
L 264.231364 218.55416 
L 264.231364 215.041131 
L 264.329721 215.041131 
L 264.329721 211.528101 
L 265.493838 211.528101 
L 265.493838 208.015071 
L 265.748569 208.015071 
L 265.748569 204.502041 
L 266.691407 204.502041 
L 266.691407 200.989012 
L 267.124854 200.989012 
L 267.124854 197.475982 
L 267.217206 197.475982 
L 267.217206 193.962952 
L 268.130637 193.962952 
L 268.130637 190.449923 
L 268.461057 190.449923 
L 268.461057 186.936893 
L 268.699877 186.936893 
L 268.699877 183.423863 
L 269.350294 183.423863 
L 269.350294 179.910834 
L 270.136133 179.910834 
L 270.136133 176.397804 
L 270.937107 176.397804 
L 270.937107 172.884774 
L 270.937107 172.884774 
L 270.937107 172.884774 
L 426.4825 172.884774 
" style="fill:none;stroke:#f5deb3;stroke-linecap:square;stroke-width:1.5;"/>
   </g>
   <g id="line2d_12">
    <path clip-path="url(#pddc93cb080)" d="M 104.484596 278.275665 
L 104.484596 274.762636 
L 104.484596 274.762636 
L 104.484596 271.249606 
L 104.484596 271.249606 
L 104.484596 267.736576 
L 104.484596 267.736576 
L 104.484596 264.223546 
L 104.484596 264.223546 
L 104.484596 260.710517 
L 104.484596 260.710517 
L 104.484596 257.197487 
L 104.484596 257.197487 
L 104.484596 253.684457 
L 104.484596 253.684457 
L 104.484596 250.171428 
L 104.484596 250.171428 
L 104.484596 246.658398 
L 104.484596 246.658398 
L 104.484596 243.145368 
L 104.484596 243.145368 
L 104.484596 239.632338 
L 104.484596 239.632338 
L 104.484596 236.119309 
L 104.484596 236.119309 
L 104.484596 232.606279 
L 104.484596 232.606279 
L 104.484596 229.093249 
L 104.484596 229.093249 
L 104.484596 225.58022 
L 135.75174 225.58022 
L 135.75174 222.06719 
L 145.882187 222.06719 
L 145.882187 218.55416 
L 145.882187 218.55416 
L 145.882187 215.041131 
L 145.882187 215.041131 
L 145.882187 211.528101 
L 145.882187 211.528101 
L 145.882187 208.015071 
L 145.882187 208.015071 
L 145.882187 204.502041 
L 145.882187 204.502041 
L 145.882187 200.989012 
L 145.882187 200.989012 
L 145.882187 197.475982 
L 145.882187 197.475982 
L 145.882187 193.962952 
L 145.882187 193.962952 
L 145.882187 190.449923 
L 154.175479 190.449923 
L 154.175479 186.936893 
L 154.175479 186.936893 
L 154.175479 183.423863 
L 154.175479 183.423863 
L 154.175479 179.910834 
L 154.175479 179.910834 
L 154.175479 176.397804 
L 167.284836 176.397804 
L 167.284836 172.884774 
L 348.752425 172.884774 
L 348.752425 169.371744 
L 350.362347 169.371744 
L 350.362347 165.858715 
L 352.926047 165.858715 
L 352.926047 162.345685 
L 358.964945 162.345685 
L 358.964945 158.832655 
L 359.073071 158.832655 
L 359.073071 155.319626 
L 359.769752 155.319626 
L 359.769752 151.806596 
L 360.689188 151.806596 
L 360.689188 148.293566 
L 360.873281 148.293566 
L 360.873281 144.780537 
L 361.124216 144.780537 
L 361.124216 141.267507 
L 361.357981 141.267507 
L 361.357981 137.754477 
L 361.539416 137.754477 
L 361.539416 134.241447 
L 361.622007 134.241447 
L 361.622007 130.728418 
L 361.704449 130.728418 
L 361.704449 127.215388 
L 361.786744 127.215388 
L 361.786744 123.702358 
L 364.732313 123.702358 
L 364.732313 120.189329 
L 364.732313 120.189329 
L 364.732313 120.189329 
L 426.4825 120.189329 
" style="fill:none;stroke:#f5deb3;stroke-linecap:square;stroke-width:1.5;"/>
   </g>
   <g id="line2d_13">
    <path clip-path="url(#pddc93cb080)" d="M 277.283201 278.275665 
L 277.283201 274.762636 
L 277.283201 274.762636 
L 277.283201 271.249606 
L 278.018131 271.249606 
L 278.018131 267.736576 
L 278.018131 267.736576 
L 278.018131 264.223546 
L 279.122646 264.223546 
L 279.122646 260.710517 
L 279.241116 260.710517 
L 279.241116 257.197487 
L 279.241116 257.197487 
L 279.241116 253.684457 
L 279.241116 253.684457 
L 279.241116 250.171428 
L 279.875618 250.171428 
L 279.875618 246.658398 
L 281.750528 246.658398 
L 281.750528 243.145368 
L 281.750528 243.145368 
L 281.750528 239.632338 
L 281.750528 239.632338 
L 281.750528 236.119309 
L 281.840056 236.119309 
L 281.840056 232.606279 
L 281.840056 232.606279 
L 281.840056 229.093249 
L 281.840056 229.093249 
L 281.840056 225.58022 
L 281.840056 225.58022 
L 281.840056 225.58022 
L 426.4825 225.58022 
" style="fill:none;stroke:#f5deb3;stroke-linecap:square;stroke-width:1.5;"/>
   </g>
   <g id="line2d_14">
    <path clip-path="url(#pddc93cb080)" d="M 165.059761 278.275665 
L 165.059761 274.762636 
L 166.463026 274.762636 
L 166.463026 271.249606 
L 167.284836 271.249606 
L 167.284836 267.736576 
L 168.358176 267.736576 
L 168.358176 264.223546 
L 168.622633 264.223546 
L 168.622633 260.710517 
L 168.622633 260.710517 
L 168.622633 257.197487 
L 168.885575 257.197487 
L 168.885575 253.684457 
L 169.147018 253.684457 
L 169.147018 250.171428 
L 169.665477 250.171428 
L 169.665477 246.658398 
L 169.665477 246.658398 
L 169.665477 243.145368 
L 169.665477 243.145368 
L 169.665477 239.632338 
L 169.665477 239.632338 
L 169.665477 236.119309 
L 169.922527 236.119309 
L 169.922527 232.606279 
L 170.178144 232.606279 
L 170.178144 229.093249 
L 170.178144 229.093249 
L 170.178144 225.58022 
L 234.731812 225.58022 
L 234.731812 222.06719 
L 235.658776 222.06719 
L 235.658776 218.55416 
L 236.98532 218.55416 
L 236.98532 215.041131 
L 237.458347 215.041131 
L 237.458347 211.528101 
L 237.868282 211.528101 
L 237.868282 208.015071 
L 240.03191 208.015071 
L 240.03191 204.502041 
L 240.198455 204.502041 
L 240.198455 200.989012 
L 240.30915 200.989012 
L 240.30915 197.475982 
L 240.74928 197.475982 
L 240.74928 193.962952 
L 241.401659 193.962952 
L 241.401659 190.449923 
L 241.563314 190.449923 
L 241.563314 186.936893 
L 241.670769 186.936893 
L 241.670769 183.423863 
L 242.784107 183.423863 
L 242.784107 179.910834 
L 243.097304 179.910834 
L 243.097304 176.397804 
L 243.30492 176.397804 
L 243.30492 172.884774 
L 251.315164 172.884774 
L 251.315164 169.371744 
L 254.058424 169.371744 
L 254.058424 165.858715 
L 254.384996 165.858715 
L 254.384996 162.345685 
L 255.708062 162.345685 
L 255.708062 158.832655 
L 256.062374 158.832655 
L 256.062374 155.319626 
L 256.491739 155.319626 
L 256.491739 151.806596 
L 257.224036 151.806596 
L 257.224036 148.293566 
L 258.020046 148.293566 
L 258.020046 144.780537 
L 258.357011 144.780537 
L 258.357011 141.267507 
L 260.185268 141.267507 
L 260.185268 137.754477 
L 265.875405 137.754477 
L 265.875405 134.241447 
L 268.040108 134.241447 
L 268.040108 130.728418 
L 271.276147 130.728418 
L 271.276147 127.215388 
L 438.1825 127.215388 
" style="fill:none;stroke:#f5deb3;stroke-linecap:square;stroke-width:1.5;"/>
   </g>
   <g id="line2d_15"/>
   <g id="line2d_16">
    <path clip-path="url(#pddc93cb080)" d="M 286.935203 278.275665 
L 286.935203 274.762636 
L 287.313828 274.762636 
L 287.313828 271.249606 
L 288.178832 271.249606 
L 288.178832 267.736576 
L 288.566689 267.736576 
L 288.566689 264.223546 
L 291.989063 264.223546 
L 291.989063 260.710517 
L 294.888643 260.710517 
L 294.888643 257.197487 
L 296.73543 257.197487 
L 296.73543 253.684457 
L 298.151739 253.684457 
L 298.151739 250.171428 
L 298.836111 250.171428 
L 298.836111 246.658398 
L 299.067106 246.658398 
L 299.067106 243.145368 
L 299.934431 243.145368 
L 299.934431 239.632338 
L 300.264852 239.632338 
L 300.264852 236.119309 
L 303.234501 236.119309 
L 303.234501 232.606279 
L 304.137332 232.606279 
L 304.137332 229.093249 
L 313.194452 229.093249 
L 313.194452 225.58022 
L 364.474562 225.58022 
L 364.474562 222.06719 
L 365.061593 222.06719 
L 365.061593 218.55416 
L 367.765548 218.55416 
L 367.765548 215.041131 
L 368.593215 215.041131 
L 368.593215 211.528101 
L 368.785216 211.528101 
L 368.785216 208.015071 
L 369.336523 208.015071 
L 369.336523 204.502041 
L 370.361227 204.502041 
L 370.361227 200.989012 
L 371.360368 200.989012 
L 371.360368 197.475982 
L 372.166794 197.475982 
L 372.166794 193.962952 
L 372.747032 193.962952 
L 372.747032 190.449923 
L 374.909119 190.449923 
L 374.909119 186.936893 
L 375.632853 186.936893 
L 375.632853 183.423863 
L 376.93451 183.423863 
L 376.93451 179.910834 
L 377.593947 179.910834 
L 377.593947 176.397804 
L 377.73245 176.397804 
L 377.73245 172.884774 
L 385.103512 172.884774 
L 385.103512 169.371744 
L 385.892809 169.371744 
L 385.892809 165.858715 
L 387.108268 165.858715 
L 387.108268 162.345685 
L 387.539141 162.345685 
L 387.539141 158.832655 
L 387.959366 158.832655 
L 387.959366 155.319626 
L 388.149313 155.319626 
L 388.149313 151.806596 
L 388.301146 151.806596 
L 388.388936 144.780537 
L 388.821037 144.780537 
L 388.821037 141.267507 
L 389.332956 141.267507 
L 389.332956 137.754477 
L 389.941085 137.754477 
L 389.941085 134.241447 
L 390.061749 134.241447 
L 390.061749 130.728418 
L 390.793714 130.728418 
L 390.793714 127.215388 
L 390.984739 127.215388 
L 390.984739 123.702358 
L 391.651215 123.702358 
L 391.651215 120.189329 
L 395.328855 120.189329 
L 395.328855 116.676299 
L 431.818629 116.676299 
L 431.818629 113.163269 
L 436.012641 113.163269 
L 436.012641 109.650239 
L 438.1825 109.650239 
L 438.1825 109.650239 
" style="fill:none;stroke:#f5deb3;stroke-linecap:square;stroke-width:1.5;"/>
   </g>
   <g id="line2d_17">
    <path clip-path="url(#pddc93cb080)" d="M 309.222617 278.275665 
L 309.222617 274.762636 
L 314.529654 274.762636 
L 314.529654 271.249606 
L 314.529654 271.249606 
L 314.529654 267.736576 
L 314.639186 267.736576 
L 314.639186 264.223546 
L 316.901792 264.223546 
L 316.901792 260.710517 
L 328.019113 260.710517 
L 328.019113 257.197487 
L 333.067836 257.197487 
L 333.067836 253.684457 
L 336.515187 253.684457 
L 336.515187 250.171428 
L 337.899914 250.171428 
L 337.899914 246.658398 
L 338.175845 246.658398 
L 338.175845 243.145368 
L 344.11481 243.145368 
L 344.11481 239.632338 
L 346.284073 239.632338 
L 346.284073 236.119309 
L 349.156365 236.119309 
L 349.156365 232.606279 
L 357.929087 232.606279 
L 357.929087 229.093249 
L 362.114455 229.093249 
L 362.114455 225.58022 
L 438.1825 225.58022 
" style="fill:none;stroke:#f5deb3;stroke-linecap:square;stroke-width:1.5;"/>
   </g>
   <g id="line2d_18">
    <path clip-path="url(#pddc93cb080)" d="M 104.484596 278.275665 
L 104.484596 274.762636 
L 104.484596 274.762636 
L 104.484596 271.249606 
L 104.484596 271.249606 
L 104.484596 267.736576 
L 104.484596 267.736576 
L 104.484596 264.223546 
L 104.484596 264.223546 
L 104.484596 260.710517 
L 104.484596 260.710517 
L 104.484596 257.197487 
L 104.484596 257.197487 
L 104.484596 253.684457 
L 104.484596 253.684457 
L 104.484596 250.171428 
L 105.539429 250.171428 
L 105.539429 246.658398 
L 105.539429 246.658398 
L 105.539429 243.145368 
L 105.539429 243.145368 
L 105.539429 239.632338 
L 105.539429 239.632338 
L 105.539429 236.119309 
L 105.539429 236.119309 
L 105.539429 232.606279 
L 105.539429 232.606279 
L 105.539429 229.093249 
L 107.579017 229.093249 
L 107.579017 225.58022 
L 108.56579 225.58022 
L 108.56579 222.06719 
L 108.56579 222.06719 
L 108.56579 218.55416 
L 111.40483 218.55416 
L 111.40483 215.041131 
L 112.313437 215.041131 
L 112.313437 211.528101 
L 114.078392 211.528101 
L 114.078392 208.015071 
L 118.999158 208.015071 
L 118.999158 204.502041 
L 119.770322 204.502041 
L 119.770322 200.989012 
L 119.770322 200.989012 
L 119.770322 197.475982 
L 122.00897 197.475982 
L 122.00897 193.962952 
L 131.216379 193.962952 
L 131.216379 190.449923 
L 131.808428 190.449923 
L 131.808428 186.936893 
L 131.808428 186.936893 
L 131.808428 183.423863 
L 135.208737 183.423863 
L 135.208737 179.910834 
L 136.288391 179.910834 
L 136.288391 176.397804 
L 137.861683 176.397804 
L 137.861683 172.884774 
L 438.1825 172.884774 
" style="fill:none;stroke:#f5deb3;stroke-linecap:square;stroke-width:1.5;"/>
   </g>
   <g id="line2d_19">
    <path clip-path="url(#pddc93cb080)" d="M 351.654777 278.275665 
L 351.654777 274.762636 
L 357.458223 274.762636 
L 357.458223 271.249606 
L 360.258092 271.249606 
L 360.258092 267.736576 
L 361.551224 267.736576 
L 361.551224 264.223546 
L 362.812736 264.223546 
L 362.812736 260.710517 
L 363.894883 260.710517 
L 363.894883 257.197487 
L 368.417352 257.197487 
L 368.417352 253.684457 
L 368.424129 253.684457 
L 368.424129 250.171428 
L 370.56539 250.171428 
L 370.56539 246.658398 
L 371.572798 246.658398 
L 371.572798 243.145368 
L 371.594935 243.145368 
L 371.594935 239.632338 
L 371.601259 239.632338 
L 371.601259 236.119309 
L 371.607581 236.119309 
L 371.607581 232.606279 
L 373.514495 232.606279 
L 373.514495 229.093249 
L 382.466491 229.093249 
L 382.466491 225.58022 
L 438.1825 225.58022 
" style="fill:none;stroke:#f5deb3;stroke-linecap:square;stroke-width:1.5;"/>
   </g>
   <g id="line2d_20">
    <path clip-path="url(#pddc93cb080)" d="M 163.020173 278.275665 
L 163.020173 274.762636 
L 168.885575 274.762636 
L 168.885575 271.249606 
L 169.40698 271.249606 
L 169.40698 267.736576 
L 172.899777 267.736576 
L 172.899777 264.223546 
L 179.59364 264.223546 
L 179.59364 260.710517 
L 182.21625 260.710517 
L 182.21625 257.197487 
L 183.377911 257.197487 
L 183.377911 253.684457 
L 183.947896 253.684457 
L 183.947896 250.171428 
L 189.120794 250.171428 
L 189.120794 246.658398 
L 191.262947 246.658398 
L 191.262947 243.145368 
L 192.689482 243.145368 
L 192.689482 239.632338 
L 194.823968 239.632338 
L 194.823968 236.119309 
L 196.863556 236.119309 
L 196.863556 232.606279 
L 200.029168 232.606279 
L 200.029168 229.093249 
L 207.837142 229.093249 
L 207.837142 225.58022 
L 269.875679 225.58022 
L 269.875679 222.06719 
L 270.937107 222.06719 
L 270.937107 218.55416 
L 272.934755 218.55416 
L 272.934755 215.041131 
L 273.393996 215.041131 
L 273.393996 211.528101 
L 276.460944 211.528101 
L 276.460944 208.015071 
L 278.357112 208.015071 
L 278.357112 204.502041 
L 278.357112 204.502041 
L 278.357112 200.989012 
L 278.597716 200.989012 
L 278.597716 197.475982 
L 278.597716 197.475982 
L 278.597716 193.962952 
L 278.717547 193.962952 
L 278.717547 190.449923 
L 279.075173 190.449923 
L 279.075173 186.936893 
L 281.52594 186.936893 
L 281.52594 183.423863 
L 282.040858 183.423863 
L 282.040858 179.910834 
L 283.400784 179.910834 
L 283.400784 176.397804 
L 290.011349 176.397804 
L 290.011349 172.884774 
L 360.801333 172.884774 
L 360.801333 169.371744 
L 361.112298 169.371744 
L 361.112298 165.858715 
L 364.780022 165.858715 
L 364.780022 162.345685 
L 368.979765 162.345685 
L 368.979765 158.832655 
L 369.910812 158.832655 
L 369.910812 155.319626 
L 369.996012 155.319626 
L 369.996012 151.806596 
L 370.11372 151.806596 
L 370.11372 148.293566 
L 370.318985 148.293566 
L 370.318985 144.780537 
L 373.020632 144.780537 
L 373.020632 141.267507 
L 416.295553 141.267507 
L 416.295553 137.754477 
L 421.995379 137.754477 
L 421.995379 134.241447 
L 425.339487 134.241447 
L 425.339487 130.728418 
L 430.602847 130.728418 
L 430.602847 127.215388 
L 437.675146 127.215388 
L 437.675146 123.702358 
L 438.1825 123.702358 
" style="fill:none;stroke:#f5deb3;stroke-linecap:square;stroke-width:1.5;"/>
   </g>
   <g id="line2d_21">
    <path clip-path="url(#pddc93cb080)" d="M 335.178355 278.275665 
L 335.178355 274.762636 
L 335.178355 274.762636 
L 335.178355 274.762636 
L 335.185346 274.762636 
L 335.283119 246.658398 
L 335.317987 246.658398 
L 335.317987 243.145368 
L 335.685971 243.145368 
L 335.685971 239.632338 
L 336.358717 239.632338 
L 336.358717 236.119309 
L 340.543752 236.119309 
L 340.543752 232.606279 
L 341.922465 232.606279 
L 342.02497 127.215388 
L 342.169295 127.215388 
L 342.271251 85.059032 
L 342.283231 85.059032 
L 342.349065 53.441764 
L 343.255092 53.441764 
L 343.255092 49.928735 
L 343.50654 49.928735 
L 343.50654 46.415705 
L 343.727608 46.415705 
L 343.727608 42.902675 
L 345.475587 42.902675 
L 345.475587 39.389645 
L 350.397489 39.389645 
L 350.397489 35.876616 
L 350.397489 35.876616 
L 426.4825 35.876616 
L 426.4825 35.876616 
" style="fill:none;stroke:#f5deb3;stroke-linecap:square;stroke-width:1.5;"/>
   </g>
   <g id="line2d_22">
    <path clip-path="url(#pddc93cb080)" d="M 184.697026 278.275665 
L 184.697026 274.762636 
L 188.097335 274.762636 
L 188.097335 271.249606 
L 192.689482 271.249606 
L 192.689482 267.736576 
L 195.416017 267.736576 
L 195.416017 264.223546 
L 198.679566 264.223546 
L 198.679566 260.710517 
L 201.726321 260.710517 
L 201.726321 257.197487 
L 201.854308 257.197487 
L 201.854308 253.684457 
L 202.48894 253.684457 
L 202.48894 250.171428 
L 203.609616 250.171428 
L 203.609616 246.658398 
L 203.977174 246.658398 
L 203.977174 243.145368 
L 207.272767 243.145368 
L 207.272767 239.632338 
L 207.499351 239.632338 
L 207.499351 236.119309 
L 208.283697 236.119309 
L 208.283697 232.606279 
L 212.220474 232.606279 
L 212.220474 229.093249 
L 227.512996 229.093249 
L 227.512996 225.58022 
L 273.688721 225.58022 
L 273.688721 222.06719 
L 281.884755 222.06719 
L 281.884755 218.55416 
L 281.884755 218.55416 
L 281.884755 215.041131 
L 282.616064 215.041131 
L 282.616064 211.528101 
L 283.314253 211.528101 
L 283.314253 208.015071 
L 284.023302 208.015071 
L 284.023302 204.502041 
L 286.794918 204.502041 
L 286.794918 200.989012 
L 287.035144 200.989012 
L 287.035144 197.475982 
L 287.293978 197.475982 
L 287.293978 193.962952 
L 287.964105 193.962952 
L 287.964105 190.449923 
L 289.44651 190.449923 
L 289.44651 186.936893 
L 293.017002 186.936893 
L 293.017002 183.423863 
L 293.348795 183.423863 
L 293.348795 179.910834 
L 295.423925 179.910834 
L 295.423925 176.397804 
L 298.198727 176.397804 
L 298.198727 172.884774 
L 312.899966 172.884774 
L 312.899966 169.371744 
L 314.933625 169.371744 
L 314.933625 165.858715 
L 319.226644 165.858715 
L 319.226644 162.345685 
L 319.561992 162.345685 
L 319.561992 158.832655 
L 319.914414 158.832655 
L 319.914414 155.319626 
L 322.104275 155.319626 
L 322.104275 151.806596 
L 322.400835 151.806596 
L 322.400835 148.293566 
L 322.997384 148.293566 
L 322.997384 144.780537 
L 323.143045 144.780537 
L 323.143045 141.267507 
L 323.233849 141.267507 
L 323.233849 137.754477 
L 323.405883 137.754477 
L 323.405883 134.241447 
L 323.927084 134.241447 
L 323.927084 130.728418 
L 326.133809 130.728418 
L 326.133809 127.215388 
L 328.636093 127.215388 
L 328.636093 123.702358 
L 331.828577 123.702358 
L 331.828577 120.189329 
L 331.828577 120.189329 
L 331.828577 120.189329 
L 426.4825 120.189329 
" style="fill:none;stroke:#f5deb3;stroke-linecap:square;stroke-width:1.5;"/>
   </g>
   <g id="line2d_23">
    <path clip-path="url(#pddc93cb080)" d="M 231.432234 278.275665 
L 231.432234 274.762636 
L 239.246604 274.762636 
L 239.246604 271.249606 
L 240.913246 271.249606 
L 240.913246 267.736576 
L 241.724402 267.736576 
L 241.724402 264.223546 
L 243.097304 264.223546 
L 243.097304 260.710517 
L 245.28142 260.710517 
L 245.28142 257.197487 
L 247.033271 257.197487 
L 247.033271 253.684457 
L 257.262256 253.684457 
L 257.262256 250.171428 
L 388.219791 250.171428 
L 388.219791 246.658398 
L 390.530797 246.658398 
L 390.530797 243.145368 
L 390.624869 243.145368 
L 390.624869 239.632338 
L 391.313015 239.632338 
L 391.313015 236.119309 
L 392.482957 236.119309 
L 392.482957 232.606279 
L 392.649109 232.606279 
L 392.649109 229.093249 
L 393.885194 229.093249 
L 393.885194 225.58022 
L 393.922136 225.58022 
L 393.922136 222.06719 
L 394.222401 222.06719 
L 394.222401 218.55416 
L 394.382384 218.55416 
L 394.382384 215.041131 
L 394.900886 215.041131 
L 394.900886 211.528101 
L 395.253398 211.528101 
L 395.253398 208.015071 
L 397.680186 208.015071 
L 397.680186 204.502041 
L 399.336761 204.502041 
L 399.336761 200.989012 
L 408.978307 200.989012 
L 408.978307 197.475982 
L 410.350444 197.475982 
L 410.350444 193.962952 
L 411.368887 193.962952 
L 411.368887 190.449923 
L 411.881584 190.449923 
L 411.881584 186.936893 
L 412.837369 186.936893 
L 412.837369 183.423863 
L 414.831892 183.423863 
L 414.831892 179.910834 
L 414.887307 179.910834 
L 414.887307 176.397804 
L 416.137739 176.397804 
L 416.137739 172.884774 
L 416.137739 172.884774 
L 416.137739 172.884774 
L 426.4825 172.884774 
" style="fill:none;stroke:#f5deb3;stroke-linecap:square;stroke-width:1.5;"/>
   </g>
   <g id="line2d_24">
    <path clip-path="url(#pddc93cb080)" d="M 281.345475 278.275665 
L 281.345475 274.762636 
L 287.27412 274.762636 
L 287.27412 271.249606 
L 296.78389 271.249606 
L 296.78389 267.736576 
L 296.832299 267.736576 
L 296.832299 264.223546 
L 296.848423 264.223546 
L 296.848423 260.710517 
L 299.510425 260.710517 
L 299.510425 257.197487 
L 301.198101 257.197487 
L 301.198101 253.684457 
L 301.286 253.684457 
L 301.286 250.171428 
L 305.144 250.171428 
L 305.144 246.658398 
L 305.372175 246.658398 
L 305.372175 243.145368 
L 308.814544 243.145368 
L 308.814544 239.632338 
L 308.901409 239.632338 
L 308.901409 236.119309 
L 312.224612 236.119309 
L 312.224612 232.606279 
L 315.387917 232.606279 
L 315.387917 229.093249 
L 315.43095 229.093249 
L 315.43095 225.58022 
L 388.410857 225.58022 
L 388.410857 222.06719 
L 390.472165 222.06719 
L 390.472165 218.55416 
L 391.559225 218.55416 
L 391.559225 215.041131 
L 394.359288 215.041131 
L 394.359288 211.528101 
L 395.488789 211.528101 
L 395.488789 208.015071 
L 396.143382 208.015071 
L 396.143382 204.502041 
L 397.235737 204.502041 
L 397.235737 200.989012 
L 397.653318 200.989012 
L 397.653318 197.475982 
L 398.584475 197.475982 
L 398.584475 193.962952 
L 399.89299 193.962952 
L 399.89299 190.449923 
L 400.07861 190.449923 
L 400.07861 186.936893 
L 400.11089 186.936893 
L 400.11089 183.423863 
L 400.241473 183.423863 
L 400.241473 179.910834 
L 402.119529 179.910834 
L 402.119529 176.397804 
L 406.343756 176.397804 
L 406.343756 172.884774 
L 407.4352 172.884774 
L 407.4352 169.371744 
L 408.824063 169.371744 
L 408.824063 165.858715 
L 410.103873 165.858715 
L 410.103873 162.345685 
L 410.890697 162.345685 
L 410.890697 158.832655 
L 412.683967 158.832655 
L 412.683967 155.319626 
L 413.316176 155.319626 
L 413.316176 151.806596 
L 413.758516 151.806596 
L 413.758516 148.293566 
L 414.455768 148.293566 
L 414.455768 144.780537 
L 415.809619 144.780537 
L 415.809619 141.267507 
L 416.570429 141.267507 
L 416.570429 137.754477 
L 417.210151 137.754477 
L 417.210151 134.241447 
L 418.529427 134.241447 
L 418.529427 130.728418 
L 423.010738 130.728418 
L 423.010738 127.215388 
L 424.304797 127.215388 
L 424.304797 123.702358 
L 425.354184 123.702358 
L 425.354184 120.189329 
L 425.354184 120.189329 
L 425.354184 120.189329 
L 426.4825 120.189329 
" style="fill:none;stroke:#f5deb3;stroke-linecap:square;stroke-width:1.5;"/>
   </g>
   <g id="line2d_25">
    <path clip-path="url(#pddc93cb080)" d="M 236.507366 278.275665 
L 236.507366 274.762636 
L 239.303145 274.762636 
L 239.303145 271.249606 
L 239.864758 271.249606 
L 239.864758 267.736576 
L 240.74928 267.736576 
L 240.74928 264.223546 
L 251.140869 264.223546 
L 251.140869 260.710517 
L 252.304713 260.710517 
L 252.304713 257.197487 
L 252.559384 257.197487 
L 252.559384 253.684457 
L 255.82647 253.684457 
L 255.82647 250.171428 
L 262.081247 250.171428 
L 262.081247 246.658398 
L 266.316593 246.658398 
L 266.316593 243.145368 
L 267.27867 243.145368 
L 267.27867 239.632338 
L 271.724338 239.632338 
L 271.724338 236.119309 
L 272.443438 236.119309 
L 272.443438 232.606279 
L 275.341166 232.606279 
L 275.341166 229.093249 
L 337.728265 229.093249 
L 337.728265 225.58022 
L 438.1825 225.58022 
" style="fill:none;stroke:#f5deb3;stroke-linecap:square;stroke-width:1.5;"/>
   </g>
   <g id="line2d_26">
    <path clip-path="url(#pddc93cb080)" d="M 271.050399 278.275665 
L 271.050399 274.762636 
L 271.780055 274.762636 
L 271.780055 271.249606 
L 274.37791 271.249606 
L 274.37791 267.736576 
L 275.005024 267.736576 
L 275.005024 264.223546 
L 275.108715 264.223546 
L 275.108715 260.710517 
L 275.341166 260.710517 
L 275.341166 257.197487 
L 275.366922 257.197487 
L 275.366922 253.684457 
L 276.056907 253.684457 
L 276.056907 250.171428 
L 276.056907 250.171428 
L 276.056907 246.658398 
L 276.936163 246.658398 
L 276.936163 243.145368 
L 277.823298 243.145368 
L 277.823298 239.632338 
L 278.284683 239.632338 
L 278.284683 236.119309 
L 279.335671 236.119309 
L 279.335671 232.606279 
L 279.547712 232.606279 
L 279.547712 229.093249 
L 291.010861 229.093249 
L 291.010861 225.58022 
L 337.442966 225.58022 
L 337.442966 222.06719 
L 342.097189 222.06719 
L 342.097189 218.55416 
L 347.614898 218.55416 
L 347.614898 215.041131 
L 347.960185 215.041131 
L 347.960185 211.528101 
L 348.371129 211.528101 
L 348.371129 208.015071 
L 348.684754 208.015071 
L 348.684754 204.502041 
L 349.053129 204.502041 
L 349.053129 200.989012 
L 349.351876 200.989012 
L 349.351876 197.475982 
L 352.096969 197.475982 
L 352.096969 193.962952 
L 352.150133 193.962952 
L 352.150133 190.449923 
L 352.496605 190.449923 
L 352.496605 186.936893 
L 353.810342 186.936893 
L 353.810342 183.423863 
L 353.847597 183.423863 
L 353.847597 179.910834 
L 357.177696 179.910834 
L 357.177696 176.397804 
L 357.466827 176.397804 
L 357.466827 172.884774 
L 384.211625 172.884774 
L 384.211625 169.371744 
L 386.474854 169.371744 
L 386.474854 165.858715 
L 386.577611 165.858715 
L 386.577611 162.345685 
L 386.9298 162.345685 
L 386.9298 158.832655 
L 386.970524 158.832655 
L 386.970524 155.319626 
L 388.428386 155.319626 
L 388.428386 151.806596 
L 388.93818 151.806596 
L 388.93818 148.293566 
L 389.104702 148.293566 
L 389.104702 144.780537 
L 389.119811 144.780537 
L 389.119811 141.267507 
L 389.223277 141.267507 
L 389.223277 137.754477 
L 391.360308 137.754477 
L 391.360308 134.241447 
L 392.900197 134.241447 
L 392.900197 130.728418 
L 393.351083 130.728418 
L 393.351083 127.215388 
L 404.654002 127.215388 
L 404.654002 123.702358 
L 438.1825 123.702358 
" style="fill:none;stroke:#f5deb3;stroke-linecap:square;stroke-width:1.5;"/>
   </g>
   <g id="line2d_27">
    <path clip-path="url(#pddc93cb080)" d="M 341.631796 278.275665 
L 341.631796 274.762636 
L 341.771305 274.762636 
L 341.771305 271.249606 
L 342.187304 271.249606 
L 342.187304 267.736576 
L 342.593617 267.736576 
L 342.593617 264.223546 
L 342.629296 264.223546 
L 342.629296 260.710517 
L 342.955067 260.710517 
L 342.955067 257.197487 
L 343.301978 257.197487 
L 343.301978 253.684457 
L 344.407371 253.684457 
L 344.407371 250.171428 
L 345.026464 250.171428 
L 345.026464 246.658398 
L 345.598329 246.658398 
L 345.598329 243.145368 
L 346.036398 243.145368 
L 346.036398 239.632338 
L 347.880734 239.632338 
L 347.880734 236.119309 
L 348.470676 236.119309 
L 348.470676 232.606279 
L 349.57722 232.606279 
L 349.57722 229.093249 
L 364.204214 229.093249 
L 364.204214 225.58022 
L 364.204214 225.58022 
L 364.204214 225.58022 
L 426.4825 225.58022 
" style="fill:none;stroke:#f5deb3;stroke-linecap:square;stroke-width:1.5;"/>
   </g>
   <g id="line2d_28">
    <path clip-path="url(#pddc93cb080)" d="M 205.536752 278.275665 
L 205.536752 274.762636 
L 205.654552 274.762636 
L 205.654552 271.249606 
L 205.772051 271.249606 
L 205.772051 267.736576 
L 205.889249 267.736576 
L 205.889249 264.223546 
L 210.347431 264.223546 
L 210.347431 260.710517 
L 210.347431 260.710517 
L 210.347431 257.197487 
L 210.347431 257.197487 
L 210.347431 253.684457 
L 210.347431 253.684457 
L 210.347431 250.171428 
L 210.453519 250.171428 
L 210.453519 246.658398 
L 214.701249 246.658398 
L 214.701249 243.145368 
L 214.701249 243.145368 
L 214.701249 239.632338 
L 214.990127 239.632338 
L 214.990127 236.119309 
L 219.11827 236.119309 
L 219.11827 232.606279 
L 222.418205 232.606279 
L 222.418205 229.093249 
L 229.16339 229.093249 
L 229.16339 225.58022 
L 364.529916 225.58022 
L 364.529916 222.06719 
L 364.677202 222.06719 
L 364.677202 218.55416 
L 364.787357 218.55416 
L 364.787357 215.041131 
L 364.88993 215.041131 
L 364.88993 211.528101 
L 364.952095 211.528101 
L 364.952095 208.015071 
L 365.576366 208.015071 
L 365.576366 204.502041 
L 365.871019 204.502041 
L 365.871019 200.989012 
L 365.9426 200.989012 
L 365.9426 197.475982 
L 365.960478 197.475982 
L 365.960478 193.962952 
L 366.528918 193.962952 
L 366.528918 190.449923 
L 366.60653 190.449923 
L 366.60653 186.936893 
L 367.205358 186.936893 
L 367.205358 183.423863 
L 367.727726 183.423863 
L 367.727726 179.910834 
L 367.974724 179.910834 
L 367.974724 176.397804 
L 368.206785 176.397804 
L 368.206785 172.884774 
L 383.953928 172.884774 
L 383.953928 169.371744 
L 385.830255 169.371744 
L 385.830255 165.858715 
L 385.964525 165.858715 
L 385.964525 162.345685 
L 386.686965 162.345685 
L 386.686965 158.832655 
L 386.727906 158.832655 
L 386.727906 155.319626 
L 387.286044 155.319626 
L 387.286044 151.806596 
L 387.623941 151.806596 
L 387.623941 148.293566 
L 387.706358 148.293566 
L 387.706358 144.780537 
L 387.748623 144.780537 
L 387.748623 141.267507 
L 388.045603 141.267507 
L 388.045603 137.754477 
L 388.056647 137.754477 
L 388.056647 134.241447 
L 388.347257 134.241447 
L 388.347257 130.728418 
L 388.55309 130.728418 
L 388.55309 127.215388 
L 389.227583 127.215388 
L 389.227583 123.702358 
L 392.235618 123.702358 
L 392.235618 120.189329 
L 392.235618 120.189329 
L 392.235618 120.189329 
L 426.4825 120.189329 
" style="fill:none;stroke:#f5deb3;stroke-linecap:square;stroke-width:1.5;"/>
   </g>
   <g id="line2d_29">
    <path clip-path="url(#pddc93cb080)" d="M 101.166295 278.275665 
L 101.166295 274.762636 
L 101.166295 274.762636 
L 101.166295 271.249606 
L 101.166295 271.249606 
L 101.166295 267.736576 
L 101.166295 267.736576 
L 101.166295 264.223546 
L 101.166295 264.223546 
L 101.166295 260.710517 
L 101.166295 260.710517 
L 101.166295 257.197487 
L 102.29927 257.197487 
L 102.29927 253.684457 
L 102.29927 253.684457 
L 102.29927 250.171428 
L 102.29927 250.171428 
L 102.29927 246.658398 
L 102.29927 246.658398 
L 102.29927 243.145368 
L 102.29927 243.145368 
L 102.29927 239.632338 
L 102.29927 239.632338 
L 102.29927 236.119309 
L 102.29927 236.119309 
L 102.29927 232.606279 
L 102.29927 232.606279 
L 102.29927 229.093249 
L 102.29927 229.093249 
L 102.29927 225.58022 
L 124.143456 225.58022 
L 124.143456 222.06719 
L 124.143456 222.06719 
L 124.143456 218.55416 
L 124.143456 218.55416 
L 124.143456 215.041131 
L 200.820277 215.041131 
L 200.820277 211.528101 
L 200.820277 211.528101 
L 200.820277 208.015071 
L 200.820277 208.015071 
L 200.820277 204.502041 
L 201.469272 204.502041 
L 201.469272 200.989012 
L 201.469272 200.989012 
L 201.469272 197.475982 
L 201.469272 197.475982 
L 201.469272 193.962952 
L 201.981939 193.962952 
L 201.981939 190.449923 
L 201.981939 190.449923 
L 201.981939 186.936893 
L 201.981939 186.936893 
L 201.981939 183.423863 
L 202.23614 183.423863 
L 202.23614 179.910834 
L 202.23614 179.910834 
L 202.23614 176.397804 
L 202.23614 176.397804 
L 202.23614 172.884774 
L 202.23614 172.884774 
L 202.23614 172.884774 
L 426.4825 172.884774 
" style="fill:none;stroke:#f5deb3;stroke-linecap:square;stroke-width:1.5;"/>
   </g>
   <g id="line2d_30">
    <path clip-path="url(#pddc93cb080)" d="M 202.109215 278.275665 
L 202.109215 274.762636 
L 202.109215 274.762636 
L 202.109215 271.249606 
L 202.740355 271.249606 
L 202.740355 267.736576 
L 203.854981 267.736576 
L 203.854981 264.223546 
L 204.34181 264.223546 
L 204.34181 260.710517 
L 204.34181 260.710517 
L 204.34181 257.197487 
L 205.062503 257.197487 
L 205.062503 253.684457 
L 205.30024 253.684457 
L 205.30024 250.171428 
L 205.418649 250.171428 
L 205.418649 246.658398 
L 205.536752 246.658398 
L 205.536752 243.145368 
L 205.889249 243.145368 
L 205.889249 239.632338 
L 206.586222 239.632338 
L 206.586222 236.119309 
L 207.159054 236.119309 
L 207.159054 232.606279 
L 207.272767 232.606279 
L 207.272767 229.093249 
L 208.283697 229.093249 
L 208.283697 225.58022 
L 208.505356 225.58022 
L 208.505356 222.06719 
L 208.835848 222.06719 
L 208.835848 218.55416 
L 209.597864 218.55416 
L 209.597864 215.041131 
L 209.920607 215.041131 
L 209.920607 211.528101 
L 210.347431 211.528101 
L 210.347431 208.015071 
L 211.084949 208.015071 
L 211.084949 204.502041 
L 211.397435 204.502041 
L 211.397435 200.989012 
L 212.423947 200.989012 
L 212.423947 197.475982 
L 213.527202 197.475982 
L 213.527202 193.962952 
L 213.823542 193.962952 
L 213.823542 190.449923 
L 214.020045 190.449923 
L 214.020045 186.936893 
L 214.797744 186.936893 
L 214.797744 183.423863 
L 215.372489 183.423863 
L 215.372489 179.910834 
L 215.562481 179.910834 
L 215.562481 176.397804 
L 225.725114 176.397804 
L 225.725114 172.884774 
L 229.233817 172.884774 
L 229.233817 169.371744 
L 229.233817 169.371744 
L 229.233817 165.858715 
L 229.233817 165.858715 
L 229.233817 162.345685 
L 229.233817 162.345685 
L 229.233817 158.832655 
L 229.233817 158.832655 
L 229.233817 155.319626 
L 229.233817 155.319626 
L 229.233817 151.806596 
L 229.233817 151.806596 
L 229.233817 148.293566 
L 229.233817 148.293566 
L 229.233817 144.780537 
L 229.233817 144.780537 
L 229.233817 141.267507 
L 229.233817 141.267507 
L 229.233817 137.754477 
L 229.233817 137.754477 
L 229.233817 134.241447 
L 229.233817 134.241447 
L 229.233817 130.728418 
L 229.233817 130.728418 
L 229.233817 127.215388 
L 229.233817 127.215388 
L 229.233817 123.702358 
L 229.233817 123.702358 
L 229.233817 120.189329 
L 229.233817 120.189329 
L 229.233817 120.189329 
L 426.4825 120.189329 
" style="fill:none;stroke:#f5deb3;stroke-linecap:square;stroke-width:1.5;"/>
   </g>
   <g id="matplotlib.axis_1">
    <g id="xtick_1">
     <g id="line2d_31">
      <path clip-path="url(#pddc93cb080)" d="M 175.012419 278.275665 
L 175.012419 12.163665 
" style="fill:none;stroke:#b0b0b0;stroke-linecap:square;stroke-width:0.8;"/>
     </g>
     <g id="line2d_32">
      <defs>
       <path d="M 0 0 
L 0 3.5 
" id="m4b5e889bf2" style="stroke:#000000;stroke-width:0.8;"/>
      </defs>
      <g>
       <use style="stroke:#000000;stroke-width:0.8;" x="175.012419" xlink:href="#m4b5e889bf2" y="278.275665"/>
      </g>
     </g>
     <g id="text_1">
      <!-- 1 -->
      <defs>
       <path d="M 12.40625 8.296875 
L 28.515625 8.296875 
L 28.515625 63.921875 
L 10.984375 60.40625 
L 10.984375 69.390625 
L 28.421875 72.90625 
L 38.28125 72.90625 
L 38.28125 8.296875 
L 54.390625 8.296875 
L 54.390625 0 
L 12.40625 0 
z
" id="DejaVuSans-31"/>
      </defs>
      <g transform="translate(168.649919 300.47254)scale(0.2 -0.2)">
       <use xlink:href="#DejaVuSans-31"/>
      </g>
     </g>
    </g>
    <g id="xtick_2">
     <g id="line2d_33">
      <path clip-path="url(#pddc93cb080)" d="M 386.312257 278.275665 
L 386.312257 12.163665 
" style="fill:none;stroke:#b0b0b0;stroke-linecap:square;stroke-width:0.8;"/>
     </g>
     <g id="line2d_34">
      <g>
       <use style="stroke:#000000;stroke-width:0.8;" x="386.312257" xlink:href="#m4b5e889bf2" y="278.275665"/>
      </g>
     </g>
     <g id="text_2">
      <!-- 3 -->
      <defs>
       <path d="M 40.578125 39.3125 
Q 47.65625 37.796875 51.625 33 
Q 55.609375 28.21875 55.609375 21.1875 
Q 55.609375 10.40625 48.1875 4.484375 
Q 40.765625 -1.421875 27.09375 -1.421875 
Q 22.515625 -1.421875 17.65625 -0.515625 
Q 12.796875 0.390625 7.625 2.203125 
L 7.625 11.71875 
Q 11.71875 9.328125 16.59375 8.109375 
Q 21.484375 6.890625 26.8125 6.890625 
Q 36.078125 6.890625 40.9375 10.546875 
Q 45.796875 14.203125 45.796875 21.1875 
Q 45.796875 27.640625 41.28125 31.265625 
Q 36.765625 34.90625 28.71875 34.90625 
L 20.21875 34.90625 
L 20.21875 43.015625 
L 29.109375 43.015625 
Q 36.375 43.015625 40.234375 45.921875 
Q 44.09375 48.828125 44.09375 54.296875 
Q 44.09375 59.90625 40.109375 62.90625 
Q 36.140625 65.921875 28.71875 65.921875 
Q 24.65625 65.921875 20.015625 65.03125 
Q 15.375 64.15625 9.8125 62.3125 
L 9.8125 71.09375 
Q 15.4375 72.65625 20.34375 73.4375 
Q 25.25 74.21875 29.59375 74.21875 
Q 40.828125 74.21875 47.359375 69.109375 
Q 53.90625 64.015625 53.90625 55.328125 
Q 53.90625 49.265625 50.4375 45.09375 
Q 46.96875 40.921875 40.578125 39.3125 
z
" id="DejaVuSans-33"/>
      </defs>
      <g transform="translate(379.949757 300.47254)scale(0.2 -0.2)">
       <use xlink:href="#DejaVuSans-33"/>
      </g>
     </g>
    </g>
    <g id="xtick_3">
     <g id="line2d_35">
      <defs>
       <path d="M 0 0 
L 0 2 
" id="m93bc32353c" style="stroke:#000000;stroke-width:0.6;"/>
      </defs>
      <g>
       <use style="stroke:#000000;stroke-width:0.6;" x="101.166295" xlink:href="#m93bc32353c" y="278.275665"/>
      </g>
     </g>
    </g>
    <g id="xtick_4">
     <g id="line2d_36">
      <g>
       <use style="stroke:#000000;stroke-width:0.6;" x="119.770322" xlink:href="#m93bc32353c" y="278.275665"/>
      </g>
     </g>
    </g>
    <g id="xtick_5">
     <g id="line2d_37">
      <g>
       <use style="stroke:#000000;stroke-width:0.6;" x="132.970089" xlink:href="#m93bc32353c" y="278.275665"/>
      </g>
     </g>
    </g>
    <g id="xtick_6">
     <g id="line2d_38">
      <g>
       <use style="stroke:#000000;stroke-width:0.6;" x="143.208624" xlink:href="#m93bc32353c" y="278.275665"/>
      </g>
     </g>
    </g>
    <g id="xtick_7">
     <g id="line2d_39">
      <g>
       <use style="stroke:#000000;stroke-width:0.6;" x="151.574117" xlink:href="#m93bc32353c" y="278.275665"/>
      </g>
     </g>
    </g>
    <g id="xtick_8">
     <g id="line2d_40">
      <g>
       <use style="stroke:#000000;stroke-width:0.6;" x="158.64704" xlink:href="#m93bc32353c" y="278.275665"/>
      </g>
     </g>
    </g>
    <g id="xtick_9">
     <g id="line2d_41">
      <g>
       <use style="stroke:#000000;stroke-width:0.6;" x="164.773884" xlink:href="#m93bc32353c" y="278.275665"/>
      </g>
     </g>
    </g>
    <g id="xtick_10">
     <g id="line2d_42">
      <g>
       <use style="stroke:#000000;stroke-width:0.6;" x="170.178144" xlink:href="#m93bc32353c" y="278.275665"/>
      </g>
     </g>
    </g>
    <g id="xtick_11">
     <g id="line2d_43">
      <g>
       <use style="stroke:#000000;stroke-width:0.6;" x="206.816214" xlink:href="#m93bc32353c" y="278.275665"/>
      </g>
     </g>
    </g>
    <g id="xtick_12">
     <g id="line2d_44">
      <g>
       <use style="stroke:#000000;stroke-width:0.6;" x="225.420241" xlink:href="#m93bc32353c" y="278.275665"/>
      </g>
     </g>
    </g>
    <g id="xtick_13">
     <g id="line2d_45">
      <g>
       <use style="stroke:#000000;stroke-width:0.6;" x="238.620008" xlink:href="#m93bc32353c" y="278.275665"/>
      </g>
     </g>
    </g>
    <g id="xtick_14">
     <g id="line2d_46">
      <g>
       <use style="stroke:#000000;stroke-width:0.6;" x="248.858543" xlink:href="#m93bc32353c" y="278.275665"/>
      </g>
     </g>
    </g>
    <g id="xtick_15">
     <g id="line2d_47">
      <g>
       <use style="stroke:#000000;stroke-width:0.6;" x="257.224036" xlink:href="#m93bc32353c" y="278.275665"/>
      </g>
     </g>
    </g>
    <g id="xtick_16">
     <g id="line2d_48">
      <g>
       <use style="stroke:#000000;stroke-width:0.6;" x="264.296959" xlink:href="#m93bc32353c" y="278.275665"/>
      </g>
     </g>
    </g>
    <g id="xtick_17">
     <g id="line2d_49">
      <g>
       <use style="stroke:#000000;stroke-width:0.6;" x="270.423803" xlink:href="#m93bc32353c" y="278.275665"/>
      </g>
     </g>
    </g>
    <g id="xtick_18">
     <g id="line2d_50">
      <g>
       <use style="stroke:#000000;stroke-width:0.6;" x="275.828063" xlink:href="#m93bc32353c" y="278.275665"/>
      </g>
     </g>
    </g>
    <g id="xtick_19">
     <g id="line2d_51">
      <g>
       <use style="stroke:#000000;stroke-width:0.6;" x="312.466133" xlink:href="#m93bc32353c" y="278.275665"/>
      </g>
     </g>
    </g>
    <g id="xtick_20">
     <g id="line2d_52">
      <g>
       <use style="stroke:#000000;stroke-width:0.6;" x="331.07016" xlink:href="#m93bc32353c" y="278.275665"/>
      </g>
     </g>
    </g>
    <g id="xtick_21">
     <g id="line2d_53">
      <g>
       <use style="stroke:#000000;stroke-width:0.6;" x="344.269927" xlink:href="#m93bc32353c" y="278.275665"/>
      </g>
     </g>
    </g>
    <g id="xtick_22">
     <g id="line2d_54">
      <g>
       <use style="stroke:#000000;stroke-width:0.6;" x="354.508463" xlink:href="#m93bc32353c" y="278.275665"/>
      </g>
     </g>
    </g>
    <g id="xtick_23">
     <g id="line2d_55">
      <g>
       <use style="stroke:#000000;stroke-width:0.6;" x="362.873955" xlink:href="#m93bc32353c" y="278.275665"/>
      </g>
     </g>
    </g>
    <g id="xtick_24">
     <g id="line2d_56">
      <g>
       <use style="stroke:#000000;stroke-width:0.6;" x="369.946878" xlink:href="#m93bc32353c" y="278.275665"/>
      </g>
     </g>
    </g>
    <g id="xtick_25">
     <g id="line2d_57">
      <g>
       <use style="stroke:#000000;stroke-width:0.6;" x="376.073722" xlink:href="#m93bc32353c" y="278.275665"/>
      </g>
     </g>
    </g>
    <g id="xtick_26">
     <g id="line2d_58">
      <g>
       <use style="stroke:#000000;stroke-width:0.6;" x="381.477982" xlink:href="#m93bc32353c" y="278.275665"/>
      </g>
     </g>
    </g>
    <g id="xtick_27">
     <g id="line2d_59">
      <g>
       <use style="stroke:#000000;stroke-width:0.6;" x="418.116052" xlink:href="#m93bc32353c" y="278.275665"/>
      </g>
     </g>
    </g>
    <g id="text_3">
     <!-- log10 of FEvals / DIM -->
     <defs>
      <path d="M 9.421875 75.984375 
L 18.40625 75.984375 
L 18.40625 0 
L 9.421875 0 
z
" id="DejaVuSans-6c"/>
      <path d="M 30.609375 48.390625 
Q 23.390625 48.390625 19.1875 42.75 
Q 14.984375 37.109375 14.984375 27.296875 
Q 14.984375 17.484375 19.15625 11.84375 
Q 23.34375 6.203125 30.609375 6.203125 
Q 37.796875 6.203125 41.984375 11.859375 
Q 46.1875 17.53125 46.1875 27.296875 
Q 46.1875 37.015625 41.984375 42.703125 
Q 37.796875 48.390625 30.609375 48.390625 
z
M 30.609375 56 
Q 42.328125 56 49.015625 48.375 
Q 55.71875 40.765625 55.71875 27.296875 
Q 55.71875 13.875 49.015625 6.21875 
Q 42.328125 -1.421875 30.609375 -1.421875 
Q 18.84375 -1.421875 12.171875 6.21875 
Q 5.515625 13.875 5.515625 27.296875 
Q 5.515625 40.765625 12.171875 48.375 
Q 18.84375 56 30.609375 56 
z
" id="DejaVuSans-6f"/>
      <path d="M 45.40625 27.984375 
Q 45.40625 37.75 41.375 43.109375 
Q 37.359375 48.484375 30.078125 48.484375 
Q 22.859375 48.484375 18.828125 43.109375 
Q 14.796875 37.75 14.796875 27.984375 
Q 14.796875 18.265625 18.828125 12.890625 
Q 22.859375 7.515625 30.078125 7.515625 
Q 37.359375 7.515625 41.375 12.890625 
Q 45.40625 18.265625 45.40625 27.984375 
z
M 54.390625 6.78125 
Q 54.390625 -7.171875 48.1875 -13.984375 
Q 42 -20.796875 29.203125 -20.796875 
Q 24.46875 -20.796875 20.265625 -20.09375 
Q 16.0625 -19.390625 12.109375 -17.921875 
L 12.109375 -9.1875 
Q 16.0625 -11.328125 19.921875 -12.34375 
Q 23.78125 -13.375 27.78125 -13.375 
Q 36.625 -13.375 41.015625 -8.765625 
Q 45.40625 -4.15625 45.40625 5.171875 
L 45.40625 9.625 
Q 42.625 4.78125 38.28125 2.390625 
Q 33.9375 0 27.875 0 
Q 17.828125 0 11.671875 7.65625 
Q 5.515625 15.328125 5.515625 27.984375 
Q 5.515625 40.671875 11.671875 48.328125 
Q 17.828125 56 27.875 56 
Q 33.9375 56 38.28125 53.609375 
Q 42.625 51.21875 45.40625 46.390625 
L 45.40625 54.6875 
L 54.390625 54.6875 
z
" id="DejaVuSans-67"/>
      <path d="M 31.78125 66.40625 
Q 24.171875 66.40625 20.328125 58.90625 
Q 16.5 51.421875 16.5 36.375 
Q 16.5 21.390625 20.328125 13.890625 
Q 24.171875 6.390625 31.78125 6.390625 
Q 39.453125 6.390625 43.28125 13.890625 
Q 47.125 21.390625 47.125 36.375 
Q 47.125 51.421875 43.28125 58.90625 
Q 39.453125 66.40625 31.78125 66.40625 
z
M 31.78125 74.21875 
Q 44.046875 74.21875 50.515625 64.515625 
Q 56.984375 54.828125 56.984375 36.375 
Q 56.984375 17.96875 50.515625 8.265625 
Q 44.046875 -1.421875 31.78125 -1.421875 
Q 19.53125 -1.421875 13.0625 8.265625 
Q 6.59375 17.96875 6.59375 36.375 
Q 6.59375 54.828125 13.0625 64.515625 
Q 19.53125 74.21875 31.78125 74.21875 
z
" id="DejaVuSans-30"/>
      <path id="DejaVuSans-20"/>
      <path d="M 37.109375 75.984375 
L 37.109375 68.5 
L 28.515625 68.5 
Q 23.6875 68.5 21.796875 66.546875 
Q 19.921875 64.59375 19.921875 59.515625 
L 19.921875 54.6875 
L 34.71875 54.6875 
L 34.71875 47.703125 
L 19.921875 47.703125 
L 19.921875 0 
L 10.890625 0 
L 10.890625 47.703125 
L 2.296875 47.703125 
L 2.296875 54.6875 
L 10.890625 54.6875 
L 10.890625 58.5 
Q 10.890625 67.625 15.140625 71.796875 
Q 19.390625 75.984375 28.609375 75.984375 
z
" id="DejaVuSans-66"/>
      <path d="M 9.8125 72.90625 
L 51.703125 72.90625 
L 51.703125 64.59375 
L 19.671875 64.59375 
L 19.671875 43.109375 
L 48.578125 43.109375 
L 48.578125 34.8125 
L 19.671875 34.8125 
L 19.671875 0 
L 9.8125 0 
z
" id="DejaVuSans-46"/>
      <path d="M 9.8125 72.90625 
L 55.90625 72.90625 
L 55.90625 64.59375 
L 19.671875 64.59375 
L 19.671875 43.015625 
L 54.390625 43.015625 
L 54.390625 34.71875 
L 19.671875 34.71875 
L 19.671875 8.296875 
L 56.78125 8.296875 
L 56.78125 0 
L 9.8125 0 
z
" id="DejaVuSans-45"/>
      <path d="M 2.984375 54.6875 
L 12.5 54.6875 
L 29.59375 8.796875 
L 46.6875 54.6875 
L 56.203125 54.6875 
L 35.6875 0 
L 23.484375 0 
z
" id="DejaVuSans-76"/>
      <path d="M 34.28125 27.484375 
Q 23.390625 27.484375 19.1875 25 
Q 14.984375 22.515625 14.984375 16.5 
Q 14.984375 11.71875 18.140625 8.90625 
Q 21.296875 6.109375 26.703125 6.109375 
Q 34.1875 6.109375 38.703125 11.40625 
Q 43.21875 16.703125 43.21875 25.484375 
L 43.21875 27.484375 
z
M 52.203125 31.203125 
L 52.203125 0 
L 43.21875 0 
L 43.21875 8.296875 
Q 40.140625 3.328125 35.546875 0.953125 
Q 30.953125 -1.421875 24.3125 -1.421875 
Q 15.921875 -1.421875 10.953125 3.296875 
Q 6 8.015625 6 15.921875 
Q 6 25.140625 12.171875 29.828125 
Q 18.359375 34.515625 30.609375 34.515625 
L 43.21875 34.515625 
L 43.21875 35.40625 
Q 43.21875 41.609375 39.140625 45 
Q 35.0625 48.390625 27.6875 48.390625 
Q 23 48.390625 18.546875 47.265625 
Q 14.109375 46.140625 10.015625 43.890625 
L 10.015625 52.203125 
Q 14.9375 54.109375 19.578125 55.046875 
Q 24.21875 56 28.609375 56 
Q 40.484375 56 46.34375 49.84375 
Q 52.203125 43.703125 52.203125 31.203125 
z
" id="DejaVuSans-61"/>
      <path d="M 44.28125 53.078125 
L 44.28125 44.578125 
Q 40.484375 46.53125 36.375 47.5 
Q 32.28125 48.484375 27.875 48.484375 
Q 21.1875 48.484375 17.84375 46.4375 
Q 14.5 44.390625 14.5 40.28125 
Q 14.5 37.15625 16.890625 35.375 
Q 19.28125 33.59375 26.515625 31.984375 
L 29.59375 31.296875 
Q 39.15625 29.25 43.1875 25.515625 
Q 47.21875 21.78125 47.21875 15.09375 
Q 47.21875 7.46875 41.1875 3.015625 
Q 35.15625 -1.421875 24.609375 -1.421875 
Q 20.21875 -1.421875 15.453125 -0.5625 
Q 10.6875 0.296875 5.421875 2 
L 5.421875 11.28125 
Q 10.40625 8.6875 15.234375 7.390625 
Q 20.0625 6.109375 24.8125 6.109375 
Q 31.15625 6.109375 34.5625 8.28125 
Q 37.984375 10.453125 37.984375 14.40625 
Q 37.984375 18.0625 35.515625 20.015625 
Q 33.0625 21.96875 24.703125 23.78125 
L 21.578125 24.515625 
Q 13.234375 26.265625 9.515625 29.90625 
Q 5.8125 33.546875 5.8125 39.890625 
Q 5.8125 47.609375 11.28125 51.796875 
Q 16.75 56 26.8125 56 
Q 31.78125 56 36.171875 55.265625 
Q 40.578125 54.546875 44.28125 53.078125 
z
" id="DejaVuSans-73"/>
      <path d="M 25.390625 72.90625 
L 33.6875 72.90625 
L 8.296875 -9.28125 
L 0 -9.28125 
z
" id="DejaVuSans-2f"/>
      <path d="M 19.671875 64.796875 
L 19.671875 8.109375 
L 31.59375 8.109375 
Q 46.6875 8.109375 53.6875 14.9375 
Q 60.6875 21.78125 60.6875 36.53125 
Q 60.6875 51.171875 53.6875 57.984375 
Q 46.6875 64.796875 31.59375 64.796875 
z
M 9.8125 72.90625 
L 30.078125 72.90625 
Q 51.265625 72.90625 61.171875 64.09375 
Q 71.09375 55.28125 71.09375 36.53125 
Q 71.09375 17.671875 61.125 8.828125 
Q 51.171875 0 30.078125 0 
L 9.8125 0 
z
" id="DejaVuSans-44"/>
      <path d="M 9.8125 72.90625 
L 19.671875 72.90625 
L 19.671875 0 
L 9.8125 0 
z
" id="DejaVuSans-49"/>
      <path d="M 9.8125 72.90625 
L 24.515625 72.90625 
L 43.109375 23.296875 
L 61.8125 72.90625 
L 76.515625 72.90625 
L 76.515625 0 
L 66.890625 0 
L 66.890625 64.015625 
L 48.09375 14.015625 
L 38.1875 14.015625 
L 19.390625 64.015625 
L 19.390625 0 
L 9.8125 0 
z
" id="DejaVuSans-4d"/>
     </defs>
     <g transform="translate(142.849063 323.82879)scale(0.2 -0.2)">
      <use xlink:href="#DejaVuSans-6c"/>
      <use x="27.783203" xlink:href="#DejaVuSans-6f"/>
      <use x="88.964844" xlink:href="#DejaVuSans-67"/>
      <use x="152.441406" xlink:href="#DejaVuSans-31"/>
      <use x="216.064453" xlink:href="#DejaVuSans-30"/>
      <use x="279.6875" xlink:href="#DejaVuSans-20"/>
      <use x="311.474609" xlink:href="#DejaVuSans-6f"/>
      <use x="372.65625" xlink:href="#DejaVuSans-66"/>
      <use x="407.861328" xlink:href="#DejaVuSans-20"/>
      <use x="439.648438" xlink:href="#DejaVuSans-46"/>
      <use x="497.167969" xlink:href="#DejaVuSans-45"/>
      <use x="560.351562" xlink:href="#DejaVuSans-76"/>
      <use x="619.53125" xlink:href="#DejaVuSans-61"/>
      <use x="680.810547" xlink:href="#DejaVuSans-6c"/>
      <use x="708.59375" xlink:href="#DejaVuSans-73"/>
      <use x="760.693359" xlink:href="#DejaVuSans-20"/>
      <use x="792.480469" xlink:href="#DejaVuSans-2f"/>
      <use x="826.171875" xlink:href="#DejaVuSans-20"/>
      <use x="857.958984" xlink:href="#DejaVuSans-44"/>
      <use x="934.960938" xlink:href="#DejaVuSans-49"/>
      <use x="964.453125" xlink:href="#DejaVuSans-4d"/>
     </g>
    </g>
   </g>
   <g id="matplotlib.axis_2">
    <g id="ytick_1">
     <g id="line2d_60">
      <path clip-path="url(#pddc93cb080)" d="M 69.3625 278.275665 
L 426.4825 278.275665 
" style="fill:none;stroke:#b0b0b0;stroke-linecap:square;stroke-width:0.8;"/>
     </g>
     <g id="line2d_61">
      <defs>
       <path d="M 0 0 
L -3.5 0 
" id="m7e0352de89" style="stroke:#000000;stroke-width:0.8;"/>
      </defs>
      <g>
       <use style="stroke:#000000;stroke-width:0.8;" x="69.3625" xlink:href="#m7e0352de89" y="278.275665"/>
      </g>
     </g>
     <g id="text_4">
      <!-- 0.0 -->
      <defs>
       <path d="M 10.6875 12.40625 
L 21 12.40625 
L 21 0 
L 10.6875 0 
z
" id="DejaVuSans-2e"/>
      </defs>
      <g transform="translate(30.55625 285.874103)scale(0.2 -0.2)">
       <use xlink:href="#DejaVuSans-30"/>
       <use x="63.623047" xlink:href="#DejaVuSans-2e"/>
       <use x="95.410156" xlink:href="#DejaVuSans-30"/>
      </g>
     </g>
    </g>
    <g id="ytick_2">
     <g id="line2d_62">
      <path clip-path="url(#pddc93cb080)" d="M 69.3625 225.58022 
L 426.4825 225.58022 
" style="fill:none;stroke:#b0b0b0;stroke-linecap:square;stroke-width:0.8;"/>
     </g>
     <g id="line2d_63">
      <g>
       <use style="stroke:#000000;stroke-width:0.8;" x="69.3625" xlink:href="#m7e0352de89" y="225.58022"/>
      </g>
     </g>
     <g id="text_5">
      <!-- 0.2 -->
      <defs>
       <path d="M 19.1875 8.296875 
L 53.609375 8.296875 
L 53.609375 0 
L 7.328125 0 
L 7.328125 8.296875 
Q 12.9375 14.109375 22.625 23.890625 
Q 32.328125 33.6875 34.8125 36.53125 
Q 39.546875 41.84375 41.421875 45.53125 
Q 43.3125 49.21875 43.3125 52.78125 
Q 43.3125 58.59375 39.234375 62.25 
Q 35.15625 65.921875 28.609375 65.921875 
Q 23.96875 65.921875 18.8125 64.3125 
Q 13.671875 62.703125 7.8125 59.421875 
L 7.8125 69.390625 
Q 13.765625 71.78125 18.9375 73 
Q 24.125 74.21875 28.421875 74.21875 
Q 39.75 74.21875 46.484375 68.546875 
Q 53.21875 62.890625 53.21875 53.421875 
Q 53.21875 48.921875 51.53125 44.890625 
Q 49.859375 40.875 45.40625 35.40625 
Q 44.1875 33.984375 37.640625 27.21875 
Q 31.109375 20.453125 19.1875 8.296875 
z
" id="DejaVuSans-32"/>
      </defs>
      <g transform="translate(30.55625 233.178657)scale(0.2 -0.2)">
       <use xlink:href="#DejaVuSans-30"/>
       <use x="63.623047" xlink:href="#DejaVuSans-2e"/>
       <use x="95.410156" xlink:href="#DejaVuSans-32"/>
      </g>
     </g>
    </g>
    <g id="ytick_3">
     <g id="line2d_64">
      <path clip-path="url(#pddc93cb080)" d="M 69.3625 172.884774 
L 426.4825 172.884774 
" style="fill:none;stroke:#b0b0b0;stroke-linecap:square;stroke-width:0.8;"/>
     </g>
     <g id="line2d_65">
      <g>
       <use style="stroke:#000000;stroke-width:0.8;" x="69.3625" xlink:href="#m7e0352de89" y="172.884774"/>
      </g>
     </g>
     <g id="text_6">
      <!-- 0.4 -->
      <defs>
       <path d="M 37.796875 64.3125 
L 12.890625 25.390625 
L 37.796875 25.390625 
z
M 35.203125 72.90625 
L 47.609375 72.90625 
L 47.609375 25.390625 
L 58.015625 25.390625 
L 58.015625 17.1875 
L 47.609375 17.1875 
L 47.609375 0 
L 37.796875 0 
L 37.796875 17.1875 
L 4.890625 17.1875 
L 4.890625 26.703125 
z
" id="DejaVuSans-34"/>
      </defs>
      <g transform="translate(30.55625 180.483212)scale(0.2 -0.2)">
       <use xlink:href="#DejaVuSans-30"/>
       <use x="63.623047" xlink:href="#DejaVuSans-2e"/>
       <use x="95.410156" xlink:href="#DejaVuSans-34"/>
      </g>
     </g>
    </g>
    <g id="ytick_4">
     <g id="line2d_66">
      <path clip-path="url(#pddc93cb080)" d="M 69.3625 120.189329 
L 426.4825 120.189329 
" style="fill:none;stroke:#b0b0b0;stroke-linecap:square;stroke-width:0.8;"/>
     </g>
     <g id="line2d_67">
      <g>
       <use style="stroke:#000000;stroke-width:0.8;" x="69.3625" xlink:href="#m7e0352de89" y="120.189329"/>
      </g>
     </g>
     <g id="text_7">
      <!-- 0.6 -->
      <defs>
       <path d="M 33.015625 40.375 
Q 26.375 40.375 22.484375 35.828125 
Q 18.609375 31.296875 18.609375 23.390625 
Q 18.609375 15.53125 22.484375 10.953125 
Q 26.375 6.390625 33.015625 6.390625 
Q 39.65625 6.390625 43.53125 10.953125 
Q 47.40625 15.53125 47.40625 23.390625 
Q 47.40625 31.296875 43.53125 35.828125 
Q 39.65625 40.375 33.015625 40.375 
z
M 52.59375 71.296875 
L 52.59375 62.3125 
Q 48.875 64.0625 45.09375 64.984375 
Q 41.3125 65.921875 37.59375 65.921875 
Q 27.828125 65.921875 22.671875 59.328125 
Q 17.53125 52.734375 16.796875 39.40625 
Q 19.671875 43.65625 24.015625 45.921875 
Q 28.375 48.1875 33.59375 48.1875 
Q 44.578125 48.1875 50.953125 41.515625 
Q 57.328125 34.859375 57.328125 23.390625 
Q 57.328125 12.15625 50.6875 5.359375 
Q 44.046875 -1.421875 33.015625 -1.421875 
Q 20.359375 -1.421875 13.671875 8.265625 
Q 6.984375 17.96875 6.984375 36.375 
Q 6.984375 53.65625 15.1875 63.9375 
Q 23.390625 74.21875 37.203125 74.21875 
Q 40.921875 74.21875 44.703125 73.484375 
Q 48.484375 72.75 52.59375 71.296875 
z
" id="DejaVuSans-36"/>
      </defs>
      <g transform="translate(30.55625 127.787766)scale(0.2 -0.2)">
       <use xlink:href="#DejaVuSans-30"/>
       <use x="63.623047" xlink:href="#DejaVuSans-2e"/>
       <use x="95.410156" xlink:href="#DejaVuSans-36"/>
      </g>
     </g>
    </g>
    <g id="ytick_5">
     <g id="line2d_68">
      <path clip-path="url(#pddc93cb080)" d="M 69.3625 67.493883 
L 426.4825 67.493883 
" style="fill:none;stroke:#b0b0b0;stroke-linecap:square;stroke-width:0.8;"/>
     </g>
     <g id="line2d_69">
      <g>
       <use style="stroke:#000000;stroke-width:0.8;" x="69.3625" xlink:href="#m7e0352de89" y="67.493883"/>
      </g>
     </g>
     <g id="text_8">
      <!-- 0.8 -->
      <defs>
       <path d="M 31.78125 34.625 
Q 24.75 34.625 20.71875 30.859375 
Q 16.703125 27.09375 16.703125 20.515625 
Q 16.703125 13.921875 20.71875 10.15625 
Q 24.75 6.390625 31.78125 6.390625 
Q 38.8125 6.390625 42.859375 10.171875 
Q 46.921875 13.96875 46.921875 20.515625 
Q 46.921875 27.09375 42.890625 30.859375 
Q 38.875 34.625 31.78125 34.625 
z
M 21.921875 38.8125 
Q 15.578125 40.375 12.03125 44.71875 
Q 8.5 49.078125 8.5 55.328125 
Q 8.5 64.0625 14.71875 69.140625 
Q 20.953125 74.21875 31.78125 74.21875 
Q 42.671875 74.21875 48.875 69.140625 
Q 55.078125 64.0625 55.078125 55.328125 
Q 55.078125 49.078125 51.53125 44.71875 
Q 48 40.375 41.703125 38.8125 
Q 48.828125 37.15625 52.796875 32.3125 
Q 56.78125 27.484375 56.78125 20.515625 
Q 56.78125 9.90625 50.3125 4.234375 
Q 43.84375 -1.421875 31.78125 -1.421875 
Q 19.734375 -1.421875 13.25 4.234375 
Q 6.78125 9.90625 6.78125 20.515625 
Q 6.78125 27.484375 10.78125 32.3125 
Q 14.796875 37.15625 21.921875 38.8125 
z
M 18.3125 54.390625 
Q 18.3125 48.734375 21.84375 45.5625 
Q 25.390625 42.390625 31.78125 42.390625 
Q 38.140625 42.390625 41.71875 45.5625 
Q 45.3125 48.734375 45.3125 54.390625 
Q 45.3125 60.0625 41.71875 63.234375 
Q 38.140625 66.40625 31.78125 66.40625 
Q 25.390625 66.40625 21.84375 63.234375 
Q 18.3125 60.0625 18.3125 54.390625 
z
" id="DejaVuSans-38"/>
      </defs>
      <g transform="translate(30.55625 75.092321)scale(0.2 -0.2)">
       <use xlink:href="#DejaVuSans-30"/>
       <use x="63.623047" xlink:href="#DejaVuSans-2e"/>
       <use x="95.410156" xlink:href="#DejaVuSans-38"/>
      </g>
     </g>
    </g>
    <g id="ytick_6">
     <g id="line2d_70">
      <path clip-path="url(#pddc93cb080)" d="M 69.3625 14.798437 
L 426.4825 14.798437 
" style="fill:none;stroke:#b0b0b0;stroke-linecap:square;stroke-width:0.8;"/>
     </g>
     <g id="line2d_71">
      <g>
       <use style="stroke:#000000;stroke-width:0.8;" x="69.3625" xlink:href="#m7e0352de89" y="14.798437"/>
      </g>
     </g>
     <g id="text_9">
      <!-- 1.0 -->
      <g transform="translate(30.55625 22.396875)scale(0.2 -0.2)">
       <use xlink:href="#DejaVuSans-31"/>
       <use x="63.623047" xlink:href="#DejaVuSans-2e"/>
       <use x="95.410156" xlink:href="#DejaVuSans-30"/>
      </g>
     </g>
    </g>
    <g id="text_10">
     <!-- proportion of trials -->
     <defs>
      <path d="M 18.109375 8.203125 
L 18.109375 -20.796875 
L 9.078125 -20.796875 
L 9.078125 54.6875 
L 18.109375 54.6875 
L 18.109375 46.390625 
Q 20.953125 51.265625 25.265625 53.625 
Q 29.59375 56 35.59375 56 
Q 45.5625 56 51.78125 48.09375 
Q 58.015625 40.1875 58.015625 27.296875 
Q 58.015625 14.40625 51.78125 6.484375 
Q 45.5625 -1.421875 35.59375 -1.421875 
Q 29.59375 -1.421875 25.265625 0.953125 
Q 20.953125 3.328125 18.109375 8.203125 
z
M 48.6875 27.296875 
Q 48.6875 37.203125 44.609375 42.84375 
Q 40.53125 48.484375 33.40625 48.484375 
Q 26.265625 48.484375 22.1875 42.84375 
Q 18.109375 37.203125 18.109375 27.296875 
Q 18.109375 17.390625 22.1875 11.75 
Q 26.265625 6.109375 33.40625 6.109375 
Q 40.53125 6.109375 44.609375 11.75 
Q 48.6875 17.390625 48.6875 27.296875 
z
" id="DejaVuSans-70"/>
      <path d="M 41.109375 46.296875 
Q 39.59375 47.171875 37.8125 47.578125 
Q 36.03125 48 33.890625 48 
Q 26.265625 48 22.1875 43.046875 
Q 18.109375 38.09375 18.109375 28.8125 
L 18.109375 0 
L 9.078125 0 
L 9.078125 54.6875 
L 18.109375 54.6875 
L 18.109375 46.1875 
Q 20.953125 51.171875 25.484375 53.578125 
Q 30.03125 56 36.53125 56 
Q 37.453125 56 38.578125 55.875 
Q 39.703125 55.765625 41.0625 55.515625 
z
" id="DejaVuSans-72"/>
      <path d="M 18.3125 70.21875 
L 18.3125 54.6875 
L 36.8125 54.6875 
L 36.8125 47.703125 
L 18.3125 47.703125 
L 18.3125 18.015625 
Q 18.3125 11.328125 20.140625 9.421875 
Q 21.96875 7.515625 27.59375 7.515625 
L 36.8125 7.515625 
L 36.8125 0 
L 27.59375 0 
Q 17.1875 0 13.234375 3.875 
Q 9.28125 7.765625 9.28125 18.015625 
L 9.28125 47.703125 
L 2.6875 47.703125 
L 2.6875 54.6875 
L 9.28125 54.6875 
L 9.28125 70.21875 
z
" id="DejaVuSans-74"/>
      <path d="M 9.421875 54.6875 
L 18.40625 54.6875 
L 18.40625 0 
L 9.421875 0 
z
M 9.421875 75.984375 
L 18.40625 75.984375 
L 18.40625 64.59375 
L 9.421875 64.59375 
z
" id="DejaVuSans-69"/>
      <path d="M 54.890625 33.015625 
L 54.890625 0 
L 45.90625 0 
L 45.90625 32.71875 
Q 45.90625 40.484375 42.875 44.328125 
Q 39.84375 48.1875 33.796875 48.1875 
Q 26.515625 48.1875 22.3125 43.546875 
Q 18.109375 38.921875 18.109375 30.90625 
L 18.109375 0 
L 9.078125 0 
L 9.078125 54.6875 
L 18.109375 54.6875 
L 18.109375 46.1875 
Q 21.34375 51.125 25.703125 53.5625 
Q 30.078125 56 35.796875 56 
Q 45.21875 56 50.046875 50.171875 
Q 54.890625 44.34375 54.890625 33.015625 
z
" id="DejaVuSans-6e"/>
     </defs>
     <g transform="translate(22.396875 238.44779)rotate(-90)scale(0.2 -0.2)">
      <use xlink:href="#DejaVuSans-70"/>
      <use x="63.476562" xlink:href="#DejaVuSans-72"/>
      <use x="104.558594" xlink:href="#DejaVuSans-6f"/>
      <use x="165.740234" xlink:href="#DejaVuSans-70"/>
      <use x="229.216797" xlink:href="#DejaVuSans-6f"/>
      <use x="290.398438" xlink:href="#DejaVuSans-72"/>
      <use x="331.511719" xlink:href="#DejaVuSans-74"/>
      <use x="370.720703" xlink:href="#DejaVuSans-69"/>
      <use x="398.503906" xlink:href="#DejaVuSans-6f"/>
      <use x="459.685547" xlink:href="#DejaVuSans-6e"/>
      <use x="523.064453" xlink:href="#DejaVuSans-20"/>
      <use x="554.851562" xlink:href="#DejaVuSans-6f"/>
      <use x="616.033203" xlink:href="#DejaVuSans-66"/>
      <use x="651.238281" xlink:href="#DejaVuSans-20"/>
      <use x="683.025391" xlink:href="#DejaVuSans-74"/>
      <use x="722.234375" xlink:href="#DejaVuSans-72"/>
      <use x="763.347656" xlink:href="#DejaVuSans-69"/>
      <use x="791.130859" xlink:href="#DejaVuSans-61"/>
      <use x="852.410156" xlink:href="#DejaVuSans-6c"/>
      <use x="880.193359" xlink:href="#DejaVuSans-73"/>
     </g>
    </g>
   </g>
   <g id="line2d_72">
    <path clip-path="url(#pddc93cb080)" d="M 165.626228 278.275665 
L 165.626228 274.762636 
L 174.318957 274.762636 
L 174.318957 271.249606 
L 175.695556 271.249606 
L 175.695556 267.736576 
L 176.145395 267.736576 
L 176.145395 264.223546 
L 178.543636 264.223546 
L 178.543636 260.710517 
L 178.966526 260.710517 
L 178.966526 257.197487 
L 182.800757 257.197487 
L 182.800757 253.684457 
L 182.993949 253.684457 
L 182.993949 250.171428 
L 189.120794 250.171428 
L 189.120794 246.658398 
L 189.456936 246.658398 
L 189.456936 243.145368 
L 189.790633 243.145368 
L 189.790633 239.632338 
L 189.956576 239.632338 
L 189.956576 236.119309 
L 191.262947 236.119309 
L 191.262947 232.606279 
L 191.423659 232.606279 
L 191.423659 229.093249 
L 191.423659 229.093249 
L 191.423659 225.58022 
L 191.58381 225.58022 
L 191.58381 222.06719 
L 193.000556 222.06719 
L 193.000556 218.55416 
L 199.359329 218.55416 
L 199.359329 215.041131 
L 200.161971 215.041131 
L 200.161971 211.528101 
L 202.865548 211.528101 
L 202.865548 208.015071 
L 202.990401 208.015071 
L 202.990401 204.502041 
L 205.889249 204.502041 
L 205.889249 200.989012 
L 206.239059 200.989012 
L 206.239059 197.475982 
L 206.239059 197.475982 
L 206.239059 193.962952 
L 206.470793 193.962952 
L 206.470793 190.449923 
L 208.945486 190.449923 
L 208.945486 186.936893 
L 209.920607 186.936893 
L 209.920607 183.423863 
L 213.029009 183.423863 
L 213.029009 179.910834 
L 216.314681 179.910834 
L 216.314681 176.397804 
L 226.553217 176.397804 
L 226.553217 172.884774 
L 312.120712 172.884774 
L 312.120712 169.371744 
L 318.175265 169.371744 
L 318.175265 165.858715 
L 322.502336 165.858715 
L 322.502336 162.345685 
L 322.732189 162.345685 
L 322.732189 158.832655 
L 323.550255 158.832655 
L 323.550255 155.319626 
L 325.611382 155.319626 
L 325.611382 151.806596 
L 326.235885 151.806596 
L 326.235885 148.293566 
L 327.052768 148.293566 
L 327.052768 144.780537 
L 328.149695 144.780537 
L 328.149695 141.267507 
L 328.676395 141.267507 
L 328.676395 137.754477 
L 330.314547 137.754477 
L 330.314547 134.241447 
L 330.500749 134.241447 
L 330.500749 130.728418 
L 333.243214 130.728418 
L 333.243214 127.215388 
L 333.995532 127.215388 
L 333.995532 123.702358 
L 334.466646 123.702358 
L 334.466646 120.189329 
L 334.466646 120.189329 
L 334.466646 120.189329 
L 426.4825 120.189329 
" style="fill:none;stroke:#000000;stroke-linecap:square;stroke-width:1.5;"/>
   </g>
   <g id="line2d_73"/>
   <g id="line2d_74">
    <path clip-path="url(#pddc93cb080)" d="M 193.309534 278.275665 
L 193.309534 274.762636 
L 194.224179 274.762636 
L 194.224179 271.249606 
L 200.29439 271.249606 
L 200.29439 267.736576 
L 207.499351 267.736576 
L 207.499351 264.223546 
L 208.39466 264.223546 
L 208.39466 260.710517 
L 209.272834 260.710517 
L 209.272834 257.197487 
L 209.489776 257.197487 
L 209.489776 253.684457 
L 213.626195 253.684457 
L 213.626195 250.171428 
L 214.117981 250.171428 
L 214.117981 246.658398 
L 216.03405 246.658398 
L 216.03405 243.145368 
L 216.686207 243.145368 
L 216.686207 239.632338 
L 217.054749 239.632338 
L 217.054749 236.119309 
L 218.32182 236.119309 
L 218.32182 232.606279 
L 221.008855 232.606279 
L 221.008855 229.093249 
L 226.40376 229.093249 
L 226.40376 225.58022 
L 229.16339 225.58022 
L 229.16339 222.06719 
L 230.070615 222.06719 
L 230.070615 218.55416 
L 231.633036 218.55416 
L 231.633036 215.041131 
L 232.42757 215.041131 
L 232.42757 211.528101 
L 233.976516 211.528101 
L 233.976516 208.015071 
L 235.042885 208.015071 
L 235.042885 204.502041 
L 235.228522 204.502041 
L 235.228522 200.989012 
L 235.719913 200.989012 
L 235.719913 197.475982 
L 235.780968 197.475982 
L 235.780968 193.962952 
L 236.925848 193.962952 
L 236.925848 190.449923 
L 237.458347 190.449923 
L 237.458347 186.936893 
L 239.640937 186.936893 
L 239.640937 183.423863 
L 244.53127 183.423863 
L 244.53127 179.910834 
L 245.38052 179.910834 
L 245.38052 176.397804 
L 245.57808 176.397804 
L 245.57808 172.884774 
L 330.670773 172.884774 
L 330.670773 169.371744 
L 331.337034 169.371744 
L 331.337034 165.858715 
L 334.80626 165.858715 
L 334.80626 162.345685 
L 336.372344 162.345685 
L 336.372344 158.832655 
L 336.68466 158.832655 
L 336.68466 155.319626 
L 336.826536 155.319626 
L 336.826536 151.806596 
L 336.893942 151.806596 
L 336.893942 148.293566 
L 337.316337 148.293566 
L 337.316337 144.780537 
L 337.449621 144.780537 
L 337.449621 141.267507 
L 338.417559 141.267507 
L 338.417559 137.754477 
L 338.463146 137.754477 
L 338.463146 134.241447 
L 339.167217 134.241447 
L 339.167217 130.728418 
L 341.259727 130.728418 
L 341.259727 127.215388 
L 341.467482 127.215388 
L 341.467482 123.702358 
L 347.513475 123.702358 
L 347.513475 120.189329 
L 347.513475 120.189329 
L 347.513475 120.189329 
L 426.4825 120.189329 
" style="fill:none;stroke:#00bfbf;stroke-linecap:square;stroke-width:1.5;"/>
   </g>
   <g id="line2d_75"/>
   <g id="line2d_76">
    <path clip-path="url(#pddc93cb080)" d="M 194.224179 278.275665 
L 194.224179 274.762636 
L 200.29439 274.762636 
L 200.29439 271.249606 
L 207.499351 271.249606 
L 207.499351 267.736576 
L 208.39466 267.736576 
L 208.39466 264.223546 
L 209.489776 264.223546 
L 209.489776 260.710517 
L 209.489776 260.710517 
L 209.489776 257.197487 
L 210.347431 257.197487 
L 210.347431 253.684457 
L 213.626195 253.684457 
L 213.626195 250.171428 
L 214.117981 250.171428 
L 214.117981 246.658398 
L 216.03405 246.658398 
L 216.03405 243.145368 
L 216.686207 243.145368 
L 216.686207 239.632338 
L 217.054749 239.632338 
L 217.054749 236.119309 
L 221.008855 236.119309 
L 221.008855 232.606279 
L 221.008855 232.606279 
L 221.008855 229.093249 
L 235.042885 229.093249 
L 235.042885 225.58022 
L 261.002412 225.58022 
L 261.002412 222.06719 
L 261.839847 222.06719 
L 261.839847 218.55416 
L 263.470212 218.55416 
L 263.470212 215.041131 
L 263.636758 215.041131 
L 263.636758 211.528101 
L 265.461897 211.528101 
L 265.461897 208.015071 
L 267.063183 208.015071 
L 267.063183 204.502041 
L 267.063183 204.502041 
L 267.063183 200.989012 
L 267.493149 200.989012 
L 267.493149 197.475982 
L 267.79782 197.475982 
L 267.79782 193.962952 
L 267.949399 193.962952 
L 267.949399 190.449923 
L 268.490978 190.449923 
L 268.490978 186.936893 
L 271.946802 186.936893 
L 271.946802 183.423863 
L 272.168193 183.423863 
L 272.168193 179.910834 
L 272.25094 179.910834 
L 272.25094 176.397804 
L 273.848686 176.397804 
L 273.848686 172.884774 
L 336.508395 172.884774 
L 336.508395 169.371744 
L 340.791904 169.371744 
L 340.791904 165.858715 
L 341.06333 165.858715 
L 341.06333 162.345685 
L 341.88019 162.345685 
L 341.88019 158.832655 
L 341.976761 158.832655 
L 341.976761 155.319626 
L 342.157285 155.319626 
L 342.157285 151.806596 
L 342.396885 151.806596 
L 342.396885 148.293566 
L 342.546001 148.293566 
L 342.546001 144.780537 
L 342.984568 144.780537 
L 342.984568 141.267507 
L 343.442347 141.267507 
L 343.442347 137.754477 
L 343.797198 137.754477 
L 343.797198 134.241447 
L 344.612767 134.241447 
L 344.612767 130.728418 
L 346.911014 130.728418 
L 346.911014 127.215388 
L 347.49744 127.215388 
L 347.49744 123.702358 
L 351.640126 123.702358 
L 351.640126 120.189329 
L 351.640126 120.189329 
L 351.640126 120.189329 
L 426.4825 120.189329 
" style="fill:none;stroke:#bf00bf;stroke-linecap:square;stroke-width:1.5;"/>
   </g>
   <g id="line2d_77"/>
   <g id="line2d_78">
    <path clip-path="url(#pddc93cb080)" d="M 194.224179 278.275665 
L 194.224179 274.762636 
L 200.29439 274.762636 
L 200.29439 271.249606 
L 207.499351 271.249606 
L 207.499351 267.736576 
L 208.39466 267.736576 
L 208.39466 264.223546 
L 209.489776 264.223546 
L 209.489776 260.710517 
L 209.489776 260.710517 
L 209.489776 257.197487 
L 210.347431 257.197487 
L 210.347431 253.684457 
L 213.626195 253.684457 
L 213.626195 250.171428 
L 214.117981 250.171428 
L 214.117981 246.658398 
L 216.03405 246.658398 
L 216.03405 243.145368 
L 216.686207 243.145368 
L 216.686207 239.632338 
L 217.054749 239.632338 
L 217.054749 236.119309 
L 221.008855 236.119309 
L 221.008855 232.606279 
L 221.008855 232.606279 
L 221.008855 229.093249 
L 235.042885 229.093249 
L 235.042885 225.58022 
L 284.257238 225.58022 
L 284.257238 222.06719 
L 286.553427 222.06719 
L 286.553427 218.55416 
L 286.835043 218.55416 
L 286.835043 215.041131 
L 286.875133 215.041131 
L 286.875133 211.528101 
L 287.33367 211.528101 
L 287.33367 208.015071 
L 287.689355 208.015071 
L 287.689355 204.502041 
L 289.275694 204.502041 
L 289.275694 200.989012 
L 289.465451 200.989012 
L 289.465451 197.475982 
L 289.786247 197.475982 
L 289.786247 193.962952 
L 289.861404 193.962952 
L 289.861404 190.449923 
L 290.235352 190.449923 
L 290.235352 186.936893 
L 292.753356 186.936893 
L 292.753356 183.423863 
L 293.331392 183.423863 
L 293.331392 179.910834 
L 295.140334 179.910834 
L 295.140334 176.397804 
L 295.457174 176.397804 
L 295.457174 172.884774 
L 342.659007 172.884774 
L 342.659007 169.371744 
L 346.628588 169.371744 
L 346.628588 165.858715 
L 346.905599 165.858715 
L 346.905599 162.345685 
L 347.100134 162.345685 
L 347.100134 158.832655 
L 347.806455 158.832655 
L 347.806455 155.319626 
L 347.811764 155.319626 
L 347.811764 151.806596 
L 348.023647 151.806596 
L 348.023647 148.293566 
L 348.302894 148.293566 
L 348.302894 144.780537 
L 348.949661 144.780537 
L 348.949661 141.267507 
L 349.084124 141.267507 
L 349.084124 137.754477 
L 349.23364 137.754477 
L 349.23364 134.241447 
L 349.638487 134.241447 
L 349.638487 130.728418 
L 351.723084 130.728418 
L 351.723084 127.215388 
L 352.816682 127.215388 
L 352.816682 123.702358 
L 355.851348 123.702358 
L 355.851348 120.189329 
L 355.851348 120.189329 
L 355.851348 120.189329 
L 426.4825 120.189329 
" style="fill:none;stroke:#ff0000;stroke-linecap:square;stroke-width:3;"/>
   </g>
   <g id="line2d_79"/>
   <g id="line2d_80">
    <path clip-path="url(#pddc93cb080)" d="M 426.4825 278.275665 
L 426.4825 12.163665 
" style="fill:none;stroke:#000000;stroke-linecap:square;stroke-width:1.5;"/>
   </g>
   <g id="patch_3">
    <path d="M 69.3625 278.275665 
L 69.3625 12.163665 
" style="fill:none;stroke:#000000;stroke-linecap:square;stroke-linejoin:miter;stroke-width:0.8;"/>
   </g>
   <g id="patch_4">
    <path d="M 426.4825 278.275665 
L 426.4825 12.163665 
" style="fill:none;stroke:#000000;stroke-linecap:square;stroke-linejoin:miter;stroke-width:0.8;"/>
   </g>
   <g id="patch_5">
    <path d="M 69.3625 278.275665 
L 426.4825 278.275665 
" style="fill:none;stroke:#000000;stroke-linecap:square;stroke-linejoin:miter;stroke-width:0.8;"/>
   </g>
   <g id="patch_6">
    <path d="M 69.3625 12.163665 
L 426.4825 12.163665 
" style="fill:none;stroke:#000000;stroke-linecap:square;stroke-linejoin:miter;stroke-width:0.8;"/>
   </g>
   <g id="text_11">
    <!-- {f1-f5}, 20-D -->
    <defs>
     <path d="M 51.125 -9.28125 
L 51.125 -16.3125 
L 48.09375 -16.3125 
Q 35.9375 -16.3125 31.8125 -12.6875 
Q 27.6875 -9.078125 27.6875 1.703125 
L 27.6875 13.375 
Q 27.6875 20.75 25.046875 23.578125 
Q 22.40625 26.421875 15.484375 26.421875 
L 12.5 26.421875 
L 12.5 33.40625 
L 15.484375 33.40625 
Q 22.46875 33.40625 25.078125 36.203125 
Q 27.6875 39.015625 27.6875 46.296875 
L 27.6875 58.015625 
Q 27.6875 68.796875 31.8125 72.390625 
Q 35.9375 75.984375 48.09375 75.984375 
L 51.125 75.984375 
L 51.125 69 
L 47.796875 69 
Q 40.921875 69 38.8125 66.84375 
Q 36.71875 64.703125 36.71875 57.8125 
L 36.71875 45.703125 
Q 36.71875 38.03125 34.5 34.5625 
Q 32.28125 31.109375 26.90625 29.890625 
Q 32.328125 28.5625 34.515625 25.09375 
Q 36.71875 21.625 36.71875 14.015625 
L 36.71875 1.90625 
Q 36.71875 -4.984375 38.8125 -7.125 
Q 40.921875 -9.28125 47.796875 -9.28125 
z
" id="DejaVuSans-7b"/>
     <path d="M 4.890625 31.390625 
L 31.203125 31.390625 
L 31.203125 23.390625 
L 4.890625 23.390625 
z
" id="DejaVuSans-2d"/>
     <path d="M 10.796875 72.90625 
L 49.515625 72.90625 
L 49.515625 64.59375 
L 19.828125 64.59375 
L 19.828125 46.734375 
Q 21.96875 47.46875 24.109375 47.828125 
Q 26.265625 48.1875 28.421875 48.1875 
Q 40.625 48.1875 47.75 41.5 
Q 54.890625 34.8125 54.890625 23.390625 
Q 54.890625 11.625 47.5625 5.09375 
Q 40.234375 -1.421875 26.90625 -1.421875 
Q 22.3125 -1.421875 17.546875 -0.640625 
Q 12.796875 0.140625 7.71875 1.703125 
L 7.71875 11.625 
Q 12.109375 9.234375 16.796875 8.0625 
Q 21.484375 6.890625 26.703125 6.890625 
Q 35.15625 6.890625 40.078125 11.328125 
Q 45.015625 15.765625 45.015625 23.390625 
Q 45.015625 31 40.078125 35.4375 
Q 35.15625 39.890625 26.703125 39.890625 
Q 22.75 39.890625 18.8125 39.015625 
Q 14.890625 38.140625 10.796875 36.28125 
z
" id="DejaVuSans-35"/>
     <path d="M 12.5 -9.28125 
L 15.921875 -9.28125 
Q 22.75 -9.28125 24.828125 -7.171875 
Q 26.90625 -5.078125 26.90625 1.90625 
L 26.90625 14.015625 
Q 26.90625 21.625 29.09375 25.09375 
Q 31.296875 28.5625 36.71875 29.890625 
Q 31.296875 31.109375 29.09375 34.5625 
Q 26.90625 38.03125 26.90625 45.703125 
L 26.90625 57.8125 
Q 26.90625 64.75 24.828125 66.875 
Q 22.75 69 15.921875 69 
L 12.5 69 
L 12.5 75.984375 
L 15.578125 75.984375 
Q 27.734375 75.984375 31.8125 72.390625 
Q 35.890625 68.796875 35.890625 58.015625 
L 35.890625 46.296875 
Q 35.890625 39.015625 38.515625 36.203125 
Q 41.15625 33.40625 48.09375 33.40625 
L 51.125 33.40625 
L 51.125 26.421875 
L 48.09375 26.421875 
Q 41.15625 26.421875 38.515625 23.578125 
Q 35.890625 20.75 35.890625 13.375 
L 35.890625 1.703125 
Q 35.890625 -9.078125 31.8125 -12.6875 
Q 27.734375 -16.3125 15.578125 -16.3125 
L 12.5 -16.3125 
z
" id="DejaVuSans-7d"/>
     <path d="M 11.71875 12.40625 
L 22.015625 12.40625 
L 22.015625 4 
L 14.015625 -11.625 
L 7.71875 -11.625 
L 11.71875 4 
z
" id="DejaVuSans-2c"/>
    </defs>
    <g transform="translate(181.435 32.68278)scale(0.2 -0.2)">
     <use xlink:href="#DejaVuSans-7b"/>
     <use x="63.623047" xlink:href="#DejaVuSans-66"/>
     <use x="98.828125" xlink:href="#DejaVuSans-31"/>
     <use x="162.451172" xlink:href="#DejaVuSans-2d"/>
     <use x="198.535156" xlink:href="#DejaVuSans-66"/>
     <use x="233.740234" xlink:href="#DejaVuSans-35"/>
     <use x="297.363281" xlink:href="#DejaVuSans-7d"/>
     <use x="360.986328" xlink:href="#DejaVuSans-2c"/>
     <use x="392.773438" xlink:href="#DejaVuSans-20"/>
     <use x="424.560547" xlink:href="#DejaVuSans-32"/>
     <use x="488.183594" xlink:href="#DejaVuSans-30"/>
     <use x="551.806641" xlink:href="#DejaVuSans-2d"/>
     <use x="587.890625" xlink:href="#DejaVuSans-44"/>
    </g>
   </g>
   <g id="text_12">
    <!-- absolute targets -->
    <defs>
     <path d="M 48.6875 27.296875 
Q 48.6875 37.203125 44.609375 42.84375 
Q 40.53125 48.484375 33.40625 48.484375 
Q 26.265625 48.484375 22.1875 42.84375 
Q 18.109375 37.203125 18.109375 27.296875 
Q 18.109375 17.390625 22.1875 11.75 
Q 26.265625 6.109375 33.40625 6.109375 
Q 40.53125 6.109375 44.609375 11.75 
Q 48.6875 17.390625 48.6875 27.296875 
z
M 18.109375 46.390625 
Q 20.953125 51.265625 25.265625 53.625 
Q 29.59375 56 35.59375 56 
Q 45.5625 56 51.78125 48.09375 
Q 58.015625 40.1875 58.015625 27.296875 
Q 58.015625 14.40625 51.78125 6.484375 
Q 45.5625 -1.421875 35.59375 -1.421875 
Q 29.59375 -1.421875 25.265625 0.953125 
Q 20.953125 3.328125 18.109375 8.203125 
L 18.109375 0 
L 9.078125 0 
L 9.078125 75.984375 
L 18.109375 75.984375 
z
" id="DejaVuSans-62"/>
     <path d="M 8.5 21.578125 
L 8.5 54.6875 
L 17.484375 54.6875 
L 17.484375 21.921875 
Q 17.484375 14.15625 20.5 10.265625 
Q 23.53125 6.390625 29.59375 6.390625 
Q 36.859375 6.390625 41.078125 11.03125 
Q 45.3125 15.671875 45.3125 23.6875 
L 45.3125 54.6875 
L 54.296875 54.6875 
L 54.296875 0 
L 45.3125 0 
L 45.3125 8.40625 
Q 42.046875 3.421875 37.71875 1 
Q 33.40625 -1.421875 27.6875 -1.421875 
Q 18.265625 -1.421875 13.375 4.4375 
Q 8.5 10.296875 8.5 21.578125 
z
M 31.109375 56 
z
" id="DejaVuSans-75"/>
     <path d="M 56.203125 29.59375 
L 56.203125 25.203125 
L 14.890625 25.203125 
Q 15.484375 15.921875 20.484375 11.0625 
Q 25.484375 6.203125 34.421875 6.203125 
Q 39.59375 6.203125 44.453125 7.46875 
Q 49.3125 8.734375 54.109375 11.28125 
L 54.109375 2.78125 
Q 49.265625 0.734375 44.1875 -0.34375 
Q 39.109375 -1.421875 33.890625 -1.421875 
Q 20.796875 -1.421875 13.15625 6.1875 
Q 5.515625 13.8125 5.515625 26.8125 
Q 5.515625 40.234375 12.765625 48.109375 
Q 20.015625 56 32.328125 56 
Q 43.359375 56 49.78125 48.890625 
Q 56.203125 41.796875 56.203125 29.59375 
z
M 47.21875 32.234375 
Q 47.125 39.59375 43.09375 43.984375 
Q 39.0625 48.390625 32.421875 48.390625 
Q 24.90625 48.390625 20.390625 44.140625 
Q 15.875 39.890625 15.1875 32.171875 
z
" id="DejaVuSans-65"/>
    </defs>
    <g transform="translate(69.3625 290.746921)scale(0.14 -0.14)">
     <use xlink:href="#DejaVuSans-61"/>
     <use x="61.279297" xlink:href="#DejaVuSans-62"/>
     <use x="124.755859" xlink:href="#DejaVuSans-73"/>
     <use x="176.855469" xlink:href="#DejaVuSans-6f"/>
     <use x="238.037109" xlink:href="#DejaVuSans-6c"/>
     <use x="265.820312" xlink:href="#DejaVuSans-75"/>
     <use x="329.199219" xlink:href="#DejaVuSans-74"/>
     <use x="368.408203" xlink:href="#DejaVuSans-65"/>
     <use x="429.931641" xlink:href="#DejaVuSans-20"/>
     <use x="461.71875" xlink:href="#DejaVuSans-74"/>
     <use x="500.927734" xlink:href="#DejaVuSans-61"/>
     <use x="562.207031" xlink:href="#DejaVuSans-72"/>
     <use x="603.304688" xlink:href="#DejaVuSans-67"/>
     <use x="666.78125" xlink:href="#DejaVuSans-65"/>
     <use x="728.304688" xlink:href="#DejaVuSans-74"/>
     <use x="767.513672" xlink:href="#DejaVuSans-73"/>
    </g>
   </g>
   <g id="text_13">
    <!-- v2.1 -->
    <g style="fill:#808080;" transform="translate(237.011563 273.534858)scale(0.1 -0.1)">
     <use xlink:href="#DejaVuSans-76"/>
     <use x="59.179688" xlink:href="#DejaVuSans-32"/>
     <use x="122.802734" xlink:href="#DejaVuSans-2e"/>
     <use x="154.589844" xlink:href="#DejaVuSans-31"/>
    </g>
   </g>
   <g id="legend_1">
    <g id="patch_7">
     <path d="M 83.3625 145.588665 
L 212.584375 145.588665 
Q 216.584375 145.588665 216.584375 141.588665 
L 216.584375 26.163665 
Q 216.584375 22.163665 212.584375 22.163665 
L 83.3625 22.163665 
Q 79.3625 22.163665 79.3625 26.163665 
L 79.3625 141.588665 
Q 79.3625 145.588665 83.3625 145.588665 
z
" style="fill:#ffffff;opacity:0.2;stroke:#cccccc;stroke-linejoin:miter;"/>
    </g>
    <g id="line2d_81">
     <path d="M 87.3625 38.36054 
L 127.3625 38.36054 
" style="fill:none;stroke:#000000;stroke-linecap:square;stroke-width:1.5;"/>
    </g>
    <g id="line2d_82"/>
    <g id="text_14">
     <!-- 1: 3/5 -->
     <defs>
      <path d="M 11.71875 12.40625 
L 22.015625 12.40625 
L 22.015625 0 
L 11.71875 0 
z
M 11.71875 51.703125 
L 22.015625 51.703125 
L 22.015625 39.3125 
L 11.71875 39.3125 
z
" id="DejaVuSans-3a"/>
     </defs>
     <g transform="translate(143.3625 45.36054)scale(0.2 -0.2)">
      <use xlink:href="#DejaVuSans-31"/>
      <use x="63.623047" xlink:href="#DejaVuSans-3a"/>
      <use x="97.314453" xlink:href="#DejaVuSans-20"/>
      <use x="129.101562" xlink:href="#DejaVuSans-33"/>
      <use x="192.724609" xlink:href="#DejaVuSans-2f"/>
      <use x="226.416016" xlink:href="#DejaVuSans-35"/>
     </g>
    </g>
    <g id="line2d_83">
     <path d="M 87.3625 67.71679 
L 127.3625 67.71679 
" style="fill:none;stroke:#00bfbf;stroke-linecap:square;stroke-width:1.5;"/>
    </g>
    <g id="line2d_84"/>
    <g id="text_15">
     <!-- -1: 3/5 -->
     <g transform="translate(143.3625 74.71679)scale(0.2 -0.2)">
      <use xlink:href="#DejaVuSans-2d"/>
      <use x="36.083984" xlink:href="#DejaVuSans-31"/>
      <use x="99.707031" xlink:href="#DejaVuSans-3a"/>
      <use x="133.398438" xlink:href="#DejaVuSans-20"/>
      <use x="165.185547" xlink:href="#DejaVuSans-33"/>
      <use x="228.808594" xlink:href="#DejaVuSans-2f"/>
      <use x="262.5" xlink:href="#DejaVuSans-35"/>
     </g>
    </g>
    <g id="line2d_85">
     <path d="M 87.3625 97.07304 
L 127.3625 97.07304 
" style="fill:none;stroke:#bf00bf;stroke-linecap:square;stroke-width:1.5;"/>
    </g>
    <g id="line2d_86"/>
    <g id="text_16">
     <!-- -4: 3/5 -->
     <g transform="translate(143.3625 104.07304)scale(0.2 -0.2)">
      <use xlink:href="#DejaVuSans-2d"/>
      <use x="36.083984" xlink:href="#DejaVuSans-34"/>
      <use x="99.707031" xlink:href="#DejaVuSans-3a"/>
      <use x="133.398438" xlink:href="#DejaVuSans-20"/>
      <use x="165.185547" xlink:href="#DejaVuSans-33"/>
      <use x="228.808594" xlink:href="#DejaVuSans-2f"/>
      <use x="262.5" xlink:href="#DejaVuSans-35"/>
     </g>
    </g>
    <g id="line2d_87">
     <path d="M 87.3625 126.42929 
L 127.3625 126.42929 
" style="fill:none;stroke:#ff0000;stroke-linecap:square;stroke-width:3;"/>
    </g>
    <g id="line2d_88"/>
    <g id="text_17">
     <!-- -8: 3/5 -->
     <g transform="translate(143.3625 133.42929)scale(0.2 -0.2)">
      <use xlink:href="#DejaVuSans-2d"/>
      <use x="36.083984" xlink:href="#DejaVuSans-38"/>
      <use x="99.707031" xlink:href="#DejaVuSans-3a"/>
      <use x="133.398438" xlink:href="#DejaVuSans-20"/>
      <use x="165.185547" xlink:href="#DejaVuSans-33"/>
      <use x="228.808594" xlink:href="#DejaVuSans-2f"/>
      <use x="262.5" xlink:href="#DejaVuSans-35"/>
     </g>
    </g>
   </g>
  </g>
 </g>
 <defs>
  <clipPath id="pddc93cb080">
   <rect height="266.112" width="357.12" x="69.3625" y="12.163665"/>
  </clipPath>
 </defs>
</svg>
