<?xml version="1.0" encoding="utf-8" standalone="no"?>
<!DOCTYPE svg PUBLIC "-//W3C//DTD SVG 1.1//EN"
  "http://www.w3.org/Graphics/SVG/1.1/DTD/svg11.dtd">
<!-- Created with matplotlib (http://matplotlib.org/) -->
<svg height="335pt" version="1.1" viewBox="0 0 437 335" width="437pt" xmlns="http://www.w3.org/2000/svg" xmlns:xlink="http://www.w3.org/1999/xlink">
 <defs>
  <style type="text/css">
*{stroke-linecap:butt;stroke-linejoin:round;}
  </style>
 </defs>
 <g id="figure_1">
  <g id="patch_1">
   <path d="M 0 335.188165 
L 437.1825 335.188165 
L 437.1825 0 
L 0 0 
z
" style="fill:#ffffff;"/>
  </g>
  <g id="axes_1">
   <g id="patch_2">
    <path d="M 69.3625 278.275665 
L 426.4825 278.275665 
L 426.4825 12.163665 
L 69.3625 12.163665 
z
" style="fill:#ffffff;"/>
   </g>
   <g id="line2d_1">
    <path clip-path="url(#p7846e14e3c)" d="M 270.422189 278.275665 
L 270.422189 274.762636 
L 274.69089 274.762636 
L 274.69089 271.249606 
L 276.029877 271.249606 
L 276.029877 267.736576 
L 277.625962 267.736576 
L 277.625962 264.223546 
L 277.821624 264.223546 
L 277.821624 260.710517 
L 278.210464 260.710517 
L 278.210464 257.197487 
L 283.506999 257.197487 
L 283.506999 253.684457 
L 285.86048 253.684457 
L 285.86048 250.171428 
L 289.026067 250.171428 
L 289.026067 246.658398 
L 293.676404 246.658398 
L 293.676404 243.145368 
L 294.970882 243.145368 
L 294.970882 239.632338 
L 302.795708 239.632338 
L 302.795708 236.119309 
L 311.770725 236.119309 
L 311.770725 232.606279 
L 318.071869 232.606279 
L 318.071869 229.093249 
L 318.99639 229.093249 
L 318.99639 225.58022 
L 319.863616 225.58022 
L 319.863616 222.06719 
L 320.753071 222.06719 
L 320.753071 218.55416 
L 321.096478 218.55416 
L 321.096478 215.041131 
L 324.431547 215.041131 
L 324.431547 211.528101 
L 325.51448 211.528101 
L 325.51448 208.015071 
L 341.23304 208.015071 
L 341.23304 204.502041 
L 342.418583 204.502041 
L 342.418583 200.989012 
L 343.876049 200.989012 
L 343.876049 197.475982 
L 346.962899 197.475982 
L 346.962899 193.962952 
L 358.020365 193.962952 
L 358.020365 190.449923 
L 362.932734 190.449923 
L 362.932734 186.936893 
L 366.685143 186.936893 
L 366.685143 183.423863 
L 380.454785 183.423863 
L 380.454785 179.910834 
L 380.454785 179.910834 
L 380.454785 179.910834 
L 426.4825 179.910834 
" style="fill:none;stroke:#f5deb3;stroke-linecap:square;stroke-width:1.5;"/>
   </g>
   <g id="line2d_2">
    <path clip-path="url(#p7846e14e3c)" d="M 360.048848 278.275665 
L 360.048848 267.736576 
L 381.577325 267.736576 
L 381.577325 257.197487 
L 397.650682 257.197487 
L 397.650682 246.658398 
L 438.1825 246.658398 
" style="fill:none;stroke:#f5deb3;stroke-linecap:square;stroke-width:1.5;"/>
   </g>
   <g id="line2d_3">
    <path clip-path="url(#p7846e14e3c)" d="M 225.112078 278.275665 
L 225.112078 274.762636 
L 230.618826 274.762636 
L 230.618826 271.249606 
L 273.953377 271.249606 
L 273.953377 267.736576 
L 275.72433 267.736576 
L 275.72433 264.223546 
L 278.403655 264.223546 
L 278.403655 260.710517 
L 286.187049 260.710517 
L 286.187049 257.197487 
L 290.899094 257.197487 
L 290.899094 253.684457 
L 294.970882 253.684457 
L 294.970882 250.171428 
L 298.399946 250.171428 
L 298.399946 246.658398 
L 298.95761 246.658398 
L 298.95761 243.145368 
L 304.135447 243.145368 
L 304.135447 239.632338 
L 306.702987 239.632338 
L 306.702987 236.119309 
L 314.263737 236.119309 
L 314.263737 232.606279 
L 316.460331 232.606279 
L 316.460331 229.093249 
L 324.50219 229.093249 
L 324.50219 225.58022 
L 334.115217 225.58022 
L 334.115217 222.06719 
L 344.47373 222.06719 
L 344.47373 218.55416 
L 357.283482 218.55416 
L 357.283482 215.041131 
L 358.054352 215.041131 
L 358.054352 211.528101 
L 360.485908 211.528101 
L 360.485908 208.015071 
L 365.051927 208.015071 
L 365.051927 204.502041 
L 370.062297 204.502041 
L 370.062297 200.989012 
L 371.122172 200.989012 
L 371.122172 197.475982 
L 386.702617 197.475982 
L 386.702617 193.962952 
L 390.716168 193.962952 
L 390.716168 190.449923 
L 425.967303 190.449923 
L 425.967303 186.936893 
L 428.768259 186.936893 
L 428.768259 183.423863 
L 429.44347 183.423863 
L 429.44347 179.910834 
L 438.1825 179.910834 
" style="fill:none;stroke:#f5deb3;stroke-linecap:square;stroke-width:1.5;"/>
   </g>
   <g id="line2d_4">
    <path clip-path="url(#p7846e14e3c)" d="M 260.611883 278.275665 
L 260.611883 274.762636 
L 284.446029 274.762636 
L 284.446029 271.249606 
L 284.53045 271.249606 
L 284.53045 267.736576 
L 287.785915 267.736576 
L 287.785915 264.223546 
L 324.07669 264.223546 
L 324.07669 260.710517 
L 325.41079 260.710517 
L 325.41079 257.197487 
L 330.359073 257.197487 
L 330.359073 253.684457 
L 330.668674 253.684457 
L 330.668674 250.171428 
L 335.274007 250.171428 
L 335.274007 246.658398 
L 348.284893 246.658398 
L 348.284893 243.145368 
L 349.99706 243.145368 
L 349.99706 239.632338 
L 353.616656 239.632338 
L 353.616656 236.119309 
L 353.747456 236.119309 
L 353.747456 232.606279 
L 358.35911 232.606279 
L 358.35911 229.093249 
L 359.228318 229.093249 
L 359.228318 225.58022 
L 360.9348 225.58022 
L 360.9348 222.06719 
L 366.572409 222.06719 
L 366.572409 218.55416 
L 384.158635 218.55416 
L 384.158635 215.041131 
L 396.459985 215.041131 
L 396.459985 211.528101 
L 396.99381 211.528101 
L 396.99381 208.015071 
L 403.231344 208.015071 
L 403.231344 204.502041 
L 405.315593 204.502041 
L 405.315593 200.989012 
L 417.045622 200.989012 
L 417.045622 197.475982 
L 420.916466 197.475982 
L 420.916466 193.962952 
L 425.39539 193.962952 
L 425.39539 190.449923 
L 429.821843 190.449923 
L 429.821843 186.936893 
L 438.1825 186.936893 
" style="fill:none;stroke:#f5deb3;stroke-linecap:square;stroke-width:1.5;"/>
   </g>
   <g id="line2d_5">
    <path clip-path="url(#p7846e14e3c)" d="M 272.000623 278.275665 
L 272.000623 274.762636 
L 282.811792 274.762636 
L 282.811792 271.249606 
L 324.112299 271.249606 
L 324.112299 267.736576 
L 339.331408 267.736576 
L 339.331408 264.223546 
L 367.920978 264.223546 
L 367.920978 260.710517 
L 386.088944 260.710517 
L 386.088944 257.197487 
L 392.200753 257.197487 
L 392.200753 253.684457 
L 393.348481 253.684457 
L 393.348481 250.171428 
L 393.826146 250.171428 
L 393.826146 246.658398 
L 403.780165 246.658398 
L 403.780165 243.145368 
L 406.906857 243.145368 
L 406.906857 239.632338 
L 406.91857 239.632338 
L 406.91857 236.119309 
L 410.39116 236.119309 
L 410.39116 232.606279 
L 414.077525 232.606279 
L 414.077525 229.093249 
L 417.026833 229.093249 
L 417.026833 225.58022 
L 420.255645 225.58022 
L 420.255645 222.06719 
L 420.391193 222.06719 
L 420.391193 218.55416 
L 422.21442 218.55416 
L 422.21442 215.041131 
L 426.325478 215.041131 
L 426.325478 211.528101 
L 431.48008 211.528101 
L 431.48008 208.015071 
L 437.52666 208.015071 
L 437.52666 204.502041 
L 438.1825 204.502041 
" style="fill:none;stroke:#f5deb3;stroke-linecap:square;stroke-width:1.5;"/>
   </g>
   <g id="line2d_6"/>
   <g id="line2d_7">
    <path clip-path="url(#p7846e14e3c)" d="M 288.410181 278.275665 
L 288.410181 274.762636 
L 296.425502 274.762636 
L 296.425502 271.249606 
L 298.772474 271.249606 
L 298.772474 267.736576 
L 303.637618 267.736576 
L 303.637618 264.223546 
L 313.775854 264.223546 
L 313.775854 260.710517 
L 379.930524 260.710517 
L 379.930524 257.197487 
L 396.906483 257.197487 
L 396.906483 253.684457 
L 401.094457 253.684457 
L 401.094457 250.171428 
L 402.100598 250.171428 
L 402.100598 246.658398 
L 407.15222 246.658398 
L 407.15222 243.145368 
L 419.851001 243.145368 
L 419.851001 239.632338 
L 422.715193 239.632338 
L 422.715193 236.119309 
L 424.197586 236.119309 
L 424.197586 232.606279 
L 424.462041 232.606279 
L 424.462041 229.093249 
L 426.217935 229.093249 
L 426.217935 225.58022 
L 428.370054 225.58022 
L 428.370054 222.06719 
L 434.027557 222.06719 
L 434.027557 218.55416 
L 435.476978 218.55416 
L 435.476978 215.041131 
L 436.982481 215.041131 
L 436.982481 211.528101 
L 438.1825 211.528101 
" style="fill:none;stroke:#f5deb3;stroke-linecap:square;stroke-width:1.5;"/>
   </g>
   <g id="line2d_8">
    <path clip-path="url(#p7846e14e3c)" style="fill:none;stroke:#f5deb3;stroke-linecap:square;stroke-width:1.5;"/>
   </g>
   <g id="line2d_9">
    <path clip-path="url(#p7846e14e3c)" d="M 277.527817 278.275665 
L 277.527817 274.762636 
L 283.073731 274.762636 
L 283.073731 271.249606 
L 297.898489 271.249606 
L 297.898489 267.736576 
L 299.08062 267.736576 
L 299.08062 264.223546 
L 343.806582 264.223546 
L 343.806582 260.710517 
L 349.221097 260.710517 
L 349.221097 257.197487 
L 354.689338 257.197487 
L 354.689338 253.684457 
L 358.879272 253.684457 
L 358.879272 250.171428 
L 365.904443 250.171428 
L 365.904443 246.658398 
L 383.304435 246.658398 
L 383.304435 243.145368 
L 384.855361 243.145368 
L 384.855361 239.632338 
L 384.893234 239.632338 
L 384.893234 236.119309 
L 398.333602 236.119309 
L 398.333602 232.606279 
L 401.859298 232.606279 
L 401.859298 229.093249 
L 414.511349 229.093249 
L 414.511349 225.58022 
L 419.56739 225.58022 
L 419.56739 222.06719 
L 422.598834 222.06719 
L 422.598834 218.55416 
L 424.446056 218.55416 
L 424.446056 215.041131 
L 429.249507 215.041131 
L 429.249507 211.528101 
L 432.22826 211.528101 
L 432.22826 208.015071 
L 436.262171 208.015071 
L 436.262171 204.502041 
L 436.26526 204.502041 
L 436.26526 200.989012 
L 438.1825 200.989012 
" style="fill:none;stroke:#f5deb3;stroke-linecap:square;stroke-width:1.5;"/>
   </g>
   <g id="line2d_10">
    <path clip-path="url(#p7846e14e3c)" d="M 421.999926 278.275665 
L 421.999926 274.762636 
L 438.1825 274.762636 
" style="fill:none;stroke:#f5deb3;stroke-linecap:square;stroke-width:1.5;"/>
   </g>
   <g id="line2d_11">
    <path clip-path="url(#p7846e14e3c)" d="M 356.305729 278.275665 
L 356.305729 274.762636 
L 394.934406 274.762636 
L 394.934406 271.249606 
L 412.362461 271.249606 
L 412.362461 267.736576 
L 420.626356 267.736576 
L 420.626356 264.223546 
L 424.593699 264.223546 
L 424.593699 260.710517 
L 428.753707 260.710517 
L 428.753707 257.197487 
L 430.320362 257.197487 
L 430.320362 253.684457 
L 431.818272 253.684457 
L 431.818272 250.171428 
L 438.1825 250.171428 
" style="fill:none;stroke:#f5deb3;stroke-linecap:square;stroke-width:1.5;"/>
   </g>
   <g id="line2d_12">
    <path clip-path="url(#p7846e14e3c)" d="M 281.65912 278.275665 
L 281.65912 274.762636 
L 285.778473 274.762636 
L 285.778473 271.249606 
L 287.707281 271.249606 
L 287.707281 267.736576 
L 304.518948 267.736576 
L 304.518948 264.223546 
L 304.84513 264.223546 
L 304.84513 260.710517 
L 322.444968 260.710517 
L 322.444968 257.197487 
L 324.818746 257.197487 
L 324.818746 253.684457 
L 326.471118 253.684457 
L 326.471118 250.171428 
L 327.474427 250.171428 
L 327.474427 246.658398 
L 333.248388 246.658398 
L 333.248388 243.145368 
L 341.257544 243.145368 
L 341.257544 239.632338 
L 343.69057 239.632338 
L 343.69057 236.119309 
L 345.467783 236.119309 
L 345.467783 232.606279 
L 347.692575 232.606279 
L 347.692575 229.093249 
L 347.820146 229.093249 
L 347.820146 225.58022 
L 348.074228 225.58022 
L 348.074228 222.06719 
L 350.299784 222.06719 
L 350.299784 218.55416 
L 355.432763 218.55416 
L 355.432763 215.041131 
L 365.212076 215.041131 
L 365.212076 211.528101 
L 375.272875 211.528101 
L 375.272875 208.015071 
L 385.690726 208.015071 
L 385.690726 204.502041 
L 391.007014 204.502041 
L 391.007014 200.989012 
L 395.501194 200.989012 
L 395.501194 197.475982 
L 398.551974 197.475982 
L 398.551974 193.962952 
L 413.069516 193.962952 
L 413.069516 190.449923 
L 419.375849 190.449923 
L 419.375849 186.936893 
L 426.505434 186.936893 
L 426.505434 183.423863 
L 427.323506 183.423863 
L 427.323506 179.910834 
L 438.1825 179.910834 
" style="fill:none;stroke:#f5deb3;stroke-linecap:square;stroke-width:1.5;"/>
   </g>
   <g id="line2d_13">
    <path clip-path="url(#p7846e14e3c)" d="M 356.499439 278.275665 
L 356.499439 274.762636 
L 372.369989 274.762636 
L 372.369989 271.249606 
L 378.386297 271.249606 
L 378.386297 267.736576 
L 379.750902 267.736576 
L 379.750902 264.223546 
L 385.959671 264.223546 
L 385.959671 260.710517 
L 390.957285 260.710517 
L 390.957285 257.197487 
L 395.071075 257.197487 
L 395.071075 253.684457 
L 395.395924 253.684457 
L 395.395924 250.171428 
L 395.395924 250.171428 
L 395.395924 246.658398 
L 398.312413 246.658398 
L 398.312413 243.145368 
L 414.975514 243.145368 
L 414.975514 239.632338 
L 414.975514 239.632338 
L 414.975514 239.632338 
L 426.4825 239.632338 
" style="fill:none;stroke:#f5deb3;stroke-linecap:square;stroke-width:1.5;"/>
   </g>
   <g id="line2d_14">
    <path clip-path="url(#p7846e14e3c)" d="M 239.97489 278.275665 
L 239.97489 274.762636 
L 252.895288 274.762636 
L 252.895288 271.249606 
L 321.550392 271.249606 
L 321.550392 267.736576 
L 365.357183 267.736576 
L 365.357183 264.223546 
L 376.071259 264.223546 
L 376.071259 260.710517 
L 381.475476 260.710517 
L 381.475476 257.197487 
L 382.920723 257.197487 
L 382.920723 253.684457 
L 391.656795 253.684457 
L 391.656795 250.171428 
L 392.706421 250.171428 
L 392.706421 246.658398 
L 398.390055 246.658398 
L 398.390055 243.145368 
L 401.564104 243.145368 
L 401.564104 239.632338 
L 402.198062 239.632338 
L 402.198062 236.119309 
L 402.55367 236.119309 
L 402.55367 232.606279 
L 404.907472 232.606279 
L 404.907472 229.093249 
L 408.416447 229.093249 
L 408.416447 225.58022 
L 412.956706 225.58022 
L 412.956706 222.06719 
L 417.340538 222.06719 
L 417.340538 218.55416 
L 438.1825 218.55416 
" style="fill:none;stroke:#f5deb3;stroke-linecap:square;stroke-width:1.5;"/>
   </g>
   <g id="line2d_15">
    <path clip-path="url(#p7846e14e3c)" style="fill:none;stroke:#f5deb3;stroke-linecap:square;stroke-width:1.5;"/>
   </g>
   <g id="line2d_16">
    <path clip-path="url(#p7846e14e3c)" d="M 363.343287 278.275665 
L 363.343287 274.762636 
L 438.1825 274.762636 
" style="fill:none;stroke:#f5deb3;stroke-linecap:square;stroke-width:1.5;"/>
   </g>
   <g id="line2d_17">
    <path clip-path="url(#p7846e14e3c)" d="M 374.293721 278.275665 
L 374.293721 274.762636 
L 377.036054 274.762636 
L 377.036054 271.249606 
L 398.818247 271.249606 
L 398.818247 267.736576 
L 438.1825 267.736576 
" style="fill:none;stroke:#f5deb3;stroke-linecap:square;stroke-width:1.5;"/>
   </g>
   <g id="line2d_18">
    <path clip-path="url(#p7846e14e3c)" d="M 251.70346 278.275665 
L 251.70346 274.762636 
L 273.419229 274.762636 
L 273.419229 271.249606 
L 282.460198 271.249606 
L 282.460198 267.736576 
L 284.361453 267.736576 
L 284.361453 264.223546 
L 284.782785 264.223546 
L 284.782785 260.710517 
L 298.772474 260.710517 
L 298.772474 257.197487 
L 307.374329 257.197487 
L 307.374329 253.684457 
L 309.035655 253.684457 
L 309.035655 250.171428 
L 312.372323 250.171428 
L 312.372323 246.658398 
L 317.045365 246.658398 
L 317.045365 243.145368 
L 326.975515 243.145368 
L 326.975515 239.632338 
L 328.000687 239.632338 
L 328.000687 236.119309 
L 329.953442 236.119309 
L 329.953442 232.606279 
L 330.637808 232.606279 
L 330.637808 229.093249 
L 344.060781 229.093249 
L 344.060781 225.58022 
L 346.08933 225.58022 
L 346.08933 222.06719 
L 346.57185 222.06719 
L 346.57185 218.55416 
L 347.135634 218.55416 
L 347.135634 215.041131 
L 348.284893 215.041131 
L 348.284893 211.528101 
L 361.694257 211.528101 
L 361.694257 208.015071 
L 362.533884 208.015071 
L 362.533884 204.502041 
L 369.164418 204.502041 
L 369.164418 200.989012 
L 372.618005 200.989012 
L 372.618005 197.475982 
L 380.277207 197.475982 
L 380.277207 193.962952 
L 392.087622 193.962952 
L 392.087622 190.449923 
L 396.46734 190.449923 
L 396.46734 186.936893 
L 400.235429 186.936893 
L 400.235429 183.423863 
L 405.521318 183.423863 
L 405.521318 179.910834 
L 424.241767 179.910834 
L 424.241767 176.397804 
L 431.575983 176.397804 
L 431.575983 172.884774 
L 431.575983 172.884774 
" style="fill:none;stroke:#f5deb3;stroke-linecap:square;stroke-width:1.5;"/>
   </g>
   <g id="line2d_19">
    <path clip-path="url(#p7846e14e3c)" d="M 419.806802 278.275665 
L 419.806802 276.99041 
L 419.806802 276.99041 
L 419.806802 276.99041 
L 419.806802 275.705156 
L 419.806802 275.705156 
L 419.806802 275.705156 
L 419.806802 274.419901 
L 423.992185 274.419901 
L 423.992185 270.564137 
L 427.997964 270.564137 
L 427.997964 266.708372 
L 432.964435 266.708372 
L 432.964435 262.852608 
L 434.17975 262.852608 
L 434.17975 258.996844 
L 434.55964 258.996844 
L 434.55964 255.141079 
L 438.1825 255.141079 
L 438.1825 255.141079 
" style="fill:none;stroke:#f5deb3;stroke-linecap:square;stroke-width:1.5;"/>
   </g>
   <g id="line2d_20">
    <path clip-path="url(#p7846e14e3c)" d="M 246.212917 278.275665 
L 246.212917 274.762636 
L 246.212917 274.762636 
L 246.212917 271.249606 
L 251.008253 271.249606 
L 251.008253 267.736576 
L 253.562686 267.736576 
L 253.562686 264.223546 
L 268.668492 264.223546 
L 268.668492 260.710517 
L 289.633795 260.710517 
L 289.633795 257.197487 
L 294.903654 257.197487 
L 294.903654 253.684457 
L 302.96533 253.684457 
L 302.96533 250.171428 
L 312.875279 250.171428 
L 312.875279 246.658398 
L 324.183435 246.658398 
L 324.183435 243.145368 
L 325.72116 243.145368 
L 325.72116 239.632338 
L 328.098692 239.632338 
L 328.098692 236.119309 
L 329.953442 236.119309 
L 329.953442 232.606279 
L 333.885659 232.606279 
L 333.885659 229.093249 
L 334.000582 229.093249 
L 334.000582 225.58022 
L 341.744886 225.58022 
L 341.744886 222.06719 
L 345.400687 222.06719 
L 345.400687 218.55416 
L 346.221431 218.55416 
L 346.221431 215.041131 
L 347.049348 215.041131 
L 347.049348 211.528101 
L 348.221795 211.528101 
L 348.221795 208.015071 
L 351.900855 208.015071 
L 351.900855 204.502041 
L 356.199724 204.502041 
L 356.199724 200.989012 
L 363.434025 200.989012 
L 363.434025 197.475982 
L 363.44913 197.475982 
L 363.44913 193.962952 
L 365.3137 193.962952 
L 365.3137 190.449923 
L 378.00298 190.449923 
L 378.00298 186.936893 
L 379.325467 186.936893 
L 379.325467 183.423863 
L 381.086376 183.423863 
L 381.086376 179.910834 
L 403.711135 179.910834 
L 403.711135 176.397804 
L 405.684034 176.397804 
L 405.684034 172.884774 
L 438.1825 172.884774 
" style="fill:none;stroke:#f5deb3;stroke-linecap:square;stroke-width:1.5;"/>
   </g>
   <g id="line2d_21">
    <path clip-path="url(#p7846e14e3c)" style="fill:none;stroke:#f5deb3;stroke-linecap:square;stroke-width:1.5;"/>
   </g>
   <g id="line2d_22">
    <path clip-path="url(#p7846e14e3c)" d="M 229.232533 278.275665 
L 229.232533 274.762636 
L 236.265169 274.762636 
L 236.265169 271.249606 
L 245.428576 271.249606 
L 245.428576 267.736576 
L 246.600116 267.736576 
L 246.600116 264.223546 
L 253.562686 264.223546 
L 253.562686 260.710517 
L 257.375216 260.710517 
L 257.375216 257.197487 
L 315.051069 257.197487 
L 315.051069 253.684457 
L 343.876049 253.684457 
L 343.876049 250.171428 
L 346.221431 250.171428 
L 346.221431 246.658398 
L 350.56054 246.658398 
L 350.56054 243.145368 
L 353.297437 243.145368 
L 353.297437 239.632338 
L 361.929032 239.632338 
L 361.929032 236.119309 
L 365.861474 236.119309 
L 365.861474 232.606279 
L 374.732795 232.606279 
L 374.732795 229.093249 
L 379.772071 229.093249 
L 379.772071 225.58022 
L 385.16688 225.58022 
L 385.16688 222.06719 
L 407.874799 222.06719 
L 407.874799 218.55416 
L 408.540975 218.55416 
L 408.540975 215.041131 
L 412.35726 215.041131 
L 412.35726 211.528101 
L 413.856547 211.528101 
L 413.856547 208.015071 
L 417.508215 208.015071 
L 417.508215 204.502041 
L 428.193595 204.502041 
L 428.193595 200.989012 
L 438.1825 200.989012 
" style="fill:none;stroke:#f5deb3;stroke-linecap:square;stroke-width:1.5;"/>
   </g>
   <g id="line2d_23">
    <path clip-path="url(#p7846e14e3c)" d="M 366.04738 278.275665 
L 366.04738 274.762636 
L 373.244443 274.762636 
L 373.244443 271.249606 
L 376.539164 271.249606 
L 376.539164 267.736576 
L 377.4275 267.736576 
L 377.4275 264.223546 
L 379.111261 264.223546 
L 379.111261 260.710517 
L 382.473954 260.710517 
L 382.473954 257.197487 
L 399.75191 257.197487 
L 399.75191 253.684457 
L 404.185961 253.684457 
L 404.185961 250.171428 
L 404.440092 250.171428 
L 404.440092 246.658398 
L 406.317323 246.658398 
L 406.317323 243.145368 
L 414.808166 243.145368 
L 414.808166 239.632338 
L 418.035184 239.632338 
L 418.035184 236.119309 
L 425.266015 236.119309 
L 425.266015 232.606279 
L 432.520797 232.606279 
L 432.520797 229.093249 
L 435.508394 229.093249 
L 435.508394 225.58022 
L 438.1825 225.58022 
" style="fill:none;stroke:#f5deb3;stroke-linecap:square;stroke-width:1.5;"/>
   </g>
   <g id="line2d_24">
    <path clip-path="url(#p7846e14e3c)" d="M 317.211157 278.275665 
L 317.211157 274.762636 
L 318.757001 274.762636 
L 318.757001 271.249606 
L 326.063571 271.249606 
L 326.063571 267.736576 
L 327.308725 267.736576 
L 327.308725 264.223546 
L 334.286635 264.223546 
L 334.286635 260.710517 
L 335.329791 260.710517 
L 335.329791 257.197487 
L 345.801802 257.197487 
L 345.801802 253.684457 
L 373.232242 253.684457 
L 373.232242 250.171428 
L 403.497111 250.171428 
L 403.497111 246.658398 
L 404.551218 246.658398 
L 404.551218 243.145368 
L 406.115143 243.145368 
L 406.115143 239.632338 
L 407.66786 239.632338 
L 407.66786 236.119309 
L 409.740485 236.119309 
L 409.740485 232.606279 
L 410.715766 232.606279 
L 410.715766 229.093249 
L 410.979168 229.093249 
L 410.979168 225.58022 
L 414.007329 225.58022 
L 414.007329 222.06719 
L 424.11312 222.06719 
L 424.11312 218.55416 
L 424.942951 218.55416 
L 424.942951 215.041131 
L 426.210243 215.041131 
L 426.210243 211.528101 
L 437.191846 211.528101 
L 437.191846 208.015071 
L 438.1825 208.015071 
" style="fill:none;stroke:#f5deb3;stroke-linecap:square;stroke-width:1.5;"/>
   </g>
   <g id="line2d_25">
    <path clip-path="url(#p7846e14e3c)" style="fill:none;stroke:#f5deb3;stroke-linecap:square;stroke-width:1.5;"/>
   </g>
   <g id="line2d_26">
    <path clip-path="url(#p7846e14e3c)" d="M 335.274007 278.275665 
L 335.274007 274.762636 
L 336.945647 274.762636 
L 336.945647 271.249606 
L 337.347542 271.249606 
L 337.347542 267.736576 
L 337.877985 267.736576 
L 337.877985 264.223546 
L 338.088457 264.223546 
L 338.088457 260.710517 
L 339.280286 260.710517 
L 339.280286 257.197487 
L 340.141722 257.197487 
L 340.141722 253.684457 
L 340.441938 253.684457 
L 340.441938 250.171428 
L 344.129865 250.171428 
L 344.129865 246.658398 
L 355.017204 246.658398 
L 355.017204 243.145368 
L 356.07574 243.145368 
L 356.07574 239.632338 
L 357.369777 239.632338 
L 357.369777 236.119309 
L 357.85005 236.119309 
L 357.85005 232.606279 
L 361.26861 232.606279 
L 361.26861 229.093249 
L 370.336069 229.093249 
L 370.336069 225.58022 
L 371.186014 225.58022 
L 371.186014 222.06719 
L 371.211526 222.06719 
L 371.211526 218.55416 
L 371.857327 218.55416 
L 371.857327 215.041131 
L 373.850406 215.041131 
L 373.850406 211.528101 
L 374.150412 211.528101 
L 374.150412 208.015071 
L 375.214478 208.015071 
L 375.214478 204.502041 
L 388.08279 204.502041 
L 388.08279 200.989012 
L 391.197142 200.989012 
L 391.197142 197.475982 
L 391.312487 197.475982 
L 391.312487 193.962952 
L 392.402083 193.962952 
L 392.402083 190.449923 
L 394.221723 190.449923 
L 394.221723 186.936893 
L 400.424721 186.936893 
L 400.424721 183.423863 
L 400.660242 183.423863 
L 400.660242 179.910834 
L 404.470987 179.910834 
L 404.470987 176.397804 
L 405.647925 176.397804 
L 405.647925 172.884774 
L 417.139451 172.884774 
L 417.139451 169.371744 
L 418.52435 169.371744 
L 418.52435 165.858715 
L 423.099566 165.858715 
L 423.099566 162.345685 
L 426.267897 162.345685 
L 426.267897 158.832655 
L 438.1825 158.832655 
" style="fill:none;stroke:#f5deb3;stroke-linecap:square;stroke-width:1.5;"/>
   </g>
   <g id="line2d_27">
    <path clip-path="url(#p7846e14e3c)" d="M 389.268053 278.275665 
L 389.268053 274.762636 
L 389.268053 274.762636 
L 389.268053 274.762636 
L 426.4825 274.762636 
" style="fill:none;stroke:#f5deb3;stroke-linecap:square;stroke-width:1.5;"/>
   </g>
   <g id="line2d_28">
    <path clip-path="url(#p7846e14e3c)" d="M 290.752034 278.275665 
L 290.752034 274.762636 
L 291.482667 274.762636 
L 291.482667 271.249606 
L 301.064076 271.249606 
L 301.064076 267.736576 
L 312.003043 267.736576 
L 312.003043 264.223546 
L 334.172427 264.223546 
L 334.172427 260.710517 
L 361.835266 260.710517 
L 361.835266 257.197487 
L 378.309889 257.197487 
L 378.309889 253.684457 
L 405.047983 253.684457 
L 405.047983 250.171428 
L 407.736943 250.171428 
L 407.736943 246.658398 
L 410.091574 246.658398 
L 410.091574 243.145368 
L 410.129812 243.145368 
L 410.129812 239.632338 
L 412.242683 239.632338 
L 412.242683 236.119309 
L 412.678628 236.119309 
L 412.678628 232.606279 
L 415.595264 232.606279 
L 415.595264 229.093249 
L 421.474188 229.093249 
L 421.474188 225.58022 
L 423.074865 225.58022 
L 423.074865 222.06719 
L 438.1825 222.06719 
" style="fill:none;stroke:#f5deb3;stroke-linecap:square;stroke-width:1.5;"/>
   </g>
   <g id="line2d_29">
    <path clip-path="url(#p7846e14e3c)" d="M 286.105625 278.275665 
L 286.105625 274.762636 
L 286.105625 274.762636 
L 286.105625 271.249606 
L 286.105625 271.249606 
L 286.105625 267.736576 
L 318.274442 267.736576 
L 318.274442 264.223546 
L 318.274442 264.223546 
L 318.274442 260.710517 
L 318.274442 260.710517 
L 318.274442 257.197487 
L 325.028576 257.197487 
L 325.028576 253.684457 
L 325.028576 253.684457 
L 325.028576 250.171428 
L 325.028576 250.171428 
L 325.028576 246.658398 
L 365.270174 246.658398 
L 365.270174 243.145368 
L 365.270174 243.145368 
L 365.270174 239.632338 
L 365.270174 239.632338 
L 365.270174 236.119309 
L 408.929362 236.119309 
L 408.929362 232.606279 
L 408.929362 232.606279 
L 408.929362 229.093249 
L 408.929362 229.093249 
L 408.929362 225.58022 
L 426.382988 225.58022 
L 426.382988 222.06719 
L 426.382988 222.06719 
L 426.382988 218.55416 
L 426.382988 218.55416 
L 426.382988 215.041131 
L 435.514674 215.041131 
L 435.514674 211.528101 
L 435.514674 211.528101 
L 435.514674 208.015071 
L 435.514674 208.015071 
L 435.514674 204.502041 
L 438.1825 204.502041 
" style="fill:none;stroke:#f5deb3;stroke-linecap:square;stroke-width:1.5;"/>
   </g>
   <g id="line2d_30">
    <path clip-path="url(#p7846e14e3c)" d="M 398.804271 278.275665 
L 398.804271 274.762636 
L 401.66928 274.762636 
L 401.66928 271.249606 
L 438.1825 271.249606 
" style="fill:none;stroke:#f5deb3;stroke-linecap:square;stroke-width:1.5;"/>
   </g>
   <g id="matplotlib.axis_1">
    <g id="xtick_1">
     <g id="line2d_31">
      <path clip-path="url(#p7846e14e3c)" d="M 69.3625 278.275665 
L 69.3625 12.163665 
" style="fill:none;stroke:#b0b0b0;stroke-linecap:square;stroke-width:0.8;"/>
     </g>
     <g id="line2d_32">
      <defs>
       <path d="M 0 0 
L 0 3.5 
" id="m5369284f8d" style="stroke:#000000;stroke-width:0.8;"/>
      </defs>
      <g>
       <use style="stroke:#000000;stroke-width:0.8;" x="69.3625" xlink:href="#m5369284f8d" y="278.275665"/>
      </g>
     </g>
     <g id="text_1">
      <!-- 0 -->
      <defs>
       <path d="M 31.78125 66.40625 
Q 24.171875 66.40625 20.328125 58.90625 
Q 16.5 51.421875 16.5 36.375 
Q 16.5 21.390625 20.328125 13.890625 
Q 24.171875 6.390625 31.78125 6.390625 
Q 39.453125 6.390625 43.28125 13.890625 
Q 47.125 21.390625 47.125 36.375 
Q 47.125 51.421875 43.28125 58.90625 
Q 39.453125 66.40625 31.78125 66.40625 
z
M 31.78125 74.21875 
Q 44.046875 74.21875 50.515625 64.515625 
Q 56.984375 54.828125 56.984375 36.375 
Q 56.984375 17.96875 50.515625 8.265625 
Q 44.046875 -1.421875 31.78125 -1.421875 
Q 19.53125 -1.421875 13.0625 8.265625 
Q 6.59375 17.96875 6.59375 36.375 
Q 6.59375 54.828125 13.0625 64.515625 
Q 19.53125 74.21875 31.78125 74.21875 
z
" id="DejaVuSans-30"/>
      </defs>
      <g transform="translate(63 300.47254)scale(0.2 -0.2)">
       <use xlink:href="#DejaVuSans-30"/>
      </g>
     </g>
    </g>
    <g id="xtick_2">
     <g id="line2d_33">
      <path clip-path="url(#p7846e14e3c)" d="M 280.660641 278.275665 
L 280.660641 12.163665 
" style="fill:none;stroke:#b0b0b0;stroke-linecap:square;stroke-width:0.8;"/>
     </g>
     <g id="line2d_34">
      <g>
       <use style="stroke:#000000;stroke-width:0.8;" x="280.660641" xlink:href="#m5369284f8d" y="278.275665"/>
      </g>
     </g>
     <g id="text_2">
      <!-- 2 -->
      <defs>
       <path d="M 19.1875 8.296875 
L 53.609375 8.296875 
L 53.609375 0 
L 7.328125 0 
L 7.328125 8.296875 
Q 12.9375 14.109375 22.625 23.890625 
Q 32.328125 33.6875 34.8125 36.53125 
Q 39.546875 41.84375 41.421875 45.53125 
Q 43.3125 49.21875 43.3125 52.78125 
Q 43.3125 58.59375 39.234375 62.25 
Q 35.15625 65.921875 28.609375 65.921875 
Q 23.96875 65.921875 18.8125 64.3125 
Q 13.671875 62.703125 7.8125 59.421875 
L 7.8125 69.390625 
Q 13.765625 71.78125 18.9375 73 
Q 24.125 74.21875 28.421875 74.21875 
Q 39.75 74.21875 46.484375 68.546875 
Q 53.21875 62.890625 53.21875 53.421875 
Q 53.21875 48.921875 51.53125 44.890625 
Q 49.859375 40.875 45.40625 35.40625 
Q 44.1875 33.984375 37.640625 27.21875 
Q 31.109375 20.453125 19.1875 8.296875 
z
" id="DejaVuSans-32"/>
      </defs>
      <g transform="translate(274.298141 300.47254)scale(0.2 -0.2)">
       <use xlink:href="#DejaVuSans-32"/>
      </g>
     </g>
    </g>
    <g id="xtick_3">
     <g id="line2d_35">
      <defs>
       <path d="M 0 0 
L 0 2 
" id="m3fe408356a" style="stroke:#000000;stroke-width:0.6;"/>
      </defs>
      <g>
       <use style="stroke:#000000;stroke-width:0.6;" x="101.166039" xlink:href="#m3fe408356a" y="278.275665"/>
      </g>
     </g>
    </g>
    <g id="xtick_4">
     <g id="line2d_36">
      <g>
       <use style="stroke:#000000;stroke-width:0.6;" x="119.769917" xlink:href="#m3fe408356a" y="278.275665"/>
      </g>
     </g>
    </g>
    <g id="xtick_5">
     <g id="line2d_37">
      <g>
       <use style="stroke:#000000;stroke-width:0.6;" x="132.969579" xlink:href="#m3fe408356a" y="278.275665"/>
      </g>
     </g>
    </g>
    <g id="xtick_6">
     <g id="line2d_38">
      <g>
       <use style="stroke:#000000;stroke-width:0.6;" x="143.208031" xlink:href="#m3fe408356a" y="278.275665"/>
      </g>
     </g>
    </g>
    <g id="xtick_7">
     <g id="line2d_39">
      <g>
       <use style="stroke:#000000;stroke-width:0.6;" x="151.573456" xlink:href="#m3fe408356a" y="278.275665"/>
      </g>
     </g>
    </g>
    <g id="xtick_8">
     <g id="line2d_40">
      <g>
       <use style="stroke:#000000;stroke-width:0.6;" x="158.646323" xlink:href="#m3fe408356a" y="278.275665"/>
      </g>
     </g>
    </g>
    <g id="xtick_9">
     <g id="line2d_41">
      <g>
       <use style="stroke:#000000;stroke-width:0.6;" x="164.773118" xlink:href="#m3fe408356a" y="278.275665"/>
      </g>
     </g>
    </g>
    <g id="xtick_10">
     <g id="line2d_42">
      <g>
       <use style="stroke:#000000;stroke-width:0.6;" x="170.177334" xlink:href="#m3fe408356a" y="278.275665"/>
      </g>
     </g>
    </g>
    <g id="xtick_11">
     <g id="line2d_43">
      <g>
       <use style="stroke:#000000;stroke-width:0.6;" x="206.81511" xlink:href="#m3fe408356a" y="278.275665"/>
      </g>
     </g>
    </g>
    <g id="xtick_12">
     <g id="line2d_44">
      <g>
       <use style="stroke:#000000;stroke-width:0.6;" x="225.418988" xlink:href="#m3fe408356a" y="278.275665"/>
      </g>
     </g>
    </g>
    <g id="xtick_13">
     <g id="line2d_45">
      <g>
       <use style="stroke:#000000;stroke-width:0.6;" x="238.618649" xlink:href="#m3fe408356a" y="278.275665"/>
      </g>
     </g>
    </g>
    <g id="xtick_14">
     <g id="line2d_46">
      <g>
       <use style="stroke:#000000;stroke-width:0.6;" x="248.857102" xlink:href="#m3fe408356a" y="278.275665"/>
      </g>
     </g>
    </g>
    <g id="xtick_15">
     <g id="line2d_47">
      <g>
       <use style="stroke:#000000;stroke-width:0.6;" x="257.222527" xlink:href="#m3fe408356a" y="278.275665"/>
      </g>
     </g>
    </g>
    <g id="xtick_16">
     <g id="line2d_48">
      <g>
       <use style="stroke:#000000;stroke-width:0.6;" x="264.295393" xlink:href="#m3fe408356a" y="278.275665"/>
      </g>
     </g>
    </g>
    <g id="xtick_17">
     <g id="line2d_49">
      <g>
       <use style="stroke:#000000;stroke-width:0.6;" x="270.422189" xlink:href="#m3fe408356a" y="278.275665"/>
      </g>
     </g>
    </g>
    <g id="xtick_18">
     <g id="line2d_50">
      <g>
       <use style="stroke:#000000;stroke-width:0.6;" x="275.826405" xlink:href="#m3fe408356a" y="278.275665"/>
      </g>
     </g>
    </g>
    <g id="xtick_19">
     <g id="line2d_51">
      <g>
       <use style="stroke:#000000;stroke-width:0.6;" x="312.464181" xlink:href="#m3fe408356a" y="278.275665"/>
      </g>
     </g>
    </g>
    <g id="xtick_20">
     <g id="line2d_52">
      <g>
       <use style="stroke:#000000;stroke-width:0.6;" x="331.068059" xlink:href="#m3fe408356a" y="278.275665"/>
      </g>
     </g>
    </g>
    <g id="xtick_21">
     <g id="line2d_53">
      <g>
       <use style="stroke:#000000;stroke-width:0.6;" x="344.26772" xlink:href="#m3fe408356a" y="278.275665"/>
      </g>
     </g>
    </g>
    <g id="xtick_22">
     <g id="line2d_54">
      <g>
       <use style="stroke:#000000;stroke-width:0.6;" x="354.506173" xlink:href="#m3fe408356a" y="278.275665"/>
      </g>
     </g>
    </g>
    <g id="xtick_23">
     <g id="line2d_55">
      <g>
       <use style="stroke:#000000;stroke-width:0.6;" x="362.871598" xlink:href="#m3fe408356a" y="278.275665"/>
      </g>
     </g>
    </g>
    <g id="xtick_24">
     <g id="line2d_56">
      <g>
       <use style="stroke:#000000;stroke-width:0.6;" x="369.944464" xlink:href="#m3fe408356a" y="278.275665"/>
      </g>
     </g>
    </g>
    <g id="xtick_25">
     <g id="line2d_57">
      <g>
       <use style="stroke:#000000;stroke-width:0.6;" x="376.071259" xlink:href="#m3fe408356a" y="278.275665"/>
      </g>
     </g>
    </g>
    <g id="xtick_26">
     <g id="line2d_58">
      <g>
       <use style="stroke:#000000;stroke-width:0.6;" x="381.475476" xlink:href="#m3fe408356a" y="278.275665"/>
      </g>
     </g>
    </g>
    <g id="xtick_27">
     <g id="line2d_59">
      <g>
       <use style="stroke:#000000;stroke-width:0.6;" x="418.113252" xlink:href="#m3fe408356a" y="278.275665"/>
      </g>
     </g>
    </g>
    <g id="text_3">
     <!-- log10 of FEvals / DIM -->
     <defs>
      <path d="M 9.421875 75.984375 
L 18.40625 75.984375 
L 18.40625 0 
L 9.421875 0 
z
" id="DejaVuSans-6c"/>
      <path d="M 30.609375 48.390625 
Q 23.390625 48.390625 19.1875 42.75 
Q 14.984375 37.109375 14.984375 27.296875 
Q 14.984375 17.484375 19.15625 11.84375 
Q 23.34375 6.203125 30.609375 6.203125 
Q 37.796875 6.203125 41.984375 11.859375 
Q 46.1875 17.53125 46.1875 27.296875 
Q 46.1875 37.015625 41.984375 42.703125 
Q 37.796875 48.390625 30.609375 48.390625 
z
M 30.609375 56 
Q 42.328125 56 49.015625 48.375 
Q 55.71875 40.765625 55.71875 27.296875 
Q 55.71875 13.875 49.015625 6.21875 
Q 42.328125 -1.421875 30.609375 -1.421875 
Q 18.84375 -1.421875 12.171875 6.21875 
Q 5.515625 13.875 5.515625 27.296875 
Q 5.515625 40.765625 12.171875 48.375 
Q 18.84375 56 30.609375 56 
z
" id="DejaVuSans-6f"/>
      <path d="M 45.40625 27.984375 
Q 45.40625 37.75 41.375 43.109375 
Q 37.359375 48.484375 30.078125 48.484375 
Q 22.859375 48.484375 18.828125 43.109375 
Q 14.796875 37.75 14.796875 27.984375 
Q 14.796875 18.265625 18.828125 12.890625 
Q 22.859375 7.515625 30.078125 7.515625 
Q 37.359375 7.515625 41.375 12.890625 
Q 45.40625 18.265625 45.40625 27.984375 
z
M 54.390625 6.78125 
Q 54.390625 -7.171875 48.1875 -13.984375 
Q 42 -20.796875 29.203125 -20.796875 
Q 24.46875 -20.796875 20.265625 -20.09375 
Q 16.0625 -19.390625 12.109375 -17.921875 
L 12.109375 -9.1875 
Q 16.0625 -11.328125 19.921875 -12.34375 
Q 23.78125 -13.375 27.78125 -13.375 
Q 36.625 -13.375 41.015625 -8.765625 
Q 45.40625 -4.15625 45.40625 5.171875 
L 45.40625 9.625 
Q 42.625 4.78125 38.28125 2.390625 
Q 33.9375 0 27.875 0 
Q 17.828125 0 11.671875 7.65625 
Q 5.515625 15.328125 5.515625 27.984375 
Q 5.515625 40.671875 11.671875 48.328125 
Q 17.828125 56 27.875 56 
Q 33.9375 56 38.28125 53.609375 
Q 42.625 51.21875 45.40625 46.390625 
L 45.40625 54.6875 
L 54.390625 54.6875 
z
" id="DejaVuSans-67"/>
      <path d="M 12.40625 8.296875 
L 28.515625 8.296875 
L 28.515625 63.921875 
L 10.984375 60.40625 
L 10.984375 69.390625 
L 28.421875 72.90625 
L 38.28125 72.90625 
L 38.28125 8.296875 
L 54.390625 8.296875 
L 54.390625 0 
L 12.40625 0 
z
" id="DejaVuSans-31"/>
      <path id="DejaVuSans-20"/>
      <path d="M 37.109375 75.984375 
L 37.109375 68.5 
L 28.515625 68.5 
Q 23.6875 68.5 21.796875 66.546875 
Q 19.921875 64.59375 19.921875 59.515625 
L 19.921875 54.6875 
L 34.71875 54.6875 
L 34.71875 47.703125 
L 19.921875 47.703125 
L 19.921875 0 
L 10.890625 0 
L 10.890625 47.703125 
L 2.296875 47.703125 
L 2.296875 54.6875 
L 10.890625 54.6875 
L 10.890625 58.5 
Q 10.890625 67.625 15.140625 71.796875 
Q 19.390625 75.984375 28.609375 75.984375 
z
" id="DejaVuSans-66"/>
      <path d="M 9.8125 72.90625 
L 51.703125 72.90625 
L 51.703125 64.59375 
L 19.671875 64.59375 
L 19.671875 43.109375 
L 48.578125 43.109375 
L 48.578125 34.8125 
L 19.671875 34.8125 
L 19.671875 0 
L 9.8125 0 
z
" id="DejaVuSans-46"/>
      <path d="M 9.8125 72.90625 
L 55.90625 72.90625 
L 55.90625 64.59375 
L 19.671875 64.59375 
L 19.671875 43.015625 
L 54.390625 43.015625 
L 54.390625 34.71875 
L 19.671875 34.71875 
L 19.671875 8.296875 
L 56.78125 8.296875 
L 56.78125 0 
L 9.8125 0 
z
" id="DejaVuSans-45"/>
      <path d="M 2.984375 54.6875 
L 12.5 54.6875 
L 29.59375 8.796875 
L 46.6875 54.6875 
L 56.203125 54.6875 
L 35.6875 0 
L 23.484375 0 
z
" id="DejaVuSans-76"/>
      <path d="M 34.28125 27.484375 
Q 23.390625 27.484375 19.1875 25 
Q 14.984375 22.515625 14.984375 16.5 
Q 14.984375 11.71875 18.140625 8.90625 
Q 21.296875 6.109375 26.703125 6.109375 
Q 34.1875 6.109375 38.703125 11.40625 
Q 43.21875 16.703125 43.21875 25.484375 
L 43.21875 27.484375 
z
M 52.203125 31.203125 
L 52.203125 0 
L 43.21875 0 
L 43.21875 8.296875 
Q 40.140625 3.328125 35.546875 0.953125 
Q 30.953125 -1.421875 24.3125 -1.421875 
Q 15.921875 -1.421875 10.953125 3.296875 
Q 6 8.015625 6 15.921875 
Q 6 25.140625 12.171875 29.828125 
Q 18.359375 34.515625 30.609375 34.515625 
L 43.21875 34.515625 
L 43.21875 35.40625 
Q 43.21875 41.609375 39.140625 45 
Q 35.0625 48.390625 27.6875 48.390625 
Q 23 48.390625 18.546875 47.265625 
Q 14.109375 46.140625 10.015625 43.890625 
L 10.015625 52.203125 
Q 14.9375 54.109375 19.578125 55.046875 
Q 24.21875 56 28.609375 56 
Q 40.484375 56 46.34375 49.84375 
Q 52.203125 43.703125 52.203125 31.203125 
z
" id="DejaVuSans-61"/>
      <path d="M 44.28125 53.078125 
L 44.28125 44.578125 
Q 40.484375 46.53125 36.375 47.5 
Q 32.28125 48.484375 27.875 48.484375 
Q 21.1875 48.484375 17.84375 46.4375 
Q 14.5 44.390625 14.5 40.28125 
Q 14.5 37.15625 16.890625 35.375 
Q 19.28125 33.59375 26.515625 31.984375 
L 29.59375 31.296875 
Q 39.15625 29.25 43.1875 25.515625 
Q 47.21875 21.78125 47.21875 15.09375 
Q 47.21875 7.46875 41.1875 3.015625 
Q 35.15625 -1.421875 24.609375 -1.421875 
Q 20.21875 -1.421875 15.453125 -0.5625 
Q 10.6875 0.296875 5.421875 2 
L 5.421875 11.28125 
Q 10.40625 8.6875 15.234375 7.390625 
Q 20.0625 6.109375 24.8125 6.109375 
Q 31.15625 6.109375 34.5625 8.28125 
Q 37.984375 10.453125 37.984375 14.40625 
Q 37.984375 18.0625 35.515625 20.015625 
Q 33.0625 21.96875 24.703125 23.78125 
L 21.578125 24.515625 
Q 13.234375 26.265625 9.515625 29.90625 
Q 5.8125 33.546875 5.8125 39.890625 
Q 5.8125 47.609375 11.28125 51.796875 
Q 16.75 56 26.8125 56 
Q 31.78125 56 36.171875 55.265625 
Q 40.578125 54.546875 44.28125 53.078125 
z
" id="DejaVuSans-73"/>
      <path d="M 25.390625 72.90625 
L 33.6875 72.90625 
L 8.296875 -9.28125 
L 0 -9.28125 
z
" id="DejaVuSans-2f"/>
      <path d="M 19.671875 64.796875 
L 19.671875 8.109375 
L 31.59375 8.109375 
Q 46.6875 8.109375 53.6875 14.9375 
Q 60.6875 21.78125 60.6875 36.53125 
Q 60.6875 51.171875 53.6875 57.984375 
Q 46.6875 64.796875 31.59375 64.796875 
z
M 9.8125 72.90625 
L 30.078125 72.90625 
Q 51.265625 72.90625 61.171875 64.09375 
Q 71.09375 55.28125 71.09375 36.53125 
Q 71.09375 17.671875 61.125 8.828125 
Q 51.171875 0 30.078125 0 
L 9.8125 0 
z
" id="DejaVuSans-44"/>
      <path d="M 9.8125 72.90625 
L 19.671875 72.90625 
L 19.671875 0 
L 9.8125 0 
z
" id="DejaVuSans-49"/>
      <path d="M 9.8125 72.90625 
L 24.515625 72.90625 
L 43.109375 23.296875 
L 61.8125 72.90625 
L 76.515625 72.90625 
L 76.515625 0 
L 66.890625 0 
L 66.890625 64.015625 
L 48.09375 14.015625 
L 38.1875 14.015625 
L 19.390625 64.015625 
L 19.390625 0 
L 9.8125 0 
z
" id="DejaVuSans-4d"/>
     </defs>
     <g transform="translate(142.849063 323.82879)scale(0.2 -0.2)">
      <use xlink:href="#DejaVuSans-6c"/>
      <use x="27.783203" xlink:href="#DejaVuSans-6f"/>
      <use x="88.964844" xlink:href="#DejaVuSans-67"/>
      <use x="152.441406" xlink:href="#DejaVuSans-31"/>
      <use x="216.064453" xlink:href="#DejaVuSans-30"/>
      <use x="279.6875" xlink:href="#DejaVuSans-20"/>
      <use x="311.474609" xlink:href="#DejaVuSans-6f"/>
      <use x="372.65625" xlink:href="#DejaVuSans-66"/>
      <use x="407.861328" xlink:href="#DejaVuSans-20"/>
      <use x="439.648438" xlink:href="#DejaVuSans-46"/>
      <use x="497.167969" xlink:href="#DejaVuSans-45"/>
      <use x="560.351562" xlink:href="#DejaVuSans-76"/>
      <use x="619.53125" xlink:href="#DejaVuSans-61"/>
      <use x="680.810547" xlink:href="#DejaVuSans-6c"/>
      <use x="708.59375" xlink:href="#DejaVuSans-73"/>
      <use x="760.693359" xlink:href="#DejaVuSans-20"/>
      <use x="792.480469" xlink:href="#DejaVuSans-2f"/>
      <use x="826.171875" xlink:href="#DejaVuSans-20"/>
      <use x="857.958984" xlink:href="#DejaVuSans-44"/>
      <use x="934.960938" xlink:href="#DejaVuSans-49"/>
      <use x="964.453125" xlink:href="#DejaVuSans-4d"/>
     </g>
    </g>
   </g>
   <g id="matplotlib.axis_2">
    <g id="ytick_1">
     <g id="line2d_60">
      <path clip-path="url(#p7846e14e3c)" d="M 69.3625 278.275665 
L 426.4825 278.275665 
" style="fill:none;stroke:#b0b0b0;stroke-linecap:square;stroke-width:0.8;"/>
     </g>
     <g id="line2d_61">
      <defs>
       <path d="M 0 0 
L -3.5 0 
" id="m04baceda0e" style="stroke:#000000;stroke-width:0.8;"/>
      </defs>
      <g>
       <use style="stroke:#000000;stroke-width:0.8;" x="69.3625" xlink:href="#m04baceda0e" y="278.275665"/>
      </g>
     </g>
     <g id="text_4">
      <!-- 0.0 -->
      <defs>
       <path d="M 10.6875 12.40625 
L 21 12.40625 
L 21 0 
L 10.6875 0 
z
" id="DejaVuSans-2e"/>
      </defs>
      <g transform="translate(30.55625 285.874103)scale(0.2 -0.2)">
       <use xlink:href="#DejaVuSans-30"/>
       <use x="63.623047" xlink:href="#DejaVuSans-2e"/>
       <use x="95.410156" xlink:href="#DejaVuSans-30"/>
      </g>
     </g>
    </g>
    <g id="ytick_2">
     <g id="line2d_62">
      <path clip-path="url(#p7846e14e3c)" d="M 69.3625 225.58022 
L 426.4825 225.58022 
" style="fill:none;stroke:#b0b0b0;stroke-linecap:square;stroke-width:0.8;"/>
     </g>
     <g id="line2d_63">
      <g>
       <use style="stroke:#000000;stroke-width:0.8;" x="69.3625" xlink:href="#m04baceda0e" y="225.58022"/>
      </g>
     </g>
     <g id="text_5">
      <!-- 0.2 -->
      <g transform="translate(30.55625 233.178657)scale(0.2 -0.2)">
       <use xlink:href="#DejaVuSans-30"/>
       <use x="63.623047" xlink:href="#DejaVuSans-2e"/>
       <use x="95.410156" xlink:href="#DejaVuSans-32"/>
      </g>
     </g>
    </g>
    <g id="ytick_3">
     <g id="line2d_64">
      <path clip-path="url(#p7846e14e3c)" d="M 69.3625 172.884774 
L 426.4825 172.884774 
" style="fill:none;stroke:#b0b0b0;stroke-linecap:square;stroke-width:0.8;"/>
     </g>
     <g id="line2d_65">
      <g>
       <use style="stroke:#000000;stroke-width:0.8;" x="69.3625" xlink:href="#m04baceda0e" y="172.884774"/>
      </g>
     </g>
     <g id="text_6">
      <!-- 0.4 -->
      <defs>
       <path d="M 37.796875 64.3125 
L 12.890625 25.390625 
L 37.796875 25.390625 
z
M 35.203125 72.90625 
L 47.609375 72.90625 
L 47.609375 25.390625 
L 58.015625 25.390625 
L 58.015625 17.1875 
L 47.609375 17.1875 
L 47.609375 0 
L 37.796875 0 
L 37.796875 17.1875 
L 4.890625 17.1875 
L 4.890625 26.703125 
z
" id="DejaVuSans-34"/>
      </defs>
      <g transform="translate(30.55625 180.483212)scale(0.2 -0.2)">
       <use xlink:href="#DejaVuSans-30"/>
       <use x="63.623047" xlink:href="#DejaVuSans-2e"/>
       <use x="95.410156" xlink:href="#DejaVuSans-34"/>
      </g>
     </g>
    </g>
    <g id="ytick_4">
     <g id="line2d_66">
      <path clip-path="url(#p7846e14e3c)" d="M 69.3625 120.189329 
L 426.4825 120.189329 
" style="fill:none;stroke:#b0b0b0;stroke-linecap:square;stroke-width:0.8;"/>
     </g>
     <g id="line2d_67">
      <g>
       <use style="stroke:#000000;stroke-width:0.8;" x="69.3625" xlink:href="#m04baceda0e" y="120.189329"/>
      </g>
     </g>
     <g id="text_7">
      <!-- 0.6 -->
      <defs>
       <path d="M 33.015625 40.375 
Q 26.375 40.375 22.484375 35.828125 
Q 18.609375 31.296875 18.609375 23.390625 
Q 18.609375 15.53125 22.484375 10.953125 
Q 26.375 6.390625 33.015625 6.390625 
Q 39.65625 6.390625 43.53125 10.953125 
Q 47.40625 15.53125 47.40625 23.390625 
Q 47.40625 31.296875 43.53125 35.828125 
Q 39.65625 40.375 33.015625 40.375 
z
M 52.59375 71.296875 
L 52.59375 62.3125 
Q 48.875 64.0625 45.09375 64.984375 
Q 41.3125 65.921875 37.59375 65.921875 
Q 27.828125 65.921875 22.671875 59.328125 
Q 17.53125 52.734375 16.796875 39.40625 
Q 19.671875 43.65625 24.015625 45.921875 
Q 28.375 48.1875 33.59375 48.1875 
Q 44.578125 48.1875 50.953125 41.515625 
Q 57.328125 34.859375 57.328125 23.390625 
Q 57.328125 12.15625 50.6875 5.359375 
Q 44.046875 -1.421875 33.015625 -1.421875 
Q 20.359375 -1.421875 13.671875 8.265625 
Q 6.984375 17.96875 6.984375 36.375 
Q 6.984375 53.65625 15.1875 63.9375 
Q 23.390625 74.21875 37.203125 74.21875 
Q 40.921875 74.21875 44.703125 73.484375 
Q 48.484375 72.75 52.59375 71.296875 
z
" id="DejaVuSans-36"/>
      </defs>
      <g transform="translate(30.55625 127.787766)scale(0.2 -0.2)">
       <use xlink:href="#DejaVuSans-30"/>
       <use x="63.623047" xlink:href="#DejaVuSans-2e"/>
       <use x="95.410156" xlink:href="#DejaVuSans-36"/>
      </g>
     </g>
    </g>
    <g id="ytick_5">
     <g id="line2d_68">
      <path clip-path="url(#p7846e14e3c)" d="M 69.3625 67.493883 
L 426.4825 67.493883 
" style="fill:none;stroke:#b0b0b0;stroke-linecap:square;stroke-width:0.8;"/>
     </g>
     <g id="line2d_69">
      <g>
       <use style="stroke:#000000;stroke-width:0.8;" x="69.3625" xlink:href="#m04baceda0e" y="67.493883"/>
      </g>
     </g>
     <g id="text_8">
      <!-- 0.8 -->
      <defs>
       <path d="M 31.78125 34.625 
Q 24.75 34.625 20.71875 30.859375 
Q 16.703125 27.09375 16.703125 20.515625 
Q 16.703125 13.921875 20.71875 10.15625 
Q 24.75 6.390625 31.78125 6.390625 
Q 38.8125 6.390625 42.859375 10.171875 
Q 46.921875 13.96875 46.921875 20.515625 
Q 46.921875 27.09375 42.890625 30.859375 
Q 38.875 34.625 31.78125 34.625 
z
M 21.921875 38.8125 
Q 15.578125 40.375 12.03125 44.71875 
Q 8.5 49.078125 8.5 55.328125 
Q 8.5 64.0625 14.71875 69.140625 
Q 20.953125 74.21875 31.78125 74.21875 
Q 42.671875 74.21875 48.875 69.140625 
Q 55.078125 64.0625 55.078125 55.328125 
Q 55.078125 49.078125 51.53125 44.71875 
Q 48 40.375 41.703125 38.8125 
Q 48.828125 37.15625 52.796875 32.3125 
Q 56.78125 27.484375 56.78125 20.515625 
Q 56.78125 9.90625 50.3125 4.234375 
Q 43.84375 -1.421875 31.78125 -1.421875 
Q 19.734375 -1.421875 13.25 4.234375 
Q 6.78125 9.90625 6.78125 20.515625 
Q 6.78125 27.484375 10.78125 32.3125 
Q 14.796875 37.15625 21.921875 38.8125 
z
M 18.3125 54.390625 
Q 18.3125 48.734375 21.84375 45.5625 
Q 25.390625 42.390625 31.78125 42.390625 
Q 38.140625 42.390625 41.71875 45.5625 
Q 45.3125 48.734375 45.3125 54.390625 
Q 45.3125 60.0625 41.71875 63.234375 
Q 38.140625 66.40625 31.78125 66.40625 
Q 25.390625 66.40625 21.84375 63.234375 
Q 18.3125 60.0625 18.3125 54.390625 
z
" id="DejaVuSans-38"/>
      </defs>
      <g transform="translate(30.55625 75.092321)scale(0.2 -0.2)">
       <use xlink:href="#DejaVuSans-30"/>
       <use x="63.623047" xlink:href="#DejaVuSans-2e"/>
       <use x="95.410156" xlink:href="#DejaVuSans-38"/>
      </g>
     </g>
    </g>
    <g id="ytick_6">
     <g id="line2d_70">
      <path clip-path="url(#p7846e14e3c)" d="M 69.3625 14.798437 
L 426.4825 14.798437 
" style="fill:none;stroke:#b0b0b0;stroke-linecap:square;stroke-width:0.8;"/>
     </g>
     <g id="line2d_71">
      <g>
       <use style="stroke:#000000;stroke-width:0.8;" x="69.3625" xlink:href="#m04baceda0e" y="14.798437"/>
      </g>
     </g>
     <g id="text_9">
      <!-- 1.0 -->
      <g transform="translate(30.55625 22.396875)scale(0.2 -0.2)">
       <use xlink:href="#DejaVuSans-31"/>
       <use x="63.623047" xlink:href="#DejaVuSans-2e"/>
       <use x="95.410156" xlink:href="#DejaVuSans-30"/>
      </g>
     </g>
    </g>
    <g id="text_10">
     <!-- proportion of trials -->
     <defs>
      <path d="M 18.109375 8.203125 
L 18.109375 -20.796875 
L 9.078125 -20.796875 
L 9.078125 54.6875 
L 18.109375 54.6875 
L 18.109375 46.390625 
Q 20.953125 51.265625 25.265625 53.625 
Q 29.59375 56 35.59375 56 
Q 45.5625 56 51.78125 48.09375 
Q 58.015625 40.1875 58.015625 27.296875 
Q 58.015625 14.40625 51.78125 6.484375 
Q 45.5625 -1.421875 35.59375 -1.421875 
Q 29.59375 -1.421875 25.265625 0.953125 
Q 20.953125 3.328125 18.109375 8.203125 
z
M 48.6875 27.296875 
Q 48.6875 37.203125 44.609375 42.84375 
Q 40.53125 48.484375 33.40625 48.484375 
Q 26.265625 48.484375 22.1875 42.84375 
Q 18.109375 37.203125 18.109375 27.296875 
Q 18.109375 17.390625 22.1875 11.75 
Q 26.265625 6.109375 33.40625 6.109375 
Q 40.53125 6.109375 44.609375 11.75 
Q 48.6875 17.390625 48.6875 27.296875 
z
" id="DejaVuSans-70"/>
      <path d="M 41.109375 46.296875 
Q 39.59375 47.171875 37.8125 47.578125 
Q 36.03125 48 33.890625 48 
Q 26.265625 48 22.1875 43.046875 
Q 18.109375 38.09375 18.109375 28.8125 
L 18.109375 0 
L 9.078125 0 
L 9.078125 54.6875 
L 18.109375 54.6875 
L 18.109375 46.1875 
Q 20.953125 51.171875 25.484375 53.578125 
Q 30.03125 56 36.53125 56 
Q 37.453125 56 38.578125 55.875 
Q 39.703125 55.765625 41.0625 55.515625 
z
" id="DejaVuSans-72"/>
      <path d="M 18.3125 70.21875 
L 18.3125 54.6875 
L 36.8125 54.6875 
L 36.8125 47.703125 
L 18.3125 47.703125 
L 18.3125 18.015625 
Q 18.3125 11.328125 20.140625 9.421875 
Q 21.96875 7.515625 27.59375 7.515625 
L 36.8125 7.515625 
L 36.8125 0 
L 27.59375 0 
Q 17.1875 0 13.234375 3.875 
Q 9.28125 7.765625 9.28125 18.015625 
L 9.28125 47.703125 
L 2.6875 47.703125 
L 2.6875 54.6875 
L 9.28125 54.6875 
L 9.28125 70.21875 
z
" id="DejaVuSans-74"/>
      <path d="M 9.421875 54.6875 
L 18.40625 54.6875 
L 18.40625 0 
L 9.421875 0 
z
M 9.421875 75.984375 
L 18.40625 75.984375 
L 18.40625 64.59375 
L 9.421875 64.59375 
z
" id="DejaVuSans-69"/>
      <path d="M 54.890625 33.015625 
L 54.890625 0 
L 45.90625 0 
L 45.90625 32.71875 
Q 45.90625 40.484375 42.875 44.328125 
Q 39.84375 48.1875 33.796875 48.1875 
Q 26.515625 48.1875 22.3125 43.546875 
Q 18.109375 38.921875 18.109375 30.90625 
L 18.109375 0 
L 9.078125 0 
L 9.078125 54.6875 
L 18.109375 54.6875 
L 18.109375 46.1875 
Q 21.34375 51.125 25.703125 53.5625 
Q 30.078125 56 35.796875 56 
Q 45.21875 56 50.046875 50.171875 
Q 54.890625 44.34375 54.890625 33.015625 
z
" id="DejaVuSans-6e"/>
     </defs>
     <g transform="translate(22.396875 238.44779)rotate(-90)scale(0.2 -0.2)">
      <use xlink:href="#DejaVuSans-70"/>
      <use x="63.476562" xlink:href="#DejaVuSans-72"/>
      <use x="104.558594" xlink:href="#DejaVuSans-6f"/>
      <use x="165.740234" xlink:href="#DejaVuSans-70"/>
      <use x="229.216797" xlink:href="#DejaVuSans-6f"/>
      <use x="290.398438" xlink:href="#DejaVuSans-72"/>
      <use x="331.511719" xlink:href="#DejaVuSans-74"/>
      <use x="370.720703" xlink:href="#DejaVuSans-69"/>
      <use x="398.503906" xlink:href="#DejaVuSans-6f"/>
      <use x="459.685547" xlink:href="#DejaVuSans-6e"/>
      <use x="523.064453" xlink:href="#DejaVuSans-20"/>
      <use x="554.851562" xlink:href="#DejaVuSans-6f"/>
      <use x="616.033203" xlink:href="#DejaVuSans-66"/>
      <use x="651.238281" xlink:href="#DejaVuSans-20"/>
      <use x="683.025391" xlink:href="#DejaVuSans-74"/>
      <use x="722.234375" xlink:href="#DejaVuSans-72"/>
      <use x="763.347656" xlink:href="#DejaVuSans-69"/>
      <use x="791.130859" xlink:href="#DejaVuSans-61"/>
      <use x="852.410156" xlink:href="#DejaVuSans-6c"/>
      <use x="880.193359" xlink:href="#DejaVuSans-73"/>
     </g>
    </g>
   </g>
   <g id="line2d_72">
    <path clip-path="url(#p7846e14e3c)" d="M -1 267.736576 
L 27.320508 267.736576 
L 27.320508 264.223546 
L 45.924386 264.223546 
L 45.924386 260.710517 
L 59.124047 260.710517 
L 59.124047 257.197487 
L 59.124047 257.197487 
L 59.124047 253.684457 
L 77.727925 253.684457 
L 77.727925 250.171428 
L 105.539138 250.171428 
L 105.539138 246.658398 
L 105.539138 246.658398 
L 105.539138 243.145368 
L 119.769917 243.145368 
L 119.769917 239.632338 
L 122.731126 239.632338 
L 122.731126 236.119309 
L 135.208208 236.119309 
L 135.208208 232.606279 
L 141.335004 232.606279 
L 141.335004 229.093249 
L 143.208031 229.093249 
L 143.208031 225.58022 
L 143.208031 225.58022 
L 143.208031 222.06719 
L 143.208031 222.06719 
L 143.208031 218.55416 
L 151.573456 218.55416 
L 151.573456 215.041131 
L 151.573456 215.041131 
L 151.573456 211.528101 
L 154.534665 211.528101 
L 154.534665 208.015071 
L 155.946555 208.015071 
L 155.946555 204.502041 
L 155.946555 204.502041 
L 155.946555 200.989012 
L 155.946555 200.989012 
L 155.946555 197.475982 
L 157.316293 197.475982 
L 157.316293 193.962952 
L 158.646323 193.962952 
L 158.646323 190.449923 
L 158.646323 190.449923 
L 158.646323 186.936893 
L 158.646323 186.936893 
L 158.646323 183.423863 
L 159.938882 183.423863 
L 159.938882 179.910834 
L 161.196023 179.910834 
L 161.196023 176.397804 
L 162.419638 176.397804 
L 162.419638 172.884774 
L 162.419638 172.884774 
L 162.419638 169.371744 
L 165.906084 169.371744 
L 165.906084 165.858715 
L 169.146217 165.858715 
L 169.146217 162.345685 
L 171.185788 162.345685 
L 171.185788 158.832655 
L 175.011571 158.832655 
L 175.011571 155.319626 
L 176.811127 155.319626 
L 176.811127 151.806596 
L 177.685112 151.806596 
L 177.685112 148.293566 
L 177.685112 148.293566 
L 177.685112 144.780537 
L 184.135407 144.780537 
L 184.135407 141.267507 
L 185.615626 141.267507 
L 185.615626 137.754477 
L 194.822961 137.754477 
L 194.822961 134.241447 
L 195.999507 134.241447 
L 195.999507 130.728418 
L 201.468211 130.728418 
L 201.468211 127.215388 
L 207.271659 127.215388 
L 207.271659 123.702358 
L 209.919479 123.702358 
L 209.919479 120.189329 
L 215.561307 120.189329 
L 215.561307 116.676299 
L 215.938946 116.676299 
L 215.938946 113.163269 
L 218.49881 113.163269 
L 218.49881 109.650239 
L 221.593206 109.650239 
L 221.593206 106.13721 
L 235.288902 106.13721 
L 235.288902 102.62418 
L 238.847492 102.62418 
L 238.847492 99.11115 
L 240.857279 99.11115 
L 240.857279 95.598121 
L 284.19183 95.598121 
L 284.19183 92.085091 
L 287.549608 92.085091 
L 287.549608 88.572061 
L 300.292918 88.572061 
L 300.292918 85.059032 
L 324.853784 85.059032 
L 324.853784 81.546002 
L 334.229567 81.546002 
L 334.229567 78.032972 
L 358.712121 78.032972 
L 358.712121 74.519942 
L 358.712121 74.519942 
L 358.712121 74.519942 
L 426.4825 74.519942 
" style="fill:none;stroke:#000000;stroke-linecap:square;stroke-width:1.5;"/>
   </g>
   <g id="line2d_73"/>
   <g id="line2d_74">
    <path clip-path="url(#p7846e14e3c)" d="M 231.96446 278.275665 
L 231.96446 274.762636 
L 243.818488 274.762636 
L 243.818488 271.249606 
L 245.428576 271.249606 
L 245.428576 267.736576 
L 246.018085 267.736576 
L 246.018085 264.223546 
L 256.13924 264.223546 
L 256.13924 260.710517 
L 256.13924 260.710517 
L 256.13924 260.710517 
L 426.4825 260.710517 
" style="fill:none;stroke:#00bfbf;stroke-linecap:square;stroke-width:1.5;"/>
   </g>
   <g id="line2d_75"/>
   <g id="line2d_76">
    <path clip-path="url(#p7846e14e3c)" d="M 260.040128 278.275665 
L 260.040128 274.762636 
L 267.092441 274.762636 
L 267.092441 271.249606 
L 275.416734 271.249606 
L 275.416734 267.736576 
L 298.834269 267.736576 
L 298.834269 264.223546 
L 347.286246 264.223546 
L 347.286246 260.710517 
L 347.286246 260.710517 
L 347.286246 260.710517 
L 426.4825 260.710517 
" style="fill:none;stroke:#bf00bf;stroke-linecap:square;stroke-width:1.5;"/>
   </g>
   <g id="line2d_77"/>
   <g id="line2d_78">
    <path clip-path="url(#p7846e14e3c)" d="M 288.564929 278.275665 
L 288.564929 274.762636 
L 297.135876 274.762636 
L 297.135876 271.249606 
L 298.212541 271.249606 
L 298.212541 267.736576 
L 325.167932 267.736576 
L 325.167932 264.223546 
L 390.423467 264.223546 
L 390.423467 260.710517 
L 390.423467 260.710517 
L 390.423467 260.710517 
L 426.4825 260.710517 
" style="fill:none;stroke:#ff0000;stroke-linecap:square;stroke-width:3;"/>
   </g>
   <g id="line2d_79"/>
   <g id="line2d_80">
    <path clip-path="url(#p7846e14e3c)" d="M 426.4825 278.275665 
L 426.4825 12.163665 
" style="fill:none;stroke:#000000;stroke-linecap:square;stroke-width:1.5;"/>
   </g>
   <g id="patch_3">
    <path d="M 69.3625 278.275665 
L 69.3625 12.163665 
" style="fill:none;stroke:#000000;stroke-linecap:square;stroke-linejoin:miter;stroke-width:0.8;"/>
   </g>
   <g id="patch_4">
    <path d="M 426.4825 278.275665 
L 426.4825 12.163665 
" style="fill:none;stroke:#000000;stroke-linecap:square;stroke-linejoin:miter;stroke-width:0.8;"/>
   </g>
   <g id="patch_5">
    <path d="M 69.3625 278.275665 
L 426.4825 278.275665 
" style="fill:none;stroke:#000000;stroke-linecap:square;stroke-linejoin:miter;stroke-width:0.8;"/>
   </g>
   <g id="patch_6">
    <path d="M 69.3625 12.163665 
L 426.4825 12.163665 
" style="fill:none;stroke:#000000;stroke-linecap:square;stroke-linejoin:miter;stroke-width:0.8;"/>
   </g>
   <g id="text_11">
    <!-- {f20-f24}, 5-D -->
    <defs>
     <path d="M 51.125 -9.28125 
L 51.125 -16.3125 
L 48.09375 -16.3125 
Q 35.9375 -16.3125 31.8125 -12.6875 
Q 27.6875 -9.078125 27.6875 1.703125 
L 27.6875 13.375 
Q 27.6875 20.75 25.046875 23.578125 
Q 22.40625 26.421875 15.484375 26.421875 
L 12.5 26.421875 
L 12.5 33.40625 
L 15.484375 33.40625 
Q 22.46875 33.40625 25.078125 36.203125 
Q 27.6875 39.015625 27.6875 46.296875 
L 27.6875 58.015625 
Q 27.6875 68.796875 31.8125 72.390625 
Q 35.9375 75.984375 48.09375 75.984375 
L 51.125 75.984375 
L 51.125 69 
L 47.796875 69 
Q 40.921875 69 38.8125 66.84375 
Q 36.71875 64.703125 36.71875 57.8125 
L 36.71875 45.703125 
Q 36.71875 38.03125 34.5 34.5625 
Q 32.28125 31.109375 26.90625 29.890625 
Q 32.328125 28.5625 34.515625 25.09375 
Q 36.71875 21.625 36.71875 14.015625 
L 36.71875 1.90625 
Q 36.71875 -4.984375 38.8125 -7.125 
Q 40.921875 -9.28125 47.796875 -9.28125 
z
" id="DejaVuSans-7b"/>
     <path d="M 4.890625 31.390625 
L 31.203125 31.390625 
L 31.203125 23.390625 
L 4.890625 23.390625 
z
" id="DejaVuSans-2d"/>
     <path d="M 12.5 -9.28125 
L 15.921875 -9.28125 
Q 22.75 -9.28125 24.828125 -7.171875 
Q 26.90625 -5.078125 26.90625 1.90625 
L 26.90625 14.015625 
Q 26.90625 21.625 29.09375 25.09375 
Q 31.296875 28.5625 36.71875 29.890625 
Q 31.296875 31.109375 29.09375 34.5625 
Q 26.90625 38.03125 26.90625 45.703125 
L 26.90625 57.8125 
Q 26.90625 64.75 24.828125 66.875 
Q 22.75 69 15.921875 69 
L 12.5 69 
L 12.5 75.984375 
L 15.578125 75.984375 
Q 27.734375 75.984375 31.8125 72.390625 
Q 35.890625 68.796875 35.890625 58.015625 
L 35.890625 46.296875 
Q 35.890625 39.015625 38.515625 36.203125 
Q 41.15625 33.40625 48.09375 33.40625 
L 51.125 33.40625 
L 51.125 26.421875 
L 48.09375 26.421875 
Q 41.15625 26.421875 38.515625 23.578125 
Q 35.890625 20.75 35.890625 13.375 
L 35.890625 1.703125 
Q 35.890625 -9.078125 31.8125 -12.6875 
Q 27.734375 -16.3125 15.578125 -16.3125 
L 12.5 -16.3125 
z
" id="DejaVuSans-7d"/>
     <path d="M 11.71875 12.40625 
L 22.015625 12.40625 
L 22.015625 4 
L 14.015625 -11.625 
L 7.71875 -11.625 
L 11.71875 4 
z
" id="DejaVuSans-2c"/>
     <path d="M 10.796875 72.90625 
L 49.515625 72.90625 
L 49.515625 64.59375 
L 19.828125 64.59375 
L 19.828125 46.734375 
Q 21.96875 47.46875 24.109375 47.828125 
Q 26.265625 48.1875 28.421875 48.1875 
Q 40.625 48.1875 47.75 41.5 
Q 54.890625 34.8125 54.890625 23.390625 
Q 54.890625 11.625 47.5625 5.09375 
Q 40.234375 -1.421875 26.90625 -1.421875 
Q 22.3125 -1.421875 17.546875 -0.640625 
Q 12.796875 0.140625 7.71875 1.703125 
L 7.71875 11.625 
Q 12.109375 9.234375 16.796875 8.0625 
Q 21.484375 6.890625 26.703125 6.890625 
Q 35.15625 6.890625 40.078125 11.328125 
Q 45.015625 15.765625 45.015625 23.390625 
Q 45.015625 31 40.078125 35.4375 
Q 35.15625 39.890625 26.703125 39.890625 
Q 22.75 39.890625 18.8125 39.015625 
Q 14.890625 38.140625 10.796875 36.28125 
z
" id="DejaVuSans-35"/>
    </defs>
    <g transform="translate(175.0725 32.68278)scale(0.2 -0.2)">
     <use xlink:href="#DejaVuSans-7b"/>
     <use x="63.623047" xlink:href="#DejaVuSans-66"/>
     <use x="98.828125" xlink:href="#DejaVuSans-32"/>
     <use x="162.451172" xlink:href="#DejaVuSans-30"/>
     <use x="226.074219" xlink:href="#DejaVuSans-2d"/>
     <use x="262.158203" xlink:href="#DejaVuSans-66"/>
     <use x="297.363281" xlink:href="#DejaVuSans-32"/>
     <use x="360.986328" xlink:href="#DejaVuSans-34"/>
     <use x="424.609375" xlink:href="#DejaVuSans-7d"/>
     <use x="488.232422" xlink:href="#DejaVuSans-2c"/>
     <use x="520.019531" xlink:href="#DejaVuSans-20"/>
     <use x="551.806641" xlink:href="#DejaVuSans-35"/>
     <use x="615.429688" xlink:href="#DejaVuSans-2d"/>
     <use x="651.513672" xlink:href="#DejaVuSans-44"/>
    </g>
   </g>
   <g id="text_12">
    <!-- absolute targets -->
    <defs>
     <path d="M 48.6875 27.296875 
Q 48.6875 37.203125 44.609375 42.84375 
Q 40.53125 48.484375 33.40625 48.484375 
Q 26.265625 48.484375 22.1875 42.84375 
Q 18.109375 37.203125 18.109375 27.296875 
Q 18.109375 17.390625 22.1875 11.75 
Q 26.265625 6.109375 33.40625 6.109375 
Q 40.53125 6.109375 44.609375 11.75 
Q 48.6875 17.390625 48.6875 27.296875 
z
M 18.109375 46.390625 
Q 20.953125 51.265625 25.265625 53.625 
Q 29.59375 56 35.59375 56 
Q 45.5625 56 51.78125 48.09375 
Q 58.015625 40.1875 58.015625 27.296875 
Q 58.015625 14.40625 51.78125 6.484375 
Q 45.5625 -1.421875 35.59375 -1.421875 
Q 29.59375 -1.421875 25.265625 0.953125 
Q 20.953125 3.328125 18.109375 8.203125 
L 18.109375 0 
L 9.078125 0 
L 9.078125 75.984375 
L 18.109375 75.984375 
z
" id="DejaVuSans-62"/>
     <path d="M 8.5 21.578125 
L 8.5 54.6875 
L 17.484375 54.6875 
L 17.484375 21.921875 
Q 17.484375 14.15625 20.5 10.265625 
Q 23.53125 6.390625 29.59375 6.390625 
Q 36.859375 6.390625 41.078125 11.03125 
Q 45.3125 15.671875 45.3125 23.6875 
L 45.3125 54.6875 
L 54.296875 54.6875 
L 54.296875 0 
L 45.3125 0 
L 45.3125 8.40625 
Q 42.046875 3.421875 37.71875 1 
Q 33.40625 -1.421875 27.6875 -1.421875 
Q 18.265625 -1.421875 13.375 4.4375 
Q 8.5 10.296875 8.5 21.578125 
z
M 31.109375 56 
z
" id="DejaVuSans-75"/>
     <path d="M 56.203125 29.59375 
L 56.203125 25.203125 
L 14.890625 25.203125 
Q 15.484375 15.921875 20.484375 11.0625 
Q 25.484375 6.203125 34.421875 6.203125 
Q 39.59375 6.203125 44.453125 7.46875 
Q 49.3125 8.734375 54.109375 11.28125 
L 54.109375 2.78125 
Q 49.265625 0.734375 44.1875 -0.34375 
Q 39.109375 -1.421875 33.890625 -1.421875 
Q 20.796875 -1.421875 13.15625 6.1875 
Q 5.515625 13.8125 5.515625 26.8125 
Q 5.515625 40.234375 12.765625 48.109375 
Q 20.015625 56 32.328125 56 
Q 43.359375 56 49.78125 48.890625 
Q 56.203125 41.796875 56.203125 29.59375 
z
M 47.21875 32.234375 
Q 47.125 39.59375 43.09375 43.984375 
Q 39.0625 48.390625 32.421875 48.390625 
Q 24.90625 48.390625 20.390625 44.140625 
Q 15.875 39.890625 15.1875 32.171875 
z
" id="DejaVuSans-65"/>
    </defs>
    <g transform="translate(69.3625 289.341709)scale(0.14 -0.14)">
     <use xlink:href="#DejaVuSans-61"/>
     <use x="61.279297" xlink:href="#DejaVuSans-62"/>
     <use x="124.755859" xlink:href="#DejaVuSans-73"/>
     <use x="176.855469" xlink:href="#DejaVuSans-6f"/>
     <use x="238.037109" xlink:href="#DejaVuSans-6c"/>
     <use x="265.820312" xlink:href="#DejaVuSans-75"/>
     <use x="329.199219" xlink:href="#DejaVuSans-74"/>
     <use x="368.408203" xlink:href="#DejaVuSans-65"/>
     <use x="429.931641" xlink:href="#DejaVuSans-20"/>
     <use x="461.71875" xlink:href="#DejaVuSans-74"/>
     <use x="500.927734" xlink:href="#DejaVuSans-61"/>
     <use x="562.207031" xlink:href="#DejaVuSans-72"/>
     <use x="603.304688" xlink:href="#DejaVuSans-67"/>
     <use x="666.78125" xlink:href="#DejaVuSans-65"/>
     <use x="728.304688" xlink:href="#DejaVuSans-74"/>
     <use x="767.513672" xlink:href="#DejaVuSans-73"/>
    </g>
   </g>
   <g id="text_13">
    <!-- v2.1 -->
    <g style="fill:#808080;" transform="translate(237.011563 273.534858)scale(0.1 -0.1)">
     <use xlink:href="#DejaVuSans-76"/>
     <use x="59.179688" xlink:href="#DejaVuSans-32"/>
     <use x="122.802734" xlink:href="#DejaVuSans-2e"/>
     <use x="154.589844" xlink:href="#DejaVuSans-31"/>
    </g>
   </g>
   <g id="legend_1">
    <g id="patch_7">
     <path d="M 283.260625 145.588665 
L 412.4825 145.588665 
Q 416.4825 145.588665 416.4825 141.588665 
L 416.4825 26.163665 
Q 416.4825 22.163665 412.4825 22.163665 
L 283.260625 22.163665 
Q 279.260625 22.163665 279.260625 26.163665 
L 279.260625 141.588665 
Q 279.260625 145.588665 283.260625 145.588665 
z
" style="fill:#ffffff;opacity:0.2;stroke:#cccccc;stroke-linejoin:miter;"/>
    </g>
    <g id="line2d_81">
     <path d="M 287.260625 38.36054 
L 327.260625 38.36054 
" style="fill:none;stroke:#000000;stroke-linecap:square;stroke-width:1.5;"/>
    </g>
    <g id="line2d_82"/>
    <g id="text_14">
     <!-- 1: 5/5 -->
     <defs>
      <path d="M 11.71875 12.40625 
L 22.015625 12.40625 
L 22.015625 0 
L 11.71875 0 
z
M 11.71875 51.703125 
L 22.015625 51.703125 
L 22.015625 39.3125 
L 11.71875 39.3125 
z
" id="DejaVuSans-3a"/>
     </defs>
     <g transform="translate(343.260625 45.36054)scale(0.2 -0.2)">
      <use xlink:href="#DejaVuSans-31"/>
      <use x="63.623047" xlink:href="#DejaVuSans-3a"/>
      <use x="97.314453" xlink:href="#DejaVuSans-20"/>
      <use x="129.101562" xlink:href="#DejaVuSans-35"/>
      <use x="192.724609" xlink:href="#DejaVuSans-2f"/>
      <use x="226.416016" xlink:href="#DejaVuSans-35"/>
     </g>
    </g>
    <g id="line2d_83">
     <path d="M 287.260625 67.71679 
L 327.260625 67.71679 
" style="fill:none;stroke:#00bfbf;stroke-linecap:square;stroke-width:1.5;"/>
    </g>
    <g id="line2d_84"/>
    <g id="text_15">
     <!-- -1: 2/5 -->
     <g transform="translate(343.260625 74.71679)scale(0.2 -0.2)">
      <use xlink:href="#DejaVuSans-2d"/>
      <use x="36.083984" xlink:href="#DejaVuSans-31"/>
      <use x="99.707031" xlink:href="#DejaVuSans-3a"/>
      <use x="133.398438" xlink:href="#DejaVuSans-20"/>
      <use x="165.185547" xlink:href="#DejaVuSans-32"/>
      <use x="228.808594" xlink:href="#DejaVuSans-2f"/>
      <use x="262.5" xlink:href="#DejaVuSans-35"/>
     </g>
    </g>
    <g id="line2d_85">
     <path d="M 287.260625 97.07304 
L 327.260625 97.07304 
" style="fill:none;stroke:#bf00bf;stroke-linecap:square;stroke-width:1.5;"/>
    </g>
    <g id="line2d_86"/>
    <g id="text_16">
     <!-- -4: 2/5 -->
     <g transform="translate(343.260625 104.07304)scale(0.2 -0.2)">
      <use xlink:href="#DejaVuSans-2d"/>
      <use x="36.083984" xlink:href="#DejaVuSans-34"/>
      <use x="99.707031" xlink:href="#DejaVuSans-3a"/>
      <use x="133.398438" xlink:href="#DejaVuSans-20"/>
      <use x="165.185547" xlink:href="#DejaVuSans-32"/>
      <use x="228.808594" xlink:href="#DejaVuSans-2f"/>
      <use x="262.5" xlink:href="#DejaVuSans-35"/>
     </g>
    </g>
    <g id="line2d_87">
     <path d="M 287.260625 126.42929 
L 327.260625 126.42929 
" style="fill:none;stroke:#ff0000;stroke-linecap:square;stroke-width:3;"/>
    </g>
    <g id="line2d_88"/>
    <g id="text_17">
     <!-- -8: 2/5 -->
     <g transform="translate(343.260625 133.42929)scale(0.2 -0.2)">
      <use xlink:href="#DejaVuSans-2d"/>
      <use x="36.083984" xlink:href="#DejaVuSans-38"/>
      <use x="99.707031" xlink:href="#DejaVuSans-3a"/>
      <use x="133.398438" xlink:href="#DejaVuSans-20"/>
      <use x="165.185547" xlink:href="#DejaVuSans-32"/>
      <use x="228.808594" xlink:href="#DejaVuSans-2f"/>
      <use x="262.5" xlink:href="#DejaVuSans-35"/>
     </g>
    </g>
   </g>
  </g>
 </g>
 <defs>
  <clipPath id="p7846e14e3c">
   <rect height="266.112" width="357.12" x="69.3625" y="12.163665"/>
  </clipPath>
 </defs>
</svg>
