<?xml version="1.0" encoding="utf-8" standalone="no"?>
<!DOCTYPE svg PUBLIC "-//W3C//DTD SVG 1.1//EN"
  "http://www.w3.org/Graphics/SVG/1.1/DTD/svg11.dtd">
<!-- Created with matplotlib (http://matplotlib.org/) -->
<svg height="335pt" version="1.1" viewBox="0 0 437 335" width="437pt" xmlns="http://www.w3.org/2000/svg" xmlns:xlink="http://www.w3.org/1999/xlink">
 <defs>
  <style type="text/css">
*{stroke-linecap:butt;stroke-linejoin:round;}
  </style>
 </defs>
 <g id="figure_1">
  <g id="patch_1">
   <path d="M 0 335.188165 
L 437.1825 335.188165 
L 437.1825 0 
L 0 0 
z
" style="fill:#ffffff;"/>
  </g>
  <g id="axes_1">
   <g id="patch_2">
    <path d="M 69.3625 278.275665 
L 426.4825 278.275665 
L 426.4825 12.163665 
L 69.3625 12.163665 
z
" style="fill:#ffffff;"/>
   </g>
   <g id="line2d_1">
    <path clip-path="url(#p71ca00bdc7)" d="M 294.089145 278.275665 
L 294.089145 273.884378 
L 294.836328 273.884378 
L 294.836328 269.493091 
L 296.685094 269.493091 
L 296.685094 265.101804 
L 298.149902 265.101804 
L 298.149902 260.710517 
L 301.24021 260.710517 
L 301.24021 256.31923 
L 302.852319 256.31923 
L 302.852319 251.927942 
L 304.518948 251.927942 
L 304.518948 247.536655 
L 305.061304 247.536655 
L 305.061304 243.145368 
L 305.383667 243.145368 
L 305.383667 238.754081 
L 305.544003 238.754081 
L 305.544003 234.362794 
L 305.703781 234.362794 
L 305.703781 229.971507 
L 306.702987 229.971507 
L 306.702987 225.58022 
L 307.065699 225.58022 
L 307.065699 221.188933 
L 307.065699 221.188933 
L 307.065699 216.797645 
L 308.287955 216.797645 
L 308.287955 212.406358 
L 309.134434 212.406358 
L 309.134434 208.015071 
L 309.380455 208.015071 
L 309.380455 203.623784 
L 309.429501 203.623784 
L 309.429501 199.232497 
L 310.877028 199.232497 
L 310.877028 194.84121 
L 312.188055 194.84121 
L 312.188055 190.449923 
L 314.790123 190.449923 
L 314.790123 186.058636 
L 325.65237 186.058636 
L 325.65237 181.667348 
L 327.705409 181.667348 
L 327.705409 177.276061 
L 327.902472 177.276061 
L 327.902472 172.884774 
L 335.357658 172.884774 
L 335.357658 168.493487 
L 336.431472 168.493487 
L 336.431472 164.1022 
L 351.510692 164.1022 
L 351.510692 159.710913 
L 364.773981 159.710913 
L 364.773981 155.319626 
L 379.972686 155.319626 
L 379.972686 150.928338 
L 379.972686 150.928338 
L 379.972686 150.928338 
L 426.4825 150.928338 
" style="fill:none;stroke:#f5deb3;stroke-linecap:square;stroke-width:1.5;"/>
   </g>
   <g id="line2d_2">
    <path clip-path="url(#p71ca00bdc7)" style="fill:none;stroke:#f5deb3;stroke-linecap:square;stroke-width:1.5;"/>
   </g>
   <g id="line2d_3">
    <path clip-path="url(#p71ca00bdc7)" d="M 203.976093 278.275665 
L 203.976093 273.884378 
L 247.364847 273.884378 
L 247.364847 269.493091 
L 247.554055 269.493091 
L 247.554055 265.101804 
L 248.488564 265.101804 
L 248.488564 260.710517 
L 250.832792 260.710517 
L 250.832792 256.31923 
L 252.388291 256.31923 
L 252.388291 251.927942 
L 254.056941 251.927942 
L 254.056941 247.536655 
L 255.982376 247.536655 
L 255.982376 243.145368 
L 257.069329 243.145368 
L 257.069329 238.754081 
L 257.375216 238.754081 
L 257.375216 234.362794 
L 257.679076 234.362794 
L 257.679076 229.971507 
L 258.874787 229.971507 
L 258.874787 225.58022 
L 259.606586 225.58022 
L 259.606586 221.188933 
L 261.316702 221.188933 
L 261.316702 216.797645 
L 262.830215 216.797645 
L 262.830215 212.406358 
L 262.830215 212.406358 
L 262.830215 208.015071 
L 266.596406 208.015071 
L 266.596406 203.623784 
L 266.845094 203.623784 
L 266.845094 199.232497 
L 268.068708 199.232497 
L 268.068708 194.84121 
L 269.845039 194.84121 
L 269.845039 190.449923 
L 271.666928 190.449923 
L 271.666928 186.058636 
L 276.735005 186.058636 
L 276.735005 181.667348 
L 277.033917 181.667348 
L 277.033917 177.276061 
L 277.232115 177.276061 
L 277.232115 172.884774 
L 277.232115 172.884774 
L 277.232115 168.493487 
L 277.821624 168.493487 
L 277.821624 164.1022 
L 286.913441 164.1022 
L 286.913441 159.710913 
L 294.225905 159.710913 
L 294.225905 155.319626 
L 294.498207 155.319626 
L 294.498207 150.928338 
L 300.769009 150.928338 
L 300.769009 146.537051 
L 301.41567 146.537051 
L 301.41567 142.145764 
L 302.795708 142.145764 
L 302.795708 137.754477 
L 303.414615 137.754477 
L 303.414615 133.36319 
L 303.859543 133.36319 
L 303.859543 128.971903 
L 305.544003 128.971903 
L 305.544003 124.580616 
L 307.065699 124.580616 
L 307.065699 120.189329 
L 307.527869 120.189329 
L 307.527869 115.798041 
L 318.031247 115.798041 
L 318.031247 111.406754 
L 323.719066 111.406754 
L 323.719066 107.015467 
L 324.396184 107.015467 
L 324.396184 102.62418 
L 325.41079 102.62418 
L 325.41079 98.232893 
L 331.494312 98.232893 
L 331.494312 93.841606 
L 367.71501 93.841606 
L 367.71501 89.450319 
L 373.802222 89.450319 
L 373.802222 85.059032 
L 379.325467 85.059032 
L 379.325467 80.667744 
L 407.955023 80.667744 
L 407.955023 76.276457 
L 408.069387 76.276457 
L 408.069387 71.88517 
L 425.586821 71.88517 
L 425.586821 67.493883 
L 438.1825 67.493883 
" style="fill:none;stroke:#f5deb3;stroke-linecap:square;stroke-width:1.5;"/>
   </g>
   <g id="line2d_4">
    <path clip-path="url(#p71ca00bdc7)" d="M 259.606586 278.275665 
L 259.606586 273.884378 
L 307.833416 273.884378 
L 307.833416 269.493091 
L 309.134434 269.493091 
L 309.134434 265.101804 
L 316.920627 265.101804 
L 316.920627 260.710517 
L 317.827594 260.710517 
L 317.827594 256.31923 
L 318.071869 256.31923 
L 318.071869 251.927942 
L 318.556551 251.927942 
L 318.556551 247.536655 
L 318.716981 247.536655 
L 318.716981 243.145368 
L 318.796986 243.145368 
L 318.796986 238.754081 
L 318.836936 238.754081 
L 318.836936 234.362794 
L 319.194931 234.362794 
L 319.194931 229.971507 
L 319.432052 229.971507 
L 319.432052 225.58022 
L 319.589454 225.58022 
L 319.589454 221.188933 
L 321.172443 221.188933 
L 321.172443 216.797645 
L 321.475051 216.797645 
L 321.475051 212.406358 
L 324.678324 212.406358 
L 324.678324 208.015071 
L 326.301747 208.015071 
L 326.301747 203.623784 
L 327.771191 203.623784 
L 327.771191 199.232497 
L 328.456265 199.232497 
L 328.456265 194.84121 
L 328.650136 194.84121 
L 328.650136 190.449923 
L 329.765011 190.449923 
L 329.765011 186.058636 
L 329.890717 186.058636 
L 329.890717 181.667348 
L 330.109878 181.667348 
L 330.109878 177.276061 
L 330.853438 177.276061 
L 330.853438 172.884774 
L 332.305355 172.884774 
L 332.305355 168.493487 
L 332.364866 168.493487 
L 332.364866 164.1022 
L 334.825272 164.1022 
L 334.825272 159.710913 
L 335.718396 159.710913 
L 335.718396 155.319626 
L 337.106828 155.319626 
L 337.106828 150.928338 
L 337.133636 150.928338 
L 337.133636 146.537051 
L 337.454123 146.537051 
L 337.454123 142.145764 
L 340.56645 142.145764 
L 340.56645 137.754477 
L 342.775465 137.754477 
L 342.775465 133.36319 
L 344.106849 133.36319 
L 344.106849 128.971903 
L 345.467783 128.971903 
L 345.467783 124.580616 
L 346.832919 124.580616 
L 346.832919 120.189329 
L 346.876287 120.189329 
L 346.876287 115.798041 
L 350.819822 115.798041 
L 350.819822 111.406754 
L 351.334031 111.406754 
L 351.334031 107.015467 
L 352.652259 107.015467 
L 352.652259 102.62418 
L 355.576427 102.62418 
L 355.576427 98.232893 
L 360.113861 98.232893 
L 360.113861 93.841606 
L 362.932734 93.841606 
L 362.932734 89.450319 
L 365.961671 89.450319 
L 365.961671 85.059032 
L 370.009964 85.059032 
L 370.009964 80.667744 
L 370.036138 80.667744 
L 370.036138 76.276457 
L 371.427804 76.276457 
L 371.427804 71.88517 
L 371.731414 71.88517 
L 371.731414 67.493883 
L 374.257936 67.493883 
L 374.257936 63.102596 
L 375.366156 63.102596 
L 375.366156 58.711309 
L 377.193034 58.711309 
L 377.193034 54.320022 
L 377.980979 54.320022 
L 377.980979 49.928735 
L 378.788066 49.928735 
L 378.788066 45.537447 
L 394.47588 45.537447 
L 394.47588 41.14616 
L 397.066455 41.14616 
L 397.066455 36.754873 
L 406.671951 36.754873 
L 406.671951 32.363586 
L 412.663129 32.363586 
L 412.663129 27.972299 
L 415.97179 27.972299 
L 415.97179 23.581012 
L 431.514354 23.581012 
L 431.514354 19.189725 
L 438.1825 19.189725 
" style="fill:none;stroke:#f5deb3;stroke-linecap:square;stroke-width:1.5;"/>
   </g>
   <g id="line2d_5">
    <path clip-path="url(#p71ca00bdc7)" d="M 317.417558 278.275665 
L 317.417558 273.884378 
L 336.377012 273.884378 
L 336.377012 269.493091 
L 340.292075 269.493091 
L 340.292075 265.101804 
L 345.266198 265.101804 
L 345.266198 260.710517 
L 347.564649 260.710517 
L 347.564649 256.31923 
L 349.118013 256.31923 
L 349.118013 251.927942 
L 354.487816 251.927942 
L 354.487816 247.536655 
L 355.252547 247.536655 
L 355.252547 243.145368 
L 356.288079 243.145368 
L 356.288079 238.754081 
L 357.145072 238.754081 
L 357.145072 234.362794 
L 358.308457 234.362794 
L 358.308457 229.971507 
L 360.662782 229.971507 
L 360.662782 225.58022 
L 361.552813 225.58022 
L 361.552813 221.188933 
L 362.240209 221.188933 
L 362.240209 216.797645 
L 363.929897 216.797645 
L 363.929897 212.406358 
L 365.270174 212.406358 
L 365.270174 208.015071 
L 366.260954 208.015071 
L 366.260954 203.623784 
L 367.147266 203.623784 
L 367.147266 199.232497 
L 370.244993 199.232497 
L 370.244993 194.84121 
L 371.680951 194.84121 
L 371.680951 190.449923 
L 372.120626 190.449923 
L 372.120626 186.058636 
L 375.933404 186.058636 
L 375.933404 181.667348 
L 377.293666 181.667348 
L 377.293666 177.276061 
L 380.486051 177.276061 
L 380.486051 172.884774 
L 390.465396 172.884774 
L 390.465396 168.493487 
L 391.558684 168.493487 
L 391.558684 164.1022 
L 391.868649 164.1022 
L 391.868649 159.710913 
L 396.99381 159.710913 
L 396.99381 155.319626 
L 402.540787 155.319626 
L 402.540787 150.928338 
L 403.616836 150.928338 
L 403.616836 146.537051 
L 406.352909 146.537051 
L 406.352909 142.145764 
L 409.674355 142.145764 
L 409.674355 137.754477 
L 413.197373 137.754477 
L 413.197373 133.36319 
L 413.329968 133.36319 
L 413.329968 128.971903 
L 413.674953 128.971903 
L 413.674953 124.580616 
L 416.573572 124.580616 
L 416.573572 120.189329 
L 419.317784 120.189329 
L 419.317784 115.798041 
L 420.080151 115.798041 
L 420.080151 111.406754 
L 421.780188 111.406754 
L 421.780188 107.015467 
L 426.025263 107.015467 
L 426.025263 102.62418 
L 428.596979 102.62418 
L 428.596979 98.232893 
L 429.061951 98.232893 
L 429.061951 93.841606 
L 435.621313 93.841606 
L 435.621313 89.450319 
L 438.1825 89.450319 
" style="fill:none;stroke:#f5deb3;stroke-linecap:square;stroke-width:1.5;"/>
   </g>
   <g id="line2d_6"/>
   <g id="line2d_7">
    <path clip-path="url(#p71ca00bdc7)" d="M 298.337562 278.275665 
L 298.337562 273.884378 
L 301.357258 273.884378 
L 301.357258 269.493091 
L 303.302706 269.493091 
L 303.302706 265.101804 
L 339.915264 265.101804 
L 339.915264 260.710517 
L 341.306511 260.710517 
L 341.306511 256.31923 
L 342.203115 256.31923 
L 342.203115 251.927942 
L 343.29392 251.927942 
L 343.29392 247.536655 
L 344.037731 247.536655 
L 344.037731 243.145368 
L 344.083821 243.145368 
L 344.083821 238.754081 
L 344.882994 238.754081 
L 344.882994 234.362794 
L 345.153823 234.362794 
L 345.153823 229.971507 
L 345.490127 229.971507 
L 345.490127 225.58022 
L 345.490127 225.58022 
L 345.490127 221.188933 
L 345.846154 221.188933 
L 345.846154 216.797645 
L 346.067277 216.797645 
L 346.067277 212.406358 
L 346.221431 212.406358 
L 346.221431 208.015071 
L 346.26538 208.015071 
L 346.26538 203.623784 
L 346.331224 203.623784 
L 346.331224 199.232497 
L 346.550027 199.232497 
L 346.550027 194.84121 
L 346.854608 194.84121 
L 346.854608 190.449923 
L 346.941261 190.449923 
L 346.941261 186.058636 
L 347.41495 186.058636 
L 347.41495 181.667348 
L 348.221795 181.667348 
L 348.221795 177.276061 
L 348.347904 177.276061 
L 348.347904 172.884774 
L 348.515513 172.884774 
L 348.515513 168.493487 
L 349.426573 168.493487 
L 349.426573 164.1022 
L 349.467558 164.1022 
L 349.467558 159.710913 
L 349.508507 159.710913 
L 349.508507 155.319626 
L 350.219253 155.319626 
L 350.219253 150.928338 
L 351.920276 150.928338 
L 351.920276 146.537051 
L 354.725884 146.537051 
L 354.725884 142.145764 
L 354.98089 142.145764 
L 354.98089 137.754477 
L 356.901846 137.754477 
L 356.901846 133.36319 
L 358.895953 133.36319 
L 358.895953 128.971903 
L 359.244874 128.971903 
L 359.244874 124.580616 
L 359.377101 124.580616 
L 359.377101 120.189329 
L 359.607585 120.189329 
L 359.607585 115.798041 
L 361.062252 115.798041 
L 361.062252 111.406754 
L 361.709946 111.406754 
L 361.709946 107.015467 
L 362.022607 107.015467 
L 362.022607 102.62418 
L 363.115656 102.62418 
L 363.115656 98.232893 
L 364.861936 98.232893 
L 364.861936 93.841606 
L 384.949984 93.841606 
L 384.949984 89.450319 
L 388.557081 89.450319 
L 388.557081 85.059032 
L 393.182882 85.059032 
L 393.182882 80.667744 
L 394.713357 80.667744 
L 394.713357 76.276457 
L 401.87891 76.276457 
L 401.87891 71.88517 
L 403.008688 71.88517 
L 403.008688 67.493883 
L 407.771446 67.493883 
L 407.771446 63.102596 
L 414.227583 63.102596 
L 414.227583 58.711309 
L 423.789915 58.711309 
L 423.789915 54.320022 
L 425.446255 54.320022 
L 425.446255 49.928735 
L 434.514733 49.928735 
L 434.514733 45.537447 
L 438.1825 45.537447 
" style="fill:none;stroke:#f5deb3;stroke-linecap:square;stroke-width:1.5;"/>
   </g>
   <g id="line2d_8">
    <path clip-path="url(#p71ca00bdc7)" style="fill:none;stroke:#f5deb3;stroke-linecap:square;stroke-width:1.5;"/>
   </g>
   <g id="line2d_9">
    <path clip-path="url(#p71ca00bdc7)" d="M 268.309563 278.275665 
L 268.309563 273.884378 
L 288.642108 273.884378 
L 288.642108 269.493091 
L 300.292918 269.493091 
L 300.292918 265.101804 
L 318.796986 265.101804 
L 318.796986 260.710517 
L 321.663173 260.710517 
L 321.663173 256.31923 
L 322.40804 256.31923 
L 322.40804 251.927942 
L 323.394805 251.927942 
L 323.394805 247.536655 
L 323.575233 247.536655 
L 323.575233 243.145368 
L 330.822695 243.145368 
L 330.822695 238.754081 
L 332.186101 238.754081 
L 332.186101 234.362794 
L 335.050188 234.362794 
L 335.050188 229.971507 
L 335.218154 229.971507 
L 335.218154 225.58022 
L 335.496739 225.58022 
L 335.496739 221.188933 
L 337.825216 221.188933 
L 337.825216 216.797645 
L 337.851608 216.797645 
L 337.851608 212.406358 
L 338.480509 212.406358 
L 338.480509 208.015071 
L 338.740028 208.015071 
L 338.740028 203.623784 
L 338.920821 203.623784 
L 338.920821 199.232497 
L 338.998087 199.232497 
L 338.998087 194.84121 
L 339.203494 194.84121 
L 339.203494 190.449923 
L 339.458967 190.449923 
L 339.458967 186.058636 
L 339.687683 186.058636 
L 339.687683 181.667348 
L 339.738354 181.667348 
L 339.738354 177.276061 
L 341.03654 177.276061 
L 341.03654 172.884774 
L 341.306511 172.884774 
L 341.306511 168.493487 
L 341.477488 168.493487 
L 341.477488 164.1022 
L 342.251084 164.1022 
L 342.251084 159.710913 
L 342.680567 159.710913 
L 342.680567 155.319626 
L 343.011853 155.319626 
L 343.011853 150.928338 
L 343.968508 150.928338 
L 343.968508 146.537051 
L 344.014668 146.537051 
L 344.014668 142.145764 
L 344.175863 142.145764 
L 344.175863 137.754477 
L 344.221814 137.754477 
L 344.221814 133.36319 
L 344.928244 133.36319 
L 344.928244 128.971903 
L 345.131315 128.971903 
L 345.131315 124.580616 
L 345.646229 124.580616 
L 345.646229 120.189329 
L 346.767791 120.189329 
L 346.767791 115.798041 
L 347.329188 115.798041 
L 347.329188 111.406754 
L 347.372089 111.406754 
L 347.372089 107.015467 
L 347.947363 107.015467 
L 347.947363 102.62418 
L 348.26387 102.62418 
L 348.26387 98.232893 
L 348.452731 98.232893 
L 348.452731 93.841606 
L 348.931875 93.841606 
L 348.931875 89.450319 
L 349.344493 89.450319 
L 349.344493 85.059032 
L 350.380175 85.059032 
L 350.380175 80.667744 
L 350.978655 80.667744 
L 350.978655 76.276457 
L 351.156687 76.276457 
L 351.156687 71.88517 
L 351.686676 71.88517 
L 351.686676 67.493883 
L 352.55661 67.493883 
L 352.55661 63.102596 
L 354.119129 63.102596 
L 354.119129 58.711309 
L 354.652763 58.711309 
L 354.652763 54.320022 
L 358.088314 54.320022 
L 358.088314 49.928735 
L 358.206984 49.928735 
L 358.206984 45.537447 
L 358.240833 45.537447 
L 358.240833 41.14616 
L 361.474044 41.14616 
L 361.474044 36.754873 
L 364.773981 36.754873 
L 364.773981 32.363586 
L 368.506348 32.363586 
L 368.506348 27.972299 
L 369.575925 27.972299 
L 369.575925 23.581012 
L 387.019958 23.581012 
L 387.019958 19.189725 
L 391.122838 19.189725 
L 391.122838 14.798437 
L 391.122838 14.798437 
L 391.122838 14.798437 
L 426.4825 14.798437 
" style="fill:none;stroke:#f5deb3;stroke-linecap:square;stroke-width:1.5;"/>
   </g>
   <g id="line2d_10">
    <path clip-path="url(#p71ca00bdc7)" d="M 415.283995 278.275665 
L 415.283995 273.884378 
L 433.28201 273.884378 
L 433.28201 269.493091 
L 438.1825 269.493091 
" style="fill:none;stroke:#f5deb3;stroke-linecap:square;stroke-width:1.5;"/>
   </g>
   <g id="line2d_11">
    <path clip-path="url(#p71ca00bdc7)" d="M 269.845039 278.275665 
L 269.845039 273.884378 
L 310.638923 273.884378 
L 310.638923 269.493091 
L 313.011497 269.493091 
L 313.011497 265.101804 
L 314.263737 265.101804 
L 314.263737 260.710517 
L 319.075909 260.710517 
L 319.075909 256.31923 
L 320.599616 256.31923 
L 320.599616 251.927942 
L 323.933975 251.927942 
L 323.933975 247.536655 
L 324.112299 247.536655 
L 324.112299 243.145368 
L 326.335671 243.145368 
L 326.335671 238.754081 
L 326.841551 238.754081 
L 326.841551 234.362794 
L 327.869687 234.362794 
L 327.869687 229.971507 
L 328.456265 229.971507 
L 328.456265 225.58022 
L 338.114699 225.58022 
L 338.114699 221.188933 
L 344.405162 221.188933 
L 344.405162 216.797645 
L 353.522999 216.797645 
L 353.522999 212.406358 
L 353.672759 212.406358 
L 353.672759 208.015071 
L 373.305401 208.015071 
L 373.305401 203.623784 
L 438.1825 203.623784 
" style="fill:none;stroke:#f5deb3;stroke-linecap:square;stroke-width:1.5;"/>
   </g>
   <g id="line2d_12">
    <path clip-path="url(#p71ca00bdc7)" d="M 254.545927 278.275665 
L 254.545927 273.884378 
L 260.040128 273.884378 
L 260.040128 269.493091 
L 261.734455 269.493091 
L 261.734455 265.101804 
L 262.558719 265.101804 
L 262.558719 260.710517 
L 262.558719 260.710517 
L 262.558719 256.31923 
L 265.715228 256.31923 
L 265.715228 251.927942 
L 267.215617 251.927942 
L 267.215617 247.536655 
L 267.215617 247.536655 
L 267.215617 243.145368 
L 267.947805 243.145368 
L 267.947805 238.754081 
L 270.076771 238.754081 
L 270.076771 234.362794 
L 270.765026 234.362794 
L 270.765026 229.971507 
L 272.111317 229.971507 
L 272.111317 225.58022 
L 272.111317 225.58022 
L 272.111317 221.188933 
L 278.307161 221.188933 
L 278.307161 216.797645 
L 278.883103 216.797645 
L 278.883103 212.406358 
L 278.883103 212.406358 
L 278.883103 208.015071 
L 279.451906 208.015071 
L 279.451906 203.623784 
L 281.65912 203.623784 
L 281.65912 199.232497 
L 282.194723 199.232497 
L 282.194723 194.84121 
L 283.24753 194.84121 
L 283.24753 190.449923 
L 284.782785 190.449923 
L 284.782785 186.058636 
L 289.102474 186.058636 
L 289.102474 181.667348 
L 290.456491 181.667348 
L 290.456491 177.276061 
L 298.212541 177.276061 
L 298.212541 172.884774 
L 301.122862 172.884774 
L 301.122862 168.493487 
L 304.19043 168.493487 
L 304.19043 164.1022 
L 304.19043 164.1022 
L 304.19043 159.710913 
L 304.518948 159.710913 
L 304.518948 155.319626 
L 309.183743 155.319626 
L 309.183743 150.928338 
L 343.410938 150.928338 
L 343.410938 146.537051 
L 355.540553 146.537051 
L 355.540553 142.145764 
L 398.929901 142.145764 
L 398.929901 137.754477 
L 428.414063 137.754477 
L 428.414063 133.36319 
L 438.1825 133.36319 
" style="fill:none;stroke:#f5deb3;stroke-linecap:square;stroke-width:1.5;"/>
   </g>
   <g id="line2d_13">
    <path clip-path="url(#p71ca00bdc7)" d="M 366.501809 278.275665 
L 366.501809 273.884378 
L 370.284048 273.884378 
L 370.284048 269.493091 
L 379.186347 269.493091 
L 379.186347 265.101804 
L 379.186347 265.101804 
L 379.186347 260.710517 
L 386.088944 260.710517 
L 386.088944 256.31923 
L 390.607668 256.31923 
L 390.607668 251.927942 
L 390.607668 251.927942 
L 390.607668 247.536655 
L 406.031633 247.536655 
L 406.031633 243.145368 
L 406.031633 243.145368 
L 406.031633 238.754081 
L 408.427782 238.754081 
L 408.427782 234.362794 
L 408.427782 234.362794 
L 408.427782 229.971507 
L 412.075513 229.971507 
L 412.075513 225.58022 
L 413.78097 225.58022 
L 413.78097 221.188933 
L 414.152615 221.188933 
L 414.152615 216.797645 
L 418.11784 216.797645 
L 418.11784 212.406358 
L 418.11784 212.406358 
L 418.11784 212.406358 
L 426.4825 212.406358 
" style="fill:none;stroke:#f5deb3;stroke-linecap:square;stroke-width:1.5;"/>
   </g>
   <g id="line2d_14">
    <path clip-path="url(#p71ca00bdc7)" d="M 290.233579 278.275665 
L 290.233579 273.884378 
L 294.701379 273.884378 
L 294.701379 269.493091 
L 307.629944 269.493091 
L 307.629944 265.101804 
L 311.349564 265.101804 
L 311.349564 260.710517 
L 314.483799 260.710517 
L 314.483799 256.31923 
L 316.080259 256.31923 
L 316.080259 251.927942 
L 318.757001 251.927942 
L 318.757001 247.536655 
L 322.111543 247.536655 
L 322.111543 243.145368 
L 323.68315 243.145368 
L 323.68315 238.754081 
L 327.573562 238.754081 
L 327.573562 234.362794 
L 327.771191 234.362794 
L 327.771191 229.971507 
L 328.294077 229.971507 
L 328.294077 225.58022 
L 329.385812 225.58022 
L 329.385812 221.188933 
L 331.675787 221.188933 
L 331.675787 216.797645 
L 333.943156 216.797645 
L 333.943156 212.406358 
L 339.229106 212.406358 
L 339.229106 208.015071 
L 340.839194 208.015071 
L 340.839194 203.623784 
L 342.082971 203.623784 
L 342.082971 199.232497 
L 346.375068 199.232497 
L 346.375068 194.84121 
L 350.420317 194.84121 
L 350.420317 190.449923 
L 355.576427 190.449923 
L 355.576427 186.058636 
L 355.826763 186.058636 
L 355.826763 181.667348 
L 356.252757 181.667348 
L 356.252757 177.276061 
L 360.902881 177.276061 
L 360.902881 172.884774 
L 361.189351 172.884774 
L 361.189351 168.493487 
L 361.897798 168.493487 
L 361.897798 164.1022 
L 368.044117 164.1022 
L 368.044117 159.710913 
L 373.195619 159.710913 
L 373.195619 155.319626 
L 377.09218 155.319626 
L 377.09218 150.928338 
L 381.240362 150.928338 
L 381.240362 146.537051 
L 383.51948 146.537051 
L 383.51948 142.145764 
L 386.929513 142.145764 
L 386.929513 137.754477 
L 389.499763 137.754477 
L 389.499763 133.36319 
L 396.694756 133.36319 
L 396.694756 128.971903 
L 399.394523 128.971903 
L 399.394523 124.580616 
L 405.163733 124.580616 
L 405.163733 120.189329 
L 411.048796 120.189329 
L 411.048796 115.798041 
L 415.730783 115.798041 
L 415.730783 111.406754 
L 438.1825 111.406754 
" style="fill:none;stroke:#f5deb3;stroke-linecap:square;stroke-width:1.5;"/>
   </g>
   <g id="line2d_15">
    <path clip-path="url(#p71ca00bdc7)" style="fill:none;stroke:#f5deb3;stroke-linecap:square;stroke-width:1.5;"/>
   </g>
   <g id="line2d_16">
    <path clip-path="url(#p71ca00bdc7)" style="fill:none;stroke:#f5deb3;stroke-linecap:square;stroke-width:1.5;"/>
   </g>
   <g id="line2d_17">
    <path clip-path="url(#p71ca00bdc7)" d="M 371.134948 278.275665 
L 371.134948 273.884378 
L 391.246611 273.884378 
L 391.246611 269.493091 
L 393.080068 269.493091 
L 393.080068 265.101804 
L 394.352828 265.101804 
L 394.352828 260.710517 
L 396.584857 260.710517 
L 396.584857 256.31923 
L 396.811692 256.31923 
L 396.811692 251.927942 
L 396.99381 251.927942 
L 396.99381 247.536655 
L 398.007637 247.536655 
L 398.007637 243.145368 
L 399.159332 243.145368 
L 399.159332 238.754081 
L 399.820321 238.754081 
L 399.820321 234.362794 
L 399.888629 234.362794 
L 399.888629 229.971507 
L 400.747414 229.971507 
L 400.747414 225.58022 
L 405.78619 225.58022 
L 405.78619 221.188933 
L 406.441755 221.188933 
L 406.441755 216.797645 
L 415.464205 216.797645 
L 415.464205 212.406358 
L 418.868654 212.406358 
L 418.868654 208.015071 
L 431.146286 208.015071 
L 431.146286 203.623784 
L 434.011337 203.623784 
L 434.011337 199.232497 
L 436.839321 199.232497 
L 436.839321 194.84121 
L 437.9306 194.84121 
L 437.9306 190.449923 
L 438.1825 190.449923 
" style="fill:none;stroke:#f5deb3;stroke-linecap:square;stroke-width:1.5;"/>
   </g>
   <g id="line2d_18">
    <path clip-path="url(#p71ca00bdc7)" d="M 259.606586 278.275665 
L 259.606586 273.884378 
L 259.751555 273.884378 
L 259.751555 269.493091 
L 261.316702 269.493091 
L 261.316702 265.101804 
L 263.635198 265.101804 
L 263.635198 260.710517 
L 266.09495 260.710517 
L 266.09495 256.31923 
L 266.596406 256.31923 
L 266.596406 251.927942 
L 267.215617 251.927942 
L 267.215617 247.536655 
L 268.309563 247.536655 
L 268.309563 243.145368 
L 269.495232 243.145368 
L 269.495232 238.754081 
L 270.536753 238.754081 
L 270.536753 234.362794 
L 271.889661 234.362794 
L 271.889661 229.971507 
L 272.111317 229.971507 
L 272.111317 225.58022 
L 274.376263 225.58022 
L 274.376263 221.188933 
L 275.003373 221.188933 
L 275.003373 216.797645 
L 275.210519 216.797645 
L 275.210519 212.406358 
L 277.232115 212.406358 
L 277.232115 208.015071 
L 277.232115 208.015071 
L 277.232115 203.623784 
L 278.403655 203.623784 
L 278.403655 199.232497 
L 279.546025 199.232497 
L 279.546025 194.84121 
L 281.83835 194.84121 
L 281.83835 190.449923 
L 283.76501 190.449923 
L 283.76501 186.058636 
L 288.719157 186.058636 
L 288.719157 181.667348 
L 295.835993 181.667348 
L 295.835993 177.276061 
L 301.995738 177.276061 
L 301.995738 172.884774 
L 303.134328 172.884774 
L 303.134328 168.493487 
L 309.183743 168.493487 
L 309.183743 164.1022 
L 312.601623 164.1022 
L 312.601623 159.710913 
L 312.738655 159.710913 
L 312.738655 155.319626 
L 321.962572 155.319626 
L 321.962572 150.928338 
L 325.926913 150.928338 
L 325.926913 146.537051 
L 335.911471 146.537051 
L 335.911471 142.145764 
L 357.644834 142.145764 
L 357.644834 137.754477 
L 364.803318 137.754477 
L 364.803318 133.36319 
L 373.281028 133.36319 
L 373.281028 128.971903 
L 374.685529 128.971903 
L 374.685529 124.580616 
L 376.550517 124.580616 
L 376.550517 120.189329 
L 377.282496 120.189329 
L 377.282496 115.798041 
L 379.357512 115.798041 
L 379.357512 111.406754 
L 379.95161 111.406754 
L 379.95161 107.015467 
L 381.780346 107.015467 
L 381.780346 102.62418 
L 382.821816 102.62418 
L 382.821816 98.232893 
L 386.070499 98.232893 
L 386.070499 93.841606 
L 388.109269 93.841606 
L 388.109269 89.450319 
L 392.144223 89.450319 
L 392.144223 85.059032 
L 411.278358 85.059032 
L 411.278358 80.667744 
L 411.278358 80.667744 
L 411.278358 80.667744 
L 426.4825 80.667744 
" style="fill:none;stroke:#f5deb3;stroke-linecap:square;stroke-width:1.5;"/>
   </g>
   <g id="line2d_19">
    <path clip-path="url(#p71ca00bdc7)" d="M 424.309965 278.275665 
L 424.309965 276.811903 
L 424.309965 276.811903 
L 424.309965 276.811903 
L 424.309965 275.34814 
L 424.309965 275.34814 
L 424.309965 275.34814 
L 424.309965 273.884378 
L 425.037742 273.884378 
L 425.037742 269.493091 
L 428.96064 269.493091 
L 428.96064 265.101804 
L 434.392618 265.101804 
L 434.392618 260.710517 
L 438.1825 260.710517 
L 438.1825 260.710517 
" style="fill:none;stroke:#f5deb3;stroke-linecap:square;stroke-width:1.5;"/>
   </g>
   <g id="line2d_20">
    <path clip-path="url(#p71ca00bdc7)" d="M 278.499946 278.275665 
L 278.499946 273.884378 
L 282.636332 273.884378 
L 282.636332 269.493091 
L 284.361453 269.493091 
L 284.361453 265.101804 
L 287.864414 265.101804 
L 287.864414 260.710517 
L 289.178755 260.710517 
L 289.178755 256.31923 
L 289.934667 256.31923 
L 289.934667 251.927942 
L 290.382307 251.927942 
L 290.382307 247.536655 
L 290.899094 247.536655 
L 290.899094 243.145368 
L 292.27315 243.145368 
L 292.27315 238.754081 
L 292.769185 238.754081 
L 292.769185 234.362794 
L 296.555482 234.362794 
L 296.555482 229.971507 
L 297.135876 229.971507 
L 297.135876 225.58022 
L 298.212541 225.58022 
L 298.212541 221.188933 
L 299.203301 221.188933 
L 299.203301 216.797645 
L 299.264519 216.797645 
L 299.264519 212.406358 
L 299.992833 212.406358 
L 299.992833 208.015071 
L 300.113103 208.015071 
L 300.113103 203.623784 
L 303.6932 203.623784 
L 303.6932 199.232497 
L 305.863004 199.232497 
L 305.863004 194.84121 
L 308.738035 194.84121 
L 308.738035 190.449923 
L 310.591153 190.449923 
L 310.591153 186.058636 
L 314.87727 186.058636 
L 314.87727 181.667348 
L 315.353641 181.667348 
L 315.353641 177.276061 
L 322.775987 177.276061 
L 322.775987 172.884774 
L 324.71347 172.884774 
L 324.71347 168.493487 
L 327.209016 168.493487 
L 327.209016 164.1022 
L 329.859323 164.1022 
L 329.859323 159.710913 
L 332.394592 159.710913 
L 332.394592 155.319626 
L 338.350197 155.319626 
L 338.350197 150.928338 
L 341.55057 150.928338 
L 341.55057 146.537051 
L 378.701494 146.537051 
L 378.701494 142.145764 
L 385.476298 142.145764 
L 385.476298 137.754477 
L 391.13936 137.754477 
L 391.13936 133.36319 
L 406.583551 133.36319 
L 406.583551 128.971903 
L 409.069274 128.971903 
L 409.069274 124.580616 
L 422.008356 124.580616 
L 422.008356 120.189329 
L 435.212232 120.189329 
L 435.212232 115.798041 
L 436.234358 115.798041 
L 436.234358 111.406754 
L 438.1825 111.406754 
" style="fill:none;stroke:#f5deb3;stroke-linecap:square;stroke-width:1.5;"/>
   </g>
   <g id="line2d_21"/>
   <g id="line2d_22">
    <path clip-path="url(#p71ca00bdc7)" d="M 269.612131 278.275665 
L 269.612131 273.884378 
L 272.660818 273.884378 
L 272.660818 269.493091 
L 272.878789 269.493091 
L 272.878789 265.101804 
L 277.429461 265.101804 
L 277.429461 260.710517 
L 282.548349 260.710517 
L 282.548349 256.31923 
L 282.899271 256.31923 
L 282.899271 251.927942 
L 283.936215 251.927942 
L 283.936215 247.536655 
L 285.614018 247.536655 
L 285.614018 243.145368 
L 287.232627 243.145368 
L 287.232627 238.754081 
L 289.784477 238.754081 
L 289.784477 234.362794 
L 290.972448 234.362794 
L 290.972448 229.971507 
L 295.372192 229.971507 
L 295.372192 225.58022 
L 295.571538 225.58022 
L 295.571538 221.188933 
L 301.822487 221.188933 
L 301.822487 216.797645 
L 306.494429 216.797645 
L 306.494429 212.406358 
L 309.035655 212.406358 
L 309.035655 208.015071 
L 309.576326 208.015071 
L 309.576326 203.623784 
L 311.019301 203.623784 
L 311.019301 199.232497 
L 313.192495 199.232497 
L 313.192495 194.84121 
L 314.042615 194.84121 
L 314.042615 190.449923 
L 315.310539 190.449923 
L 315.310539 186.058636 
L 316.83728 186.058636 
L 316.83728 181.667348 
L 319.036167 181.667348 
L 319.036167 177.276061 
L 342.585474 177.276061 
L 342.585474 172.884774 
L 342.964672 172.884774 
L 342.964672 168.493487 
L 354.524522 168.493487 
L 354.524522 164.1022 
L 358.071336 164.1022 
L 358.071336 159.710913 
L 360.356842 159.710913 
L 360.356842 155.319626 
L 361.741308 155.319626 
L 361.741308 150.928338 
L 362.795063 150.928338 
L 362.795063 146.537051 
L 363.675117 146.537051 
L 363.675117 142.145764 
L 365.890124 142.145764 
L 365.890124 137.754477 
L 367.341921 137.754477 
L 367.341921 133.36319 
L 369.37727 133.36319 
L 369.37727 128.971903 
L 381.024636 128.971903 
L 381.024636 124.580616 
L 381.342734 124.580616 
L 381.342734 120.189329 
L 384.864832 120.189329 
L 384.864832 115.798041 
L 386.309712 115.798041 
L 386.309712 111.406754 
L 391.3947 111.406754 
L 391.3947 107.015467 
L 394.283466 107.015467 
L 394.283466 102.62418 
L 395.904989 102.62418 
L 395.904989 98.232893 
L 398.255864 98.232893 
L 398.255864 93.841606 
L 399.089929 93.841606 
L 399.089929 89.450319 
L 400.370717 89.450319 
L 400.370717 85.059032 
L 403.148769 85.059032 
L 403.148769 80.667744 
L 417.275165 80.667744 
L 417.275165 76.276457 
L 438.1825 76.276457 
" style="fill:none;stroke:#f5deb3;stroke-linecap:square;stroke-width:1.5;"/>
   </g>
   <g id="line2d_23">
    <path clip-path="url(#p71ca00bdc7)" d="M 392.160381 278.275665 
L 392.160381 273.884378 
L 413.084878 273.884378 
L 413.084878 269.493091 
L 430.889995 269.493091 
L 430.889995 265.101804 
L 438.147554 265.101804 
L 438.147554 260.710517 
L 438.1825 260.710517 
" style="fill:none;stroke:#f5deb3;stroke-linecap:square;stroke-width:1.5;"/>
   </g>
   <g id="line2d_24">
    <path clip-path="url(#p71ca00bdc7)" d="M 296.878829 278.275665 
L 296.878829 273.884378 
L 299.690773 273.884378 
L 299.690773 269.493091 
L 300.650448 269.493091 
L 300.650448 265.101804 
L 309.478495 265.101804 
L 309.478495 260.710517 
L 309.576326 260.710517 
L 309.576326 256.31923 
L 312.647346 256.31923 
L 312.647346 251.927942 
L 316.33399 251.927942 
L 316.33399 247.536655 
L 321.172443 247.536655 
L 321.172443 243.145368 
L 334.372104 243.145368 
L 334.372104 238.754081 
L 339.152229 238.754081 
L 339.152229 234.362794 
L 342.370789 234.362794 
L 342.370789 229.971507 
L 350.239399 229.971507 
L 350.239399 225.58022 
L 360.372995 225.58022 
L 360.372995 221.188933 
L 367.742526 221.188933 
L 367.742526 216.797645 
L 367.948371 216.797645 
L 367.948371 212.406358 
L 368.492819 212.406358 
L 368.492819 208.015071 
L 368.519873 208.015071 
L 368.519873 203.623784 
L 372.987533 203.623784 
L 372.987533 199.232497 
L 374.054623 199.232497 
L 374.054623 194.84121 
L 374.198232 194.84121 
L 374.198232 190.449923 
L 376.33433 190.449923 
L 376.33433 186.058636 
L 378.538732 186.058636 
L 378.538732 181.667348 
L 378.59305 181.667348 
L 378.59305 177.276061 
L 379.314781 177.276061 
L 379.314781 172.884774 
L 379.464167 172.884774 
L 379.464167 168.493487 
L 379.972686 168.493487 
L 379.972686 164.1022 
L 380.662823 164.1022 
L 380.662823 159.710913 
L 381.516242 159.710913 
L 381.516242 155.319626 
L 381.921929 155.319626 
L 381.921929 150.928338 
L 384.004504 150.928338 
L 384.004504 146.537051 
L 384.158635 146.537051 
L 384.158635 142.145764 
L 384.225905 142.145764 
L 384.225905 137.754477 
L 384.551248 137.754477 
L 384.551248 133.36319 
L 385.204497 133.36319 
L 385.204497 128.971903 
L 385.588299 128.971903 
L 385.588299 124.580616 
L 386.355572 124.580616 
L 386.355572 120.189329 
L 386.511154 120.189329 
L 386.511154 115.798041 
L 386.529423 115.798041 
L 386.529423 111.406754 
L 387.200316 111.406754 
L 387.200316 107.015467 
L 390.027451 107.015467 
L 390.027451 102.62418 
L 391.941757 102.62418 
L 391.941757 98.232893 
L 392.257215 98.232893 
L 392.257215 93.841606 
L 393.395686 93.841606 
L 393.395686 89.450319 
L 394.175361 89.450319 
L 394.175361 85.059032 
L 395.275318 85.059032 
L 395.275318 80.667744 
L 396.201822 80.667744 
L 396.201822 76.276457 
L 396.283116 76.276457 
L 396.283116 71.88517 
L 400.194765 71.88517 
L 400.194765 67.493883 
L 401.160896 67.493883 
L 401.160896 63.102596 
L 402.308272 63.102596 
L 402.308272 58.711309 
L 403.11697 58.711309 
L 403.11697 54.320022 
L 404.049016 54.320022 
L 404.049016 49.928735 
L 404.316302 49.928735 
L 404.316302 45.537447 
L 404.46481 45.537447 
L 404.46481 41.14616 
L 404.631309 41.14616 
L 404.631309 36.754873 
L 404.643618 36.754873 
L 404.643618 32.363586 
L 434.505104 32.363586 
L 434.505104 27.972299 
L 435.708947 27.972299 
L 435.708947 23.581012 
L 436.026779 23.581012 
L 436.026779 19.189725 
L 438.1825 19.189725 
" style="fill:none;stroke:#f5deb3;stroke-linecap:square;stroke-width:1.5;"/>
   </g>
   <g id="line2d_25">
    <path clip-path="url(#p71ca00bdc7)" style="fill:none;stroke:#f5deb3;stroke-linecap:square;stroke-width:1.5;"/>
   </g>
   <g id="line2d_26">
    <path clip-path="url(#p71ca00bdc7)" d="M 371.237023 278.275665 
L 371.237023 273.884378 
L 373.536304 273.884378 
L 373.536304 269.493091 
L 375.772048 269.493091 
L 375.772048 265.101804 
L 381.780346 265.101804 
L 381.780346 260.710517 
L 382.243915 260.710517 
L 382.243915 256.31923 
L 382.334068 256.31923 
L 382.334068 251.927942 
L 382.593519 251.927942 
L 382.593519 247.536655 
L 382.643245 247.536655 
L 382.643245 243.145368 
L 383.048984 243.145368 
L 383.048984 238.754081 
L 383.509728 238.754081 
L 383.509728 234.362794 
L 384.062364 234.362794 
L 384.062364 229.971507 
L 384.091266 229.971507 
L 384.091266 225.58022 
L 384.369723 225.58022 
L 384.369723 221.188933 
L 384.751049 221.188933 
L 384.751049 216.797645 
L 384.864832 216.797645 
L 384.864832 212.406358 
L 384.921618 212.406358 
L 384.921618 208.015071 
L 385.072703 208.015071 
L 385.072703 203.623784 
L 385.894897 203.623784 
L 385.894897 199.232497 
L 390.574232 199.232497 
L 390.574232 194.84121 
L 390.616024 194.84121 
L 390.616024 190.449923 
L 390.674468 190.449923 
L 390.674468 186.058636 
L 390.907503 186.058636 
L 390.907503 181.667348 
L 391.114574 181.667348 
L 391.114574 177.276061 
L 391.427544 177.276061 
L 391.427544 172.884774 
L 391.517743 172.884774 
L 391.517743 168.493487 
L 391.624114 168.493487 
L 391.624114 164.1022 
L 391.762844 164.1022 
L 391.762844 159.710913 
L 391.770992 159.710913 
L 391.770992 155.319626 
L 391.901156 155.319626 
L 391.901156 150.928338 
L 391.925521 150.928338 
L 391.925521 146.537051 
L 392.297502 146.537051 
L 392.297502 142.145764 
L 392.345799 142.145764 
L 392.345799 137.754477 
L 392.442243 137.754477 
L 392.442243 133.36319 
L 392.474345 133.36319 
L 392.474345 128.971903 
L 392.578524 128.971903 
L 392.578524 124.580616 
L 392.80211 124.580616 
L 392.80211 120.189329 
L 393.771584 120.189329 
L 393.771584 115.798041 
L 393.888423 115.798041 
L 393.888423 111.406754 
L 393.958384 111.406754 
L 393.958384 107.015467 
L 394.012725 107.015467 
L 394.012725 102.62418 
L 394.028239 102.62418 
L 394.028239 98.232893 
L 394.383622 98.232893 
L 394.383622 93.841606 
L 398.971701 93.841606 
L 398.971701 89.450319 
L 399.387623 89.450319 
L 399.387623 85.059032 
L 406.542239 85.059032 
L 406.542239 80.667744 
L 406.642503 80.667744 
L 406.642503 76.276457 
L 412.792122 76.276457 
L 412.792122 71.88517 
L 420.434832 71.88517 
L 420.434832 67.493883 
L 420.617667 67.493883 
L 420.617667 63.102596 
L 420.661092 63.102596 
L 420.661092 58.711309 
L 423.704695 58.711309 
L 423.704695 54.320022 
L 425.975035 54.320022 
L 425.975035 49.928735 
L 438.1825 49.928735 
" style="fill:none;stroke:#f5deb3;stroke-linecap:square;stroke-width:1.5;"/>
   </g>
   <g id="line2d_27"/>
   <g id="line2d_28">
    <path clip-path="url(#p71ca00bdc7)" d="M 283.073731 278.275665 
L 283.073731 273.884378 
L 284.782785 273.884378 
L 284.782785 269.493091 
L 290.159033 269.493091 
L 290.159033 265.101804 
L 298.212541 265.101804 
L 298.212541 260.710517 
L 322.297078 260.710517 
L 322.297078 256.31923 
L 340.88861 256.31923 
L 340.88861 251.927942 
L 346.26538 251.927942 
L 346.26538 247.536655 
L 347.564649 247.536655 
L 347.564649 243.145368 
L 347.777662 243.145368 
L 347.777662 238.754081 
L 350.259536 238.754081 
L 350.259536 234.362794 
L 351.09742 234.362794 
L 351.09742 229.971507 
L 351.900855 229.971507 
L 351.900855 225.58022 
L 353.541745 225.58022 
L 353.541745 221.188933 
L 354.137634 221.188933 
L 354.137634 216.797645 
L 354.61616 216.797645 
L 354.61616 212.406358 
L 354.7624 212.406358 
L 354.7624 208.015071 
L 355.432763 208.015071 
L 355.432763 203.623784 
L 356.657324 203.623784 
L 356.657324 199.232497 
L 359.45955 199.232497 
L 359.45955 194.84121 
L 359.673226 194.84121 
L 359.673226 190.449923 
L 359.885912 190.449923 
L 359.885912 186.058636 
L 360.662782 186.058636 
L 360.662782 181.667348 
L 361.3161 181.667348 
L 361.3161 177.276061 
L 361.39514 177.276061 
L 361.39514 172.884774 
L 361.489809 172.884774 
L 361.489809 168.493487 
L 363.660086 168.493487 
L 363.660086 164.1022 
L 363.899997 164.1022 
L 363.899997 159.710913 
L 364.390886 159.710913 
L 364.390886 155.319626 
L 364.405679 155.319626 
L 364.405679 150.928338 
L 364.847288 150.928338 
L 364.847288 146.537051 
L 365.732328 146.537051 
L 365.732328 142.145764 
L 366.895776 142.145764 
L 366.895776 137.754477 
L 367.216881 137.754477 
L 367.216881 133.36319 
L 367.907276 133.36319 
L 367.907276 128.971903 
L 368.343739 128.971903 
L 368.343739 124.580616 
L 369.097698 124.580616 
L 369.097698 120.189329 
L 370.724361 120.189329 
L 370.724361 115.798041 
L 370.904445 115.798041 
L 370.904445 111.406754 
L 372.469357 111.406754 
L 372.469357 107.015467 
L 373.341937 107.015467 
L 373.341937 102.62418 
L 373.862444 102.62418 
L 373.862444 98.232893 
L 374.030645 98.232893 
L 374.030645 93.841606 
L 374.579004 93.841606 
L 374.579004 89.450319 
L 382.374079 89.450319 
L 382.374079 85.059032 
L 398.014748 85.059032 
L 398.014748 80.667744 
L 398.720326 80.667744 
L 398.720326 76.276457 
L 399.339292 76.276457 
L 399.339292 71.88517 
L 399.484131 71.88517 
L 399.484131 67.493883 
L 400.397727 67.493883 
L 400.397727 63.102596 
L 401.194079 63.102596 
L 401.194079 58.711309 
L 401.577264 58.711309 
L 401.577264 54.320022 
L 401.708658 54.320022 
L 401.708658 49.928735 
L 402.405296 49.928735 
L 402.405296 45.537447 
L 403.282085 45.537447 
L 403.282085 41.14616 
L 419.744852 41.14616 
L 419.744852 36.754873 
L 422.411208 36.754873 
L 422.411208 32.363586 
L 423.529702 32.363586 
L 423.529702 27.972299 
L 424.133245 27.972299 
L 424.133245 23.581012 
L 431.438917 23.581012 
L 431.438917 19.189725 
L 438.1825 19.189725 
" style="fill:none;stroke:#f5deb3;stroke-linecap:square;stroke-width:1.5;"/>
   </g>
   <g id="line2d_29">
    <path clip-path="url(#p71ca00bdc7)" d="M 244.226338 278.275665 
L 244.226338 273.884378 
L 244.226338 273.884378 
L 244.226338 269.493091 
L 244.226338 269.493091 
L 244.226338 265.101804 
L 261.734455 265.101804 
L 261.734455 260.710517 
L 261.734455 260.710517 
L 261.734455 256.31923 
L 261.734455 256.31923 
L 261.734455 251.927942 
L 263.368436 251.927942 
L 263.368436 247.536655 
L 263.368436 247.536655 
L 263.368436 243.145368 
L 263.368436 243.145368 
L 263.368436 238.754081 
L 263.767999 238.754081 
L 263.767999 234.362794 
L 263.767999 234.362794 
L 263.767999 229.971507 
L 263.767999 229.971507 
L 263.767999 225.58022 
L 266.346363 225.58022 
L 266.346363 221.188933 
L 266.346363 221.188933 
L 266.346363 216.797645 
L 266.346363 216.797645 
L 266.346363 212.406358 
L 270.536753 212.406358 
L 270.536753 208.015071 
L 270.536753 208.015071 
L 270.536753 203.623784 
L 270.536753 203.623784 
L 270.536753 199.232497 
L 270.878738 199.232497 
L 270.878738 194.84121 
L 270.878738 194.84121 
L 270.878738 190.449923 
L 270.878738 190.449923 
L 270.878738 186.058636 
L 272.660818 186.058636 
L 272.660818 181.667348 
L 272.660818 181.667348 
L 272.660818 177.276061 
L 272.660818 177.276061 
L 272.660818 172.884774 
L 284.53045 172.884774 
L 284.53045 168.493487 
L 284.53045 168.493487 
L 284.53045 164.1022 
L 284.53045 164.1022 
L 284.53045 159.710913 
L 308.338183 159.710913 
L 308.338183 155.319626 
L 308.338183 155.319626 
L 308.338183 150.928338 
L 308.338183 150.928338 
L 308.338183 146.537051 
L 349.118013 146.537051 
L 349.118013 142.145764 
L 349.118013 142.145764 
L 349.118013 137.754477 
L 349.118013 137.754477 
L 349.118013 133.36319 
L 438.1825 133.36319 
" style="fill:none;stroke:#f5deb3;stroke-linecap:square;stroke-width:1.5;"/>
   </g>
   <g id="line2d_30">
    <path clip-path="url(#p71ca00bdc7)" d="M 387.173307 278.275665 
L 387.173307 273.884378 
L 415.156937 273.884378 
L 415.156937 269.493091 
L 428.090347 269.493091 
L 428.090347 265.101804 
L 435.24383 265.101804 
L 435.24383 260.710517 
L 438.1825 260.710517 
" style="fill:none;stroke:#f5deb3;stroke-linecap:square;stroke-width:1.5;"/>
   </g>
   <g id="matplotlib.axis_1">
    <g id="xtick_1">
     <g id="line2d_31">
      <path clip-path="url(#p71ca00bdc7)" d="M 175.011571 278.275665 
L 175.011571 12.163665 
" style="fill:none;stroke:#b0b0b0;stroke-linecap:square;stroke-width:0.8;"/>
     </g>
     <g id="line2d_32">
      <defs>
       <path d="M 0 0 
L 0 3.5 
" id="ma2b0e3fd78" style="stroke:#000000;stroke-width:0.8;"/>
      </defs>
      <g>
       <use style="stroke:#000000;stroke-width:0.8;" x="175.011571" xlink:href="#ma2b0e3fd78" y="278.275665"/>
      </g>
     </g>
     <g id="text_1">
      <!-- 1 -->
      <defs>
       <path d="M 12.40625 8.296875 
L 28.515625 8.296875 
L 28.515625 63.921875 
L 10.984375 60.40625 
L 10.984375 69.390625 
L 28.421875 72.90625 
L 38.28125 72.90625 
L 38.28125 8.296875 
L 54.390625 8.296875 
L 54.390625 0 
L 12.40625 0 
z
" id="DejaVuSans-31"/>
      </defs>
      <g transform="translate(168.649071 300.47254)scale(0.2 -0.2)">
       <use xlink:href="#DejaVuSans-31"/>
      </g>
     </g>
    </g>
    <g id="xtick_2">
     <g id="line2d_33">
      <path clip-path="url(#p71ca00bdc7)" d="M 386.309712 278.275665 
L 386.309712 12.163665 
" style="fill:none;stroke:#b0b0b0;stroke-linecap:square;stroke-width:0.8;"/>
     </g>
     <g id="line2d_34">
      <g>
       <use style="stroke:#000000;stroke-width:0.8;" x="386.309712" xlink:href="#ma2b0e3fd78" y="278.275665"/>
      </g>
     </g>
     <g id="text_2">
      <!-- 3 -->
      <defs>
       <path d="M 40.578125 39.3125 
Q 47.65625 37.796875 51.625 33 
Q 55.609375 28.21875 55.609375 21.1875 
Q 55.609375 10.40625 48.1875 4.484375 
Q 40.765625 -1.421875 27.09375 -1.421875 
Q 22.515625 -1.421875 17.65625 -0.515625 
Q 12.796875 0.390625 7.625 2.203125 
L 7.625 11.71875 
Q 11.71875 9.328125 16.59375 8.109375 
Q 21.484375 6.890625 26.8125 6.890625 
Q 36.078125 6.890625 40.9375 10.546875 
Q 45.796875 14.203125 45.796875 21.1875 
Q 45.796875 27.640625 41.28125 31.265625 
Q 36.765625 34.90625 28.71875 34.90625 
L 20.21875 34.90625 
L 20.21875 43.015625 
L 29.109375 43.015625 
Q 36.375 43.015625 40.234375 45.921875 
Q 44.09375 48.828125 44.09375 54.296875 
Q 44.09375 59.90625 40.109375 62.90625 
Q 36.140625 65.921875 28.71875 65.921875 
Q 24.65625 65.921875 20.015625 65.03125 
Q 15.375 64.15625 9.8125 62.3125 
L 9.8125 71.09375 
Q 15.4375 72.65625 20.34375 73.4375 
Q 25.25 74.21875 29.59375 74.21875 
Q 40.828125 74.21875 47.359375 69.109375 
Q 53.90625 64.015625 53.90625 55.328125 
Q 53.90625 49.265625 50.4375 45.09375 
Q 46.96875 40.921875 40.578125 39.3125 
z
" id="DejaVuSans-33"/>
      </defs>
      <g transform="translate(379.947212 300.47254)scale(0.2 -0.2)">
       <use xlink:href="#DejaVuSans-33"/>
      </g>
     </g>
    </g>
    <g id="xtick_3">
     <g id="line2d_35">
      <defs>
       <path d="M 0 0 
L 0 2 
" id="m8b633bd114" style="stroke:#000000;stroke-width:0.6;"/>
      </defs>
      <g>
       <use style="stroke:#000000;stroke-width:0.6;" x="101.166039" xlink:href="#m8b633bd114" y="278.275665"/>
      </g>
     </g>
    </g>
    <g id="xtick_4">
     <g id="line2d_36">
      <g>
       <use style="stroke:#000000;stroke-width:0.6;" x="119.769917" xlink:href="#m8b633bd114" y="278.275665"/>
      </g>
     </g>
    </g>
    <g id="xtick_5">
     <g id="line2d_37">
      <g>
       <use style="stroke:#000000;stroke-width:0.6;" x="132.969579" xlink:href="#m8b633bd114" y="278.275665"/>
      </g>
     </g>
    </g>
    <g id="xtick_6">
     <g id="line2d_38">
      <g>
       <use style="stroke:#000000;stroke-width:0.6;" x="143.208031" xlink:href="#m8b633bd114" y="278.275665"/>
      </g>
     </g>
    </g>
    <g id="xtick_7">
     <g id="line2d_39">
      <g>
       <use style="stroke:#000000;stroke-width:0.6;" x="151.573456" xlink:href="#m8b633bd114" y="278.275665"/>
      </g>
     </g>
    </g>
    <g id="xtick_8">
     <g id="line2d_40">
      <g>
       <use style="stroke:#000000;stroke-width:0.6;" x="158.646323" xlink:href="#m8b633bd114" y="278.275665"/>
      </g>
     </g>
    </g>
    <g id="xtick_9">
     <g id="line2d_41">
      <g>
       <use style="stroke:#000000;stroke-width:0.6;" x="164.773118" xlink:href="#m8b633bd114" y="278.275665"/>
      </g>
     </g>
    </g>
    <g id="xtick_10">
     <g id="line2d_42">
      <g>
       <use style="stroke:#000000;stroke-width:0.6;" x="170.177334" xlink:href="#m8b633bd114" y="278.275665"/>
      </g>
     </g>
    </g>
    <g id="xtick_11">
     <g id="line2d_43">
      <g>
       <use style="stroke:#000000;stroke-width:0.6;" x="206.81511" xlink:href="#m8b633bd114" y="278.275665"/>
      </g>
     </g>
    </g>
    <g id="xtick_12">
     <g id="line2d_44">
      <g>
       <use style="stroke:#000000;stroke-width:0.6;" x="225.418988" xlink:href="#m8b633bd114" y="278.275665"/>
      </g>
     </g>
    </g>
    <g id="xtick_13">
     <g id="line2d_45">
      <g>
       <use style="stroke:#000000;stroke-width:0.6;" x="238.618649" xlink:href="#m8b633bd114" y="278.275665"/>
      </g>
     </g>
    </g>
    <g id="xtick_14">
     <g id="line2d_46">
      <g>
       <use style="stroke:#000000;stroke-width:0.6;" x="248.857102" xlink:href="#m8b633bd114" y="278.275665"/>
      </g>
     </g>
    </g>
    <g id="xtick_15">
     <g id="line2d_47">
      <g>
       <use style="stroke:#000000;stroke-width:0.6;" x="257.222527" xlink:href="#m8b633bd114" y="278.275665"/>
      </g>
     </g>
    </g>
    <g id="xtick_16">
     <g id="line2d_48">
      <g>
       <use style="stroke:#000000;stroke-width:0.6;" x="264.295393" xlink:href="#m8b633bd114" y="278.275665"/>
      </g>
     </g>
    </g>
    <g id="xtick_17">
     <g id="line2d_49">
      <g>
       <use style="stroke:#000000;stroke-width:0.6;" x="270.422189" xlink:href="#m8b633bd114" y="278.275665"/>
      </g>
     </g>
    </g>
    <g id="xtick_18">
     <g id="line2d_50">
      <g>
       <use style="stroke:#000000;stroke-width:0.6;" x="275.826405" xlink:href="#m8b633bd114" y="278.275665"/>
      </g>
     </g>
    </g>
    <g id="xtick_19">
     <g id="line2d_51">
      <g>
       <use style="stroke:#000000;stroke-width:0.6;" x="312.464181" xlink:href="#m8b633bd114" y="278.275665"/>
      </g>
     </g>
    </g>
    <g id="xtick_20">
     <g id="line2d_52">
      <g>
       <use style="stroke:#000000;stroke-width:0.6;" x="331.068059" xlink:href="#m8b633bd114" y="278.275665"/>
      </g>
     </g>
    </g>
    <g id="xtick_21">
     <g id="line2d_53">
      <g>
       <use style="stroke:#000000;stroke-width:0.6;" x="344.26772" xlink:href="#m8b633bd114" y="278.275665"/>
      </g>
     </g>
    </g>
    <g id="xtick_22">
     <g id="line2d_54">
      <g>
       <use style="stroke:#000000;stroke-width:0.6;" x="354.506173" xlink:href="#m8b633bd114" y="278.275665"/>
      </g>
     </g>
    </g>
    <g id="xtick_23">
     <g id="line2d_55">
      <g>
       <use style="stroke:#000000;stroke-width:0.6;" x="362.871598" xlink:href="#m8b633bd114" y="278.275665"/>
      </g>
     </g>
    </g>
    <g id="xtick_24">
     <g id="line2d_56">
      <g>
       <use style="stroke:#000000;stroke-width:0.6;" x="369.944464" xlink:href="#m8b633bd114" y="278.275665"/>
      </g>
     </g>
    </g>
    <g id="xtick_25">
     <g id="line2d_57">
      <g>
       <use style="stroke:#000000;stroke-width:0.6;" x="376.071259" xlink:href="#m8b633bd114" y="278.275665"/>
      </g>
     </g>
    </g>
    <g id="xtick_26">
     <g id="line2d_58">
      <g>
       <use style="stroke:#000000;stroke-width:0.6;" x="381.475476" xlink:href="#m8b633bd114" y="278.275665"/>
      </g>
     </g>
    </g>
    <g id="xtick_27">
     <g id="line2d_59">
      <g>
       <use style="stroke:#000000;stroke-width:0.6;" x="418.113252" xlink:href="#m8b633bd114" y="278.275665"/>
      </g>
     </g>
    </g>
    <g id="text_3">
     <!-- log10 of FEvals / DIM -->
     <defs>
      <path d="M 9.421875 75.984375 
L 18.40625 75.984375 
L 18.40625 0 
L 9.421875 0 
z
" id="DejaVuSans-6c"/>
      <path d="M 30.609375 48.390625 
Q 23.390625 48.390625 19.1875 42.75 
Q 14.984375 37.109375 14.984375 27.296875 
Q 14.984375 17.484375 19.15625 11.84375 
Q 23.34375 6.203125 30.609375 6.203125 
Q 37.796875 6.203125 41.984375 11.859375 
Q 46.1875 17.53125 46.1875 27.296875 
Q 46.1875 37.015625 41.984375 42.703125 
Q 37.796875 48.390625 30.609375 48.390625 
z
M 30.609375 56 
Q 42.328125 56 49.015625 48.375 
Q 55.71875 40.765625 55.71875 27.296875 
Q 55.71875 13.875 49.015625 6.21875 
Q 42.328125 -1.421875 30.609375 -1.421875 
Q 18.84375 -1.421875 12.171875 6.21875 
Q 5.515625 13.875 5.515625 27.296875 
Q 5.515625 40.765625 12.171875 48.375 
Q 18.84375 56 30.609375 56 
z
" id="DejaVuSans-6f"/>
      <path d="M 45.40625 27.984375 
Q 45.40625 37.75 41.375 43.109375 
Q 37.359375 48.484375 30.078125 48.484375 
Q 22.859375 48.484375 18.828125 43.109375 
Q 14.796875 37.75 14.796875 27.984375 
Q 14.796875 18.265625 18.828125 12.890625 
Q 22.859375 7.515625 30.078125 7.515625 
Q 37.359375 7.515625 41.375 12.890625 
Q 45.40625 18.265625 45.40625 27.984375 
z
M 54.390625 6.78125 
Q 54.390625 -7.171875 48.1875 -13.984375 
Q 42 -20.796875 29.203125 -20.796875 
Q 24.46875 -20.796875 20.265625 -20.09375 
Q 16.0625 -19.390625 12.109375 -17.921875 
L 12.109375 -9.1875 
Q 16.0625 -11.328125 19.921875 -12.34375 
Q 23.78125 -13.375 27.78125 -13.375 
Q 36.625 -13.375 41.015625 -8.765625 
Q 45.40625 -4.15625 45.40625 5.171875 
L 45.40625 9.625 
Q 42.625 4.78125 38.28125 2.390625 
Q 33.9375 0 27.875 0 
Q 17.828125 0 11.671875 7.65625 
Q 5.515625 15.328125 5.515625 27.984375 
Q 5.515625 40.671875 11.671875 48.328125 
Q 17.828125 56 27.875 56 
Q 33.9375 56 38.28125 53.609375 
Q 42.625 51.21875 45.40625 46.390625 
L 45.40625 54.6875 
L 54.390625 54.6875 
z
" id="DejaVuSans-67"/>
      <path d="M 31.78125 66.40625 
Q 24.171875 66.40625 20.328125 58.90625 
Q 16.5 51.421875 16.5 36.375 
Q 16.5 21.390625 20.328125 13.890625 
Q 24.171875 6.390625 31.78125 6.390625 
Q 39.453125 6.390625 43.28125 13.890625 
Q 47.125 21.390625 47.125 36.375 
Q 47.125 51.421875 43.28125 58.90625 
Q 39.453125 66.40625 31.78125 66.40625 
z
M 31.78125 74.21875 
Q 44.046875 74.21875 50.515625 64.515625 
Q 56.984375 54.828125 56.984375 36.375 
Q 56.984375 17.96875 50.515625 8.265625 
Q 44.046875 -1.421875 31.78125 -1.421875 
Q 19.53125 -1.421875 13.0625 8.265625 
Q 6.59375 17.96875 6.59375 36.375 
Q 6.59375 54.828125 13.0625 64.515625 
Q 19.53125 74.21875 31.78125 74.21875 
z
" id="DejaVuSans-30"/>
      <path id="DejaVuSans-20"/>
      <path d="M 37.109375 75.984375 
L 37.109375 68.5 
L 28.515625 68.5 
Q 23.6875 68.5 21.796875 66.546875 
Q 19.921875 64.59375 19.921875 59.515625 
L 19.921875 54.6875 
L 34.71875 54.6875 
L 34.71875 47.703125 
L 19.921875 47.703125 
L 19.921875 0 
L 10.890625 0 
L 10.890625 47.703125 
L 2.296875 47.703125 
L 2.296875 54.6875 
L 10.890625 54.6875 
L 10.890625 58.5 
Q 10.890625 67.625 15.140625 71.796875 
Q 19.390625 75.984375 28.609375 75.984375 
z
" id="DejaVuSans-66"/>
      <path d="M 9.8125 72.90625 
L 51.703125 72.90625 
L 51.703125 64.59375 
L 19.671875 64.59375 
L 19.671875 43.109375 
L 48.578125 43.109375 
L 48.578125 34.8125 
L 19.671875 34.8125 
L 19.671875 0 
L 9.8125 0 
z
" id="DejaVuSans-46"/>
      <path d="M 9.8125 72.90625 
L 55.90625 72.90625 
L 55.90625 64.59375 
L 19.671875 64.59375 
L 19.671875 43.015625 
L 54.390625 43.015625 
L 54.390625 34.71875 
L 19.671875 34.71875 
L 19.671875 8.296875 
L 56.78125 8.296875 
L 56.78125 0 
L 9.8125 0 
z
" id="DejaVuSans-45"/>
      <path d="M 2.984375 54.6875 
L 12.5 54.6875 
L 29.59375 8.796875 
L 46.6875 54.6875 
L 56.203125 54.6875 
L 35.6875 0 
L 23.484375 0 
z
" id="DejaVuSans-76"/>
      <path d="M 34.28125 27.484375 
Q 23.390625 27.484375 19.1875 25 
Q 14.984375 22.515625 14.984375 16.5 
Q 14.984375 11.71875 18.140625 8.90625 
Q 21.296875 6.109375 26.703125 6.109375 
Q 34.1875 6.109375 38.703125 11.40625 
Q 43.21875 16.703125 43.21875 25.484375 
L 43.21875 27.484375 
z
M 52.203125 31.203125 
L 52.203125 0 
L 43.21875 0 
L 43.21875 8.296875 
Q 40.140625 3.328125 35.546875 0.953125 
Q 30.953125 -1.421875 24.3125 -1.421875 
Q 15.921875 -1.421875 10.953125 3.296875 
Q 6 8.015625 6 15.921875 
Q 6 25.140625 12.171875 29.828125 
Q 18.359375 34.515625 30.609375 34.515625 
L 43.21875 34.515625 
L 43.21875 35.40625 
Q 43.21875 41.609375 39.140625 45 
Q 35.0625 48.390625 27.6875 48.390625 
Q 23 48.390625 18.546875 47.265625 
Q 14.109375 46.140625 10.015625 43.890625 
L 10.015625 52.203125 
Q 14.9375 54.109375 19.578125 55.046875 
Q 24.21875 56 28.609375 56 
Q 40.484375 56 46.34375 49.84375 
Q 52.203125 43.703125 52.203125 31.203125 
z
" id="DejaVuSans-61"/>
      <path d="M 44.28125 53.078125 
L 44.28125 44.578125 
Q 40.484375 46.53125 36.375 47.5 
Q 32.28125 48.484375 27.875 48.484375 
Q 21.1875 48.484375 17.84375 46.4375 
Q 14.5 44.390625 14.5 40.28125 
Q 14.5 37.15625 16.890625 35.375 
Q 19.28125 33.59375 26.515625 31.984375 
L 29.59375 31.296875 
Q 39.15625 29.25 43.1875 25.515625 
Q 47.21875 21.78125 47.21875 15.09375 
Q 47.21875 7.46875 41.1875 3.015625 
Q 35.15625 -1.421875 24.609375 -1.421875 
Q 20.21875 -1.421875 15.453125 -0.5625 
Q 10.6875 0.296875 5.421875 2 
L 5.421875 11.28125 
Q 10.40625 8.6875 15.234375 7.390625 
Q 20.0625 6.109375 24.8125 6.109375 
Q 31.15625 6.109375 34.5625 8.28125 
Q 37.984375 10.453125 37.984375 14.40625 
Q 37.984375 18.0625 35.515625 20.015625 
Q 33.0625 21.96875 24.703125 23.78125 
L 21.578125 24.515625 
Q 13.234375 26.265625 9.515625 29.90625 
Q 5.8125 33.546875 5.8125 39.890625 
Q 5.8125 47.609375 11.28125 51.796875 
Q 16.75 56 26.8125 56 
Q 31.78125 56 36.171875 55.265625 
Q 40.578125 54.546875 44.28125 53.078125 
z
" id="DejaVuSans-73"/>
      <path d="M 25.390625 72.90625 
L 33.6875 72.90625 
L 8.296875 -9.28125 
L 0 -9.28125 
z
" id="DejaVuSans-2f"/>
      <path d="M 19.671875 64.796875 
L 19.671875 8.109375 
L 31.59375 8.109375 
Q 46.6875 8.109375 53.6875 14.9375 
Q 60.6875 21.78125 60.6875 36.53125 
Q 60.6875 51.171875 53.6875 57.984375 
Q 46.6875 64.796875 31.59375 64.796875 
z
M 9.8125 72.90625 
L 30.078125 72.90625 
Q 51.265625 72.90625 61.171875 64.09375 
Q 71.09375 55.28125 71.09375 36.53125 
Q 71.09375 17.671875 61.125 8.828125 
Q 51.171875 0 30.078125 0 
L 9.8125 0 
z
" id="DejaVuSans-44"/>
      <path d="M 9.8125 72.90625 
L 19.671875 72.90625 
L 19.671875 0 
L 9.8125 0 
z
" id="DejaVuSans-49"/>
      <path d="M 9.8125 72.90625 
L 24.515625 72.90625 
L 43.109375 23.296875 
L 61.8125 72.90625 
L 76.515625 72.90625 
L 76.515625 0 
L 66.890625 0 
L 66.890625 64.015625 
L 48.09375 14.015625 
L 38.1875 14.015625 
L 19.390625 64.015625 
L 19.390625 0 
L 9.8125 0 
z
" id="DejaVuSans-4d"/>
     </defs>
     <g transform="translate(142.849063 323.82879)scale(0.2 -0.2)">
      <use xlink:href="#DejaVuSans-6c"/>
      <use x="27.783203" xlink:href="#DejaVuSans-6f"/>
      <use x="88.964844" xlink:href="#DejaVuSans-67"/>
      <use x="152.441406" xlink:href="#DejaVuSans-31"/>
      <use x="216.064453" xlink:href="#DejaVuSans-30"/>
      <use x="279.6875" xlink:href="#DejaVuSans-20"/>
      <use x="311.474609" xlink:href="#DejaVuSans-6f"/>
      <use x="372.65625" xlink:href="#DejaVuSans-66"/>
      <use x="407.861328" xlink:href="#DejaVuSans-20"/>
      <use x="439.648438" xlink:href="#DejaVuSans-46"/>
      <use x="497.167969" xlink:href="#DejaVuSans-45"/>
      <use x="560.351562" xlink:href="#DejaVuSans-76"/>
      <use x="619.53125" xlink:href="#DejaVuSans-61"/>
      <use x="680.810547" xlink:href="#DejaVuSans-6c"/>
      <use x="708.59375" xlink:href="#DejaVuSans-73"/>
      <use x="760.693359" xlink:href="#DejaVuSans-20"/>
      <use x="792.480469" xlink:href="#DejaVuSans-2f"/>
      <use x="826.171875" xlink:href="#DejaVuSans-20"/>
      <use x="857.958984" xlink:href="#DejaVuSans-44"/>
      <use x="934.960938" xlink:href="#DejaVuSans-49"/>
      <use x="964.453125" xlink:href="#DejaVuSans-4d"/>
     </g>
    </g>
   </g>
   <g id="matplotlib.axis_2">
    <g id="ytick_1">
     <g id="line2d_60">
      <path clip-path="url(#p71ca00bdc7)" d="M 69.3625 278.275665 
L 426.4825 278.275665 
" style="fill:none;stroke:#b0b0b0;stroke-linecap:square;stroke-width:0.8;"/>
     </g>
     <g id="line2d_61">
      <defs>
       <path d="M 0 0 
L -3.5 0 
" id="mca6e63f0ce" style="stroke:#000000;stroke-width:0.8;"/>
      </defs>
      <g>
       <use style="stroke:#000000;stroke-width:0.8;" x="69.3625" xlink:href="#mca6e63f0ce" y="278.275665"/>
      </g>
     </g>
     <g id="text_4">
      <!-- 0.0 -->
      <defs>
       <path d="M 10.6875 12.40625 
L 21 12.40625 
L 21 0 
L 10.6875 0 
z
" id="DejaVuSans-2e"/>
      </defs>
      <g transform="translate(30.55625 285.874103)scale(0.2 -0.2)">
       <use xlink:href="#DejaVuSans-30"/>
       <use x="63.623047" xlink:href="#DejaVuSans-2e"/>
       <use x="95.410156" xlink:href="#DejaVuSans-30"/>
      </g>
     </g>
    </g>
    <g id="ytick_2">
     <g id="line2d_62">
      <path clip-path="url(#p71ca00bdc7)" d="M 69.3625 225.58022 
L 426.4825 225.58022 
" style="fill:none;stroke:#b0b0b0;stroke-linecap:square;stroke-width:0.8;"/>
     </g>
     <g id="line2d_63">
      <g>
       <use style="stroke:#000000;stroke-width:0.8;" x="69.3625" xlink:href="#mca6e63f0ce" y="225.58022"/>
      </g>
     </g>
     <g id="text_5">
      <!-- 0.2 -->
      <defs>
       <path d="M 19.1875 8.296875 
L 53.609375 8.296875 
L 53.609375 0 
L 7.328125 0 
L 7.328125 8.296875 
Q 12.9375 14.109375 22.625 23.890625 
Q 32.328125 33.6875 34.8125 36.53125 
Q 39.546875 41.84375 41.421875 45.53125 
Q 43.3125 49.21875 43.3125 52.78125 
Q 43.3125 58.59375 39.234375 62.25 
Q 35.15625 65.921875 28.609375 65.921875 
Q 23.96875 65.921875 18.8125 64.3125 
Q 13.671875 62.703125 7.8125 59.421875 
L 7.8125 69.390625 
Q 13.765625 71.78125 18.9375 73 
Q 24.125 74.21875 28.421875 74.21875 
Q 39.75 74.21875 46.484375 68.546875 
Q 53.21875 62.890625 53.21875 53.421875 
Q 53.21875 48.921875 51.53125 44.890625 
Q 49.859375 40.875 45.40625 35.40625 
Q 44.1875 33.984375 37.640625 27.21875 
Q 31.109375 20.453125 19.1875 8.296875 
z
" id="DejaVuSans-32"/>
      </defs>
      <g transform="translate(30.55625 233.178657)scale(0.2 -0.2)">
       <use xlink:href="#DejaVuSans-30"/>
       <use x="63.623047" xlink:href="#DejaVuSans-2e"/>
       <use x="95.410156" xlink:href="#DejaVuSans-32"/>
      </g>
     </g>
    </g>
    <g id="ytick_3">
     <g id="line2d_64">
      <path clip-path="url(#p71ca00bdc7)" d="M 69.3625 172.884774 
L 426.4825 172.884774 
" style="fill:none;stroke:#b0b0b0;stroke-linecap:square;stroke-width:0.8;"/>
     </g>
     <g id="line2d_65">
      <g>
       <use style="stroke:#000000;stroke-width:0.8;" x="69.3625" xlink:href="#mca6e63f0ce" y="172.884774"/>
      </g>
     </g>
     <g id="text_6">
      <!-- 0.4 -->
      <defs>
       <path d="M 37.796875 64.3125 
L 12.890625 25.390625 
L 37.796875 25.390625 
z
M 35.203125 72.90625 
L 47.609375 72.90625 
L 47.609375 25.390625 
L 58.015625 25.390625 
L 58.015625 17.1875 
L 47.609375 17.1875 
L 47.609375 0 
L 37.796875 0 
L 37.796875 17.1875 
L 4.890625 17.1875 
L 4.890625 26.703125 
z
" id="DejaVuSans-34"/>
      </defs>
      <g transform="translate(30.55625 180.483212)scale(0.2 -0.2)">
       <use xlink:href="#DejaVuSans-30"/>
       <use x="63.623047" xlink:href="#DejaVuSans-2e"/>
       <use x="95.410156" xlink:href="#DejaVuSans-34"/>
      </g>
     </g>
    </g>
    <g id="ytick_4">
     <g id="line2d_66">
      <path clip-path="url(#p71ca00bdc7)" d="M 69.3625 120.189329 
L 426.4825 120.189329 
" style="fill:none;stroke:#b0b0b0;stroke-linecap:square;stroke-width:0.8;"/>
     </g>
     <g id="line2d_67">
      <g>
       <use style="stroke:#000000;stroke-width:0.8;" x="69.3625" xlink:href="#mca6e63f0ce" y="120.189329"/>
      </g>
     </g>
     <g id="text_7">
      <!-- 0.6 -->
      <defs>
       <path d="M 33.015625 40.375 
Q 26.375 40.375 22.484375 35.828125 
Q 18.609375 31.296875 18.609375 23.390625 
Q 18.609375 15.53125 22.484375 10.953125 
Q 26.375 6.390625 33.015625 6.390625 
Q 39.65625 6.390625 43.53125 10.953125 
Q 47.40625 15.53125 47.40625 23.390625 
Q 47.40625 31.296875 43.53125 35.828125 
Q 39.65625 40.375 33.015625 40.375 
z
M 52.59375 71.296875 
L 52.59375 62.3125 
Q 48.875 64.0625 45.09375 64.984375 
Q 41.3125 65.921875 37.59375 65.921875 
Q 27.828125 65.921875 22.671875 59.328125 
Q 17.53125 52.734375 16.796875 39.40625 
Q 19.671875 43.65625 24.015625 45.921875 
Q 28.375 48.1875 33.59375 48.1875 
Q 44.578125 48.1875 50.953125 41.515625 
Q 57.328125 34.859375 57.328125 23.390625 
Q 57.328125 12.15625 50.6875 5.359375 
Q 44.046875 -1.421875 33.015625 -1.421875 
Q 20.359375 -1.421875 13.671875 8.265625 
Q 6.984375 17.96875 6.984375 36.375 
Q 6.984375 53.65625 15.1875 63.9375 
Q 23.390625 74.21875 37.203125 74.21875 
Q 40.921875 74.21875 44.703125 73.484375 
Q 48.484375 72.75 52.59375 71.296875 
z
" id="DejaVuSans-36"/>
      </defs>
      <g transform="translate(30.55625 127.787766)scale(0.2 -0.2)">
       <use xlink:href="#DejaVuSans-30"/>
       <use x="63.623047" xlink:href="#DejaVuSans-2e"/>
       <use x="95.410156" xlink:href="#DejaVuSans-36"/>
      </g>
     </g>
    </g>
    <g id="ytick_5">
     <g id="line2d_68">
      <path clip-path="url(#p71ca00bdc7)" d="M 69.3625 67.493883 
L 426.4825 67.493883 
" style="fill:none;stroke:#b0b0b0;stroke-linecap:square;stroke-width:0.8;"/>
     </g>
     <g id="line2d_69">
      <g>
       <use style="stroke:#000000;stroke-width:0.8;" x="69.3625" xlink:href="#mca6e63f0ce" y="67.493883"/>
      </g>
     </g>
     <g id="text_8">
      <!-- 0.8 -->
      <defs>
       <path d="M 31.78125 34.625 
Q 24.75 34.625 20.71875 30.859375 
Q 16.703125 27.09375 16.703125 20.515625 
Q 16.703125 13.921875 20.71875 10.15625 
Q 24.75 6.390625 31.78125 6.390625 
Q 38.8125 6.390625 42.859375 10.171875 
Q 46.921875 13.96875 46.921875 20.515625 
Q 46.921875 27.09375 42.890625 30.859375 
Q 38.875 34.625 31.78125 34.625 
z
M 21.921875 38.8125 
Q 15.578125 40.375 12.03125 44.71875 
Q 8.5 49.078125 8.5 55.328125 
Q 8.5 64.0625 14.71875 69.140625 
Q 20.953125 74.21875 31.78125 74.21875 
Q 42.671875 74.21875 48.875 69.140625 
Q 55.078125 64.0625 55.078125 55.328125 
Q 55.078125 49.078125 51.53125 44.71875 
Q 48 40.375 41.703125 38.8125 
Q 48.828125 37.15625 52.796875 32.3125 
Q 56.78125 27.484375 56.78125 20.515625 
Q 56.78125 9.90625 50.3125 4.234375 
Q 43.84375 -1.421875 31.78125 -1.421875 
Q 19.734375 -1.421875 13.25 4.234375 
Q 6.78125 9.90625 6.78125 20.515625 
Q 6.78125 27.484375 10.78125 32.3125 
Q 14.796875 37.15625 21.921875 38.8125 
z
M 18.3125 54.390625 
Q 18.3125 48.734375 21.84375 45.5625 
Q 25.390625 42.390625 31.78125 42.390625 
Q 38.140625 42.390625 41.71875 45.5625 
Q 45.3125 48.734375 45.3125 54.390625 
Q 45.3125 60.0625 41.71875 63.234375 
Q 38.140625 66.40625 31.78125 66.40625 
Q 25.390625 66.40625 21.84375 63.234375 
Q 18.3125 60.0625 18.3125 54.390625 
z
" id="DejaVuSans-38"/>
      </defs>
      <g transform="translate(30.55625 75.092321)scale(0.2 -0.2)">
       <use xlink:href="#DejaVuSans-30"/>
       <use x="63.623047" xlink:href="#DejaVuSans-2e"/>
       <use x="95.410156" xlink:href="#DejaVuSans-38"/>
      </g>
     </g>
    </g>
    <g id="ytick_6">
     <g id="line2d_70">
      <path clip-path="url(#p71ca00bdc7)" d="M 69.3625 14.798437 
L 426.4825 14.798437 
" style="fill:none;stroke:#b0b0b0;stroke-linecap:square;stroke-width:0.8;"/>
     </g>
     <g id="line2d_71">
      <g>
       <use style="stroke:#000000;stroke-width:0.8;" x="69.3625" xlink:href="#mca6e63f0ce" y="14.798437"/>
      </g>
     </g>
     <g id="text_9">
      <!-- 1.0 -->
      <g transform="translate(30.55625 22.396875)scale(0.2 -0.2)">
       <use xlink:href="#DejaVuSans-31"/>
       <use x="63.623047" xlink:href="#DejaVuSans-2e"/>
       <use x="95.410156" xlink:href="#DejaVuSans-30"/>
      </g>
     </g>
    </g>
    <g id="text_10">
     <!-- proportion of trials -->
     <defs>
      <path d="M 18.109375 8.203125 
L 18.109375 -20.796875 
L 9.078125 -20.796875 
L 9.078125 54.6875 
L 18.109375 54.6875 
L 18.109375 46.390625 
Q 20.953125 51.265625 25.265625 53.625 
Q 29.59375 56 35.59375 56 
Q 45.5625 56 51.78125 48.09375 
Q 58.015625 40.1875 58.015625 27.296875 
Q 58.015625 14.40625 51.78125 6.484375 
Q 45.5625 -1.421875 35.59375 -1.421875 
Q 29.59375 -1.421875 25.265625 0.953125 
Q 20.953125 3.328125 18.109375 8.203125 
z
M 48.6875 27.296875 
Q 48.6875 37.203125 44.609375 42.84375 
Q 40.53125 48.484375 33.40625 48.484375 
Q 26.265625 48.484375 22.1875 42.84375 
Q 18.109375 37.203125 18.109375 27.296875 
Q 18.109375 17.390625 22.1875 11.75 
Q 26.265625 6.109375 33.40625 6.109375 
Q 40.53125 6.109375 44.609375 11.75 
Q 48.6875 17.390625 48.6875 27.296875 
z
" id="DejaVuSans-70"/>
      <path d="M 41.109375 46.296875 
Q 39.59375 47.171875 37.8125 47.578125 
Q 36.03125 48 33.890625 48 
Q 26.265625 48 22.1875 43.046875 
Q 18.109375 38.09375 18.109375 28.8125 
L 18.109375 0 
L 9.078125 0 
L 9.078125 54.6875 
L 18.109375 54.6875 
L 18.109375 46.1875 
Q 20.953125 51.171875 25.484375 53.578125 
Q 30.03125 56 36.53125 56 
Q 37.453125 56 38.578125 55.875 
Q 39.703125 55.765625 41.0625 55.515625 
z
" id="DejaVuSans-72"/>
      <path d="M 18.3125 70.21875 
L 18.3125 54.6875 
L 36.8125 54.6875 
L 36.8125 47.703125 
L 18.3125 47.703125 
L 18.3125 18.015625 
Q 18.3125 11.328125 20.140625 9.421875 
Q 21.96875 7.515625 27.59375 7.515625 
L 36.8125 7.515625 
L 36.8125 0 
L 27.59375 0 
Q 17.1875 0 13.234375 3.875 
Q 9.28125 7.765625 9.28125 18.015625 
L 9.28125 47.703125 
L 2.6875 47.703125 
L 2.6875 54.6875 
L 9.28125 54.6875 
L 9.28125 70.21875 
z
" id="DejaVuSans-74"/>
      <path d="M 9.421875 54.6875 
L 18.40625 54.6875 
L 18.40625 0 
L 9.421875 0 
z
M 9.421875 75.984375 
L 18.40625 75.984375 
L 18.40625 64.59375 
L 9.421875 64.59375 
z
" id="DejaVuSans-69"/>
      <path d="M 54.890625 33.015625 
L 54.890625 0 
L 45.90625 0 
L 45.90625 32.71875 
Q 45.90625 40.484375 42.875 44.328125 
Q 39.84375 48.1875 33.796875 48.1875 
Q 26.515625 48.1875 22.3125 43.546875 
Q 18.109375 38.921875 18.109375 30.90625 
L 18.109375 0 
L 9.078125 0 
L 9.078125 54.6875 
L 18.109375 54.6875 
L 18.109375 46.1875 
Q 21.34375 51.125 25.703125 53.5625 
Q 30.078125 56 35.796875 56 
Q 45.21875 56 50.046875 50.171875 
Q 54.890625 44.34375 54.890625 33.015625 
z
" id="DejaVuSans-6e"/>
     </defs>
     <g transform="translate(22.396875 238.44779)rotate(-90)scale(0.2 -0.2)">
      <use xlink:href="#DejaVuSans-70"/>
      <use x="63.476562" xlink:href="#DejaVuSans-72"/>
      <use x="104.558594" xlink:href="#DejaVuSans-6f"/>
      <use x="165.740234" xlink:href="#DejaVuSans-70"/>
      <use x="229.216797" xlink:href="#DejaVuSans-6f"/>
      <use x="290.398438" xlink:href="#DejaVuSans-72"/>
      <use x="331.511719" xlink:href="#DejaVuSans-74"/>
      <use x="370.720703" xlink:href="#DejaVuSans-69"/>
      <use x="398.503906" xlink:href="#DejaVuSans-6f"/>
      <use x="459.685547" xlink:href="#DejaVuSans-6e"/>
      <use x="523.064453" xlink:href="#DejaVuSans-20"/>
      <use x="554.851562" xlink:href="#DejaVuSans-6f"/>
      <use x="616.033203" xlink:href="#DejaVuSans-66"/>
      <use x="651.238281" xlink:href="#DejaVuSans-20"/>
      <use x="683.025391" xlink:href="#DejaVuSans-74"/>
      <use x="722.234375" xlink:href="#DejaVuSans-72"/>
      <use x="763.347656" xlink:href="#DejaVuSans-69"/>
      <use x="791.130859" xlink:href="#DejaVuSans-61"/>
      <use x="852.410156" xlink:href="#DejaVuSans-6c"/>
      <use x="880.193359" xlink:href="#DejaVuSans-73"/>
     </g>
    </g>
   </g>
   <g id="line2d_72">
    <path clip-path="url(#p71ca00bdc7)" d="M 77.727925 278.275665 
L 77.727925 273.884378 
L 101.166039 273.884378 
L 101.166039 269.493091 
L 101.166039 269.493091 
L 101.166039 265.101804 
L 109.531464 265.101804 
L 109.531464 260.710517 
L 113.204049 260.710517 
L 113.204049 256.31923 
L 125.512754 256.31923 
L 125.512754 251.927942 
L 128.135342 251.927942 
L 128.135342 247.536655 
L 128.135342 247.536655 
L 128.135342 243.145368 
L 132.969579 243.145368 
L 132.969579 238.754081 
L 137.342677 238.754081 
L 137.342677 234.362794 
L 139.382249 234.362794 
L 139.382249 229.971507 
L 145.007588 229.971507 
L 145.007588 225.58022 
L 162.419638 225.58022 
L 162.419638 221.188933 
L 167.011748 221.188933 
L 167.011748 216.797645 
L 167.011748 216.797645 
L 167.011748 212.406358 
L 173.138543 212.406358 
L 173.138543 208.015071 
L 185.615626 208.015071 
L 185.615626 203.623784 
L 193.615449 203.623784 
L 193.615449 199.232497 
L 197.709624 199.232497 
L 197.709624 194.84121 
L 198.815287 194.84121 
L 198.815287 190.449923 
L 204.46163 190.449923 
L 204.46163 186.058636 
L 204.942082 186.058636 
L 204.942082 181.667348 
L 212.014948 181.667348 
L 212.014948 177.276061 
L 212.827055 177.276061 
L 212.827055 172.884774 
L 216.313502 172.884774 
L 216.313502 168.493487 
L 217.781877 168.493487 
L 217.781877 164.1022 
L 219.553634 164.1022 
L 219.553634 159.710913 
L 222.253401 159.710913 
L 222.253401 155.319626 
L 223.86349 155.319626 
L 223.86349 150.928338 
L 225.418988 150.928338 
L 225.418988 146.537051 
L 227.511726 146.537051 
L 227.511726 142.145764 
L 227.803047 142.145764 
L 227.803047 137.754477 
L 230.069325 137.754477 
L 230.069325 133.36319 
L 230.344898 133.36319 
L 230.344898 128.971903 
L 231.698472 128.971903 
L 231.698472 124.580616 
L 232.228915 124.580616 
L 232.228915 120.189329 
L 235.288902 120.189329 
L 235.288902 115.798041 
L 236.265169 115.798041 
L 236.265169 111.406754 
L 237.925193 111.406754 
L 237.925193 107.015467 
L 238.38866 107.015467 
L 238.38866 102.62418 
L 238.847492 102.62418 
L 238.847492 98.232893 
L 240.197083 98.232893 
L 240.197083 93.841606 
L 240.418206 93.841606 
L 240.418206 89.450319 
L 241.292191 89.450319 
L 241.292191 85.059032 
L 242.782714 85.059032 
L 242.782714 80.667744 
L 244.428911 80.667744 
L 244.428911 76.276457 
L 244.831394 76.276457 
L 244.831394 71.88517 
L 244.831394 71.88517 
L 244.831394 67.493883 
L 244.831394 67.493883 
L 244.831394 63.102596 
L 254.545927 63.102596 
L 254.545927 58.711309 
L 254.545927 58.711309 
L 254.545927 54.320022 
L 254.869047 54.320022 
L 254.869047 49.928735 
L 255.349499 49.928735 
L 255.349499 45.537447 
L 256.606641 45.537447 
L 256.606641 41.14616 
L 258.430039 41.14616 
L 258.430039 36.754873 
L 262.694668 36.754873 
L 262.694668 32.363586 
L 262.830215 32.363586 
L 262.830215 27.972299 
L 263.368436 27.972299 
L 263.368436 23.581012 
L 278.113562 23.581012 
L 278.113562 19.189725 
L 281.388955 19.189725 
L 281.388955 14.798437 
L 281.388955 14.798437 
L 281.388955 14.798437 
L 426.4825 14.798437 
" style="fill:none;stroke:#000000;stroke-linecap:square;stroke-width:1.5;"/>
   </g>
   <g id="line2d_73"/>
   <g id="line2d_74">
    <path clip-path="url(#p71ca00bdc7)" d="M 273.419229 278.275665 
L 273.419229 273.884378 
L 282.811792 273.884378 
L 282.811792 269.493091 
L 287.073312 269.493091 
L 287.073312 265.101804 
L 287.549608 265.101804 
L 287.549608 260.710517 
L 289.482616 260.710517 
L 289.482616 256.31923 
L 289.709198 256.31923 
L 289.709198 251.927942 
L 291.337468 251.927942 
L 291.337468 247.536655 
L 295.372192 247.536655 
L 295.372192 243.145368 
L 295.967651 243.145368 
L 295.967651 238.754081 
L 297.518767 238.754081 
L 297.518767 234.362794 
L 298.586588 234.362794 
L 298.586588 229.971507 
L 300.472031 229.971507 
L 300.472031 225.58022 
L 301.76459 225.58022 
L 301.76459 221.188933 
L 303.526252 221.188933 
L 303.526252 216.797645 
L 311.817283 216.797645 
L 311.817283 212.406358 
L 318.071869 212.406358 
L 318.071869 208.015071 
L 327.441334 208.015071 
L 327.441334 203.623784 
L 357.197025 203.623784 
L 357.197025 199.232497 
L 357.6791 199.232497 
L 357.6791 194.84121 
L 362.856301 194.84121 
L 362.856301 190.449923 
L 369.151082 190.449923 
L 369.151082 186.058636 
L 371.630434 186.058636 
L 371.630434 181.667348 
L 375.702721 181.667348 
L 375.702721 177.276061 
L 377.371783 177.276061 
L 377.371783 172.884774 
L 378.939174 172.884774 
L 378.939174 168.493487 
L 383.068685 168.493487 
L 383.068685 164.1022 
L 384.541712 164.1022 
L 384.541712 159.710913 
L 387.478476 159.710913 
L 387.478476 155.319626 
L 390.607668 155.319626 
L 390.607668 150.928338 
L 392.103801 150.928338 
L 392.103801 146.537051 
L 392.337753 146.537051 
L 392.337753 142.145764 
L 393.615334 142.145764 
L 393.615334 137.754477 
L 394.782072 137.754477 
L 394.782072 133.36319 
L 398.213406 133.36319 
L 398.213406 128.971903 
L 400.894561 128.971903 
L 400.894561 124.580616 
L 401.392678 124.580616 
L 401.392678 120.189329 
L 401.399283 120.189329 
L 401.399283 115.798041 
L 402.159101 115.798041 
L 402.159101 111.406754 
L 402.327693 111.406754 
L 402.327693 107.015467 
L 402.861781 107.015467 
L 402.861781 102.62418 
L 404.526547 102.62418 
L 404.526547 98.232893 
L 404.901353 98.232893 
L 404.901353 93.841606 
L 404.901353 93.841606 
L 404.901353 93.841606 
L 426.4825 93.841606 
" style="fill:none;stroke:#00bfbf;stroke-linecap:square;stroke-width:1.5;"/>
   </g>
   <g id="line2d_75"/>
   <g id="line2d_76">
    <path clip-path="url(#p71ca00bdc7)" d="M 303.190523 278.275665 
L 303.190523 273.884378 
L 316.83728 273.884378 
L 316.83728 269.493091 
L 318.836936 269.493091 
L 318.836936 265.101804 
L 320.407074 265.101804 
L 320.407074 260.710517 
L 321.588017 260.710517 
L 321.588017 256.31923 
L 321.99986 256.31923 
L 321.99986 251.927942 
L 323.611234 251.927942 
L 323.611234 247.536655 
L 324.289933 247.536655 
L 324.289933 243.145368 
L 325.686778 243.145368 
L 325.686778 238.754081 
L 330.761149 238.754081 
L 330.761149 234.362794 
L 332.186101 234.362794 
L 332.186101 229.971507 
L 335.552254 229.971507 
L 335.552254 225.58022 
L 336.864843 225.58022 
L 336.864843 221.188933 
L 337.61353 221.188933 
L 337.61353 216.797645 
L 342.394692 216.797645 
L 342.394692 212.406358 
L 342.394692 212.406358 
L 342.394692 212.406358 
L 426.4825 212.406358 
" style="fill:none;stroke:#bf00bf;stroke-linecap:square;stroke-width:1.5;"/>
   </g>
   <g id="line2d_77"/>
   <g id="line2d_78">
    <path clip-path="url(#p71ca00bdc7)" d="M 336.999436 278.275665 
L 336.999436 273.884378 
L 344.678818 273.884378 
L 344.678818 269.493091 
L 346.418871 269.493091 
L 346.418871 265.101804 
L 347.649973 265.101804 
L 347.649973 260.710517 
L 348.095338 260.710517 
L 348.095338 256.31923 
L 348.179681 256.31923 
L 348.179681 251.927942 
L 349.488037 251.927942 
L 349.488037 247.536655 
L 353.297437 247.536655 
L 353.297437 243.145368 
L 353.447935 243.145368 
L 353.447935 238.754081 
L 354.193104 238.754081 
L 354.193104 234.362794 
L 355.986975 234.362794 
L 355.986975 229.971507 
L 356.058001 229.971507 
L 356.058001 225.58022 
L 357.438696 225.58022 
L 357.438696 221.188933 
L 362.626235 221.188933 
L 362.626235 216.797645 
L 365.255657 216.797645 
L 365.255657 212.406358 
L 365.255657 212.406358 
L 365.255657 212.406358 
L 426.4825 212.406358 
" style="fill:none;stroke:#ff0000;stroke-linecap:square;stroke-width:3;"/>
   </g>
   <g id="line2d_79"/>
   <g id="line2d_80">
    <path clip-path="url(#p71ca00bdc7)" d="M 426.4825 278.275665 
L 426.4825 12.163665 
" style="fill:none;stroke:#000000;stroke-linecap:square;stroke-width:1.5;"/>
   </g>
   <g id="patch_3">
    <path d="M 69.3625 278.275665 
L 69.3625 12.163665 
" style="fill:none;stroke:#000000;stroke-linecap:square;stroke-linejoin:miter;stroke-width:0.8;"/>
   </g>
   <g id="patch_4">
    <path d="M 426.4825 278.275665 
L 426.4825 12.163665 
" style="fill:none;stroke:#000000;stroke-linecap:square;stroke-linejoin:miter;stroke-width:0.8;"/>
   </g>
   <g id="patch_5">
    <path d="M 69.3625 278.275665 
L 426.4825 278.275665 
" style="fill:none;stroke:#000000;stroke-linecap:square;stroke-linejoin:miter;stroke-width:0.8;"/>
   </g>
   <g id="patch_6">
    <path d="M 69.3625 12.163665 
L 426.4825 12.163665 
" style="fill:none;stroke:#000000;stroke-linecap:square;stroke-linejoin:miter;stroke-width:0.8;"/>
   </g>
   <g id="text_11">
    <!-- {f6-f9}, 5-D -->
    <defs>
     <path d="M 51.125 -9.28125 
L 51.125 -16.3125 
L 48.09375 -16.3125 
Q 35.9375 -16.3125 31.8125 -12.6875 
Q 27.6875 -9.078125 27.6875 1.703125 
L 27.6875 13.375 
Q 27.6875 20.75 25.046875 23.578125 
Q 22.40625 26.421875 15.484375 26.421875 
L 12.5 26.421875 
L 12.5 33.40625 
L 15.484375 33.40625 
Q 22.46875 33.40625 25.078125 36.203125 
Q 27.6875 39.015625 27.6875 46.296875 
L 27.6875 58.015625 
Q 27.6875 68.796875 31.8125 72.390625 
Q 35.9375 75.984375 48.09375 75.984375 
L 51.125 75.984375 
L 51.125 69 
L 47.796875 69 
Q 40.921875 69 38.8125 66.84375 
Q 36.71875 64.703125 36.71875 57.8125 
L 36.71875 45.703125 
Q 36.71875 38.03125 34.5 34.5625 
Q 32.28125 31.109375 26.90625 29.890625 
Q 32.328125 28.5625 34.515625 25.09375 
Q 36.71875 21.625 36.71875 14.015625 
L 36.71875 1.90625 
Q 36.71875 -4.984375 38.8125 -7.125 
Q 40.921875 -9.28125 47.796875 -9.28125 
z
" id="DejaVuSans-7b"/>
     <path d="M 4.890625 31.390625 
L 31.203125 31.390625 
L 31.203125 23.390625 
L 4.890625 23.390625 
z
" id="DejaVuSans-2d"/>
     <path d="M 10.984375 1.515625 
L 10.984375 10.5 
Q 14.703125 8.734375 18.5 7.8125 
Q 22.3125 6.890625 25.984375 6.890625 
Q 35.75 6.890625 40.890625 13.453125 
Q 46.046875 20.015625 46.78125 33.40625 
Q 43.953125 29.203125 39.59375 26.953125 
Q 35.25 24.703125 29.984375 24.703125 
Q 19.046875 24.703125 12.671875 31.3125 
Q 6.296875 37.9375 6.296875 49.421875 
Q 6.296875 60.640625 12.9375 67.421875 
Q 19.578125 74.21875 30.609375 74.21875 
Q 43.265625 74.21875 49.921875 64.515625 
Q 56.59375 54.828125 56.59375 36.375 
Q 56.59375 19.140625 48.40625 8.859375 
Q 40.234375 -1.421875 26.421875 -1.421875 
Q 22.703125 -1.421875 18.890625 -0.6875 
Q 15.09375 0.046875 10.984375 1.515625 
z
M 30.609375 32.421875 
Q 37.25 32.421875 41.125 36.953125 
Q 45.015625 41.5 45.015625 49.421875 
Q 45.015625 57.28125 41.125 61.84375 
Q 37.25 66.40625 30.609375 66.40625 
Q 23.96875 66.40625 20.09375 61.84375 
Q 16.21875 57.28125 16.21875 49.421875 
Q 16.21875 41.5 20.09375 36.953125 
Q 23.96875 32.421875 30.609375 32.421875 
z
" id="DejaVuSans-39"/>
     <path d="M 12.5 -9.28125 
L 15.921875 -9.28125 
Q 22.75 -9.28125 24.828125 -7.171875 
Q 26.90625 -5.078125 26.90625 1.90625 
L 26.90625 14.015625 
Q 26.90625 21.625 29.09375 25.09375 
Q 31.296875 28.5625 36.71875 29.890625 
Q 31.296875 31.109375 29.09375 34.5625 
Q 26.90625 38.03125 26.90625 45.703125 
L 26.90625 57.8125 
Q 26.90625 64.75 24.828125 66.875 
Q 22.75 69 15.921875 69 
L 12.5 69 
L 12.5 75.984375 
L 15.578125 75.984375 
Q 27.734375 75.984375 31.8125 72.390625 
Q 35.890625 68.796875 35.890625 58.015625 
L 35.890625 46.296875 
Q 35.890625 39.015625 38.515625 36.203125 
Q 41.15625 33.40625 48.09375 33.40625 
L 51.125 33.40625 
L 51.125 26.421875 
L 48.09375 26.421875 
Q 41.15625 26.421875 38.515625 23.578125 
Q 35.890625 20.75 35.890625 13.375 
L 35.890625 1.703125 
Q 35.890625 -9.078125 31.8125 -12.6875 
Q 27.734375 -16.3125 15.578125 -16.3125 
L 12.5 -16.3125 
z
" id="DejaVuSans-7d"/>
     <path d="M 11.71875 12.40625 
L 22.015625 12.40625 
L 22.015625 4 
L 14.015625 -11.625 
L 7.71875 -11.625 
L 11.71875 4 
z
" id="DejaVuSans-2c"/>
     <path d="M 10.796875 72.90625 
L 49.515625 72.90625 
L 49.515625 64.59375 
L 19.828125 64.59375 
L 19.828125 46.734375 
Q 21.96875 47.46875 24.109375 47.828125 
Q 26.265625 48.1875 28.421875 48.1875 
Q 40.625 48.1875 47.75 41.5 
Q 54.890625 34.8125 54.890625 23.390625 
Q 54.890625 11.625 47.5625 5.09375 
Q 40.234375 -1.421875 26.90625 -1.421875 
Q 22.3125 -1.421875 17.546875 -0.640625 
Q 12.796875 0.140625 7.71875 1.703125 
L 7.71875 11.625 
Q 12.109375 9.234375 16.796875 8.0625 
Q 21.484375 6.890625 26.703125 6.890625 
Q 35.15625 6.890625 40.078125 11.328125 
Q 45.015625 15.765625 45.015625 23.390625 
Q 45.015625 31 40.078125 35.4375 
Q 35.15625 39.890625 26.703125 39.890625 
Q 22.75 39.890625 18.8125 39.015625 
Q 14.890625 38.140625 10.796875 36.28125 
z
" id="DejaVuSans-35"/>
    </defs>
    <g transform="translate(187.7975 32.68278)scale(0.2 -0.2)">
     <use xlink:href="#DejaVuSans-7b"/>
     <use x="63.623047" xlink:href="#DejaVuSans-66"/>
     <use x="98.828125" xlink:href="#DejaVuSans-36"/>
     <use x="162.451172" xlink:href="#DejaVuSans-2d"/>
     <use x="198.535156" xlink:href="#DejaVuSans-66"/>
     <use x="233.740234" xlink:href="#DejaVuSans-39"/>
     <use x="297.363281" xlink:href="#DejaVuSans-7d"/>
     <use x="360.986328" xlink:href="#DejaVuSans-2c"/>
     <use x="392.773438" xlink:href="#DejaVuSans-20"/>
     <use x="424.560547" xlink:href="#DejaVuSans-35"/>
     <use x="488.183594" xlink:href="#DejaVuSans-2d"/>
     <use x="524.267578" xlink:href="#DejaVuSans-44"/>
    </g>
   </g>
   <g id="text_12">
    <!-- absolute targets -->
    <defs>
     <path d="M 48.6875 27.296875 
Q 48.6875 37.203125 44.609375 42.84375 
Q 40.53125 48.484375 33.40625 48.484375 
Q 26.265625 48.484375 22.1875 42.84375 
Q 18.109375 37.203125 18.109375 27.296875 
Q 18.109375 17.390625 22.1875 11.75 
Q 26.265625 6.109375 33.40625 6.109375 
Q 40.53125 6.109375 44.609375 11.75 
Q 48.6875 17.390625 48.6875 27.296875 
z
M 18.109375 46.390625 
Q 20.953125 51.265625 25.265625 53.625 
Q 29.59375 56 35.59375 56 
Q 45.5625 56 51.78125 48.09375 
Q 58.015625 40.1875 58.015625 27.296875 
Q 58.015625 14.40625 51.78125 6.484375 
Q 45.5625 -1.421875 35.59375 -1.421875 
Q 29.59375 -1.421875 25.265625 0.953125 
Q 20.953125 3.328125 18.109375 8.203125 
L 18.109375 0 
L 9.078125 0 
L 9.078125 75.984375 
L 18.109375 75.984375 
z
" id="DejaVuSans-62"/>
     <path d="M 8.5 21.578125 
L 8.5 54.6875 
L 17.484375 54.6875 
L 17.484375 21.921875 
Q 17.484375 14.15625 20.5 10.265625 
Q 23.53125 6.390625 29.59375 6.390625 
Q 36.859375 6.390625 41.078125 11.03125 
Q 45.3125 15.671875 45.3125 23.6875 
L 45.3125 54.6875 
L 54.296875 54.6875 
L 54.296875 0 
L 45.3125 0 
L 45.3125 8.40625 
Q 42.046875 3.421875 37.71875 1 
Q 33.40625 -1.421875 27.6875 -1.421875 
Q 18.265625 -1.421875 13.375 4.4375 
Q 8.5 10.296875 8.5 21.578125 
z
M 31.109375 56 
z
" id="DejaVuSans-75"/>
     <path d="M 56.203125 29.59375 
L 56.203125 25.203125 
L 14.890625 25.203125 
Q 15.484375 15.921875 20.484375 11.0625 
Q 25.484375 6.203125 34.421875 6.203125 
Q 39.59375 6.203125 44.453125 7.46875 
Q 49.3125 8.734375 54.109375 11.28125 
L 54.109375 2.78125 
Q 49.265625 0.734375 44.1875 -0.34375 
Q 39.109375 -1.421875 33.890625 -1.421875 
Q 20.796875 -1.421875 13.15625 6.1875 
Q 5.515625 13.8125 5.515625 26.8125 
Q 5.515625 40.234375 12.765625 48.109375 
Q 20.015625 56 32.328125 56 
Q 43.359375 56 49.78125 48.890625 
Q 56.203125 41.796875 56.203125 29.59375 
z
M 47.21875 32.234375 
Q 47.125 39.59375 43.09375 43.984375 
Q 39.0625 48.390625 32.421875 48.390625 
Q 24.90625 48.390625 20.390625 44.140625 
Q 15.875 39.890625 15.1875 32.171875 
z
" id="DejaVuSans-65"/>
    </defs>
    <g transform="translate(69.3625 291.449527)scale(0.14 -0.14)">
     <use xlink:href="#DejaVuSans-61"/>
     <use x="61.279297" xlink:href="#DejaVuSans-62"/>
     <use x="124.755859" xlink:href="#DejaVuSans-73"/>
     <use x="176.855469" xlink:href="#DejaVuSans-6f"/>
     <use x="238.037109" xlink:href="#DejaVuSans-6c"/>
     <use x="265.820312" xlink:href="#DejaVuSans-75"/>
     <use x="329.199219" xlink:href="#DejaVuSans-74"/>
     <use x="368.408203" xlink:href="#DejaVuSans-65"/>
     <use x="429.931641" xlink:href="#DejaVuSans-20"/>
     <use x="461.71875" xlink:href="#DejaVuSans-74"/>
     <use x="500.927734" xlink:href="#DejaVuSans-61"/>
     <use x="562.207031" xlink:href="#DejaVuSans-72"/>
     <use x="603.304688" xlink:href="#DejaVuSans-67"/>
     <use x="666.78125" xlink:href="#DejaVuSans-65"/>
     <use x="728.304688" xlink:href="#DejaVuSans-74"/>
     <use x="767.513672" xlink:href="#DejaVuSans-73"/>
    </g>
   </g>
   <g id="text_13">
    <!-- v2.1 -->
    <g style="fill:#808080;" transform="translate(237.011563 273.534858)scale(0.1 -0.1)">
     <use xlink:href="#DejaVuSans-76"/>
     <use x="59.179688" xlink:href="#DejaVuSans-32"/>
     <use x="122.802734" xlink:href="#DejaVuSans-2e"/>
     <use x="154.589844" xlink:href="#DejaVuSans-31"/>
    </g>
   </g>
   <g id="legend_1">
    <g id="patch_7">
     <path d="M 83.3625 145.588665 
L 212.584375 145.588665 
Q 216.584375 145.588665 216.584375 141.588665 
L 216.584375 26.163665 
Q 216.584375 22.163665 212.584375 22.163665 
L 83.3625 22.163665 
Q 79.3625 22.163665 79.3625 26.163665 
L 79.3625 141.588665 
Q 79.3625 145.588665 83.3625 145.588665 
z
" style="fill:#ffffff;opacity:0.2;stroke:#cccccc;stroke-linejoin:miter;"/>
    </g>
    <g id="line2d_81">
     <path d="M 87.3625 38.36054 
L 127.3625 38.36054 
" style="fill:none;stroke:#000000;stroke-linecap:square;stroke-width:1.5;"/>
    </g>
    <g id="line2d_82"/>
    <g id="text_14">
     <!-- 1: 4/4 -->
     <defs>
      <path d="M 11.71875 12.40625 
L 22.015625 12.40625 
L 22.015625 0 
L 11.71875 0 
z
M 11.71875 51.703125 
L 22.015625 51.703125 
L 22.015625 39.3125 
L 11.71875 39.3125 
z
" id="DejaVuSans-3a"/>
     </defs>
     <g transform="translate(143.3625 45.36054)scale(0.2 -0.2)">
      <use xlink:href="#DejaVuSans-31"/>
      <use x="63.623047" xlink:href="#DejaVuSans-3a"/>
      <use x="97.314453" xlink:href="#DejaVuSans-20"/>
      <use x="129.101562" xlink:href="#DejaVuSans-34"/>
      <use x="192.724609" xlink:href="#DejaVuSans-2f"/>
      <use x="226.416016" xlink:href="#DejaVuSans-34"/>
     </g>
    </g>
    <g id="line2d_83">
     <path d="M 87.3625 67.71679 
L 127.3625 67.71679 
" style="fill:none;stroke:#00bfbf;stroke-linecap:square;stroke-width:1.5;"/>
    </g>
    <g id="line2d_84"/>
    <g id="text_15">
     <!-- -1: 3/4 -->
     <g transform="translate(143.3625 74.71679)scale(0.2 -0.2)">
      <use xlink:href="#DejaVuSans-2d"/>
      <use x="36.083984" xlink:href="#DejaVuSans-31"/>
      <use x="99.707031" xlink:href="#DejaVuSans-3a"/>
      <use x="133.398438" xlink:href="#DejaVuSans-20"/>
      <use x="165.185547" xlink:href="#DejaVuSans-33"/>
      <use x="228.808594" xlink:href="#DejaVuSans-2f"/>
      <use x="262.5" xlink:href="#DejaVuSans-34"/>
     </g>
    </g>
    <g id="line2d_85">
     <path d="M 87.3625 97.07304 
L 127.3625 97.07304 
" style="fill:none;stroke:#bf00bf;stroke-linecap:square;stroke-width:1.5;"/>
    </g>
    <g id="line2d_86"/>
    <g id="text_16">
     <!-- -4: 1/4 -->
     <g transform="translate(143.3625 104.07304)scale(0.2 -0.2)">
      <use xlink:href="#DejaVuSans-2d"/>
      <use x="36.083984" xlink:href="#DejaVuSans-34"/>
      <use x="99.707031" xlink:href="#DejaVuSans-3a"/>
      <use x="133.398438" xlink:href="#DejaVuSans-20"/>
      <use x="165.185547" xlink:href="#DejaVuSans-31"/>
      <use x="228.808594" xlink:href="#DejaVuSans-2f"/>
      <use x="262.5" xlink:href="#DejaVuSans-34"/>
     </g>
    </g>
    <g id="line2d_87">
     <path d="M 87.3625 126.42929 
L 127.3625 126.42929 
" style="fill:none;stroke:#ff0000;stroke-linecap:square;stroke-width:3;"/>
    </g>
    <g id="line2d_88"/>
    <g id="text_17">
     <!-- -8: 1/4 -->
     <g transform="translate(143.3625 133.42929)scale(0.2 -0.2)">
      <use xlink:href="#DejaVuSans-2d"/>
      <use x="36.083984" xlink:href="#DejaVuSans-38"/>
      <use x="99.707031" xlink:href="#DejaVuSans-3a"/>
      <use x="133.398438" xlink:href="#DejaVuSans-20"/>
      <use x="165.185547" xlink:href="#DejaVuSans-31"/>
      <use x="228.808594" xlink:href="#DejaVuSans-2f"/>
      <use x="262.5" xlink:href="#DejaVuSans-34"/>
     </g>
    </g>
   </g>
  </g>
 </g>
 <defs>
  <clipPath id="p71ca00bdc7">
   <rect height="266.112" width="357.12" x="69.3625" y="12.163665"/>
  </clipPath>
 </defs>
</svg>
