<?xml version="1.0" encoding="utf-8" standalone="no"?>
<!DOCTYPE svg PUBLIC "-//W3C//DTD SVG 1.1//EN"
  "http://www.w3.org/Graphics/SVG/1.1/DTD/svg11.dtd">
<!-- Created with matplotlib (http://matplotlib.org/) -->
<svg height="335pt" version="1.1" viewBox="0 0 437 335" width="437pt" xmlns="http://www.w3.org/2000/svg" xmlns:xlink="http://www.w3.org/1999/xlink">
 <defs>
  <style type="text/css">
*{stroke-linecap:butt;stroke-linejoin:round;}
  </style>
 </defs>
 <g id="figure_1">
  <g id="patch_1">
   <path d="M 0 335.188165 
L 437.1825 335.188165 
L 437.1825 0 
L 0 0 
z
" style="fill:#ffffff;"/>
  </g>
  <g id="axes_1">
   <g id="patch_2">
    <path d="M 69.3625 278.275665 
L 426.4825 278.275665 
L 426.4825 12.163665 
L 69.3625 12.163665 
z
" style="fill:#ffffff;"/>
   </g>
   <g id="line2d_1">
    <path clip-path="url(#p3a43690c92)" d="M 303.021732 278.275665 
L 303.021732 274.762636 
L 306.494429 274.762636 
L 306.494429 271.249606 
L 307.731793 271.249606 
L 307.731793 267.736576 
L 308.187335 267.736576 
L 308.187335 264.223546 
L 308.588499 264.223546 
L 308.588499 260.710517 
L 309.380455 260.710517 
L 309.380455 257.197487 
L 309.429501 257.197487 
L 309.429501 253.684457 
L 309.722683 253.684457 
L 309.722683 250.171428 
L 311.677467 250.171428 
L 311.677467 246.658398 
L 312.875279 246.658398 
L 312.875279 243.145368 
L 313.372781 243.145368 
L 313.372781 239.632338 
L 313.686587 239.632338 
L 313.686587 236.119309 
L 329.099342 236.119309 
L 329.099342 232.606279 
L 335.246089 232.606279 
L 335.246089 229.093249 
L 335.579986 229.093249 
L 335.579986 225.58022 
L 340.591312 225.58022 
L 340.591312 222.06719 
L 340.962634 222.06719 
L 340.962634 218.55416 
L 347.157181 218.55416 
L 347.157181 215.041131 
L 358.409707 215.041131 
L 358.409707 211.528101 
L 358.945962 211.528101 
L 358.945962 208.015071 
L 362.549289 208.015071 
L 362.549289 204.502041 
L 373.729852 204.502041 
L 373.729852 200.989012 
L 382.950354 200.989012 
L 382.950354 197.475982 
L 406.168748 197.475982 
L 406.168748 193.962952 
L 409.982147 193.962952 
L 409.982147 190.449923 
L 415.788741 190.449923 
L 415.788741 186.936893 
L 438.1825 186.936893 
" style="fill:none;stroke:#f5deb3;stroke-linecap:square;stroke-width:1.5;"/>
   </g>
   <g id="line2d_2"/>
   <g id="line2d_3">
    <path clip-path="url(#p3a43690c92)" d="M 190.449862 278.275665 
L 190.449862 274.762636 
L 191.742421 274.762636 
L 191.742421 271.249606 
L 203.485363 271.249606 
L 203.485363 267.736576 
L 279.546025 267.736576 
L 279.546025 264.223546 
L 298.772474 264.223546 
L 298.772474 260.710517 
L 340.091494 260.710517 
L 340.091494 257.197487 
L 351.334031 257.197487 
L 351.334031 253.684457 
L 357.04099 253.684457 
L 357.04099 250.171428 
L 369.11105 250.171428 
L 369.11105 246.658398 
L 371.237023 246.658398 
L 371.237023 243.145368 
L 377.013585 243.145368 
L 377.013585 239.632338 
L 384.091266 239.632338 
L 384.091266 236.119309 
L 389.687703 236.119309 
L 389.687703 232.606279 
L 392.24109 232.606279 
L 392.24109 229.093249 
L 397.363105 229.093249 
L 397.363105 225.58022 
L 420.804104 225.58022 
L 420.804104 222.06719 
L 423.362224 222.06719 
L 423.362224 218.55416 
L 424.859848 218.55416 
L 424.859848 215.041131 
L 425.266015 215.041131 
L 425.266015 211.528101 
L 425.998224 211.528101 
L 425.998224 208.015071 
L 426.275579 208.015071 
L 426.275579 204.502041 
L 427.916513 204.502041 
L 427.916513 200.989012 
L 428.038636 200.989012 
L 428.038636 197.475982 
L 429.807621 197.475982 
L 429.807621 193.962952 
L 429.970905 193.962952 
L 429.970905 190.449923 
L 432.784829 190.449923 
L 432.784829 186.936893 
L 433.364353 186.936893 
L 433.364353 183.423863 
L 433.88462 183.423863 
L 433.88462 179.910834 
L 433.930148 179.910834 
L 433.930148 176.397804 
L 435.028536 176.397804 
L 435.028536 172.884774 
L 435.281718 172.884774 
L 435.281718 169.371744 
L 436.766045 169.371744 
L 436.766045 165.858715 
L 438.1825 165.858715 
" style="fill:none;stroke:#f5deb3;stroke-linecap:square;stroke-width:1.5;"/>
   </g>
   <g id="line2d_4">
    <path clip-path="url(#p3a43690c92)" d="M 316.080259 278.275665 
L 316.080259 274.762636 
L 322.518734 274.762636 
L 322.518734 271.249606 
L 323.754955 271.249606 
L 323.86245 264.223546 
L 324.005388 264.223546 
L 324.005388 260.710517 
L 325.858431 260.710517 
L 325.858431 257.197487 
L 326.639868 257.197487 
L 326.639868 253.684457 
L 328.261571 253.684457 
L 328.261571 250.171428 
L 328.52098 250.171428 
L 328.52098 246.658398 
L 330.172304 246.658398 
L 330.172304 243.145368 
L 331.28168 243.145368 
L 331.28168 239.632338 
L 331.94666 239.632338 
L 331.94666 236.119309 
L 332.661267 236.119309 
L 332.661267 232.606279 
L 332.867615 232.606279 
L 332.867615 229.093249 
L 333.277547 229.093249 
L 333.277547 225.58022 
L 333.56813 225.58022 
L 333.654947 218.55416 
L 333.683849 218.55416 
L 333.683849 215.041131 
L 334.000582 215.041131 
L 334.000582 211.528101 
L 334.115217 211.528101 
L 334.115217 208.015071 
L 334.343632 208.015071 
L 334.343632 204.502041 
L 335.441157 204.502041 
L 335.441157 200.989012 
L 336.322487 200.989012 
L 336.322487 197.475982 
L 336.675747 197.475982 
L 336.675747 193.962952 
L 336.837877 193.962952 
L 336.837877 190.449923 
L 337.587001 190.449923 
L 337.693027 183.423863 
L 339.484436 183.423863 
L 339.484436 179.910834 
L 339.940481 179.910834 
L 339.940481 176.397804 
L 340.292075 176.397804 
L 340.292075 172.884774 
L 340.740202 172.884774 
L 340.740202 169.371744 
L 341.428703 169.371744 
L 341.526222 162.345685 
L 341.793336 162.345685 
L 341.793336 158.832655 
L 342.609265 158.832655 
L 342.609265 155.319626 
L 343.317348 155.319626 
L 343.317348 151.806596 
L 343.69057 151.806596 
L 343.69057 148.293566 
L 343.806582 148.293566 
L 343.852905 141.267507 
L 344.221814 141.267507 
L 344.244773 134.241447 
L 344.905624 134.241447 
L 344.973448 127.215388 
L 345.355901 127.215388 
L 345.400687 120.189329 
L 346.045212 120.189329 
L 346.067277 113.163269 
L 346.331224 113.163269 
L 346.375068 106.13721 
L 347.135634 106.13721 
L 347.135634 102.62418 
L 347.436366 102.62418 
L 347.436366 99.11115 
L 349.855102 99.11115 
L 349.855102 95.598121 
L 352.690463 95.598121 
L 352.690463 92.085091 
L 354.322274 92.085091 
L 354.322274 88.572061 
L 355.862414 88.572061 
L 355.862414 85.059032 
L 360.324519 85.059032 
L 360.324519 81.546002 
L 369.37727 81.546002 
L 369.37727 78.032972 
L 369.760565 78.032972 
L 369.760565 74.519942 
L 371.224276 74.519942 
L 371.224276 71.006913 
L 371.744021 71.006913 
L 371.744021 67.493883 
L 372.033027 67.493883 
L 372.033027 63.980853 
L 375.470872 63.980853 
L 375.470872 60.467824 
L 379.186347 60.467824 
L 379.186347 56.954794 
L 388.478372 56.954794 
L 388.478372 53.441764 
L 393.544847 53.441764 
L 393.544847 49.928735 
L 399.881803 49.928735 
L 399.881803 46.415705 
L 400.092947 46.415705 
L 400.092947 42.902675 
L 404.889113 42.902675 
L 404.889113 39.389645 
L 411.649623 39.389645 
L 411.649623 35.876616 
L 415.073669 35.876616 
L 415.073669 32.363586 
L 429.679427 32.363586 
L 429.679427 28.850556 
L 436.379416 28.850556 
L 436.379416 25.337527 
L 438.1825 25.337527 
L 438.1825 25.337527 
" style="fill:none;stroke:#f5deb3;stroke-linecap:square;stroke-width:1.5;"/>
   </g>
   <g id="line2d_5">
    <path clip-path="url(#p3a43690c92)" d="M 369.05762 278.275665 
L 369.05762 274.762636 
L 370.388032 274.762636 
L 370.388032 271.249606 
L 382.722696 271.249606 
L 382.722696 267.736576 
L 383.490215 267.736576 
L 383.490215 264.223546 
L 383.811109 264.223546 
L 383.811109 260.710517 
L 392.642517 260.710517 
L 392.642517 257.197487 
L 400.471922 257.197487 
L 400.471922 253.684457 
L 410.35314 253.684457 
L 410.35314 250.171428 
L 410.775029 250.171428 
L 410.775029 246.658398 
L 412.626946 246.658398 
L 412.626946 243.145368 
L 419.0758 243.145368 
L 419.0758 239.632338 
L 420.049371 239.632338 
L 420.049371 236.119309 
L 424.430066 236.119309 
L 424.430066 232.606279 
L 426.256372 232.606279 
L 426.256372 229.093249 
L 435.836968 229.093249 
L 435.836968 225.58022 
L 438.1825 225.58022 
" style="fill:none;stroke:#f5deb3;stroke-linecap:square;stroke-width:1.5;"/>
   </g>
   <g id="line2d_6"/>
   <g id="line2d_7">
    <path clip-path="url(#p3a43690c92)" d="M 347.692575 278.275665 
L 347.692575 274.762636 
L 348.431785 274.762636 
L 348.431785 271.249606 
L 349.076714 271.249606 
L 349.076714 267.736576 
L 349.753434 267.736576 
L 349.753434 264.223546 
L 349.895706 264.223546 
L 349.895706 260.710517 
L 352.094699 260.710517 
L 352.094699 257.197487 
L 352.268461 257.197487 
L 352.268461 253.684457 
L 352.957003 253.684457 
L 352.957003 250.171428 
L 353.372748 250.171428 
L 353.410357 243.145368 
L 353.654066 243.145368 
L 353.728793 232.606279 
L 353.822032 232.606279 
L 353.822032 229.093249 
L 353.933669 229.093249 
L 353.933669 225.58022 
L 354.322274 225.58022 
L 354.395922 218.55416 
L 354.469452 218.55416 
L 354.524522 211.528101 
L 354.707614 211.528101 
L 354.7624 197.475982 
L 355.360762 197.475982 
L 355.360762 193.962952 
L 355.540553 193.962952 
L 355.540553 190.449923 
L 355.880229 190.449923 
L 355.880229 186.936893 
L 356.674833 186.936893 
L 356.674833 183.423863 
L 356.954075 183.423863 
L 356.954075 179.910834 
L 357.248919 179.910834 
L 357.283482 172.884774 
L 357.421476 172.884774 
L 357.421476 169.371744 
L 357.576224 169.371744 
L 357.576224 165.858715 
L 357.969337 165.858715 
L 358.054352 158.832655 
L 358.628317 158.832655 
L 358.64509 151.806596 
L 358.912629 151.806596 
L 358.912629 148.293566 
L 359.951156 148.293566 
L 359.951156 144.780537 
L 360.646731 144.780537 
L 360.646731 141.267507 
L 361.205214 141.267507 
L 361.3161 134.241447 
L 361.347732 134.241447 
L 361.347732 130.728418 
L 361.56855 130.728418 
L 361.56855 127.215388 
L 361.788311 127.215388 
L 361.788311 123.702358 
L 362.871598 123.702358 
L 362.948006 116.676299 
L 363.91495 116.676299 
L 363.91495 113.163269 
L 367.466621 113.163269 
L 367.466621 109.650239 
L 367.770025 109.650239 
L 367.770025 106.13721 
L 372.332671 106.13721 
L 372.332671 102.62418 
L 372.506564 102.62418 
L 372.506564 99.11115 
L 374.53158 99.11115 
L 374.53158 95.598121 
L 375.875842 95.598121 
L 375.875842 92.085091 
L 376.048312 92.085091 
L 376.048312 88.572061 
L 377.394078 88.572061 
L 377.48315 81.546002 
L 378.22241 81.546002 
L 378.22241 78.032972 
L 378.408104 78.032972 
L 378.451688 71.006913 
L 379.325467 71.006913 
L 379.325467 67.493883 
L 380.683575 67.493883 
L 380.683575 63.980853 
L 381.117215 63.980853 
L 381.117215 60.467824 
L 382.643245 60.467824 
L 382.643245 56.954794 
L 385.37339 56.954794 
L 385.37339 53.441764 
L 386.033586 53.441764 
L 386.033586 49.928735 
L 388.495874 49.928735 
L 388.495874 46.415705 
L 391.089775 46.415705 
L 391.089775 42.902675 
L 397.986298 42.902675 
L 397.986298 39.389645 
L 406.671951 39.389645 
L 406.671951 35.876616 
L 417.466353 35.876616 
L 417.466353 32.363586 
L 420.224982 32.363586 
L 420.224982 28.850556 
L 424.032532 28.850556 
L 424.032532 25.337527 
L 424.772626 25.337527 
L 424.772626 21.824497 
L 435.215393 21.824497 
L 435.215393 18.311467 
L 438.1825 18.311467 
L 438.1825 18.311467 
" style="fill:none;stroke:#f5deb3;stroke-linecap:square;stroke-width:1.5;"/>
   </g>
   <g id="line2d_8">
    <path clip-path="url(#p3a43690c92)" style="fill:none;stroke:#f5deb3;stroke-linecap:square;stroke-width:1.5;"/>
   </g>
   <g id="line2d_9">
    <path clip-path="url(#p3a43690c92)" d="M 341.793336 278.275665 
L 341.793336 274.762636 
L 342.941064 274.762636 
L 342.941064 271.249606 
L 343.82975 271.249606 
L 343.82975 267.736576 
L 345.288641 267.736576 
L 345.288641 264.223546 
L 345.668486 264.223546 
L 345.668486 260.710517 
L 345.801802 260.710517 
L 345.801802 257.197487 
L 346.528194 257.197487 
L 346.528194 253.684457 
L 347.307722 253.684457 
L 347.307722 250.171428 
L 347.820146 250.171428 
L 347.820146 246.658398 
L 348.074228 246.658398 
L 348.15861 239.632338 
L 348.200743 239.632338 
L 348.221795 232.606279 
L 348.890409 232.606279 
L 348.890409 229.093249 
L 349.159274 229.093249 
L 349.159274 225.58022 
L 349.365027 225.58022 
L 349.385552 218.55416 
L 349.549419 218.55416 
L 349.549419 215.041131 
L 349.692324 215.041131 
L 349.692324 211.528101 
L 349.976807 211.528101 
L 350.077982 204.502041 
L 350.680391 204.502041 
L 350.680391 200.989012 
L 351.176426 200.989012 
L 351.176426 197.475982 
L 351.412631 197.475982 
L 351.412631 193.962952 
L 351.608544 193.962952 
L 351.608544 190.449923 
L 351.920276 190.449923 
L 352.017259 179.910834 
L 352.287727 179.910834 
L 352.383938 162.345685 
L 352.441567 162.345685 
L 352.441567 158.832655 
L 352.747709 158.832655 
L 352.747709 155.319626 
L 353.032873 155.319626 
L 353.051822 148.293566 
L 353.747456 148.293566 
L 353.8034 141.267507 
L 354.340697 141.267507 
L 354.340697 137.754477 
L 354.744145 137.754477 
L 354.835346 130.728418 
L 355.342744 130.728418 
L 355.450745 123.702358 
L 355.755378 123.702358 
L 355.755378 120.189329 
L 356.901846 120.189329 
L 357.006244 109.650239 
L 358.156163 109.650239 
L 358.156163 106.13721 
L 358.945962 106.13721 
L 358.945962 102.62418 
L 364.90585 102.62418 
L 364.90585 99.11115 
L 365.660423 99.11115 
L 365.660423 95.598121 
L 366.487676 95.598121 
L 366.487676 92.085091 
L 367.866144 92.085091 
L 367.866144 88.572061 
L 368.139664 88.572061 
L 368.139664 85.059032 
L 369.760565 85.059032 
L 369.760565 81.546002 
L 371.491222 81.546002 
L 371.491222 78.032972 
L 371.731414 78.032972 
L 371.731414 74.519942 
L 372.145623 74.519942 
L 372.145623 71.006913 
L 374.293721 71.006913 
L 374.293721 67.493883 
L 375.424361 67.493883 
L 375.424361 63.980853 
L 376.17438 63.980853 
L 376.17438 60.467824 
L 378.885264 60.467824 
L 378.885264 56.954794 
L 387.523183 56.954794 
L 387.523183 53.441764 
L 387.719378 53.441764 
L 387.719378 49.928735 
L 388.82716 49.928735 
L 388.82716 46.415705 
L 394.881147 46.415705 
L 394.881147 42.902675 
L 401.240496 42.902675 
L 401.240496 39.389645 
L 402.740068 39.389645 
L 402.740068 35.876616 
L 403.742525 35.876616 
L 403.742525 32.363586 
L 404.148653 32.363586 
L 404.148653 28.850556 
L 405.708091 28.850556 
L 405.708091 25.337527 
L 407.696657 25.337527 
L 407.696657 21.824497 
L 411.665467 21.824497 
L 411.665467 18.311467 
L 414.650102 18.311467 
L 414.650102 14.798437 
L 414.650102 14.798437 
L 426.4825 14.798437 
L 426.4825 14.798437 
" style="fill:none;stroke:#f5deb3;stroke-linecap:square;stroke-width:1.5;"/>
   </g>
   <g id="line2d_10">
    <path clip-path="url(#p3a43690c92)" style="fill:none;stroke:#f5deb3;stroke-linecap:square;stroke-width:1.5;"/>
   </g>
   <g id="line2d_11">
    <path clip-path="url(#p3a43690c92)" style="fill:none;stroke:#f5deb3;stroke-linecap:square;stroke-width:1.5;"/>
   </g>
   <g id="line2d_12">
    <path clip-path="url(#p3a43690c92)" d="M 304.19043 278.275665 
L 304.19043 274.762636 
L 359.360593 274.762636 
L 359.360593 271.249606 
L 362.147077 271.249606 
L 362.147077 267.736576 
L 426.939011 267.736576 
L 426.939011 264.223546 
L 436.885059 264.223546 
L 436.885059 260.710517 
L 438.1825 260.710517 
" style="fill:none;stroke:#f5deb3;stroke-linecap:square;stroke-width:1.5;"/>
   </g>
   <g id="line2d_13"/>
   <g id="line2d_14">
    <path clip-path="url(#p3a43690c92)" d="M 334.825272 278.275665 
L 334.825272 274.762636 
L 341.011918 274.762636 
L 341.011918 271.249606 
L 353.896487 271.249606 
L 353.896487 267.736576 
L 355.450745 267.736576 
L 355.450745 264.223546 
L 360.886914 264.223546 
L 360.886914 260.710517 
L 361.26861 260.710517 
L 361.26861 257.197487 
L 364.287196 257.197487 
L 364.287196 253.684457 
L 367.948371 253.684457 
L 367.948371 250.171428 
L 368.923773 250.171428 
L 368.923773 246.658398 
L 374.126484 246.658398 
L 374.126484 243.145368 
L 375.272875 243.145368 
L 375.272875 239.632338 
L 376.889805 239.632338 
L 376.889805 236.119309 
L 378.00298 236.119309 
L 378.00298 232.606279 
L 382.970097 232.606279 
L 382.970097 229.093249 
L 386.920459 229.093249 
L 386.920459 225.58022 
L 387.460581 225.58022 
L 387.460581 222.06719 
L 388.8966 222.06719 
L 388.8966 218.55416 
L 389.508323 218.55416 
L 389.508323 215.041131 
L 398.860149 215.041131 
L 398.860149 211.528101 
L 400.024942 211.528101 
L 400.024942 208.015071 
L 404.674377 208.015071 
L 404.674377 204.502041 
L 408.132166 204.502041 
L 408.132166 200.989012 
L 408.800264 200.989012 
L 408.800264 197.475982 
L 411.16639 197.475982 
L 411.16639 193.962952 
L 413.750705 193.962952 
L 413.750705 190.449923 
L 415.658234 190.449923 
L 415.658234 186.936893 
L 416.772425 186.936893 
L 416.772425 183.423863 
L 420.014168 183.423863 
L 420.014168 179.910834 
L 420.881922 179.910834 
L 420.881922 176.397804 
L 429.768488 176.397804 
L 429.768488 172.884774 
L 431.466363 172.884774 
L 431.466363 169.371744 
L 433.852072 169.371744 
L 433.852072 165.858715 
L 438.1825 165.858715 
" style="fill:none;stroke:#f5deb3;stroke-linecap:square;stroke-width:1.5;"/>
   </g>
   <g id="line2d_15"/>
   <g id="line2d_16"/>
   <g id="line2d_17">
    <path clip-path="url(#p3a43690c92)" d="M 410.14619 278.275665 
L 410.14619 274.762636 
L 411.633773 274.762636 
L 411.633773 271.249606 
L 412.977238 271.249606 
L 412.977238 267.736576 
L 413.497711 267.736576 
L 413.497711 264.223546 
L 415.721117 264.223546 
L 415.721117 260.710517 
L 416.240224 260.710517 
L 416.240224 257.197487 
L 416.416724 257.197487 
L 416.416724 253.684457 
L 416.715698 253.684457 
L 416.715698 250.171428 
L 417.517512 250.171428 
L 417.573258 243.145368 
L 418.52435 243.145368 
L 418.592509 229.093249 
L 420.053769 229.093249 
L 420.102125 222.06719 
L 420.351881 222.06719 
L 420.373725 215.041131 
L 420.760814 215.041131 
L 420.760814 211.528101 
L 421.028554 211.528101 
L 421.028554 208.015071 
L 421.504028 208.015071 
L 421.504028 204.502041 
L 421.818295 204.502041 
L 421.818295 200.989012 
L 422.352678 200.989012 
L 422.352678 197.475982 
L 422.698588 197.475982 
L 422.698588 193.962952 
L 423.745296 193.962952 
L 423.745296 190.449923 
L 423.988148 190.449923 
L 423.988148 186.936893 
L 424.213657 186.936893 
L 424.213657 183.423863 
L 424.374058 183.423863 
L 424.434064 176.397804 
L 424.661375 176.397804 
L 424.72498 169.371744 
L 424.907354 169.371744 
L 424.907354 165.858715 
L 425.426698 165.858715 
L 425.426698 162.345685 
L 425.676401 162.345685 
L 425.676401 158.832655 
L 426.367659 158.832655 
L 426.367659 155.319626 
L 426.93144 155.319626 
L 426.93144 151.806596 
L 427.097723 151.806596 
L 427.176874 144.780537 
L 428.289261 144.780537 
L 428.289261 141.267507 
L 429.159431 141.267507 
L 429.159431 137.754477 
L 429.364547 137.754477 
L 429.364547 134.241447 
L 429.775606 134.241447 
L 429.775606 130.728418 
L 431.018319 130.728418 
L 431.018319 127.215388 
L 433.780385 127.215388 
L 433.780385 123.702358 
L 434.318549 123.702358 
L 434.318549 120.189329 
L 438.1825 120.189329 
L 438.1825 120.189329 
" style="fill:none;stroke:#f5deb3;stroke-linecap:square;stroke-width:1.5;"/>
   </g>
   <g id="line2d_18">
    <path clip-path="url(#p3a43690c92)" d="M 258.578768 278.275665 
L 258.578768 274.762636 
L 290.604501 274.762636 
L 290.604501 271.249606 
L 292.058911 271.249606 
L 292.058911 267.736576 
L 299.751344 267.736576 
L 299.751344 264.223546 
L 300.650448 264.223546 
L 300.650448 260.710517 
L 314.746488 260.710517 
L 314.746488 257.197487 
L 318.636836 257.197487 
L 318.636836 253.684457 
L 334.143831 253.684457 
L 334.143831 250.171428 
L 337.930694 250.171428 
L 337.930694 246.658398 
L 353.089694 246.658398 
L 353.089694 243.145368 
L 353.672759 243.145368 
L 353.672759 239.632338 
L 360.469794 239.632338 
L 360.469794 236.119309 
L 364.671154 236.119309 
L 364.671154 232.606279 
L 366.473539 232.606279 
L 366.473539 229.093249 
L 366.656986 229.093249 
L 366.656986 225.58022 
L 366.769513 225.58022 
L 366.769513 222.06719 
L 371.819589 222.06719 
L 371.819589 218.55416 
L 372.655092 218.55416 
L 372.655092 215.041131 
L 373.281028 215.041131 
L 373.281028 211.528101 
L 373.402765 211.528101 
L 373.402765 208.015071 
L 374.018651 208.015071 
L 374.018651 204.502041 
L 374.709168 204.502041 
L 374.709168 200.989012 
L 379.623685 200.989012 
L 379.623685 197.475982 
L 384.407999 197.475982 
L 384.407999 193.962952 
L 384.598899 193.962952 
L 384.598899 190.449923 
L 388.452106 190.449923 
L 388.452106 186.936893 
L 390.035913 186.936893 
L 390.035913 183.423863 
L 391.337167 183.423863 
L 391.337167 179.910834 
L 405.303462 179.910834 
L 405.303462 176.397804 
L 409.850489 176.397804 
L 409.850489 172.884774 
L 425.057466 172.884774 
L 425.057466 169.371744 
L 429.48288 169.371744 
L 429.48288 165.858715 
L 432.504035 165.858715 
L 432.504035 162.345685 
L 438.1825 162.345685 
" style="fill:none;stroke:#f5deb3;stroke-linecap:square;stroke-width:1.5;"/>
   </g>
   <g id="line2d_19">
    <path clip-path="url(#p3a43690c92)" style="fill:none;stroke:#f5deb3;stroke-linecap:square;stroke-width:1.5;"/>
   </g>
   <g id="line2d_20">
    <path clip-path="url(#p3a43690c92)" d="M 275.416734 278.275665 
L 275.416734 274.762636 
L 280.476742 274.762636 
L 280.476742 271.249606 
L 284.446029 271.249606 
L 284.446029 267.736576 
L 285.366226 267.736576 
L 285.366226 264.223546 
L 287.232627 264.223546 
L 287.232627 257.197487 
L 287.549608 257.197487 
L 287.549608 253.684457 
L 288.33261 253.684457 
L 288.33261 250.171428 
L 288.719157 250.171428 
L 288.719157 246.658398 
L 290.308003 246.658398 
L 290.382307 239.632338 
L 291.555095 239.632338 
L 291.555095 236.119309 
L 292.486394 236.119309 
L 292.486394 232.606279 
L 295.438737 232.606279 
L 295.438737 229.093249 
L 296.425502 229.093249 
L 296.425502 222.06719 
L 298.710595 222.06719 
L 298.710595 218.55416 
L 300.828174 218.55416 
L 300.828174 215.041131 
L 304.135447 215.041131 
L 304.135447 208.015071 
L 304.518948 208.015071 
L 304.518948 204.502041 
L 305.16901 204.502041 
L 305.16901 200.989012 
L 305.650583 200.989012 
L 305.650583 197.475982 
L 306.442141 197.475982 
L 306.442141 193.962952 
L 308.787773 193.962952 
L 308.787773 190.449923 
L 309.527436 190.449923 
L 309.527436 186.936893 
L 310.399575 186.936893 
L 310.399575 183.423863 
L 311.302529 183.423863 
L 311.302529 179.910834 
L 314.219598 179.910834 
L 314.219598 176.397804 
L 314.351889 176.397804 
L 314.395901 169.371744 
L 314.833717 169.371744 
L 314.833717 165.858715 
L 315.825118 165.858715 
L 315.86774 158.832655 
L 317.827594 158.832655 
L 317.827594 155.319626 
L 321.058448 155.319626 
L 321.058448 151.806596 
L 321.550392 151.806596 
L 321.550392 148.293566 
L 323.575233 148.293566 
L 323.68315 141.267507 
L 328.939416 141.267507 
L 328.939416 137.754477 
L 329.638959 137.754477 
L 329.638959 134.241447 
L 329.79647 134.241447 
L 329.79647 130.728418 
L 330.576013 130.728418 
L 330.576013 127.215388 
L 330.976201 127.215388 
L 331.068059 120.189329 
L 337.957026 120.189329 
L 337.957026 116.676299 
L 343.620822 116.676299 
L 343.620822 113.163269 
L 344.336493 113.163269 
L 344.336493 109.650239 
L 346.832919 109.650239 
L 346.832919 106.13721 
L 351.392994 106.13721 
L 351.392994 102.62418 
L 352.017259 102.62418 
L 352.017259 99.11115 
L 354.377521 99.11115 
L 354.377521 95.598121 
L 359.095661 95.598121 
L 359.095661 92.085091 
L 361.647157 92.085091 
L 361.647157 88.572061 
L 364.123779 88.572061 
L 364.123779 85.059032 
L 364.538609 85.059032 
L 364.538609 81.546002 
L 368.668383 81.546002 
L 368.668383 78.032972 
L 368.870125 78.032972 
L 368.870125 74.519942 
L 370.556504 74.519942 
L 370.556504 71.006913 
L 372.170607 71.006913 
L 372.170607 67.493883 
L 373.934605 67.493883 
L 373.934605 63.980853 
L 375.921897 63.980853 
L 375.921897 60.467824 
L 387.326145 60.467824 
L 387.326145 56.954794 
L 391.304258 56.954794 
L 391.304258 53.441764 
L 391.827984 53.441764 
L 391.827984 49.928735 
L 398.199245 49.928735 
L 398.199245 46.415705 
L 403.905408 46.415705 
L 403.905408 42.902675 
L 410.737325 42.902675 
L 410.737325 39.389645 
L 422.847814 39.389645 
L 422.847814 35.876616 
L 428.684521 35.876616 
L 428.684521 32.363586 
L 430.009865 32.363586 
L 430.009865 28.850556 
L 432.211391 28.850556 
L 432.211391 25.337527 
L 434.764375 25.337527 
L 434.764375 21.824497 
L 438.1825 21.824497 
L 438.1825 21.824497 
" style="fill:none;stroke:#f5deb3;stroke-linecap:square;stroke-width:1.5;"/>
   </g>
   <g id="line2d_21"/>
   <g id="line2d_22">
    <path clip-path="url(#p3a43690c92)" d="M 273.847044 278.275665 
L 273.847044 274.762636 
L 276.131275 274.762636 
L 276.131275 271.249606 
L 280.935116 271.249606 
L 280.935116 267.736576 
L 281.479187 267.736576 
L 281.479187 264.223546 
L 282.194723 264.223546 
L 282.194723 260.710517 
L 282.371877 260.710517 
L 282.371877 257.197487 
L 282.811792 257.197487 
L 282.811792 253.684457 
L 283.334183 253.684457 
L 283.420672 246.658398 
L 284.446029 246.658398 
L 284.446029 243.145368 
L 285.448972 243.145368 
L 285.448972 239.632338 
L 287.232627 239.632338 
L 287.232627 236.119309 
L 288.48762 236.119309 
L 288.48762 232.606279 
L 289.934667 232.606279 
L 289.934667 229.093249 
L 290.604501 229.093249 
L 290.604501 225.58022 
L 290.752034 225.58022 
L 290.752034 222.06719 
L 291.045685 222.06719 
L 291.045685 218.55416 
L 293.537994 218.55416 
L 293.537994 215.041131 
L 294.701379 215.041131 
L 294.701379 211.528101 
L 295.571538 211.528101 
L 295.571538 208.015071 
L 296.620334 208.015071 
L 296.620334 204.502041 
L 303.914856 204.502041 
L 303.914856 200.989012 
L 304.518948 200.989012 
L 304.518948 197.475982 
L 305.115189 197.475982 
L 305.115189 193.962952 
L 307.425566 193.962952 
L 307.425566 190.449923 
L 309.331356 190.449923 
L 309.331356 186.936893 
L 311.724119 186.936893 
L 311.724119 183.423863 
L 312.829783 183.423863 
L 312.829783 179.910834 
L 314.746488 179.910834 
L 314.746488 176.397804 
L 318.676926 176.397804 
L 318.676926 172.884774 
L 320.32983 172.884774 
L 320.32983 169.371744 
L 320.867826 169.371744 
L 320.867826 165.858715 
L 321.738206 165.858715 
L 321.738206 162.345685 
L 322.037118 162.345685 
L 322.037118 158.832655 
L 323.647206 158.832655 
L 323.647206 155.319626 
L 324.643151 155.319626 
L 324.643151 151.806596 
L 328.000687 151.806596 
L 328.000687 148.293566 
L 332.215944 148.293566 
L 332.215944 144.780537 
L 332.985113 144.780537 
L 332.985113 141.267507 
L 333.654947 141.267507 
L 333.654947 137.754477 
L 335.911471 137.754477 
L 335.911471 134.241447 
L 338.167136 134.241447 
L 338.167136 130.728418 
L 340.616161 130.728418 
L 340.616161 127.215388 
L 341.720641 127.215388 
L 341.720641 123.702358 
L 342.917444 123.702358 
L 342.917444 120.189329 
L 344.244773 120.189329 
L 344.336493 113.163269 
L 344.405162 113.163269 
L 344.405162 109.650239 
L 345.445428 109.650239 
L 345.445428 106.13721 
L 346.177439 106.13721 
L 346.177439 102.62418 
L 347.049348 102.62418 
L 347.049348 99.11115 
L 350.919157 99.11115 
L 350.938998 92.085091 
L 353.728793 92.085091 
L 353.728793 88.572061 
L 355.089746 88.572061 
L 355.089746 85.059032 
L 355.612273 85.059032 
L 355.612273 81.546002 
L 358.342232 81.546002 
L 358.342232 78.032972 
L 359.012555 78.032972 
L 359.012555 74.519942 
L 359.508948 74.519942 
L 359.508948 71.006913 
L 359.869587 71.006913 
L 359.869587 67.493883 
L 360.146333 67.493883 
L 360.146333 63.980853 
L 360.598543 63.980853 
L 360.662782 56.954794 
L 363.705165 56.954794 
L 363.705165 53.441764 
L 370.904445 53.441764 
L 370.904445 49.928735 
L 372.170607 49.928735 
L 372.170607 46.415705 
L 377.349478 46.415705 
L 377.349478 42.902675 
L 377.793544 42.902675 
L 377.793544 39.389645 
L 380.85959 39.389645 
L 380.85959 35.876616 
L 381.648484 35.876616 
L 381.648484 32.363586 
L 383.009557 32.363586 
L 383.009557 28.850556 
L 391.18064 28.850556 
L 391.18064 25.337527 
L 391.884906 25.337527 
L 391.884906 21.824497 
L 406.061475 21.824497 
L 406.061475 18.311467 
L 416.268892 18.311467 
L 416.268892 14.798437 
L 416.268892 14.798437 
L 426.4825 14.798437 
L 426.4825 14.798437 
" style="fill:none;stroke:#f5deb3;stroke-linecap:square;stroke-width:1.5;"/>
   </g>
   <g id="line2d_23">
    <path clip-path="url(#p3a43690c92)" style="fill:none;stroke:#f5deb3;stroke-linecap:square;stroke-width:1.5;"/>
   </g>
   <g id="line2d_24">
    <path clip-path="url(#p3a43690c92)" d="M 326.841551 278.275665 
L 326.841551 274.762636 
L 328.971446 274.762636 
L 328.971446 271.249606 
L 334.372104 271.249606 
L 334.372104 267.736576 
L 335.022133 267.736576 
L 335.022133 264.223546 
L 335.134248 264.223546 
L 335.134248 260.710517 
L 335.274007 260.710517 
L 335.274007 257.197487 
L 335.828824 257.197487 
L 335.828824 253.684457 
L 336.267897 253.684457 
L 336.267897 250.171428 
L 339.382474 250.171428 
L 339.407986 243.145368 
L 339.788969 243.145368 
L 339.788969 239.632338 
L 340.166815 239.632338 
L 340.166815 236.119309 
L 340.690626 236.119309 
L 340.690626 232.606279 
L 341.501862 232.606279 
L 341.501862 229.093249 
L 341.962512 229.093249 
L 341.962512 225.58022 
L 343.011853 225.58022 
L 343.011853 222.06719 
L 343.434306 222.06719 
L 343.434306 218.55416 
L 344.746978 218.55416 
L 344.746978 215.041131 
L 345.601682 215.041131 
L 345.668486 208.015071 
L 347.070935 208.015071 
L 347.070935 204.502041 
L 348.410829 204.502041 
L 348.410829 200.989012 
L 349.200499 200.989012 
L 349.200499 197.475982 
L 350.760117 197.475982 
L 350.760117 193.962952 
L 350.958831 193.962952 
L 351.057865 186.936893 
L 351.353694 186.936893 
L 351.353694 183.423863 
L 351.939689 183.423863 
L 351.939689 179.910834 
L 352.055995 179.910834 
L 352.055995 176.397804 
L 352.364712 176.397804 
L 352.441567 169.371744 
L 353.032873 169.371744 
L 353.032873 165.858715 
L 353.766112 165.858715 
L 353.766112 162.345685 
L 354.026493 162.345685 
L 354.026493 158.832655 
L 355.125974 158.832655 
L 355.125974 155.319626 
L 356.022501 155.319626 
L 356.022501 151.806596 
L 356.358641 151.806596 
L 356.429094 144.780537 
L 357.815911 144.780537 
L 357.815911 141.267507 
L 359.112264 141.267507 
L 359.112264 137.754477 
L 359.689622 137.754477 
L 359.689622 134.241447 
L 360.710903 134.241447 
L 360.710903 130.728418 
L 361.26861 130.728418 
L 361.26861 127.215388 
L 361.410931 127.215388 
L 361.410931 123.702358 
L 363.810177 123.702358 
L 363.810177 120.189329 
L 364.612293 120.189329 
L 364.612293 116.676299 
L 366.501809 116.676299 
L 366.501809 113.163269 
L 367.119391 113.163269 
L 367.119391 109.650239 
L 367.756278 109.650239 
L 367.756278 106.13721 
L 368.492819 106.13721 
L 368.492819 102.62418 
L 368.870125 102.62418 
L 368.870125 99.11115 
L 369.257662 99.11115 
L 369.257662 95.598121 
L 370.904445 95.598121 
L 370.904445 92.085091 
L 372.257943 92.085091 
L 372.295323 85.059032 
L 372.407277 85.059032 
L 372.407277 81.546002 
L 373.012063 81.546002 
L 373.012063 78.032972 
L 373.621082 78.032972 
L 373.621082 74.519942 
L 374.590852 74.519942 
L 374.590852 71.006913 
L 374.897841 71.006913 
L 374.897841 67.493883 
L 375.82974 67.493883 
L 375.82974 63.980853 
L 375.944908 63.980853 
L 375.944908 60.467824 
L 380.631678 60.467824 
L 380.631678 56.954794 
L 382.143536 56.954794 
L 382.143536 53.441764 
L 383.39253 53.441764 
L 383.39253 49.928735 
L 383.849854 49.928735 
L 383.849854 46.415705 
L 393.0959 46.415705 
L 393.0959 42.902675 
L 397.240336 42.902675 
L 397.240336 39.389645 
L 403.034189 39.389645 
L 403.034189 35.876616 
L 416.956305 35.876616 
L 416.956305 32.363586 
L 417.111323 32.363586 
L 417.111323 28.850556 
L 420.985476 28.850556 
L 420.985476 25.337527 
L 424.561816 25.337527 
L 424.561816 21.824497 
L 438.1825 21.824497 
L 438.1825 21.824497 
" style="fill:none;stroke:#f5deb3;stroke-linecap:square;stroke-width:1.5;"/>
   </g>
   <g id="line2d_25"/>
   <g id="line2d_26">
    <path clip-path="url(#p3a43690c92)" d="M 383.03913 278.275665 
L 383.03913 274.762636 
L 384.675037 274.762636 
L 384.675037 271.249606 
L 385.690726 271.249606 
L 385.774361 264.223546 
L 385.820758 264.223546 
L 385.820758 260.710517 
L 385.968917 260.710517 
L 385.968917 257.197487 
L 386.098164 257.197487 
L 386.098164 253.684457 
L 390.791133 253.684457 
L 390.824412 246.658398 
L 391.048413 246.658398 
L 391.048413 243.145368 
L 391.509551 243.145368 
L 391.509551 239.632338 
L 391.624114 239.632338 
L 391.624114 236.119309 
L 391.876778 236.119309 
L 391.9661 229.093249 
L 392.071438 229.093249 
L 392.071438 225.58022 
L 392.233026 225.58022 
L 392.297502 218.55416 
L 392.538483 218.55416 
L 392.642517 211.528101 
L 392.977023 211.528101 
L 392.977023 208.015071 
L 393.143365 208.015071 
L 393.143365 204.502041 
L 393.301228 204.502041 
L 393.301228 200.989012 
L 393.654446 200.989012 
L 393.701337 190.449923 
L 393.989444 190.449923 
L 393.989444 186.936893 
L 394.314307 186.936893 
L 394.414395 172.884774 
L 398.23464 172.884774 
L 398.284147 162.345685 
L 398.601141 162.345685 
L 398.671287 155.319626 
L 399.117703 155.319626 
L 399.117703 151.806596 
L 399.353106 151.806596 
L 399.422113 144.780537 
L 400.031747 144.780537 
L 400.031747 141.267507 
L 400.431467 141.267507 
L 400.431467 137.754477 
L 401.034579 137.754477 
L 401.034579 134.241447 
L 405.017473 134.241447 
L 405.017473 130.728418 
L 405.617812 130.728418 
L 405.62986 123.702358 
L 406.031633 123.702358 
L 406.031633 120.189329 
L 406.364765 120.189329 
L 406.364765 116.676299 
L 410.984527 116.676299 
L 410.984527 113.163269 
L 412.310422 113.163269 
L 412.315629 106.13721 
L 412.487115 106.13721 
L 412.523408 95.598121 
L 412.874488 95.598121 
L 412.874488 92.085091 
L 415.870722 92.085091 
L 415.870722 88.572061 
L 416.473822 88.572061 
L 416.473822 85.059032 
L 416.819644 85.059032 
L 416.918646 74.519942 
L 417.693807 74.519942 
L 417.693807 71.006913 
L 420.574201 71.006913 
L 420.682789 63.980853 
L 421.157547 63.980853 
L 421.157547 60.467824 
L 421.87751 60.467824 
L 421.894414 53.441764 
L 425.951835 53.441764 
L 425.951835 49.928735 
L 428.869995 49.928735 
L 428.869995 46.415705 
L 437.697646 46.415705 
L 437.697646 42.902675 
L 438.1825 42.902675 
L 438.1825 42.902675 
" style="fill:none;stroke:#f5deb3;stroke-linecap:square;stroke-width:1.5;"/>
   </g>
   <g id="line2d_27"/>
   <g id="line2d_28">
    <path clip-path="url(#p3a43690c92)" d="M 319.510821 278.275665 
L 319.510821 274.762636 
L 319.980615 274.762636 
L 319.980615 271.249606 
L 321.172443 271.249606 
L 321.172443 267.736576 
L 323.141008 267.736576 
L 323.141008 264.223546 
L 323.467061 264.223546 
L 323.467061 260.710517 
L 323.933975 260.710517 
L 323.933975 257.197487 
L 325.51448 257.197487 
L 325.51448 253.684457 
L 327.341913 253.684457 
L 327.341913 250.171428 
L 327.507496 250.171428 
L 327.507496 246.658398 
L 328.939416 246.658398 
L 328.939416 243.145368 
L 329.51256 243.145368 
L 329.51256 239.632338 
L 329.765011 239.632338 
L 329.765011 236.119309 
L 330.914861 236.119309 
L 330.914861 232.606279 
L 331.94666 232.606279 
L 331.94666 229.093249 
L 332.126358 229.093249 
L 332.126358 225.58022 
L 332.483656 225.58022 
L 332.483656 222.06719 
L 332.661267 222.06719 
L 332.661267 218.55416 
L 333.10231 218.55416 
L 333.10231 215.041131 
L 333.452117 215.041131 
L 333.452117 211.528101 
L 333.770448 211.528101 
L 333.770448 208.015071 
L 333.971878 208.015071 
L 333.971878 204.502041 
L 334.712399 204.502041 
L 334.712399 200.989012 
L 334.937867 200.989012 
L 334.937867 197.475982 
L 335.106245 197.475982 
L 335.106245 193.962952 
L 336.240578 193.962952 
L 336.240578 190.449923 
L 336.864843 190.449923 
L 336.864843 186.936893 
L 337.080003 186.936893 
L 337.080003 183.423863 
L 338.219514 183.423863 
L 338.219514 179.910834 
L 339.023813 179.910834 
L 339.023813 176.397804 
L 340.01605 176.397804 
L 340.01605 172.884774 
L 340.491783 172.884774 
L 340.491783 169.371744 
L 341.477488 169.371744 
L 341.477488 165.858715 
L 342.799158 165.858715 
L 342.799158 162.345685 
L 343.387558 162.345685 
L 343.387558 158.832655 
L 343.667333 158.832655 
L 343.667333 155.319626 
L 343.876049 155.319626 
L 343.876049 151.806596 
L 345.288641 151.806596 
L 345.288641 148.293566 
L 345.467783 148.293566 
L 345.467783 144.780537 
L 346.001052 144.780537 
L 346.001052 141.267507 
L 346.177439 141.267507 
L 346.177439 137.754477 
L 346.615465 137.754477 
L 346.615465 134.241447 
L 346.832919 134.241447 
L 346.832919 130.728418 
L 347.006144 130.728418 
L 347.006144 127.215388 
L 347.543294 127.215388 
L 347.543294 123.702358 
L 348.347904 123.702358 
L 348.347904 120.189329 
L 348.848904 120.189329 
L 348.848904 116.676299 
L 349.262266 116.676299 
L 349.262266 113.163269 
L 349.385552 113.163269 
L 349.467558 102.62418 
L 350.279665 102.62418 
L 350.279665 99.11115 
L 351.392994 99.11115 
L 351.392994 95.598121 
L 352.55661 95.598121 
L 352.55661 92.085091 
L 352.900017 92.085091 
L 352.900017 88.572061 
L 353.710123 88.572061 
L 353.710123 85.059032 
L 353.970821 85.059032 
L 353.970821 81.546002 
L 355.396776 81.546002 
L 355.396776 78.032972 
L 356.146629 78.032972 
L 356.146629 74.519942 
L 356.58722 74.519942 
L 356.58722 71.006913 
L 356.936672 71.006913 
L 356.936672 67.493883 
L 358.240833 67.493883 
L 358.240833 63.980853 
L 358.628317 63.980853 
L 358.628317 60.467824 
L 359.062437 60.467824 
L 359.062437 56.954794 
L 359.607585 56.954794 
L 359.607585 53.441764 
L 359.967452 53.441764 
L 359.967452 49.928735 
L 360.982636 49.928735 
L 360.982636 46.415705 
L 362.948006 46.415705 
L 362.948006 42.902675 
L 363.328147 42.902675 
L 363.328147 39.389645 
L 363.825159 39.389645 
L 363.825159 35.876616 
L 379.867208 35.876616 
L 379.867208 32.363586 
L 380.673201 32.363586 
L 380.673201 28.850556 
L 383.743228 28.850556 
L 383.743228 25.337527 
L 386.456303 25.337527 
L 386.456303 21.824497 
L 389.121559 21.824497 
L 389.121559 18.311467 
L 404.036546 18.311467 
L 404.036546 14.798437 
L 404.036546 14.798437 
L 426.4825 14.798437 
L 426.4825 14.798437 
" style="fill:none;stroke:#f5deb3;stroke-linecap:square;stroke-width:1.5;"/>
   </g>
   <g id="line2d_29">
    <path clip-path="url(#p3a43690c92)" d="M 394.987603 278.275665 
L 394.987603 274.762636 
L 394.987603 274.762636 
L 394.987603 271.249606 
L 394.987603 271.249606 
L 394.987603 267.736576 
L 425.352305 267.736576 
L 425.352305 264.223546 
L 425.352305 264.223546 
L 425.352305 260.710517 
L 425.352305 260.710517 
L 425.352305 257.197487 
L 425.352305 257.197487 
L 425.352305 257.197487 
L 426.4825 257.197487 
" style="fill:none;stroke:#f5deb3;stroke-linecap:square;stroke-width:1.5;"/>
   </g>
   <g id="line2d_30"/>
   <g id="matplotlib.axis_1">
    <g id="xtick_1">
     <g id="line2d_31">
      <path clip-path="url(#p3a43690c92)" d="M 69.3625 278.275665 
L 69.3625 12.163665 
" style="fill:none;stroke:#b0b0b0;stroke-linecap:square;stroke-width:0.8;"/>
     </g>
     <g id="line2d_32">
      <defs>
       <path d="M 0 0 
L 0 3.5 
" id="mbd3d0a16bd" style="stroke:#000000;stroke-width:0.8;"/>
      </defs>
      <g>
       <use style="stroke:#000000;stroke-width:0.8;" x="69.3625" xlink:href="#mbd3d0a16bd" y="278.275665"/>
      </g>
     </g>
     <g id="text_1">
      <!-- 0 -->
      <defs>
       <path d="M 31.78125 66.40625 
Q 24.171875 66.40625 20.328125 58.90625 
Q 16.5 51.421875 16.5 36.375 
Q 16.5 21.390625 20.328125 13.890625 
Q 24.171875 6.390625 31.78125 6.390625 
Q 39.453125 6.390625 43.28125 13.890625 
Q 47.125 21.390625 47.125 36.375 
Q 47.125 51.421875 43.28125 58.90625 
Q 39.453125 66.40625 31.78125 66.40625 
z
M 31.78125 74.21875 
Q 44.046875 74.21875 50.515625 64.515625 
Q 56.984375 54.828125 56.984375 36.375 
Q 56.984375 17.96875 50.515625 8.265625 
Q 44.046875 -1.421875 31.78125 -1.421875 
Q 19.53125 -1.421875 13.0625 8.265625 
Q 6.59375 17.96875 6.59375 36.375 
Q 6.59375 54.828125 13.0625 64.515625 
Q 19.53125 74.21875 31.78125 74.21875 
z
" id="DejaVuSans-30"/>
      </defs>
      <g transform="translate(63 300.47254)scale(0.2 -0.2)">
       <use xlink:href="#DejaVuSans-30"/>
      </g>
     </g>
    </g>
    <g id="xtick_2">
     <g id="line2d_33">
      <path clip-path="url(#p3a43690c92)" d="M 280.660641 278.275665 
L 280.660641 12.163665 
" style="fill:none;stroke:#b0b0b0;stroke-linecap:square;stroke-width:0.8;"/>
     </g>
     <g id="line2d_34">
      <g>
       <use style="stroke:#000000;stroke-width:0.8;" x="280.660641" xlink:href="#mbd3d0a16bd" y="278.275665"/>
      </g>
     </g>
     <g id="text_2">
      <!-- 2 -->
      <defs>
       <path d="M 19.1875 8.296875 
L 53.609375 8.296875 
L 53.609375 0 
L 7.328125 0 
L 7.328125 8.296875 
Q 12.9375 14.109375 22.625 23.890625 
Q 32.328125 33.6875 34.8125 36.53125 
Q 39.546875 41.84375 41.421875 45.53125 
Q 43.3125 49.21875 43.3125 52.78125 
Q 43.3125 58.59375 39.234375 62.25 
Q 35.15625 65.921875 28.609375 65.921875 
Q 23.96875 65.921875 18.8125 64.3125 
Q 13.671875 62.703125 7.8125 59.421875 
L 7.8125 69.390625 
Q 13.765625 71.78125 18.9375 73 
Q 24.125 74.21875 28.421875 74.21875 
Q 39.75 74.21875 46.484375 68.546875 
Q 53.21875 62.890625 53.21875 53.421875 
Q 53.21875 48.921875 51.53125 44.890625 
Q 49.859375 40.875 45.40625 35.40625 
Q 44.1875 33.984375 37.640625 27.21875 
Q 31.109375 20.453125 19.1875 8.296875 
z
" id="DejaVuSans-32"/>
      </defs>
      <g transform="translate(274.298141 300.47254)scale(0.2 -0.2)">
       <use xlink:href="#DejaVuSans-32"/>
      </g>
     </g>
    </g>
    <g id="xtick_3">
     <g id="line2d_35">
      <defs>
       <path d="M 0 0 
L 0 2 
" id="m555920d5bb" style="stroke:#000000;stroke-width:0.6;"/>
      </defs>
      <g>
       <use style="stroke:#000000;stroke-width:0.6;" x="101.166039" xlink:href="#m555920d5bb" y="278.275665"/>
      </g>
     </g>
    </g>
    <g id="xtick_4">
     <g id="line2d_36">
      <g>
       <use style="stroke:#000000;stroke-width:0.6;" x="119.769917" xlink:href="#m555920d5bb" y="278.275665"/>
      </g>
     </g>
    </g>
    <g id="xtick_5">
     <g id="line2d_37">
      <g>
       <use style="stroke:#000000;stroke-width:0.6;" x="132.969579" xlink:href="#m555920d5bb" y="278.275665"/>
      </g>
     </g>
    </g>
    <g id="xtick_6">
     <g id="line2d_38">
      <g>
       <use style="stroke:#000000;stroke-width:0.6;" x="143.208031" xlink:href="#m555920d5bb" y="278.275665"/>
      </g>
     </g>
    </g>
    <g id="xtick_7">
     <g id="line2d_39">
      <g>
       <use style="stroke:#000000;stroke-width:0.6;" x="151.573456" xlink:href="#m555920d5bb" y="278.275665"/>
      </g>
     </g>
    </g>
    <g id="xtick_8">
     <g id="line2d_40">
      <g>
       <use style="stroke:#000000;stroke-width:0.6;" x="158.646323" xlink:href="#m555920d5bb" y="278.275665"/>
      </g>
     </g>
    </g>
    <g id="xtick_9">
     <g id="line2d_41">
      <g>
       <use style="stroke:#000000;stroke-width:0.6;" x="164.773118" xlink:href="#m555920d5bb" y="278.275665"/>
      </g>
     </g>
    </g>
    <g id="xtick_10">
     <g id="line2d_42">
      <g>
       <use style="stroke:#000000;stroke-width:0.6;" x="170.177334" xlink:href="#m555920d5bb" y="278.275665"/>
      </g>
     </g>
    </g>
    <g id="xtick_11">
     <g id="line2d_43">
      <g>
       <use style="stroke:#000000;stroke-width:0.6;" x="206.81511" xlink:href="#m555920d5bb" y="278.275665"/>
      </g>
     </g>
    </g>
    <g id="xtick_12">
     <g id="line2d_44">
      <g>
       <use style="stroke:#000000;stroke-width:0.6;" x="225.418988" xlink:href="#m555920d5bb" y="278.275665"/>
      </g>
     </g>
    </g>
    <g id="xtick_13">
     <g id="line2d_45">
      <g>
       <use style="stroke:#000000;stroke-width:0.6;" x="238.618649" xlink:href="#m555920d5bb" y="278.275665"/>
      </g>
     </g>
    </g>
    <g id="xtick_14">
     <g id="line2d_46">
      <g>
       <use style="stroke:#000000;stroke-width:0.6;" x="248.857102" xlink:href="#m555920d5bb" y="278.275665"/>
      </g>
     </g>
    </g>
    <g id="xtick_15">
     <g id="line2d_47">
      <g>
       <use style="stroke:#000000;stroke-width:0.6;" x="257.222527" xlink:href="#m555920d5bb" y="278.275665"/>
      </g>
     </g>
    </g>
    <g id="xtick_16">
     <g id="line2d_48">
      <g>
       <use style="stroke:#000000;stroke-width:0.6;" x="264.295393" xlink:href="#m555920d5bb" y="278.275665"/>
      </g>
     </g>
    </g>
    <g id="xtick_17">
     <g id="line2d_49">
      <g>
       <use style="stroke:#000000;stroke-width:0.6;" x="270.422189" xlink:href="#m555920d5bb" y="278.275665"/>
      </g>
     </g>
    </g>
    <g id="xtick_18">
     <g id="line2d_50">
      <g>
       <use style="stroke:#000000;stroke-width:0.6;" x="275.826405" xlink:href="#m555920d5bb" y="278.275665"/>
      </g>
     </g>
    </g>
    <g id="xtick_19">
     <g id="line2d_51">
      <g>
       <use style="stroke:#000000;stroke-width:0.6;" x="312.464181" xlink:href="#m555920d5bb" y="278.275665"/>
      </g>
     </g>
    </g>
    <g id="xtick_20">
     <g id="line2d_52">
      <g>
       <use style="stroke:#000000;stroke-width:0.6;" x="331.068059" xlink:href="#m555920d5bb" y="278.275665"/>
      </g>
     </g>
    </g>
    <g id="xtick_21">
     <g id="line2d_53">
      <g>
       <use style="stroke:#000000;stroke-width:0.6;" x="344.26772" xlink:href="#m555920d5bb" y="278.275665"/>
      </g>
     </g>
    </g>
    <g id="xtick_22">
     <g id="line2d_54">
      <g>
       <use style="stroke:#000000;stroke-width:0.6;" x="354.506173" xlink:href="#m555920d5bb" y="278.275665"/>
      </g>
     </g>
    </g>
    <g id="xtick_23">
     <g id="line2d_55">
      <g>
       <use style="stroke:#000000;stroke-width:0.6;" x="362.871598" xlink:href="#m555920d5bb" y="278.275665"/>
      </g>
     </g>
    </g>
    <g id="xtick_24">
     <g id="line2d_56">
      <g>
       <use style="stroke:#000000;stroke-width:0.6;" x="369.944464" xlink:href="#m555920d5bb" y="278.275665"/>
      </g>
     </g>
    </g>
    <g id="xtick_25">
     <g id="line2d_57">
      <g>
       <use style="stroke:#000000;stroke-width:0.6;" x="376.071259" xlink:href="#m555920d5bb" y="278.275665"/>
      </g>
     </g>
    </g>
    <g id="xtick_26">
     <g id="line2d_58">
      <g>
       <use style="stroke:#000000;stroke-width:0.6;" x="381.475476" xlink:href="#m555920d5bb" y="278.275665"/>
      </g>
     </g>
    </g>
    <g id="xtick_27">
     <g id="line2d_59">
      <g>
       <use style="stroke:#000000;stroke-width:0.6;" x="418.113252" xlink:href="#m555920d5bb" y="278.275665"/>
      </g>
     </g>
    </g>
    <g id="text_3">
     <!-- log10 of FEvals / DIM -->
     <defs>
      <path d="M 9.421875 75.984375 
L 18.40625 75.984375 
L 18.40625 0 
L 9.421875 0 
z
" id="DejaVuSans-6c"/>
      <path d="M 30.609375 48.390625 
Q 23.390625 48.390625 19.1875 42.75 
Q 14.984375 37.109375 14.984375 27.296875 
Q 14.984375 17.484375 19.15625 11.84375 
Q 23.34375 6.203125 30.609375 6.203125 
Q 37.796875 6.203125 41.984375 11.859375 
Q 46.1875 17.53125 46.1875 27.296875 
Q 46.1875 37.015625 41.984375 42.703125 
Q 37.796875 48.390625 30.609375 48.390625 
z
M 30.609375 56 
Q 42.328125 56 49.015625 48.375 
Q 55.71875 40.765625 55.71875 27.296875 
Q 55.71875 13.875 49.015625 6.21875 
Q 42.328125 -1.421875 30.609375 -1.421875 
Q 18.84375 -1.421875 12.171875 6.21875 
Q 5.515625 13.875 5.515625 27.296875 
Q 5.515625 40.765625 12.171875 48.375 
Q 18.84375 56 30.609375 56 
z
" id="DejaVuSans-6f"/>
      <path d="M 45.40625 27.984375 
Q 45.40625 37.75 41.375 43.109375 
Q 37.359375 48.484375 30.078125 48.484375 
Q 22.859375 48.484375 18.828125 43.109375 
Q 14.796875 37.75 14.796875 27.984375 
Q 14.796875 18.265625 18.828125 12.890625 
Q 22.859375 7.515625 30.078125 7.515625 
Q 37.359375 7.515625 41.375 12.890625 
Q 45.40625 18.265625 45.40625 27.984375 
z
M 54.390625 6.78125 
Q 54.390625 -7.171875 48.1875 -13.984375 
Q 42 -20.796875 29.203125 -20.796875 
Q 24.46875 -20.796875 20.265625 -20.09375 
Q 16.0625 -19.390625 12.109375 -17.921875 
L 12.109375 -9.1875 
Q 16.0625 -11.328125 19.921875 -12.34375 
Q 23.78125 -13.375 27.78125 -13.375 
Q 36.625 -13.375 41.015625 -8.765625 
Q 45.40625 -4.15625 45.40625 5.171875 
L 45.40625 9.625 
Q 42.625 4.78125 38.28125 2.390625 
Q 33.9375 0 27.875 0 
Q 17.828125 0 11.671875 7.65625 
Q 5.515625 15.328125 5.515625 27.984375 
Q 5.515625 40.671875 11.671875 48.328125 
Q 17.828125 56 27.875 56 
Q 33.9375 56 38.28125 53.609375 
Q 42.625 51.21875 45.40625 46.390625 
L 45.40625 54.6875 
L 54.390625 54.6875 
z
" id="DejaVuSans-67"/>
      <path d="M 12.40625 8.296875 
L 28.515625 8.296875 
L 28.515625 63.921875 
L 10.984375 60.40625 
L 10.984375 69.390625 
L 28.421875 72.90625 
L 38.28125 72.90625 
L 38.28125 8.296875 
L 54.390625 8.296875 
L 54.390625 0 
L 12.40625 0 
z
" id="DejaVuSans-31"/>
      <path id="DejaVuSans-20"/>
      <path d="M 37.109375 75.984375 
L 37.109375 68.5 
L 28.515625 68.5 
Q 23.6875 68.5 21.796875 66.546875 
Q 19.921875 64.59375 19.921875 59.515625 
L 19.921875 54.6875 
L 34.71875 54.6875 
L 34.71875 47.703125 
L 19.921875 47.703125 
L 19.921875 0 
L 10.890625 0 
L 10.890625 47.703125 
L 2.296875 47.703125 
L 2.296875 54.6875 
L 10.890625 54.6875 
L 10.890625 58.5 
Q 10.890625 67.625 15.140625 71.796875 
Q 19.390625 75.984375 28.609375 75.984375 
z
" id="DejaVuSans-66"/>
      <path d="M 9.8125 72.90625 
L 51.703125 72.90625 
L 51.703125 64.59375 
L 19.671875 64.59375 
L 19.671875 43.109375 
L 48.578125 43.109375 
L 48.578125 34.8125 
L 19.671875 34.8125 
L 19.671875 0 
L 9.8125 0 
z
" id="DejaVuSans-46"/>
      <path d="M 9.8125 72.90625 
L 55.90625 72.90625 
L 55.90625 64.59375 
L 19.671875 64.59375 
L 19.671875 43.015625 
L 54.390625 43.015625 
L 54.390625 34.71875 
L 19.671875 34.71875 
L 19.671875 8.296875 
L 56.78125 8.296875 
L 56.78125 0 
L 9.8125 0 
z
" id="DejaVuSans-45"/>
      <path d="M 2.984375 54.6875 
L 12.5 54.6875 
L 29.59375 8.796875 
L 46.6875 54.6875 
L 56.203125 54.6875 
L 35.6875 0 
L 23.484375 0 
z
" id="DejaVuSans-76"/>
      <path d="M 34.28125 27.484375 
Q 23.390625 27.484375 19.1875 25 
Q 14.984375 22.515625 14.984375 16.5 
Q 14.984375 11.71875 18.140625 8.90625 
Q 21.296875 6.109375 26.703125 6.109375 
Q 34.1875 6.109375 38.703125 11.40625 
Q 43.21875 16.703125 43.21875 25.484375 
L 43.21875 27.484375 
z
M 52.203125 31.203125 
L 52.203125 0 
L 43.21875 0 
L 43.21875 8.296875 
Q 40.140625 3.328125 35.546875 0.953125 
Q 30.953125 -1.421875 24.3125 -1.421875 
Q 15.921875 -1.421875 10.953125 3.296875 
Q 6 8.015625 6 15.921875 
Q 6 25.140625 12.171875 29.828125 
Q 18.359375 34.515625 30.609375 34.515625 
L 43.21875 34.515625 
L 43.21875 35.40625 
Q 43.21875 41.609375 39.140625 45 
Q 35.0625 48.390625 27.6875 48.390625 
Q 23 48.390625 18.546875 47.265625 
Q 14.109375 46.140625 10.015625 43.890625 
L 10.015625 52.203125 
Q 14.9375 54.109375 19.578125 55.046875 
Q 24.21875 56 28.609375 56 
Q 40.484375 56 46.34375 49.84375 
Q 52.203125 43.703125 52.203125 31.203125 
z
" id="DejaVuSans-61"/>
      <path d="M 44.28125 53.078125 
L 44.28125 44.578125 
Q 40.484375 46.53125 36.375 47.5 
Q 32.28125 48.484375 27.875 48.484375 
Q 21.1875 48.484375 17.84375 46.4375 
Q 14.5 44.390625 14.5 40.28125 
Q 14.5 37.15625 16.890625 35.375 
Q 19.28125 33.59375 26.515625 31.984375 
L 29.59375 31.296875 
Q 39.15625 29.25 43.1875 25.515625 
Q 47.21875 21.78125 47.21875 15.09375 
Q 47.21875 7.46875 41.1875 3.015625 
Q 35.15625 -1.421875 24.609375 -1.421875 
Q 20.21875 -1.421875 15.453125 -0.5625 
Q 10.6875 0.296875 5.421875 2 
L 5.421875 11.28125 
Q 10.40625 8.6875 15.234375 7.390625 
Q 20.0625 6.109375 24.8125 6.109375 
Q 31.15625 6.109375 34.5625 8.28125 
Q 37.984375 10.453125 37.984375 14.40625 
Q 37.984375 18.0625 35.515625 20.015625 
Q 33.0625 21.96875 24.703125 23.78125 
L 21.578125 24.515625 
Q 13.234375 26.265625 9.515625 29.90625 
Q 5.8125 33.546875 5.8125 39.890625 
Q 5.8125 47.609375 11.28125 51.796875 
Q 16.75 56 26.8125 56 
Q 31.78125 56 36.171875 55.265625 
Q 40.578125 54.546875 44.28125 53.078125 
z
" id="DejaVuSans-73"/>
      <path d="M 25.390625 72.90625 
L 33.6875 72.90625 
L 8.296875 -9.28125 
L 0 -9.28125 
z
" id="DejaVuSans-2f"/>
      <path d="M 19.671875 64.796875 
L 19.671875 8.109375 
L 31.59375 8.109375 
Q 46.6875 8.109375 53.6875 14.9375 
Q 60.6875 21.78125 60.6875 36.53125 
Q 60.6875 51.171875 53.6875 57.984375 
Q 46.6875 64.796875 31.59375 64.796875 
z
M 9.8125 72.90625 
L 30.078125 72.90625 
Q 51.265625 72.90625 61.171875 64.09375 
Q 71.09375 55.28125 71.09375 36.53125 
Q 71.09375 17.671875 61.125 8.828125 
Q 51.171875 0 30.078125 0 
L 9.8125 0 
z
" id="DejaVuSans-44"/>
      <path d="M 9.8125 72.90625 
L 19.671875 72.90625 
L 19.671875 0 
L 9.8125 0 
z
" id="DejaVuSans-49"/>
      <path d="M 9.8125 72.90625 
L 24.515625 72.90625 
L 43.109375 23.296875 
L 61.8125 72.90625 
L 76.515625 72.90625 
L 76.515625 0 
L 66.890625 0 
L 66.890625 64.015625 
L 48.09375 14.015625 
L 38.1875 14.015625 
L 19.390625 64.015625 
L 19.390625 0 
L 9.8125 0 
z
" id="DejaVuSans-4d"/>
     </defs>
     <g transform="translate(142.849063 323.82879)scale(0.2 -0.2)">
      <use xlink:href="#DejaVuSans-6c"/>
      <use x="27.783203" xlink:href="#DejaVuSans-6f"/>
      <use x="88.964844" xlink:href="#DejaVuSans-67"/>
      <use x="152.441406" xlink:href="#DejaVuSans-31"/>
      <use x="216.064453" xlink:href="#DejaVuSans-30"/>
      <use x="279.6875" xlink:href="#DejaVuSans-20"/>
      <use x="311.474609" xlink:href="#DejaVuSans-6f"/>
      <use x="372.65625" xlink:href="#DejaVuSans-66"/>
      <use x="407.861328" xlink:href="#DejaVuSans-20"/>
      <use x="439.648438" xlink:href="#DejaVuSans-46"/>
      <use x="497.167969" xlink:href="#DejaVuSans-45"/>
      <use x="560.351562" xlink:href="#DejaVuSans-76"/>
      <use x="619.53125" xlink:href="#DejaVuSans-61"/>
      <use x="680.810547" xlink:href="#DejaVuSans-6c"/>
      <use x="708.59375" xlink:href="#DejaVuSans-73"/>
      <use x="760.693359" xlink:href="#DejaVuSans-20"/>
      <use x="792.480469" xlink:href="#DejaVuSans-2f"/>
      <use x="826.171875" xlink:href="#DejaVuSans-20"/>
      <use x="857.958984" xlink:href="#DejaVuSans-44"/>
      <use x="934.960938" xlink:href="#DejaVuSans-49"/>
      <use x="964.453125" xlink:href="#DejaVuSans-4d"/>
     </g>
    </g>
   </g>
   <g id="matplotlib.axis_2">
    <g id="ytick_1">
     <g id="line2d_60">
      <path clip-path="url(#p3a43690c92)" d="M 69.3625 278.275665 
L 426.4825 278.275665 
" style="fill:none;stroke:#b0b0b0;stroke-linecap:square;stroke-width:0.8;"/>
     </g>
     <g id="line2d_61">
      <defs>
       <path d="M 0 0 
L -3.5 0 
" id="mc80adb25bb" style="stroke:#000000;stroke-width:0.8;"/>
      </defs>
      <g>
       <use style="stroke:#000000;stroke-width:0.8;" x="69.3625" xlink:href="#mc80adb25bb" y="278.275665"/>
      </g>
     </g>
     <g id="text_4">
      <!-- 0.0 -->
      <defs>
       <path d="M 10.6875 12.40625 
L 21 12.40625 
L 21 0 
L 10.6875 0 
z
" id="DejaVuSans-2e"/>
      </defs>
      <g transform="translate(30.55625 285.874103)scale(0.2 -0.2)">
       <use xlink:href="#DejaVuSans-30"/>
       <use x="63.623047" xlink:href="#DejaVuSans-2e"/>
       <use x="95.410156" xlink:href="#DejaVuSans-30"/>
      </g>
     </g>
    </g>
    <g id="ytick_2">
     <g id="line2d_62">
      <path clip-path="url(#p3a43690c92)" d="M 69.3625 225.58022 
L 426.4825 225.58022 
" style="fill:none;stroke:#b0b0b0;stroke-linecap:square;stroke-width:0.8;"/>
     </g>
     <g id="line2d_63">
      <g>
       <use style="stroke:#000000;stroke-width:0.8;" x="69.3625" xlink:href="#mc80adb25bb" y="225.58022"/>
      </g>
     </g>
     <g id="text_5">
      <!-- 0.2 -->
      <g transform="translate(30.55625 233.178657)scale(0.2 -0.2)">
       <use xlink:href="#DejaVuSans-30"/>
       <use x="63.623047" xlink:href="#DejaVuSans-2e"/>
       <use x="95.410156" xlink:href="#DejaVuSans-32"/>
      </g>
     </g>
    </g>
    <g id="ytick_3">
     <g id="line2d_64">
      <path clip-path="url(#p3a43690c92)" d="M 69.3625 172.884774 
L 426.4825 172.884774 
" style="fill:none;stroke:#b0b0b0;stroke-linecap:square;stroke-width:0.8;"/>
     </g>
     <g id="line2d_65">
      <g>
       <use style="stroke:#000000;stroke-width:0.8;" x="69.3625" xlink:href="#mc80adb25bb" y="172.884774"/>
      </g>
     </g>
     <g id="text_6">
      <!-- 0.4 -->
      <defs>
       <path d="M 37.796875 64.3125 
L 12.890625 25.390625 
L 37.796875 25.390625 
z
M 35.203125 72.90625 
L 47.609375 72.90625 
L 47.609375 25.390625 
L 58.015625 25.390625 
L 58.015625 17.1875 
L 47.609375 17.1875 
L 47.609375 0 
L 37.796875 0 
L 37.796875 17.1875 
L 4.890625 17.1875 
L 4.890625 26.703125 
z
" id="DejaVuSans-34"/>
      </defs>
      <g transform="translate(30.55625 180.483212)scale(0.2 -0.2)">
       <use xlink:href="#DejaVuSans-30"/>
       <use x="63.623047" xlink:href="#DejaVuSans-2e"/>
       <use x="95.410156" xlink:href="#DejaVuSans-34"/>
      </g>
     </g>
    </g>
    <g id="ytick_4">
     <g id="line2d_66">
      <path clip-path="url(#p3a43690c92)" d="M 69.3625 120.189329 
L 426.4825 120.189329 
" style="fill:none;stroke:#b0b0b0;stroke-linecap:square;stroke-width:0.8;"/>
     </g>
     <g id="line2d_67">
      <g>
       <use style="stroke:#000000;stroke-width:0.8;" x="69.3625" xlink:href="#mc80adb25bb" y="120.189329"/>
      </g>
     </g>
     <g id="text_7">
      <!-- 0.6 -->
      <defs>
       <path d="M 33.015625 40.375 
Q 26.375 40.375 22.484375 35.828125 
Q 18.609375 31.296875 18.609375 23.390625 
Q 18.609375 15.53125 22.484375 10.953125 
Q 26.375 6.390625 33.015625 6.390625 
Q 39.65625 6.390625 43.53125 10.953125 
Q 47.40625 15.53125 47.40625 23.390625 
Q 47.40625 31.296875 43.53125 35.828125 
Q 39.65625 40.375 33.015625 40.375 
z
M 52.59375 71.296875 
L 52.59375 62.3125 
Q 48.875 64.0625 45.09375 64.984375 
Q 41.3125 65.921875 37.59375 65.921875 
Q 27.828125 65.921875 22.671875 59.328125 
Q 17.53125 52.734375 16.796875 39.40625 
Q 19.671875 43.65625 24.015625 45.921875 
Q 28.375 48.1875 33.59375 48.1875 
Q 44.578125 48.1875 50.953125 41.515625 
Q 57.328125 34.859375 57.328125 23.390625 
Q 57.328125 12.15625 50.6875 5.359375 
Q 44.046875 -1.421875 33.015625 -1.421875 
Q 20.359375 -1.421875 13.671875 8.265625 
Q 6.984375 17.96875 6.984375 36.375 
Q 6.984375 53.65625 15.1875 63.9375 
Q 23.390625 74.21875 37.203125 74.21875 
Q 40.921875 74.21875 44.703125 73.484375 
Q 48.484375 72.75 52.59375 71.296875 
z
" id="DejaVuSans-36"/>
      </defs>
      <g transform="translate(30.55625 127.787766)scale(0.2 -0.2)">
       <use xlink:href="#DejaVuSans-30"/>
       <use x="63.623047" xlink:href="#DejaVuSans-2e"/>
       <use x="95.410156" xlink:href="#DejaVuSans-36"/>
      </g>
     </g>
    </g>
    <g id="ytick_5">
     <g id="line2d_68">
      <path clip-path="url(#p3a43690c92)" d="M 69.3625 67.493883 
L 426.4825 67.493883 
" style="fill:none;stroke:#b0b0b0;stroke-linecap:square;stroke-width:0.8;"/>
     </g>
     <g id="line2d_69">
      <g>
       <use style="stroke:#000000;stroke-width:0.8;" x="69.3625" xlink:href="#mc80adb25bb" y="67.493883"/>
      </g>
     </g>
     <g id="text_8">
      <!-- 0.8 -->
      <defs>
       <path d="M 31.78125 34.625 
Q 24.75 34.625 20.71875 30.859375 
Q 16.703125 27.09375 16.703125 20.515625 
Q 16.703125 13.921875 20.71875 10.15625 
Q 24.75 6.390625 31.78125 6.390625 
Q 38.8125 6.390625 42.859375 10.171875 
Q 46.921875 13.96875 46.921875 20.515625 
Q 46.921875 27.09375 42.890625 30.859375 
Q 38.875 34.625 31.78125 34.625 
z
M 21.921875 38.8125 
Q 15.578125 40.375 12.03125 44.71875 
Q 8.5 49.078125 8.5 55.328125 
Q 8.5 64.0625 14.71875 69.140625 
Q 20.953125 74.21875 31.78125 74.21875 
Q 42.671875 74.21875 48.875 69.140625 
Q 55.078125 64.0625 55.078125 55.328125 
Q 55.078125 49.078125 51.53125 44.71875 
Q 48 40.375 41.703125 38.8125 
Q 48.828125 37.15625 52.796875 32.3125 
Q 56.78125 27.484375 56.78125 20.515625 
Q 56.78125 9.90625 50.3125 4.234375 
Q 43.84375 -1.421875 31.78125 -1.421875 
Q 19.734375 -1.421875 13.25 4.234375 
Q 6.78125 9.90625 6.78125 20.515625 
Q 6.78125 27.484375 10.78125 32.3125 
Q 14.796875 37.15625 21.921875 38.8125 
z
M 18.3125 54.390625 
Q 18.3125 48.734375 21.84375 45.5625 
Q 25.390625 42.390625 31.78125 42.390625 
Q 38.140625 42.390625 41.71875 45.5625 
Q 45.3125 48.734375 45.3125 54.390625 
Q 45.3125 60.0625 41.71875 63.234375 
Q 38.140625 66.40625 31.78125 66.40625 
Q 25.390625 66.40625 21.84375 63.234375 
Q 18.3125 60.0625 18.3125 54.390625 
z
" id="DejaVuSans-38"/>
      </defs>
      <g transform="translate(30.55625 75.092321)scale(0.2 -0.2)">
       <use xlink:href="#DejaVuSans-30"/>
       <use x="63.623047" xlink:href="#DejaVuSans-2e"/>
       <use x="95.410156" xlink:href="#DejaVuSans-38"/>
      </g>
     </g>
    </g>
    <g id="ytick_6">
     <g id="line2d_70">
      <path clip-path="url(#p3a43690c92)" d="M 69.3625 14.798437 
L 426.4825 14.798437 
" style="fill:none;stroke:#b0b0b0;stroke-linecap:square;stroke-width:0.8;"/>
     </g>
     <g id="line2d_71">
      <g>
       <use style="stroke:#000000;stroke-width:0.8;" x="69.3625" xlink:href="#mc80adb25bb" y="14.798437"/>
      </g>
     </g>
     <g id="text_9">
      <!-- 1.0 -->
      <g transform="translate(30.55625 22.396875)scale(0.2 -0.2)">
       <use xlink:href="#DejaVuSans-31"/>
       <use x="63.623047" xlink:href="#DejaVuSans-2e"/>
       <use x="95.410156" xlink:href="#DejaVuSans-30"/>
      </g>
     </g>
    </g>
    <g id="text_10">
     <!-- proportion of trials -->
     <defs>
      <path d="M 18.109375 8.203125 
L 18.109375 -20.796875 
L 9.078125 -20.796875 
L 9.078125 54.6875 
L 18.109375 54.6875 
L 18.109375 46.390625 
Q 20.953125 51.265625 25.265625 53.625 
Q 29.59375 56 35.59375 56 
Q 45.5625 56 51.78125 48.09375 
Q 58.015625 40.1875 58.015625 27.296875 
Q 58.015625 14.40625 51.78125 6.484375 
Q 45.5625 -1.421875 35.59375 -1.421875 
Q 29.59375 -1.421875 25.265625 0.953125 
Q 20.953125 3.328125 18.109375 8.203125 
z
M 48.6875 27.296875 
Q 48.6875 37.203125 44.609375 42.84375 
Q 40.53125 48.484375 33.40625 48.484375 
Q 26.265625 48.484375 22.1875 42.84375 
Q 18.109375 37.203125 18.109375 27.296875 
Q 18.109375 17.390625 22.1875 11.75 
Q 26.265625 6.109375 33.40625 6.109375 
Q 40.53125 6.109375 44.609375 11.75 
Q 48.6875 17.390625 48.6875 27.296875 
z
" id="DejaVuSans-70"/>
      <path d="M 41.109375 46.296875 
Q 39.59375 47.171875 37.8125 47.578125 
Q 36.03125 48 33.890625 48 
Q 26.265625 48 22.1875 43.046875 
Q 18.109375 38.09375 18.109375 28.8125 
L 18.109375 0 
L 9.078125 0 
L 9.078125 54.6875 
L 18.109375 54.6875 
L 18.109375 46.1875 
Q 20.953125 51.171875 25.484375 53.578125 
Q 30.03125 56 36.53125 56 
Q 37.453125 56 38.578125 55.875 
Q 39.703125 55.765625 41.0625 55.515625 
z
" id="DejaVuSans-72"/>
      <path d="M 18.3125 70.21875 
L 18.3125 54.6875 
L 36.8125 54.6875 
L 36.8125 47.703125 
L 18.3125 47.703125 
L 18.3125 18.015625 
Q 18.3125 11.328125 20.140625 9.421875 
Q 21.96875 7.515625 27.59375 7.515625 
L 36.8125 7.515625 
L 36.8125 0 
L 27.59375 0 
Q 17.1875 0 13.234375 3.875 
Q 9.28125 7.765625 9.28125 18.015625 
L 9.28125 47.703125 
L 2.6875 47.703125 
L 2.6875 54.6875 
L 9.28125 54.6875 
L 9.28125 70.21875 
z
" id="DejaVuSans-74"/>
      <path d="M 9.421875 54.6875 
L 18.40625 54.6875 
L 18.40625 0 
L 9.421875 0 
z
M 9.421875 75.984375 
L 18.40625 75.984375 
L 18.40625 64.59375 
L 9.421875 64.59375 
z
" id="DejaVuSans-69"/>
      <path d="M 54.890625 33.015625 
L 54.890625 0 
L 45.90625 0 
L 45.90625 32.71875 
Q 45.90625 40.484375 42.875 44.328125 
Q 39.84375 48.1875 33.796875 48.1875 
Q 26.515625 48.1875 22.3125 43.546875 
Q 18.109375 38.921875 18.109375 30.90625 
L 18.109375 0 
L 9.078125 0 
L 9.078125 54.6875 
L 18.109375 54.6875 
L 18.109375 46.1875 
Q 21.34375 51.125 25.703125 53.5625 
Q 30.078125 56 35.796875 56 
Q 45.21875 56 50.046875 50.171875 
Q 54.890625 44.34375 54.890625 33.015625 
z
" id="DejaVuSans-6e"/>
     </defs>
     <g transform="translate(22.396875 238.44779)rotate(-90)scale(0.2 -0.2)">
      <use xlink:href="#DejaVuSans-70"/>
      <use x="63.476562" xlink:href="#DejaVuSans-72"/>
      <use x="104.558594" xlink:href="#DejaVuSans-6f"/>
      <use x="165.740234" xlink:href="#DejaVuSans-70"/>
      <use x="229.216797" xlink:href="#DejaVuSans-6f"/>
      <use x="290.398438" xlink:href="#DejaVuSans-72"/>
      <use x="331.511719" xlink:href="#DejaVuSans-74"/>
      <use x="370.720703" xlink:href="#DejaVuSans-69"/>
      <use x="398.503906" xlink:href="#DejaVuSans-6f"/>
      <use x="459.685547" xlink:href="#DejaVuSans-6e"/>
      <use x="523.064453" xlink:href="#DejaVuSans-20"/>
      <use x="554.851562" xlink:href="#DejaVuSans-6f"/>
      <use x="616.033203" xlink:href="#DejaVuSans-66"/>
      <use x="651.238281" xlink:href="#DejaVuSans-20"/>
      <use x="683.025391" xlink:href="#DejaVuSans-74"/>
      <use x="722.234375" xlink:href="#DejaVuSans-72"/>
      <use x="763.347656" xlink:href="#DejaVuSans-69"/>
      <use x="791.130859" xlink:href="#DejaVuSans-61"/>
      <use x="852.410156" xlink:href="#DejaVuSans-6c"/>
      <use x="880.193359" xlink:href="#DejaVuSans-73"/>
     </g>
    </g>
   </g>
   <g id="line2d_72">
    <path clip-path="url(#p3a43690c92)" d="M -1 267.736576 
L 84.800791 267.736576 
L 84.800791 264.223546 
L 135.208208 264.223546 
L 135.208208 260.710517 
L 143.208031 260.710517 
L 143.208031 257.197487 
L 145.007588 257.197487 
L 145.007588 253.684457 
L 145.007588 253.684457 
L 145.007588 250.171428 
L 158.646323 250.171428 
L 158.646323 246.658398 
L 159.938882 246.658398 
L 159.938882 243.145368 
L 168.091393 243.145368 
L 168.091393 239.632338 
L 175.011571 239.632338 
L 175.011571 236.119309 
L 175.011571 236.119309 
L 175.011571 232.606279 
L 184.135407 232.606279 
L 184.135407 229.093249 
L 189.119832 229.093249 
L 189.119832 225.58022 
L 192.999563 225.58022 
L 192.999563 222.06719 
L 220.923372 222.06719 
L 220.923372 218.55416 
L 253.230201 218.55416 
L 253.230201 215.041131 
L 258.874787 215.041131 
L 258.874787 211.528101 
L 260.040128 211.528101 
L 260.040128 208.015071 
L 262.148438 208.015071 
L 262.148438 204.502041 
L 262.694668 204.502041 
L 262.694668 200.989012 
L 264.032454 200.989012 
L 264.032454 197.475982 
L 264.4263 197.475982 
L 264.4263 193.962952 
L 265.332337 193.962952 
L 265.332337 190.449923 
L 267.338462 190.449923 
L 267.338462 186.936893 
L 269.961051 186.936893 
L 269.961051 183.423863 
L 278.113562 183.423863 
L 278.113562 179.910834 
L 280.752315 179.910834 
L 280.752315 176.397804 
L 282.371877 176.397804 
L 282.371877 172.884774 
L 284.446029 172.884774 
L 284.446029 169.371744 
L 284.950241 169.371744 
L 284.950241 165.858715 
L 285.448972 165.858715 
L 285.448972 162.345685 
L 286.105625 162.345685 
L 286.105625 158.832655 
L 287.549608 158.832655 
L 287.549608 155.319626 
L 288.021011 155.319626 
L 288.021011 151.806596 
L 288.642108 151.806596 
L 288.642108 148.293566 
L 289.330937 148.293566 
L 289.330937 144.780537 
L 290.604501 144.780537 
L 290.604501 141.267507 
L 290.972448 141.267507 
L 290.972448 137.754477 
L 295.835993 137.754477 
L 295.835993 134.241447 
L 302.110877 134.241447 
L 302.110877 130.728418 
L 311.113904 130.728418 
L 311.113904 127.215388 
L 327.967972 127.215388 
L 327.967972 123.702358 
L 400.707202 123.702358 
L 400.707202 120.189329 
L 400.707202 120.189329 
L 400.707202 120.189329 
L 426.4825 120.189329 
" style="fill:none;stroke:#000000;stroke-linecap:square;stroke-width:1.5;"/>
   </g>
   <g id="line2d_73"/>
   <g id="line2d_74">
    <path clip-path="url(#p3a43690c92)" d="M 226.6265 278.275665 
L 226.6265 274.762636 
L 231.96446 274.762636 
L 231.96446 271.249606 
L 232.228915 271.249606 
L 232.228915 267.736576 
L 235.041555 267.736576 
L 235.041555 264.223546 
L 238.618649 264.223546 
L 238.618649 260.710517 
L 239.97489 260.710517 
L 239.97489 257.197487 
L 241.50811 257.197487 
L 241.50811 253.684457 
L 243.199834 253.684457 
L 243.199834 250.171428 
L 245.625922 250.171428 
L 245.625922 246.658398 
L 246.792497 246.658398 
L 246.792497 243.145368 
L 251.183045 243.145368 
L 251.183045 239.632338 
L 254.38351 239.632338 
L 254.38351 236.119309 
L 254.545927 236.119309 
L 254.545927 232.606279 
L 255.667029 232.606279 
L 255.667029 229.093249 
L 258.874787 229.093249 
L 258.874787 225.58022 
L 295.505186 225.58022 
L 295.505186 222.06719 
L 297.199914 222.06719 
L 297.199914 218.55416 
L 302.225728 218.55416 
L 302.225728 215.041131 
L 306.179803 215.041131 
L 306.179803 211.528101 
L 306.179803 211.528101 
L 306.179803 211.528101 
L 426.4825 211.528101 
" style="fill:none;stroke:#00bfbf;stroke-linecap:square;stroke-width:1.5;"/>
   </g>
   <g id="line2d_75"/>
   <g id="line2d_76">
    <path clip-path="url(#p3a43690c92)" d="M 318.071869 278.275665 
L 318.071869 274.762636 
L 341.428703 274.762636 
L 341.428703 271.249606 
L 351.725692 271.249606 
L 351.725692 267.736576 
L 357.369777 267.736576 
L 357.369777 264.223546 
L 394.183092 264.223546 
L 394.183092 260.710517 
L 399.435902 260.710517 
L 399.435902 257.197487 
L 408.302946 257.197487 
L 408.302946 253.684457 
L 408.302946 253.684457 
L 408.302946 253.684457 
L 426.4825 253.684457 
" style="fill:none;stroke:#bf00bf;stroke-linecap:square;stroke-width:1.5;"/>
   </g>
   <g id="line2d_77"/>
   <g id="line2d_78"/>
   <g id="line2d_79">
    <path clip-path="url(#p3a43690c92)" d="M 426.4825 278.275665 
L 426.4825 12.163665 
" style="fill:none;stroke:#000000;stroke-linecap:square;stroke-width:1.5;"/>
   </g>
   <g id="patch_3">
    <path d="M 69.3625 278.275665 
L 69.3625 12.163665 
" style="fill:none;stroke:#000000;stroke-linecap:square;stroke-linejoin:miter;stroke-width:0.8;"/>
   </g>
   <g id="patch_4">
    <path d="M 426.4825 278.275665 
L 426.4825 12.163665 
" style="fill:none;stroke:#000000;stroke-linecap:square;stroke-linejoin:miter;stroke-width:0.8;"/>
   </g>
   <g id="patch_5">
    <path d="M 69.3625 278.275665 
L 426.4825 278.275665 
" style="fill:none;stroke:#000000;stroke-linecap:square;stroke-linejoin:miter;stroke-width:0.8;"/>
   </g>
   <g id="patch_6">
    <path d="M 69.3625 12.163665 
L 426.4825 12.163665 
" style="fill:none;stroke:#000000;stroke-linecap:square;stroke-linejoin:miter;stroke-width:0.8;"/>
   </g>
   <g id="text_11">
    <!-- {f10-f14}, 5-D -->
    <defs>
     <path d="M 51.125 -9.28125 
L 51.125 -16.3125 
L 48.09375 -16.3125 
Q 35.9375 -16.3125 31.8125 -12.6875 
Q 27.6875 -9.078125 27.6875 1.703125 
L 27.6875 13.375 
Q 27.6875 20.75 25.046875 23.578125 
Q 22.40625 26.421875 15.484375 26.421875 
L 12.5 26.421875 
L 12.5 33.40625 
L 15.484375 33.40625 
Q 22.46875 33.40625 25.078125 36.203125 
Q 27.6875 39.015625 27.6875 46.296875 
L 27.6875 58.015625 
Q 27.6875 68.796875 31.8125 72.390625 
Q 35.9375 75.984375 48.09375 75.984375 
L 51.125 75.984375 
L 51.125 69 
L 47.796875 69 
Q 40.921875 69 38.8125 66.84375 
Q 36.71875 64.703125 36.71875 57.8125 
L 36.71875 45.703125 
Q 36.71875 38.03125 34.5 34.5625 
Q 32.28125 31.109375 26.90625 29.890625 
Q 32.328125 28.5625 34.515625 25.09375 
Q 36.71875 21.625 36.71875 14.015625 
L 36.71875 1.90625 
Q 36.71875 -4.984375 38.8125 -7.125 
Q 40.921875 -9.28125 47.796875 -9.28125 
z
" id="DejaVuSans-7b"/>
     <path d="M 4.890625 31.390625 
L 31.203125 31.390625 
L 31.203125 23.390625 
L 4.890625 23.390625 
z
" id="DejaVuSans-2d"/>
     <path d="M 12.5 -9.28125 
L 15.921875 -9.28125 
Q 22.75 -9.28125 24.828125 -7.171875 
Q 26.90625 -5.078125 26.90625 1.90625 
L 26.90625 14.015625 
Q 26.90625 21.625 29.09375 25.09375 
Q 31.296875 28.5625 36.71875 29.890625 
Q 31.296875 31.109375 29.09375 34.5625 
Q 26.90625 38.03125 26.90625 45.703125 
L 26.90625 57.8125 
Q 26.90625 64.75 24.828125 66.875 
Q 22.75 69 15.921875 69 
L 12.5 69 
L 12.5 75.984375 
L 15.578125 75.984375 
Q 27.734375 75.984375 31.8125 72.390625 
Q 35.890625 68.796875 35.890625 58.015625 
L 35.890625 46.296875 
Q 35.890625 39.015625 38.515625 36.203125 
Q 41.15625 33.40625 48.09375 33.40625 
L 51.125 33.40625 
L 51.125 26.421875 
L 48.09375 26.421875 
Q 41.15625 26.421875 38.515625 23.578125 
Q 35.890625 20.75 35.890625 13.375 
L 35.890625 1.703125 
Q 35.890625 -9.078125 31.8125 -12.6875 
Q 27.734375 -16.3125 15.578125 -16.3125 
L 12.5 -16.3125 
z
" id="DejaVuSans-7d"/>
     <path d="M 11.71875 12.40625 
L 22.015625 12.40625 
L 22.015625 4 
L 14.015625 -11.625 
L 7.71875 -11.625 
L 11.71875 4 
z
" id="DejaVuSans-2c"/>
     <path d="M 10.796875 72.90625 
L 49.515625 72.90625 
L 49.515625 64.59375 
L 19.828125 64.59375 
L 19.828125 46.734375 
Q 21.96875 47.46875 24.109375 47.828125 
Q 26.265625 48.1875 28.421875 48.1875 
Q 40.625 48.1875 47.75 41.5 
Q 54.890625 34.8125 54.890625 23.390625 
Q 54.890625 11.625 47.5625 5.09375 
Q 40.234375 -1.421875 26.90625 -1.421875 
Q 22.3125 -1.421875 17.546875 -0.640625 
Q 12.796875 0.140625 7.71875 1.703125 
L 7.71875 11.625 
Q 12.109375 9.234375 16.796875 8.0625 
Q 21.484375 6.890625 26.703125 6.890625 
Q 35.15625 6.890625 40.078125 11.328125 
Q 45.015625 15.765625 45.015625 23.390625 
Q 45.015625 31 40.078125 35.4375 
Q 35.15625 39.890625 26.703125 39.890625 
Q 22.75 39.890625 18.8125 39.015625 
Q 14.890625 38.140625 10.796875 36.28125 
z
" id="DejaVuSans-35"/>
    </defs>
    <g transform="translate(175.0725 32.68278)scale(0.2 -0.2)">
     <use xlink:href="#DejaVuSans-7b"/>
     <use x="63.623047" xlink:href="#DejaVuSans-66"/>
     <use x="98.828125" xlink:href="#DejaVuSans-31"/>
     <use x="162.451172" xlink:href="#DejaVuSans-30"/>
     <use x="226.074219" xlink:href="#DejaVuSans-2d"/>
     <use x="262.158203" xlink:href="#DejaVuSans-66"/>
     <use x="297.363281" xlink:href="#DejaVuSans-31"/>
     <use x="360.986328" xlink:href="#DejaVuSans-34"/>
     <use x="424.609375" xlink:href="#DejaVuSans-7d"/>
     <use x="488.232422" xlink:href="#DejaVuSans-2c"/>
     <use x="520.019531" xlink:href="#DejaVuSans-20"/>
     <use x="551.806641" xlink:href="#DejaVuSans-35"/>
     <use x="615.429688" xlink:href="#DejaVuSans-2d"/>
     <use x="651.513672" xlink:href="#DejaVuSans-44"/>
    </g>
   </g>
   <g id="text_12">
    <!-- absolute targets -->
    <defs>
     <path d="M 48.6875 27.296875 
Q 48.6875 37.203125 44.609375 42.84375 
Q 40.53125 48.484375 33.40625 48.484375 
Q 26.265625 48.484375 22.1875 42.84375 
Q 18.109375 37.203125 18.109375 27.296875 
Q 18.109375 17.390625 22.1875 11.75 
Q 26.265625 6.109375 33.40625 6.109375 
Q 40.53125 6.109375 44.609375 11.75 
Q 48.6875 17.390625 48.6875 27.296875 
z
M 18.109375 46.390625 
Q 20.953125 51.265625 25.265625 53.625 
Q 29.59375 56 35.59375 56 
Q 45.5625 56 51.78125 48.09375 
Q 58.015625 40.1875 58.015625 27.296875 
Q 58.015625 14.40625 51.78125 6.484375 
Q 45.5625 -1.421875 35.59375 -1.421875 
Q 29.59375 -1.421875 25.265625 0.953125 
Q 20.953125 3.328125 18.109375 8.203125 
L 18.109375 0 
L 9.078125 0 
L 9.078125 75.984375 
L 18.109375 75.984375 
z
" id="DejaVuSans-62"/>
     <path d="M 8.5 21.578125 
L 8.5 54.6875 
L 17.484375 54.6875 
L 17.484375 21.921875 
Q 17.484375 14.15625 20.5 10.265625 
Q 23.53125 6.390625 29.59375 6.390625 
Q 36.859375 6.390625 41.078125 11.03125 
Q 45.3125 15.671875 45.3125 23.6875 
L 45.3125 54.6875 
L 54.296875 54.6875 
L 54.296875 0 
L 45.3125 0 
L 45.3125 8.40625 
Q 42.046875 3.421875 37.71875 1 
Q 33.40625 -1.421875 27.6875 -1.421875 
Q 18.265625 -1.421875 13.375 4.4375 
Q 8.5 10.296875 8.5 21.578125 
z
M 31.109375 56 
z
" id="DejaVuSans-75"/>
     <path d="M 56.203125 29.59375 
L 56.203125 25.203125 
L 14.890625 25.203125 
Q 15.484375 15.921875 20.484375 11.0625 
Q 25.484375 6.203125 34.421875 6.203125 
Q 39.59375 6.203125 44.453125 7.46875 
Q 49.3125 8.734375 54.109375 11.28125 
L 54.109375 2.78125 
Q 49.265625 0.734375 44.1875 -0.34375 
Q 39.109375 -1.421875 33.890625 -1.421875 
Q 20.796875 -1.421875 13.15625 6.1875 
Q 5.515625 13.8125 5.515625 26.8125 
Q 5.515625 40.234375 12.765625 48.109375 
Q 20.015625 56 32.328125 56 
Q 43.359375 56 49.78125 48.890625 
Q 56.203125 41.796875 56.203125 29.59375 
z
M 47.21875 32.234375 
Q 47.125 39.59375 43.09375 43.984375 
Q 39.0625 48.390625 32.421875 48.390625 
Q 24.90625 48.390625 20.390625 44.140625 
Q 15.875 39.890625 15.1875 32.171875 
z
" id="DejaVuSans-65"/>
    </defs>
    <g transform="translate(69.3625 291.449527)scale(0.14 -0.14)">
     <use xlink:href="#DejaVuSans-61"/>
     <use x="61.279297" xlink:href="#DejaVuSans-62"/>
     <use x="124.755859" xlink:href="#DejaVuSans-73"/>
     <use x="176.855469" xlink:href="#DejaVuSans-6f"/>
     <use x="238.037109" xlink:href="#DejaVuSans-6c"/>
     <use x="265.820312" xlink:href="#DejaVuSans-75"/>
     <use x="329.199219" xlink:href="#DejaVuSans-74"/>
     <use x="368.408203" xlink:href="#DejaVuSans-65"/>
     <use x="429.931641" xlink:href="#DejaVuSans-20"/>
     <use x="461.71875" xlink:href="#DejaVuSans-74"/>
     <use x="500.927734" xlink:href="#DejaVuSans-61"/>
     <use x="562.207031" xlink:href="#DejaVuSans-72"/>
     <use x="603.304688" xlink:href="#DejaVuSans-67"/>
     <use x="666.78125" xlink:href="#DejaVuSans-65"/>
     <use x="728.304688" xlink:href="#DejaVuSans-74"/>
     <use x="767.513672" xlink:href="#DejaVuSans-73"/>
    </g>
   </g>
   <g id="text_13">
    <!-- v2.1 -->
    <g style="fill:#808080;" transform="translate(237.011563 273.534858)scale(0.1 -0.1)">
     <use xlink:href="#DejaVuSans-76"/>
     <use x="59.179688" xlink:href="#DejaVuSans-32"/>
     <use x="122.802734" xlink:href="#DejaVuSans-2e"/>
     <use x="154.589844" xlink:href="#DejaVuSans-31"/>
    </g>
   </g>
   <g id="legend_1">
    <g id="patch_7">
     <path d="M 83.3625 145.588665 
L 212.584375 145.588665 
Q 216.584375 145.588665 216.584375 141.588665 
L 216.584375 26.163665 
Q 216.584375 22.163665 212.584375 22.163665 
L 83.3625 22.163665 
Q 79.3625 22.163665 79.3625 26.163665 
L 79.3625 141.588665 
Q 79.3625 145.588665 83.3625 145.588665 
z
" style="fill:#ffffff;opacity:0.2;stroke:#cccccc;stroke-linejoin:miter;"/>
    </g>
    <g id="line2d_80">
     <path d="M 87.3625 38.36054 
L 127.3625 38.36054 
" style="fill:none;stroke:#000000;stroke-linecap:square;stroke-width:1.5;"/>
    </g>
    <g id="line2d_81"/>
    <g id="text_14">
     <!-- 1: 5/5 -->
     <defs>
      <path d="M 11.71875 12.40625 
L 22.015625 12.40625 
L 22.015625 0 
L 11.71875 0 
z
M 11.71875 51.703125 
L 22.015625 51.703125 
L 22.015625 39.3125 
L 11.71875 39.3125 
z
" id="DejaVuSans-3a"/>
     </defs>
     <g transform="translate(143.3625 45.36054)scale(0.2 -0.2)">
      <use xlink:href="#DejaVuSans-31"/>
      <use x="63.623047" xlink:href="#DejaVuSans-3a"/>
      <use x="97.314453" xlink:href="#DejaVuSans-20"/>
      <use x="129.101562" xlink:href="#DejaVuSans-35"/>
      <use x="192.724609" xlink:href="#DejaVuSans-2f"/>
      <use x="226.416016" xlink:href="#DejaVuSans-35"/>
     </g>
    </g>
    <g id="line2d_82">
     <path d="M 87.3625 67.71679 
L 127.3625 67.71679 
" style="fill:none;stroke:#00bfbf;stroke-linecap:square;stroke-width:1.5;"/>
    </g>
    <g id="line2d_83"/>
    <g id="text_15">
     <!-- -1: 3/5 -->
     <defs>
      <path d="M 40.578125 39.3125 
Q 47.65625 37.796875 51.625 33 
Q 55.609375 28.21875 55.609375 21.1875 
Q 55.609375 10.40625 48.1875 4.484375 
Q 40.765625 -1.421875 27.09375 -1.421875 
Q 22.515625 -1.421875 17.65625 -0.515625 
Q 12.796875 0.390625 7.625 2.203125 
L 7.625 11.71875 
Q 11.71875 9.328125 16.59375 8.109375 
Q 21.484375 6.890625 26.8125 6.890625 
Q 36.078125 6.890625 40.9375 10.546875 
Q 45.796875 14.203125 45.796875 21.1875 
Q 45.796875 27.640625 41.28125 31.265625 
Q 36.765625 34.90625 28.71875 34.90625 
L 20.21875 34.90625 
L 20.21875 43.015625 
L 29.109375 43.015625 
Q 36.375 43.015625 40.234375 45.921875 
Q 44.09375 48.828125 44.09375 54.296875 
Q 44.09375 59.90625 40.109375 62.90625 
Q 36.140625 65.921875 28.71875 65.921875 
Q 24.65625 65.921875 20.015625 65.03125 
Q 15.375 64.15625 9.8125 62.3125 
L 9.8125 71.09375 
Q 15.4375 72.65625 20.34375 73.4375 
Q 25.25 74.21875 29.59375 74.21875 
Q 40.828125 74.21875 47.359375 69.109375 
Q 53.90625 64.015625 53.90625 55.328125 
Q 53.90625 49.265625 50.4375 45.09375 
Q 46.96875 40.921875 40.578125 39.3125 
z
" id="DejaVuSans-33"/>
     </defs>
     <g transform="translate(143.3625 74.71679)scale(0.2 -0.2)">
      <use xlink:href="#DejaVuSans-2d"/>
      <use x="36.083984" xlink:href="#DejaVuSans-31"/>
      <use x="99.707031" xlink:href="#DejaVuSans-3a"/>
      <use x="133.398438" xlink:href="#DejaVuSans-20"/>
      <use x="165.185547" xlink:href="#DejaVuSans-33"/>
      <use x="228.808594" xlink:href="#DejaVuSans-2f"/>
      <use x="262.5" xlink:href="#DejaVuSans-35"/>
     </g>
    </g>
    <g id="line2d_84">
     <path d="M 87.3625 97.07304 
L 127.3625 97.07304 
" style="fill:none;stroke:#bf00bf;stroke-linecap:square;stroke-width:1.5;"/>
    </g>
    <g id="line2d_85"/>
    <g id="text_16">
     <!-- -4: 1/5 -->
     <g transform="translate(143.3625 104.07304)scale(0.2 -0.2)">
      <use xlink:href="#DejaVuSans-2d"/>
      <use x="36.083984" xlink:href="#DejaVuSans-34"/>
      <use x="99.707031" xlink:href="#DejaVuSans-3a"/>
      <use x="133.398438" xlink:href="#DejaVuSans-20"/>
      <use x="165.185547" xlink:href="#DejaVuSans-31"/>
      <use x="228.808594" xlink:href="#DejaVuSans-2f"/>
      <use x="262.5" xlink:href="#DejaVuSans-35"/>
     </g>
    </g>
    <g id="line2d_86">
     <path d="M 87.3625 126.42929 
L 127.3625 126.42929 
" style="fill:none;stroke:#ff0000;stroke-linecap:square;stroke-width:3;"/>
    </g>
    <g id="line2d_87"/>
    <g id="text_17">
     <!-- -8: 0/5 -->
     <g transform="translate(143.3625 133.42929)scale(0.2 -0.2)">
      <use xlink:href="#DejaVuSans-2d"/>
      <use x="36.083984" xlink:href="#DejaVuSans-38"/>
      <use x="99.707031" xlink:href="#DejaVuSans-3a"/>
      <use x="133.398438" xlink:href="#DejaVuSans-20"/>
      <use x="165.185547" xlink:href="#DejaVuSans-30"/>
      <use x="228.808594" xlink:href="#DejaVuSans-2f"/>
      <use x="262.5" xlink:href="#DejaVuSans-35"/>
     </g>
    </g>
   </g>
  </g>
 </g>
 <defs>
  <clipPath id="p3a43690c92">
   <rect height="266.112" width="357.12" x="69.3625" y="12.163665"/>
  </clipPath>
 </defs>
</svg>
