<?xml version="1.0" encoding="utf-8" standalone="no"?>
<!DOCTYPE svg PUBLIC "-//W3C//DTD SVG 1.1//EN"
  "http://www.w3.org/Graphics/SVG/1.1/DTD/svg11.dtd">
<!-- Created with matplotlib (http://matplotlib.org/) -->
<svg height="335pt" version="1.1" viewBox="0 0 437 335" width="437pt" xmlns="http://www.w3.org/2000/svg" xmlns:xlink="http://www.w3.org/1999/xlink">
 <defs>
  <style type="text/css">
*{stroke-linecap:butt;stroke-linejoin:round;}
  </style>
 </defs>
 <g id="figure_1">
  <g id="patch_1">
   <path d="M 0 335.188165 
L 437.1825 335.188165 
L 437.1825 0 
L 0 0 
z
" style="fill:#ffffff;"/>
  </g>
  <g id="axes_1">
   <g id="patch_2">
    <path d="M 69.3625 278.275665 
L 426.4825 278.275665 
L 426.4825 12.163665 
L 69.3625 12.163665 
z
" style="fill:#ffffff;"/>
   </g>
   <g id="line2d_1">
    <path clip-path="url(#p7ef2bd44d6)" d="M 310.461465 278.275665 
L 310.461465 273.884378 
L 314.08889 273.884378 
L 314.08889 269.493091 
L 315.463197 269.493091 
L 315.463197 265.101804 
L 315.463197 265.101804 
L 315.463197 260.710517 
L 316.135217 260.710517 
L 316.135217 256.31923 
L 316.357054 256.31923 
L 316.357054 251.927942 
L 316.577823 251.927942 
L 316.577823 247.536655 
L 317.666013 247.536655 
L 317.666013 243.145368 
L 318.30675 243.145368 
L 318.30675 238.754081 
L 318.518357 238.754081 
L 318.518357 234.362794 
L 318.518357 234.362794 
L 318.518357 229.971507 
L 318.728991 229.971507 
L 318.728991 225.58022 
L 318.728991 225.58022 
L 318.728991 221.188933 
L 319.355155 221.188933 
L 319.355155 216.797645 
L 319.355155 216.797645 
L 319.355155 212.406358 
L 320.783805 212.406358 
L 320.783805 208.015071 
L 321.183952 208.015071 
L 321.183952 203.623784 
L 321.382724 203.623784 
L 321.382724 199.232497 
L 321.580639 199.232497 
L 321.580639 194.84121 
L 321.777703 194.84121 
L 321.777703 190.449923 
L 322.36387 190.449923 
L 322.36387 186.058636 
L 322.36387 186.058636 
L 322.36387 181.667348 
L 322.557606 181.667348 
L 322.557606 177.276061 
L 325.911862 177.276061 
L 325.911862 172.884774 
L 327.674557 172.884774 
L 327.674557 168.493487 
L 328.019113 168.493487 
L 328.019113 164.1022 
L 349.001424 164.1022 
L 349.001424 159.710913 
L 352.783345 159.710913 
L 352.783345 155.319626 
L 356.869303 155.319626 
L 356.869303 150.928338 
L 365.917559 150.928338 
L 365.917559 146.537051 
L 365.917559 146.537051 
L 365.917559 146.537051 
L 426.4825 146.537051 
" style="fill:none;stroke:#f5deb3;stroke-linecap:square;stroke-width:1.5;"/>
   </g>
   <g id="line2d_2"/>
   <g id="line2d_3">
    <path clip-path="url(#p7ef2bd44d6)" d="M 311.198465 278.275665 
L 311.198465 273.884378 
L 318.908769 273.884378 
L 318.908769 269.493091 
L 322.649575 269.493091 
L 322.649575 265.101804 
L 328.628029 265.101804 
L 328.628029 260.710517 
L 329.348219 260.710517 
L 329.348219 256.31923 
L 329.719873 256.31923 
L 329.719873 251.927942 
L 329.751364 251.927942 
L 329.751364 247.536655 
L 329.877115 247.536655 
L 329.877115 243.145368 
L 330.916961 243.145368 
L 330.916961 238.754081 
L 331.662798 238.754081 
L 331.662798 234.362794 
L 331.873686 234.362794 
L 331.873686 229.971507 
L 332.255331 229.971507 
L 332.255331 225.58022 
L 332.493183 225.58022 
L 332.493183 221.188933 
L 332.552454 221.188933 
L 332.552454 216.797645 
L 332.58946 216.797645 
L 332.58946 212.406358 
L 332.626436 212.406358 
L 332.626436 208.015071 
L 332.744558 208.015071 
L 332.744558 203.623784 
L 334.749832 203.623784 
L 334.749832 199.232497 
L 335.457196 199.232497 
L 335.457196 194.84121 
L 336.133279 194.84121 
L 336.133279 190.449923 
L 336.704955 190.449923 
L 336.704955 186.058636 
L 337.847168 186.058636 
L 337.847168 181.667348 
L 338.365405 181.667348 
L 338.365405 177.276061 
L 346.683036 177.276061 
L 346.683036 172.884774 
L 347.534846 172.884774 
L 347.534846 168.493487 
L 348.050064 168.493487 
L 348.050064 164.1022 
L 348.845958 164.1022 
L 348.845958 159.710913 
L 348.923757 159.710913 
L 348.923757 155.319626 
L 348.954839 155.319626 
L 348.954839 150.928338 
L 350.527782 150.928338 
L 350.527782 146.537051 
L 350.682649 146.537051 
L 350.682649 142.145764 
L 351.869116 142.145764 
L 351.869116 137.754477 
L 352.582815 137.754477 
L 352.582815 133.36319 
L 352.711828 133.36319 
L 352.711828 128.971903 
L 353.56745 128.971903 
L 353.56745 124.580616 
L 354.195391 124.580616 
L 354.195391 120.189329 
L 355.601133 120.189329 
L 355.601133 115.798041 
L 358.36143 115.798041 
L 358.36143 111.406754 
L 360.592845 111.406754 
L 360.592845 107.015467 
L 368.75159 107.015467 
L 368.75159 102.62418 
L 372.029194 102.62418 
L 372.029194 98.232893 
L 372.251026 98.232893 
L 372.251026 93.841606 
L 373.490232 93.841606 
L 373.490232 89.450319 
L 373.85887 89.450319 
L 373.85887 85.059032 
L 374.40336 85.059032 
L 374.40336 80.667744 
L 374.40336 80.667744 
L 374.40336 80.667744 
L 426.4825 80.667744 
" style="fill:none;stroke:#f5deb3;stroke-linecap:square;stroke-width:1.5;"/>
   </g>
   <g id="line2d_4">
    <path clip-path="url(#p7ef2bd44d6)" d="M 369.733353 278.275665 
L 369.733353 273.884378 
L 375.132124 273.884378 
L 375.132124 269.493091 
L 378.388778 269.493091 
L 378.388778 265.101804 
L 378.95782 265.101804 
L 378.95782 260.710517 
L 382.707844 260.710517 
L 382.707844 256.31923 
L 382.730173 256.31923 
L 382.730173 251.927942 
L 384.649032 251.927942 
L 384.649032 247.536655 
L 385.474164 247.536655 
L 385.474164 243.145368 
L 385.492852 243.145368 
L 385.492852 238.754081 
L 385.987635 238.754081 
L 385.987635 234.362794 
L 386.634599 234.362794 
L 386.634599 229.971507 
L 387.083459 229.971507 
L 387.083459 225.58022 
L 388.426196 225.58022 
L 388.426196 221.188933 
L 388.901334 221.188933 
L 388.901334 216.797645 
L 389.109019 216.797645 
L 389.109019 212.406358 
L 391.728751 212.406358 
L 391.728751 208.015071 
L 393.213124 208.015071 
L 393.213124 203.623784 
L 393.838488 203.623784 
L 393.838488 199.232497 
L 394.251355 199.232497 
L 394.251355 194.84121 
L 397.78929 194.84121 
L 397.78929 190.449923 
L 407.487289 190.449923 
L 407.487289 186.058636 
L 410.814098 186.058636 
L 410.814098 181.667348 
L 414.865149 181.667348 
L 414.865149 177.276061 
L 417.57025 177.276061 
L 417.57025 172.884774 
L 419.223281 172.884774 
L 419.223281 168.493487 
L 422.784389 168.493487 
L 422.784389 164.1022 
L 426.514988 164.1022 
L 426.514988 159.710913 
L 431.705315 159.710913 
L 431.705315 155.319626 
L 432.429766 155.319626 
L 432.429766 150.928338 
L 434.466287 150.928338 
L 434.466287 146.537051 
L 434.466287 146.537051 
" style="fill:none;stroke:#f5deb3;stroke-linecap:square;stroke-width:1.5;"/>
   </g>
   <g id="line2d_5">
    <path clip-path="url(#p7ef2bd44d6)" d="M 356.519315 278.275665 
L 356.519315 273.884378 
L 359.131188 273.884378 
L 359.131188 269.493091 
L 361.724057 269.493091 
L 361.724057 265.101804 
L 361.927478 265.101804 
L 361.927478 260.710517 
L 363.816287 260.710517 
L 363.816287 256.31923 
L 364.315508 256.31923 
L 364.315508 251.927942 
L 366.348491 251.927942 
L 366.348491 247.536655 
L 366.845597 247.536655 
L 366.845597 243.145368 
L 366.919176 243.145368 
L 366.919176 238.754081 
L 366.975156 238.754081 
L 366.975156 234.362794 
L 367.6761 234.362794 
L 367.6761 229.971507 
L 369.571728 229.971507 
L 369.571728 225.58022 
L 369.910812 225.58022 
L 369.910812 221.188933 
L 370.497437 221.188933 
L 370.497437 216.797645 
L 370.503913 216.797645 
L 370.503913 212.406358 
L 370.816912 212.406358 
L 370.816912 208.015071 
L 370.942157 208.015071 
L 370.942157 203.623784 
L 371.439748 203.623784 
L 371.439748 199.232497 
L 371.582287 199.232497 
L 371.582287 194.84121 
L 371.84718 194.84121 
L 371.84718 190.449923 
L 371.891181 190.449923 
L 371.891181 186.058636 
L 371.982191 186.058636 
L 371.982191 181.667348 
L 372.453175 181.667348 
L 372.453175 177.276061 
L 372.583323 177.276061 
L 372.583323 172.884774 
L 373.07883 172.884774 
L 373.07883 168.493487 
L 374.5192 168.493487 
L 374.5192 164.1022 
L 375.009019 164.1022 
L 375.009019 159.710913 
L 375.123342 159.710913 
L 375.123342 155.319626 
L 375.359876 155.319626 
L 375.359876 150.928338 
L 375.843731 150.928338 
L 375.843731 146.537051 
L 377.702015 146.537051 
L 377.702015 142.145764 
L 378.638942 142.145764 
L 378.638942 137.754477 
L 378.779738 137.754477 
L 378.779738 133.36319 
L 379.689829 133.36319 
L 379.689829 128.971903 
L 379.993614 128.971903 
L 379.993614 124.580616 
L 383.397496 124.580616 
L 383.397496 120.189329 
L 383.478098 120.189329 
L 383.478098 115.798041 
L 384.062481 115.798041 
L 384.062481 111.406754 
L 407.390298 111.406754 
L 407.390298 107.015467 
L 408.477231 107.015467 
L 408.477231 102.62418 
L 420.969979 102.62418 
L 420.969979 98.232893 
L 421.961636 98.232893 
L 421.961636 93.841606 
L 427.333888 93.841606 
L 427.333888 89.450319 
L 429.973801 89.450319 
L 429.973801 85.059032 
L 436.497773 85.059032 
L 436.497773 80.667744 
L 436.497773 80.667744 
" style="fill:none;stroke:#f5deb3;stroke-linecap:square;stroke-width:1.5;"/>
   </g>
   <g id="line2d_6"/>
   <g id="line2d_7">
    <path clip-path="url(#p7ef2bd44d6)" d="M 352.140472 278.275665 
L 352.140472 273.884378 
L 352.649756 273.884378 
L 352.649756 269.493091 
L 354.7875 269.493091 
L 354.7875 265.101804 
L 355.444052 265.101804 
L 355.444052 260.710517 
L 355.811227 260.710517 
L 355.811227 256.31923 
L 356.12679 256.31923 
L 356.12679 251.927942 
L 356.930277 251.927942 
L 356.930277 247.536655 
L 357.316016 247.536655 
L 357.316016 243.145368 
L 357.655718 243.145368 
L 357.655718 238.754081 
L 358.852389 238.754081 
L 358.852389 234.362794 
L 358.919122 234.362794 
L 358.919122 229.971507 
L 359.908644 229.971507 
L 359.908644 225.58022 
L 361.551224 225.58022 
L 361.551224 221.188933 
L 361.731897 221.188933 
L 361.731897 216.797645 
L 363.883664 216.797645 
L 363.883664 212.406358 
L 387.608331 212.406358 
L 387.608331 208.015071 
L 389.779703 208.015071 
L 389.779703 203.623784 
L 390.36728 203.623784 
L 390.36728 199.232497 
L 391.534664 199.232497 
L 391.534664 194.84121 
L 391.671632 194.84121 
L 391.671632 190.449923 
L 392.416728 190.449923 
L 392.416728 186.058636 
L 392.653106 186.058636 
L 392.653106 181.667348 
L 394.578228 181.667348 
L 394.578228 177.276061 
L 395.018692 177.276061 
L 395.018692 172.884774 
L 396.065544 172.884774 
L 396.065544 168.493487 
L 396.163746 168.493487 
L 396.163746 164.1022 
L 396.278357 164.1022 
L 396.278357 159.710913 
L 396.34293 159.710913 
L 396.34293 155.319626 
L 398.074235 155.319626 
L 398.074235 150.928338 
L 398.948227 150.928338 
L 398.948227 146.537051 
L 399.220892 146.537051 
L 399.220892 142.145764 
L 400.644441 142.145764 
L 400.644441 137.754477 
L 400.838755 137.754477 
L 400.838755 133.36319 
L 401.44651 133.36319 
L 401.44651 128.971903 
L 401.602953 128.971903 
L 401.602953 124.580616 
L 402.127656 124.580616 
L 402.127656 120.189329 
L 402.835661 120.189329 
L 402.835661 115.798041 
L 403.801659 115.798041 
L 403.801659 111.406754 
L 404.040793 111.406754 
L 404.040793 107.015467 
L 405.234829 107.015467 
L 405.234829 102.62418 
L 405.634065 102.62418 
L 405.634065 98.232893 
L 405.929734 98.232893 
L 405.929734 93.841606 
L 406.633427 93.841606 
L 406.633427 89.450319 
L 438.1825 89.450319 
" style="fill:none;stroke:#f5deb3;stroke-linecap:square;stroke-width:1.5;"/>
   </g>
   <g id="line2d_8">
    <path clip-path="url(#p7ef2bd44d6)" style="fill:none;stroke:#f5deb3;stroke-linecap:square;stroke-width:1.5;"/>
   </g>
   <g id="line2d_9">
    <path clip-path="url(#p7ef2bd44d6)" d="M 351.000732 278.275665 
L 351.000732 273.884378 
L 353.698398 273.884378 
L 353.698398 269.493091 
L 353.861559 269.493091 
L 353.861559 265.101804 
L 356.015924 265.101804 
L 356.015924 260.710517 
L 356.334497 260.710517 
L 356.334497 256.31923 
L 356.426999 256.31923 
L 356.426999 251.927942 
L 356.75148 251.927942 
L 356.75148 247.536655 
L 357.212315 247.536655 
L 357.212315 243.145368 
L 358.035431 243.145368 
L 358.035431 238.754081 
L 358.20507 238.754081 
L 358.20507 234.362794 
L 358.597075 234.362794 
L 358.597075 229.971507 
L 360.468103 229.971507 
L 360.468103 225.58022 
L 360.933152 225.58022 
L 360.933152 221.188933 
L 362.091124 221.188933 
L 362.091124 216.797645 
L 364.688229 216.797645 
L 364.688229 212.406358 
L 365.745484 212.406358 
L 365.745484 208.015071 
L 383.439036 208.015071 
L 383.439036 203.623784 
L 383.697204 203.623784 
L 383.697204 199.232497 
L 384.309986 199.232497 
L 384.309986 194.84121 
L 384.314779 194.84121 
L 384.314779 190.449923 
L 385.020999 190.449923 
L 385.020999 186.058636 
L 385.12706 186.058636 
L 385.12706 181.667348 
L 386.383321 181.667348 
L 386.383321 177.276061 
L 386.841439 177.276061 
L 386.841439 172.884774 
L 386.934327 172.884774 
L 386.934327 168.493487 
L 387.024768 168.493487 
L 387.024768 164.1022 
L 387.076691 164.1022 
L 387.076691 159.710913 
L 387.247847 159.710913 
L 387.247847 155.319626 
L 387.539141 155.319626 
L 387.539141 150.928338 
L 388.182363 150.928338 
L 388.182363 146.537051 
L 388.327501 146.537051 
L 388.327501 142.145764 
L 388.990148 142.145764 
L 388.990148 137.754477 
L 389.530146 137.754477 
L 389.530146 133.36319 
L 390.078659 133.36319 
L 390.078659 128.971903 
L 390.116684 128.971903 
L 390.116684 124.580616 
L 390.578902 124.580616 
L 390.578902 120.189329 
L 391.199726 120.189329 
L 391.199726 115.798041 
L 392.553094 115.798041 
L 392.553094 111.406754 
L 393.161776 111.406754 
L 393.161776 107.015467 
L 394.26486 107.015467 
L 394.26486 102.62418 
L 394.893276 102.62418 
L 394.893276 98.232893 
L 397.099926 98.232893 
L 397.099926 93.841606 
L 398.024497 93.841606 
L 398.024497 89.450319 
L 398.067133 89.450319 
L 398.067133 85.059032 
L 406.071637 85.059032 
L 406.071637 80.667744 
L 408.386567 80.667744 
L 408.386567 76.276457 
L 410.016369 76.276457 
L 410.016369 71.88517 
L 410.282462 71.88517 
L 410.282462 67.493883 
L 410.630819 67.493883 
L 410.630819 63.102596 
L 410.90278 63.102596 
L 410.90278 58.711309 
L 412.620652 58.711309 
L 412.620652 54.320022 
L 413.30726 54.320022 
L 413.30726 49.928735 
L 414.561245 49.928735 
L 414.561245 45.537447 
L 415.526493 45.537447 
L 415.526493 41.14616 
L 417.003776 41.14616 
L 417.003776 36.754873 
L 418.343755 36.754873 
L 418.343755 32.363586 
L 418.648635 32.363586 
L 418.648635 27.972299 
L 419.525729 27.972299 
L 419.525729 23.581012 
L 419.654583 23.581012 
L 419.654583 19.189725 
L 427.756054 19.189725 
L 427.756054 14.798437 
L 427.756054 14.798437 
" style="fill:none;stroke:#f5deb3;stroke-linecap:square;stroke-width:1.5;"/>
   </g>
   <g id="line2d_10">
    <path clip-path="url(#p7ef2bd44d6)" style="fill:none;stroke:#f5deb3;stroke-linecap:square;stroke-width:1.5;"/>
   </g>
   <g id="line2d_11">
    <path clip-path="url(#p7ef2bd44d6)" d="M 363.545789 278.275665 
L 363.545789 273.884378 
L 367.205358 273.884378 
L 367.205358 269.493091 
L 372.381747 269.493091 
L 372.381747 265.101804 
L 380.127695 265.101804 
L 380.127695 260.710517 
L 381.242867 260.710517 
L 381.242867 256.31923 
L 381.823352 256.31923 
L 381.823352 251.927942 
L 385.739749 251.927942 
L 385.739749 247.536655 
L 385.800106 247.536655 
L 385.800106 243.145368 
L 386.447413 243.145368 
L 386.447413 238.754081 
L 399.21916 238.754081 
L 399.21916 234.362794 
L 399.869094 234.362794 
L 399.869094 229.971507 
L 403.26733 229.971507 
L 403.26733 225.58022 
L 405.365265 225.58022 
L 405.365265 221.188933 
L 421.013075 221.188933 
L 421.013075 216.797645 
L 438.1825 216.797645 
" style="fill:none;stroke:#f5deb3;stroke-linecap:square;stroke-width:1.5;"/>
   </g>
   <g id="line2d_12">
    <path clip-path="url(#p7ef2bd44d6)" d="M 314.022408 278.275665 
L 314.022408 273.884378 
L 319.709163 273.884378 
L 319.709163 269.493091 
L 319.914414 269.493091 
L 319.914414 265.101804 
L 321.721486 265.101804 
L 321.721486 260.710517 
L 322.113572 260.710517 
L 322.113572 256.31923 
L 322.887834 256.31923 
L 322.887834 251.927942 
L 323.460076 251.927942 
L 323.460076 247.536655 
L 323.460076 247.536655 
L 323.460076 243.145368 
L 323.837643 243.145368 
L 323.837643 238.754081 
L 323.837643 238.754081 
L 323.837643 234.362794 
L 324.025268 234.362794 
L 324.025268 229.971507 
L 324.212129 229.971507 
L 324.212129 225.58022 
L 324.398232 225.58022 
L 324.398232 221.188933 
L 324.583583 221.188933 
L 324.583583 216.797645 
L 324.583583 216.797645 
L 324.583583 212.406358 
L 325.135186 212.406358 
L 325.135186 208.015071 
L 325.135186 208.015071 
L 325.135186 203.623784 
L 325.135186 203.623784 
L 325.135186 199.232497 
L 325.680236 199.232497 
L 325.680236 194.84121 
L 325.680236 194.84121 
L 325.680236 190.449923 
L 325.680236 190.449923 
L 325.680236 186.058636 
L 326.218888 186.058636 
L 326.218888 181.667348 
L 326.397042 181.667348 
L 326.397042 177.276061 
L 329.49091 177.276061 
L 329.49091 172.884774 
L 334.820357 172.884774 
L 334.820357 168.493487 
L 354.398211 168.493487 
L 354.398211 164.1022 
L 357.660002 164.1022 
L 357.660002 159.710913 
L 358.107604 159.710913 
L 358.107604 155.319626 
L 358.639027 155.319626 
L 358.639027 150.928338 
L 369.973089 150.928338 
L 369.973089 146.537051 
L 369.973089 146.537051 
L 369.973089 146.537051 
L 426.4825 146.537051 
" style="fill:none;stroke:#f5deb3;stroke-linecap:square;stroke-width:1.5;"/>
   </g>
   <g id="line2d_13"/>
   <g id="line2d_14"/>
   <g id="line2d_15"/>
   <g id="line2d_16">
    <path clip-path="url(#p7ef2bd44d6)" style="fill:none;stroke:#f5deb3;stroke-linecap:square;stroke-width:1.5;"/>
   </g>
   <g id="line2d_17">
    <path clip-path="url(#p7ef2bd44d6)" style="fill:none;stroke:#f5deb3;stroke-linecap:square;stroke-width:1.5;"/>
   </g>
   <g id="line2d_18">
    <path clip-path="url(#p7ef2bd44d6)" d="M 285.944079 278.275665 
L 285.944079 273.884378 
L 296.362197 273.884378 
L 296.362197 269.493091 
L 296.541079 269.493091 
L 296.541079 265.101804 
L 297.233729 265.101804 
L 297.233729 260.710517 
L 297.488813 260.710517 
L 297.488813 256.31923 
L 300.548312 256.31923 
L 300.548312 251.927942 
L 300.652305 251.927942 
L 300.652305 247.536655 
L 300.756063 247.536655 
L 300.756063 243.145368 
L 300.815248 243.145368 
L 300.815248 238.754081 
L 301.300633 238.754081 
L 301.300633 234.362794 
L 301.664961 234.362794 
L 301.664961 229.971507 
L 301.809886 229.971507 
L 301.809886 225.58022 
L 301.853274 225.58022 
L 301.853274 221.188933 
L 302.069603 221.188933 
L 302.069603 216.797645 
L 302.427899 216.797645 
L 302.427899 212.406358 
L 302.598892 212.406358 
L 302.598892 208.015071 
L 303.861426 208.015071 
L 303.861426 203.623784 
L 304.247232 203.623784 
L 304.247232 199.232497 
L 304.274666 199.232497 
L 304.274666 194.84121 
L 304.343179 194.84121 
L 304.343179 190.449923 
L 305.331992 190.449923 
L 305.331992 186.058636 
L 307.835331 186.058636 
L 307.835331 181.667348 
L 308.151463 181.667348 
L 308.151463 177.276061 
L 313.822385 177.276061 
L 313.822385 172.884774 
L 330.002522 172.884774 
L 330.002522 168.493487 
L 335.115381 168.493487 
L 335.115381 164.1022 
L 337.095567 164.1022 
L 337.095567 159.710913 
L 338.234758 159.710913 
L 338.234758 155.319626 
L 340.131344 155.319626 
L 340.131344 150.928338 
L 340.549972 150.928338 
L 340.549972 146.537051 
L 341.357611 146.537051 
L 341.357611 142.145764 
L 341.843924 142.145764 
L 341.843924 137.754477 
L 342.966869 137.754477 
L 342.966869 133.36319 
L 345.015179 133.36319 
L 345.015179 128.971903 
L 350.070128 128.971903 
L 350.070128 124.580616 
L 352.130808 124.580616 
L 352.130808 120.189329 
L 355.182557 120.189329 
L 355.182557 115.798041 
L 355.68618 115.798041 
L 355.68618 111.406754 
L 359.494818 111.406754 
L 359.494818 107.015467 
L 359.871919 107.015467 
L 359.871919 102.62418 
L 361.915767 102.62418 
L 361.915767 98.232893 
L 369.213471 98.232893 
L 369.213471 93.841606 
L 382.531308 93.841606 
L 382.531308 89.450319 
L 384.829469 89.450319 
L 384.829469 85.059032 
L 392.697042 85.059032 
L 392.697042 80.667744 
L 392.697042 80.667744 
L 392.697042 80.667744 
L 426.4825 80.667744 
" style="fill:none;stroke:#f5deb3;stroke-linecap:square;stroke-width:1.5;"/>
   </g>
   <g id="line2d_19"/>
   <g id="line2d_20">
    <path clip-path="url(#p7ef2bd44d6)" d="M 378.914712 278.275665 
L 378.914712 273.884378 
L 383.412162 273.884378 
L 383.412162 269.493091 
L 388.314325 269.493091 
L 388.314325 265.101804 
L 393.04108 265.101804 
L 393.04108 260.710517 
L 395.279822 260.710517 
L 395.279822 256.31923 
L 396.990988 256.31923 
L 396.990988 251.927942 
L 399.172382 251.927942 
L 399.172382 247.536655 
L 400.14654 247.536655 
L 400.14654 243.145368 
L 401.693282 243.145368 
L 401.693282 238.754081 
L 402.119529 238.754081 
L 402.119529 234.362794 
L 402.369185 234.362794 
L 402.369185 229.971507 
L 406.004474 229.971507 
L 406.004474 225.58022 
L 406.065671 225.58022 
L 406.065671 221.188933 
L 407.89042 221.188933 
L 407.89042 216.797645 
L 408.526737 216.797645 
L 408.526737 212.406358 
L 409.679845 212.406358 
L 409.679845 208.015071 
L 411.969539 208.015071 
L 411.969539 203.623784 
L 412.135799 203.623784 
L 412.135799 199.232497 
L 414.640503 199.232497 
L 414.640503 194.84121 
L 418.09999 194.84121 
L 418.09999 190.449923 
L 424.252646 190.449923 
L 424.252646 186.058636 
L 426.960806 186.058636 
L 426.960806 181.667348 
L 438.1825 181.667348 
" style="fill:none;stroke:#f5deb3;stroke-linecap:square;stroke-width:1.5;"/>
   </g>
   <g id="line2d_21"/>
   <g id="line2d_22">
    <path clip-path="url(#p7ef2bd44d6)" d="M 384.021502 278.275665 
L 384.021502 273.884378 
L 384.298002 273.884378 
L 384.298002 269.493091 
L 385.802426 269.493091 
L 385.802426 265.101804 
L 386.821023 265.101804 
L 386.821023 260.710517 
L 387.27032 260.710517 
L 387.27032 256.31923 
L 387.369071 256.31923 
L 387.369071 251.927942 
L 387.87962 251.927942 
L 387.87962 247.536655 
L 388.323109 247.536655 
L 388.323109 243.145368 
L 388.953344 243.145368 
L 388.953344 238.754081 
L 389.410218 238.754081 
L 389.410218 234.362794 
L 390.419752 234.362794 
L 390.419752 229.971507 
L 391.448594 229.971507 
L 391.448594 225.58022 
L 391.557179 225.58022 
L 391.557179 221.188933 
L 392.973669 221.188933 
L 392.973669 216.797645 
L 393.309739 216.797645 
L 393.309739 212.406358 
L 393.955165 212.406358 
L 393.955165 208.015071 
L 393.988169 208.015071 
L 393.988169 203.623784 
L 394.276433 203.623784 
L 394.276433 199.232497 
L 395.223181 199.232497 
L 395.223181 194.84121 
L 396.206296 194.84121 
L 396.206296 190.449923 
L 396.657118 190.449923 
L 396.657118 186.058636 
L 397.14343 186.058636 
L 397.14343 181.667348 
L 397.923078 181.667348 
L 397.923078 177.276061 
L 399.773386 177.276061 
L 399.773386 172.884774 
L 401.053883 172.884774 
L 401.053883 168.493487 
L 402.10327 168.493487 
L 402.10327 164.1022 
L 402.108148 164.1022 
L 402.108148 159.710913 
L 405.724319 159.710913 
L 405.724319 155.319626 
L 406.843621 155.319626 
L 406.843621 150.928338 
L 408.214664 150.928338 
L 408.214664 146.537051 
L 424.926033 146.537051 
L 424.926033 142.145764 
L 428.308681 142.145764 
L 428.308681 137.754477 
L 429.297369 137.754477 
L 429.297369 133.36319 
L 429.93658 133.36319 
L 429.93658 128.971903 
L 431.806715 128.971903 
L 431.806715 124.580616 
L 432.720212 124.580616 
L 432.720212 120.189329 
L 433.413323 120.189329 
L 433.413323 115.798041 
L 438.1825 115.798041 
" style="fill:none;stroke:#f5deb3;stroke-linecap:square;stroke-width:1.5;"/>
   </g>
   <g id="line2d_23">
    <path clip-path="url(#p7ef2bd44d6)" style="fill:none;stroke:#f5deb3;stroke-linecap:square;stroke-width:1.5;"/>
   </g>
   <g id="line2d_24">
    <path clip-path="url(#p7ef2bd44d6)" d="M 362.980891 278.275665 
L 362.980891 273.884378 
L 373.246883 273.884378 
L 373.246883 269.493091 
L 375.055955 269.493091 
L 375.055955 265.101804 
L 377.234667 265.101804 
L 377.234667 260.710517 
L 377.276588 260.710517 
L 377.276588 256.31923 
L 378.139985 256.31923 
L 378.139985 251.927942 
L 379.008959 251.927942 
L 379.008959 247.536655 
L 383.0244 247.536655 
L 383.0244 243.145368 
L 384.004618 243.145368 
L 384.004618 238.754081 
L 384.353103 238.754081 
L 384.353103 234.362794 
L 385.541871 234.362794 
L 385.541871 229.971507 
L 386.040745 229.971507 
L 386.040745 225.58022 
L 386.059203 225.58022 
L 386.059203 221.188933 
L 388.182363 221.188933 
L 388.182363 216.797645 
L 388.377971 216.797645 
L 388.377971 212.406358 
L 438.1825 212.406358 
" style="fill:none;stroke:#f5deb3;stroke-linecap:square;stroke-width:1.5;"/>
   </g>
   <g id="line2d_25">
    <path clip-path="url(#p7ef2bd44d6)" style="fill:none;stroke:#f5deb3;stroke-linecap:square;stroke-width:1.5;"/>
   </g>
   <g id="line2d_26">
    <path clip-path="url(#p7ef2bd44d6)" d="M 401.170199 278.275665 
L 401.170199 273.884378 
L 405.673197 273.884378 
L 405.673197 269.493091 
L 407.205885 269.493091 
L 407.205885 265.101804 
L 408.460245 265.101804 
L 408.460245 260.710517 
L 408.913868 260.710517 
L 408.913868 256.31923 
L 409.921843 256.31923 
L 409.921843 251.927942 
L 410.150291 251.927942 
L 410.150291 247.536655 
L 411.639163 247.536655 
L 411.639163 243.145368 
L 413.787518 243.145368 
L 413.787518 238.754081 
L 414.209123 238.754081 
L 414.209123 234.362794 
L 416.16408 234.362794 
L 416.16408 229.971507 
L 417.605061 229.971507 
L 417.605061 225.58022 
L 419.554641 225.58022 
L 419.554641 221.188933 
L 419.796348 221.188933 
L 419.796348 216.797645 
L 421.76819 216.797645 
L 421.76819 212.406358 
L 421.787254 212.406358 
L 421.787254 208.015071 
L 423.05299 208.015071 
L 423.05299 203.623784 
L 423.933434 203.623784 
L 423.933434 199.232497 
L 425.032706 199.232497 
L 425.032706 194.84121 
L 428.92004 194.84121 
L 428.92004 190.449923 
L 429.79451 190.449923 
L 429.79451 186.058636 
L 430.444419 186.058636 
L 430.444419 181.667348 
L 430.498749 181.667348 
L 430.498749 177.276061 
L 431.400625 177.276061 
L 431.400625 172.884774 
L 431.490702 172.884774 
L 431.490702 168.493487 
L 432.328053 168.493487 
L 432.328053 164.1022 
L 432.377677 164.1022 
L 432.377677 159.710913 
L 432.973994 159.710913 
L 432.973994 155.319626 
L 433.232155 155.319626 
L 433.232155 150.928338 
L 433.913569 150.928338 
L 433.913569 146.537051 
L 435.308321 146.537051 
L 435.308321 142.145764 
L 435.345371 142.145764 
L 435.345371 137.754477 
L 435.419381 137.754477 
L 435.419381 133.36319 
L 435.459486 133.36319 
L 435.459486 128.971903 
L 435.614071 128.971903 
L 435.614071 124.580616 
L 436.379281 124.580616 
L 436.379281 120.189329 
L 436.854473 120.189329 
L 436.854473 115.798041 
L 437.811256 115.798041 
L 437.811256 111.406754 
L 438.1825 111.406754 
" style="fill:none;stroke:#f5deb3;stroke-linecap:square;stroke-width:1.5;"/>
   </g>
   <g id="line2d_27"/>
   <g id="line2d_28">
    <path clip-path="url(#p7ef2bd44d6)" d="M 335.858529 278.275665 
L 335.858529 273.884378 
L 338.293595 273.884378 
L 338.293595 269.493091 
L 339.422905 269.493091 
L 339.422905 265.101804 
L 339.999343 265.101804 
L 339.999343 260.710517 
L 342.462556 260.710517 
L 342.462556 256.31923 
L 342.70057 256.31923 
L 342.70057 251.927942 
L 343.143547 251.927942 
L 343.143547 247.536655 
L 343.564819 247.536655 
L 343.564819 243.145368 
L 402.49673 243.145368 
L 402.49673 238.754081 
L 402.566005 238.754081 
L 402.566005 234.362794 
L 402.78442 234.362794 
L 402.78442 229.971507 
L 402.925196 229.971507 
L 402.925196 225.58022 
L 403.362356 225.58022 
L 403.362356 221.188933 
L 415.451183 221.188933 
L 415.451183 216.797645 
L 417.402789 216.797645 
L 417.402789 212.406358 
L 417.725535 212.406358 
L 417.725535 208.015071 
L 417.82261 208.015071 
L 417.82261 203.623784 
L 417.96899 203.623784 
L 417.96899 199.232497 
L 418.463446 199.232497 
L 418.463446 194.84121 
L 419.173986 194.84121 
L 419.173986 190.449923 
L 419.762055 190.449923 
L 419.762055 186.058636 
L 420.012581 186.058636 
L 420.012581 181.667348 
L 420.654146 181.667348 
L 420.654146 177.276061 
L 421.17969 177.276061 
L 421.17969 172.884774 
L 421.275087 172.884774 
L 421.275087 168.493487 
L 421.315758 168.493487 
L 421.315758 164.1022 
L 422.012242 164.1022 
L 422.012242 159.710913 
L 422.349237 159.710913 
L 422.349237 155.319626 
L 422.395238 155.319626 
L 422.395238 150.928338 
L 422.592307 150.928338 
L 422.592307 146.537051 
L 423.500935 146.537051 
L 423.500935 142.145764 
L 423.830249 142.145764 
L 423.830249 137.754477 
L 423.966768 137.754477 
L 423.966768 133.36319 
L 424.045461 133.36319 
L 424.045461 128.971903 
L 424.076699 128.971903 
L 424.076699 124.580616 
L 425.030733 124.580616 
L 425.030733 120.189329 
L 425.450092 120.189329 
L 425.450092 115.798041 
L 425.517499 115.798041 
L 425.517499 111.406754 
L 425.587732 111.406754 
L 425.587732 107.015467 
L 425.70163 107.015467 
L 425.70163 102.62418 
L 425.827854 102.62418 
L 425.827854 98.232893 
L 426.350399 98.232893 
L 426.350399 93.841606 
L 428.161472 93.841606 
L 428.161472 89.450319 
L 429.824737 89.450319 
L 429.824737 85.059032 
L 430.003909 85.059032 
L 430.003909 80.667744 
L 432.224427 80.667744 
L 432.224427 76.276457 
L 432.317953 76.276457 
L 432.317953 71.88517 
L 432.623322 71.88517 
L 432.623322 67.493883 
L 433.335179 67.493883 
L 433.335179 63.102596 
L 434.593822 63.102596 
L 434.593822 58.711309 
L 435.273609 58.711309 
L 435.273609 54.320022 
L 436.450105 54.320022 
L 436.450105 49.928735 
L 436.84761 49.928735 
L 436.84761 45.537447 
L 437.978223 45.537447 
L 437.978223 41.14616 
L 438.1825 41.14616 
" style="fill:none;stroke:#f5deb3;stroke-linecap:square;stroke-width:1.5;"/>
   </g>
   <g id="line2d_29">
    <path clip-path="url(#p7ef2bd44d6)" d="M 293.261713 278.275665 
L 293.261713 273.884378 
L 293.261713 273.884378 
L 293.261713 269.493091 
L 293.261713 269.493091 
L 293.261713 265.101804 
L 306.53551 265.101804 
L 306.53551 260.710517 
L 306.53551 260.710517 
L 306.53551 256.31923 
L 306.53551 256.31923 
L 306.53551 251.927942 
L 328.068125 251.927942 
L 328.068125 247.536655 
L 328.068125 247.536655 
L 328.068125 243.145368 
L 328.068125 243.145368 
L 328.068125 238.754081 
L 328.845275 238.754081 
L 328.845275 234.362794 
L 328.845275 234.362794 
L 328.845275 229.971507 
L 328.845275 229.971507 
L 328.845275 225.58022 
L 342.748026 225.58022 
L 342.748026 221.188933 
L 342.748026 221.188933 
L 342.748026 216.797645 
L 342.748026 216.797645 
L 342.748026 212.406358 
L 344.567203 212.406358 
L 344.567203 208.015071 
L 344.567203 208.015071 
L 344.567203 203.623784 
L 344.567203 203.623784 
L 344.567203 199.232497 
L 344.953064 199.232497 
L 344.953064 194.84121 
L 344.953064 194.84121 
L 344.953064 190.449923 
L 344.953064 190.449923 
L 344.953064 186.058636 
L 346.24014 186.058636 
L 346.24014 181.667348 
L 346.24014 181.667348 
L 346.24014 177.276061 
L 346.24014 177.276061 
L 346.24014 172.884774 
L 346.306024 172.884774 
L 346.306024 168.493487 
L 346.306024 168.493487 
L 346.306024 164.1022 
L 346.306024 164.1022 
L 346.306024 159.710913 
L 369.996012 159.710913 
L 369.996012 155.319626 
L 369.996012 155.319626 
L 369.996012 150.928338 
L 369.996012 150.928338 
L 369.996012 146.537051 
L 369.996012 146.537051 
L 369.996012 146.537051 
L 426.4825 146.537051 
" style="fill:none;stroke:#f5deb3;stroke-linecap:square;stroke-width:1.5;"/>
   </g>
   <g id="line2d_30"/>
   <g id="matplotlib.axis_1">
    <g id="xtick_1">
     <g id="line2d_31">
      <path clip-path="url(#p7ef2bd44d6)" d="M 69.3625 278.275665 
L 69.3625 12.163665 
" style="fill:none;stroke:#b0b0b0;stroke-linecap:square;stroke-width:0.8;"/>
     </g>
     <g id="line2d_32">
      <defs>
       <path d="M 0 0 
L 0 3.5 
" id="m839ccd1e55" style="stroke:#000000;stroke-width:0.8;"/>
      </defs>
      <g>
       <use style="stroke:#000000;stroke-width:0.8;" x="69.3625" xlink:href="#m839ccd1e55" y="278.275665"/>
      </g>
     </g>
     <g id="text_1">
      <!-- 0 -->
      <defs>
       <path d="M 31.78125 66.40625 
Q 24.171875 66.40625 20.328125 58.90625 
Q 16.5 51.421875 16.5 36.375 
Q 16.5 21.390625 20.328125 13.890625 
Q 24.171875 6.390625 31.78125 6.390625 
Q 39.453125 6.390625 43.28125 13.890625 
Q 47.125 21.390625 47.125 36.375 
Q 47.125 51.421875 43.28125 58.90625 
Q 39.453125 66.40625 31.78125 66.40625 
z
M 31.78125 74.21875 
Q 44.046875 74.21875 50.515625 64.515625 
Q 56.984375 54.828125 56.984375 36.375 
Q 56.984375 17.96875 50.515625 8.265625 
Q 44.046875 -1.421875 31.78125 -1.421875 
Q 19.53125 -1.421875 13.0625 8.265625 
Q 6.59375 17.96875 6.59375 36.375 
Q 6.59375 54.828125 13.0625 64.515625 
Q 19.53125 74.21875 31.78125 74.21875 
z
" id="DejaVuSans-30"/>
      </defs>
      <g transform="translate(63 300.47254)scale(0.2 -0.2)">
       <use xlink:href="#DejaVuSans-30"/>
      </g>
     </g>
    </g>
    <g id="xtick_2">
     <g id="line2d_33">
      <path clip-path="url(#p7ef2bd44d6)" d="M 175.012419 278.275665 
L 175.012419 12.163665 
" style="fill:none;stroke:#b0b0b0;stroke-linecap:square;stroke-width:0.8;"/>
     </g>
     <g id="line2d_34">
      <g>
       <use style="stroke:#000000;stroke-width:0.8;" x="175.012419" xlink:href="#m839ccd1e55" y="278.275665"/>
      </g>
     </g>
     <g id="text_2">
      <!-- 1 -->
      <defs>
       <path d="M 12.40625 8.296875 
L 28.515625 8.296875 
L 28.515625 63.921875 
L 10.984375 60.40625 
L 10.984375 69.390625 
L 28.421875 72.90625 
L 38.28125 72.90625 
L 38.28125 8.296875 
L 54.390625 8.296875 
L 54.390625 0 
L 12.40625 0 
z
" id="DejaVuSans-31"/>
      </defs>
      <g transform="translate(168.649919 300.47254)scale(0.2 -0.2)">
       <use xlink:href="#DejaVuSans-31"/>
      </g>
     </g>
    </g>
    <g id="xtick_3">
     <g id="line2d_35">
      <path clip-path="url(#p7ef2bd44d6)" d="M 280.662338 278.275665 
L 280.662338 12.163665 
" style="fill:none;stroke:#b0b0b0;stroke-linecap:square;stroke-width:0.8;"/>
     </g>
     <g id="line2d_36">
      <g>
       <use style="stroke:#000000;stroke-width:0.8;" x="280.662338" xlink:href="#m839ccd1e55" y="278.275665"/>
      </g>
     </g>
     <g id="text_3">
      <!-- 2 -->
      <defs>
       <path d="M 19.1875 8.296875 
L 53.609375 8.296875 
L 53.609375 0 
L 7.328125 0 
L 7.328125 8.296875 
Q 12.9375 14.109375 22.625 23.890625 
Q 32.328125 33.6875 34.8125 36.53125 
Q 39.546875 41.84375 41.421875 45.53125 
Q 43.3125 49.21875 43.3125 52.78125 
Q 43.3125 58.59375 39.234375 62.25 
Q 35.15625 65.921875 28.609375 65.921875 
Q 23.96875 65.921875 18.8125 64.3125 
Q 13.671875 62.703125 7.8125 59.421875 
L 7.8125 69.390625 
Q 13.765625 71.78125 18.9375 73 
Q 24.125 74.21875 28.421875 74.21875 
Q 39.75 74.21875 46.484375 68.546875 
Q 53.21875 62.890625 53.21875 53.421875 
Q 53.21875 48.921875 51.53125 44.890625 
Q 49.859375 40.875 45.40625 35.40625 
Q 44.1875 33.984375 37.640625 27.21875 
Q 31.109375 20.453125 19.1875 8.296875 
z
" id="DejaVuSans-32"/>
      </defs>
      <g transform="translate(274.299838 300.47254)scale(0.2 -0.2)">
       <use xlink:href="#DejaVuSans-32"/>
      </g>
     </g>
    </g>
    <g id="xtick_4">
     <g id="line2d_37">
      <path clip-path="url(#p7ef2bd44d6)" d="M 386.312257 278.275665 
L 386.312257 12.163665 
" style="fill:none;stroke:#b0b0b0;stroke-linecap:square;stroke-width:0.8;"/>
     </g>
     <g id="line2d_38">
      <g>
       <use style="stroke:#000000;stroke-width:0.8;" x="386.312257" xlink:href="#m839ccd1e55" y="278.275665"/>
      </g>
     </g>
     <g id="text_4">
      <!-- 3 -->
      <defs>
       <path d="M 40.578125 39.3125 
Q 47.65625 37.796875 51.625 33 
Q 55.609375 28.21875 55.609375 21.1875 
Q 55.609375 10.40625 48.1875 4.484375 
Q 40.765625 -1.421875 27.09375 -1.421875 
Q 22.515625 -1.421875 17.65625 -0.515625 
Q 12.796875 0.390625 7.625 2.203125 
L 7.625 11.71875 
Q 11.71875 9.328125 16.59375 8.109375 
Q 21.484375 6.890625 26.8125 6.890625 
Q 36.078125 6.890625 40.9375 10.546875 
Q 45.796875 14.203125 45.796875 21.1875 
Q 45.796875 27.640625 41.28125 31.265625 
Q 36.765625 34.90625 28.71875 34.90625 
L 20.21875 34.90625 
L 20.21875 43.015625 
L 29.109375 43.015625 
Q 36.375 43.015625 40.234375 45.921875 
Q 44.09375 48.828125 44.09375 54.296875 
Q 44.09375 59.90625 40.109375 62.90625 
Q 36.140625 65.921875 28.71875 65.921875 
Q 24.65625 65.921875 20.015625 65.03125 
Q 15.375 64.15625 9.8125 62.3125 
L 9.8125 71.09375 
Q 15.4375 72.65625 20.34375 73.4375 
Q 25.25 74.21875 29.59375 74.21875 
Q 40.828125 74.21875 47.359375 69.109375 
Q 53.90625 64.015625 53.90625 55.328125 
Q 53.90625 49.265625 50.4375 45.09375 
Q 46.96875 40.921875 40.578125 39.3125 
z
" id="DejaVuSans-33"/>
      </defs>
      <g transform="translate(379.949757 300.47254)scale(0.2 -0.2)">
       <use xlink:href="#DejaVuSans-33"/>
      </g>
     </g>
    </g>
    <g id="xtick_5">
     <g id="line2d_39">
      <defs>
       <path d="M 0 0 
L 0 2 
" id="m09bbb91ec4" style="stroke:#000000;stroke-width:0.6;"/>
      </defs>
      <g>
       <use style="stroke:#000000;stroke-width:0.6;" x="101.166295" xlink:href="#m09bbb91ec4" y="278.275665"/>
      </g>
     </g>
    </g>
    <g id="xtick_6">
     <g id="line2d_40">
      <g>
       <use style="stroke:#000000;stroke-width:0.6;" x="119.770322" xlink:href="#m09bbb91ec4" y="278.275665"/>
      </g>
     </g>
    </g>
    <g id="xtick_7">
     <g id="line2d_41">
      <g>
       <use style="stroke:#000000;stroke-width:0.6;" x="132.970089" xlink:href="#m09bbb91ec4" y="278.275665"/>
      </g>
     </g>
    </g>
    <g id="xtick_8">
     <g id="line2d_42">
      <g>
       <use style="stroke:#000000;stroke-width:0.6;" x="143.208624" xlink:href="#m09bbb91ec4" y="278.275665"/>
      </g>
     </g>
    </g>
    <g id="xtick_9">
     <g id="line2d_43">
      <g>
       <use style="stroke:#000000;stroke-width:0.6;" x="151.574117" xlink:href="#m09bbb91ec4" y="278.275665"/>
      </g>
     </g>
    </g>
    <g id="xtick_10">
     <g id="line2d_44">
      <g>
       <use style="stroke:#000000;stroke-width:0.6;" x="158.64704" xlink:href="#m09bbb91ec4" y="278.275665"/>
      </g>
     </g>
    </g>
    <g id="xtick_11">
     <g id="line2d_45">
      <g>
       <use style="stroke:#000000;stroke-width:0.6;" x="164.773884" xlink:href="#m09bbb91ec4" y="278.275665"/>
      </g>
     </g>
    </g>
    <g id="xtick_12">
     <g id="line2d_46">
      <g>
       <use style="stroke:#000000;stroke-width:0.6;" x="170.178144" xlink:href="#m09bbb91ec4" y="278.275665"/>
      </g>
     </g>
    </g>
    <g id="xtick_13">
     <g id="line2d_47">
      <g>
       <use style="stroke:#000000;stroke-width:0.6;" x="206.816214" xlink:href="#m09bbb91ec4" y="278.275665"/>
      </g>
     </g>
    </g>
    <g id="xtick_14">
     <g id="line2d_48">
      <g>
       <use style="stroke:#000000;stroke-width:0.6;" x="225.420241" xlink:href="#m09bbb91ec4" y="278.275665"/>
      </g>
     </g>
    </g>
    <g id="xtick_15">
     <g id="line2d_49">
      <g>
       <use style="stroke:#000000;stroke-width:0.6;" x="238.620008" xlink:href="#m09bbb91ec4" y="278.275665"/>
      </g>
     </g>
    </g>
    <g id="xtick_16">
     <g id="line2d_50">
      <g>
       <use style="stroke:#000000;stroke-width:0.6;" x="248.858543" xlink:href="#m09bbb91ec4" y="278.275665"/>
      </g>
     </g>
    </g>
    <g id="xtick_17">
     <g id="line2d_51">
      <g>
       <use style="stroke:#000000;stroke-width:0.6;" x="257.224036" xlink:href="#m09bbb91ec4" y="278.275665"/>
      </g>
     </g>
    </g>
    <g id="xtick_18">
     <g id="line2d_52">
      <g>
       <use style="stroke:#000000;stroke-width:0.6;" x="264.296959" xlink:href="#m09bbb91ec4" y="278.275665"/>
      </g>
     </g>
    </g>
    <g id="xtick_19">
     <g id="line2d_53">
      <g>
       <use style="stroke:#000000;stroke-width:0.6;" x="270.423803" xlink:href="#m09bbb91ec4" y="278.275665"/>
      </g>
     </g>
    </g>
    <g id="xtick_20">
     <g id="line2d_54">
      <g>
       <use style="stroke:#000000;stroke-width:0.6;" x="275.828063" xlink:href="#m09bbb91ec4" y="278.275665"/>
      </g>
     </g>
    </g>
    <g id="xtick_21">
     <g id="line2d_55">
      <g>
       <use style="stroke:#000000;stroke-width:0.6;" x="312.466133" xlink:href="#m09bbb91ec4" y="278.275665"/>
      </g>
     </g>
    </g>
    <g id="xtick_22">
     <g id="line2d_56">
      <g>
       <use style="stroke:#000000;stroke-width:0.6;" x="331.07016" xlink:href="#m09bbb91ec4" y="278.275665"/>
      </g>
     </g>
    </g>
    <g id="xtick_23">
     <g id="line2d_57">
      <g>
       <use style="stroke:#000000;stroke-width:0.6;" x="344.269927" xlink:href="#m09bbb91ec4" y="278.275665"/>
      </g>
     </g>
    </g>
    <g id="xtick_24">
     <g id="line2d_58">
      <g>
       <use style="stroke:#000000;stroke-width:0.6;" x="354.508463" xlink:href="#m09bbb91ec4" y="278.275665"/>
      </g>
     </g>
    </g>
    <g id="xtick_25">
     <g id="line2d_59">
      <g>
       <use style="stroke:#000000;stroke-width:0.6;" x="362.873955" xlink:href="#m09bbb91ec4" y="278.275665"/>
      </g>
     </g>
    </g>
    <g id="xtick_26">
     <g id="line2d_60">
      <g>
       <use style="stroke:#000000;stroke-width:0.6;" x="369.946878" xlink:href="#m09bbb91ec4" y="278.275665"/>
      </g>
     </g>
    </g>
    <g id="xtick_27">
     <g id="line2d_61">
      <g>
       <use style="stroke:#000000;stroke-width:0.6;" x="376.073722" xlink:href="#m09bbb91ec4" y="278.275665"/>
      </g>
     </g>
    </g>
    <g id="xtick_28">
     <g id="line2d_62">
      <g>
       <use style="stroke:#000000;stroke-width:0.6;" x="381.477982" xlink:href="#m09bbb91ec4" y="278.275665"/>
      </g>
     </g>
    </g>
    <g id="xtick_29">
     <g id="line2d_63">
      <g>
       <use style="stroke:#000000;stroke-width:0.6;" x="418.116052" xlink:href="#m09bbb91ec4" y="278.275665"/>
      </g>
     </g>
    </g>
    <g id="text_5">
     <!-- log10 of FEvals / DIM -->
     <defs>
      <path d="M 9.421875 75.984375 
L 18.40625 75.984375 
L 18.40625 0 
L 9.421875 0 
z
" id="DejaVuSans-6c"/>
      <path d="M 30.609375 48.390625 
Q 23.390625 48.390625 19.1875 42.75 
Q 14.984375 37.109375 14.984375 27.296875 
Q 14.984375 17.484375 19.15625 11.84375 
Q 23.34375 6.203125 30.609375 6.203125 
Q 37.796875 6.203125 41.984375 11.859375 
Q 46.1875 17.53125 46.1875 27.296875 
Q 46.1875 37.015625 41.984375 42.703125 
Q 37.796875 48.390625 30.609375 48.390625 
z
M 30.609375 56 
Q 42.328125 56 49.015625 48.375 
Q 55.71875 40.765625 55.71875 27.296875 
Q 55.71875 13.875 49.015625 6.21875 
Q 42.328125 -1.421875 30.609375 -1.421875 
Q 18.84375 -1.421875 12.171875 6.21875 
Q 5.515625 13.875 5.515625 27.296875 
Q 5.515625 40.765625 12.171875 48.375 
Q 18.84375 56 30.609375 56 
z
" id="DejaVuSans-6f"/>
      <path d="M 45.40625 27.984375 
Q 45.40625 37.75 41.375 43.109375 
Q 37.359375 48.484375 30.078125 48.484375 
Q 22.859375 48.484375 18.828125 43.109375 
Q 14.796875 37.75 14.796875 27.984375 
Q 14.796875 18.265625 18.828125 12.890625 
Q 22.859375 7.515625 30.078125 7.515625 
Q 37.359375 7.515625 41.375 12.890625 
Q 45.40625 18.265625 45.40625 27.984375 
z
M 54.390625 6.78125 
Q 54.390625 -7.171875 48.1875 -13.984375 
Q 42 -20.796875 29.203125 -20.796875 
Q 24.46875 -20.796875 20.265625 -20.09375 
Q 16.0625 -19.390625 12.109375 -17.921875 
L 12.109375 -9.1875 
Q 16.0625 -11.328125 19.921875 -12.34375 
Q 23.78125 -13.375 27.78125 -13.375 
Q 36.625 -13.375 41.015625 -8.765625 
Q 45.40625 -4.15625 45.40625 5.171875 
L 45.40625 9.625 
Q 42.625 4.78125 38.28125 2.390625 
Q 33.9375 0 27.875 0 
Q 17.828125 0 11.671875 7.65625 
Q 5.515625 15.328125 5.515625 27.984375 
Q 5.515625 40.671875 11.671875 48.328125 
Q 17.828125 56 27.875 56 
Q 33.9375 56 38.28125 53.609375 
Q 42.625 51.21875 45.40625 46.390625 
L 45.40625 54.6875 
L 54.390625 54.6875 
z
" id="DejaVuSans-67"/>
      <path id="DejaVuSans-20"/>
      <path d="M 37.109375 75.984375 
L 37.109375 68.5 
L 28.515625 68.5 
Q 23.6875 68.5 21.796875 66.546875 
Q 19.921875 64.59375 19.921875 59.515625 
L 19.921875 54.6875 
L 34.71875 54.6875 
L 34.71875 47.703125 
L 19.921875 47.703125 
L 19.921875 0 
L 10.890625 0 
L 10.890625 47.703125 
L 2.296875 47.703125 
L 2.296875 54.6875 
L 10.890625 54.6875 
L 10.890625 58.5 
Q 10.890625 67.625 15.140625 71.796875 
Q 19.390625 75.984375 28.609375 75.984375 
z
" id="DejaVuSans-66"/>
      <path d="M 9.8125 72.90625 
L 51.703125 72.90625 
L 51.703125 64.59375 
L 19.671875 64.59375 
L 19.671875 43.109375 
L 48.578125 43.109375 
L 48.578125 34.8125 
L 19.671875 34.8125 
L 19.671875 0 
L 9.8125 0 
z
" id="DejaVuSans-46"/>
      <path d="M 9.8125 72.90625 
L 55.90625 72.90625 
L 55.90625 64.59375 
L 19.671875 64.59375 
L 19.671875 43.015625 
L 54.390625 43.015625 
L 54.390625 34.71875 
L 19.671875 34.71875 
L 19.671875 8.296875 
L 56.78125 8.296875 
L 56.78125 0 
L 9.8125 0 
z
" id="DejaVuSans-45"/>
      <path d="M 2.984375 54.6875 
L 12.5 54.6875 
L 29.59375 8.796875 
L 46.6875 54.6875 
L 56.203125 54.6875 
L 35.6875 0 
L 23.484375 0 
z
" id="DejaVuSans-76"/>
      <path d="M 34.28125 27.484375 
Q 23.390625 27.484375 19.1875 25 
Q 14.984375 22.515625 14.984375 16.5 
Q 14.984375 11.71875 18.140625 8.90625 
Q 21.296875 6.109375 26.703125 6.109375 
Q 34.1875 6.109375 38.703125 11.40625 
Q 43.21875 16.703125 43.21875 25.484375 
L 43.21875 27.484375 
z
M 52.203125 31.203125 
L 52.203125 0 
L 43.21875 0 
L 43.21875 8.296875 
Q 40.140625 3.328125 35.546875 0.953125 
Q 30.953125 -1.421875 24.3125 -1.421875 
Q 15.921875 -1.421875 10.953125 3.296875 
Q 6 8.015625 6 15.921875 
Q 6 25.140625 12.171875 29.828125 
Q 18.359375 34.515625 30.609375 34.515625 
L 43.21875 34.515625 
L 43.21875 35.40625 
Q 43.21875 41.609375 39.140625 45 
Q 35.0625 48.390625 27.6875 48.390625 
Q 23 48.390625 18.546875 47.265625 
Q 14.109375 46.140625 10.015625 43.890625 
L 10.015625 52.203125 
Q 14.9375 54.109375 19.578125 55.046875 
Q 24.21875 56 28.609375 56 
Q 40.484375 56 46.34375 49.84375 
Q 52.203125 43.703125 52.203125 31.203125 
z
" id="DejaVuSans-61"/>
      <path d="M 44.28125 53.078125 
L 44.28125 44.578125 
Q 40.484375 46.53125 36.375 47.5 
Q 32.28125 48.484375 27.875 48.484375 
Q 21.1875 48.484375 17.84375 46.4375 
Q 14.5 44.390625 14.5 40.28125 
Q 14.5 37.15625 16.890625 35.375 
Q 19.28125 33.59375 26.515625 31.984375 
L 29.59375 31.296875 
Q 39.15625 29.25 43.1875 25.515625 
Q 47.21875 21.78125 47.21875 15.09375 
Q 47.21875 7.46875 41.1875 3.015625 
Q 35.15625 -1.421875 24.609375 -1.421875 
Q 20.21875 -1.421875 15.453125 -0.5625 
Q 10.6875 0.296875 5.421875 2 
L 5.421875 11.28125 
Q 10.40625 8.6875 15.234375 7.390625 
Q 20.0625 6.109375 24.8125 6.109375 
Q 31.15625 6.109375 34.5625 8.28125 
Q 37.984375 10.453125 37.984375 14.40625 
Q 37.984375 18.0625 35.515625 20.015625 
Q 33.0625 21.96875 24.703125 23.78125 
L 21.578125 24.515625 
Q 13.234375 26.265625 9.515625 29.90625 
Q 5.8125 33.546875 5.8125 39.890625 
Q 5.8125 47.609375 11.28125 51.796875 
Q 16.75 56 26.8125 56 
Q 31.78125 56 36.171875 55.265625 
Q 40.578125 54.546875 44.28125 53.078125 
z
" id="DejaVuSans-73"/>
      <path d="M 25.390625 72.90625 
L 33.6875 72.90625 
L 8.296875 -9.28125 
L 0 -9.28125 
z
" id="DejaVuSans-2f"/>
      <path d="M 19.671875 64.796875 
L 19.671875 8.109375 
L 31.59375 8.109375 
Q 46.6875 8.109375 53.6875 14.9375 
Q 60.6875 21.78125 60.6875 36.53125 
Q 60.6875 51.171875 53.6875 57.984375 
Q 46.6875 64.796875 31.59375 64.796875 
z
M 9.8125 72.90625 
L 30.078125 72.90625 
Q 51.265625 72.90625 61.171875 64.09375 
Q 71.09375 55.28125 71.09375 36.53125 
Q 71.09375 17.671875 61.125 8.828125 
Q 51.171875 0 30.078125 0 
L 9.8125 0 
z
" id="DejaVuSans-44"/>
      <path d="M 9.8125 72.90625 
L 19.671875 72.90625 
L 19.671875 0 
L 9.8125 0 
z
" id="DejaVuSans-49"/>
      <path d="M 9.8125 72.90625 
L 24.515625 72.90625 
L 43.109375 23.296875 
L 61.8125 72.90625 
L 76.515625 72.90625 
L 76.515625 0 
L 66.890625 0 
L 66.890625 64.015625 
L 48.09375 14.015625 
L 38.1875 14.015625 
L 19.390625 64.015625 
L 19.390625 0 
L 9.8125 0 
z
" id="DejaVuSans-4d"/>
     </defs>
     <g transform="translate(142.849063 323.82879)scale(0.2 -0.2)">
      <use xlink:href="#DejaVuSans-6c"/>
      <use x="27.783203" xlink:href="#DejaVuSans-6f"/>
      <use x="88.964844" xlink:href="#DejaVuSans-67"/>
      <use x="152.441406" xlink:href="#DejaVuSans-31"/>
      <use x="216.064453" xlink:href="#DejaVuSans-30"/>
      <use x="279.6875" xlink:href="#DejaVuSans-20"/>
      <use x="311.474609" xlink:href="#DejaVuSans-6f"/>
      <use x="372.65625" xlink:href="#DejaVuSans-66"/>
      <use x="407.861328" xlink:href="#DejaVuSans-20"/>
      <use x="439.648438" xlink:href="#DejaVuSans-46"/>
      <use x="497.167969" xlink:href="#DejaVuSans-45"/>
      <use x="560.351562" xlink:href="#DejaVuSans-76"/>
      <use x="619.53125" xlink:href="#DejaVuSans-61"/>
      <use x="680.810547" xlink:href="#DejaVuSans-6c"/>
      <use x="708.59375" xlink:href="#DejaVuSans-73"/>
      <use x="760.693359" xlink:href="#DejaVuSans-20"/>
      <use x="792.480469" xlink:href="#DejaVuSans-2f"/>
      <use x="826.171875" xlink:href="#DejaVuSans-20"/>
      <use x="857.958984" xlink:href="#DejaVuSans-44"/>
      <use x="934.960938" xlink:href="#DejaVuSans-49"/>
      <use x="964.453125" xlink:href="#DejaVuSans-4d"/>
     </g>
    </g>
   </g>
   <g id="matplotlib.axis_2">
    <g id="ytick_1">
     <g id="line2d_64">
      <path clip-path="url(#p7ef2bd44d6)" d="M 69.3625 278.275665 
L 426.4825 278.275665 
" style="fill:none;stroke:#b0b0b0;stroke-linecap:square;stroke-width:0.8;"/>
     </g>
     <g id="line2d_65">
      <defs>
       <path d="M 0 0 
L -3.5 0 
" id="m5c353daedb" style="stroke:#000000;stroke-width:0.8;"/>
      </defs>
      <g>
       <use style="stroke:#000000;stroke-width:0.8;" x="69.3625" xlink:href="#m5c353daedb" y="278.275665"/>
      </g>
     </g>
     <g id="text_6">
      <!-- 0.0 -->
      <defs>
       <path d="M 10.6875 12.40625 
L 21 12.40625 
L 21 0 
L 10.6875 0 
z
" id="DejaVuSans-2e"/>
      </defs>
      <g transform="translate(30.55625 285.874103)scale(0.2 -0.2)">
       <use xlink:href="#DejaVuSans-30"/>
       <use x="63.623047" xlink:href="#DejaVuSans-2e"/>
       <use x="95.410156" xlink:href="#DejaVuSans-30"/>
      </g>
     </g>
    </g>
    <g id="ytick_2">
     <g id="line2d_66">
      <path clip-path="url(#p7ef2bd44d6)" d="M 69.3625 225.58022 
L 426.4825 225.58022 
" style="fill:none;stroke:#b0b0b0;stroke-linecap:square;stroke-width:0.8;"/>
     </g>
     <g id="line2d_67">
      <g>
       <use style="stroke:#000000;stroke-width:0.8;" x="69.3625" xlink:href="#m5c353daedb" y="225.58022"/>
      </g>
     </g>
     <g id="text_7">
      <!-- 0.2 -->
      <g transform="translate(30.55625 233.178657)scale(0.2 -0.2)">
       <use xlink:href="#DejaVuSans-30"/>
       <use x="63.623047" xlink:href="#DejaVuSans-2e"/>
       <use x="95.410156" xlink:href="#DejaVuSans-32"/>
      </g>
     </g>
    </g>
    <g id="ytick_3">
     <g id="line2d_68">
      <path clip-path="url(#p7ef2bd44d6)" d="M 69.3625 172.884774 
L 426.4825 172.884774 
" style="fill:none;stroke:#b0b0b0;stroke-linecap:square;stroke-width:0.8;"/>
     </g>
     <g id="line2d_69">
      <g>
       <use style="stroke:#000000;stroke-width:0.8;" x="69.3625" xlink:href="#m5c353daedb" y="172.884774"/>
      </g>
     </g>
     <g id="text_8">
      <!-- 0.4 -->
      <defs>
       <path d="M 37.796875 64.3125 
L 12.890625 25.390625 
L 37.796875 25.390625 
z
M 35.203125 72.90625 
L 47.609375 72.90625 
L 47.609375 25.390625 
L 58.015625 25.390625 
L 58.015625 17.1875 
L 47.609375 17.1875 
L 47.609375 0 
L 37.796875 0 
L 37.796875 17.1875 
L 4.890625 17.1875 
L 4.890625 26.703125 
z
" id="DejaVuSans-34"/>
      </defs>
      <g transform="translate(30.55625 180.483212)scale(0.2 -0.2)">
       <use xlink:href="#DejaVuSans-30"/>
       <use x="63.623047" xlink:href="#DejaVuSans-2e"/>
       <use x="95.410156" xlink:href="#DejaVuSans-34"/>
      </g>
     </g>
    </g>
    <g id="ytick_4">
     <g id="line2d_70">
      <path clip-path="url(#p7ef2bd44d6)" d="M 69.3625 120.189329 
L 426.4825 120.189329 
" style="fill:none;stroke:#b0b0b0;stroke-linecap:square;stroke-width:0.8;"/>
     </g>
     <g id="line2d_71">
      <g>
       <use style="stroke:#000000;stroke-width:0.8;" x="69.3625" xlink:href="#m5c353daedb" y="120.189329"/>
      </g>
     </g>
     <g id="text_9">
      <!-- 0.6 -->
      <defs>
       <path d="M 33.015625 40.375 
Q 26.375 40.375 22.484375 35.828125 
Q 18.609375 31.296875 18.609375 23.390625 
Q 18.609375 15.53125 22.484375 10.953125 
Q 26.375 6.390625 33.015625 6.390625 
Q 39.65625 6.390625 43.53125 10.953125 
Q 47.40625 15.53125 47.40625 23.390625 
Q 47.40625 31.296875 43.53125 35.828125 
Q 39.65625 40.375 33.015625 40.375 
z
M 52.59375 71.296875 
L 52.59375 62.3125 
Q 48.875 64.0625 45.09375 64.984375 
Q 41.3125 65.921875 37.59375 65.921875 
Q 27.828125 65.921875 22.671875 59.328125 
Q 17.53125 52.734375 16.796875 39.40625 
Q 19.671875 43.65625 24.015625 45.921875 
Q 28.375 48.1875 33.59375 48.1875 
Q 44.578125 48.1875 50.953125 41.515625 
Q 57.328125 34.859375 57.328125 23.390625 
Q 57.328125 12.15625 50.6875 5.359375 
Q 44.046875 -1.421875 33.015625 -1.421875 
Q 20.359375 -1.421875 13.671875 8.265625 
Q 6.984375 17.96875 6.984375 36.375 
Q 6.984375 53.65625 15.1875 63.9375 
Q 23.390625 74.21875 37.203125 74.21875 
Q 40.921875 74.21875 44.703125 73.484375 
Q 48.484375 72.75 52.59375 71.296875 
z
" id="DejaVuSans-36"/>
      </defs>
      <g transform="translate(30.55625 127.787766)scale(0.2 -0.2)">
       <use xlink:href="#DejaVuSans-30"/>
       <use x="63.623047" xlink:href="#DejaVuSans-2e"/>
       <use x="95.410156" xlink:href="#DejaVuSans-36"/>
      </g>
     </g>
    </g>
    <g id="ytick_5">
     <g id="line2d_72">
      <path clip-path="url(#p7ef2bd44d6)" d="M 69.3625 67.493883 
L 426.4825 67.493883 
" style="fill:none;stroke:#b0b0b0;stroke-linecap:square;stroke-width:0.8;"/>
     </g>
     <g id="line2d_73">
      <g>
       <use style="stroke:#000000;stroke-width:0.8;" x="69.3625" xlink:href="#m5c353daedb" y="67.493883"/>
      </g>
     </g>
     <g id="text_10">
      <!-- 0.8 -->
      <defs>
       <path d="M 31.78125 34.625 
Q 24.75 34.625 20.71875 30.859375 
Q 16.703125 27.09375 16.703125 20.515625 
Q 16.703125 13.921875 20.71875 10.15625 
Q 24.75 6.390625 31.78125 6.390625 
Q 38.8125 6.390625 42.859375 10.171875 
Q 46.921875 13.96875 46.921875 20.515625 
Q 46.921875 27.09375 42.890625 30.859375 
Q 38.875 34.625 31.78125 34.625 
z
M 21.921875 38.8125 
Q 15.578125 40.375 12.03125 44.71875 
Q 8.5 49.078125 8.5 55.328125 
Q 8.5 64.0625 14.71875 69.140625 
Q 20.953125 74.21875 31.78125 74.21875 
Q 42.671875 74.21875 48.875 69.140625 
Q 55.078125 64.0625 55.078125 55.328125 
Q 55.078125 49.078125 51.53125 44.71875 
Q 48 40.375 41.703125 38.8125 
Q 48.828125 37.15625 52.796875 32.3125 
Q 56.78125 27.484375 56.78125 20.515625 
Q 56.78125 9.90625 50.3125 4.234375 
Q 43.84375 -1.421875 31.78125 -1.421875 
Q 19.734375 -1.421875 13.25 4.234375 
Q 6.78125 9.90625 6.78125 20.515625 
Q 6.78125 27.484375 10.78125 32.3125 
Q 14.796875 37.15625 21.921875 38.8125 
z
M 18.3125 54.390625 
Q 18.3125 48.734375 21.84375 45.5625 
Q 25.390625 42.390625 31.78125 42.390625 
Q 38.140625 42.390625 41.71875 45.5625 
Q 45.3125 48.734375 45.3125 54.390625 
Q 45.3125 60.0625 41.71875 63.234375 
Q 38.140625 66.40625 31.78125 66.40625 
Q 25.390625 66.40625 21.84375 63.234375 
Q 18.3125 60.0625 18.3125 54.390625 
z
" id="DejaVuSans-38"/>
      </defs>
      <g transform="translate(30.55625 75.092321)scale(0.2 -0.2)">
       <use xlink:href="#DejaVuSans-30"/>
       <use x="63.623047" xlink:href="#DejaVuSans-2e"/>
       <use x="95.410156" xlink:href="#DejaVuSans-38"/>
      </g>
     </g>
    </g>
    <g id="ytick_6">
     <g id="line2d_74">
      <path clip-path="url(#p7ef2bd44d6)" d="M 69.3625 14.798437 
L 426.4825 14.798437 
" style="fill:none;stroke:#b0b0b0;stroke-linecap:square;stroke-width:0.8;"/>
     </g>
     <g id="line2d_75">
      <g>
       <use style="stroke:#000000;stroke-width:0.8;" x="69.3625" xlink:href="#m5c353daedb" y="14.798437"/>
      </g>
     </g>
     <g id="text_11">
      <!-- 1.0 -->
      <g transform="translate(30.55625 22.396875)scale(0.2 -0.2)">
       <use xlink:href="#DejaVuSans-31"/>
       <use x="63.623047" xlink:href="#DejaVuSans-2e"/>
       <use x="95.410156" xlink:href="#DejaVuSans-30"/>
      </g>
     </g>
    </g>
    <g id="text_12">
     <!-- proportion of trials -->
     <defs>
      <path d="M 18.109375 8.203125 
L 18.109375 -20.796875 
L 9.078125 -20.796875 
L 9.078125 54.6875 
L 18.109375 54.6875 
L 18.109375 46.390625 
Q 20.953125 51.265625 25.265625 53.625 
Q 29.59375 56 35.59375 56 
Q 45.5625 56 51.78125 48.09375 
Q 58.015625 40.1875 58.015625 27.296875 
Q 58.015625 14.40625 51.78125 6.484375 
Q 45.5625 -1.421875 35.59375 -1.421875 
Q 29.59375 -1.421875 25.265625 0.953125 
Q 20.953125 3.328125 18.109375 8.203125 
z
M 48.6875 27.296875 
Q 48.6875 37.203125 44.609375 42.84375 
Q 40.53125 48.484375 33.40625 48.484375 
Q 26.265625 48.484375 22.1875 42.84375 
Q 18.109375 37.203125 18.109375 27.296875 
Q 18.109375 17.390625 22.1875 11.75 
Q 26.265625 6.109375 33.40625 6.109375 
Q 40.53125 6.109375 44.609375 11.75 
Q 48.6875 17.390625 48.6875 27.296875 
z
" id="DejaVuSans-70"/>
      <path d="M 41.109375 46.296875 
Q 39.59375 47.171875 37.8125 47.578125 
Q 36.03125 48 33.890625 48 
Q 26.265625 48 22.1875 43.046875 
Q 18.109375 38.09375 18.109375 28.8125 
L 18.109375 0 
L 9.078125 0 
L 9.078125 54.6875 
L 18.109375 54.6875 
L 18.109375 46.1875 
Q 20.953125 51.171875 25.484375 53.578125 
Q 30.03125 56 36.53125 56 
Q 37.453125 56 38.578125 55.875 
Q 39.703125 55.765625 41.0625 55.515625 
z
" id="DejaVuSans-72"/>
      <path d="M 18.3125 70.21875 
L 18.3125 54.6875 
L 36.8125 54.6875 
L 36.8125 47.703125 
L 18.3125 47.703125 
L 18.3125 18.015625 
Q 18.3125 11.328125 20.140625 9.421875 
Q 21.96875 7.515625 27.59375 7.515625 
L 36.8125 7.515625 
L 36.8125 0 
L 27.59375 0 
Q 17.1875 0 13.234375 3.875 
Q 9.28125 7.765625 9.28125 18.015625 
L 9.28125 47.703125 
L 2.6875 47.703125 
L 2.6875 54.6875 
L 9.28125 54.6875 
L 9.28125 70.21875 
z
" id="DejaVuSans-74"/>
      <path d="M 9.421875 54.6875 
L 18.40625 54.6875 
L 18.40625 0 
L 9.421875 0 
z
M 9.421875 75.984375 
L 18.40625 75.984375 
L 18.40625 64.59375 
L 9.421875 64.59375 
z
" id="DejaVuSans-69"/>
      <path d="M 54.890625 33.015625 
L 54.890625 0 
L 45.90625 0 
L 45.90625 32.71875 
Q 45.90625 40.484375 42.875 44.328125 
Q 39.84375 48.1875 33.796875 48.1875 
Q 26.515625 48.1875 22.3125 43.546875 
Q 18.109375 38.921875 18.109375 30.90625 
L 18.109375 0 
L 9.078125 0 
L 9.078125 54.6875 
L 18.109375 54.6875 
L 18.109375 46.1875 
Q 21.34375 51.125 25.703125 53.5625 
Q 30.078125 56 35.796875 56 
Q 45.21875 56 50.046875 50.171875 
Q 54.890625 44.34375 54.890625 33.015625 
z
" id="DejaVuSans-6e"/>
     </defs>
     <g transform="translate(22.396875 238.44779)rotate(-90)scale(0.2 -0.2)">
      <use xlink:href="#DejaVuSans-70"/>
      <use x="63.476562" xlink:href="#DejaVuSans-72"/>
      <use x="104.558594" xlink:href="#DejaVuSans-6f"/>
      <use x="165.740234" xlink:href="#DejaVuSans-70"/>
      <use x="229.216797" xlink:href="#DejaVuSans-6f"/>
      <use x="290.398438" xlink:href="#DejaVuSans-72"/>
      <use x="331.511719" xlink:href="#DejaVuSans-74"/>
      <use x="370.720703" xlink:href="#DejaVuSans-69"/>
      <use x="398.503906" xlink:href="#DejaVuSans-6f"/>
      <use x="459.685547" xlink:href="#DejaVuSans-6e"/>
      <use x="523.064453" xlink:href="#DejaVuSans-20"/>
      <use x="554.851562" xlink:href="#DejaVuSans-6f"/>
      <use x="616.033203" xlink:href="#DejaVuSans-66"/>
      <use x="651.238281" xlink:href="#DejaVuSans-20"/>
      <use x="683.025391" xlink:href="#DejaVuSans-74"/>
      <use x="722.234375" xlink:href="#DejaVuSans-72"/>
      <use x="763.347656" xlink:href="#DejaVuSans-69"/>
      <use x="791.130859" xlink:href="#DejaVuSans-61"/>
      <use x="852.410156" xlink:href="#DejaVuSans-6c"/>
      <use x="880.193359" xlink:href="#DejaVuSans-73"/>
     </g>
    </g>
   </g>
   <g id="line2d_76">
    <path clip-path="url(#p7ef2bd44d6)" d="M 234.103265 278.275665 
L 234.103265 273.884378 
L 243.408377 273.884378 
L 243.408377 269.493091 
L 245.28142 269.493091 
L 245.28142 265.101804 
L 246.841891 265.101804 
L 246.841891 260.710517 
L 247.696882 260.710517 
L 247.696882 256.31923 
L 253.72951 256.31923 
L 253.72951 251.927942 
L 254.466277 251.927942 
L 254.466277 247.536655 
L 261.735999 247.536655 
L 261.735999 243.145368 
L 262.764045 243.145368 
L 262.764045 238.754081 
L 263.76956 238.754081 
L 263.76956 234.362794 
L 266.62915 234.362794 
L 266.62915 229.971507 
L 268.55076 229.971507 
L 268.55076 225.58022 
L 270.652647 225.58022 
L 270.652647 221.188933 
L 271.640635 221.188933 
L 271.640635 216.797645 
L 272.580443 216.797645 
L 272.580443 212.406358 
L 274.901099 212.406358 
L 274.901099 208.015071 
L 276.107607 208.015071 
L 276.107607 203.623784 
L 276.183551 203.623784 
L 276.183551 199.232497 
L 277.993822 199.232497 
L 277.993822 194.84121 
L 286.168447 194.84121 
L 286.168447 190.449923 
L 288.276104 190.449923 
L 288.276104 186.058636 
L 288.797839 186.058636 
L 288.797839 181.667348 
L 292.911725 181.667348 
L 292.911725 177.276061 
L 293.435711 177.276061 
L 293.435711 172.884774 
L 304.260951 172.884774 
L 304.260951 168.493487 
L 308.465431 168.493487 
L 308.465431 164.1022 
L 340.59349 164.1022 
L 340.59349 159.710913 
L 348.74202 159.710913 
L 348.74202 155.319626 
L 353.426733 155.319626 
L 353.426733 150.928338 
L 358.298105 150.928338 
L 358.298105 146.537051 
L 360.973023 146.537051 
L 360.973023 142.145764 
L 361.884522 142.145764 
L 361.884522 137.754477 
L 362.543941 137.754477 
L 362.543941 133.36319 
L 362.992333 133.36319 
L 362.992333 128.971903 
L 363.700018 128.971903 
L 363.700018 124.580616 
L 365.881764 124.580616 
L 365.881764 120.189329 
L 366.429948 120.189329 
L 366.429948 115.798041 
L 367.916525 115.798041 
L 367.916525 111.406754 
L 368.936231 111.406754 
L 368.936231 107.015467 
L 369.917372 107.015467 
L 369.917372 102.62418 
L 371.658127 102.62418 
L 371.658127 98.232893 
L 375.412274 98.232893 
L 375.412274 93.841606 
L 378.647077 93.841606 
L 378.647077 89.450319 
L 378.779738 89.450319 
L 378.779738 85.059032 
L 380.277087 85.059032 
L 380.277087 80.667744 
L 381.278723 80.667744 
L 381.278723 76.276457 
L 383.978073 76.276457 
L 383.978073 71.88517 
L 384.031148 71.88517 
L 384.031148 67.493883 
L 384.206821 67.493883 
L 384.206821 63.102596 
L 396.98917 63.102596 
L 396.98917 58.711309 
L 412.120115 58.711309 
L 412.120115 54.320022 
L 416.970858 54.320022 
L 416.970858 49.928735 
L 416.970858 49.928735 
L 416.970858 49.928735 
L 426.4825 49.928735 
" style="fill:none;stroke:#000000;stroke-linecap:square;stroke-width:1.5;"/>
   </g>
   <g id="line2d_77"/>
   <g id="line2d_78">
    <path clip-path="url(#p7ef2bd44d6)" d="M 300.711624 278.275665 
L 300.711624 273.884378 
L 307.106301 273.884378 
L 307.106301 269.493091 
L 308.926197 269.493091 
L 308.926197 265.101804 
L 311.468885 265.101804 
L 311.468885 260.710517 
L 313.092728 260.710517 
L 313.092728 256.31923 
L 313.688549 256.31923 
L 313.688549 251.927942 
L 314.43085 251.927942 
L 314.43085 247.536655 
L 314.824794 247.536655 
L 314.824794 243.145368 
L 316.304333 243.145368 
L 316.304333 238.754081 
L 319.008342 238.754081 
L 319.008342 234.362794 
L 319.992363 234.362794 
L 319.992363 229.971507 
L 322.243527 229.971507 
L 322.243527 225.58022 
L 324.750639 225.58022 
L 324.750639 221.188933 
L 326.456274 221.188933 
L 326.456274 216.797645 
L 338.260917 216.797645 
L 338.260917 212.406358 
L 365.536695 212.406358 
L 365.536695 208.015071 
L 381.813231 208.015071 
L 381.813231 203.623784 
L 383.081051 203.623784 
L 383.081051 199.232497 
L 392.116501 199.232497 
L 392.116501 194.84121 
L 399.288373 194.84121 
L 399.288373 190.449923 
L 407.342451 190.449923 
L 407.342451 186.058636 
L 408.253078 186.058636 
L 408.253078 181.667348 
L 409.847729 181.667348 
L 409.847729 177.276061 
L 410.434601 177.276061 
L 410.434601 172.884774 
L 411.107702 172.884774 
L 411.107702 168.493487 
L 411.202487 168.493487 
L 411.202487 164.1022 
L 411.872384 164.1022 
L 411.872384 159.710913 
L 412.991542 159.710913 
L 412.991542 155.319626 
L 414.469431 155.319626 
L 414.469431 150.928338 
L 418.819527 150.928338 
L 418.819527 146.537051 
L 424.340867 146.537051 
L 424.340867 142.145764 
L 424.340867 142.145764 
L 424.340867 142.145764 
L 426.4825 142.145764 
" style="fill:none;stroke:#00bfbf;stroke-linecap:square;stroke-width:1.5;"/>
   </g>
   <g id="line2d_79"/>
   <g id="line2d_80">
    <path clip-path="url(#p7ef2bd44d6)" d="M 333.104428 278.275665 
L 333.104428 273.884378 
L 334.395575 273.884378 
L 334.395575 269.493091 
L 337.282955 269.493091 
L 337.282955 265.101804 
L 337.356363 265.101804 
L 337.356363 260.710517 
L 338.247839 260.710517 
L 338.247839 256.31923 
L 341.443089 256.31923 
L 341.443089 251.927942 
L 341.988818 251.927942 
L 341.988818 247.536655 
L 348.507297 247.536655 
L 348.507297 243.145368 
L 349.341606 243.145368 
L 349.341606 238.754081 
L 352.788109 238.754081 
L 352.788109 234.362794 
L 353.44552 234.362794 
L 353.44552 229.971507 
L 356.668386 229.971507 
L 356.668386 225.58022 
L 358.12457 225.58022 
L 358.12457 221.188933 
L 368.525655 221.188933 
L 368.525655 216.797645 
L 378.779738 216.797645 
L 378.779738 212.406358 
L 405.139041 212.406358 
L 405.139041 208.015071 
L 420.959198 208.015071 
L 420.959198 203.623784 
L 420.959198 203.623784 
L 420.959198 203.623784 
L 426.4825 203.623784 
" style="fill:none;stroke:#bf00bf;stroke-linecap:square;stroke-width:1.5;"/>
   </g>
   <g id="line2d_81"/>
   <g id="line2d_82">
    <path clip-path="url(#p7ef2bd44d6)" d="M 356.764586 278.275665 
L 356.764586 273.884378 
L 356.799518 273.884378 
L 356.799518 269.493091 
L 361.676985 269.493091 
L 361.676985 265.101804 
L 362.705407 265.101804 
L 362.705407 260.710517 
L 367.751798 260.710517 
L 367.751798 256.31923 
L 369.050002 256.31923 
L 369.050002 251.927942 
L 370.95819 251.927942 
L 370.95819 247.536655 
L 371.556979 247.536655 
L 371.556979 243.145368 
L 373.414324 243.145368 
L 373.414324 238.754081 
L 376.660697 238.754081 
L 376.660697 234.362794 
L 381.590004 234.362794 
L 381.590004 229.971507 
L 392.110436 229.971507 
L 392.110436 225.58022 
L 409.740464 225.58022 
L 409.740464 221.188933 
L 410.170755 221.188933 
L 410.170755 216.797645 
L 410.170755 216.797645 
L 410.170755 216.797645 
L 426.4825 216.797645 
" style="fill:none;stroke:#ff0000;stroke-linecap:square;stroke-width:3;"/>
   </g>
   <g id="line2d_83"/>
   <g id="line2d_84">
    <path clip-path="url(#p7ef2bd44d6)" d="M 426.4825 278.275665 
L 426.4825 12.163665 
" style="fill:none;stroke:#000000;stroke-linecap:square;stroke-width:1.5;"/>
   </g>
   <g id="patch_3">
    <path d="M 69.3625 278.275665 
L 69.3625 12.163665 
" style="fill:none;stroke:#000000;stroke-linecap:square;stroke-linejoin:miter;stroke-width:0.8;"/>
   </g>
   <g id="patch_4">
    <path d="M 426.4825 278.275665 
L 426.4825 12.163665 
" style="fill:none;stroke:#000000;stroke-linecap:square;stroke-linejoin:miter;stroke-width:0.8;"/>
   </g>
   <g id="patch_5">
    <path d="M 69.3625 278.275665 
L 426.4825 278.275665 
" style="fill:none;stroke:#000000;stroke-linecap:square;stroke-linejoin:miter;stroke-width:0.8;"/>
   </g>
   <g id="patch_6">
    <path d="M 69.3625 12.163665 
L 426.4825 12.163665 
" style="fill:none;stroke:#000000;stroke-linecap:square;stroke-linejoin:miter;stroke-width:0.8;"/>
   </g>
   <g id="text_13">
    <!-- {f6-f9}, 20-D -->
    <defs>
     <path d="M 51.125 -9.28125 
L 51.125 -16.3125 
L 48.09375 -16.3125 
Q 35.9375 -16.3125 31.8125 -12.6875 
Q 27.6875 -9.078125 27.6875 1.703125 
L 27.6875 13.375 
Q 27.6875 20.75 25.046875 23.578125 
Q 22.40625 26.421875 15.484375 26.421875 
L 12.5 26.421875 
L 12.5 33.40625 
L 15.484375 33.40625 
Q 22.46875 33.40625 25.078125 36.203125 
Q 27.6875 39.015625 27.6875 46.296875 
L 27.6875 58.015625 
Q 27.6875 68.796875 31.8125 72.390625 
Q 35.9375 75.984375 48.09375 75.984375 
L 51.125 75.984375 
L 51.125 69 
L 47.796875 69 
Q 40.921875 69 38.8125 66.84375 
Q 36.71875 64.703125 36.71875 57.8125 
L 36.71875 45.703125 
Q 36.71875 38.03125 34.5 34.5625 
Q 32.28125 31.109375 26.90625 29.890625 
Q 32.328125 28.5625 34.515625 25.09375 
Q 36.71875 21.625 36.71875 14.015625 
L 36.71875 1.90625 
Q 36.71875 -4.984375 38.8125 -7.125 
Q 40.921875 -9.28125 47.796875 -9.28125 
z
" id="DejaVuSans-7b"/>
     <path d="M 4.890625 31.390625 
L 31.203125 31.390625 
L 31.203125 23.390625 
L 4.890625 23.390625 
z
" id="DejaVuSans-2d"/>
     <path d="M 10.984375 1.515625 
L 10.984375 10.5 
Q 14.703125 8.734375 18.5 7.8125 
Q 22.3125 6.890625 25.984375 6.890625 
Q 35.75 6.890625 40.890625 13.453125 
Q 46.046875 20.015625 46.78125 33.40625 
Q 43.953125 29.203125 39.59375 26.953125 
Q 35.25 24.703125 29.984375 24.703125 
Q 19.046875 24.703125 12.671875 31.3125 
Q 6.296875 37.9375 6.296875 49.421875 
Q 6.296875 60.640625 12.9375 67.421875 
Q 19.578125 74.21875 30.609375 74.21875 
Q 43.265625 74.21875 49.921875 64.515625 
Q 56.59375 54.828125 56.59375 36.375 
Q 56.59375 19.140625 48.40625 8.859375 
Q 40.234375 -1.421875 26.421875 -1.421875 
Q 22.703125 -1.421875 18.890625 -0.6875 
Q 15.09375 0.046875 10.984375 1.515625 
z
M 30.609375 32.421875 
Q 37.25 32.421875 41.125 36.953125 
Q 45.015625 41.5 45.015625 49.421875 
Q 45.015625 57.28125 41.125 61.84375 
Q 37.25 66.40625 30.609375 66.40625 
Q 23.96875 66.40625 20.09375 61.84375 
Q 16.21875 57.28125 16.21875 49.421875 
Q 16.21875 41.5 20.09375 36.953125 
Q 23.96875 32.421875 30.609375 32.421875 
z
" id="DejaVuSans-39"/>
     <path d="M 12.5 -9.28125 
L 15.921875 -9.28125 
Q 22.75 -9.28125 24.828125 -7.171875 
Q 26.90625 -5.078125 26.90625 1.90625 
L 26.90625 14.015625 
Q 26.90625 21.625 29.09375 25.09375 
Q 31.296875 28.5625 36.71875 29.890625 
Q 31.296875 31.109375 29.09375 34.5625 
Q 26.90625 38.03125 26.90625 45.703125 
L 26.90625 57.8125 
Q 26.90625 64.75 24.828125 66.875 
Q 22.75 69 15.921875 69 
L 12.5 69 
L 12.5 75.984375 
L 15.578125 75.984375 
Q 27.734375 75.984375 31.8125 72.390625 
Q 35.890625 68.796875 35.890625 58.015625 
L 35.890625 46.296875 
Q 35.890625 39.015625 38.515625 36.203125 
Q 41.15625 33.40625 48.09375 33.40625 
L 51.125 33.40625 
L 51.125 26.421875 
L 48.09375 26.421875 
Q 41.15625 26.421875 38.515625 23.578125 
Q 35.890625 20.75 35.890625 13.375 
L 35.890625 1.703125 
Q 35.890625 -9.078125 31.8125 -12.6875 
Q 27.734375 -16.3125 15.578125 -16.3125 
L 12.5 -16.3125 
z
" id="DejaVuSans-7d"/>
     <path d="M 11.71875 12.40625 
L 22.015625 12.40625 
L 22.015625 4 
L 14.015625 -11.625 
L 7.71875 -11.625 
L 11.71875 4 
z
" id="DejaVuSans-2c"/>
    </defs>
    <g transform="translate(181.435 32.68278)scale(0.2 -0.2)">
     <use xlink:href="#DejaVuSans-7b"/>
     <use x="63.623047" xlink:href="#DejaVuSans-66"/>
     <use x="98.828125" xlink:href="#DejaVuSans-36"/>
     <use x="162.451172" xlink:href="#DejaVuSans-2d"/>
     <use x="198.535156" xlink:href="#DejaVuSans-66"/>
     <use x="233.740234" xlink:href="#DejaVuSans-39"/>
     <use x="297.363281" xlink:href="#DejaVuSans-7d"/>
     <use x="360.986328" xlink:href="#DejaVuSans-2c"/>
     <use x="392.773438" xlink:href="#DejaVuSans-20"/>
     <use x="424.560547" xlink:href="#DejaVuSans-32"/>
     <use x="488.183594" xlink:href="#DejaVuSans-30"/>
     <use x="551.806641" xlink:href="#DejaVuSans-2d"/>
     <use x="587.890625" xlink:href="#DejaVuSans-44"/>
    </g>
   </g>
   <g id="text_14">
    <!-- absolute targets -->
    <defs>
     <path d="M 48.6875 27.296875 
Q 48.6875 37.203125 44.609375 42.84375 
Q 40.53125 48.484375 33.40625 48.484375 
Q 26.265625 48.484375 22.1875 42.84375 
Q 18.109375 37.203125 18.109375 27.296875 
Q 18.109375 17.390625 22.1875 11.75 
Q 26.265625 6.109375 33.40625 6.109375 
Q 40.53125 6.109375 44.609375 11.75 
Q 48.6875 17.390625 48.6875 27.296875 
z
M 18.109375 46.390625 
Q 20.953125 51.265625 25.265625 53.625 
Q 29.59375 56 35.59375 56 
Q 45.5625 56 51.78125 48.09375 
Q 58.015625 40.1875 58.015625 27.296875 
Q 58.015625 14.40625 51.78125 6.484375 
Q 45.5625 -1.421875 35.59375 -1.421875 
Q 29.59375 -1.421875 25.265625 0.953125 
Q 20.953125 3.328125 18.109375 8.203125 
L 18.109375 0 
L 9.078125 0 
L 9.078125 75.984375 
L 18.109375 75.984375 
z
" id="DejaVuSans-62"/>
     <path d="M 8.5 21.578125 
L 8.5 54.6875 
L 17.484375 54.6875 
L 17.484375 21.921875 
Q 17.484375 14.15625 20.5 10.265625 
Q 23.53125 6.390625 29.59375 6.390625 
Q 36.859375 6.390625 41.078125 11.03125 
Q 45.3125 15.671875 45.3125 23.6875 
L 45.3125 54.6875 
L 54.296875 54.6875 
L 54.296875 0 
L 45.3125 0 
L 45.3125 8.40625 
Q 42.046875 3.421875 37.71875 1 
Q 33.40625 -1.421875 27.6875 -1.421875 
Q 18.265625 -1.421875 13.375 4.4375 
Q 8.5 10.296875 8.5 21.578125 
z
M 31.109375 56 
z
" id="DejaVuSans-75"/>
     <path d="M 56.203125 29.59375 
L 56.203125 25.203125 
L 14.890625 25.203125 
Q 15.484375 15.921875 20.484375 11.0625 
Q 25.484375 6.203125 34.421875 6.203125 
Q 39.59375 6.203125 44.453125 7.46875 
Q 49.3125 8.734375 54.109375 11.28125 
L 54.109375 2.78125 
Q 49.265625 0.734375 44.1875 -0.34375 
Q 39.109375 -1.421875 33.890625 -1.421875 
Q 20.796875 -1.421875 13.15625 6.1875 
Q 5.515625 13.8125 5.515625 26.8125 
Q 5.515625 40.234375 12.765625 48.109375 
Q 20.015625 56 32.328125 56 
Q 43.359375 56 49.78125 48.890625 
Q 56.203125 41.796875 56.203125 29.59375 
z
M 47.21875 32.234375 
Q 47.125 39.59375 43.09375 43.984375 
Q 39.0625 48.390625 32.421875 48.390625 
Q 24.90625 48.390625 20.390625 44.140625 
Q 15.875 39.890625 15.1875 32.171875 
z
" id="DejaVuSans-65"/>
    </defs>
    <g transform="translate(69.3625 291.449527)scale(0.14 -0.14)">
     <use xlink:href="#DejaVuSans-61"/>
     <use x="61.279297" xlink:href="#DejaVuSans-62"/>
     <use x="124.755859" xlink:href="#DejaVuSans-73"/>
     <use x="176.855469" xlink:href="#DejaVuSans-6f"/>
     <use x="238.037109" xlink:href="#DejaVuSans-6c"/>
     <use x="265.820312" xlink:href="#DejaVuSans-75"/>
     <use x="329.199219" xlink:href="#DejaVuSans-74"/>
     <use x="368.408203" xlink:href="#DejaVuSans-65"/>
     <use x="429.931641" xlink:href="#DejaVuSans-20"/>
     <use x="461.71875" xlink:href="#DejaVuSans-74"/>
     <use x="500.927734" xlink:href="#DejaVuSans-61"/>
     <use x="562.207031" xlink:href="#DejaVuSans-72"/>
     <use x="603.304688" xlink:href="#DejaVuSans-67"/>
     <use x="666.78125" xlink:href="#DejaVuSans-65"/>
     <use x="728.304688" xlink:href="#DejaVuSans-74"/>
     <use x="767.513672" xlink:href="#DejaVuSans-73"/>
    </g>
   </g>
   <g id="text_15">
    <!-- v2.1 -->
    <g style="fill:#808080;" transform="translate(237.011563 273.534858)scale(0.1 -0.1)">
     <use xlink:href="#DejaVuSans-76"/>
     <use x="59.179688" xlink:href="#DejaVuSans-32"/>
     <use x="122.802734" xlink:href="#DejaVuSans-2e"/>
     <use x="154.589844" xlink:href="#DejaVuSans-31"/>
    </g>
   </g>
   <g id="legend_1">
    <g id="patch_7">
     <path d="M 83.3625 145.588665 
L 212.584375 145.588665 
Q 216.584375 145.588665 216.584375 141.588665 
L 216.584375 26.163665 
Q 216.584375 22.163665 212.584375 22.163665 
L 83.3625 22.163665 
Q 79.3625 22.163665 79.3625 26.163665 
L 79.3625 141.588665 
Q 79.3625 145.588665 83.3625 145.588665 
z
" style="fill:#ffffff;opacity:0.2;stroke:#cccccc;stroke-linejoin:miter;"/>
    </g>
    <g id="line2d_85">
     <path d="M 87.3625 38.36054 
L 127.3625 38.36054 
" style="fill:none;stroke:#000000;stroke-linecap:square;stroke-width:1.5;"/>
    </g>
    <g id="line2d_86"/>
    <g id="text_16">
     <!-- 1: 4/4 -->
     <defs>
      <path d="M 11.71875 12.40625 
L 22.015625 12.40625 
L 22.015625 0 
L 11.71875 0 
z
M 11.71875 51.703125 
L 22.015625 51.703125 
L 22.015625 39.3125 
L 11.71875 39.3125 
z
" id="DejaVuSans-3a"/>
     </defs>
     <g transform="translate(143.3625 45.36054)scale(0.2 -0.2)">
      <use xlink:href="#DejaVuSans-31"/>
      <use x="63.623047" xlink:href="#DejaVuSans-3a"/>
      <use x="97.314453" xlink:href="#DejaVuSans-20"/>
      <use x="129.101562" xlink:href="#DejaVuSans-34"/>
      <use x="192.724609" xlink:href="#DejaVuSans-2f"/>
      <use x="226.416016" xlink:href="#DejaVuSans-34"/>
     </g>
    </g>
    <g id="line2d_87">
     <path d="M 87.3625 67.71679 
L 127.3625 67.71679 
" style="fill:none;stroke:#00bfbf;stroke-linecap:square;stroke-width:1.5;"/>
    </g>
    <g id="line2d_88"/>
    <g id="text_17">
     <!-- -1: 3/4 -->
     <g transform="translate(143.3625 74.71679)scale(0.2 -0.2)">
      <use xlink:href="#DejaVuSans-2d"/>
      <use x="36.083984" xlink:href="#DejaVuSans-31"/>
      <use x="99.707031" xlink:href="#DejaVuSans-3a"/>
      <use x="133.398438" xlink:href="#DejaVuSans-20"/>
      <use x="165.185547" xlink:href="#DejaVuSans-33"/>
      <use x="228.808594" xlink:href="#DejaVuSans-2f"/>
      <use x="262.5" xlink:href="#DejaVuSans-34"/>
     </g>
    </g>
    <g id="line2d_89">
     <path d="M 87.3625 97.07304 
L 127.3625 97.07304 
" style="fill:none;stroke:#bf00bf;stroke-linecap:square;stroke-width:1.5;"/>
    </g>
    <g id="line2d_90"/>
    <g id="text_18">
     <!-- -4: 2/4 -->
     <g transform="translate(143.3625 104.07304)scale(0.2 -0.2)">
      <use xlink:href="#DejaVuSans-2d"/>
      <use x="36.083984" xlink:href="#DejaVuSans-34"/>
      <use x="99.707031" xlink:href="#DejaVuSans-3a"/>
      <use x="133.398438" xlink:href="#DejaVuSans-20"/>
      <use x="165.185547" xlink:href="#DejaVuSans-32"/>
      <use x="228.808594" xlink:href="#DejaVuSans-2f"/>
      <use x="262.5" xlink:href="#DejaVuSans-34"/>
     </g>
    </g>
    <g id="line2d_91">
     <path d="M 87.3625 126.42929 
L 127.3625 126.42929 
" style="fill:none;stroke:#ff0000;stroke-linecap:square;stroke-width:3;"/>
    </g>
    <g id="line2d_92"/>
    <g id="text_19">
     <!-- -8: 1/4 -->
     <g transform="translate(143.3625 133.42929)scale(0.2 -0.2)">
      <use xlink:href="#DejaVuSans-2d"/>
      <use x="36.083984" xlink:href="#DejaVuSans-38"/>
      <use x="99.707031" xlink:href="#DejaVuSans-3a"/>
      <use x="133.398438" xlink:href="#DejaVuSans-20"/>
      <use x="165.185547" xlink:href="#DejaVuSans-31"/>
      <use x="228.808594" xlink:href="#DejaVuSans-2f"/>
      <use x="262.5" xlink:href="#DejaVuSans-34"/>
     </g>
    </g>
   </g>
  </g>
 </g>
 <defs>
  <clipPath id="p7ef2bd44d6">
   <rect height="266.112" width="357.12" x="69.3625" y="12.163665"/>
  </clipPath>
 </defs>
</svg>
